solid OpenSCAD_Model
  facet normal 0 0 -1
    outer loop
      vertex -56.2352 5 0
      vertex 56.2352 5 0
      vertex 56.8986 3.39856 0
    endloop
  endfacet
  facet normal 0 0 -1
    outer loop
      vertex -56.2352 5 0
      vertex 56.8986 6.60144 0
      vertex 56.2352 5 0
    endloop
  endfacet
  facet normal 0 0 1
    outer loop
      vertex -56.2352 5 5
      vertex 56.2352 5 5
      vertex 56.8986 6.60144 5
    endloop
  endfacet
  facet normal -0 0 1
    outer loop
      vertex -56.2352 5 5
      vertex 56.8986 3.39856 5
      vertex 56.2352 5 5
    endloop
  endfacet
  facet normal 0 0 -1
    outer loop
      vertex -56.8986 3.39856 0
      vertex -56.2352 5 0
      vertex 56.8986 3.39856 0
    endloop
  endfacet
  facet normal -0.923879 0.382684 0
    outer loop
      vertex -56.8986 3.39856 0
      vertex -56.2352 5 5
      vertex -56.2352 5 0
    endloop
  endfacet
  facet normal -0.923879 0.382684 0
    outer loop
      vertex -56.8986 3.39856 0
      vertex -56.8986 3.39856 5
      vertex -56.2352 5 5
    endloop
  endfacet
  facet normal 0 0 -1
    outer loop
      vertex -56.8986 3.39856 0
      vertex 56.8986 3.39856 0
      vertex 58.5 2.73522 0
    endloop
  endfacet
  facet normal 0 0 1
    outer loop
      vertex -56.8986 3.39856 5
      vertex 56.8986 3.39856 5
      vertex -56.2352 5 5
    endloop
  endfacet
  facet normal 0 0 1
    outer loop
      vertex -56.8986 3.39856 5
      vertex 63.49 0 5
      vertex 56.8986 3.39856 5
    endloop
  endfacet
  facet normal -0.923879 -0.382684 0
    outer loop
      vertex -56.8986 6.60144 0
      vertex -56.2352 5 0
      vertex -56.8986 6.60144 5
    endloop
  endfacet
  facet normal 0 0 -1
    outer loop
      vertex -56.8986 6.60144 0
      vertex 56.8986 6.60144 0
      vertex -56.2352 5 0
    endloop
  endfacet
  facet normal 0 0 -1
    outer loop
      vertex -56.8986 6.60144 0
      vertex 58.3753 9.99845 0
      vertex 56.8986 6.60144 0
    endloop
  endfacet
  facet normal -0.923879 -0.382684 0
    outer loop
      vertex -56.8986 6.60144 5
      vertex -56.2352 5 0
      vertex -56.2352 5 5
    endloop
  endfacet
  facet normal 0 0 1
    outer loop
      vertex -56.8986 6.60144 5
      vertex -56.2352 5 5
      vertex 56.8986 6.60144 5
    endloop
  endfacet
  facet normal 0 0 1
    outer loop
      vertex -56.8986 6.60144 5
      vertex 56.8986 6.60144 5
      vertex 58.3753 9.99845 5
    endloop
  endfacet
  facet normal 0 0 -1
    outer loop
      vertex -58.5 2.73522 0
      vertex -56.8986 3.39856 0
      vertex 58.5 2.73522 0
    endloop
  endfacet
  facet normal -0.382683 0.92388 0
    outer loop
      vertex -58.5 2.73522 0
      vertex -58.5 2.73522 5
      vertex -56.8986 3.39856 0
    endloop
  endfacet
  facet normal 0 0 -1
    outer loop
      vertex -58.5 2.73522 0
      vertex 58.5 2.73522 0
      vertex 74.99 0 0
    endloop
  endfacet
  facet normal -0.382683 0.92388 0
    outer loop
      vertex -58.5 2.73522 5
      vertex -56.8986 3.39856 5
      vertex -56.8986 3.39856 0
    endloop
  endfacet
  facet normal -0.382683 -0.92388 -0
    outer loop
      vertex -58.5 7.26478 0
      vertex -56.8986 6.60144 0
      vertex -56.8986 6.60144 5
    endloop
  endfacet
  facet normal -0.382683 -0.92388 0
    outer loop
      vertex -58.5 7.26478 0
      vertex -56.8986 6.60144 5
      vertex -58.5 7.26478 5
    endloop
  endfacet
  facet normal 0 0 -1
    outer loop
      vertex -58.6247 9.99845 0
      vertex -56.8986 6.60144 0
      vertex -58.5 7.26478 0
    endloop
  endfacet
  facet normal 0 1 0
    outer loop
      vertex -58.6247 9.99845 0
      vertex -58.6247 9.99845 5
      vertex 58.3753 9.99845 0
    endloop
  endfacet
  facet normal 0 0 -1
    outer loop
      vertex -58.6247 9.99845 0
      vertex 58.3753 9.99845 0
      vertex -56.8986 6.60144 0
    endloop
  endfacet
  facet normal -0 0 1
    outer loop
      vertex -58.6247 9.99845 5
      vertex -56.8986 6.60144 5
      vertex 58.3753 9.99845 5
    endloop
  endfacet
  facet normal 0 0 1
    outer loop
      vertex -58.6247 9.99845 5
      vertex -58.5 7.26478 5
      vertex -56.8986 6.60144 5
    endloop
  endfacet
  facet normal 0 1 -0
    outer loop
      vertex -58.6247 9.99845 5
      vertex 58.3753 9.99845 5
      vertex 58.3753 9.99845 0
    endloop
  endfacet
  facet normal 0 0 -1
    outer loop
      vertex -59.1217 9.9612 0
      vertex -58.6247 9.99845 0
      vertex -58.5 7.26478 0
    endloop
  endfacet
  facet normal -0.0747293 0.997204 0
    outer loop
      vertex -59.1217 9.9612 0
      vertex -59.1217 9.9612 5
      vertex -58.6247 9.99845 0
    endloop
  endfacet
  facet normal -0 0 1
    outer loop
      vertex -59.1217 9.9612 5
      vertex -58.5 7.26478 5
      vertex -58.6247 9.99845 5
    endloop
  endfacet
  facet normal -0.0747293 0.997204 0
    outer loop
      vertex -59.1217 9.9612 5
      vertex -58.6247 9.99845 5
      vertex -58.6247 9.99845 0
    endloop
  endfacet
  facet normal 0 0 -1
    outer loop
      vertex -59.6126 9.87464 0
      vertex -59.1217 9.9612 0
      vertex -58.5 7.26478 0
    endloop
  endfacet
  facet normal -0.173649 0.984808 0
    outer loop
      vertex -59.6126 9.87464 0
      vertex -59.6126 9.87464 5
      vertex -59.1217 9.9612 0
    endloop
  endfacet
  facet normal -0 0 1
    outer loop
      vertex -59.6126 9.87464 5
      vertex -58.5 7.26478 5
      vertex -59.1217 9.9612 5
    endloop
  endfacet
  facet normal -0.173649 0.984808 0
    outer loop
      vertex -59.6126 9.87464 5
      vertex -59.1217 9.9612 5
      vertex -59.1217 9.9612 0
    endloop
  endfacet
  facet normal 0 0 -1
    outer loop
      vertex -60.0924 9.73964 0
      vertex -59.6126 9.87464 0
      vertex -58.5 7.26478 0
    endloop
  endfacet
  facet normal -0.270839 0.962625 0
    outer loop
      vertex -60.0924 9.73964 0
      vertex -60.0924 9.73964 5
      vertex -59.6126 9.87464 0
    endloop
  endfacet
  facet normal -0 0 1
    outer loop
      vertex -60.0924 9.73964 5
      vertex -58.5 7.26478 5
      vertex -59.6126 9.87464 5
    endloop
  endfacet
  facet normal -0.270839 0.962625 0
    outer loop
      vertex -60.0924 9.73964 5
      vertex -59.6126 9.87464 5
      vertex -59.6126 9.87464 0
    endloop
  endfacet
  facet normal 0.382683 0.92388 0
    outer loop
      vertex -60.1014 3.39856 0
      vertex -60.1014 3.39856 5
      vertex -58.5 2.73522 0
    endloop
  endfacet
  facet normal 0.382683 0.92388 -0
    outer loop
      vertex -60.1014 3.39856 5
      vertex -58.5 2.73522 5
      vertex -58.5 2.73522 0
    endloop
  endfacet
  facet normal 0.382683 -0.92388 0
    outer loop
      vertex -60.1014 6.60144 0
      vertex -58.5 7.26478 0
      vertex -58.5 7.26478 5
    endloop
  endfacet
  facet normal 0.382683 -0.92388 0
    outer loop
      vertex -60.1014 6.60144 0
      vertex -58.5 7.26478 5
      vertex -60.1014 6.60144 5
    endloop
  endfacet
  facet normal 0 0 -1
    outer loop
      vertex -60.5564 9.55753 0
      vertex -58.5 7.26478 0
      vertex -60.1014 6.60144 0
    endloop
  endfacet
  facet normal 0 0 -1
    outer loop
      vertex -60.5564 9.55753 0
      vertex -60.0924 9.73964 0
      vertex -58.5 7.26478 0
    endloop
  endfacet
  facet normal -0.365343 0.930873 0
    outer loop
      vertex -60.5564 9.55753 0
      vertex -60.5564 9.55753 5
      vertex -60.0924 9.73964 0
    endloop
  endfacet
  facet normal -0 0 1
    outer loop
      vertex -60.5564 9.55753 5
      vertex -58.5 7.26478 5
      vertex -60.0924 9.73964 5
    endloop
  endfacet
  facet normal -0.365343 0.930873 0
    outer loop
      vertex -60.5564 9.55753 5
      vertex -60.0924 9.73964 5
      vertex -60.0924 9.73964 0
    endloop
  endfacet
  facet normal 0 0 1
    outer loop
      vertex -60.5564 9.55753 5
      vertex -60.1014 6.60144 5
      vertex -58.5 7.26478 5
    endloop
  endfacet
  facet normal 0.923879 0.382684 0
    outer loop
      vertex -60.7648 5 0
      vertex -60.1014 3.39856 5
      vertex -60.1014 3.39856 0
    endloop
  endfacet
  facet normal 0.923879 -0.382684 0
    outer loop
      vertex -60.7648 5 0
      vertex -60.1014 6.60144 0
      vertex -60.7648 5 5
    endloop
  endfacet
  facet normal 0.923879 0.382684 0
    outer loop
      vertex -60.7648 5 0
      vertex -60.7648 5 5
      vertex -60.1014 3.39856 5
    endloop
  endfacet
  facet normal 0.923879 -0.382684 0
    outer loop
      vertex -60.7648 5 5
      vertex -60.1014 6.60144 0
      vertex -60.1014 6.60144 5
    endloop
  endfacet
  facet normal 0 0 -1
    outer loop
      vertex -61 9.33013 0
      vertex -60.5564 9.55753 0
      vertex -60.1014 6.60144 0
    endloop
  endfacet
  facet normal -0.456209 0.889873 0
    outer loop
      vertex -61 9.33013 0
      vertex -61 9.33013 5
      vertex -60.5564 9.55753 0
    endloop
  endfacet
  facet normal -0 0 1
    outer loop
      vertex -61 9.33013 5
      vertex -60.1014 6.60144 5
      vertex -60.5564 9.55753 5
    endloop
  endfacet
  facet normal -0.456209 0.889873 0
    outer loop
      vertex -61 9.33013 5
      vertex -60.5564 9.55753 5
      vertex -60.5564 9.55753 0
    endloop
  endfacet
  facet normal 0 0 -1
    outer loop
      vertex -61.4187 9.05969 0
      vertex -61 9.33013 0
      vertex -60.1014 6.60144 0
    endloop
  endfacet
  facet normal -0.542548 0.840025 0
    outer loop
      vertex -61.4187 9.05969 0
      vertex -61.4187 9.05969 5
      vertex -61 9.33013 0
    endloop
  endfacet
  facet normal -0 0 1
    outer loop
      vertex -61.4187 9.05969 5
      vertex -60.1014 6.60144 5
      vertex -61 9.33013 5
    endloop
  endfacet
  facet normal -0.542548 0.840025 0
    outer loop
      vertex -61.4187 9.05969 5
      vertex -61 9.33013 5
      vertex -61 9.33013 0
    endloop
  endfacet
  facet normal 0 0 -1
    outer loop
      vertex -61.8084 8.74891 0
      vertex -61.4187 9.05969 0
      vertex -60.1014 6.60144 0
    endloop
  endfacet
  facet normal -0.623488 0.781833 0
    outer loop
      vertex -61.8084 8.74891 0
      vertex -61.8084 8.74891 5
      vertex -61.4187 9.05969 0
    endloop
  endfacet
  facet normal -0 0 1
    outer loop
      vertex -61.8084 8.74891 5
      vertex -60.1014 6.60144 5
      vertex -61.4187 9.05969 5
    endloop
  endfacet
  facet normal -0.623488 0.781833 0
    outer loop
      vertex -61.8084 8.74891 5
      vertex -61.4187 9.05969 5
      vertex -61.4187 9.05969 0
    endloop
  endfacet
  facet normal 0 0 -1
    outer loop
      vertex -62.1653 8.40086 0
      vertex -61.8084 8.74891 0
      vertex -60.1014 6.60144 0
    endloop
  endfacet
  facet normal -0.698236 0.715868 0
    outer loop
      vertex -62.1653 8.40086 0
      vertex -62.1653 8.40086 5
      vertex -61.8084 8.74891 0
    endloop
  endfacet
  facet normal -0 0 1
    outer loop
      vertex -62.1653 8.40086 5
      vertex -60.1014 6.60144 5
      vertex -61.8084 8.74891 5
    endloop
  endfacet
  facet normal -0.698236 0.715868 0
    outer loop
      vertex -62.1653 8.40086 5
      vertex -61.8084 8.74891 5
      vertex -61.8084 8.74891 0
    endloop
  endfacet
  facet normal 0 0 -1
    outer loop
      vertex -62.4857 8.01902 0
      vertex -62.1653 8.40086 0
      vertex -60.1014 6.60144 0
    endloop
  endfacet
  facet normal -0.766044 0.642789 0
    outer loop
      vertex -62.4857 8.01902 0
      vertex -62.1653 8.40086 5
      vertex -62.1653 8.40086 0
    endloop
  endfacet
  facet normal -0.766044 0.642789 0
    outer loop
      vertex -62.4857 8.01902 0
      vertex -62.4857 8.01902 5
      vertex -62.1653 8.40086 5
    endloop
  endfacet
  facet normal -0 0 1
    outer loop
      vertex -62.4857 8.01902 5
      vertex -60.1014 6.60144 5
      vertex -62.1653 8.40086 5
    endloop
  endfacet
  facet normal 0 0 -1
    outer loop
      vertex -62.7665 7.60718 0
      vertex -62.4857 8.01902 0
      vertex -60.1014 6.60144 0
    endloop
  endfacet
  facet normal -0.826242 0.563315 0
    outer loop
      vertex -62.7665 7.60718 0
      vertex -62.4857 8.01902 5
      vertex -62.4857 8.01902 0
    endloop
  endfacet
  facet normal -0.826242 0.563315 0
    outer loop
      vertex -62.7665 7.60718 0
      vertex -62.7665 7.60718 5
      vertex -62.4857 8.01902 5
    endloop
  endfacet
  facet normal -0 0 1
    outer loop
      vertex -62.7665 7.60718 5
      vertex -60.1014 6.60144 5
      vertex -62.4857 8.01902 5
    endloop
  endfacet
  facet normal 0 0 -1
    outer loop
      vertex -63.0048 7.16942 0
      vertex -62.7665 7.60718 0
      vertex -60.1014 6.60144 0
    endloop
  endfacet
  facet normal -0.87822 0.478257 0
    outer loop
      vertex -63.0048 7.16942 0
      vertex -62.7665 7.60718 5
      vertex -62.7665 7.60718 0
    endloop
  endfacet
  facet normal -0.87822 0.478257 0
    outer loop
      vertex -63.0048 7.16942 0
      vertex -63.0048 7.16942 5
      vertex -62.7665 7.60718 5
    endloop
  endfacet
  facet normal -0 0 1
    outer loop
      vertex -63.0048 7.16942 5
      vertex -60.1014 6.60144 5
      vertex -62.7665 7.60718 5
    endloop
  endfacet
  facet normal 0 0 -1
    outer loop
      vertex -63.1985 6.7101 0
      vertex -60.1014 6.60144 0
      vertex -60.7648 5 0
    endloop
  endfacet
  facet normal 0 0 -1
    outer loop
      vertex -63.1985 6.7101 0
      vertex -63.0048 7.16942 0
      vertex -60.1014 6.60144 0
    endloop
  endfacet
  facet normal -0.921476 0.388435 0
    outer loop
      vertex -63.1985 6.7101 0
      vertex -63.0048 7.16942 5
      vertex -63.0048 7.16942 0
    endloop
  endfacet
  facet normal -0.921476 0.388435 0
    outer loop
      vertex -63.1985 6.7101 0
      vertex -63.1985 6.7101 5
      vertex -63.0048 7.16942 5
    endloop
  endfacet
  facet normal -0 0 1
    outer loop
      vertex -63.1985 6.7101 5
      vertex -60.1014 6.60144 5
      vertex -63.0048 7.16942 5
    endloop
  endfacet
  facet normal 0 0 1
    outer loop
      vertex -63.1985 6.7101 5
      vertex -60.7648 5 5
      vertex -60.1014 6.60144 5
    endloop
  endfacet
  facet normal 0 0 -1
    outer loop
      vertex -63.3454 6.23379 0
      vertex -63.1985 6.7101 0
      vertex -60.7648 5 0
    endloop
  endfacet
  facet normal -0.955573 0.294755 0
    outer loop
      vertex -63.3454 6.23379 0
      vertex -63.1985 6.7101 5
      vertex -63.1985 6.7101 0
    endloop
  endfacet
  facet normal -0.955573 0.294755 0
    outer loop
      vertex -63.3454 6.23379 0
      vertex -63.3454 6.23379 5
      vertex -63.1985 6.7101 5
    endloop
  endfacet
  facet normal -0 0 1
    outer loop
      vertex -63.3454 6.23379 5
      vertex -60.7648 5 5
      vertex -63.1985 6.7101 5
    endloop
  endfacet
  facet normal 0 0 -1
    outer loop
      vertex -63.4442 5.74521 0
      vertex -63.3454 6.23379 0
      vertex -60.7648 5 0
    endloop
  endfacet
  facet normal -0.980173 0.198143 0
    outer loop
      vertex -63.4442 5.74521 0
      vertex -63.3454 6.23379 5
      vertex -63.3454 6.23379 0
    endloop
  endfacet
  facet normal -0.980173 0.198143 0
    outer loop
      vertex -63.4442 5.74521 0
      vertex -63.4442 5.74521 5
      vertex -63.3454 6.23379 5
    endloop
  endfacet
  facet normal -0 0 1
    outer loop
      vertex -63.4442 5.74521 5
      vertex -60.7648 5 5
      vertex -63.3454 6.23379 5
    endloop
  endfacet
  facet normal 1 -0 0
    outer loop
      vertex -63.49 0 12
      vertex -63.49 5 5
      vertex -63.49 5 12
    endloop
  endfacet
  facet normal 0 0 1
    outer loop
      vertex -63.49 0 5
      vertex -56.8986 3.39856 5
      vertex -58.5 2.73522 5
    endloop
  endfacet
  facet normal 0 0 1
    outer loop
      vertex -63.49 0 5
      vertex -58.5 2.73522 5
      vertex -60.1014 3.39856 5
    endloop
  endfacet
  facet normal 0 0 1
    outer loop
      vertex -63.49 0 5
      vertex -60.1014 3.39856 5
      vertex -63.49 5 5
    endloop
  endfacet
  facet normal 1 0 0
    outer loop
      vertex -63.49 0 5
      vertex -63.49 5 5
      vertex -63.49 0 12
    endloop
  endfacet
  facet normal 0 0 1
    outer loop
      vertex -63.49 0 5
      vertex 63.49 0 5
      vertex -56.8986 3.39856 5
    endloop
  endfacet
  facet normal 0 0 1
    outer loop
      vertex -63.49 5 5
      vertex -60.1014 3.39856 5
      vertex -60.7648 5 5
    endloop
  endfacet
  facet normal 0 0 -1
    outer loop
      vertex -63.4938 5.24923 0
      vertex -63.4442 5.74521 0
      vertex -60.7648 5 0
    endloop
  endfacet
  facet normal -0.995031 0.0995653 0
    outer loop
      vertex -63.4938 5.24923 0
      vertex -63.4442 5.74521 5
      vertex -63.4442 5.74521 0
    endloop
  endfacet
  facet normal -0.995031 0.0995653 0
    outer loop
      vertex -63.4938 5.24923 0
      vertex -63.4938 5.24923 5
      vertex -63.4442 5.74521 5
    endloop
  endfacet
  facet normal -0 0 1
    outer loop
      vertex -63.4938 5.24923 5
      vertex -60.7648 5 5
      vertex -63.4442 5.74521 5
    endloop
  endfacet
  facet normal 0 0 1
    outer loop
      vertex -63.4938 5.24923 5
      vertex -63.49 5 5
      vertex -60.7648 5 5
    endloop
  endfacet
  facet normal 0 0 -1
    outer loop
      vertex -63.5 5 0
      vertex -60.7648 5 0
      vertex -60.1014 3.39856 0
    endloop
  endfacet
  facet normal 0 0 -1
    outer loop
      vertex -63.5 5 0
      vertex -63.4938 5.24923 0
      vertex -60.7648 5 0
    endloop
  endfacet
  facet normal -0.999689 0.0249411 0
    outer loop
      vertex -63.5 5 0
      vertex -63.4938 5.24923 5
      vertex -63.4938 5.24923 0
    endloop
  endfacet
  facet normal -0.999689 0.0249411 0
    outer loop
      vertex -63.5 5 0
      vertex -63.5 5 5
      vertex -63.4938 5.24923 5
    endloop
  endfacet
  facet normal 0 1 0
    outer loop
      vertex -63.5 5 5
      vertex -63.49 5 12
      vertex -63.49 5 5
    endloop
  endfacet
  facet normal 0 0 1
    outer loop
      vertex -63.5 5 5
      vertex -63.49 5 5
      vertex -63.4938 5.24923 5
    endloop
  endfacet
  facet normal 0 -1 0
    outer loop
      vertex -66.9809 0 5.52148
      vertex -63.49 0 5
      vertex -66.925 0 6
    endloop
  endfacet
  facet normal -0.993236 0 0.11611
    outer loop
      vertex -66.9809 0 5.52148
      vertex -66.925 0 6
      vertex -66.925 5 6
    endloop
  endfacet
  facet normal -0.993236 0 0.11611
    outer loop
      vertex -66.9809 0 5.52148
      vertex -66.925 5 6
      vertex -66.9809 5 5.52148
    endloop
  endfacet
  facet normal 0 -1 0
    outer loop
      vertex -66.9809 0 6.47852
      vertex -66.925 0 6
      vertex -63.49 0 5
    endloop
  endfacet
  facet normal -0.993236 -0 -0.11611
    outer loop
      vertex -66.9809 0 6.47852
      vertex -66.9809 5 6.47852
      vertex -66.925 0 6
    endloop
  endfacet
  facet normal 0 1 0
    outer loop
      vertex -66.9809 5 5.52148
      vertex -66.925 5 6
      vertex -63.5 5 5
    endloop
  endfacet
  facet normal 0 1 0
    outer loop
      vertex -66.9809 5 6.47852
      vertex -63.5 5 5
      vertex -66.925 5 6
    endloop
  endfacet
  facet normal -0.993236 0 -0.11611
    outer loop
      vertex -66.9809 5 6.47852
      vertex -66.925 5 6
      vertex -66.925 0 6
    endloop
  endfacet
  facet normal 0 -1 0
    outer loop
      vertex -67.1457 0 5.06876
      vertex -63.49 0 5
      vertex -66.9809 0 5.52148
    endloop
  endfacet
  facet normal -0.939693 0 0.34202
    outer loop
      vertex -67.1457 0 5.06876
      vertex -66.9809 0 5.52148
      vertex -66.9809 5 5.52148
    endloop
  endfacet
  facet normal -0.939693 0 0.34202
    outer loop
      vertex -67.1457 0 5.06876
      vertex -66.9809 5 5.52148
      vertex -67.1457 5 5.06876
    endloop
  endfacet
  facet normal 0 -1 0
    outer loop
      vertex -67.1457 0 6.93124
      vertex -63.49 0 5
      vertex -63.49 0 12
    endloop
  endfacet
  facet normal 0 -1 0
    outer loop
      vertex -67.1457 0 6.93124
      vertex -66.9809 0 6.47852
      vertex -63.49 0 5
    endloop
  endfacet
  facet normal -0.939693 -0 -0.34202
    outer loop
      vertex -67.1457 0 6.93124
      vertex -67.1457 5 6.93124
      vertex -66.9809 0 6.47852
    endloop
  endfacet
  facet normal 0 1 0
    outer loop
      vertex -67.1457 5 5.06876
      vertex -66.9809 5 5.52148
      vertex -63.5 5 5
    endloop
  endfacet
  facet normal 0 1 -0
    outer loop
      vertex -67.1457 5 6.93124
      vertex -63.49 5 12
      vertex -63.5 5 5
    endloop
  endfacet
  facet normal 0 1 0
    outer loop
      vertex -67.1457 5 6.93124
      vertex -63.5 5 5
      vertex -66.9809 5 6.47852
    endloop
  endfacet
  facet normal -0.939693 0 -0.34202
    outer loop
      vertex -67.1457 5 6.93124
      vertex -66.9809 5 6.47852
      vertex -66.9809 0 6.47852
    endloop
  endfacet
  facet normal 0 -1 0
    outer loop
      vertex -67.4105 0 4.66623
      vertex -63.49 0 5
      vertex -67.1457 0 5.06876
    endloop
  endfacet
  facet normal -0.835494 0 0.5495
    outer loop
      vertex -67.4105 0 4.66623
      vertex -67.1457 0 5.06876
      vertex -67.1457 5 5.06876
    endloop
  endfacet
  facet normal -0.835494 0 0.5495
    outer loop
      vertex -67.4105 0 4.66623
      vertex -67.1457 5 5.06876
      vertex -67.4105 5 4.66623
    endloop
  endfacet
  facet normal 0 -1 0
    outer loop
      vertex -67.4105 0 7.33377
      vertex -67.1457 0 6.93124
      vertex -63.49 0 12
    endloop
  endfacet
  facet normal -0.835494 -0 -0.5495
    outer loop
      vertex -67.4105 0 7.33377
      vertex -67.4105 5 7.33377
      vertex -67.1457 0 6.93124
    endloop
  endfacet
  facet normal 0 1 -0
    outer loop
      vertex -67.4105 5 4.66623
      vertex -63.5 5 5
      vertex -63.5 5 0
    endloop
  endfacet
  facet normal 0 1 0
    outer loop
      vertex -67.4105 5 4.66623
      vertex -67.1457 5 5.06876
      vertex -63.5 5 5
    endloop
  endfacet
  facet normal 0 1 0
    outer loop
      vertex -67.4105 5 7.33377
      vertex -63.49 5 12
      vertex -67.1457 5 6.93124
    endloop
  endfacet
  facet normal -0.835494 0 -0.5495
    outer loop
      vertex -67.4105 5 7.33377
      vertex -67.1457 5 6.93124
      vertex -67.1457 0 6.93124
    endloop
  endfacet
  facet normal 0 -1 0
    outer loop
      vertex -67.5328 0 7.46724
      vertex -67.4105 0 7.33377
      vertex -63.49 0 12
    endloop
  endfacet
  facet normal 0 1 0
    outer loop
      vertex -67.5328 5 7.46724
      vertex -63.49 5 12
      vertex -67.4105 5 7.33377
    endloop
  endfacet
  facet normal 0 -1 0
    outer loop
      vertex -67.5421 0 7.45793
      vertex -67.4105 0 7.33377
      vertex -67.5328 0 7.46724
    endloop
  endfacet
  facet normal -0.68623 0 -0.727385
    outer loop
      vertex -67.5421 0 7.45793
      vertex -67.4105 5 7.33377
      vertex -67.4105 0 7.33377
    endloop
  endfacet
  facet normal -0.707107 0 0.707107
    outer loop
      vertex -67.5421 0 7.45793
      vertex -67.5328 0 7.46724
      vertex -67.5328 5 7.46724
    endloop
  endfacet
  facet normal -0.707107 0 0.707107
    outer loop
      vertex -67.5421 0 7.45793
      vertex -67.5328 5 7.46724
      vertex -67.5421 5 7.45793
    endloop
  endfacet
  facet normal -0.68623 0 -0.727385
    outer loop
      vertex -67.5421 0 7.45793
      vertex -67.5421 5 7.45793
      vertex -67.4105 5 7.33377
    endloop
  endfacet
  facet normal 0 1 0
    outer loop
      vertex -67.5421 5 7.45793
      vertex -67.5328 5 7.46724
      vertex -67.4105 5 7.33377
    endloop
  endfacet
  facet normal 0 -1 0
    outer loop
      vertex -67.7609 0 4.3356
      vertex -63.49 0 5
      vertex -67.4105 0 4.66623
    endloop
  endfacet
  facet normal -0.686237 0 0.727378
    outer loop
      vertex -67.7609 0 4.3356
      vertex -67.4105 0 4.66623
      vertex -67.7609 5 4.3356
    endloop
  endfacet
  facet normal -0.686237 0 0.727378
    outer loop
      vertex -67.7609 5 4.3356
      vertex -67.4105 0 4.66623
      vertex -67.4105 5 4.66623
    endloop
  endfacet
  facet normal 0 1 0
    outer loop
      vertex -67.7609 5 4.3356
      vertex -67.4105 5 4.66623
      vertex -63.5 5 0
    endloop
  endfacet
  facet normal 0 -1 0
    outer loop
      vertex -68.1405 0 8.075
      vertex -67.5328 0 7.46724
      vertex -63.49 0 12
    endloop
  endfacet
  facet normal -0.707107 -0 -0.707107
    outer loop
      vertex -68.1405 0 8.075
      vertex -68.1405 5 8.075
      vertex -67.5328 0 7.46724
    endloop
  endfacet
  facet normal 0 1 0
    outer loop
      vertex -68.1405 5 8.075
      vertex -63.49 5 12
      vertex -67.5328 5 7.46724
    endloop
  endfacet
  facet normal -0.707107 0 -0.707107
    outer loop
      vertex -68.1405 5 8.075
      vertex -67.5328 5 7.46724
      vertex -67.5328 0 7.46724
    endloop
  endfacet
  facet normal 0 -1 0
    outer loop
      vertex -68.1781 0 4.09471
      vertex -63.49 0 5
      vertex -67.7609 0 4.3356
    endloop
  endfacet
  facet normal -0.499998 0 0.866026
    outer loop
      vertex -68.1781 0 4.09471
      vertex -67.7609 0 4.3356
      vertex -68.1781 5 4.09471
    endloop
  endfacet
  facet normal -0.499998 0 0.866026
    outer loop
      vertex -68.1781 5 4.09471
      vertex -67.7609 0 4.3356
      vertex -67.7609 5 4.3356
    endloop
  endfacet
  facet normal 0 1 0
    outer loop
      vertex -68.1781 5 4.09471
      vertex -67.7609 5 4.3356
      vertex -63.5 5 0
    endloop
  endfacet
  facet normal -0.286813 0 0.957987
    outer loop
      vertex -68.6397 0 3.95653
      vertex -68.1781 0 4.09471
      vertex -68.6397 5 3.95653
    endloop
  endfacet
  facet normal -0.286813 0 0.957987
    outer loop
      vertex -68.6397 5 3.95653
      vertex -68.1781 0 4.09471
      vertex -68.1781 5 4.09471
    endloop
  endfacet
  facet normal 0 1 0
    outer loop
      vertex -68.6397 5 3.95653
      vertex -68.1781 5 4.09471
      vertex -63.5 5 0
    endloop
  endfacet
  facet normal -0.058152 0 0.998308
    outer loop
      vertex -69.1206 0 3.92851
      vertex -68.6397 0 3.95653
      vertex -69.1206 5 3.92851
    endloop
  endfacet
  facet normal -0.058152 0 0.998308
    outer loop
      vertex -69.1206 5 3.92851
      vertex -68.6397 0 3.95653
      vertex -68.6397 5 3.95653
    endloop
  endfacet
  facet normal 0 1 0
    outer loop
      vertex -69.1206 5 3.92851
      vertex -68.6397 5 3.95653
      vertex -63.5 5 0
    endloop
  endfacet
  facet normal 0.173652 0 0.984807
    outer loop
      vertex -69.5951 0 4.01218
      vertex -69.1206 0 3.92851
      vertex -69.5951 5 4.01218
    endloop
  endfacet
  facet normal 0.173652 0 0.984807
    outer loop
      vertex -69.5951 5 4.01218
      vertex -69.1206 0 3.92851
      vertex -69.1206 5 3.92851
    endloop
  endfacet
  facet normal 0 -1 0
    outer loop
      vertex -69.8595 0 8.075
      vertex -68.1405 0 8.075
      vertex -63.49 0 12
    endloop
  endfacet
  facet normal 0 0 -1
    outer loop
      vertex -69.8595 0 8.075
      vertex -68.1405 5 8.075
      vertex -68.1405 0 8.075
    endloop
  endfacet
  facet normal -0 0 -1
    outer loop
      vertex -69.8595 0 8.075
      vertex -69.8595 5 8.075
      vertex -68.1405 5 8.075
    endloop
  endfacet
  facet normal 0 1 0
    outer loop
      vertex -69.8595 5 8.075
      vertex -63.49 5 12
      vertex -68.1405 5 8.075
    endloop
  endfacet
  facet normal 0.396082 0 0.918215
    outer loop
      vertex -70.0375 0 4.203
      vertex -69.5951 0 4.01218
      vertex -70.0375 5 4.203
    endloop
  endfacet
  facet normal 0.396082 0 0.918215
    outer loop
      vertex -70.0375 5 4.203
      vertex -69.5951 0 4.01218
      vertex -69.5951 5 4.01218
    endloop
  endfacet
  facet normal 0.597153 0 0.802127
    outer loop
      vertex -70.424 0 4.49071
      vertex -70.0375 0 4.203
      vertex -70.424 5 4.49071
    endloop
  endfacet
  facet normal 0.597153 0 0.802127
    outer loop
      vertex -70.424 5 4.49071
      vertex -70.0375 0 4.203
      vertex -70.0375 5 4.203
    endloop
  endfacet
  facet normal 0.707107 0 0.707107
    outer loop
      vertex -70.4672 0 7.46724
      vertex -70.4629 0 7.46289
      vertex -70.4629 5 7.46289
    endloop
  endfacet
  facet normal 0.707107 -0 0.707107
    outer loop
      vertex -70.4672 0 7.46724
      vertex -70.4629 5 7.46289
      vertex -70.4672 5 7.46724
    endloop
  endfacet
  facet normal 0.707107 0 -0.707107
    outer loop
      vertex -70.4672 0 7.46724
      vertex -70.4672 5 7.46724
      vertex -69.8595 0 8.075
    endloop
  endfacet
  facet normal 0.707107 0 -0.707107
    outer loop
      vertex -70.4672 5 7.46724
      vertex -69.8595 5 8.075
      vertex -69.8595 0 8.075
    endloop
  endfacet
  facet normal 0.766049 0 0.642782
    outer loop
      vertex -70.7336 0 4.85977
      vertex -70.424 0 4.49071
      vertex -70.424 5 4.49071
    endloop
  endfacet
  facet normal 0.766049 -0 0.642782
    outer loop
      vertex -70.7336 0 4.85977
      vertex -70.424 5 4.49071
      vertex -70.7336 5 4.85977
    endloop
  endfacet
  facet normal 0 -1 -0
    outer loop
      vertex -70.7336 0 7.14023
      vertex -70.4629 0 7.46289
      vertex -70.4672 0 7.46724
    endloop
  endfacet
  facet normal 0.766055 0 -0.642775
    outer loop
      vertex -70.7336 0 7.14023
      vertex -70.7336 5 7.14023
      vertex -70.4629 0 7.46289
    endloop
  endfacet
  facet normal 0.766055 0 -0.642775
    outer loop
      vertex -70.7336 5 7.14023
      vertex -70.4629 5 7.46289
      vertex -70.4629 0 7.46289
    endloop
  endfacet
  facet normal 0 1 0
    outer loop
      vertex -70.7336 5 7.14023
      vertex -70.4672 5 7.46724
      vertex -70.4629 5 7.46289
    endloop
  endfacet
  facet normal 0.893628 0 0.448809
    outer loop
      vertex -70.9499 0 5.29031
      vertex -70.7336 0 4.85977
      vertex -70.7336 5 4.85977
    endloop
  endfacet
  facet normal 0.893628 -0 0.448809
    outer loop
      vertex -70.9499 0 5.29031
      vertex -70.7336 5 4.85977
      vertex -70.9499 5 5.29031
    endloop
  endfacet
  facet normal 0.893628 0 -0.448809
    outer loop
      vertex -70.9499 0 6.70969
      vertex -70.9499 5 6.70969
      vertex -70.7336 0 7.14023
    endloop
  endfacet
  facet normal 0.893628 0 -0.448809
    outer loop
      vertex -70.9499 5 6.70969
      vertex -70.7336 5 7.14023
      vertex -70.7336 0 7.14023
    endloop
  endfacet
  facet normal 0.973048 0 0.230601
    outer loop
      vertex -71.061 0 5.75911
      vertex -70.9499 0 5.29031
      vertex -70.9499 5 5.29031
    endloop
  endfacet
  facet normal 0.973048 -0 0.230601
    outer loop
      vertex -71.061 0 5.75911
      vertex -70.9499 5 5.29031
      vertex -71.061 5 5.75911
    endloop
  endfacet
  facet normal 1 0 0
    outer loop
      vertex -71.061 0 5.75911
      vertex -71.061 5 5.75911
      vertex -71.061 0 6.24089
    endloop
  endfacet
  facet normal 1 -0 0
    outer loop
      vertex -71.061 0 6.24089
      vertex -71.061 5 5.75911
      vertex -71.061 5 6.24089
    endloop
  endfacet
  facet normal 0.973048 0 -0.230601
    outer loop
      vertex -71.061 0 6.24089
      vertex -71.061 5 6.24089
      vertex -70.9499 0 6.70969
    endloop
  endfacet
  facet normal 0.973048 0 -0.230601
    outer loop
      vertex -71.061 5 6.24089
      vertex -70.9499 5 6.70969
      vertex -70.9499 0 6.70969
    endloop
  endfacet
  facet normal 0 0 -1
    outer loop
      vertex -74.99 0 0
      vertex -58.5 2.73522 0
      vertex 74.99 0 0
    endloop
  endfacet
  facet normal 0 0 -1
    outer loop
      vertex -74.99 0 0
      vertex -60.1014 3.39856 0
      vertex -58.5 2.73522 0
    endloop
  endfacet
  facet normal 0 -1 0
    outer loop
      vertex -74.99 0 0
      vertex -63.49 0 5
      vertex -68.1781 0 4.09471
    endloop
  endfacet
  facet normal 0 0 -1
    outer loop
      vertex -74.99 0 0
      vertex -63.5 5 0
      vertex -60.1014 3.39856 0
    endloop
  endfacet
  facet normal 0 -1 0
    outer loop
      vertex -74.99 0 0
      vertex -68.1781 0 4.09471
      vertex -68.6397 0 3.95653
    endloop
  endfacet
  facet normal 0 -1 0
    outer loop
      vertex -74.99 0 0
      vertex -68.6397 0 3.95653
      vertex -69.1206 0 3.92851
    endloop
  endfacet
  facet normal 0 -1 -0
    outer loop
      vertex -74.99 0 0
      vertex -69.1206 0 3.92851
      vertex -69.5951 0 4.01218
    endloop
  endfacet
  facet normal 0 -1 -0
    outer loop
      vertex -74.99 0 0
      vertex -69.5951 0 4.01218
      vertex -70.0375 0 4.203
    endloop
  endfacet
  facet normal 0 -1 -0
    outer loop
      vertex -74.99 0 0
      vertex -70.0375 0 4.203
      vertex -70.424 0 4.49071
    endloop
  endfacet
  facet normal 0 -1 -0
    outer loop
      vertex -74.99 0 0
      vertex -70.424 0 4.49071
      vertex -70.7336 0 4.85977
    endloop
  endfacet
  facet normal 0 -1 -0
    outer loop
      vertex -74.99 0 0
      vertex -70.7336 0 4.85977
      vertex -70.9499 0 5.29031
    endloop
  endfacet
  facet normal 0 -1 -0
    outer loop
      vertex -74.99 0 0
      vertex -70.9499 0 5.29031
      vertex -71.061 0 5.75911
    endloop
  endfacet
  facet normal 0 -1 0
    outer loop
      vertex -74.99 0 0
      vertex -71.061 0 5.75911
      vertex -74.99 0 12
    endloop
  endfacet
  facet normal -1 -0 0
    outer loop
      vertex -74.99 0 0
      vertex -74.99 0 12
      vertex -74.99 5 12
    endloop
  endfacet
  facet normal -0 0 -1
    outer loop
      vertex -74.99 0 0
      vertex -74.99 5 0
      vertex -63.5 5 0
    endloop
  endfacet
  facet normal -1 0 0
    outer loop
      vertex -74.99 0 0
      vertex -74.99 5 12
      vertex -74.99 5 0
    endloop
  endfacet
  facet normal 0 -1 -0
    outer loop
      vertex -74.99 0 0
      vertex 63.49 0 5
      vertex -63.49 0 5
    endloop
  endfacet
  facet normal 0 -1 0
    outer loop
      vertex -74.99 0 0
      vertex 74.99 0 0
      vertex 63.49 0 5
    endloop
  endfacet
  facet normal 0 0 1
    outer loop
      vertex -74.99 0 12
      vertex -63.49 0 12
      vertex -74.99 5 12
    endloop
  endfacet
  facet normal 0 -1 0
    outer loop
      vertex -74.99 0 12
      vertex -69.8595 0 8.075
      vertex -63.49 0 12
    endloop
  endfacet
  facet normal 0 -1 0
    outer loop
      vertex -74.99 0 12
      vertex -70.4672 0 7.46724
      vertex -69.8595 0 8.075
    endloop
  endfacet
  facet normal 0 -1 0
    outer loop
      vertex -74.99 0 12
      vertex -70.7336 0 7.14023
      vertex -70.4672 0 7.46724
    endloop
  endfacet
  facet normal 0 -1 0
    outer loop
      vertex -74.99 0 12
      vertex -70.9499 0 6.70969
      vertex -70.7336 0 7.14023
    endloop
  endfacet
  facet normal 0 -1 0
    outer loop
      vertex -74.99 0 12
      vertex -71.061 0 5.75911
      vertex -71.061 0 6.24089
    endloop
  endfacet
  facet normal 0 -1 0
    outer loop
      vertex -74.99 0 12
      vertex -71.061 0 6.24089
      vertex -70.9499 0 6.70969
    endloop
  endfacet
  facet normal 0 1 0
    outer loop
      vertex -74.99 5 0
      vertex -69.1206 5 3.92851
      vertex -63.5 5 0
    endloop
  endfacet
  facet normal 0 1 0
    outer loop
      vertex -74.99 5 0
      vertex -69.5951 5 4.01218
      vertex -69.1206 5 3.92851
    endloop
  endfacet
  facet normal 0 1 0
    outer loop
      vertex -74.99 5 0
      vertex -70.0375 5 4.203
      vertex -69.5951 5 4.01218
    endloop
  endfacet
  facet normal 0 1 0
    outer loop
      vertex -74.99 5 0
      vertex -70.424 5 4.49071
      vertex -70.0375 5 4.203
    endloop
  endfacet
  facet normal 0 1 0
    outer loop
      vertex -74.99 5 0
      vertex -70.7336 5 4.85977
      vertex -70.424 5 4.49071
    endloop
  endfacet
  facet normal 0 1 0
    outer loop
      vertex -74.99 5 0
      vertex -70.9499 5 5.29031
      vertex -70.7336 5 4.85977
    endloop
  endfacet
  facet normal 0 1 0
    outer loop
      vertex -74.99 5 0
      vertex -71.061 5 5.75911
      vertex -70.9499 5 5.29031
    endloop
  endfacet
  facet normal 0 1 0
    outer loop
      vertex -74.99 5 0
      vertex -74.99 5 12
      vertex -71.061 5 5.75911
    endloop
  endfacet
  facet normal -0 0 1
    outer loop
      vertex -74.99 5 12
      vertex -63.49 0 12
      vertex -63.49 5 12
    endloop
  endfacet
  facet normal 0 1 0
    outer loop
      vertex -74.99 5 12
      vertex -63.49 5 12
      vertex -69.8595 5 8.075
    endloop
  endfacet
  facet normal 0 1 -0
    outer loop
      vertex -74.99 5 12
      vertex -69.8595 5 8.075
      vertex -70.4672 5 7.46724
    endloop
  endfacet
  facet normal 0 1 -0
    outer loop
      vertex -74.99 5 12
      vertex -70.4672 5 7.46724
      vertex -70.7336 5 7.14023
    endloop
  endfacet
  facet normal 0 1 -0
    outer loop
      vertex -74.99 5 12
      vertex -70.7336 5 7.14023
      vertex -70.9499 5 6.70969
    endloop
  endfacet
  facet normal 0 1 -0
    outer loop
      vertex -74.99 5 12
      vertex -70.9499 5 6.70969
      vertex -71.061 5 6.24089
    endloop
  endfacet
  facet normal 0 1 -0
    outer loop
      vertex -74.99 5 12
      vertex -71.061 5 6.24089
      vertex -71.061 5 5.75911
    endloop
  endfacet
  facet normal 0.923879 0.382684 0
    outer loop
      vertex 56.2352 5 0
      vertex 56.2352 5 5
      vertex 56.8986 3.39856 5
    endloop
  endfacet
  facet normal 0.923879 0.382684 0
    outer loop
      vertex 56.2352 5 0
      vertex 56.8986 3.39856 5
      vertex 56.8986 3.39856 0
    endloop
  endfacet
  facet normal 0.923879 -0.382684 0
    outer loop
      vertex 56.2352 5 0
      vertex 56.8986 6.60144 0
      vertex 56.2352 5 5
    endloop
  endfacet
  facet normal 0.923879 -0.382684 0
    outer loop
      vertex 56.2352 5 5
      vertex 56.8986 6.60144 0
      vertex 56.8986 6.60144 5
    endloop
  endfacet
  facet normal 0.382683 0.92388 0
    outer loop
      vertex 56.8986 3.39856 0
      vertex 56.8986 3.39856 5
      vertex 58.5 2.73522 0
    endloop
  endfacet
  facet normal 0.382683 0.92388 -0
    outer loop
      vertex 56.8986 3.39856 5
      vertex 58.5 2.73522 5
      vertex 58.5 2.73522 0
    endloop
  endfacet
  facet normal 0 0 1
    outer loop
      vertex 56.8986 3.39856 5
      vertex 63.49 0 5
      vertex 58.5 2.73522 5
    endloop
  endfacet
  facet normal 0 0 -1
    outer loop
      vertex 56.8986 6.60144 0
      vertex 58.3753 9.99845 0
      vertex 58.5 7.26478 0
    endloop
  endfacet
  facet normal 0.382683 -0.92388 0
    outer loop
      vertex 56.8986 6.60144 0
      vertex 58.5 7.26478 0
      vertex 58.5 7.26478 5
    endloop
  endfacet
  facet normal 0.382683 -0.92388 0
    outer loop
      vertex 56.8986 6.60144 0
      vertex 58.5 7.26478 5
      vertex 56.8986 6.60144 5
    endloop
  endfacet
  facet normal 0 0 1
    outer loop
      vertex 56.8986 6.60144 5
      vertex 58.5 7.26478 5
      vertex 58.3753 9.99845 5
    endloop
  endfacet
  facet normal 0.0249316 0.999689 0
    outer loop
      vertex 58.3753 9.99845 0
      vertex 58.3753 9.99845 5
      vertex 58.8736 9.98602 0
    endloop
  endfacet
  facet normal 0 0 -1
    outer loop
      vertex 58.3753 9.99845 0
      vertex 58.8736 9.98602 0
      vertex 58.5 7.26478 0
    endloop
  endfacet
  facet normal 0 0 1
    outer loop
      vertex 58.3753 9.99845 5
      vertex 58.5 7.26478 5
      vertex 58.8736 9.98602 5
    endloop
  endfacet
  facet normal 0.0249316 0.999689 -0
    outer loop
      vertex 58.3753 9.99845 5
      vertex 58.8736 9.98602 5
      vertex 58.8736 9.98602 0
    endloop
  endfacet
  facet normal -0.382683 0.92388 0
    outer loop
      vertex 58.5 2.73522 0
      vertex 58.5 2.73522 5
      vertex 60.1014 3.39856 0
    endloop
  endfacet
  facet normal 0 0 -1
    outer loop
      vertex 58.5 2.73522 0
      vertex 60.1014 3.39856 0
      vertex 74.99 0 0
    endloop
  endfacet
  facet normal -0.382683 0.92388 0
    outer loop
      vertex 58.5 2.73522 5
      vertex 60.1014 3.39856 5
      vertex 60.1014 3.39856 0
    endloop
  endfacet
  facet normal -0 0 1
    outer loop
      vertex 58.5 2.73522 5
      vertex 63.49 0 5
      vertex 60.1014 3.39856 5
    endloop
  endfacet
  facet normal -0 0 -1
    outer loop
      vertex 58.5 7.26478 0
      vertex 58.8736 9.98602 0
      vertex 59.3682 9.92404 0
    endloop
  endfacet
  facet normal -0 0 -1
    outer loop
      vertex 58.5 7.26478 0
      vertex 59.3682 9.92404 0
      vertex 59.8542 9.81312 0
    endloop
  endfacet
  facet normal -0 0 -1
    outer loop
      vertex 58.5 7.26478 0
      vertex 59.8542 9.81312 0
      vertex 60.3267 9.65437 0
    endloop
  endfacet
  facet normal -0.382683 -0.92388 -0
    outer loop
      vertex 58.5 7.26478 0
      vertex 60.1014 6.60144 0
      vertex 60.1014 6.60144 5
    endloop
  endfacet
  facet normal -0.382683 -0.92388 0
    outer loop
      vertex 58.5 7.26478 0
      vertex 60.1014 6.60144 5
      vertex 58.5 7.26478 5
    endloop
  endfacet
  facet normal 0 0 -1
    outer loop
      vertex 58.5 7.26478 0
      vertex 60.3267 9.65437 0
      vertex 60.1014 6.60144 0
    endloop
  endfacet
  facet normal 0 0 1
    outer loop
      vertex 58.5 7.26478 5
      vertex 59.3682 9.92404 5
      vertex 58.8736 9.98602 5
    endloop
  endfacet
  facet normal 0 0 1
    outer loop
      vertex 58.5 7.26478 5
      vertex 59.8542 9.81312 5
      vertex 59.3682 9.92404 5
    endloop
  endfacet
  facet normal 0 0 1
    outer loop
      vertex 58.5 7.26478 5
      vertex 60.1014 6.60144 5
      vertex 60.3267 9.65437 5
    endloop
  endfacet
  facet normal 0 0 1
    outer loop
      vertex 58.5 7.26478 5
      vertex 60.3267 9.65437 5
      vertex 59.8542 9.81312 5
    endloop
  endfacet
  facet normal 0.124344 0.992239 0
    outer loop
      vertex 58.8736 9.98602 0
      vertex 58.8736 9.98602 5
      vertex 59.3682 9.92404 0
    endloop
  endfacet
  facet normal 0.124344 0.992239 -0
    outer loop
      vertex 58.8736 9.98602 5
      vertex 59.3682 9.92404 5
      vertex 59.3682 9.92404 0
    endloop
  endfacet
  facet normal 0.22252 0.974928 0
    outer loop
      vertex 59.3682 9.92404 0
      vertex 59.3682 9.92404 5
      vertex 59.8542 9.81312 0
    endloop
  endfacet
  facet normal 0.22252 0.974928 -0
    outer loop
      vertex 59.3682 9.92404 5
      vertex 59.8542 9.81312 5
      vertex 59.8542 9.81312 0
    endloop
  endfacet
  facet normal 0.318486 0.947928 0
    outer loop
      vertex 59.8542 9.81312 0
      vertex 59.8542 9.81312 5
      vertex 60.3267 9.65437 0
    endloop
  endfacet
  facet normal 0.318486 0.947928 -0
    outer loop
      vertex 59.8542 9.81312 5
      vertex 60.3267 9.65437 5
      vertex 60.3267 9.65437 0
    endloop
  endfacet
  facet normal -0.923879 0.382684 0
    outer loop
      vertex 60.1014 3.39856 0
      vertex 60.1014 3.39856 5
      vertex 60.7648 5 5
    endloop
  endfacet
  facet normal -0 0 -1
    outer loop
      vertex 60.1014 3.39856 0
      vertex 60.7648 5 0
      vertex 63.5 5 0
    endloop
  endfacet
  facet normal -0.923879 0.382684 0
    outer loop
      vertex 60.1014 3.39856 0
      vertex 60.7648 5 5
      vertex 60.7648 5 0
    endloop
  endfacet
  facet normal 0 0 -1
    outer loop
      vertex 60.1014 3.39856 0
      vertex 63.5 5 0
      vertex 74.99 0 0
    endloop
  endfacet
  facet normal 0 0 1
    outer loop
      vertex 60.1014 3.39856 5
      vertex 63.49 0 5
      vertex 63.49 5 5
    endloop
  endfacet
  facet normal 0 0 1
    outer loop
      vertex 60.1014 3.39856 5
      vertex 63.49 5 5
      vertex 60.7648 5 5
    endloop
  endfacet
  facet normal -0 0 -1
    outer loop
      vertex 60.1014 6.60144 0
      vertex 60.3267 9.65437 0
      vertex 60.7811 9.44936 0
    endloop
  endfacet
  facet normal -0.923879 -0.382684 0
    outer loop
      vertex 60.1014 6.60144 0
      vertex 60.7648 5 0
      vertex 60.1014 6.60144 5
    endloop
  endfacet
  facet normal -0 0 -1
    outer loop
      vertex 60.1014 6.60144 0
      vertex 60.7811 9.44936 0
      vertex 61.2127 9.20013 0
    endloop
  endfacet
  facet normal -0 0 -1
    outer loop
      vertex 60.1014 6.60144 0
      vertex 61.2127 9.20013 0
      vertex 61.6174 8.90916 0
    endloop
  endfacet
  facet normal -0 0 -1
    outer loop
      vertex 60.1014 6.60144 0
      vertex 61.6174 8.90916 0
      vertex 61.9912 8.57933 0
    endloop
  endfacet
  facet normal -0 0 -1
    outer loop
      vertex 60.1014 6.60144 0
      vertex 61.9912 8.57933 0
      vertex 62.3302 8.21394 0
    endloop
  endfacet
  facet normal -0 0 -1
    outer loop
      vertex 60.1014 6.60144 0
      vertex 62.3302 8.21394 0
      vertex 62.6312 7.8166 0
    endloop
  endfacet
  facet normal -0 0 -1
    outer loop
      vertex 60.1014 6.60144 0
      vertex 62.6312 7.8166 0
      vertex 62.8911 7.39127 0
    endloop
  endfacet
  facet normal -0 0 -1
    outer loop
      vertex 60.1014 6.60144 0
      vertex 62.8911 7.39127 0
      vertex 63.1074 6.94217 0
    endloop
  endfacet
  facet normal 0 0 -1
    outer loop
      vertex 60.1014 6.60144 0
      vertex 63.1074 6.94217 0
      vertex 60.7648 5 0
    endloop
  endfacet
  facet normal -0.923879 -0.382684 0
    outer loop
      vertex 60.1014 6.60144 5
      vertex 60.7648 5 0
      vertex 60.7648 5 5
    endloop
  endfacet
  facet normal 0 0 1
    outer loop
      vertex 60.1014 6.60144 5
      vertex 60.7648 5 5
      vertex 60.7811 9.44936 5
    endloop
  endfacet
  facet normal 0 0 1
    outer loop
      vertex 60.1014 6.60144 5
      vertex 60.7811 9.44936 5
      vertex 60.3267 9.65437 5
    endloop
  endfacet
  facet normal 0.411289 0.911505 0
    outer loop
      vertex 60.3267 9.65437 0
      vertex 60.3267 9.65437 5
      vertex 60.7811 9.44936 0
    endloop
  endfacet
  facet normal 0.411289 0.911505 -0
    outer loop
      vertex 60.3267 9.65437 5
      vertex 60.7811 9.44936 5
      vertex 60.7811 9.44936 0
    endloop
  endfacet
  facet normal -0 0 -1
    outer loop
      vertex 60.7648 5 0
      vertex 63.1074 6.94217 0
      vertex 63.2779 6.47378 0
    endloop
  endfacet
  facet normal -0 0 -1
    outer loop
      vertex 60.7648 5 0
      vertex 63.2779 6.47378 0
      vertex 63.4009 5.99073 0
    endloop
  endfacet
  facet normal -0 0 -1
    outer loop
      vertex 60.7648 5 0
      vertex 63.4009 5.99073 0
      vertex 63.4752 5.49784 0
    endloop
  endfacet
  facet normal 0 0 -1
    outer loop
      vertex 60.7648 5 0
      vertex 63.4752 5.49784 0
      vertex 63.5 5 0
    endloop
  endfacet
  facet normal 0 0 1
    outer loop
      vertex 60.7648 5 5
      vertex 61.2127 9.20013 5
      vertex 60.7811 9.44936 5
    endloop
  endfacet
  facet normal 0 0 1
    outer loop
      vertex 60.7648 5 5
      vertex 61.6174 8.90916 5
      vertex 61.2127 9.20013 5
    endloop
  endfacet
  facet normal 0 0 1
    outer loop
      vertex 60.7648 5 5
      vertex 61.9912 8.57933 5
      vertex 61.6174 8.90916 5
    endloop
  endfacet
  facet normal 0 0 1
    outer loop
      vertex 60.7648 5 5
      vertex 62.3302 8.21394 5
      vertex 61.9912 8.57933 5
    endloop
  endfacet
  facet normal 0 0 1
    outer loop
      vertex 60.7648 5 5
      vertex 62.6312 7.8166 5
      vertex 62.3302 8.21394 5
    endloop
  endfacet
  facet normal 0 0 1
    outer loop
      vertex 60.7648 5 5
      vertex 62.8911 7.39127 5
      vertex 62.6312 7.8166 5
    endloop
  endfacet
  facet normal 0 0 1
    outer loop
      vertex 60.7648 5 5
      vertex 63.1074 6.94217 5
      vertex 62.8911 7.39127 5
    endloop
  endfacet
  facet normal 0 0 1
    outer loop
      vertex 60.7648 5 5
      vertex 63.2779 6.47378 5
      vertex 63.1074 6.94217 5
    endloop
  endfacet
  facet normal 0 0 1
    outer loop
      vertex 60.7648 5 5
      vertex 63.4009 5.99073 5
      vertex 63.2779 6.47378 5
    endloop
  endfacet
  facet normal 0 0 1
    outer loop
      vertex 60.7648 5 5
      vertex 63.4752 5.49784 5
      vertex 63.4009 5.99073 5
    endloop
  endfacet
  facet normal 0 0 1
    outer loop
      vertex 60.7648 5 5
      vertex 63.49 5 5
      vertex 63.4752 5.49784 5
    endloop
  endfacet
  facet normal 0.499999 0.866026 0
    outer loop
      vertex 60.7811 9.44936 0
      vertex 60.7811 9.44936 5
      vertex 61.2127 9.20013 0
    endloop
  endfacet
  facet normal 0.499999 0.866026 -0
    outer loop
      vertex 60.7811 9.44936 5
      vertex 61.2127 9.20013 5
      vertex 61.2127 9.20013 0
    endloop
  endfacet
  facet normal 0.583745 0.811937 0
    outer loop
      vertex 61.2127 9.20013 0
      vertex 61.2127 9.20013 5
      vertex 61.6174 8.90916 0
    endloop
  endfacet
  facet normal 0.583745 0.811937 -0
    outer loop
      vertex 61.2127 9.20013 5
      vertex 61.6174 8.90916 5
      vertex 61.6174 8.90916 0
    endloop
  endfacet
  facet normal 0.661684 0.749783 0
    outer loop
      vertex 61.6174 8.90916 0
      vertex 61.6174 8.90916 5
      vertex 61.9912 8.57933 0
    endloop
  endfacet
  facet normal 0.661684 0.749783 -0
    outer loop
      vertex 61.6174 8.90916 5
      vertex 61.9912 8.57933 5
      vertex 61.9912 8.57933 0
    endloop
  endfacet
  facet normal 0.733051 0.680174 0
    outer loop
      vertex 61.9912 8.57933 0
      vertex 61.9912 8.57933 5
      vertex 62.3302 8.21394 5
    endloop
  endfacet
  facet normal 0.733051 0.680174 0
    outer loop
      vertex 61.9912 8.57933 0
      vertex 62.3302 8.21394 5
      vertex 62.3302 8.21394 0
    endloop
  endfacet
  facet normal 0.797132 0.603805 0
    outer loop
      vertex 62.3302 8.21394 0
      vertex 62.3302 8.21394 5
      vertex 62.6312 7.8166 5
    endloop
  endfacet
  facet normal 0.797132 0.603805 0
    outer loop
      vertex 62.3302 8.21394 0
      vertex 62.6312 7.8166 5
      vertex 62.6312 7.8166 0
    endloop
  endfacet
  facet normal 0.853294 0.52143 0
    outer loop
      vertex 62.6312 7.8166 0
      vertex 62.6312 7.8166 5
      vertex 62.8911 7.39127 5
    endloop
  endfacet
  facet normal 0.853294 0.52143 0
    outer loop
      vertex 62.6312 7.8166 0
      vertex 62.8911 7.39127 5
      vertex 62.8911 7.39127 0
    endloop
  endfacet
  facet normal 0.900968 0.433886 0
    outer loop
      vertex 62.8911 7.39127 0
      vertex 62.8911 7.39127 5
      vertex 63.1074 6.94217 5
    endloop
  endfacet
  facet normal 0.900968 0.433886 0
    outer loop
      vertex 62.8911 7.39127 0
      vertex 63.1074 6.94217 5
      vertex 63.1074 6.94217 0
    endloop
  endfacet
  facet normal 0.939693 0.34202 0
    outer loop
      vertex 63.1074 6.94217 0
      vertex 63.1074 6.94217 5
      vertex 63.2779 6.47378 5
    endloop
  endfacet
  facet normal 0.939693 0.34202 0
    outer loop
      vertex 63.1074 6.94217 0
      vertex 63.2779 6.47378 5
      vertex 63.2779 6.47378 0
    endloop
  endfacet
  facet normal 0.969076 0.246762 0
    outer loop
      vertex 63.2779 6.47378 0
      vertex 63.2779 6.47378 5
      vertex 63.4009 5.99073 5
    endloop
  endfacet
  facet normal 0.969076 0.246762 0
    outer loop
      vertex 63.2779 6.47378 0
      vertex 63.4009 5.99073 5
      vertex 63.4009 5.99073 0
    endloop
  endfacet
  facet normal 0.988832 0.149034 0
    outer loop
      vertex 63.4009 5.99073 0
      vertex 63.4009 5.99073 5
      vertex 63.4752 5.49784 5
    endloop
  endfacet
  facet normal 0.988832 0.149034 0
    outer loop
      vertex 63.4009 5.99073 0
      vertex 63.4752 5.49784 5
      vertex 63.4752 5.49784 0
    endloop
  endfacet
  facet normal 0.998757 0.0498515 0
    outer loop
      vertex 63.4752 5.49784 0
      vertex 63.4752 5.49784 5
      vertex 63.5 5 5
    endloop
  endfacet
  facet normal 0.998757 0.0498515 0
    outer loop
      vertex 63.4752 5.49784 0
      vertex 63.5 5 5
      vertex 63.5 5 0
    endloop
  endfacet
  facet normal 0 0 1
    outer loop
      vertex 63.4752 5.49784 5
      vertex 63.49 5 5
      vertex 63.5 5 5
    endloop
  endfacet
  facet normal 0 -1 0
    outer loop
      vertex 63.49 0 22
      vertex 66.939 0 15.7591
      vertex 66.939 0 16.2409
    endloop
  endfacet
  facet normal 0 -1 0
    outer loop
      vertex 63.49 0 22
      vertex 66.939 0 16.2409
      vertex 67.0501 0 16.7097
    endloop
  endfacet
  facet normal 0 -1 0
    outer loop
      vertex 63.49 0 22
      vertex 67.0501 0 16.7097
      vertex 67.2664 0 17.1402
    endloop
  endfacet
  facet normal 0 -1 0
    outer loop
      vertex 63.49 0 22
      vertex 67.2664 0 17.1402
      vertex 67.5328 0 17.4672
    endloop
  endfacet
  facet normal 0 -1 0
    outer loop
      vertex 63.49 0 22
      vertex 67.5328 0 17.4672
      vertex 68.1405 0 18.075
    endloop
  endfacet
  facet normal 0 -1 0
    outer loop
      vertex 63.49 0 22
      vertex 68.1405 0 18.075
      vertex 69.8595 0 18.075
    endloop
  endfacet
  facet normal 0 -1 0
    outer loop
      vertex 63.49 0 22
      vertex 69.8595 0 18.075
      vertex 74.99 0 22
    endloop
  endfacet
  facet normal 0 0 1
    outer loop
      vertex 63.49 0 22
      vertex 74.99 0 22
      vertex 63.49 5 22
    endloop
  endfacet
  facet normal -1 -0 0
    outer loop
      vertex 63.49 0 5
      vertex 63.49 0 22
      vertex 63.49 5 22
    endloop
  endfacet
  facet normal -1 0 0
    outer loop
      vertex 63.49 0 5
      vertex 63.49 5 22
      vertex 63.49 5 5
    endloop
  endfacet
  facet normal 0 -1 0
    outer loop
      vertex 63.49 0 5
      vertex 66.939 0 15.7591
      vertex 63.49 0 22
    endloop
  endfacet
  facet normal 0 -1 -0
    outer loop
      vertex 63.49 0 5
      vertex 67.0501 0 15.2903
      vertex 66.939 0 15.7591
    endloop
  endfacet
  facet normal 0 -1 -0
    outer loop
      vertex 63.49 0 5
      vertex 67.2664 0 14.8598
      vertex 67.0501 0 15.2903
    endloop
  endfacet
  facet normal 0 -1 -0
    outer loop
      vertex 63.49 0 5
      vertex 67.576 0 14.4907
      vertex 67.2664 0 14.8598
    endloop
  endfacet
  facet normal 0 -1 -0
    outer loop
      vertex 63.49 0 5
      vertex 67.9625 0 14.203
      vertex 67.576 0 14.4907
    endloop
  endfacet
  facet normal 0 -1 -0
    outer loop
      vertex 63.49 0 5
      vertex 68.4049 0 14.0122
      vertex 67.9625 0 14.203
    endloop
  endfacet
  facet normal 0 -1 -0
    outer loop
      vertex 63.49 0 5
      vertex 68.8794 0 13.9285
      vertex 68.4049 0 14.0122
    endloop
  endfacet
  facet normal 0 -1 0
    outer loop
      vertex 63.49 0 5
      vertex 69.3603 0 13.9565
      vertex 68.8794 0 13.9285
    endloop
  endfacet
  facet normal 0 -1 0
    outer loop
      vertex 63.49 0 5
      vertex 74.99 0 0
      vertex 69.3603 0 13.9565
    endloop
  endfacet
  facet normal 0 1 -0
    outer loop
      vertex 63.49 5 22
      vertex 66.939 5 16.2409
      vertex 66.939 5 15.7591
    endloop
  endfacet
  facet normal 0 1 -0
    outer loop
      vertex 63.49 5 22
      vertex 67.0501 5 16.7097
      vertex 66.939 5 16.2409
    endloop
  endfacet
  facet normal 0 1 -0
    outer loop
      vertex 63.49 5 22
      vertex 67.2664 5 17.1402
      vertex 67.0501 5 16.7097
    endloop
  endfacet
  facet normal 0 1 -0
    outer loop
      vertex 63.49 5 22
      vertex 67.5328 5 17.4672
      vertex 67.2664 5 17.1402
    endloop
  endfacet
  facet normal 0 1 -0
    outer loop
      vertex 63.49 5 22
      vertex 68.1405 5 18.075
      vertex 67.5328 5 17.4672
    endloop
  endfacet
  facet normal 0 1 -0
    outer loop
      vertex 63.49 5 22
      vertex 69.8595 5 18.075
      vertex 68.1405 5 18.075
    endloop
  endfacet
  facet normal -0 0 1
    outer loop
      vertex 63.49 5 22
      vertex 74.99 0 22
      vertex 74.99 5 22
    endloop
  endfacet
  facet normal 0 1 0
    outer loop
      vertex 63.49 5 22
      vertex 74.99 5 22
      vertex 69.8595 5 18.075
    endloop
  endfacet
  facet normal 0 1 0
    outer loop
      vertex 63.49 5 5
      vertex 63.49 5 22
      vertex 66.939 5 15.7591
    endloop
  endfacet
  facet normal 0 1 0
    outer loop
      vertex 63.49 5 5
      vertex 66.939 5 15.7591
      vertex 67.0501 5 15.2903
    endloop
  endfacet
  facet normal 0 1 0
    outer loop
      vertex 63.49 5 5
      vertex 67.0501 5 15.2903
      vertex 67.2664 5 14.8598
    endloop
  endfacet
  facet normal 0 1 0
    outer loop
      vertex 63.49 5 5
      vertex 67.2664 5 14.8598
      vertex 67.576 5 14.4907
    endloop
  endfacet
  facet normal 0 1 0
    outer loop
      vertex 63.49 5 5
      vertex 67.576 5 14.4907
      vertex 63.5 5 5
    endloop
  endfacet
  facet normal 0 1 0
    outer loop
      vertex 63.5 5 0
      vertex 63.5 5 5
      vertex 74.99 5 0
    endloop
  endfacet
  facet normal 0 0 -1
    outer loop
      vertex 63.5 5 0
      vertex 74.99 5 0
      vertex 74.99 0 0
    endloop
  endfacet
  facet normal 0 1 0
    outer loop
      vertex 63.5 5 5
      vertex 67.576 5 14.4907
      vertex 67.9625 5 14.203
    endloop
  endfacet
  facet normal 0 1 0
    outer loop
      vertex 63.5 5 5
      vertex 67.9625 5 14.203
      vertex 68.4049 5 14.0122
    endloop
  endfacet
  facet normal 0 1 0
    outer loop
      vertex 63.5 5 5
      vertex 68.4049 5 14.0122
      vertex 68.8794 5 13.9285
    endloop
  endfacet
  facet normal 0 1 0
    outer loop
      vertex 63.5 5 5
      vertex 68.8794 5 13.9285
      vertex 69.3603 5 13.9565
    endloop
  endfacet
  facet normal 0 1 0
    outer loop
      vertex 63.5 5 5
      vertex 69.3603 5 13.9565
      vertex 74.99 5 0
    endloop
  endfacet
  facet normal 1 0 0
    outer loop
      vertex 66.939 0 15.7591
      vertex 66.939 5 15.7591
      vertex 66.939 0 16.2409
    endloop
  endfacet
  facet normal 0.973048 0 0.230601
    outer loop
      vertex 66.939 0 15.7591
      vertex 67.0501 0 15.2903
      vertex 67.0501 5 15.2903
    endloop
  endfacet
  facet normal 0.973048 -0 0.230601
    outer loop
      vertex 66.939 0 15.7591
      vertex 67.0501 5 15.2903
      vertex 66.939 5 15.7591
    endloop
  endfacet
  facet normal 1 -0 0
    outer loop
      vertex 66.939 0 16.2409
      vertex 66.939 5 15.7591
      vertex 66.939 5 16.2409
    endloop
  endfacet
  facet normal 0.973048 0 -0.230601
    outer loop
      vertex 66.939 0 16.2409
      vertex 66.939 5 16.2409
      vertex 67.0501 0 16.7097
    endloop
  endfacet
  facet normal 0.973048 0 -0.230601
    outer loop
      vertex 66.939 5 16.2409
      vertex 67.0501 5 16.7097
      vertex 67.0501 0 16.7097
    endloop
  endfacet
  facet normal 0.893628 0 0.448809
    outer loop
      vertex 67.0501 0 15.2903
      vertex 67.2664 0 14.8598
      vertex 67.2664 5 14.8598
    endloop
  endfacet
  facet normal 0.893628 -0 0.448809
    outer loop
      vertex 67.0501 0 15.2903
      vertex 67.2664 5 14.8598
      vertex 67.0501 5 15.2903
    endloop
  endfacet
  facet normal 0.893628 0 -0.448809
    outer loop
      vertex 67.0501 0 16.7097
      vertex 67.0501 5 16.7097
      vertex 67.2664 0 17.1402
    endloop
  endfacet
  facet normal 0.893628 0 -0.448809
    outer loop
      vertex 67.0501 5 16.7097
      vertex 67.2664 5 17.1402
      vertex 67.2664 0 17.1402
    endloop
  endfacet
  facet normal 0.766049 0 0.642782
    outer loop
      vertex 67.2664 0 14.8598
      vertex 67.576 0 14.4907
      vertex 67.576 5 14.4907
    endloop
  endfacet
  facet normal 0.766049 -0 0.642782
    outer loop
      vertex 67.2664 0 14.8598
      vertex 67.576 5 14.4907
      vertex 67.2664 5 14.8598
    endloop
  endfacet
  facet normal 0.766055 0 -0.642775
    outer loop
      vertex 67.2664 0 17.1402
      vertex 67.2664 5 17.1402
      vertex 67.5371 0 17.4629
    endloop
  endfacet
  facet normal 0 -1 -0
    outer loop
      vertex 67.2664 0 17.1402
      vertex 67.5371 0 17.4629
      vertex 67.5328 0 17.4672
    endloop
  endfacet
  facet normal 0 1 0
    outer loop
      vertex 67.2664 5 17.1402
      vertex 67.5328 5 17.4672
      vertex 67.5371 5 17.4629
    endloop
  endfacet
  facet normal 0.766055 0 -0.642775
    outer loop
      vertex 67.2664 5 17.1402
      vertex 67.5371 5 17.4629
      vertex 67.5371 0 17.4629
    endloop
  endfacet
  facet normal 0.707107 0 -0.707107
    outer loop
      vertex 67.5328 0 17.4672
      vertex 67.5328 5 17.4672
      vertex 68.1405 0 18.075
    endloop
  endfacet
  facet normal 0.707107 0 0.707107
    outer loop
      vertex 67.5328 0 17.4672
      vertex 67.5371 0 17.4629
      vertex 67.5371 5 17.4629
    endloop
  endfacet
  facet normal 0.707107 -0 0.707107
    outer loop
      vertex 67.5328 0 17.4672
      vertex 67.5371 5 17.4629
      vertex 67.5328 5 17.4672
    endloop
  endfacet
  facet normal 0.707107 0 -0.707107
    outer loop
      vertex 67.5328 5 17.4672
      vertex 68.1405 5 18.075
      vertex 68.1405 0 18.075
    endloop
  endfacet
  facet normal 0.597153 0 0.802127
    outer loop
      vertex 67.576 0 14.4907
      vertex 67.9625 0 14.203
      vertex 67.576 5 14.4907
    endloop
  endfacet
  facet normal 0.597153 0 0.802127
    outer loop
      vertex 67.576 5 14.4907
      vertex 67.9625 0 14.203
      vertex 67.9625 5 14.203
    endloop
  endfacet
  facet normal 0.396082 0 0.918215
    outer loop
      vertex 67.9625 0 14.203
      vertex 68.4049 0 14.0122
      vertex 67.9625 5 14.203
    endloop
  endfacet
  facet normal 0.396082 0 0.918215
    outer loop
      vertex 67.9625 5 14.203
      vertex 68.4049 0 14.0122
      vertex 68.4049 5 14.0122
    endloop
  endfacet
  facet normal -0 0 -1
    outer loop
      vertex 68.1405 0 18.075
      vertex 68.1405 5 18.075
      vertex 69.8595 5 18.075
    endloop
  endfacet
  facet normal 0 0 -1
    outer loop
      vertex 68.1405 0 18.075
      vertex 69.8595 5 18.075
      vertex 69.8595 0 18.075
    endloop
  endfacet
  facet normal 0.173652 0 0.984807
    outer loop
      vertex 68.4049 0 14.0122
      vertex 68.8794 0 13.9285
      vertex 68.4049 5 14.0122
    endloop
  endfacet
  facet normal 0.173652 0 0.984807
    outer loop
      vertex 68.4049 5 14.0122
      vertex 68.8794 0 13.9285
      vertex 68.8794 5 13.9285
    endloop
  endfacet
  facet normal -0.058152 0 0.998308
    outer loop
      vertex 68.8794 0 13.9285
      vertex 69.3603 0 13.9565
      vertex 68.8794 5 13.9285
    endloop
  endfacet
  facet normal -0.058152 0 0.998308
    outer loop
      vertex 68.8794 5 13.9285
      vertex 69.3603 0 13.9565
      vertex 69.3603 5 13.9565
    endloop
  endfacet
  facet normal -0.286813 0 0.957987
    outer loop
      vertex 69.3603 0 13.9565
      vertex 69.8219 0 14.0947
      vertex 69.3603 5 13.9565
    endloop
  endfacet
  facet normal 0 -1 0
    outer loop
      vertex 69.3603 0 13.9565
      vertex 74.99 0 0
      vertex 69.8219 0 14.0947
    endloop
  endfacet
  facet normal -0.286813 0 0.957987
    outer loop
      vertex 69.3603 5 13.9565
      vertex 69.8219 0 14.0947
      vertex 69.8219 5 14.0947
    endloop
  endfacet
  facet normal 0 1 0
    outer loop
      vertex 69.3603 5 13.9565
      vertex 69.8219 5 14.0947
      vertex 74.99 5 0
    endloop
  endfacet
  facet normal -0.499998 0 0.866026
    outer loop
      vertex 69.8219 0 14.0947
      vertex 70.2391 0 14.3356
      vertex 69.8219 5 14.0947
    endloop
  endfacet
  facet normal 0 -1 0
    outer loop
      vertex 69.8219 0 14.0947
      vertex 74.99 0 0
      vertex 70.2391 0 14.3356
    endloop
  endfacet
  facet normal -0.499998 0 0.866026
    outer loop
      vertex 69.8219 5 14.0947
      vertex 70.2391 0 14.3356
      vertex 70.2391 5 14.3356
    endloop
  endfacet
  facet normal 0 1 0
    outer loop
      vertex 69.8219 5 14.0947
      vertex 70.2391 5 14.3356
      vertex 74.99 5 0
    endloop
  endfacet
  facet normal -0.707107 -0 -0.707107
    outer loop
      vertex 69.8595 0 18.075
      vertex 69.8595 5 18.075
      vertex 70.4672 0 17.4672
    endloop
  endfacet
  facet normal 0 -1 0
    outer loop
      vertex 69.8595 0 18.075
      vertex 70.4672 0 17.4672
      vertex 74.99 0 22
    endloop
  endfacet
  facet normal -0.707107 0 -0.707107
    outer loop
      vertex 69.8595 5 18.075
      vertex 70.4672 5 17.4672
      vertex 70.4672 0 17.4672
    endloop
  endfacet
  facet normal 0 1 0
    outer loop
      vertex 69.8595 5 18.075
      vertex 74.99 5 22
      vertex 70.4672 5 17.4672
    endloop
  endfacet
  facet normal -0.686237 0 0.727378
    outer loop
      vertex 70.2391 0 14.3356
      vertex 70.5895 0 14.6662
      vertex 70.2391 5 14.3356
    endloop
  endfacet
  facet normal 0 -1 0
    outer loop
      vertex 70.2391 0 14.3356
      vertex 74.99 0 0
      vertex 70.5895 0 14.6662
    endloop
  endfacet
  facet normal -0.686237 0 0.727378
    outer loop
      vertex 70.2391 5 14.3356
      vertex 70.5895 0 14.6662
      vertex 70.5895 5 14.6662
    endloop
  endfacet
  facet normal 0 1 0
    outer loop
      vertex 70.2391 5 14.3356
      vertex 70.5895 5 14.6662
      vertex 74.99 5 0
    endloop
  endfacet
  facet normal -0.68623 0 -0.727385
    outer loop
      vertex 70.4579 0 17.4579
      vertex 70.4579 5 17.4579
      vertex 70.5895 5 17.3338
    endloop
  endfacet
  facet normal -0.707107 0 0.707107
    outer loop
      vertex 70.4579 0 17.4579
      vertex 70.4672 0 17.4672
      vertex 70.4672 5 17.4672
    endloop
  endfacet
  facet normal -0.707107 0 0.707107
    outer loop
      vertex 70.4579 0 17.4579
      vertex 70.4672 5 17.4672
      vertex 70.4579 5 17.4579
    endloop
  endfacet
  facet normal 0 -1 0
    outer loop
      vertex 70.4579 0 17.4579
      vertex 70.5895 0 17.3338
      vertex 70.4672 0 17.4672
    endloop
  endfacet
  facet normal -0.68623 0 -0.727385
    outer loop
      vertex 70.4579 0 17.4579
      vertex 70.5895 5 17.3338
      vertex 70.5895 0 17.3338
    endloop
  endfacet
  facet normal 0 1 0
    outer loop
      vertex 70.4579 5 17.4579
      vertex 70.4672 5 17.4672
      vertex 70.5895 5 17.3338
    endloop
  endfacet
  facet normal 0 -1 0
    outer loop
      vertex 70.4672 0 17.4672
      vertex 70.5895 0 17.3338
      vertex 74.99 0 22
    endloop
  endfacet
  facet normal 0 1 0
    outer loop
      vertex 70.4672 5 17.4672
      vertex 74.99 5 22
      vertex 70.5895 5 17.3338
    endloop
  endfacet
  facet normal -0.835494 0 0.5495
    outer loop
      vertex 70.5895 0 14.6662
      vertex 70.8543 0 15.0688
      vertex 70.8543 5 15.0688
    endloop
  endfacet
  facet normal -0.835494 0 0.5495
    outer loop
      vertex 70.5895 0 14.6662
      vertex 70.8543 5 15.0688
      vertex 70.5895 5 14.6662
    endloop
  endfacet
  facet normal 0 -1 0
    outer loop
      vertex 70.5895 0 14.6662
      vertex 74.99 0 0
      vertex 70.8543 0 15.0688
    endloop
  endfacet
  facet normal -0.835494 -0 -0.5495
    outer loop
      vertex 70.5895 0 17.3338
      vertex 70.5895 5 17.3338
      vertex 70.8543 0 16.9312
    endloop
  endfacet
  facet normal 0 -1 0
    outer loop
      vertex 70.5895 0 17.3338
      vertex 70.8543 0 16.9312
      vertex 74.99 0 22
    endloop
  endfacet
  facet normal 0 1 0
    outer loop
      vertex 70.5895 5 14.6662
      vertex 70.8543 5 15.0688
      vertex 74.99 5 0
    endloop
  endfacet
  facet normal -0.835494 0 -0.5495
    outer loop
      vertex 70.5895 5 17.3338
      vertex 70.8543 5 16.9312
      vertex 70.8543 0 16.9312
    endloop
  endfacet
  facet normal 0 1 0
    outer loop
      vertex 70.5895 5 17.3338
      vertex 74.99 5 22
      vertex 70.8543 5 16.9312
    endloop
  endfacet
  facet normal -0.939693 0 0.34202
    outer loop
      vertex 70.8543 0 15.0688
      vertex 71.0191 0 15.5215
      vertex 71.0191 5 15.5215
    endloop
  endfacet
  facet normal -0.939693 0 0.34202
    outer loop
      vertex 70.8543 0 15.0688
      vertex 71.0191 5 15.5215
      vertex 70.8543 5 15.0688
    endloop
  endfacet
  facet normal 0 -1 0
    outer loop
      vertex 70.8543 0 15.0688
      vertex 74.99 0 0
      vertex 71.0191 0 15.5215
    endloop
  endfacet
  facet normal -0.939693 -0 -0.34202
    outer loop
      vertex 70.8543 0 16.9312
      vertex 70.8543 5 16.9312
      vertex 71.0191 0 16.4785
    endloop
  endfacet
  facet normal 0 -1 0
    outer loop
      vertex 70.8543 0 16.9312
      vertex 71.0191 0 16.4785
      vertex 74.99 0 22
    endloop
  endfacet
  facet normal 0 1 0
    outer loop
      vertex 70.8543 5 15.0688
      vertex 71.0191 5 15.5215
      vertex 74.99 5 0
    endloop
  endfacet
  facet normal -0.939693 0 -0.34202
    outer loop
      vertex 70.8543 5 16.9312
      vertex 71.0191 5 16.4785
      vertex 71.0191 0 16.4785
    endloop
  endfacet
  facet normal 0 1 0
    outer loop
      vertex 70.8543 5 16.9312
      vertex 74.99 5 22
      vertex 71.0191 5 16.4785
    endloop
  endfacet
  facet normal -0.993236 0 0.11611
    outer loop
      vertex 71.0191 0 15.5215
      vertex 71.075 0 16
      vertex 71.075 5 16
    endloop
  endfacet
  facet normal -0.993236 0 0.11611
    outer loop
      vertex 71.0191 0 15.5215
      vertex 71.075 5 16
      vertex 71.0191 5 15.5215
    endloop
  endfacet
  facet normal 0 -1 0
    outer loop
      vertex 71.0191 0 15.5215
      vertex 74.99 0 0
      vertex 74.99 0 22
    endloop
  endfacet
  facet normal 0 -1 0
    outer loop
      vertex 71.0191 0 15.5215
      vertex 74.99 0 22
      vertex 71.075 0 16
    endloop
  endfacet
  facet normal -0.993236 -0 -0.11611
    outer loop
      vertex 71.0191 0 16.4785
      vertex 71.0191 5 16.4785
      vertex 71.075 0 16
    endloop
  endfacet
  facet normal 0 -1 0
    outer loop
      vertex 71.0191 0 16.4785
      vertex 71.075 0 16
      vertex 74.99 0 22
    endloop
  endfacet
  facet normal 0 1 0
    outer loop
      vertex 71.0191 5 15.5215
      vertex 71.075 5 16
      vertex 74.99 5 22
    endloop
  endfacet
  facet normal 0 1 -0
    outer loop
      vertex 71.0191 5 15.5215
      vertex 74.99 5 22
      vertex 74.99 5 0
    endloop
  endfacet
  facet normal -0.993236 0 -0.11611
    outer loop
      vertex 71.0191 5 16.4785
      vertex 71.075 5 16
      vertex 71.075 0 16
    endloop
  endfacet
  facet normal 0 1 0
    outer loop
      vertex 71.0191 5 16.4785
      vertex 74.99 5 22
      vertex 71.075 5 16
    endloop
  endfacet
  facet normal 1 0 0
    outer loop
      vertex 74.99 0 0
      vertex 74.99 5 0
      vertex 74.99 0 22
    endloop
  endfacet
  facet normal 1 -0 0
    outer loop
      vertex 74.99 0 22
      vertex 74.99 5 0
      vertex 74.99 5 22
    endloop
  endfacet
endsolid OpenSCAD_Model
