solid OpenSCAD_Model
  facet normal 0 0 -1
    outer loop
      vertex -0.5 13.9 0
      vertex -0.5 31.9 0
      vertex 31.9 -0.5 0
    endloop
  endfacet
  facet normal -0.707107 -0.707107 0
    outer loop
      vertex -0.5 13.9 0
      vertex 13.9 -0.5 0
      vertex -0.5 13.9 4
    endloop
  endfacet
  facet normal 0 0 -1
    outer loop
      vertex -0.5 13.9 0
      vertex 31.9 -0.5 0
      vertex 13.9 -0.5 0
    endloop
  endfacet
  facet normal 1 -0 0
    outer loop
      vertex -0.5 13.9 18
      vertex -0.5 17.9 13.7
      vertex -0.5 31.9 18
    endloop
  endfacet
  facet normal 1 0 0
    outer loop
      vertex -0.5 13.9 4
      vertex -0.5 17.9 13.7
      vertex -0.5 13.9 18
    endloop
  endfacet
  facet normal 1 0 0
    outer loop
      vertex -0.5 13.9 4
      vertex -0.5 17.9 4
      vertex -0.5 17.9 13.7
    endloop
  endfacet
  facet normal -0.707107 -0.707107 0
    outer loop
      vertex -0.5 13.9 4
      vertex 13.9 -0.5 0
      vertex 13.9 -0.5 4
    endloop
  endfacet
  facet normal 0 0 1
    outer loop
      vertex -0.5 13.9 4
      vertex 13.9 -0.5 4
      vertex -0.5 17.9 4
    endloop
  endfacet
  facet normal 1 0 0
    outer loop
      vertex -0.5 17.9 13.7
      vertex -0.5 27.9 13.7
      vertex -0.5 31.9 18
    endloop
  endfacet
  facet normal 0 0 1
    outer loop
      vertex -0.5 17.9 4
      vertex 13.9 -0.5 4
      vertex 31.9 -0.5 4
    endloop
  endfacet
  facet normal -0 0 1
    outer loop
      vertex -0.5 17.9 4
      vertex 31.9 -0.5 4
      vertex -0.5 27.9 4
    endloop
  endfacet
  facet normal 1 0 0
    outer loop
      vertex -0.5 27.9 13.7
      vertex -0.5 31.9 4
      vertex -0.5 31.9 18
    endloop
  endfacet
  facet normal 1 0 0
    outer loop
      vertex -0.5 27.9 4
      vertex -0.5 31.9 4
      vertex -0.5 27.9 13.7
    endloop
  endfacet
  facet normal -0 0 1
    outer loop
      vertex -0.5 27.9 4
      vertex 31.9 -0.5 4
      vertex -0.5 31.9 4
    endloop
  endfacet
  facet normal 0.707107 0.707107 0
    outer loop
      vertex -0.5 31.9 0
      vertex -0.5 31.9 4
      vertex 31.9 -0.5 4
    endloop
  endfacet
  facet normal 0.707107 0.707107 0
    outer loop
      vertex -0.5 31.9 0
      vertex 31.9 -0.5 4
      vertex 31.9 -0.5 0
    endloop
  endfacet
  facet normal 0 1 -0
    outer loop
      vertex -11.4 17.9 13.7
      vertex -0.5 17.9 13.7
      vertex -0.5 17.9 4
    endloop
  endfacet
  facet normal 0 0 -1
    outer loop
      vertex -11.4 17.9 13.7
      vertex -0.5 27.9 13.7
      vertex -0.5 17.9 13.7
    endloop
  endfacet
  facet normal 1 0 0
    outer loop
      vertex -11.4 17.9 13.7
      vertex -11.4 20.9 8.7
      vertex -11.4 20.9581 9.17862
    endloop
  endfacet
  facet normal 1 0 0
    outer loop
      vertex -11.4 17.9 13.7
      vertex -11.4 20.9581 9.17862
      vertex -11.4 21.1291 9.62944
    endloop
  endfacet
  facet normal 1 0 0
    outer loop
      vertex -11.4 17.9 13.7
      vertex -11.4 21.1291 9.62944
      vertex -11.4 21.403 10.0262
    endloop
  endfacet
  facet normal 1 0 0
    outer loop
      vertex -11.4 17.9 13.7
      vertex -11.4 21.403 10.0262
      vertex -11.4 21.4858 10.1142
    endloop
  endfacet
  facet normal 1 0 0
    outer loop
      vertex -11.4 17.9 13.7
      vertex -11.4 21.4858 10.1142
      vertex -11.4 22.0716 10.7
    endloop
  endfacet
  facet normal 1 -0 0
    outer loop
      vertex -11.4 17.9 13.7
      vertex -11.4 22.0716 10.7
      vertex -11.4 27.9 13.7
    endloop
  endfacet
  facet normal -0 0 -1
    outer loop
      vertex -11.4 17.9 13.7
      vertex -11.4 27.9 13.7
      vertex -0.5 27.9 13.7
    endloop
  endfacet
  facet normal 0 0 1
    outer loop
      vertex -11.4 17.9 4
      vertex -0.5 17.9 4
      vertex -11.4 27.9 4
    endloop
  endfacet
  facet normal 0 1 0
    outer loop
      vertex -11.4 17.9 4
      vertex -11.4 17.9 13.7
      vertex -0.5 17.9 4
    endloop
  endfacet
  facet normal 1 0 0
    outer loop
      vertex -11.4 17.9 4
      vertex -11.4 20.9 8.7
      vertex -11.4 17.9 13.7
    endloop
  endfacet
  facet normal 1 0 0
    outer loop
      vertex -11.4 17.9 4
      vertex -11.4 20.9581 8.22138
      vertex -11.4 20.9 8.7
    endloop
  endfacet
  facet normal 1 0 0
    outer loop
      vertex -11.4 17.9 4
      vertex -11.4 21.1291 7.77056
      vertex -11.4 20.9581 8.22138
    endloop
  endfacet
  facet normal 1 0 0
    outer loop
      vertex -11.4 17.9 4
      vertex -11.4 21.403 7.37377
      vertex -11.4 21.1291 7.77056
    endloop
  endfacet
  facet normal 1 0 0
    outer loop
      vertex -11.4 17.9 4
      vertex -11.4 21.7639 7.05403
      vertex -11.4 21.403 7.37377
    endloop
  endfacet
  facet normal 1 0 0
    outer loop
      vertex -11.4 17.9 4
      vertex -11.4 22.1908 6.82997
      vertex -11.4 21.7639 7.05403
    endloop
  endfacet
  facet normal 1 0 0
    outer loop
      vertex -11.4 17.9 4
      vertex -11.4 22.6589 6.71459
      vertex -11.4 22.1908 6.82997
    endloop
  endfacet
  facet normal 1 0 0
    outer loop
      vertex -11.4 17.9 4
      vertex -11.4 27.9 4
      vertex -11.4 22.6589 6.71459
    endloop
  endfacet
  facet normal 1 0 0
    outer loop
      vertex -11.4 21.403 10.0262
      vertex -11.4 21.4935 10.1065
      vertex -11.4 21.4858 10.1142
    endloop
  endfacet
  facet normal 1 0 0
    outer loop
      vertex -11.4 22.0716 10.7
      vertex -11.4 23.7284 10.7
      vertex -11.4 27.9 13.7
    endloop
  endfacet
  facet normal 1 -0 0
    outer loop
      vertex -11.4 22.6589 6.71459
      vertex -11.4 27.9 4
      vertex -11.4 23.1411 6.71459
    endloop
  endfacet
  facet normal 1 -0 0
    outer loop
      vertex -11.4 23.1411 6.71459
      vertex -11.4 27.9 4
      vertex -11.4 23.6092 6.82997
    endloop
  endfacet
  facet normal 1 -0 0
    outer loop
      vertex -11.4 23.6092 6.82997
      vertex -11.4 27.9 4
      vertex -11.4 24.0361 7.05403
    endloop
  endfacet
  facet normal 1 0 0
    outer loop
      vertex -11.4 23.7284 10.7
      vertex -11.4 24.3142 10.1142
      vertex -11.4 27.9 13.7
    endloop
  endfacet
  facet normal 1 -0 0
    outer loop
      vertex -11.4 24.0361 7.05403
      vertex -11.4 27.9 4
      vertex -11.4 24.397 7.37377
    endloop
  endfacet
  facet normal 1 0 0
    outer loop
      vertex -11.4 24.3065 10.1065
      vertex -11.4 24.397 10.0262
      vertex -11.4 24.3142 10.1142
    endloop
  endfacet
  facet normal 1 0 0
    outer loop
      vertex -11.4 24.3142 10.1142
      vertex -11.4 24.397 10.0262
      vertex -11.4 27.9 13.7
    endloop
  endfacet
  facet normal 1 0 0
    outer loop
      vertex -11.4 24.397 10.0262
      vertex -11.4 24.6709 9.62944
      vertex -11.4 27.9 13.7
    endloop
  endfacet
  facet normal 1 -0 0
    outer loop
      vertex -11.4 24.397 7.37377
      vertex -11.4 27.9 4
      vertex -11.4 24.6709 7.77056
    endloop
  endfacet
  facet normal 1 -0 0
    outer loop
      vertex -11.4 24.6709 7.77056
      vertex -11.4 27.9 4
      vertex -11.4 24.8419 8.22138
    endloop
  endfacet
  facet normal 1 0 0
    outer loop
      vertex -11.4 24.6709 9.62944
      vertex -11.4 24.8419 9.17862
      vertex -11.4 27.9 13.7
    endloop
  endfacet
  facet normal 1 -0 0
    outer loop
      vertex -11.4 24.8419 8.22138
      vertex -11.4 27.9 4
      vertex -11.4 24.9 8.7
    endloop
  endfacet
  facet normal 1 0 0
    outer loop
      vertex -11.4 24.8419 9.17862
      vertex -11.4 24.9 8.7
      vertex -11.4 27.9 13.7
    endloop
  endfacet
  facet normal 1 0 0
    outer loop
      vertex -11.4 24.9 8.7
      vertex -11.4 27.9 4
      vertex -11.4 27.9 13.7
    endloop
  endfacet
  facet normal -0 0 1
    outer loop
      vertex -11.4 27.9 4
      vertex -0.5 17.9 4
      vertex -0.5 27.9 4
    endloop
  endfacet
  facet normal 0 -1 0
    outer loop
      vertex -11.4 27.9 4
      vertex -0.5 27.9 13.7
      vertex -11.4 27.9 13.7
    endloop
  endfacet
  facet normal 0 -1 -0
    outer loop
      vertex -11.4 27.9 4
      vertex -0.5 27.9 4
      vertex -0.5 27.9 13.7
    endloop
  endfacet
  facet normal 0 -1 -0
    outer loop
      vertex -16.4 13.9 0
      vertex -0.5 13.9 0
      vertex -0.5 13.9 4
    endloop
  endfacet
  facet normal 0 -1 0
    outer loop
      vertex -16.4 13.9 0
      vertex -0.5 13.9 4
      vertex -16.4 13.9 18
    endloop
  endfacet
  facet normal 0 0 -1
    outer loop
      vertex -16.4 13.9 0
      vertex -0.5 31.9 0
      vertex -0.5 13.9 0
    endloop
  endfacet
  facet normal -1 0 0
    outer loop
      vertex -16.4 13.9 0
      vertex -16.4 13.9 18
      vertex -16.4 20.9 8.7
    endloop
  endfacet
  facet normal -1 -0 0
    outer loop
      vertex -16.4 13.9 0
      vertex -16.4 20.9 8.7
      vertex -16.4 20.9581 8.22138
    endloop
  endfacet
  facet normal -1 -0 0
    outer loop
      vertex -16.4 13.9 0
      vertex -16.4 20.9581 8.22138
      vertex -16.4 21.1291 7.77056
    endloop
  endfacet
  facet normal -1 -0 0
    outer loop
      vertex -16.4 13.9 0
      vertex -16.4 21.1291 7.77056
      vertex -16.4 21.403 7.37377
    endloop
  endfacet
  facet normal -1 -0 0
    outer loop
      vertex -16.4 13.9 0
      vertex -16.4 21.403 7.37377
      vertex -16.4 21.7639 7.05403
    endloop
  endfacet
  facet normal -1 -0 0
    outer loop
      vertex -16.4 13.9 0
      vertex -16.4 21.7639 7.05403
      vertex -16.4 22.1908 6.82997
    endloop
  endfacet
  facet normal -1 -0 0
    outer loop
      vertex -16.4 13.9 0
      vertex -16.4 22.1908 6.82997
      vertex -16.4 22.6589 6.71459
    endloop
  endfacet
  facet normal -1 0 0
    outer loop
      vertex -16.4 13.9 0
      vertex -16.4 22.6589 6.71459
      vertex -16.4 31.9 0
    endloop
  endfacet
  facet normal -0 0 -1
    outer loop
      vertex -16.4 13.9 0
      vertex -16.4 31.9 0
      vertex -0.5 31.9 0
    endloop
  endfacet
  facet normal 0 0 1
    outer loop
      vertex -16.4 13.9 18
      vertex -0.5 13.9 18
      vertex -16.4 31.9 18
    endloop
  endfacet
  facet normal 0 -1 0
    outer loop
      vertex -16.4 13.9 18
      vertex -0.5 13.9 4
      vertex -0.5 13.9 18
    endloop
  endfacet
  facet normal -1 0 0
    outer loop
      vertex -16.4 13.9 18
      vertex -16.4 20.9581 9.17862
      vertex -16.4 20.9 8.7
    endloop
  endfacet
  facet normal -1 0 0
    outer loop
      vertex -16.4 13.9 18
      vertex -16.4 21.1291 9.62944
      vertex -16.4 20.9581 9.17862
    endloop
  endfacet
  facet normal -1 0 0
    outer loop
      vertex -16.4 13.9 18
      vertex -16.4 21.403 10.0262
      vertex -16.4 21.1291 9.62944
    endloop
  endfacet
  facet normal -1 0 0
    outer loop
      vertex -16.4 13.9 18
      vertex -16.4 21.4858 10.1142
      vertex -16.4 21.403 10.0262
    endloop
  endfacet
  facet normal -1 0 0
    outer loop
      vertex -16.4 13.9 18
      vertex -16.4 22.0716 10.7
      vertex -16.4 21.4858 10.1142
    endloop
  endfacet
  facet normal -1 0 0
    outer loop
      vertex -16.4 13.9 18
      vertex -16.4 31.9 18
      vertex -16.4 22.0716 10.7
    endloop
  endfacet
  facet normal 0 0.992708 0.120548
    outer loop
      vertex -16.4 20.9 8.7
      vertex -11.4 20.9 8.7
      vertex -11.4 20.9581 8.22138
    endloop
  endfacet
  facet normal 0 0.992708 0.120548
    outer loop
      vertex -16.4 20.9 8.7
      vertex -11.4 20.9581 8.22138
      vertex -16.4 20.9581 8.22138
    endloop
  endfacet
  facet normal 0 0.992708 -0.120548
    outer loop
      vertex -16.4 20.9 8.7
      vertex -16.4 20.9581 9.17862
      vertex -11.4 20.9 8.7
    endloop
  endfacet
  facet normal 0 0.935016 0.354607
    outer loop
      vertex -16.4 20.9581 8.22138
      vertex -11.4 20.9581 8.22138
      vertex -11.4 21.1291 7.77056
    endloop
  endfacet
  facet normal 0 0.935016 0.354607
    outer loop
      vertex -16.4 20.9581 8.22138
      vertex -11.4 21.1291 7.77056
      vertex -16.4 21.1291 7.77056
    endloop
  endfacet
  facet normal 0 0.992708 -0.120548
    outer loop
      vertex -16.4 20.9581 9.17862
      vertex -11.4 20.9581 9.17862
      vertex -11.4 20.9 8.7
    endloop
  endfacet
  facet normal 0 0.935016 -0.354607
    outer loop
      vertex -16.4 20.9581 9.17862
      vertex -16.4 21.1291 9.62944
      vertex -11.4 20.9581 9.17862
    endloop
  endfacet
  facet normal 0 0.822973 0.56808
    outer loop
      vertex -16.4 21.1291 7.77056
      vertex -11.4 21.1291 7.77056
      vertex -11.4 21.403 7.37377
    endloop
  endfacet
  facet normal 0 0.822973 0.56808
    outer loop
      vertex -16.4 21.1291 7.77056
      vertex -11.4 21.403 7.37377
      vertex -16.4 21.403 7.37377
    endloop
  endfacet
  facet normal 0 0.935016 -0.354607
    outer loop
      vertex -16.4 21.1291 9.62944
      vertex -11.4 21.1291 9.62944
      vertex -11.4 20.9581 9.17862
    endloop
  endfacet
  facet normal 0 0.822973 -0.56808
    outer loop
      vertex -16.4 21.1291 9.62944
      vertex -16.4 21.403 10.0262
      vertex -11.4 21.1291 9.62944
    endloop
  endfacet
  facet normal 0 0.822973 -0.56808
    outer loop
      vertex -16.4 21.403 10.0262
      vertex -11.4 21.403 10.0262
      vertex -11.4 21.1291 9.62944
    endloop
  endfacet
  facet normal 0 0.663189 -0.748452
    outer loop
      vertex -16.4 21.403 10.0262
      vertex -11.4 21.4935 10.1065
      vertex -11.4 21.403 10.0262
    endloop
  endfacet
  facet normal -1 -0 0
    outer loop
      vertex -16.4 21.403 10.0262
      vertex -16.4 21.4858 10.1142
      vertex -16.4 21.4935 10.1065
    endloop
  endfacet
  facet normal 0 0.663189 -0.748452
    outer loop
      vertex -16.4 21.403 10.0262
      vertex -16.4 21.4935 10.1065
      vertex -11.4 21.4935 10.1065
    endloop
  endfacet
  facet normal 0 0.663141 0.748494
    outer loop
      vertex -16.4 21.403 7.37377
      vertex -11.4 21.403 7.37377
      vertex -16.4 21.7639 7.05403
    endloop
  endfacet
  facet normal 0 0.707107 0.707107
    outer loop
      vertex -16.4 21.4858 10.1142
      vertex -11.4 21.4858 10.1142
      vertex -11.4 21.4935 10.1065
    endloop
  endfacet
  facet normal 0 0.707107 0.707107
    outer loop
      vertex -16.4 21.4858 10.1142
      vertex -11.4 21.4935 10.1065
      vertex -16.4 21.4935 10.1065
    endloop
  endfacet
  facet normal 0 0.707107 -0.707107
    outer loop
      vertex -16.4 21.4858 10.1142
      vertex -16.4 22.0716 10.7
      vertex -11.4 21.4858 10.1142
    endloop
  endfacet
  facet normal -0 0.663141 0.748494
    outer loop
      vertex -16.4 21.7639 7.05403
      vertex -11.4 21.403 7.37377
      vertex -11.4 21.7639 7.05403
    endloop
  endfacet
  facet normal 0 0.46471 0.885463
    outer loop
      vertex -16.4 21.7639 7.05403
      vertex -11.4 21.7639 7.05403
      vertex -16.4 22.1908 6.82997
    endloop
  endfacet
  facet normal 0 0.707107 -0.707107
    outer loop
      vertex -16.4 22.0716 10.7
      vertex -11.4 22.0716 10.7
      vertex -11.4 21.4858 10.1142
    endloop
  endfacet
  facet normal 0 0 -1
    outer loop
      vertex -16.4 22.0716 10.7
      vertex -11.4 23.7284 10.7
      vertex -11.4 22.0716 10.7
    endloop
  endfacet
  facet normal -0 0 -1
    outer loop
      vertex -16.4 22.0716 10.7
      vertex -16.4 23.7284 10.7
      vertex -11.4 23.7284 10.7
    endloop
  endfacet
  facet normal -1 0 0
    outer loop
      vertex -16.4 22.0716 10.7
      vertex -16.4 31.9 18
      vertex -16.4 23.7284 10.7
    endloop
  endfacet
  facet normal -0 0.46471 0.885463
    outer loop
      vertex -16.4 22.1908 6.82997
      vertex -11.4 21.7639 7.05403
      vertex -11.4 22.1908 6.82997
    endloop
  endfacet
  facet normal 0 0.239317 0.970941
    outer loop
      vertex -16.4 22.1908 6.82997
      vertex -11.4 22.1908 6.82997
      vertex -16.4 22.6589 6.71459
    endloop
  endfacet
  facet normal -0 0.239317 0.970941
    outer loop
      vertex -16.4 22.6589 6.71459
      vertex -11.4 22.1908 6.82997
      vertex -11.4 22.6589 6.71459
    endloop
  endfacet
  facet normal 0 0 1
    outer loop
      vertex -16.4 22.6589 6.71459
      vertex -11.4 22.6589 6.71459
      vertex -16.4 23.1411 6.71459
    endloop
  endfacet
  facet normal -1 0 0
    outer loop
      vertex -16.4 22.6589 6.71459
      vertex -16.4 23.1411 6.71459
      vertex -16.4 31.9 0
    endloop
  endfacet
  facet normal -0 0 1
    outer loop
      vertex -16.4 23.1411 6.71459
      vertex -11.4 22.6589 6.71459
      vertex -11.4 23.1411 6.71459
    endloop
  endfacet
  facet normal 0 -0.239317 0.970941
    outer loop
      vertex -16.4 23.1411 6.71459
      vertex -11.4 23.1411 6.71459
      vertex -16.4 23.6092 6.82997
    endloop
  endfacet
  facet normal -1 0 0
    outer loop
      vertex -16.4 23.1411 6.71459
      vertex -16.4 23.6092 6.82997
      vertex -16.4 31.9 0
    endloop
  endfacet
  facet normal 0 -0.239317 0.970941
    outer loop
      vertex -16.4 23.6092 6.82997
      vertex -11.4 23.1411 6.71459
      vertex -11.4 23.6092 6.82997
    endloop
  endfacet
  facet normal 0 -0.46471 0.885463
    outer loop
      vertex -16.4 23.6092 6.82997
      vertex -11.4 23.6092 6.82997
      vertex -16.4 24.0361 7.05403
    endloop
  endfacet
  facet normal -1 0 0
    outer loop
      vertex -16.4 23.6092 6.82997
      vertex -16.4 24.0361 7.05403
      vertex -16.4 31.9 0
    endloop
  endfacet
  facet normal 0 -0.707107 -0.707107
    outer loop
      vertex -16.4 23.7284 10.7
      vertex -16.4 24.3142 10.1142
      vertex -11.4 23.7284 10.7
    endloop
  endfacet
  facet normal -1 0 0
    outer loop
      vertex -16.4 23.7284 10.7
      vertex -16.4 31.9 18
      vertex -16.4 24.3142 10.1142
    endloop
  endfacet
  facet normal 0 -0.46471 0.885463
    outer loop
      vertex -16.4 24.0361 7.05403
      vertex -11.4 23.6092 6.82997
      vertex -11.4 24.0361 7.05403
    endloop
  endfacet
  facet normal 0 -0.663141 0.748494
    outer loop
      vertex -16.4 24.0361 7.05403
      vertex -11.4 24.0361 7.05403
      vertex -16.4 24.397 7.37377
    endloop
  endfacet
  facet normal -1 0 0
    outer loop
      vertex -16.4 24.0361 7.05403
      vertex -16.4 24.397 7.37377
      vertex -16.4 31.9 0
    endloop
  endfacet
  facet normal 0 -0.707107 0.707107
    outer loop
      vertex -16.4 24.3065 10.1065
      vertex -11.4 24.3065 10.1065
      vertex -11.4 24.3142 10.1142
    endloop
  endfacet
  facet normal 0 -0.707107 0.707107
    outer loop
      vertex -16.4 24.3065 10.1065
      vertex -11.4 24.3142 10.1142
      vertex -16.4 24.3142 10.1142
    endloop
  endfacet
  facet normal 0 -0.663189 -0.748452
    outer loop
      vertex -16.4 24.3065 10.1065
      vertex -11.4 24.397 10.0262
      vertex -11.4 24.3065 10.1065
    endloop
  endfacet
  facet normal -1 0 0
    outer loop
      vertex -16.4 24.3065 10.1065
      vertex -16.4 24.3142 10.1142
      vertex -16.4 24.397 10.0262
    endloop
  endfacet
  facet normal -0 -0.663189 -0.748452
    outer loop
      vertex -16.4 24.3065 10.1065
      vertex -16.4 24.397 10.0262
      vertex -11.4 24.397 10.0262
    endloop
  endfacet
  facet normal 0 -0.707107 -0.707107
    outer loop
      vertex -16.4 24.3142 10.1142
      vertex -11.4 24.3142 10.1142
      vertex -11.4 23.7284 10.7
    endloop
  endfacet
  facet normal -1 0 0
    outer loop
      vertex -16.4 24.3142 10.1142
      vertex -16.4 31.9 18
      vertex -16.4 24.397 10.0262
    endloop
  endfacet
  facet normal 0 -0.822973 -0.56808
    outer loop
      vertex -16.4 24.397 10.0262
      vertex -16.4 24.6709 9.62944
      vertex -11.4 24.397 10.0262
    endloop
  endfacet
  facet normal -1 0 0
    outer loop
      vertex -16.4 24.397 10.0262
      vertex -16.4 31.9 18
      vertex -16.4 24.6709 9.62944
    endloop
  endfacet
  facet normal 0 -0.663141 0.748494
    outer loop
      vertex -16.4 24.397 7.37377
      vertex -11.4 24.0361 7.05403
      vertex -11.4 24.397 7.37377
    endloop
  endfacet
  facet normal 0 -0.822973 0.56808
    outer loop
      vertex -16.4 24.397 7.37377
      vertex -11.4 24.397 7.37377
      vertex -11.4 24.6709 7.77056
    endloop
  endfacet
  facet normal 0 -0.822973 0.56808
    outer loop
      vertex -16.4 24.397 7.37377
      vertex -11.4 24.6709 7.77056
      vertex -16.4 24.6709 7.77056
    endloop
  endfacet
  facet normal -1 0 0
    outer loop
      vertex -16.4 24.397 7.37377
      vertex -16.4 24.6709 7.77056
      vertex -16.4 31.9 0
    endloop
  endfacet
  facet normal 0 -0.935016 0.354607
    outer loop
      vertex -16.4 24.6709 7.77056
      vertex -11.4 24.6709 7.77056
      vertex -11.4 24.8419 8.22138
    endloop
  endfacet
  facet normal 0 -0.935016 0.354607
    outer loop
      vertex -16.4 24.6709 7.77056
      vertex -11.4 24.8419 8.22138
      vertex -16.4 24.8419 8.22138
    endloop
  endfacet
  facet normal -1 0 0
    outer loop
      vertex -16.4 24.6709 7.77056
      vertex -16.4 24.8419 8.22138
      vertex -16.4 31.9 0
    endloop
  endfacet
  facet normal 0 -0.822973 -0.56808
    outer loop
      vertex -16.4 24.6709 9.62944
      vertex -11.4 24.6709 9.62944
      vertex -11.4 24.397 10.0262
    endloop
  endfacet
  facet normal 0 -0.935016 -0.354607
    outer loop
      vertex -16.4 24.6709 9.62944
      vertex -16.4 24.8419 9.17862
      vertex -11.4 24.6709 9.62944
    endloop
  endfacet
  facet normal -1 0 0
    outer loop
      vertex -16.4 24.6709 9.62944
      vertex -16.4 31.9 18
      vertex -16.4 24.8419 9.17862
    endloop
  endfacet
  facet normal 0 -0.992708 0.120548
    outer loop
      vertex -16.4 24.8419 8.22138
      vertex -11.4 24.8419 8.22138
      vertex -11.4 24.9 8.7
    endloop
  endfacet
  facet normal 0 -0.992708 0.120548
    outer loop
      vertex -16.4 24.8419 8.22138
      vertex -11.4 24.9 8.7
      vertex -16.4 24.9 8.7
    endloop
  endfacet
  facet normal -1 0 0
    outer loop
      vertex -16.4 24.8419 8.22138
      vertex -16.4 24.9 8.7
      vertex -16.4 31.9 0
    endloop
  endfacet
  facet normal 0 -0.935016 -0.354607
    outer loop
      vertex -16.4 24.8419 9.17862
      vertex -11.4 24.8419 9.17862
      vertex -11.4 24.6709 9.62944
    endloop
  endfacet
  facet normal 0 -0.992708 -0.120548
    outer loop
      vertex -16.4 24.8419 9.17862
      vertex -16.4 24.9 8.7
      vertex -11.4 24.8419 9.17862
    endloop
  endfacet
  facet normal -1 0 0
    outer loop
      vertex -16.4 24.8419 9.17862
      vertex -16.4 31.9 18
      vertex -16.4 24.9 8.7
    endloop
  endfacet
  facet normal 0 -0.992708 -0.120548
    outer loop
      vertex -16.4 24.9 8.7
      vertex -11.4 24.9 8.7
      vertex -11.4 24.8419 9.17862
    endloop
  endfacet
  facet normal -1 0 0
    outer loop
      vertex -16.4 24.9 8.7
      vertex -16.4 31.9 18
      vertex -16.4 31.9 0
    endloop
  endfacet
  facet normal 0 1 0
    outer loop
      vertex -16.4 31.9 0
      vertex -0.5 31.9 4
      vertex -0.5 31.9 0
    endloop
  endfacet
  facet normal 0 1 0
    outer loop
      vertex -16.4 31.9 0
      vertex -16.4 31.9 18
      vertex -0.5 31.9 4
    endloop
  endfacet
  facet normal -0 0 1
    outer loop
      vertex -16.4 31.9 18
      vertex -0.5 13.9 18
      vertex -0.5 31.9 18
    endloop
  endfacet
  facet normal 0 1 -0
    outer loop
      vertex -16.4 31.9 18
      vertex -0.5 31.9 18
      vertex -0.5 31.9 4
    endloop
  endfacet
  facet normal 0 1 -0
    outer loop
      vertex 13.9 -0.5 18
      vertex 31.9 -0.5 18
      vertex 31.9 -0.5 4
    endloop
  endfacet
  facet normal -0 0 1
    outer loop
      vertex 13.9 -0.5 18
      vertex 31.9 -4.5 18
      vertex 31.9 -0.5 18
    endloop
  endfacet
  facet normal 0 1 0
    outer loop
      vertex 13.9 -0.5 4
      vertex 13.9 -0.5 18
      vertex 31.9 -0.5 4
    endloop
  endfacet
  facet normal 0 0 -1
    outer loop
      vertex 13.9 -4.5 0
      vertex 13.9 -0.5 0
      vertex 31.9 -0.5 0
    endloop
  endfacet
  facet normal -1 0 0
    outer loop
      vertex 13.9 -4.5 0
      vertex 13.9 -0.5 4
      vertex 13.9 -0.5 0
    endloop
  endfacet
  facet normal -1 0 0
    outer loop
      vertex 13.9 -4.5 0
      vertex 13.9 -4.5 18
      vertex 13.9 -0.5 4
    endloop
  endfacet
  facet normal 0 0 -1
    outer loop
      vertex 13.9 -4.5 0
      vertex 31.9 -0.5 0
      vertex 31.9 -4.5 0
    endloop
  endfacet
  facet normal 0 -1 -0
    outer loop
      vertex 13.9 -4.5 0
      vertex 31.9 -4.5 0
      vertex 31.9 -4.5 18
    endloop
  endfacet
  facet normal 0 -1 0
    outer loop
      vertex 13.9 -4.5 0
      vertex 31.9 -4.5 18
      vertex 13.9 -4.5 18
    endloop
  endfacet
  facet normal -1 0 0
    outer loop
      vertex 13.9 -4.5 18
      vertex 13.9 -0.5 18
      vertex 13.9 -0.5 4
    endloop
  endfacet
  facet normal 0 0 1
    outer loop
      vertex 13.9 -4.5 18
      vertex 31.9 -4.5 18
      vertex 13.9 -0.5 18
    endloop
  endfacet
  facet normal 1 0 0
    outer loop
      vertex 31.9 -4.5 0
      vertex 31.9 -0.5 0
      vertex 31.9 -0.5 4
    endloop
  endfacet
  facet normal 1 0 0
    outer loop
      vertex 31.9 -4.5 0
      vertex 31.9 -0.5 4
      vertex 31.9 -4.5 18
    endloop
  endfacet
  facet normal 1 -0 0
    outer loop
      vertex 31.9 -4.5 18
      vertex 31.9 -0.5 4
      vertex 31.9 -0.5 18
    endloop
  endfacet
endsolid OpenSCAD_Model
