solid OpenSCAD_Model
  facet normal 0.0581521 1.42809e-07 0.998308
    outer loop
      vertex -0.23966 0 1.9495
      vertex 9.53674e-08 0 1.93554
      vertex -0.23966 5 1.9495
    endloop
  endfacet
  facet normal 0.0581521 1.42809e-07 0.998308
    outer loop
      vertex -0.23966 5 1.9495
      vertex 9.53674e-08 0 1.93554
      vertex 9.53674e-08 5 1.93554
    endloop
  endfacet
  facet normal 0 1 0
    outer loop
      vertex -0.23966 5 1.9495
      vertex 9.53674e-08 5 1.93554
      vertex 6.3 5 0
    endloop
  endfacet
  facet normal 0.173652 1.40878e-07 0.984807
    outer loop
      vertex -0.476067 0 1.99119
      vertex -0.23966 0 1.9495
      vertex -0.476067 5 1.99118
    endloop
  endfacet
  facet normal 0.173652 1.40878e-07 0.984807
    outer loop
      vertex -0.476067 5 1.99118
      vertex -0.23966 0 1.9495
      vertex -0.23966 5 1.9495
    endloop
  endfacet
  facet normal 0.286814 1.82721e-07 0.957986
    outer loop
      vertex -0.706116 0 2.06006
      vertex -0.476067 0 1.99119
      vertex -0.706116 5 2.06006
    endloop
  endfacet
  facet normal 0.286813 1.37041e-07 0.957987
    outer loop
      vertex -0.706116 5 2.06006
      vertex -0.476067 0 1.99119
      vertex -0.476067 5 1.99118
    endloop
  endfacet
  facet normal -0 -1.90735e-07 -1
    outer loop
      vertex -0.859481 0 6.075
      vertex -0.859481 5 6.075
      vertex 0.859481 5 6.075
    endloop
  endfacet
  facet normal 0 -1 0
    outer loop
      vertex -0.859481 0 6.075
      vertex 0.859481 0 6.075
      vertex 4.00001 0 8
    endloop
  endfacet
  facet normal 0 -1.90735e-07 -1
    outer loop
      vertex -0.859481 0 6.075
      vertex 0.859481 5 6.075
      vertex 0.859481 0 6.075
    endloop
  endfacet
  facet normal 0 1 0
    outer loop
      vertex -0.859481 5 6.075
      vertex 6.3 5 8
      vertex 0.859481 5 6.075
    endloop
  endfacet
  facet normal 0.396082 1.75136e-07 0.918215
    outer loop
      vertex -0.926476 0 2.15512
      vertex -0.706116 0 2.06006
      vertex -0.926476 5 2.15511
    endloop
  endfacet
  facet normal 0.396082 1.75136e-07 0.918215
    outer loop
      vertex -0.926476 5 2.15511
      vertex -0.706116 0 2.06006
      vertex -0.706116 5 2.06006
    endloop
  endfacet
  facet normal 0.499998 1.23886e-07 0.866026
    outer loop
      vertex -1.13447 0 2.2752
      vertex -0.926476 0 2.15512
      vertex -1.13447 5 2.2752
    endloop
  endfacet
  facet normal 0.499999 1.65181e-07 0.866026
    outer loop
      vertex -1.13447 5 2.2752
      vertex -0.926476 0 2.15512
      vertex -0.926476 5 2.15511
    endloop
  endfacet
  facet normal 0.597153 1.14745e-07 0.802127
    outer loop
      vertex -1.32695 0 2.4185
      vertex -1.13447 0 2.2752
      vertex -1.32695 5 2.4185
    endloop
  endfacet
  facet normal 0.597153 1.14745e-07 0.802127
    outer loop
      vertex -1.32695 5 2.4185
      vertex -1.13447 0 2.2752
      vertex -1.13447 5 2.2752
    endloop
  endfacet
  facet normal 0.707107 -1.3487e-07 -0.707107
    outer loop
      vertex -1.46724 0 5.46724
      vertex -0.859481 5 6.075
      vertex -0.859481 0 6.075
    endloop
  endfacet
  facet normal 0.707107 1.3487e-07 0.707107
    outer loop
      vertex -1.46724 0 5.46724
      vertex -1.45793 0 5.45793
      vertex -1.45793 5 5.45793
    endloop
  endfacet
  facet normal 0.707107 1.3487e-07 0.707107
    outer loop
      vertex -1.46724 0 5.46724
      vertex -1.45793 5 5.45793
      vertex -1.46724 5 5.46724
    endloop
  endfacet
  facet normal 0.707107 -1.3487e-07 -0.707107
    outer loop
      vertex -1.46724 0 5.46724
      vertex -1.46724 5 5.46724
      vertex -0.859481 5 6.075
    endloop
  endfacet
  facet normal 0.686238 1.38736e-07 0.727377
    outer loop
      vertex -1.50167 0 2.58333
      vertex -1.32695 0 2.4185
      vertex -1.50167 5 2.58333
    endloop
  endfacet
  facet normal 0.686237 1.04052e-07 0.727378
    outer loop
      vertex -1.50167 5 2.58333
      vertex -1.32695 0 2.4185
      vertex -1.32695 5 2.4185
    endloop
  endfacet
  facet normal 0 -1 -0
    outer loop
      vertex -1.5017 0 5.41664
      vertex -1.45793 0 5.45793
      vertex -1.46724 0 5.46724
    endloop
  endfacet
  facet normal 0.686231 -1.38737e-07 -0.727383
    outer loop
      vertex -1.5017 0 5.41664
      vertex -1.45793 5 5.45793
      vertex -1.45793 0 5.45793
    endloop
  endfacet
  facet normal 0.686231 -1.38737e-07 -0.727383
    outer loop
      vertex -1.5017 0 5.41664
      vertex -1.5017 5 5.41664
      vertex -1.45793 5 5.45793
    endloop
  endfacet
  facet normal 0 1 0
    outer loop
      vertex -1.5017 5 5.41664
      vertex -1.46724 5 5.46724
      vertex -1.45793 5 5.45793
    endloop
  endfacet
  facet normal 0.766049 1.22601e-07 0.642782
    outer loop
      vertex -1.65592 0 2.76716
      vertex -1.50167 0 2.58333
      vertex -1.50167 5 2.58333
    endloop
  endfacet
  facet normal 0.766049 1.22601e-07 0.642782
    outer loop
      vertex -1.65592 0 2.76716
      vertex -1.50167 5 2.58333
      vertex -1.65592 5 2.76716
    endloop
  endfacet
  facet normal 0 -1 0
    outer loop
      vertex -1.65592 0 5.23284
      vertex -1.5017 0 5.41664
      vertex -1.46724 0 5.46724
    endloop
  endfacet
  facet normal 0.766055 -7.67093e-08 -0.642775
    outer loop
      vertex -1.65592 0 5.23284
      vertex -1.65592 3.99559 5.23284
      vertex -1.5017 0 5.41664
    endloop
  endfacet
  facet normal 0.766055 -1.226e-07 -0.642775
    outer loop
      vertex -1.65592 3.99559 5.23284
      vertex -1.5017 5 5.41664
      vertex -1.5017 0 5.41664
    endloop
  endfacet
  facet normal 0.766054 0 -0.642776
    outer loop
      vertex -1.65592 3.99559 5.23284
      vertex -1.65592 5 5.23284
      vertex -1.5017 5 5.41664
    endloop
  endfacet
  facet normal 0 1 0
    outer loop
      vertex -1.65592 5 5.23284
      vertex -1.46724 5 5.46724
      vertex -1.5017 5 5.41664
    endloop
  endfacet
  facet normal 0.835494 1.04809e-07 0.5495
    outer loop
      vertex -1.7879 0 2.96782
      vertex -1.65592 0 2.76716
      vertex -1.65592 5 2.76716
    endloop
  endfacet
  facet normal 0.835494 7.86066e-08 0.5495
    outer loop
      vertex -1.7879 0 2.96782
      vertex -1.65592 5 2.76716
      vertex -1.7879 5 2.96782
    endloop
  endfacet
  facet normal 0.835494 0 -0.5495
    outer loop
      vertex -1.7879 0 5.03218
      vertex -1.7879 1.00447 5.03218
      vertex -1.65592 0 5.23284
    endloop
  endfacet
  facet normal 0.835493 -6.55779e-08 -0.549501
    outer loop
      vertex -1.7879 1.00447 5.03218
      vertex -1.65592 3.99559 5.23284
      vertex -1.65592 0 5.23284
    endloop
  endfacet
  facet normal 0.835493 0 -0.549501
    outer loop
      vertex -1.7879 1.00447 5.03218
      vertex -1.7879 1.00581 5.03218
      vertex -1.65592 3.99559 5.23284
    endloop
  endfacet
  facet normal 0.835493 -6.56009e-08 -0.549501
    outer loop
      vertex -1.7879 1.00581 5.03218
      vertex -1.7879 5 5.03218
      vertex -1.65592 3.99559 5.23284
    endloop
  endfacet
  facet normal 0.835494 0 -0.5495
    outer loop
      vertex -1.7879 5 5.03218
      vertex -1.65592 5 5.23284
      vertex -1.65592 3.99559 5.23284
    endloop
  endfacet
  facet normal 0.893628 6.42027e-08 0.448809
    outer loop
      vertex -1.89558 0 3.18224
      vertex -1.7879 0 2.96782
      vertex -1.7879 5 2.96782
    endloop
  endfacet
  facet normal 0.893628 6.42027e-08 0.448809
    outer loop
      vertex -1.89558 0 3.18224
      vertex -1.7879 5 2.96782
      vertex -1.89558 5 3.18224
    endloop
  endfacet
  facet normal 0.893627 0 -0.448809
    outer loop
      vertex -1.89558 0 4.81776
      vertex -1.7879 1.00447 5.03218
      vertex -1.7879 0 5.03218
    endloop
  endfacet
  facet normal 0.893627 0 -0.448809
    outer loop
      vertex -1.89558 0 4.81776
      vertex -1.7879 1.00581 5.03218
      vertex -1.7879 1.00447 5.03218
    endloop
  endfacet
  facet normal 0.893628 -1.07167e-07 -0.448809
    outer loop
      vertex -1.89558 0 4.81776
      vertex -1.89558 3.99395 4.81776
      vertex -1.7879 1.00581 5.03218
    endloop
  endfacet
  facet normal 0.893628 -5.358e-08 -0.448808
    outer loop
      vertex -1.89558 3.99395 4.81776
      vertex -1.7879 5 5.03218
      vertex -1.7879 1.00581 5.03218
    endloop
  endfacet
  facet normal 0.893628 0 -0.448809
    outer loop
      vertex -1.89558 3.99395 4.81776
      vertex -1.89558 5 4.81776
      vertex -1.7879 5 5.03218
    endloop
  endfacet
  facet normal 0.939693 4.89264e-08 0.34202
    outer loop
      vertex -1.97775 0 3.40798
      vertex -1.89558 0 3.18224
      vertex -1.89558 5 3.18224
    endloop
  endfacet
  facet normal 0.939693 4.89264e-08 0.34202
    outer loop
      vertex -1.97775 0 3.40798
      vertex -1.89558 5 3.18224
      vertex -1.97775 5 3.40798
    endloop
  endfacet
  facet normal 0.939693 -8.16675e-08 -0.34202
    outer loop
      vertex -1.97775 0 4.59202
      vertex -1.89558 3.99395 4.81776
      vertex -1.89558 0 4.81776
    endloop
  endfacet
  facet normal 0.939692 -3.26176e-08 -0.342021
    outer loop
      vertex -1.97775 0 4.59202
      vertex -1.97775 5 4.59202
      vertex -1.89558 3.99395 4.81776
    endloop
  endfacet
  facet normal 0.939692 0 -0.342021
    outer loop
      vertex -1.97775 5 4.59202
      vertex -1.89558 5 4.81776
      vertex -1.89558 3.99395 4.81776
    endloop
  endfacet
  facet normal -0.290285 0.95694 0
    outer loop
      vertex -10.0567 4.8097 0
      vertex -10.0567 4.8097 8
      vertex -9.58773 4.95196 0
    endloop
  endfacet
  facet normal 0 0 -1
    outer loop
      vertex -10.0567 4.8097 0
      vertex -9.58773 4.95196 0
      vertex -8.89999 2.61243 0
    endloop
  endfacet
  facet normal -0 0 1
    outer loop
      vertex -10.0567 4.8097 8
      vertex -8.89999 2.61243 8
      vertex -9.58773 4.95196 8
    endloop
  endfacet
  facet normal -0.290285 0.95694 0
    outer loop
      vertex -10.0567 4.8097 8
      vertex -9.58773 4.95196 8
      vertex -9.58773 4.95196 0
    endloop
  endfacet
  facet normal 0 0 -1
    outer loop
      vertex -10.4889 4.57867 0
      vertex -10.0567 4.8097 0
      vertex -8.89999 2.61243 0
    endloop
  endfacet
  facet normal -0.471396 0.881922 0
    outer loop
      vertex -10.4889 4.57867 0
      vertex -10.4889 4.57867 8
      vertex -10.0567 4.8097 0
    endloop
  endfacet
  facet normal -0.471396 0.881922 0
    outer loop
      vertex -10.4889 4.57867 8
      vertex -10.0567 4.8097 8
      vertex -10.0567 4.8097 0
    endloop
  endfacet
  facet normal -0 0 1
    outer loop
      vertex -10.4889 4.57867 8
      vertex -8.89999 2.61243 8
      vertex -10.0567 4.8097 8
    endloop
  endfacet
  facet normal 0 0 -1
    outer loop
      vertex -10.8678 4.26777 0
      vertex -10.4889 4.57867 0
      vertex -8.89999 2.61243 0
    endloop
  endfacet
  facet normal -0.634392 0.773011 0
    outer loop
      vertex -10.8678 4.26777 0
      vertex -10.8678 4.26777 8
      vertex -10.4889 4.57867 0
    endloop
  endfacet
  facet normal 0 0 -1
    outer loop
      vertex -10.8678 4.26777 0
      vertex -8.89999 2.61243 0
      vertex -9.27246 2.2999 0
    endloop
  endfacet
  facet normal -0.634392 0.773011 0
    outer loop
      vertex -10.8678 4.26777 8
      vertex -10.4889 4.57867 8
      vertex -10.4889 4.57867 0
    endloop
  endfacet
  facet normal -0 0 1
    outer loop
      vertex -10.8678 4.26777 8
      vertex -8.89999 2.61243 8
      vertex -10.4889 4.57867 8
    endloop
  endfacet
  facet normal 0 0 1
    outer loop
      vertex -10.8678 4.26777 8
      vertex -9.27246 2.2999 8
      vertex -8.89999 2.61243 8
    endloop
  endfacet
  facet normal 0 0 -1
    outer loop
      vertex -11.1787 3.88893 0
      vertex -10.8678 4.26777 0
      vertex -9.27246 2.2999 0
    endloop
  endfacet
  facet normal -0.773011 0.634392 0
    outer loop
      vertex -11.1787 3.88893 0
      vertex -10.8678 4.26777 8
      vertex -10.8678 4.26777 0
    endloop
  endfacet
  facet normal -0.773011 0.634392 0
    outer loop
      vertex -11.1787 3.88893 0
      vertex -11.1787 3.88893 8
      vertex -10.8678 4.26777 8
    endloop
  endfacet
  facet normal -0 0 1
    outer loop
      vertex -11.1787 3.88893 8
      vertex -9.27246 2.2999 8
      vertex -10.8678 4.26777 8
    endloop
  endfacet
  facet normal 0 0 -1
    outer loop
      vertex -11.4097 3.45671 0
      vertex -11.1787 3.88893 0
      vertex -9.27246 2.2999 0
    endloop
  endfacet
  facet normal -0.881922 0.471396 0
    outer loop
      vertex -11.4097 3.45671 0
      vertex -11.1787 3.88893 8
      vertex -11.1787 3.88893 0
    endloop
  endfacet
  facet normal -0.881922 0.471396 0
    outer loop
      vertex -11.4097 3.45671 0
      vertex -11.4097 3.45671 8
      vertex -11.1787 3.88893 8
    endloop
  endfacet
  facet normal -0 0 1
    outer loop
      vertex -11.4097 3.45671 8
      vertex -9.27246 2.2999 8
      vertex -11.1787 3.88893 8
    endloop
  endfacet
  facet normal 0 0 -1
    outer loop
      vertex -11.552 2.98773 0
      vertex -11.4097 3.45671 0
      vertex -9.27246 2.2999 0
    endloop
  endfacet
  facet normal -0.95694 0.290285 0
    outer loop
      vertex -11.552 2.98773 0
      vertex -11.4097 3.45671 8
      vertex -11.4097 3.45671 0
    endloop
  endfacet
  facet normal -0.95694 0.290285 0
    outer loop
      vertex -11.552 2.98773 0
      vertex -11.552 2.98773 8
      vertex -11.4097 3.45671 8
    endloop
  endfacet
  facet normal 0 0 -1
    outer loop
      vertex -11.552 2.98773 0
      vertex -9.27246 2.2999 0
      vertex -9.51556 1.87881 0
    endloop
  endfacet
  facet normal -0 0 1
    outer loop
      vertex -11.552 2.98773 8
      vertex -9.27246 2.2999 8
      vertex -11.4097 3.45671 8
    endloop
  endfacet
  facet normal 0 0 1
    outer loop
      vertex -11.552 2.98773 8
      vertex -9.51556 1.87881 8
      vertex -9.27246 2.2999 8
    endloop
  endfacet
  facet normal -1 -0 0
    outer loop
      vertex -11.6 0 0
      vertex -11.6 0 8
      vertex -11.6 2.5 8
    endloop
  endfacet
  facet normal -0 0 -1
    outer loop
      vertex -11.6 0 0
      vertex -11.6 2.5 0
      vertex -9.59999 1.39999 0
    endloop
  endfacet
  facet normal -1 0 0
    outer loop
      vertex -11.6 0 0
      vertex -11.6 2.5 8
      vertex -11.6 2.5 0
    endloop
  endfacet
  facet normal 0 -1 -0
    outer loop
      vertex -11.6 0 0
      vertex -9.59999 0 0
      vertex -9.59999 0 8
    endloop
  endfacet
  facet normal 0 -1 0
    outer loop
      vertex -11.6 0 0
      vertex -9.59999 0 8
      vertex -11.6 0 8
    endloop
  endfacet
  facet normal 0 0 -1
    outer loop
      vertex -11.6 0 0
      vertex -9.59999 1.39999 0
      vertex -9.59999 0 0
    endloop
  endfacet
  facet normal 0 0 1
    outer loop
      vertex -11.6 0 8
      vertex -9.59999 0 8
      vertex -9.59999 1.39999 8
    endloop
  endfacet
  facet normal 0 0 1
    outer loop
      vertex -11.6 0 8
      vertex -9.59999 1.39999 8
      vertex -11.6 2.5 8
    endloop
  endfacet
  facet normal 0 0 -1
    outer loop
      vertex -11.6 2.5 0
      vertex -11.552 2.98773 0
      vertex -9.51556 1.87881 0
    endloop
  endfacet
  facet normal -0.995185 0.0980168 0
    outer loop
      vertex -11.6 2.5 0
      vertex -11.552 2.98773 8
      vertex -11.552 2.98773 0
    endloop
  endfacet
  facet normal -0.995185 0.0980168 0
    outer loop
      vertex -11.6 2.5 0
      vertex -11.6 2.5 8
      vertex -11.552 2.98773 8
    endloop
  endfacet
  facet normal 0 0 -1
    outer loop
      vertex -11.6 2.5 0
      vertex -9.51556 1.87881 0
      vertex -9.59999 1.39999 0
    endloop
  endfacet
  facet normal -0 0 1
    outer loop
      vertex -11.6 2.5 8
      vertex -9.51556 1.87881 8
      vertex -11.552 2.98773 8
    endloop
  endfacet
  facet normal 0 0 1
    outer loop
      vertex -11.6 2.5 8
      vertex -9.59999 1.39999 8
      vertex -9.51556 1.87881 8
    endloop
  endfacet
  facet normal 0.973048 3.29878e-08 0.230602
    outer loop
      vertex -2.03309 0 3.6415
      vertex -1.97775 0 3.40798
      vertex -1.97775 5 3.40798
    endloop
  endfacet
  facet normal 0.973048 4.39838e-08 0.230602
    outer loop
      vertex -2.03309 0 3.6415
      vertex -1.97775 5 3.40798
      vertex -2.03309 5 3.6415
    endloop
  endfacet
  facet normal 0.973048 -2.19919e-08 -0.230602
    outer loop
      vertex -2.03309 0 4.3585
      vertex -2.03309 5 4.3585
      vertex -1.97775 0 4.59202
    endloop
  endfacet
  facet normal 0.973048 -2.19919e-08 -0.230602
    outer loop
      vertex -2.03309 5 4.3585
      vertex -1.97775 5 4.59202
      vertex -1.97775 0 4.59202
    endloop
  endfacet
  facet normal 0.993236 2.2146e-08 0.116109
    outer loop
      vertex -2.06096 0 3.87993
      vertex -2.03309 0 3.6415
      vertex -2.03309 5 3.6415
    endloop
  endfacet
  facet normal 0.993236 1.66095e-08 0.116109
    outer loop
      vertex -2.06096 0 3.87993
      vertex -2.03309 5 3.6415
      vertex -2.06096 5 3.87992
    endloop
  endfacet
  facet normal 1 0 0
    outer loop
      vertex -2.06096 0 3.87993
      vertex -2.06096 5 3.87992
      vertex -2.06096 0 4.12007
    endloop
  endfacet
  facet normal 1 0 0
    outer loop
      vertex -2.06096 0 4.12007
      vertex -2.06096 5 3.87992
      vertex -2.06096 5 4.12007
    endloop
  endfacet
  facet normal 0.993236 -2.2146e-08 -0.116109
    outer loop
      vertex -2.06096 0 4.12007
      vertex -2.06096 5 4.12007
      vertex -2.03309 0 4.3585
    endloop
  endfacet
  facet normal 0.993236 -1.1073e-08 -0.116109
    outer loop
      vertex -2.06096 5 4.12007
      vertex -2.03309 5 4.3585
      vertex -2.03309 0 4.3585
    endloop
  endfacet
  facet normal 0 -1 -0
    outer loop
      vertex -4.00001 0 0
      vertex -0.23966 0 1.9495
      vertex -0.476067 0 1.99119
    endloop
  endfacet
  facet normal 0 -1 -0
    outer loop
      vertex -4.00001 0 0
      vertex -0.476067 0 1.99119
      vertex -0.706116 0 2.06006
    endloop
  endfacet
  facet normal 0 -1 -0
    outer loop
      vertex -4.00001 0 0
      vertex -0.706116 0 2.06006
      vertex -0.926476 0 2.15512
    endloop
  endfacet
  facet normal 0 -1 -0
    outer loop
      vertex -4.00001 0 0
      vertex -0.926476 0 2.15512
      vertex -1.13447 0 2.2752
    endloop
  endfacet
  facet normal 0 -1 -0
    outer loop
      vertex -4.00001 0 0
      vertex -1.13447 0 2.2752
      vertex -1.32695 0 2.4185
    endloop
  endfacet
  facet normal 0 -1 -0
    outer loop
      vertex -4.00001 0 0
      vertex -1.32695 0 2.4185
      vertex -1.50167 0 2.58333
    endloop
  endfacet
  facet normal 0 -1 -0
    outer loop
      vertex -4.00001 0 0
      vertex -1.50167 0 2.58333
      vertex -1.65592 0 2.76716
    endloop
  endfacet
  facet normal 0 -1 -0
    outer loop
      vertex -4.00001 0 0
      vertex -1.65592 0 2.76716
      vertex -1.7879 0 2.96782
    endloop
  endfacet
  facet normal 0 -1 -0
    outer loop
      vertex -4.00001 0 0
      vertex -1.7879 0 2.96782
      vertex -1.89558 0 3.18224
    endloop
  endfacet
  facet normal 0 -1 -0
    outer loop
      vertex -4.00001 0 0
      vertex -1.89558 0 3.18224
      vertex -1.97775 0 3.40798
    endloop
  endfacet
  facet normal 0 -1 -0
    outer loop
      vertex -4.00001 0 0
      vertex -1.97775 0 3.40798
      vertex -2.03309 0 3.6415
    endloop
  endfacet
  facet normal 0 -1 -0
    outer loop
      vertex -4.00001 0 0
      vertex -2.03309 0 3.6415
      vertex -2.06096 0 3.87993
    endloop
  endfacet
  facet normal 0 -1 0
    outer loop
      vertex -4.00001 0 0
      vertex -2.06096 0 3.87993
      vertex -4.00001 0 8
    endloop
  endfacet
  facet normal -1 -0 0
    outer loop
      vertex -4.00001 0 0
      vertex -4.00001 0 8
      vertex -4.00001 1.39999 8
    endloop
  endfacet
  facet normal 0 0 -1
    outer loop
      vertex -4.00001 0 0
      vertex -4.00001 1.39999 0
      vertex 4.00001 0.699997 0
    endloop
  endfacet
  facet normal -1 0 0
    outer loop
      vertex -4.00001 0 0
      vertex -4.00001 1.39999 8
      vertex -4.00001 1.39999 0
    endloop
  endfacet
  facet normal 0 -1 0
    outer loop
      vertex -4.00001 0 0
      vertex 4.00001 0 0
      vertex 9.53674e-08 0 1.93554
    endloop
  endfacet
  facet normal 0 0 -1
    outer loop
      vertex -4.00001 0 0
      vertex 4.00001 0.699997 0
      vertex 4.00001 0 0
    endloop
  endfacet
  facet normal 0 -1 -0
    outer loop
      vertex -4.00001 0 0
      vertex 9.53674e-08 0 1.93554
      vertex -0.23966 0 1.9495
    endloop
  endfacet
  facet normal 0 -1 0
    outer loop
      vertex -4.00001 0 8
      vertex -0.859481 0 6.075
      vertex 4.00001 0 8
    endloop
  endfacet
  facet normal 0 -1 0
    outer loop
      vertex -4.00001 0 8
      vertex -1.46724 0 5.46724
      vertex -0.859481 0 6.075
    endloop
  endfacet
  facet normal 0 -1 0
    outer loop
      vertex -4.00001 0 8
      vertex -1.65592 0 5.23284
      vertex -1.46724 0 5.46724
    endloop
  endfacet
  facet normal 0 -1 0
    outer loop
      vertex -4.00001 0 8
      vertex -1.7879 0 5.03218
      vertex -1.65592 0 5.23284
    endloop
  endfacet
  facet normal 0 -1 0
    outer loop
      vertex -4.00001 0 8
      vertex -1.89558 0 4.81776
      vertex -1.7879 0 5.03218
    endloop
  endfacet
  facet normal 0 -1 0
    outer loop
      vertex -4.00001 0 8
      vertex -1.97775 0 4.59202
      vertex -1.89558 0 4.81776
    endloop
  endfacet
  facet normal 0 -1 0
    outer loop
      vertex -4.00001 0 8
      vertex -2.03309 0 4.3585
      vertex -1.97775 0 4.59202
    endloop
  endfacet
  facet normal 0 -1 0
    outer loop
      vertex -4.00001 0 8
      vertex -2.06096 0 3.87993
      vertex -2.06096 0 4.12007
    endloop
  endfacet
  facet normal 0 -1 0
    outer loop
      vertex -4.00001 0 8
      vertex -2.06096 0 4.12007
      vertex -2.03309 0 4.3585
    endloop
  endfacet
  facet normal 0 0 1
    outer loop
      vertex -4.00001 0 8
      vertex 4.00001 0 8
      vertex 4.00001 0.699997 8
    endloop
  endfacet
  facet normal 0 0 1
    outer loop
      vertex -4.00001 0 8
      vertex 4.00001 0.699997 8
      vertex -4.00001 1.39999 8
    endloop
  endfacet
  facet normal 0 0 -1
    outer loop
      vertex -4.00001 1.39999 0
      vertex 4.16378 1.14995 0
      vertex 4.00001 0.699997 0
    endloop
  endfacet
  facet normal 0 0 1
    outer loop
      vertex -4.00001 1.39999 8
      vertex 4.00001 0.699997 8
      vertex 4.16378 1.14995 8
    endloop
  endfacet
  facet normal -0.984809 -0.173644 0
    outer loop
      vertex -4.08444 1.87881 0
      vertex -4.00001 1.39999 0
      vertex -4.08444 1.87881 8
    endloop
  endfacet
  facet normal 0 0 -1
    outer loop
      vertex -4.08444 1.87881 0
      vertex 4.16378 1.14995 0
      vertex -4.00001 1.39999 0
    endloop
  endfacet
  facet normal -0.984809 -0.173644 0
    outer loop
      vertex -4.08444 1.87881 8
      vertex -4.00001 1.39999 0
      vertex -4.00001 1.39999 8
    endloop
  endfacet
  facet normal 0 0 1
    outer loop
      vertex -4.08444 1.87881 8
      vertex -4.00001 1.39999 8
      vertex 4.16378 1.14995 8
    endloop
  endfacet
  facet normal -0.866033 -0.499987 0
    outer loop
      vertex -4.32754 2.2999 0
      vertex -4.08444 1.87881 0
      vertex -4.32754 2.2999 8
    endloop
  endfacet
  facet normal 0 0 -1
    outer loop
      vertex -4.32754 2.2999 0
      vertex 4.16378 1.14995 0
      vertex -4.08444 1.87881 0
    endloop
  endfacet
  facet normal 0 0 -1
    outer loop
      vertex -4.32754 2.2999 0
      vertex 6.3 5 0
      vertex 4.16378 1.14995 0
    endloop
  endfacet
  facet normal -0.866033 -0.499987 0
    outer loop
      vertex -4.32754 2.2999 8
      vertex -4.08444 1.87881 0
      vertex -4.08444 1.87881 8
    endloop
  endfacet
  facet normal 0 0 1
    outer loop
      vertex -4.32754 2.2999 8
      vertex -4.08444 1.87881 8
      vertex 4.16378 1.14995 8
    endloop
  endfacet
  facet normal -0 0 1
    outer loop
      vertex -4.32754 2.2999 8
      vertex 4.16378 1.14995 8
      vertex 6.3 5 8
    endloop
  endfacet
  facet normal -0.64278 -0.766051 -0
    outer loop
      vertex -4.70001 2.61243 0
      vertex -4.32754 2.2999 0
      vertex -4.32754 2.2999 8
    endloop
  endfacet
  facet normal -0.64278 -0.766051 0
    outer loop
      vertex -4.70001 2.61243 0
      vertex -4.32754 2.2999 8
      vertex -4.70001 2.61243 8
    endloop
  endfacet
  facet normal 0 0 -1
    outer loop
      vertex -4.70001 2.61243 0
      vertex 6.3 5 0
      vertex -4.32754 2.2999 0
    endloop
  endfacet
  facet normal 0 0 1
    outer loop
      vertex -4.70001 2.61243 8
      vertex -4.32754 2.2999 8
      vertex 6.3 5 8
    endloop
  endfacet
  facet normal -0.34201 -0.939696 -0
    outer loop
      vertex -5.1569 2.77872 0
      vertex -4.70001 2.61243 0
      vertex -4.70001 2.61243 8
    endloop
  endfacet
  facet normal -0.34201 -0.939696 0
    outer loop
      vertex -5.1569 2.77872 0
      vertex -4.70001 2.61243 8
      vertex -5.1569 2.77872 8
    endloop
  endfacet
  facet normal 0 0 -1
    outer loop
      vertex -5.1569 2.77872 0
      vertex 6.3 5 0
      vertex -4.70001 2.61243 0
    endloop
  endfacet
  facet normal 0 0 1
    outer loop
      vertex -5.1569 2.77872 8
      vertex -4.70001 2.61243 8
      vertex 6.3 5 8
    endloop
  endfacet
  facet normal 0 -1 -0
    outer loop
      vertex -5.40001 2.77872 0
      vertex -5.1569 2.77872 0
      vertex -5.1569 2.77872 8
    endloop
  endfacet
  facet normal 0 -1 0
    outer loop
      vertex -5.40001 2.77872 0
      vertex -5.1569 2.77872 8
      vertex -5.40001 2.77872 8
    endloop
  endfacet
  facet normal -1 -0 0
    outer loop
      vertex -5.40001 2.77872 0
      vertex -5.40001 2.77872 8
      vertex -5.40001 2.79999 8
    endloop
  endfacet
  facet normal 0 0 -1
    outer loop
      vertex -5.40001 2.77872 0
      vertex -5.40001 2.79999 0
      vertex -5.1569 2.77872 0
    endloop
  endfacet
  facet normal -1 0 0
    outer loop
      vertex -5.40001 2.77872 0
      vertex -5.40001 2.79999 8
      vertex -5.40001 2.79999 0
    endloop
  endfacet
  facet normal 0 0 1
    outer loop
      vertex -5.40001 2.77872 8
      vertex -5.1569 2.77872 8
      vertex -5.40001 2.79999 8
    endloop
  endfacet
  facet normal 1 0 0
    outer loop
      vertex -8.2 2.77872 0
      vertex -8.2 2.79999 0
      vertex -8.2 2.77872 8
    endloop
  endfacet
  facet normal 1 -0 0
    outer loop
      vertex -8.2 2.77872 8
      vertex -8.2 2.79999 0
      vertex -8.2 2.79999 8
    endloop
  endfacet
  facet normal 0 -1 -0
    outer loop
      vertex -8.2 2.79999 0
      vertex -5.40001 2.79999 0
      vertex -5.40001 2.79999 8
    endloop
  endfacet
  facet normal 0 -1 0
    outer loop
      vertex -8.2 2.79999 0
      vertex -5.40001 2.79999 8
      vertex -8.2 2.79999 8
    endloop
  endfacet
  facet normal 0 -1 -0
    outer loop
      vertex -8.4431 2.77872 0
      vertex -8.2 2.77872 0
      vertex -8.2 2.77872 8
    endloop
  endfacet
  facet normal 0 -1 0
    outer loop
      vertex -8.4431 2.77872 0
      vertex -8.2 2.77872 8
      vertex -8.4431 2.77872 8
    endloop
  endfacet
  facet normal 0 0 -1
    outer loop
      vertex -8.4431 2.77872 0
      vertex -8.2 2.79999 0
      vertex -8.2 2.77872 0
    endloop
  endfacet
  facet normal 0 0 1
    outer loop
      vertex -8.4431 2.77872 8
      vertex -8.2 2.77872 8
      vertex -8.2 2.79999 8
    endloop
  endfacet
  facet normal 0.34201 -0.939696 0
    outer loop
      vertex -8.89999 2.61243 0
      vertex -8.4431 2.77872 0
      vertex -8.4431 2.77872 8
    endloop
  endfacet
  facet normal 0.34201 -0.939696 0
    outer loop
      vertex -8.89999 2.61243 0
      vertex -8.4431 2.77872 8
      vertex -8.89999 2.61243 8
    endloop
  endfacet
  facet normal 0 1 0
    outer loop
      vertex -9.1 5 0
      vertex -0.23966 5 1.9495
      vertex 6.3 5 0
    endloop
  endfacet
  facet normal 0 1 0
    outer loop
      vertex -9.1 5 0
      vertex -0.476067 5 1.99118
      vertex -0.23966 5 1.9495
    endloop
  endfacet
  facet normal 0 1 0
    outer loop
      vertex -9.1 5 0
      vertex -0.706116 5 2.06006
      vertex -0.476067 5 1.99118
    endloop
  endfacet
  facet normal 0 1 0
    outer loop
      vertex -9.1 5 0
      vertex -0.926476 5 2.15511
      vertex -0.706116 5 2.06006
    endloop
  endfacet
  facet normal 0 1 0
    outer loop
      vertex -9.1 5 0
      vertex -1.13447 5 2.2752
      vertex -0.926476 5 2.15511
    endloop
  endfacet
  facet normal 0 1 0
    outer loop
      vertex -9.1 5 0
      vertex -1.32695 5 2.4185
      vertex -1.13447 5 2.2752
    endloop
  endfacet
  facet normal 0 1 0
    outer loop
      vertex -9.1 5 0
      vertex -1.50167 5 2.58333
      vertex -1.32695 5 2.4185
    endloop
  endfacet
  facet normal 0 1 0
    outer loop
      vertex -9.1 5 0
      vertex -1.65592 5 2.76716
      vertex -1.50167 5 2.58333
    endloop
  endfacet
  facet normal 0 1 0
    outer loop
      vertex -9.1 5 0
      vertex -1.7879 5 2.96782
      vertex -1.65592 5 2.76716
    endloop
  endfacet
  facet normal 0 1 0
    outer loop
      vertex -9.1 5 0
      vertex -1.89558 5 3.18224
      vertex -1.7879 5 2.96782
    endloop
  endfacet
  facet normal 0 1 0
    outer loop
      vertex -9.1 5 0
      vertex -1.97775 5 3.40798
      vertex -1.89558 5 3.18224
    endloop
  endfacet
  facet normal 0 1 0
    outer loop
      vertex -9.1 5 0
      vertex -2.03309 5 3.6415
      vertex -1.97775 5 3.40798
    endloop
  endfacet
  facet normal 0 1 0
    outer loop
      vertex -9.1 5 0
      vertex -2.06096 5 3.87992
      vertex -2.03309 5 3.6415
    endloop
  endfacet
  facet normal 0 0 -1
    outer loop
      vertex -9.1 5 0
      vertex -5.1569 2.77872 0
      vertex -5.40001 2.79999 0
    endloop
  endfacet
  facet normal 0 0 -1
    outer loop
      vertex -9.1 5 0
      vertex -5.40001 2.79999 0
      vertex -8.2 2.79999 0
    endloop
  endfacet
  facet normal 0 0 -1
    outer loop
      vertex -9.1 5 0
      vertex -8.2 2.79999 0
      vertex -8.4431 2.77872 0
    endloop
  endfacet
  facet normal 0 0 -1
    outer loop
      vertex -9.1 5 0
      vertex -8.4431 2.77872 0
      vertex -8.89999 2.61243 0
    endloop
  endfacet
  facet normal 0 1 0
    outer loop
      vertex -9.1 5 0
      vertex -9.1 5 8
      vertex -2.06096 5 3.87992
    endloop
  endfacet
  facet normal 0 0 -1
    outer loop
      vertex -9.1 5 0
      vertex 6.3 5 0
      vertex -5.1569 2.77872 0
    endloop
  endfacet
  facet normal 0 1 -0
    outer loop
      vertex -9.1 5 8
      vertex -0.859481 5 6.075
      vertex -1.46724 5 5.46724
    endloop
  endfacet
  facet normal 0 1 0
    outer loop
      vertex -9.1 5 8
      vertex -1.46724 5 5.46724
      vertex -1.65592 5 5.23284
    endloop
  endfacet
  facet normal 0 1 -0
    outer loop
      vertex -9.1 5 8
      vertex -1.65592 5 5.23284
      vertex -1.7879 5 5.03218
    endloop
  endfacet
  facet normal 0 1 -0
    outer loop
      vertex -9.1 5 8
      vertex -1.7879 5 5.03218
      vertex -1.89558 5 4.81776
    endloop
  endfacet
  facet normal 0 1 -0
    outer loop
      vertex -9.1 5 8
      vertex -1.89558 5 4.81776
      vertex -1.97775 5 4.59202
    endloop
  endfacet
  facet normal 0 1 -0
    outer loop
      vertex -9.1 5 8
      vertex -1.97775 5 4.59202
      vertex -2.03309 5 4.3585
    endloop
  endfacet
  facet normal 0 1 -0
    outer loop
      vertex -9.1 5 8
      vertex -2.03309 5 4.3585
      vertex -2.06096 5 4.12007
    endloop
  endfacet
  facet normal 0 1 -0
    outer loop
      vertex -9.1 5 8
      vertex -2.06096 5 4.12007
      vertex -2.06096 5 3.87992
    endloop
  endfacet
  facet normal -0 0 1
    outer loop
      vertex -9.1 5 8
      vertex -5.1569 2.77872 8
      vertex 6.3 5 8
    endloop
  endfacet
  facet normal 0 0 1
    outer loop
      vertex -9.1 5 8
      vertex -5.40001 2.79999 8
      vertex -5.1569 2.77872 8
    endloop
  endfacet
  facet normal 0 0 1
    outer loop
      vertex -9.1 5 8
      vertex -8.2 2.79999 8
      vertex -5.40001 2.79999 8
    endloop
  endfacet
  facet normal 0 0 1
    outer loop
      vertex -9.1 5 8
      vertex -8.4431 2.77872 8
      vertex -8.2 2.79999 8
    endloop
  endfacet
  facet normal 0 0 1
    outer loop
      vertex -9.1 5 8
      vertex -8.89999 2.61243 8
      vertex -8.4431 2.77872 8
    endloop
  endfacet
  facet normal 0 1 0
    outer loop
      vertex -9.1 5 8
      vertex 6.3 5 8
      vertex -0.859481 5 6.075
    endloop
  endfacet
  facet normal 0.64278 -0.766051 0
    outer loop
      vertex -9.27246 2.2999 0
      vertex -8.89999 2.61243 0
      vertex -8.89999 2.61243 8
    endloop
  endfacet
  facet normal 0.64278 -0.766051 0
    outer loop
      vertex -9.27246 2.2999 0
      vertex -8.89999 2.61243 8
      vertex -9.27246 2.2999 8
    endloop
  endfacet
  facet normal 0.866033 -0.499987 0
    outer loop
      vertex -9.51556 1.87881 0
      vertex -9.27246 2.2999 0
      vertex -9.51556 1.87881 8
    endloop
  endfacet
  facet normal 0.866033 -0.499987 0
    outer loop
      vertex -9.51556 1.87881 8
      vertex -9.27246 2.2999 0
      vertex -9.27246 2.2999 8
    endloop
  endfacet
  facet normal 0 0 -1
    outer loop
      vertex -9.58773 4.95196 0
      vertex -9.1 5 0
      vertex -8.89999 2.61243 0
    endloop
  endfacet
  facet normal -0.0980185 0.995185 0
    outer loop
      vertex -9.58773 4.95196 0
      vertex -9.58773 4.95196 8
      vertex -9.1 5 0
    endloop
  endfacet
  facet normal -0 0 1
    outer loop
      vertex -9.58773 4.95196 8
      vertex -8.89999 2.61243 8
      vertex -9.1 5 8
    endloop
  endfacet
  facet normal -0.0980185 0.995185 0
    outer loop
      vertex -9.58773 4.95196 8
      vertex -9.1 5 8
      vertex -9.1 5 0
    endloop
  endfacet
  facet normal 1 0 0
    outer loop
      vertex -9.59999 0 0
      vertex -9.59999 1.39999 0
      vertex -9.59999 0 8
    endloop
  endfacet
  facet normal 1 -0 0
    outer loop
      vertex -9.59999 0 8
      vertex -9.59999 1.39999 0
      vertex -9.59999 1.39999 8
    endloop
  endfacet
  facet normal 0.984809 -0.173644 0
    outer loop
      vertex -9.59999 1.39999 0
      vertex -9.51556 1.87881 0
      vertex -9.59999 1.39999 8
    endloop
  endfacet
  facet normal 0.984809 -0.173644 0
    outer loop
      vertex -9.59999 1.39999 8
      vertex -9.51556 1.87881 0
      vertex -9.51556 1.87881 8
    endloop
  endfacet
  facet normal -0.173652 1.40878e-07 0.984807
    outer loop
      vertex 0.23966 0 1.9495
      vertex 0.476067 0 1.99119
      vertex 0.23966 5 1.9495
    endloop
  endfacet
  facet normal 0 -1 0
    outer loop
      vertex 0.23966 0 1.9495
      vertex 4.00001 0 0
      vertex 0.476067 0 1.99119
    endloop
  endfacet
  facet normal -0.173652 1.40878e-07 0.984807
    outer loop
      vertex 0.23966 5 1.9495
      vertex 0.476067 0 1.99119
      vertex 0.476067 5 1.99118
    endloop
  endfacet
  facet normal 0 1 0
    outer loop
      vertex 0.23966 5 1.9495
      vertex 0.476067 5 1.99118
      vertex 6.3 5 0
    endloop
  endfacet
  facet normal -0.286814 1.37041e-07 0.957986
    outer loop
      vertex 0.476067 0 1.99119
      vertex 0.706116 0 2.06006
      vertex 0.476067 5 1.99118
    endloop
  endfacet
  facet normal 0 -1 0
    outer loop
      vertex 0.476067 0 1.99119
      vertex 4.00001 0 0
      vertex 0.706116 0 2.06006
    endloop
  endfacet
  facet normal -0.286813 1.82721e-07 0.957987
    outer loop
      vertex 0.476067 5 1.99118
      vertex 0.706116 0 2.06006
      vertex 0.706116 5 2.06006
    endloop
  endfacet
  facet normal 0 1 0
    outer loop
      vertex 0.476067 5 1.99118
      vertex 0.706116 5 2.06006
      vertex 6.3 5 0
    endloop
  endfacet
  facet normal -0.396082 1.75136e-07 0.918215
    outer loop
      vertex 0.706116 0 2.06006
      vertex 0.926476 0 2.15512
      vertex 0.706116 5 2.06006
    endloop
  endfacet
  facet normal 0 -1 0
    outer loop
      vertex 0.706116 0 2.06006
      vertex 4.00001 0 0
      vertex 0.926476 0 2.15512
    endloop
  endfacet
  facet normal -0.396082 1.75136e-07 0.918215
    outer loop
      vertex 0.706116 5 2.06006
      vertex 0.926476 0 2.15512
      vertex 0.926476 5 2.15511
    endloop
  endfacet
  facet normal 0 1 0
    outer loop
      vertex 0.706116 5 2.06006
      vertex 0.926476 5 2.15511
      vertex 6.3 5 0
    endloop
  endfacet
  facet normal -0.707107 -1.3487e-07 -0.707107
    outer loop
      vertex 0.859481 0 6.075
      vertex 0.859481 5 6.075
      vertex 1.46724 0 5.46724
    endloop
  endfacet
  facet normal 0 -1 0
    outer loop
      vertex 0.859481 0 6.075
      vertex 1.46724 0 5.46724
      vertex 4.00001 0 8
    endloop
  endfacet
  facet normal -0.707107 -1.3487e-07 -0.707107
    outer loop
      vertex 0.859481 5 6.075
      vertex 1.46724 5 5.46724
      vertex 1.46724 0 5.46724
    endloop
  endfacet
  facet normal 0 1 0
    outer loop
      vertex 0.859481 5 6.075
      vertex 6.3 5 8
      vertex 1.46724 5 5.46724
    endloop
  endfacet
  facet normal -0.499998 1.65181e-07 0.866026
    outer loop
      vertex 0.926476 0 2.15512
      vertex 1.13447 0 2.2752
      vertex 0.926476 5 2.15511
    endloop
  endfacet
  facet normal 0 -1 0
    outer loop
      vertex 0.926476 0 2.15512
      vertex 4.00001 0 0
      vertex 1.13447 0 2.2752
    endloop
  endfacet
  facet normal -0.499999 1.23886e-07 0.866026
    outer loop
      vertex 0.926476 5 2.15511
      vertex 1.13447 0 2.2752
      vertex 1.13447 5 2.2752
    endloop
  endfacet
  facet normal 0 1 0
    outer loop
      vertex 0.926476 5 2.15511
      vertex 1.13447 5 2.2752
      vertex 6.3 5 0
    endloop
  endfacet
  facet normal -0.597153 1.14745e-07 0.802127
    outer loop
      vertex 1.13447 0 2.2752
      vertex 1.32695 0 2.4185
      vertex 1.13447 5 2.2752
    endloop
  endfacet
  facet normal 0 -1 0
    outer loop
      vertex 1.13447 0 2.2752
      vertex 4.00001 0 0
      vertex 1.32695 0 2.4185
    endloop
  endfacet
  facet normal -0.597153 1.14745e-07 0.802127
    outer loop
      vertex 1.13447 5 2.2752
      vertex 1.32695 0 2.4185
      vertex 1.32695 5 2.4185
    endloop
  endfacet
  facet normal 0 1 0
    outer loop
      vertex 1.13447 5 2.2752
      vertex 1.32695 5 2.4185
      vertex 6.3 5 0
    endloop
  endfacet
  facet normal -0.686237 1.04052e-07 0.727378
    outer loop
      vertex 1.32695 0 2.4185
      vertex 1.50167 0 2.58333
      vertex 1.32695 5 2.4185
    endloop
  endfacet
  facet normal 0 -1 0
    outer loop
      vertex 1.32695 0 2.4185
      vertex 4.00001 0 0
      vertex 1.50167 0 2.58333
    endloop
  endfacet
  facet normal -0.686237 1.38736e-07 0.727378
    outer loop
      vertex 1.32695 5 2.4185
      vertex 1.50167 0 2.58333
      vertex 1.50167 5 2.58333
    endloop
  endfacet
  facet normal 0 1 0
    outer loop
      vertex 1.32695 5 2.4185
      vertex 1.50167 5 2.58333
      vertex 6.3 5 0
    endloop
  endfacet
  facet normal -0.68623 -1.38738e-07 -0.727384
    outer loop
      vertex 1.45793 0 5.45793
      vertex 1.45793 5 5.45793
      vertex 1.5017 5 5.41664
    endloop
  endfacet
  facet normal -0.707107 1.3487e-07 0.707107
    outer loop
      vertex 1.45793 0 5.45793
      vertex 1.46724 0 5.46724
      vertex 1.46724 5 5.46724
    endloop
  endfacet
  facet normal -0.707107 1.3487e-07 0.707107
    outer loop
      vertex 1.45793 0 5.45793
      vertex 1.46724 5 5.46724
      vertex 1.45793 5 5.45793
    endloop
  endfacet
  facet normal 0 -1 0
    outer loop
      vertex 1.45793 0 5.45793
      vertex 1.5017 0 5.41664
      vertex 1.46724 0 5.46724
    endloop
  endfacet
  facet normal -0.68623 -1.38738e-07 -0.727384
    outer loop
      vertex 1.45793 0 5.45793
      vertex 1.5017 5 5.41664
      vertex 1.5017 0 5.41664
    endloop
  endfacet
  facet normal 0 1 0
    outer loop
      vertex 1.45793 5 5.45793
      vertex 1.46724 5 5.46724
      vertex 1.5017 5 5.41664
    endloop
  endfacet
  facet normal 0 -1 0
    outer loop
      vertex 1.46724 0 5.46724
      vertex 1.5017 0 5.41664
      vertex 1.65592 0 5.23284
    endloop
  endfacet
  facet normal 0 -1 0
    outer loop
      vertex 1.46724 0 5.46724
      vertex 1.65592 0 5.23284
      vertex 4.00001 0 8
    endloop
  endfacet
  facet normal 0 1 0
    outer loop
      vertex 1.46724 5 5.46724
      vertex 1.65592 5 5.23284
      vertex 1.5017 5 5.41664
    endloop
  endfacet
  facet normal 0 1 -0
    outer loop
      vertex 1.46724 5 5.46724
      vertex 6.3 5 8
      vertex 1.65592 5 5.23284
    endloop
  endfacet
  facet normal -0.766049 1.22601e-07 0.642782
    outer loop
      vertex 1.50167 0 2.58333
      vertex 1.65592 0 2.76716
      vertex 1.65592 5 2.76716
    endloop
  endfacet
  facet normal -0.766049 1.22601e-07 0.642782
    outer loop
      vertex 1.50167 0 2.58333
      vertex 1.65592 5 2.76716
      vertex 1.50167 5 2.58333
    endloop
  endfacet
  facet normal 0 -1 0
    outer loop
      vertex 1.50167 0 2.58333
      vertex 4.00001 0 0
      vertex 1.65592 0 2.76716
    endloop
  endfacet
  facet normal 0 1 0
    outer loop
      vertex 1.50167 5 2.58333
      vertex 1.65592 5 2.76716
      vertex 6.3 5 0
    endloop
  endfacet
  facet normal -0.766055 -1.226e-07 -0.642775
    outer loop
      vertex 1.5017 0 5.41664
      vertex 1.5017 5 5.41664
      vertex 1.65592 3.99559 5.23284
    endloop
  endfacet
  facet normal -0.766055 -7.67093e-08 -0.642775
    outer loop
      vertex 1.5017 0 5.41664
      vertex 1.65592 3.99559 5.23284
      vertex 1.65592 0 5.23284
    endloop
  endfacet
  facet normal -0.766054 0 -0.642776
    outer loop
      vertex 1.5017 5 5.41664
      vertex 1.65592 5 5.23284
      vertex 1.65592 3.99559 5.23284
    endloop
  endfacet
  facet normal -0.835494 7.86066e-08 0.5495
    outer loop
      vertex 1.65592 0 2.76716
      vertex 1.7879 0 2.96782
      vertex 1.7879 5 2.96782
    endloop
  endfacet
  facet normal -0.835494 1.04809e-07 0.5495
    outer loop
      vertex 1.65592 0 2.76716
      vertex 1.7879 5 2.96782
      vertex 1.65592 5 2.76716
    endloop
  endfacet
  facet normal 0 -1 0
    outer loop
      vertex 1.65592 0 2.76716
      vertex 4.00001 0 0
      vertex 1.7879 0 2.96782
    endloop
  endfacet
  facet normal -0.835494 -6.55778e-08 -0.5495
    outer loop
      vertex 1.65592 0 5.23284
      vertex 1.65592 3.99559 5.23284
      vertex 1.7879 1.00447 5.03218
    endloop
  endfacet
  facet normal 0 -1 0
    outer loop
      vertex 1.65592 0 5.23284
      vertex 1.7879 0 5.03218
      vertex 4.00001 0 8
    endloop
  endfacet
  facet normal -0.835494 0 -0.5495
    outer loop
      vertex 1.65592 0 5.23284
      vertex 1.7879 1.00447 5.03218
      vertex 1.7879 0 5.03218
    endloop
  endfacet
  facet normal -0.835494 0 -0.5495
    outer loop
      vertex 1.65592 3.99559 5.23284
      vertex 1.65592 5 5.23284
      vertex 1.7879 5 5.03218
    endloop
  endfacet
  facet normal -0.835493 0 -0.549501
    outer loop
      vertex 1.65592 3.99559 5.23284
      vertex 1.7879 1.00581 5.03218
      vertex 1.7879 1.00447 5.03218
    endloop
  endfacet
  facet normal -0.835494 -6.56009e-08 -0.5495
    outer loop
      vertex 1.65592 3.99559 5.23284
      vertex 1.7879 5 5.03218
      vertex 1.7879 1.00581 5.03218
    endloop
  endfacet
  facet normal 0 1 0
    outer loop
      vertex 1.65592 5 2.76716
      vertex 1.7879 5 2.96782
      vertex 6.3 5 0
    endloop
  endfacet
  facet normal 0 1 0
    outer loop
      vertex 1.65592 5 5.23284
      vertex 6.3 5 8
      vertex 1.7879 5 5.03218
    endloop
  endfacet
  facet normal -0.893627 6.42027e-08 0.448809
    outer loop
      vertex 1.7879 0 2.96782
      vertex 1.89558 0 3.18224
      vertex 1.89558 5 3.18224
    endloop
  endfacet
  facet normal -0.893627 6.42027e-08 0.448809
    outer loop
      vertex 1.7879 0 2.96782
      vertex 1.89558 5 3.18224
      vertex 1.7879 5 2.96782
    endloop
  endfacet
  facet normal 0 -1 0
    outer loop
      vertex 1.7879 0 2.96782
      vertex 4.00001 0 0
      vertex 1.89558 0 3.18224
    endloop
  endfacet
  facet normal -0.893627 -0 -0.44881
    outer loop
      vertex 1.7879 0 5.03218
      vertex 1.7879 1.00447 5.03218
      vertex 1.89558 0 4.81776
    endloop
  endfacet
  facet normal 0 -1 0
    outer loop
      vertex 1.7879 0 5.03218
      vertex 1.89558 0 4.81776
      vertex 4.00001 0 8
    endloop
  endfacet
  facet normal -0.893627 -0 -0.44881
    outer loop
      vertex 1.7879 1.00447 5.03218
      vertex 1.7879 1.00581 5.03218
      vertex 1.89558 0 4.81776
    endloop
  endfacet
  facet normal -0.893628 -5.35801e-08 -0.448809
    outer loop
      vertex 1.7879 1.00581 5.03218
      vertex 1.7879 5 5.03218
      vertex 1.89558 3.99395 4.81776
    endloop
  endfacet
  facet normal -0.893627 -1.07167e-07 -0.448809
    outer loop
      vertex 1.7879 1.00581 5.03218
      vertex 1.89558 3.99395 4.81776
      vertex 1.89558 0 4.81776
    endloop
  endfacet
  facet normal 0 1 0
    outer loop
      vertex 1.7879 5 2.96782
      vertex 1.89558 5 3.18224
      vertex 6.3 5 0
    endloop
  endfacet
  facet normal -0.893628 0 -0.448809
    outer loop
      vertex 1.7879 5 5.03218
      vertex 1.89558 5 4.81776
      vertex 1.89558 3.99395 4.81776
    endloop
  endfacet
  facet normal 0 1 0
    outer loop
      vertex 1.7879 5 5.03218
      vertex 6.3 5 8
      vertex 1.89558 5 4.81776
    endloop
  endfacet
  facet normal -0.939693 4.89264e-08 0.34202
    outer loop
      vertex 1.89558 0 3.18224
      vertex 1.97775 0 3.40798
      vertex 1.97775 5 3.40798
    endloop
  endfacet
  facet normal -0.939693 4.89264e-08 0.34202
    outer loop
      vertex 1.89558 0 3.18224
      vertex 1.97775 5 3.40798
      vertex 1.89558 5 3.18224
    endloop
  endfacet
  facet normal 0 -1 0
    outer loop
      vertex 1.89558 0 3.18224
      vertex 4.00001 0 0
      vertex 1.97775 0 3.40798
    endloop
  endfacet
  facet normal -0.939693 -8.16675e-08 -0.34202
    outer loop
      vertex 1.89558 0 4.81776
      vertex 1.89558 3.99395 4.81776
      vertex 1.97775 0 4.59202
    endloop
  endfacet
  facet normal 0 -1 0
    outer loop
      vertex 1.89558 0 4.81776
      vertex 1.97775 0 4.59202
      vertex 4.00001 0 8
    endloop
  endfacet
  facet normal -0.939692 0 -0.342021
    outer loop
      vertex 1.89558 3.99395 4.81776
      vertex 1.89558 5 4.81776
      vertex 1.97775 5 4.59202
    endloop
  endfacet
  facet normal -0.939692 -3.26176e-08 -0.342021
    outer loop
      vertex 1.89558 3.99395 4.81776
      vertex 1.97775 5 4.59202
      vertex 1.97775 0 4.59202
    endloop
  endfacet
  facet normal 0 1 0
    outer loop
      vertex 1.89558 5 3.18224
      vertex 1.97775 5 3.40798
      vertex 6.3 5 0
    endloop
  endfacet
  facet normal 0 1 0
    outer loop
      vertex 1.89558 5 4.81776
      vertex 6.3 5 8
      vertex 1.97775 5 4.59202
    endloop
  endfacet
  facet normal -0.973048 4.39836e-08 0.230601
    outer loop
      vertex 1.97775 0 3.40798
      vertex 2.03309 0 3.6415
      vertex 2.03309 5 3.6415
    endloop
  endfacet
  facet normal -0.973048 3.29877e-08 0.230601
    outer loop
      vertex 1.97775 0 3.40798
      vertex 2.03309 5 3.6415
      vertex 1.97775 5 3.40798
    endloop
  endfacet
  facet normal 0 -1 0
    outer loop
      vertex 1.97775 0 3.40798
      vertex 4.00001 0 0
      vertex 2.03309 0 3.6415
    endloop
  endfacet
  facet normal -0.973048 -2.19918e-08 -0.230601
    outer loop
      vertex 1.97775 0 4.59202
      vertex 1.97775 5 4.59202
      vertex 2.03309 0 4.3585
    endloop
  endfacet
  facet normal 0 -1 0
    outer loop
      vertex 1.97775 0 4.59202
      vertex 2.03309 0 4.3585
      vertex 4.00001 0 8
    endloop
  endfacet
  facet normal 0 1 0
    outer loop
      vertex 1.97775 5 3.40798
      vertex 2.03309 5 3.6415
      vertex 6.3 5 0
    endloop
  endfacet
  facet normal -0.973048 -2.19918e-08 -0.230601
    outer loop
      vertex 1.97775 5 4.59202
      vertex 2.03309 5 4.3585
      vertex 2.03309 0 4.3585
    endloop
  endfacet
  facet normal 0 1 0
    outer loop
      vertex 1.97775 5 4.59202
      vertex 6.3 5 8
      vertex 2.03309 5 4.3585
    endloop
  endfacet
  facet normal -0.993236 1.66097e-08 0.11611
    outer loop
      vertex 2.03309 0 3.6415
      vertex 2.06096 0 3.87993
      vertex 2.06096 5 3.87992
    endloop
  endfacet
  facet normal -0.993236 2.21462e-08 0.11611
    outer loop
      vertex 2.03309 0 3.6415
      vertex 2.06096 5 3.87992
      vertex 2.03309 5 3.6415
    endloop
  endfacet
  facet normal 0 -1 0
    outer loop
      vertex 2.03309 0 3.6415
      vertex 4.00001 0 0
      vertex 2.06096 0 3.87993
    endloop
  endfacet
  facet normal -0.993236 -1.10731e-08 -0.11611
    outer loop
      vertex 2.03309 0 4.3585
      vertex 2.03309 5 4.3585
      vertex 2.06096 0 4.12007
    endloop
  endfacet
  facet normal 0 -1 0
    outer loop
      vertex 2.03309 0 4.3585
      vertex 2.06096 0 4.12007
      vertex 4.00001 0 8
    endloop
  endfacet
  facet normal 0 1 0
    outer loop
      vertex 2.03309 5 3.6415
      vertex 2.06096 5 3.87992
      vertex 6.3 5 0
    endloop
  endfacet
  facet normal -0.993236 -2.21462e-08 -0.11611
    outer loop
      vertex 2.03309 5 4.3585
      vertex 2.06096 5 4.12007
      vertex 2.06096 0 4.12007
    endloop
  endfacet
  facet normal 0 1 0
    outer loop
      vertex 2.03309 5 4.3585
      vertex 6.3 5 8
      vertex 2.06096 5 4.12007
    endloop
  endfacet
  facet normal -1 -0 0
    outer loop
      vertex 2.06096 0 3.87993
      vertex 2.06096 0 4.12007
      vertex 2.06096 5 4.12007
    endloop
  endfacet
  facet normal -1 0 0
    outer loop
      vertex 2.06096 0 3.87993
      vertex 2.06096 5 4.12007
      vertex 2.06096 5 3.87992
    endloop
  endfacet
  facet normal 0 -1 0
    outer loop
      vertex 2.06096 0 3.87993
      vertex 4.00001 0 0
      vertex 4.00001 0 8
    endloop
  endfacet
  facet normal 0 -1 0
    outer loop
      vertex 2.06096 0 3.87993
      vertex 4.00001 0 8
      vertex 2.06096 0 4.12007
    endloop
  endfacet
  facet normal 0 1 0
    outer loop
      vertex 2.06096 5 3.87992
      vertex 2.06096 5 4.12007
      vertex 6.3 5 8
    endloop
  endfacet
  facet normal 0 1 -0
    outer loop
      vertex 2.06096 5 3.87992
      vertex 6.3 5 8
      vertex 6.3 5 0
    endloop
  endfacet
  facet normal 1 0 0
    outer loop
      vertex 4.00001 0 0
      vertex 4.00001 0.699997 0
      vertex 4.00001 0 8
    endloop
  endfacet
  facet normal 1 -0 0
    outer loop
      vertex 4.00001 0 8
      vertex 4.00001 0.699997 0
      vertex 4.00001 0.699997 8
    endloop
  endfacet
  facet normal 0.93969 -0.342027 0
    outer loop
      vertex 4.00001 0.699997 0
      vertex 4.16378 1.14995 0
      vertex 4.00001 0.699997 8
    endloop
  endfacet
  facet normal 0.93969 -0.342027 0
    outer loop
      vertex 4.00001 0.699997 8
      vertex 4.16378 1.14995 0
      vertex 4.16378 1.14995 8
    endloop
  endfacet
  facet normal 0.499998 -0.866026 0
    outer loop
      vertex 4.16378 1.14995 0
      vertex 4.57845 1.38936 0
      vertex 4.57845 1.38936 8
    endloop
  endfacet
  facet normal 0.499998 -0.866026 0
    outer loop
      vertex 4.16378 1.14995 0
      vertex 4.57845 1.38936 8
      vertex 4.16378 1.14995 8
    endloop
  endfacet
  facet normal 0 0 -1
    outer loop
      vertex 4.16378 1.14995 0
      vertex 6.3 5 0
      vertex 4.57845 1.38936 0
    endloop
  endfacet
  facet normal 0 0 1
    outer loop
      vertex 4.16378 1.14995 8
      vertex 4.57845 1.38936 8
      vertex 6.3 5 8
    endloop
  endfacet
  facet normal -0.173694 -0.9848 -0
    outer loop
      vertex 4.57845 1.38936 0
      vertex 4.7 1.36792 0
      vertex 4.7 1.36792 8
    endloop
  endfacet
  facet normal -0.173694 -0.9848 0
    outer loop
      vertex 4.57845 1.38936 0
      vertex 4.7 1.36792 8
      vertex 4.57845 1.38936 8
    endloop
  endfacet
  facet normal 0 0 -1
    outer loop
      vertex 4.57845 1.38936 0
      vertex 4.7 1.39999 0
      vertex 4.7 1.36792 0
    endloop
  endfacet
  facet normal 0 0 -1
    outer loop
      vertex 4.57845 1.38936 0
      vertex 6.3 5 0
      vertex 4.7 1.39999 0
    endloop
  endfacet
  facet normal 0 0 1
    outer loop
      vertex 4.57845 1.38936 8
      vertex 4.7 1.36792 8
      vertex 4.7 1.39999 8
    endloop
  endfacet
  facet normal 0 0 1
    outer loop
      vertex 4.57845 1.38936 8
      vertex 4.7 1.39999 8
      vertex 6.3 5 8
    endloop
  endfacet
  facet normal 1 0 0
    outer loop
      vertex 4.7 1.36792 0
      vertex 4.7 1.39999 0
      vertex 4.7 1.36792 8
    endloop
  endfacet
  facet normal 1 -0 0
    outer loop
      vertex 4.7 1.36792 8
      vertex 4.7 1.39999 0
      vertex 4.7 1.39999 8
    endloop
  endfacet
  facet normal 0 -1 -0
    outer loop
      vertex 4.7 1.39999 0
      vertex 6.1 1.39999 0
      vertex 6.1 1.39999 8
    endloop
  endfacet
  facet normal 0 -1 0
    outer loop
      vertex 4.7 1.39999 0
      vertex 6.1 1.39999 8
      vertex 4.7 1.39999 8
    endloop
  endfacet
  facet normal 0 0 -1
    outer loop
      vertex 4.7 1.39999 0
      vertex 6.3 5 0
      vertex 6.1 1.39999 0
    endloop
  endfacet
  facet normal 0 0 1
    outer loop
      vertex 4.7 1.39999 8
      vertex 6.1 1.39999 8
      vertex 6.3 5 8
    endloop
  endfacet
  facet normal -1 -0 0
    outer loop
      vertex 6.1 1.36792 0
      vertex 6.1 1.36792 8
      vertex 6.1 1.39999 8
    endloop
  endfacet
  facet normal 0 0 -1
    outer loop
      vertex 6.1 1.36792 0
      vertex 6.1 1.39999 0
      vertex 6.44999 1.30621 0
    endloop
  endfacet
  facet normal -1 0 0
    outer loop
      vertex 6.1 1.36792 0
      vertex 6.1 1.39999 8
      vertex 6.1 1.39999 0
    endloop
  endfacet
  facet normal -0.173631 -0.984811 -0
    outer loop
      vertex 6.1 1.36792 0
      vertex 6.44999 1.30621 0
      vertex 6.44999 1.30621 8
    endloop
  endfacet
  facet normal -0.173631 -0.984811 0
    outer loop
      vertex 6.1 1.36792 0
      vertex 6.44999 1.30621 8
      vertex 6.1 1.36792 8
    endloop
  endfacet
  facet normal 0 0 1
    outer loop
      vertex 6.1 1.36792 8
      vertex 6.44999 1.30621 8
      vertex 6.1 1.39999 8
    endloop
  endfacet
  facet normal -0 0 -1
    outer loop
      vertex 6.1 1.39999 0
      vertex 6.3 5 0
      vertex 6.78773 4.95196 0
    endloop
  endfacet
  facet normal -0 0 -1
    outer loop
      vertex 6.1 1.39999 0
      vertex 6.78773 4.95196 0
      vertex 7.25671 4.8097 0
    endloop
  endfacet
  facet normal -0 0 -1
    outer loop
      vertex 6.1 1.39999 0
      vertex 7.25671 4.8097 0
      vertex 7.68893 4.57867 0
    endloop
  endfacet
  facet normal 0 0 -1
    outer loop
      vertex 6.1 1.39999 0
      vertex 7.68893 4.57867 0
      vertex 6.44999 1.30621 0
    endloop
  endfacet
  facet normal 0 0 1
    outer loop
      vertex 6.1 1.39999 8
      vertex 6.44999 1.30621 8
      vertex 7.25671 4.8097 8
    endloop
  endfacet
  facet normal 0 0 1
    outer loop
      vertex 6.1 1.39999 8
      vertex 6.78773 4.95196 8
      vertex 6.3 5 8
    endloop
  endfacet
  facet normal 0 0 1
    outer loop
      vertex 6.1 1.39999 8
      vertex 7.25671 4.8097 8
      vertex 6.78773 4.95196 8
    endloop
  endfacet
  facet normal 0.0980185 0.995185 0
    outer loop
      vertex 6.3 5 0
      vertex 6.3 5 8
      vertex 6.78773 4.95196 0
    endloop
  endfacet
  facet normal 0.0980185 0.995185 -0
    outer loop
      vertex 6.3 5 8
      vertex 6.78773 4.95196 8
      vertex 6.78773 4.95196 0
    endloop
  endfacet
  facet normal -0.766046 -0.642785 0
    outer loop
      vertex 6.44999 1.30621 0
      vertex 6.75777 0.939407 0
      vertex 6.44999 1.30621 8
    endloop
  endfacet
  facet normal -0 0 -1
    outer loop
      vertex 6.44999 1.30621 0
      vertex 7.68893 4.57867 0
      vertex 8.06777 4.26777 0
    endloop
  endfacet
  facet normal -0 0 -1
    outer loop
      vertex 6.44999 1.30621 0
      vertex 8.06777 4.26777 0
      vertex 8.37867 3.88893 0
    endloop
  endfacet
  facet normal -0 0 -1
    outer loop
      vertex 6.44999 1.30621 0
      vertex 8.37867 3.88893 0
      vertex 8.6097 3.45671 0
    endloop
  endfacet
  facet normal -0 0 -1
    outer loop
      vertex 6.44999 1.30621 0
      vertex 8.6097 3.45671 0
      vertex 8.75196 2.98773 0
    endloop
  endfacet
  facet normal -0 0 -1
    outer loop
      vertex 6.44999 1.30621 0
      vertex 8.75196 2.98773 0
      vertex 8.8 2.5 0
    endloop
  endfacet
  facet normal 0 0 -1
    outer loop
      vertex 6.44999 1.30621 0
      vertex 8.8 2.5 0
      vertex 6.75777 0.939407 0
    endloop
  endfacet
  facet normal -0.766046 -0.642785 0
    outer loop
      vertex 6.44999 1.30621 8
      vertex 6.75777 0.939407 0
      vertex 6.75777 0.939407 8
    endloop
  endfacet
  facet normal 0 0 1
    outer loop
      vertex 6.44999 1.30621 8
      vertex 6.75777 0.939407 8
      vertex 7.25671 4.8097 8
    endloop
  endfacet
  facet normal -1 -0 0
    outer loop
      vertex 6.75777 0.699997 0
      vertex 6.75777 0.699997 8
      vertex 6.75777 0.939407 8
    endloop
  endfacet
  facet normal 0 0 -1
    outer loop
      vertex 6.75777 0.699997 0
      vertex 6.75777 0.939407 0
      vertex 6.79999 0.699997 0
    endloop
  endfacet
  facet normal -1 0 0
    outer loop
      vertex 6.75777 0.699997 0
      vertex 6.75777 0.939407 8
      vertex 6.75777 0.939407 0
    endloop
  endfacet
  facet normal 0 -1 -0
    outer loop
      vertex 6.75777 0.699997 0
      vertex 6.79999 0.699997 0
      vertex 6.79999 0.699997 8
    endloop
  endfacet
  facet normal 0 -1 0
    outer loop
      vertex 6.75777 0.699997 0
      vertex 6.79999 0.699997 8
      vertex 6.75777 0.699997 8
    endloop
  endfacet
  facet normal 0 0 1
    outer loop
      vertex 6.75777 0.699997 8
      vertex 6.79999 0.699997 8
      vertex 6.75777 0.939407 8
    endloop
  endfacet
  facet normal 0 0 -1
    outer loop
      vertex 6.75777 0.939407 0
      vertex 8.8 0 0
      vertex 6.79999 0.699997 0
    endloop
  endfacet
  facet normal 0 0 -1
    outer loop
      vertex 6.75777 0.939407 0
      vertex 8.8 2.5 0
      vertex 8.8 0 0
    endloop
  endfacet
  facet normal 0 0 1
    outer loop
      vertex 6.75777 0.939407 8
      vertex 6.79999 0.699997 8
      vertex 7.25671 4.8097 8
    endloop
  endfacet
  facet normal 0.290285 0.95694 0
    outer loop
      vertex 6.78773 4.95196 0
      vertex 6.78773 4.95196 8
      vertex 7.25671 4.8097 0
    endloop
  endfacet
  facet normal 0.290285 0.95694 -0
    outer loop
      vertex 6.78773 4.95196 8
      vertex 7.25671 4.8097 8
      vertex 7.25671 4.8097 0
    endloop
  endfacet
  facet normal -1 -0 0
    outer loop
      vertex 6.79999 0 0
      vertex 6.79999 0 8
      vertex 6.79999 0.699997 8
    endloop
  endfacet
  facet normal 0 0 -1
    outer loop
      vertex 6.79999 0 0
      vertex 6.79999 0.699997 0
      vertex 8.8 0 0
    endloop
  endfacet
  facet normal -1 0 0
    outer loop
      vertex 6.79999 0 0
      vertex 6.79999 0.699997 8
      vertex 6.79999 0.699997 0
    endloop
  endfacet
  facet normal 0 -1 -0
    outer loop
      vertex 6.79999 0 0
      vertex 8.8 0 0
      vertex 8.8 0 8
    endloop
  endfacet
  facet normal 0 -1 0
    outer loop
      vertex 6.79999 0 0
      vertex 8.8 0 8
      vertex 6.79999 0 8
    endloop
  endfacet
  facet normal 0 0 1
    outer loop
      vertex 6.79999 0 8
      vertex 8.8 0 8
      vertex 6.79999 0.699997 8
    endloop
  endfacet
  facet normal 0 0 1
    outer loop
      vertex 6.79999 0.699997 8
      vertex 7.68893 4.57867 8
      vertex 7.25671 4.8097 8
    endloop
  endfacet
  facet normal 0 0 1
    outer loop
      vertex 6.79999 0.699997 8
      vertex 8.06777 4.26777 8
      vertex 7.68893 4.57867 8
    endloop
  endfacet
  facet normal 0 0 1
    outer loop
      vertex 6.79999 0.699997 8
      vertex 8.37867 3.88893 8
      vertex 8.06777 4.26777 8
    endloop
  endfacet
  facet normal 0 0 1
    outer loop
      vertex 6.79999 0.699997 8
      vertex 8.6097 3.45671 8
      vertex 8.37867 3.88893 8
    endloop
  endfacet
  facet normal 0 0 1
    outer loop
      vertex 6.79999 0.699997 8
      vertex 8.75196 2.98773 8
      vertex 8.6097 3.45671 8
    endloop
  endfacet
  facet normal 0 0 1
    outer loop
      vertex 6.79999 0.699997 8
      vertex 8.8 0 8
      vertex 8.8 2.5 8
    endloop
  endfacet
  facet normal 0 0 1
    outer loop
      vertex 6.79999 0.699997 8
      vertex 8.8 2.5 8
      vertex 8.75196 2.98773 8
    endloop
  endfacet
  facet normal 0.471396 0.881922 0
    outer loop
      vertex 7.25671 4.8097 0
      vertex 7.25671 4.8097 8
      vertex 7.68893 4.57867 0
    endloop
  endfacet
  facet normal 0.471396 0.881922 -0
    outer loop
      vertex 7.25671 4.8097 8
      vertex 7.68893 4.57867 8
      vertex 7.68893 4.57867 0
    endloop
  endfacet
  facet normal 0.634392 0.773011 0
    outer loop
      vertex 7.68893 4.57867 0
      vertex 7.68893 4.57867 8
      vertex 8.06777 4.26777 0
    endloop
  endfacet
  facet normal 0.634392 0.773011 -0
    outer loop
      vertex 7.68893 4.57867 8
      vertex 8.06777 4.26777 8
      vertex 8.06777 4.26777 0
    endloop
  endfacet
  facet normal 0.773011 0.634392 0
    outer loop
      vertex 8.06777 4.26777 0
      vertex 8.06777 4.26777 8
      vertex 8.37867 3.88893 8
    endloop
  endfacet
  facet normal 0.773011 0.634392 0
    outer loop
      vertex 8.06777 4.26777 0
      vertex 8.37867 3.88893 8
      vertex 8.37867 3.88893 0
    endloop
  endfacet
  facet normal 0.881922 0.471396 0
    outer loop
      vertex 8.37867 3.88893 0
      vertex 8.37867 3.88893 8
      vertex 8.6097 3.45671 8
    endloop
  endfacet
  facet normal 0.881922 0.471396 0
    outer loop
      vertex 8.37867 3.88893 0
      vertex 8.6097 3.45671 8
      vertex 8.6097 3.45671 0
    endloop
  endfacet
  facet normal 0.95694 0.290285 0
    outer loop
      vertex 8.6097 3.45671 0
      vertex 8.6097 3.45671 8
      vertex 8.75196 2.98773 8
    endloop
  endfacet
  facet normal 0.95694 0.290285 0
    outer loop
      vertex 8.6097 3.45671 0
      vertex 8.75196 2.98773 8
      vertex 8.75196 2.98773 0
    endloop
  endfacet
  facet normal 0.995185 0.0980168 0
    outer loop
      vertex 8.75196 2.98773 0
      vertex 8.75196 2.98773 8
      vertex 8.8 2.5 8
    endloop
  endfacet
  facet normal 0.995185 0.0980168 0
    outer loop
      vertex 8.75196 2.98773 0
      vertex 8.8 2.5 8
      vertex 8.8 2.5 0
    endloop
  endfacet
  facet normal 1 0 0
    outer loop
      vertex 8.8 0 0
      vertex 8.8 2.5 0
      vertex 8.8 0 8
    endloop
  endfacet
  facet normal 1 -0 0
    outer loop
      vertex 8.8 0 8
      vertex 8.8 2.5 0
      vertex 8.8 2.5 8
    endloop
  endfacet
  facet normal -0.0581521 1.42809e-07 0.998308
    outer loop
      vertex 9.53674e-08 0 1.93554
      vertex 0.23966 0 1.9495
      vertex 9.53674e-08 5 1.93554
    endloop
  endfacet
  facet normal 0 -1 0
    outer loop
      vertex 9.53674e-08 0 1.93554
      vertex 4.00001 0 0
      vertex 0.23966 0 1.9495
    endloop
  endfacet
  facet normal -0.0581521 1.42809e-07 0.998308
    outer loop
      vertex 9.53674e-08 5 1.93554
      vertex 0.23966 0 1.9495
      vertex 0.23966 5 1.9495
    endloop
  endfacet
  facet normal 0 1 0
    outer loop
      vertex 9.53674e-08 5 1.93554
      vertex 0.23966 5 1.9495
      vertex 6.3 5 0
    endloop
  endfacet
endsolid OpenSCAD_Model
