solid OpenSCAD_Model
  facet normal 1 0 0
    outer loop
      vertex -13.7 -4.7 4
      vertex -13.7 4.7 4
      vertex -13.7 -4.7 5.2
    endloop
  endfacet
  facet normal 0 0 1
    outer loop
      vertex -13.7 -4.7 4
      vertex 13.7 -4.7 4
      vertex -13.7 4.7 4
    endloop
  endfacet
  facet normal 1 -0 0
    outer loop
      vertex -13.7 -4.7 5.2
      vertex -13.7 4.7 4
      vertex -13.7 4.7 5.2
    endloop
  endfacet
  facet normal -0 0 1
    outer loop
      vertex -13.7 4.7 4
      vertex 13.7 -4.7 4
      vertex 13.7 4.7 4
    endloop
  endfacet
  facet normal 0 1 0
    outer loop
      vertex -13.7 4.7 4
      vertex 13.7 4.7 4
      vertex 16.85 4.7 0
    endloop
  endfacet
  facet normal 0 0 -1
    outer loop
      vertex -14.9186 0 0
      vertex 15.1099 0.837986 0
      vertex 15.1099 -0.837986 0
    endloop
  endfacet
  facet normal 0 0 1
    outer loop
      vertex -14.9186 0 5.2
      vertex -13.7 -4.7 5.2
      vertex -13.7 4.7 5.2
    endloop
  endfacet
  facet normal -0 0 -1
    outer loop
      vertex -15.6458 -1.51 0
      vertex -14.9186 0 0
      vertex 15.1099 -0.837986 0
    endloop
  endfacet
  facet normal -0.900969 0.433884 0
    outer loop
      vertex -15.6458 -1.51 0
      vertex -14.9186 0 5.2
      vertex -14.9186 0 0
    endloop
  endfacet
  facet normal -0.900969 0.433884 0
    outer loop
      vertex -15.6458 -1.51 0
      vertex -15.6458 -1.51 5.2
      vertex -14.9186 0 5.2
    endloop
  endfacet
  facet normal -0 0 1
    outer loop
      vertex -15.6458 -1.51 5.2
      vertex -13.7 -4.7 5.2
      vertex -14.9186 0 5.2
    endloop
  endfacet
  facet normal -0.900969 -0.433884 0
    outer loop
      vertex -15.6458 1.51 0
      vertex -14.9186 0 0
      vertex -15.6458 1.51 5.2
    endloop
  endfacet
  facet normal 0 0 -1
    outer loop
      vertex -15.6458 1.51 0
      vertex 15.1099 0.837986 0
      vertex -14.9186 0 0
    endloop
  endfacet
  facet normal -0.900969 -0.433884 0
    outer loop
      vertex -15.6458 1.51 5.2
      vertex -14.9186 0 0
      vertex -14.9186 0 5.2
    endloop
  endfacet
  facet normal 0 0 1
    outer loop
      vertex -15.6458 1.51 5.2
      vertex -14.9186 0 5.2
      vertex -13.7 4.7 5.2
    endloop
  endfacet
  facet normal 0 -1 0
    outer loop
      vertex -16.85 -4.7 0
      vertex -13.7 -4.7 4
      vertex -16.85 -4.7 5.2
    endloop
  endfacet
  facet normal 0 0 -1
    outer loop
      vertex -16.85 -4.7 0
      vertex -15.6458 -1.51 0
      vertex 15.1099 -0.837986 0
    endloop
  endfacet
  facet normal 0 -1 -0
    outer loop
      vertex -16.85 -4.7 0
      vertex 13.7 -4.7 4
      vertex -13.7 -4.7 4
    endloop
  endfacet
  facet normal 0 0 -1
    outer loop
      vertex -16.85 -4.7 0
      vertex 15.1099 -0.837986 0
      vertex 16.85 -4.7 0
    endloop
  endfacet
  facet normal 0 -1 0
    outer loop
      vertex -16.85 -4.7 0
      vertex 16.85 -4.7 0
      vertex 13.7 -4.7 4
    endloop
  endfacet
  facet normal 0 -1 0
    outer loop
      vertex -16.85 -4.7 5.2
      vertex -13.7 -4.7 4
      vertex -13.7 -4.7 5.2
    endloop
  endfacet
  facet normal 0 0 1
    outer loop
      vertex -16.85 -4.7 5.2
      vertex -13.7 -4.7 5.2
      vertex -15.6458 -1.51 5.2
    endloop
  endfacet
  facet normal 0 1 0
    outer loop
      vertex -16.85 4.7 0
      vertex -13.7 4.7 4
      vertex 16.85 4.7 0
    endloop
  endfacet
  facet normal 0 1 0
    outer loop
      vertex -16.85 4.7 0
      vertex -16.85 4.7 5.2
      vertex -13.7 4.7 4
    endloop
  endfacet
  facet normal 0 0 -1
    outer loop
      vertex -16.85 4.7 0
      vertex 15.1099 0.837986 0
      vertex -15.6458 1.51 0
    endloop
  endfacet
  facet normal 0 0 -1
    outer loop
      vertex -16.85 4.7 0
      vertex 16.85 4.7 0
      vertex 15.1099 0.837986 0
    endloop
  endfacet
  facet normal 0 1 -0
    outer loop
      vertex -16.85 4.7 5.2
      vertex -13.7 4.7 5.2
      vertex -13.7 4.7 4
    endloop
  endfacet
  facet normal -0 0 1
    outer loop
      vertex -16.85 4.7 5.2
      vertex -15.6458 1.51 5.2
      vertex -13.7 4.7 5.2
    endloop
  endfacet
  facet normal 0 0 -1
    outer loop
      vertex -17.2798 -1.88294 0
      vertex -15.6458 -1.51 0
      vertex -16.85 -4.7 0
    endloop
  endfacet
  facet normal -0.222521 0.974928 0
    outer loop
      vertex -17.2798 -1.88294 0
      vertex -17.2798 -1.88294 5.2
      vertex -15.6458 -1.51 0
    endloop
  endfacet
  facet normal -0.222521 0.974928 0
    outer loop
      vertex -17.2798 -1.88294 5.2
      vertex -15.6458 -1.51 5.2
      vertex -15.6458 -1.51 0
    endloop
  endfacet
  facet normal -0 0 1
    outer loop
      vertex -17.2798 -1.88294 5.2
      vertex -16.85 -4.7 5.2
      vertex -15.6458 -1.51 5.2
    endloop
  endfacet
  facet normal -0.222521 -0.974928 -0
    outer loop
      vertex -17.2798 1.88294 0
      vertex -15.6458 1.51 0
      vertex -15.6458 1.51 5.2
    endloop
  endfacet
  facet normal -0.222521 -0.974928 0
    outer loop
      vertex -17.2798 1.88294 0
      vertex -15.6458 1.51 5.2
      vertex -17.2798 1.88294 5.2
    endloop
  endfacet
  facet normal 0 0 -1
    outer loop
      vertex -17.2798 1.88294 0
      vertex -16.85 4.7 0
      vertex -15.6458 1.51 0
    endloop
  endfacet
  facet normal 0 0 1
    outer loop
      vertex -17.2798 1.88294 5.2
      vertex -15.6458 1.51 5.2
      vertex -16.85 4.7 5.2
    endloop
  endfacet
  facet normal -0.0523364 -0.99863 -0
    outer loop
      vertex -17.3413 -4.67425 0
      vertex -16.85 -4.7 0
      vertex -16.85 -4.7 5.2
    endloop
  endfacet
  facet normal -0.0523364 -0.99863 0
    outer loop
      vertex -17.3413 -4.67425 0
      vertex -16.85 -4.7 5.2
      vertex -17.3413 -4.67425 5.2
    endloop
  endfacet
  facet normal 0 0 -1
    outer loop
      vertex -17.3413 -4.67425 0
      vertex -17.2798 -1.88294 0
      vertex -16.85 -4.7 0
    endloop
  endfacet
  facet normal 0 0 1
    outer loop
      vertex -17.3413 -4.67425 5.2
      vertex -16.85 -4.7 5.2
      vertex -17.2798 -1.88294 5.2
    endloop
  endfacet
  facet normal 0 0 -1
    outer loop
      vertex -17.3413 4.67425 0
      vertex -16.85 4.7 0
      vertex -17.2798 1.88294 0
    endloop
  endfacet
  facet normal -0.0523364 0.99863 0
    outer loop
      vertex -17.3413 4.67425 0
      vertex -17.3413 4.67425 5.2
      vertex -16.85 4.7 0
    endloop
  endfacet
  facet normal -0.0523364 0.99863 0
    outer loop
      vertex -17.3413 4.67425 5.2
      vertex -16.85 4.7 5.2
      vertex -16.85 4.7 0
    endloop
  endfacet
  facet normal -0 0 1
    outer loop
      vertex -17.3413 4.67425 5.2
      vertex -17.2798 1.88294 5.2
      vertex -16.85 4.7 5.2
    endloop
  endfacet
  facet normal 0 0 -1
    outer loop
      vertex -17.8272 -4.59729 0
      vertex -17.2798 -1.88294 0
      vertex -17.3413 -4.67425 0
    endloop
  endfacet
  facet normal -0.156435 -0.987688 -0
    outer loop
      vertex -17.8272 -4.59729 0
      vertex -17.3413 -4.67425 0
      vertex -17.3413 -4.67425 5.2
    endloop
  endfacet
  facet normal -0.156435 -0.987688 0
    outer loop
      vertex -17.8272 -4.59729 0
      vertex -17.3413 -4.67425 5.2
      vertex -17.8272 -4.59729 5.2
    endloop
  endfacet
  facet normal 0 0 1
    outer loop
      vertex -17.8272 -4.59729 5.2
      vertex -17.3413 -4.67425 5.2
      vertex -17.2798 -1.88294 5.2
    endloop
  endfacet
  facet normal 0 0 -1
    outer loop
      vertex -17.8272 4.59729 0
      vertex -17.3413 4.67425 0
      vertex -17.2798 1.88294 0
    endloop
  endfacet
  facet normal -0.156435 0.987688 0
    outer loop
      vertex -17.8272 4.59729 0
      vertex -17.8272 4.59729 5.2
      vertex -17.3413 4.67425 0
    endloop
  endfacet
  facet normal -0 0 1
    outer loop
      vertex -17.8272 4.59729 5.2
      vertex -17.2798 1.88294 5.2
      vertex -17.3413 4.67425 5.2
    endloop
  endfacet
  facet normal -0.156435 0.987688 0
    outer loop
      vertex -17.8272 4.59729 5.2
      vertex -17.3413 4.67425 5.2
      vertex -17.3413 4.67425 0
    endloop
  endfacet
  facet normal 0 0 -1
    outer loop
      vertex -18.3024 -4.46996 0
      vertex -17.2798 -1.88294 0
      vertex -17.8272 -4.59729 0
    endloop
  endfacet
  facet normal -0.258819 -0.965926 -0
    outer loop
      vertex -18.3024 -4.46996 0
      vertex -17.8272 -4.59729 0
      vertex -17.8272 -4.59729 5.2
    endloop
  endfacet
  facet normal -0.258819 -0.965926 0
    outer loop
      vertex -18.3024 -4.46996 0
      vertex -17.8272 -4.59729 5.2
      vertex -18.3024 -4.46996 5.2
    endloop
  endfacet
  facet normal 0 0 1
    outer loop
      vertex -18.3024 -4.46996 5.2
      vertex -17.8272 -4.59729 5.2
      vertex -17.2798 -1.88294 5.2
    endloop
  endfacet
  facet normal 0 0 -1
    outer loop
      vertex -18.3024 4.46996 0
      vertex -17.8272 4.59729 0
      vertex -17.2798 1.88294 0
    endloop
  endfacet
  facet normal -0.258819 0.965926 0
    outer loop
      vertex -18.3024 4.46996 0
      vertex -18.3024 4.46996 5.2
      vertex -17.8272 4.59729 0
    endloop
  endfacet
  facet normal -0 0 1
    outer loop
      vertex -18.3024 4.46996 5.2
      vertex -17.2798 1.88294 5.2
      vertex -17.8272 4.59729 5.2
    endloop
  endfacet
  facet normal -0.258819 0.965926 0
    outer loop
      vertex -18.3024 4.46996 5.2
      vertex -17.8272 4.59729 5.2
      vertex -17.8272 4.59729 0
    endloop
  endfacet
  facet normal 0.62349 0.781831 0
    outer loop
      vertex -18.5901 -0.837986 0
      vertex -18.5901 -0.837986 5.2
      vertex -17.2798 -1.88294 0
    endloop
  endfacet
  facet normal 1 0 0
    outer loop
      vertex -18.5901 -0.837986 0
      vertex -18.5901 0.837986 0
      vertex -18.5901 -0.837986 5.2
    endloop
  endfacet
  facet normal 0.62349 0.781831 -0
    outer loop
      vertex -18.5901 -0.837986 5.2
      vertex -17.2798 -1.88294 5.2
      vertex -17.2798 -1.88294 0
    endloop
  endfacet
  facet normal 1 -0 0
    outer loop
      vertex -18.5901 -0.837986 5.2
      vertex -18.5901 0.837986 0
      vertex -18.5901 0.837986 5.2
    endloop
  endfacet
  facet normal 0.62349 -0.781831 0
    outer loop
      vertex -18.5901 0.837986 0
      vertex -17.2798 1.88294 0
      vertex -17.2798 1.88294 5.2
    endloop
  endfacet
  facet normal 0.62349 -0.781831 0
    outer loop
      vertex -18.5901 0.837986 0
      vertex -17.2798 1.88294 5.2
      vertex -18.5901 0.837986 5.2
    endloop
  endfacet
  facet normal 0 0 -1
    outer loop
      vertex -18.7617 -4.29366 0
      vertex -17.2798 -1.88294 0
      vertex -18.3024 -4.46996 0
    endloop
  endfacet
  facet normal -0.358368 -0.93358 -0
    outer loop
      vertex -18.7617 -4.29366 0
      vertex -18.3024 -4.46996 0
      vertex -18.3024 -4.46996 5.2
    endloop
  endfacet
  facet normal -0.358368 -0.93358 0
    outer loop
      vertex -18.7617 -4.29366 0
      vertex -18.3024 -4.46996 5.2
      vertex -18.7617 -4.29366 5.2
    endloop
  endfacet
  facet normal 0 0 1
    outer loop
      vertex -18.7617 -4.29366 5.2
      vertex -18.3024 -4.46996 5.2
      vertex -17.2798 -1.88294 5.2
    endloop
  endfacet
  facet normal 0 0 -1
    outer loop
      vertex -18.7617 4.29366 0
      vertex -18.3024 4.46996 0
      vertex -17.2798 1.88294 0
    endloop
  endfacet
  facet normal -0.358368 0.93358 0
    outer loop
      vertex -18.7617 4.29366 0
      vertex -18.7617 4.29366 5.2
      vertex -18.3024 4.46996 0
    endloop
  endfacet
  facet normal -0 0 1
    outer loop
      vertex -18.7617 4.29366 5.2
      vertex -17.2798 1.88294 5.2
      vertex -18.3024 4.46996 5.2
    endloop
  endfacet
  facet normal -0.358368 0.93358 0
    outer loop
      vertex -18.7617 4.29366 5.2
      vertex -18.3024 4.46996 5.2
      vertex -18.3024 4.46996 0
    endloop
  endfacet
  facet normal 0 0 -1
    outer loop
      vertex -19.2 -4.07032 0
      vertex -17.2798 -1.88294 0
      vertex -18.7617 -4.29366 0
    endloop
  endfacet
  facet normal -0.453989 -0.891007 -0
    outer loop
      vertex -19.2 -4.07032 0
      vertex -18.7617 -4.29366 0
      vertex -18.7617 -4.29366 5.2
    endloop
  endfacet
  facet normal -0.453989 -0.891007 0
    outer loop
      vertex -19.2 -4.07032 0
      vertex -18.7617 -4.29366 5.2
      vertex -19.2 -4.07032 5.2
    endloop
  endfacet
  facet normal 0 0 1
    outer loop
      vertex -19.2 -4.07032 5.2
      vertex -18.7617 -4.29366 5.2
      vertex -17.2798 -1.88294 5.2
    endloop
  endfacet
  facet normal 0 0 -1
    outer loop
      vertex -19.2 4.07032 0
      vertex -18.7617 4.29366 0
      vertex -17.2798 1.88294 0
    endloop
  endfacet
  facet normal -0.453989 0.891007 0
    outer loop
      vertex -19.2 4.07032 0
      vertex -19.2 4.07032 5.2
      vertex -18.7617 4.29366 0
    endloop
  endfacet
  facet normal -0 0 1
    outer loop
      vertex -19.2 4.07032 5.2
      vertex -17.2798 1.88294 5.2
      vertex -18.7617 4.29366 5.2
    endloop
  endfacet
  facet normal -0.453989 0.891007 0
    outer loop
      vertex -19.2 4.07032 5.2
      vertex -18.7617 4.29366 5.2
      vertex -18.7617 4.29366 0
    endloop
  endfacet
  facet normal 0 0 -1
    outer loop
      vertex -19.6126 -3.80238 0
      vertex -17.2798 -1.88294 0
      vertex -19.2 -4.07032 0
    endloop
  endfacet
  facet normal -0 0 -1
    outer loop
      vertex -19.6126 -3.80238 0
      vertex -18.5901 -0.837986 0
      vertex -17.2798 -1.88294 0
    endloop
  endfacet
  facet normal -0.54464 -0.83867 -0
    outer loop
      vertex -19.6126 -3.80238 0
      vertex -19.2 -4.07032 0
      vertex -19.2 -4.07032 5.2
    endloop
  endfacet
  facet normal -0.54464 -0.83867 0
    outer loop
      vertex -19.6126 -3.80238 0
      vertex -19.2 -4.07032 5.2
      vertex -19.6126 -3.80238 5.2
    endloop
  endfacet
  facet normal 0 0 1
    outer loop
      vertex -19.6126 -3.80238 5.2
      vertex -17.2798 -1.88294 5.2
      vertex -18.5901 -0.837986 5.2
    endloop
  endfacet
  facet normal 0 0 1
    outer loop
      vertex -19.6126 -3.80238 5.2
      vertex -19.2 -4.07032 5.2
      vertex -17.2798 -1.88294 5.2
    endloop
  endfacet
  facet normal 0 0 -1
    outer loop
      vertex -19.6126 3.80238 0
      vertex -17.2798 1.88294 0
      vertex -18.5901 0.837986 0
    endloop
  endfacet
  facet normal 0 0 -1
    outer loop
      vertex -19.6126 3.80238 0
      vertex -19.2 4.07032 0
      vertex -17.2798 1.88294 0
    endloop
  endfacet
  facet normal -0.54464 0.83867 0
    outer loop
      vertex -19.6126 3.80238 0
      vertex -19.6126 3.80238 5.2
      vertex -19.2 4.07032 0
    endloop
  endfacet
  facet normal -0 0 1
    outer loop
      vertex -19.6126 3.80238 5.2
      vertex -17.2798 1.88294 5.2
      vertex -19.2 4.07032 5.2
    endloop
  endfacet
  facet normal 0 0 1
    outer loop
      vertex -19.6126 3.80238 5.2
      vertex -18.5901 0.837986 5.2
      vertex -17.2798 1.88294 5.2
    endloop
  endfacet
  facet normal -0.54464 0.83867 0
    outer loop
      vertex -19.6126 3.80238 5.2
      vertex -19.2 4.07032 5.2
      vertex -19.2 4.07032 0
    endloop
  endfacet
  facet normal 0 0 -1
    outer loop
      vertex -19.9949 -3.49278 0
      vertex -18.5901 -0.837986 0
      vertex -19.6126 -3.80238 0
    endloop
  endfacet
  facet normal -0.629322 -0.777145 -0
    outer loop
      vertex -19.9949 -3.49278 0
      vertex -19.6126 -3.80238 0
      vertex -19.6126 -3.80238 5.2
    endloop
  endfacet
  facet normal -0.629322 -0.777145 0
    outer loop
      vertex -19.9949 -3.49278 0
      vertex -19.6126 -3.80238 5.2
      vertex -19.9949 -3.49278 5.2
    endloop
  endfacet
  facet normal 0 0 1
    outer loop
      vertex -19.9949 -3.49278 5.2
      vertex -19.6126 -3.80238 5.2
      vertex -18.5901 -0.837986 5.2
    endloop
  endfacet
  facet normal 0 0 -1
    outer loop
      vertex -19.9949 3.49278 0
      vertex -19.6126 3.80238 0
      vertex -18.5901 0.837986 0
    endloop
  endfacet
  facet normal -0.629322 0.777145 0
    outer loop
      vertex -19.9949 3.49278 0
      vertex -19.9949 3.49278 5.2
      vertex -19.6126 3.80238 0
    endloop
  endfacet
  facet normal -0 0 1
    outer loop
      vertex -19.9949 3.49278 5.2
      vertex -18.5901 0.837986 5.2
      vertex -19.6126 3.80238 5.2
    endloop
  endfacet
  facet normal -0.629322 0.777145 0
    outer loop
      vertex -19.9949 3.49278 5.2
      vertex -19.6126 3.80238 5.2
      vertex -19.6126 3.80238 0
    endloop
  endfacet
  facet normal 0 0 -1
    outer loop
      vertex -20.3428 -3.14491 0
      vertex -18.5901 -0.837986 0
      vertex -19.9949 -3.49278 0
    endloop
  endfacet
  facet normal -0.707105 -0.707109 -0
    outer loop
      vertex -20.3428 -3.14491 0
      vertex -19.9949 -3.49278 0
      vertex -19.9949 -3.49278 5.2
    endloop
  endfacet
  facet normal -0.707105 -0.707109 0
    outer loop
      vertex -20.3428 -3.14491 0
      vertex -19.9949 -3.49278 5.2
      vertex -20.3428 -3.14491 5.2
    endloop
  endfacet
  facet normal 0 0 1
    outer loop
      vertex -20.3428 -3.14491 5.2
      vertex -19.9949 -3.49278 5.2
      vertex -18.5901 -0.837986 5.2
    endloop
  endfacet
  facet normal 0 0 -1
    outer loop
      vertex -20.3428 3.14491 0
      vertex -19.9949 3.49278 0
      vertex -18.5901 0.837986 0
    endloop
  endfacet
  facet normal -0.707105 0.707109 0
    outer loop
      vertex -20.3428 3.14491 0
      vertex -20.3428 3.14491 5.2
      vertex -19.9949 3.49278 0
    endloop
  endfacet
  facet normal -0 0 1
    outer loop
      vertex -20.3428 3.14491 5.2
      vertex -18.5901 0.837986 5.2
      vertex -19.9949 3.49278 5.2
    endloop
  endfacet
  facet normal -0.707105 0.707109 0
    outer loop
      vertex -20.3428 3.14491 5.2
      vertex -19.9949 3.49278 5.2
      vertex -19.9949 3.49278 0
    endloop
  endfacet
  facet normal 0 0 -1
    outer loop
      vertex -20.6524 -2.76259 0
      vertex -18.5901 -0.837986 0
      vertex -20.3428 -3.14491 0
    endloop
  endfacet
  facet normal -0.777148 -0.629318 0
    outer loop
      vertex -20.6524 -2.76259 0
      vertex -20.3428 -3.14491 0
      vertex -20.6524 -2.76259 5.2
    endloop
  endfacet
  facet normal -0.777148 -0.629318 0
    outer loop
      vertex -20.6524 -2.76259 5.2
      vertex -20.3428 -3.14491 0
      vertex -20.3428 -3.14491 5.2
    endloop
  endfacet
  facet normal 0 0 1
    outer loop
      vertex -20.6524 -2.76259 5.2
      vertex -20.3428 -3.14491 5.2
      vertex -18.5901 -0.837986 5.2
    endloop
  endfacet
  facet normal 0 0 -1
    outer loop
      vertex -20.6524 2.76259 0
      vertex -20.3428 3.14491 0
      vertex -18.5901 0.837986 0
    endloop
  endfacet
  facet normal -0.777148 0.629318 0
    outer loop
      vertex -20.6524 2.76259 0
      vertex -20.3428 3.14491 5.2
      vertex -20.3428 3.14491 0
    endloop
  endfacet
  facet normal -0.777148 0.629318 0
    outer loop
      vertex -20.6524 2.76259 0
      vertex -20.6524 2.76259 5.2
      vertex -20.3428 3.14491 5.2
    endloop
  endfacet
  facet normal -0 0 1
    outer loop
      vertex -20.6524 2.76259 5.2
      vertex -18.5901 0.837986 5.2
      vertex -20.3428 3.14491 5.2
    endloop
  endfacet
  facet normal 0 0 -1
    outer loop
      vertex -20.9203 -2.35 0
      vertex -18.5901 -0.837986 0
      vertex -20.6524 -2.76259 0
    endloop
  endfacet
  facet normal -0.83867 -0.54464 0
    outer loop
      vertex -20.9203 -2.35 0
      vertex -20.6524 -2.76259 0
      vertex -20.9203 -2.35 5.2
    endloop
  endfacet
  facet normal -0.83867 -0.54464 0
    outer loop
      vertex -20.9203 -2.35 5.2
      vertex -20.6524 -2.76259 0
      vertex -20.6524 -2.76259 5.2
    endloop
  endfacet
  facet normal 0 0 1
    outer loop
      vertex -20.9203 -2.35 5.2
      vertex -20.6524 -2.76259 5.2
      vertex -18.5901 -0.837986 5.2
    endloop
  endfacet
  facet normal 0 0 -1
    outer loop
      vertex -20.9203 2.35 0
      vertex -20.6524 2.76259 0
      vertex -18.5901 0.837986 0
    endloop
  endfacet
  facet normal -0.83867 0.54464 0
    outer loop
      vertex -20.9203 2.35 0
      vertex -20.6524 2.76259 5.2
      vertex -20.6524 2.76259 0
    endloop
  endfacet
  facet normal -0.83867 0.54464 0
    outer loop
      vertex -20.9203 2.35 0
      vertex -20.9203 2.35 5.2
      vertex -20.6524 2.76259 5.2
    endloop
  endfacet
  facet normal -0 0 1
    outer loop
      vertex -20.9203 2.35 5.2
      vertex -18.5901 0.837986 5.2
      vertex -20.6524 2.76259 5.2
    endloop
  endfacet
  facet normal 0 0 -1
    outer loop
      vertex -21.1437 -1.91166 0
      vertex -18.5901 -0.837986 0
      vertex -20.9203 -2.35 0
    endloop
  endfacet
  facet normal -0.891006 -0.453992 0
    outer loop
      vertex -21.1437 -1.91166 0
      vertex -20.9203 -2.35 0
      vertex -21.1437 -1.91166 5.2
    endloop
  endfacet
  facet normal -0.891006 -0.453992 0
    outer loop
      vertex -21.1437 -1.91166 5.2
      vertex -20.9203 -2.35 0
      vertex -20.9203 -2.35 5.2
    endloop
  endfacet
  facet normal 0 0 1
    outer loop
      vertex -21.1437 -1.91166 5.2
      vertex -20.9203 -2.35 5.2
      vertex -18.5901 -0.837986 5.2
    endloop
  endfacet
  facet normal 0 0 -1
    outer loop
      vertex -21.1437 1.91166 0
      vertex -20.9203 2.35 0
      vertex -18.5901 0.837986 0
    endloop
  endfacet
  facet normal -0.891006 0.453992 0
    outer loop
      vertex -21.1437 1.91166 0
      vertex -20.9203 2.35 5.2
      vertex -20.9203 2.35 0
    endloop
  endfacet
  facet normal -0.891006 0.453992 0
    outer loop
      vertex -21.1437 1.91166 0
      vertex -21.1437 1.91166 5.2
      vertex -20.9203 2.35 5.2
    endloop
  endfacet
  facet normal -0 0 1
    outer loop
      vertex -21.1437 1.91166 5.2
      vertex -18.5901 0.837986 5.2
      vertex -20.9203 2.35 5.2
    endloop
  endfacet
  facet normal 0 0 -1
    outer loop
      vertex -21.32 -1.45238 0
      vertex -18.5901 -0.837986 0
      vertex -21.1437 -1.91166 0
    endloop
  endfacet
  facet normal -0.933581 -0.358368 0
    outer loop
      vertex -21.32 -1.45238 0
      vertex -21.1437 -1.91166 0
      vertex -21.32 -1.45238 5.2
    endloop
  endfacet
  facet normal -0.933581 -0.358368 0
    outer loop
      vertex -21.32 -1.45238 5.2
      vertex -21.1437 -1.91166 0
      vertex -21.1437 -1.91166 5.2
    endloop
  endfacet
  facet normal 0 0 1
    outer loop
      vertex -21.32 -1.45238 5.2
      vertex -21.1437 -1.91166 5.2
      vertex -18.5901 -0.837986 5.2
    endloop
  endfacet
  facet normal 0 0 -1
    outer loop
      vertex -21.32 1.45238 0
      vertex -21.1437 1.91166 0
      vertex -18.5901 0.837986 0
    endloop
  endfacet
  facet normal -0.933581 0.358368 0
    outer loop
      vertex -21.32 1.45238 0
      vertex -21.1437 1.91166 5.2
      vertex -21.1437 1.91166 0
    endloop
  endfacet
  facet normal -0.933581 0.358368 0
    outer loop
      vertex -21.32 1.45238 0
      vertex -21.32 1.45238 5.2
      vertex -21.1437 1.91166 5.2
    endloop
  endfacet
  facet normal -0 0 1
    outer loop
      vertex -21.32 1.45238 5.2
      vertex -18.5901 0.837986 5.2
      vertex -21.1437 1.91166 5.2
    endloop
  endfacet
  facet normal 0 0 -1
    outer loop
      vertex -21.4473 -0.977184 0
      vertex -18.5901 -0.837986 0
      vertex -21.32 -1.45238 0
    endloop
  endfacet
  facet normal -0.965926 -0.258817 0
    outer loop
      vertex -21.4473 -0.977184 0
      vertex -21.32 -1.45238 0
      vertex -21.4473 -0.977184 5.2
    endloop
  endfacet
  facet normal -0.965926 -0.258817 0
    outer loop
      vertex -21.4473 -0.977184 5.2
      vertex -21.32 -1.45238 0
      vertex -21.32 -1.45238 5.2
    endloop
  endfacet
  facet normal 0 0 1
    outer loop
      vertex -21.4473 -0.977184 5.2
      vertex -21.32 -1.45238 5.2
      vertex -18.5901 -0.837986 5.2
    endloop
  endfacet
  facet normal 0 0 -1
    outer loop
      vertex -21.4473 0.977184 0
      vertex -21.32 1.45238 0
      vertex -18.5901 0.837986 0
    endloop
  endfacet
  facet normal -0.965926 0.258817 0
    outer loop
      vertex -21.4473 0.977184 0
      vertex -21.32 1.45238 5.2
      vertex -21.32 1.45238 0
    endloop
  endfacet
  facet normal -0.965926 0.258817 0
    outer loop
      vertex -21.4473 0.977184 0
      vertex -21.4473 0.977184 5.2
      vertex -21.32 1.45238 5.2
    endloop
  endfacet
  facet normal -0 0 1
    outer loop
      vertex -21.4473 0.977184 5.2
      vertex -18.5901 0.837986 5.2
      vertex -21.32 1.45238 5.2
    endloop
  endfacet
  facet normal 0 0 -1
    outer loop
      vertex -21.5243 -0.491283 0
      vertex -18.5901 -0.837986 0
      vertex -21.4473 -0.977184 0
    endloop
  endfacet
  facet normal -0.987688 -0.156439 0
    outer loop
      vertex -21.5243 -0.491283 0
      vertex -21.4473 -0.977184 0
      vertex -21.5243 -0.491283 5.2
    endloop
  endfacet
  facet normal -0.987688 -0.156439 0
    outer loop
      vertex -21.5243 -0.491283 5.2
      vertex -21.4473 -0.977184 0
      vertex -21.4473 -0.977184 5.2
    endloop
  endfacet
  facet normal 0 0 1
    outer loop
      vertex -21.5243 -0.491283 5.2
      vertex -21.4473 -0.977184 5.2
      vertex -18.5901 -0.837986 5.2
    endloop
  endfacet
  facet normal -0 0 -1
    outer loop
      vertex -21.5243 0.491283 0
      vertex -21.4473 0.977184 0
      vertex -18.5901 0.837986 0
    endloop
  endfacet
  facet normal -0.987688 0.156439 0
    outer loop
      vertex -21.5243 0.491283 0
      vertex -21.4473 0.977184 5.2
      vertex -21.4473 0.977184 0
    endloop
  endfacet
  facet normal -0.987688 0.156439 0
    outer loop
      vertex -21.5243 0.491283 0
      vertex -21.5243 0.491283 5.2
      vertex -21.4473 0.977184 5.2
    endloop
  endfacet
  facet normal 0 0 1
    outer loop
      vertex -21.5243 0.491283 5.2
      vertex -18.5901 0.837986 5.2
      vertex -21.4473 0.977184 5.2
    endloop
  endfacet
  facet normal 0 0 -1
    outer loop
      vertex -21.55 0 0
      vertex -18.5901 -0.837986 0
      vertex -21.5243 -0.491283 0
    endloop
  endfacet
  facet normal 0 0 -1
    outer loop
      vertex -21.55 0 0
      vertex -18.5901 0.837986 0
      vertex -18.5901 -0.837986 0
    endloop
  endfacet
  facet normal -0.99863 -0.0523325 0
    outer loop
      vertex -21.55 0 0
      vertex -21.5243 -0.491283 0
      vertex -21.55 0 5.2
    endloop
  endfacet
  facet normal 0 0 -1
    outer loop
      vertex -21.55 0 0
      vertex -21.5243 0.491283 0
      vertex -18.5901 0.837986 0
    endloop
  endfacet
  facet normal -0.99863 0.0523325 0
    outer loop
      vertex -21.55 0 0
      vertex -21.5243 0.491283 5.2
      vertex -21.5243 0.491283 0
    endloop
  endfacet
  facet normal -0.99863 0.0523325 0
    outer loop
      vertex -21.55 0 0
      vertex -21.55 0 5.2
      vertex -21.5243 0.491283 5.2
    endloop
  endfacet
  facet normal 0 0 1
    outer loop
      vertex -21.55 0 5.2
      vertex -18.5901 -0.837986 5.2
      vertex -18.5901 0.837986 5.2
    endloop
  endfacet
  facet normal 0 0 1
    outer loop
      vertex -21.55 0 5.2
      vertex -18.5901 0.837986 5.2
      vertex -21.5243 0.491283 5.2
    endloop
  endfacet
  facet normal -0.99863 -0.0523325 0
    outer loop
      vertex -21.55 0 5.2
      vertex -21.5243 -0.491283 0
      vertex -21.5243 -0.491283 5.2
    endloop
  endfacet
  facet normal 0 0 1
    outer loop
      vertex -21.55 0 5.2
      vertex -21.5243 -0.491283 5.2
      vertex -18.5901 -0.837986 5.2
    endloop
  endfacet
  facet normal -1 -0 0
    outer loop
      vertex 13.7 -4.7 4
      vertex 13.7 -4.7 5.2
      vertex 13.7 4.7 5.2
    endloop
  endfacet
  facet normal -1 0 0
    outer loop
      vertex 13.7 -4.7 4
      vertex 13.7 4.7 5.2
      vertex 13.7 4.7 4
    endloop
  endfacet
  facet normal 0 -1 0
    outer loop
      vertex 13.7 -4.7 4
      vertex 16.85 -4.7 0
      vertex 16.85 -4.7 5.2
    endloop
  endfacet
  facet normal 0 -1 0
    outer loop
      vertex 13.7 -4.7 4
      vertex 16.85 -4.7 5.2
      vertex 13.7 -4.7 5.2
    endloop
  endfacet
  facet normal 0 0 1
    outer loop
      vertex 13.7 -4.7 5.2
      vertex 15.1099 -0.837986 5.2
      vertex 13.7 4.7 5.2
    endloop
  endfacet
  facet normal 0 0 1
    outer loop
      vertex 13.7 -4.7 5.2
      vertex 16.4202 -1.88294 5.2
      vertex 15.1099 -0.837986 5.2
    endloop
  endfacet
  facet normal 0 0 1
    outer loop
      vertex 13.7 -4.7 5.2
      vertex 16.85 -4.7 5.2
      vertex 16.4202 -1.88294 5.2
    endloop
  endfacet
  facet normal 0 1 0
    outer loop
      vertex 13.7 4.7 4
      vertex 13.7 4.7 5.2
      vertex 16.85 4.7 5.2
    endloop
  endfacet
  facet normal 0 1 -0
    outer loop
      vertex 13.7 4.7 4
      vertex 16.85 4.7 5.2
      vertex 16.85 4.7 0
    endloop
  endfacet
  facet normal 0 0 1
    outer loop
      vertex 13.7 4.7 5.2
      vertex 15.1099 -0.837986 5.2
      vertex 15.1099 0.837986 5.2
    endloop
  endfacet
  facet normal 0 0 1
    outer loop
      vertex 13.7 4.7 5.2
      vertex 15.1099 0.837986 5.2
      vertex 16.4202 1.88294 5.2
    endloop
  endfacet
  facet normal -0 0 1
    outer loop
      vertex 13.7 4.7 5.2
      vertex 16.4202 1.88294 5.2
      vertex 16.85 4.7 5.2
    endloop
  endfacet
  facet normal 0.62349 0.781831 0
    outer loop
      vertex 15.1099 -0.837986 0
      vertex 15.1099 -0.837986 5.2
      vertex 16.4202 -1.88294 0
    endloop
  endfacet
  facet normal 1 0 0
    outer loop
      vertex 15.1099 -0.837986 0
      vertex 15.1099 0.837986 0
      vertex 15.1099 -0.837986 5.2
    endloop
  endfacet
  facet normal 0 0 -1
    outer loop
      vertex 15.1099 -0.837986 0
      vertex 16.4202 -1.88294 0
      vertex 16.85 -4.7 0
    endloop
  endfacet
  facet normal 1 -0 0
    outer loop
      vertex 15.1099 -0.837986 5.2
      vertex 15.1099 0.837986 0
      vertex 15.1099 0.837986 5.2
    endloop
  endfacet
  facet normal 0.62349 0.781831 -0
    outer loop
      vertex 15.1099 -0.837986 5.2
      vertex 16.4202 -1.88294 5.2
      vertex 16.4202 -1.88294 0
    endloop
  endfacet
  facet normal 0.62349 -0.781831 0
    outer loop
      vertex 15.1099 0.837986 0
      vertex 16.4202 1.88294 0
      vertex 16.4202 1.88294 5.2
    endloop
  endfacet
  facet normal 0.62349 -0.781831 0
    outer loop
      vertex 15.1099 0.837986 0
      vertex 16.4202 1.88294 5.2
      vertex 15.1099 0.837986 5.2
    endloop
  endfacet
  facet normal 0 0 -1
    outer loop
      vertex 15.1099 0.837986 0
      vertex 16.85 4.7 0
      vertex 16.4202 1.88294 0
    endloop
  endfacet
  facet normal -0.222521 0.974928 0
    outer loop
      vertex 16.4202 -1.88294 0
      vertex 16.4202 -1.88294 5.2
      vertex 18.0542 -1.51 0
    endloop
  endfacet
  facet normal 0 0 -1
    outer loop
      vertex 16.4202 -1.88294 0
      vertex 17.3413 -4.67425 0
      vertex 16.85 -4.7 0
    endloop
  endfacet
  facet normal 0 0 -1
    outer loop
      vertex 16.4202 -1.88294 0
      vertex 17.8272 -4.59729 0
      vertex 17.3413 -4.67425 0
    endloop
  endfacet
  facet normal 0 0 -1
    outer loop
      vertex 16.4202 -1.88294 0
      vertex 18.0542 -1.51 0
      vertex 17.8272 -4.59729 0
    endloop
  endfacet
  facet normal 0 0 1
    outer loop
      vertex 16.4202 -1.88294 5.2
      vertex 16.85 -4.7 5.2
      vertex 17.3413 -4.67425 5.2
    endloop
  endfacet
  facet normal 0 0 1
    outer loop
      vertex 16.4202 -1.88294 5.2
      vertex 17.3413 -4.67425 5.2
      vertex 17.8272 -4.59729 5.2
    endloop
  endfacet
  facet normal -0 0 1
    outer loop
      vertex 16.4202 -1.88294 5.2
      vertex 17.8272 -4.59729 5.2
      vertex 18.0542 -1.51 5.2
    endloop
  endfacet
  facet normal -0.222521 0.974928 0
    outer loop
      vertex 16.4202 -1.88294 5.2
      vertex 18.0542 -1.51 5.2
      vertex 18.0542 -1.51 0
    endloop
  endfacet
  facet normal -0 0 -1
    outer loop
      vertex 16.4202 1.88294 0
      vertex 16.85 4.7 0
      vertex 17.3413 4.67425 0
    endloop
  endfacet
  facet normal -0 0 -1
    outer loop
      vertex 16.4202 1.88294 0
      vertex 17.3413 4.67425 0
      vertex 17.8272 4.59729 0
    endloop
  endfacet
  facet normal 0 0 -1
    outer loop
      vertex 16.4202 1.88294 0
      vertex 17.8272 4.59729 0
      vertex 18.0542 1.51 0
    endloop
  endfacet
  facet normal -0.222521 -0.974928 -0
    outer loop
      vertex 16.4202 1.88294 0
      vertex 18.0542 1.51 0
      vertex 18.0542 1.51 5.2
    endloop
  endfacet
  facet normal -0.222521 -0.974928 0
    outer loop
      vertex 16.4202 1.88294 0
      vertex 18.0542 1.51 5.2
      vertex 16.4202 1.88294 5.2
    endloop
  endfacet
  facet normal 0 0 1
    outer loop
      vertex 16.4202 1.88294 5.2
      vertex 17.3413 4.67425 5.2
      vertex 16.85 4.7 5.2
    endloop
  endfacet
  facet normal 0 0 1
    outer loop
      vertex 16.4202 1.88294 5.2
      vertex 17.8272 4.59729 5.2
      vertex 17.3413 4.67425 5.2
    endloop
  endfacet
  facet normal 0 0 1
    outer loop
      vertex 16.4202 1.88294 5.2
      vertex 18.0542 1.51 5.2
      vertex 17.8272 4.59729 5.2
    endloop
  endfacet
  facet normal 0.0523364 -0.99863 0
    outer loop
      vertex 16.85 -4.7 0
      vertex 17.3413 -4.67425 0
      vertex 17.3413 -4.67425 5.2
    endloop
  endfacet
  facet normal 0.0523364 -0.99863 0
    outer loop
      vertex 16.85 -4.7 0
      vertex 17.3413 -4.67425 5.2
      vertex 16.85 -4.7 5.2
    endloop
  endfacet
  facet normal 0.0523364 0.99863 0
    outer loop
      vertex 16.85 4.7 0
      vertex 16.85 4.7 5.2
      vertex 17.3413 4.67425 0
    endloop
  endfacet
  facet normal 0.0523364 0.99863 -0
    outer loop
      vertex 16.85 4.7 5.2
      vertex 17.3413 4.67425 5.2
      vertex 17.3413 4.67425 0
    endloop
  endfacet
  facet normal 0.156435 -0.987688 0
    outer loop
      vertex 17.3413 -4.67425 0
      vertex 17.8272 -4.59729 0
      vertex 17.8272 -4.59729 5.2
    endloop
  endfacet
  facet normal 0.156435 -0.987688 0
    outer loop
      vertex 17.3413 -4.67425 0
      vertex 17.8272 -4.59729 5.2
      vertex 17.3413 -4.67425 5.2
    endloop
  endfacet
  facet normal 0.156435 0.987688 0
    outer loop
      vertex 17.3413 4.67425 0
      vertex 17.3413 4.67425 5.2
      vertex 17.8272 4.59729 0
    endloop
  endfacet
  facet normal 0.156435 0.987688 -0
    outer loop
      vertex 17.3413 4.67425 5.2
      vertex 17.8272 4.59729 5.2
      vertex 17.8272 4.59729 0
    endloop
  endfacet
  facet normal 0 0 -1
    outer loop
      vertex 17.8272 -4.59729 0
      vertex 18.0542 -1.51 0
      vertex 18.3024 -4.46996 0
    endloop
  endfacet
  facet normal 0.258819 -0.965926 0
    outer loop
      vertex 17.8272 -4.59729 0
      vertex 18.3024 -4.46996 0
      vertex 18.3024 -4.46996 5.2
    endloop
  endfacet
  facet normal 0.258819 -0.965926 0
    outer loop
      vertex 17.8272 -4.59729 0
      vertex 18.3024 -4.46996 5.2
      vertex 17.8272 -4.59729 5.2
    endloop
  endfacet
  facet normal 0 0 1
    outer loop
      vertex 17.8272 -4.59729 5.2
      vertex 18.3024 -4.46996 5.2
      vertex 18.0542 -1.51 5.2
    endloop
  endfacet
  facet normal 0.258819 0.965926 0
    outer loop
      vertex 17.8272 4.59729 0
      vertex 17.8272 4.59729 5.2
      vertex 18.3024 4.46996 0
    endloop
  endfacet
  facet normal 0 0 -1
    outer loop
      vertex 17.8272 4.59729 0
      vertex 18.3024 4.46996 0
      vertex 18.0542 1.51 0
    endloop
  endfacet
  facet normal 0 0 1
    outer loop
      vertex 17.8272 4.59729 5.2
      vertex 18.0542 1.51 5.2
      vertex 18.3024 4.46996 5.2
    endloop
  endfacet
  facet normal 0.258819 0.965926 -0
    outer loop
      vertex 17.8272 4.59729 5.2
      vertex 18.3024 4.46996 5.2
      vertex 18.3024 4.46996 0
    endloop
  endfacet
  facet normal -0.900969 0.433883 0
    outer loop
      vertex 18.0542 -1.51 0
      vertex 18.0542 -1.51 5.2
      vertex 18.7814 0 5.2
    endloop
  endfacet
  facet normal 0 0 -1
    outer loop
      vertex 18.0542 -1.51 0
      vertex 18.7617 -4.29366 0
      vertex 18.3024 -4.46996 0
    endloop
  endfacet
  facet normal 0 0 -1
    outer loop
      vertex 18.0542 -1.51 0
      vertex 18.7814 0 0
      vertex 21.1437 -1.91166 0
    endloop
  endfacet
  facet normal -0.900969 0.433883 0
    outer loop
      vertex 18.0542 -1.51 0
      vertex 18.7814 0 5.2
      vertex 18.7814 0 0
    endloop
  endfacet
  facet normal 0 0 -1
    outer loop
      vertex 18.0542 -1.51 0
      vertex 19.2 -4.07032 0
      vertex 18.7617 -4.29366 0
    endloop
  endfacet
  facet normal 0 0 -1
    outer loop
      vertex 18.0542 -1.51 0
      vertex 19.6126 -3.80238 0
      vertex 19.2 -4.07032 0
    endloop
  endfacet
  facet normal 0 0 -1
    outer loop
      vertex 18.0542 -1.51 0
      vertex 19.9949 -3.49278 0
      vertex 19.6126 -3.80238 0
    endloop
  endfacet
  facet normal 0 0 -1
    outer loop
      vertex 18.0542 -1.51 0
      vertex 20.3428 -3.14491 0
      vertex 19.9949 -3.49278 0
    endloop
  endfacet
  facet normal 0 0 -1
    outer loop
      vertex 18.0542 -1.51 0
      vertex 20.6524 -2.76259 0
      vertex 20.3428 -3.14491 0
    endloop
  endfacet
  facet normal 0 0 -1
    outer loop
      vertex 18.0542 -1.51 0
      vertex 20.9203 -2.35 0
      vertex 20.6524 -2.76259 0
    endloop
  endfacet
  facet normal 0 0 -1
    outer loop
      vertex 18.0542 -1.51 0
      vertex 21.1437 -1.91166 0
      vertex 20.9203 -2.35 0
    endloop
  endfacet
  facet normal 0 0 1
    outer loop
      vertex 18.0542 -1.51 5.2
      vertex 18.3024 -4.46996 5.2
      vertex 18.7617 -4.29366 5.2
    endloop
  endfacet
  facet normal 0 0 1
    outer loop
      vertex 18.0542 -1.51 5.2
      vertex 18.7617 -4.29366 5.2
      vertex 19.2 -4.07032 5.2
    endloop
  endfacet
  facet normal 0 0 1
    outer loop
      vertex 18.0542 -1.51 5.2
      vertex 19.2 -4.07032 5.2
      vertex 19.6126 -3.80238 5.2
    endloop
  endfacet
  facet normal 0 0 1
    outer loop
      vertex 18.0542 -1.51 5.2
      vertex 19.6126 -3.80238 5.2
      vertex 19.9949 -3.49278 5.2
    endloop
  endfacet
  facet normal 0 0 1
    outer loop
      vertex 18.0542 -1.51 5.2
      vertex 19.9949 -3.49278 5.2
      vertex 20.3428 -3.14491 5.2
    endloop
  endfacet
  facet normal 0 0 1
    outer loop
      vertex 18.0542 -1.51 5.2
      vertex 20.3428 -3.14491 5.2
      vertex 20.6524 -2.76259 5.2
    endloop
  endfacet
  facet normal 0 0 1
    outer loop
      vertex 18.0542 -1.51 5.2
      vertex 20.6524 -2.76259 5.2
      vertex 20.9203 -2.35 5.2
    endloop
  endfacet
  facet normal 0 0 1
    outer loop
      vertex 18.0542 -1.51 5.2
      vertex 20.9203 -2.35 5.2
      vertex 21.1437 -1.91166 5.2
    endloop
  endfacet
  facet normal -0 0 1
    outer loop
      vertex 18.0542 -1.51 5.2
      vertex 21.1437 -1.91166 5.2
      vertex 18.7814 0 5.2
    endloop
  endfacet
  facet normal -0 0 -1
    outer loop
      vertex 18.0542 1.51 0
      vertex 18.3024 4.46996 0
      vertex 18.7617 4.29366 0
    endloop
  endfacet
  facet normal -0 0 -1
    outer loop
      vertex 18.0542 1.51 0
      vertex 18.7617 4.29366 0
      vertex 19.2 4.07032 0
    endloop
  endfacet
  facet normal -0.900969 -0.433883 0
    outer loop
      vertex 18.0542 1.51 0
      vertex 18.7814 0 0
      vertex 18.0542 1.51 5.2
    endloop
  endfacet
  facet normal -0 0 -1
    outer loop
      vertex 18.0542 1.51 0
      vertex 19.2 4.07032 0
      vertex 19.6126 3.80238 0
    endloop
  endfacet
  facet normal -0 0 -1
    outer loop
      vertex 18.0542 1.51 0
      vertex 19.6126 3.80238 0
      vertex 19.9949 3.49278 0
    endloop
  endfacet
  facet normal -0 0 -1
    outer loop
      vertex 18.0542 1.51 0
      vertex 19.9949 3.49278 0
      vertex 20.3428 3.14491 0
    endloop
  endfacet
  facet normal -0 0 -1
    outer loop
      vertex 18.0542 1.51 0
      vertex 20.3428 3.14491 0
      vertex 20.6524 2.76259 0
    endloop
  endfacet
  facet normal -0 0 -1
    outer loop
      vertex 18.0542 1.51 0
      vertex 20.6524 2.76259 0
      vertex 20.9203 2.35 0
    endloop
  endfacet
  facet normal -0 0 -1
    outer loop
      vertex 18.0542 1.51 0
      vertex 20.9203 2.35 0
      vertex 21.1437 1.91166 0
    endloop
  endfacet
  facet normal 0 0 -1
    outer loop
      vertex 18.0542 1.51 0
      vertex 21.1437 1.91166 0
      vertex 18.7814 0 0
    endloop
  endfacet
  facet normal 0 0 1
    outer loop
      vertex 18.0542 1.51 5.2
      vertex 18.7617 4.29366 5.2
      vertex 18.3024 4.46996 5.2
    endloop
  endfacet
  facet normal -0.900969 -0.433883 0
    outer loop
      vertex 18.0542 1.51 5.2
      vertex 18.7814 0 0
      vertex 18.7814 0 5.2
    endloop
  endfacet
  facet normal 0 0 1
    outer loop
      vertex 18.0542 1.51 5.2
      vertex 18.7814 0 5.2
      vertex 21.1437 1.91166 5.2
    endloop
  endfacet
  facet normal 0 0 1
    outer loop
      vertex 18.0542 1.51 5.2
      vertex 19.2 4.07032 5.2
      vertex 18.7617 4.29366 5.2
    endloop
  endfacet
  facet normal 0 0 1
    outer loop
      vertex 18.0542 1.51 5.2
      vertex 19.6126 3.80238 5.2
      vertex 19.2 4.07032 5.2
    endloop
  endfacet
  facet normal 0 0 1
    outer loop
      vertex 18.0542 1.51 5.2
      vertex 19.9949 3.49278 5.2
      vertex 19.6126 3.80238 5.2
    endloop
  endfacet
  facet normal 0 0 1
    outer loop
      vertex 18.0542 1.51 5.2
      vertex 20.3428 3.14491 5.2
      vertex 19.9949 3.49278 5.2
    endloop
  endfacet
  facet normal 0 0 1
    outer loop
      vertex 18.0542 1.51 5.2
      vertex 20.6524 2.76259 5.2
      vertex 20.3428 3.14491 5.2
    endloop
  endfacet
  facet normal 0 0 1
    outer loop
      vertex 18.0542 1.51 5.2
      vertex 20.9203 2.35 5.2
      vertex 20.6524 2.76259 5.2
    endloop
  endfacet
  facet normal 0 0 1
    outer loop
      vertex 18.0542 1.51 5.2
      vertex 21.1437 1.91166 5.2
      vertex 20.9203 2.35 5.2
    endloop
  endfacet
  facet normal 0.358368 -0.93358 0
    outer loop
      vertex 18.3024 -4.46996 0
      vertex 18.7617 -4.29366 0
      vertex 18.7617 -4.29366 5.2
    endloop
  endfacet
  facet normal 0.358368 -0.93358 0
    outer loop
      vertex 18.3024 -4.46996 0
      vertex 18.7617 -4.29366 5.2
      vertex 18.3024 -4.46996 5.2
    endloop
  endfacet
  facet normal 0.358368 0.93358 0
    outer loop
      vertex 18.3024 4.46996 0
      vertex 18.3024 4.46996 5.2
      vertex 18.7617 4.29366 0
    endloop
  endfacet
  facet normal 0.358368 0.93358 -0
    outer loop
      vertex 18.3024 4.46996 5.2
      vertex 18.7617 4.29366 5.2
      vertex 18.7617 4.29366 0
    endloop
  endfacet
  facet normal 0.453989 -0.891007 0
    outer loop
      vertex 18.7617 -4.29366 0
      vertex 19.2 -4.07032 0
      vertex 19.2 -4.07032 5.2
    endloop
  endfacet
  facet normal 0.453989 -0.891007 0
    outer loop
      vertex 18.7617 -4.29366 0
      vertex 19.2 -4.07032 5.2
      vertex 18.7617 -4.29366 5.2
    endloop
  endfacet
  facet normal 0.453989 0.891007 0
    outer loop
      vertex 18.7617 4.29366 0
      vertex 18.7617 4.29366 5.2
      vertex 19.2 4.07032 0
    endloop
  endfacet
  facet normal 0.453989 0.891007 -0
    outer loop
      vertex 18.7617 4.29366 5.2
      vertex 19.2 4.07032 5.2
      vertex 19.2 4.07032 0
    endloop
  endfacet
  facet normal -0 0 -1
    outer loop
      vertex 18.7814 0 0
      vertex 21.1437 1.91166 0
      vertex 21.32 1.45238 0
    endloop
  endfacet
  facet normal 0 0 -1
    outer loop
      vertex 18.7814 0 0
      vertex 21.32 -1.45238 0
      vertex 21.1437 -1.91166 0
    endloop
  endfacet
  facet normal -0 0 -1
    outer loop
      vertex 18.7814 0 0
      vertex 21.32 1.45238 0
      vertex 21.4473 0.977184 0
    endloop
  endfacet
  facet normal 0 0 -1
    outer loop
      vertex 18.7814 0 0
      vertex 21.4473 -0.977184 0
      vertex 21.32 -1.45238 0
    endloop
  endfacet
  facet normal -0 0 -1
    outer loop
      vertex 18.7814 0 0
      vertex 21.4473 0.977184 0
      vertex 21.5243 0.491283 0
    endloop
  endfacet
  facet normal 0 0 -1
    outer loop
      vertex 18.7814 0 0
      vertex 21.5243 -0.491283 0
      vertex 21.4473 -0.977184 0
    endloop
  endfacet
  facet normal 0 0 -1
    outer loop
      vertex 18.7814 0 0
      vertex 21.5243 0.491283 0
      vertex 21.55 0 0
    endloop
  endfacet
  facet normal 0 0 -1
    outer loop
      vertex 18.7814 0 0
      vertex 21.55 0 0
      vertex 21.5243 -0.491283 0
    endloop
  endfacet
  facet normal 0 0 1
    outer loop
      vertex 18.7814 0 5.2
      vertex 21.1437 -1.91166 5.2
      vertex 21.32 -1.45238 5.2
    endloop
  endfacet
  facet normal 0 0 1
    outer loop
      vertex 18.7814 0 5.2
      vertex 21.32 -1.45238 5.2
      vertex 21.4473 -0.977184 5.2
    endloop
  endfacet
  facet normal 0 0 1
    outer loop
      vertex 18.7814 0 5.2
      vertex 21.32 1.45238 5.2
      vertex 21.1437 1.91166 5.2
    endloop
  endfacet
  facet normal 0 0 1
    outer loop
      vertex 18.7814 0 5.2
      vertex 21.4473 -0.977184 5.2
      vertex 21.5243 -0.491283 5.2
    endloop
  endfacet
  facet normal 0 0 1
    outer loop
      vertex 18.7814 0 5.2
      vertex 21.4473 0.977184 5.2
      vertex 21.32 1.45238 5.2
    endloop
  endfacet
  facet normal 0 0 1
    outer loop
      vertex 18.7814 0 5.2
      vertex 21.5243 -0.491283 5.2
      vertex 21.55 0 5.2
    endloop
  endfacet
  facet normal 0 0 1
    outer loop
      vertex 18.7814 0 5.2
      vertex 21.5243 0.491283 5.2
      vertex 21.4473 0.977184 5.2
    endloop
  endfacet
  facet normal 0 0 1
    outer loop
      vertex 18.7814 0 5.2
      vertex 21.55 0 5.2
      vertex 21.5243 0.491283 5.2
    endloop
  endfacet
  facet normal 0.54464 -0.83867 0
    outer loop
      vertex 19.2 -4.07032 0
      vertex 19.6126 -3.80238 0
      vertex 19.6126 -3.80238 5.2
    endloop
  endfacet
  facet normal 0.54464 -0.83867 0
    outer loop
      vertex 19.2 -4.07032 0
      vertex 19.6126 -3.80238 5.2
      vertex 19.2 -4.07032 5.2
    endloop
  endfacet
  facet normal 0.54464 0.83867 0
    outer loop
      vertex 19.2 4.07032 0
      vertex 19.2 4.07032 5.2
      vertex 19.6126 3.80238 0
    endloop
  endfacet
  facet normal 0.54464 0.83867 -0
    outer loop
      vertex 19.2 4.07032 5.2
      vertex 19.6126 3.80238 5.2
      vertex 19.6126 3.80238 0
    endloop
  endfacet
  facet normal 0.629322 -0.777145 0
    outer loop
      vertex 19.6126 -3.80238 0
      vertex 19.9949 -3.49278 0
      vertex 19.9949 -3.49278 5.2
    endloop
  endfacet
  facet normal 0.629322 -0.777145 0
    outer loop
      vertex 19.6126 -3.80238 0
      vertex 19.9949 -3.49278 5.2
      vertex 19.6126 -3.80238 5.2
    endloop
  endfacet
  facet normal 0.629322 0.777145 0
    outer loop
      vertex 19.6126 3.80238 0
      vertex 19.6126 3.80238 5.2
      vertex 19.9949 3.49278 0
    endloop
  endfacet
  facet normal 0.629322 0.777145 -0
    outer loop
      vertex 19.6126 3.80238 5.2
      vertex 19.9949 3.49278 5.2
      vertex 19.9949 3.49278 0
    endloop
  endfacet
  facet normal 0.707105 -0.707109 0
    outer loop
      vertex 19.9949 -3.49278 0
      vertex 20.3428 -3.14491 0
      vertex 20.3428 -3.14491 5.2
    endloop
  endfacet
  facet normal 0.707105 -0.707109 0
    outer loop
      vertex 19.9949 -3.49278 0
      vertex 20.3428 -3.14491 5.2
      vertex 19.9949 -3.49278 5.2
    endloop
  endfacet
  facet normal 0.707105 0.707109 0
    outer loop
      vertex 19.9949 3.49278 0
      vertex 19.9949 3.49278 5.2
      vertex 20.3428 3.14491 0
    endloop
  endfacet
  facet normal 0.707105 0.707109 -0
    outer loop
      vertex 19.9949 3.49278 5.2
      vertex 20.3428 3.14491 5.2
      vertex 20.3428 3.14491 0
    endloop
  endfacet
  facet normal 0.777148 -0.629318 0
    outer loop
      vertex 20.3428 -3.14491 0
      vertex 20.6524 -2.76259 0
      vertex 20.3428 -3.14491 5.2
    endloop
  endfacet
  facet normal 0.777148 -0.629318 0
    outer loop
      vertex 20.3428 -3.14491 5.2
      vertex 20.6524 -2.76259 0
      vertex 20.6524 -2.76259 5.2
    endloop
  endfacet
  facet normal 0.777148 0.629318 0
    outer loop
      vertex 20.3428 3.14491 0
      vertex 20.3428 3.14491 5.2
      vertex 20.6524 2.76259 5.2
    endloop
  endfacet
  facet normal 0.777148 0.629318 0
    outer loop
      vertex 20.3428 3.14491 0
      vertex 20.6524 2.76259 5.2
      vertex 20.6524 2.76259 0
    endloop
  endfacet
  facet normal 0.83867 -0.54464 0
    outer loop
      vertex 20.6524 -2.76259 0
      vertex 20.9203 -2.35 0
      vertex 20.6524 -2.76259 5.2
    endloop
  endfacet
  facet normal 0.83867 -0.54464 0
    outer loop
      vertex 20.6524 -2.76259 5.2
      vertex 20.9203 -2.35 0
      vertex 20.9203 -2.35 5.2
    endloop
  endfacet
  facet normal 0.83867 0.54464 0
    outer loop
      vertex 20.6524 2.76259 0
      vertex 20.6524 2.76259 5.2
      vertex 20.9203 2.35 5.2
    endloop
  endfacet
  facet normal 0.83867 0.54464 0
    outer loop
      vertex 20.6524 2.76259 0
      vertex 20.9203 2.35 5.2
      vertex 20.9203 2.35 0
    endloop
  endfacet
  facet normal 0.891006 -0.453992 0
    outer loop
      vertex 20.9203 -2.35 0
      vertex 21.1437 -1.91166 0
      vertex 20.9203 -2.35 5.2
    endloop
  endfacet
  facet normal 0.891006 -0.453992 0
    outer loop
      vertex 20.9203 -2.35 5.2
      vertex 21.1437 -1.91166 0
      vertex 21.1437 -1.91166 5.2
    endloop
  endfacet
  facet normal 0.891006 0.453992 0
    outer loop
      vertex 20.9203 2.35 0
      vertex 20.9203 2.35 5.2
      vertex 21.1437 1.91166 5.2
    endloop
  endfacet
  facet normal 0.891006 0.453992 0
    outer loop
      vertex 20.9203 2.35 0
      vertex 21.1437 1.91166 5.2
      vertex 21.1437 1.91166 0
    endloop
  endfacet
  facet normal 0.933581 -0.358368 0
    outer loop
      vertex 21.1437 -1.91166 0
      vertex 21.32 -1.45238 0
      vertex 21.1437 -1.91166 5.2
    endloop
  endfacet
  facet normal 0.933581 -0.358368 0
    outer loop
      vertex 21.1437 -1.91166 5.2
      vertex 21.32 -1.45238 0
      vertex 21.32 -1.45238 5.2
    endloop
  endfacet
  facet normal 0.933581 0.358368 0
    outer loop
      vertex 21.1437 1.91166 0
      vertex 21.1437 1.91166 5.2
      vertex 21.32 1.45238 5.2
    endloop
  endfacet
  facet normal 0.933581 0.358368 0
    outer loop
      vertex 21.1437 1.91166 0
      vertex 21.32 1.45238 5.2
      vertex 21.32 1.45238 0
    endloop
  endfacet
  facet normal 0.965926 -0.258817 0
    outer loop
      vertex 21.32 -1.45238 0
      vertex 21.4473 -0.977184 0
      vertex 21.32 -1.45238 5.2
    endloop
  endfacet
  facet normal 0.965926 -0.258817 0
    outer loop
      vertex 21.32 -1.45238 5.2
      vertex 21.4473 -0.977184 0
      vertex 21.4473 -0.977184 5.2
    endloop
  endfacet
  facet normal 0.965926 0.258817 0
    outer loop
      vertex 21.32 1.45238 0
      vertex 21.32 1.45238 5.2
      vertex 21.4473 0.977184 5.2
    endloop
  endfacet
  facet normal 0.965926 0.258817 0
    outer loop
      vertex 21.32 1.45238 0
      vertex 21.4473 0.977184 5.2
      vertex 21.4473 0.977184 0
    endloop
  endfacet
  facet normal 0.987688 -0.156439 0
    outer loop
      vertex 21.4473 -0.977184 0
      vertex 21.5243 -0.491283 0
      vertex 21.4473 -0.977184 5.2
    endloop
  endfacet
  facet normal 0.987688 -0.156439 0
    outer loop
      vertex 21.4473 -0.977184 5.2
      vertex 21.5243 -0.491283 0
      vertex 21.5243 -0.491283 5.2
    endloop
  endfacet
  facet normal 0.987688 0.156439 0
    outer loop
      vertex 21.4473 0.977184 0
      vertex 21.4473 0.977184 5.2
      vertex 21.5243 0.491283 5.2
    endloop
  endfacet
  facet normal 0.987688 0.156439 0
    outer loop
      vertex 21.4473 0.977184 0
      vertex 21.5243 0.491283 5.2
      vertex 21.5243 0.491283 0
    endloop
  endfacet
  facet normal 0.99863 -0.0523325 0
    outer loop
      vertex 21.5243 -0.491283 0
      vertex 21.55 0 0
      vertex 21.5243 -0.491283 5.2
    endloop
  endfacet
  facet normal 0.99863 -0.0523325 0
    outer loop
      vertex 21.5243 -0.491283 5.2
      vertex 21.55 0 0
      vertex 21.55 0 5.2
    endloop
  endfacet
  facet normal 0.99863 0.0523325 0
    outer loop
      vertex 21.5243 0.491283 0
      vertex 21.5243 0.491283 5.2
      vertex 21.55 0 5.2
    endloop
  endfacet
  facet normal 0.99863 0.0523325 0
    outer loop
      vertex 21.5243 0.491283 0
      vertex 21.55 0 5.2
      vertex 21.55 0 0
    endloop
  endfacet
endsolid OpenSCAD_Model
