solid OpenSCAD_Model
  facet normal 1 0 0
    outer loop
      vertex -17.51 -4.7 4
      vertex -17.51 4.7 4
      vertex -17.51 -4.7 5.2
    endloop
  endfacet
  facet normal 0 0 1
    outer loop
      vertex -17.51 -4.7 4
      vertex 17.51 -4.7 4
      vertex -17.51 4.7 4
    endloop
  endfacet
  facet normal 1 -0 0
    outer loop
      vertex -17.51 -4.7 5.2
      vertex -17.51 4.7 4
      vertex -17.51 4.7 5.2
    endloop
  endfacet
  facet normal -0 0 1
    outer loop
      vertex -17.51 4.7 4
      vertex 17.51 -4.7 4
      vertex 17.51 4.7 4
    endloop
  endfacet
  facet normal 0 1 0
    outer loop
      vertex -17.51 4.7 4
      vertex 17.51 4.7 4
      vertex 20.66 4.7 0
    endloop
  endfacet
  facet normal 0 0 -1
    outer loop
      vertex -18.7286 0 0
      vertex 18.9199 0.837986 0
      vertex 18.9199 -0.837986 0
    endloop
  endfacet
  facet normal 0 0 1
    outer loop
      vertex -18.7286 0 5.2
      vertex -17.51 -4.7 5.2
      vertex -17.51 4.7 5.2
    endloop
  endfacet
  facet normal -0 0 -1
    outer loop
      vertex -19.4558 -1.51 0
      vertex -18.7286 0 0
      vertex 18.9199 -0.837986 0
    endloop
  endfacet
  facet normal -0.900969 0.433883 0
    outer loop
      vertex -19.4558 -1.51 0
      vertex -18.7286 0 5.2
      vertex -18.7286 0 0
    endloop
  endfacet
  facet normal -0.900969 0.433883 0
    outer loop
      vertex -19.4558 -1.51 0
      vertex -19.4558 -1.51 5.2
      vertex -18.7286 0 5.2
    endloop
  endfacet
  facet normal -0 0 1
    outer loop
      vertex -19.4558 -1.51 5.2
      vertex -17.51 -4.7 5.2
      vertex -18.7286 0 5.2
    endloop
  endfacet
  facet normal -0.900969 -0.433883 0
    outer loop
      vertex -19.4558 1.51 0
      vertex -18.7286 0 0
      vertex -19.4558 1.51 5.2
    endloop
  endfacet
  facet normal 0 0 -1
    outer loop
      vertex -19.4558 1.51 0
      vertex 18.9199 0.837986 0
      vertex -18.7286 0 0
    endloop
  endfacet
  facet normal -0.900969 -0.433883 0
    outer loop
      vertex -19.4558 1.51 5.2
      vertex -18.7286 0 0
      vertex -18.7286 0 5.2
    endloop
  endfacet
  facet normal 0 0 1
    outer loop
      vertex -19.4558 1.51 5.2
      vertex -18.7286 0 5.2
      vertex -17.51 4.7 5.2
    endloop
  endfacet
  facet normal 0 -1 0
    outer loop
      vertex -20.66 -4.7 0
      vertex -17.51 -4.7 4
      vertex -20.66 -4.7 5.2
    endloop
  endfacet
  facet normal 0 0 -1
    outer loop
      vertex -20.66 -4.7 0
      vertex -19.4558 -1.51 0
      vertex 18.9199 -0.837986 0
    endloop
  endfacet
  facet normal 0 -1 -0
    outer loop
      vertex -20.66 -4.7 0
      vertex 17.51 -4.7 4
      vertex -17.51 -4.7 4
    endloop
  endfacet
  facet normal 0 0 -1
    outer loop
      vertex -20.66 -4.7 0
      vertex 18.9199 -0.837986 0
      vertex 20.66 -4.7 0
    endloop
  endfacet
  facet normal 0 -1 0
    outer loop
      vertex -20.66 -4.7 0
      vertex 20.66 -4.7 0
      vertex 17.51 -4.7 4
    endloop
  endfacet
  facet normal 0 -1 0
    outer loop
      vertex -20.66 -4.7 5.2
      vertex -17.51 -4.7 4
      vertex -17.51 -4.7 5.2
    endloop
  endfacet
  facet normal 0 0 1
    outer loop
      vertex -20.66 -4.7 5.2
      vertex -17.51 -4.7 5.2
      vertex -19.4558 -1.51 5.2
    endloop
  endfacet
  facet normal 0 1 0
    outer loop
      vertex -20.66 4.7 0
      vertex -17.51 4.7 4
      vertex 20.66 4.7 0
    endloop
  endfacet
  facet normal 0 1 0
    outer loop
      vertex -20.66 4.7 0
      vertex -20.66 4.7 5.2
      vertex -17.51 4.7 4
    endloop
  endfacet
  facet normal 0 0 -1
    outer loop
      vertex -20.66 4.7 0
      vertex 18.9199 0.837986 0
      vertex -19.4558 1.51 0
    endloop
  endfacet
  facet normal 0 0 -1
    outer loop
      vertex -20.66 4.7 0
      vertex 20.66 4.7 0
      vertex 18.9199 0.837986 0
    endloop
  endfacet
  facet normal 0 1 -0
    outer loop
      vertex -20.66 4.7 5.2
      vertex -17.51 4.7 5.2
      vertex -17.51 4.7 4
    endloop
  endfacet
  facet normal -0 0 1
    outer loop
      vertex -20.66 4.7 5.2
      vertex -19.4558 1.51 5.2
      vertex -17.51 4.7 5.2
    endloop
  endfacet
  facet normal 0 0 -1
    outer loop
      vertex -21.0898 -1.88294 0
      vertex -19.4558 -1.51 0
      vertex -20.66 -4.7 0
    endloop
  endfacet
  facet normal -0.222521 0.974928 0
    outer loop
      vertex -21.0898 -1.88294 0
      vertex -21.0898 -1.88294 5.2
      vertex -19.4558 -1.51 0
    endloop
  endfacet
  facet normal -0.222521 0.974928 0
    outer loop
      vertex -21.0898 -1.88294 5.2
      vertex -19.4558 -1.51 5.2
      vertex -19.4558 -1.51 0
    endloop
  endfacet
  facet normal -0 0 1
    outer loop
      vertex -21.0898 -1.88294 5.2
      vertex -20.66 -4.7 5.2
      vertex -19.4558 -1.51 5.2
    endloop
  endfacet
  facet normal -0.222521 -0.974928 -0
    outer loop
      vertex -21.0898 1.88294 0
      vertex -19.4558 1.51 0
      vertex -19.4558 1.51 5.2
    endloop
  endfacet
  facet normal -0.222521 -0.974928 0
    outer loop
      vertex -21.0898 1.88294 0
      vertex -19.4558 1.51 5.2
      vertex -21.0898 1.88294 5.2
    endloop
  endfacet
  facet normal 0 0 -1
    outer loop
      vertex -21.0898 1.88294 0
      vertex -20.66 4.7 0
      vertex -19.4558 1.51 0
    endloop
  endfacet
  facet normal 0 0 1
    outer loop
      vertex -21.0898 1.88294 5.2
      vertex -19.4558 1.51 5.2
      vertex -20.66 4.7 5.2
    endloop
  endfacet
  facet normal -0.0523364 -0.99863 -0
    outer loop
      vertex -21.1513 -4.67425 0
      vertex -20.66 -4.7 0
      vertex -20.66 -4.7 5.2
    endloop
  endfacet
  facet normal -0.0523364 -0.99863 0
    outer loop
      vertex -21.1513 -4.67425 0
      vertex -20.66 -4.7 5.2
      vertex -21.1513 -4.67425 5.2
    endloop
  endfacet
  facet normal 0 0 -1
    outer loop
      vertex -21.1513 -4.67425 0
      vertex -21.0898 -1.88294 0
      vertex -20.66 -4.7 0
    endloop
  endfacet
  facet normal 0 0 1
    outer loop
      vertex -21.1513 -4.67425 5.2
      vertex -20.66 -4.7 5.2
      vertex -21.0898 -1.88294 5.2
    endloop
  endfacet
  facet normal 0 0 -1
    outer loop
      vertex -21.1513 4.67425 0
      vertex -20.66 4.7 0
      vertex -21.0898 1.88294 0
    endloop
  endfacet
  facet normal -0.0523364 0.99863 0
    outer loop
      vertex -21.1513 4.67425 0
      vertex -21.1513 4.67425 5.2
      vertex -20.66 4.7 0
    endloop
  endfacet
  facet normal -0.0523364 0.99863 0
    outer loop
      vertex -21.1513 4.67425 5.2
      vertex -20.66 4.7 5.2
      vertex -20.66 4.7 0
    endloop
  endfacet
  facet normal -0 0 1
    outer loop
      vertex -21.1513 4.67425 5.2
      vertex -21.0898 1.88294 5.2
      vertex -20.66 4.7 5.2
    endloop
  endfacet
  facet normal 0 0 -1
    outer loop
      vertex -21.6372 -4.59729 0
      vertex -21.0898 -1.88294 0
      vertex -21.1513 -4.67425 0
    endloop
  endfacet
  facet normal -0.156435 -0.987688 -0
    outer loop
      vertex -21.6372 -4.59729 0
      vertex -21.1513 -4.67425 0
      vertex -21.1513 -4.67425 5.2
    endloop
  endfacet
  facet normal -0.156435 -0.987688 0
    outer loop
      vertex -21.6372 -4.59729 0
      vertex -21.1513 -4.67425 5.2
      vertex -21.6372 -4.59729 5.2
    endloop
  endfacet
  facet normal 0 0 1
    outer loop
      vertex -21.6372 -4.59729 5.2
      vertex -21.1513 -4.67425 5.2
      vertex -21.0898 -1.88294 5.2
    endloop
  endfacet
  facet normal 0 0 -1
    outer loop
      vertex -21.6372 4.59729 0
      vertex -21.1513 4.67425 0
      vertex -21.0898 1.88294 0
    endloop
  endfacet
  facet normal -0.156435 0.987688 0
    outer loop
      vertex -21.6372 4.59729 0
      vertex -21.6372 4.59729 5.2
      vertex -21.1513 4.67425 0
    endloop
  endfacet
  facet normal -0 0 1
    outer loop
      vertex -21.6372 4.59729 5.2
      vertex -21.0898 1.88294 5.2
      vertex -21.1513 4.67425 5.2
    endloop
  endfacet
  facet normal -0.156435 0.987688 0
    outer loop
      vertex -21.6372 4.59729 5.2
      vertex -21.1513 4.67425 5.2
      vertex -21.1513 4.67425 0
    endloop
  endfacet
  facet normal 0 0 -1
    outer loop
      vertex -22.1124 -4.46996 0
      vertex -21.0898 -1.88294 0
      vertex -21.6372 -4.59729 0
    endloop
  endfacet
  facet normal -0.258819 -0.965926 -0
    outer loop
      vertex -22.1124 -4.46996 0
      vertex -21.6372 -4.59729 0
      vertex -21.6372 -4.59729 5.2
    endloop
  endfacet
  facet normal -0.258819 -0.965926 0
    outer loop
      vertex -22.1124 -4.46996 0
      vertex -21.6372 -4.59729 5.2
      vertex -22.1124 -4.46996 5.2
    endloop
  endfacet
  facet normal 0 0 1
    outer loop
      vertex -22.1124 -4.46996 5.2
      vertex -21.6372 -4.59729 5.2
      vertex -21.0898 -1.88294 5.2
    endloop
  endfacet
  facet normal 0 0 -1
    outer loop
      vertex -22.1124 4.46996 0
      vertex -21.6372 4.59729 0
      vertex -21.0898 1.88294 0
    endloop
  endfacet
  facet normal -0.258819 0.965926 0
    outer loop
      vertex -22.1124 4.46996 0
      vertex -22.1124 4.46996 5.2
      vertex -21.6372 4.59729 0
    endloop
  endfacet
  facet normal -0 0 1
    outer loop
      vertex -22.1124 4.46996 5.2
      vertex -21.0898 1.88294 5.2
      vertex -21.6372 4.59729 5.2
    endloop
  endfacet
  facet normal -0.258819 0.965926 0
    outer loop
      vertex -22.1124 4.46996 5.2
      vertex -21.6372 4.59729 5.2
      vertex -21.6372 4.59729 0
    endloop
  endfacet
  facet normal 0.62349 0.781832 0
    outer loop
      vertex -22.4001 -0.837986 0
      vertex -22.4001 -0.837986 5.2
      vertex -21.0898 -1.88294 0
    endloop
  endfacet
  facet normal 1 0 0
    outer loop
      vertex -22.4001 -0.837986 0
      vertex -22.4001 0.837986 0
      vertex -22.4001 -0.837986 5.2
    endloop
  endfacet
  facet normal 0.62349 0.781832 -0
    outer loop
      vertex -22.4001 -0.837986 5.2
      vertex -21.0898 -1.88294 5.2
      vertex -21.0898 -1.88294 0
    endloop
  endfacet
  facet normal 1 -0 0
    outer loop
      vertex -22.4001 -0.837986 5.2
      vertex -22.4001 0.837986 0
      vertex -22.4001 0.837986 5.2
    endloop
  endfacet
  facet normal 0.62349 -0.781832 0
    outer loop
      vertex -22.4001 0.837986 0
      vertex -21.0898 1.88294 0
      vertex -21.0898 1.88294 5.2
    endloop
  endfacet
  facet normal 0.62349 -0.781832 0
    outer loop
      vertex -22.4001 0.837986 0
      vertex -21.0898 1.88294 5.2
      vertex -22.4001 0.837986 5.2
    endloop
  endfacet
  facet normal 0 0 -1
    outer loop
      vertex -22.5717 -4.29366 0
      vertex -21.0898 -1.88294 0
      vertex -22.1124 -4.46996 0
    endloop
  endfacet
  facet normal -0.358367 -0.933581 -0
    outer loop
      vertex -22.5717 -4.29366 0
      vertex -22.1124 -4.46996 0
      vertex -22.1124 -4.46996 5.2
    endloop
  endfacet
  facet normal -0.358367 -0.933581 0
    outer loop
      vertex -22.5717 -4.29366 0
      vertex -22.1124 -4.46996 5.2
      vertex -22.5717 -4.29366 5.2
    endloop
  endfacet
  facet normal 0 0 1
    outer loop
      vertex -22.5717 -4.29366 5.2
      vertex -22.1124 -4.46996 5.2
      vertex -21.0898 -1.88294 5.2
    endloop
  endfacet
  facet normal 0 0 -1
    outer loop
      vertex -22.5717 4.29366 0
      vertex -22.1124 4.46996 0
      vertex -21.0898 1.88294 0
    endloop
  endfacet
  facet normal -0.358367 0.933581 0
    outer loop
      vertex -22.5717 4.29366 0
      vertex -22.5717 4.29366 5.2
      vertex -22.1124 4.46996 0
    endloop
  endfacet
  facet normal -0 0 1
    outer loop
      vertex -22.5717 4.29366 5.2
      vertex -21.0898 1.88294 5.2
      vertex -22.1124 4.46996 5.2
    endloop
  endfacet
  facet normal -0.358367 0.933581 0
    outer loop
      vertex -22.5717 4.29366 5.2
      vertex -22.1124 4.46996 5.2
      vertex -22.1124 4.46996 0
    endloop
  endfacet
  facet normal 0 0 -1
    outer loop
      vertex -23.01 -4.07032 0
      vertex -21.0898 -1.88294 0
      vertex -22.5717 -4.29366 0
    endloop
  endfacet
  facet normal -0.453992 -0.891006 -0
    outer loop
      vertex -23.01 -4.07032 0
      vertex -22.5717 -4.29366 0
      vertex -22.5717 -4.29366 5.2
    endloop
  endfacet
  facet normal -0.453992 -0.891006 0
    outer loop
      vertex -23.01 -4.07032 0
      vertex -22.5717 -4.29366 5.2
      vertex -23.01 -4.07032 5.2
    endloop
  endfacet
  facet normal 0 0 1
    outer loop
      vertex -23.01 -4.07032 5.2
      vertex -22.5717 -4.29366 5.2
      vertex -21.0898 -1.88294 5.2
    endloop
  endfacet
  facet normal 0 0 -1
    outer loop
      vertex -23.01 4.07032 0
      vertex -22.5717 4.29366 0
      vertex -21.0898 1.88294 0
    endloop
  endfacet
  facet normal -0.453992 0.891006 0
    outer loop
      vertex -23.01 4.07032 0
      vertex -23.01 4.07032 5.2
      vertex -22.5717 4.29366 0
    endloop
  endfacet
  facet normal -0 0 1
    outer loop
      vertex -23.01 4.07032 5.2
      vertex -21.0898 1.88294 5.2
      vertex -22.5717 4.29366 5.2
    endloop
  endfacet
  facet normal -0.453992 0.891006 0
    outer loop
      vertex -23.01 4.07032 5.2
      vertex -22.5717 4.29366 5.2
      vertex -22.5717 4.29366 0
    endloop
  endfacet
  facet normal 0 0 -1
    outer loop
      vertex -23.4226 -3.80238 0
      vertex -21.0898 -1.88294 0
      vertex -23.01 -4.07032 0
    endloop
  endfacet
  facet normal -0 0 -1
    outer loop
      vertex -23.4226 -3.80238 0
      vertex -22.4001 -0.837986 0
      vertex -21.0898 -1.88294 0
    endloop
  endfacet
  facet normal -0.544638 -0.838671 -0
    outer loop
      vertex -23.4226 -3.80238 0
      vertex -23.01 -4.07032 0
      vertex -23.01 -4.07032 5.2
    endloop
  endfacet
  facet normal -0.544638 -0.838671 0
    outer loop
      vertex -23.4226 -3.80238 0
      vertex -23.01 -4.07032 5.2
      vertex -23.4226 -3.80238 5.2
    endloop
  endfacet
  facet normal 0 0 1
    outer loop
      vertex -23.4226 -3.80238 5.2
      vertex -21.0898 -1.88294 5.2
      vertex -22.4001 -0.837986 5.2
    endloop
  endfacet
  facet normal 0 0 1
    outer loop
      vertex -23.4226 -3.80238 5.2
      vertex -23.01 -4.07032 5.2
      vertex -21.0898 -1.88294 5.2
    endloop
  endfacet
  facet normal 0 0 -1
    outer loop
      vertex -23.4226 3.80238 0
      vertex -21.0898 1.88294 0
      vertex -22.4001 0.837986 0
    endloop
  endfacet
  facet normal 0 0 -1
    outer loop
      vertex -23.4226 3.80238 0
      vertex -23.01 4.07032 0
      vertex -21.0898 1.88294 0
    endloop
  endfacet
  facet normal -0.544638 0.838671 0
    outer loop
      vertex -23.4226 3.80238 0
      vertex -23.4226 3.80238 5.2
      vertex -23.01 4.07032 0
    endloop
  endfacet
  facet normal -0 0 1
    outer loop
      vertex -23.4226 3.80238 5.2
      vertex -21.0898 1.88294 5.2
      vertex -23.01 4.07032 5.2
    endloop
  endfacet
  facet normal 0 0 1
    outer loop
      vertex -23.4226 3.80238 5.2
      vertex -22.4001 0.837986 5.2
      vertex -21.0898 1.88294 5.2
    endloop
  endfacet
  facet normal -0.544638 0.838671 0
    outer loop
      vertex -23.4226 3.80238 5.2
      vertex -23.01 4.07032 5.2
      vertex -23.01 4.07032 0
    endloop
  endfacet
  facet normal 0 0 -1
    outer loop
      vertex -23.8049 -3.49278 0
      vertex -22.4001 -0.837986 0
      vertex -23.4226 -3.80238 0
    endloop
  endfacet
  facet normal -0.629322 -0.777145 -0
    outer loop
      vertex -23.8049 -3.49278 0
      vertex -23.4226 -3.80238 0
      vertex -23.4226 -3.80238 5.2
    endloop
  endfacet
  facet normal -0.629322 -0.777145 0
    outer loop
      vertex -23.8049 -3.49278 0
      vertex -23.4226 -3.80238 5.2
      vertex -23.8049 -3.49278 5.2
    endloop
  endfacet
  facet normal 0 0 1
    outer loop
      vertex -23.8049 -3.49278 5.2
      vertex -23.4226 -3.80238 5.2
      vertex -22.4001 -0.837986 5.2
    endloop
  endfacet
  facet normal 0 0 -1
    outer loop
      vertex -23.8049 3.49278 0
      vertex -23.4226 3.80238 0
      vertex -22.4001 0.837986 0
    endloop
  endfacet
  facet normal -0.629322 0.777145 0
    outer loop
      vertex -23.8049 3.49278 0
      vertex -23.8049 3.49278 5.2
      vertex -23.4226 3.80238 0
    endloop
  endfacet
  facet normal -0 0 1
    outer loop
      vertex -23.8049 3.49278 5.2
      vertex -22.4001 0.837986 5.2
      vertex -23.4226 3.80238 5.2
    endloop
  endfacet
  facet normal -0.629322 0.777145 0
    outer loop
      vertex -23.8049 3.49278 5.2
      vertex -23.4226 3.80238 5.2
      vertex -23.4226 3.80238 0
    endloop
  endfacet
  facet normal 0 0 -1
    outer loop
      vertex -24.1528 -3.14491 0
      vertex -22.4001 -0.837986 0
      vertex -23.8049 -3.49278 0
    endloop
  endfacet
  facet normal -0.707105 -0.707109 -0
    outer loop
      vertex -24.1528 -3.14491 0
      vertex -23.8049 -3.49278 0
      vertex -23.8049 -3.49278 5.2
    endloop
  endfacet
  facet normal -0.707105 -0.707109 0
    outer loop
      vertex -24.1528 -3.14491 0
      vertex -23.8049 -3.49278 5.2
      vertex -24.1528 -3.14491 5.2
    endloop
  endfacet
  facet normal 0 0 1
    outer loop
      vertex -24.1528 -3.14491 5.2
      vertex -23.8049 -3.49278 5.2
      vertex -22.4001 -0.837986 5.2
    endloop
  endfacet
  facet normal 0 0 -1
    outer loop
      vertex -24.1528 3.14491 0
      vertex -23.8049 3.49278 0
      vertex -22.4001 0.837986 0
    endloop
  endfacet
  facet normal -0.707105 0.707109 0
    outer loop
      vertex -24.1528 3.14491 0
      vertex -24.1528 3.14491 5.2
      vertex -23.8049 3.49278 0
    endloop
  endfacet
  facet normal -0 0 1
    outer loop
      vertex -24.1528 3.14491 5.2
      vertex -22.4001 0.837986 5.2
      vertex -23.8049 3.49278 5.2
    endloop
  endfacet
  facet normal -0.707105 0.707109 0
    outer loop
      vertex -24.1528 3.14491 5.2
      vertex -23.8049 3.49278 5.2
      vertex -23.8049 3.49278 0
    endloop
  endfacet
  facet normal 0 0 -1
    outer loop
      vertex -24.4624 -2.76259 0
      vertex -22.4001 -0.837986 0
      vertex -24.1528 -3.14491 0
    endloop
  endfacet
  facet normal -0.777146 -0.62932 0
    outer loop
      vertex -24.4624 -2.76259 0
      vertex -24.1528 -3.14491 0
      vertex -24.4624 -2.76259 5.2
    endloop
  endfacet
  facet normal -0.777146 -0.62932 0
    outer loop
      vertex -24.4624 -2.76259 5.2
      vertex -24.1528 -3.14491 0
      vertex -24.1528 -3.14491 5.2
    endloop
  endfacet
  facet normal 0 0 1
    outer loop
      vertex -24.4624 -2.76259 5.2
      vertex -24.1528 -3.14491 5.2
      vertex -22.4001 -0.837986 5.2
    endloop
  endfacet
  facet normal 0 0 -1
    outer loop
      vertex -24.4624 2.76259 0
      vertex -24.1528 3.14491 0
      vertex -22.4001 0.837986 0
    endloop
  endfacet
  facet normal -0.777146 0.62932 0
    outer loop
      vertex -24.4624 2.76259 0
      vertex -24.1528 3.14491 5.2
      vertex -24.1528 3.14491 0
    endloop
  endfacet
  facet normal -0.777146 0.62932 0
    outer loop
      vertex -24.4624 2.76259 0
      vertex -24.4624 2.76259 5.2
      vertex -24.1528 3.14491 5.2
    endloop
  endfacet
  facet normal -0 0 1
    outer loop
      vertex -24.4624 2.76259 5.2
      vertex -22.4001 0.837986 5.2
      vertex -24.1528 3.14491 5.2
    endloop
  endfacet
  facet normal 0 0 -1
    outer loop
      vertex -24.7303 -2.35 0
      vertex -22.4001 -0.837986 0
      vertex -24.4624 -2.76259 0
    endloop
  endfacet
  facet normal -0.83867 -0.54464 0
    outer loop
      vertex -24.7303 -2.35 0
      vertex -24.4624 -2.76259 0
      vertex -24.7303 -2.35 5.2
    endloop
  endfacet
  facet normal -0.83867 -0.54464 0
    outer loop
      vertex -24.7303 -2.35 5.2
      vertex -24.4624 -2.76259 0
      vertex -24.4624 -2.76259 5.2
    endloop
  endfacet
  facet normal 0 0 1
    outer loop
      vertex -24.7303 -2.35 5.2
      vertex -24.4624 -2.76259 5.2
      vertex -22.4001 -0.837986 5.2
    endloop
  endfacet
  facet normal 0 0 -1
    outer loop
      vertex -24.7303 2.35 0
      vertex -24.4624 2.76259 0
      vertex -22.4001 0.837986 0
    endloop
  endfacet
  facet normal -0.83867 0.54464 0
    outer loop
      vertex -24.7303 2.35 0
      vertex -24.4624 2.76259 5.2
      vertex -24.4624 2.76259 0
    endloop
  endfacet
  facet normal -0.83867 0.54464 0
    outer loop
      vertex -24.7303 2.35 0
      vertex -24.7303 2.35 5.2
      vertex -24.4624 2.76259 5.2
    endloop
  endfacet
  facet normal -0 0 1
    outer loop
      vertex -24.7303 2.35 5.2
      vertex -22.4001 0.837986 5.2
      vertex -24.4624 2.76259 5.2
    endloop
  endfacet
  facet normal 0 0 -1
    outer loop
      vertex -24.9537 -1.91166 0
      vertex -22.4001 -0.837986 0
      vertex -24.7303 -2.35 0
    endloop
  endfacet
  facet normal -0.891007 -0.453989 0
    outer loop
      vertex -24.9537 -1.91166 0
      vertex -24.7303 -2.35 0
      vertex -24.9537 -1.91166 5.2
    endloop
  endfacet
  facet normal -0.891007 -0.453989 0
    outer loop
      vertex -24.9537 -1.91166 5.2
      vertex -24.7303 -2.35 0
      vertex -24.7303 -2.35 5.2
    endloop
  endfacet
  facet normal 0 0 1
    outer loop
      vertex -24.9537 -1.91166 5.2
      vertex -24.7303 -2.35 5.2
      vertex -22.4001 -0.837986 5.2
    endloop
  endfacet
  facet normal 0 0 -1
    outer loop
      vertex -24.9537 1.91166 0
      vertex -24.7303 2.35 0
      vertex -22.4001 0.837986 0
    endloop
  endfacet
  facet normal -0.891007 0.453989 0
    outer loop
      vertex -24.9537 1.91166 0
      vertex -24.7303 2.35 5.2
      vertex -24.7303 2.35 0
    endloop
  endfacet
  facet normal -0.891007 0.453989 0
    outer loop
      vertex -24.9537 1.91166 0
      vertex -24.9537 1.91166 5.2
      vertex -24.7303 2.35 5.2
    endloop
  endfacet
  facet normal -0 0 1
    outer loop
      vertex -24.9537 1.91166 5.2
      vertex -22.4001 0.837986 5.2
      vertex -24.7303 2.35 5.2
    endloop
  endfacet
  facet normal 0 0 -1
    outer loop
      vertex -25.13 -1.45238 0
      vertex -22.4001 -0.837986 0
      vertex -24.9537 -1.91166 0
    endloop
  endfacet
  facet normal -0.933581 -0.358368 0
    outer loop
      vertex -25.13 -1.45238 0
      vertex -24.9537 -1.91166 0
      vertex -25.13 -1.45238 5.2
    endloop
  endfacet
  facet normal -0.933581 -0.358368 0
    outer loop
      vertex -25.13 -1.45238 5.2
      vertex -24.9537 -1.91166 0
      vertex -24.9537 -1.91166 5.2
    endloop
  endfacet
  facet normal 0 0 1
    outer loop
      vertex -25.13 -1.45238 5.2
      vertex -24.9537 -1.91166 5.2
      vertex -22.4001 -0.837986 5.2
    endloop
  endfacet
  facet normal 0 0 -1
    outer loop
      vertex -25.13 1.45238 0
      vertex -24.9537 1.91166 0
      vertex -22.4001 0.837986 0
    endloop
  endfacet
  facet normal -0.933581 0.358368 0
    outer loop
      vertex -25.13 1.45238 0
      vertex -24.9537 1.91166 5.2
      vertex -24.9537 1.91166 0
    endloop
  endfacet
  facet normal -0.933581 0.358368 0
    outer loop
      vertex -25.13 1.45238 0
      vertex -25.13 1.45238 5.2
      vertex -24.9537 1.91166 5.2
    endloop
  endfacet
  facet normal -0 0 1
    outer loop
      vertex -25.13 1.45238 5.2
      vertex -22.4001 0.837986 5.2
      vertex -24.9537 1.91166 5.2
    endloop
  endfacet
  facet normal 0 0 -1
    outer loop
      vertex -25.2573 -0.977184 0
      vertex -22.4001 -0.837986 0
      vertex -25.13 -1.45238 0
    endloop
  endfacet
  facet normal -0.965925 -0.258821 0
    outer loop
      vertex -25.2573 -0.977184 0
      vertex -25.13 -1.45238 0
      vertex -25.2573 -0.977184 5.2
    endloop
  endfacet
  facet normal -0.965925 -0.258821 0
    outer loop
      vertex -25.2573 -0.977184 5.2
      vertex -25.13 -1.45238 0
      vertex -25.13 -1.45238 5.2
    endloop
  endfacet
  facet normal 0 0 1
    outer loop
      vertex -25.2573 -0.977184 5.2
      vertex -25.13 -1.45238 5.2
      vertex -22.4001 -0.837986 5.2
    endloop
  endfacet
  facet normal 0 0 -1
    outer loop
      vertex -25.2573 0.977184 0
      vertex -25.13 1.45238 0
      vertex -22.4001 0.837986 0
    endloop
  endfacet
  facet normal -0.965925 0.258821 0
    outer loop
      vertex -25.2573 0.977184 0
      vertex -25.13 1.45238 5.2
      vertex -25.13 1.45238 0
    endloop
  endfacet
  facet normal -0.965925 0.258821 0
    outer loop
      vertex -25.2573 0.977184 0
      vertex -25.2573 0.977184 5.2
      vertex -25.13 1.45238 5.2
    endloop
  endfacet
  facet normal -0 0 1
    outer loop
      vertex -25.2573 0.977184 5.2
      vertex -22.4001 0.837986 5.2
      vertex -25.13 1.45238 5.2
    endloop
  endfacet
  facet normal 0 0 -1
    outer loop
      vertex -25.3343 -0.491283 0
      vertex -22.4001 -0.837986 0
      vertex -25.2573 -0.977184 0
    endloop
  endfacet
  facet normal -0.987689 -0.156432 0
    outer loop
      vertex -25.3343 -0.491283 0
      vertex -25.2573 -0.977184 0
      vertex -25.3343 -0.491283 5.2
    endloop
  endfacet
  facet normal -0.987689 -0.156432 0
    outer loop
      vertex -25.3343 -0.491283 5.2
      vertex -25.2573 -0.977184 0
      vertex -25.2573 -0.977184 5.2
    endloop
  endfacet
  facet normal 0 0 1
    outer loop
      vertex -25.3343 -0.491283 5.2
      vertex -25.2573 -0.977184 5.2
      vertex -22.4001 -0.837986 5.2
    endloop
  endfacet
  facet normal -0 0 -1
    outer loop
      vertex -25.3343 0.491283 0
      vertex -25.2573 0.977184 0
      vertex -22.4001 0.837986 0
    endloop
  endfacet
  facet normal -0.987689 0.156432 0
    outer loop
      vertex -25.3343 0.491283 0
      vertex -25.2573 0.977184 5.2
      vertex -25.2573 0.977184 0
    endloop
  endfacet
  facet normal -0.987689 0.156432 0
    outer loop
      vertex -25.3343 0.491283 0
      vertex -25.3343 0.491283 5.2
      vertex -25.2573 0.977184 5.2
    endloop
  endfacet
  facet normal 0 0 1
    outer loop
      vertex -25.3343 0.491283 5.2
      vertex -22.4001 0.837986 5.2
      vertex -25.2573 0.977184 5.2
    endloop
  endfacet
  facet normal 0 0 -1
    outer loop
      vertex -25.36 0 0
      vertex -22.4001 -0.837986 0
      vertex -25.3343 -0.491283 0
    endloop
  endfacet
  facet normal 0 0 -1
    outer loop
      vertex -25.36 0 0
      vertex -22.4001 0.837986 0
      vertex -22.4001 -0.837986 0
    endloop
  endfacet
  facet normal -0.998629 -0.0523403 0
    outer loop
      vertex -25.36 0 0
      vertex -25.3343 -0.491283 0
      vertex -25.36 0 5.2
    endloop
  endfacet
  facet normal 0 0 -1
    outer loop
      vertex -25.36 0 0
      vertex -25.3343 0.491283 0
      vertex -22.4001 0.837986 0
    endloop
  endfacet
  facet normal -0.998629 0.0523403 0
    outer loop
      vertex -25.36 0 0
      vertex -25.3343 0.491283 5.2
      vertex -25.3343 0.491283 0
    endloop
  endfacet
  facet normal -0.998629 0.0523403 0
    outer loop
      vertex -25.36 0 0
      vertex -25.36 0 5.2
      vertex -25.3343 0.491283 5.2
    endloop
  endfacet
  facet normal 0 0 1
    outer loop
      vertex -25.36 0 5.2
      vertex -22.4001 -0.837986 5.2
      vertex -22.4001 0.837986 5.2
    endloop
  endfacet
  facet normal 0 0 1
    outer loop
      vertex -25.36 0 5.2
      vertex -22.4001 0.837986 5.2
      vertex -25.3343 0.491283 5.2
    endloop
  endfacet
  facet normal -0.998629 -0.0523403 0
    outer loop
      vertex -25.36 0 5.2
      vertex -25.3343 -0.491283 0
      vertex -25.3343 -0.491283 5.2
    endloop
  endfacet
  facet normal 0 0 1
    outer loop
      vertex -25.36 0 5.2
      vertex -25.3343 -0.491283 5.2
      vertex -22.4001 -0.837986 5.2
    endloop
  endfacet
  facet normal -1 -0 0
    outer loop
      vertex 17.51 -4.7 4
      vertex 17.51 -4.7 5.2
      vertex 17.51 4.7 5.2
    endloop
  endfacet
  facet normal -1 0 0
    outer loop
      vertex 17.51 -4.7 4
      vertex 17.51 4.7 5.2
      vertex 17.51 4.7 4
    endloop
  endfacet
  facet normal 0 -1 0
    outer loop
      vertex 17.51 -4.7 4
      vertex 20.66 -4.7 0
      vertex 20.66 -4.7 5.2
    endloop
  endfacet
  facet normal 0 -1 0
    outer loop
      vertex 17.51 -4.7 4
      vertex 20.66 -4.7 5.2
      vertex 17.51 -4.7 5.2
    endloop
  endfacet
  facet normal 0 0 1
    outer loop
      vertex 17.51 -4.7 5.2
      vertex 18.9199 -0.837986 5.2
      vertex 17.51 4.7 5.2
    endloop
  endfacet
  facet normal 0 0 1
    outer loop
      vertex 17.51 -4.7 5.2
      vertex 20.2302 -1.88294 5.2
      vertex 18.9199 -0.837986 5.2
    endloop
  endfacet
  facet normal 0 0 1
    outer loop
      vertex 17.51 -4.7 5.2
      vertex 20.66 -4.7 5.2
      vertex 20.2302 -1.88294 5.2
    endloop
  endfacet
  facet normal 0 1 0
    outer loop
      vertex 17.51 4.7 4
      vertex 17.51 4.7 5.2
      vertex 20.66 4.7 5.2
    endloop
  endfacet
  facet normal 0 1 -0
    outer loop
      vertex 17.51 4.7 4
      vertex 20.66 4.7 5.2
      vertex 20.66 4.7 0
    endloop
  endfacet
  facet normal 0 0 1
    outer loop
      vertex 17.51 4.7 5.2
      vertex 18.9199 -0.837986 5.2
      vertex 18.9199 0.837986 5.2
    endloop
  endfacet
  facet normal 0 0 1
    outer loop
      vertex 17.51 4.7 5.2
      vertex 18.9199 0.837986 5.2
      vertex 20.2302 1.88294 5.2
    endloop
  endfacet
  facet normal -0 0 1
    outer loop
      vertex 17.51 4.7 5.2
      vertex 20.2302 1.88294 5.2
      vertex 20.66 4.7 5.2
    endloop
  endfacet
  facet normal 0.62349 0.781832 0
    outer loop
      vertex 18.9199 -0.837986 0
      vertex 18.9199 -0.837986 5.2
      vertex 20.2302 -1.88294 0
    endloop
  endfacet
  facet normal 1 0 0
    outer loop
      vertex 18.9199 -0.837986 0
      vertex 18.9199 0.837986 0
      vertex 18.9199 -0.837986 5.2
    endloop
  endfacet
  facet normal 0 0 -1
    outer loop
      vertex 18.9199 -0.837986 0
      vertex 20.2302 -1.88294 0
      vertex 20.66 -4.7 0
    endloop
  endfacet
  facet normal 1 -0 0
    outer loop
      vertex 18.9199 -0.837986 5.2
      vertex 18.9199 0.837986 0
      vertex 18.9199 0.837986 5.2
    endloop
  endfacet
  facet normal 0.62349 0.781832 -0
    outer loop
      vertex 18.9199 -0.837986 5.2
      vertex 20.2302 -1.88294 5.2
      vertex 20.2302 -1.88294 0
    endloop
  endfacet
  facet normal 0.62349 -0.781832 0
    outer loop
      vertex 18.9199 0.837986 0
      vertex 20.2302 1.88294 0
      vertex 20.2302 1.88294 5.2
    endloop
  endfacet
  facet normal 0.62349 -0.781832 0
    outer loop
      vertex 18.9199 0.837986 0
      vertex 20.2302 1.88294 5.2
      vertex 18.9199 0.837986 5.2
    endloop
  endfacet
  facet normal 0 0 -1
    outer loop
      vertex 18.9199 0.837986 0
      vertex 20.66 4.7 0
      vertex 20.2302 1.88294 0
    endloop
  endfacet
  facet normal -0.222521 0.974928 0
    outer loop
      vertex 20.2302 -1.88294 0
      vertex 20.2302 -1.88294 5.2
      vertex 21.8642 -1.51 0
    endloop
  endfacet
  facet normal 0 0 -1
    outer loop
      vertex 20.2302 -1.88294 0
      vertex 21.1513 -4.67425 0
      vertex 20.66 -4.7 0
    endloop
  endfacet
  facet normal 0 0 -1
    outer loop
      vertex 20.2302 -1.88294 0
      vertex 21.6372 -4.59729 0
      vertex 21.1513 -4.67425 0
    endloop
  endfacet
  facet normal 0 0 -1
    outer loop
      vertex 20.2302 -1.88294 0
      vertex 21.8642 -1.51 0
      vertex 21.6372 -4.59729 0
    endloop
  endfacet
  facet normal 0 0 1
    outer loop
      vertex 20.2302 -1.88294 5.2
      vertex 20.66 -4.7 5.2
      vertex 21.1513 -4.67425 5.2
    endloop
  endfacet
  facet normal 0 0 1
    outer loop
      vertex 20.2302 -1.88294 5.2
      vertex 21.1513 -4.67425 5.2
      vertex 21.6372 -4.59729 5.2
    endloop
  endfacet
  facet normal -0 0 1
    outer loop
      vertex 20.2302 -1.88294 5.2
      vertex 21.6372 -4.59729 5.2
      vertex 21.8642 -1.51 5.2
    endloop
  endfacet
  facet normal -0.222521 0.974928 0
    outer loop
      vertex 20.2302 -1.88294 5.2
      vertex 21.8642 -1.51 5.2
      vertex 21.8642 -1.51 0
    endloop
  endfacet
  facet normal -0 0 -1
    outer loop
      vertex 20.2302 1.88294 0
      vertex 20.66 4.7 0
      vertex 21.1513 4.67425 0
    endloop
  endfacet
  facet normal -0 0 -1
    outer loop
      vertex 20.2302 1.88294 0
      vertex 21.1513 4.67425 0
      vertex 21.6372 4.59729 0
    endloop
  endfacet
  facet normal 0 0 -1
    outer loop
      vertex 20.2302 1.88294 0
      vertex 21.6372 4.59729 0
      vertex 21.8642 1.51 0
    endloop
  endfacet
  facet normal -0.222521 -0.974928 -0
    outer loop
      vertex 20.2302 1.88294 0
      vertex 21.8642 1.51 0
      vertex 21.8642 1.51 5.2
    endloop
  endfacet
  facet normal -0.222521 -0.974928 0
    outer loop
      vertex 20.2302 1.88294 0
      vertex 21.8642 1.51 5.2
      vertex 20.2302 1.88294 5.2
    endloop
  endfacet
  facet normal 0 0 1
    outer loop
      vertex 20.2302 1.88294 5.2
      vertex 21.1513 4.67425 5.2
      vertex 20.66 4.7 5.2
    endloop
  endfacet
  facet normal 0 0 1
    outer loop
      vertex 20.2302 1.88294 5.2
      vertex 21.6372 4.59729 5.2
      vertex 21.1513 4.67425 5.2
    endloop
  endfacet
  facet normal 0 0 1
    outer loop
      vertex 20.2302 1.88294 5.2
      vertex 21.8642 1.51 5.2
      vertex 21.6372 4.59729 5.2
    endloop
  endfacet
  facet normal 0.0523364 -0.99863 0
    outer loop
      vertex 20.66 -4.7 0
      vertex 21.1513 -4.67425 0
      vertex 21.1513 -4.67425 5.2
    endloop
  endfacet
  facet normal 0.0523364 -0.99863 0
    outer loop
      vertex 20.66 -4.7 0
      vertex 21.1513 -4.67425 5.2
      vertex 20.66 -4.7 5.2
    endloop
  endfacet
  facet normal 0.0523364 0.99863 0
    outer loop
      vertex 20.66 4.7 0
      vertex 20.66 4.7 5.2
      vertex 21.1513 4.67425 0
    endloop
  endfacet
  facet normal 0.0523364 0.99863 -0
    outer loop
      vertex 20.66 4.7 5.2
      vertex 21.1513 4.67425 5.2
      vertex 21.1513 4.67425 0
    endloop
  endfacet
  facet normal 0.156435 -0.987688 0
    outer loop
      vertex 21.1513 -4.67425 0
      vertex 21.6372 -4.59729 0
      vertex 21.6372 -4.59729 5.2
    endloop
  endfacet
  facet normal 0.156435 -0.987688 0
    outer loop
      vertex 21.1513 -4.67425 0
      vertex 21.6372 -4.59729 5.2
      vertex 21.1513 -4.67425 5.2
    endloop
  endfacet
  facet normal 0.156435 0.987688 0
    outer loop
      vertex 21.1513 4.67425 0
      vertex 21.1513 4.67425 5.2
      vertex 21.6372 4.59729 0
    endloop
  endfacet
  facet normal 0.156435 0.987688 -0
    outer loop
      vertex 21.1513 4.67425 5.2
      vertex 21.6372 4.59729 5.2
      vertex 21.6372 4.59729 0
    endloop
  endfacet
  facet normal 0 0 -1
    outer loop
      vertex 21.6372 -4.59729 0
      vertex 21.8642 -1.51 0
      vertex 22.1124 -4.46996 0
    endloop
  endfacet
  facet normal 0.258819 -0.965926 0
    outer loop
      vertex 21.6372 -4.59729 0
      vertex 22.1124 -4.46996 0
      vertex 22.1124 -4.46996 5.2
    endloop
  endfacet
  facet normal 0.258819 -0.965926 0
    outer loop
      vertex 21.6372 -4.59729 0
      vertex 22.1124 -4.46996 5.2
      vertex 21.6372 -4.59729 5.2
    endloop
  endfacet
  facet normal 0 0 1
    outer loop
      vertex 21.6372 -4.59729 5.2
      vertex 22.1124 -4.46996 5.2
      vertex 21.8642 -1.51 5.2
    endloop
  endfacet
  facet normal 0.258819 0.965926 0
    outer loop
      vertex 21.6372 4.59729 0
      vertex 21.6372 4.59729 5.2
      vertex 22.1124 4.46996 0
    endloop
  endfacet
  facet normal 0 0 -1
    outer loop
      vertex 21.6372 4.59729 0
      vertex 22.1124 4.46996 0
      vertex 21.8642 1.51 0
    endloop
  endfacet
  facet normal 0 0 1
    outer loop
      vertex 21.6372 4.59729 5.2
      vertex 21.8642 1.51 5.2
      vertex 22.1124 4.46996 5.2
    endloop
  endfacet
  facet normal 0.258819 0.965926 -0
    outer loop
      vertex 21.6372 4.59729 5.2
      vertex 22.1124 4.46996 5.2
      vertex 22.1124 4.46996 0
    endloop
  endfacet
  facet normal -0.900969 0.433883 0
    outer loop
      vertex 21.8642 -1.51 0
      vertex 21.8642 -1.51 5.2
      vertex 22.5914 0 5.2
    endloop
  endfacet
  facet normal 0 0 -1
    outer loop
      vertex 21.8642 -1.51 0
      vertex 22.5717 -4.29366 0
      vertex 22.1124 -4.46996 0
    endloop
  endfacet
  facet normal 0 0 -1
    outer loop
      vertex 21.8642 -1.51 0
      vertex 22.5914 0 0
      vertex 24.9537 -1.91166 0
    endloop
  endfacet
  facet normal -0.900969 0.433883 0
    outer loop
      vertex 21.8642 -1.51 0
      vertex 22.5914 0 5.2
      vertex 22.5914 0 0
    endloop
  endfacet
  facet normal 0 0 -1
    outer loop
      vertex 21.8642 -1.51 0
      vertex 23.01 -4.07032 0
      vertex 22.5717 -4.29366 0
    endloop
  endfacet
  facet normal 0 0 -1
    outer loop
      vertex 21.8642 -1.51 0
      vertex 23.4226 -3.80238 0
      vertex 23.01 -4.07032 0
    endloop
  endfacet
  facet normal 0 0 -1
    outer loop
      vertex 21.8642 -1.51 0
      vertex 23.8049 -3.49278 0
      vertex 23.4226 -3.80238 0
    endloop
  endfacet
  facet normal 0 0 -1
    outer loop
      vertex 21.8642 -1.51 0
      vertex 24.1528 -3.14491 0
      vertex 23.8049 -3.49278 0
    endloop
  endfacet
  facet normal 0 0 -1
    outer loop
      vertex 21.8642 -1.51 0
      vertex 24.4624 -2.76259 0
      vertex 24.1528 -3.14491 0
    endloop
  endfacet
  facet normal 0 0 -1
    outer loop
      vertex 21.8642 -1.51 0
      vertex 24.7303 -2.35 0
      vertex 24.4624 -2.76259 0
    endloop
  endfacet
  facet normal 0 0 -1
    outer loop
      vertex 21.8642 -1.51 0
      vertex 24.9537 -1.91166 0
      vertex 24.7303 -2.35 0
    endloop
  endfacet
  facet normal 0 0 1
    outer loop
      vertex 21.8642 -1.51 5.2
      vertex 22.1124 -4.46996 5.2
      vertex 22.5717 -4.29366 5.2
    endloop
  endfacet
  facet normal 0 0 1
    outer loop
      vertex 21.8642 -1.51 5.2
      vertex 22.5717 -4.29366 5.2
      vertex 23.01 -4.07032 5.2
    endloop
  endfacet
  facet normal 0 0 1
    outer loop
      vertex 21.8642 -1.51 5.2
      vertex 23.01 -4.07032 5.2
      vertex 23.4226 -3.80238 5.2
    endloop
  endfacet
  facet normal 0 0 1
    outer loop
      vertex 21.8642 -1.51 5.2
      vertex 23.4226 -3.80238 5.2
      vertex 23.8049 -3.49278 5.2
    endloop
  endfacet
  facet normal 0 0 1
    outer loop
      vertex 21.8642 -1.51 5.2
      vertex 23.8049 -3.49278 5.2
      vertex 24.1528 -3.14491 5.2
    endloop
  endfacet
  facet normal 0 0 1
    outer loop
      vertex 21.8642 -1.51 5.2
      vertex 24.1528 -3.14491 5.2
      vertex 24.4624 -2.76259 5.2
    endloop
  endfacet
  facet normal 0 0 1
    outer loop
      vertex 21.8642 -1.51 5.2
      vertex 24.4624 -2.76259 5.2
      vertex 24.7303 -2.35 5.2
    endloop
  endfacet
  facet normal 0 0 1
    outer loop
      vertex 21.8642 -1.51 5.2
      vertex 24.7303 -2.35 5.2
      vertex 24.9537 -1.91166 5.2
    endloop
  endfacet
  facet normal -0 0 1
    outer loop
      vertex 21.8642 -1.51 5.2
      vertex 24.9537 -1.91166 5.2
      vertex 22.5914 0 5.2
    endloop
  endfacet
  facet normal -0 0 -1
    outer loop
      vertex 21.8642 1.51 0
      vertex 22.1124 4.46996 0
      vertex 22.5717 4.29366 0
    endloop
  endfacet
  facet normal -0 0 -1
    outer loop
      vertex 21.8642 1.51 0
      vertex 22.5717 4.29366 0
      vertex 23.01 4.07032 0
    endloop
  endfacet
  facet normal -0.900969 -0.433883 0
    outer loop
      vertex 21.8642 1.51 0
      vertex 22.5914 0 0
      vertex 21.8642 1.51 5.2
    endloop
  endfacet
  facet normal -0 0 -1
    outer loop
      vertex 21.8642 1.51 0
      vertex 23.01 4.07032 0
      vertex 23.4226 3.80238 0
    endloop
  endfacet
  facet normal -0 0 -1
    outer loop
      vertex 21.8642 1.51 0
      vertex 23.4226 3.80238 0
      vertex 23.8049 3.49278 0
    endloop
  endfacet
  facet normal -0 0 -1
    outer loop
      vertex 21.8642 1.51 0
      vertex 23.8049 3.49278 0
      vertex 24.1528 3.14491 0
    endloop
  endfacet
  facet normal -0 0 -1
    outer loop
      vertex 21.8642 1.51 0
      vertex 24.1528 3.14491 0
      vertex 24.4624 2.76259 0
    endloop
  endfacet
  facet normal -0 0 -1
    outer loop
      vertex 21.8642 1.51 0
      vertex 24.4624 2.76259 0
      vertex 24.7303 2.35 0
    endloop
  endfacet
  facet normal -0 0 -1
    outer loop
      vertex 21.8642 1.51 0
      vertex 24.7303 2.35 0
      vertex 24.9537 1.91166 0
    endloop
  endfacet
  facet normal 0 0 -1
    outer loop
      vertex 21.8642 1.51 0
      vertex 24.9537 1.91166 0
      vertex 22.5914 0 0
    endloop
  endfacet
  facet normal 0 0 1
    outer loop
      vertex 21.8642 1.51 5.2
      vertex 22.5717 4.29366 5.2
      vertex 22.1124 4.46996 5.2
    endloop
  endfacet
  facet normal -0.900969 -0.433883 0
    outer loop
      vertex 21.8642 1.51 5.2
      vertex 22.5914 0 0
      vertex 22.5914 0 5.2
    endloop
  endfacet
  facet normal 0 0 1
    outer loop
      vertex 21.8642 1.51 5.2
      vertex 22.5914 0 5.2
      vertex 24.9537 1.91166 5.2
    endloop
  endfacet
  facet normal 0 0 1
    outer loop
      vertex 21.8642 1.51 5.2
      vertex 23.01 4.07032 5.2
      vertex 22.5717 4.29366 5.2
    endloop
  endfacet
  facet normal 0 0 1
    outer loop
      vertex 21.8642 1.51 5.2
      vertex 23.4226 3.80238 5.2
      vertex 23.01 4.07032 5.2
    endloop
  endfacet
  facet normal 0 0 1
    outer loop
      vertex 21.8642 1.51 5.2
      vertex 23.8049 3.49278 5.2
      vertex 23.4226 3.80238 5.2
    endloop
  endfacet
  facet normal 0 0 1
    outer loop
      vertex 21.8642 1.51 5.2
      vertex 24.1528 3.14491 5.2
      vertex 23.8049 3.49278 5.2
    endloop
  endfacet
  facet normal 0 0 1
    outer loop
      vertex 21.8642 1.51 5.2
      vertex 24.4624 2.76259 5.2
      vertex 24.1528 3.14491 5.2
    endloop
  endfacet
  facet normal 0 0 1
    outer loop
      vertex 21.8642 1.51 5.2
      vertex 24.7303 2.35 5.2
      vertex 24.4624 2.76259 5.2
    endloop
  endfacet
  facet normal 0 0 1
    outer loop
      vertex 21.8642 1.51 5.2
      vertex 24.9537 1.91166 5.2
      vertex 24.7303 2.35 5.2
    endloop
  endfacet
  facet normal 0.358367 -0.933581 0
    outer loop
      vertex 22.1124 -4.46996 0
      vertex 22.5717 -4.29366 0
      vertex 22.5717 -4.29366 5.2
    endloop
  endfacet
  facet normal 0.358367 -0.933581 0
    outer loop
      vertex 22.1124 -4.46996 0
      vertex 22.5717 -4.29366 5.2
      vertex 22.1124 -4.46996 5.2
    endloop
  endfacet
  facet normal 0.358367 0.933581 0
    outer loop
      vertex 22.1124 4.46996 0
      vertex 22.1124 4.46996 5.2
      vertex 22.5717 4.29366 0
    endloop
  endfacet
  facet normal 0.358367 0.933581 -0
    outer loop
      vertex 22.1124 4.46996 5.2
      vertex 22.5717 4.29366 5.2
      vertex 22.5717 4.29366 0
    endloop
  endfacet
  facet normal 0.453992 -0.891006 0
    outer loop
      vertex 22.5717 -4.29366 0
      vertex 23.01 -4.07032 0
      vertex 23.01 -4.07032 5.2
    endloop
  endfacet
  facet normal 0.453992 -0.891006 0
    outer loop
      vertex 22.5717 -4.29366 0
      vertex 23.01 -4.07032 5.2
      vertex 22.5717 -4.29366 5.2
    endloop
  endfacet
  facet normal 0.453992 0.891006 0
    outer loop
      vertex 22.5717 4.29366 0
      vertex 22.5717 4.29366 5.2
      vertex 23.01 4.07032 0
    endloop
  endfacet
  facet normal 0.453992 0.891006 -0
    outer loop
      vertex 22.5717 4.29366 5.2
      vertex 23.01 4.07032 5.2
      vertex 23.01 4.07032 0
    endloop
  endfacet
  facet normal -0 0 -1
    outer loop
      vertex 22.5914 0 0
      vertex 24.9537 1.91166 0
      vertex 25.13 1.45238 0
    endloop
  endfacet
  facet normal 0 0 -1
    outer loop
      vertex 22.5914 0 0
      vertex 25.13 -1.45238 0
      vertex 24.9537 -1.91166 0
    endloop
  endfacet
  facet normal -0 0 -1
    outer loop
      vertex 22.5914 0 0
      vertex 25.13 1.45238 0
      vertex 25.2573 0.977184 0
    endloop
  endfacet
  facet normal 0 0 -1
    outer loop
      vertex 22.5914 0 0
      vertex 25.2573 -0.977184 0
      vertex 25.13 -1.45238 0
    endloop
  endfacet
  facet normal -0 0 -1
    outer loop
      vertex 22.5914 0 0
      vertex 25.2573 0.977184 0
      vertex 25.3343 0.491283 0
    endloop
  endfacet
  facet normal 0 0 -1
    outer loop
      vertex 22.5914 0 0
      vertex 25.3343 -0.491283 0
      vertex 25.2573 -0.977184 0
    endloop
  endfacet
  facet normal 0 0 -1
    outer loop
      vertex 22.5914 0 0
      vertex 25.3343 0.491283 0
      vertex 25.36 0 0
    endloop
  endfacet
  facet normal 0 0 -1
    outer loop
      vertex 22.5914 0 0
      vertex 25.36 0 0
      vertex 25.3343 -0.491283 0
    endloop
  endfacet
  facet normal 0 0 1
    outer loop
      vertex 22.5914 0 5.2
      vertex 24.9537 -1.91166 5.2
      vertex 25.13 -1.45238 5.2
    endloop
  endfacet
  facet normal 0 0 1
    outer loop
      vertex 22.5914 0 5.2
      vertex 25.13 -1.45238 5.2
      vertex 25.2573 -0.977184 5.2
    endloop
  endfacet
  facet normal 0 0 1
    outer loop
      vertex 22.5914 0 5.2
      vertex 25.13 1.45238 5.2
      vertex 24.9537 1.91166 5.2
    endloop
  endfacet
  facet normal 0 0 1
    outer loop
      vertex 22.5914 0 5.2
      vertex 25.2573 -0.977184 5.2
      vertex 25.3343 -0.491283 5.2
    endloop
  endfacet
  facet normal 0 0 1
    outer loop
      vertex 22.5914 0 5.2
      vertex 25.2573 0.977184 5.2
      vertex 25.13 1.45238 5.2
    endloop
  endfacet
  facet normal 0 0 1
    outer loop
      vertex 22.5914 0 5.2
      vertex 25.3343 -0.491283 5.2
      vertex 25.36 0 5.2
    endloop
  endfacet
  facet normal 0 0 1
    outer loop
      vertex 22.5914 0 5.2
      vertex 25.3343 0.491283 5.2
      vertex 25.2573 0.977184 5.2
    endloop
  endfacet
  facet normal 0 0 1
    outer loop
      vertex 22.5914 0 5.2
      vertex 25.36 0 5.2
      vertex 25.3343 0.491283 5.2
    endloop
  endfacet
  facet normal 0.544638 -0.838671 0
    outer loop
      vertex 23.01 -4.07032 0
      vertex 23.4226 -3.80238 0
      vertex 23.4226 -3.80238 5.2
    endloop
  endfacet
  facet normal 0.544638 -0.838671 0
    outer loop
      vertex 23.01 -4.07032 0
      vertex 23.4226 -3.80238 5.2
      vertex 23.01 -4.07032 5.2
    endloop
  endfacet
  facet normal 0.544638 0.838671 0
    outer loop
      vertex 23.01 4.07032 0
      vertex 23.01 4.07032 5.2
      vertex 23.4226 3.80238 0
    endloop
  endfacet
  facet normal 0.544638 0.838671 -0
    outer loop
      vertex 23.01 4.07032 5.2
      vertex 23.4226 3.80238 5.2
      vertex 23.4226 3.80238 0
    endloop
  endfacet
  facet normal 0.629322 -0.777145 0
    outer loop
      vertex 23.4226 -3.80238 0
      vertex 23.8049 -3.49278 0
      vertex 23.8049 -3.49278 5.2
    endloop
  endfacet
  facet normal 0.629322 -0.777145 0
    outer loop
      vertex 23.4226 -3.80238 0
      vertex 23.8049 -3.49278 5.2
      vertex 23.4226 -3.80238 5.2
    endloop
  endfacet
  facet normal 0.629322 0.777145 0
    outer loop
      vertex 23.4226 3.80238 0
      vertex 23.4226 3.80238 5.2
      vertex 23.8049 3.49278 0
    endloop
  endfacet
  facet normal 0.629322 0.777145 -0
    outer loop
      vertex 23.4226 3.80238 5.2
      vertex 23.8049 3.49278 5.2
      vertex 23.8049 3.49278 0
    endloop
  endfacet
  facet normal 0.707105 -0.707109 0
    outer loop
      vertex 23.8049 -3.49278 0
      vertex 24.1528 -3.14491 0
      vertex 24.1528 -3.14491 5.2
    endloop
  endfacet
  facet normal 0.707105 -0.707109 0
    outer loop
      vertex 23.8049 -3.49278 0
      vertex 24.1528 -3.14491 5.2
      vertex 23.8049 -3.49278 5.2
    endloop
  endfacet
  facet normal 0.707105 0.707109 0
    outer loop
      vertex 23.8049 3.49278 0
      vertex 23.8049 3.49278 5.2
      vertex 24.1528 3.14491 0
    endloop
  endfacet
  facet normal 0.707105 0.707109 -0
    outer loop
      vertex 23.8049 3.49278 5.2
      vertex 24.1528 3.14491 5.2
      vertex 24.1528 3.14491 0
    endloop
  endfacet
  facet normal 0.777146 -0.62932 0
    outer loop
      vertex 24.1528 -3.14491 0
      vertex 24.4624 -2.76259 0
      vertex 24.1528 -3.14491 5.2
    endloop
  endfacet
  facet normal 0.777146 -0.62932 0
    outer loop
      vertex 24.1528 -3.14491 5.2
      vertex 24.4624 -2.76259 0
      vertex 24.4624 -2.76259 5.2
    endloop
  endfacet
  facet normal 0.777146 0.62932 0
    outer loop
      vertex 24.1528 3.14491 0
      vertex 24.1528 3.14491 5.2
      vertex 24.4624 2.76259 5.2
    endloop
  endfacet
  facet normal 0.777146 0.62932 0
    outer loop
      vertex 24.1528 3.14491 0
      vertex 24.4624 2.76259 5.2
      vertex 24.4624 2.76259 0
    endloop
  endfacet
  facet normal 0.83867 -0.54464 0
    outer loop
      vertex 24.4624 -2.76259 0
      vertex 24.7303 -2.35 0
      vertex 24.4624 -2.76259 5.2
    endloop
  endfacet
  facet normal 0.83867 -0.54464 0
    outer loop
      vertex 24.4624 -2.76259 5.2
      vertex 24.7303 -2.35 0
      vertex 24.7303 -2.35 5.2
    endloop
  endfacet
  facet normal 0.83867 0.54464 0
    outer loop
      vertex 24.4624 2.76259 0
      vertex 24.4624 2.76259 5.2
      vertex 24.7303 2.35 5.2
    endloop
  endfacet
  facet normal 0.83867 0.54464 0
    outer loop
      vertex 24.4624 2.76259 0
      vertex 24.7303 2.35 5.2
      vertex 24.7303 2.35 0
    endloop
  endfacet
  facet normal 0.891007 -0.453989 0
    outer loop
      vertex 24.7303 -2.35 0
      vertex 24.9537 -1.91166 0
      vertex 24.7303 -2.35 5.2
    endloop
  endfacet
  facet normal 0.891007 -0.453989 0
    outer loop
      vertex 24.7303 -2.35 5.2
      vertex 24.9537 -1.91166 0
      vertex 24.9537 -1.91166 5.2
    endloop
  endfacet
  facet normal 0.891007 0.453989 0
    outer loop
      vertex 24.7303 2.35 0
      vertex 24.7303 2.35 5.2
      vertex 24.9537 1.91166 5.2
    endloop
  endfacet
  facet normal 0.891007 0.453989 0
    outer loop
      vertex 24.7303 2.35 0
      vertex 24.9537 1.91166 5.2
      vertex 24.9537 1.91166 0
    endloop
  endfacet
  facet normal 0.933581 -0.358368 0
    outer loop
      vertex 24.9537 -1.91166 0
      vertex 25.13 -1.45238 0
      vertex 24.9537 -1.91166 5.2
    endloop
  endfacet
  facet normal 0.933581 -0.358368 0
    outer loop
      vertex 24.9537 -1.91166 5.2
      vertex 25.13 -1.45238 0
      vertex 25.13 -1.45238 5.2
    endloop
  endfacet
  facet normal 0.933581 0.358368 0
    outer loop
      vertex 24.9537 1.91166 0
      vertex 24.9537 1.91166 5.2
      vertex 25.13 1.45238 5.2
    endloop
  endfacet
  facet normal 0.933581 0.358368 0
    outer loop
      vertex 24.9537 1.91166 0
      vertex 25.13 1.45238 5.2
      vertex 25.13 1.45238 0
    endloop
  endfacet
  facet normal 0.965925 -0.258821 0
    outer loop
      vertex 25.13 -1.45238 0
      vertex 25.2573 -0.977184 0
      vertex 25.13 -1.45238 5.2
    endloop
  endfacet
  facet normal 0.965925 -0.258821 0
    outer loop
      vertex 25.13 -1.45238 5.2
      vertex 25.2573 -0.977184 0
      vertex 25.2573 -0.977184 5.2
    endloop
  endfacet
  facet normal 0.965925 0.258821 0
    outer loop
      vertex 25.13 1.45238 0
      vertex 25.13 1.45238 5.2
      vertex 25.2573 0.977184 5.2
    endloop
  endfacet
  facet normal 0.965925 0.258821 0
    outer loop
      vertex 25.13 1.45238 0
      vertex 25.2573 0.977184 5.2
      vertex 25.2573 0.977184 0
    endloop
  endfacet
  facet normal 0.987689 -0.156432 0
    outer loop
      vertex 25.2573 -0.977184 0
      vertex 25.3343 -0.491283 0
      vertex 25.2573 -0.977184 5.2
    endloop
  endfacet
  facet normal 0.987689 -0.156432 0
    outer loop
      vertex 25.2573 -0.977184 5.2
      vertex 25.3343 -0.491283 0
      vertex 25.3343 -0.491283 5.2
    endloop
  endfacet
  facet normal 0.987689 0.156432 0
    outer loop
      vertex 25.2573 0.977184 0
      vertex 25.2573 0.977184 5.2
      vertex 25.3343 0.491283 5.2
    endloop
  endfacet
  facet normal 0.987689 0.156432 0
    outer loop
      vertex 25.2573 0.977184 0
      vertex 25.3343 0.491283 5.2
      vertex 25.3343 0.491283 0
    endloop
  endfacet
  facet normal 0.998629 -0.0523403 0
    outer loop
      vertex 25.3343 -0.491283 0
      vertex 25.36 0 0
      vertex 25.3343 -0.491283 5.2
    endloop
  endfacet
  facet normal 0.998629 -0.0523403 0
    outer loop
      vertex 25.3343 -0.491283 5.2
      vertex 25.36 0 0
      vertex 25.36 0 5.2
    endloop
  endfacet
  facet normal 0.998629 0.0523403 0
    outer loop
      vertex 25.3343 0.491283 0
      vertex 25.3343 0.491283 5.2
      vertex 25.36 0 5.2
    endloop
  endfacet
  facet normal 0.998629 0.0523403 0
    outer loop
      vertex 25.3343 0.491283 0
      vertex 25.36 0 5.2
      vertex 25.36 0 0
    endloop
  endfacet
endsolid OpenSCAD_Model
