solid OpenSCAD_Model
  facet normal 0 0 -1
    outer loop
      vertex -11.1086 0 0
      vertex 11.2999 0.837986 0
      vertex 11.2999 -0.837986 0
    endloop
  endfacet
  facet normal 0 0 1
    outer loop
      vertex -11.1086 0 5.2
      vertex -9.89 -4.7 5.2
      vertex -9.89 4.7 5.2
    endloop
  endfacet
  facet normal -0 0 -1
    outer loop
      vertex -11.8358 -1.51 0
      vertex -11.1086 0 0
      vertex 11.2999 -0.837986 0
    endloop
  endfacet
  facet normal -0.900969 0.433884 0
    outer loop
      vertex -11.8358 -1.51 0
      vertex -11.1086 0 5.2
      vertex -11.1086 0 0
    endloop
  endfacet
  facet normal -0.900969 0.433884 0
    outer loop
      vertex -11.8358 -1.51 0
      vertex -11.8358 -1.51 5.2
      vertex -11.1086 0 5.2
    endloop
  endfacet
  facet normal -0 0 1
    outer loop
      vertex -11.8358 -1.51 5.2
      vertex -9.89 -4.7 5.2
      vertex -11.1086 0 5.2
    endloop
  endfacet
  facet normal -0.900969 -0.433884 0
    outer loop
      vertex -11.8358 1.51 0
      vertex -11.1086 0 0
      vertex -11.8358 1.51 5.2
    endloop
  endfacet
  facet normal 0 0 -1
    outer loop
      vertex -11.8358 1.51 0
      vertex 11.2999 0.837986 0
      vertex -11.1086 0 0
    endloop
  endfacet
  facet normal -0.900969 -0.433884 0
    outer loop
      vertex -11.8358 1.51 5.2
      vertex -11.1086 0 0
      vertex -11.1086 0 5.2
    endloop
  endfacet
  facet normal 0 0 1
    outer loop
      vertex -11.8358 1.51 5.2
      vertex -11.1086 0 5.2
      vertex -9.89 4.7 5.2
    endloop
  endfacet
  facet normal 0 0 -1
    outer loop
      vertex -13.04 -4.7 0
      vertex -11.8358 -1.51 0
      vertex 11.2999 -0.837986 0
    endloop
  endfacet
  facet normal 0 -1 0
    outer loop
      vertex -13.04 -4.7 0
      vertex -9.89 -4.7 4
      vertex -13.04 -4.7 5.2
    endloop
  endfacet
  facet normal 0 0 -1
    outer loop
      vertex -13.04 -4.7 0
      vertex 11.2999 -0.837986 0
      vertex 13.04 -4.7 0
    endloop
  endfacet
  facet normal 0 -1 0
    outer loop
      vertex -13.04 -4.7 0
      vertex 13.04 -4.7 0
      vertex 9.89 -4.7 4
    endloop
  endfacet
  facet normal 0 -1 -0
    outer loop
      vertex -13.04 -4.7 0
      vertex 9.89 -4.7 4
      vertex -9.89 -4.7 4
    endloop
  endfacet
  facet normal 0 -1 0
    outer loop
      vertex -13.04 -4.7 5.2
      vertex -9.89 -4.7 4
      vertex -9.89 -4.7 5.2
    endloop
  endfacet
  facet normal 0 0 1
    outer loop
      vertex -13.04 -4.7 5.2
      vertex -9.89 -4.7 5.2
      vertex -11.8358 -1.51 5.2
    endloop
  endfacet
  facet normal 0 1 0
    outer loop
      vertex -13.04 4.7 0
      vertex -13.04 4.7 5.2
      vertex -9.89 4.7 4
    endloop
  endfacet
  facet normal 0 1 0
    outer loop
      vertex -13.04 4.7 0
      vertex -9.89 4.7 4
      vertex 13.04 4.7 0
    endloop
  endfacet
  facet normal 0 0 -1
    outer loop
      vertex -13.04 4.7 0
      vertex 11.2999 0.837986 0
      vertex -11.8358 1.51 0
    endloop
  endfacet
  facet normal 0 0 -1
    outer loop
      vertex -13.04 4.7 0
      vertex 13.04 4.7 0
      vertex 11.2999 0.837986 0
    endloop
  endfacet
  facet normal -0 0 1
    outer loop
      vertex -13.04 4.7 5.2
      vertex -11.8358 1.51 5.2
      vertex -9.89 4.7 5.2
    endloop
  endfacet
  facet normal 0 1 -0
    outer loop
      vertex -13.04 4.7 5.2
      vertex -9.89 4.7 5.2
      vertex -9.89 4.7 4
    endloop
  endfacet
  facet normal 0 0 -1
    outer loop
      vertex -13.4698 -1.88294 0
      vertex -11.8358 -1.51 0
      vertex -13.04 -4.7 0
    endloop
  endfacet
  facet normal -0.222521 0.974928 0
    outer loop
      vertex -13.4698 -1.88294 0
      vertex -13.4698 -1.88294 5.2
      vertex -11.8358 -1.51 0
    endloop
  endfacet
  facet normal -0.222521 0.974928 0
    outer loop
      vertex -13.4698 -1.88294 5.2
      vertex -11.8358 -1.51 5.2
      vertex -11.8358 -1.51 0
    endloop
  endfacet
  facet normal -0 0 1
    outer loop
      vertex -13.4698 -1.88294 5.2
      vertex -13.04 -4.7 5.2
      vertex -11.8358 -1.51 5.2
    endloop
  endfacet
  facet normal -0.222521 -0.974928 -0
    outer loop
      vertex -13.4698 1.88294 0
      vertex -11.8358 1.51 0
      vertex -11.8358 1.51 5.2
    endloop
  endfacet
  facet normal -0.222521 -0.974928 0
    outer loop
      vertex -13.4698 1.88294 0
      vertex -11.8358 1.51 5.2
      vertex -13.4698 1.88294 5.2
    endloop
  endfacet
  facet normal 0 0 -1
    outer loop
      vertex -13.4698 1.88294 0
      vertex -13.04 4.7 0
      vertex -11.8358 1.51 0
    endloop
  endfacet
  facet normal 0 0 1
    outer loop
      vertex -13.4698 1.88294 5.2
      vertex -11.8358 1.51 5.2
      vertex -13.04 4.7 5.2
    endloop
  endfacet
  facet normal -0.0523364 -0.99863 -0
    outer loop
      vertex -13.5313 -4.67425 0
      vertex -13.04 -4.7 0
      vertex -13.04 -4.7 5.2
    endloop
  endfacet
  facet normal -0.0523364 -0.99863 0
    outer loop
      vertex -13.5313 -4.67425 0
      vertex -13.04 -4.7 5.2
      vertex -13.5313 -4.67425 5.2
    endloop
  endfacet
  facet normal 0 0 -1
    outer loop
      vertex -13.5313 -4.67425 0
      vertex -13.4698 -1.88294 0
      vertex -13.04 -4.7 0
    endloop
  endfacet
  facet normal 0 0 1
    outer loop
      vertex -13.5313 -4.67425 5.2
      vertex -13.04 -4.7 5.2
      vertex -13.4698 -1.88294 5.2
    endloop
  endfacet
  facet normal 0 0 -1
    outer loop
      vertex -13.5313 4.67425 0
      vertex -13.04 4.7 0
      vertex -13.4698 1.88294 0
    endloop
  endfacet
  facet normal -0.0523364 0.99863 0
    outer loop
      vertex -13.5313 4.67425 0
      vertex -13.5313 4.67425 5.2
      vertex -13.04 4.7 0
    endloop
  endfacet
  facet normal -0.0523364 0.99863 0
    outer loop
      vertex -13.5313 4.67425 5.2
      vertex -13.04 4.7 5.2
      vertex -13.04 4.7 0
    endloop
  endfacet
  facet normal -0 0 1
    outer loop
      vertex -13.5313 4.67425 5.2
      vertex -13.4698 1.88294 5.2
      vertex -13.04 4.7 5.2
    endloop
  endfacet
  facet normal 0 0 -1
    outer loop
      vertex -14.0172 -4.59729 0
      vertex -13.4698 -1.88294 0
      vertex -13.5313 -4.67425 0
    endloop
  endfacet
  facet normal -0.156435 -0.987688 -0
    outer loop
      vertex -14.0172 -4.59729 0
      vertex -13.5313 -4.67425 0
      vertex -13.5313 -4.67425 5.2
    endloop
  endfacet
  facet normal -0.156435 -0.987688 0
    outer loop
      vertex -14.0172 -4.59729 0
      vertex -13.5313 -4.67425 5.2
      vertex -14.0172 -4.59729 5.2
    endloop
  endfacet
  facet normal 0 0 1
    outer loop
      vertex -14.0172 -4.59729 5.2
      vertex -13.5313 -4.67425 5.2
      vertex -13.4698 -1.88294 5.2
    endloop
  endfacet
  facet normal 0 0 -1
    outer loop
      vertex -14.0172 4.59729 0
      vertex -13.5313 4.67425 0
      vertex -13.4698 1.88294 0
    endloop
  endfacet
  facet normal -0.156435 0.987688 0
    outer loop
      vertex -14.0172 4.59729 0
      vertex -14.0172 4.59729 5.2
      vertex -13.5313 4.67425 0
    endloop
  endfacet
  facet normal -0 0 1
    outer loop
      vertex -14.0172 4.59729 5.2
      vertex -13.4698 1.88294 5.2
      vertex -13.5313 4.67425 5.2
    endloop
  endfacet
  facet normal -0.156435 0.987688 0
    outer loop
      vertex -14.0172 4.59729 5.2
      vertex -13.5313 4.67425 5.2
      vertex -13.5313 4.67425 0
    endloop
  endfacet
  facet normal 0 0 -1
    outer loop
      vertex -14.4924 -4.46996 0
      vertex -13.4698 -1.88294 0
      vertex -14.0172 -4.59729 0
    endloop
  endfacet
  facet normal -0.258819 -0.965926 -0
    outer loop
      vertex -14.4924 -4.46996 0
      vertex -14.0172 -4.59729 0
      vertex -14.0172 -4.59729 5.2
    endloop
  endfacet
  facet normal -0.258819 -0.965926 0
    outer loop
      vertex -14.4924 -4.46996 0
      vertex -14.0172 -4.59729 5.2
      vertex -14.4924 -4.46996 5.2
    endloop
  endfacet
  facet normal 0 0 1
    outer loop
      vertex -14.4924 -4.46996 5.2
      vertex -14.0172 -4.59729 5.2
      vertex -13.4698 -1.88294 5.2
    endloop
  endfacet
  facet normal 0 0 -1
    outer loop
      vertex -14.4924 4.46996 0
      vertex -14.0172 4.59729 0
      vertex -13.4698 1.88294 0
    endloop
  endfacet
  facet normal -0.258819 0.965926 0
    outer loop
      vertex -14.4924 4.46996 0
      vertex -14.4924 4.46996 5.2
      vertex -14.0172 4.59729 0
    endloop
  endfacet
  facet normal -0 0 1
    outer loop
      vertex -14.4924 4.46996 5.2
      vertex -13.4698 1.88294 5.2
      vertex -14.0172 4.59729 5.2
    endloop
  endfacet
  facet normal -0.258819 0.965926 0
    outer loop
      vertex -14.4924 4.46996 5.2
      vertex -14.0172 4.59729 5.2
      vertex -14.0172 4.59729 0
    endloop
  endfacet
  facet normal 0.62349 0.781831 0
    outer loop
      vertex -14.7801 -0.837986 0
      vertex -14.7801 -0.837986 5.2
      vertex -13.4698 -1.88294 0
    endloop
  endfacet
  facet normal 1 0 0
    outer loop
      vertex -14.7801 -0.837986 0
      vertex -14.7801 0.837986 0
      vertex -14.7801 -0.837986 5.2
    endloop
  endfacet
  facet normal 0.62349 0.781831 -0
    outer loop
      vertex -14.7801 -0.837986 5.2
      vertex -13.4698 -1.88294 5.2
      vertex -13.4698 -1.88294 0
    endloop
  endfacet
  facet normal 1 -0 0
    outer loop
      vertex -14.7801 -0.837986 5.2
      vertex -14.7801 0.837986 0
      vertex -14.7801 0.837986 5.2
    endloop
  endfacet
  facet normal 0.62349 -0.781831 0
    outer loop
      vertex -14.7801 0.837986 0
      vertex -13.4698 1.88294 0
      vertex -13.4698 1.88294 5.2
    endloop
  endfacet
  facet normal 0.62349 -0.781831 0
    outer loop
      vertex -14.7801 0.837986 0
      vertex -13.4698 1.88294 5.2
      vertex -14.7801 0.837986 5.2
    endloop
  endfacet
  facet normal 0 0 -1
    outer loop
      vertex -14.9517 -4.29366 0
      vertex -13.4698 -1.88294 0
      vertex -14.4924 -4.46996 0
    endloop
  endfacet
  facet normal -0.358368 -0.933581 -0
    outer loop
      vertex -14.9517 -4.29366 0
      vertex -14.4924 -4.46996 0
      vertex -14.4924 -4.46996 5.2
    endloop
  endfacet
  facet normal -0.358368 -0.933581 0
    outer loop
      vertex -14.9517 -4.29366 0
      vertex -14.4924 -4.46996 5.2
      vertex -14.9517 -4.29366 5.2
    endloop
  endfacet
  facet normal 0 0 1
    outer loop
      vertex -14.9517 -4.29366 5.2
      vertex -14.4924 -4.46996 5.2
      vertex -13.4698 -1.88294 5.2
    endloop
  endfacet
  facet normal 0 0 -1
    outer loop
      vertex -14.9517 4.29366 0
      vertex -14.4924 4.46996 0
      vertex -13.4698 1.88294 0
    endloop
  endfacet
  facet normal -0.358368 0.933581 0
    outer loop
      vertex -14.9517 4.29366 0
      vertex -14.9517 4.29366 5.2
      vertex -14.4924 4.46996 0
    endloop
  endfacet
  facet normal -0 0 1
    outer loop
      vertex -14.9517 4.29366 5.2
      vertex -13.4698 1.88294 5.2
      vertex -14.4924 4.46996 5.2
    endloop
  endfacet
  facet normal -0.358368 0.933581 0
    outer loop
      vertex -14.9517 4.29366 5.2
      vertex -14.4924 4.46996 5.2
      vertex -14.4924 4.46996 0
    endloop
  endfacet
  facet normal 0 0 -1
    outer loop
      vertex -15.39 -4.07032 0
      vertex -13.4698 -1.88294 0
      vertex -14.9517 -4.29366 0
    endloop
  endfacet
  facet normal -0.45399 -0.891007 -0
    outer loop
      vertex -15.39 -4.07032 0
      vertex -14.9517 -4.29366 0
      vertex -14.9517 -4.29366 5.2
    endloop
  endfacet
  facet normal -0.45399 -0.891007 0
    outer loop
      vertex -15.39 -4.07032 0
      vertex -14.9517 -4.29366 5.2
      vertex -15.39 -4.07032 5.2
    endloop
  endfacet
  facet normal 0 0 1
    outer loop
      vertex -15.39 -4.07032 5.2
      vertex -14.9517 -4.29366 5.2
      vertex -13.4698 -1.88294 5.2
    endloop
  endfacet
  facet normal 0 0 -1
    outer loop
      vertex -15.39 4.07032 0
      vertex -14.9517 4.29366 0
      vertex -13.4698 1.88294 0
    endloop
  endfacet
  facet normal -0.45399 0.891007 0
    outer loop
      vertex -15.39 4.07032 0
      vertex -15.39 4.07032 5.2
      vertex -14.9517 4.29366 0
    endloop
  endfacet
  facet normal -0 0 1
    outer loop
      vertex -15.39 4.07032 5.2
      vertex -13.4698 1.88294 5.2
      vertex -14.9517 4.29366 5.2
    endloop
  endfacet
  facet normal -0.45399 0.891007 0
    outer loop
      vertex -15.39 4.07032 5.2
      vertex -14.9517 4.29366 5.2
      vertex -14.9517 4.29366 0
    endloop
  endfacet
  facet normal 0 0 -1
    outer loop
      vertex -15.8026 -3.80238 0
      vertex -13.4698 -1.88294 0
      vertex -15.39 -4.07032 0
    endloop
  endfacet
  facet normal -0 0 -1
    outer loop
      vertex -15.8026 -3.80238 0
      vertex -14.7801 -0.837986 0
      vertex -13.4698 -1.88294 0
    endloop
  endfacet
  facet normal -0.544639 -0.838671 -0
    outer loop
      vertex -15.8026 -3.80238 0
      vertex -15.39 -4.07032 0
      vertex -15.39 -4.07032 5.2
    endloop
  endfacet
  facet normal -0.544639 -0.838671 0
    outer loop
      vertex -15.8026 -3.80238 0
      vertex -15.39 -4.07032 5.2
      vertex -15.8026 -3.80238 5.2
    endloop
  endfacet
  facet normal 0 0 1
    outer loop
      vertex -15.8026 -3.80238 5.2
      vertex -13.4698 -1.88294 5.2
      vertex -14.7801 -0.837986 5.2
    endloop
  endfacet
  facet normal 0 0 1
    outer loop
      vertex -15.8026 -3.80238 5.2
      vertex -15.39 -4.07032 5.2
      vertex -13.4698 -1.88294 5.2
    endloop
  endfacet
  facet normal 0 0 -1
    outer loop
      vertex -15.8026 3.80238 0
      vertex -13.4698 1.88294 0
      vertex -14.7801 0.837986 0
    endloop
  endfacet
  facet normal 0 0 -1
    outer loop
      vertex -15.8026 3.80238 0
      vertex -15.39 4.07032 0
      vertex -13.4698 1.88294 0
    endloop
  endfacet
  facet normal -0.544639 0.838671 0
    outer loop
      vertex -15.8026 3.80238 0
      vertex -15.8026 3.80238 5.2
      vertex -15.39 4.07032 0
    endloop
  endfacet
  facet normal -0 0 1
    outer loop
      vertex -15.8026 3.80238 5.2
      vertex -13.4698 1.88294 5.2
      vertex -15.39 4.07032 5.2
    endloop
  endfacet
  facet normal 0 0 1
    outer loop
      vertex -15.8026 3.80238 5.2
      vertex -14.7801 0.837986 5.2
      vertex -13.4698 1.88294 5.2
    endloop
  endfacet
  facet normal -0.544639 0.838671 0
    outer loop
      vertex -15.8026 3.80238 5.2
      vertex -15.39 4.07032 5.2
      vertex -15.39 4.07032 0
    endloop
  endfacet
  facet normal 0 0 -1
    outer loop
      vertex -16.1849 -3.49278 0
      vertex -14.7801 -0.837986 0
      vertex -15.8026 -3.80238 0
    endloop
  endfacet
  facet normal -0.629321 -0.777145 -0
    outer loop
      vertex -16.1849 -3.49278 0
      vertex -15.8026 -3.80238 0
      vertex -15.8026 -3.80238 5.2
    endloop
  endfacet
  facet normal -0.629321 -0.777145 0
    outer loop
      vertex -16.1849 -3.49278 0
      vertex -15.8026 -3.80238 5.2
      vertex -16.1849 -3.49278 5.2
    endloop
  endfacet
  facet normal 0 0 1
    outer loop
      vertex -16.1849 -3.49278 5.2
      vertex -15.8026 -3.80238 5.2
      vertex -14.7801 -0.837986 5.2
    endloop
  endfacet
  facet normal 0 0 -1
    outer loop
      vertex -16.1849 3.49278 0
      vertex -15.8026 3.80238 0
      vertex -14.7801 0.837986 0
    endloop
  endfacet
  facet normal -0.629321 0.777145 0
    outer loop
      vertex -16.1849 3.49278 0
      vertex -16.1849 3.49278 5.2
      vertex -15.8026 3.80238 0
    endloop
  endfacet
  facet normal -0 0 1
    outer loop
      vertex -16.1849 3.49278 5.2
      vertex -14.7801 0.837986 5.2
      vertex -15.8026 3.80238 5.2
    endloop
  endfacet
  facet normal -0.629321 0.777145 0
    outer loop
      vertex -16.1849 3.49278 5.2
      vertex -15.8026 3.80238 5.2
      vertex -15.8026 3.80238 0
    endloop
  endfacet
  facet normal 0 0 -1
    outer loop
      vertex -16.5328 -3.14491 0
      vertex -14.7801 -0.837986 0
      vertex -16.1849 -3.49278 0
    endloop
  endfacet
  facet normal -0.707107 -0.707107 0
    outer loop
      vertex -16.5328 -3.14491 0
      vertex -16.1849 -3.49278 0
      vertex -16.5328 -3.14491 5.2
    endloop
  endfacet
  facet normal -0.707107 -0.707107 0
    outer loop
      vertex -16.5328 -3.14491 5.2
      vertex -16.1849 -3.49278 0
      vertex -16.1849 -3.49278 5.2
    endloop
  endfacet
  facet normal 0 0 1
    outer loop
      vertex -16.5328 -3.14491 5.2
      vertex -16.1849 -3.49278 5.2
      vertex -14.7801 -0.837986 5.2
    endloop
  endfacet
  facet normal 0 0 -1
    outer loop
      vertex -16.5328 3.14491 0
      vertex -16.1849 3.49278 0
      vertex -14.7801 0.837986 0
    endloop
  endfacet
  facet normal -0.707107 0.707107 0
    outer loop
      vertex -16.5328 3.14491 0
      vertex -16.1849 3.49278 5.2
      vertex -16.1849 3.49278 0
    endloop
  endfacet
  facet normal -0.707107 0.707107 0
    outer loop
      vertex -16.5328 3.14491 0
      vertex -16.5328 3.14491 5.2
      vertex -16.1849 3.49278 5.2
    endloop
  endfacet
  facet normal -0 0 1
    outer loop
      vertex -16.5328 3.14491 5.2
      vertex -14.7801 0.837986 5.2
      vertex -16.1849 3.49278 5.2
    endloop
  endfacet
  facet normal 0 0 -1
    outer loop
      vertex -16.8424 -2.76259 0
      vertex -14.7801 -0.837986 0
      vertex -16.5328 -3.14491 0
    endloop
  endfacet
  facet normal -0.777144 -0.629322 0
    outer loop
      vertex -16.8424 -2.76259 0
      vertex -16.5328 -3.14491 0
      vertex -16.8424 -2.76259 5.2
    endloop
  endfacet
  facet normal -0.777144 -0.629322 0
    outer loop
      vertex -16.8424 -2.76259 5.2
      vertex -16.5328 -3.14491 0
      vertex -16.5328 -3.14491 5.2
    endloop
  endfacet
  facet normal 0 0 1
    outer loop
      vertex -16.8424 -2.76259 5.2
      vertex -16.5328 -3.14491 5.2
      vertex -14.7801 -0.837986 5.2
    endloop
  endfacet
  facet normal 0 0 -1
    outer loop
      vertex -16.8424 2.76259 0
      vertex -16.5328 3.14491 0
      vertex -14.7801 0.837986 0
    endloop
  endfacet
  facet normal -0.777144 0.629322 0
    outer loop
      vertex -16.8424 2.76259 0
      vertex -16.5328 3.14491 5.2
      vertex -16.5328 3.14491 0
    endloop
  endfacet
  facet normal -0.777144 0.629322 0
    outer loop
      vertex -16.8424 2.76259 0
      vertex -16.8424 2.76259 5.2
      vertex -16.5328 3.14491 5.2
    endloop
  endfacet
  facet normal -0 0 1
    outer loop
      vertex -16.8424 2.76259 5.2
      vertex -14.7801 0.837986 5.2
      vertex -16.5328 3.14491 5.2
    endloop
  endfacet
  facet normal 0 0 -1
    outer loop
      vertex -17.1103 -2.35 0
      vertex -14.7801 -0.837986 0
      vertex -16.8424 -2.76259 0
    endloop
  endfacet
  facet normal -0.838672 -0.544637 0
    outer loop
      vertex -17.1103 -2.35 0
      vertex -16.8424 -2.76259 0
      vertex -17.1103 -2.35 5.2
    endloop
  endfacet
  facet normal -0.838672 -0.544637 0
    outer loop
      vertex -17.1103 -2.35 5.2
      vertex -16.8424 -2.76259 0
      vertex -16.8424 -2.76259 5.2
    endloop
  endfacet
  facet normal 0 0 1
    outer loop
      vertex -17.1103 -2.35 5.2
      vertex -16.8424 -2.76259 5.2
      vertex -14.7801 -0.837986 5.2
    endloop
  endfacet
  facet normal 0 0 -1
    outer loop
      vertex -17.1103 2.35 0
      vertex -16.8424 2.76259 0
      vertex -14.7801 0.837986 0
    endloop
  endfacet
  facet normal -0.838672 0.544637 0
    outer loop
      vertex -17.1103 2.35 0
      vertex -16.8424 2.76259 5.2
      vertex -16.8424 2.76259 0
    endloop
  endfacet
  facet normal -0.838672 0.544637 0
    outer loop
      vertex -17.1103 2.35 0
      vertex -17.1103 2.35 5.2
      vertex -16.8424 2.76259 5.2
    endloop
  endfacet
  facet normal -0 0 1
    outer loop
      vertex -17.1103 2.35 5.2
      vertex -14.7801 0.837986 5.2
      vertex -16.8424 2.76259 5.2
    endloop
  endfacet
  facet normal 0 0 -1
    outer loop
      vertex -17.3337 -1.91166 0
      vertex -14.7801 -0.837986 0
      vertex -17.1103 -2.35 0
    endloop
  endfacet
  facet normal -0.891006 -0.453992 0
    outer loop
      vertex -17.3337 -1.91166 0
      vertex -17.1103 -2.35 0
      vertex -17.3337 -1.91166 5.2
    endloop
  endfacet
  facet normal -0.891006 -0.453992 0
    outer loop
      vertex -17.3337 -1.91166 5.2
      vertex -17.1103 -2.35 0
      vertex -17.1103 -2.35 5.2
    endloop
  endfacet
  facet normal 0 0 1
    outer loop
      vertex -17.3337 -1.91166 5.2
      vertex -17.1103 -2.35 5.2
      vertex -14.7801 -0.837986 5.2
    endloop
  endfacet
  facet normal 0 0 -1
    outer loop
      vertex -17.3337 1.91166 0
      vertex -17.1103 2.35 0
      vertex -14.7801 0.837986 0
    endloop
  endfacet
  facet normal -0.891006 0.453992 0
    outer loop
      vertex -17.3337 1.91166 0
      vertex -17.1103 2.35 5.2
      vertex -17.1103 2.35 0
    endloop
  endfacet
  facet normal -0.891006 0.453992 0
    outer loop
      vertex -17.3337 1.91166 0
      vertex -17.3337 1.91166 5.2
      vertex -17.1103 2.35 5.2
    endloop
  endfacet
  facet normal -0 0 1
    outer loop
      vertex -17.3337 1.91166 5.2
      vertex -14.7801 0.837986 5.2
      vertex -17.1103 2.35 5.2
    endloop
  endfacet
  facet normal 0 0 -1
    outer loop
      vertex -17.51 -1.45238 0
      vertex -14.7801 -0.837986 0
      vertex -17.3337 -1.91166 0
    endloop
  endfacet
  facet normal -0.933582 -0.358364 0
    outer loop
      vertex -17.51 -1.45238 0
      vertex -17.3337 -1.91166 0
      vertex -17.51 -1.45238 5.2
    endloop
  endfacet
  facet normal -0.933582 -0.358364 0
    outer loop
      vertex -17.51 -1.45238 5.2
      vertex -17.3337 -1.91166 0
      vertex -17.3337 -1.91166 5.2
    endloop
  endfacet
  facet normal 0 0 1
    outer loop
      vertex -17.51 -1.45238 5.2
      vertex -17.3337 -1.91166 5.2
      vertex -14.7801 -0.837986 5.2
    endloop
  endfacet
  facet normal 0 0 -1
    outer loop
      vertex -17.51 1.45238 0
      vertex -17.3337 1.91166 0
      vertex -14.7801 0.837986 0
    endloop
  endfacet
  facet normal -0.933582 0.358364 0
    outer loop
      vertex -17.51 1.45238 0
      vertex -17.3337 1.91166 5.2
      vertex -17.3337 1.91166 0
    endloop
  endfacet
  facet normal -0.933582 0.358364 0
    outer loop
      vertex -17.51 1.45238 0
      vertex -17.51 1.45238 5.2
      vertex -17.3337 1.91166 5.2
    endloop
  endfacet
  facet normal -0 0 1
    outer loop
      vertex -17.51 1.45238 5.2
      vertex -14.7801 0.837986 5.2
      vertex -17.3337 1.91166 5.2
    endloop
  endfacet
  facet normal 0 0 -1
    outer loop
      vertex -17.6373 -0.977184 0
      vertex -14.7801 -0.837986 0
      vertex -17.51 -1.45238 0
    endloop
  endfacet
  facet normal -0.965925 -0.258821 0
    outer loop
      vertex -17.6373 -0.977184 0
      vertex -17.51 -1.45238 0
      vertex -17.6373 -0.977184 5.2
    endloop
  endfacet
  facet normal -0.965925 -0.258821 0
    outer loop
      vertex -17.6373 -0.977184 5.2
      vertex -17.51 -1.45238 0
      vertex -17.51 -1.45238 5.2
    endloop
  endfacet
  facet normal 0 0 1
    outer loop
      vertex -17.6373 -0.977184 5.2
      vertex -17.51 -1.45238 5.2
      vertex -14.7801 -0.837986 5.2
    endloop
  endfacet
  facet normal 0 0 -1
    outer loop
      vertex -17.6373 0.977184 0
      vertex -17.51 1.45238 0
      vertex -14.7801 0.837986 0
    endloop
  endfacet
  facet normal -0.965925 0.258821 0
    outer loop
      vertex -17.6373 0.977184 0
      vertex -17.51 1.45238 5.2
      vertex -17.51 1.45238 0
    endloop
  endfacet
  facet normal -0.965925 0.258821 0
    outer loop
      vertex -17.6373 0.977184 0
      vertex -17.6373 0.977184 5.2
      vertex -17.51 1.45238 5.2
    endloop
  endfacet
  facet normal -0 0 1
    outer loop
      vertex -17.6373 0.977184 5.2
      vertex -14.7801 0.837986 5.2
      vertex -17.51 1.45238 5.2
    endloop
  endfacet
  facet normal 0 0 -1
    outer loop
      vertex -17.7143 -0.491283 0
      vertex -14.7801 -0.837986 0
      vertex -17.6373 -0.977184 0
    endloop
  endfacet
  facet normal -0.987688 -0.156435 0
    outer loop
      vertex -17.7143 -0.491283 0
      vertex -17.6373 -0.977184 0
      vertex -17.7143 -0.491283 5.2
    endloop
  endfacet
  facet normal -0.987688 -0.156435 0
    outer loop
      vertex -17.7143 -0.491283 5.2
      vertex -17.6373 -0.977184 0
      vertex -17.6373 -0.977184 5.2
    endloop
  endfacet
  facet normal 0 0 1
    outer loop
      vertex -17.7143 -0.491283 5.2
      vertex -17.6373 -0.977184 5.2
      vertex -14.7801 -0.837986 5.2
    endloop
  endfacet
  facet normal -0 0 -1
    outer loop
      vertex -17.7143 0.491283 0
      vertex -17.6373 0.977184 0
      vertex -14.7801 0.837986 0
    endloop
  endfacet
  facet normal -0.987688 0.156435 0
    outer loop
      vertex -17.7143 0.491283 0
      vertex -17.6373 0.977184 5.2
      vertex -17.6373 0.977184 0
    endloop
  endfacet
  facet normal -0.987688 0.156435 0
    outer loop
      vertex -17.7143 0.491283 0
      vertex -17.7143 0.491283 5.2
      vertex -17.6373 0.977184 5.2
    endloop
  endfacet
  facet normal 0 0 1
    outer loop
      vertex -17.7143 0.491283 5.2
      vertex -14.7801 0.837986 5.2
      vertex -17.6373 0.977184 5.2
    endloop
  endfacet
  facet normal 0 0 -1
    outer loop
      vertex -17.74 0 0
      vertex -14.7801 -0.837986 0
      vertex -17.7143 -0.491283 0
    endloop
  endfacet
  facet normal 0 0 -1
    outer loop
      vertex -17.74 0 0
      vertex -14.7801 0.837986 0
      vertex -14.7801 -0.837986 0
    endloop
  endfacet
  facet normal -0.99863 -0.0523364 0
    outer loop
      vertex -17.74 0 0
      vertex -17.7143 -0.491283 0
      vertex -17.74 0 5.2
    endloop
  endfacet
  facet normal 0 0 -1
    outer loop
      vertex -17.74 0 0
      vertex -17.7143 0.491283 0
      vertex -14.7801 0.837986 0
    endloop
  endfacet
  facet normal -0.99863 0.0523364 0
    outer loop
      vertex -17.74 0 0
      vertex -17.7143 0.491283 5.2
      vertex -17.7143 0.491283 0
    endloop
  endfacet
  facet normal -0.99863 0.0523364 0
    outer loop
      vertex -17.74 0 0
      vertex -17.74 0 5.2
      vertex -17.7143 0.491283 5.2
    endloop
  endfacet
  facet normal 0 0 1
    outer loop
      vertex -17.74 0 5.2
      vertex -14.7801 -0.837986 5.2
      vertex -14.7801 0.837986 5.2
    endloop
  endfacet
  facet normal 0 0 1
    outer loop
      vertex -17.74 0 5.2
      vertex -14.7801 0.837986 5.2
      vertex -17.7143 0.491283 5.2
    endloop
  endfacet
  facet normal -0.99863 -0.0523364 0
    outer loop
      vertex -17.74 0 5.2
      vertex -17.7143 -0.491283 0
      vertex -17.7143 -0.491283 5.2
    endloop
  endfacet
  facet normal 0 0 1
    outer loop
      vertex -17.74 0 5.2
      vertex -17.7143 -0.491283 5.2
      vertex -14.7801 -0.837986 5.2
    endloop
  endfacet
  facet normal 1 0 0
    outer loop
      vertex -9.89 -4.7 4
      vertex -9.89 4.7 4
      vertex -9.89 -4.7 5.2
    endloop
  endfacet
  facet normal 0 0 1
    outer loop
      vertex -9.89 -4.7 4
      vertex 9.89 -4.7 4
      vertex -9.89 4.7 4
    endloop
  endfacet
  facet normal 1 -0 0
    outer loop
      vertex -9.89 -4.7 5.2
      vertex -9.89 4.7 4
      vertex -9.89 4.7 5.2
    endloop
  endfacet
  facet normal -0 0 1
    outer loop
      vertex -9.89 4.7 4
      vertex 9.89 -4.7 4
      vertex 9.89 4.7 4
    endloop
  endfacet
  facet normal 0 1 0
    outer loop
      vertex -9.89 4.7 4
      vertex 9.89 4.7 4
      vertex 13.04 4.7 0
    endloop
  endfacet
  facet normal 0.62349 0.781831 0
    outer loop
      vertex 11.2999 -0.837986 0
      vertex 11.2999 -0.837986 5.2
      vertex 12.6102 -1.88294 0
    endloop
  endfacet
  facet normal 1 0 0
    outer loop
      vertex 11.2999 -0.837986 0
      vertex 11.2999 0.837986 0
      vertex 11.2999 -0.837986 5.2
    endloop
  endfacet
  facet normal 0 0 -1
    outer loop
      vertex 11.2999 -0.837986 0
      vertex 12.6102 -1.88294 0
      vertex 13.04 -4.7 0
    endloop
  endfacet
  facet normal 1 -0 0
    outer loop
      vertex 11.2999 -0.837986 5.2
      vertex 11.2999 0.837986 0
      vertex 11.2999 0.837986 5.2
    endloop
  endfacet
  facet normal 0.62349 0.781831 -0
    outer loop
      vertex 11.2999 -0.837986 5.2
      vertex 12.6102 -1.88294 5.2
      vertex 12.6102 -1.88294 0
    endloop
  endfacet
  facet normal 0.62349 -0.781831 0
    outer loop
      vertex 11.2999 0.837986 0
      vertex 12.6102 1.88294 0
      vertex 12.6102 1.88294 5.2
    endloop
  endfacet
  facet normal 0.62349 -0.781831 0
    outer loop
      vertex 11.2999 0.837986 0
      vertex 12.6102 1.88294 5.2
      vertex 11.2999 0.837986 5.2
    endloop
  endfacet
  facet normal 0 0 -1
    outer loop
      vertex 11.2999 0.837986 0
      vertex 13.04 4.7 0
      vertex 12.6102 1.88294 0
    endloop
  endfacet
  facet normal -0.222521 0.974928 0
    outer loop
      vertex 12.6102 -1.88294 0
      vertex 12.6102 -1.88294 5.2
      vertex 14.2442 -1.51 0
    endloop
  endfacet
  facet normal 0 0 -1
    outer loop
      vertex 12.6102 -1.88294 0
      vertex 13.5313 -4.67425 0
      vertex 13.04 -4.7 0
    endloop
  endfacet
  facet normal 0 0 -1
    outer loop
      vertex 12.6102 -1.88294 0
      vertex 14.0172 -4.59729 0
      vertex 13.5313 -4.67425 0
    endloop
  endfacet
  facet normal 0 0 -1
    outer loop
      vertex 12.6102 -1.88294 0
      vertex 14.2442 -1.51 0
      vertex 14.0172 -4.59729 0
    endloop
  endfacet
  facet normal 0 0 1
    outer loop
      vertex 12.6102 -1.88294 5.2
      vertex 13.04 -4.7 5.2
      vertex 13.5313 -4.67425 5.2
    endloop
  endfacet
  facet normal 0 0 1
    outer loop
      vertex 12.6102 -1.88294 5.2
      vertex 13.5313 -4.67425 5.2
      vertex 14.0172 -4.59729 5.2
    endloop
  endfacet
  facet normal -0 0 1
    outer loop
      vertex 12.6102 -1.88294 5.2
      vertex 14.0172 -4.59729 5.2
      vertex 14.2442 -1.51 5.2
    endloop
  endfacet
  facet normal -0.222521 0.974928 0
    outer loop
      vertex 12.6102 -1.88294 5.2
      vertex 14.2442 -1.51 5.2
      vertex 14.2442 -1.51 0
    endloop
  endfacet
  facet normal -0 0 -1
    outer loop
      vertex 12.6102 1.88294 0
      vertex 13.04 4.7 0
      vertex 13.5313 4.67425 0
    endloop
  endfacet
  facet normal -0 0 -1
    outer loop
      vertex 12.6102 1.88294 0
      vertex 13.5313 4.67425 0
      vertex 14.0172 4.59729 0
    endloop
  endfacet
  facet normal 0 0 -1
    outer loop
      vertex 12.6102 1.88294 0
      vertex 14.0172 4.59729 0
      vertex 14.2442 1.51 0
    endloop
  endfacet
  facet normal -0.222521 -0.974928 -0
    outer loop
      vertex 12.6102 1.88294 0
      vertex 14.2442 1.51 0
      vertex 14.2442 1.51 5.2
    endloop
  endfacet
  facet normal -0.222521 -0.974928 0
    outer loop
      vertex 12.6102 1.88294 0
      vertex 14.2442 1.51 5.2
      vertex 12.6102 1.88294 5.2
    endloop
  endfacet
  facet normal 0 0 1
    outer loop
      vertex 12.6102 1.88294 5.2
      vertex 13.5313 4.67425 5.2
      vertex 13.04 4.7 5.2
    endloop
  endfacet
  facet normal 0 0 1
    outer loop
      vertex 12.6102 1.88294 5.2
      vertex 14.0172 4.59729 5.2
      vertex 13.5313 4.67425 5.2
    endloop
  endfacet
  facet normal 0 0 1
    outer loop
      vertex 12.6102 1.88294 5.2
      vertex 14.2442 1.51 5.2
      vertex 14.0172 4.59729 5.2
    endloop
  endfacet
  facet normal 0.0523364 -0.99863 0
    outer loop
      vertex 13.04 -4.7 0
      vertex 13.5313 -4.67425 0
      vertex 13.5313 -4.67425 5.2
    endloop
  endfacet
  facet normal 0.0523364 -0.99863 0
    outer loop
      vertex 13.04 -4.7 0
      vertex 13.5313 -4.67425 5.2
      vertex 13.04 -4.7 5.2
    endloop
  endfacet
  facet normal 0.0523364 0.99863 0
    outer loop
      vertex 13.04 4.7 0
      vertex 13.04 4.7 5.2
      vertex 13.5313 4.67425 0
    endloop
  endfacet
  facet normal 0.0523364 0.99863 -0
    outer loop
      vertex 13.04 4.7 5.2
      vertex 13.5313 4.67425 5.2
      vertex 13.5313 4.67425 0
    endloop
  endfacet
  facet normal 0.156435 -0.987688 0
    outer loop
      vertex 13.5313 -4.67425 0
      vertex 14.0172 -4.59729 0
      vertex 14.0172 -4.59729 5.2
    endloop
  endfacet
  facet normal 0.156435 -0.987688 0
    outer loop
      vertex 13.5313 -4.67425 0
      vertex 14.0172 -4.59729 5.2
      vertex 13.5313 -4.67425 5.2
    endloop
  endfacet
  facet normal 0.156435 0.987688 0
    outer loop
      vertex 13.5313 4.67425 0
      vertex 13.5313 4.67425 5.2
      vertex 14.0172 4.59729 0
    endloop
  endfacet
  facet normal 0.156435 0.987688 -0
    outer loop
      vertex 13.5313 4.67425 5.2
      vertex 14.0172 4.59729 5.2
      vertex 14.0172 4.59729 0
    endloop
  endfacet
  facet normal 0 0 -1
    outer loop
      vertex 14.0172 -4.59729 0
      vertex 14.2442 -1.51 0
      vertex 14.4924 -4.46996 0
    endloop
  endfacet
  facet normal 0.258819 -0.965926 0
    outer loop
      vertex 14.0172 -4.59729 0
      vertex 14.4924 -4.46996 0
      vertex 14.4924 -4.46996 5.2
    endloop
  endfacet
  facet normal 0.258819 -0.965926 0
    outer loop
      vertex 14.0172 -4.59729 0
      vertex 14.4924 -4.46996 5.2
      vertex 14.0172 -4.59729 5.2
    endloop
  endfacet
  facet normal 0 0 1
    outer loop
      vertex 14.0172 -4.59729 5.2
      vertex 14.4924 -4.46996 5.2
      vertex 14.2442 -1.51 5.2
    endloop
  endfacet
  facet normal 0.258819 0.965926 0
    outer loop
      vertex 14.0172 4.59729 0
      vertex 14.0172 4.59729 5.2
      vertex 14.4924 4.46996 0
    endloop
  endfacet
  facet normal 0 0 -1
    outer loop
      vertex 14.0172 4.59729 0
      vertex 14.4924 4.46996 0
      vertex 14.2442 1.51 0
    endloop
  endfacet
  facet normal 0 0 1
    outer loop
      vertex 14.0172 4.59729 5.2
      vertex 14.2442 1.51 5.2
      vertex 14.4924 4.46996 5.2
    endloop
  endfacet
  facet normal 0.258819 0.965926 -0
    outer loop
      vertex 14.0172 4.59729 5.2
      vertex 14.4924 4.46996 5.2
      vertex 14.4924 4.46996 0
    endloop
  endfacet
  facet normal -0.900969 0.433884 0
    outer loop
      vertex 14.2442 -1.51 0
      vertex 14.2442 -1.51 5.2
      vertex 14.9714 0 5.2
    endloop
  endfacet
  facet normal 0 0 -1
    outer loop
      vertex 14.2442 -1.51 0
      vertex 14.9517 -4.29366 0
      vertex 14.4924 -4.46996 0
    endloop
  endfacet
  facet normal 0 0 -1
    outer loop
      vertex 14.2442 -1.51 0
      vertex 14.9714 0 0
      vertex 17.3337 -1.91166 0
    endloop
  endfacet
  facet normal -0.900969 0.433884 0
    outer loop
      vertex 14.2442 -1.51 0
      vertex 14.9714 0 5.2
      vertex 14.9714 0 0
    endloop
  endfacet
  facet normal 0 0 -1
    outer loop
      vertex 14.2442 -1.51 0
      vertex 15.39 -4.07032 0
      vertex 14.9517 -4.29366 0
    endloop
  endfacet
  facet normal 0 0 -1
    outer loop
      vertex 14.2442 -1.51 0
      vertex 15.8026 -3.80238 0
      vertex 15.39 -4.07032 0
    endloop
  endfacet
  facet normal 0 0 -1
    outer loop
      vertex 14.2442 -1.51 0
      vertex 16.1849 -3.49278 0
      vertex 15.8026 -3.80238 0
    endloop
  endfacet
  facet normal 0 0 -1
    outer loop
      vertex 14.2442 -1.51 0
      vertex 16.5328 -3.14491 0
      vertex 16.1849 -3.49278 0
    endloop
  endfacet
  facet normal 0 0 -1
    outer loop
      vertex 14.2442 -1.51 0
      vertex 16.8424 -2.76259 0
      vertex 16.5328 -3.14491 0
    endloop
  endfacet
  facet normal 0 0 -1
    outer loop
      vertex 14.2442 -1.51 0
      vertex 17.1103 -2.35 0
      vertex 16.8424 -2.76259 0
    endloop
  endfacet
  facet normal 0 0 -1
    outer loop
      vertex 14.2442 -1.51 0
      vertex 17.3337 -1.91166 0
      vertex 17.1103 -2.35 0
    endloop
  endfacet
  facet normal 0 0 1
    outer loop
      vertex 14.2442 -1.51 5.2
      vertex 14.4924 -4.46996 5.2
      vertex 14.9517 -4.29366 5.2
    endloop
  endfacet
  facet normal 0 0 1
    outer loop
      vertex 14.2442 -1.51 5.2
      vertex 14.9517 -4.29366 5.2
      vertex 15.39 -4.07032 5.2
    endloop
  endfacet
  facet normal 0 0 1
    outer loop
      vertex 14.2442 -1.51 5.2
      vertex 15.39 -4.07032 5.2
      vertex 15.8026 -3.80238 5.2
    endloop
  endfacet
  facet normal 0 0 1
    outer loop
      vertex 14.2442 -1.51 5.2
      vertex 15.8026 -3.80238 5.2
      vertex 16.1849 -3.49278 5.2
    endloop
  endfacet
  facet normal 0 0 1
    outer loop
      vertex 14.2442 -1.51 5.2
      vertex 16.1849 -3.49278 5.2
      vertex 16.5328 -3.14491 5.2
    endloop
  endfacet
  facet normal 0 0 1
    outer loop
      vertex 14.2442 -1.51 5.2
      vertex 16.5328 -3.14491 5.2
      vertex 16.8424 -2.76259 5.2
    endloop
  endfacet
  facet normal 0 0 1
    outer loop
      vertex 14.2442 -1.51 5.2
      vertex 16.8424 -2.76259 5.2
      vertex 17.1103 -2.35 5.2
    endloop
  endfacet
  facet normal 0 0 1
    outer loop
      vertex 14.2442 -1.51 5.2
      vertex 17.1103 -2.35 5.2
      vertex 17.3337 -1.91166 5.2
    endloop
  endfacet
  facet normal -0 0 1
    outer loop
      vertex 14.2442 -1.51 5.2
      vertex 17.3337 -1.91166 5.2
      vertex 14.9714 0 5.2
    endloop
  endfacet
  facet normal -0 0 -1
    outer loop
      vertex 14.2442 1.51 0
      vertex 14.4924 4.46996 0
      vertex 14.9517 4.29366 0
    endloop
  endfacet
  facet normal -0 0 -1
    outer loop
      vertex 14.2442 1.51 0
      vertex 14.9517 4.29366 0
      vertex 15.39 4.07032 0
    endloop
  endfacet
  facet normal -0.900969 -0.433884 0
    outer loop
      vertex 14.2442 1.51 0
      vertex 14.9714 0 0
      vertex 14.2442 1.51 5.2
    endloop
  endfacet
  facet normal -0 0 -1
    outer loop
      vertex 14.2442 1.51 0
      vertex 15.39 4.07032 0
      vertex 15.8026 3.80238 0
    endloop
  endfacet
  facet normal -0 0 -1
    outer loop
      vertex 14.2442 1.51 0
      vertex 15.8026 3.80238 0
      vertex 16.1849 3.49278 0
    endloop
  endfacet
  facet normal -0 0 -1
    outer loop
      vertex 14.2442 1.51 0
      vertex 16.1849 3.49278 0
      vertex 16.5328 3.14491 0
    endloop
  endfacet
  facet normal -0 0 -1
    outer loop
      vertex 14.2442 1.51 0
      vertex 16.5328 3.14491 0
      vertex 16.8424 2.76259 0
    endloop
  endfacet
  facet normal -0 0 -1
    outer loop
      vertex 14.2442 1.51 0
      vertex 16.8424 2.76259 0
      vertex 17.1103 2.35 0
    endloop
  endfacet
  facet normal -0 0 -1
    outer loop
      vertex 14.2442 1.51 0
      vertex 17.1103 2.35 0
      vertex 17.3337 1.91166 0
    endloop
  endfacet
  facet normal 0 0 -1
    outer loop
      vertex 14.2442 1.51 0
      vertex 17.3337 1.91166 0
      vertex 14.9714 0 0
    endloop
  endfacet
  facet normal 0 0 1
    outer loop
      vertex 14.2442 1.51 5.2
      vertex 14.9517 4.29366 5.2
      vertex 14.4924 4.46996 5.2
    endloop
  endfacet
  facet normal -0.900969 -0.433884 0
    outer loop
      vertex 14.2442 1.51 5.2
      vertex 14.9714 0 0
      vertex 14.9714 0 5.2
    endloop
  endfacet
  facet normal 0 0 1
    outer loop
      vertex 14.2442 1.51 5.2
      vertex 14.9714 0 5.2
      vertex 17.3337 1.91166 5.2
    endloop
  endfacet
  facet normal 0 0 1
    outer loop
      vertex 14.2442 1.51 5.2
      vertex 15.39 4.07032 5.2
      vertex 14.9517 4.29366 5.2
    endloop
  endfacet
  facet normal 0 0 1
    outer loop
      vertex 14.2442 1.51 5.2
      vertex 15.8026 3.80238 5.2
      vertex 15.39 4.07032 5.2
    endloop
  endfacet
  facet normal 0 0 1
    outer loop
      vertex 14.2442 1.51 5.2
      vertex 16.1849 3.49278 5.2
      vertex 15.8026 3.80238 5.2
    endloop
  endfacet
  facet normal 0 0 1
    outer loop
      vertex 14.2442 1.51 5.2
      vertex 16.5328 3.14491 5.2
      vertex 16.1849 3.49278 5.2
    endloop
  endfacet
  facet normal 0 0 1
    outer loop
      vertex 14.2442 1.51 5.2
      vertex 16.8424 2.76259 5.2
      vertex 16.5328 3.14491 5.2
    endloop
  endfacet
  facet normal 0 0 1
    outer loop
      vertex 14.2442 1.51 5.2
      vertex 17.1103 2.35 5.2
      vertex 16.8424 2.76259 5.2
    endloop
  endfacet
  facet normal 0 0 1
    outer loop
      vertex 14.2442 1.51 5.2
      vertex 17.3337 1.91166 5.2
      vertex 17.1103 2.35 5.2
    endloop
  endfacet
  facet normal 0.358368 -0.933581 0
    outer loop
      vertex 14.4924 -4.46996 0
      vertex 14.9517 -4.29366 0
      vertex 14.9517 -4.29366 5.2
    endloop
  endfacet
  facet normal 0.358368 -0.933581 0
    outer loop
      vertex 14.4924 -4.46996 0
      vertex 14.9517 -4.29366 5.2
      vertex 14.4924 -4.46996 5.2
    endloop
  endfacet
  facet normal 0.358368 0.933581 0
    outer loop
      vertex 14.4924 4.46996 0
      vertex 14.4924 4.46996 5.2
      vertex 14.9517 4.29366 0
    endloop
  endfacet
  facet normal 0.358368 0.933581 -0
    outer loop
      vertex 14.4924 4.46996 5.2
      vertex 14.9517 4.29366 5.2
      vertex 14.9517 4.29366 0
    endloop
  endfacet
  facet normal 0.45399 -0.891007 0
    outer loop
      vertex 14.9517 -4.29366 0
      vertex 15.39 -4.07032 0
      vertex 15.39 -4.07032 5.2
    endloop
  endfacet
  facet normal 0.45399 -0.891007 0
    outer loop
      vertex 14.9517 -4.29366 0
      vertex 15.39 -4.07032 5.2
      vertex 14.9517 -4.29366 5.2
    endloop
  endfacet
  facet normal 0.45399 0.891007 0
    outer loop
      vertex 14.9517 4.29366 0
      vertex 14.9517 4.29366 5.2
      vertex 15.39 4.07032 0
    endloop
  endfacet
  facet normal 0.45399 0.891007 -0
    outer loop
      vertex 14.9517 4.29366 5.2
      vertex 15.39 4.07032 5.2
      vertex 15.39 4.07032 0
    endloop
  endfacet
  facet normal -0 0 -1
    outer loop
      vertex 14.9714 0 0
      vertex 17.3337 1.91166 0
      vertex 17.51 1.45238 0
    endloop
  endfacet
  facet normal 0 0 -1
    outer loop
      vertex 14.9714 0 0
      vertex 17.51 -1.45238 0
      vertex 17.3337 -1.91166 0
    endloop
  endfacet
  facet normal -0 0 -1
    outer loop
      vertex 14.9714 0 0
      vertex 17.51 1.45238 0
      vertex 17.6373 0.977184 0
    endloop
  endfacet
  facet normal 0 0 -1
    outer loop
      vertex 14.9714 0 0
      vertex 17.6373 -0.977184 0
      vertex 17.51 -1.45238 0
    endloop
  endfacet
  facet normal -0 0 -1
    outer loop
      vertex 14.9714 0 0
      vertex 17.6373 0.977184 0
      vertex 17.7143 0.491283 0
    endloop
  endfacet
  facet normal 0 0 -1
    outer loop
      vertex 14.9714 0 0
      vertex 17.7143 -0.491283 0
      vertex 17.6373 -0.977184 0
    endloop
  endfacet
  facet normal 0 0 -1
    outer loop
      vertex 14.9714 0 0
      vertex 17.7143 0.491283 0
      vertex 17.74 0 0
    endloop
  endfacet
  facet normal 0 0 -1
    outer loop
      vertex 14.9714 0 0
      vertex 17.74 0 0
      vertex 17.7143 -0.491283 0
    endloop
  endfacet
  facet normal 0 0 1
    outer loop
      vertex 14.9714 0 5.2
      vertex 17.3337 -1.91166 5.2
      vertex 17.51 -1.45238 5.2
    endloop
  endfacet
  facet normal 0 0 1
    outer loop
      vertex 14.9714 0 5.2
      vertex 17.51 -1.45238 5.2
      vertex 17.6373 -0.977184 5.2
    endloop
  endfacet
  facet normal 0 0 1
    outer loop
      vertex 14.9714 0 5.2
      vertex 17.51 1.45238 5.2
      vertex 17.3337 1.91166 5.2
    endloop
  endfacet
  facet normal 0 0 1
    outer loop
      vertex 14.9714 0 5.2
      vertex 17.6373 -0.977184 5.2
      vertex 17.7143 -0.491283 5.2
    endloop
  endfacet
  facet normal 0 0 1
    outer loop
      vertex 14.9714 0 5.2
      vertex 17.6373 0.977184 5.2
      vertex 17.51 1.45238 5.2
    endloop
  endfacet
  facet normal 0 0 1
    outer loop
      vertex 14.9714 0 5.2
      vertex 17.7143 -0.491283 5.2
      vertex 17.74 0 5.2
    endloop
  endfacet
  facet normal 0 0 1
    outer loop
      vertex 14.9714 0 5.2
      vertex 17.7143 0.491283 5.2
      vertex 17.6373 0.977184 5.2
    endloop
  endfacet
  facet normal 0 0 1
    outer loop
      vertex 14.9714 0 5.2
      vertex 17.74 0 5.2
      vertex 17.7143 0.491283 5.2
    endloop
  endfacet
  facet normal 0.544639 -0.838671 0
    outer loop
      vertex 15.39 -4.07032 0
      vertex 15.8026 -3.80238 0
      vertex 15.8026 -3.80238 5.2
    endloop
  endfacet
  facet normal 0.544639 -0.838671 0
    outer loop
      vertex 15.39 -4.07032 0
      vertex 15.8026 -3.80238 5.2
      vertex 15.39 -4.07032 5.2
    endloop
  endfacet
  facet normal 0.544639 0.838671 0
    outer loop
      vertex 15.39 4.07032 0
      vertex 15.39 4.07032 5.2
      vertex 15.8026 3.80238 0
    endloop
  endfacet
  facet normal 0.544639 0.838671 -0
    outer loop
      vertex 15.39 4.07032 5.2
      vertex 15.8026 3.80238 5.2
      vertex 15.8026 3.80238 0
    endloop
  endfacet
  facet normal 0.629321 -0.777145 0
    outer loop
      vertex 15.8026 -3.80238 0
      vertex 16.1849 -3.49278 0
      vertex 16.1849 -3.49278 5.2
    endloop
  endfacet
  facet normal 0.629321 -0.777145 0
    outer loop
      vertex 15.8026 -3.80238 0
      vertex 16.1849 -3.49278 5.2
      vertex 15.8026 -3.80238 5.2
    endloop
  endfacet
  facet normal 0.629321 0.777145 0
    outer loop
      vertex 15.8026 3.80238 0
      vertex 15.8026 3.80238 5.2
      vertex 16.1849 3.49278 0
    endloop
  endfacet
  facet normal 0.629321 0.777145 -0
    outer loop
      vertex 15.8026 3.80238 5.2
      vertex 16.1849 3.49278 5.2
      vertex 16.1849 3.49278 0
    endloop
  endfacet
  facet normal 0.707107 -0.707107 0
    outer loop
      vertex 16.1849 -3.49278 0
      vertex 16.5328 -3.14491 0
      vertex 16.1849 -3.49278 5.2
    endloop
  endfacet
  facet normal 0.707107 -0.707107 0
    outer loop
      vertex 16.1849 -3.49278 5.2
      vertex 16.5328 -3.14491 0
      vertex 16.5328 -3.14491 5.2
    endloop
  endfacet
  facet normal 0.707107 0.707107 0
    outer loop
      vertex 16.1849 3.49278 0
      vertex 16.1849 3.49278 5.2
      vertex 16.5328 3.14491 5.2
    endloop
  endfacet
  facet normal 0.707107 0.707107 0
    outer loop
      vertex 16.1849 3.49278 0
      vertex 16.5328 3.14491 5.2
      vertex 16.5328 3.14491 0
    endloop
  endfacet
  facet normal 0.777144 -0.629322 0
    outer loop
      vertex 16.5328 -3.14491 0
      vertex 16.8424 -2.76259 0
      vertex 16.5328 -3.14491 5.2
    endloop
  endfacet
  facet normal 0.777144 -0.629322 0
    outer loop
      vertex 16.5328 -3.14491 5.2
      vertex 16.8424 -2.76259 0
      vertex 16.8424 -2.76259 5.2
    endloop
  endfacet
  facet normal 0.777144 0.629322 0
    outer loop
      vertex 16.5328 3.14491 0
      vertex 16.5328 3.14491 5.2
      vertex 16.8424 2.76259 5.2
    endloop
  endfacet
  facet normal 0.777144 0.629322 0
    outer loop
      vertex 16.5328 3.14491 0
      vertex 16.8424 2.76259 5.2
      vertex 16.8424 2.76259 0
    endloop
  endfacet
  facet normal 0.838672 -0.544637 0
    outer loop
      vertex 16.8424 -2.76259 0
      vertex 17.1103 -2.35 0
      vertex 16.8424 -2.76259 5.2
    endloop
  endfacet
  facet normal 0.838672 -0.544637 0
    outer loop
      vertex 16.8424 -2.76259 5.2
      vertex 17.1103 -2.35 0
      vertex 17.1103 -2.35 5.2
    endloop
  endfacet
  facet normal 0.838672 0.544637 0
    outer loop
      vertex 16.8424 2.76259 0
      vertex 16.8424 2.76259 5.2
      vertex 17.1103 2.35 5.2
    endloop
  endfacet
  facet normal 0.838672 0.544637 0
    outer loop
      vertex 16.8424 2.76259 0
      vertex 17.1103 2.35 5.2
      vertex 17.1103 2.35 0
    endloop
  endfacet
  facet normal 0.891006 -0.453992 0
    outer loop
      vertex 17.1103 -2.35 0
      vertex 17.3337 -1.91166 0
      vertex 17.1103 -2.35 5.2
    endloop
  endfacet
  facet normal 0.891006 -0.453992 0
    outer loop
      vertex 17.1103 -2.35 5.2
      vertex 17.3337 -1.91166 0
      vertex 17.3337 -1.91166 5.2
    endloop
  endfacet
  facet normal 0.891006 0.453992 0
    outer loop
      vertex 17.1103 2.35 0
      vertex 17.1103 2.35 5.2
      vertex 17.3337 1.91166 5.2
    endloop
  endfacet
  facet normal 0.891006 0.453992 0
    outer loop
      vertex 17.1103 2.35 0
      vertex 17.3337 1.91166 5.2
      vertex 17.3337 1.91166 0
    endloop
  endfacet
  facet normal 0.933582 -0.358364 0
    outer loop
      vertex 17.3337 -1.91166 0
      vertex 17.51 -1.45238 0
      vertex 17.3337 -1.91166 5.2
    endloop
  endfacet
  facet normal 0.933582 -0.358364 0
    outer loop
      vertex 17.3337 -1.91166 5.2
      vertex 17.51 -1.45238 0
      vertex 17.51 -1.45238 5.2
    endloop
  endfacet
  facet normal 0.933582 0.358364 0
    outer loop
      vertex 17.3337 1.91166 0
      vertex 17.3337 1.91166 5.2
      vertex 17.51 1.45238 5.2
    endloop
  endfacet
  facet normal 0.933582 0.358364 0
    outer loop
      vertex 17.3337 1.91166 0
      vertex 17.51 1.45238 5.2
      vertex 17.51 1.45238 0
    endloop
  endfacet
  facet normal 0.965925 -0.258821 0
    outer loop
      vertex 17.51 -1.45238 0
      vertex 17.6373 -0.977184 0
      vertex 17.51 -1.45238 5.2
    endloop
  endfacet
  facet normal 0.965925 -0.258821 0
    outer loop
      vertex 17.51 -1.45238 5.2
      vertex 17.6373 -0.977184 0
      vertex 17.6373 -0.977184 5.2
    endloop
  endfacet
  facet normal 0.965925 0.258821 0
    outer loop
      vertex 17.51 1.45238 0
      vertex 17.51 1.45238 5.2
      vertex 17.6373 0.977184 5.2
    endloop
  endfacet
  facet normal 0.965925 0.258821 0
    outer loop
      vertex 17.51 1.45238 0
      vertex 17.6373 0.977184 5.2
      vertex 17.6373 0.977184 0
    endloop
  endfacet
  facet normal 0.987688 -0.156435 0
    outer loop
      vertex 17.6373 -0.977184 0
      vertex 17.7143 -0.491283 0
      vertex 17.6373 -0.977184 5.2
    endloop
  endfacet
  facet normal 0.987688 -0.156435 0
    outer loop
      vertex 17.6373 -0.977184 5.2
      vertex 17.7143 -0.491283 0
      vertex 17.7143 -0.491283 5.2
    endloop
  endfacet
  facet normal 0.987688 0.156435 0
    outer loop
      vertex 17.6373 0.977184 0
      vertex 17.6373 0.977184 5.2
      vertex 17.7143 0.491283 5.2
    endloop
  endfacet
  facet normal 0.987688 0.156435 0
    outer loop
      vertex 17.6373 0.977184 0
      vertex 17.7143 0.491283 5.2
      vertex 17.7143 0.491283 0
    endloop
  endfacet
  facet normal 0.99863 -0.0523364 0
    outer loop
      vertex 17.7143 -0.491283 0
      vertex 17.74 0 0
      vertex 17.7143 -0.491283 5.2
    endloop
  endfacet
  facet normal 0.99863 -0.0523364 0
    outer loop
      vertex 17.7143 -0.491283 5.2
      vertex 17.74 0 0
      vertex 17.74 0 5.2
    endloop
  endfacet
  facet normal 0.99863 0.0523364 0
    outer loop
      vertex 17.7143 0.491283 0
      vertex 17.7143 0.491283 5.2
      vertex 17.74 0 5.2
    endloop
  endfacet
  facet normal 0.99863 0.0523364 0
    outer loop
      vertex 17.7143 0.491283 0
      vertex 17.74 0 5.2
      vertex 17.74 0 0
    endloop
  endfacet
  facet normal 0 -1 0
    outer loop
      vertex 9.89 -4.7 4
      vertex 13.04 -4.7 0
      vertex 13.04 -4.7 5.2
    endloop
  endfacet
  facet normal 0 -1 0
    outer loop
      vertex 9.89 -4.7 4
      vertex 13.04 -4.7 5.2
      vertex 9.89 -4.7 5.2
    endloop
  endfacet
  facet normal -1 -0 0
    outer loop
      vertex 9.89 -4.7 4
      vertex 9.89 -4.7 5.2
      vertex 9.89 4.7 5.2
    endloop
  endfacet
  facet normal -1 0 0
    outer loop
      vertex 9.89 -4.7 4
      vertex 9.89 4.7 5.2
      vertex 9.89 4.7 4
    endloop
  endfacet
  facet normal 0 0 1
    outer loop
      vertex 9.89 -4.7 5.2
      vertex 11.2999 -0.837986 5.2
      vertex 9.89 4.7 5.2
    endloop
  endfacet
  facet normal 0 0 1
    outer loop
      vertex 9.89 -4.7 5.2
      vertex 12.6102 -1.88294 5.2
      vertex 11.2999 -0.837986 5.2
    endloop
  endfacet
  facet normal 0 0 1
    outer loop
      vertex 9.89 -4.7 5.2
      vertex 13.04 -4.7 5.2
      vertex 12.6102 -1.88294 5.2
    endloop
  endfacet
  facet normal 0 1 -0
    outer loop
      vertex 9.89 4.7 4
      vertex 13.04 4.7 5.2
      vertex 13.04 4.7 0
    endloop
  endfacet
  facet normal 0 1 0
    outer loop
      vertex 9.89 4.7 4
      vertex 9.89 4.7 5.2
      vertex 13.04 4.7 5.2
    endloop
  endfacet
  facet normal 0 0 1
    outer loop
      vertex 9.89 4.7 5.2
      vertex 11.2999 -0.837986 5.2
      vertex 11.2999 0.837986 5.2
    endloop
  endfacet
  facet normal 0 0 1
    outer loop
      vertex 9.89 4.7 5.2
      vertex 11.2999 0.837986 5.2
      vertex 12.6102 1.88294 5.2
    endloop
  endfacet
  facet normal -0 0 1
    outer loop
      vertex 9.89 4.7 5.2
      vertex 12.6102 1.88294 5.2
      vertex 13.04 4.7 5.2
    endloop
  endfacet
endsolid OpenSCAD_Model
