solid OpenSCAD_Model
  facet normal 0 0 -1
    outer loop
      vertex -0.0449249 -4.71992 0
      vertex -0.0449249 4.71992 0
      vertex 0.384396 5.11334 0
    endloop
  endfacet
  facet normal -0.675606 -0.737263 -0
    outer loop
      vertex -0.0449249 -4.71992 0
      vertex 0.384396 -5.11334 0
      vertex 0.384396 -5.11334 2
    endloop
  endfacet
  facet normal -0.675606 -0.737263 0
    outer loop
      vertex -0.0449249 -4.71992 0
      vertex 0.384396 -5.11334 2
      vertex -0.0449249 -4.71992 2
    endloop
  endfacet
  facet normal 0 0 -1
    outer loop
      vertex -0.0449249 -4.71992 0
      vertex 0.384396 5.11334 0
      vertex 0.384396 -5.11334 0
    endloop
  endfacet
  facet normal 0 0 1
    outer loop
      vertex -0.0449249 -4.71992 2
      vertex 0.384396 -5.11334 2
      vertex 1.41359 -3.34943 2
    endloop
  endfacet
  facet normal 0 0 1
    outer loop
      vertex -0.0449249 -4.71992 2
      vertex 1.41359 -3.34943 2
      vertex 1.07603 -2.98378 2
    endloop
  endfacet
  facet normal -0.675606 0.737263 0
    outer loop
      vertex -0.0449249 4.71992 0
      vertex -0.0449249 4.71992 2
      vertex 0.384396 5.11334 0
    endloop
  endfacet
  facet normal -0.675606 0.737263 0
    outer loop
      vertex -0.0449249 4.71992 2
      vertex 0.384396 5.11334 2
      vertex 0.384396 5.11334 0
    endloop
  endfacet
  facet normal 0 0 1
    outer loop
      vertex -0.0449249 4.71992 2
      vertex 1.07603 2.98378 2
      vertex 1.41359 3.34943 2
    endloop
  endfacet
  facet normal -0 0 1
    outer loop
      vertex -0.0449249 4.71992 2
      vertex 1.41359 3.34943 2
      vertex 0.384396 5.11334 2
    endloop
  endfacet
  facet normal -0.737263 -0.675606 0
    outer loop
      vertex -0.438342 -4.2906 0
      vertex -0.0449249 -4.71992 0
      vertex -0.438342 -4.2906 2
    endloop
  endfacet
  facet normal 0 0 -1
    outer loop
      vertex -0.438342 -4.2906 0
      vertex -0.0449249 4.71992 0
      vertex -0.0449249 -4.71992 0
    endloop
  endfacet
  facet normal 0 0 -1
    outer loop
      vertex -0.438342 -4.2906 0
      vertex -0.438342 4.2906 0
      vertex -0.0449249 4.71992 0
    endloop
  endfacet
  facet normal -0.737263 -0.675606 0
    outer loop
      vertex -0.438342 -4.2906 2
      vertex -0.0449249 -4.71992 0
      vertex -0.0449249 -4.71992 2
    endloop
  endfacet
  facet normal 0 0 1
    outer loop
      vertex -0.438342 -4.2906 2
      vertex -0.0449249 -4.71992 2
      vertex 1.07603 -2.98378 2
    endloop
  endfacet
  facet normal -0.737263 0.675606 0
    outer loop
      vertex -0.438342 4.2906 0
      vertex -0.0449249 4.71992 2
      vertex -0.0449249 4.71992 0
    endloop
  endfacet
  facet normal -0.737263 0.675606 0
    outer loop
      vertex -0.438342 4.2906 0
      vertex -0.438342 4.2906 2
      vertex -0.0449249 4.71992 2
    endloop
  endfacet
  facet normal -0 0 1
    outer loop
      vertex -0.438342 4.2906 2
      vertex 1.07603 2.98378 2
      vertex -0.0449249 4.71992 2
    endloop
  endfacet
  facet normal -0.793358 -0.608756 0
    outer loop
      vertex -0.792834 -3.82861 0
      vertex -0.438342 -4.2906 0
      vertex -0.792834 -3.82861 2
    endloop
  endfacet
  facet normal 0 0 -1
    outer loop
      vertex -0.792834 -3.82861 0
      vertex -0.438342 4.2906 0
      vertex -0.438342 -4.2906 0
    endloop
  endfacet
  facet normal 0 0 -1
    outer loop
      vertex -0.792834 -3.82861 0
      vertex -0.792834 3.82861 0
      vertex -0.438342 4.2906 0
    endloop
  endfacet
  facet normal -0.793358 -0.608756 0
    outer loop
      vertex -0.792834 -3.82861 2
      vertex -0.438342 -4.2906 0
      vertex -0.438342 -4.2906 2
    endloop
  endfacet
  facet normal 0 0 1
    outer loop
      vertex -0.792834 -3.82861 2
      vertex -0.438342 -4.2906 2
      vertex 1.07603 -2.98378 2
    endloop
  endfacet
  facet normal 0 0 1
    outer loop
      vertex -0.792834 -3.82861 2
      vertex 1.07603 -2.98378 2
      vertex 0.779263 -2.58434 2
    endloop
  endfacet
  facet normal -0.793358 0.608756 0
    outer loop
      vertex -0.792834 3.82861 0
      vertex -0.438342 4.2906 2
      vertex -0.438342 4.2906 0
    endloop
  endfacet
  facet normal -0.793358 0.608756 0
    outer loop
      vertex -0.792834 3.82861 0
      vertex -0.792834 3.82861 2
      vertex -0.438342 4.2906 2
    endloop
  endfacet
  facet normal 0 0 1
    outer loop
      vertex -0.792834 3.82861 2
      vertex 0.779263 2.58434 2
      vertex 1.07603 2.98378 2
    endloop
  endfacet
  facet normal -0 0 1
    outer loop
      vertex -0.792834 3.82861 2
      vertex 1.07603 2.98378 2
      vertex -0.438342 4.2906 2
    endloop
  endfacet
  facet normal -0.843388 -0.537304 0
    outer loop
      vertex -1.10572 -3.33749 0
      vertex -0.792834 -3.82861 0
      vertex -1.10572 -3.33749 2
    endloop
  endfacet
  facet normal 0 0 -1
    outer loop
      vertex -1.10572 -3.33749 0
      vertex -0.792834 3.82861 0
      vertex -0.792834 -3.82861 0
    endloop
  endfacet
  facet normal 0 0 -1
    outer loop
      vertex -1.10572 -3.33749 0
      vertex -1.10572 3.33749 0
      vertex -0.792834 3.82861 0
    endloop
  endfacet
  facet normal -0.843388 -0.537304 0
    outer loop
      vertex -1.10572 -3.33749 2
      vertex -0.792834 -3.82861 0
      vertex -0.792834 -3.82861 2
    endloop
  endfacet
  facet normal 0 0 1
    outer loop
      vertex -1.10572 -3.33749 2
      vertex -0.792834 -3.82861 2
      vertex 0.779263 -2.58434 2
    endloop
  endfacet
  facet normal 0 0 1
    outer loop
      vertex -1.10572 -3.33749 2
      vertex 0.779263 -2.58434 2
      vertex 0.526639 -2.15559 2
    endloop
  endfacet
  facet normal -0.843388 0.537304 0
    outer loop
      vertex -1.10572 3.33749 0
      vertex -0.792834 3.82861 2
      vertex -0.792834 3.82861 0
    endloop
  endfacet
  facet normal -0.843388 0.537304 0
    outer loop
      vertex -1.10572 3.33749 0
      vertex -1.10572 3.33749 2
      vertex -0.792834 3.82861 2
    endloop
  endfacet
  facet normal 0 0 1
    outer loop
      vertex -1.10572 3.33749 2
      vertex 0.526639 2.15559 2
      vertex 0.779263 2.58434 2
    endloop
  endfacet
  facet normal -0 0 1
    outer loop
      vertex -1.10572 3.33749 2
      vertex 0.779263 2.58434 2
      vertex -0.792834 3.82861 2
    endloop
  endfacet
  facet normal -0.887019 -0.461734 0
    outer loop
      vertex -1.37459 -2.82097 0
      vertex -1.10572 -3.33749 0
      vertex -1.37459 -2.82097 2
    endloop
  endfacet
  facet normal 0 0 -1
    outer loop
      vertex -1.37459 -2.82097 0
      vertex -1.10572 3.33749 0
      vertex -1.10572 -3.33749 0
    endloop
  endfacet
  facet normal 0 0 -1
    outer loop
      vertex -1.37459 -2.82097 0
      vertex -1.37459 2.82097 0
      vertex -1.10572 3.33749 0
    endloop
  endfacet
  facet normal -0.887019 -0.461734 0
    outer loop
      vertex -1.37459 -2.82097 2
      vertex -1.10572 -3.33749 0
      vertex -1.10572 -3.33749 2
    endloop
  endfacet
  facet normal 0 0 1
    outer loop
      vertex -1.37459 -2.82097 2
      vertex -1.10572 -3.33749 2
      vertex 0.526639 -2.15559 2
    endloop
  endfacet
  facet normal 0 0 1
    outer loop
      vertex -1.37459 -2.82097 2
      vertex 0.526639 -2.15559 2
      vertex 0.321011 -1.70244 2
    endloop
  endfacet
  facet normal -0.887019 0.461734 0
    outer loop
      vertex -1.37459 2.82097 0
      vertex -1.10572 3.33749 2
      vertex -1.10572 3.33749 0
    endloop
  endfacet
  facet normal -0.887019 0.461734 0
    outer loop
      vertex -1.37459 2.82097 0
      vertex -1.37459 2.82097 2
      vertex -1.10572 3.33749 2
    endloop
  endfacet
  facet normal 0 0 1
    outer loop
      vertex -1.37459 2.82097 2
      vertex 0.321011 1.70244 2
      vertex 0.526639 2.15559 2
    endloop
  endfacet
  facet normal -0 0 1
    outer loop
      vertex -1.37459 2.82097 2
      vertex 0.526639 2.15559 2
      vertex -1.10572 3.33749 2
    endloop
  endfacet
  facet normal -0.923873 -0.382698 0
    outer loop
      vertex -1.59745 -2.28297 0
      vertex -1.37459 -2.82097 0
      vertex -1.59745 -2.28297 2
    endloop
  endfacet
  facet normal 0 0 -1
    outer loop
      vertex -1.59745 -2.28297 0
      vertex -1.37459 2.82097 0
      vertex -1.37459 -2.82097 0
    endloop
  endfacet
  facet normal 0 0 -1
    outer loop
      vertex -1.59745 -2.28297 0
      vertex -1.59745 2.28297 0
      vertex -1.37459 2.82097 0
    endloop
  endfacet
  facet normal -0.923873 -0.382698 0
    outer loop
      vertex -1.59745 -2.28297 2
      vertex -1.37459 -2.82097 0
      vertex -1.37459 -2.82097 2
    endloop
  endfacet
  facet normal 0 0 1
    outer loop
      vertex -1.59745 -2.28297 2
      vertex -1.37459 -2.82097 2
      vertex 0.321011 -1.70244 2
    endloop
  endfacet
  facet normal 0 0 1
    outer loop
      vertex -1.59745 -2.28297 2
      vertex 0.321011 -1.70244 2
      vertex 0.164716 -1.23 2
    endloop
  endfacet
  facet normal -0.923873 0.382698 0
    outer loop
      vertex -1.59745 2.28297 0
      vertex -1.37459 2.82097 2
      vertex -1.37459 2.82097 0
    endloop
  endfacet
  facet normal -0.923873 0.382698 0
    outer loop
      vertex -1.59745 2.28297 0
      vertex -1.59745 2.28297 2
      vertex -1.37459 2.82097 2
    endloop
  endfacet
  facet normal 0 0 1
    outer loop
      vertex -1.59745 2.28297 2
      vertex 0.164716 1.23 2
      vertex 0.321011 1.70244 2
    endloop
  endfacet
  facet normal -0 0 1
    outer loop
      vertex -1.59745 2.28297 2
      vertex 0.321011 1.70244 2
      vertex -1.37459 2.82097 2
    endloop
  endfacet
  facet normal -0.953722 -0.300691 0
    outer loop
      vertex -1.77254 -1.72762 0
      vertex -1.59745 -2.28297 0
      vertex -1.77254 -1.72762 2
    endloop
  endfacet
  facet normal 0 0 -1
    outer loop
      vertex -1.77254 -1.72762 0
      vertex -1.59745 2.28297 0
      vertex -1.59745 -2.28297 0
    endloop
  endfacet
  facet normal 0 0 -1
    outer loop
      vertex -1.77254 -1.72762 0
      vertex -1.77254 1.72762 0
      vertex -1.59745 2.28297 0
    endloop
  endfacet
  facet normal -0.953722 -0.300691 0
    outer loop
      vertex -1.77254 -1.72762 2
      vertex -1.59745 -2.28297 0
      vertex -1.59745 -2.28297 2
    endloop
  endfacet
  facet normal 0 0 1
    outer loop
      vertex -1.77254 -1.72762 2
      vertex -1.59745 -2.28297 2
      vertex 0.164716 -1.23 2
    endloop
  endfacet
  facet normal -0.953722 0.300691 0
    outer loop
      vertex -1.77254 1.72762 0
      vertex -1.59745 2.28297 2
      vertex -1.59745 2.28297 0
    endloop
  endfacet
  facet normal -0.953722 0.300691 0
    outer loop
      vertex -1.77254 1.72762 0
      vertex -1.77254 1.72762 2
      vertex -1.59745 2.28297 2
    endloop
  endfacet
  facet normal -0 0 1
    outer loop
      vertex -1.77254 1.72762 2
      vertex 0.164716 1.23 2
      vertex -1.59745 2.28297 2
    endloop
  endfacet
  facet normal -0.976297 -0.216437 0
    outer loop
      vertex -1.89858 -1.15909 0
      vertex -1.77254 -1.72762 0
      vertex -1.89858 -1.15909 2
    endloop
  endfacet
  facet normal 0 0 -1
    outer loop
      vertex -1.89858 -1.15909 0
      vertex -1.77254 1.72762 0
      vertex -1.77254 -1.72762 0
    endloop
  endfacet
  facet normal 0 0 -1
    outer loop
      vertex -1.89858 -1.15909 0
      vertex -1.89858 1.15909 0
      vertex -1.77254 1.72762 0
    endloop
  endfacet
  facet normal -0.976297 -0.216437 0
    outer loop
      vertex -1.89858 -1.15909 2
      vertex -1.77254 -1.72762 0
      vertex -1.77254 -1.72762 2
    endloop
  endfacet
  facet normal 0 0 1
    outer loop
      vertex -1.89858 -1.15909 2
      vertex -1.77254 -1.72762 2
      vertex 0.164716 -1.23 2
    endloop
  endfacet
  facet normal -0 0 1
    outer loop
      vertex -1.89858 -1.15909 2
      vertex 0.164716 -1.23 2
      vertex 0.0595215 -0.743622 2
    endloop
  endfacet
  facet normal -0.976297 0.216437 0
    outer loop
      vertex -1.89858 1.15909 0
      vertex -1.77254 1.72762 2
      vertex -1.77254 1.72762 0
    endloop
  endfacet
  facet normal -0.976297 0.216437 0
    outer loop
      vertex -1.89858 1.15909 0
      vertex -1.89858 1.15909 2
      vertex -1.77254 1.72762 2
    endloop
  endfacet
  facet normal 0 0 1
    outer loop
      vertex -1.89858 1.15909 2
      vertex 0.0595215 0.743622 2
      vertex 0.164716 1.23 2
    endloop
  endfacet
  facet normal 0 0 1
    outer loop
      vertex -1.89858 1.15909 2
      vertex 0.164716 1.23 2
      vertex -1.77254 1.72762 2
    endloop
  endfacet
  facet normal -0.991442 -0.130547 0
    outer loop
      vertex -1.9746 -0.581757 0
      vertex -1.89858 -1.15909 0
      vertex -1.9746 -0.581757 2
    endloop
  endfacet
  facet normal 0 0 -1
    outer loop
      vertex -1.9746 -0.581757 0
      vertex -1.89858 1.15909 0
      vertex -1.89858 -1.15909 0
    endloop
  endfacet
  facet normal 0 0 -1
    outer loop
      vertex -1.9746 -0.581757 0
      vertex -1.9746 0.581757 0
      vertex -1.89858 1.15909 0
    endloop
  endfacet
  facet normal -0.991442 -0.130547 0
    outer loop
      vertex -1.9746 -0.581757 2
      vertex -1.89858 -1.15909 0
      vertex -1.89858 -1.15909 2
    endloop
  endfacet
  facet normal 0 0 1
    outer loop
      vertex -1.9746 -0.581757 2
      vertex -1.89858 -1.15909 2
      vertex 0.0595215 -0.743622 2
    endloop
  endfacet
  facet normal -0 0 1
    outer loop
      vertex -1.9746 -0.581757 2
      vertex 0.0595215 -0.743622 2
      vertex 0.00663452 -0.24881 2
    endloop
  endfacet
  facet normal -0.991442 0.130547 0
    outer loop
      vertex -1.9746 0.581757 0
      vertex -1.89858 1.15909 2
      vertex -1.89858 1.15909 0
    endloop
  endfacet
  facet normal -0.991442 0.130547 0
    outer loop
      vertex -1.9746 0.581757 0
      vertex -1.9746 0.581757 2
      vertex -1.89858 1.15909 2
    endloop
  endfacet
  facet normal 0 0 1
    outer loop
      vertex -1.9746 0.581757 2
      vertex 0.00663452 0.24881 2
      vertex 0.0595215 0.743622 2
    endloop
  endfacet
  facet normal 0 0 1
    outer loop
      vertex -1.9746 0.581757 2
      vertex 0.0595215 0.743622 2
      vertex -1.89858 1.15909 2
    endloop
  endfacet
  facet normal -0.999049 -0.0436032 0
    outer loop
      vertex -1.99999 0 0
      vertex -1.9746 -0.581757 0
      vertex -1.99999 0 2
    endloop
  endfacet
  facet normal 0 -0 -1
    outer loop
      vertex -1.99999 0 0
      vertex -1.9746 0.581757 0
      vertex -1.9746 -0.581757 0
    endloop
  endfacet
  facet normal -0.999049 0.0436032 0
    outer loop
      vertex -1.99999 0 0
      vertex -1.9746 0.581757 2
      vertex -1.9746 0.581757 0
    endloop
  endfacet
  facet normal -0.999049 0.0436032 0
    outer loop
      vertex -1.99999 0 0
      vertex -1.99999 0 2
      vertex -1.9746 0.581757 2
    endloop
  endfacet
  facet normal -0.999049 -0.0436032 0
    outer loop
      vertex -1.99999 0 2
      vertex -1.9746 -0.581757 0
      vertex -1.9746 -0.581757 2
    endloop
  endfacet
  facet normal 0 0 1
    outer loop
      vertex -1.99999 0 2
      vertex -1.9746 -0.581757 2
      vertex 0.00663452 -0.24881 2
    endloop
  endfacet
  facet normal 0 0 1
    outer loop
      vertex -1.99999 0 2
      vertex 0.00663452 -0.24881 2
      vertex 0.00663452 0.24881 2
    endloop
  endfacet
  facet normal 0 0 1
    outer loop
      vertex -1.99999 0 2
      vertex 0.00663452 0.24881 2
      vertex -1.9746 0.581757 2
    endloop
  endfacet
  facet normal 0 0 1
    outer loop
      vertex 0.00663452 -0.24881 10.2
      vertex 0.0595215 -0.743622 10.2
      vertex 0.00663452 0.24881 10.2
    endloop
  endfacet
  facet normal -0.994336 -0.106278 0
    outer loop
      vertex 0.00663452 -0.24881 10.2
      vertex 0.0595215 -0.743622 2
      vertex 0.0595215 -0.743622 10.2
    endloop
  endfacet
  facet normal -1 -0 0
    outer loop
      vertex 0.00663452 -0.24881 2
      vertex 0.00663452 -0.24881 10.2
      vertex 0.00663452 0.24881 10.2
    endloop
  endfacet
  facet normal -1 0 0
    outer loop
      vertex 0.00663452 -0.24881 2
      vertex 0.00663452 0.24881 10.2
      vertex 0.00663452 0.24881 2
    endloop
  endfacet
  facet normal -0.994336 -0.106278 0
    outer loop
      vertex 0.00663452 -0.24881 2
      vertex 0.0595215 -0.743622 2
      vertex 0.00663452 -0.24881 10.2
    endloop
  endfacet
  facet normal -0 0 1
    outer loop
      vertex 0.00663452 0.24881 10.2
      vertex 0.0595215 -0.743622 10.2
      vertex 0.0595215 0.743622 10.2
    endloop
  endfacet
  facet normal -0.994336 0.106278 0
    outer loop
      vertex 0.00663452 0.24881 2
      vertex 0.00663452 0.24881 10.2
      vertex 0.0595215 0.743622 10.2
    endloop
  endfacet
  facet normal -0.994336 0.106278 0
    outer loop
      vertex 0.00663452 0.24881 2
      vertex 0.0595215 0.743622 10.2
      vertex 0.0595215 0.743622 2
    endloop
  endfacet
  facet normal 0 0 1
    outer loop
      vertex 0.0595215 -0.743622 10.2
      vertex 0.164716 -1.23 10.2
      vertex 0.0595215 0.743622 10.2
    endloop
  endfacet
  facet normal -0.977401 -0.211395 0
    outer loop
      vertex 0.0595215 -0.743622 10.2
      vertex 0.164716 -1.23 2
      vertex 0.164716 -1.23 10.2
    endloop
  endfacet
  facet normal -0.977401 -0.211395 0
    outer loop
      vertex 0.0595215 -0.743622 2
      vertex 0.164716 -1.23 2
      vertex 0.0595215 -0.743622 10.2
    endloop
  endfacet
  facet normal -0 0 1
    outer loop
      vertex 0.0595215 0.743622 10.2
      vertex 0.164716 -1.23 10.2
      vertex 0.164716 1.23 10.2
    endloop
  endfacet
  facet normal -0.977401 0.211395 0
    outer loop
      vertex 0.0595215 0.743622 2
      vertex 0.0595215 0.743622 10.2
      vertex 0.164716 1.23 10.2
    endloop
  endfacet
  facet normal -0.977401 0.211395 0
    outer loop
      vertex 0.0595215 0.743622 2
      vertex 0.164716 1.23 10.2
      vertex 0.164716 1.23 2
    endloop
  endfacet
  facet normal 0 0 1
    outer loop
      vertex 0.164716 -1.23 10.2
      vertex 0.321011 -1.70244 10.2
      vertex 0.164716 1.23 10.2
    endloop
  endfacet
  facet normal -0.949395 -0.314084 0
    outer loop
      vertex 0.164716 -1.23 10.2
      vertex 0.321011 -1.70244 2
      vertex 0.321011 -1.70244 10.2
    endloop
  endfacet
  facet normal -0.949395 -0.314084 0
    outer loop
      vertex 0.164716 -1.23 2
      vertex 0.321011 -1.70244 2
      vertex 0.164716 -1.23 10.2
    endloop
  endfacet
  facet normal -0 0 1
    outer loop
      vertex 0.164716 1.23 10.2
      vertex 0.321011 -1.70244 10.2
      vertex 0.321011 1.70244 10.2
    endloop
  endfacet
  facet normal -0.949395 0.314084 0
    outer loop
      vertex 0.164716 1.23 2
      vertex 0.164716 1.23 10.2
      vertex 0.321011 1.70244 10.2
    endloop
  endfacet
  facet normal -0.949395 0.314084 0
    outer loop
      vertex 0.164716 1.23 2
      vertex 0.321011 1.70244 10.2
      vertex 0.321011 1.70244 2
    endloop
  endfacet
  facet normal 0 0 1
    outer loop
      vertex 0.321011 -1.70244 10.2
      vertex 0.526639 -2.15559 10.2
      vertex 0.321011 1.70244 10.2
    endloop
  endfacet
  facet normal -0.910633 -0.413216 0
    outer loop
      vertex 0.321011 -1.70244 10.2
      vertex 0.526639 -2.15559 2
      vertex 0.526639 -2.15559 10.2
    endloop
  endfacet
  facet normal -0.910633 -0.413216 0
    outer loop
      vertex 0.321011 -1.70244 2
      vertex 0.526639 -2.15559 2
      vertex 0.321011 -1.70244 10.2
    endloop
  endfacet
  facet normal -0 0 1
    outer loop
      vertex 0.321011 1.70244 10.2
      vertex 0.526639 -2.15559 10.2
      vertex 0.526639 2.15559 10.2
    endloop
  endfacet
  facet normal -0.910633 0.413216 0
    outer loop
      vertex 0.321011 1.70244 2
      vertex 0.321011 1.70244 10.2
      vertex 0.526639 2.15559 10.2
    endloop
  endfacet
  facet normal -0.910633 0.413216 0
    outer loop
      vertex 0.321011 1.70244 2
      vertex 0.526639 2.15559 10.2
      vertex 0.526639 2.15559 2
    endloop
  endfacet
  facet normal 0 0 -1
    outer loop
      vertex 0.384396 -5.11334 0
      vertex 0.384396 5.11334 0
      vertex 0.846387 5.46783 0
    endloop
  endfacet
  facet normal -0.608756 -0.793358 -0
    outer loop
      vertex 0.384396 -5.11334 0
      vertex 0.846387 -5.46783 0
      vertex 0.846387 -5.46783 2
    endloop
  endfacet
  facet normal -0.608756 -0.793358 0
    outer loop
      vertex 0.384396 -5.11334 0
      vertex 0.846387 -5.46783 2
      vertex 0.384396 -5.11334 2
    endloop
  endfacet
  facet normal 0 0 -1
    outer loop
      vertex 0.384396 -5.11334 0
      vertex 0.846387 5.46783 0
      vertex 0.846387 -5.46783 0
    endloop
  endfacet
  facet normal 0 0 1
    outer loop
      vertex 0.384396 -5.11334 2
      vertex 0.846387 -5.46783 2
      vertex 1.78808 -3.67712 2
    endloop
  endfacet
  facet normal 0 0 1
    outer loop
      vertex 0.384396 -5.11334 2
      vertex 1.78808 -3.67712 2
      vertex 1.41359 -3.34943 2
    endloop
  endfacet
  facet normal -0.608756 0.793358 0
    outer loop
      vertex 0.384396 5.11334 0
      vertex 0.384396 5.11334 2
      vertex 0.846387 5.46783 0
    endloop
  endfacet
  facet normal -0.608756 0.793358 0
    outer loop
      vertex 0.384396 5.11334 2
      vertex 0.846387 5.46783 2
      vertex 0.846387 5.46783 0
    endloop
  endfacet
  facet normal 0 0 1
    outer loop
      vertex 0.384396 5.11334 2
      vertex 1.41359 3.34943 2
      vertex 1.78808 3.67712 2
    endloop
  endfacet
  facet normal -0 0 1
    outer loop
      vertex 0.384396 5.11334 2
      vertex 1.78808 3.67712 2
      vertex 0.846387 5.46783 2
    endloop
  endfacet
  facet normal 0 0 1
    outer loop
      vertex 0.526639 -2.15559 10.2
      vertex 0.779263 -2.58434 10.2
      vertex 0.526639 2.15559 10.2
    endloop
  endfacet
  facet normal -0.861562 -0.507652 0
    outer loop
      vertex 0.526639 -2.15559 10.2
      vertex 0.779263 -2.58434 2
      vertex 0.779263 -2.58434 10.2
    endloop
  endfacet
  facet normal -0.861562 -0.507652 0
    outer loop
      vertex 0.526639 -2.15559 2
      vertex 0.779263 -2.58434 2
      vertex 0.526639 -2.15559 10.2
    endloop
  endfacet
  facet normal -0 0 1
    outer loop
      vertex 0.526639 2.15559 10.2
      vertex 0.779263 -2.58434 10.2
      vertex 0.779263 2.58434 10.2
    endloop
  endfacet
  facet normal -0.861562 0.507652 0
    outer loop
      vertex 0.526639 2.15559 2
      vertex 0.526639 2.15559 10.2
      vertex 0.779263 2.58434 10.2
    endloop
  endfacet
  facet normal -0.861562 0.507652 0
    outer loop
      vertex 0.526639 2.15559 2
      vertex 0.779263 2.58434 10.2
      vertex 0.779263 2.58434 2
    endloop
  endfacet
  facet normal 0 0 1
    outer loop
      vertex 0.779263 -2.58434 10.2
      vertex 1.07603 -2.98378 10.2
      vertex 0.779263 2.58434 10.2
    endloop
  endfacet
  facet normal -0.802707 -0.596373 0
    outer loop
      vertex 0.779263 -2.58434 10.2
      vertex 1.07603 -2.98378 2
      vertex 1.07603 -2.98378 10.2
    endloop
  endfacet
  facet normal -0.802707 -0.596373 0
    outer loop
      vertex 0.779263 -2.58434 2
      vertex 1.07603 -2.98378 2
      vertex 0.779263 -2.58434 10.2
    endloop
  endfacet
  facet normal -0 0 1
    outer loop
      vertex 0.779263 2.58434 10.2
      vertex 1.07603 -2.98378 10.2
      vertex 1.07603 2.98378 10.2
    endloop
  endfacet
  facet normal -0.802707 0.596373 0
    outer loop
      vertex 0.779263 2.58434 2
      vertex 0.779263 2.58434 10.2
      vertex 1.07603 2.98378 10.2
    endloop
  endfacet
  facet normal -0.802707 0.596373 0
    outer loop
      vertex 0.779263 2.58434 2
      vertex 1.07603 2.98378 10.2
      vertex 1.07603 2.98378 2
    endloop
  endfacet
  facet normal 0 0 -1
    outer loop
      vertex 0.846387 -5.46783 0
      vertex 0.846387 5.46783 0
      vertex 1.33751 5.78072 0
    endloop
  endfacet
  facet normal -0.537304 -0.843388 -0
    outer loop
      vertex 0.846387 -5.46783 0
      vertex 1.33751 -5.78072 0
      vertex 1.33751 -5.78072 2
    endloop
  endfacet
  facet normal -0.537304 -0.843388 0
    outer loop
      vertex 0.846387 -5.46783 0
      vertex 1.33751 -5.78072 2
      vertex 0.846387 -5.46783 2
    endloop
  endfacet
  facet normal 0 0 -1
    outer loop
      vertex 0.846387 -5.46783 0
      vertex 1.33751 5.78072 0
      vertex 1.33751 -5.78072 0
    endloop
  endfacet
  facet normal 0 0 1
    outer loop
      vertex 0.846387 -5.46783 2
      vertex 1.33751 -5.78072 2
      vertex 2.19529 -3.96315 2
    endloop
  endfacet
  facet normal 0 0 1
    outer loop
      vertex 0.846387 -5.46783 2
      vertex 2.19529 -3.96315 2
      vertex 1.78808 -3.67712 2
    endloop
  endfacet
  facet normal -0.537304 0.843388 0
    outer loop
      vertex 0.846387 5.46783 0
      vertex 0.846387 5.46783 2
      vertex 1.33751 5.78072 0
    endloop
  endfacet
  facet normal -0.537304 0.843388 0
    outer loop
      vertex 0.846387 5.46783 2
      vertex 1.33751 5.78072 2
      vertex 1.33751 5.78072 0
    endloop
  endfacet
  facet normal 0 0 1
    outer loop
      vertex 0.846387 5.46783 2
      vertex 1.78808 3.67712 2
      vertex 2.19529 3.96315 2
    endloop
  endfacet
  facet normal -0 0 1
    outer loop
      vertex 0.846387 5.46783 2
      vertex 2.19529 3.96315 2
      vertex 1.33751 5.78072 2
    endloop
  endfacet
  facet normal 0 0 1
    outer loop
      vertex 1.07603 -2.98378 10.2
      vertex 1.41359 -3.34943 10.2
      vertex 1.07603 2.98378 10.2
    endloop
  endfacet
  facet normal -0.734768 -0.678318 0
    outer loop
      vertex 1.07603 -2.98378 10.2
      vertex 1.41359 -3.34943 2
      vertex 1.41359 -3.34943 10.2
    endloop
  endfacet
  facet normal -0.734768 -0.678318 0
    outer loop
      vertex 1.07603 -2.98378 2
      vertex 1.41359 -3.34943 2
      vertex 1.07603 -2.98378 10.2
    endloop
  endfacet
  facet normal -0 0 1
    outer loop
      vertex 1.07603 2.98378 10.2
      vertex 1.41359 -3.34943 10.2
      vertex 1.41359 3.34943 10.2
    endloop
  endfacet
  facet normal -0.734768 0.678318 0
    outer loop
      vertex 1.07603 2.98378 2
      vertex 1.07603 2.98378 10.2
      vertex 1.41359 3.34943 10.2
    endloop
  endfacet
  facet normal -0.734768 0.678318 0
    outer loop
      vertex 1.07603 2.98378 2
      vertex 1.41359 3.34943 10.2
      vertex 1.41359 3.34943 2
    endloop
  endfacet
  facet normal 0 0 -1
    outer loop
      vertex 1.33751 -5.78072 0
      vertex 1.33751 5.78072 0
      vertex 1.85403 6.04959 0
    endloop
  endfacet
  facet normal -0.461734 -0.887019 -0
    outer loop
      vertex 1.33751 -5.78072 0
      vertex 1.85403 -6.04959 0
      vertex 1.85403 -6.04959 2
    endloop
  endfacet
  facet normal -0.461734 -0.887019 0
    outer loop
      vertex 1.33751 -5.78072 0
      vertex 1.85403 -6.04959 2
      vertex 1.33751 -5.78072 2
    endloop
  endfacet
  facet normal 0 0 -1
    outer loop
      vertex 1.33751 -5.78072 0
      vertex 1.85403 6.04959 0
      vertex 1.85403 -6.04959 0
    endloop
  endfacet
  facet normal 0 0 1
    outer loop
      vertex 1.33751 -5.78072 2
      vertex 1.85403 -6.04959 2
      vertex 2.6306 -4.20427 2
    endloop
  endfacet
  facet normal 0 0 1
    outer loop
      vertex 1.33751 -5.78072 2
      vertex 2.6306 -4.20427 2
      vertex 2.19529 -3.96315 2
    endloop
  endfacet
  facet normal -0.461734 0.887019 0
    outer loop
      vertex 1.33751 5.78072 0
      vertex 1.33751 5.78072 2
      vertex 1.85403 6.04959 0
    endloop
  endfacet
  facet normal -0.461734 0.887019 0
    outer loop
      vertex 1.33751 5.78072 2
      vertex 1.85403 6.04959 2
      vertex 1.85403 6.04959 0
    endloop
  endfacet
  facet normal 0 0 1
    outer loop
      vertex 1.33751 5.78072 2
      vertex 2.19529 3.96315 2
      vertex 2.6306 4.20427 2
    endloop
  endfacet
  facet normal -0 0 1
    outer loop
      vertex 1.33751 5.78072 2
      vertex 2.6306 4.20427 2
      vertex 1.85403 6.04959 2
    endloop
  endfacet
  facet normal 0 0 1
    outer loop
      vertex 1.41359 -3.34943 10.2
      vertex 1.78808 -3.67712 10.2
      vertex 1.41359 3.34943 10.2
    endloop
  endfacet
  facet normal -0.65852 -0.752563 0
    outer loop
      vertex 1.41359 -3.34943 2
      vertex 1.78808 -3.67712 10.2
      vertex 1.41359 -3.34943 10.2
    endloop
  endfacet
  facet normal -0.65852 -0.752563 -0
    outer loop
      vertex 1.41359 -3.34943 2
      vertex 1.78808 -3.67712 2
      vertex 1.78808 -3.67712 10.2
    endloop
  endfacet
  facet normal -0 0 1
    outer loop
      vertex 1.41359 3.34943 10.2
      vertex 1.78808 -3.67712 10.2
      vertex 1.78808 3.67712 10.2
    endloop
  endfacet
  facet normal -0.65852 0.752563 0
    outer loop
      vertex 1.41359 3.34943 10.2
      vertex 1.78808 3.67712 10.2
      vertex 1.78808 3.67712 2
    endloop
  endfacet
  facet normal -0.65852 0.752563 0
    outer loop
      vertex 1.41359 3.34943 2
      vertex 1.41359 3.34943 10.2
      vertex 1.78808 3.67712 2
    endloop
  endfacet
  facet normal 0 0 1
    outer loop
      vertex 1.78808 -3.67712 10.2
      vertex 2.19529 -3.96315 10.2
      vertex 1.78808 3.67712 10.2
    endloop
  endfacet
  facet normal -0.574781 -0.818307 0
    outer loop
      vertex 1.78808 -3.67712 2
      vertex 2.19529 -3.96315 10.2
      vertex 1.78808 -3.67712 10.2
    endloop
  endfacet
  facet normal -0.574781 -0.818307 -0
    outer loop
      vertex 1.78808 -3.67712 2
      vertex 2.19529 -3.96315 2
      vertex 2.19529 -3.96315 10.2
    endloop
  endfacet
  facet normal -0 0 1
    outer loop
      vertex 1.78808 3.67712 10.2
      vertex 2.19529 -3.96315 10.2
      vertex 2.19529 3.96315 10.2
    endloop
  endfacet
  facet normal -0.574781 0.818307 0
    outer loop
      vertex 1.78808 3.67712 10.2
      vertex 2.19529 3.96315 10.2
      vertex 2.19529 3.96315 2
    endloop
  endfacet
  facet normal -0.574781 0.818307 0
    outer loop
      vertex 1.78808 3.67712 2
      vertex 1.78808 3.67712 10.2
      vertex 2.19529 3.96315 2
    endloop
  endfacet
  facet normal 0 0 -1
    outer loop
      vertex 1.85403 -6.04959 0
      vertex 1.85403 6.04959 0
      vertex 2.39203 6.27245 0
    endloop
  endfacet
  facet normal -0.382698 -0.923873 -0
    outer loop
      vertex 1.85403 -6.04959 0
      vertex 2.39203 -6.27245 0
      vertex 2.39203 -6.27245 2
    endloop
  endfacet
  facet normal -0.382698 -0.923873 0
    outer loop
      vertex 1.85403 -6.04959 0
      vertex 2.39203 -6.27245 2
      vertex 1.85403 -6.04959 2
    endloop
  endfacet
  facet normal 0 0 -1
    outer loop
      vertex 1.85403 -6.04959 0
      vertex 2.39203 6.27245 0
      vertex 2.39203 -6.27245 0
    endloop
  endfacet
  facet normal 0 0 1
    outer loop
      vertex 1.85403 -6.04959 2
      vertex 2.39203 -6.27245 2
      vertex 3.08906 -4.39777 2
    endloop
  endfacet
  facet normal 0 0 1
    outer loop
      vertex 1.85403 -6.04959 2
      vertex 3.08906 -4.39777 2
      vertex 2.6306 -4.20427 2
    endloop
  endfacet
  facet normal -0.382698 0.923873 0
    outer loop
      vertex 1.85403 6.04959 0
      vertex 1.85403 6.04959 2
      vertex 2.39203 6.27245 0
    endloop
  endfacet
  facet normal -0.382698 0.923873 0
    outer loop
      vertex 1.85403 6.04959 2
      vertex 2.39203 6.27245 2
      vertex 2.39203 6.27245 0
    endloop
  endfacet
  facet normal 0 0 1
    outer loop
      vertex 1.85403 6.04959 2
      vertex 2.6306 4.20427 2
      vertex 3.08906 4.39777 2
    endloop
  endfacet
  facet normal -0 0 1
    outer loop
      vertex 1.85403 6.04959 2
      vertex 3.08906 4.39777 2
      vertex 2.39203 6.27245 2
    endloop
  endfacet
  facet normal 1 0 0
    outer loop
      vertex 2 -0.367157 3.49137
      vertex 2 0.123291 3.45461
      vertex 2 1.1545 6.25449
    endloop
  endfacet
  facet normal 0 0.074739 0.997203
    outer loop
      vertex 2 -0.367157 3.49137
      vertex 5.675 -0.367157 3.49137
      vertex 2 0.123291 3.45461
    endloop
  endfacet
  facet normal -0 0.365338 0.930875
    outer loop
      vertex 2 -0.367157 3.49137
      vertex 5.675 -0.824997 3.67106
      vertex 5.675 -0.367157 3.49137
    endloop
  endfacet
  facet normal -0 0 -1
    outer loop
      vertex 2 -0.683441 6.74999
      vertex 2 0.683441 6.74999
      vertex 5.675 0.683441 6.74999
    endloop
  endfacet
  facet normal 1 0 1.92468e-06
    outer loop
      vertex 2 -0.683441 6.74999
      vertex 2 1.1545 6.25449
      vertex 2 0.683441 6.74999
    endloop
  endfacet
  facet normal 0 0.707107 -0.707107
    outer loop
      vertex 2 -0.683441 6.74999
      vertex 5.675 -0.683441 6.74999
      vertex 5.675 -1.16672 6.26672
    endloop
  endfacet
  facet normal 0 0 -1
    outer loop
      vertex 2 -0.683441 6.74999
      vertex 5.675 0.683441 6.74999
      vertex 5.675 -0.683441 6.74999
    endloop
  endfacet
  facet normal 1 0 0
    outer loop
      vertex 2 -0.824997 3.67106
      vertex 2 -0.367157 3.49137
      vertex 2 1.1545 6.25449
    endloop
  endfacet
  facet normal 0 0.365338 0.930875
    outer loop
      vertex 2 -0.824997 3.67106
      vertex 5.675 -0.824997 3.67106
      vertex 2 -0.367157 3.49137
    endloop
  endfacet
  facet normal -0 0.623487 0.781833
    outer loop
      vertex 2 -0.824997 3.67106
      vertex 5.675 -1.20953 3.97772
      vertex 5.675 -0.824997 3.67106
    endloop
  endfacet
  facet normal 1 -4.10741e-07 4.01128e-07
    outer loop
      vertex 2 -1.161 6.26099
      vertex 2 1.1545 6.25449
      vertex 2 -0.683441 6.74999
    endloop
  endfacet
  facet normal 0 0.707107 -0.707107
    outer loop
      vertex 2 -1.16672 6.26672
      vertex 2 -0.683441 6.74999
      vertex 5.675 -1.16672 6.26672
    endloop
  endfacet
  facet normal 1 0 0
    outer loop
      vertex 2 -1.16672 6.26672
      vertex 2 -1.161 6.26099
      vertex 2 -0.683441 6.74999
    endloop
  endfacet
  facet normal 0 0.707107 0.707107
    outer loop
      vertex 2 -1.16672 6.26672
      vertex 5.675 -1.161 6.26099
      vertex 2 -1.161 6.26099
    endloop
  endfacet
  facet normal 0 0.707107 0.707107
    outer loop
      vertex 2 -1.16672 6.26672
      vertex 5.675 -1.16672 6.26672
      vertex 5.675 -1.161 6.26099
    endloop
  endfacet
  facet normal 1 0 -0
    outer loop
      vertex 2 -1.20953 3.97772
      vertex 2 -0.824997 3.67106
      vertex 2 1.1545 6.25449
    endloop
  endfacet
  facet normal 1 -4.1067e-07 4.26408e-07
    outer loop
      vertex 2 -1.20953 3.97772
      vertex 2 1.1545 6.25449
      vertex 2 -1.161 6.26099
    endloop
  endfacet
  facet normal 0 0.623487 0.781833
    outer loop
      vertex 2 -1.20953 3.97772
      vertex 5.675 -1.20953 3.97772
      vertex 2 -0.824997 3.67106
    endloop
  endfacet
  facet normal 0 0.623525 -0.781803
    outer loop
      vertex 2 -1.20953 6.22228
      vertex 2 -1.161 6.26099
      vertex 5.675 -1.161 6.26099
    endloop
  endfacet
  facet normal 0 0.623525 -0.781803
    outer loop
      vertex 2 -1.20953 6.22228
      vertex 5.675 -1.161 6.26099
      vertex 5.675 -1.20953 6.22228
    endloop
  endfacet
  facet normal 0 0.826254 -0.563297
    outer loop
      vertex 2 -1.20953 6.22228
      vertex 5.675 -1.20953 6.22228
      vertex 5.675 -1.48659 5.8159
    endloop
  endfacet
  facet normal 1 -2.74398e-06 4.76009e-07
    outer loop
      vertex 2 -1.48659 4.3841
      vertex 2 -1.20953 3.97772
      vertex 2 -1.161 6.26099
    endloop
  endfacet
  facet normal 0 0.826254 0.563297
    outer loop
      vertex 2 -1.48659 4.3841
      vertex 5.675 -1.20953 3.97772
      vertex 2 -1.20953 3.97772
    endloop
  endfacet
  facet normal 0 0.826254 0.563297
    outer loop
      vertex 2 -1.48659 4.3841
      vertex 5.675 -1.48659 4.3841
      vertex 5.675 -1.20953 3.97772
    endloop
  endfacet
  facet normal 1 0 0
    outer loop
      vertex 2 -1.48659 5.8159
      vertex 2 -1.161 6.26099
      vertex 2 -1.20953 6.22228
    endloop
  endfacet
  facet normal 0 0.826254 -0.563297
    outer loop
      vertex 2 -1.48659 5.8159
      vertex 2 -1.20953 6.22228
      vertex 5.675 -1.48659 5.8159
    endloop
  endfacet
  facet normal 0 0.955571 -0.294759
    outer loop
      vertex 2 -1.48659 5.8159
      vertex 5.675 -1.48659 5.8159
      vertex 5.675 -1.63156 5.34591
    endloop
  endfacet
  facet normal 1 0 0
    outer loop
      vertex 2 -1.63156 4.85409
      vertex 2 -1.48659 4.3841
      vertex 2 -1.63156 5.34591
    endloop
  endfacet
  facet normal 0 1 0
    outer loop
      vertex 2 -1.63156 4.85409
      vertex 2 -1.63156 5.34591
      vertex 5.675 -1.63156 4.85409
    endloop
  endfacet
  facet normal 0 0.955571 0.294759
    outer loop
      vertex 2 -1.63156 4.85409
      vertex 5.675 -1.48659 4.3841
      vertex 2 -1.48659 4.3841
    endloop
  endfacet
  facet normal 0 0.955571 0.294759
    outer loop
      vertex 2 -1.63156 4.85409
      vertex 5.675 -1.63156 4.85409
      vertex 5.675 -1.48659 4.3841
    endloop
  endfacet
  facet normal 1 0 0
    outer loop
      vertex 2 -1.63156 5.34591
      vertex 2 -1.161 6.26099
      vertex 2 -1.48659 5.8159
    endloop
  endfacet
  facet normal 1 0 0
    outer loop
      vertex 2 -1.63156 5.34591
      vertex 2 -1.48659 4.3841
      vertex 2 -1.161 6.26099
    endloop
  endfacet
  facet normal 0 0.955571 -0.294759
    outer loop
      vertex 2 -1.63156 5.34591
      vertex 2 -1.48659 5.8159
      vertex 5.675 -1.63156 5.34591
    endloop
  endfacet
  facet normal 0 1 -0
    outer loop
      vertex 2 -1.63156 5.34591
      vertex 5.675 -1.63156 5.34591
      vertex 5.675 -1.63156 4.85409
    endloop
  endfacet
  facet normal 1 0 0
    outer loop
      vertex 2 0.123291 3.45461
      vertex 2 0.602798 3.56406
      vertex 2 1.1545 6.25449
    endloop
  endfacet
  facet normal -2.22597e-09 0.074739 0.997203
    outer loop
      vertex 2 0.123291 3.45461
      vertex 5.675 -0.367157 3.49137
      vertex 5.675 0.105267 3.45596
    endloop
  endfacet
  facet normal 7.57624e-10 0.0747396 0.997203
    outer loop
      vertex 2 0.123291 3.45461
      vertex 5.675 0.105267 3.45596
      vertex 5.675 0.123291 3.45461
    endloop
  endfacet
  facet normal -2.25579e-09 -0.222534 0.974925
    outer loop
      vertex 2 0.123291 3.45461
      vertex 5.675 0.123291 3.45461
      vertex 2 0.602798 3.56406
    endloop
  endfacet
  facet normal 1 0 0
    outer loop
      vertex 2 0.602798 3.56406
      vertex 2 1.02875 3.80999
      vertex 2 1.1545 6.25449
    endloop
  endfacet
  facet normal -3.60927e-09 -0.222534 0.974925
    outer loop
      vertex 2 0.602798 3.56406
      vertex 5.675 0.123291 3.45461
      vertex 5.675 0.602798 3.56406
    endloop
  endfacet
  facet normal -8.10958e-09 -0.500006 0.866022
    outer loop
      vertex 2 0.602798 3.56406
      vertex 5.675 0.602798 3.56406
      vertex 2 1.02875 3.80999
    endloop
  endfacet
  facet normal 1 -9.86676e-07 9.86676e-07
    outer loop
      vertex 2 0.683441 6.74999
      vertex 2 1.1545 6.25449
      vertex 2 1.16672 6.26672
    endloop
  endfacet
  facet normal 2.29371e-08 -0.707107 -0.707107
    outer loop
      vertex 2 0.683441 6.74999
      vertex 2 1.16672 6.26672
      vertex 5.675 0.701202 6.73223
    endloop
  endfacet
  facet normal -1.14685e-08 -0.707103 -0.70711
    outer loop
      vertex 2 0.683441 6.74999
      vertex 5.675 0.701202 6.73223
      vertex 5.675 0.683441 6.74999
    endloop
  endfacet
  facet normal 1 0 0
    outer loop
      vertex 2 1.02875 3.80999
      vertex 2 1.36328 4.17053
      vertex 2 1.1545 6.25449
    endloop
  endfacet
  facet normal 0 -0.500006 0.866022
    outer loop
      vertex 2 1.02875 3.80999
      vertex 5.675 0.602798 3.56406
      vertex 5.675 1.02875 3.80999
    endloop
  endfacet
  facet normal 0 -0.733045 0.68018
    outer loop
      vertex 2 1.02875 3.80999
      vertex 5.675 1.02875 3.80999
      vertex 5.675 1.36328 4.17053
    endloop
  endfacet
  facet normal 0 -0.733045 0.68018
    outer loop
      vertex 2 1.02875 3.80999
      vertex 5.675 1.36328 4.17053
      vertex 2 1.36328 4.17053
    endloop
  endfacet
  facet normal 1 0 0
    outer loop
      vertex 2 1.1545 6.25449
      vertex 2 1.36328 4.17053
      vertex 2 1.57669 4.61366
    endloop
  endfacet
  facet normal 0 -0.733057 -0.680167
    outer loop
      vertex 2 1.1545 6.25449
      vertex 2 1.36328 6.02947
      vertex 5.675 1.1545 6.25449
    endloop
  endfacet
  facet normal 1 0 0
    outer loop
      vertex 2 1.1545 6.25449
      vertex 2 1.57669 4.61366
      vertex 2 1.64999 5.1
    endloop
  endfacet
  facet normal 1 0 0
    outer loop
      vertex 2 1.1545 6.25449
      vertex 2 1.57669 5.58634
      vertex 2 1.36328 6.02947
    endloop
  endfacet
  facet normal 1 0 0
    outer loop
      vertex 2 1.1545 6.25449
      vertex 2 1.64999 5.1
      vertex 2 1.57669 5.58634
    endloop
  endfacet
  facet normal 0 -0.707107 0.707107
    outer loop
      vertex 2 1.1545 6.25449
      vertex 5.675 1.1545 6.25449
      vertex 5.675 1.16672 6.26672
    endloop
  endfacet
  facet normal 0 -0.707107 0.707107
    outer loop
      vertex 2 1.1545 6.25449
      vertex 5.675 1.16672 6.26672
      vertex 2 1.16672 6.26672
    endloop
  endfacet
  facet normal 0 -0.707107 -0.707107
    outer loop
      vertex 2 1.16672 6.26672
      vertex 5.675 1.16672 6.26672
      vertex 5.675 0.701202 6.73223
    endloop
  endfacet
  facet normal 0 -0.900962 0.433899
    outer loop
      vertex 2 1.36328 4.17053
      vertex 5.675 1.36328 4.17053
      vertex 5.675 1.57669 4.61366
    endloop
  endfacet
  facet normal 0 -0.900962 0.433899
    outer loop
      vertex 2 1.36328 4.17053
      vertex 5.675 1.57669 4.61366
      vertex 2 1.57669 4.61366
    endloop
  endfacet
  facet normal 0 -0.900962 -0.433899
    outer loop
      vertex 2 1.36328 6.02947
      vertex 2 1.57669 5.58634
      vertex 5.675 1.36328 6.02947
    endloop
  endfacet
  facet normal 0 -0.733057 -0.680167
    outer loop
      vertex 2 1.36328 6.02947
      vertex 5.675 1.36328 6.02947
      vertex 5.675 1.1545 6.25449
    endloop
  endfacet
  facet normal 0 -0.988831 0.14904
    outer loop
      vertex 2 1.57669 4.61366
      vertex 5.675 1.57669 4.61366
      vertex 5.675 1.64999 5.1
    endloop
  endfacet
  facet normal 0 -0.988831 0.14904
    outer loop
      vertex 2 1.57669 4.61366
      vertex 5.675 1.64999 5.1
      vertex 2 1.64999 5.1
    endloop
  endfacet
  facet normal 0 -0.988831 -0.14904
    outer loop
      vertex 2 1.57669 5.58634
      vertex 2 1.64999 5.1
      vertex 5.675 1.57669 5.58634
    endloop
  endfacet
  facet normal 0 -0.900962 -0.433899
    outer loop
      vertex 2 1.57669 5.58634
      vertex 5.675 1.57669 5.58634
      vertex 5.675 1.36328 6.02947
    endloop
  endfacet
  facet normal 0 -0.988831 -0.14904
    outer loop
      vertex 2 1.64999 5.1
      vertex 5.675 1.64999 5.1
      vertex 5.675 1.57669 5.58634
    endloop
  endfacet
  facet normal 0 0 1
    outer loop
      vertex 2.19529 -3.96315 10.2
      vertex 2.6306 -4.20427 10.2
      vertex 2.19529 3.96315 10.2
    endloop
  endfacet
  facet normal -0.484544 -0.874767 0
    outer loop
      vertex 2.19529 -3.96315 2
      vertex 2.6306 -4.20427 10.2
      vertex 2.19529 -3.96315 10.2
    endloop
  endfacet
  facet normal -0.484544 -0.874767 -0
    outer loop
      vertex 2.19529 -3.96315 2
      vertex 2.6306 -4.20427 2
      vertex 2.6306 -4.20427 10.2
    endloop
  endfacet
  facet normal -0 0 1
    outer loop
      vertex 2.19529 3.96315 10.2
      vertex 2.6306 -4.20427 10.2
      vertex 2.6306 4.20427 10.2
    endloop
  endfacet
  facet normal -0.484544 0.874767 0
    outer loop
      vertex 2.19529 3.96315 10.2
      vertex 2.6306 4.20427 10.2
      vertex 2.6306 4.20427 2
    endloop
  endfacet
  facet normal -0.484544 0.874767 0
    outer loop
      vertex 2.19529 3.96315 2
      vertex 2.19529 3.96315 10.2
      vertex 2.6306 4.20427 2
    endloop
  endfacet
  facet normal 0 0 -1
    outer loop
      vertex 2.39203 -6.27245 0
      vertex 2.39203 6.27245 0
      vertex 2.94738 6.44754 0
    endloop
  endfacet
  facet normal -0.300691 -0.953722 -0
    outer loop
      vertex 2.39203 -6.27245 0
      vertex 2.94738 -6.44754 0
      vertex 2.94738 -6.44754 2
    endloop
  endfacet
  facet normal -0.300691 -0.953722 0
    outer loop
      vertex 2.39203 -6.27245 0
      vertex 2.94738 -6.44754 2
      vertex 2.39203 -6.27245 2
    endloop
  endfacet
  facet normal 0 0 -1
    outer loop
      vertex 2.39203 -6.27245 0
      vertex 2.94738 6.44754 0
      vertex 2.94738 -6.44754 0
    endloop
  endfacet
  facet normal 0 0 1
    outer loop
      vertex 2.39203 -6.27245 2
      vertex 2.94738 -6.44754 2
      vertex 3.08906 -4.39777 2
    endloop
  endfacet
  facet normal -0.300691 0.953722 0
    outer loop
      vertex 2.39203 6.27245 0
      vertex 2.39203 6.27245 2
      vertex 2.94738 6.44754 0
    endloop
  endfacet
  facet normal -0.300691 0.953722 0
    outer loop
      vertex 2.39203 6.27245 2
      vertex 2.94738 6.44754 2
      vertex 2.94738 6.44754 0
    endloop
  endfacet
  facet normal -0 0 1
    outer loop
      vertex 2.39203 6.27245 2
      vertex 3.08906 4.39777 2
      vertex 2.94738 6.44754 2
    endloop
  endfacet
  facet normal 0 0 1
    outer loop
      vertex 2.6306 -4.20427 10.2
      vertex 3.08906 -4.39777 10.2
      vertex 2.6306 4.20427 10.2
    endloop
  endfacet
  facet normal -0.38884 -0.921305 0
    outer loop
      vertex 2.6306 -4.20427 2
      vertex 3.08906 -4.39777 10.2
      vertex 2.6306 -4.20427 10.2
    endloop
  endfacet
  facet normal -0.38884 -0.921305 -0
    outer loop
      vertex 2.6306 -4.20427 2
      vertex 3.08906 -4.39777 2
      vertex 3.08906 -4.39777 10.2
    endloop
  endfacet
  facet normal -0 0 1
    outer loop
      vertex 2.6306 4.20427 10.2
      vertex 3.08906 -4.39777 10.2
      vertex 3.08906 4.39777 10.2
    endloop
  endfacet
  facet normal -0.38884 0.921305 0
    outer loop
      vertex 2.6306 4.20427 10.2
      vertex 3.08906 4.39777 10.2
      vertex 3.08906 4.39777 2
    endloop
  endfacet
  facet normal -0.38884 0.921305 0
    outer loop
      vertex 2.6306 4.20427 2
      vertex 2.6306 4.20427 10.2
      vertex 3.08906 4.39777 2
    endloop
  endfacet
  facet normal 0 0 -1
    outer loop
      vertex 2.94738 -6.44754 0
      vertex 2.94738 6.44754 0
      vertex 3.51591 6.57358 0
    endloop
  endfacet
  facet normal -0.216437 -0.976297 -0
    outer loop
      vertex 2.94738 -6.44754 0
      vertex 3.51591 -6.57358 0
      vertex 3.51591 -6.57358 2
    endloop
  endfacet
  facet normal -0.216437 -0.976297 0
    outer loop
      vertex 2.94738 -6.44754 0
      vertex 3.51591 -6.57358 2
      vertex 2.94738 -6.44754 2
    endloop
  endfacet
  facet normal 0 0 -1
    outer loop
      vertex 2.94738 -6.44754 0
      vertex 3.51591 6.57358 0
      vertex 3.51591 -6.57358 0
    endloop
  endfacet
  facet normal 0 0 1
    outer loop
      vertex 2.94738 -6.44754 2
      vertex 3.51591 -6.57358 2
      vertex 3.5655 -4.54143 2
    endloop
  endfacet
  facet normal 0 0 1
    outer loop
      vertex 2.94738 -6.44754 2
      vertex 3.5655 -4.54143 2
      vertex 3.08906 -4.39777 2
    endloop
  endfacet
  facet normal -0.216437 0.976297 0
    outer loop
      vertex 2.94738 6.44754 0
      vertex 2.94738 6.44754 2
      vertex 3.51591 6.57358 0
    endloop
  endfacet
  facet normal 0 0 1
    outer loop
      vertex 2.94738 6.44754 2
      vertex 3.08906 4.39777 2
      vertex 3.5655 4.54143 2
    endloop
  endfacet
  facet normal -0.216437 0.976297 0
    outer loop
      vertex 2.94738 6.44754 2
      vertex 3.51591 6.57358 2
      vertex 3.51591 6.57358 0
    endloop
  endfacet
  facet normal -0 0 1
    outer loop
      vertex 2.94738 6.44754 2
      vertex 3.5655 4.54143 2
      vertex 3.51591 6.57358 2
    endloop
  endfacet
  facet normal 0 0 1
    outer loop
      vertex 3.08906 -4.39777 10.2
      vertex 3.5655 -4.54143 10.2
      vertex 3.08906 4.39777 10.2
    endloop
  endfacet
  facet normal -0.288692 -0.957422 0
    outer loop
      vertex 3.08906 -4.39777 2
      vertex 3.5655 -4.54143 10.2
      vertex 3.08906 -4.39777 10.2
    endloop
  endfacet
  facet normal -0.288692 -0.957422 -0
    outer loop
      vertex 3.08906 -4.39777 2
      vertex 3.5655 -4.54143 2
      vertex 3.5655 -4.54143 10.2
    endloop
  endfacet
  facet normal -0 0 1
    outer loop
      vertex 3.08906 4.39777 10.2
      vertex 3.5655 -4.54143 10.2
      vertex 3.5655 4.54143 10.2
    endloop
  endfacet
  facet normal -0.288692 0.957422 0
    outer loop
      vertex 3.08906 4.39777 10.2
      vertex 3.5655 4.54143 10.2
      vertex 3.5655 4.54143 2
    endloop
  endfacet
  facet normal -0.288692 0.957422 0
    outer loop
      vertex 3.08906 4.39777 2
      vertex 3.08906 4.39777 10.2
      vertex 3.5655 4.54143 2
    endloop
  endfacet
  facet normal 0 0 -1
    outer loop
      vertex 3.51591 -6.57358 0
      vertex 3.51591 6.57358 0
      vertex 4.09324 6.6496 0
    endloop
  endfacet
  facet normal -0.130547 -0.991442 -0
    outer loop
      vertex 3.51591 -6.57358 0
      vertex 4.09324 -6.6496 0
      vertex 4.09324 -6.6496 2
    endloop
  endfacet
  facet normal -0.130547 -0.991442 0
    outer loop
      vertex 3.51591 -6.57358 0
      vertex 4.09324 -6.6496 2
      vertex 3.51591 -6.57358 2
    endloop
  endfacet
  facet normal 0 0 -1
    outer loop
      vertex 3.51591 -6.57358 0
      vertex 4.09324 6.6496 0
      vertex 4.09324 -6.6496 0
    endloop
  endfacet
  facet normal 0 0 1
    outer loop
      vertex 3.51591 -6.57358 2
      vertex 4.05452 -4.63364 2
      vertex 3.5655 -4.54143 2
    endloop
  endfacet
  facet normal 0 0 1
    outer loop
      vertex 3.51591 -6.57358 2
      vertex 4.09324 -6.6496 2
      vertex 4.05452 -4.63364 2
    endloop
  endfacet
  facet normal -0.130547 0.991442 0
    outer loop
      vertex 3.51591 6.57358 0
      vertex 3.51591 6.57358 2
      vertex 4.09324 6.6496 0
    endloop
  endfacet
  facet normal 0 0 1
    outer loop
      vertex 3.51591 6.57358 2
      vertex 3.5655 4.54143 2
      vertex 4.05452 4.63364 2
    endloop
  endfacet
  facet normal -0 0 1
    outer loop
      vertex 3.51591 6.57358 2
      vertex 4.05452 4.63364 2
      vertex 4.09324 6.6496 2
    endloop
  endfacet
  facet normal -0.130547 0.991442 0
    outer loop
      vertex 3.51591 6.57358 2
      vertex 4.09324 6.6496 2
      vertex 4.09324 6.6496 0
    endloop
  endfacet
  facet normal 0 0 1
    outer loop
      vertex 3.5655 -4.54143 10.2
      vertex 4.05452 -4.63364 10.2
      vertex 3.5655 4.54143 10.2
    endloop
  endfacet
  facet normal -0.185295 -0.982683 0
    outer loop
      vertex 3.5655 -4.54143 2
      vertex 4.05452 -4.63364 10.2
      vertex 3.5655 -4.54143 10.2
    endloop
  endfacet
  facet normal -0.185295 -0.982683 -0
    outer loop
      vertex 3.5655 -4.54143 2
      vertex 4.05452 -4.63364 2
      vertex 4.05452 -4.63364 10.2
    endloop
  endfacet
  facet normal -0 0 1
    outer loop
      vertex 3.5655 4.54143 10.2
      vertex 4.05452 -4.63364 10.2
      vertex 4.05452 4.63364 10.2
    endloop
  endfacet
  facet normal -0.185295 0.982683 0
    outer loop
      vertex 3.5655 4.54143 10.2
      vertex 4.05452 4.63364 10.2
      vertex 4.05452 4.63364 2
    endloop
  endfacet
  facet normal -0.185295 0.982683 0
    outer loop
      vertex 3.5655 4.54143 2
      vertex 3.5655 4.54143 10.2
      vertex 4.05452 4.63364 2
    endloop
  endfacet
  facet normal 0 0 1
    outer loop
      vertex 4.05452 -4.63364 10.2
      vertex 4.55055 -4.67334 10.2
      vertex 4.675 -4.67003 10.2
    endloop
  endfacet
  facet normal -0 0 1
    outer loop
      vertex 4.05452 -4.63364 10.2
      vertex 4.675 -4.67003 10.2
      vertex 4.05452 4.63364 10.2
    endloop
  endfacet
  facet normal 0 0 1
    outer loop
      vertex 4.05452 -4.63364 2
      vertex 4.09324 -6.6496 2
      vertex 4.55055 -4.67334 2
    endloop
  endfacet
  facet normal -0.0797867 -0.996812 0
    outer loop
      vertex 4.05452 -4.63364 2
      vertex 4.55055 -4.67334 10.2
      vertex 4.05452 -4.63364 10.2
    endloop
  endfacet
  facet normal -0.0797867 -0.996812 -0
    outer loop
      vertex 4.05452 -4.63364 2
      vertex 4.55055 -4.67334 2
      vertex 4.55055 -4.67334 10.2
    endloop
  endfacet
  facet normal -0.0797867 0.996812 0
    outer loop
      vertex 4.05452 4.63364 10.2
      vertex 4.55055 4.67334 10.2
      vertex 4.55055 4.67334 2
    endloop
  endfacet
  facet normal 0 0 1
    outer loop
      vertex 4.05452 4.63364 10.2
      vertex 4.675 -4.67003 10.2
      vertex 4.675 4.67003 10.2
    endloop
  endfacet
  facet normal 0 0 1
    outer loop
      vertex 4.05452 4.63364 10.2
      vertex 4.675 4.67003 10.2
      vertex 4.55055 4.67334 10.2
    endloop
  endfacet
  facet normal -0.0797867 0.996812 0
    outer loop
      vertex 4.05452 4.63364 2
      vertex 4.05452 4.63364 10.2
      vertex 4.55055 4.67334 2
    endloop
  endfacet
  facet normal 0 0 1
    outer loop
      vertex 4.05452 4.63364 2
      vertex 4.55055 4.67334 2
      vertex 4.09324 6.6496 2
    endloop
  endfacet
  facet normal 0 0 -1
    outer loop
      vertex 4.09324 -6.6496 0
      vertex 4.09324 6.6496 0
      vertex 4.675 6.67499 0
    endloop
  endfacet
  facet normal -0.0436032 -0.999049 -0
    outer loop
      vertex 4.09324 -6.6496 0
      vertex 4.675 -6.67499 0
      vertex 4.675 -6.67499 2
    endloop
  endfacet
  facet normal -0.0436032 -0.999049 0
    outer loop
      vertex 4.09324 -6.6496 0
      vertex 4.675 -6.67499 2
      vertex 4.09324 -6.6496 2
    endloop
  endfacet
  facet normal 0 0 -1
    outer loop
      vertex 4.09324 -6.6496 0
      vertex 4.675 6.67499 0
      vertex 4.675 -6.67499 0
    endloop
  endfacet
  facet normal 0 0 1
    outer loop
      vertex 4.09324 -6.6496 2
      vertex 4.675 -6.67499 2
      vertex 4.55055 -4.67334 2
    endloop
  endfacet
  facet normal -0.0436032 0.999049 0
    outer loop
      vertex 4.09324 6.6496 0
      vertex 4.09324 6.6496 2
      vertex 4.675 6.67499 0
    endloop
  endfacet
  facet normal -0 0 1
    outer loop
      vertex 4.09324 6.6496 2
      vertex 4.55055 4.67334 2
      vertex 4.675 6.67499 2
    endloop
  endfacet
  facet normal -0.0436032 0.999049 0
    outer loop
      vertex 4.09324 6.6496 2
      vertex 4.675 6.67499 2
      vertex 4.675 6.67499 0
    endloop
  endfacet
  facet normal 0.0265968 -0.999646 0
    outer loop
      vertex 4.55055 -4.67334 2
      vertex 4.675 -4.67003 10.2
      vertex 4.55055 -4.67334 10.2
    endloop
  endfacet
  facet normal 0.0265968 -0.999646 0
    outer loop
      vertex 4.55055 -4.67334 2
      vertex 4.675 -4.67003 2
      vertex 4.675 -4.67003 10.2
    endloop
  endfacet
  facet normal -0 0 1
    outer loop
      vertex 4.55055 -4.67334 2
      vertex 4.675 -4.67499 2
      vertex 4.675 -4.67003 2
    endloop
  endfacet
  facet normal 0 0 1
    outer loop
      vertex 4.55055 -4.67334 2
      vertex 4.675 -6.67499 2
      vertex 4.675 -4.67499 2
    endloop
  endfacet
  facet normal 0.0265968 0.999646 -0
    outer loop
      vertex 4.55055 4.67334 10.2
      vertex 4.675 4.67003 10.2
      vertex 4.675 4.67003 2
    endloop
  endfacet
  facet normal 0.0265968 0.999646 0
    outer loop
      vertex 4.55055 4.67334 2
      vertex 4.55055 4.67334 10.2
      vertex 4.675 4.67003 2
    endloop
  endfacet
  facet normal 0 0 1
    outer loop
      vertex 4.55055 4.67334 2
      vertex 4.675 4.67003 2
      vertex 4.675 4.67499 2
    endloop
  endfacet
  facet normal 0 0 1
    outer loop
      vertex 4.55055 4.67334 2
      vertex 4.675 4.67499 2
      vertex 4.675 6.67499 2
    endloop
  endfacet
  facet normal -0 0 1
    outer loop
      vertex 4.675 -4.67003 10.2
      vertex 5.675 -4.67499 10.2
      vertex 4.675 4.67003 10.2
    endloop
  endfacet
  facet normal 0 0 1
    outer loop
      vertex 4.675 -4.67499 10.2
      vertex 5.675 -4.67499 10.2
      vertex 4.675 -4.67003 10.2
    endloop
  endfacet
  facet normal -1 0 0
    outer loop
      vertex 4.675 -4.67499 2
      vertex 4.675 -4.67003 10.2
      vertex 4.675 -4.67003 2
    endloop
  endfacet
  facet normal -1 -0 0
    outer loop
      vertex 4.675 -4.67499 2
      vertex 4.675 -4.67499 10.2
      vertex 4.675 -4.67003 10.2
    endloop
  endfacet
  facet normal 0 -1 0
    outer loop
      vertex 4.675 -4.67499 2
      vertex 5.675 -4.67499 10.2
      vertex 4.675 -4.67499 10.2
    endloop
  endfacet
  facet normal 0 -1 -0
    outer loop
      vertex 4.675 -4.67499 2
      vertex 5.675 -4.67499 2
      vertex 5.675 -4.67499 10.2
    endloop
  endfacet
  facet normal -0 0 1
    outer loop
      vertex 4.675 -4.67499 2
      vertex 5.675 -6.67499 2
      vertex 5.675 -4.67499 2
    endloop
  endfacet
  facet normal 0 0 -1
    outer loop
      vertex 4.675 -6.67499 0
      vertex 4.675 6.67499 0
      vertex 5.675 6.67499 0
    endloop
  endfacet
  facet normal 0 -1 -0
    outer loop
      vertex 4.675 -6.67499 0
      vertex 5.675 -6.67499 0
      vertex 5.675 -6.67499 2
    endloop
  endfacet
  facet normal 0 -1 0
    outer loop
      vertex 4.675 -6.67499 0
      vertex 5.675 -6.67499 2
      vertex 4.675 -6.67499 2
    endloop
  endfacet
  facet normal 0 0 -1
    outer loop
      vertex 4.675 -6.67499 0
      vertex 5.675 6.67499 0
      vertex 5.675 -6.67499 0
    endloop
  endfacet
  facet normal 0 0 1
    outer loop
      vertex 4.675 -6.67499 2
      vertex 5.675 -6.67499 2
      vertex 4.675 -4.67499 2
    endloop
  endfacet
  facet normal 0 0 1
    outer loop
      vertex 4.675 4.67003 10.2
      vertex 5.675 -4.67499 10.2
      vertex 5.675 4.67499 10.2
    endloop
  endfacet
  facet normal 0 0 1
    outer loop
      vertex 4.675 4.67003 10.2
      vertex 5.675 4.67499 10.2
      vertex 4.675 4.67499 10.2
    endloop
  endfacet
  facet normal -1 -0 0
    outer loop
      vertex 4.675 4.67003 2
      vertex 4.675 4.67003 10.2
      vertex 4.675 4.67499 10.2
    endloop
  endfacet
  facet normal -1 0 0
    outer loop
      vertex 4.675 4.67003 2
      vertex 4.675 4.67499 10.2
      vertex 4.675 4.67499 2
    endloop
  endfacet
  facet normal 0 1 -0
    outer loop
      vertex 4.675 4.67499 10.2
      vertex 5.675 4.67499 10.2
      vertex 5.675 4.67499 2
    endloop
  endfacet
  facet normal 0 1 0
    outer loop
      vertex 4.675 4.67499 2
      vertex 4.675 4.67499 10.2
      vertex 5.675 4.67499 2
    endloop
  endfacet
  facet normal 0 0 1
    outer loop
      vertex 4.675 4.67499 2
      vertex 5.675 4.67499 2
      vertex 4.675 6.67499 2
    endloop
  endfacet
  facet normal 0 1 0
    outer loop
      vertex 4.675 6.67499 0
      vertex 4.675 6.67499 2
      vertex 5.675 6.67499 0
    endloop
  endfacet
  facet normal -0 0 1
    outer loop
      vertex 4.675 6.67499 2
      vertex 5.675 4.67499 2
      vertex 5.675 6.67499 2
    endloop
  endfacet
  facet normal 0 1 -0
    outer loop
      vertex 4.675 6.67499 2
      vertex 5.675 6.67499 2
      vertex 5.675 6.67499 0
    endloop
  endfacet
  facet normal 1 0 0
    outer loop
      vertex 5.675 -0.683441 6.74999
      vertex 5.675 0.683441 6.74999
      vertex 5.675 4.67499 10.2
    endloop
  endfacet
  facet normal 1 0 0
    outer loop
      vertex 5.675 -1.20953 6.22228
      vertex 5.675 -1.161 6.26099
      vertex 5.675 -1.16672 6.26672
    endloop
  endfacet
  facet normal 1 -0 0
    outer loop
      vertex 5.675 -4.67499 10.2
      vertex 5.675 -0.683441 6.74999
      vertex 5.675 4.67499 10.2
    endloop
  endfacet
  facet normal 1 0 0
    outer loop
      vertex 5.675 -4.67499 10.2
      vertex 5.675 -1.16672 6.26672
      vertex 5.675 -0.683441 6.74999
    endloop
  endfacet
  facet normal 1 0 0
    outer loop
      vertex 5.675 -4.67499 10.2
      vertex 5.675 -1.20953 6.22228
      vertex 5.675 -1.16672 6.26672
    endloop
  endfacet
  facet normal 1 0 0
    outer loop
      vertex 5.675 -4.67499 10.2
      vertex 5.675 -1.48659 5.8159
      vertex 5.675 -1.20953 6.22228
    endloop
  endfacet
  facet normal 1 0 0
    outer loop
      vertex 5.675 -4.67499 10.2
      vertex 5.675 -1.63156 5.34591
      vertex 5.675 -1.48659 5.8159
    endloop
  endfacet
  facet normal 1 0 0
    outer loop
      vertex 5.675 -4.67499 2
      vertex 5.675 -0.367157 3.49137
      vertex 5.675 -0.824997 3.67106
    endloop
  endfacet
  facet normal 1 0 0
    outer loop
      vertex 5.675 -4.67499 2
      vertex 5.675 -0.824997 3.67106
      vertex 5.675 -1.20953 3.97772
    endloop
  endfacet
  facet normal 1 0 0
    outer loop
      vertex 5.675 -4.67499 2
      vertex 5.675 -1.20953 3.97772
      vertex 5.675 -1.48659 4.3841
    endloop
  endfacet
  facet normal 1 0 0
    outer loop
      vertex 5.675 -4.67499 2
      vertex 5.675 -1.48659 4.3841
      vertex 5.675 -1.63156 4.85409
    endloop
  endfacet
  facet normal 1 0 0
    outer loop
      vertex 5.675 -4.67499 2
      vertex 5.675 -1.63156 4.85409
      vertex 5.675 -1.63156 5.34591
    endloop
  endfacet
  facet normal 1 0 0
    outer loop
      vertex 5.675 -4.67499 2
      vertex 5.675 -1.63156 5.34591
      vertex 5.675 -4.67499 10.2
    endloop
  endfacet
  facet normal 1 0 0
    outer loop
      vertex 5.675 -4.67499 2
      vertex 5.675 0.105267 3.45596
      vertex 5.675 -0.367157 3.49137
    endloop
  endfacet
  facet normal 1 0 0
    outer loop
      vertex 5.675 -4.67499 2
      vertex 5.675 0.123291 3.45461
      vertex 5.675 0.105267 3.45596
    endloop
  endfacet
  facet normal 1 0 0
    outer loop
      vertex 5.675 -4.67499 2
      vertex 5.675 6.67499 0
      vertex 5.675 0.123291 3.45461
    endloop
  endfacet
  facet normal 1 0 0
    outer loop
      vertex 5.675 -6.67499 0
      vertex 5.675 -4.67499 2
      vertex 5.675 -6.67499 2
    endloop
  endfacet
  facet normal 1 0 0
    outer loop
      vertex 5.675 -6.67499 0
      vertex 5.675 6.67499 0
      vertex 5.675 -4.67499 2
    endloop
  endfacet
  facet normal 1 -0 0
    outer loop
      vertex 5.675 0.123291 3.45461
      vertex 5.675 4.67499 2
      vertex 5.675 0.602798 3.56406
    endloop
  endfacet
  facet normal 1 0 0
    outer loop
      vertex 5.675 0.123291 3.45461
      vertex 5.675 6.67499 0
      vertex 5.675 4.67499 2
    endloop
  endfacet
  facet normal 1 -0 0
    outer loop
      vertex 5.675 0.602798 3.56406
      vertex 5.675 4.67499 2
      vertex 5.675 1.02875 3.80999
    endloop
  endfacet
  facet normal 1 0 0
    outer loop
      vertex 5.675 0.683441 6.74999
      vertex 5.675 0.701202 6.73223
      vertex 5.675 4.67499 10.2
    endloop
  endfacet
  facet normal 1 0 0
    outer loop
      vertex 5.675 0.701202 6.73223
      vertex 5.675 1.16672 6.26672
      vertex 5.675 4.67499 10.2
    endloop
  endfacet
  facet normal 1 -0 0
    outer loop
      vertex 5.675 1.02875 3.80999
      vertex 5.675 4.67499 2
      vertex 5.675 1.36328 4.17053
    endloop
  endfacet
  facet normal 1 0 0
    outer loop
      vertex 5.675 1.1545 6.25449
      vertex 5.675 1.36328 6.02947
      vertex 5.675 1.16672 6.26672
    endloop
  endfacet
  facet normal 1 0 0
    outer loop
      vertex 5.675 1.16672 6.26672
      vertex 5.675 1.36328 6.02947
      vertex 5.675 4.67499 10.2
    endloop
  endfacet
  facet normal 1 -0 0
    outer loop
      vertex 5.675 1.36328 4.17053
      vertex 5.675 4.67499 2
      vertex 5.675 1.57669 4.61366
    endloop
  endfacet
  facet normal 1 0 0
    outer loop
      vertex 5.675 1.36328 6.02947
      vertex 5.675 1.57669 5.58634
      vertex 5.675 4.67499 10.2
    endloop
  endfacet
  facet normal 1 -0 0
    outer loop
      vertex 5.675 1.57669 4.61366
      vertex 5.675 4.67499 2
      vertex 5.675 1.64999 5.1
    endloop
  endfacet
  facet normal 1 0 0
    outer loop
      vertex 5.675 1.57669 5.58634
      vertex 5.675 1.64999 5.1
      vertex 5.675 4.67499 2
    endloop
  endfacet
  facet normal 1 -0 0
    outer loop
      vertex 5.675 1.57669 5.58634
      vertex 5.675 4.67499 2
      vertex 5.675 4.67499 10.2
    endloop
  endfacet
  facet normal 1 -0 0
    outer loop
      vertex 5.675 4.67499 2
      vertex 5.675 6.67499 0
      vertex 5.675 6.67499 2
    endloop
  endfacet
endsolid OpenSCAD_Model
