solid OpenSCAD_Model
  facet normal 0 1 0
    outer loop
      vertex -10.7477 10.6398 0
      vertex -10.7477 10.6398 8.6
      vertex 10.7477 10.6398 0
    endloop
  endfacet
  facet normal 0 0 -1
    outer loop
      vertex -10.7477 10.6398 0
      vertex -6.64581 8.16 0
      vertex -8.27977 8.53294 0
    endloop
  endfacet
  facet normal 0 0 -1
    outer loop
      vertex -10.7477 10.6398 0
      vertex -8.27977 8.53294 0
      vertex -9.5901 7.48799 0
    endloop
  endfacet
  facet normal 0 0 -1
    outer loop
      vertex -10.7477 10.6398 0
      vertex 10.7477 10.6398 0
      vertex -6.64581 8.16 0
    endloop
  endfacet
  facet normal -0 0 1
    outer loop
      vertex -10.7477 10.6398 8.6
      vertex -6.64581 8.16 8.6
      vertex 10.7477 10.6398 8.6
    endloop
  endfacet
  facet normal 0 0 1
    outer loop
      vertex -10.7477 10.6398 8.6
      vertex -8.27977 8.53294 8.6
      vertex -6.64581 8.16 8.6
    endloop
  endfacet
  facet normal 0 0 1
    outer loop
      vertex -10.7477 10.6398 8.6
      vertex -9.5901 7.48799 8.6
      vertex -8.27977 8.53294 8.6
    endloop
  endfacet
  facet normal 0 1 -0
    outer loop
      vertex -10.7477 10.6398 8.6
      vertex 10.7477 10.6398 8.6
      vertex 10.7477 10.6398 0
    endloop
  endfacet
  facet normal 0 0 -1
    outer loop
      vertex -11.2365 10.5582 0
      vertex -10.7477 10.6398 0
      vertex -9.5901 7.48799 0
    endloop
  endfacet
  facet normal -0.164596 0.986361 0
    outer loop
      vertex -11.2365 10.5582 0
      vertex -11.2365 10.5582 8.6
      vertex -10.7477 10.6398 0
    endloop
  endfacet
  facet normal -0.164596 0.986361 0
    outer loop
      vertex -11.2365 10.5582 8.6
      vertex -10.7477 10.6398 8.6
      vertex -10.7477 10.6398 0
    endloop
  endfacet
  facet normal -0 0 1
    outer loop
      vertex -11.2365 10.5582 8.6
      vertex -9.5901 7.48799 8.6
      vertex -10.7477 10.6398 8.6
    endloop
  endfacet
  facet normal 0 0 -1
    outer loop
      vertex -11.7051 10.3973 0
      vertex -11.2365 10.5582 0
      vertex -9.5901 7.48799 0
    endloop
  endfacet
  facet normal -0.324698 0.945818 0
    outer loop
      vertex -11.7051 10.3973 0
      vertex -11.7051 10.3973 8.6
      vertex -11.2365 10.5582 0
    endloop
  endfacet
  facet normal -0.324698 0.945818 0
    outer loop
      vertex -11.7051 10.3973 8.6
      vertex -11.2365 10.5582 8.6
      vertex -11.2365 10.5582 0
    endloop
  endfacet
  facet normal -0 0 1
    outer loop
      vertex -11.7051 10.3973 8.6
      vertex -9.5901 7.48799 8.6
      vertex -11.2365 10.5582 8.6
    endloop
  endfacet
  facet normal 0 0 -1
    outer loop
      vertex -12.1408 10.1615 0
      vertex -11.7051 10.3973 0
      vertex -9.5901 7.48799 0
    endloop
  endfacet
  facet normal -0.475947 0.879474 0
    outer loop
      vertex -12.1408 10.1615 0
      vertex -12.1408 10.1615 8.6
      vertex -11.7051 10.3973 0
    endloop
  endfacet
  facet normal -0.475947 0.879474 0
    outer loop
      vertex -12.1408 10.1615 8.6
      vertex -11.7051 10.3973 8.6
      vertex -11.7051 10.3973 0
    endloop
  endfacet
  facet normal -0 0 1
    outer loop
      vertex -12.1408 10.1615 8.6
      vertex -9.5901 7.48799 8.6
      vertex -11.7051 10.3973 8.6
    endloop
  endfacet
  facet normal 0 0 -1
    outer loop
      vertex -12.5318 9.85717 0
      vertex -12.1408 10.1615 0
      vertex -9.5901 7.48799 0
    endloop
  endfacet
  facet normal -0.614213 0.78914 0
    outer loop
      vertex -12.5318 9.85717 0
      vertex -12.5318 9.85717 8.6
      vertex -12.1408 10.1615 0
    endloop
  endfacet
  facet normal -0.614213 0.78914 0
    outer loop
      vertex -12.5318 9.85717 8.6
      vertex -12.1408 10.1615 8.6
      vertex -12.1408 10.1615 0
    endloop
  endfacet
  facet normal -0 0 1
    outer loop
      vertex -12.5318 9.85717 8.6
      vertex -9.5901 7.48799 8.6
      vertex -12.1408 10.1615 8.6
    endloop
  endfacet
  facet normal 0 0 -1
    outer loop
      vertex -12.8674 9.49264 0
      vertex -12.5318 9.85717 0
      vertex -9.5901 7.48799 0
    endloop
  endfacet
  facet normal -0.735724 0.677282 0
    outer loop
      vertex -12.8674 9.49264 0
      vertex -12.5318 9.85717 8.6
      vertex -12.5318 9.85717 0
    endloop
  endfacet
  facet normal -0.735724 0.677282 0
    outer loop
      vertex -12.8674 9.49264 0
      vertex -12.8674 9.49264 8.6
      vertex -12.5318 9.85717 8.6
    endloop
  endfacet
  facet normal -0 0 1
    outer loop
      vertex -12.8674 9.49264 8.6
      vertex -9.5901 7.48799 8.6
      vertex -12.5318 9.85717 8.6
    endloop
  endfacet
  facet normal 0 0 -1
    outer loop
      vertex -13.1384 9.07784 0
      vertex -12.8674 9.49264 0
      vertex -9.5901 7.48799 0
    endloop
  endfacet
  facet normal -0.837166 0.546948 0
    outer loop
      vertex -13.1384 9.07784 0
      vertex -12.8674 9.49264 8.6
      vertex -12.8674 9.49264 0
    endloop
  endfacet
  facet normal -0.837166 0.546948 0
    outer loop
      vertex -13.1384 9.07784 0
      vertex -13.1384 9.07784 8.6
      vertex -12.8674 9.49264 8.6
    endloop
  endfacet
  facet normal -0 0 1
    outer loop
      vertex -13.1384 9.07784 8.6
      vertex -9.5901 7.48799 8.6
      vertex -12.8674 9.49264 8.6
    endloop
  endfacet
  facet normal 0 0 -1
    outer loop
      vertex -13.3375 8.6241 0
      vertex -13.1384 9.07784 0
      vertex -9.5901 7.48799 0
    endloop
  endfacet
  facet normal -0.915774 0.401694 0
    outer loop
      vertex -13.3375 8.6241 0
      vertex -13.1384 9.07784 8.6
      vertex -13.1384 9.07784 0
    endloop
  endfacet
  facet normal -0.915774 0.401694 0
    outer loop
      vertex -13.3375 8.6241 0
      vertex -13.3375 8.6241 8.6
      vertex -13.1384 9.07784 8.6
    endloop
  endfacet
  facet normal -0 0 1
    outer loop
      vertex -13.3375 8.6241 8.6
      vertex -9.5901 7.48799 8.6
      vertex -13.1384 9.07784 8.6
    endloop
  endfacet
  facet normal 0 0 -1
    outer loop
      vertex -13.4591 8.14378 0
      vertex -13.3375 8.6241 0
      vertex -9.5901 7.48799 0
    endloop
  endfacet
  facet normal -0.9694 0.245486 0
    outer loop
      vertex -13.4591 8.14378 0
      vertex -13.3375 8.6241 8.6
      vertex -13.3375 8.6241 0
    endloop
  endfacet
  facet normal -0.9694 0.245486 0
    outer loop
      vertex -13.4591 8.14378 0
      vertex -13.4591 8.14378 8.6
      vertex -13.3375 8.6241 8.6
    endloop
  endfacet
  facet normal -0 0 1
    outer loop
      vertex -13.4591 8.14378 8.6
      vertex -9.5901 7.48799 8.6
      vertex -13.3375 8.6241 8.6
    endloop
  endfacet
  facet normal -1 0 0
    outer loop
      vertex -13.5 -0.00888278 3.92544
      vertex -13.5 0 3.925
      vertex -13.5 7.65 0
    endloop
  endfacet
  facet normal -3.39659e-08 0.0490818 0.998795
    outer loop
      vertex -13.5 -0.00888278 3.92544
      vertex 13.5 -0.488554 3.94901
      vertex 13.5 0 3.925
    endloop
  endfacet
  facet normal -3.52787e-08 0.0490858 0.998795
    outer loop
      vertex -13.5 -0.00888278 3.92544
      vertex 13.5 0 3.925
      vertex -13.5 0 3.925
    endloop
  endfacet
  facet normal -1 0 0
    outer loop
      vertex -13.5 -0.497436 3.94945
      vertex -13.5 -0.00888278 3.92544
      vertex -13.5 7.65 0
    endloop
  endfacet
  facet normal -3.23386e-08 0.0490819 0.998795
    outer loop
      vertex -13.5 -0.497436 3.94945
      vertex 13.5 -0.488554 3.94901
      vertex -13.5 -0.00888278 3.92544
    endloop
  endfacet
  facet normal -3.36533e-08 0.0490859 0.998795
    outer loop
      vertex -13.5 -0.497436 3.94945
      vertex 13.5 -0.497436 3.94945
      vertex 13.5 -0.488554 3.94901
    endloop
  endfacet
  facet normal -3.00805e-08 0.146722 0.989178
    outer loop
      vertex -13.5 -0.506233 3.95075
      vertex 13.5 -0.497436 3.94945
      vertex -13.5 -0.497436 3.94945
    endloop
  endfacet
  facet normal -3.09801e-08 0.146725 0.989177
    outer loop
      vertex -13.5 -0.506233 3.95075
      vertex 13.5 -0.981285 4.02122
      vertex 13.5 -0.497436 3.94945
    endloop
  endfacet
  facet normal -2.22451e-08 0.146725 0.989177
    outer loop
      vertex -13.5 -0.990081 4.02252
      vertex 13.5 -0.981285 4.02122
      vertex -13.5 -0.506233 3.95075
    endloop
  endfacet
  facet normal -2.97556e-08 0.146748 0.989174
    outer loop
      vertex -13.5 -0.990081 4.02252
      vertex 13.5 -0.990082 4.02252
      vertex 13.5 -0.981285 4.02122
    endloop
  endfacet
  facet normal -2.56799e-08 0.24299 0.970029
    outer loop
      vertex -13.5 -0.990081 4.02252
      vertex 13.5 -1.47319 4.14354
      vertex 13.5 -0.990082 4.02252
    endloop
  endfacet
  facet normal -2.56799e-08 0.24299 0.970029
    outer loop
      vertex -13.5 -1.47319 4.14354
      vertex 13.5 -1.47319 4.14354
      vertex -13.5 -0.990081 4.02252
    endloop
  endfacet
  facet normal -2.13568e-08 0.336897 0.941541
    outer loop
      vertex -13.5 -1.47319 4.14354
      vertex 13.5 -1.94211 4.31133
      vertex 13.5 -1.47319 4.14354
    endloop
  endfacet
  facet normal -2.13568e-08 0.336897 0.941541
    outer loop
      vertex -13.5 -1.94211 4.31132
      vertex 13.5 -1.94211 4.31133
      vertex -13.5 -1.47319 4.14354
    endloop
  endfacet
  facet normal -1.68287e-08 0.427548 0.903993
    outer loop
      vertex -13.5 -1.94211 4.31132
      vertex 13.5 -2.39233 4.52426
      vertex 13.5 -1.94211 4.31133
    endloop
  endfacet
  facet normal -1 0 0
    outer loop
      vertex -13.5 -10.65 0
      vertex -13.5 -0.497436 3.94945
      vertex -13.5 7.65 0
    endloop
  endfacet
  facet normal -1 -0 0
    outer loop
      vertex -13.5 -10.65 0
      vertex -13.5 -0.506233 3.95075
      vertex -13.5 -0.497436 3.94945
    endloop
  endfacet
  facet normal -1 -0 0
    outer loop
      vertex -13.5 -10.65 0
      vertex -13.5 -0.990081 4.02252
      vertex -13.5 -0.506233 3.95075
    endloop
  endfacet
  facet normal -1 -0 0
    outer loop
      vertex -13.5 -10.65 0
      vertex -13.5 -1.47319 4.14354
      vertex -13.5 -0.990081 4.02252
    endloop
  endfacet
  facet normal -1 -0 0
    outer loop
      vertex -13.5 -10.65 0
      vertex -13.5 -1.94211 4.31132
      vertex -13.5 -1.47319 4.14354
    endloop
  endfacet
  facet normal -1 0 0
    outer loop
      vertex -13.5 -10.65 0
      vertex -13.5 -10.65 8.6
      vertex -13.5 -4.47574 6.60767
    endloop
  endfacet
  facet normal -1 0 0
    outer loop
      vertex -13.5 -10.65 0
      vertex -13.5 -2.39233 4.52426
      vertex -13.5 -1.94211 4.31132
    endloop
  endfacet
  facet normal -1 0 0
    outer loop
      vertex -13.5 -10.65 0
      vertex -13.5 -2.8195 4.7803
      vertex -13.5 -2.39233 4.52426
    endloop
  endfacet
  facet normal -1 0 0
    outer loop
      vertex -13.5 -10.65 0
      vertex -13.5 -3.21954 5.07698
      vertex -13.5 -2.8195 4.7803
    endloop
  endfacet
  facet normal -1 0 0
    outer loop
      vertex -13.5 -10.65 0
      vertex -13.5 -3.58856 5.41144
      vertex -13.5 -3.21954 5.07698
    endloop
  endfacet
  facet normal -1 0 0
    outer loop
      vertex -13.5 -10.65 0
      vertex -13.5 -3.92302 5.78046
      vertex -13.5 -3.58856 5.41144
    endloop
  endfacet
  facet normal -1 0 0
    outer loop
      vertex -13.5 -10.65 0
      vertex -13.5 -4.2197 6.1805
      vertex -13.5 -3.92302 5.78046
    endloop
  endfacet
  facet normal -1 0 0
    outer loop
      vertex -13.5 -10.65 0
      vertex -13.5 -4.47574 6.60767
      vertex -13.5 -4.2197 6.1805
    endloop
  endfacet
  facet normal -0 0 -1
    outer loop
      vertex -13.5 -10.65 0
      vertex -13.5 7.65 0
      vertex -9.5901 -5.81201 0
    endloop
  endfacet
  facet normal -0 0 -1
    outer loop
      vertex -13.5 -10.65 0
      vertex -6.64581 -8.16 0
      vertex 7.42023 -8.53294 0
    endloop
  endfacet
  facet normal 0 0 -1
    outer loop
      vertex -13.5 -10.65 0
      vertex -8.27977 -8.53294 0
      vertex -6.64581 -8.16 0
    endloop
  endfacet
  facet normal 0 0 -1
    outer loop
      vertex -13.5 -10.65 0
      vertex -9.5901 -5.81201 0
      vertex -9.5901 -7.48799 0
    endloop
  endfacet
  facet normal 0 0 -1
    outer loop
      vertex -13.5 -10.65 0
      vertex -9.5901 -7.48799 0
      vertex -8.27977 -8.53294 0
    endloop
  endfacet
  facet normal 0 -1 -0
    outer loop
      vertex -13.5 -10.65 0
      vertex 13.5 -10.65 0
      vertex 13.5 -10.65 8.6
    endloop
  endfacet
  facet normal 0 -1 0
    outer loop
      vertex -13.5 -10.65 0
      vertex 13.5 -10.65 8.6
      vertex -13.5 -10.65 8.6
    endloop
  endfacet
  facet normal 0 0 -1
    outer loop
      vertex -13.5 -10.65 0
      vertex 7.42023 -8.53294 0
      vertex 13.5 -10.65 0
    endloop
  endfacet
  facet normal -1 0 0
    outer loop
      vertex -13.5 -10.65 8.6
      vertex -13.5 -4.68867 7.05789
      vertex -13.5 -4.47574 6.60767
    endloop
  endfacet
  facet normal -1 0 0
    outer loop
      vertex -13.5 -10.65 8.6
      vertex -13.5 -4.85646 7.52681
      vertex -13.5 -4.68867 7.05789
    endloop
  endfacet
  facet normal -1 0 0
    outer loop
      vertex -13.5 -10.65 8.6
      vertex -13.5 -4.97748 8.00992
      vertex -13.5 -4.85646 7.52681
    endloop
  endfacet
  facet normal -1 0 0
    outer loop
      vertex -13.5 -10.65 8.6
      vertex -13.5 -4.97878 8.01871
      vertex -13.5 -4.97748 8.00992
    endloop
  endfacet
  facet normal -1 0 0
    outer loop
      vertex -13.5 -10.65 8.6
      vertex -13.5 -5.05055 8.50256
      vertex -13.5 -4.97878 8.01871
    endloop
  endfacet
  facet normal -1 0 0
    outer loop
      vertex -13.5 -10.65 8.6
      vertex -13.5 -5.05534 8.6
      vertex -13.5 -5.05055 8.50256
    endloop
  endfacet
  facet normal 0 0 1
    outer loop
      vertex -13.5 -10.65 8.6
      vertex -6.64581 -8.16 8.6
      vertex -8.27977 -8.53294 8.6
    endloop
  endfacet
  facet normal 0 0 1
    outer loop
      vertex -13.5 -10.65 8.6
      vertex -8.27977 -8.53294 8.6
      vertex -9.5901 -7.48799 8.6
    endloop
  endfacet
  facet normal 0 0 1
    outer loop
      vertex -13.5 -10.65 8.6
      vertex -9.5901 -7.48799 8.6
      vertex -13.5 -5.05534 8.6
    endloop
  endfacet
  facet normal 0 0 1
    outer loop
      vertex -13.5 -10.65 8.6
      vertex 13.5 -10.65 8.6
      vertex 7.42023 -8.53294 8.6
    endloop
  endfacet
  facet normal 0 0 1
    outer loop
      vertex -13.5 -10.65 8.6
      vertex 7.42023 -8.53294 8.6
      vertex -6.64581 -8.16 8.6
    endloop
  endfacet
  facet normal -1.68287e-08 0.427548 0.903993
    outer loop
      vertex -13.5 -2.39233 4.52426
      vertex 13.5 -2.39233 4.52426
      vertex -13.5 -1.94211 4.31132
    endloop
  endfacet
  facet normal -1.21367e-08 0.514113 0.857723
    outer loop
      vertex -13.5 -2.39233 4.52426
      vertex 13.5 -2.8195 4.7803
      vertex 13.5 -2.39233 4.52426
    endloop
  endfacet
  facet normal -7.3305e-09 0.595682 0.80322
    outer loop
      vertex -13.5 -2.8195 4.7803
      vertex -6.205 -3.11574 5
      vertex 13.5 -2.8195 4.7803
    endloop
  endfacet
  facet normal 0 0.595682 0.80322
    outer loop
      vertex -13.5 -2.8195 4.7803
      vertex -9.495 -3.11574 5
      vertex -6.205 -3.11574 5
    endloop
  endfacet
  facet normal -1.21367e-08 0.514113 0.857723
    outer loop
      vertex -13.5 -2.8195 4.7803
      vertex 13.5 -2.8195 4.7803
      vertex -13.5 -2.39233 4.52426
    endloop
  endfacet
  facet normal -8.91863e-10 0.595682 0.80322
    outer loop
      vertex -13.5 -3.21954 5.07698
      vertex -9.495 -3.11574 5
      vertex -13.5 -2.8195 4.7803
    endloop
  endfacet
  facet normal 3.54611e-08 0.595682 0.803221
    outer loop
      vertex -13.5 -3.21954 5.07698
      vertex -9.495 -3.21954 5.07698
      vertex -9.495 -3.11574 5
    endloop
  endfacet
  facet normal 3.9978e-08 0.671557 0.740953
    outer loop
      vertex -13.5 -3.21954 5.07698
      vertex -9.495 -3.58856 5.41144
      vertex -9.495 -3.21954 5.07698
    endloop
  endfacet
  facet normal 3.9978e-08 0.671557 0.740953
    outer loop
      vertex -13.5 -3.58856 5.41144
      vertex -9.495 -3.58856 5.41144
      vertex -13.5 -3.21954 5.07698
    endloop
  endfacet
  facet normal 4.41091e-08 0.740953 0.671557
    outer loop
      vertex -13.5 -3.92302 5.78046
      vertex -9.495 -3.58856 5.41144
      vertex -13.5 -3.58856 5.41144
    endloop
  endfacet
  facet normal 4.41091e-08 0.740953 0.671557
    outer loop
      vertex -13.5 -3.92302 5.78046
      vertex -9.495 -3.92302 5.78046
      vertex -9.495 -3.58856 5.41144
    endloop
  endfacet
  facet normal 4.78159e-08 0.80322 0.595682
    outer loop
      vertex -13.5 -4.2197 6.1805
      vertex -9.495 -3.92302 5.78046
      vertex -13.5 -3.92302 5.78046
    endloop
  endfacet
  facet normal 0 0.80322 0.595682
    outer loop
      vertex -13.5 -4.2197 6.1805
      vertex -9.495 -4.2197 6.1805
      vertex -9.495 -3.92302 5.78046
    endloop
  endfacet
  facet normal 0 0.857723 0.514113
    outer loop
      vertex -13.5 -4.47574 6.60767
      vertex -9.495 -4.2197 6.1805
      vertex -13.5 -4.2197 6.1805
    endloop
  endfacet
  facet normal 0 0.857723 0.514113
    outer loop
      vertex -13.5 -4.47574 6.60767
      vertex -9.495 -4.47574 6.60767
      vertex -9.495 -4.2197 6.1805
    endloop
  endfacet
  facet normal 0 0.903993 0.427548
    outer loop
      vertex -13.5 -4.68867 7.05789
      vertex -9.495 -4.47574 6.60767
      vertex -13.5 -4.47574 6.60767
    endloop
  endfacet
  facet normal 0 0.903993 0.427548
    outer loop
      vertex -13.5 -4.68867 7.05789
      vertex -9.495 -4.68867 7.05789
      vertex -9.495 -4.47574 6.60767
    endloop
  endfacet
  facet normal 0 0.941541 0.336897
    outer loop
      vertex -13.5 -4.85646 7.52681
      vertex -9.495 -4.68867 7.05789
      vertex -13.5 -4.68867 7.05789
    endloop
  endfacet
  facet normal 0 0.941541 0.336897
    outer loop
      vertex -13.5 -4.85646 7.52681
      vertex -9.495 -4.85646 7.52681
      vertex -9.495 -4.68867 7.05789
    endloop
  endfacet
  facet normal 0 0.970029 0.24299
    outer loop
      vertex -13.5 -4.97748 8.00992
      vertex -9.495 -4.85646 7.52681
      vertex -13.5 -4.85646 7.52681
    endloop
  endfacet
  facet normal 0 0.970029 0.24299
    outer loop
      vertex -13.5 -4.97748 8.00992
      vertex -9.495 -4.97748 8.00992
      vertex -9.495 -4.85646 7.52681
    endloop
  endfacet
  facet normal 0 0.989175 0.146741
    outer loop
      vertex -13.5 -4.97878 8.01871
      vertex -9.495 -4.97748 8.00992
      vertex -13.5 -4.97748 8.00992
    endloop
  endfacet
  facet normal -3.14473e-08 0.989177 0.146727
    outer loop
      vertex -13.5 -4.97878 8.01871
      vertex -9.495 -4.98923 8.08918
      vertex -9.495 -4.97748 8.00992
    endloop
  endfacet
  facet normal 6.1842e-09 0.989177 0.146725
    outer loop
      vertex -13.5 -5.05055 8.50256
      vertex -9.495 -4.98923 8.08918
      vertex -13.5 -4.97878 8.01871
    endloop
  endfacet
  facet normal 0 0.989177 0.146725
    outer loop
      vertex -13.5 -5.05055 8.50256
      vertex -9.495 -5.05055 8.50256
      vertex -9.495 -4.98923 8.08918
    endloop
  endfacet
  facet normal 0 0.998795 0.0490843
    outer loop
      vertex -13.5 -5.05534 8.6
      vertex -9.495 -5.05055 8.50256
      vertex -13.5 -5.05055 8.50256
    endloop
  endfacet
  facet normal 0 0.998795 0.0490843
    outer loop
      vertex -13.5 -5.05534 8.6
      vertex -9.495 -5.05534 8.6
      vertex -9.495 -5.05055 8.50256
    endloop
  endfacet
  facet normal -0 0 1
    outer loop
      vertex -13.5 -5.05534 8.6
      vertex -9.5901 -5.81201 8.6
      vertex -9.495 -5.05534 8.6
    endloop
  endfacet
  facet normal 0 0 1
    outer loop
      vertex -13.5 -5.05534 8.6
      vertex -9.5901 -7.48799 8.6
      vertex -9.5901 -5.81201 8.6
    endloop
  endfacet
  facet normal -1 0 0
    outer loop
      vertex -13.5 0 3.925
      vertex -13.5 0.488554 3.94901
      vertex -13.5 7.65 0
    endloop
  endfacet
  facet normal -3.52787e-08 -0.0490857 0.998795
    outer loop
      vertex -13.5 0 3.925
      vertex 13.5 0 3.925
      vertex 13.5 0.0088828 3.92544
    endloop
  endfacet
  facet normal -3.6561e-08 -0.0490818 0.998795
    outer loop
      vertex -13.5 0 3.925
      vertex 13.5 0.0088828 3.92544
      vertex -13.5 0.488554 3.94901
    endloop
  endfacet
  facet normal -1 0 0
    outer loop
      vertex -13.5 0.488554 3.94901
      vertex -13.5 0.497436 3.94945
      vertex -13.5 7.65 0
    endloop
  endfacet
  facet normal -3.82182e-08 -0.0490819 0.998795
    outer loop
      vertex -13.5 0.488554 3.94901
      vertex 13.5 0.0088828 3.92544
      vertex 13.5 0.497436 3.94945
    endloop
  endfacet
  facet normal -3.69041e-08 -0.0490859 0.998795
    outer loop
      vertex -13.5 0.488554 3.94901
      vertex 13.5 0.497436 3.94945
      vertex -13.5 0.497436 3.94945
    endloop
  endfacet
  facet normal -1 0 0
    outer loop
      vertex -13.5 0.497436 3.94945
      vertex -13.5 0.990082 4.02252
      vertex -13.5 7.65 0
    endloop
  endfacet
  facet normal -3.97976e-08 -0.146725 0.989177
    outer loop
      vertex -13.5 0.497436 3.94945
      vertex 13.5 0.497436 3.94945
      vertex -13.5 0.990082 4.02252
    endloop
  endfacet
  facet normal -1 0 0
    outer loop
      vertex -13.5 0.990082 4.02252
      vertex -13.5 1.47319 4.14354
      vertex -13.5 7.65 0
    endloop
  endfacet
  facet normal -4.01215e-08 -0.146725 0.989177
    outer loop
      vertex -13.5 0.990082 4.02252
      vertex 13.5 0.497436 3.94945
      vertex 13.5 0.990081 4.02252
    endloop
  endfacet
  facet normal -4.28454e-08 -0.24299 0.970029
    outer loop
      vertex -13.5 0.990082 4.02252
      vertex 13.5 0.990081 4.02252
      vertex -13.5 1.47319 4.14354
    endloop
  endfacet
  facet normal -1 0 0
    outer loop
      vertex -13.5 1.47319 4.14354
      vertex -13.5 1.94211 4.31132
      vertex -13.5 7.65 0
    endloop
  endfacet
  facet normal -4.28454e-08 -0.24299 0.970029
    outer loop
      vertex -13.5 1.47319 4.14354
      vertex 13.5 0.990081 4.02252
      vertex 13.5 1.47319 4.14354
    endloop
  endfacet
  facet normal -4.51561e-08 -0.336897 0.941541
    outer loop
      vertex -13.5 1.47319 4.14354
      vertex 13.5 1.47319 4.14354
      vertex -13.5 1.94211 4.31132
    endloop
  endfacet
  facet normal -1 0 0
    outer loop
      vertex -13.5 1.94211 4.31132
      vertex -13.5 2.39233 4.52426
      vertex -13.5 7.65 0
    endloop
  endfacet
  facet normal -4.51561e-08 -0.336897 0.941541
    outer loop
      vertex -13.5 1.94211 4.31132
      vertex 13.5 1.47319 4.14354
      vertex 13.5 1.94211 4.31133
    endloop
  endfacet
  facet normal -4.70317e-08 -0.427548 0.903993
    outer loop
      vertex -13.5 1.94211 4.31132
      vertex 13.5 1.94211 4.31133
      vertex -13.5 2.39233 4.52426
    endloop
  endfacet
  facet normal -1 0 0
    outer loop
      vertex -13.5 2.39233 4.52426
      vertex -13.5 2.8195 4.7803
      vertex -13.5 7.65 0
    endloop
  endfacet
  facet normal -4.70317e-08 -0.427548 0.903993
    outer loop
      vertex -13.5 2.39233 4.52426
      vertex 13.5 1.94211 4.31133
      vertex 13.5 2.39233 4.52426
    endloop
  endfacet
  facet normal -4.8455e-08 -0.514113 0.857723
    outer loop
      vertex -13.5 2.39233 4.52426
      vertex 13.5 2.39233 4.52426
      vertex -13.5 2.8195 4.7803
    endloop
  endfacet
  facet normal -1 0 0
    outer loop
      vertex -13.5 2.8195 4.7803
      vertex -13.5 3.21954 5.07698
      vertex -13.5 7.65 0
    endloop
  endfacet
  facet normal -8.63354e-08 -0.595682 0.80322
    outer loop
      vertex -13.5 2.8195 4.7803
      vertex -6.205 3.11574 5
      vertex -9.495 3.11574 5
    endloop
  endfacet
  facet normal -3.6353e-08 -0.595682 0.80322
    outer loop
      vertex -13.5 2.8195 4.7803
      vertex -9.495 3.11574 5
      vertex -13.5 3.21954 5.07698
    endloop
  endfacet
  facet normal -4.8455e-08 -0.514113 0.857723
    outer loop
      vertex -13.5 2.8195 4.7803
      vertex 13.5 2.39233 4.52426
      vertex 13.5 2.8195 4.7803
    endloop
  endfacet
  facet normal -4.9411e-08 -0.595683 0.80322
    outer loop
      vertex -13.5 2.8195 4.7803
      vertex 13.5 2.8195 4.7803
      vertex -6.205 3.11574 5
    endloop
  endfacet
  facet normal -1 0 0
    outer loop
      vertex -13.5 3.21954 5.07698
      vertex -13.5 3.58856 5.41144
      vertex -13.5 7.65 0
    endloop
  endfacet
  facet normal -3.54611e-08 -0.595682 0.80322
    outer loop
      vertex -13.5 3.21954 5.07698
      vertex -9.495 3.11574 5
      vertex -9.495 3.21954 5.07698
    endloop
  endfacet
  facet normal -3.9978e-08 -0.671557 0.740953
    outer loop
      vertex -13.5 3.21954 5.07698
      vertex -9.495 3.21954 5.07698
      vertex -13.5 3.58856 5.41144
    endloop
  endfacet
  facet normal -1 0 0
    outer loop
      vertex -13.5 3.58856 5.41144
      vertex -13.5 3.92302 5.78046
      vertex -13.5 7.65 0
    endloop
  endfacet
  facet normal -3.9978e-08 -0.671557 0.740953
    outer loop
      vertex -13.5 3.58856 5.41144
      vertex -9.495 3.21954 5.07698
      vertex -9.495 3.58856 5.41144
    endloop
  endfacet
  facet normal -4.41091e-08 -0.740953 0.671557
    outer loop
      vertex -13.5 3.58856 5.41144
      vertex -9.495 3.58856 5.41144
      vertex -9.495 3.92302 5.78046
    endloop
  endfacet
  facet normal -4.41091e-08 -0.740953 0.671557
    outer loop
      vertex -13.5 3.58856 5.41144
      vertex -9.495 3.92302 5.78046
      vertex -13.5 3.92302 5.78046
    endloop
  endfacet
  facet normal -1 0 0
    outer loop
      vertex -13.5 3.92302 5.78046
      vertex -13.5 4.2197 6.1805
      vertex -13.5 7.65 0
    endloop
  endfacet
  facet normal -4.78159e-08 -0.80322 0.595683
    outer loop
      vertex -13.5 3.92302 5.78046
      vertex -9.495 3.92302 5.78046
      vertex -9.495 4.2197 6.1805
    endloop
  endfacet
  facet normal 0 -0.80322 0.595682
    outer loop
      vertex -13.5 3.92302 5.78046
      vertex -9.495 4.2197 6.1805
      vertex -13.5 4.2197 6.1805
    endloop
  endfacet
  facet normal -1 0 0
    outer loop
      vertex -13.5 4.2197 6.1805
      vertex -13.5 4.47574 6.60767
      vertex -13.5 7.65 0
    endloop
  endfacet
  facet normal 0 -0.857723 0.514113
    outer loop
      vertex -13.5 4.2197 6.1805
      vertex -9.495 4.2197 6.1805
      vertex -9.495 4.47574 6.60767
    endloop
  endfacet
  facet normal 0 -0.857723 0.514113
    outer loop
      vertex -13.5 4.2197 6.1805
      vertex -9.495 4.47574 6.60767
      vertex -13.5 4.47574 6.60767
    endloop
  endfacet
  facet normal -1 0 0
    outer loop
      vertex -13.5 4.47574 6.60767
      vertex -13.5 4.68867 7.05789
      vertex -13.5 7.65 8.6
    endloop
  endfacet
  facet normal -1 0 0
    outer loop
      vertex -13.5 4.47574 6.60767
      vertex -13.5 7.65 8.6
      vertex -13.5 7.65 0
    endloop
  endfacet
  facet normal 0 -0.903993 0.427548
    outer loop
      vertex -13.5 4.47574 6.60767
      vertex -9.495 4.47574 6.60767
      vertex -9.495 4.68867 7.05789
    endloop
  endfacet
  facet normal 0 -0.903993 0.427548
    outer loop
      vertex -13.5 4.47574 6.60767
      vertex -9.495 4.68867 7.05789
      vertex -13.5 4.68867 7.05789
    endloop
  endfacet
  facet normal -1 0 0
    outer loop
      vertex -13.5 4.68867 7.05789
      vertex -13.5 4.85646 7.52681
      vertex -13.5 7.65 8.6
    endloop
  endfacet
  facet normal 0 -0.941541 0.336897
    outer loop
      vertex -13.5 4.68867 7.05789
      vertex -9.495 4.68867 7.05789
      vertex -9.495 4.85646 7.52681
    endloop
  endfacet
  facet normal 0 -0.941541 0.336897
    outer loop
      vertex -13.5 4.68867 7.05789
      vertex -9.495 4.85646 7.52681
      vertex -13.5 4.85646 7.52681
    endloop
  endfacet
  facet normal -1 0 0
    outer loop
      vertex -13.5 4.85646 7.52681
      vertex -13.5 4.97748 8.00992
      vertex -13.5 7.65 8.6
    endloop
  endfacet
  facet normal 0 -0.970029 0.24299
    outer loop
      vertex -13.5 4.85646 7.52681
      vertex -9.495 4.85646 7.52681
      vertex -9.495 4.97748 8.00992
    endloop
  endfacet
  facet normal 0 -0.970029 0.24299
    outer loop
      vertex -13.5 4.85646 7.52681
      vertex -9.495 4.97748 8.00992
      vertex -13.5 4.97748 8.00992
    endloop
  endfacet
  facet normal -1 0 0
    outer loop
      vertex -13.5 4.97748 8.00992
      vertex -13.5 5.05055 8.50256
      vertex -13.5 7.65 8.6
    endloop
  endfacet
  facet normal 0 -0.989177 0.146725
    outer loop
      vertex -13.5 4.97748 8.00992
      vertex -9.495 4.97748 8.00992
      vertex -9.495 5.05055 8.50256
    endloop
  endfacet
  facet normal 0 -0.989177 0.146725
    outer loop
      vertex -13.5 4.97748 8.00992
      vertex -9.495 5.05055 8.50256
      vertex -13.5 5.05055 8.50256
    endloop
  endfacet
  facet normal -1 -0 0
    outer loop
      vertex -13.5 5.05055 8.50256
      vertex -13.5 5.05534 8.6
      vertex -13.5 7.65 8.6
    endloop
  endfacet
  facet normal 0 -0.998795 0.0490795
    outer loop
      vertex -13.5 5.05055 8.50256
      vertex -9.495 5.05055 8.50256
      vertex -9.495 5.05534 8.6
    endloop
  endfacet
  facet normal 0 -0.998795 0.0490795
    outer loop
      vertex -13.5 5.05055 8.50256
      vertex -9.495 5.05534 8.6
      vertex -13.5 5.05534 8.6
    endloop
  endfacet
  facet normal 0 0 1
    outer loop
      vertex -13.5 5.05534 8.6
      vertex -9.495 5.05534 8.6
      vertex -9.5901 5.81201 8.6
    endloop
  endfacet
  facet normal 0 0 1
    outer loop
      vertex -13.5 5.05534 8.6
      vertex -9.5901 5.81201 8.6
      vertex -13.5 7.65 8.6
    endloop
  endfacet
  facet normal 0 -0 -1
    outer loop
      vertex -13.5 7.65 0
      vertex -13.4591 8.14378 0
      vertex -9.5901 7.48799 0
    endloop
  endfacet
  facet normal -0.996584 0.08258 0
    outer loop
      vertex -13.5 7.65 0
      vertex -13.4591 8.14378 8.6
      vertex -13.4591 8.14378 0
    endloop
  endfacet
  facet normal -0.996584 0.08258 0
    outer loop
      vertex -13.5 7.65 0
      vertex -13.5 7.65 8.6
      vertex -13.4591 8.14378 8.6
    endloop
  endfacet
  facet normal 0 0 -1
    outer loop
      vertex -13.5 7.65 0
      vertex -9.5901 5.81201 0
      vertex -9.5901 -5.81201 0
    endloop
  endfacet
  facet normal 0 0 -1
    outer loop
      vertex -13.5 7.65 0
      vertex -9.5901 7.48799 0
      vertex -9.5901 5.81201 0
    endloop
  endfacet
  facet normal 0 0 1
    outer loop
      vertex -13.5 7.65 8.6
      vertex -9.5901 5.81201 8.6
      vertex -9.5901 7.48799 8.6
    endloop
  endfacet
  facet normal -0 0 1
    outer loop
      vertex -13.5 7.65 8.6
      vertex -9.5901 7.48799 8.6
      vertex -13.4591 8.14378 8.6
    endloop
  endfacet
  facet normal 0 0 -1
    outer loop
      vertex -5.91864 -6.65 0
      vertex 6.1099 -5.81201 0
      vertex 6.1099 -7.48799 0
    endloop
  endfacet
  facet normal 0 0 1
    outer loop
      vertex -5.91864 -6.65 8.6
      vertex 6.1099 -7.48799 8.6
      vertex 6.1099 -5.81201 8.6
    endloop
  endfacet
  facet normal 0 0 -1
    outer loop
      vertex -5.91864 6.65 0
      vertex 6.1099 7.48799 0
      vertex 6.1099 5.81201 0
    endloop
  endfacet
  facet normal 0 0 1
    outer loop
      vertex -5.91864 6.65 8.6
      vertex 6.1099 5.81201 8.6
      vertex 6.1099 7.48799 8.6
    endloop
  endfacet
  facet normal -1.14441e-08 0.595683 0.80322
    outer loop
      vertex -6.205 -3.11574 5
      vertex 6.205 -3.11574 5
      vertex 13.5 -2.8195 4.7803
    endloop
  endfacet
  facet normal -1.14441e-08 0.595681 0.803221
    outer loop
      vertex -6.205 -3.11574 5
      vertex 6.205 -3.21954 5.07698
      vertex 6.205 -3.11574 5
    endloop
  endfacet
  facet normal 2.28883e-08 0.595684 0.803219
    outer loop
      vertex -6.205 -3.21954 5.07698
      vertex 6.205 -3.21954 5.07698
      vertex -6.205 -3.11574 5
    endloop
  endfacet
  facet normal 2.58037e-08 0.671557 0.740953
    outer loop
      vertex -6.205 -3.21954 5.07698
      vertex 6.205 -3.58856 5.41144
      vertex 6.205 -3.21954 5.07698
    endloop
  endfacet
  facet normal 2.58037e-08 0.671557 0.740953
    outer loop
      vertex -6.205 -3.58856 5.41144
      vertex 6.205 -3.58856 5.41144
      vertex -6.205 -3.21954 5.07698
    endloop
  endfacet
  facet normal 2.84701e-08 0.740953 0.671557
    outer loop
      vertex -6.205 -3.92302 5.78046
      vertex 6.205 -3.58856 5.41144
      vertex -6.205 -3.58856 5.41144
    endloop
  endfacet
  facet normal 2.84701e-08 0.740953 0.671557
    outer loop
      vertex -6.205 -3.92302 5.78046
      vertex 6.205 -3.92302 5.78046
      vertex 6.205 -3.58856 5.41144
    endloop
  endfacet
  facet normal 3.08626e-08 0.80322 0.595683
    outer loop
      vertex -6.205 -4.2197 6.1805
      vertex 6.205 -3.92302 5.78046
      vertex -6.205 -3.92302 5.78046
    endloop
  endfacet
  facet normal 0 0.80322 0.595682
    outer loop
      vertex -6.205 -4.2197 6.1805
      vertex 6.205 -4.2197 6.1805
      vertex 6.205 -3.92302 5.78046
    endloop
  endfacet
  facet normal 0 0.857723 0.514113
    outer loop
      vertex -6.205 -4.47574 6.60767
      vertex 6.205 -4.2197 6.1805
      vertex -6.205 -4.2197 6.1805
    endloop
  endfacet
  facet normal 0 0.857723 0.514113
    outer loop
      vertex -6.205 -4.47574 6.60767
      vertex 6.205 -4.47574 6.60767
      vertex 6.205 -4.2197 6.1805
    endloop
  endfacet
  facet normal 0 0.903993 0.427548
    outer loop
      vertex -6.205 -4.68867 7.05789
      vertex 6.205 -4.47574 6.60767
      vertex -6.205 -4.47574 6.60767
    endloop
  endfacet
  facet normal 0 0.903993 0.427548
    outer loop
      vertex -6.205 -4.68867 7.05789
      vertex 6.205 -4.68867 7.05789
      vertex 6.205 -4.47574 6.60767
    endloop
  endfacet
  facet normal 0 0.941541 0.336897
    outer loop
      vertex -6.205 -4.85646 7.52681
      vertex 6.205 -4.68867 7.05789
      vertex -6.205 -4.68867 7.05789
    endloop
  endfacet
  facet normal 0 0.941541 0.336897
    outer loop
      vertex -6.205 -4.85646 7.52681
      vertex 6.205 -4.85646 7.52681
      vertex 6.205 -4.68867 7.05789
    endloop
  endfacet
  facet normal 0 0.970029 0.24299
    outer loop
      vertex -6.205 -4.97748 8.00992
      vertex 6.205 -4.85646 7.52681
      vertex -6.205 -4.85646 7.52681
    endloop
  endfacet
  facet normal -1.86731e-08 0.970029 0.24299
    outer loop
      vertex -6.205 -4.97748 8.00992
      vertex 6.205 -4.97748 8.00992
      vertex 6.205 -4.85646 7.52681
    endloop
  endfacet
  facet normal -1.12754e-08 0.989177 0.146725
    outer loop
      vertex -6.205 -4.99782 8.14707
      vertex 6.205 -4.97748 8.00992
      vertex -6.205 -4.97748 8.00992
    endloop
  endfacet
  facet normal -4.52149e-09 0.989177 0.146725
    outer loop
      vertex -6.205 -4.99782 8.14707
      vertex 6.205 -5.03021 8.36541
      vertex 6.205 -4.97748 8.00992
    endloop
  endfacet
  facet normal -4.52149e-09 0.989177 0.146725
    outer loop
      vertex -6.205 -5.05055 8.50256
      vertex 6.205 -5.03021 8.36541
      vertex -6.205 -4.99782 8.14707
    endloop
  endfacet
  facet normal -1.12754e-08 0.989177 0.146725
    outer loop
      vertex -6.205 -5.05055 8.50256
      vertex 6.205 -5.05055 8.50256
      vertex 6.205 -5.03021 8.36541
    endloop
  endfacet
  facet normal 0 0 1
    outer loop
      vertex -6.205 -5.05534 8.6
      vertex -5.91864 -6.65 8.6
      vertex 6.1099 -5.81201 8.6
    endloop
  endfacet
  facet normal 0 0 1
    outer loop
      vertex -6.205 -5.05534 8.6
      vertex 6.1099 -5.81201 8.6
      vertex 6.205 -5.05534 8.6
    endloop
  endfacet
  facet normal -3.77162e-09 0.998795 0.0490795
    outer loop
      vertex -6.205 -5.05534 8.6
      vertex 6.205 -5.05055 8.50256
      vertex -6.205 -5.05055 8.50256
    endloop
  endfacet
  facet normal 3.83773e-08 0.998795 0.0490848
    outer loop
      vertex -6.205 -5.05534 8.6
      vertex 6.205 -5.05534 8.6
      vertex 6.205 -5.05055 8.50256
    endloop
  endfacet
  facet normal -0.900969 -0.433884 -0
    outer loop
      vertex -6.205 -6.05536 5
      vertex -5.91864 -6.65 0
      vertex -5.91864 -6.65 8.6
    endloop
  endfacet
  facet normal -0.900969 -0.433884 0
    outer loop
      vertex -6.205 -6.05536 5
      vertex -5.91864 -6.65 8.6
      vertex -6.205 -6.05536 8.6
    endloop
  endfacet
  facet normal -1 0 0
    outer loop
      vertex -6.205 -6.05536 5
      vertex -6.205 -3.21954 5.07698
      vertex -6.205 -3.11574 5
    endloop
  endfacet
  facet normal -1 0 0
    outer loop
      vertex -6.205 -6.05536 5
      vertex -6.205 -3.58856 5.41144
      vertex -6.205 -3.21954 5.07698
    endloop
  endfacet
  facet normal -1 0 0
    outer loop
      vertex -6.205 -6.05536 5
      vertex -6.205 -3.92302 5.78046
      vertex -6.205 -3.58856 5.41144
    endloop
  endfacet
  facet normal -1 0 0
    outer loop
      vertex -6.205 -6.05536 5
      vertex -6.205 -4.2197 6.1805
      vertex -6.205 -3.92302 5.78046
    endloop
  endfacet
  facet normal -1 0 0
    outer loop
      vertex -6.205 -6.05536 5
      vertex -6.205 -4.47574 6.60767
      vertex -6.205 -4.2197 6.1805
    endloop
  endfacet
  facet normal -1 0 0
    outer loop
      vertex -6.205 -6.05536 5
      vertex -6.205 -4.68867 7.05789
      vertex -6.205 -4.47574 6.60767
    endloop
  endfacet
  facet normal -1 0 0
    outer loop
      vertex -6.205 -6.05536 5
      vertex -6.205 -4.85646 7.52681
      vertex -6.205 -4.68867 7.05789
    endloop
  endfacet
  facet normal -1 0 0
    outer loop
      vertex -6.205 -6.05536 5
      vertex -6.205 -6.05536 8.6
      vertex -6.205 -4.85646 7.52681
    endloop
  endfacet
  facet normal 0 0 1
    outer loop
      vertex -6.205 -6.05536 8.6
      vertex -5.91864 -6.65 8.6
      vertex -6.205 -5.05534 8.6
    endloop
  endfacet
  facet normal -1 0 0
    outer loop
      vertex -6.205 -6.05536 8.6
      vertex -6.205 -4.97748 8.00992
      vertex -6.205 -4.85646 7.52681
    endloop
  endfacet
  facet normal -1 0 0
    outer loop
      vertex -6.205 -6.05536 8.6
      vertex -6.205 -4.99782 8.14707
      vertex -6.205 -4.97748 8.00992
    endloop
  endfacet
  facet normal -1 0 0
    outer loop
      vertex -6.205 -6.05536 8.6
      vertex -6.205 -5.05055 8.50256
      vertex -6.205 -4.99782 8.14707
    endloop
  endfacet
  facet normal -1 0 0
    outer loop
      vertex -6.205 -6.05536 8.6
      vertex -6.205 -5.05534 8.6
      vertex -6.205 -5.05055 8.50256
    endloop
  endfacet
  facet normal -1 0 -0
    outer loop
      vertex -6.205 3.11574 5
      vertex -6.205 3.21954 5.07698
      vertex -6.205 6.05536 5
    endloop
  endfacet
  facet normal -4.57766e-08 -0.595682 0.80322
    outer loop
      vertex -6.205 3.11574 5
      vertex 13.5 2.8195 4.7803
      vertex 6.205 3.11574 5
    endloop
  endfacet
  facet normal -4.57766e-08 -0.595683 0.80322
    outer loop
      vertex -6.205 3.11574 5
      vertex 6.205 3.11574 5
      vertex -6.205 3.21954 5.07698
    endloop
  endfacet
  facet normal -1 0 0
    outer loop
      vertex -6.205 3.21954 5.07698
      vertex -6.205 3.58856 5.41144
      vertex -6.205 6.05536 5
    endloop
  endfacet
  facet normal -2.28882e-08 -0.595681 0.803221
    outer loop
      vertex -6.205 3.21954 5.07698
      vertex 6.205 3.11574 5
      vertex 6.205 3.21954 5.07698
    endloop
  endfacet
  facet normal -2.58037e-08 -0.671557 0.740953
    outer loop
      vertex -6.205 3.21954 5.07698
      vertex 6.205 3.21954 5.07698
      vertex -6.205 3.58856 5.41144
    endloop
  endfacet
  facet normal -1 0 0
    outer loop
      vertex -6.205 3.58856 5.41144
      vertex -6.205 3.92302 5.78046
      vertex -6.205 6.05536 5
    endloop
  endfacet
  facet normal -2.58037e-08 -0.671557 0.740953
    outer loop
      vertex -6.205 3.58856 5.41144
      vertex 6.205 3.21954 5.07698
      vertex 6.205 3.58856 5.41144
    endloop
  endfacet
  facet normal -2.84701e-08 -0.740953 0.671557
    outer loop
      vertex -6.205 3.58856 5.41144
      vertex 6.205 3.58856 5.41144
      vertex 6.205 3.92302 5.78046
    endloop
  endfacet
  facet normal -2.84701e-08 -0.740953 0.671557
    outer loop
      vertex -6.205 3.58856 5.41144
      vertex 6.205 3.92302 5.78046
      vertex -6.205 3.92302 5.78046
    endloop
  endfacet
  facet normal -1 0 0
    outer loop
      vertex -6.205 3.92302 5.78046
      vertex -6.205 4.2197 6.1805
      vertex -6.205 6.05536 5
    endloop
  endfacet
  facet normal -3.08626e-08 -0.80322 0.595683
    outer loop
      vertex -6.205 3.92302 5.78046
      vertex 6.205 3.92302 5.78046
      vertex 6.205 4.2197 6.1805
    endloop
  endfacet
  facet normal 0 -0.80322 0.595682
    outer loop
      vertex -6.205 3.92302 5.78046
      vertex 6.205 4.2197 6.1805
      vertex -6.205 4.2197 6.1805
    endloop
  endfacet
  facet normal -1 0 0
    outer loop
      vertex -6.205 4.2197 6.1805
      vertex -6.205 4.47574 6.60767
      vertex -6.205 6.05536 5
    endloop
  endfacet
  facet normal 0 -0.857723 0.514113
    outer loop
      vertex -6.205 4.2197 6.1805
      vertex 6.205 4.2197 6.1805
      vertex 6.205 4.47574 6.60767
    endloop
  endfacet
  facet normal 0 -0.857723 0.514113
    outer loop
      vertex -6.205 4.2197 6.1805
      vertex 6.205 4.47574 6.60767
      vertex -6.205 4.47574 6.60767
    endloop
  endfacet
  facet normal -1 0 0
    outer loop
      vertex -6.205 4.47574 6.60767
      vertex -6.205 4.68867 7.05789
      vertex -6.205 6.05536 5
    endloop
  endfacet
  facet normal 0 -0.903993 0.427548
    outer loop
      vertex -6.205 4.47574 6.60767
      vertex 6.205 4.47574 6.60767
      vertex 6.205 4.68867 7.05789
    endloop
  endfacet
  facet normal 0 -0.903993 0.427548
    outer loop
      vertex -6.205 4.47574 6.60767
      vertex 6.205 4.68867 7.05789
      vertex -6.205 4.68867 7.05789
    endloop
  endfacet
  facet normal -1 0 0
    outer loop
      vertex -6.205 4.68867 7.05789
      vertex -6.205 4.85646 7.52681
      vertex -6.205 6.05536 5
    endloop
  endfacet
  facet normal 0 -0.941541 0.336897
    outer loop
      vertex -6.205 4.68867 7.05789
      vertex 6.205 4.68867 7.05789
      vertex 6.205 4.85646 7.52681
    endloop
  endfacet
  facet normal 0 -0.941541 0.336897
    outer loop
      vertex -6.205 4.68867 7.05789
      vertex 6.205 4.85646 7.52681
      vertex -6.205 4.85646 7.52681
    endloop
  endfacet
  facet normal -1 0 0
    outer loop
      vertex -6.205 4.85646 7.52681
      vertex -6.205 4.97748 8.00992
      vertex -6.205 6.05536 8.6
    endloop
  endfacet
  facet normal -1 0 0
    outer loop
      vertex -6.205 4.85646 7.52681
      vertex -6.205 6.05536 8.6
      vertex -6.205 6.05536 5
    endloop
  endfacet
  facet normal 0 -0.970029 0.24299
    outer loop
      vertex -6.205 4.85646 7.52681
      vertex 6.205 4.85646 7.52681
      vertex 6.205 4.97748 8.00992
    endloop
  endfacet
  facet normal -1.86731e-08 -0.970029 0.24299
    outer loop
      vertex -6.205 4.85646 7.52681
      vertex 6.205 4.97748 8.00992
      vertex -6.205 4.97748 8.00992
    endloop
  endfacet
  facet normal -1 0 0
    outer loop
      vertex -6.205 4.97748 8.00992
      vertex -6.205 5.05055 8.50256
      vertex -6.205 6.05536 8.6
    endloop
  endfacet
  facet normal -1.12754e-08 -0.989177 0.146725
    outer loop
      vertex -6.205 4.97748 8.00992
      vertex 6.205 4.97748 8.00992
      vertex -6.205 5.05055 8.50256
    endloop
  endfacet
  facet normal -1 -0 0
    outer loop
      vertex -6.205 5.05055 8.50256
      vertex -6.205 5.05534 8.6
      vertex -6.205 6.05536 8.6
    endloop
  endfacet
  facet normal -1.12754e-08 -0.989177 0.146725
    outer loop
      vertex -6.205 5.05055 8.50256
      vertex 6.205 4.97748 8.00992
      vertex 6.205 5.05055 8.50256
    endloop
  endfacet
  facet normal -3.772e-09 -0.998795 0.0490843
    outer loop
      vertex -6.205 5.05055 8.50256
      vertex 6.205 5.05055 8.50256
      vertex -6.205 5.05534 8.6
    endloop
  endfacet
  facet normal 0 0 1
    outer loop
      vertex -6.205 5.05534 8.6
      vertex -5.91864 6.65 8.6
      vertex -6.205 6.05536 8.6
    endloop
  endfacet
  facet normal 0 0 1
    outer loop
      vertex -6.205 5.05534 8.6
      vertex 6.1099 5.81201 8.6
      vertex -5.91864 6.65 8.6
    endloop
  endfacet
  facet normal -3.83773e-08 -0.998795 0.04908
    outer loop
      vertex -6.205 5.05534 8.6
      vertex 6.205 5.05055 8.50256
      vertex 6.205 5.05534 8.6
    endloop
  endfacet
  facet normal 0 0 1
    outer loop
      vertex -6.205 5.05534 8.6
      vertex 6.205 5.05534 8.6
      vertex 6.1099 5.81201 8.6
    endloop
  endfacet
  facet normal -0.900969 0.433884 0
    outer loop
      vertex -6.205 6.05536 5
      vertex -5.91864 6.65 8.6
      vertex -5.91864 6.65 0
    endloop
  endfacet
  facet normal -0.900969 0.433884 0
    outer loop
      vertex -6.205 6.05536 5
      vertex -6.205 6.05536 8.6
      vertex -5.91864 6.65 8.6
    endloop
  endfacet
  facet normal -0.900969 -0.433884 -4.6945e-09
    outer loop
      vertex -6.64581 -5.14 0
      vertex -5.91864 -6.65 0
      vertex -6.205 -6.05536 5
    endloop
  endfacet
  facet normal -0.900969 -0.433884 0
    outer loop
      vertex -6.64581 -5.14 0
      vertex -6.205 -6.05536 5
      vertex -6.64581 -5.14 5
    endloop
  endfacet
  facet normal 0 0 -1
    outer loop
      vertex -6.64581 -5.14 0
      vertex -6.64581 5.14 0
      vertex 6.1099 5.81201 0
    endloop
  endfacet
  facet normal 0 0 -1
    outer loop
      vertex -6.64581 -5.14 0
      vertex 6.1099 -5.81201 0
      vertex -5.91864 -6.65 0
    endloop
  endfacet
  facet normal 0 0 -1
    outer loop
      vertex -6.64581 -5.14 0
      vertex 6.1099 5.81201 0
      vertex 6.1099 -5.81201 0
    endloop
  endfacet
  facet normal 0 0 1
    outer loop
      vertex -6.64581 -5.14 5
      vertex -6.205 -6.05536 5
      vertex -6.205 -3.11574 5
    endloop
  endfacet
  facet normal -0 0 -1
    outer loop
      vertex -6.64581 -8.16 0
      vertex -5.91864 -6.65 0
      vertex 6.1099 -7.48799 0
    endloop
  endfacet
  facet normal -0.900969 0.433884 0
    outer loop
      vertex -6.64581 -8.16 0
      vertex -5.91864 -6.65 8.6
      vertex -5.91864 -6.65 0
    endloop
  endfacet
  facet normal -0.900969 0.433884 0
    outer loop
      vertex -6.64581 -8.16 0
      vertex -6.64581 -8.16 8.6
      vertex -5.91864 -6.65 8.6
    endloop
  endfacet
  facet normal 0 0 -1
    outer loop
      vertex -6.64581 -8.16 0
      vertex 6.1099 -7.48799 0
      vertex 7.42023 -8.53294 0
    endloop
  endfacet
  facet normal 0 0 1
    outer loop
      vertex -6.64581 -8.16 8.6
      vertex 6.1099 -7.48799 8.6
      vertex -5.91864 -6.65 8.6
    endloop
  endfacet
  facet normal 0 0 1
    outer loop
      vertex -6.64581 -8.16 8.6
      vertex 7.42023 -8.53294 8.6
      vertex 6.1099 -7.48799 8.6
    endloop
  endfacet
  facet normal -0 0 -1
    outer loop
      vertex -6.64581 5.14 0
      vertex -5.91864 6.65 0
      vertex 6.1099 5.81201 0
    endloop
  endfacet
  facet normal -0.900969 0.433884 -4.6945e-09
    outer loop
      vertex -6.64581 5.14 0
      vertex -6.205 6.05536 5
      vertex -5.91864 6.65 0
    endloop
  endfacet
  facet normal -0.900969 0.433884 0
    outer loop
      vertex -6.64581 5.14 0
      vertex -6.64581 5.14 5
      vertex -6.205 6.05536 5
    endloop
  endfacet
  facet normal -0 0 1
    outer loop
      vertex -6.64581 5.14 5
      vertex -6.205 3.11574 5
      vertex -6.205 6.05536 5
    endloop
  endfacet
  facet normal -0.900969 -0.433884 0
    outer loop
      vertex -6.64581 8.16 0
      vertex -5.91864 6.65 0
      vertex -6.64581 8.16 8.6
    endloop
  endfacet
  facet normal -0 0 -1
    outer loop
      vertex -6.64581 8.16 0
      vertex 10.7477 10.6398 0
      vertex 7.42023 8.53294 0
    endloop
  endfacet
  facet normal 0 0 -1
    outer loop
      vertex -6.64581 8.16 0
      vertex 6.1099 7.48799 0
      vertex -5.91864 6.65 0
    endloop
  endfacet
  facet normal 0 0 -1
    outer loop
      vertex -6.64581 8.16 0
      vertex 7.42023 8.53294 0
      vertex 6.1099 7.48799 0
    endloop
  endfacet
  facet normal -0.900969 -0.433884 0
    outer loop
      vertex -6.64581 8.16 8.6
      vertex -5.91864 6.65 0
      vertex -5.91864 6.65 8.6
    endloop
  endfacet
  facet normal 0 0 1
    outer loop
      vertex -6.64581 8.16 8.6
      vertex -5.91864 6.65 8.6
      vertex 6.1099 7.48799 8.6
    endloop
  endfacet
  facet normal -0 0 1
    outer loop
      vertex -6.64581 8.16 8.6
      vertex 6.1099 7.48799 8.6
      vertex 7.42023 8.53294 8.6
    endloop
  endfacet
  facet normal 0 0 1
    outer loop
      vertex -6.64581 8.16 8.6
      vertex 7.42023 8.53294 8.6
      vertex 10.7477 10.6398 8.6
    endloop
  endfacet
  facet normal -0.222521 -0.974928 -0
    outer loop
      vertex -8.27977 -4.76706 0
      vertex -6.64581 -5.14 0
      vertex -6.64581 -5.14 5
    endloop
  endfacet
  facet normal -0.222521 -0.974928 0
    outer loop
      vertex -8.27977 -4.76706 0
      vertex -6.64581 -5.14 5
      vertex -8.27977 -4.76706 5
    endloop
  endfacet
  facet normal 0 0 -1
    outer loop
      vertex -8.27977 -4.76706 0
      vertex -6.64581 5.14 0
      vertex -6.64581 -5.14 0
    endloop
  endfacet
  facet normal 0 0 -1
    outer loop
      vertex -8.27977 -4.76706 0
      vertex -8.27977 4.76706 0
      vertex -6.64581 5.14 0
    endloop
  endfacet
  facet normal 0 0 1
    outer loop
      vertex -8.27977 -4.76706 5
      vertex -6.64581 -5.14 5
      vertex -6.205 -3.11574 5
    endloop
  endfacet
  facet normal -0.222521 0.974928 0
    outer loop
      vertex -8.27977 -8.53294 0
      vertex -8.27977 -8.53294 8.6
      vertex -6.64581 -8.16 0
    endloop
  endfacet
  facet normal -0.222521 0.974928 0
    outer loop
      vertex -8.27977 -8.53294 8.6
      vertex -6.64581 -8.16 8.6
      vertex -6.64581 -8.16 0
    endloop
  endfacet
  facet normal -0.222521 0.974928 0
    outer loop
      vertex -8.27977 4.76706 0
      vertex -8.27977 4.76706 5
      vertex -6.64581 5.14 0
    endloop
  endfacet
  facet normal -0 0 1
    outer loop
      vertex -8.27977 4.76706 5
      vertex -6.205 3.11574 5
      vertex -6.64581 5.14 5
    endloop
  endfacet
  facet normal -0.222521 0.974928 0
    outer loop
      vertex -8.27977 4.76706 5
      vertex -6.64581 5.14 5
      vertex -6.64581 5.14 0
    endloop
  endfacet
  facet normal -0.222521 -0.974928 -0
    outer loop
      vertex -8.27977 8.53294 0
      vertex -6.64581 8.16 0
      vertex -6.64581 8.16 8.6
    endloop
  endfacet
  facet normal -0.222521 -0.974928 0
    outer loop
      vertex -8.27977 8.53294 0
      vertex -6.64581 8.16 8.6
      vertex -8.27977 8.53294 8.6
    endloop
  endfacet
  facet normal -0 0 1
    outer loop
      vertex -9.495 -3.11574 5
      vertex -8.27977 -4.76706 5
      vertex -6.205 -3.11574 5
    endloop
  endfacet
  facet normal 0.623489 -0.781832 0
    outer loop
      vertex -9.495 -5.73618 5
      vertex -8.27977 -4.76706 0
      vertex -8.27977 -4.76706 5
    endloop
  endfacet
  facet normal 0 0 1
    outer loop
      vertex -9.495 -5.73618 5
      vertex -8.27977 -4.76706 5
      vertex -9.495 -3.11574 5
    endloop
  endfacet
  facet normal 1 0 0
    outer loop
      vertex -9.495 -5.73618 5
      vertex -9.495 -3.11574 5
      vertex -9.495 -3.21954 5.07698
    endloop
  endfacet
  facet normal 1 0 0
    outer loop
      vertex -9.495 -5.73618 5
      vertex -9.495 -3.21954 5.07698
      vertex -9.495 -3.58856 5.41144
    endloop
  endfacet
  facet normal 1 0 0
    outer loop
      vertex -9.495 -5.73618 5
      vertex -9.495 -3.58856 5.41144
      vertex -9.495 -3.92302 5.78046
    endloop
  endfacet
  facet normal 1 0 0
    outer loop
      vertex -9.495 -5.73618 5
      vertex -9.495 -3.92302 5.78046
      vertex -9.495 -4.2197 6.1805
    endloop
  endfacet
  facet normal 1 0 0
    outer loop
      vertex -9.495 -5.73618 5
      vertex -9.495 -4.2197 6.1805
      vertex -9.495 -4.47574 6.60767
    endloop
  endfacet
  facet normal 1 0 0
    outer loop
      vertex -9.495 -5.73618 5
      vertex -9.495 -4.47574 6.60767
      vertex -9.495 -4.68867 7.05789
    endloop
  endfacet
  facet normal 1 0 0
    outer loop
      vertex -9.495 -5.73618 5
      vertex -9.495 -4.68867 7.05789
      vertex -9.495 -4.85646 7.52681
    endloop
  endfacet
  facet normal 1 0 0
    outer loop
      vertex -9.495 -5.73618 5
      vertex -9.495 -4.85646 7.52681
      vertex -9.495 -5.73618 8.6
    endloop
  endfacet
  facet normal 1 0 0
    outer loop
      vertex -9.495 -5.73618 8.6
      vertex -9.495 -4.85646 7.52681
      vertex -9.495 -4.97748 8.00992
    endloop
  endfacet
  facet normal 1 0 0
    outer loop
      vertex -9.495 -5.73618 8.6
      vertex -9.495 -4.97748 8.00992
      vertex -9.495 -4.98923 8.08918
    endloop
  endfacet
  facet normal 1 0 0
    outer loop
      vertex -9.495 -5.73618 8.6
      vertex -9.495 -4.98923 8.08918
      vertex -9.495 -5.05055 8.50256
    endloop
  endfacet
  facet normal 1 -0 0
    outer loop
      vertex -9.495 -5.73618 8.6
      vertex -9.495 -5.05055 8.50256
      vertex -9.495 -5.05534 8.6
    endloop
  endfacet
  facet normal 0 0 1
    outer loop
      vertex -9.495 3.11574 5
      vertex -6.205 3.11574 5
      vertex -8.27977 4.76706 5
    endloop
  endfacet
  facet normal 0 0 1
    outer loop
      vertex -9.495 3.11574 5
      vertex -8.27977 4.76706 5
      vertex -9.495 5.73618 5
    endloop
  endfacet
  facet normal 1 0 0
    outer loop
      vertex -9.495 3.11574 5
      vertex -9.495 5.73618 5
      vertex -9.495 3.21954 5.07698
    endloop
  endfacet
  facet normal 1 -0 0
    outer loop
      vertex -9.495 3.21954 5.07698
      vertex -9.495 5.73618 5
      vertex -9.495 3.58856 5.41144
    endloop
  endfacet
  facet normal 1 -0 0
    outer loop
      vertex -9.495 3.58856 5.41144
      vertex -9.495 5.73618 5
      vertex -9.495 3.92302 5.78046
    endloop
  endfacet
  facet normal 1 -0 0
    outer loop
      vertex -9.495 3.92302 5.78046
      vertex -9.495 5.73618 5
      vertex -9.495 4.2197 6.1805
    endloop
  endfacet
  facet normal 1 -0 0
    outer loop
      vertex -9.495 4.2197 6.1805
      vertex -9.495 5.73618 5
      vertex -9.495 4.47574 6.60767
    endloop
  endfacet
  facet normal 1 -0 0
    outer loop
      vertex -9.495 4.47574 6.60767
      vertex -9.495 5.73618 5
      vertex -9.495 4.68867 7.05789
    endloop
  endfacet
  facet normal 1 -0 0
    outer loop
      vertex -9.495 4.68867 7.05789
      vertex -9.495 5.73618 5
      vertex -9.495 4.85646 7.52681
    endloop
  endfacet
  facet normal 1 0 0
    outer loop
      vertex -9.495 4.85646 7.52681
      vertex -9.495 5.73618 5
      vertex -9.495 5.73618 8.6
    endloop
  endfacet
  facet normal 1 0 0
    outer loop
      vertex -9.495 4.85646 7.52681
      vertex -9.495 5.73618 8.6
      vertex -9.495 4.97748 8.00992
    endloop
  endfacet
  facet normal 1 0 0
    outer loop
      vertex -9.495 4.97748 8.00992
      vertex -9.495 5.73618 8.6
      vertex -9.495 5.05055 8.50256
    endloop
  endfacet
  facet normal 1 0 0
    outer loop
      vertex -9.495 5.05055 8.50256
      vertex -9.495 5.73618 8.6
      vertex -9.495 5.05534 8.6
    endloop
  endfacet
  facet normal 0.623489 0.781832 0
    outer loop
      vertex -9.495 5.73618 5
      vertex -8.27977 4.76706 5
      vertex -8.27977 4.76706 0
    endloop
  endfacet
  facet normal 0.62349 -0.781832 2.8868e-08
    outer loop
      vertex -9.5901 -5.81201 0
      vertex -8.27977 -4.76706 0
      vertex -9.495 -5.73618 5
    endloop
  endfacet
  facet normal 0 0 -1
    outer loop
      vertex -9.5901 -5.81201 0
      vertex -8.27977 4.76706 0
      vertex -8.27977 -4.76706 0
    endloop
  endfacet
  facet normal 0.62349 -0.781831 0
    outer loop
      vertex -9.5901 -5.81201 0
      vertex -9.495 -5.73618 5
      vertex -9.5901 -5.81201 8.6
    endloop
  endfacet
  facet normal -0 0 -1
    outer loop
      vertex -9.5901 -5.81201 0
      vertex -9.5901 5.81201 0
      vertex -8.27977 4.76706 0
    endloop
  endfacet
  facet normal 0.62349 -0.781831 0
    outer loop
      vertex -9.5901 -5.81201 8.6
      vertex -9.495 -5.73618 5
      vertex -9.495 -5.73618 8.6
    endloop
  endfacet
  facet normal 0 0 1
    outer loop
      vertex -9.5901 -5.81201 8.6
      vertex -9.495 -5.73618 8.6
      vertex -9.495 -5.05534 8.6
    endloop
  endfacet
  facet normal 1 0 0
    outer loop
      vertex -9.5901 -7.48799 0
      vertex -9.5901 -5.81201 0
      vertex -9.5901 -7.48799 8.6
    endloop
  endfacet
  facet normal 0.62349 0.781831 0
    outer loop
      vertex -9.5901 -7.48799 0
      vertex -9.5901 -7.48799 8.6
      vertex -8.27977 -8.53294 0
    endloop
  endfacet
  facet normal 0.62349 0.781831 -0
    outer loop
      vertex -9.5901 -7.48799 8.6
      vertex -8.27977 -8.53294 8.6
      vertex -8.27977 -8.53294 0
    endloop
  endfacet
  facet normal 1 -0 0
    outer loop
      vertex -9.5901 -7.48799 8.6
      vertex -9.5901 -5.81201 0
      vertex -9.5901 -5.81201 8.6
    endloop
  endfacet
  facet normal 0.62349 0.781832 2.8868e-08
    outer loop
      vertex -9.5901 5.81201 0
      vertex -9.495 5.73618 5
      vertex -8.27977 4.76706 0
    endloop
  endfacet
  facet normal 0.62349 0.781831 0
    outer loop
      vertex -9.5901 5.81201 0
      vertex -9.5901 5.81201 8.6
      vertex -9.495 5.73618 5
    endloop
  endfacet
  facet normal 1 0 0
    outer loop
      vertex -9.5901 5.81201 0
      vertex -9.5901 7.48799 0
      vertex -9.5901 5.81201 8.6
    endloop
  endfacet
  facet normal 0 0 1
    outer loop
      vertex -9.5901 5.81201 8.6
      vertex -9.495 5.05534 8.6
      vertex -9.495 5.73618 8.6
    endloop
  endfacet
  facet normal 0.62349 0.781831 -0
    outer loop
      vertex -9.5901 5.81201 8.6
      vertex -9.495 5.73618 8.6
      vertex -9.495 5.73618 5
    endloop
  endfacet
  facet normal 1 -0 0
    outer loop
      vertex -9.5901 5.81201 8.6
      vertex -9.5901 7.48799 0
      vertex -9.5901 7.48799 8.6
    endloop
  endfacet
  facet normal 0.62349 -0.781831 0
    outer loop
      vertex -9.5901 7.48799 0
      vertex -8.27977 8.53294 0
      vertex -8.27977 8.53294 8.6
    endloop
  endfacet
  facet normal 0.62349 -0.781831 0
    outer loop
      vertex -9.5901 7.48799 0
      vertex -8.27977 8.53294 8.6
      vertex -9.5901 7.48799 8.6
    endloop
  endfacet
  facet normal 0.164596 0.986361 0
    outer loop
      vertex 10.7477 10.6398 0
      vertex 10.7477 10.6398 8.6
      vertex 11.2365 10.5582 0
    endloop
  endfacet
  facet normal 0.164596 0.986361 -0
    outer loop
      vertex 10.7477 10.6398 8.6
      vertex 11.2365 10.5582 8.6
      vertex 11.2365 10.5582 0
    endloop
  endfacet
  facet normal 0.324698 0.945818 0
    outer loop
      vertex 11.2365 10.5582 0
      vertex 11.2365 10.5582 8.6
      vertex 11.7051 10.3973 0
    endloop
  endfacet
  facet normal 0.324698 0.945818 -0
    outer loop
      vertex 11.2365 10.5582 8.6
      vertex 11.7051 10.3973 8.6
      vertex 11.7051 10.3973 0
    endloop
  endfacet
  facet normal 0.475947 0.879474 0
    outer loop
      vertex 11.7051 10.3973 0
      vertex 11.7051 10.3973 8.6
      vertex 12.1408 10.1615 0
    endloop
  endfacet
  facet normal 0.475947 0.879474 -0
    outer loop
      vertex 11.7051 10.3973 8.6
      vertex 12.1408 10.1615 8.6
      vertex 12.1408 10.1615 0
    endloop
  endfacet
  facet normal 0.614213 0.78914 0
    outer loop
      vertex 12.1408 10.1615 0
      vertex 12.1408 10.1615 8.6
      vertex 12.5318 9.85717 0
    endloop
  endfacet
  facet normal 0.614213 0.78914 -0
    outer loop
      vertex 12.1408 10.1615 8.6
      vertex 12.5318 9.85717 8.6
      vertex 12.5318 9.85717 0
    endloop
  endfacet
  facet normal 0.735724 0.677282 0
    outer loop
      vertex 12.5318 9.85717 0
      vertex 12.5318 9.85717 8.6
      vertex 12.8674 9.49264 8.6
    endloop
  endfacet
  facet normal 0.735724 0.677282 0
    outer loop
      vertex 12.5318 9.85717 0
      vertex 12.8674 9.49264 8.6
      vertex 12.8674 9.49264 0
    endloop
  endfacet
  facet normal 0.837166 0.546948 0
    outer loop
      vertex 12.8674 9.49264 0
      vertex 12.8674 9.49264 8.6
      vertex 13.1384 9.07784 8.6
    endloop
  endfacet
  facet normal 0.837166 0.546948 0
    outer loop
      vertex 12.8674 9.49264 0
      vertex 13.1384 9.07784 8.6
      vertex 13.1384 9.07784 0
    endloop
  endfacet
  facet normal 0.915774 0.401694 0
    outer loop
      vertex 13.1384 9.07784 0
      vertex 13.1384 9.07784 8.6
      vertex 13.3375 8.6241 8.6
    endloop
  endfacet
  facet normal 0.915774 0.401694 0
    outer loop
      vertex 13.1384 9.07784 0
      vertex 13.3375 8.6241 8.6
      vertex 13.3375 8.6241 0
    endloop
  endfacet
  facet normal 0.9694 0.245486 0
    outer loop
      vertex 13.3375 8.6241 0
      vertex 13.3375 8.6241 8.6
      vertex 13.4591 8.14378 8.6
    endloop
  endfacet
  facet normal 0.9694 0.245486 0
    outer loop
      vertex 13.3375 8.6241 0
      vertex 13.4591 8.14378 8.6
      vertex 13.4591 8.14378 0
    endloop
  endfacet
  facet normal 0.996584 0.08258 0
    outer loop
      vertex 13.4591 8.14378 0
      vertex 13.4591 8.14378 8.6
      vertex 13.5 7.65 8.6
    endloop
  endfacet
  facet normal 0.996584 0.08258 0
    outer loop
      vertex 13.4591 8.14378 0
      vertex 13.5 7.65 8.6
      vertex 13.5 7.65 0
    endloop
  endfacet
  facet normal 1 0 0
    outer loop
      vertex 13.5 -0.488554 3.94901
      vertex 13.5 7.65 0
      vertex 13.5 0 3.925
    endloop
  endfacet
  facet normal 1 0 0
    outer loop
      vertex 13.5 -0.497436 3.94945
      vertex 13.5 7.65 0
      vertex 13.5 -0.488554 3.94901
    endloop
  endfacet
  facet normal 1 0 0
    outer loop
      vertex 13.5 -10.65 0
      vertex 13.5 -0.497436 3.94945
      vertex 13.5 -0.981285 4.02122
    endloop
  endfacet
  facet normal 1 0 0
    outer loop
      vertex 13.5 -10.65 0
      vertex 13.5 -0.981285 4.02122
      vertex 13.5 -0.990082 4.02252
    endloop
  endfacet
  facet normal 1 0 0
    outer loop
      vertex 13.5 -10.65 0
      vertex 13.5 -0.990082 4.02252
      vertex 13.5 -1.47319 4.14354
    endloop
  endfacet
  facet normal 1 0 0
    outer loop
      vertex 13.5 -10.65 0
      vertex 13.5 -1.47319 4.14354
      vertex 13.5 -1.94211 4.31133
    endloop
  endfacet
  facet normal 1 0 0
    outer loop
      vertex 13.5 -10.65 0
      vertex 13.5 -1.94211 4.31133
      vertex 13.5 -2.39233 4.52426
    endloop
  endfacet
  facet normal 1 0 0
    outer loop
      vertex 13.5 -10.65 0
      vertex 13.5 -2.39233 4.52426
      vertex 13.5 -2.8195 4.7803
    endloop
  endfacet
  facet normal 1 0 0
    outer loop
      vertex 13.5 -10.65 0
      vertex 13.5 -2.8195 4.7803
      vertex 13.5 -3.21954 5.07698
    endloop
  endfacet
  facet normal 1 0 0
    outer loop
      vertex 13.5 -10.65 0
      vertex 13.5 -3.21954 5.07698
      vertex 13.5 -3.58856 5.41144
    endloop
  endfacet
  facet normal 1 0 0
    outer loop
      vertex 13.5 -10.65 0
      vertex 13.5 -3.58856 5.41144
      vertex 13.5 -3.92302 5.78046
    endloop
  endfacet
  facet normal 1 0 0
    outer loop
      vertex 13.5 -10.65 0
      vertex 13.5 -3.92302 5.78046
      vertex 13.5 -4.2197 6.1805
    endloop
  endfacet
  facet normal 1 0 0
    outer loop
      vertex 13.5 -10.65 0
      vertex 13.5 -4.2197 6.1805
      vertex 13.5 -4.47574 6.60767
    endloop
  endfacet
  facet normal 1 0 0
    outer loop
      vertex 13.5 -10.65 0
      vertex 13.5 -4.47574 6.60767
      vertex 13.5 -10.65 8.6
    endloop
  endfacet
  facet normal 1 0 0
    outer loop
      vertex 13.5 -10.65 0
      vertex 13.5 7.65 0
      vertex 13.5 -0.497436 3.94945
    endloop
  endfacet
  facet normal 1 0 0
    outer loop
      vertex 13.5 -10.65 8.6
      vertex 13.5 -4.47574 6.60767
      vertex 13.5 -4.68867 7.05789
    endloop
  endfacet
  facet normal 1 0 0
    outer loop
      vertex 13.5 -10.65 8.6
      vertex 13.5 -4.68867 7.05789
      vertex 13.5 -4.85646 7.52681
    endloop
  endfacet
  facet normal 1 0 0
    outer loop
      vertex 13.5 -10.65 8.6
      vertex 13.5 -4.85646 7.52681
      vertex 13.5 -4.97748 8.00992
    endloop
  endfacet
  facet normal 1 0 0
    outer loop
      vertex 13.5 -10.65 8.6
      vertex 13.5 -4.97748 8.00992
      vertex 13.5 -5.04925 8.49377
    endloop
  endfacet
  facet normal 1 0 0
    outer loop
      vertex 13.5 -10.65 8.6
      vertex 13.5 -5.04925 8.49377
      vertex 13.5 -5.05055 8.50256
    endloop
  endfacet
  facet normal 1 -0 0
    outer loop
      vertex 13.5 -10.65 8.6
      vertex 13.5 -5.05055 8.50256
      vertex 13.5 -5.05534 8.6
    endloop
  endfacet
  facet normal 1 -0 0
    outer loop
      vertex 13.5 0 3.925
      vertex 13.5 7.65 0
      vertex 13.5 0.0088828 3.92544
    endloop
  endfacet
  facet normal 1 -0 0
    outer loop
      vertex 13.5 0.0088828 3.92544
      vertex 13.5 7.65 0
      vertex 13.5 0.497436 3.94945
    endloop
  endfacet
  facet normal 1 -0 0
    outer loop
      vertex 13.5 0.497436 3.94945
      vertex 13.5 7.65 0
      vertex 13.5 0.990081 4.02252
    endloop
  endfacet
  facet normal 1 -0 0
    outer loop
      vertex 13.5 0.990081 4.02252
      vertex 13.5 7.65 0
      vertex 13.5 1.47319 4.14354
    endloop
  endfacet
  facet normal 1 -0 0
    outer loop
      vertex 13.5 1.47319 4.14354
      vertex 13.5 7.65 0
      vertex 13.5 1.94211 4.31133
    endloop
  endfacet
  facet normal 1 -0 0
    outer loop
      vertex 13.5 1.94211 4.31133
      vertex 13.5 7.65 0
      vertex 13.5 2.39233 4.52426
    endloop
  endfacet
  facet normal 1 -0 0
    outer loop
      vertex 13.5 2.39233 4.52426
      vertex 13.5 7.65 0
      vertex 13.5 2.8195 4.7803
    endloop
  endfacet
  facet normal 1 -0 0
    outer loop
      vertex 13.5 2.8195 4.7803
      vertex 13.5 7.65 0
      vertex 13.5 3.21954 5.07698
    endloop
  endfacet
  facet normal 1 -0 0
    outer loop
      vertex 13.5 3.21954 5.07698
      vertex 13.5 7.65 0
      vertex 13.5 3.58856 5.41144
    endloop
  endfacet
  facet normal 1 -0 0
    outer loop
      vertex 13.5 3.58856 5.41144
      vertex 13.5 7.65 0
      vertex 13.5 3.92302 5.78046
    endloop
  endfacet
  facet normal 1 -0 0
    outer loop
      vertex 13.5 3.92302 5.78046
      vertex 13.5 7.65 0
      vertex 13.5 4.2197 6.1805
    endloop
  endfacet
  facet normal 1 -0 0
    outer loop
      vertex 13.5 4.2197 6.1805
      vertex 13.5 7.65 0
      vertex 13.5 4.47574 6.60767
    endloop
  endfacet
  facet normal 1 0 0
    outer loop
      vertex 13.5 4.47574 6.60767
      vertex 13.5 7.65 0
      vertex 13.5 7.65 8.6
    endloop
  endfacet
  facet normal 1 0 0
    outer loop
      vertex 13.5 4.47574 6.60767
      vertex 13.5 7.65 8.6
      vertex 13.5 4.68867 7.05789
    endloop
  endfacet
  facet normal 1 0 0
    outer loop
      vertex 13.5 4.68867 7.05789
      vertex 13.5 7.65 8.6
      vertex 13.5 4.85646 7.52681
    endloop
  endfacet
  facet normal 1 0 0
    outer loop
      vertex 13.5 4.85646 7.52681
      vertex 13.5 7.65 8.6
      vertex 13.5 4.97748 8.00992
    endloop
  endfacet
  facet normal 1 0 0
    outer loop
      vertex 13.5 4.97748 8.00992
      vertex 13.5 7.65 8.6
      vertex 13.5 5.05055 8.50256
    endloop
  endfacet
  facet normal 1 0 0
    outer loop
      vertex 13.5 5.05055 8.50256
      vertex 13.5 7.65 8.6
      vertex 13.5 5.05534 8.6
    endloop
  endfacet
  facet normal -0 0 -1
    outer loop
      vertex 6.1099 -5.81201 0
      vertex 6.1099 5.81201 0
      vertex 7.42023 4.76706 0
    endloop
  endfacet
  facet normal 0.623489 -0.781832 0
    outer loop
      vertex 6.1099 -5.81201 0
      vertex 6.205 -5.73618 5
      vertex 6.1099 -5.81201 8.6
    endloop
  endfacet
  facet normal 0.62349 -0.781832 -1.54919e-08
    outer loop
      vertex 6.1099 -5.81201 0
      vertex 7.42023 -4.76706 0
      vertex 6.205 -5.73618 5
    endloop
  endfacet
  facet normal 0 0 -1
    outer loop
      vertex 6.1099 -5.81201 0
      vertex 7.42023 4.76706 0
      vertex 7.42023 -4.76706 0
    endloop
  endfacet
  facet normal 0.623489 -0.781832 0
    outer loop
      vertex 6.1099 -5.81201 8.6
      vertex 6.205 -5.73618 5
      vertex 6.205 -5.73618 8.6
    endloop
  endfacet
  facet normal 0 0 1
    outer loop
      vertex 6.1099 -5.81201 8.6
      vertex 6.205 -5.73618 8.6
      vertex 6.205 -5.05534 8.6
    endloop
  endfacet
  facet normal 1 0 0
    outer loop
      vertex 6.1099 -7.48799 0
      vertex 6.1099 -5.81201 0
      vertex 6.1099 -7.48799 8.6
    endloop
  endfacet
  facet normal 0.62349 0.781831 0
    outer loop
      vertex 6.1099 -7.48799 0
      vertex 6.1099 -7.48799 8.6
      vertex 7.42023 -8.53294 0
    endloop
  endfacet
  facet normal 1 -0 0
    outer loop
      vertex 6.1099 -7.48799 8.6
      vertex 6.1099 -5.81201 0
      vertex 6.1099 -5.81201 8.6
    endloop
  endfacet
  facet normal 0.62349 0.781831 -0
    outer loop
      vertex 6.1099 -7.48799 8.6
      vertex 7.42023 -8.53294 8.6
      vertex 7.42023 -8.53294 0
    endloop
  endfacet
  facet normal 0.623489 0.781832 0
    outer loop
      vertex 6.1099 5.81201 0
      vertex 6.1099 5.81201 8.6
      vertex 6.205 5.73618 5
    endloop
  endfacet
  facet normal 1 0 0
    outer loop
      vertex 6.1099 5.81201 0
      vertex 6.1099 7.48799 0
      vertex 6.1099 5.81201 8.6
    endloop
  endfacet
  facet normal 0.62349 0.781832 -1.54919e-08
    outer loop
      vertex 6.1099 5.81201 0
      vertex 6.205 5.73618 5
      vertex 7.42023 4.76706 0
    endloop
  endfacet
  facet normal 1 -0 0
    outer loop
      vertex 6.1099 5.81201 8.6
      vertex 6.1099 7.48799 0
      vertex 6.1099 7.48799 8.6
    endloop
  endfacet
  facet normal 0 0 1
    outer loop
      vertex 6.1099 5.81201 8.6
      vertex 6.205 5.05534 8.6
      vertex 6.205 5.73618 8.6
    endloop
  endfacet
  facet normal 0.623489 0.781832 -0
    outer loop
      vertex 6.1099 5.81201 8.6
      vertex 6.205 5.73618 8.6
      vertex 6.205 5.73618 5
    endloop
  endfacet
  facet normal 0.62349 -0.781831 0
    outer loop
      vertex 6.1099 7.48799 0
      vertex 7.42023 8.53294 0
      vertex 7.42023 8.53294 8.6
    endloop
  endfacet
  facet normal 0.62349 -0.781831 0
    outer loop
      vertex 6.1099 7.48799 0
      vertex 7.42023 8.53294 8.6
      vertex 6.1099 7.48799 8.6
    endloop
  endfacet
  facet normal -0 0 1
    outer loop
      vertex 6.205 -3.11574 5
      vertex 7.42023 -4.76706 5
      vertex 9.495 -3.11574 5
    endloop
  endfacet
  facet normal 0 0.595682 0.80322
    outer loop
      vertex 6.205 -3.11574 5
      vertex 9.495 -3.11574 5
      vertex 13.5 -2.8195 4.7803
    endloop
  endfacet
  facet normal 1 0 0
    outer loop
      vertex 6.205 -5.73618 5
      vertex 6.205 -3.11574 5
      vertex 6.205 -3.21954 5.07698
    endloop
  endfacet
  facet normal 1 0 0
    outer loop
      vertex 6.205 -5.73618 5
      vertex 6.205 -3.21954 5.07698
      vertex 6.205 -3.58856 5.41144
    endloop
  endfacet
  facet normal 1 0 0
    outer loop
      vertex 6.205 -5.73618 5
      vertex 6.205 -3.58856 5.41144
      vertex 6.205 -3.92302 5.78046
    endloop
  endfacet
  facet normal 1 0 0
    outer loop
      vertex 6.205 -5.73618 5
      vertex 6.205 -3.92302 5.78046
      vertex 6.205 -4.2197 6.1805
    endloop
  endfacet
  facet normal 1 0 0
    outer loop
      vertex 6.205 -5.73618 5
      vertex 6.205 -4.2197 6.1805
      vertex 6.205 -4.47574 6.60767
    endloop
  endfacet
  facet normal 1 0 0
    outer loop
      vertex 6.205 -5.73618 5
      vertex 6.205 -4.47574 6.60767
      vertex 6.205 -4.68867 7.05789
    endloop
  endfacet
  facet normal 1 0 0
    outer loop
      vertex 6.205 -5.73618 5
      vertex 6.205 -4.68867 7.05789
      vertex 6.205 -4.85646 7.52681
    endloop
  endfacet
  facet normal 1 0 0
    outer loop
      vertex 6.205 -5.73618 5
      vertex 6.205 -4.85646 7.52681
      vertex 6.205 -5.73618 8.6
    endloop
  endfacet
  facet normal 0.62349 -0.781832 0
    outer loop
      vertex 6.205 -5.73618 5
      vertex 7.42023 -4.76706 0
      vertex 7.42023 -4.76706 5
    endloop
  endfacet
  facet normal 0 0 1
    outer loop
      vertex 6.205 -5.73618 5
      vertex 7.42023 -4.76706 5
      vertex 6.205 -3.11574 5
    endloop
  endfacet
  facet normal 1 0 0
    outer loop
      vertex 6.205 -5.73618 8.6
      vertex 6.205 -4.85646 7.52681
      vertex 6.205 -4.97748 8.00992
    endloop
  endfacet
  facet normal 1 0 0
    outer loop
      vertex 6.205 -5.73618 8.6
      vertex 6.205 -4.97748 8.00992
      vertex 6.205 -5.03021 8.36541
    endloop
  endfacet
  facet normal 1 0 0
    outer loop
      vertex 6.205 -5.73618 8.6
      vertex 6.205 -5.03021 8.36541
      vertex 6.205 -5.05055 8.50256
    endloop
  endfacet
  facet normal 1 -0 0
    outer loop
      vertex 6.205 -5.73618 8.6
      vertex 6.205 -5.05055 8.50256
      vertex 6.205 -5.05534 8.6
    endloop
  endfacet
  facet normal -4.31677e-08 -0.595682 0.80322
    outer loop
      vertex 6.205 3.11574 5
      vertex 13.5 2.8195 4.7803
      vertex 9.495 3.11574 5
    endloop
  endfacet
  facet normal 1 0 0
    outer loop
      vertex 6.205 3.11574 5
      vertex 6.205 5.73618 5
      vertex 6.205 3.21954 5.07698
    endloop
  endfacet
  facet normal 0 0 1
    outer loop
      vertex 6.205 3.11574 5
      vertex 7.42023 4.76706 5
      vertex 6.205 5.73618 5
    endloop
  endfacet
  facet normal 0 0 1
    outer loop
      vertex 6.205 3.11574 5
      vertex 9.495 3.11574 5
      vertex 7.42023 4.76706 5
    endloop
  endfacet
  facet normal 1 -0 0
    outer loop
      vertex 6.205 3.21954 5.07698
      vertex 6.205 5.73618 5
      vertex 6.205 3.58856 5.41144
    endloop
  endfacet
  facet normal 1 -0 0
    outer loop
      vertex 6.205 3.58856 5.41144
      vertex 6.205 5.73618 5
      vertex 6.205 3.92302 5.78046
    endloop
  endfacet
  facet normal 1 -0 0
    outer loop
      vertex 6.205 3.92302 5.78046
      vertex 6.205 5.73618 5
      vertex 6.205 4.2197 6.1805
    endloop
  endfacet
  facet normal 1 -0 0
    outer loop
      vertex 6.205 4.2197 6.1805
      vertex 6.205 5.73618 5
      vertex 6.205 4.47574 6.60767
    endloop
  endfacet
  facet normal 1 -0 0
    outer loop
      vertex 6.205 4.47574 6.60767
      vertex 6.205 5.73618 5
      vertex 6.205 4.68867 7.05789
    endloop
  endfacet
  facet normal 1 -0 0
    outer loop
      vertex 6.205 4.68867 7.05789
      vertex 6.205 5.73618 5
      vertex 6.205 4.85646 7.52681
    endloop
  endfacet
  facet normal 1 0 0
    outer loop
      vertex 6.205 4.85646 7.52681
      vertex 6.205 5.73618 5
      vertex 6.205 5.73618 8.6
    endloop
  endfacet
  facet normal 1 0 0
    outer loop
      vertex 6.205 4.85646 7.52681
      vertex 6.205 5.73618 8.6
      vertex 6.205 4.97748 8.00992
    endloop
  endfacet
  facet normal 1 0 0
    outer loop
      vertex 6.205 4.97748 8.00992
      vertex 6.205 5.73618 8.6
      vertex 6.205 5.05055 8.50256
    endloop
  endfacet
  facet normal 1 0 0
    outer loop
      vertex 6.205 5.05055 8.50256
      vertex 6.205 5.73618 8.6
      vertex 6.205 5.05534 8.6
    endloop
  endfacet
  facet normal 0.62349 0.781832 0
    outer loop
      vertex 6.205 5.73618 5
      vertex 7.42023 4.76706 5
      vertex 7.42023 4.76706 0
    endloop
  endfacet
  facet normal 0 0 -1
    outer loop
      vertex 7.42023 -4.76706 0
      vertex 7.42023 4.76706 0
      vertex 9.05418 5.14 0
    endloop
  endfacet
  facet normal -0.222521 -0.974928 -0
    outer loop
      vertex 7.42023 -4.76706 0
      vertex 9.05418 -5.14 0
      vertex 9.05418 -5.14 5
    endloop
  endfacet
  facet normal -0.222521 -0.974928 0
    outer loop
      vertex 7.42023 -4.76706 0
      vertex 9.05418 -5.14 5
      vertex 7.42023 -4.76706 5
    endloop
  endfacet
  facet normal 0 0 -1
    outer loop
      vertex 7.42023 -4.76706 0
      vertex 9.05418 5.14 0
      vertex 9.05418 -5.14 0
    endloop
  endfacet
  facet normal 0 0 1
    outer loop
      vertex 7.42023 -4.76706 5
      vertex 9.05418 -5.14 5
      vertex 9.495 -3.11574 5
    endloop
  endfacet
  facet normal -0.222521 0.974928 0
    outer loop
      vertex 7.42023 -8.53294 0
      vertex 7.42023 -8.53294 8.6
      vertex 9.05418 -8.16 0
    endloop
  endfacet
  facet normal 0 0 -1
    outer loop
      vertex 7.42023 -8.53294 0
      vertex 9.05418 -8.16 0
      vertex 13.5 -10.65 0
    endloop
  endfacet
  facet normal -0 0 1
    outer loop
      vertex 7.42023 -8.53294 8.6
      vertex 13.5 -10.65 8.6
      vertex 9.05418 -8.16 8.6
    endloop
  endfacet
  facet normal -0.222521 0.974928 0
    outer loop
      vertex 7.42023 -8.53294 8.6
      vertex 9.05418 -8.16 8.6
      vertex 9.05418 -8.16 0
    endloop
  endfacet
  facet normal -0.222521 0.974928 0
    outer loop
      vertex 7.42023 4.76706 0
      vertex 7.42023 4.76706 5
      vertex 9.05418 5.14 0
    endloop
  endfacet
  facet normal -0.222521 0.974928 0
    outer loop
      vertex 7.42023 4.76706 5
      vertex 9.05418 5.14 5
      vertex 9.05418 5.14 0
    endloop
  endfacet
  facet normal -0 0 1
    outer loop
      vertex 7.42023 4.76706 5
      vertex 9.495 3.11574 5
      vertex 9.05418 5.14 5
    endloop
  endfacet
  facet normal 0 0 -1
    outer loop
      vertex 7.42023 8.53294 0
      vertex 10.7477 10.6398 0
      vertex 9.05418 8.16 0
    endloop
  endfacet
  facet normal -0.222521 -0.974928 -0
    outer loop
      vertex 7.42023 8.53294 0
      vertex 9.05418 8.16 0
      vertex 9.05418 8.16 8.6
    endloop
  endfacet
  facet normal -0.222521 -0.974928 0
    outer loop
      vertex 7.42023 8.53294 0
      vertex 9.05418 8.16 8.6
      vertex 7.42023 8.53294 8.6
    endloop
  endfacet
  facet normal 0 0 1
    outer loop
      vertex 7.42023 8.53294 8.6
      vertex 9.05418 8.16 8.6
      vertex 10.7477 10.6398 8.6
    endloop
  endfacet
  facet normal 0 0 -1
    outer loop
      vertex 9.05418 -5.14 0
      vertex 13.5 7.65 0
      vertex 9.78136 -6.65 0
    endloop
  endfacet
  facet normal 0 0 -1
    outer loop
      vertex 9.05418 -5.14 0
      vertex 9.05418 5.14 0
      vertex 13.5 7.65 0
    endloop
  endfacet
  facet normal -0.900969 -0.433884 0
    outer loop
      vertex 9.05418 -5.14 0
      vertex 9.495 -6.05536 5
      vertex 9.05418 -5.14 5
    endloop
  endfacet
  facet normal -0.900969 -0.433884 1.63809e-09
    outer loop
      vertex 9.05418 -5.14 0
      vertex 9.78136 -6.65 0
      vertex 9.495 -6.05536 5
    endloop
  endfacet
  facet normal 0 0 1
    outer loop
      vertex 9.05418 -5.14 5
      vertex 9.495 -6.05536 5
      vertex 9.495 -3.11574 5
    endloop
  endfacet
  facet normal -0.900969 0.433884 0
    outer loop
      vertex 9.05418 -8.16 0
      vertex 9.05418 -8.16 8.6
      vertex 9.78136 -6.65 8.6
    endloop
  endfacet
  facet normal 0 0 -1
    outer loop
      vertex 9.05418 -8.16 0
      vertex 9.78136 -6.65 0
      vertex 13.5 -10.65 0
    endloop
  endfacet
  facet normal -0.900969 0.433884 0
    outer loop
      vertex 9.05418 -8.16 0
      vertex 9.78136 -6.65 8.6
      vertex 9.78136 -6.65 0
    endloop
  endfacet
  facet normal -0 0 1
    outer loop
      vertex 9.05418 -8.16 8.6
      vertex 13.5 -10.65 8.6
      vertex 9.78136 -6.65 8.6
    endloop
  endfacet
  facet normal -0.900969 0.433884 0
    outer loop
      vertex 9.05418 5.14 0
      vertex 9.05418 5.14 5
      vertex 9.495 6.05536 5
    endloop
  endfacet
  facet normal -0.900969 0.433884 1.63809e-09
    outer loop
      vertex 9.05418 5.14 0
      vertex 9.495 6.05536 5
      vertex 9.78136 6.65 0
    endloop
  endfacet
  facet normal 0 0 -1
    outer loop
      vertex 9.05418 5.14 0
      vertex 9.78136 6.65 0
      vertex 13.5 7.65 0
    endloop
  endfacet
  facet normal -0 0 1
    outer loop
      vertex 9.05418 5.14 5
      vertex 9.495 3.11574 5
      vertex 9.495 6.05536 5
    endloop
  endfacet
  facet normal -0 0 -1
    outer loop
      vertex 9.05418 8.16 0
      vertex 10.7477 10.6398 0
      vertex 11.2365 10.5582 0
    endloop
  endfacet
  facet normal -0 0 -1
    outer loop
      vertex 9.05418 8.16 0
      vertex 11.2365 10.5582 0
      vertex 11.7051 10.3973 0
    endloop
  endfacet
  facet normal -0 0 -1
    outer loop
      vertex 9.05418 8.16 0
      vertex 11.7051 10.3973 0
      vertex 12.1408 10.1615 0
    endloop
  endfacet
  facet normal -0 0 -1
    outer loop
      vertex 9.05418 8.16 0
      vertex 12.1408 10.1615 0
      vertex 12.5318 9.85717 0
    endloop
  endfacet
  facet normal 0 0 -1
    outer loop
      vertex 9.05418 8.16 0
      vertex 12.5318 9.85717 0
      vertex 9.78136 6.65 0
    endloop
  endfacet
  facet normal -0.900969 -0.433884 0
    outer loop
      vertex 9.05418 8.16 0
      vertex 9.78136 6.65 0
      vertex 9.05418 8.16 8.6
    endloop
  endfacet
  facet normal 0 0 1
    outer loop
      vertex 9.05418 8.16 8.6
      vertex 11.2365 10.5582 8.6
      vertex 10.7477 10.6398 8.6
    endloop
  endfacet
  facet normal 0 0 1
    outer loop
      vertex 9.05418 8.16 8.6
      vertex 11.7051 10.3973 8.6
      vertex 11.2365 10.5582 8.6
    endloop
  endfacet
  facet normal 0 0 1
    outer loop
      vertex 9.05418 8.16 8.6
      vertex 12.1408 10.1615 8.6
      vertex 11.7051 10.3973 8.6
    endloop
  endfacet
  facet normal 0 0 1
    outer loop
      vertex 9.05418 8.16 8.6
      vertex 12.5318 9.85717 8.6
      vertex 12.1408 10.1615 8.6
    endloop
  endfacet
  facet normal -0.900969 -0.433884 0
    outer loop
      vertex 9.05418 8.16 8.6
      vertex 9.78136 6.65 0
      vertex 9.78136 6.65 8.6
    endloop
  endfacet
  facet normal 0 0 1
    outer loop
      vertex 9.05418 8.16 8.6
      vertex 9.78136 6.65 8.6
      vertex 12.5318 9.85717 8.6
    endloop
  endfacet
  facet normal -1.30661e-08 0.595682 0.80322
    outer loop
      vertex 9.495 -3.11574 5
      vertex 13.5 -3.21954 5.07698
      vertex 13.5 -2.8195 4.7803
    endloop
  endfacet
  facet normal 3.54612e-08 0.595684 0.803219
    outer loop
      vertex 9.495 -3.21954 5.07698
      vertex 13.5 -3.21954 5.07698
      vertex 9.495 -3.11574 5
    endloop
  endfacet
  facet normal 3.9978e-08 0.671557 0.740953
    outer loop
      vertex 9.495 -3.21954 5.07698
      vertex 13.5 -3.58856 5.41144
      vertex 13.5 -3.21954 5.07698
    endloop
  endfacet
  facet normal 3.9978e-08 0.671557 0.740953
    outer loop
      vertex 9.495 -3.58856 5.41144
      vertex 13.5 -3.58856 5.41144
      vertex 9.495 -3.21954 5.07698
    endloop
  endfacet
  facet normal 4.41091e-08 0.740953 0.671557
    outer loop
      vertex 9.495 -3.92302 5.78046
      vertex 13.5 -3.58856 5.41144
      vertex 9.495 -3.58856 5.41144
    endloop
  endfacet
  facet normal 4.41091e-08 0.740953 0.671557
    outer loop
      vertex 9.495 -3.92302 5.78046
      vertex 13.5 -3.92302 5.78046
      vertex 13.5 -3.58856 5.41144
    endloop
  endfacet
  facet normal 4.78159e-08 0.80322 0.595683
    outer loop
      vertex 9.495 -4.2197 6.1805
      vertex 13.5 -3.92302 5.78046
      vertex 9.495 -3.92302 5.78046
    endloop
  endfacet
  facet normal 0 0.80322 0.595682
    outer loop
      vertex 9.495 -4.2197 6.1805
      vertex 13.5 -4.2197 6.1805
      vertex 13.5 -3.92302 5.78046
    endloop
  endfacet
  facet normal 0 0.857723 0.514113
    outer loop
      vertex 9.495 -4.47574 6.60767
      vertex 13.5 -4.2197 6.1805
      vertex 9.495 -4.2197 6.1805
    endloop
  endfacet
  facet normal 0 0.857723 0.514113
    outer loop
      vertex 9.495 -4.47574 6.60767
      vertex 13.5 -4.47574 6.60767
      vertex 13.5 -4.2197 6.1805
    endloop
  endfacet
  facet normal 0 0.903993 0.427548
    outer loop
      vertex 9.495 -4.68867 7.05789
      vertex 13.5 -4.47574 6.60767
      vertex 9.495 -4.47574 6.60767
    endloop
  endfacet
  facet normal 0 0.903993 0.427548
    outer loop
      vertex 9.495 -4.68867 7.05789
      vertex 13.5 -4.68867 7.05789
      vertex 13.5 -4.47574 6.60767
    endloop
  endfacet
  facet normal 0 0.941541 0.336897
    outer loop
      vertex 9.495 -4.85646 7.52681
      vertex 13.5 -4.68867 7.05789
      vertex 9.495 -4.68867 7.05789
    endloop
  endfacet
  facet normal 0 0.941541 0.336897
    outer loop
      vertex 9.495 -4.85646 7.52681
      vertex 13.5 -4.85646 7.52681
      vertex 13.5 -4.68867 7.05789
    endloop
  endfacet
  facet normal 0 0.970029 0.24299
    outer loop
      vertex 9.495 -4.97748 8.00992
      vertex 13.5 -4.85646 7.52681
      vertex 9.495 -4.85646 7.52681
    endloop
  endfacet
  facet normal 0 0.970029 0.24299
    outer loop
      vertex 9.495 -4.97748 8.00992
      vertex 13.5 -4.97748 8.00992
      vertex 13.5 -4.85646 7.52681
    endloop
  endfacet
  facet normal 0 0.989177 0.146725
    outer loop
      vertex 9.495 -5.03879 8.4233
      vertex 13.5 -4.97748 8.00992
      vertex 9.495 -4.97748 8.00992
    endloop
  endfacet
  facet normal 6.1842e-09 0.989177 0.146725
    outer loop
      vertex 9.495 -5.03879 8.4233
      vertex 13.5 -5.04925 8.49377
      vertex 13.5 -4.97748 8.00992
    endloop
  endfacet
  facet normal -3.14473e-08 0.989177 0.146727
    outer loop
      vertex 9.495 -5.05055 8.50256
      vertex 13.5 -5.04925 8.49377
      vertex 9.495 -5.03879 8.4233
    endloop
  endfacet
  facet normal 0 0.989175 0.146741
    outer loop
      vertex 9.495 -5.05055 8.50256
      vertex 13.5 -5.05055 8.50256
      vertex 13.5 -5.04925 8.49377
    endloop
  endfacet
  facet normal 0 0.998795 0.04908
    outer loop
      vertex 9.495 -5.05534 8.6
      vertex 13.5 -5.05055 8.50256
      vertex 9.495 -5.05055 8.50256
    endloop
  endfacet
  facet normal 0 0.998795 0.04908
    outer loop
      vertex 9.495 -5.05534 8.6
      vertex 13.5 -5.05534 8.6
      vertex 13.5 -5.05055 8.50256
    endloop
  endfacet
  facet normal -0 0 1
    outer loop
      vertex 9.495 -5.05534 8.6
      vertex 9.78136 -6.65 8.6
      vertex 13.5 -5.05534 8.6
    endloop
  endfacet
  facet normal -1 0 0
    outer loop
      vertex 9.495 -6.05536 5
      vertex 9.495 -3.21954 5.07698
      vertex 9.495 -3.11574 5
    endloop
  endfacet
  facet normal -1 0 0
    outer loop
      vertex 9.495 -6.05536 5
      vertex 9.495 -3.58856 5.41144
      vertex 9.495 -3.21954 5.07698
    endloop
  endfacet
  facet normal -1 0 0
    outer loop
      vertex 9.495 -6.05536 5
      vertex 9.495 -3.92302 5.78046
      vertex 9.495 -3.58856 5.41144
    endloop
  endfacet
  facet normal -1 0 0
    outer loop
      vertex 9.495 -6.05536 5
      vertex 9.495 -4.2197 6.1805
      vertex 9.495 -3.92302 5.78046
    endloop
  endfacet
  facet normal -1 0 0
    outer loop
      vertex 9.495 -6.05536 5
      vertex 9.495 -4.47574 6.60767
      vertex 9.495 -4.2197 6.1805
    endloop
  endfacet
  facet normal -1 0 0
    outer loop
      vertex 9.495 -6.05536 5
      vertex 9.495 -4.68867 7.05789
      vertex 9.495 -4.47574 6.60767
    endloop
  endfacet
  facet normal -1 0 0
    outer loop
      vertex 9.495 -6.05536 5
      vertex 9.495 -4.85646 7.52681
      vertex 9.495 -4.68867 7.05789
    endloop
  endfacet
  facet normal -1 0 0
    outer loop
      vertex 9.495 -6.05536 5
      vertex 9.495 -6.05536 8.6
      vertex 9.495 -4.85646 7.52681
    endloop
  endfacet
  facet normal -0.900969 -0.433884 -0
    outer loop
      vertex 9.495 -6.05536 5
      vertex 9.78136 -6.65 0
      vertex 9.78136 -6.65 8.6
    endloop
  endfacet
  facet normal -0.900969 -0.433884 0
    outer loop
      vertex 9.495 -6.05536 5
      vertex 9.78136 -6.65 8.6
      vertex 9.495 -6.05536 8.6
    endloop
  endfacet
  facet normal -1 0 0
    outer loop
      vertex 9.495 -6.05536 8.6
      vertex 9.495 -4.97748 8.00992
      vertex 9.495 -4.85646 7.52681
    endloop
  endfacet
  facet normal -1 0 0
    outer loop
      vertex 9.495 -6.05536 8.6
      vertex 9.495 -5.03879 8.4233
      vertex 9.495 -4.97748 8.00992
    endloop
  endfacet
  facet normal -1 0 0
    outer loop
      vertex 9.495 -6.05536 8.6
      vertex 9.495 -5.05055 8.50256
      vertex 9.495 -5.03879 8.4233
    endloop
  endfacet
  facet normal -1 0 0
    outer loop
      vertex 9.495 -6.05536 8.6
      vertex 9.495 -5.05534 8.6
      vertex 9.495 -5.05055 8.50256
    endloop
  endfacet
  facet normal 0 0 1
    outer loop
      vertex 9.495 -6.05536 8.6
      vertex 9.78136 -6.65 8.6
      vertex 9.495 -5.05534 8.6
    endloop
  endfacet
  facet normal -4.85272e-08 -0.595682 0.80322
    outer loop
      vertex 9.495 3.11574 5
      vertex 13.5 2.8195 4.7803
      vertex 13.5 3.21954 5.07698
    endloop
  endfacet
  facet normal -3.54611e-08 -0.595683 0.80322
    outer loop
      vertex 9.495 3.11574 5
      vertex 13.5 3.21954 5.07698
      vertex 9.495 3.21954 5.07698
    endloop
  endfacet
  facet normal -1 0 -0
    outer loop
      vertex 9.495 3.11574 5
      vertex 9.495 3.21954 5.07698
      vertex 9.495 6.05536 5
    endloop
  endfacet
  facet normal -3.9978e-08 -0.671557 0.740953
    outer loop
      vertex 9.495 3.21954 5.07698
      vertex 13.5 3.21954 5.07698
      vertex 9.495 3.58856 5.41144
    endloop
  endfacet
  facet normal -1 0 0
    outer loop
      vertex 9.495 3.21954 5.07698
      vertex 9.495 3.58856 5.41144
      vertex 9.495 6.05536 5
    endloop
  endfacet
  facet normal -3.9978e-08 -0.671557 0.740953
    outer loop
      vertex 9.495 3.58856 5.41144
      vertex 13.5 3.21954 5.07698
      vertex 13.5 3.58856 5.41144
    endloop
  endfacet
  facet normal -4.41091e-08 -0.740953 0.671557
    outer loop
      vertex 9.495 3.58856 5.41144
      vertex 13.5 3.58856 5.41144
      vertex 13.5 3.92302 5.78046
    endloop
  endfacet
  facet normal -4.41091e-08 -0.740953 0.671557
    outer loop
      vertex 9.495 3.58856 5.41144
      vertex 13.5 3.92302 5.78046
      vertex 9.495 3.92302 5.78046
    endloop
  endfacet
  facet normal -1 0 0
    outer loop
      vertex 9.495 3.58856 5.41144
      vertex 9.495 3.92302 5.78046
      vertex 9.495 6.05536 5
    endloop
  endfacet
  facet normal -4.78159e-08 -0.80322 0.595682
    outer loop
      vertex 9.495 3.92302 5.78046
      vertex 13.5 3.92302 5.78046
      vertex 13.5 4.2197 6.1805
    endloop
  endfacet
  facet normal 0 -0.80322 0.595682
    outer loop
      vertex 9.495 3.92302 5.78046
      vertex 13.5 4.2197 6.1805
      vertex 9.495 4.2197 6.1805
    endloop
  endfacet
  facet normal -1 0 0
    outer loop
      vertex 9.495 3.92302 5.78046
      vertex 9.495 4.2197 6.1805
      vertex 9.495 6.05536 5
    endloop
  endfacet
  facet normal 0 -0.857723 0.514113
    outer loop
      vertex 9.495 4.2197 6.1805
      vertex 13.5 4.2197 6.1805
      vertex 13.5 4.47574 6.60767
    endloop
  endfacet
  facet normal 0 -0.857723 0.514113
    outer loop
      vertex 9.495 4.2197 6.1805
      vertex 13.5 4.47574 6.60767
      vertex 9.495 4.47574 6.60767
    endloop
  endfacet
  facet normal -1 0 0
    outer loop
      vertex 9.495 4.2197 6.1805
      vertex 9.495 4.47574 6.60767
      vertex 9.495 6.05536 5
    endloop
  endfacet
  facet normal 0 -0.903993 0.427548
    outer loop
      vertex 9.495 4.47574 6.60767
      vertex 13.5 4.47574 6.60767
      vertex 13.5 4.68867 7.05789
    endloop
  endfacet
  facet normal 0 -0.903993 0.427548
    outer loop
      vertex 9.495 4.47574 6.60767
      vertex 13.5 4.68867 7.05789
      vertex 9.495 4.68867 7.05789
    endloop
  endfacet
  facet normal -1 0 0
    outer loop
      vertex 9.495 4.47574 6.60767
      vertex 9.495 4.68867 7.05789
      vertex 9.495 6.05536 5
    endloop
  endfacet
  facet normal 0 -0.941541 0.336897
    outer loop
      vertex 9.495 4.68867 7.05789
      vertex 13.5 4.68867 7.05789
      vertex 13.5 4.85646 7.52681
    endloop
  endfacet
  facet normal 0 -0.941541 0.336897
    outer loop
      vertex 9.495 4.68867 7.05789
      vertex 13.5 4.85646 7.52681
      vertex 9.495 4.85646 7.52681
    endloop
  endfacet
  facet normal -1 0 0
    outer loop
      vertex 9.495 4.68867 7.05789
      vertex 9.495 4.85646 7.52681
      vertex 9.495 6.05536 5
    endloop
  endfacet
  facet normal 0 -0.970029 0.24299
    outer loop
      vertex 9.495 4.85646 7.52681
      vertex 13.5 4.85646 7.52681
      vertex 13.5 4.97748 8.00992
    endloop
  endfacet
  facet normal 0 -0.970029 0.24299
    outer loop
      vertex 9.495 4.85646 7.52681
      vertex 13.5 4.97748 8.00992
      vertex 9.495 4.97748 8.00992
    endloop
  endfacet
  facet normal -1 0 0
    outer loop
      vertex 9.495 4.85646 7.52681
      vertex 9.495 4.97748 8.00992
      vertex 9.495 6.05536 8.6
    endloop
  endfacet
  facet normal -1 0 0
    outer loop
      vertex 9.495 4.85646 7.52681
      vertex 9.495 6.05536 8.6
      vertex 9.495 6.05536 5
    endloop
  endfacet
  facet normal 0 -0.989177 0.146725
    outer loop
      vertex 9.495 4.97748 8.00992
      vertex 13.5 4.97748 8.00992
      vertex 13.5 5.05055 8.50256
    endloop
  endfacet
  facet normal 0 -0.989177 0.146725
    outer loop
      vertex 9.495 4.97748 8.00992
      vertex 13.5 5.05055 8.50256
      vertex 9.495 5.05055 8.50256
    endloop
  endfacet
  facet normal -1 0 0
    outer loop
      vertex 9.495 4.97748 8.00992
      vertex 9.495 5.05055 8.50256
      vertex 9.495 6.05536 8.6
    endloop
  endfacet
  facet normal 0 -0.998795 0.04908
    outer loop
      vertex 9.495 5.05055 8.50256
      vertex 13.5 5.05055 8.50256
      vertex 13.5 5.05534 8.6
    endloop
  endfacet
  facet normal -1.18917e-07 -0.998795 0.0490848
    outer loop
      vertex 9.495 5.05055 8.50256
      vertex 13.5 5.05534 8.6
      vertex 9.495 5.05534 8.6
    endloop
  endfacet
  facet normal -1 -0 0
    outer loop
      vertex 9.495 5.05055 8.50256
      vertex 9.495 5.05534 8.6
      vertex 9.495 6.05536 8.6
    endloop
  endfacet
  facet normal 0 0 1
    outer loop
      vertex 9.495 5.05534 8.6
      vertex 13.5 5.05534 8.6
      vertex 9.78136 6.65 8.6
    endloop
  endfacet
  facet normal 0 0 1
    outer loop
      vertex 9.495 5.05534 8.6
      vertex 9.78136 6.65 8.6
      vertex 9.495 6.05536 8.6
    endloop
  endfacet
  facet normal -0.900969 0.433884 0
    outer loop
      vertex 9.495 6.05536 5
      vertex 9.495 6.05536 8.6
      vertex 9.78136 6.65 8.6
    endloop
  endfacet
  facet normal -0.900969 0.433884 0
    outer loop
      vertex 9.495 6.05536 5
      vertex 9.78136 6.65 8.6
      vertex 9.78136 6.65 0
    endloop
  endfacet
  facet normal 0 0 -1
    outer loop
      vertex 9.78136 -6.65 0
      vertex 13.5 7.65 0
      vertex 13.5 -10.65 0
    endloop
  endfacet
  facet normal 0 0 1
    outer loop
      vertex 9.78136 -6.65 8.6
      vertex 13.5 -10.65 8.6
      vertex 13.5 -5.05534 8.6
    endloop
  endfacet
  facet normal -0 0 -1
    outer loop
      vertex 9.78136 6.65 0
      vertex 12.5318 9.85717 0
      vertex 12.8674 9.49264 0
    endloop
  endfacet
  facet normal -0 0 -1
    outer loop
      vertex 9.78136 6.65 0
      vertex 12.8674 9.49264 0
      vertex 13.1384 9.07784 0
    endloop
  endfacet
  facet normal -0 0 -1
    outer loop
      vertex 9.78136 6.65 0
      vertex 13.1384 9.07784 0
      vertex 13.3375 8.6241 0
    endloop
  endfacet
  facet normal -0 0 -1
    outer loop
      vertex 9.78136 6.65 0
      vertex 13.3375 8.6241 0
      vertex 13.4591 8.14378 0
    endloop
  endfacet
  facet normal -0 0 -1
    outer loop
      vertex 9.78136 6.65 0
      vertex 13.4591 8.14378 0
      vertex 13.5 7.65 0
    endloop
  endfacet
  facet normal 0 0 1
    outer loop
      vertex 9.78136 6.65 8.6
      vertex 12.8674 9.49264 8.6
      vertex 12.5318 9.85717 8.6
    endloop
  endfacet
  facet normal 0 0 1
    outer loop
      vertex 9.78136 6.65 8.6
      vertex 13.1384 9.07784 8.6
      vertex 12.8674 9.49264 8.6
    endloop
  endfacet
  facet normal 0 0 1
    outer loop
      vertex 9.78136 6.65 8.6
      vertex 13.3375 8.6241 8.6
      vertex 13.1384 9.07784 8.6
    endloop
  endfacet
  facet normal 0 0 1
    outer loop
      vertex 9.78136 6.65 8.6
      vertex 13.4591 8.14378 8.6
      vertex 13.3375 8.6241 8.6
    endloop
  endfacet
  facet normal 0 0 1
    outer loop
      vertex 9.78136 6.65 8.6
      vertex 13.5 5.05534 8.6
      vertex 13.5 7.65 8.6
    endloop
  endfacet
  facet normal 0 0 1
    outer loop
      vertex 9.78136 6.65 8.6
      vertex 13.5 7.65 8.6
      vertex 13.4591 8.14378 8.6
    endloop
  endfacet
endsolid OpenSCAD_Model
