solid OpenSCAD_Model
  facet normal -0.222521 0.974928 0
    outer loop
      vertex -0.429768 -1.88294 0
      vertex -0.429768 -1.88294 6.4
      vertex 1.20418 -1.51 0
    endloop
  endfacet
  facet normal 0 0 -1
    outer loop
      vertex -0.429768 -1.88294 0
      vertex 1.20418 -1.51 0
      vertex 1.82767 -2.29183 0
    endloop
  endfacet
  facet normal -0.222521 0.974928 0
    outer loop
      vertex -0.429768 -1.88294 6.4
      vertex 1.20418 -1.51 6.4
      vertex 1.20418 -1.51 0
    endloop
  endfacet
  facet normal -0 0 1
    outer loop
      vertex -0.429768 -1.88294 6.4
      vertex 13.1903 -5.2 6.4
      vertex 1.20418 -1.51 6.4
    endloop
  endfacet
  facet normal -0.222521 -0.974928 -0
    outer loop
      vertex -0.429768 1.88294 0
      vertex 1.20418 1.51 0
      vertex 1.20418 1.51 6.4
    endloop
  endfacet
  facet normal -0.222521 -0.974928 0
    outer loop
      vertex -0.429768 1.88294 0
      vertex 1.20418 1.51 6.4
      vertex -0.429768 1.88294 6.4
    endloop
  endfacet
  facet normal 0 0 -1
    outer loop
      vertex -0.429768 1.88294 0
      vertex 1.82767 2.29183 0
      vertex 1.20418 1.51 0
    endloop
  endfacet
  facet normal 0 0 1
    outer loop
      vertex -0.429768 1.88294 6.4
      vertex 1.20418 1.51 6.4
      vertex 2.79031 5.2 6.4
    endloop
  endfacet
  facet normal 0 0 -1
    outer loop
      vertex -0.652288 -2.85787 0
      vertex -0.429768 -1.88294 0
      vertex 1.82767 -2.29183 0
    endloop
  endfacet
  facet normal 0.222521 -0.974928 0
    outer loop
      vertex -0.652288 -2.85787 0
      vertex 1.82767 -2.29183 0
      vertex 1.82767 -2.29183 4
    endloop
  endfacet
  facet normal 0.222521 -0.974928 0
    outer loop
      vertex -0.652288 -2.85787 0
      vertex 1.82767 -2.29183 4
      vertex -0.652288 -2.85787 4
    endloop
  endfacet
  facet normal 0 0 -1
    outer loop
      vertex -0.652288 -2.85787 4
      vertex 1.59899 -3.8603 4
      vertex 0 -4.17836 4
    endloop
  endfacet
  facet normal 0 0 -1
    outer loop
      vertex -0.652288 -2.85787 4
      vertex 1.82767 -2.29183 4
      vertex 1.59899 -3.8603 4
    endloop
  endfacet
  facet normal 0.222521 0.974928 0
    outer loop
      vertex -0.652288 2.85787 0
      vertex -0.652288 2.85787 4
      vertex 1.82767 2.29183 0
    endloop
  endfacet
  facet normal 0 0 -1
    outer loop
      vertex -0.652288 2.85787 0
      vertex 1.82767 2.29183 0
      vertex -0.429768 1.88294 0
    endloop
  endfacet
  facet normal -0 0 -1
    outer loop
      vertex -0.652288 2.85787 4
      vertex 0 4.17836 4
      vertex 1.59899 3.8603 4
    endloop
  endfacet
  facet normal 0 0 -1
    outer loop
      vertex -0.652288 2.85787 4
      vertex 1.59899 3.8603 4
      vertex 1.82767 2.29183 4
    endloop
  endfacet
  facet normal 0.222521 0.974928 -0
    outer loop
      vertex -0.652288 2.85787 4
      vertex 1.82767 2.29183 4
      vertex 1.82767 2.29183 0
    endloop
  endfacet
  facet normal 0.19509 0.980785 0
    outer loop
      vertex -1.59899 -3.8603 0
      vertex -1.59899 -3.8603 4
      vertex 0 -4.17836 0
    endloop
  endfacet
  facet normal 0 0 -1
    outer loop
      vertex -1.59899 -3.8603 4
      vertex -0.652288 -2.85787 4
      vertex 0 -4.17836 4
    endloop
  endfacet
  facet normal 0.19509 0.980785 -0
    outer loop
      vertex -1.59899 -3.8603 4
      vertex 0 -4.17836 4
      vertex 0 -4.17836 0
    endloop
  endfacet
  facet normal 0.19509 -0.980785 0
    outer loop
      vertex -1.59899 3.8603 0
      vertex 0 4.17836 0
      vertex 0 4.17836 4
    endloop
  endfacet
  facet normal 0.19509 -0.980785 0
    outer loop
      vertex -1.59899 3.8603 0
      vertex 0 4.17836 4
      vertex -1.59899 3.8603 4
    endloop
  endfacet
  facet normal 0 0 -1
    outer loop
      vertex -1.59899 3.8603 4
      vertex 0 4.17836 4
      vertex -0.652288 2.85787 4
    endloop
  endfacet
  facet normal 0 0 -1
    outer loop
      vertex -1.7401 -0.837986 0
      vertex -0.429768 -1.88294 0
      vertex -0.652288 -2.85787 0
    endloop
  endfacet
  facet normal 0.62349 0.781831 0
    outer loop
      vertex -1.7401 -0.837986 0
      vertex -1.7401 -0.837986 6.4
      vertex -0.429768 -1.88294 0
    endloop
  endfacet
  facet normal 1 0 0
    outer loop
      vertex -1.7401 -0.837986 0
      vertex -1.7401 0.837986 0
      vertex -1.7401 -0.837986 6.4
    endloop
  endfacet
  facet normal 0.62349 0.781831 -0
    outer loop
      vertex -1.7401 -0.837986 6.4
      vertex -0.429768 -1.88294 6.4
      vertex -0.429768 -1.88294 0
    endloop
  endfacet
  facet normal 1 -0 0
    outer loop
      vertex -1.7401 -0.837986 6.4
      vertex -1.7401 0.837986 0
      vertex -1.7401 0.837986 6.4
    endloop
  endfacet
  facet normal 0.62349 -0.781831 0
    outer loop
      vertex -1.7401 0.837986 0
      vertex -0.429768 1.88294 0
      vertex -0.429768 1.88294 6.4
    endloop
  endfacet
  facet normal 0.62349 -0.781831 0
    outer loop
      vertex -1.7401 0.837986 0
      vertex -0.429768 1.88294 6.4
      vertex -1.7401 0.837986 6.4
    endloop
  endfacet
  facet normal 0 0 -1
    outer loop
      vertex -1.7401 0.837986 0
      vertex -0.652288 2.85787 0
      vertex -0.429768 1.88294 0
    endloop
  endfacet
  facet normal -0 0 1
    outer loop
      vertex -13.1903 -5.2 10.9
      vertex -2.79031 5.2 10.9
      vertex -6.33998 5.2 10.9
    endloop
  endfacet
  facet normal 0.707107 -0.707107 0
    outer loop
      vertex -13.1903 -5.2 10.9
      vertex -2.79031 5.2 6.4
      vertex -2.79031 5.2 10.9
    endloop
  endfacet
  facet normal 0 0 1
    outer loop
      vertex -13.1903 -5.2 6.4
      vertex -0.429768 -1.88294 6.4
      vertex -1.7401 -0.837986 6.4
    endloop
  endfacet
  facet normal 0 0 1
    outer loop
      vertex -13.1903 -5.2 6.4
      vertex -1.7401 -0.837986 6.4
      vertex -1.7401 0.837986 6.4
    endloop
  endfacet
  facet normal 0 0 1
    outer loop
      vertex -13.1903 -5.2 6.4
      vertex -1.7401 0.837986 6.4
      vertex -2.79031 5.2 6.4
    endloop
  endfacet
  facet normal 0.707107 -0.707107 0
    outer loop
      vertex -13.1903 -5.2 6.4
      vertex -2.79031 5.2 6.4
      vertex -13.1903 -5.2 10.9
    endloop
  endfacet
  facet normal 0 0 1
    outer loop
      vertex -13.1903 -5.2 6.4
      vertex 13.1903 -5.2 6.4
      vertex -0.429768 -1.88294 6.4
    endloop
  endfacet
  facet normal -0 0 1
    outer loop
      vertex -13.1903 -5.2 6.4
      vertex 16.85 -5.7 6.4
      vertex 13.1903 -5.2 6.4
    endloop
  endfacet
  facet normal 0 0 -1
    outer loop
      vertex -14.9186 0 0
      vertex -3.8603 1.59899 0
      vertex -4.17836 0 0
    endloop
  endfacet
  facet normal 0 0 -1
    outer loop
      vertex -14.9186 0 0
      vertex -4.17836 0 0
      vertex -3.8603 -1.59899 0
    endloop
  endfacet
  facet normal -0.866025 0.5 0
    outer loop
      vertex -15.25 -2.77128 3.4
      vertex -13.65 0 6.4
      vertex -13.65 0 3.4
    endloop
  endfacet
  facet normal -0.866025 0.5 0
    outer loop
      vertex -15.25 -2.77128 3.4
      vertex -15.25 -2.77128 6.4
      vertex -13.65 0 6.4
    endloop
  endfacet
  facet normal 0 0 1
    outer loop
      vertex -15.25 -2.77128 6.4
      vertex -6.33998 5.2 6.4
      vertex -13.65 0 6.4
    endloop
  endfacet
  facet normal -0.866025 -0.5 0
    outer loop
      vertex -15.25 2.77128 3.4
      vertex -13.65 0 3.4
      vertex -15.25 2.77128 6.4
    endloop
  endfacet
  facet normal -0.866025 -0.5 0
    outer loop
      vertex -15.25 2.77128 6.4
      vertex -13.65 0 3.4
      vertex -13.65 0 6.4
    endloop
  endfacet
  facet normal 0 0 1
    outer loop
      vertex -15.25 2.77128 6.4
      vertex -13.65 0 6.4
      vertex -6.33998 5.2 6.4
    endloop
  endfacet
  facet normal 0 0 -1
    outer loop
      vertex -15.6458 -1.51 0
      vertex -14.9186 0 0
      vertex -3.8603 -1.59899 0
    endloop
  endfacet
  facet normal -0.900969 0.433884 0
    outer loop
      vertex -15.6458 -1.51 0
      vertex -14.9186 0 3.4
      vertex -14.9186 0 0
    endloop
  endfacet
  facet normal -0.900969 0.433884 0
    outer loop
      vertex -15.6458 -1.51 0
      vertex -15.6458 -1.51 3.4
      vertex -14.9186 0 3.4
    endloop
  endfacet
  facet normal 0 0 1
    outer loop
      vertex -15.6458 -1.51 3.4
      vertex -13.65 0 3.4
      vertex -14.9186 0 3.4
    endloop
  endfacet
  facet normal 0 0 1
    outer loop
      vertex -15.6458 -1.51 3.4
      vertex -15.25 -2.77128 3.4
      vertex -13.65 0 3.4
    endloop
  endfacet
  facet normal -0.900969 -0.433884 0
    outer loop
      vertex -15.6458 1.51 0
      vertex -14.9186 0 0
      vertex -15.6458 1.51 3.4
    endloop
  endfacet
  facet normal 0 0 -1
    outer loop
      vertex -15.6458 1.51 0
      vertex -3.8603 1.59899 0
      vertex -14.9186 0 0
    endloop
  endfacet
  facet normal -0 0 1
    outer loop
      vertex -15.6458 1.51 3.4
      vertex -13.65 0 3.4
      vertex -15.25 2.77128 3.4
    endloop
  endfacet
  facet normal -0.900969 -0.433884 0
    outer loop
      vertex -15.6458 1.51 3.4
      vertex -14.9186 0 0
      vertex -14.9186 0 3.4
    endloop
  endfacet
  facet normal 0 0 1
    outer loop
      vertex -15.6458 1.51 3.4
      vertex -14.9186 0 3.4
      vertex -13.65 0 3.4
    endloop
  endfacet
  facet normal 0 -0 1
    outer loop
      vertex -16.74 -5.2 10.9
      vertex -13.1903 -5.2 10.9
      vertex -6.33998 5.2 10.9
    endloop
  endfacet
  facet normal 0 -1 0
    outer loop
      vertex -16.74 -5.2 6.4
      vertex -13.1903 -5.2 10.9
      vertex -16.74 -5.2 10.9
    endloop
  endfacet
  facet normal 0 -1 -0
    outer loop
      vertex -16.74 -5.2 6.4
      vertex -13.1903 -5.2 6.4
      vertex -13.1903 -5.2 10.9
    endloop
  endfacet
  facet normal -0.707107 0.707107 0
    outer loop
      vertex -16.74 -5.2 6.4
      vertex -16.74 -5.2 10.9
      vertex -6.33998 5.2 10.9
    endloop
  endfacet
  facet normal -0.707107 0.707107 0
    outer loop
      vertex -16.74 -5.2 6.4
      vertex -6.33998 5.2 10.9
      vertex -6.33998 5.2 6.4
    endloop
  endfacet
  facet normal -0 0 1
    outer loop
      vertex -16.74 -5.2 6.4
      vertex -6.33998 5.2 6.4
      vertex -15.25 -2.77128 6.4
    endloop
  endfacet
  facet normal 0 0 -1
    outer loop
      vertex -16.85 -5.7 0
      vertex -1.59899 -3.8603 0
      vertex 0 -4.17836 0
    endloop
  endfacet
  facet normal -0 0 -1
    outer loop
      vertex -16.85 -5.7 0
      vertex -15.6458 -1.51 0
      vertex -3.8603 -1.59899 0
    endloop
  endfacet
  facet normal 0 0 -1
    outer loop
      vertex -16.85 -5.7 0
      vertex -2.95455 -2.95455 0
      vertex -1.59899 -3.8603 0
    endloop
  endfacet
  facet normal 0 0 -1
    outer loop
      vertex -16.85 -5.7 0
      vertex -3.8603 -1.59899 0
      vertex -2.95455 -2.95455 0
    endloop
  endfacet
  facet normal 0 0 -1
    outer loop
      vertex -16.85 -5.7 0
      vertex 0 -4.17836 0
      vertex 16.85 -5.7 0
    endloop
  endfacet
  facet normal 0 -1 -0
    outer loop
      vertex -16.85 -5.7 0
      vertex 16.85 -5.7 0
      vertex 16.85 -5.7 6.4
    endloop
  endfacet
  facet normal 0 -1 0
    outer loop
      vertex -16.85 -5.7 0
      vertex 16.85 -5.7 6.4
      vertex -16.85 -5.7 6.4
    endloop
  endfacet
  facet normal 0 0 1
    outer loop
      vertex -16.85 -5.7 6.4
      vertex -13.1903 -5.2 6.4
      vertex -16.74 -5.2 6.4
    endloop
  endfacet
  facet normal 0 0 1
    outer loop
      vertex -16.85 -5.7 6.4
      vertex 16.85 -5.7 6.4
      vertex -13.1903 -5.2 6.4
    endloop
  endfacet
  facet normal 0 0 -1
    outer loop
      vertex -16.85 5.7 0
      vertex -1.59899 3.8603 0
      vertex -2.95455 2.95455 0
    endloop
  endfacet
  facet normal 0 1 0
    outer loop
      vertex -16.85 5.7 0
      vertex -16.85 5.7 6.4
      vertex 16.85 5.7 0
    endloop
  endfacet
  facet normal 0 0 -1
    outer loop
      vertex -16.85 5.7 0
      vertex -2.95455 2.95455 0
      vertex -3.8603 1.59899 0
    endloop
  endfacet
  facet normal 0 0 -1
    outer loop
      vertex -16.85 5.7 0
      vertex -3.8603 1.59899 0
      vertex -15.6458 1.51 0
    endloop
  endfacet
  facet normal 0 0 -1
    outer loop
      vertex -16.85 5.7 0
      vertex 0 4.17836 0
      vertex -1.59899 3.8603 0
    endloop
  endfacet
  facet normal 0 0 -1
    outer loop
      vertex -16.85 5.7 0
      vertex 16.85 5.7 0
      vertex 0 4.17836 0
    endloop
  endfacet
  facet normal 0 0 1
    outer loop
      vertex -16.85 5.7 6.4
      vertex -15.25 2.77128 6.4
      vertex -6.33998 5.2 6.4
    endloop
  endfacet
  facet normal -0 0 1
    outer loop
      vertex -16.85 5.7 6.4
      vertex -2.79031 5.2 6.4
      vertex 16.85 5.7 6.4
    endloop
  endfacet
  facet normal 0 0 1
    outer loop
      vertex -16.85 5.7 6.4
      vertex -6.33998 5.2 6.4
      vertex -2.79031 5.2 6.4
    endloop
  endfacet
  facet normal 0 1 -0
    outer loop
      vertex -16.85 5.7 6.4
      vertex 16.85 5.7 6.4
      vertex 16.85 5.7 0
    endloop
  endfacet
  facet normal 0 0 -1
    outer loop
      vertex -17.2798 -1.88294 0
      vertex -15.6458 -1.51 0
      vertex -16.85 -5.7 0
    endloop
  endfacet
  facet normal -0.222521 0.974928 0
    outer loop
      vertex -17.2798 -1.88294 0
      vertex -17.2798 -1.88294 3.4
      vertex -15.6458 -1.51 0
    endloop
  endfacet
  facet normal -0 0 1
    outer loop
      vertex -17.2798 -1.88294 3.4
      vertex -15.25 -2.77128 3.4
      vertex -15.6458 -1.51 3.4
    endloop
  endfacet
  facet normal -0.222521 0.974928 0
    outer loop
      vertex -17.2798 -1.88294 3.4
      vertex -15.6458 -1.51 3.4
      vertex -15.6458 -1.51 0
    endloop
  endfacet
  facet normal -0.222521 -0.974928 -0
    outer loop
      vertex -17.2798 1.88294 0
      vertex -15.6458 1.51 0
      vertex -15.6458 1.51 3.4
    endloop
  endfacet
  facet normal -0.222521 -0.974928 0
    outer loop
      vertex -17.2798 1.88294 0
      vertex -15.6458 1.51 3.4
      vertex -17.2798 1.88294 3.4
    endloop
  endfacet
  facet normal 0 0 -1
    outer loop
      vertex -17.2798 1.88294 0
      vertex -16.85 5.7 0
      vertex -15.6458 1.51 0
    endloop
  endfacet
  facet normal 0 0 1
    outer loop
      vertex -17.2798 1.88294 3.4
      vertex -15.6458 1.51 3.4
      vertex -15.25 2.77128 3.4
    endloop
  endfacet
  facet normal -0.0436197 -0.999048 -0
    outer loop
      vertex -17.3468 -5.67831 0
      vertex -16.85 -5.7 0
      vertex -16.85 -5.7 6.4
    endloop
  endfacet
  facet normal -0.0436197 -0.999048 0
    outer loop
      vertex -17.3468 -5.67831 0
      vertex -16.85 -5.7 6.4
      vertex -17.3468 -5.67831 6.4
    endloop
  endfacet
  facet normal 0 0 -1
    outer loop
      vertex -17.3468 -5.67831 0
      vertex -17.2798 -1.88294 0
      vertex -16.85 -5.7 0
    endloop
  endfacet
  facet normal 0 0 1
    outer loop
      vertex -17.3468 -5.67831 6.4
      vertex -16.85 -5.7 6.4
      vertex -16.74 -5.2 6.4
    endloop
  endfacet
  facet normal 0 0 -1
    outer loop
      vertex -17.3468 5.67831 0
      vertex -16.85 5.7 0
      vertex -17.2798 1.88294 0
    endloop
  endfacet
  facet normal -0.0436197 0.999048 0
    outer loop
      vertex -17.3468 5.67831 0
      vertex -17.3468 5.67831 6.4
      vertex -16.85 5.7 0
    endloop
  endfacet
  facet normal -0.0436197 0.999048 0
    outer loop
      vertex -17.3468 5.67831 6.4
      vertex -16.85 5.7 6.4
      vertex -16.85 5.7 0
    endloop
  endfacet
  facet normal 0 0 -1
    outer loop
      vertex -17.8398 -5.6134 0
      vertex -17.2798 -1.88294 0
      vertex -17.3468 -5.67831 0
    endloop
  endfacet
  facet normal -0.130527 -0.991445 -0
    outer loop
      vertex -17.8398 -5.6134 0
      vertex -17.3468 -5.67831 0
      vertex -17.3468 -5.67831 6.4
    endloop
  endfacet
  facet normal -0.130527 -0.991445 0
    outer loop
      vertex -17.8398 -5.6134 0
      vertex -17.3468 -5.67831 6.4
      vertex -17.8398 -5.6134 6.4
    endloop
  endfacet
  facet normal 0 0 1
    outer loop
      vertex -17.8398 -5.6134 6.4
      vertex -17.3468 -5.67831 6.4
      vertex -16.74 -5.2 6.4
    endloop
  endfacet
  facet normal 0 0 -1
    outer loop
      vertex -17.8398 5.6134 0
      vertex -17.3468 5.67831 0
      vertex -17.2798 1.88294 0
    endloop
  endfacet
  facet normal -0.130527 0.991445 0
    outer loop
      vertex -17.8398 5.6134 0
      vertex -17.8398 5.6134 6.4
      vertex -17.3468 5.67831 0
    endloop
  endfacet
  facet normal -0.130527 0.991445 0
    outer loop
      vertex -17.8398 5.6134 6.4
      vertex -17.3468 5.67831 6.4
      vertex -17.3468 5.67831 0
    endloop
  endfacet
  facet normal 0 0 -1
    outer loop
      vertex -18.3253 -5.50578 0
      vertex -17.2798 -1.88294 0
      vertex -17.8398 -5.6134 0
    endloop
  endfacet
  facet normal -0.21644 -0.976296 -0
    outer loop
      vertex -18.3253 -5.50578 0
      vertex -17.8398 -5.6134 0
      vertex -17.8398 -5.6134 6.4
    endloop
  endfacet
  facet normal -0.21644 -0.976296 0
    outer loop
      vertex -18.3253 -5.50578 0
      vertex -17.8398 -5.6134 6.4
      vertex -18.3253 -5.50578 6.4
    endloop
  endfacet
  facet normal 0 0 -1
    outer loop
      vertex -18.3253 5.50578 0
      vertex -17.8398 5.6134 0
      vertex -17.2798 1.88294 0
    endloop
  endfacet
  facet normal -0.21644 0.976296 0
    outer loop
      vertex -18.3253 5.50578 0
      vertex -18.3253 5.50578 6.4
      vertex -17.8398 5.6134 0
    endloop
  endfacet
  facet normal -0.21644 0.976296 0
    outer loop
      vertex -18.3253 5.50578 6.4
      vertex -17.8398 5.6134 6.4
      vertex -17.8398 5.6134 0
    endloop
  endfacet
  facet normal 0 0 1
    outer loop
      vertex -18.45 -2.77128 3.4
      vertex -15.25 -2.77128 3.4
      vertex -17.2798 -1.88294 3.4
    endloop
  endfacet
  facet normal 0 1 0
    outer loop
      vertex -18.45 -2.77128 3.4
      vertex -18.45 -2.77128 6.4
      vertex -15.25 -2.77128 3.4
    endloop
  endfacet
  facet normal 0 1 -0
    outer loop
      vertex -18.45 -2.77128 6.4
      vertex -15.25 -2.77128 6.4
      vertex -15.25 -2.77128 3.4
    endloop
  endfacet
  facet normal -0 0 1
    outer loop
      vertex -18.45 -2.77128 6.4
      vertex -16.74 -5.2 6.4
      vertex -15.25 -2.77128 6.4
    endloop
  endfacet
  facet normal 0 -0 1
    outer loop
      vertex -18.45 -2.77128 6.4
      vertex -17.8398 -5.6134 6.4
      vertex -16.74 -5.2 6.4
    endloop
  endfacet
  facet normal 0 0 1
    outer loop
      vertex -18.45 -2.77128 6.4
      vertex -18.3253 -5.50578 6.4
      vertex -17.8398 -5.6134 6.4
    endloop
  endfacet
  facet normal 0 -1 -0
    outer loop
      vertex -18.45 2.77128 3.4
      vertex -15.25 2.77128 3.4
      vertex -15.25 2.77128 6.4
    endloop
  endfacet
  facet normal 0 -1 0
    outer loop
      vertex -18.45 2.77128 3.4
      vertex -15.25 2.77128 6.4
      vertex -18.45 2.77128 6.4
    endloop
  endfacet
  facet normal -0 0 1
    outer loop
      vertex -18.45 2.77128 3.4
      vertex -17.2798 1.88294 3.4
      vertex -15.25 2.77128 3.4
    endloop
  endfacet
  facet normal 0 0 1
    outer loop
      vertex -18.45 2.77128 6.4
      vertex -15.25 2.77128 6.4
      vertex -16.85 5.7 6.4
    endloop
  endfacet
  facet normal 0 0 1
    outer loop
      vertex -18.45 2.77128 6.4
      vertex -16.85 5.7 6.4
      vertex -17.3468 5.67831 6.4
    endloop
  endfacet
  facet normal 0 0 1
    outer loop
      vertex -18.45 2.77128 6.4
      vertex -17.3468 5.67831 6.4
      vertex -17.8398 5.6134 6.4
    endloop
  endfacet
  facet normal 0 0 1
    outer loop
      vertex -18.45 2.77128 6.4
      vertex -17.8398 5.6134 6.4
      vertex -18.3253 5.50578 6.4
    endloop
  endfacet
  facet normal 0.62349 0.781831 0
    outer loop
      vertex -18.5901 -0.837986 0
      vertex -18.5901 -0.837986 3.4
      vertex -17.2798 -1.88294 0
    endloop
  endfacet
  facet normal 1 0 0
    outer loop
      vertex -18.5901 -0.837986 0
      vertex -18.5901 0.837986 0
      vertex -18.5901 -0.837986 3.4
    endloop
  endfacet
  facet normal 0.62349 0.781831 -0
    outer loop
      vertex -18.5901 -0.837986 3.4
      vertex -17.2798 -1.88294 3.4
      vertex -17.2798 -1.88294 0
    endloop
  endfacet
  facet normal 0 0 1
    outer loop
      vertex -18.5901 -0.837986 3.4
      vertex -18.45 -2.77128 3.4
      vertex -17.2798 -1.88294 3.4
    endloop
  endfacet
  facet normal 1 -0 0
    outer loop
      vertex -18.5901 -0.837986 3.4
      vertex -18.5901 0.837986 0
      vertex -18.5901 0.837986 3.4
    endloop
  endfacet
  facet normal 0.62349 -0.781831 0
    outer loop
      vertex -18.5901 0.837986 0
      vertex -17.2798 1.88294 0
      vertex -17.2798 1.88294 3.4
    endloop
  endfacet
  facet normal 0.62349 -0.781831 0
    outer loop
      vertex -18.5901 0.837986 0
      vertex -17.2798 1.88294 3.4
      vertex -18.5901 0.837986 3.4
    endloop
  endfacet
  facet normal 0 0 1
    outer loop
      vertex -18.5901 0.837986 3.4
      vertex -17.2798 1.88294 3.4
      vertex -18.45 2.77128 3.4
    endloop
  endfacet
  facet normal 0 0 -1
    outer loop
      vertex -18.7995 -5.35625 0
      vertex -17.2798 -1.88294 0
      vertex -18.3253 -5.50578 0
    endloop
  endfacet
  facet normal -0.300704 -0.953718 -0
    outer loop
      vertex -18.7995 -5.35625 0
      vertex -18.3253 -5.50578 0
      vertex -18.3253 -5.50578 6.4
    endloop
  endfacet
  facet normal -0.300704 -0.953718 0
    outer loop
      vertex -18.7995 -5.35625 0
      vertex -18.3253 -5.50578 6.4
      vertex -18.7995 -5.35625 6.4
    endloop
  endfacet
  facet normal 0 0 1
    outer loop
      vertex -18.7995 -5.35625 6.4
      vertex -18.3253 -5.50578 6.4
      vertex -18.45 -2.77128 6.4
    endloop
  endfacet
  facet normal 0 0 -1
    outer loop
      vertex -18.7995 5.35625 0
      vertex -18.3253 5.50578 0
      vertex -17.2798 1.88294 0
    endloop
  endfacet
  facet normal -0.300704 0.953718 0
    outer loop
      vertex -18.7995 5.35625 0
      vertex -18.7995 5.35625 6.4
      vertex -18.3253 5.50578 0
    endloop
  endfacet
  facet normal -0.300704 0.953718 0
    outer loop
      vertex -18.7995 5.35625 6.4
      vertex -18.3253 5.50578 6.4
      vertex -18.3253 5.50578 0
    endloop
  endfacet
  facet normal -0 0 1
    outer loop
      vertex -18.7995 5.35625 6.4
      vertex -18.45 2.77128 6.4
      vertex -18.3253 5.50578 6.4
    endloop
  endfacet
  facet normal 0 0 -1
    outer loop
      vertex -19.2589 -5.16595 0
      vertex -17.2798 -1.88294 0
      vertex -18.7995 -5.35625 0
    endloop
  endfacet
  facet normal -0.382686 -0.923879 -0
    outer loop
      vertex -19.2589 -5.16595 0
      vertex -18.7995 -5.35625 0
      vertex -18.7995 -5.35625 6.4
    endloop
  endfacet
  facet normal -0.382686 -0.923879 0
    outer loop
      vertex -19.2589 -5.16595 0
      vertex -18.7995 -5.35625 6.4
      vertex -19.2589 -5.16595 6.4
    endloop
  endfacet
  facet normal 0 0 1
    outer loop
      vertex -19.2589 -5.16595 6.4
      vertex -18.7995 -5.35625 6.4
      vertex -18.45 -2.77128 6.4
    endloop
  endfacet
  facet normal 0 0 -1
    outer loop
      vertex -19.2589 5.16595 0
      vertex -18.7995 5.35625 0
      vertex -17.2798 1.88294 0
    endloop
  endfacet
  facet normal -0.382686 0.923879 0
    outer loop
      vertex -19.2589 5.16595 0
      vertex -19.2589 5.16595 6.4
      vertex -18.7995 5.35625 0
    endloop
  endfacet
  facet normal -0 0 1
    outer loop
      vertex -19.2589 5.16595 6.4
      vertex -18.45 2.77128 6.4
      vertex -18.7995 5.35625 6.4
    endloop
  endfacet
  facet normal -0.382686 0.923879 0
    outer loop
      vertex -19.2589 5.16595 6.4
      vertex -18.7995 5.35625 6.4
      vertex -18.7995 5.35625 0
    endloop
  endfacet
  facet normal 0 0 -1
    outer loop
      vertex -19.7 -4.93634 0
      vertex -17.2798 -1.88294 0
      vertex -19.2589 -5.16595 0
    endloop
  endfacet
  facet normal -0.461747 -0.887012 -0
    outer loop
      vertex -19.7 -4.93634 0
      vertex -19.2589 -5.16595 0
      vertex -19.2589 -5.16595 6.4
    endloop
  endfacet
  facet normal -0.461747 -0.887012 0
    outer loop
      vertex -19.7 -4.93634 0
      vertex -19.2589 -5.16595 6.4
      vertex -19.7 -4.93634 6.4
    endloop
  endfacet
  facet normal 0 0 1
    outer loop
      vertex -19.7 -4.93634 6.4
      vertex -19.2589 -5.16595 6.4
      vertex -18.45 -2.77128 6.4
    endloop
  endfacet
  facet normal 0 0 -1
    outer loop
      vertex -19.7 4.93634 0
      vertex -19.2589 5.16595 0
      vertex -17.2798 1.88294 0
    endloop
  endfacet
  facet normal -0.461747 0.887012 0
    outer loop
      vertex -19.7 4.93634 0
      vertex -19.7 4.93634 6.4
      vertex -19.2589 5.16595 0
    endloop
  endfacet
  facet normal -0 0 1
    outer loop
      vertex -19.7 4.93634 6.4
      vertex -18.45 2.77128 6.4
      vertex -19.2589 5.16595 6.4
    endloop
  endfacet
  facet normal -0.461747 0.887012 0
    outer loop
      vertex -19.7 4.93634 6.4
      vertex -19.2589 5.16595 6.4
      vertex -19.2589 5.16595 0
    endloop
  endfacet
  facet normal -0.62349 -0.781832 -0
    outer loop
      vertex -2.64107 -1.27187 0
      vertex -0.652288 -2.85787 0
      vertex -0.652288 -2.85787 4
    endloop
  endfacet
  facet normal -0.62349 -0.781832 0
    outer loop
      vertex -2.64107 -1.27187 0
      vertex -0.652288 -2.85787 4
      vertex -2.64107 -1.27187 4
    endloop
  endfacet
  facet normal 0 0 -1
    outer loop
      vertex -2.64107 -1.27187 0
      vertex -1.7401 -0.837986 0
      vertex -0.652288 -2.85787 0
    endloop
  endfacet
  facet normal -0 0 -1
    outer loop
      vertex -2.64107 -1.27187 0
      vertex -1.7401 0.837986 0
      vertex -1.7401 -0.837986 0
    endloop
  endfacet
  facet normal -1 -0 0
    outer loop
      vertex -2.64107 -1.27187 0
      vertex -2.64107 -1.27187 4
      vertex -2.64107 1.27187 4
    endloop
  endfacet
  facet normal 0 0 -1
    outer loop
      vertex -2.64107 -1.27187 0
      vertex -2.64107 1.27187 0
      vertex -1.7401 0.837986 0
    endloop
  endfacet
  facet normal -1 0 0
    outer loop
      vertex -2.64107 -1.27187 0
      vertex -2.64107 1.27187 4
      vertex -2.64107 1.27187 0
    endloop
  endfacet
  facet normal 0 0 -1
    outer loop
      vertex -2.64107 1.27187 0
      vertex -0.652288 2.85787 0
      vertex -1.7401 0.837986 0
    endloop
  endfacet
  facet normal -0.62349 0.781832 0
    outer loop
      vertex -2.64107 1.27187 0
      vertex -2.64107 1.27187 4
      vertex -0.652288 2.85787 0
    endloop
  endfacet
  facet normal -0.62349 0.781832 0
    outer loop
      vertex -2.64107 1.27187 4
      vertex -0.652288 2.85787 4
      vertex -0.652288 2.85787 0
    endloop
  endfacet
  facet normal -0 0 1
    outer loop
      vertex -2.79031 5.2 6.4
      vertex -0.429768 1.88294 6.4
      vertex 2.79031 5.2 6.4
    endloop
  endfacet
  facet normal 0 0 1
    outer loop
      vertex -2.79031 5.2 6.4
      vertex -1.7401 0.837986 6.4
      vertex -0.429768 1.88294 6.4
    endloop
  endfacet
  facet normal 0 0 1
    outer loop
      vertex -2.79031 5.2 6.4
      vertex 2.79031 5.2 6.4
      vertex 16.85 5.7 6.4
    endloop
  endfacet
  facet normal 0.55557 0.83147 0
    outer loop
      vertex -2.95455 -2.95455 0
      vertex -2.95455 -2.95455 4
      vertex -1.59899 -3.8603 0
    endloop
  endfacet
  facet normal 0 0 -1
    outer loop
      vertex -2.95455 -2.95455 4
      vertex -0.652288 -2.85787 4
      vertex -1.59899 -3.8603 4
    endloop
  endfacet
  facet normal 0.55557 0.83147 -0
    outer loop
      vertex -2.95455 -2.95455 4
      vertex -1.59899 -3.8603 4
      vertex -1.59899 -3.8603 0
    endloop
  endfacet
  facet normal -0 0 -1
    outer loop
      vertex -2.95455 -2.95455 4
      vertex -2.64107 -1.27187 4
      vertex -0.652288 -2.85787 4
    endloop
  endfacet
  facet normal 0.55557 -0.83147 0
    outer loop
      vertex -2.95455 2.95455 0
      vertex -1.59899 3.8603 0
      vertex -1.59899 3.8603 4
    endloop
  endfacet
  facet normal 0.55557 -0.83147 0
    outer loop
      vertex -2.95455 2.95455 0
      vertex -1.59899 3.8603 4
      vertex -2.95455 2.95455 4
    endloop
  endfacet
  facet normal 0 0 -1
    outer loop
      vertex -2.95455 2.95455 4
      vertex -0.652288 2.85787 4
      vertex -2.64107 1.27187 4
    endloop
  endfacet
  facet normal 0 0 -1
    outer loop
      vertex -2.95455 2.95455 4
      vertex -1.59899 3.8603 4
      vertex -0.652288 2.85787 4
    endloop
  endfacet
  facet normal 0 0 1
    outer loop
      vertex -20.05 0 3.4
      vertex -18.45 -2.77128 3.4
      vertex -18.5901 -0.837986 3.4
    endloop
  endfacet
  facet normal 0.866025 0.5 0
    outer loop
      vertex -20.05 0 3.4
      vertex -18.45 -2.77128 6.4
      vertex -18.45 -2.77128 3.4
    endloop
  endfacet
  facet normal 0.866025 -0.5 0
    outer loop
      vertex -20.05 0 3.4
      vertex -18.45 2.77128 3.4
      vertex -20.05 0 6.4
    endloop
  endfacet
  facet normal 0 0 1
    outer loop
      vertex -20.05 0 3.4
      vertex -18.5901 -0.837986 3.4
      vertex -18.5901 0.837986 3.4
    endloop
  endfacet
  facet normal 0 0 1
    outer loop
      vertex -20.05 0 3.4
      vertex -18.5901 0.837986 3.4
      vertex -18.45 2.77128 3.4
    endloop
  endfacet
  facet normal 0.866025 0.5 0
    outer loop
      vertex -20.05 0 3.4
      vertex -20.05 0 6.4
      vertex -18.45 -2.77128 6.4
    endloop
  endfacet
  facet normal 0.866025 -0.5 0
    outer loop
      vertex -20.05 0 6.4
      vertex -18.45 2.77128 3.4
      vertex -18.45 2.77128 6.4
    endloop
  endfacet
  facet normal 0 0 -1
    outer loop
      vertex -20.1194 -4.66917 0
      vertex -17.2798 -1.88294 0
      vertex -19.7 -4.93634 0
    endloop
  endfacet
  facet normal -0.5373 -0.843391 -0
    outer loop
      vertex -20.1194 -4.66917 0
      vertex -19.7 -4.93634 0
      vertex -19.7 -4.93634 6.4
    endloop
  endfacet
  facet normal -0.5373 -0.843391 0
    outer loop
      vertex -20.1194 -4.66917 0
      vertex -19.7 -4.93634 6.4
      vertex -20.1194 -4.66917 6.4
    endloop
  endfacet
  facet normal 0 0 1
    outer loop
      vertex -20.1194 -4.66917 6.4
      vertex -19.7 -4.93634 6.4
      vertex -18.45 -2.77128 6.4
    endloop
  endfacet
  facet normal 0 0 -1
    outer loop
      vertex -20.1194 4.66917 0
      vertex -19.7 4.93634 0
      vertex -17.2798 1.88294 0
    endloop
  endfacet
  facet normal -0.5373 0.843391 0
    outer loop
      vertex -20.1194 4.66917 0
      vertex -20.1194 4.66917 6.4
      vertex -19.7 4.93634 0
    endloop
  endfacet
  facet normal -0 0 1
    outer loop
      vertex -20.1194 4.66917 6.4
      vertex -18.45 2.77128 6.4
      vertex -19.7 4.93634 6.4
    endloop
  endfacet
  facet normal -0.5373 0.843391 0
    outer loop
      vertex -20.1194 4.66917 6.4
      vertex -19.7 4.93634 6.4
      vertex -19.7 4.93634 0
    endloop
  endfacet
  facet normal 0 0 -1
    outer loop
      vertex -20.5139 -4.36645 0
      vertex -17.2798 -1.88294 0
      vertex -20.1194 -4.66917 0
    endloop
  endfacet
  facet normal -0 0 -1
    outer loop
      vertex -20.5139 -4.36645 0
      vertex -18.5901 -0.837986 0
      vertex -17.2798 -1.88294 0
    endloop
  endfacet
  facet normal -0.608761 -0.793354 -0
    outer loop
      vertex -20.5139 -4.36645 0
      vertex -20.1194 -4.66917 0
      vertex -20.1194 -4.66917 6.4
    endloop
  endfacet
  facet normal -0.608761 -0.793354 0
    outer loop
      vertex -20.5139 -4.36645 0
      vertex -20.1194 -4.66917 6.4
      vertex -20.5139 -4.36645 6.4
    endloop
  endfacet
  facet normal 0 0 1
    outer loop
      vertex -20.5139 -4.36645 6.4
      vertex -20.1194 -4.66917 6.4
      vertex -18.45 -2.77128 6.4
    endloop
  endfacet
  facet normal 0 0 -1
    outer loop
      vertex -20.5139 4.36645 0
      vertex -17.2798 1.88294 0
      vertex -18.5901 0.837986 0
    endloop
  endfacet
  facet normal 0 0 -1
    outer loop
      vertex -20.5139 4.36645 0
      vertex -20.1194 4.66917 0
      vertex -17.2798 1.88294 0
    endloop
  endfacet
  facet normal -0.608761 0.793354 0
    outer loop
      vertex -20.5139 4.36645 0
      vertex -20.5139 4.36645 6.4
      vertex -20.1194 4.66917 0
    endloop
  endfacet
  facet normal -0 0 1
    outer loop
      vertex -20.5139 4.36645 6.4
      vertex -18.45 2.77128 6.4
      vertex -20.1194 4.66917 6.4
    endloop
  endfacet
  facet normal -0.608761 0.793354 0
    outer loop
      vertex -20.5139 4.36645 6.4
      vertex -20.1194 4.66917 6.4
      vertex -20.1194 4.66917 0
    endloop
  endfacet
  facet normal 0 0 -1
    outer loop
      vertex -20.8805 -4.03051 0
      vertex -18.5901 -0.837986 0
      vertex -20.5139 -4.36645 0
    endloop
  endfacet
  facet normal -0.675591 -0.737277 -0
    outer loop
      vertex -20.8805 -4.03051 0
      vertex -20.5139 -4.36645 0
      vertex -20.5139 -4.36645 6.4
    endloop
  endfacet
  facet normal -0.675591 -0.737277 0
    outer loop
      vertex -20.8805 -4.03051 0
      vertex -20.5139 -4.36645 6.4
      vertex -20.8805 -4.03051 6.4
    endloop
  endfacet
  facet normal 0 0 1
    outer loop
      vertex -20.8805 -4.03051 6.4
      vertex -20.5139 -4.36645 6.4
      vertex -18.45 -2.77128 6.4
    endloop
  endfacet
  facet normal 0 0 -1
    outer loop
      vertex -20.8805 4.03051 0
      vertex -20.5139 4.36645 0
      vertex -18.5901 0.837986 0
    endloop
  endfacet
  facet normal -0.675591 0.737277 0
    outer loop
      vertex -20.8805 4.03051 0
      vertex -20.8805 4.03051 6.4
      vertex -20.5139 4.36645 0
    endloop
  endfacet
  facet normal -0 0 1
    outer loop
      vertex -20.8805 4.03051 6.4
      vertex -18.45 2.77128 6.4
      vertex -20.5139 4.36645 6.4
    endloop
  endfacet
  facet normal -0.675591 0.737277 0
    outer loop
      vertex -20.8805 4.03051 6.4
      vertex -20.5139 4.36645 6.4
      vertex -20.5139 4.36645 0
    endloop
  endfacet
  facet normal 0 0 -1
    outer loop
      vertex -21.2165 -3.66389 0
      vertex -18.5901 -0.837986 0
      vertex -20.8805 -4.03051 0
    endloop
  endfacet
  facet normal -0.737277 -0.675591 0
    outer loop
      vertex -21.2165 -3.66389 0
      vertex -20.8805 -4.03051 0
      vertex -21.2165 -3.66389 6.4
    endloop
  endfacet
  facet normal -0.737277 -0.675591 0
    outer loop
      vertex -21.2165 -3.66389 6.4
      vertex -20.8805 -4.03051 0
      vertex -20.8805 -4.03051 6.4
    endloop
  endfacet
  facet normal 0 0 1
    outer loop
      vertex -21.2165 -3.66389 6.4
      vertex -20.8805 -4.03051 6.4
      vertex -18.45 -2.77128 6.4
    endloop
  endfacet
  facet normal 0 0 -1
    outer loop
      vertex -21.2165 3.66389 0
      vertex -20.8805 4.03051 0
      vertex -18.5901 0.837986 0
    endloop
  endfacet
  facet normal -0.737277 0.675591 0
    outer loop
      vertex -21.2165 3.66389 0
      vertex -20.8805 4.03051 6.4
      vertex -20.8805 4.03051 0
    endloop
  endfacet
  facet normal -0.737277 0.675591 0
    outer loop
      vertex -21.2165 3.66389 0
      vertex -21.2165 3.66389 6.4
      vertex -20.8805 4.03051 6.4
    endloop
  endfacet
  facet normal -0 0 1
    outer loop
      vertex -21.2165 3.66389 6.4
      vertex -18.45 2.77128 6.4
      vertex -20.8805 4.03051 6.4
    endloop
  endfacet
  facet normal 0 0 -1
    outer loop
      vertex -21.5192 -3.26939 0
      vertex -18.5901 -0.837986 0
      vertex -21.2165 -3.66389 0
    endloop
  endfacet
  facet normal -0.793355 -0.608759 0
    outer loop
      vertex -21.5192 -3.26939 0
      vertex -21.2165 -3.66389 0
      vertex -21.5192 -3.26939 6.4
    endloop
  endfacet
  facet normal -0.793355 -0.608759 0
    outer loop
      vertex -21.5192 -3.26939 6.4
      vertex -21.2165 -3.66389 0
      vertex -21.2165 -3.66389 6.4
    endloop
  endfacet
  facet normal 0 0 1
    outer loop
      vertex -21.5192 -3.26939 6.4
      vertex -21.2165 -3.66389 6.4
      vertex -18.45 -2.77128 6.4
    endloop
  endfacet
  facet normal 0 0 -1
    outer loop
      vertex -21.5192 3.26939 0
      vertex -21.2165 3.66389 0
      vertex -18.5901 0.837986 0
    endloop
  endfacet
  facet normal -0.793355 0.608759 0
    outer loop
      vertex -21.5192 3.26939 0
      vertex -21.2165 3.66389 6.4
      vertex -21.2165 3.66389 0
    endloop
  endfacet
  facet normal -0.793355 0.608759 0
    outer loop
      vertex -21.5192 3.26939 0
      vertex -21.5192 3.26939 6.4
      vertex -21.2165 3.66389 6.4
    endloop
  endfacet
  facet normal -0 0 1
    outer loop
      vertex -21.5192 3.26939 6.4
      vertex -18.45 2.77128 6.4
      vertex -21.2165 3.66389 6.4
    endloop
  endfacet
  facet normal 0 0 -1
    outer loop
      vertex -21.7863 -2.85 0
      vertex -18.5901 -0.837986 0
      vertex -21.5192 -3.26939 0
    endloop
  endfacet
  facet normal -0.84339 -0.537301 0
    outer loop
      vertex -21.7863 -2.85 0
      vertex -21.5192 -3.26939 0
      vertex -21.7863 -2.85 6.4
    endloop
  endfacet
  facet normal 0 0 1
    outer loop
      vertex -21.7863 -2.85 6.4
      vertex -18.45 -2.77128 6.4
      vertex -20.05 0 6.4
    endloop
  endfacet
  facet normal -0.84339 -0.537301 0
    outer loop
      vertex -21.7863 -2.85 6.4
      vertex -21.5192 -3.26939 0
      vertex -21.5192 -3.26939 6.4
    endloop
  endfacet
  facet normal 0 0 1
    outer loop
      vertex -21.7863 -2.85 6.4
      vertex -21.5192 -3.26939 6.4
      vertex -18.45 -2.77128 6.4
    endloop
  endfacet
  facet normal 0 0 -1
    outer loop
      vertex -21.7863 2.85 0
      vertex -21.5192 3.26939 0
      vertex -18.5901 0.837986 0
    endloop
  endfacet
  facet normal -0.84339 0.537301 0
    outer loop
      vertex -21.7863 2.85 0
      vertex -21.5192 3.26939 6.4
      vertex -21.5192 3.26939 0
    endloop
  endfacet
  facet normal -0.84339 0.537301 0
    outer loop
      vertex -21.7863 2.85 0
      vertex -21.7863 2.85 6.4
      vertex -21.5192 3.26939 6.4
    endloop
  endfacet
  facet normal -0 0 1
    outer loop
      vertex -21.7863 2.85 6.4
      vertex -18.45 2.77128 6.4
      vertex -21.5192 3.26939 6.4
    endloop
  endfacet
  facet normal 0 0 1
    outer loop
      vertex -21.7863 2.85 6.4
      vertex -20.05 0 6.4
      vertex -18.45 2.77128 6.4
    endloop
  endfacet
  facet normal 0 0 -1
    outer loop
      vertex -22.016 -2.40892 0
      vertex -18.5901 -0.837986 0
      vertex -21.7863 -2.85 0
    endloop
  endfacet
  facet normal -0.887012 -0.461747 0
    outer loop
      vertex -22.016 -2.40892 0
      vertex -21.7863 -2.85 0
      vertex -22.016 -2.40892 6.4
    endloop
  endfacet
  facet normal -0.887012 -0.461747 0
    outer loop
      vertex -22.016 -2.40892 6.4
      vertex -21.7863 -2.85 0
      vertex -21.7863 -2.85 6.4
    endloop
  endfacet
  facet normal 0 0 1
    outer loop
      vertex -22.016 -2.40892 6.4
      vertex -21.7863 -2.85 6.4
      vertex -20.05 0 6.4
    endloop
  endfacet
  facet normal 0 0 -1
    outer loop
      vertex -22.016 2.40892 0
      vertex -21.7863 2.85 0
      vertex -18.5901 0.837986 0
    endloop
  endfacet
  facet normal -0.887012 0.461747 0
    outer loop
      vertex -22.016 2.40892 0
      vertex -21.7863 2.85 6.4
      vertex -21.7863 2.85 0
    endloop
  endfacet
  facet normal -0.887012 0.461747 0
    outer loop
      vertex -22.016 2.40892 0
      vertex -22.016 2.40892 6.4
      vertex -21.7863 2.85 6.4
    endloop
  endfacet
  facet normal -0 0 1
    outer loop
      vertex -22.016 2.40892 6.4
      vertex -20.05 0 6.4
      vertex -21.7863 2.85 6.4
    endloop
  endfacet
  facet normal 0 0 -1
    outer loop
      vertex -22.2062 -1.94951 0
      vertex -18.5901 -0.837986 0
      vertex -22.016 -2.40892 0
    endloop
  endfacet
  facet normal -0.923879 -0.382685 0
    outer loop
      vertex -22.2062 -1.94951 0
      vertex -22.016 -2.40892 0
      vertex -22.2062 -1.94951 6.4
    endloop
  endfacet
  facet normal -0.923879 -0.382685 0
    outer loop
      vertex -22.2062 -1.94951 6.4
      vertex -22.016 -2.40892 0
      vertex -22.016 -2.40892 6.4
    endloop
  endfacet
  facet normal 0 0 1
    outer loop
      vertex -22.2062 -1.94951 6.4
      vertex -22.016 -2.40892 6.4
      vertex -20.05 0 6.4
    endloop
  endfacet
  facet normal 0 0 -1
    outer loop
      vertex -22.2062 1.94951 0
      vertex -22.016 2.40892 0
      vertex -18.5901 0.837986 0
    endloop
  endfacet
  facet normal -0.923879 0.382685 0
    outer loop
      vertex -22.2062 1.94951 0
      vertex -22.016 2.40892 6.4
      vertex -22.016 2.40892 0
    endloop
  endfacet
  facet normal -0.923879 0.382685 0
    outer loop
      vertex -22.2062 1.94951 0
      vertex -22.2062 1.94951 6.4
      vertex -22.016 2.40892 6.4
    endloop
  endfacet
  facet normal -0 0 1
    outer loop
      vertex -22.2062 1.94951 6.4
      vertex -20.05 0 6.4
      vertex -22.016 2.40892 6.4
    endloop
  endfacet
  facet normal 0 0 -1
    outer loop
      vertex -22.3558 -1.47527 0
      vertex -18.5901 -0.837986 0
      vertex -22.2062 -1.94951 0
    endloop
  endfacet
  facet normal -0.953716 -0.300708 0
    outer loop
      vertex -22.3558 -1.47527 0
      vertex -22.2062 -1.94951 0
      vertex -22.3558 -1.47527 6.4
    endloop
  endfacet
  facet normal -0.953716 -0.300708 0
    outer loop
      vertex -22.3558 -1.47527 6.4
      vertex -22.2062 -1.94951 0
      vertex -22.2062 -1.94951 6.4
    endloop
  endfacet
  facet normal 0 0 1
    outer loop
      vertex -22.3558 -1.47527 6.4
      vertex -22.2062 -1.94951 6.4
      vertex -20.05 0 6.4
    endloop
  endfacet
  facet normal 0 0 -1
    outer loop
      vertex -22.3558 1.47527 0
      vertex -22.2062 1.94951 0
      vertex -18.5901 0.837986 0
    endloop
  endfacet
  facet normal -0.953716 0.300708 0
    outer loop
      vertex -22.3558 1.47527 0
      vertex -22.2062 1.94951 6.4
      vertex -22.2062 1.94951 0
    endloop
  endfacet
  facet normal -0.953716 0.300708 0
    outer loop
      vertex -22.3558 1.47527 0
      vertex -22.3558 1.47527 6.4
      vertex -22.2062 1.94951 6.4
    endloop
  endfacet
  facet normal -0 0 1
    outer loop
      vertex -22.3558 1.47527 6.4
      vertex -20.05 0 6.4
      vertex -22.2062 1.94951 6.4
    endloop
  endfacet
  facet normal 0 0 -1
    outer loop
      vertex -22.4634 -0.989794 0
      vertex -18.5901 -0.837986 0
      vertex -22.3558 -1.47527 0
    endloop
  endfacet
  facet normal -0.976297 -0.216437 0
    outer loop
      vertex -22.4634 -0.989794 0
      vertex -22.3558 -1.47527 0
      vertex -22.4634 -0.989794 6.4
    endloop
  endfacet
  facet normal -0.976297 -0.216437 0
    outer loop
      vertex -22.4634 -0.989794 6.4
      vertex -22.3558 -1.47527 0
      vertex -22.3558 -1.47527 6.4
    endloop
  endfacet
  facet normal 0 0 1
    outer loop
      vertex -22.4634 -0.989794 6.4
      vertex -22.3558 -1.47527 6.4
      vertex -20.05 0 6.4
    endloop
  endfacet
  facet normal 0 0 -1
    outer loop
      vertex -22.4634 0.989794 0
      vertex -22.3558 1.47527 0
      vertex -18.5901 0.837986 0
    endloop
  endfacet
  facet normal -0.976297 0.216437 0
    outer loop
      vertex -22.4634 0.989794 0
      vertex -22.3558 1.47527 6.4
      vertex -22.3558 1.47527 0
    endloop
  endfacet
  facet normal -0.976297 0.216437 0
    outer loop
      vertex -22.4634 0.989794 0
      vertex -22.4634 0.989794 6.4
      vertex -22.3558 1.47527 6.4
    endloop
  endfacet
  facet normal -0 0 1
    outer loop
      vertex -22.4634 0.989794 6.4
      vertex -20.05 0 6.4
      vertex -22.3558 1.47527 6.4
    endloop
  endfacet
  facet normal 0 0 -1
    outer loop
      vertex -22.5283 -0.496787 0
      vertex -18.5901 -0.837986 0
      vertex -22.4634 -0.989794 0
    endloop
  endfacet
  facet normal -0.991445 -0.130525 0
    outer loop
      vertex -22.5283 -0.496787 0
      vertex -22.4634 -0.989794 0
      vertex -22.5283 -0.496787 6.4
    endloop
  endfacet
  facet normal -0.991445 -0.130525 0
    outer loop
      vertex -22.5283 -0.496787 6.4
      vertex -22.4634 -0.989794 0
      vertex -22.4634 -0.989794 6.4
    endloop
  endfacet
  facet normal 0 0 1
    outer loop
      vertex -22.5283 -0.496787 6.4
      vertex -22.4634 -0.989794 6.4
      vertex -20.05 0 6.4
    endloop
  endfacet
  facet normal -0 0 -1
    outer loop
      vertex -22.5283 0.496787 0
      vertex -22.4634 0.989794 0
      vertex -18.5901 0.837986 0
    endloop
  endfacet
  facet normal -0.991445 0.130525 0
    outer loop
      vertex -22.5283 0.496787 0
      vertex -22.4634 0.989794 6.4
      vertex -22.4634 0.989794 0
    endloop
  endfacet
  facet normal -0.991445 0.130525 0
    outer loop
      vertex -22.5283 0.496787 0
      vertex -22.5283 0.496787 6.4
      vertex -22.4634 0.989794 6.4
    endloop
  endfacet
  facet normal -0 0 1
    outer loop
      vertex -22.5283 0.496787 6.4
      vertex -20.05 0 6.4
      vertex -22.4634 0.989794 6.4
    endloop
  endfacet
  facet normal 0 0 -1
    outer loop
      vertex -22.55 0 0
      vertex -18.5901 -0.837986 0
      vertex -22.5283 -0.496787 0
    endloop
  endfacet
  facet normal 0 0 -1
    outer loop
      vertex -22.55 0 0
      vertex -18.5901 0.837986 0
      vertex -18.5901 -0.837986 0
    endloop
  endfacet
  facet normal -0.999048 -0.0436197 0
    outer loop
      vertex -22.55 0 0
      vertex -22.5283 -0.496787 0
      vertex -22.55 0 6.4
    endloop
  endfacet
  facet normal 0 0 -1
    outer loop
      vertex -22.55 0 0
      vertex -22.5283 0.496787 0
      vertex -18.5901 0.837986 0
    endloop
  endfacet
  facet normal -0.999048 0.0436197 0
    outer loop
      vertex -22.55 0 0
      vertex -22.5283 0.496787 6.4
      vertex -22.5283 0.496787 0
    endloop
  endfacet
  facet normal -0.999048 0.0436197 0
    outer loop
      vertex -22.55 0 0
      vertex -22.55 0 6.4
      vertex -22.5283 0.496787 6.4
    endloop
  endfacet
  facet normal 0 0 1
    outer loop
      vertex -22.55 0 6.4
      vertex -20.05 0 6.4
      vertex -22.5283 0.496787 6.4
    endloop
  endfacet
  facet normal -0.999048 -0.0436197 0
    outer loop
      vertex -22.55 0 6.4
      vertex -22.5283 -0.496787 0
      vertex -22.5283 -0.496787 6.4
    endloop
  endfacet
  facet normal 0 0 1
    outer loop
      vertex -22.55 0 6.4
      vertex -22.5283 -0.496787 6.4
      vertex -20.05 0 6.4
    endloop
  endfacet
  facet normal 0.83147 0.55557 0
    outer loop
      vertex -3.8603 -1.59899 0
      vertex -2.95455 -2.95455 4
      vertex -2.95455 -2.95455 0
    endloop
  endfacet
  facet normal 0.83147 0.55557 0
    outer loop
      vertex -3.8603 -1.59899 0
      vertex -3.8603 -1.59899 4
      vertex -2.95455 -2.95455 4
    endloop
  endfacet
  facet normal 0 0 -1
    outer loop
      vertex -3.8603 -1.59899 4
      vertex -2.64107 -1.27187 4
      vertex -2.95455 -2.95455 4
    endloop
  endfacet
  facet normal 0.83147 -0.55557 0
    outer loop
      vertex -3.8603 1.59899 0
      vertex -2.95455 2.95455 0
      vertex -3.8603 1.59899 4
    endloop
  endfacet
  facet normal 0.83147 -0.55557 0
    outer loop
      vertex -3.8603 1.59899 4
      vertex -2.95455 2.95455 0
      vertex -2.95455 2.95455 4
    endloop
  endfacet
  facet normal 0 0 -1
    outer loop
      vertex -3.8603 1.59899 4
      vertex -2.95455 2.95455 4
      vertex -2.64107 1.27187 4
    endloop
  endfacet
  facet normal 0.980785 0.19509 0
    outer loop
      vertex -4.17836 0 0
      vertex -3.8603 -1.59899 4
      vertex -3.8603 -1.59899 0
    endloop
  endfacet
  facet normal 0.980785 -0.19509 0
    outer loop
      vertex -4.17836 0 0
      vertex -3.8603 1.59899 0
      vertex -4.17836 0 4
    endloop
  endfacet
  facet normal 0.980785 0.19509 0
    outer loop
      vertex -4.17836 0 0
      vertex -4.17836 0 4
      vertex -3.8603 -1.59899 4
    endloop
  endfacet
  facet normal 0 0 -1
    outer loop
      vertex -4.17836 0 4
      vertex -2.64107 -1.27187 4
      vertex -3.8603 -1.59899 4
    endloop
  endfacet
  facet normal 0 0 -1
    outer loop
      vertex -4.17836 0 4
      vertex -2.64107 1.27187 4
      vertex -2.64107 -1.27187 4
    endloop
  endfacet
  facet normal 0.980785 -0.19509 0
    outer loop
      vertex -4.17836 0 4
      vertex -3.8603 1.59899 0
      vertex -3.8603 1.59899 4
    endloop
  endfacet
  facet normal -0 0 -1
    outer loop
      vertex -4.17836 0 4
      vertex -3.8603 1.59899 4
      vertex -2.64107 1.27187 4
    endloop
  endfacet
  facet normal 0 1 -0
    outer loop
      vertex -6.33998 5.2 10.9
      vertex -2.79031 5.2 10.9
      vertex -2.79031 5.2 6.4
    endloop
  endfacet
  facet normal 0 1 0
    outer loop
      vertex -6.33998 5.2 6.4
      vertex -6.33998 5.2 10.9
      vertex -2.79031 5.2 6.4
    endloop
  endfacet
  facet normal -0.19509 0.980785 0
    outer loop
      vertex 0 -4.17836 0
      vertex 0 -4.17836 4
      vertex 1.59899 -3.8603 0
    endloop
  endfacet
  facet normal 0 0 -1
    outer loop
      vertex 0 -4.17836 0
      vertex 1.59899 -3.8603 0
      vertex 16.85 -5.7 0
    endloop
  endfacet
  facet normal -0.19509 0.980785 0
    outer loop
      vertex 0 -4.17836 4
      vertex 1.59899 -3.8603 4
      vertex 1.59899 -3.8603 0
    endloop
  endfacet
  facet normal -0.19509 -0.980785 -0
    outer loop
      vertex 0 4.17836 0
      vertex 1.59899 3.8603 0
      vertex 1.59899 3.8603 4
    endloop
  endfacet
  facet normal -0.19509 -0.980785 0
    outer loop
      vertex 0 4.17836 0
      vertex 1.59899 3.8603 4
      vertex 0 4.17836 4
    endloop
  endfacet
  facet normal 0 0 -1
    outer loop
      vertex 0 4.17836 0
      vertex 16.85 5.7 0
      vertex 1.59899 3.8603 0
    endloop
  endfacet
  facet normal -0.900969 0.433884 0
    outer loop
      vertex 1.20418 -1.51 0
      vertex 1.20418 -1.51 6.4
      vertex 1.93136 0 6.4
    endloop
  endfacet
  facet normal 0 0 -1
    outer loop
      vertex 1.20418 -1.51 0
      vertex 1.93136 0 0
      vertex 1.82767 -2.29183 0
    endloop
  endfacet
  facet normal -0.900969 0.433884 0
    outer loop
      vertex 1.20418 -1.51 0
      vertex 1.93136 0 6.4
      vertex 1.93136 0 0
    endloop
  endfacet
  facet normal -0 0 1
    outer loop
      vertex 1.20418 -1.51 6.4
      vertex 13.1903 -5.2 6.4
      vertex 1.93136 0 6.4
    endloop
  endfacet
  facet normal 0 0 -1
    outer loop
      vertex 1.20418 1.51 0
      vertex 1.82767 2.29183 0
      vertex 1.93136 0 0
    endloop
  endfacet
  facet normal -0.900969 -0.433884 0
    outer loop
      vertex 1.20418 1.51 0
      vertex 1.93136 0 0
      vertex 1.20418 1.51 6.4
    endloop
  endfacet
  facet normal -0.900969 -0.433884 0
    outer loop
      vertex 1.20418 1.51 6.4
      vertex 1.93136 0 0
      vertex 1.93136 0 6.4
    endloop
  endfacet
  facet normal 0 0 1
    outer loop
      vertex 1.20418 1.51 6.4
      vertex 1.93136 0 6.4
      vertex 2.79031 5.2 6.4
    endloop
  endfacet
  facet normal -0.55557 0.83147 0
    outer loop
      vertex 1.59899 -3.8603 0
      vertex 1.59899 -3.8603 4
      vertex 2.95455 -2.95455 0
    endloop
  endfacet
  facet normal 0 0 -1
    outer loop
      vertex 1.59899 -3.8603 0
      vertex 2.95455 -2.95455 0
      vertex 16.85 -5.7 0
    endloop
  endfacet
  facet normal 0 0 -1
    outer loop
      vertex 1.59899 -3.8603 4
      vertex 1.82767 -2.29183 4
      vertex 2.95455 -2.95455 4
    endloop
  endfacet
  facet normal -0.55557 0.83147 0
    outer loop
      vertex 1.59899 -3.8603 4
      vertex 2.95455 -2.95455 4
      vertex 2.95455 -2.95455 0
    endloop
  endfacet
  facet normal 0 0 -1
    outer loop
      vertex 1.59899 3.8603 0
      vertex 16.85 5.7 0
      vertex 2.95455 2.95455 0
    endloop
  endfacet
  facet normal -0.55557 -0.83147 -0
    outer loop
      vertex 1.59899 3.8603 0
      vertex 2.95455 2.95455 0
      vertex 2.95455 2.95455 4
    endloop
  endfacet
  facet normal -0.55557 -0.83147 0
    outer loop
      vertex 1.59899 3.8603 0
      vertex 2.95455 2.95455 4
      vertex 1.59899 3.8603 4
    endloop
  endfacet
  facet normal 0 0 -1
    outer loop
      vertex 1.59899 3.8603 4
      vertex 2.95455 2.95455 4
      vertex 1.82767 2.29183 4
    endloop
  endfacet
  facet normal 0 0 -1
    outer loop
      vertex 1.82767 -2.29183 0
      vertex 1.93136 0 0
      vertex 2.93136 0 0
    endloop
  endfacet
  facet normal 0.900969 -0.433884 0
    outer loop
      vertex 1.82767 -2.29183 0
      vertex 2.93136 0 0
      vertex 1.82767 -2.29183 4
    endloop
  endfacet
  facet normal 0.900969 -0.433884 0
    outer loop
      vertex 1.82767 -2.29183 4
      vertex 2.93136 0 0
      vertex 2.93136 0 4
    endloop
  endfacet
  facet normal -0 0 -1
    outer loop
      vertex 1.82767 -2.29183 4
      vertex 2.93136 0 4
      vertex 3.8603 -1.59899 4
    endloop
  endfacet
  facet normal 0 0 -1
    outer loop
      vertex 1.82767 -2.29183 4
      vertex 3.8603 -1.59899 4
      vertex 2.95455 -2.95455 4
    endloop
  endfacet
  facet normal 0.900969 0.433884 0
    outer loop
      vertex 1.82767 2.29183 0
      vertex 1.82767 2.29183 4
      vertex 2.93136 0 4
    endloop
  endfacet
  facet normal 0 0 -1
    outer loop
      vertex 1.82767 2.29183 0
      vertex 2.93136 0 0
      vertex 1.93136 0 0
    endloop
  endfacet
  facet normal 0.900969 0.433884 0
    outer loop
      vertex 1.82767 2.29183 0
      vertex 2.93136 0 4
      vertex 2.93136 0 0
    endloop
  endfacet
  facet normal 0 0 -1
    outer loop
      vertex 1.82767 2.29183 4
      vertex 2.95455 2.95455 4
      vertex 3.8603 1.59899 4
    endloop
  endfacet
  facet normal 0 0 -1
    outer loop
      vertex 1.82767 2.29183 4
      vertex 3.8603 1.59899 4
      vertex 2.93136 0 4
    endloop
  endfacet
  facet normal -0 0 1
    outer loop
      vertex 1.93136 0 6.4
      vertex 13.1903 -5.2 6.4
      vertex 2.79031 5.2 6.4
    endloop
  endfacet
  facet normal 0 -1 0
    outer loop
      vertex 13.1903 -5.2 6.4
      vertex 16.74 -5.2 10.9
      vertex 13.1903 -5.2 10.9
    endloop
  endfacet
  facet normal 0 -1 -0
    outer loop
      vertex 13.1903 -5.2 6.4
      vertex 16.74 -5.2 6.4
      vertex 16.74 -5.2 10.9
    endloop
  endfacet
  facet normal -0 0 1
    outer loop
      vertex 13.1903 -5.2 6.4
      vertex 16.85 -5.7 6.4
      vertex 16.74 -5.2 6.4
    endloop
  endfacet
  facet normal 0.866025 0.5 0
    outer loop
      vertex 13.65 0 3.4
      vertex 13.65 0 6.4
      vertex 15.25 -2.77128 6.4
    endloop
  endfacet
  facet normal 0 0 1
    outer loop
      vertex 13.65 0 3.4
      vertex 15.1099 -0.837986 3.4
      vertex 15.1099 0.837986 3.4
    endloop
  endfacet
  facet normal 0 0 1
    outer loop
      vertex 13.65 0 3.4
      vertex 15.1099 0.837986 3.4
      vertex 15.25 2.77128 3.4
    endloop
  endfacet
  facet normal 0 0 1
    outer loop
      vertex 13.65 0 3.4
      vertex 15.25 -2.77128 3.4
      vertex 15.1099 -0.837986 3.4
    endloop
  endfacet
  facet normal 0.866025 0.5 0
    outer loop
      vertex 13.65 0 3.4
      vertex 15.25 -2.77128 6.4
      vertex 15.25 -2.77128 3.4
    endloop
  endfacet
  facet normal 0.866025 -0.5 0
    outer loop
      vertex 13.65 0 3.4
      vertex 15.25 2.77128 3.4
      vertex 13.65 0 6.4
    endloop
  endfacet
  facet normal 0.866025 -0.5 0
    outer loop
      vertex 13.65 0 6.4
      vertex 15.25 2.77128 3.4
      vertex 15.25 2.77128 6.4
    endloop
  endfacet
  facet normal 0.62349 0.781831 0
    outer loop
      vertex 15.1099 -0.837986 0
      vertex 15.1099 -0.837986 3.4
      vertex 16.4202 -1.88294 0
    endloop
  endfacet
  facet normal 1 0 0
    outer loop
      vertex 15.1099 -0.837986 0
      vertex 15.1099 0.837986 0
      vertex 15.1099 -0.837986 3.4
    endloop
  endfacet
  facet normal 0 0 -1
    outer loop
      vertex 15.1099 -0.837986 0
      vertex 16.4202 -1.88294 0
      vertex 16.85 -5.7 0
    endloop
  endfacet
  facet normal 1 -0 0
    outer loop
      vertex 15.1099 -0.837986 3.4
      vertex 15.1099 0.837986 0
      vertex 15.1099 0.837986 3.4
    endloop
  endfacet
  facet normal 0 0 1
    outer loop
      vertex 15.1099 -0.837986 3.4
      vertex 15.25 -2.77128 3.4
      vertex 16.4202 -1.88294 3.4
    endloop
  endfacet
  facet normal 0.62349 0.781831 -0
    outer loop
      vertex 15.1099 -0.837986 3.4
      vertex 16.4202 -1.88294 3.4
      vertex 16.4202 -1.88294 0
    endloop
  endfacet
  facet normal 0.62349 -0.781831 0
    outer loop
      vertex 15.1099 0.837986 0
      vertex 16.4202 1.88294 0
      vertex 16.4202 1.88294 3.4
    endloop
  endfacet
  facet normal 0.62349 -0.781831 0
    outer loop
      vertex 15.1099 0.837986 0
      vertex 16.4202 1.88294 3.4
      vertex 15.1099 0.837986 3.4
    endloop
  endfacet
  facet normal 0 0 -1
    outer loop
      vertex 15.1099 0.837986 0
      vertex 16.85 5.7 0
      vertex 16.4202 1.88294 0
    endloop
  endfacet
  facet normal 0 0 1
    outer loop
      vertex 15.1099 0.837986 3.4
      vertex 16.4202 1.88294 3.4
      vertex 15.25 2.77128 3.4
    endloop
  endfacet
  facet normal 0 1 0
    outer loop
      vertex 15.25 -2.77128 3.4
      vertex 15.25 -2.77128 6.4
      vertex 18.45 -2.77128 3.4
    endloop
  endfacet
  facet normal 0 0 1
    outer loop
      vertex 15.25 -2.77128 3.4
      vertex 18.45 -2.77128 3.4
      vertex 16.4202 -1.88294 3.4
    endloop
  endfacet
  facet normal -0 0 1
    outer loop
      vertex 15.25 -2.77128 6.4
      vertex 16.74 -5.2 6.4
      vertex 18.45 -2.77128 6.4
    endloop
  endfacet
  facet normal 0 1 -0
    outer loop
      vertex 15.25 -2.77128 6.4
      vertex 18.45 -2.77128 6.4
      vertex 18.45 -2.77128 3.4
    endloop
  endfacet
  facet normal -0 0 1
    outer loop
      vertex 15.25 2.77128 3.4
      vertex 16.4202 1.88294 3.4
      vertex 18.45 2.77128 3.4
    endloop
  endfacet
  facet normal 0 -1 -0
    outer loop
      vertex 15.25 2.77128 3.4
      vertex 18.45 2.77128 3.4
      vertex 18.45 2.77128 6.4
    endloop
  endfacet
  facet normal 0 -1 0
    outer loop
      vertex 15.25 2.77128 3.4
      vertex 18.45 2.77128 6.4
      vertex 15.25 2.77128 6.4
    endloop
  endfacet
  facet normal 0 0 1
    outer loop
      vertex 15.25 2.77128 6.4
      vertex 18.45 2.77128 6.4
      vertex 16.85 5.7 6.4
    endloop
  endfacet
  facet normal -0.222521 0.974928 0
    outer loop
      vertex 16.4202 -1.88294 0
      vertex 16.4202 -1.88294 3.4
      vertex 18.0542 -1.51 0
    endloop
  endfacet
  facet normal 0 0 -1
    outer loop
      vertex 16.4202 -1.88294 0
      vertex 17.3468 -5.67831 0
      vertex 16.85 -5.7 0
    endloop
  endfacet
  facet normal 0 0 -1
    outer loop
      vertex 16.4202 -1.88294 0
      vertex 17.8398 -5.6134 0
      vertex 17.3468 -5.67831 0
    endloop
  endfacet
  facet normal 0 0 -1
    outer loop
      vertex 16.4202 -1.88294 0
      vertex 18.0542 -1.51 0
      vertex 18.3253 -5.50578 0
    endloop
  endfacet
  facet normal 0 0 -1
    outer loop
      vertex 16.4202 -1.88294 0
      vertex 18.3253 -5.50578 0
      vertex 17.8398 -5.6134 0
    endloop
  endfacet
  facet normal -0.222521 0.974928 0
    outer loop
      vertex 16.4202 -1.88294 3.4
      vertex 18.0542 -1.51 3.4
      vertex 18.0542 -1.51 0
    endloop
  endfacet
  facet normal -0 0 1
    outer loop
      vertex 16.4202 -1.88294 3.4
      vertex 18.45 -2.77128 3.4
      vertex 18.0542 -1.51 3.4
    endloop
  endfacet
  facet normal -0 0 -1
    outer loop
      vertex 16.4202 1.88294 0
      vertex 16.85 5.7 0
      vertex 17.3468 5.67831 0
    endloop
  endfacet
  facet normal -0 0 -1
    outer loop
      vertex 16.4202 1.88294 0
      vertex 17.3468 5.67831 0
      vertex 17.8398 5.6134 0
    endloop
  endfacet
  facet normal -0 0 -1
    outer loop
      vertex 16.4202 1.88294 0
      vertex 17.8398 5.6134 0
      vertex 18.3253 5.50578 0
    endloop
  endfacet
  facet normal -0.222521 -0.974928 -0
    outer loop
      vertex 16.4202 1.88294 0
      vertex 18.0542 1.51 0
      vertex 18.0542 1.51 3.4
    endloop
  endfacet
  facet normal -0.222521 -0.974928 0
    outer loop
      vertex 16.4202 1.88294 0
      vertex 18.0542 1.51 3.4
      vertex 16.4202 1.88294 3.4
    endloop
  endfacet
  facet normal 0 0 -1
    outer loop
      vertex 16.4202 1.88294 0
      vertex 18.3253 5.50578 0
      vertex 18.0542 1.51 0
    endloop
  endfacet
  facet normal 0 0 1
    outer loop
      vertex 16.4202 1.88294 3.4
      vertex 18.0542 1.51 3.4
      vertex 18.45 2.77128 3.4
    endloop
  endfacet
  facet normal 0 0 1
    outer loop
      vertex 16.74 -5.2 6.4
      vertex 16.85 -5.7 6.4
      vertex 17.3468 -5.67831 6.4
    endloop
  endfacet
  facet normal 0 0 1
    outer loop
      vertex 16.74 -5.2 6.4
      vertex 17.3468 -5.67831 6.4
      vertex 17.8398 -5.6134 6.4
    endloop
  endfacet
  facet normal -0 0 1
    outer loop
      vertex 16.74 -5.2 6.4
      vertex 17.8398 -5.6134 6.4
      vertex 18.45 -2.77128 6.4
    endloop
  endfacet
  facet normal 0.0436197 -0.999048 0
    outer loop
      vertex 16.85 -5.7 0
      vertex 17.3468 -5.67831 0
      vertex 17.3468 -5.67831 6.4
    endloop
  endfacet
  facet normal 0.0436197 -0.999048 0
    outer loop
      vertex 16.85 -5.7 0
      vertex 17.3468 -5.67831 6.4
      vertex 16.85 -5.7 6.4
    endloop
  endfacet
  facet normal 0.0436197 0.999048 0
    outer loop
      vertex 16.85 5.7 0
      vertex 16.85 5.7 6.4
      vertex 17.3468 5.67831 0
    endloop
  endfacet
  facet normal 0.0436197 0.999048 -0
    outer loop
      vertex 16.85 5.7 6.4
      vertex 17.3468 5.67831 6.4
      vertex 17.3468 5.67831 0
    endloop
  endfacet
  facet normal 0 0 1
    outer loop
      vertex 16.85 5.7 6.4
      vertex 18.45 2.77128 6.4
      vertex 17.3468 5.67831 6.4
    endloop
  endfacet
  facet normal 0.130527 -0.991445 0
    outer loop
      vertex 17.3468 -5.67831 0
      vertex 17.8398 -5.6134 0
      vertex 17.8398 -5.6134 6.4
    endloop
  endfacet
  facet normal 0.130527 -0.991445 0
    outer loop
      vertex 17.3468 -5.67831 0
      vertex 17.8398 -5.6134 6.4
      vertex 17.3468 -5.67831 6.4
    endloop
  endfacet
  facet normal 0.130527 0.991445 0
    outer loop
      vertex 17.3468 5.67831 0
      vertex 17.3468 5.67831 6.4
      vertex 17.8398 5.6134 0
    endloop
  endfacet
  facet normal 0.130527 0.991445 -0
    outer loop
      vertex 17.3468 5.67831 6.4
      vertex 17.8398 5.6134 6.4
      vertex 17.8398 5.6134 0
    endloop
  endfacet
  facet normal 0 0 1
    outer loop
      vertex 17.3468 5.67831 6.4
      vertex 18.45 2.77128 6.4
      vertex 17.8398 5.6134 6.4
    endloop
  endfacet
  facet normal 0.21644 -0.976296 0
    outer loop
      vertex 17.8398 -5.6134 0
      vertex 18.3253 -5.50578 0
      vertex 18.3253 -5.50578 6.4
    endloop
  endfacet
  facet normal 0.21644 -0.976296 0
    outer loop
      vertex 17.8398 -5.6134 0
      vertex 18.3253 -5.50578 6.4
      vertex 17.8398 -5.6134 6.4
    endloop
  endfacet
  facet normal 0 0 1
    outer loop
      vertex 17.8398 -5.6134 6.4
      vertex 18.3253 -5.50578 6.4
      vertex 18.45 -2.77128 6.4
    endloop
  endfacet
  facet normal 0.21644 0.976296 0
    outer loop
      vertex 17.8398 5.6134 0
      vertex 17.8398 5.6134 6.4
      vertex 18.3253 5.50578 0
    endloop
  endfacet
  facet normal 0.21644 0.976296 -0
    outer loop
      vertex 17.8398 5.6134 6.4
      vertex 18.3253 5.50578 6.4
      vertex 18.3253 5.50578 0
    endloop
  endfacet
  facet normal 0 0 1
    outer loop
      vertex 17.8398 5.6134 6.4
      vertex 18.45 2.77128 6.4
      vertex 18.3253 5.50578 6.4
    endloop
  endfacet
  facet normal -0.900969 0.433883 0
    outer loop
      vertex 18.0542 -1.51 0
      vertex 18.0542 -1.51 3.4
      vertex 18.7814 0 3.4
    endloop
  endfacet
  facet normal 0 0 -1
    outer loop
      vertex 18.0542 -1.51 0
      vertex 18.7814 0 0
      vertex 22.016 -2.40892 0
    endloop
  endfacet
  facet normal -0.900969 0.433883 0
    outer loop
      vertex 18.0542 -1.51 0
      vertex 18.7814 0 3.4
      vertex 18.7814 0 0
    endloop
  endfacet
  facet normal 0 0 -1
    outer loop
      vertex 18.0542 -1.51 0
      vertex 18.7995 -5.35625 0
      vertex 18.3253 -5.50578 0
    endloop
  endfacet
  facet normal 0 0 -1
    outer loop
      vertex 18.0542 -1.51 0
      vertex 19.2589 -5.16595 0
      vertex 18.7995 -5.35625 0
    endloop
  endfacet
  facet normal 0 0 -1
    outer loop
      vertex 18.0542 -1.51 0
      vertex 19.7 -4.93634 0
      vertex 19.2589 -5.16595 0
    endloop
  endfacet
  facet normal 0 0 -1
    outer loop
      vertex 18.0542 -1.51 0
      vertex 20.1194 -4.66917 0
      vertex 19.7 -4.93634 0
    endloop
  endfacet
  facet normal 0 0 -1
    outer loop
      vertex 18.0542 -1.51 0
      vertex 20.5139 -4.36645 0
      vertex 20.1194 -4.66917 0
    endloop
  endfacet
  facet normal 0 0 -1
    outer loop
      vertex 18.0542 -1.51 0
      vertex 20.8805 -4.03051 0
      vertex 20.5139 -4.36645 0
    endloop
  endfacet
  facet normal 0 0 -1
    outer loop
      vertex 18.0542 -1.51 0
      vertex 21.2165 -3.66389 0
      vertex 20.8805 -4.03051 0
    endloop
  endfacet
  facet normal 0 0 -1
    outer loop
      vertex 18.0542 -1.51 0
      vertex 21.5192 -3.26939 0
      vertex 21.2165 -3.66389 0
    endloop
  endfacet
  facet normal 0 0 -1
    outer loop
      vertex 18.0542 -1.51 0
      vertex 21.7863 -2.85 0
      vertex 21.5192 -3.26939 0
    endloop
  endfacet
  facet normal 0 0 -1
    outer loop
      vertex 18.0542 -1.51 0
      vertex 22.016 -2.40892 0
      vertex 21.7863 -2.85 0
    endloop
  endfacet
  facet normal 0 0 1
    outer loop
      vertex 18.0542 -1.51 3.4
      vertex 18.45 -2.77128 3.4
      vertex 20.05 0 3.4
    endloop
  endfacet
  facet normal 0 0 1
    outer loop
      vertex 18.0542 -1.51 3.4
      vertex 20.05 0 3.4
      vertex 18.7814 0 3.4
    endloop
  endfacet
  facet normal -0 0 -1
    outer loop
      vertex 18.0542 1.51 0
      vertex 18.3253 5.50578 0
      vertex 18.7995 5.35625 0
    endloop
  endfacet
  facet normal -0.900969 -0.433883 0
    outer loop
      vertex 18.0542 1.51 0
      vertex 18.7814 0 0
      vertex 18.0542 1.51 3.4
    endloop
  endfacet
  facet normal -0 0 -1
    outer loop
      vertex 18.0542 1.51 0
      vertex 18.7995 5.35625 0
      vertex 19.2589 5.16595 0
    endloop
  endfacet
  facet normal -0 0 -1
    outer loop
      vertex 18.0542 1.51 0
      vertex 19.2589 5.16595 0
      vertex 19.7 4.93634 0
    endloop
  endfacet
  facet normal -0 0 -1
    outer loop
      vertex 18.0542 1.51 0
      vertex 19.7 4.93634 0
      vertex 20.1194 4.66917 0
    endloop
  endfacet
  facet normal -0 0 -1
    outer loop
      vertex 18.0542 1.51 0
      vertex 20.1194 4.66917 0
      vertex 20.5139 4.36645 0
    endloop
  endfacet
  facet normal -0 0 -1
    outer loop
      vertex 18.0542 1.51 0
      vertex 20.5139 4.36645 0
      vertex 20.8805 4.03051 0
    endloop
  endfacet
  facet normal -0 0 -1
    outer loop
      vertex 18.0542 1.51 0
      vertex 20.8805 4.03051 0
      vertex 21.2165 3.66389 0
    endloop
  endfacet
  facet normal -0 0 -1
    outer loop
      vertex 18.0542 1.51 0
      vertex 21.2165 3.66389 0
      vertex 21.5192 3.26939 0
    endloop
  endfacet
  facet normal -0 0 -1
    outer loop
      vertex 18.0542 1.51 0
      vertex 21.5192 3.26939 0
      vertex 21.7863 2.85 0
    endloop
  endfacet
  facet normal -0 0 -1
    outer loop
      vertex 18.0542 1.51 0
      vertex 21.7863 2.85 0
      vertex 22.016 2.40892 0
    endloop
  endfacet
  facet normal 0 0 -1
    outer loop
      vertex 18.0542 1.51 0
      vertex 22.016 2.40892 0
      vertex 18.7814 0 0
    endloop
  endfacet
  facet normal -0.900969 -0.433883 0
    outer loop
      vertex 18.0542 1.51 3.4
      vertex 18.7814 0 0
      vertex 18.7814 0 3.4
    endloop
  endfacet
  facet normal 0 0 1
    outer loop
      vertex 18.0542 1.51 3.4
      vertex 18.7814 0 3.4
      vertex 20.05 0 3.4
    endloop
  endfacet
  facet normal -0 0 1
    outer loop
      vertex 18.0542 1.51 3.4
      vertex 20.05 0 3.4
      vertex 18.45 2.77128 3.4
    endloop
  endfacet
  facet normal 0.300704 -0.953718 0
    outer loop
      vertex 18.3253 -5.50578 0
      vertex 18.7995 -5.35625 0
      vertex 18.7995 -5.35625 6.4
    endloop
  endfacet
  facet normal 0.300704 -0.953718 0
    outer loop
      vertex 18.3253 -5.50578 0
      vertex 18.7995 -5.35625 6.4
      vertex 18.3253 -5.50578 6.4
    endloop
  endfacet
  facet normal 0 0 1
    outer loop
      vertex 18.3253 -5.50578 6.4
      vertex 18.7995 -5.35625 6.4
      vertex 18.45 -2.77128 6.4
    endloop
  endfacet
  facet normal 0.300704 0.953718 0
    outer loop
      vertex 18.3253 5.50578 0
      vertex 18.3253 5.50578 6.4
      vertex 18.7995 5.35625 0
    endloop
  endfacet
  facet normal 0 0 1
    outer loop
      vertex 18.3253 5.50578 6.4
      vertex 18.45 2.77128 6.4
      vertex 18.7995 5.35625 6.4
    endloop
  endfacet
  facet normal 0.300704 0.953718 -0
    outer loop
      vertex 18.3253 5.50578 6.4
      vertex 18.7995 5.35625 6.4
      vertex 18.7995 5.35625 0
    endloop
  endfacet
  facet normal -0.866025 0.5 0
    outer loop
      vertex 18.45 -2.77128 3.4
      vertex 18.45 -2.77128 6.4
      vertex 20.05 0 6.4
    endloop
  endfacet
  facet normal -0.866025 0.5 0
    outer loop
      vertex 18.45 -2.77128 3.4
      vertex 20.05 0 6.4
      vertex 20.05 0 3.4
    endloop
  endfacet
  facet normal 0 0 1
    outer loop
      vertex 18.45 -2.77128 6.4
      vertex 18.7995 -5.35625 6.4
      vertex 19.2589 -5.16595 6.4
    endloop
  endfacet
  facet normal 0 0 1
    outer loop
      vertex 18.45 -2.77128 6.4
      vertex 19.2589 -5.16595 6.4
      vertex 19.7 -4.93634 6.4
    endloop
  endfacet
  facet normal 0 0 1
    outer loop
      vertex 18.45 -2.77128 6.4
      vertex 19.7 -4.93634 6.4
      vertex 20.1194 -4.66917 6.4
    endloop
  endfacet
  facet normal 0 0 1
    outer loop
      vertex 18.45 -2.77128 6.4
      vertex 20.1194 -4.66917 6.4
      vertex 20.5139 -4.36645 6.4
    endloop
  endfacet
  facet normal 0 0 1
    outer loop
      vertex 18.45 -2.77128 6.4
      vertex 20.5139 -4.36645 6.4
      vertex 20.8805 -4.03051 6.4
    endloop
  endfacet
  facet normal 0 0 1
    outer loop
      vertex 18.45 -2.77128 6.4
      vertex 20.8805 -4.03051 6.4
      vertex 21.2165 -3.66389 6.4
    endloop
  endfacet
  facet normal 0 0 1
    outer loop
      vertex 18.45 -2.77128 6.4
      vertex 21.2165 -3.66389 6.4
      vertex 21.5192 -3.26939 6.4
    endloop
  endfacet
  facet normal 0 0 1
    outer loop
      vertex 18.45 -2.77128 6.4
      vertex 21.5192 -3.26939 6.4
      vertex 21.7863 -2.85 6.4
    endloop
  endfacet
  facet normal -0 0 1
    outer loop
      vertex 18.45 -2.77128 6.4
      vertex 21.7863 -2.85 6.4
      vertex 20.05 0 6.4
    endloop
  endfacet
  facet normal -0.866025 -0.5 0
    outer loop
      vertex 18.45 2.77128 3.4
      vertex 20.05 0 3.4
      vertex 18.45 2.77128 6.4
    endloop
  endfacet
  facet normal 0 0 1
    outer loop
      vertex 18.45 2.77128 6.4
      vertex 19.2589 5.16595 6.4
      vertex 18.7995 5.35625 6.4
    endloop
  endfacet
  facet normal 0 0 1
    outer loop
      vertex 18.45 2.77128 6.4
      vertex 19.7 4.93634 6.4
      vertex 19.2589 5.16595 6.4
    endloop
  endfacet
  facet normal -0.866025 -0.5 0
    outer loop
      vertex 18.45 2.77128 6.4
      vertex 20.05 0 3.4
      vertex 20.05 0 6.4
    endloop
  endfacet
  facet normal 0 0 1
    outer loop
      vertex 18.45 2.77128 6.4
      vertex 20.05 0 6.4
      vertex 21.7863 2.85 6.4
    endloop
  endfacet
  facet normal 0 0 1
    outer loop
      vertex 18.45 2.77128 6.4
      vertex 20.1194 4.66917 6.4
      vertex 19.7 4.93634 6.4
    endloop
  endfacet
  facet normal 0 0 1
    outer loop
      vertex 18.45 2.77128 6.4
      vertex 20.5139 4.36645 6.4
      vertex 20.1194 4.66917 6.4
    endloop
  endfacet
  facet normal 0 0 1
    outer loop
      vertex 18.45 2.77128 6.4
      vertex 20.8805 4.03051 6.4
      vertex 20.5139 4.36645 6.4
    endloop
  endfacet
  facet normal 0 0 1
    outer loop
      vertex 18.45 2.77128 6.4
      vertex 21.2165 3.66389 6.4
      vertex 20.8805 4.03051 6.4
    endloop
  endfacet
  facet normal 0 0 1
    outer loop
      vertex 18.45 2.77128 6.4
      vertex 21.5192 3.26939 6.4
      vertex 21.2165 3.66389 6.4
    endloop
  endfacet
  facet normal 0 0 1
    outer loop
      vertex 18.45 2.77128 6.4
      vertex 21.7863 2.85 6.4
      vertex 21.5192 3.26939 6.4
    endloop
  endfacet
  facet normal -0 0 -1
    outer loop
      vertex 18.7814 0 0
      vertex 22.016 2.40892 0
      vertex 22.2062 1.94951 0
    endloop
  endfacet
  facet normal 0 0 -1
    outer loop
      vertex 18.7814 0 0
      vertex 22.2062 -1.94951 0
      vertex 22.016 -2.40892 0
    endloop
  endfacet
  facet normal -0 0 -1
    outer loop
      vertex 18.7814 0 0
      vertex 22.2062 1.94951 0
      vertex 22.3558 1.47527 0
    endloop
  endfacet
  facet normal 0 0 -1
    outer loop
      vertex 18.7814 0 0
      vertex 22.3558 -1.47527 0
      vertex 22.2062 -1.94951 0
    endloop
  endfacet
  facet normal -0 0 -1
    outer loop
      vertex 18.7814 0 0
      vertex 22.3558 1.47527 0
      vertex 22.4634 0.989794 0
    endloop
  endfacet
  facet normal 0 0 -1
    outer loop
      vertex 18.7814 0 0
      vertex 22.4634 -0.989794 0
      vertex 22.3558 -1.47527 0
    endloop
  endfacet
  facet normal -0 0 -1
    outer loop
      vertex 18.7814 0 0
      vertex 22.4634 0.989794 0
      vertex 22.5283 0.496787 0
    endloop
  endfacet
  facet normal 0 0 -1
    outer loop
      vertex 18.7814 0 0
      vertex 22.5283 -0.496787 0
      vertex 22.4634 -0.989794 0
    endloop
  endfacet
  facet normal 0 0 -1
    outer loop
      vertex 18.7814 0 0
      vertex 22.5283 0.496787 0
      vertex 22.55 0 0
    endloop
  endfacet
  facet normal 0 0 -1
    outer loop
      vertex 18.7814 0 0
      vertex 22.55 0 0
      vertex 22.5283 -0.496787 0
    endloop
  endfacet
  facet normal 0.382686 -0.923879 0
    outer loop
      vertex 18.7995 -5.35625 0
      vertex 19.2589 -5.16595 0
      vertex 19.2589 -5.16595 6.4
    endloop
  endfacet
  facet normal 0.382686 -0.923879 0
    outer loop
      vertex 18.7995 -5.35625 0
      vertex 19.2589 -5.16595 6.4
      vertex 18.7995 -5.35625 6.4
    endloop
  endfacet
  facet normal 0.382686 0.923879 0
    outer loop
      vertex 18.7995 5.35625 0
      vertex 18.7995 5.35625 6.4
      vertex 19.2589 5.16595 0
    endloop
  endfacet
  facet normal 0.382686 0.923879 -0
    outer loop
      vertex 18.7995 5.35625 6.4
      vertex 19.2589 5.16595 6.4
      vertex 19.2589 5.16595 0
    endloop
  endfacet
  facet normal 0.461747 -0.887012 0
    outer loop
      vertex 19.2589 -5.16595 0
      vertex 19.7 -4.93634 0
      vertex 19.7 -4.93634 6.4
    endloop
  endfacet
  facet normal 0.461747 -0.887012 0
    outer loop
      vertex 19.2589 -5.16595 0
      vertex 19.7 -4.93634 6.4
      vertex 19.2589 -5.16595 6.4
    endloop
  endfacet
  facet normal 0.461747 0.887012 0
    outer loop
      vertex 19.2589 5.16595 0
      vertex 19.2589 5.16595 6.4
      vertex 19.7 4.93634 0
    endloop
  endfacet
  facet normal 0.461747 0.887012 -0
    outer loop
      vertex 19.2589 5.16595 6.4
      vertex 19.7 4.93634 6.4
      vertex 19.7 4.93634 0
    endloop
  endfacet
  facet normal 0.5373 -0.843391 0
    outer loop
      vertex 19.7 -4.93634 0
      vertex 20.1194 -4.66917 0
      vertex 20.1194 -4.66917 6.4
    endloop
  endfacet
  facet normal 0.5373 -0.843391 0
    outer loop
      vertex 19.7 -4.93634 0
      vertex 20.1194 -4.66917 6.4
      vertex 19.7 -4.93634 6.4
    endloop
  endfacet
  facet normal 0.5373 0.843391 0
    outer loop
      vertex 19.7 4.93634 0
      vertex 19.7 4.93634 6.4
      vertex 20.1194 4.66917 0
    endloop
  endfacet
  facet normal 0.5373 0.843391 -0
    outer loop
      vertex 19.7 4.93634 6.4
      vertex 20.1194 4.66917 6.4
      vertex 20.1194 4.66917 0
    endloop
  endfacet
  facet normal 0 0 1
    outer loop
      vertex 2.79031 5.2 10.9
      vertex 13.1903 -5.2 10.9
      vertex 6.33998 5.2 10.9
    endloop
  endfacet
  facet normal -0.707107 -0.707107 0
    outer loop
      vertex 2.79031 5.2 10.9
      vertex 13.1903 -5.2 6.4
      vertex 13.1903 -5.2 10.9
    endloop
  endfacet
  facet normal 0 1 -0
    outer loop
      vertex 2.79031 5.2 10.9
      vertex 6.33998 5.2 10.9
      vertex 6.33998 5.2 6.4
    endloop
  endfacet
  facet normal -0.707107 -0.707107 0
    outer loop
      vertex 2.79031 5.2 6.4
      vertex 13.1903 -5.2 6.4
      vertex 2.79031 5.2 10.9
    endloop
  endfacet
  facet normal 0 1 0
    outer loop
      vertex 2.79031 5.2 6.4
      vertex 2.79031 5.2 10.9
      vertex 6.33998 5.2 6.4
    endloop
  endfacet
  facet normal 0 0 1
    outer loop
      vertex 2.79031 5.2 6.4
      vertex 6.33998 5.2 6.4
      vertex 16.85 5.7 6.4
    endloop
  endfacet
  facet normal 0 0 -1
    outer loop
      vertex 2.93136 0 4
      vertex 3.8603 1.59899 4
      vertex 4.17836 0 4
    endloop
  endfacet
  facet normal 0 0 -1
    outer loop
      vertex 2.93136 0 4
      vertex 4.17836 0 4
      vertex 3.8603 -1.59899 4
    endloop
  endfacet
  facet normal -0.83147 0.55557 0
    outer loop
      vertex 2.95455 -2.95455 0
      vertex 2.95455 -2.95455 4
      vertex 3.8603 -1.59899 4
    endloop
  endfacet
  facet normal 0 0 -1
    outer loop
      vertex 2.95455 -2.95455 0
      vertex 3.8603 -1.59899 0
      vertex 16.85 -5.7 0
    endloop
  endfacet
  facet normal -0.83147 0.55557 0
    outer loop
      vertex 2.95455 -2.95455 0
      vertex 3.8603 -1.59899 4
      vertex 3.8603 -1.59899 0
    endloop
  endfacet
  facet normal 0 0 -1
    outer loop
      vertex 2.95455 2.95455 0
      vertex 16.85 5.7 0
      vertex 3.8603 1.59899 0
    endloop
  endfacet
  facet normal -0.83147 -0.55557 0
    outer loop
      vertex 2.95455 2.95455 0
      vertex 3.8603 1.59899 0
      vertex 2.95455 2.95455 4
    endloop
  endfacet
  facet normal -0.83147 -0.55557 0
    outer loop
      vertex 2.95455 2.95455 4
      vertex 3.8603 1.59899 0
      vertex 3.8603 1.59899 4
    endloop
  endfacet
  facet normal 0 0 1
    outer loop
      vertex 20.05 0 6.4
      vertex 21.7863 -2.85 6.4
      vertex 22.016 -2.40892 6.4
    endloop
  endfacet
  facet normal 0 0 1
    outer loop
      vertex 20.05 0 6.4
      vertex 22.016 -2.40892 6.4
      vertex 22.2062 -1.94951 6.4
    endloop
  endfacet
  facet normal 0 0 1
    outer loop
      vertex 20.05 0 6.4
      vertex 22.016 2.40892 6.4
      vertex 21.7863 2.85 6.4
    endloop
  endfacet
  facet normal 0 0 1
    outer loop
      vertex 20.05 0 6.4
      vertex 22.2062 -1.94951 6.4
      vertex 22.3558 -1.47527 6.4
    endloop
  endfacet
  facet normal 0 0 1
    outer loop
      vertex 20.05 0 6.4
      vertex 22.2062 1.94951 6.4
      vertex 22.016 2.40892 6.4
    endloop
  endfacet
  facet normal 0 0 1
    outer loop
      vertex 20.05 0 6.4
      vertex 22.3558 -1.47527 6.4
      vertex 22.4634 -0.989794 6.4
    endloop
  endfacet
  facet normal 0 0 1
    outer loop
      vertex 20.05 0 6.4
      vertex 22.3558 1.47527 6.4
      vertex 22.2062 1.94951 6.4
    endloop
  endfacet
  facet normal 0 0 1
    outer loop
      vertex 20.05 0 6.4
      vertex 22.4634 -0.989794 6.4
      vertex 22.5283 -0.496787 6.4
    endloop
  endfacet
  facet normal 0 0 1
    outer loop
      vertex 20.05 0 6.4
      vertex 22.4634 0.989794 6.4
      vertex 22.3558 1.47527 6.4
    endloop
  endfacet
  facet normal 0 0 1
    outer loop
      vertex 20.05 0 6.4
      vertex 22.5283 -0.496787 6.4
      vertex 22.55 0 6.4
    endloop
  endfacet
  facet normal 0 0 1
    outer loop
      vertex 20.05 0 6.4
      vertex 22.5283 0.496787 6.4
      vertex 22.4634 0.989794 6.4
    endloop
  endfacet
  facet normal 0 0 1
    outer loop
      vertex 20.05 0 6.4
      vertex 22.55 0 6.4
      vertex 22.5283 0.496787 6.4
    endloop
  endfacet
  facet normal 0.608761 -0.793354 0
    outer loop
      vertex 20.1194 -4.66917 0
      vertex 20.5139 -4.36645 0
      vertex 20.5139 -4.36645 6.4
    endloop
  endfacet
  facet normal 0.608761 -0.793354 0
    outer loop
      vertex 20.1194 -4.66917 0
      vertex 20.5139 -4.36645 6.4
      vertex 20.1194 -4.66917 6.4
    endloop
  endfacet
  facet normal 0.608761 0.793354 0
    outer loop
      vertex 20.1194 4.66917 0
      vertex 20.1194 4.66917 6.4
      vertex 20.5139 4.36645 0
    endloop
  endfacet
  facet normal 0.608761 0.793354 -0
    outer loop
      vertex 20.1194 4.66917 6.4
      vertex 20.5139 4.36645 6.4
      vertex 20.5139 4.36645 0
    endloop
  endfacet
  facet normal 0.675591 -0.737277 0
    outer loop
      vertex 20.5139 -4.36645 0
      vertex 20.8805 -4.03051 0
      vertex 20.8805 -4.03051 6.4
    endloop
  endfacet
  facet normal 0.675591 -0.737277 0
    outer loop
      vertex 20.5139 -4.36645 0
      vertex 20.8805 -4.03051 6.4
      vertex 20.5139 -4.36645 6.4
    endloop
  endfacet
  facet normal 0.675591 0.737277 0
    outer loop
      vertex 20.5139 4.36645 0
      vertex 20.5139 4.36645 6.4
      vertex 20.8805 4.03051 0
    endloop
  endfacet
  facet normal 0.675591 0.737277 -0
    outer loop
      vertex 20.5139 4.36645 6.4
      vertex 20.8805 4.03051 6.4
      vertex 20.8805 4.03051 0
    endloop
  endfacet
  facet normal 0.737277 -0.675591 0
    outer loop
      vertex 20.8805 -4.03051 0
      vertex 21.2165 -3.66389 0
      vertex 20.8805 -4.03051 6.4
    endloop
  endfacet
  facet normal 0.737277 -0.675591 0
    outer loop
      vertex 20.8805 -4.03051 6.4
      vertex 21.2165 -3.66389 0
      vertex 21.2165 -3.66389 6.4
    endloop
  endfacet
  facet normal 0.737277 0.675591 0
    outer loop
      vertex 20.8805 4.03051 0
      vertex 20.8805 4.03051 6.4
      vertex 21.2165 3.66389 6.4
    endloop
  endfacet
  facet normal 0.737277 0.675591 0
    outer loop
      vertex 20.8805 4.03051 0
      vertex 21.2165 3.66389 6.4
      vertex 21.2165 3.66389 0
    endloop
  endfacet
  facet normal 0.793355 -0.608759 0
    outer loop
      vertex 21.2165 -3.66389 0
      vertex 21.5192 -3.26939 0
      vertex 21.2165 -3.66389 6.4
    endloop
  endfacet
  facet normal 0.793355 -0.608759 0
    outer loop
      vertex 21.2165 -3.66389 6.4
      vertex 21.5192 -3.26939 0
      vertex 21.5192 -3.26939 6.4
    endloop
  endfacet
  facet normal 0.793355 0.608759 0
    outer loop
      vertex 21.2165 3.66389 0
      vertex 21.2165 3.66389 6.4
      vertex 21.5192 3.26939 6.4
    endloop
  endfacet
  facet normal 0.793355 0.608759 0
    outer loop
      vertex 21.2165 3.66389 0
      vertex 21.5192 3.26939 6.4
      vertex 21.5192 3.26939 0
    endloop
  endfacet
  facet normal 0.84339 -0.537301 0
    outer loop
      vertex 21.5192 -3.26939 0
      vertex 21.7863 -2.85 0
      vertex 21.5192 -3.26939 6.4
    endloop
  endfacet
  facet normal 0.84339 -0.537301 0
    outer loop
      vertex 21.5192 -3.26939 6.4
      vertex 21.7863 -2.85 0
      vertex 21.7863 -2.85 6.4
    endloop
  endfacet
  facet normal 0.84339 0.537301 0
    outer loop
      vertex 21.5192 3.26939 0
      vertex 21.5192 3.26939 6.4
      vertex 21.7863 2.85 6.4
    endloop
  endfacet
  facet normal 0.84339 0.537301 0
    outer loop
      vertex 21.5192 3.26939 0
      vertex 21.7863 2.85 6.4
      vertex 21.7863 2.85 0
    endloop
  endfacet
  facet normal 0.887012 -0.461747 0
    outer loop
      vertex 21.7863 -2.85 0
      vertex 22.016 -2.40892 0
      vertex 21.7863 -2.85 6.4
    endloop
  endfacet
  facet normal 0.887012 -0.461747 0
    outer loop
      vertex 21.7863 -2.85 6.4
      vertex 22.016 -2.40892 0
      vertex 22.016 -2.40892 6.4
    endloop
  endfacet
  facet normal 0.887012 0.461747 0
    outer loop
      vertex 21.7863 2.85 0
      vertex 21.7863 2.85 6.4
      vertex 22.016 2.40892 6.4
    endloop
  endfacet
  facet normal 0.887012 0.461747 0
    outer loop
      vertex 21.7863 2.85 0
      vertex 22.016 2.40892 6.4
      vertex 22.016 2.40892 0
    endloop
  endfacet
  facet normal 0.923879 -0.382685 0
    outer loop
      vertex 22.016 -2.40892 0
      vertex 22.2062 -1.94951 0
      vertex 22.016 -2.40892 6.4
    endloop
  endfacet
  facet normal 0.923879 -0.382685 0
    outer loop
      vertex 22.016 -2.40892 6.4
      vertex 22.2062 -1.94951 0
      vertex 22.2062 -1.94951 6.4
    endloop
  endfacet
  facet normal 0.923879 0.382685 0
    outer loop
      vertex 22.016 2.40892 0
      vertex 22.016 2.40892 6.4
      vertex 22.2062 1.94951 6.4
    endloop
  endfacet
  facet normal 0.923879 0.382685 0
    outer loop
      vertex 22.016 2.40892 0
      vertex 22.2062 1.94951 6.4
      vertex 22.2062 1.94951 0
    endloop
  endfacet
  facet normal 0.953716 -0.300708 0
    outer loop
      vertex 22.2062 -1.94951 0
      vertex 22.3558 -1.47527 0
      vertex 22.2062 -1.94951 6.4
    endloop
  endfacet
  facet normal 0.953716 -0.300708 0
    outer loop
      vertex 22.2062 -1.94951 6.4
      vertex 22.3558 -1.47527 0
      vertex 22.3558 -1.47527 6.4
    endloop
  endfacet
  facet normal 0.953716 0.300708 0
    outer loop
      vertex 22.2062 1.94951 0
      vertex 22.2062 1.94951 6.4
      vertex 22.3558 1.47527 6.4
    endloop
  endfacet
  facet normal 0.953716 0.300708 0
    outer loop
      vertex 22.2062 1.94951 0
      vertex 22.3558 1.47527 6.4
      vertex 22.3558 1.47527 0
    endloop
  endfacet
  facet normal 0.976297 -0.216437 0
    outer loop
      vertex 22.3558 -1.47527 0
      vertex 22.4634 -0.989794 0
      vertex 22.3558 -1.47527 6.4
    endloop
  endfacet
  facet normal 0.976297 -0.216437 0
    outer loop
      vertex 22.3558 -1.47527 6.4
      vertex 22.4634 -0.989794 0
      vertex 22.4634 -0.989794 6.4
    endloop
  endfacet
  facet normal 0.976297 0.216437 0
    outer loop
      vertex 22.3558 1.47527 0
      vertex 22.3558 1.47527 6.4
      vertex 22.4634 0.989794 6.4
    endloop
  endfacet
  facet normal 0.976297 0.216437 0
    outer loop
      vertex 22.3558 1.47527 0
      vertex 22.4634 0.989794 6.4
      vertex 22.4634 0.989794 0
    endloop
  endfacet
  facet normal 0.991445 -0.130525 0
    outer loop
      vertex 22.4634 -0.989794 0
      vertex 22.5283 -0.496787 0
      vertex 22.4634 -0.989794 6.4
    endloop
  endfacet
  facet normal 0.991445 -0.130525 0
    outer loop
      vertex 22.4634 -0.989794 6.4
      vertex 22.5283 -0.496787 0
      vertex 22.5283 -0.496787 6.4
    endloop
  endfacet
  facet normal 0.991445 0.130525 0
    outer loop
      vertex 22.4634 0.989794 0
      vertex 22.4634 0.989794 6.4
      vertex 22.5283 0.496787 6.4
    endloop
  endfacet
  facet normal 0.991445 0.130525 0
    outer loop
      vertex 22.4634 0.989794 0
      vertex 22.5283 0.496787 6.4
      vertex 22.5283 0.496787 0
    endloop
  endfacet
  facet normal 0.999048 -0.0436197 0
    outer loop
      vertex 22.5283 -0.496787 0
      vertex 22.55 0 0
      vertex 22.5283 -0.496787 6.4
    endloop
  endfacet
  facet normal 0.999048 -0.0436197 0
    outer loop
      vertex 22.5283 -0.496787 6.4
      vertex 22.55 0 0
      vertex 22.55 0 6.4
    endloop
  endfacet
  facet normal 0.999048 0.0436197 0
    outer loop
      vertex 22.5283 0.496787 0
      vertex 22.5283 0.496787 6.4
      vertex 22.55 0 6.4
    endloop
  endfacet
  facet normal 0.999048 0.0436197 0
    outer loop
      vertex 22.5283 0.496787 0
      vertex 22.55 0 6.4
      vertex 22.55 0 0
    endloop
  endfacet
  facet normal 0 0 -1
    outer loop
      vertex 3.8603 -1.59899 0
      vertex 15.1099 -0.837986 0
      vertex 16.85 -5.7 0
    endloop
  endfacet
  facet normal -0.980785 0.19509 0
    outer loop
      vertex 3.8603 -1.59899 0
      vertex 3.8603 -1.59899 4
      vertex 4.17836 0 4
    endloop
  endfacet
  facet normal -0 0 -1
    outer loop
      vertex 3.8603 -1.59899 0
      vertex 4.17836 0 0
      vertex 15.1099 -0.837986 0
    endloop
  endfacet
  facet normal -0.980785 0.19509 0
    outer loop
      vertex 3.8603 -1.59899 0
      vertex 4.17836 0 4
      vertex 4.17836 0 0
    endloop
  endfacet
  facet normal 0 0 -1
    outer loop
      vertex 3.8603 1.59899 0
      vertex 15.1099 0.837986 0
      vertex 4.17836 0 0
    endloop
  endfacet
  facet normal 0 0 -1
    outer loop
      vertex 3.8603 1.59899 0
      vertex 16.85 5.7 0
      vertex 15.1099 0.837986 0
    endloop
  endfacet
  facet normal -0.980785 -0.19509 0
    outer loop
      vertex 3.8603 1.59899 0
      vertex 4.17836 0 0
      vertex 3.8603 1.59899 4
    endloop
  endfacet
  facet normal -0.980785 -0.19509 0
    outer loop
      vertex 3.8603 1.59899 4
      vertex 4.17836 0 0
      vertex 4.17836 0 4
    endloop
  endfacet
  facet normal 0 0 -1
    outer loop
      vertex 4.17836 0 0
      vertex 15.1099 0.837986 0
      vertex 15.1099 -0.837986 0
    endloop
  endfacet
  facet normal 0 0 1
    outer loop
      vertex 6.33998 5.2 10.9
      vertex 13.1903 -5.2 10.9
      vertex 16.74 -5.2 10.9
    endloop
  endfacet
  facet normal 0 0 1
    outer loop
      vertex 6.33998 5.2 6.4
      vertex 13.65 0 6.4
      vertex 15.25 2.77128 6.4
    endloop
  endfacet
  facet normal 0 0 1
    outer loop
      vertex 6.33998 5.2 6.4
      vertex 15.25 -2.77128 6.4
      vertex 13.65 0 6.4
    endloop
  endfacet
  facet normal -0 0 1
    outer loop
      vertex 6.33998 5.2 6.4
      vertex 15.25 2.77128 6.4
      vertex 16.85 5.7 6.4
    endloop
  endfacet
  facet normal 0.707107 0.707107 0
    outer loop
      vertex 6.33998 5.2 6.4
      vertex 16.74 -5.2 10.9
      vertex 16.74 -5.2 6.4
    endloop
  endfacet
  facet normal 0 0 1
    outer loop
      vertex 6.33998 5.2 6.4
      vertex 16.74 -5.2 6.4
      vertex 15.25 -2.77128 6.4
    endloop
  endfacet
  facet normal 0.707107 0.707107 0
    outer loop
      vertex 6.33998 5.2 6.4
      vertex 6.33998 5.2 10.9
      vertex 16.74 -5.2 10.9
    endloop
  endfacet
endsolid OpenSCAD_Model
