solid OpenSCAD_Model
  facet normal -0.104528 0.994522 0
    outer loop
      vertex -0.404512 -3.84868 0
      vertex -0.404512 -3.84868 5.01
      vertex 1.19586 -3.68048 0
    endloop
  endfacet
  facet normal 0 0 -1
    outer loop
      vertex -0.404512 -3.84868 0
      vertex 0.53056 -6.06433 0
      vertex 0 -6.0875 0
    endloop
  endfacet
  facet normal 0 0 -1
    outer loop
      vertex -0.404512 -3.84868 0
      vertex 1.19586 -3.68048 0
      vertex 0.53056 -6.06433 0
    endloop
  endfacet
  facet normal 0 0 1
    outer loop
      vertex -0.404512 -3.84868 5.01
      vertex 0 -6.0875 5.01
      vertex 0.53056 -6.06433 5.01
    endloop
  endfacet
  facet normal -0 0 1
    outer loop
      vertex -0.404512 -3.84868 5.01
      vertex 0.53056 -6.06433 5.01
      vertex 1.19586 -3.68048 5.01
    endloop
  endfacet
  facet normal -0.104528 0.994522 0
    outer loop
      vertex -0.404512 -3.84868 5.01
      vertex 1.19586 -3.68048 5.01
      vertex 1.19586 -3.68048 0
    endloop
  endfacet
  facet normal -0 0 -1
    outer loop
      vertex -0.404512 3.84868 0
      vertex 0 6.0875 0
      vertex 0.53056 6.06433 0
    endloop
  endfacet
  facet normal 0 0 -1
    outer loop
      vertex -0.404512 3.84868 0
      vertex 0.53056 6.06433 0
      vertex 1.19586 3.68048 0
    endloop
  endfacet
  facet normal -0.104528 -0.994522 -0
    outer loop
      vertex -0.404512 3.84868 0
      vertex 1.19586 3.68048 0
      vertex 1.19586 3.68048 5.01
    endloop
  endfacet
  facet normal -0.104528 -0.994522 0
    outer loop
      vertex -0.404512 3.84868 0
      vertex 1.19586 3.68048 5.01
      vertex -0.404512 3.84868 5.01
    endloop
  endfacet
  facet normal 0 0 1
    outer loop
      vertex -0.404512 3.84868 5.01
      vertex 0.53056 6.06433 5.01
      vertex 0 6.0875 5.01
    endloop
  endfacet
  facet normal 0 0 1
    outer loop
      vertex -0.404512 3.84868 5.01
      vertex 1.19586 3.68048 5.01
      vertex 0.53056 6.06433 5.01
    endloop
  endfacet
  facet normal 0 0 -1
    outer loop
      vertex -0.53056 -6.06433 0
      vertex -0.404512 -3.84868 0
      vertex 0 -6.0875 0
    endloop
  endfacet
  facet normal -0.0436193 -0.999048 -0
    outer loop
      vertex -0.53056 -6.06433 0
      vertex 0 -6.0875 0
      vertex 0 -6.0875 5.01
    endloop
  endfacet
  facet normal -0.0436193 -0.999048 0
    outer loop
      vertex -0.53056 -6.06433 0
      vertex 0 -6.0875 5.01
      vertex -0.53056 -6.06433 5.01
    endloop
  endfacet
  facet normal 0 0 1
    outer loop
      vertex -0.53056 -6.06433 5.01
      vertex 0 -6.0875 5.01
      vertex -0.404512 -3.84868 5.01
    endloop
  endfacet
  facet normal -0.0436193 0.999048 0
    outer loop
      vertex -0.53056 6.06433 0
      vertex -0.53056 6.06433 5.01
      vertex 0 6.0875 0
    endloop
  endfacet
  facet normal 0 0 -1
    outer loop
      vertex -0.53056 6.06433 0
      vertex 0 6.0875 0
      vertex -0.404512 3.84868 0
    endloop
  endfacet
  facet normal -0 0 1
    outer loop
      vertex -0.53056 6.06433 5.01
      vertex -0.404512 3.84868 5.01
      vertex 0 6.0875 5.01
    endloop
  endfacet
  facet normal -0.0436193 0.999048 0
    outer loop
      vertex -0.53056 6.06433 5.01
      vertex 0 6.0875 5.01
      vertex 0 6.0875 0
    endloop
  endfacet
  facet normal 0 0 -1
    outer loop
      vertex -1.05708 -5.99502 0
      vertex -0.404512 -3.84868 0
      vertex -0.53056 -6.06433 0
    endloop
  endfacet
  facet normal -0.130526 -0.991445 -0
    outer loop
      vertex -1.05708 -5.99502 0
      vertex -0.53056 -6.06433 0
      vertex -0.53056 -6.06433 5.01
    endloop
  endfacet
  facet normal -0.130526 -0.991445 0
    outer loop
      vertex -1.05708 -5.99502 0
      vertex -0.53056 -6.06433 5.01
      vertex -1.05708 -5.99502 5.01
    endloop
  endfacet
  facet normal 0 0 1
    outer loop
      vertex -1.05708 -5.99502 5.01
      vertex -0.53056 -6.06433 5.01
      vertex -0.404512 -3.84868 5.01
    endloop
  endfacet
  facet normal 0 0 -1
    outer loop
      vertex -1.05708 5.99502 0
      vertex -0.53056 6.06433 0
      vertex -0.404512 3.84868 0
    endloop
  endfacet
  facet normal -0.130526 0.991445 0
    outer loop
      vertex -1.05708 5.99502 0
      vertex -1.05708 5.99502 5.01
      vertex -0.53056 6.06433 0
    endloop
  endfacet
  facet normal -0 0 1
    outer loop
      vertex -1.05708 5.99502 5.01
      vertex -0.404512 3.84868 5.01
      vertex -0.53056 6.06433 5.01
    endloop
  endfacet
  facet normal -0.130526 0.991445 0
    outer loop
      vertex -1.05708 5.99502 5.01
      vertex -0.53056 6.06433 5.01
      vertex -0.53056 6.06433 0
    endloop
  endfacet
  facet normal 0 0 -1
    outer loop
      vertex -1.57556 -5.88007 0
      vertex -0.404512 -3.84868 0
      vertex -1.05708 -5.99502 0
    endloop
  endfacet
  facet normal -0.216441 -0.976296 -0
    outer loop
      vertex -1.57556 -5.88007 0
      vertex -1.05708 -5.99502 0
      vertex -1.05708 -5.99502 5.01
    endloop
  endfacet
  facet normal -0.216441 -0.976296 0
    outer loop
      vertex -1.57556 -5.88007 0
      vertex -1.05708 -5.99502 5.01
      vertex -1.57556 -5.88007 5.01
    endloop
  endfacet
  facet normal 0 0 1
    outer loop
      vertex -1.57556 -5.88007 5.01
      vertex -1.05708 -5.99502 5.01
      vertex -0.404512 -3.84868 5.01
    endloop
  endfacet
  facet normal 0 0 -1
    outer loop
      vertex -1.57556 5.88007 0
      vertex -1.05708 5.99502 0
      vertex -0.404512 3.84868 0
    endloop
  endfacet
  facet normal -0.216441 0.976296 0
    outer loop
      vertex -1.57556 5.88007 0
      vertex -1.57556 5.88007 5.01
      vertex -1.05708 5.99502 0
    endloop
  endfacet
  facet normal -0 0 1
    outer loop
      vertex -1.57556 5.88007 5.01
      vertex -0.404512 3.84868 5.01
      vertex -1.05708 5.99502 5.01
    endloop
  endfacet
  facet normal -0.216441 0.976296 0
    outer loop
      vertex -1.57556 5.88007 5.01
      vertex -1.05708 5.99502 5.01
      vertex -1.05708 5.99502 0
    endloop
  endfacet
  facet normal 0.309017 0.951057 0
    outer loop
      vertex -1.93494 -3.35141 0
      vertex -1.93494 -3.35141 5.01
      vertex -0.404512 -3.84868 0
    endloop
  endfacet
  facet normal 0.309017 0.951057 -0
    outer loop
      vertex -1.93494 -3.35141 5.01
      vertex -0.404512 -3.84868 5.01
      vertex -0.404512 -3.84868 0
    endloop
  endfacet
  facet normal 0.309017 -0.951057 0
    outer loop
      vertex -1.93494 3.35141 0
      vertex -0.404512 3.84868 0
      vertex -0.404512 3.84868 5.01
    endloop
  endfacet
  facet normal 0.309017 -0.951057 0
    outer loop
      vertex -1.93494 3.35141 0
      vertex -0.404512 3.84868 5.01
      vertex -1.93494 3.35141 5.01
    endloop
  endfacet
  facet normal 0 0 -1
    outer loop
      vertex -2.08205 -5.72038 0
      vertex -0.404512 -3.84868 0
      vertex -1.57556 -5.88007 0
    endloop
  endfacet
  facet normal -0.300706 -0.953717 -0
    outer loop
      vertex -2.08205 -5.72038 0
      vertex -1.57556 -5.88007 0
      vertex -1.57556 -5.88007 5.01
    endloop
  endfacet
  facet normal -0.300706 -0.953717 0
    outer loop
      vertex -2.08205 -5.72038 0
      vertex -1.57556 -5.88007 5.01
      vertex -2.08205 -5.72038 5.01
    endloop
  endfacet
  facet normal -0 0 -1
    outer loop
      vertex -2.08205 -5.72038 0
      vertex -1.93494 -3.35141 0
      vertex -0.404512 -3.84868 0
    endloop
  endfacet
  facet normal 0 0 1
    outer loop
      vertex -2.08205 -5.72038 5.01
      vertex -0.404512 -3.84868 5.01
      vertex -1.93494 -3.35141 5.01
    endloop
  endfacet
  facet normal 0 0 1
    outer loop
      vertex -2.08205 -5.72038 5.01
      vertex -1.57556 -5.88007 5.01
      vertex -0.404512 -3.84868 5.01
    endloop
  endfacet
  facet normal 0 0 -1
    outer loop
      vertex -2.08205 5.72038 0
      vertex -0.404512 3.84868 0
      vertex -1.93494 3.35141 0
    endloop
  endfacet
  facet normal 0 0 -1
    outer loop
      vertex -2.08205 5.72038 0
      vertex -1.57556 5.88007 0
      vertex -0.404512 3.84868 0
    endloop
  endfacet
  facet normal -0.300706 0.953717 0
    outer loop
      vertex -2.08205 5.72038 0
      vertex -2.08205 5.72038 5.01
      vertex -1.57556 5.88007 0
    endloop
  endfacet
  facet normal -0 0 1
    outer loop
      vertex -2.08205 5.72038 5.01
      vertex -0.404512 3.84868 5.01
      vertex -1.57556 5.88007 5.01
    endloop
  endfacet
  facet normal -0.300706 0.953717 0
    outer loop
      vertex -2.08205 5.72038 5.01
      vertex -1.57556 5.88007 5.01
      vertex -1.57556 5.88007 0
    endloop
  endfacet
  facet normal 0 0 1
    outer loop
      vertex -2.08205 5.72038 5.01
      vertex -1.93494 3.35141 5.01
      vertex -0.404512 3.84868 5.01
    endloop
  endfacet
  facet normal 0 0 -1
    outer loop
      vertex -2.57269 -5.51715 0
      vertex -1.93494 -3.35141 0
      vertex -2.08205 -5.72038 0
    endloop
  endfacet
  facet normal -0.382683 -0.92388 -0
    outer loop
      vertex -2.57269 -5.51715 0
      vertex -2.08205 -5.72038 0
      vertex -2.08205 -5.72038 5.01
    endloop
  endfacet
  facet normal -0.382683 -0.92388 0
    outer loop
      vertex -2.57269 -5.51715 0
      vertex -2.08205 -5.72038 5.01
      vertex -2.57269 -5.51715 5.01
    endloop
  endfacet
  facet normal 0 0 1
    outer loop
      vertex -2.57269 -5.51715 5.01
      vertex -2.08205 -5.72038 5.01
      vertex -1.93494 -3.35141 5.01
    endloop
  endfacet
  facet normal 0 0 -1
    outer loop
      vertex -2.57269 5.51715 0
      vertex -2.08205 5.72038 0
      vertex -1.93494 3.35141 0
    endloop
  endfacet
  facet normal -0.382683 0.92388 0
    outer loop
      vertex -2.57269 5.51715 0
      vertex -2.57269 5.51715 5.01
      vertex -2.08205 5.72038 0
    endloop
  endfacet
  facet normal -0 0 1
    outer loop
      vertex -2.57269 5.51715 5.01
      vertex -1.93494 3.35141 5.01
      vertex -2.08205 5.72038 5.01
    endloop
  endfacet
  facet normal -0.382683 0.92388 0
    outer loop
      vertex -2.57269 5.51715 5.01
      vertex -2.08205 5.72038 5.01
      vertex -2.08205 5.72038 0
    endloop
  endfacet
  facet normal 0 0 -1
    outer loop
      vertex -3.04375 -5.27193 0
      vertex -1.93494 -3.35141 0
      vertex -2.57269 -5.51715 0
    endloop
  endfacet
  facet normal -0.461749 -0.887011 -0
    outer loop
      vertex -3.04375 -5.27193 0
      vertex -2.57269 -5.51715 0
      vertex -2.57269 -5.51715 5.01
    endloop
  endfacet
  facet normal -0.461749 -0.887011 0
    outer loop
      vertex -3.04375 -5.27193 0
      vertex -2.57269 -5.51715 5.01
      vertex -3.04375 -5.27193 5.01
    endloop
  endfacet
  facet normal 0 0 1
    outer loop
      vertex -3.04375 -5.27193 5.01
      vertex -2.57269 -5.51715 5.01
      vertex -1.93494 -3.35141 5.01
    endloop
  endfacet
  facet normal 0 0 -1
    outer loop
      vertex -3.04375 5.27193 0
      vertex -2.57269 5.51715 0
      vertex -1.93494 3.35141 0
    endloop
  endfacet
  facet normal -0.461749 0.887011 0
    outer loop
      vertex -3.04375 5.27193 0
      vertex -3.04375 5.27193 5.01
      vertex -2.57269 5.51715 0
    endloop
  endfacet
  facet normal -0 0 1
    outer loop
      vertex -3.04375 5.27193 5.01
      vertex -1.93494 3.35141 5.01
      vertex -2.57269 5.51715 5.01
    endloop
  endfacet
  facet normal -0.461749 0.887011 0
    outer loop
      vertex -3.04375 5.27193 5.01
      vertex -2.57269 5.51715 5.01
      vertex -2.57269 5.51715 0
    endloop
  endfacet
  facet normal 0.669131 0.743145 0
    outer loop
      vertex -3.1308 -2.27466 0
      vertex -3.1308 -2.27466 5.01
      vertex -1.93494 -3.35141 0
    endloop
  endfacet
  facet normal 0.669131 0.743145 -0
    outer loop
      vertex -3.1308 -2.27466 5.01
      vertex -1.93494 -3.35141 5.01
      vertex -1.93494 -3.35141 0
    endloop
  endfacet
  facet normal 0.669131 -0.743145 0
    outer loop
      vertex -3.1308 2.27466 0
      vertex -1.93494 3.35141 0
      vertex -1.93494 3.35141 5.01
    endloop
  endfacet
  facet normal 0.669131 -0.743145 0
    outer loop
      vertex -3.1308 2.27466 0
      vertex -1.93494 3.35141 5.01
      vertex -3.1308 2.27466 5.01
    endloop
  endfacet
  facet normal 0 0 -1
    outer loop
      vertex -3.49165 -4.98659 0
      vertex -1.93494 -3.35141 0
      vertex -3.04375 -5.27193 0
    endloop
  endfacet
  facet normal -0.5373 -0.843391 -0
    outer loop
      vertex -3.49165 -4.98659 0
      vertex -3.04375 -5.27193 0
      vertex -3.04375 -5.27193 5.01
    endloop
  endfacet
  facet normal -0.5373 -0.843391 0
    outer loop
      vertex -3.49165 -4.98659 0
      vertex -3.04375 -5.27193 5.01
      vertex -3.49165 -4.98659 5.01
    endloop
  endfacet
  facet normal 0 0 1
    outer loop
      vertex -3.49165 -4.98659 5.01
      vertex -3.04375 -5.27193 5.01
      vertex -1.93494 -3.35141 5.01
    endloop
  endfacet
  facet normal 0 0 -1
    outer loop
      vertex -3.49165 4.98659 0
      vertex -3.04375 5.27193 0
      vertex -1.93494 3.35141 0
    endloop
  endfacet
  facet normal -0.5373 0.843391 0
    outer loop
      vertex -3.49165 4.98659 0
      vertex -3.49165 4.98659 5.01
      vertex -3.04375 5.27193 0
    endloop
  endfacet
  facet normal -0 0 1
    outer loop
      vertex -3.49165 4.98659 5.01
      vertex -1.93494 3.35141 5.01
      vertex -3.04375 5.27193 5.01
    endloop
  endfacet
  facet normal -0.5373 0.843391 0
    outer loop
      vertex -3.49165 4.98659 5.01
      vertex -3.04375 5.27193 5.01
      vertex -3.04375 5.27193 0
    endloop
  endfacet
  facet normal 0.913545 0.406737 0
    outer loop
      vertex -3.78531 -0.804593 0
      vertex -3.1308 -2.27466 5.01
      vertex -3.1308 -2.27466 0
    endloop
  endfacet
  facet normal 0.913545 0.406737 0
    outer loop
      vertex -3.78531 -0.804593 0
      vertex -3.78531 -0.804593 5.01
      vertex -3.1308 -2.27466 5.01
    endloop
  endfacet
  facet normal 1 0 0
    outer loop
      vertex -3.78531 -0.804593 0
      vertex -3.78531 0.804593 0
      vertex -3.78531 -0.804593 5.01
    endloop
  endfacet
  facet normal 1 -0 0
    outer loop
      vertex -3.78531 -0.804593 5.01
      vertex -3.78531 0.804593 0
      vertex -3.78531 0.804593 5.01
    endloop
  endfacet
  facet normal 0.913545 -0.406737 0
    outer loop
      vertex -3.78531 0.804593 0
      vertex -3.1308 2.27466 0
      vertex -3.78531 0.804593 5.01
    endloop
  endfacet
  facet normal 0.913545 -0.406737 0
    outer loop
      vertex -3.78531 0.804593 5.01
      vertex -3.1308 2.27466 0
      vertex -3.1308 2.27466 5.01
    endloop
  endfacet
  facet normal 0 0 -1
    outer loop
      vertex -3.91297 -4.66329 0
      vertex -1.93494 -3.35141 0
      vertex -3.49165 -4.98659 0
    endloop
  endfacet
  facet normal -0 0 -1
    outer loop
      vertex -3.91297 -4.66329 0
      vertex -3.1308 -2.27466 0
      vertex -1.93494 -3.35141 0
    endloop
  endfacet
  facet normal -0.608762 -0.793353 -0
    outer loop
      vertex -3.91297 -4.66329 0
      vertex -3.49165 -4.98659 0
      vertex -3.49165 -4.98659 5.01
    endloop
  endfacet
  facet normal -0.608762 -0.793353 0
    outer loop
      vertex -3.91297 -4.66329 0
      vertex -3.49165 -4.98659 5.01
      vertex -3.91297 -4.66329 5.01
    endloop
  endfacet
  facet normal 0 0 1
    outer loop
      vertex -3.91297 -4.66329 5.01
      vertex -1.93494 -3.35141 5.01
      vertex -3.1308 -2.27466 5.01
    endloop
  endfacet
  facet normal 0 0 1
    outer loop
      vertex -3.91297 -4.66329 5.01
      vertex -3.49165 -4.98659 5.01
      vertex -1.93494 -3.35141 5.01
    endloop
  endfacet
  facet normal 0 0 -1
    outer loop
      vertex -3.91297 4.66329 0
      vertex -1.93494 3.35141 0
      vertex -3.1308 2.27466 0
    endloop
  endfacet
  facet normal 0 0 -1
    outer loop
      vertex -3.91297 4.66329 0
      vertex -3.49165 4.98659 0
      vertex -1.93494 3.35141 0
    endloop
  endfacet
  facet normal -0.608762 0.793353 0
    outer loop
      vertex -3.91297 4.66329 0
      vertex -3.91297 4.66329 5.01
      vertex -3.49165 4.98659 0
    endloop
  endfacet
  facet normal -0 0 1
    outer loop
      vertex -3.91297 4.66329 5.01
      vertex -1.93494 3.35141 5.01
      vertex -3.49165 4.98659 5.01
    endloop
  endfacet
  facet normal 0 0 1
    outer loop
      vertex -3.91297 4.66329 5.01
      vertex -3.1308 2.27466 5.01
      vertex -1.93494 3.35141 5.01
    endloop
  endfacet
  facet normal -0.608762 0.793353 0
    outer loop
      vertex -3.91297 4.66329 5.01
      vertex -3.49165 4.98659 5.01
      vertex -3.49165 4.98659 0
    endloop
  endfacet
  facet normal 0 0 -1
    outer loop
      vertex -4.30451 -4.30451 0
      vertex -3.1308 -2.27466 0
      vertex -3.91297 -4.66329 0
    endloop
  endfacet
  facet normal -0.67559 -0.737278 -0
    outer loop
      vertex -4.30451 -4.30451 0
      vertex -3.91297 -4.66329 0
      vertex -3.91297 -4.66329 5.01
    endloop
  endfacet
  facet normal -0.67559 -0.737278 0
    outer loop
      vertex -4.30451 -4.30451 0
      vertex -3.91297 -4.66329 5.01
      vertex -4.30451 -4.30451 5.01
    endloop
  endfacet
  facet normal 0 0 1
    outer loop
      vertex -4.30451 -4.30451 5.01
      vertex -3.91297 -4.66329 5.01
      vertex -3.1308 -2.27466 5.01
    endloop
  endfacet
  facet normal 0 0 -1
    outer loop
      vertex -4.30451 4.30451 0
      vertex -3.91297 4.66329 0
      vertex -3.1308 2.27466 0
    endloop
  endfacet
  facet normal -0.67559 0.737278 0
    outer loop
      vertex -4.30451 4.30451 0
      vertex -4.30451 4.30451 5.01
      vertex -3.91297 4.66329 0
    endloop
  endfacet
  facet normal -0 0 1
    outer loop
      vertex -4.30451 4.30451 5.01
      vertex -3.1308 2.27466 5.01
      vertex -3.91297 4.66329 5.01
    endloop
  endfacet
  facet normal -0.67559 0.737278 0
    outer loop
      vertex -4.30451 4.30451 5.01
      vertex -3.91297 4.66329 5.01
      vertex -3.91297 4.66329 0
    endloop
  endfacet
  facet normal 0 0 -1
    outer loop
      vertex -4.66329 -3.91297 0
      vertex -3.1308 -2.27466 0
      vertex -4.30451 -4.30451 0
    endloop
  endfacet
  facet normal -0.737278 -0.67559 0
    outer loop
      vertex -4.66329 -3.91297 0
      vertex -4.30451 -4.30451 0
      vertex -4.66329 -3.91297 5.01
    endloop
  endfacet
  facet normal -0.737278 -0.67559 0
    outer loop
      vertex -4.66329 -3.91297 5.01
      vertex -4.30451 -4.30451 0
      vertex -4.30451 -4.30451 5.01
    endloop
  endfacet
  facet normal 0 0 1
    outer loop
      vertex -4.66329 -3.91297 5.01
      vertex -4.30451 -4.30451 5.01
      vertex -3.1308 -2.27466 5.01
    endloop
  endfacet
  facet normal 0 0 -1
    outer loop
      vertex -4.66329 3.91297 0
      vertex -4.30451 4.30451 0
      vertex -3.1308 2.27466 0
    endloop
  endfacet
  facet normal -0.737278 0.67559 0
    outer loop
      vertex -4.66329 3.91297 0
      vertex -4.30451 4.30451 5.01
      vertex -4.30451 4.30451 0
    endloop
  endfacet
  facet normal -0.737278 0.67559 0
    outer loop
      vertex -4.66329 3.91297 0
      vertex -4.66329 3.91297 5.01
      vertex -4.30451 4.30451 5.01
    endloop
  endfacet
  facet normal -0 0 1
    outer loop
      vertex -4.66329 3.91297 5.01
      vertex -3.1308 2.27466 5.01
      vertex -4.30451 4.30451 5.01
    endloop
  endfacet
  facet normal 0 0 -1
    outer loop
      vertex -4.98659 -3.49165 0
      vertex -3.1308 -2.27466 0
      vertex -4.66329 -3.91297 0
    endloop
  endfacet
  facet normal -0.793353 -0.608762 0
    outer loop
      vertex -4.98659 -3.49165 0
      vertex -4.66329 -3.91297 0
      vertex -4.98659 -3.49165 5.01
    endloop
  endfacet
  facet normal -0.793353 -0.608762 0
    outer loop
      vertex -4.98659 -3.49165 5.01
      vertex -4.66329 -3.91297 0
      vertex -4.66329 -3.91297 5.01
    endloop
  endfacet
  facet normal 0 0 1
    outer loop
      vertex -4.98659 -3.49165 5.01
      vertex -4.66329 -3.91297 5.01
      vertex -3.1308 -2.27466 5.01
    endloop
  endfacet
  facet normal 0 0 -1
    outer loop
      vertex -4.98659 3.49165 0
      vertex -4.66329 3.91297 0
      vertex -3.1308 2.27466 0
    endloop
  endfacet
  facet normal -0.793353 0.608762 0
    outer loop
      vertex -4.98659 3.49165 0
      vertex -4.66329 3.91297 5.01
      vertex -4.66329 3.91297 0
    endloop
  endfacet
  facet normal -0.793353 0.608762 0
    outer loop
      vertex -4.98659 3.49165 0
      vertex -4.98659 3.49165 5.01
      vertex -4.66329 3.91297 5.01
    endloop
  endfacet
  facet normal -0 0 1
    outer loop
      vertex -4.98659 3.49165 5.01
      vertex -3.1308 2.27466 5.01
      vertex -4.66329 3.91297 5.01
    endloop
  endfacet
  facet normal 0 0 -1
    outer loop
      vertex -5.27193 -3.04375 0
      vertex -3.1308 -2.27466 0
      vertex -4.98659 -3.49165 0
    endloop
  endfacet
  facet normal -0.843391 -0.5373 0
    outer loop
      vertex -5.27193 -3.04375 0
      vertex -4.98659 -3.49165 0
      vertex -5.27193 -3.04375 5.01
    endloop
  endfacet
  facet normal -0.843391 -0.5373 0
    outer loop
      vertex -5.27193 -3.04375 5.01
      vertex -4.98659 -3.49165 0
      vertex -4.98659 -3.49165 5.01
    endloop
  endfacet
  facet normal 0 0 1
    outer loop
      vertex -5.27193 -3.04375 5.01
      vertex -4.98659 -3.49165 5.01
      vertex -3.1308 -2.27466 5.01
    endloop
  endfacet
  facet normal 0 0 -1
    outer loop
      vertex -5.27193 3.04375 0
      vertex -4.98659 3.49165 0
      vertex -3.1308 2.27466 0
    endloop
  endfacet
  facet normal -0.843391 0.5373 0
    outer loop
      vertex -5.27193 3.04375 0
      vertex -4.98659 3.49165 5.01
      vertex -4.98659 3.49165 0
    endloop
  endfacet
  facet normal -0.843391 0.5373 0
    outer loop
      vertex -5.27193 3.04375 0
      vertex -5.27193 3.04375 5.01
      vertex -4.98659 3.49165 5.01
    endloop
  endfacet
  facet normal -0 0 1
    outer loop
      vertex -5.27193 3.04375 5.01
      vertex -3.1308 2.27466 5.01
      vertex -4.98659 3.49165 5.01
    endloop
  endfacet
  facet normal 0 0 -1
    outer loop
      vertex -5.51715 -2.57269 0
      vertex -3.1308 -2.27466 0
      vertex -5.27193 -3.04375 0
    endloop
  endfacet
  facet normal -0 0 -1
    outer loop
      vertex -5.51715 -2.57269 0
      vertex -3.78531 -0.804593 0
      vertex -3.1308 -2.27466 0
    endloop
  endfacet
  facet normal -0.887011 -0.461749 0
    outer loop
      vertex -5.51715 -2.57269 0
      vertex -5.27193 -3.04375 0
      vertex -5.51715 -2.57269 5.01
    endloop
  endfacet
  facet normal 0 0 1
    outer loop
      vertex -5.51715 -2.57269 5.01
      vertex -3.1308 -2.27466 5.01
      vertex -3.78531 -0.804593 5.01
    endloop
  endfacet
  facet normal -0.887011 -0.461749 0
    outer loop
      vertex -5.51715 -2.57269 5.01
      vertex -5.27193 -3.04375 0
      vertex -5.27193 -3.04375 5.01
    endloop
  endfacet
  facet normal 0 0 1
    outer loop
      vertex -5.51715 -2.57269 5.01
      vertex -5.27193 -3.04375 5.01
      vertex -3.1308 -2.27466 5.01
    endloop
  endfacet
  facet normal 0 0 -1
    outer loop
      vertex -5.51715 2.57269 0
      vertex -3.1308 2.27466 0
      vertex -3.78531 0.804593 0
    endloop
  endfacet
  facet normal 0 0 -1
    outer loop
      vertex -5.51715 2.57269 0
      vertex -5.27193 3.04375 0
      vertex -3.1308 2.27466 0
    endloop
  endfacet
  facet normal -0.887011 0.461749 0
    outer loop
      vertex -5.51715 2.57269 0
      vertex -5.27193 3.04375 5.01
      vertex -5.27193 3.04375 0
    endloop
  endfacet
  facet normal -0.887011 0.461749 0
    outer loop
      vertex -5.51715 2.57269 0
      vertex -5.51715 2.57269 5.01
      vertex -5.27193 3.04375 5.01
    endloop
  endfacet
  facet normal -0 0 1
    outer loop
      vertex -5.51715 2.57269 5.01
      vertex -3.1308 2.27466 5.01
      vertex -5.27193 3.04375 5.01
    endloop
  endfacet
  facet normal 0 0 1
    outer loop
      vertex -5.51715 2.57269 5.01
      vertex -3.78531 0.804593 5.01
      vertex -3.1308 2.27466 5.01
    endloop
  endfacet
  facet normal 0 0 -1
    outer loop
      vertex -5.72038 -2.08205 0
      vertex -3.78531 -0.804593 0
      vertex -5.51715 -2.57269 0
    endloop
  endfacet
  facet normal -0.92388 -0.382683 0
    outer loop
      vertex -5.72038 -2.08205 0
      vertex -5.51715 -2.57269 0
      vertex -5.72038 -2.08205 5.01
    endloop
  endfacet
  facet normal -0.92388 -0.382683 0
    outer loop
      vertex -5.72038 -2.08205 5.01
      vertex -5.51715 -2.57269 0
      vertex -5.51715 -2.57269 5.01
    endloop
  endfacet
  facet normal 0 0 1
    outer loop
      vertex -5.72038 -2.08205 5.01
      vertex -5.51715 -2.57269 5.01
      vertex -3.78531 -0.804593 5.01
    endloop
  endfacet
  facet normal 0 0 -1
    outer loop
      vertex -5.72038 2.08205 0
      vertex -5.51715 2.57269 0
      vertex -3.78531 0.804593 0
    endloop
  endfacet
  facet normal -0.92388 0.382683 0
    outer loop
      vertex -5.72038 2.08205 0
      vertex -5.51715 2.57269 5.01
      vertex -5.51715 2.57269 0
    endloop
  endfacet
  facet normal -0.92388 0.382683 0
    outer loop
      vertex -5.72038 2.08205 0
      vertex -5.72038 2.08205 5.01
      vertex -5.51715 2.57269 5.01
    endloop
  endfacet
  facet normal -0 0 1
    outer loop
      vertex -5.72038 2.08205 5.01
      vertex -3.78531 0.804593 5.01
      vertex -5.51715 2.57269 5.01
    endloop
  endfacet
  facet normal 0 0 -1
    outer loop
      vertex -5.88007 -1.57556 0
      vertex -3.78531 -0.804593 0
      vertex -5.72038 -2.08205 0
    endloop
  endfacet
  facet normal -0.953717 -0.300706 0
    outer loop
      vertex -5.88007 -1.57556 0
      vertex -5.72038 -2.08205 0
      vertex -5.88007 -1.57556 5.01
    endloop
  endfacet
  facet normal -0.953717 -0.300706 0
    outer loop
      vertex -5.88007 -1.57556 5.01
      vertex -5.72038 -2.08205 0
      vertex -5.72038 -2.08205 5.01
    endloop
  endfacet
  facet normal 0 0 1
    outer loop
      vertex -5.88007 -1.57556 5.01
      vertex -5.72038 -2.08205 5.01
      vertex -3.78531 -0.804593 5.01
    endloop
  endfacet
  facet normal 0 0 -1
    outer loop
      vertex -5.88007 1.57556 0
      vertex -5.72038 2.08205 0
      vertex -3.78531 0.804593 0
    endloop
  endfacet
  facet normal -0.953717 0.300706 0
    outer loop
      vertex -5.88007 1.57556 0
      vertex -5.72038 2.08205 5.01
      vertex -5.72038 2.08205 0
    endloop
  endfacet
  facet normal -0.953717 0.300706 0
    outer loop
      vertex -5.88007 1.57556 0
      vertex -5.88007 1.57556 5.01
      vertex -5.72038 2.08205 5.01
    endloop
  endfacet
  facet normal -0 0 1
    outer loop
      vertex -5.88007 1.57556 5.01
      vertex -3.78531 0.804593 5.01
      vertex -5.72038 2.08205 5.01
    endloop
  endfacet
  facet normal 0 0 -1
    outer loop
      vertex -5.99502 -1.05708 0
      vertex -3.78531 -0.804593 0
      vertex -5.88007 -1.57556 0
    endloop
  endfacet
  facet normal -0.976296 -0.216441 0
    outer loop
      vertex -5.99502 -1.05708 0
      vertex -5.88007 -1.57556 0
      vertex -5.99502 -1.05708 5.01
    endloop
  endfacet
  facet normal -0.976296 -0.216441 0
    outer loop
      vertex -5.99502 -1.05708 5.01
      vertex -5.88007 -1.57556 0
      vertex -5.88007 -1.57556 5.01
    endloop
  endfacet
  facet normal 0 0 1
    outer loop
      vertex -5.99502 -1.05708 5.01
      vertex -5.88007 -1.57556 5.01
      vertex -3.78531 -0.804593 5.01
    endloop
  endfacet
  facet normal 0 0 -1
    outer loop
      vertex -5.99502 1.05708 0
      vertex -5.88007 1.57556 0
      vertex -3.78531 0.804593 0
    endloop
  endfacet
  facet normal -0.976296 0.216441 0
    outer loop
      vertex -5.99502 1.05708 0
      vertex -5.88007 1.57556 5.01
      vertex -5.88007 1.57556 0
    endloop
  endfacet
  facet normal -0.976296 0.216441 0
    outer loop
      vertex -5.99502 1.05708 0
      vertex -5.99502 1.05708 5.01
      vertex -5.88007 1.57556 5.01
    endloop
  endfacet
  facet normal -0 0 1
    outer loop
      vertex -5.99502 1.05708 5.01
      vertex -3.78531 0.804593 5.01
      vertex -5.88007 1.57556 5.01
    endloop
  endfacet
  facet normal 0 0 -1
    outer loop
      vertex -6.06433 -0.53056 0
      vertex -3.78531 -0.804593 0
      vertex -5.99502 -1.05708 0
    endloop
  endfacet
  facet normal -0.991445 -0.130526 0
    outer loop
      vertex -6.06433 -0.53056 0
      vertex -5.99502 -1.05708 0
      vertex -6.06433 -0.53056 5.01
    endloop
  endfacet
  facet normal -0.991445 -0.130526 0
    outer loop
      vertex -6.06433 -0.53056 5.01
      vertex -5.99502 -1.05708 0
      vertex -5.99502 -1.05708 5.01
    endloop
  endfacet
  facet normal 0 0 1
    outer loop
      vertex -6.06433 -0.53056 5.01
      vertex -5.99502 -1.05708 5.01
      vertex -3.78531 -0.804593 5.01
    endloop
  endfacet
  facet normal -0 0 -1
    outer loop
      vertex -6.06433 0.53056 0
      vertex -5.99502 1.05708 0
      vertex -3.78531 0.804593 0
    endloop
  endfacet
  facet normal -0.991445 0.130526 0
    outer loop
      vertex -6.06433 0.53056 0
      vertex -5.99502 1.05708 5.01
      vertex -5.99502 1.05708 0
    endloop
  endfacet
  facet normal -0.991445 0.130526 0
    outer loop
      vertex -6.06433 0.53056 0
      vertex -6.06433 0.53056 5.01
      vertex -5.99502 1.05708 5.01
    endloop
  endfacet
  facet normal 0 0 1
    outer loop
      vertex -6.06433 0.53056 5.01
      vertex -3.78531 0.804593 5.01
      vertex -5.99502 1.05708 5.01
    endloop
  endfacet
  facet normal 0 0 -1
    outer loop
      vertex -6.0875 0 0
      vertex -3.78531 -0.804593 0
      vertex -6.06433 -0.53056 0
    endloop
  endfacet
  facet normal 0 0 -1
    outer loop
      vertex -6.0875 0 0
      vertex -3.78531 0.804593 0
      vertex -3.78531 -0.804593 0
    endloop
  endfacet
  facet normal -0.999048 -0.0436193 0
    outer loop
      vertex -6.0875 0 0
      vertex -6.06433 -0.53056 0
      vertex -6.0875 0 5.01
    endloop
  endfacet
  facet normal 0 0 -1
    outer loop
      vertex -6.0875 0 0
      vertex -6.06433 0.53056 0
      vertex -3.78531 0.804593 0
    endloop
  endfacet
  facet normal -0.999048 0.0436193 0
    outer loop
      vertex -6.0875 0 0
      vertex -6.06433 0.53056 5.01
      vertex -6.06433 0.53056 0
    endloop
  endfacet
  facet normal -0.999048 0.0436193 0
    outer loop
      vertex -6.0875 0 0
      vertex -6.0875 0 5.01
      vertex -6.06433 0.53056 5.01
    endloop
  endfacet
  facet normal 0 0 1
    outer loop
      vertex -6.0875 0 5.01
      vertex -3.78531 -0.804593 5.01
      vertex -3.78531 0.804593 5.01
    endloop
  endfacet
  facet normal 0 0 1
    outer loop
      vertex -6.0875 0 5.01
      vertex -3.78531 0.804593 5.01
      vertex -6.06433 0.53056 5.01
    endloop
  endfacet
  facet normal -0.999048 -0.0436193 0
    outer loop
      vertex -6.0875 0 5.01
      vertex -6.06433 -0.53056 0
      vertex -6.06433 -0.53056 5.01
    endloop
  endfacet
  facet normal 0 0 1
    outer loop
      vertex -6.0875 0 5.01
      vertex -6.06433 -0.53056 5.01
      vertex -3.78531 -0.804593 5.01
    endloop
  endfacet
  facet normal 0.0436193 -0.999048 0
    outer loop
      vertex 0 -6.0875 0
      vertex 0.53056 -6.06433 0
      vertex 0.53056 -6.06433 5.01
    endloop
  endfacet
  facet normal 0.0436193 -0.999048 0
    outer loop
      vertex 0 -6.0875 0
      vertex 0.53056 -6.06433 5.01
      vertex 0 -6.0875 5.01
    endloop
  endfacet
  facet normal 0.0436193 0.999048 0
    outer loop
      vertex 0 6.0875 0
      vertex 0 6.0875 5.01
      vertex 0.53056 6.06433 0
    endloop
  endfacet
  facet normal 0.0436193 0.999048 -0
    outer loop
      vertex 0 6.0875 5.01
      vertex 0.53056 6.06433 5.01
      vertex 0.53056 6.06433 0
    endloop
  endfacet
  facet normal 0.130526 -0.991445 0
    outer loop
      vertex 0.53056 -6.06433 0
      vertex 1.05708 -5.99502 0
      vertex 1.05708 -5.99502 5.01
    endloop
  endfacet
  facet normal 0.130526 -0.991445 0
    outer loop
      vertex 0.53056 -6.06433 0
      vertex 1.05708 -5.99502 5.01
      vertex 0.53056 -6.06433 5.01
    endloop
  endfacet
  facet normal 0 0 -1
    outer loop
      vertex 0.53056 -6.06433 0
      vertex 1.19586 -3.68048 0
      vertex 1.05708 -5.99502 0
    endloop
  endfacet
  facet normal 0 0 1
    outer loop
      vertex 0.53056 -6.06433 5.01
      vertex 1.05708 -5.99502 5.01
      vertex 1.19586 -3.68048 5.01
    endloop
  endfacet
  facet normal 0.130526 0.991445 0
    outer loop
      vertex 0.53056 6.06433 0
      vertex 0.53056 6.06433 5.01
      vertex 1.05708 5.99502 0
    endloop
  endfacet
  facet normal 0 0 -1
    outer loop
      vertex 0.53056 6.06433 0
      vertex 1.05708 5.99502 0
      vertex 1.19586 3.68048 0
    endloop
  endfacet
  facet normal 0.130526 0.991445 -0
    outer loop
      vertex 0.53056 6.06433 5.01
      vertex 1.05708 5.99502 5.01
      vertex 1.05708 5.99502 0
    endloop
  endfacet
  facet normal 0 0 1
    outer loop
      vertex 0.53056 6.06433 5.01
      vertex 1.19586 3.68048 5.01
      vertex 1.05708 5.99502 5.01
    endloop
  endfacet
  facet normal 0 0 -1
    outer loop
      vertex 1.05708 -5.99502 0
      vertex 1.19586 -3.68048 0
      vertex 1.57556 -5.88007 0
    endloop
  endfacet
  facet normal 0.216441 -0.976296 0
    outer loop
      vertex 1.05708 -5.99502 0
      vertex 1.57556 -5.88007 0
      vertex 1.57556 -5.88007 5.01
    endloop
  endfacet
  facet normal 0.216441 -0.976296 0
    outer loop
      vertex 1.05708 -5.99502 0
      vertex 1.57556 -5.88007 5.01
      vertex 1.05708 -5.99502 5.01
    endloop
  endfacet
  facet normal 0 0 1
    outer loop
      vertex 1.05708 -5.99502 5.01
      vertex 1.57556 -5.88007 5.01
      vertex 1.19586 -3.68048 5.01
    endloop
  endfacet
  facet normal 0.216441 0.976296 0
    outer loop
      vertex 1.05708 5.99502 0
      vertex 1.05708 5.99502 5.01
      vertex 1.57556 5.88007 0
    endloop
  endfacet
  facet normal 0 0 -1
    outer loop
      vertex 1.05708 5.99502 0
      vertex 1.57556 5.88007 0
      vertex 1.19586 3.68048 0
    endloop
  endfacet
  facet normal 0 0 1
    outer loop
      vertex 1.05708 5.99502 5.01
      vertex 1.19586 3.68048 5.01
      vertex 1.57556 5.88007 5.01
    endloop
  endfacet
  facet normal 0.216441 0.976296 -0
    outer loop
      vertex 1.05708 5.99502 5.01
      vertex 1.57556 5.88007 5.01
      vertex 1.57556 5.88007 0
    endloop
  endfacet
  facet normal -0.5 0.866025 0
    outer loop
      vertex 1.19586 -3.68048 0
      vertex 1.19586 -3.68048 5.01
      vertex 2.58946 -2.87588 0
    endloop
  endfacet
  facet normal 0 0 -1
    outer loop
      vertex 1.19586 -3.68048 0
      vertex 2.08205 -5.72038 0
      vertex 1.57556 -5.88007 0
    endloop
  endfacet
  facet normal 0 0 -1
    outer loop
      vertex 1.19586 -3.68048 0
      vertex 2.58946 -2.87588 0
      vertex 2.08205 -5.72038 0
    endloop
  endfacet
  facet normal 0 0 1
    outer loop
      vertex 1.19586 -3.68048 5.01
      vertex 1.57556 -5.88007 5.01
      vertex 2.08205 -5.72038 5.01
    endloop
  endfacet
  facet normal 0 0 1
    outer loop
      vertex 1.19586 -3.68048 5.01
      vertex 2.08205 -5.72038 5.01
      vertex 2.57269 -5.51715 5.01
    endloop
  endfacet
  facet normal 0 0 1
    outer loop
      vertex 1.19586 -3.68048 5.01
      vertex 2.57269 -5.51715 5.01
      vertex 3.04375 -5.27193 5.01
    endloop
  endfacet
  facet normal -0.5 0.866025 0
    outer loop
      vertex 1.19586 -3.68048 5.01
      vertex 2.58946 -2.87588 5.01
      vertex 2.58946 -2.87588 0
    endloop
  endfacet
  facet normal -0 0 1
    outer loop
      vertex 1.19586 -3.68048 5.01
      vertex 3.04375 -5.27193 5.01
      vertex 2.58946 -2.87588 5.01
    endloop
  endfacet
  facet normal -0 0 -1
    outer loop
      vertex 1.19586 3.68048 0
      vertex 1.57556 5.88007 0
      vertex 2.08205 5.72038 0
    endloop
  endfacet
  facet normal 0 0 -1
    outer loop
      vertex 1.19586 3.68048 0
      vertex 2.08205 5.72038 0
      vertex 2.58946 2.87588 0
    endloop
  endfacet
  facet normal -0.5 -0.866025 -0
    outer loop
      vertex 1.19586 3.68048 0
      vertex 2.58946 2.87588 0
      vertex 2.58946 2.87588 5.01
    endloop
  endfacet
  facet normal -0.5 -0.866025 0
    outer loop
      vertex 1.19586 3.68048 0
      vertex 2.58946 2.87588 5.01
      vertex 1.19586 3.68048 5.01
    endloop
  endfacet
  facet normal 0 0 1
    outer loop
      vertex 1.19586 3.68048 5.01
      vertex 2.08205 5.72038 5.01
      vertex 1.57556 5.88007 5.01
    endloop
  endfacet
  facet normal 0 0 1
    outer loop
      vertex 1.19586 3.68048 5.01
      vertex 2.57269 5.51715 5.01
      vertex 2.08205 5.72038 5.01
    endloop
  endfacet
  facet normal 0 0 1
    outer loop
      vertex 1.19586 3.68048 5.01
      vertex 2.58946 2.87588 5.01
      vertex 3.04375 5.27193 5.01
    endloop
  endfacet
  facet normal 0 0 1
    outer loop
      vertex 1.19586 3.68048 5.01
      vertex 3.04375 5.27193 5.01
      vertex 2.57269 5.51715 5.01
    endloop
  endfacet
  facet normal 0.300706 -0.953717 0
    outer loop
      vertex 1.57556 -5.88007 0
      vertex 2.08205 -5.72038 0
      vertex 2.08205 -5.72038 2.4
    endloop
  endfacet
  facet normal 0.300706 -0.953717 0
    outer loop
      vertex 1.57556 -5.88007 0
      vertex 2.08205 -5.72038 2.4
      vertex 1.57556 -5.88007 5.01
    endloop
  endfacet
  facet normal 0.300706 -0.953717 0
    outer loop
      vertex 1.57556 -5.88007 5.01
      vertex 2.08205 -5.72038 2.4
      vertex 2.08205 -5.72038 5.01
    endloop
  endfacet
  facet normal 0.300706 0.953717 0
    outer loop
      vertex 1.57556 5.88007 0
      vertex 1.57556 5.88007 5.01
      vertex 2.08205 5.72038 2.4
    endloop
  endfacet
  facet normal 0.300706 0.953717 0
    outer loop
      vertex 1.57556 5.88007 0
      vertex 2.08205 5.72038 2.4
      vertex 2.08205 5.72038 0
    endloop
  endfacet
  facet normal 0.300706 0.953717 -0
    outer loop
      vertex 1.57556 5.88007 5.01
      vertex 2.08205 5.72038 5.01
      vertex 2.08205 5.72038 2.4
    endloop
  endfacet
  facet normal 1 0 0
    outer loop
      vertex 15 -0.599999 0
      vertex 15 0.599999 0
      vertex 15 -0.599999 2.4
    endloop
  endfacet
  facet normal 1 -0 0
    outer loop
      vertex 15 -0.599999 2.4
      vertex 15 0.599999 0
      vertex 15 0.599999 2.4
    endloop
  endfacet
  facet normal 0.368485 -0.929634 0
    outer loop
      vertex 2.08205 -5.72038 0
      vertex 15 -0.599999 0
      vertex 15 -0.599999 2.4
    endloop
  endfacet
  facet normal 0.368485 -0.929634 0
    outer loop
      vertex 2.08205 -5.72038 0
      vertex 15 -0.599999 2.4
      vertex 2.08205 -5.72038 2.4
    endloop
  endfacet
  facet normal 0 0 -1
    outer loop
      vertex 2.08205 -5.72038 0
      vertex 2.58946 -2.87588 0
      vertex 3.53531 -1.57402 0
    endloop
  endfacet
  facet normal 0 0 -1
    outer loop
      vertex 2.08205 -5.72038 0
      vertex 3.53531 -1.57402 0
      vertex 15 -0.599999 0
    endloop
  endfacet
  facet normal 0 0 1
    outer loop
      vertex 2.08205 -5.72038 2.4
      vertex 15 -0.599999 2.4
      vertex 2.57269 -5.51715 2.4
    endloop
  endfacet
  facet normal 0.382683 -0.92388 0
    outer loop
      vertex 2.08205 -5.72038 2.4
      vertex 2.57269 -5.51715 2.4
      vertex 2.57269 -5.51715 5.01
    endloop
  endfacet
  facet normal 0.382683 -0.92388 0
    outer loop
      vertex 2.08205 -5.72038 2.4
      vertex 2.57269 -5.51715 5.01
      vertex 2.08205 -5.72038 5.01
    endloop
  endfacet
  facet normal 0 0 -1
    outer loop
      vertex 2.08205 5.72038 0
      vertex 15 0.599999 0
      vertex 3.53531 1.57402 0
    endloop
  endfacet
  facet normal 0.368485 0.929634 0
    outer loop
      vertex 2.08205 5.72038 0
      vertex 2.08205 5.72038 2.4
      vertex 15 0.599999 0
    endloop
  endfacet
  facet normal 0 0 -1
    outer loop
      vertex 2.08205 5.72038 0
      vertex 3.53531 1.57402 0
      vertex 2.58946 2.87588 0
    endloop
  endfacet
  facet normal 0.368485 0.929634 -0
    outer loop
      vertex 2.08205 5.72038 2.4
      vertex 15 0.599999 2.4
      vertex 15 0.599999 0
    endloop
  endfacet
  facet normal 0.382683 0.92388 0
    outer loop
      vertex 2.08205 5.72038 2.4
      vertex 2.08205 5.72038 5.01
      vertex 2.57269 5.51715 2.4
    endloop
  endfacet
  facet normal -0 -0 1
    outer loop
      vertex 2.08205 5.72038 2.4
      vertex 2.57269 5.51715 2.4
      vertex 15 0.599999 2.4
    endloop
  endfacet
  facet normal 0.382683 0.92388 -0
    outer loop
      vertex 2.08205 5.72038 5.01
      vertex 2.57269 5.51715 5.01
      vertex 2.57269 5.51715 2.4
    endloop
  endfacet
  facet normal 0 0 1
    outer loop
      vertex 2.57269 -5.51715 2.4
      vertex 15 -0.599999 2.4
      vertex 3.04375 -5.27193 2.4
    endloop
  endfacet
  facet normal 0.461749 -0.887011 0
    outer loop
      vertex 2.57269 -5.51715 2.4
      vertex 3.04375 -5.27193 2.4
      vertex 3.04375 -5.27193 5.01
    endloop
  endfacet
  facet normal 0.461749 -0.887011 0
    outer loop
      vertex 2.57269 -5.51715 2.4
      vertex 3.04375 -5.27193 5.01
      vertex 2.57269 -5.51715 5.01
    endloop
  endfacet
  facet normal 0.461749 0.887011 0
    outer loop
      vertex 2.57269 5.51715 2.4
      vertex 2.57269 5.51715 5.01
      vertex 3.04375 5.27193 2.4
    endloop
  endfacet
  facet normal 0 0 1
    outer loop
      vertex 2.57269 5.51715 2.4
      vertex 3.04375 5.27193 2.4
      vertex 15 0.599999 2.4
    endloop
  endfacet
  facet normal 0.461749 0.887011 -0
    outer loop
      vertex 2.57269 5.51715 5.01
      vertex 3.04375 5.27193 5.01
      vertex 3.04375 5.27193 2.4
    endloop
  endfacet
  facet normal -0.809017 0.587785 0
    outer loop
      vertex 2.58946 -2.87588 0
      vertex 2.58946 -2.87588 5.01
      vertex 3.53531 -1.57402 5.01
    endloop
  endfacet
  facet normal -0.809017 0.587785 0
    outer loop
      vertex 2.58946 -2.87588 0
      vertex 3.53531 -1.57402 5.01
      vertex 3.53531 -1.57402 0
    endloop
  endfacet
  facet normal 0 0 1
    outer loop
      vertex 2.58946 -2.87588 5.01
      vertex 3.04375 -5.27193 5.01
      vertex 3.49165 -4.98659 5.01
    endloop
  endfacet
  facet normal 0 0 1
    outer loop
      vertex 2.58946 -2.87588 5.01
      vertex 3.49165 -4.98659 5.01
      vertex 3.91297 -4.66329 5.01
    endloop
  endfacet
  facet normal 0 0 1
    outer loop
      vertex 2.58946 -2.87588 5.01
      vertex 3.91297 -4.66329 5.01
      vertex 4.30451 -4.30451 5.01
    endloop
  endfacet
  facet normal 0 0 1
    outer loop
      vertex 2.58946 -2.87588 5.01
      vertex 4.30451 -4.30451 5.01
      vertex 4.66329 -3.91297 5.01
    endloop
  endfacet
  facet normal 0 0 1
    outer loop
      vertex 2.58946 -2.87588 5.01
      vertex 4.66329 -3.91297 5.01
      vertex 4.98659 -3.49165 5.01
    endloop
  endfacet
  facet normal -0 0 1
    outer loop
      vertex 2.58946 -2.87588 5.01
      vertex 4.98659 -3.49165 5.01
      vertex 3.53531 -1.57402 5.01
    endloop
  endfacet
  facet normal -0.809017 -0.587785 0
    outer loop
      vertex 2.58946 2.87588 0
      vertex 3.53531 1.57402 0
      vertex 2.58946 2.87588 5.01
    endloop
  endfacet
  facet normal 0 0 1
    outer loop
      vertex 2.58946 2.87588 5.01
      vertex 3.49165 4.98659 5.01
      vertex 3.04375 5.27193 5.01
    endloop
  endfacet
  facet normal -0.809017 -0.587785 0
    outer loop
      vertex 2.58946 2.87588 5.01
      vertex 3.53531 1.57402 0
      vertex 3.53531 1.57402 5.01
    endloop
  endfacet
  facet normal 0 0 1
    outer loop
      vertex 2.58946 2.87588 5.01
      vertex 3.53531 1.57402 5.01
      vertex 4.98659 3.49165 5.01
    endloop
  endfacet
  facet normal 0 0 1
    outer loop
      vertex 2.58946 2.87588 5.01
      vertex 3.91297 4.66329 5.01
      vertex 3.49165 4.98659 5.01
    endloop
  endfacet
  facet normal 0 0 1
    outer loop
      vertex 2.58946 2.87588 5.01
      vertex 4.30451 4.30451 5.01
      vertex 3.91297 4.66329 5.01
    endloop
  endfacet
  facet normal 0 0 1
    outer loop
      vertex 2.58946 2.87588 5.01
      vertex 4.66329 3.91297 5.01
      vertex 4.30451 4.30451 5.01
    endloop
  endfacet
  facet normal 0 0 1
    outer loop
      vertex 2.58946 2.87588 5.01
      vertex 4.98659 3.49165 5.01
      vertex 4.66329 3.91297 5.01
    endloop
  endfacet
  facet normal 0 0 1
    outer loop
      vertex 3.04375 -5.27193 2.4
      vertex 15 -0.599999 2.4
      vertex 3.49165 -4.98659 2.4
    endloop
  endfacet
  facet normal 0.5373 -0.843391 0
    outer loop
      vertex 3.04375 -5.27193 2.4
      vertex 3.49165 -4.98659 2.4
      vertex 3.49165 -4.98659 5.01
    endloop
  endfacet
  facet normal 0.5373 -0.843391 0
    outer loop
      vertex 3.04375 -5.27193 2.4
      vertex 3.49165 -4.98659 5.01
      vertex 3.04375 -5.27193 5.01
    endloop
  endfacet
  facet normal 0.5373 0.843391 0
    outer loop
      vertex 3.04375 5.27193 2.4
      vertex 3.04375 5.27193 5.01
      vertex 3.49165 4.98659 2.4
    endloop
  endfacet
  facet normal 0 0 1
    outer loop
      vertex 3.04375 5.27193 2.4
      vertex 3.49165 4.98659 2.4
      vertex 15 0.599999 2.4
    endloop
  endfacet
  facet normal 0.5373 0.843391 -0
    outer loop
      vertex 3.04375 5.27193 5.01
      vertex 3.49165 4.98659 5.01
      vertex 3.49165 4.98659 2.4
    endloop
  endfacet
  facet normal 0 0 1
    outer loop
      vertex 3.49165 -4.98659 2.4
      vertex 15 -0.599999 2.4
      vertex 3.91297 -4.66329 2.4
    endloop
  endfacet
  facet normal 0.608762 -0.793353 0
    outer loop
      vertex 3.49165 -4.98659 2.4
      vertex 3.91297 -4.66329 2.4
      vertex 3.91297 -4.66329 5.01
    endloop
  endfacet
  facet normal 0.608762 -0.793353 0
    outer loop
      vertex 3.49165 -4.98659 2.4
      vertex 3.91297 -4.66329 5.01
      vertex 3.49165 -4.98659 5.01
    endloop
  endfacet
  facet normal 0.608762 0.793353 0
    outer loop
      vertex 3.49165 4.98659 2.4
      vertex 3.49165 4.98659 5.01
      vertex 3.91297 4.66329 2.4
    endloop
  endfacet
  facet normal 0 0 1
    outer loop
      vertex 3.49165 4.98659 2.4
      vertex 3.91297 4.66329 2.4
      vertex 15 0.599999 2.4
    endloop
  endfacet
  facet normal 0.608762 0.793353 -0
    outer loop
      vertex 3.49165 4.98659 5.01
      vertex 3.91297 4.66329 5.01
      vertex 3.91297 4.66329 2.4
    endloop
  endfacet
  facet normal -0.978148 0.207912 0
    outer loop
      vertex 3.53531 -1.57402 0
      vertex 3.53531 -1.57402 5.01
      vertex 3.86988 0 5.01
    endloop
  endfacet
  facet normal -0 0 -1
    outer loop
      vertex 3.53531 -1.57402 0
      vertex 3.86988 0 0
      vertex 15 -0.599999 0
    endloop
  endfacet
  facet normal -0.978148 0.207912 0
    outer loop
      vertex 3.53531 -1.57402 0
      vertex 3.86988 0 5.01
      vertex 3.86988 0 0
    endloop
  endfacet
  facet normal 0 0 1
    outer loop
      vertex 3.53531 -1.57402 5.01
      vertex 4.98659 -3.49165 5.01
      vertex 5.27193 -3.04375 5.01
    endloop
  endfacet
  facet normal 0 0 1
    outer loop
      vertex 3.53531 -1.57402 5.01
      vertex 5.27193 -3.04375 5.01
      vertex 5.51715 -2.57269 5.01
    endloop
  endfacet
  facet normal 0 0 1
    outer loop
      vertex 3.53531 -1.57402 5.01
      vertex 5.51715 -2.57269 5.01
      vertex 5.72038 -2.08205 5.01
    endloop
  endfacet
  facet normal 0 0 1
    outer loop
      vertex 3.53531 -1.57402 5.01
      vertex 5.72038 -2.08205 5.01
      vertex 5.88007 -1.57556 5.01
    endloop
  endfacet
  facet normal 0 0 1
    outer loop
      vertex 3.53531 -1.57402 5.01
      vertex 5.88007 -1.57556 5.01
      vertex 5.99502 -1.05708 5.01
    endloop
  endfacet
  facet normal 0 0 1
    outer loop
      vertex 3.53531 -1.57402 5.01
      vertex 5.99502 -1.05708 5.01
      vertex 3.86988 0 5.01
    endloop
  endfacet
  facet normal 0 0 -1
    outer loop
      vertex 3.53531 1.57402 0
      vertex 15 0.599999 0
      vertex 3.86988 0 0
    endloop
  endfacet
  facet normal -0.978148 -0.207912 0
    outer loop
      vertex 3.53531 1.57402 0
      vertex 3.86988 0 0
      vertex 3.53531 1.57402 5.01
    endloop
  endfacet
  facet normal -0.978148 -0.207912 0
    outer loop
      vertex 3.53531 1.57402 5.01
      vertex 3.86988 0 0
      vertex 3.86988 0 5.01
    endloop
  endfacet
  facet normal 0 0 1
    outer loop
      vertex 3.53531 1.57402 5.01
      vertex 3.86988 0 5.01
      vertex 5.99502 1.05708 5.01
    endloop
  endfacet
  facet normal 0 0 1
    outer loop
      vertex 3.53531 1.57402 5.01
      vertex 5.27193 3.04375 5.01
      vertex 4.98659 3.49165 5.01
    endloop
  endfacet
  facet normal 0 0 1
    outer loop
      vertex 3.53531 1.57402 5.01
      vertex 5.51715 2.57269 5.01
      vertex 5.27193 3.04375 5.01
    endloop
  endfacet
  facet normal 0 0 1
    outer loop
      vertex 3.53531 1.57402 5.01
      vertex 5.72038 2.08205 5.01
      vertex 5.51715 2.57269 5.01
    endloop
  endfacet
  facet normal 0 0 1
    outer loop
      vertex 3.53531 1.57402 5.01
      vertex 5.88007 1.57556 5.01
      vertex 5.72038 2.08205 5.01
    endloop
  endfacet
  facet normal -0 0 1
    outer loop
      vertex 3.53531 1.57402 5.01
      vertex 5.99502 1.05708 5.01
      vertex 5.88007 1.57556 5.01
    endloop
  endfacet
  facet normal 0 0 -1
    outer loop
      vertex 3.86988 0 0
      vertex 15 0.599999 0
      vertex 15 -0.599999 0
    endloop
  endfacet
  facet normal 0 0 1
    outer loop
      vertex 3.86988 0 5.01
      vertex 5.99502 -1.05708 5.01
      vertex 6.06433 -0.53056 5.01
    endloop
  endfacet
  facet normal 0 0 1
    outer loop
      vertex 3.86988 0 5.01
      vertex 6.06433 -0.53056 5.01
      vertex 6.0875 0 5.01
    endloop
  endfacet
  facet normal 0 0 1
    outer loop
      vertex 3.86988 0 5.01
      vertex 6.06433 0.53056 5.01
      vertex 5.99502 1.05708 5.01
    endloop
  endfacet
  facet normal 0 0 1
    outer loop
      vertex 3.86988 0 5.01
      vertex 6.0875 0 5.01
      vertex 6.06433 0.53056 5.01
    endloop
  endfacet
  facet normal 0 0 1
    outer loop
      vertex 3.91297 -4.66329 2.4
      vertex 15 -0.599999 2.4
      vertex 4.30451 -4.30451 2.4
    endloop
  endfacet
  facet normal 0.67559 -0.737278 0
    outer loop
      vertex 3.91297 -4.66329 2.4
      vertex 4.30451 -4.30451 2.4
      vertex 4.30451 -4.30451 5.01
    endloop
  endfacet
  facet normal 0.67559 -0.737278 0
    outer loop
      vertex 3.91297 -4.66329 2.4
      vertex 4.30451 -4.30451 5.01
      vertex 3.91297 -4.66329 5.01
    endloop
  endfacet
  facet normal 0.67559 0.737278 0
    outer loop
      vertex 3.91297 4.66329 2.4
      vertex 3.91297 4.66329 5.01
      vertex 4.30451 4.30451 2.4
    endloop
  endfacet
  facet normal 0 0 1
    outer loop
      vertex 3.91297 4.66329 2.4
      vertex 4.30451 4.30451 2.4
      vertex 15 0.599999 2.4
    endloop
  endfacet
  facet normal 0.67559 0.737278 -0
    outer loop
      vertex 3.91297 4.66329 5.01
      vertex 4.30451 4.30451 5.01
      vertex 4.30451 4.30451 2.4
    endloop
  endfacet
  facet normal 0 0 1
    outer loop
      vertex 4.30451 -4.30451 2.4
      vertex 15 -0.599999 2.4
      vertex 4.66329 -3.91297 2.4
    endloop
  endfacet
  facet normal 0.737278 -0.67559 0
    outer loop
      vertex 4.30451 -4.30451 2.4
      vertex 4.66329 -3.91297 2.4
      vertex 4.30451 -4.30451 5.01
    endloop
  endfacet
  facet normal 0.737278 -0.67559 0
    outer loop
      vertex 4.30451 -4.30451 5.01
      vertex 4.66329 -3.91297 2.4
      vertex 4.66329 -3.91297 5.01
    endloop
  endfacet
  facet normal 0.737278 0.67559 0
    outer loop
      vertex 4.30451 4.30451 2.4
      vertex 4.30451 4.30451 5.01
      vertex 4.66329 3.91297 5.01
    endloop
  endfacet
  facet normal 0 0 1
    outer loop
      vertex 4.30451 4.30451 2.4
      vertex 4.66329 3.91297 2.4
      vertex 15 0.599999 2.4
    endloop
  endfacet
  facet normal 0.737278 0.67559 0
    outer loop
      vertex 4.30451 4.30451 2.4
      vertex 4.66329 3.91297 5.01
      vertex 4.66329 3.91297 2.4
    endloop
  endfacet
  facet normal 0 0 1
    outer loop
      vertex 4.66329 -3.91297 2.4
      vertex 15 -0.599999 2.4
      vertex 4.98659 -3.49165 2.4
    endloop
  endfacet
  facet normal 0.793353 -0.608762 0
    outer loop
      vertex 4.66329 -3.91297 2.4
      vertex 4.98659 -3.49165 2.4
      vertex 4.66329 -3.91297 5.01
    endloop
  endfacet
  facet normal 0.793353 -0.608762 0
    outer loop
      vertex 4.66329 -3.91297 5.01
      vertex 4.98659 -3.49165 2.4
      vertex 4.98659 -3.49165 5.01
    endloop
  endfacet
  facet normal 0.793353 0.608762 0
    outer loop
      vertex 4.66329 3.91297 2.4
      vertex 4.66329 3.91297 5.01
      vertex 4.98659 3.49165 5.01
    endloop
  endfacet
  facet normal 0 0 1
    outer loop
      vertex 4.66329 3.91297 2.4
      vertex 4.98659 3.49165 2.4
      vertex 15 0.599999 2.4
    endloop
  endfacet
  facet normal 0.793353 0.608762 0
    outer loop
      vertex 4.66329 3.91297 2.4
      vertex 4.98659 3.49165 5.01
      vertex 4.98659 3.49165 2.4
    endloop
  endfacet
  facet normal 0 0 1
    outer loop
      vertex 4.98659 -3.49165 2.4
      vertex 15 -0.599999 2.4
      vertex 5.27193 -3.04375 2.4
    endloop
  endfacet
  facet normal 0.843391 -0.5373 0
    outer loop
      vertex 4.98659 -3.49165 2.4
      vertex 5.27193 -3.04375 2.4
      vertex 4.98659 -3.49165 5.01
    endloop
  endfacet
  facet normal 0.843391 -0.5373 0
    outer loop
      vertex 4.98659 -3.49165 5.01
      vertex 5.27193 -3.04375 2.4
      vertex 5.27193 -3.04375 5.01
    endloop
  endfacet
  facet normal 0.843391 0.5373 0
    outer loop
      vertex 4.98659 3.49165 2.4
      vertex 4.98659 3.49165 5.01
      vertex 5.27193 3.04375 5.01
    endloop
  endfacet
  facet normal 0 0 1
    outer loop
      vertex 4.98659 3.49165 2.4
      vertex 5.27193 3.04375 2.4
      vertex 15 0.599999 2.4
    endloop
  endfacet
  facet normal 0.843391 0.5373 0
    outer loop
      vertex 4.98659 3.49165 2.4
      vertex 5.27193 3.04375 5.01
      vertex 5.27193 3.04375 2.4
    endloop
  endfacet
  facet normal 0 0 1
    outer loop
      vertex 5.27193 -3.04375 2.4
      vertex 15 -0.599999 2.4
      vertex 5.51715 -2.57269 2.4
    endloop
  endfacet
  facet normal 0.887011 -0.461749 0
    outer loop
      vertex 5.27193 -3.04375 2.4
      vertex 5.51715 -2.57269 2.4
      vertex 5.27193 -3.04375 5.01
    endloop
  endfacet
  facet normal 0.887011 -0.461749 0
    outer loop
      vertex 5.27193 -3.04375 5.01
      vertex 5.51715 -2.57269 2.4
      vertex 5.51715 -2.57269 5.01
    endloop
  endfacet
  facet normal 0.887011 0.461749 0
    outer loop
      vertex 5.27193 3.04375 2.4
      vertex 5.27193 3.04375 5.01
      vertex 5.51715 2.57269 5.01
    endloop
  endfacet
  facet normal 0 0 1
    outer loop
      vertex 5.27193 3.04375 2.4
      vertex 5.51715 2.57269 2.4
      vertex 15 0.599999 2.4
    endloop
  endfacet
  facet normal 0.887011 0.461749 0
    outer loop
      vertex 5.27193 3.04375 2.4
      vertex 5.51715 2.57269 5.01
      vertex 5.51715 2.57269 2.4
    endloop
  endfacet
  facet normal 0 0 1
    outer loop
      vertex 5.51715 -2.57269 2.4
      vertex 15 -0.599999 2.4
      vertex 5.72038 -2.08205 2.4
    endloop
  endfacet
  facet normal 0.92388 -0.382683 0
    outer loop
      vertex 5.51715 -2.57269 2.4
      vertex 5.72038 -2.08205 2.4
      vertex 5.51715 -2.57269 5.01
    endloop
  endfacet
  facet normal 0.92388 -0.382683 0
    outer loop
      vertex 5.51715 -2.57269 5.01
      vertex 5.72038 -2.08205 2.4
      vertex 5.72038 -2.08205 5.01
    endloop
  endfacet
  facet normal 0.92388 0.382683 0
    outer loop
      vertex 5.51715 2.57269 2.4
      vertex 5.51715 2.57269 5.01
      vertex 5.72038 2.08205 5.01
    endloop
  endfacet
  facet normal 0 0 1
    outer loop
      vertex 5.51715 2.57269 2.4
      vertex 5.72038 2.08205 2.4
      vertex 15 0.599999 2.4
    endloop
  endfacet
  facet normal 0.92388 0.382683 0
    outer loop
      vertex 5.51715 2.57269 2.4
      vertex 5.72038 2.08205 5.01
      vertex 5.72038 2.08205 2.4
    endloop
  endfacet
  facet normal 0 0 1
    outer loop
      vertex 5.72038 -2.08205 2.4
      vertex 15 -0.599999 2.4
      vertex 5.88007 -1.57556 2.4
    endloop
  endfacet
  facet normal 0.953717 -0.300706 0
    outer loop
      vertex 5.72038 -2.08205 2.4
      vertex 5.88007 -1.57556 2.4
      vertex 5.72038 -2.08205 5.01
    endloop
  endfacet
  facet normal 0.953717 -0.300706 0
    outer loop
      vertex 5.72038 -2.08205 5.01
      vertex 5.88007 -1.57556 2.4
      vertex 5.88007 -1.57556 5.01
    endloop
  endfacet
  facet normal 0.953717 0.300706 0
    outer loop
      vertex 5.72038 2.08205 2.4
      vertex 5.72038 2.08205 5.01
      vertex 5.88007 1.57556 5.01
    endloop
  endfacet
  facet normal 0 0 1
    outer loop
      vertex 5.72038 2.08205 2.4
      vertex 5.88007 1.57556 2.4
      vertex 15 0.599999 2.4
    endloop
  endfacet
  facet normal 0.953717 0.300706 0
    outer loop
      vertex 5.72038 2.08205 2.4
      vertex 5.88007 1.57556 5.01
      vertex 5.88007 1.57556 2.4
    endloop
  endfacet
  facet normal 0 0 1
    outer loop
      vertex 5.88007 -1.57556 2.4
      vertex 15 -0.599999 2.4
      vertex 5.99502 -1.05708 2.4
    endloop
  endfacet
  facet normal 0.976296 -0.216441 0
    outer loop
      vertex 5.88007 -1.57556 2.4
      vertex 5.99502 -1.05708 2.4
      vertex 5.88007 -1.57556 5.01
    endloop
  endfacet
  facet normal 0.976296 -0.216441 0
    outer loop
      vertex 5.88007 -1.57556 5.01
      vertex 5.99502 -1.05708 2.4
      vertex 5.99502 -1.05708 5.01
    endloop
  endfacet
  facet normal 0.976296 0.216441 0
    outer loop
      vertex 5.88007 1.57556 2.4
      vertex 5.88007 1.57556 5.01
      vertex 5.99502 1.05708 5.01
    endloop
  endfacet
  facet normal 0 0 1
    outer loop
      vertex 5.88007 1.57556 2.4
      vertex 5.99502 1.05708 2.4
      vertex 15 0.599999 2.4
    endloop
  endfacet
  facet normal 0.976296 0.216441 0
    outer loop
      vertex 5.88007 1.57556 2.4
      vertex 5.99502 1.05708 5.01
      vertex 5.99502 1.05708 2.4
    endloop
  endfacet
  facet normal 0 0 1
    outer loop
      vertex 5.99502 -1.05708 2.4
      vertex 15 -0.599999 2.4
      vertex 6.06433 -0.53056 2.4
    endloop
  endfacet
  facet normal 0.991445 -0.130526 0
    outer loop
      vertex 5.99502 -1.05708 2.4
      vertex 6.06433 -0.53056 2.4
      vertex 5.99502 -1.05708 5.01
    endloop
  endfacet
  facet normal 0.991445 -0.130526 0
    outer loop
      vertex 5.99502 -1.05708 5.01
      vertex 6.06433 -0.53056 2.4
      vertex 6.06433 -0.53056 5.01
    endloop
  endfacet
  facet normal 0.991445 0.130526 0
    outer loop
      vertex 5.99502 1.05708 2.4
      vertex 5.99502 1.05708 5.01
      vertex 6.06433 0.53056 5.01
    endloop
  endfacet
  facet normal 0 0 1
    outer loop
      vertex 5.99502 1.05708 2.4
      vertex 6.06433 0.53056 2.4
      vertex 15 0.599999 2.4
    endloop
  endfacet
  facet normal 0.991445 0.130526 0
    outer loop
      vertex 5.99502 1.05708 2.4
      vertex 6.06433 0.53056 5.01
      vertex 6.06433 0.53056 2.4
    endloop
  endfacet
  facet normal -0 0 1
    outer loop
      vertex 6.06433 -0.53056 2.4
      vertex 15 -0.599999 2.4
      vertex 6.0875 0 2.4
    endloop
  endfacet
  facet normal 0.999048 -0.0436193 0
    outer loop
      vertex 6.06433 -0.53056 2.4
      vertex 6.0875 0 2.4
      vertex 6.06433 -0.53056 5.01
    endloop
  endfacet
  facet normal 0.999048 -0.0436193 0
    outer loop
      vertex 6.06433 -0.53056 5.01
      vertex 6.0875 0 2.4
      vertex 6.0875 0 5.01
    endloop
  endfacet
  facet normal 0.999048 0.0436193 0
    outer loop
      vertex 6.06433 0.53056 2.4
      vertex 6.06433 0.53056 5.01
      vertex 6.0875 0 5.01
    endloop
  endfacet
  facet normal 0 0 1
    outer loop
      vertex 6.06433 0.53056 2.4
      vertex 6.0875 0 2.4
      vertex 15 0.599999 2.4
    endloop
  endfacet
  facet normal 0.999048 0.0436193 0
    outer loop
      vertex 6.06433 0.53056 2.4
      vertex 6.0875 0 5.01
      vertex 6.0875 0 2.4
    endloop
  endfacet
  facet normal 0 0 1
    outer loop
      vertex 6.0875 0 2.4
      vertex 15 -0.599999 2.4
      vertex 15 0.599999 2.4
    endloop
  endfacet
endsolid OpenSCAD_Model
