solid OpenSCAD_Model
  facet normal -1 2.28442e-06 0
    outer loop
      vertex -32.206 4.16506 0
      vertex -32.206 4.16506 5
      vertex -32.206 5.83494 5
    endloop
  endfacet
  facet normal -0 0 -1
    outer loop
      vertex -32.206 4.16506 0
      vertex -32.206 5.83494 0
      vertex 56.0588 5 0
    endloop
  endfacet
  facet normal -1 2.28442e-06 0
    outer loop
      vertex -32.206 4.16506 0
      vertex -32.206 5.83494 5
      vertex -32.206 5.83494 0
    endloop
  endfacet
  facet normal 0 0 -1
    outer loop
      vertex -32.206 4.16506 0
      vertex 56.0588 5 0
      vertex 56.6299 3.43083 0
    endloop
  endfacet
  facet normal 0 0 1
    outer loop
      vertex -32.206 4.16506 5
      vertex 56.0588 5 5
      vertex -32.206 5.83494 5
    endloop
  endfacet
  facet normal 0 0 1
    outer loop
      vertex -32.206 4.16506 5
      vertex 56.6299 3.43083 5
      vertex 56.0588 5 5
    endloop
  endfacet
  facet normal 0 0 -1
    outer loop
      vertex -32.206 5.83494 0
      vertex 56.6299 6.56917 0
      vertex 56.0588 5 0
    endloop
  endfacet
  facet normal 0 0 -1
    outer loop
      vertex -32.206 5.83494 0
      vertex 58.3753 9.99845 0
      vertex 56.6299 6.56917 0
    endloop
  endfacet
  facet normal 0 0 1
    outer loop
      vertex -32.206 5.83494 5
      vertex 56.0588 5 5
      vertex 56.6299 6.56917 5
    endloop
  endfacet
  facet normal 0 0 1
    outer loop
      vertex -32.206 5.83494 5
      vertex 56.6299 6.56917 5
      vertex 58.3753 9.99845 5
    endloop
  endfacet
  facet normal -0 0 -1
    outer loop
      vertex -33.2794 2.88587 0
      vertex -32.206 4.16506 0
      vertex 56.6299 3.43083 0
    endloop
  endfacet
  facet normal -0.766045 0.642787 0
    outer loop
      vertex -33.2794 2.88587 0
      vertex -32.206 4.16506 5
      vertex -32.206 4.16506 0
    endloop
  endfacet
  facet normal -0.766045 0.642787 0
    outer loop
      vertex -33.2794 2.88587 0
      vertex -33.2794 2.88587 5
      vertex -32.206 4.16506 5
    endloop
  endfacet
  facet normal 0 0 -1
    outer loop
      vertex -33.2794 2.88587 0
      vertex 56.6299 3.43083 0
      vertex 58.0761 2.5959 0
    endloop
  endfacet
  facet normal 0 0 1
    outer loop
      vertex -33.2794 2.88587 5
      vertex 56.6299 3.43083 5
      vertex -32.206 4.16506 5
    endloop
  endfacet
  facet normal 0 0 1
    outer loop
      vertex -33.2794 2.88587 5
      vertex 58.0761 2.5959 5
      vertex 56.6299 3.43083 5
    endloop
  endfacet
  facet normal 0 0 1
    outer loop
      vertex -33.2794 2.88587 5
      vertex 63.49 0 5
      vertex 58.0761 2.5959 5
    endloop
  endfacet
  facet normal -0.766044 -0.642788 0
    outer loop
      vertex -33.2794 7.11413 0
      vertex -32.206 5.83494 0
      vertex -33.2794 7.11413 5
    endloop
  endfacet
  facet normal -0.766044 -0.642788 0
    outer loop
      vertex -33.2794 7.11413 5
      vertex -32.206 5.83494 0
      vertex -32.206 5.83494 5
    endloop
  endfacet
  facet normal 0 0 -1
    outer loop
      vertex -34.6247 9.99845 0
      vertex -32.206 5.83494 0
      vertex -33.2794 7.11413 0
    endloop
  endfacet
  facet normal 0 1 0
    outer loop
      vertex -34.6247 9.99845 0
      vertex -34.6247 9.99845 5
      vertex 58.3753 9.99845 0
    endloop
  endfacet
  facet normal 0 0 -1
    outer loop
      vertex -34.6247 9.99845 0
      vertex 58.3753 9.99845 0
      vertex -32.206 5.83494 0
    endloop
  endfacet
  facet normal -0 0 1
    outer loop
      vertex -34.6247 9.99845 5
      vertex -32.206 5.83494 5
      vertex 58.3753 9.99845 5
    endloop
  endfacet
  facet normal 0 0 1
    outer loop
      vertex -34.6247 9.99845 5
      vertex -33.2794 7.11413 5
      vertex -32.206 5.83494 5
    endloop
  endfacet
  facet normal 0 1 -0
    outer loop
      vertex -34.6247 9.99845 5
      vertex 58.3753 9.99845 5
      vertex 58.3753 9.99845 0
    endloop
  endfacet
  facet normal 0 0 -1
    outer loop
      vertex -34.9239 2.5959 0
      vertex -33.2794 2.88587 0
      vertex 58.0761 2.5959 0
    endloop
  endfacet
  facet normal -0.173648 0.984808 0
    outer loop
      vertex -34.9239 2.5959 0
      vertex -34.9239 2.5959 5
      vertex -33.2794 2.88587 0
    endloop
  endfacet
  facet normal 0 0 -1
    outer loop
      vertex -34.9239 2.5959 0
      vertex 58.0761 2.5959 0
      vertex 74.99 0 0
    endloop
  endfacet
  facet normal -0.173648 0.984808 0
    outer loop
      vertex -34.9239 2.5959 5
      vertex -33.2794 2.88587 5
      vertex -33.2794 2.88587 0
    endloop
  endfacet
  facet normal -0.173648 -0.984808 -0
    outer loop
      vertex -34.9239 7.4041 0
      vertex -33.2794 7.11413 0
      vertex -33.2794 7.11413 5
    endloop
  endfacet
  facet normal -0.173648 -0.984808 0
    outer loop
      vertex -34.9239 7.4041 0
      vertex -33.2794 7.11413 5
      vertex -34.9239 7.4041 5
    endloop
  endfacet
  facet normal 0 0 -1
    outer loop
      vertex -34.9239 7.4041 0
      vertex -34.6247 9.99845 0
      vertex -33.2794 7.11413 0
    endloop
  endfacet
  facet normal 0 0 1
    outer loop
      vertex -34.9239 7.4041 5
      vertex -33.2794 7.11413 5
      vertex -34.6247 9.99845 5
    endloop
  endfacet
  facet normal 0 0 -1
    outer loop
      vertex -35.1217 9.9612 0
      vertex -34.6247 9.99845 0
      vertex -34.9239 7.4041 0
    endloop
  endfacet
  facet normal -0.0747293 0.997204 0
    outer loop
      vertex -35.1217 9.9612 0
      vertex -35.1217 9.9612 5
      vertex -34.6247 9.99845 0
    endloop
  endfacet
  facet normal -0.0747293 0.997204 0
    outer loop
      vertex -35.1217 9.9612 5
      vertex -34.6247 9.99845 5
      vertex -34.6247 9.99845 0
    endloop
  endfacet
  facet normal -0 0 1
    outer loop
      vertex -35.1217 9.9612 5
      vertex -34.9239 7.4041 5
      vertex -34.6247 9.99845 5
    endloop
  endfacet
  facet normal 0 0 -1
    outer loop
      vertex -35.6126 9.87464 0
      vertex -35.1217 9.9612 0
      vertex -34.9239 7.4041 0
    endloop
  endfacet
  facet normal -0.173649 0.984808 0
    outer loop
      vertex -35.6126 9.87464 0
      vertex -35.6126 9.87464 5
      vertex -35.1217 9.9612 0
    endloop
  endfacet
  facet normal -0 0 1
    outer loop
      vertex -35.6126 9.87464 5
      vertex -34.9239 7.4041 5
      vertex -35.1217 9.9612 5
    endloop
  endfacet
  facet normal -0.173649 0.984808 0
    outer loop
      vertex -35.6126 9.87464 5
      vertex -35.1217 9.9612 5
      vertex -35.1217 9.9612 0
    endloop
  endfacet
  facet normal 0 0 -1
    outer loop
      vertex -36.0924 9.73964 0
      vertex -35.6126 9.87464 0
      vertex -34.9239 7.4041 0
    endloop
  endfacet
  facet normal -0.270839 0.962625 0
    outer loop
      vertex -36.0924 9.73964 0
      vertex -36.0924 9.73964 5
      vertex -35.6126 9.87464 0
    endloop
  endfacet
  facet normal -0 0 1
    outer loop
      vertex -36.0924 9.73964 5
      vertex -34.9239 7.4041 5
      vertex -35.6126 9.87464 5
    endloop
  endfacet
  facet normal -0.270839 0.962625 0
    outer loop
      vertex -36.0924 9.73964 5
      vertex -35.6126 9.87464 5
      vertex -35.6126 9.87464 0
    endloop
  endfacet
  facet normal 0.5 0.866025 0
    outer loop
      vertex -36.3701 3.43083 0
      vertex -36.3701 3.43083 5
      vertex -34.9239 2.5959 0
    endloop
  endfacet
  facet normal 0.5 0.866025 -0
    outer loop
      vertex -36.3701 3.43083 5
      vertex -34.9239 2.5959 5
      vertex -34.9239 2.5959 0
    endloop
  endfacet
  facet normal 0.5 -0.866025 0
    outer loop
      vertex -36.3701 6.56917 0
      vertex -34.9239 7.4041 0
      vertex -34.9239 7.4041 5
    endloop
  endfacet
  facet normal 0.5 -0.866025 0
    outer loop
      vertex -36.3701 6.56917 0
      vertex -34.9239 7.4041 5
      vertex -36.3701 6.56917 5
    endloop
  endfacet
  facet normal 0 0 -1
    outer loop
      vertex -36.5564 9.55753 0
      vertex -36.0924 9.73964 0
      vertex -34.9239 7.4041 0
    endloop
  endfacet
  facet normal -0.365343 0.930873 0
    outer loop
      vertex -36.5564 9.55753 0
      vertex -36.5564 9.55753 5
      vertex -36.0924 9.73964 0
    endloop
  endfacet
  facet normal -0 0 1
    outer loop
      vertex -36.5564 9.55753 5
      vertex -34.9239 7.4041 5
      vertex -36.0924 9.73964 5
    endloop
  endfacet
  facet normal -0.365343 0.930873 0
    outer loop
      vertex -36.5564 9.55753 5
      vertex -36.0924 9.73964 5
      vertex -36.0924 9.73964 0
    endloop
  endfacet
  facet normal 0.939692 0.342021 0
    outer loop
      vertex -36.9412 5 0
      vertex -36.3701 3.43083 5
      vertex -36.3701 3.43083 0
    endloop
  endfacet
  facet normal 0.939692 -0.342021 0
    outer loop
      vertex -36.9412 5 0
      vertex -36.3701 6.56917 0
      vertex -36.9412 5 5
    endloop
  endfacet
  facet normal 0.939692 0.342021 0
    outer loop
      vertex -36.9412 5 0
      vertex -36.9412 5 5
      vertex -36.3701 3.43083 5
    endloop
  endfacet
  facet normal 0.939692 -0.342021 0
    outer loop
      vertex -36.9412 5 5
      vertex -36.3701 6.56917 0
      vertex -36.3701 6.56917 5
    endloop
  endfacet
  facet normal 0 0 -1
    outer loop
      vertex -37 9.33013 0
      vertex -34.9239 7.4041 0
      vertex -36.3701 6.56917 0
    endloop
  endfacet
  facet normal 0 0 -1
    outer loop
      vertex -37 9.33013 0
      vertex -36.5564 9.55753 0
      vertex -34.9239 7.4041 0
    endloop
  endfacet
  facet normal -0.456209 0.889873 0
    outer loop
      vertex -37 9.33013 0
      vertex -37 9.33013 5
      vertex -36.5564 9.55753 0
    endloop
  endfacet
  facet normal -0 0 1
    outer loop
      vertex -37 9.33013 5
      vertex -34.9239 7.4041 5
      vertex -36.5564 9.55753 5
    endloop
  endfacet
  facet normal 0 0 1
    outer loop
      vertex -37 9.33013 5
      vertex -36.3701 6.56917 5
      vertex -34.9239 7.4041 5
    endloop
  endfacet
  facet normal -0.456209 0.889873 0
    outer loop
      vertex -37 9.33013 5
      vertex -36.5564 9.55753 5
      vertex -36.5564 9.55753 0
    endloop
  endfacet
  facet normal 0 0 -1
    outer loop
      vertex -37.4187 9.05969 0
      vertex -37 9.33013 0
      vertex -36.3701 6.56917 0
    endloop
  endfacet
  facet normal -0.542548 0.840025 0
    outer loop
      vertex -37.4187 9.05969 0
      vertex -37.4187 9.05969 5
      vertex -37 9.33013 0
    endloop
  endfacet
  facet normal -0 0 1
    outer loop
      vertex -37.4187 9.05969 5
      vertex -36.3701 6.56917 5
      vertex -37 9.33013 5
    endloop
  endfacet
  facet normal -0.542548 0.840025 0
    outer loop
      vertex -37.4187 9.05969 5
      vertex -37 9.33013 5
      vertex -37 9.33013 0
    endloop
  endfacet
  facet normal 0 0 -1
    outer loop
      vertex -37.8084 8.74891 0
      vertex -37.4187 9.05969 0
      vertex -36.3701 6.56917 0
    endloop
  endfacet
  facet normal -0.623488 0.781833 0
    outer loop
      vertex -37.8084 8.74891 0
      vertex -37.8084 8.74891 5
      vertex -37.4187 9.05969 0
    endloop
  endfacet
  facet normal -0 0 1
    outer loop
      vertex -37.8084 8.74891 5
      vertex -36.3701 6.56917 5
      vertex -37.4187 9.05969 5
    endloop
  endfacet
  facet normal -0.623488 0.781833 0
    outer loop
      vertex -37.8084 8.74891 5
      vertex -37.4187 9.05969 5
      vertex -37.4187 9.05969 0
    endloop
  endfacet
  facet normal 0 0 -1
    outer loop
      vertex -38.1653 8.40086 0
      vertex -37.8084 8.74891 0
      vertex -36.3701 6.56917 0
    endloop
  endfacet
  facet normal -0.698236 0.715868 0
    outer loop
      vertex -38.1653 8.40086 0
      vertex -38.1653 8.40086 5
      vertex -37.8084 8.74891 0
    endloop
  endfacet
  facet normal -0 0 1
    outer loop
      vertex -38.1653 8.40086 5
      vertex -36.3701 6.56917 5
      vertex -37.8084 8.74891 5
    endloop
  endfacet
  facet normal -0.698236 0.715868 0
    outer loop
      vertex -38.1653 8.40086 5
      vertex -37.8084 8.74891 5
      vertex -37.8084 8.74891 0
    endloop
  endfacet
  facet normal 0 0 -1
    outer loop
      vertex -38.4857 8.01902 0
      vertex -38.1653 8.40086 0
      vertex -36.3701 6.56917 0
    endloop
  endfacet
  facet normal -0.766044 0.642789 0
    outer loop
      vertex -38.4857 8.01902 0
      vertex -38.1653 8.40086 5
      vertex -38.1653 8.40086 0
    endloop
  endfacet
  facet normal -0.766044 0.642789 0
    outer loop
      vertex -38.4857 8.01902 0
      vertex -38.4857 8.01902 5
      vertex -38.1653 8.40086 5
    endloop
  endfacet
  facet normal -0 0 1
    outer loop
      vertex -38.4857 8.01902 5
      vertex -36.3701 6.56917 5
      vertex -38.1653 8.40086 5
    endloop
  endfacet
  facet normal 0 0 -1
    outer loop
      vertex -38.7665 7.60718 0
      vertex -38.4857 8.01902 0
      vertex -36.3701 6.56917 0
    endloop
  endfacet
  facet normal -0.826242 0.563315 0
    outer loop
      vertex -38.7665 7.60718 0
      vertex -38.4857 8.01902 5
      vertex -38.4857 8.01902 0
    endloop
  endfacet
  facet normal -0.826242 0.563315 0
    outer loop
      vertex -38.7665 7.60718 0
      vertex -38.7665 7.60718 5
      vertex -38.4857 8.01902 5
    endloop
  endfacet
  facet normal -0 0 1
    outer loop
      vertex -38.7665 7.60718 5
      vertex -36.3701 6.56917 5
      vertex -38.4857 8.01902 5
    endloop
  endfacet
  facet normal 0 0 -1
    outer loop
      vertex -39.0048 7.16942 0
      vertex -38.7665 7.60718 0
      vertex -36.3701 6.56917 0
    endloop
  endfacet
  facet normal -0.87822 0.478257 0
    outer loop
      vertex -39.0048 7.16942 0
      vertex -38.7665 7.60718 5
      vertex -38.7665 7.60718 0
    endloop
  endfacet
  facet normal -0.87822 0.478257 0
    outer loop
      vertex -39.0048 7.16942 0
      vertex -39.0048 7.16942 5
      vertex -38.7665 7.60718 5
    endloop
  endfacet
  facet normal -0 0 1
    outer loop
      vertex -39.0048 7.16942 5
      vertex -36.3701 6.56917 5
      vertex -38.7665 7.60718 5
    endloop
  endfacet
  facet normal 0 0 -1
    outer loop
      vertex -39.1985 6.7101 0
      vertex -36.3701 6.56917 0
      vertex -36.9412 5 0
    endloop
  endfacet
  facet normal 0 0 -1
    outer loop
      vertex -39.1985 6.7101 0
      vertex -39.0048 7.16942 0
      vertex -36.3701 6.56917 0
    endloop
  endfacet
  facet normal -0.921476 0.388435 0
    outer loop
      vertex -39.1985 6.7101 0
      vertex -39.0048 7.16942 5
      vertex -39.0048 7.16942 0
    endloop
  endfacet
  facet normal -0.921476 0.388435 0
    outer loop
      vertex -39.1985 6.7101 0
      vertex -39.1985 6.7101 5
      vertex -39.0048 7.16942 5
    endloop
  endfacet
  facet normal -0 0 1
    outer loop
      vertex -39.1985 6.7101 5
      vertex -36.3701 6.56917 5
      vertex -39.0048 7.16942 5
    endloop
  endfacet
  facet normal 0 0 1
    outer loop
      vertex -39.1985 6.7101 5
      vertex -36.9412 5 5
      vertex -36.3701 6.56917 5
    endloop
  endfacet
  facet normal 0 0 -1
    outer loop
      vertex -39.3454 6.23379 0
      vertex -39.1985 6.7101 0
      vertex -36.9412 5 0
    endloop
  endfacet
  facet normal -0.955573 0.294755 0
    outer loop
      vertex -39.3454 6.23379 0
      vertex -39.1985 6.7101 5
      vertex -39.1985 6.7101 0
    endloop
  endfacet
  facet normal -0.955573 0.294755 0
    outer loop
      vertex -39.3454 6.23379 0
      vertex -39.3454 6.23379 5
      vertex -39.1985 6.7101 5
    endloop
  endfacet
  facet normal -0 0 1
    outer loop
      vertex -39.3454 6.23379 5
      vertex -36.9412 5 5
      vertex -39.1985 6.7101 5
    endloop
  endfacet
  facet normal 0 0 -1
    outer loop
      vertex -39.4442 5.74521 0
      vertex -39.3454 6.23379 0
      vertex -36.9412 5 0
    endloop
  endfacet
  facet normal -0.980173 0.198143 0
    outer loop
      vertex -39.4442 5.74521 0
      vertex -39.3454 6.23379 5
      vertex -39.3454 6.23379 0
    endloop
  endfacet
  facet normal -0.980173 0.198143 0
    outer loop
      vertex -39.4442 5.74521 0
      vertex -39.4442 5.74521 5
      vertex -39.3454 6.23379 5
    endloop
  endfacet
  facet normal -0 0 1
    outer loop
      vertex -39.4442 5.74521 5
      vertex -36.9412 5 5
      vertex -39.3454 6.23379 5
    endloop
  endfacet
  facet normal 1 -0 0
    outer loop
      vertex -39.49 0 12
      vertex -39.49 5 5
      vertex -39.49 5 12
    endloop
  endfacet
  facet normal 0 0 1
    outer loop
      vertex -39.49 0 5
      vertex -33.2794 2.88587 5
      vertex -34.9239 2.5959 5
    endloop
  endfacet
  facet normal 0 0 1
    outer loop
      vertex -39.49 0 5
      vertex -34.9239 2.5959 5
      vertex -36.3701 3.43083 5
    endloop
  endfacet
  facet normal 0 0 1
    outer loop
      vertex -39.49 0 5
      vertex -36.3701 3.43083 5
      vertex -39.49 5 5
    endloop
  endfacet
  facet normal 1 0 0
    outer loop
      vertex -39.49 0 5
      vertex -39.49 5 5
      vertex -39.49 0 12
    endloop
  endfacet
  facet normal 0 0 1
    outer loop
      vertex -39.49 0 5
      vertex 63.49 0 5
      vertex -33.2794 2.88587 5
    endloop
  endfacet
  facet normal 0 0 1
    outer loop
      vertex -39.49 5 5
      vertex -36.3701 3.43083 5
      vertex -36.9412 5 5
    endloop
  endfacet
  facet normal 0 0 -1
    outer loop
      vertex -39.4938 5.24923 0
      vertex -39.4442 5.74521 0
      vertex -36.9412 5 0
    endloop
  endfacet
  facet normal -0.995031 0.0995653 0
    outer loop
      vertex -39.4938 5.24923 0
      vertex -39.4442 5.74521 5
      vertex -39.4442 5.74521 0
    endloop
  endfacet
  facet normal -0.995031 0.0995653 0
    outer loop
      vertex -39.4938 5.24923 0
      vertex -39.4938 5.24923 5
      vertex -39.4442 5.74521 5
    endloop
  endfacet
  facet normal -0 0 1
    outer loop
      vertex -39.4938 5.24923 5
      vertex -36.9412 5 5
      vertex -39.4442 5.74521 5
    endloop
  endfacet
  facet normal 0 0 1
    outer loop
      vertex -39.4938 5.24923 5
      vertex -39.49 5 5
      vertex -36.9412 5 5
    endloop
  endfacet
  facet normal 0 0 -1
    outer loop
      vertex -39.5 5 0
      vertex -36.9412 5 0
      vertex -36.3701 3.43083 0
    endloop
  endfacet
  facet normal 0 0 -1
    outer loop
      vertex -39.5 5 0
      vertex -39.4938 5.24923 0
      vertex -36.9412 5 0
    endloop
  endfacet
  facet normal -0.999689 0.0249411 0
    outer loop
      vertex -39.5 5 0
      vertex -39.4938 5.24923 5
      vertex -39.4938 5.24923 0
    endloop
  endfacet
  facet normal -0.999689 0.0249411 0
    outer loop
      vertex -39.5 5 0
      vertex -39.5 5 5
      vertex -39.4938 5.24923 5
    endloop
  endfacet
  facet normal 0 1 0
    outer loop
      vertex -39.5 5 5
      vertex -39.49 5 12
      vertex -39.49 5 5
    endloop
  endfacet
  facet normal 0 0 1
    outer loop
      vertex -39.5 5 5
      vertex -39.49 5 5
      vertex -39.4938 5.24923 5
    endloop
  endfacet
  facet normal 0 -1 0
    outer loop
      vertex -42.9566 0 5.51572
      vertex -39.49 0 5
      vertex -42.9 0 6
    endloop
  endfacet
  facet normal -0.993237 0 0.116104
    outer loop
      vertex -42.9566 0 5.51572
      vertex -42.9 0 6
      vertex -42.9 5 6
    endloop
  endfacet
  facet normal -0.993237 0 0.116104
    outer loop
      vertex -42.9566 0 5.51572
      vertex -42.9 5 6
      vertex -42.9566 5 5.51572
    endloop
  endfacet
  facet normal 0 -1 0
    outer loop
      vertex -42.9566 0 6.48428
      vertex -42.9 0 6
      vertex -39.49 0 5
    endloop
  endfacet
  facet normal -0.993237 -0 -0.116104
    outer loop
      vertex -42.9566 0 6.48428
      vertex -42.9566 5 6.48428
      vertex -42.9 0 6
    endloop
  endfacet
  facet normal 0 1 0
    outer loop
      vertex -42.9566 5 5.51572
      vertex -42.9 5 6
      vertex -39.5 5 5
    endloop
  endfacet
  facet normal 0 1 0
    outer loop
      vertex -42.9566 5 6.48428
      vertex -39.5 5 5
      vertex -42.9 5 6
    endloop
  endfacet
  facet normal -0.993237 0 -0.116104
    outer loop
      vertex -42.9566 5 6.48428
      vertex -42.9 5 6
      vertex -42.9 0 6
    endloop
  endfacet
  facet normal 0 -1 0
    outer loop
      vertex -43.1234 0 5.05753
      vertex -39.49 0 5
      vertex -42.9566 0 5.51572
    endloop
  endfacet
  facet normal -0.939696 0 0.342012
    outer loop
      vertex -43.1234 0 5.05753
      vertex -42.9566 0 5.51572
      vertex -42.9566 5 5.51572
    endloop
  endfacet
  facet normal -0.939696 0 0.342012
    outer loop
      vertex -43.1234 0 5.05753
      vertex -42.9566 5 5.51572
      vertex -43.1234 5 5.05753
    endloop
  endfacet
  facet normal 0 -1 0
    outer loop
      vertex -43.1234 0 6.94247
      vertex -39.49 0 5
      vertex -39.49 0 12
    endloop
  endfacet
  facet normal 0 -1 0
    outer loop
      vertex -43.1234 0 6.94247
      vertex -42.9566 0 6.48428
      vertex -39.49 0 5
    endloop
  endfacet
  facet normal -0.939696 -0 -0.342012
    outer loop
      vertex -43.1234 0 6.94247
      vertex -43.1234 5 6.94247
      vertex -42.9566 0 6.48428
    endloop
  endfacet
  facet normal 0 1 0
    outer loop
      vertex -43.1234 5 5.05753
      vertex -42.9566 5 5.51572
      vertex -39.5 5 5
    endloop
  endfacet
  facet normal 0 1 -0
    outer loop
      vertex -43.1234 5 6.94247
      vertex -39.49 5 12
      vertex -39.5 5 5
    endloop
  endfacet
  facet normal 0 1 0
    outer loop
      vertex -43.1234 5 6.94247
      vertex -39.5 5 5
      vertex -42.9566 5 6.48428
    endloop
  endfacet
  facet normal -0.939696 0 -0.342012
    outer loop
      vertex -43.1234 5 6.94247
      vertex -42.9566 5 6.48428
      vertex -42.9566 0 6.48428
    endloop
  endfacet
  facet normal 0 -1 0
    outer loop
      vertex -43.3913 0 4.65015
      vertex -39.49 0 5
      vertex -43.1234 0 5.05753
    endloop
  endfacet
  facet normal -0.835496 0 0.549497
    outer loop
      vertex -43.3913 0 4.65015
      vertex -43.1234 0 5.05753
      vertex -43.1234 5 5.05753
    endloop
  endfacet
  facet normal -0.835496 0 0.549497
    outer loop
      vertex -43.3913 0 4.65015
      vertex -43.1234 5 5.05753
      vertex -43.3913 5 4.65015
    endloop
  endfacet
  facet normal 0 -1 0
    outer loop
      vertex -43.3913 0 7.34985
      vertex -43.1234 0 6.94247
      vertex -39.49 0 12
    endloop
  endfacet
  facet normal -0.835496 -0 -0.549497
    outer loop
      vertex -43.3913 0 7.34985
      vertex -43.3913 5 7.34985
      vertex -43.1234 0 6.94247
    endloop
  endfacet
  facet normal 0 1 -0
    outer loop
      vertex -43.3913 5 4.65015
      vertex -39.5 5 5
      vertex -39.5 5 0
    endloop
  endfacet
  facet normal 0 1 0
    outer loop
      vertex -43.3913 5 4.65015
      vertex -43.1234 5 5.05753
      vertex -39.5 5 5
    endloop
  endfacet
  facet normal 0 1 0
    outer loop
      vertex -43.3913 5 7.34985
      vertex -39.49 5 12
      vertex -43.1234 5 6.94247
    endloop
  endfacet
  facet normal -0.835496 0 -0.549497
    outer loop
      vertex -43.3913 5 7.34985
      vertex -43.1234 5 6.94247
      vertex -43.1234 0 6.94247
    endloop
  endfacet
  facet normal 0 -1 0
    outer loop
      vertex -43.5151 0 7.48491
      vertex -43.3913 0 7.34985
      vertex -39.49 0 12
    endloop
  endfacet
  facet normal 0 1 0
    outer loop
      vertex -43.5151 5 7.48491
      vertex -39.49 5 12
      vertex -43.3913 5 7.34985
    endloop
  endfacet
  facet normal 0 -1 0
    outer loop
      vertex -43.5245 0 7.47551
      vertex -43.3913 0 7.34985
      vertex -43.5151 0 7.48491
    endloop
  endfacet
  facet normal -0.686266 0 -0.72735
    outer loop
      vertex -43.5245 0 7.47551
      vertex -43.3913 5 7.34985
      vertex -43.3913 0 7.34985
    endloop
  endfacet
  facet normal -0.707107 0 0.707107
    outer loop
      vertex -43.5245 0 7.47551
      vertex -43.5151 0 7.48491
      vertex -43.5151 5 7.48491
    endloop
  endfacet
  facet normal -0.707107 0 0.707107
    outer loop
      vertex -43.5245 0 7.47551
      vertex -43.5151 5 7.48491
      vertex -43.5245 5 7.47551
    endloop
  endfacet
  facet normal -0.686266 0 -0.72735
    outer loop
      vertex -43.5245 0 7.47551
      vertex -43.5245 5 7.47551
      vertex -43.3913 5 7.34985
    endloop
  endfacet
  facet normal 0 1 0
    outer loop
      vertex -43.5245 5 7.47551
      vertex -43.5151 5 7.48491
      vertex -43.3913 5 7.34985
    endloop
  endfacet
  facet normal 0 -1 0
    outer loop
      vertex -43.746 0 4.31555
      vertex -39.49 0 5
      vertex -43.3913 0 4.65015
    endloop
  endfacet
  facet normal -0.686231 0 0.727384
    outer loop
      vertex -43.746 0 4.31555
      vertex -43.3913 0 4.65015
      vertex -43.746 5 4.31555
    endloop
  endfacet
  facet normal -0.686231 0 0.727384
    outer loop
      vertex -43.746 5 4.31555
      vertex -43.3913 0 4.65015
      vertex -43.3913 5 4.65015
    endloop
  endfacet
  facet normal 0 1 0
    outer loop
      vertex -43.746 5 4.31555
      vertex -43.3913 5 4.65015
      vertex -39.5 5 0
    endloop
  endfacet
  facet normal 0 -1 0
    outer loop
      vertex -44.1302 0 8.09999
      vertex -43.5151 0 7.48491
      vertex -39.49 0 12
    endloop
  endfacet
  facet normal -0.707107 -0 -0.707107
    outer loop
      vertex -44.1302 0 8.09999
      vertex -44.1302 5 8.09999
      vertex -43.5151 0 7.48491
    endloop
  endfacet
  facet normal 0 1 0
    outer loop
      vertex -44.1302 5 8.09999
      vertex -39.49 5 12
      vertex -43.5151 5 7.48491
    endloop
  endfacet
  facet normal -0.707107 0 -0.707107
    outer loop
      vertex -44.1302 5 8.09999
      vertex -43.5151 5 7.48491
      vertex -43.5151 0 7.48491
    endloop
  endfacet
  facet normal 0 -1 0
    outer loop
      vertex -44.1682 0 4.07175
      vertex -39.49 0 5
      vertex -43.746 0 4.31555
    endloop
  endfacet
  facet normal -0.50001 0 0.86602
    outer loop
      vertex -44.1682 0 4.07175
      vertex -43.746 0 4.31555
      vertex -44.1682 5 4.07175
    endloop
  endfacet
  facet normal -0.50001 0 0.86602
    outer loop
      vertex -44.1682 5 4.07175
      vertex -43.746 0 4.31555
      vertex -43.746 5 4.31555
    endloop
  endfacet
  facet normal 0 1 0
    outer loop
      vertex -44.1682 5 4.07175
      vertex -43.746 5 4.31555
      vertex -39.5 5 0
    endloop
  endfacet
  facet normal -0.286785 0 0.957995
    outer loop
      vertex -44.6353 0 3.93191
      vertex -44.1682 0 4.07175
      vertex -44.6353 5 3.93191
    endloop
  endfacet
  facet normal -0.286785 0 0.957995
    outer loop
      vertex -44.6353 5 3.93191
      vertex -44.1682 0 4.07175
      vertex -44.1682 5 4.07175
    endloop
  endfacet
  facet normal 0 1 0
    outer loop
      vertex -44.6353 5 3.93191
      vertex -44.1682 5 4.07175
      vertex -39.5 5 0
    endloop
  endfacet
  facet normal -0.058146 0 0.998308
    outer loop
      vertex -45.1221 0 3.90356
      vertex -44.6353 0 3.93191
      vertex -45.1221 5 3.90356
    endloop
  endfacet
  facet normal -0.058146 0 0.998308
    outer loop
      vertex -45.1221 5 3.90356
      vertex -44.6353 0 3.93191
      vertex -44.6353 5 3.93191
    endloop
  endfacet
  facet normal 0 1 0
    outer loop
      vertex -45.1221 5 3.90356
      vertex -44.6353 5 3.93191
      vertex -39.5 5 0
    endloop
  endfacet
  facet normal 0.173653 0 0.984807
    outer loop
      vertex -45.6023 0 3.98823
      vertex -45.1221 0 3.90356
      vertex -45.6023 5 3.98823
    endloop
  endfacet
  facet normal 0.173653 0 0.984807
    outer loop
      vertex -45.6023 5 3.98823
      vertex -45.1221 0 3.90356
      vertex -45.1221 5 3.90356
    endloop
  endfacet
  facet normal 0 -1 0
    outer loop
      vertex -45.8698 0 8.09999
      vertex -44.1302 0 8.09999
      vertex -39.49 0 12
    endloop
  endfacet
  facet normal 0 0 -1
    outer loop
      vertex -45.8698 0 8.09999
      vertex -44.1302 5 8.09999
      vertex -44.1302 0 8.09999
    endloop
  endfacet
  facet normal -0 0 -1
    outer loop
      vertex -45.8698 0 8.09999
      vertex -45.8698 5 8.09999
      vertex -44.1302 5 8.09999
    endloop
  endfacet
  facet normal 0 1 0
    outer loop
      vertex -45.8698 5 8.09999
      vertex -39.49 5 12
      vertex -44.1302 5 8.09999
    endloop
  endfacet
  facet normal 0.396067 0 0.918221
    outer loop
      vertex -46.05 0 4.18135
      vertex -45.6023 0 3.98823
      vertex -46.05 5 4.18135
    endloop
  endfacet
  facet normal 0.396067 0 0.918221
    outer loop
      vertex -46.05 5 4.18135
      vertex -45.6023 0 3.98823
      vertex -45.6023 5 3.98823
    endloop
  endfacet
  facet normal 0.597152 0 0.802128
    outer loop
      vertex -46.4411 0 4.47252
      vertex -46.05 0 4.18135
      vertex -46.4411 5 4.47252
    endloop
  endfacet
  facet normal 0.597152 0 0.802128
    outer loop
      vertex -46.4411 5 4.47252
      vertex -46.05 0 4.18135
      vertex -46.05 5 4.18135
    endloop
  endfacet
  facet normal 0.707107 0 0.707107
    outer loop
      vertex -46.4849 0 7.48491
      vertex -46.4805 0 7.48051
      vertex -46.4805 5 7.48051
    endloop
  endfacet
  facet normal 0.707107 -0 0.707107
    outer loop
      vertex -46.4849 0 7.48491
      vertex -46.4805 5 7.48051
      vertex -46.4849 5 7.48491
    endloop
  endfacet
  facet normal 0.707107 0 -0.707107
    outer loop
      vertex -46.4849 0 7.48491
      vertex -46.4849 5 7.48491
      vertex -45.8698 0 8.09999
    endloop
  endfacet
  facet normal 0.707107 0 -0.707107
    outer loop
      vertex -46.4849 5 7.48491
      vertex -45.8698 5 8.09999
      vertex -45.8698 0 8.09999
    endloop
  endfacet
  facet normal 0.766049 0 0.642782
    outer loop
      vertex -46.7545 0 4.84604
      vertex -46.4411 0 4.47252
      vertex -46.4411 5 4.47252
    endloop
  endfacet
  facet normal 0.766049 -0 0.642782
    outer loop
      vertex -46.7545 0 4.84604
      vertex -46.4411 5 4.47252
      vertex -46.7545 5 4.84604
    endloop
  endfacet
  facet normal 0 -1 -0
    outer loop
      vertex -46.7545 0 7.15396
      vertex -46.4805 0 7.48051
      vertex -46.4849 0 7.48491
    endloop
  endfacet
  facet normal 0.766055 0 -0.642776
    outer loop
      vertex -46.7545 0 7.15396
      vertex -46.7545 5 7.15396
      vertex -46.4805 0 7.48051
    endloop
  endfacet
  facet normal 0.766055 0 -0.642776
    outer loop
      vertex -46.7545 5 7.15396
      vertex -46.4805 5 7.48051
      vertex -46.4805 0 7.48051
    endloop
  endfacet
  facet normal 0 1 0
    outer loop
      vertex -46.7545 5 7.15396
      vertex -46.4849 5 7.48491
      vertex -46.4805 5 7.48051
    endloop
  endfacet
  facet normal 0.893637 0 0.44879
    outer loop
      vertex -46.9733 0 5.28177
      vertex -46.7545 0 4.84604
      vertex -46.7545 5 4.84604
    endloop
  endfacet
  facet normal 0.893637 -0 0.44879
    outer loop
      vertex -46.9733 0 5.28177
      vertex -46.7545 5 4.84604
      vertex -46.9733 5 5.28177
    endloop
  endfacet
  facet normal 0.893637 0 -0.44879
    outer loop
      vertex -46.9733 0 6.71823
      vertex -46.9733 5 6.71823
      vertex -46.7545 0 7.15396
    endloop
  endfacet
  facet normal 0.893637 0 -0.44879
    outer loop
      vertex -46.9733 5 6.71823
      vertex -46.7545 5 7.15396
      vertex -46.7545 0 7.15396
    endloop
  endfacet
  facet normal 0.973039 0 0.23064
    outer loop
      vertex -47.0858 0 5.75621
      vertex -46.9733 0 5.28177
      vertex -46.9733 5 5.28177
    endloop
  endfacet
  facet normal 0.973039 -0 0.23064
    outer loop
      vertex -47.0858 0 5.75621
      vertex -46.9733 5 5.28177
      vertex -47.0858 5 5.75621
    endloop
  endfacet
  facet normal 1 0 0
    outer loop
      vertex -47.0858 0 5.75621
      vertex -47.0858 5 5.75621
      vertex -47.0858 0 6.24379
    endloop
  endfacet
  facet normal 1 -0 0
    outer loop
      vertex -47.0858 0 6.24379
      vertex -47.0858 5 5.75621
      vertex -47.0858 5 6.24379
    endloop
  endfacet
  facet normal 0.973039 0 -0.23064
    outer loop
      vertex -47.0858 0 6.24379
      vertex -47.0858 5 6.24379
      vertex -46.9733 0 6.71823
    endloop
  endfacet
  facet normal 0.973039 0 -0.23064
    outer loop
      vertex -47.0858 5 6.24379
      vertex -46.9733 5 6.71823
      vertex -46.9733 0 6.71823
    endloop
  endfacet
  facet normal 0 0 -1
    outer loop
      vertex -50.99 0 0
      vertex -34.9239 2.5959 0
      vertex 74.99 0 0
    endloop
  endfacet
  facet normal 0 0 -1
    outer loop
      vertex -50.99 0 0
      vertex -36.3701 3.43083 0
      vertex -34.9239 2.5959 0
    endloop
  endfacet
  facet normal 0 -1 0
    outer loop
      vertex -50.99 0 0
      vertex -39.49 0 5
      vertex -44.1682 0 4.07175
    endloop
  endfacet
  facet normal -0 0 -1
    outer loop
      vertex -50.99 0 0
      vertex -39.5 5 0
      vertex -36.3701 3.43083 0
    endloop
  endfacet
  facet normal 0 -1 0
    outer loop
      vertex -50.99 0 0
      vertex -44.1682 0 4.07175
      vertex -44.6353 0 3.93191
    endloop
  endfacet
  facet normal 0 -1 0
    outer loop
      vertex -50.99 0 0
      vertex -44.6353 0 3.93191
      vertex -45.1221 0 3.90356
    endloop
  endfacet
  facet normal 0 -1 -0
    outer loop
      vertex -50.99 0 0
      vertex -45.1221 0 3.90356
      vertex -45.6023 0 3.98823
    endloop
  endfacet
  facet normal 0 -1 -0
    outer loop
      vertex -50.99 0 0
      vertex -45.6023 0 3.98823
      vertex -46.05 0 4.18135
    endloop
  endfacet
  facet normal 0 -1 -0
    outer loop
      vertex -50.99 0 0
      vertex -46.05 0 4.18135
      vertex -46.4411 0 4.47252
    endloop
  endfacet
  facet normal 0 -1 -0
    outer loop
      vertex -50.99 0 0
      vertex -46.4411 0 4.47252
      vertex -46.7545 0 4.84604
    endloop
  endfacet
  facet normal 0 -1 -0
    outer loop
      vertex -50.99 0 0
      vertex -46.7545 0 4.84604
      vertex -46.9733 0 5.28177
    endloop
  endfacet
  facet normal 0 -1 -0
    outer loop
      vertex -50.99 0 0
      vertex -46.9733 0 5.28177
      vertex -47.0858 0 5.75621
    endloop
  endfacet
  facet normal 0 -1 0
    outer loop
      vertex -50.99 0 0
      vertex -47.0858 0 5.75621
      vertex -50.99 0 12
    endloop
  endfacet
  facet normal -1 -0 0
    outer loop
      vertex -50.99 0 0
      vertex -50.99 0 12
      vertex -50.99 5 12
    endloop
  endfacet
  facet normal -0 0 -1
    outer loop
      vertex -50.99 0 0
      vertex -50.99 5 0
      vertex -39.5 5 0
    endloop
  endfacet
  facet normal -1 0 0
    outer loop
      vertex -50.99 0 0
      vertex -50.99 5 12
      vertex -50.99 5 0
    endloop
  endfacet
  facet normal 0 -1 -0
    outer loop
      vertex -50.99 0 0
      vertex 63.49 0 5
      vertex -39.49 0 5
    endloop
  endfacet
  facet normal 0 -1 0
    outer loop
      vertex -50.99 0 0
      vertex 74.99 0 0
      vertex 63.49 0 5
    endloop
  endfacet
  facet normal 0 0 1
    outer loop
      vertex -50.99 0 12
      vertex -39.49 0 12
      vertex -50.99 5 12
    endloop
  endfacet
  facet normal 0 -1 0
    outer loop
      vertex -50.99 0 12
      vertex -45.8698 0 8.09999
      vertex -39.49 0 12
    endloop
  endfacet
  facet normal 0 -1 0
    outer loop
      vertex -50.99 0 12
      vertex -46.4849 0 7.48491
      vertex -45.8698 0 8.09999
    endloop
  endfacet
  facet normal 0 -1 0
    outer loop
      vertex -50.99 0 12
      vertex -46.7545 0 7.15396
      vertex -46.4849 0 7.48491
    endloop
  endfacet
  facet normal 0 -1 0
    outer loop
      vertex -50.99 0 12
      vertex -46.9733 0 6.71823
      vertex -46.7545 0 7.15396
    endloop
  endfacet
  facet normal 0 -1 0
    outer loop
      vertex -50.99 0 12
      vertex -47.0858 0 5.75621
      vertex -47.0858 0 6.24379
    endloop
  endfacet
  facet normal 0 -1 0
    outer loop
      vertex -50.99 0 12
      vertex -47.0858 0 6.24379
      vertex -46.9733 0 6.71823
    endloop
  endfacet
  facet normal 0 1 0
    outer loop
      vertex -50.99 5 0
      vertex -45.1221 5 3.90356
      vertex -39.5 5 0
    endloop
  endfacet
  facet normal 0 1 0
    outer loop
      vertex -50.99 5 0
      vertex -45.6023 5 3.98823
      vertex -45.1221 5 3.90356
    endloop
  endfacet
  facet normal 0 1 0
    outer loop
      vertex -50.99 5 0
      vertex -46.05 5 4.18135
      vertex -45.6023 5 3.98823
    endloop
  endfacet
  facet normal 0 1 0
    outer loop
      vertex -50.99 5 0
      vertex -46.4411 5 4.47252
      vertex -46.05 5 4.18135
    endloop
  endfacet
  facet normal 0 1 0
    outer loop
      vertex -50.99 5 0
      vertex -46.7545 5 4.84604
      vertex -46.4411 5 4.47252
    endloop
  endfacet
  facet normal 0 1 0
    outer loop
      vertex -50.99 5 0
      vertex -46.9733 5 5.28177
      vertex -46.7545 5 4.84604
    endloop
  endfacet
  facet normal 0 1 0
    outer loop
      vertex -50.99 5 0
      vertex -47.0858 5 5.75621
      vertex -46.9733 5 5.28177
    endloop
  endfacet
  facet normal 0 1 0
    outer loop
      vertex -50.99 5 0
      vertex -50.99 5 12
      vertex -47.0858 5 5.75621
    endloop
  endfacet
  facet normal -0 0 1
    outer loop
      vertex -50.99 5 12
      vertex -39.49 0 12
      vertex -39.49 5 12
    endloop
  endfacet
  facet normal 0 1 0
    outer loop
      vertex -50.99 5 12
      vertex -39.49 5 12
      vertex -45.8698 5 8.09999
    endloop
  endfacet
  facet normal 0 1 -0
    outer loop
      vertex -50.99 5 12
      vertex -45.8698 5 8.09999
      vertex -46.4849 5 7.48491
    endloop
  endfacet
  facet normal 0 1 -0
    outer loop
      vertex -50.99 5 12
      vertex -46.4849 5 7.48491
      vertex -46.7545 5 7.15396
    endloop
  endfacet
  facet normal 0 1 -0
    outer loop
      vertex -50.99 5 12
      vertex -46.7545 5 7.15396
      vertex -46.9733 5 6.71823
    endloop
  endfacet
  facet normal 0 1 -0
    outer loop
      vertex -50.99 5 12
      vertex -46.9733 5 6.71823
      vertex -47.0858 5 6.24379
    endloop
  endfacet
  facet normal 0 1 -0
    outer loop
      vertex -50.99 5 12
      vertex -47.0858 5 6.24379
      vertex -47.0858 5 5.75621
    endloop
  endfacet
  facet normal 0.939692 0.342021 0
    outer loop
      vertex 56.0588 5 0
      vertex 56.0588 5 5
      vertex 56.6299 3.43083 5
    endloop
  endfacet
  facet normal 0.939692 0.342021 0
    outer loop
      vertex 56.0588 5 0
      vertex 56.6299 3.43083 5
      vertex 56.6299 3.43083 0
    endloop
  endfacet
  facet normal 0.939692 -0.342021 0
    outer loop
      vertex 56.0588 5 0
      vertex 56.6299 6.56917 0
      vertex 56.0588 5 5
    endloop
  endfacet
  facet normal 0.939692 -0.342021 0
    outer loop
      vertex 56.0588 5 5
      vertex 56.6299 6.56917 0
      vertex 56.6299 6.56917 5
    endloop
  endfacet
  facet normal 0.5 0.866025 0
    outer loop
      vertex 56.6299 3.43083 0
      vertex 56.6299 3.43083 5
      vertex 58.0761 2.5959 0
    endloop
  endfacet
  facet normal 0.5 0.866025 -0
    outer loop
      vertex 56.6299 3.43083 5
      vertex 58.0761 2.5959 5
      vertex 58.0761 2.5959 0
    endloop
  endfacet
  facet normal 0.5 -0.866025 0
    outer loop
      vertex 56.6299 6.56917 0
      vertex 58.0761 7.4041 0
      vertex 58.0761 7.4041 5
    endloop
  endfacet
  facet normal 0.5 -0.866025 0
    outer loop
      vertex 56.6299 6.56917 0
      vertex 58.0761 7.4041 5
      vertex 56.6299 6.56917 5
    endloop
  endfacet
  facet normal 0 0 -1
    outer loop
      vertex 56.6299 6.56917 0
      vertex 58.3753 9.99845 0
      vertex 58.0761 7.4041 0
    endloop
  endfacet
  facet normal 0 0 1
    outer loop
      vertex 56.6299 6.56917 5
      vertex 58.0761 7.4041 5
      vertex 58.3753 9.99845 5
    endloop
  endfacet
  facet normal -0.173648 0.984808 0
    outer loop
      vertex 58.0761 2.5959 0
      vertex 58.0761 2.5959 5
      vertex 59.7206 2.88587 0
    endloop
  endfacet
  facet normal 0 0 -1
    outer loop
      vertex 58.0761 2.5959 0
      vertex 59.7206 2.88587 0
      vertex 74.99 0 0
    endloop
  endfacet
  facet normal -0.173648 0.984808 0
    outer loop
      vertex 58.0761 2.5959 5
      vertex 59.7206 2.88587 5
      vertex 59.7206 2.88587 0
    endloop
  endfacet
  facet normal -0 0 1
    outer loop
      vertex 58.0761 2.5959 5
      vertex 63.49 0 5
      vertex 59.7206 2.88587 5
    endloop
  endfacet
  facet normal -0 0 -1
    outer loop
      vertex 58.0761 7.4041 0
      vertex 58.3753 9.99845 0
      vertex 58.8736 9.98602 0
    endloop
  endfacet
  facet normal -0 0 -1
    outer loop
      vertex 58.0761 7.4041 0
      vertex 58.8736 9.98602 0
      vertex 59.3682 9.92404 0
    endloop
  endfacet
  facet normal 0 0 -1
    outer loop
      vertex 58.0761 7.4041 0
      vertex 59.3682 9.92404 0
      vertex 59.7206 7.11413 0
    endloop
  endfacet
  facet normal -0.173648 -0.984808 -0
    outer loop
      vertex 58.0761 7.4041 0
      vertex 59.7206 7.11413 0
      vertex 59.7206 7.11413 5
    endloop
  endfacet
  facet normal -0.173648 -0.984808 0
    outer loop
      vertex 58.0761 7.4041 0
      vertex 59.7206 7.11413 5
      vertex 58.0761 7.4041 5
    endloop
  endfacet
  facet normal 0 0 1
    outer loop
      vertex 58.0761 7.4041 5
      vertex 58.8736 9.98602 5
      vertex 58.3753 9.99845 5
    endloop
  endfacet
  facet normal 0 0 1
    outer loop
      vertex 58.0761 7.4041 5
      vertex 59.3682 9.92404 5
      vertex 58.8736 9.98602 5
    endloop
  endfacet
  facet normal 0 0 1
    outer loop
      vertex 58.0761 7.4041 5
      vertex 59.7206 7.11413 5
      vertex 59.3682 9.92404 5
    endloop
  endfacet
  facet normal 0.0249316 0.999689 0
    outer loop
      vertex 58.3753 9.99845 0
      vertex 58.3753 9.99845 5
      vertex 58.8736 9.98602 0
    endloop
  endfacet
  facet normal 0.0249316 0.999689 -0
    outer loop
      vertex 58.3753 9.99845 5
      vertex 58.8736 9.98602 5
      vertex 58.8736 9.98602 0
    endloop
  endfacet
  facet normal 0.124344 0.992239 0
    outer loop
      vertex 58.8736 9.98602 0
      vertex 58.8736 9.98602 5
      vertex 59.3682 9.92404 0
    endloop
  endfacet
  facet normal 0.124344 0.992239 -0
    outer loop
      vertex 58.8736 9.98602 5
      vertex 59.3682 9.92404 5
      vertex 59.3682 9.92404 0
    endloop
  endfacet
  facet normal 0.22252 0.974928 0
    outer loop
      vertex 59.3682 9.92404 0
      vertex 59.3682 9.92404 5
      vertex 59.8542 9.81312 0
    endloop
  endfacet
  facet normal 0 0 -1
    outer loop
      vertex 59.3682 9.92404 0
      vertex 59.8542 9.81312 0
      vertex 59.7206 7.11413 0
    endloop
  endfacet
  facet normal 0 0 1
    outer loop
      vertex 59.3682 9.92404 5
      vertex 59.7206 7.11413 5
      vertex 59.8542 9.81312 5
    endloop
  endfacet
  facet normal 0.22252 0.974928 -0
    outer loop
      vertex 59.3682 9.92404 5
      vertex 59.8542 9.81312 5
      vertex 59.8542 9.81312 0
    endloop
  endfacet
  facet normal -0.766045 0.642787 0
    outer loop
      vertex 59.7206 2.88587 0
      vertex 59.7206 2.88587 5
      vertex 60.794 4.16506 5
    endloop
  endfacet
  facet normal 0 0 -1
    outer loop
      vertex 59.7206 2.88587 0
      vertex 60.794 4.16506 0
      vertex 63.5 5 0
    endloop
  endfacet
  facet normal -0.766045 0.642787 0
    outer loop
      vertex 59.7206 2.88587 0
      vertex 60.794 4.16506 5
      vertex 60.794 4.16506 0
    endloop
  endfacet
  facet normal 0 0 -1
    outer loop
      vertex 59.7206 2.88587 0
      vertex 63.5 5 0
      vertex 74.99 0 0
    endloop
  endfacet
  facet normal -0 0 1
    outer loop
      vertex 59.7206 2.88587 5
      vertex 63.49 0 5
      vertex 60.794 4.16506 5
    endloop
  endfacet
  facet normal -0 0 -1
    outer loop
      vertex 59.7206 7.11413 0
      vertex 59.8542 9.81312 0
      vertex 60.3267 9.65437 0
    endloop
  endfacet
  facet normal -0 0 -1
    outer loop
      vertex 59.7206 7.11413 0
      vertex 60.3267 9.65437 0
      vertex 60.7811 9.44936 0
    endloop
  endfacet
  facet normal -0 0 -1
    outer loop
      vertex 59.7206 7.11413 0
      vertex 60.7811 9.44936 0
      vertex 61.2127 9.20013 0
    endloop
  endfacet
  facet normal -0.766045 -0.642787 0
    outer loop
      vertex 59.7206 7.11413 0
      vertex 60.794 5.83494 0
      vertex 59.7206 7.11413 5
    endloop
  endfacet
  facet normal -0 0 -1
    outer loop
      vertex 59.7206 7.11413 0
      vertex 61.2127 9.20013 0
      vertex 61.6174 8.90916 0
    endloop
  endfacet
  facet normal -0 0 -1
    outer loop
      vertex 59.7206 7.11413 0
      vertex 61.6174 8.90916 0
      vertex 61.9912 8.57933 0
    endloop
  endfacet
  facet normal -0 0 -1
    outer loop
      vertex 59.7206 7.11413 0
      vertex 61.9912 8.57933 0
      vertex 62.3302 8.21394 0
    endloop
  endfacet
  facet normal 0 0 -1
    outer loop
      vertex 59.7206 7.11413 0
      vertex 62.3302 8.21394 0
      vertex 60.794 5.83494 0
    endloop
  endfacet
  facet normal 0 0 1
    outer loop
      vertex 59.7206 7.11413 5
      vertex 60.3267 9.65437 5
      vertex 59.8542 9.81312 5
    endloop
  endfacet
  facet normal 0 0 1
    outer loop
      vertex 59.7206 7.11413 5
      vertex 60.7811 9.44936 5
      vertex 60.3267 9.65437 5
    endloop
  endfacet
  facet normal -0.766045 -0.642787 0
    outer loop
      vertex 59.7206 7.11413 5
      vertex 60.794 5.83494 0
      vertex 60.794 5.83494 5
    endloop
  endfacet
  facet normal 0 0 1
    outer loop
      vertex 59.7206 7.11413 5
      vertex 60.794 5.83494 5
      vertex 61.2127 9.20013 5
    endloop
  endfacet
  facet normal 0 0 1
    outer loop
      vertex 59.7206 7.11413 5
      vertex 61.2127 9.20013 5
      vertex 60.7811 9.44936 5
    endloop
  endfacet
  facet normal 0.318486 0.947928 0
    outer loop
      vertex 59.8542 9.81312 0
      vertex 59.8542 9.81312 5
      vertex 60.3267 9.65437 0
    endloop
  endfacet
  facet normal 0.318486 0.947928 -0
    outer loop
      vertex 59.8542 9.81312 5
      vertex 60.3267 9.65437 5
      vertex 60.3267 9.65437 0
    endloop
  endfacet
  facet normal 0.411289 0.911505 0
    outer loop
      vertex 60.3267 9.65437 0
      vertex 60.3267 9.65437 5
      vertex 60.7811 9.44936 0
    endloop
  endfacet
  facet normal 0.411289 0.911505 -0
    outer loop
      vertex 60.3267 9.65437 5
      vertex 60.7811 9.44936 5
      vertex 60.7811 9.44936 0
    endloop
  endfacet
  facet normal 0.499999 0.866026 0
    outer loop
      vertex 60.7811 9.44936 0
      vertex 60.7811 9.44936 5
      vertex 61.2127 9.20013 0
    endloop
  endfacet
  facet normal 0.499999 0.866026 -0
    outer loop
      vertex 60.7811 9.44936 5
      vertex 61.2127 9.20013 5
      vertex 61.2127 9.20013 0
    endloop
  endfacet
  facet normal -1 -0 0
    outer loop
      vertex 60.794 4.16506 0
      vertex 60.794 4.16506 5
      vertex 60.794 5.83494 5
    endloop
  endfacet
  facet normal 0 0 -1
    outer loop
      vertex 60.794 4.16506 0
      vertex 60.794 5.83494 0
      vertex 63.5 5 0
    endloop
  endfacet
  facet normal -1 0 0
    outer loop
      vertex 60.794 4.16506 0
      vertex 60.794 5.83494 5
      vertex 60.794 5.83494 0
    endloop
  endfacet
  facet normal 0 0 1
    outer loop
      vertex 60.794 4.16506 5
      vertex 63.49 0 5
      vertex 63.49 5 5
    endloop
  endfacet
  facet normal 0 0 1
    outer loop
      vertex 60.794 4.16506 5
      vertex 63.49 5 5
      vertex 60.794 5.83494 5
    endloop
  endfacet
  facet normal -0 0 -1
    outer loop
      vertex 60.794 5.83494 0
      vertex 62.3302 8.21394 0
      vertex 62.6312 7.8166 0
    endloop
  endfacet
  facet normal -0 0 -1
    outer loop
      vertex 60.794 5.83494 0
      vertex 62.6312 7.8166 0
      vertex 62.8911 7.39127 0
    endloop
  endfacet
  facet normal -0 0 -1
    outer loop
      vertex 60.794 5.83494 0
      vertex 62.8911 7.39127 0
      vertex 63.1074 6.94217 0
    endloop
  endfacet
  facet normal -0 0 -1
    outer loop
      vertex 60.794 5.83494 0
      vertex 63.1074 6.94217 0
      vertex 63.2779 6.47378 0
    endloop
  endfacet
  facet normal -0 0 -1
    outer loop
      vertex 60.794 5.83494 0
      vertex 63.2779 6.47378 0
      vertex 63.4009 5.99073 0
    endloop
  endfacet
  facet normal 0 0 -1
    outer loop
      vertex 60.794 5.83494 0
      vertex 63.4009 5.99073 0
      vertex 63.4752 5.49784 0
    endloop
  endfacet
  facet normal 0 0 -1
    outer loop
      vertex 60.794 5.83494 0
      vertex 63.4752 5.49784 0
      vertex 63.5 5 0
    endloop
  endfacet
  facet normal 0 0 1
    outer loop
      vertex 60.794 5.83494 5
      vertex 61.6174 8.90916 5
      vertex 61.2127 9.20013 5
    endloop
  endfacet
  facet normal 0 0 1
    outer loop
      vertex 60.794 5.83494 5
      vertex 61.9912 8.57933 5
      vertex 61.6174 8.90916 5
    endloop
  endfacet
  facet normal 0 0 1
    outer loop
      vertex 60.794 5.83494 5
      vertex 62.3302 8.21394 5
      vertex 61.9912 8.57933 5
    endloop
  endfacet
  facet normal 0 0 1
    outer loop
      vertex 60.794 5.83494 5
      vertex 62.6312 7.8166 5
      vertex 62.3302 8.21394 5
    endloop
  endfacet
  facet normal 0 0 1
    outer loop
      vertex 60.794 5.83494 5
      vertex 62.8911 7.39127 5
      vertex 62.6312 7.8166 5
    endloop
  endfacet
  facet normal 0 0 1
    outer loop
      vertex 60.794 5.83494 5
      vertex 63.1074 6.94217 5
      vertex 62.8911 7.39127 5
    endloop
  endfacet
  facet normal 0 0 1
    outer loop
      vertex 60.794 5.83494 5
      vertex 63.2779 6.47378 5
      vertex 63.1074 6.94217 5
    endloop
  endfacet
  facet normal 0 0 1
    outer loop
      vertex 60.794 5.83494 5
      vertex 63.4009 5.99073 5
      vertex 63.2779 6.47378 5
    endloop
  endfacet
  facet normal -0 0 1
    outer loop
      vertex 60.794 5.83494 5
      vertex 63.4752 5.49784 5
      vertex 63.4009 5.99073 5
    endloop
  endfacet
  facet normal 0 0 1
    outer loop
      vertex 60.794 5.83494 5
      vertex 63.49 5 5
      vertex 63.4752 5.49784 5
    endloop
  endfacet
  facet normal 0.583745 0.811937 0
    outer loop
      vertex 61.2127 9.20013 0
      vertex 61.2127 9.20013 5
      vertex 61.6174 8.90916 0
    endloop
  endfacet
  facet normal 0.583745 0.811937 -0
    outer loop
      vertex 61.2127 9.20013 5
      vertex 61.6174 8.90916 5
      vertex 61.6174 8.90916 0
    endloop
  endfacet
  facet normal 0.661684 0.749783 0
    outer loop
      vertex 61.6174 8.90916 0
      vertex 61.6174 8.90916 5
      vertex 61.9912 8.57933 0
    endloop
  endfacet
  facet normal 0.661684 0.749783 -0
    outer loop
      vertex 61.6174 8.90916 5
      vertex 61.9912 8.57933 5
      vertex 61.9912 8.57933 0
    endloop
  endfacet
  facet normal 0.733051 0.680174 0
    outer loop
      vertex 61.9912 8.57933 0
      vertex 61.9912 8.57933 5
      vertex 62.3302 8.21394 5
    endloop
  endfacet
  facet normal 0.733051 0.680174 0
    outer loop
      vertex 61.9912 8.57933 0
      vertex 62.3302 8.21394 5
      vertex 62.3302 8.21394 0
    endloop
  endfacet
  facet normal 0.797132 0.603805 0
    outer loop
      vertex 62.3302 8.21394 0
      vertex 62.3302 8.21394 5
      vertex 62.6312 7.8166 5
    endloop
  endfacet
  facet normal 0.797132 0.603805 0
    outer loop
      vertex 62.3302 8.21394 0
      vertex 62.6312 7.8166 5
      vertex 62.6312 7.8166 0
    endloop
  endfacet
  facet normal 0.853294 0.52143 0
    outer loop
      vertex 62.6312 7.8166 0
      vertex 62.6312 7.8166 5
      vertex 62.8911 7.39127 5
    endloop
  endfacet
  facet normal 0.853294 0.52143 0
    outer loop
      vertex 62.6312 7.8166 0
      vertex 62.8911 7.39127 5
      vertex 62.8911 7.39127 0
    endloop
  endfacet
  facet normal 0.900968 0.433886 0
    outer loop
      vertex 62.8911 7.39127 0
      vertex 62.8911 7.39127 5
      vertex 63.1074 6.94217 5
    endloop
  endfacet
  facet normal 0.900968 0.433886 0
    outer loop
      vertex 62.8911 7.39127 0
      vertex 63.1074 6.94217 5
      vertex 63.1074 6.94217 0
    endloop
  endfacet
  facet normal 0.939693 0.34202 0
    outer loop
      vertex 63.1074 6.94217 0
      vertex 63.1074 6.94217 5
      vertex 63.2779 6.47378 5
    endloop
  endfacet
  facet normal 0.939693 0.34202 0
    outer loop
      vertex 63.1074 6.94217 0
      vertex 63.2779 6.47378 5
      vertex 63.2779 6.47378 0
    endloop
  endfacet
  facet normal 0.969076 0.246762 0
    outer loop
      vertex 63.2779 6.47378 0
      vertex 63.2779 6.47378 5
      vertex 63.4009 5.99073 5
    endloop
  endfacet
  facet normal 0.969076 0.246762 0
    outer loop
      vertex 63.2779 6.47378 0
      vertex 63.4009 5.99073 5
      vertex 63.4009 5.99073 0
    endloop
  endfacet
  facet normal 0.988832 0.149034 0
    outer loop
      vertex 63.4009 5.99073 0
      vertex 63.4009 5.99073 5
      vertex 63.4752 5.49784 5
    endloop
  endfacet
  facet normal 0.988832 0.149034 0
    outer loop
      vertex 63.4009 5.99073 0
      vertex 63.4752 5.49784 5
      vertex 63.4752 5.49784 0
    endloop
  endfacet
  facet normal 0.998757 0.0498515 0
    outer loop
      vertex 63.4752 5.49784 0
      vertex 63.4752 5.49784 5
      vertex 63.5 5 5
    endloop
  endfacet
  facet normal 0.998757 0.0498515 0
    outer loop
      vertex 63.4752 5.49784 0
      vertex 63.5 5 5
      vertex 63.5 5 0
    endloop
  endfacet
  facet normal 0 0 1
    outer loop
      vertex 63.4752 5.49784 5
      vertex 63.49 5 5
      vertex 63.5 5 5
    endloop
  endfacet
  facet normal 0 -1 0
    outer loop
      vertex 63.49 0 22
      vertex 66.9142 0 15.7562
      vertex 66.9142 0 16.2438
    endloop
  endfacet
  facet normal 0 -1 0
    outer loop
      vertex 63.49 0 22
      vertex 66.9142 0 16.2438
      vertex 67.0267 0 16.7182
    endloop
  endfacet
  facet normal 0 -1 0
    outer loop
      vertex 63.49 0 22
      vertex 67.0267 0 16.7182
      vertex 67.2455 0 17.154
    endloop
  endfacet
  facet normal 0 -1 0
    outer loop
      vertex 63.49 0 22
      vertex 67.2455 0 17.154
      vertex 67.5151 0 17.4849
    endloop
  endfacet
  facet normal 0 -1 0
    outer loop
      vertex 63.49 0 22
      vertex 67.5151 0 17.4849
      vertex 68.1302 0 18.1
    endloop
  endfacet
  facet normal 0 -1 0
    outer loop
      vertex 63.49 0 22
      vertex 68.1302 0 18.1
      vertex 69.8698 0 18.1
    endloop
  endfacet
  facet normal 0 -1 0
    outer loop
      vertex 63.49 0 22
      vertex 69.8698 0 18.1
      vertex 74.99 0 22
    endloop
  endfacet
  facet normal 0 0 1
    outer loop
      vertex 63.49 0 22
      vertex 74.99 0 22
      vertex 63.49 5 22
    endloop
  endfacet
  facet normal -1 -0 0
    outer loop
      vertex 63.49 0 5
      vertex 63.49 0 22
      vertex 63.49 5 22
    endloop
  endfacet
  facet normal -1 0 0
    outer loop
      vertex 63.49 0 5
      vertex 63.49 5 22
      vertex 63.49 5 5
    endloop
  endfacet
  facet normal 0 -1 0
    outer loop
      vertex 63.49 0 5
      vertex 66.9142 0 15.7562
      vertex 63.49 0 22
    endloop
  endfacet
  facet normal 0 -1 -0
    outer loop
      vertex 63.49 0 5
      vertex 67.0267 0 15.2818
      vertex 66.9142 0 15.7562
    endloop
  endfacet
  facet normal 0 -1 -0
    outer loop
      vertex 63.49 0 5
      vertex 67.2455 0 14.846
      vertex 67.0267 0 15.2818
    endloop
  endfacet
  facet normal 0 -1 -0
    outer loop
      vertex 63.49 0 5
      vertex 67.5589 0 14.4725
      vertex 67.2455 0 14.846
    endloop
  endfacet
  facet normal 0 -1 -0
    outer loop
      vertex 63.49 0 5
      vertex 67.95 0 14.1814
      vertex 67.5589 0 14.4725
    endloop
  endfacet
  facet normal 0 -1 -0
    outer loop
      vertex 63.49 0 5
      vertex 68.3977 0 13.9882
      vertex 67.95 0 14.1814
    endloop
  endfacet
  facet normal 0 -1 -0
    outer loop
      vertex 63.49 0 5
      vertex 68.8779 0 13.9036
      vertex 68.3977 0 13.9882
    endloop
  endfacet
  facet normal 0 -1 0
    outer loop
      vertex 63.49 0 5
      vertex 69.3647 0 13.9319
      vertex 68.8779 0 13.9036
    endloop
  endfacet
  facet normal 0 -1 0
    outer loop
      vertex 63.49 0 5
      vertex 74.99 0 0
      vertex 69.3647 0 13.9319
    endloop
  endfacet
  facet normal 0 1 -0
    outer loop
      vertex 63.49 5 22
      vertex 66.9142 5 16.2438
      vertex 66.9142 5 15.7562
    endloop
  endfacet
  facet normal 0 1 -0
    outer loop
      vertex 63.49 5 22
      vertex 67.0267 5 16.7182
      vertex 66.9142 5 16.2438
    endloop
  endfacet
  facet normal 0 1 -0
    outer loop
      vertex 63.49 5 22
      vertex 67.2455 5 17.154
      vertex 67.0267 5 16.7182
    endloop
  endfacet
  facet normal 0 1 -0
    outer loop
      vertex 63.49 5 22
      vertex 67.5151 5 17.4849
      vertex 67.2455 5 17.154
    endloop
  endfacet
  facet normal 0 1 -0
    outer loop
      vertex 63.49 5 22
      vertex 68.1302 5 18.1
      vertex 67.5151 5 17.4849
    endloop
  endfacet
  facet normal 0 1 -0
    outer loop
      vertex 63.49 5 22
      vertex 69.8698 5 18.1
      vertex 68.1302 5 18.1
    endloop
  endfacet
  facet normal -0 0 1
    outer loop
      vertex 63.49 5 22
      vertex 74.99 0 22
      vertex 74.99 5 22
    endloop
  endfacet
  facet normal 0 1 0
    outer loop
      vertex 63.49 5 22
      vertex 74.99 5 22
      vertex 69.8698 5 18.1
    endloop
  endfacet
  facet normal 0 1 0
    outer loop
      vertex 63.49 5 5
      vertex 63.49 5 22
      vertex 66.9142 5 15.7562
    endloop
  endfacet
  facet normal 0 1 0
    outer loop
      vertex 63.49 5 5
      vertex 66.9142 5 15.7562
      vertex 67.0267 5 15.2818
    endloop
  endfacet
  facet normal 0 1 0
    outer loop
      vertex 63.49 5 5
      vertex 67.0267 5 15.2818
      vertex 67.2455 5 14.846
    endloop
  endfacet
  facet normal 0 1 0
    outer loop
      vertex 63.49 5 5
      vertex 67.2455 5 14.846
      vertex 67.5589 5 14.4725
    endloop
  endfacet
  facet normal 0 1 0
    outer loop
      vertex 63.49 5 5
      vertex 67.5589 5 14.4725
      vertex 63.5 5 5
    endloop
  endfacet
  facet normal 0 1 0
    outer loop
      vertex 63.5 5 0
      vertex 63.5 5 5
      vertex 74.99 5 0
    endloop
  endfacet
  facet normal 0 0 -1
    outer loop
      vertex 63.5 5 0
      vertex 74.99 5 0
      vertex 74.99 0 0
    endloop
  endfacet
  facet normal 0 1 0
    outer loop
      vertex 63.5 5 5
      vertex 67.5589 5 14.4725
      vertex 67.95 5 14.1814
    endloop
  endfacet
  facet normal 0 1 0
    outer loop
      vertex 63.5 5 5
      vertex 67.95 5 14.1814
      vertex 68.3977 5 13.9882
    endloop
  endfacet
  facet normal 0 1 0
    outer loop
      vertex 63.5 5 5
      vertex 68.3977 5 13.9882
      vertex 68.8779 5 13.9036
    endloop
  endfacet
  facet normal 0 1 0
    outer loop
      vertex 63.5 5 5
      vertex 68.8779 5 13.9036
      vertex 69.3647 5 13.9319
    endloop
  endfacet
  facet normal 0 1 0
    outer loop
      vertex 63.5 5 5
      vertex 69.3647 5 13.9319
      vertex 74.99 5 0
    endloop
  endfacet
  facet normal 1 0 0
    outer loop
      vertex 66.9142 0 15.7562
      vertex 66.9142 5 15.7562
      vertex 66.9142 0 16.2438
    endloop
  endfacet
  facet normal 0.973039 0 0.23064
    outer loop
      vertex 66.9142 0 15.7562
      vertex 67.0267 0 15.2818
      vertex 67.0267 5 15.2818
    endloop
  endfacet
  facet normal 0.973039 -0 0.23064
    outer loop
      vertex 66.9142 0 15.7562
      vertex 67.0267 5 15.2818
      vertex 66.9142 5 15.7562
    endloop
  endfacet
  facet normal 1 -0 0
    outer loop
      vertex 66.9142 0 16.2438
      vertex 66.9142 5 15.7562
      vertex 66.9142 5 16.2438
    endloop
  endfacet
  facet normal 0.973039 0 -0.23064
    outer loop
      vertex 66.9142 0 16.2438
      vertex 66.9142 5 16.2438
      vertex 67.0267 0 16.7182
    endloop
  endfacet
  facet normal 0.973039 0 -0.23064
    outer loop
      vertex 66.9142 5 16.2438
      vertex 67.0267 5 16.7182
      vertex 67.0267 0 16.7182
    endloop
  endfacet
  facet normal 0.893637 0 0.44879
    outer loop
      vertex 67.0267 0 15.2818
      vertex 67.2455 0 14.846
      vertex 67.2455 5 14.846
    endloop
  endfacet
  facet normal 0.893637 -0 0.44879
    outer loop
      vertex 67.0267 0 15.2818
      vertex 67.2455 5 14.846
      vertex 67.0267 5 15.2818
    endloop
  endfacet
  facet normal 0.893637 0 -0.44879
    outer loop
      vertex 67.0267 0 16.7182
      vertex 67.0267 5 16.7182
      vertex 67.2455 0 17.154
    endloop
  endfacet
  facet normal 0.893637 0 -0.44879
    outer loop
      vertex 67.0267 5 16.7182
      vertex 67.2455 5 17.154
      vertex 67.2455 0 17.154
    endloop
  endfacet
  facet normal 0.766049 0 0.642782
    outer loop
      vertex 67.2455 0 14.846
      vertex 67.5589 0 14.4725
      vertex 67.5589 5 14.4725
    endloop
  endfacet
  facet normal 0.766049 -0 0.642782
    outer loop
      vertex 67.2455 0 14.846
      vertex 67.5589 5 14.4725
      vertex 67.2455 5 14.846
    endloop
  endfacet
  facet normal 0.766055 0 -0.642776
    outer loop
      vertex 67.2455 0 17.154
      vertex 67.2455 5 17.154
      vertex 67.5195 0 17.4805
    endloop
  endfacet
  facet normal 0 -1 -0
    outer loop
      vertex 67.2455 0 17.154
      vertex 67.5195 0 17.4805
      vertex 67.5151 0 17.4849
    endloop
  endfacet
  facet normal 0 1 0
    outer loop
      vertex 67.2455 5 17.154
      vertex 67.5151 5 17.4849
      vertex 67.5195 5 17.4805
    endloop
  endfacet
  facet normal 0.766055 0 -0.642776
    outer loop
      vertex 67.2455 5 17.154
      vertex 67.5195 5 17.4805
      vertex 67.5195 0 17.4805
    endloop
  endfacet
  facet normal 0.707107 0 -0.707107
    outer loop
      vertex 67.5151 0 17.4849
      vertex 67.5151 5 17.4849
      vertex 68.1302 0 18.1
    endloop
  endfacet
  facet normal 0.707107 0 0.707107
    outer loop
      vertex 67.5151 0 17.4849
      vertex 67.5195 0 17.4805
      vertex 67.5195 5 17.4805
    endloop
  endfacet
  facet normal 0.707107 -0 0.707107
    outer loop
      vertex 67.5151 0 17.4849
      vertex 67.5195 5 17.4805
      vertex 67.5151 5 17.4849
    endloop
  endfacet
  facet normal 0.707107 0 -0.707107
    outer loop
      vertex 67.5151 5 17.4849
      vertex 68.1302 5 18.1
      vertex 68.1302 0 18.1
    endloop
  endfacet
  facet normal 0.597152 0 0.802128
    outer loop
      vertex 67.5589 0 14.4725
      vertex 67.95 0 14.1814
      vertex 67.5589 5 14.4725
    endloop
  endfacet
  facet normal 0.597152 0 0.802128
    outer loop
      vertex 67.5589 5 14.4725
      vertex 67.95 0 14.1814
      vertex 67.95 5 14.1814
    endloop
  endfacet
  facet normal 0.396067 0 0.918221
    outer loop
      vertex 67.95 0 14.1814
      vertex 68.3977 0 13.9882
      vertex 67.95 5 14.1814
    endloop
  endfacet
  facet normal 0.396067 0 0.918221
    outer loop
      vertex 67.95 5 14.1814
      vertex 68.3977 0 13.9882
      vertex 68.3977 5 13.9882
    endloop
  endfacet
  facet normal -0 0 -1
    outer loop
      vertex 68.1302 0 18.1
      vertex 68.1302 5 18.1
      vertex 69.8698 5 18.1
    endloop
  endfacet
  facet normal 0 0 -1
    outer loop
      vertex 68.1302 0 18.1
      vertex 69.8698 5 18.1
      vertex 69.8698 0 18.1
    endloop
  endfacet
  facet normal 0.173653 0 0.984807
    outer loop
      vertex 68.3977 0 13.9882
      vertex 68.8779 0 13.9036
      vertex 68.3977 5 13.9882
    endloop
  endfacet
  facet normal 0.173653 0 0.984807
    outer loop
      vertex 68.3977 5 13.9882
      vertex 68.8779 0 13.9036
      vertex 68.8779 5 13.9036
    endloop
  endfacet
  facet normal -0.058146 0 0.998308
    outer loop
      vertex 68.8779 0 13.9036
      vertex 69.3647 0 13.9319
      vertex 68.8779 5 13.9036
    endloop
  endfacet
  facet normal -0.058146 0 0.998308
    outer loop
      vertex 68.8779 5 13.9036
      vertex 69.3647 0 13.9319
      vertex 69.3647 5 13.9319
    endloop
  endfacet
  facet normal -0.286785 0 0.957995
    outer loop
      vertex 69.3647 0 13.9319
      vertex 69.8318 0 14.0717
      vertex 69.3647 5 13.9319
    endloop
  endfacet
  facet normal 0 -1 0
    outer loop
      vertex 69.3647 0 13.9319
      vertex 74.99 0 0
      vertex 69.8318 0 14.0717
    endloop
  endfacet
  facet normal -0.286785 0 0.957995
    outer loop
      vertex 69.3647 5 13.9319
      vertex 69.8318 0 14.0717
      vertex 69.8318 5 14.0717
    endloop
  endfacet
  facet normal 0 1 0
    outer loop
      vertex 69.3647 5 13.9319
      vertex 69.8318 5 14.0717
      vertex 74.99 5 0
    endloop
  endfacet
  facet normal -0.50001 0 0.86602
    outer loop
      vertex 69.8318 0 14.0717
      vertex 70.254 0 14.3156
      vertex 69.8318 5 14.0717
    endloop
  endfacet
  facet normal 0 -1 0
    outer loop
      vertex 69.8318 0 14.0717
      vertex 74.99 0 0
      vertex 70.254 0 14.3156
    endloop
  endfacet
  facet normal -0.50001 0 0.86602
    outer loop
      vertex 69.8318 5 14.0717
      vertex 70.254 0 14.3156
      vertex 70.254 5 14.3156
    endloop
  endfacet
  facet normal 0 1 0
    outer loop
      vertex 69.8318 5 14.0717
      vertex 70.254 5 14.3156
      vertex 74.99 5 0
    endloop
  endfacet
  facet normal -0.707107 -0 -0.707107
    outer loop
      vertex 69.8698 0 18.1
      vertex 69.8698 5 18.1
      vertex 70.4849 0 17.4849
    endloop
  endfacet
  facet normal 0 -1 0
    outer loop
      vertex 69.8698 0 18.1
      vertex 70.4849 0 17.4849
      vertex 74.99 0 22
    endloop
  endfacet
  facet normal -0.707107 0 -0.707107
    outer loop
      vertex 69.8698 5 18.1
      vertex 70.4849 5 17.4849
      vertex 70.4849 0 17.4849
    endloop
  endfacet
  facet normal 0 1 0
    outer loop
      vertex 69.8698 5 18.1
      vertex 74.99 5 22
      vertex 70.4849 5 17.4849
    endloop
  endfacet
  facet normal -0.686231 0 0.727384
    outer loop
      vertex 70.254 0 14.3156
      vertex 70.6087 0 14.6501
      vertex 70.254 5 14.3156
    endloop
  endfacet
  facet normal 0 -1 0
    outer loop
      vertex 70.254 0 14.3156
      vertex 74.99 0 0
      vertex 70.6087 0 14.6501
    endloop
  endfacet
  facet normal -0.686231 0 0.727384
    outer loop
      vertex 70.254 5 14.3156
      vertex 70.6087 0 14.6501
      vertex 70.6087 5 14.6501
    endloop
  endfacet
  facet normal 0 1 0
    outer loop
      vertex 70.254 5 14.3156
      vertex 70.6087 5 14.6501
      vertex 74.99 5 0
    endloop
  endfacet
  facet normal -0.686266 0 -0.72735
    outer loop
      vertex 70.4755 0 17.4755
      vertex 70.4755 5 17.4755
      vertex 70.6087 5 17.3499
    endloop
  endfacet
  facet normal -0.707107 0 0.707107
    outer loop
      vertex 70.4755 0 17.4755
      vertex 70.4849 0 17.4849
      vertex 70.4849 5 17.4849
    endloop
  endfacet
  facet normal -0.707107 0 0.707107
    outer loop
      vertex 70.4755 0 17.4755
      vertex 70.4849 5 17.4849
      vertex 70.4755 5 17.4755
    endloop
  endfacet
  facet normal 0 -1 0
    outer loop
      vertex 70.4755 0 17.4755
      vertex 70.6087 0 17.3499
      vertex 70.4849 0 17.4849
    endloop
  endfacet
  facet normal -0.686266 0 -0.72735
    outer loop
      vertex 70.4755 0 17.4755
      vertex 70.6087 5 17.3499
      vertex 70.6087 0 17.3499
    endloop
  endfacet
  facet normal 0 1 0
    outer loop
      vertex 70.4755 5 17.4755
      vertex 70.4849 5 17.4849
      vertex 70.6087 5 17.3499
    endloop
  endfacet
  facet normal 0 -1 0
    outer loop
      vertex 70.4849 0 17.4849
      vertex 70.6087 0 17.3499
      vertex 74.99 0 22
    endloop
  endfacet
  facet normal 0 1 0
    outer loop
      vertex 70.4849 5 17.4849
      vertex 74.99 5 22
      vertex 70.6087 5 17.3499
    endloop
  endfacet
  facet normal -0.835496 0 0.549497
    outer loop
      vertex 70.6087 0 14.6501
      vertex 70.8766 0 15.0575
      vertex 70.8766 5 15.0575
    endloop
  endfacet
  facet normal -0.835496 0 0.549497
    outer loop
      vertex 70.6087 0 14.6501
      vertex 70.8766 5 15.0575
      vertex 70.6087 5 14.6501
    endloop
  endfacet
  facet normal 0 -1 0
    outer loop
      vertex 70.6087 0 14.6501
      vertex 74.99 0 0
      vertex 70.8766 0 15.0575
    endloop
  endfacet
  facet normal -0.835496 -0 -0.549497
    outer loop
      vertex 70.6087 0 17.3499
      vertex 70.6087 5 17.3499
      vertex 70.8766 0 16.9425
    endloop
  endfacet
  facet normal 0 -1 0
    outer loop
      vertex 70.6087 0 17.3499
      vertex 70.8766 0 16.9425
      vertex 74.99 0 22
    endloop
  endfacet
  facet normal 0 1 0
    outer loop
      vertex 70.6087 5 14.6501
      vertex 70.8766 5 15.0575
      vertex 74.99 5 0
    endloop
  endfacet
  facet normal -0.835496 0 -0.549497
    outer loop
      vertex 70.6087 5 17.3499
      vertex 70.8766 5 16.9425
      vertex 70.8766 0 16.9425
    endloop
  endfacet
  facet normal 0 1 0
    outer loop
      vertex 70.6087 5 17.3499
      vertex 74.99 5 22
      vertex 70.8766 5 16.9425
    endloop
  endfacet
  facet normal -0.939696 0 0.342012
    outer loop
      vertex 70.8766 0 15.0575
      vertex 71.0434 0 15.5157
      vertex 71.0434 5 15.5157
    endloop
  endfacet
  facet normal -0.939696 0 0.342012
    outer loop
      vertex 70.8766 0 15.0575
      vertex 71.0434 5 15.5157
      vertex 70.8766 5 15.0575
    endloop
  endfacet
  facet normal 0 -1 0
    outer loop
      vertex 70.8766 0 15.0575
      vertex 74.99 0 0
      vertex 71.0434 0 15.5157
    endloop
  endfacet
  facet normal -0.939696 -0 -0.342012
    outer loop
      vertex 70.8766 0 16.9425
      vertex 70.8766 5 16.9425
      vertex 71.0434 0 16.4843
    endloop
  endfacet
  facet normal 0 -1 0
    outer loop
      vertex 70.8766 0 16.9425
      vertex 71.0434 0 16.4843
      vertex 74.99 0 22
    endloop
  endfacet
  facet normal 0 1 0
    outer loop
      vertex 70.8766 5 15.0575
      vertex 71.0434 5 15.5157
      vertex 74.99 5 0
    endloop
  endfacet
  facet normal -0.939696 0 -0.342012
    outer loop
      vertex 70.8766 5 16.9425
      vertex 71.0434 5 16.4843
      vertex 71.0434 0 16.4843
    endloop
  endfacet
  facet normal 0 1 0
    outer loop
      vertex 70.8766 5 16.9425
      vertex 74.99 5 22
      vertex 71.0434 5 16.4843
    endloop
  endfacet
  facet normal -0.993237 0 0.116104
    outer loop
      vertex 71.0434 0 15.5157
      vertex 71.1 0 16
      vertex 71.1 5 16
    endloop
  endfacet
  facet normal -0.993237 0 0.116104
    outer loop
      vertex 71.0434 0 15.5157
      vertex 71.1 5 16
      vertex 71.0434 5 15.5157
    endloop
  endfacet
  facet normal 0 -1 0
    outer loop
      vertex 71.0434 0 15.5157
      vertex 74.99 0 0
      vertex 74.99 0 22
    endloop
  endfacet
  facet normal 0 -1 0
    outer loop
      vertex 71.0434 0 15.5157
      vertex 74.99 0 22
      vertex 71.1 0 16
    endloop
  endfacet
  facet normal -0.993237 -0 -0.116104
    outer loop
      vertex 71.0434 0 16.4843
      vertex 71.0434 5 16.4843
      vertex 71.1 0 16
    endloop
  endfacet
  facet normal 0 -1 0
    outer loop
      vertex 71.0434 0 16.4843
      vertex 71.1 0 16
      vertex 74.99 0 22
    endloop
  endfacet
  facet normal 0 1 0
    outer loop
      vertex 71.0434 5 15.5157
      vertex 71.1 5 16
      vertex 74.99 5 22
    endloop
  endfacet
  facet normal 0 1 -0
    outer loop
      vertex 71.0434 5 15.5157
      vertex 74.99 5 22
      vertex 74.99 5 0
    endloop
  endfacet
  facet normal -0.993237 0 -0.116104
    outer loop
      vertex 71.0434 5 16.4843
      vertex 71.1 5 16
      vertex 71.1 0 16
    endloop
  endfacet
  facet normal 0 1 0
    outer loop
      vertex 71.0434 5 16.4843
      vertex 74.99 5 22
      vertex 71.1 5 16
    endloop
  endfacet
  facet normal 1 0 0
    outer loop
      vertex 74.99 0 0
      vertex 74.99 5 0
      vertex 74.99 0 22
    endloop
  endfacet
  facet normal 1 -0 0
    outer loop
      vertex 74.99 0 22
      vertex 74.99 5 0
      vertex 74.99 5 22
    endloop
  endfacet
endsolid OpenSCAD_Model
