  0
SECTION
  2
BLOCKS
  0
ENDSEC
  0
SECTION
  2
ENTITIES
  0
LINE
  8
0
 10
3.06866e-14
 20
-166.5
 11
367
 21
-166.5
  0
LINE
  8
0
 10
367
 20
-166.5
 11
369.179
 21
-166.405
  0
LINE
  8
0
 10
369.179
 20
-166.405
 11
371.341
 21
-166.12
  0
LINE
  8
0
 10
371.341
 20
-166.12
 11
373.47
 21
-165.648
  0
LINE
  8
0
 10
373.47
 20
-165.648
 11
375.551
 21
-164.992
  0
LINE
  8
0
 10
375.551
 20
-164.992
 11
377.565
 21
-164.158
  0
LINE
  8
0
 10
377.565
 20
-164.158
 11
379.5
 21
-163.151
  0
LINE
  8
0
 10
379.5
 20
-163.151
 11
381.339
 21
-161.979
  0
LINE
  8
0
 10
381.339
 20
-161.979
 11
383.07
 21
-160.651
  0
LINE
  8
0
 10
383.07
 20
-160.651
 11
384.678
 21
-159.178
  0
LINE
  8
0
 10
384.678
 20
-159.178
 11
386.151
 21
-157.57
  0
LINE
  8
0
 10
386.151
 20
-157.57
 11
387.479
 21
-155.839
  0
LINE
  8
0
 10
387.479
 20
-155.839
 11
388.651
 21
-154
  0
LINE
  8
0
 10
388.651
 20
-154
 11
389.658
 21
-152.065
  0
LINE
  8
0
 10
389.658
 20
-152.065
 11
390.492
 21
-150.051
  0
LINE
  8
0
 10
390.492
 20
-150.051
 11
391.148
 21
-147.97
  0
LINE
  8
0
 10
391.148
 20
-147.97
 11
391.62
 21
-145.841
  0
LINE
  8
0
 10
391.62
 20
-145.841
 11
391.905
 21
-143.679
  0
LINE
  8
0
 10
391.905
 20
-143.679
 11
392
 21
-141.5
  0
LINE
  8
0
 10
392
 20
-141.5
 11
392
 21
0
  0
LINE
  8
0
 10
392
 20
0
 11
337.565
 21
0
  0
LINE
  8
0
 10
337.565
 20
0
 11
337.565
 21
-2.24107
  0
LINE
  8
0
 10
337.565
 20
-2.24107
 11
337.45
 21
-2.70921
  0
LINE
  8
0
 10
337.45
 20
-2.70921
 11
337.226
 21
-3.13613
  0
LINE
  8
0
 10
337.226
 20
-3.13613
 11
336.906
 21
-3.49702
  0
LINE
  8
0
 10
336.906
 20
-3.49702
 11
336.509
 21
-3.77091
  0
LINE
  8
0
 10
336.509
 20
-3.77091
 11
336.059
 21
-3.94188
  0
LINE
  8
0
 10
336.059
 20
-3.94188
 11
335.58
 21
-4
  0
LINE
  8
0
 10
335.58
 20
-4
 11
335.101
 21
-3.94188
  0
LINE
  8
0
 10
335.101
 20
-3.94188
 11
334.651
 21
-3.77091
  0
LINE
  8
0
 10
334.651
 20
-3.77091
 11
334.254
 21
-3.49702
  0
LINE
  8
0
 10
334.254
 20
-3.49702
 11
333.934
 21
-3.13613
  0
LINE
  8
0
 10
333.934
 20
-3.13613
 11
333.71
 21
-2.70921
  0
LINE
  8
0
 10
333.71
 20
-2.70921
 11
333.595
 21
-2.24107
  0
LINE
  8
0
 10
333.595
 20
-2.24107
 11
333.595
 21
0
  0
LINE
  8
0
 10
333.595
 20
0
 11
326.67
 21
0
  0
LINE
  8
0
 10
326.67
 20
0
 11
326.67
 21
-3.24774
  0
LINE
  8
0
 10
326.67
 20
-3.24774
 11
326.588
 21
-3.73646
  0
LINE
  8
0
 10
326.588
 20
-3.73646
 11
326.427
 21
-4.20509
  0
LINE
  8
0
 10
326.427
 20
-4.20509
 11
326.192
 21
-4.64084
  0
LINE
  8
0
 10
326.192
 20
-4.64084
 11
325.887
 21
-5.03184
  0
LINE
  8
0
 10
325.887
 20
-5.03184
 11
325.523
 21
-5.36742
  0
LINE
  8
0
 10
325.523
 20
-5.36742
 11
325.108
 21
-5.63842
  0
LINE
  8
0
 10
325.108
 20
-5.63842
 11
324.654
 21
-5.83745
  0
LINE
  8
0
 10
324.654
 20
-5.83745
 11
324.174
 21
-5.95908
  0
LINE
  8
0
 10
324.174
 20
-5.95908
 11
323.68
 21
-6
  0
LINE
  8
0
 10
323.68
 20
-6
 11
323.186
 21
-5.95908
  0
LINE
  8
0
 10
323.186
 20
-5.95908
 11
322.706
 21
-5.83745
  0
LINE
  8
0
 10
322.706
 20
-5.83745
 11
322.252
 21
-5.63842
  0
LINE
  8
0
 10
322.252
 20
-5.63842
 11
321.837
 21
-5.36742
  0
LINE
  8
0
 10
321.837
 20
-5.36742
 11
321.473
 21
-5.03184
  0
LINE
  8
0
 10
321.473
 20
-5.03184
 11
321.169
 21
-4.64084
  0
LINE
  8
0
 10
321.169
 20
-4.64084
 11
320.933
 21
-4.20509
  0
LINE
  8
0
 10
320.933
 20
-4.20509
 11
320.772
 21
-3.73646
  0
LINE
  8
0
 10
320.772
 20
-3.73646
 11
320.69
 21
-3.24774
  0
LINE
  8
0
 10
320.69
 20
-3.24774
 11
320.69
 21
0
  0
LINE
  8
0
 10
320.69
 20
0
 11
3.06866e-14
 21
0
  0
LINE
  8
0
 10
3.06866e-14
 20
0
 11
3.06866e-14
 21
-14.4
  0
LINE
  8
0
 10
3.06866e-14
 20
-14.4
 11
2.5
 21
-14.4
  0
LINE
  8
0
 10
2.5
 20
-14.4
 11
2.74386
 21
-14.424
  0
LINE
  8
0
 10
2.74386
 20
-14.424
 11
2.98773
 21
-14.448
  0
LINE
  8
0
 10
2.98773
 20
-14.448
 11
3.45671
 21
-14.5903
  0
LINE
  8
0
 10
3.45671
 20
-14.5903
 11
3.88893
 21
-14.8213
  0
LINE
  8
0
 10
3.88893
 20
-14.8213
 11
4.26777
 21
-15.1322
  0
LINE
  8
0
 10
4.26777
 20
-15.1322
 11
4.57867
 21
-15.5111
  0
LINE
  8
0
 10
4.57867
 20
-15.5111
 11
4.8097
 21
-15.9433
  0
LINE
  8
0
 10
4.8097
 20
-15.9433
 11
4.95196
 21
-16.4123
  0
LINE
  8
0
 10
4.95196
 20
-16.4123
 11
4.97598
 21
-16.6561
  0
LINE
  8
0
 10
4.97598
 20
-16.6561
 11
5
 21
-16.9
  0
LINE
  8
0
 10
5
 20
-16.9
 11
4.97598
 21
-17.1439
  0
LINE
  8
0
 10
4.97598
 20
-17.1439
 11
4.95196
 21
-17.3877
  0
LINE
  8
0
 10
4.95196
 20
-17.3877
 11
4.8097
 21
-17.8567
  0
LINE
  8
0
 10
4.8097
 20
-17.8567
 11
4.57867
 21
-18.2889
  0
LINE
  8
0
 10
4.57867
 20
-18.2889
 11
4.26777
 21
-18.6678
  0
LINE
  8
0
 10
4.26777
 20
-18.6678
 11
3.88893
 21
-18.9787
  0
LINE
  8
0
 10
3.88893
 20
-18.9787
 11
3.45671
 21
-19.2097
  0
LINE
  8
0
 10
3.45671
 20
-19.2097
 11
2.98773
 21
-19.352
  0
LINE
  8
0
 10
2.98773
 20
-19.352
 11
2.74386
 21
-19.376
  0
LINE
  8
0
 10
2.74386
 20
-19.376
 11
2.5
 21
-19.4
  0
LINE
  8
0
 10
2.5
 20
-19.4
 11
3.06866e-14
 21
-19.4
  0
LINE
  8
0
 10
3.06866e-14
 20
-19.4
 11
3.06866e-14
 21
-24.4146
  0
LINE
  8
0
 10
3.06866e-14
 20
-24.4146
 11
2.24107
 21
-24.4146
  0
LINE
  8
0
 10
2.24107
 20
-24.4146
 11
2.70921
 21
-24.53
  0
LINE
  8
0
 10
2.70921
 20
-24.53
 11
3.13613
 21
-24.754
  0
LINE
  8
0
 10
3.13613
 20
-24.754
 11
3.49702
 21
-25.0738
  0
LINE
  8
0
 10
3.49702
 20
-25.0738
 11
3.77091
 21
-25.4706
  0
LINE
  8
0
 10
3.77091
 20
-25.4706
 11
3.94188
 21
-25.9214
  0
LINE
  8
0
 10
3.94188
 20
-25.9214
 11
3.97094
 21
-26.1607
  0
LINE
  8
0
 10
3.97094
 20
-26.1607
 11
4
 21
-26.4
  0
LINE
  8
0
 10
4
 20
-26.4
 11
3.97094
 21
-26.6393
  0
LINE
  8
0
 10
3.97094
 20
-26.6393
 11
3.94188
 21
-26.8786
  0
LINE
  8
0
 10
3.94188
 20
-26.8786
 11
3.77091
 21
-27.3294
  0
LINE
  8
0
 10
3.77091
 20
-27.3294
 11
3.49702
 21
-27.7262
  0
LINE
  8
0
 10
3.49702
 20
-27.7262
 11
3.13613
 21
-28.046
  0
LINE
  8
0
 10
3.13613
 20
-28.046
 11
2.70921
 21
-28.27
  0
LINE
  8
0
 10
2.70921
 20
-28.27
 11
2.24107
 21
-28.3854
  0
LINE
  8
0
 10
2.24107
 20
-28.3854
 11
3.06866e-14
 21
-28.3854
  0
LINE
  8
0
 10
3.06866e-14
 20
-28.3854
 11
3.06866e-14
 21
-87.9146
  0
LINE
  8
0
 10
3.06866e-14
 20
-87.9146
 11
2.24107
 21
-87.9146
  0
LINE
  8
0
 10
2.24107
 20
-87.9146
 11
2.70921
 21
-88.03
  0
LINE
  8
0
 10
2.70921
 20
-88.03
 11
3.13613
 21
-88.254
  0
LINE
  8
0
 10
3.13613
 20
-88.254
 11
3.49702
 21
-88.5738
  0
LINE
  8
0
 10
3.49702
 20
-88.5738
 11
3.77091
 21
-88.9706
  0
LINE
  8
0
 10
3.77091
 20
-88.9706
 11
3.94188
 21
-89.4214
  0
LINE
  8
0
 10
3.94188
 20
-89.4214
 11
3.97094
 21
-89.6607
  0
LINE
  8
0
 10
3.97094
 20
-89.6607
 11
4
 21
-89.9
  0
LINE
  8
0
 10
4
 20
-89.9
 11
3.97094
 21
-90.1393
  0
LINE
  8
0
 10
3.97094
 20
-90.1393
 11
3.94188
 21
-90.3786
  0
LINE
  8
0
 10
3.94188
 20
-90.3786
 11
3.77091
 21
-90.8294
  0
LINE
  8
0
 10
3.77091
 20
-90.8294
 11
3.49702
 21
-91.2262
  0
LINE
  8
0
 10
3.49702
 20
-91.2262
 11
3.13613
 21
-91.546
  0
LINE
  8
0
 10
3.13613
 20
-91.546
 11
2.70921
 21
-91.77
  0
LINE
  8
0
 10
2.70921
 20
-91.77
 11
2.24107
 21
-91.8854
  0
LINE
  8
0
 10
2.24107
 20
-91.8854
 11
3.06866e-14
 21
-91.8854
  0
LINE
  8
0
 10
3.06866e-14
 20
-91.8854
 11
3.06866e-14
 21
-99
  0
LINE
  8
0
 10
3.06866e-14
 20
-99
 11
3.5
 21
-99
  0
LINE
  8
0
 10
3.5
 20
-99
 11
3.74905
 21
-99.0178
  0
LINE
  8
0
 10
3.74905
 20
-99.0178
 11
3.9981
 21
-99.0356
  0
LINE
  8
0
 10
3.9981
 20
-99.0356
 11
4.48606
 21
-99.1418
  0
LINE
  8
0
 10
4.48606
 20
-99.1418
 11
4.95395
 21
-99.3163
  0
LINE
  8
0
 10
4.95395
 20
-99.3163
 11
5.39224
 21
-99.5556
  0
LINE
  8
0
 10
5.39224
 20
-99.5556
 11
5.79201
 21
-99.8549
  0
LINE
  8
0
 10
5.79201
 20
-99.8549
 11
6.14512
 21
-100.208
  0
LINE
  8
0
 10
6.14512
 20
-100.208
 11
6.44439
 21
-100.608
  0
LINE
  8
0
 10
6.44439
 20
-100.608
 11
6.68371
 21
-101.046
  0
LINE
  8
0
 10
6.68371
 20
-101.046
 11
6.85822
 21
-101.514
  0
LINE
  8
0
 10
6.85822
 20
-101.514
 11
6.96437
 21
-102.002
  0
LINE
  8
0
 10
6.96437
 20
-102.002
 11
6.98219
 21
-102.251
  0
LINE
  8
0
 10
6.98219
 20
-102.251
 11
7
 21
-102.5
  0
LINE
  8
0
 10
7
 20
-102.5
 11
6.98219
 21
-102.749
  0
LINE
  8
0
 10
6.98219
 20
-102.749
 11
6.96437
 21
-102.998
  0
LINE
  8
0
 10
6.96437
 20
-102.998
 11
6.85822
 21
-103.486
  0
LINE
  8
0
 10
6.85822
 20
-103.486
 11
6.68371
 21
-103.954
  0
LINE
  8
0
 10
6.68371
 20
-103.954
 11
6.44439
 21
-104.392
  0
LINE
  8
0
 10
6.44439
 20
-104.392
 11
6.14512
 21
-104.792
  0
LINE
  8
0
 10
6.14512
 20
-104.792
 11
5.79201
 21
-105.145
  0
LINE
  8
0
 10
5.79201
 20
-105.145
 11
5.39224
 21
-105.444
  0
LINE
  8
0
 10
5.39224
 20
-105.444
 11
4.95395
 21
-105.684
  0
LINE
  8
0
 10
4.95395
 20
-105.684
 11
4.48606
 21
-105.858
  0
LINE
  8
0
 10
4.48606
 20
-105.858
 11
3.9981
 21
-105.964
  0
LINE
  8
0
 10
3.9981
 20
-105.964
 11
3.74905
 21
-105.982
  0
LINE
  8
0
 10
3.74905
 20
-105.982
 11
3.5
 21
-106
  0
LINE
  8
0
 10
3.5
 20
-106
 11
3.06866e-14
 21
-106
  0
LINE
  8
0
 10
3.06866e-14
 20
-106
 11
3.06866e-14
 21
-166.5
  0
LINE
  8
0
 10
5
 20
-157.8
 11
5.02675
 21
-157.563
  0
LINE
  8
0
 10
5.02675
 20
-157.563
 11
5.05516
 21
-157.31
  0
LINE
  8
0
 10
5.05516
 20
-157.31
 11
5.21787
 21
-156.845
  0
LINE
  8
0
 10
5.21787
 20
-156.845
 11
5.47997
 21
-156.428
  0
LINE
  8
0
 10
5.47997
 20
-156.428
 11
5.82832
 21
-156.08
  0
LINE
  8
0
 10
5.82832
 20
-156.08
 11
6.24546
 21
-155.818
  0
LINE
  8
0
 10
6.24546
 20
-155.818
 11
6.71045
 21
-155.655
  0
LINE
  8
0
 10
6.71045
 20
-155.655
 11
7.2
 21
-155.6
  0
LINE
  8
0
 10
7.2
 20
-155.6
 11
7.68955
 21
-155.655
  0
LINE
  8
0
 10
7.68955
 20
-155.655
 11
8.15454
 21
-155.818
  0
LINE
  8
0
 10
8.15454
 20
-155.818
 11
8.57168
 21
-156.08
  0
LINE
  8
0
 10
8.57168
 20
-156.08
 11
8.92003
 21
-156.428
  0
LINE
  8
0
 10
8.92003
 20
-156.428
 11
9.18213
 21
-156.845
  0
LINE
  8
0
 10
9.18213
 20
-156.845
 11
9.34484
 21
-157.31
  0
LINE
  8
0
 10
9.34484
 20
-157.31
 11
9.4
 21
-157.8
  0
LINE
  8
0
 10
9.4
 20
-157.8
 11
9.34484
 21
-158.29
  0
LINE
  8
0
 10
9.34484
 20
-158.29
 11
9.18213
 21
-158.755
  0
LINE
  8
0
 10
9.18213
 20
-158.755
 11
8.92003
 21
-159.172
  0
LINE
  8
0
 10
8.92003
 20
-159.172
 11
8.57168
 21
-159.52
  0
LINE
  8
0
 10
8.57168
 20
-159.52
 11
8.15454
 21
-159.782
  0
LINE
  8
0
 10
8.15454
 20
-159.782
 11
7.68955
 21
-159.945
  0
LINE
  8
0
 10
7.68955
 20
-159.945
 11
7.2
 21
-160
  0
LINE
  8
0
 10
7.2
 20
-160
 11
6.71045
 21
-159.945
  0
LINE
  8
0
 10
6.71045
 20
-159.945
 11
6.24546
 21
-159.782
  0
LINE
  8
0
 10
6.24546
 20
-159.782
 11
5.82832
 21
-159.52
  0
LINE
  8
0
 10
5.82832
 20
-159.52
 11
5.47997
 21
-159.172
  0
LINE
  8
0
 10
5.47997
 20
-159.172
 11
5.21787
 21
-158.755
  0
LINE
  8
0
 10
5.21787
 20
-158.755
 11
5.05516
 21
-158.29
  0
LINE
  8
0
 10
5.05516
 20
-158.29
 11
5.02675
 21
-158.037
  0
LINE
  8
0
 10
5.02675
 20
-158.037
 11
5
 21
-157.8
  0
LINE
  8
0
 10
5
 20
-136.58
 11
5.02675
 21
-136.343
  0
LINE
  8
0
 10
5.02675
 20
-136.343
 11
5.05516
 21
-136.09
  0
LINE
  8
0
 10
5.05516
 20
-136.09
 11
5.21787
 21
-135.625
  0
LINE
  8
0
 10
5.21787
 20
-135.625
 11
5.47997
 21
-135.208
  0
LINE
  8
0
 10
5.47997
 20
-135.208
 11
5.82832
 21
-134.86
  0
LINE
  8
0
 10
5.82832
 20
-134.86
 11
6.24546
 21
-134.598
  0
LINE
  8
0
 10
6.24546
 20
-134.598
 11
6.71045
 21
-134.435
  0
LINE
  8
0
 10
6.71045
 20
-134.435
 11
7.2
 21
-134.38
  0
LINE
  8
0
 10
7.2
 20
-134.38
 11
7.68955
 21
-134.435
  0
LINE
  8
0
 10
7.68955
 20
-134.435
 11
8.15454
 21
-134.598
  0
LINE
  8
0
 10
8.15454
 20
-134.598
 11
8.57168
 21
-134.86
  0
LINE
  8
0
 10
8.57168
 20
-134.86
 11
8.92003
 21
-135.208
  0
LINE
  8
0
 10
8.92003
 20
-135.208
 11
9.18213
 21
-135.625
  0
LINE
  8
0
 10
9.18213
 20
-135.625
 11
9.34484
 21
-136.09
  0
LINE
  8
0
 10
9.34484
 20
-136.09
 11
9.4
 21
-136.58
  0
LINE
  8
0
 10
9.4
 20
-136.58
 11
9.34484
 21
-137.07
  0
LINE
  8
0
 10
9.34484
 20
-137.07
 11
9.18213
 21
-137.535
  0
LINE
  8
0
 10
9.18213
 20
-137.535
 11
8.92003
 21
-137.952
  0
LINE
  8
0
 10
8.92003
 20
-137.952
 11
8.57168
 21
-138.3
  0
LINE
  8
0
 10
8.57168
 20
-138.3
 11
8.15454
 21
-138.562
  0
LINE
  8
0
 10
8.15454
 20
-138.562
 11
7.68955
 21
-138.725
  0
LINE
  8
0
 10
7.68955
 20
-138.725
 11
7.2
 21
-138.78
  0
LINE
  8
0
 10
7.2
 20
-138.78
 11
6.71045
 21
-138.725
  0
LINE
  8
0
 10
6.71045
 20
-138.725
 11
6.24546
 21
-138.562
  0
LINE
  8
0
 10
6.24546
 20
-138.562
 11
5.82832
 21
-138.3
  0
LINE
  8
0
 10
5.82832
 20
-138.3
 11
5.47997
 21
-137.952
  0
LINE
  8
0
 10
5.47997
 20
-137.952
 11
5.21787
 21
-137.535
  0
LINE
  8
0
 10
5.21787
 20
-137.535
 11
5.05516
 21
-137.07
  0
LINE
  8
0
 10
5.05516
 20
-137.07
 11
5.02675
 21
-136.817
  0
LINE
  8
0
 10
5.02675
 20
-136.817
 11
5
 21
-136.58
  0
LINE
  8
0
 10
20.9
 20
-7.2
 11
20.9552
 21
-6.71045
  0
LINE
  8
0
 10
20.9552
 20
-6.71045
 11
21.1179
 21
-6.24546
  0
LINE
  8
0
 10
21.1179
 20
-6.24546
 11
21.38
 21
-5.82832
  0
LINE
  8
0
 10
21.38
 20
-5.82832
 11
21.7283
 21
-5.47997
  0
LINE
  8
0
 10
21.7283
 20
-5.47997
 11
22.1455
 21
-5.21787
  0
LINE
  8
0
 10
22.1455
 20
-5.21787
 11
22.6105
 21
-5.05516
  0
LINE
  8
0
 10
22.6105
 20
-5.05516
 11
22.8626
 21
-5.02675
  0
LINE
  8
0
 10
22.8626
 20
-5.02675
 11
23.1
 21
-5
  0
LINE
  8
0
 10
23.1
 20
-5
 11
23.3374
 21
-5.02675
  0
LINE
  8
0
 10
23.3374
 20
-5.02675
 11
23.5895
 21
-5.05516
  0
LINE
  8
0
 10
23.5895
 20
-5.05516
 11
24.0545
 21
-5.21787
  0
LINE
  8
0
 10
24.0545
 20
-5.21787
 11
24.4717
 21
-5.47997
  0
LINE
  8
0
 10
24.4717
 20
-5.47997
 11
24.82
 21
-5.82832
  0
LINE
  8
0
 10
24.82
 20
-5.82832
 11
25.0821
 21
-6.24546
  0
LINE
  8
0
 10
25.0821
 20
-6.24546
 11
25.2448
 21
-6.71045
  0
LINE
  8
0
 10
25.2448
 20
-6.71045
 11
25.3
 21
-7.2
  0
LINE
  8
0
 10
25.3
 20
-7.2
 11
25.2448
 21
-7.68955
  0
LINE
  8
0
 10
25.2448
 20
-7.68955
 11
25.0821
 21
-8.15454
  0
LINE
  8
0
 10
25.0821
 20
-8.15454
 11
24.82
 21
-8.57168
  0
LINE
  8
0
 10
24.82
 20
-8.57168
 11
24.4717
 21
-8.92003
  0
LINE
  8
0
 10
24.4717
 20
-8.92003
 11
24.0545
 21
-9.18213
  0
LINE
  8
0
 10
24.0545
 20
-9.18213
 11
23.5895
 21
-9.34484
  0
LINE
  8
0
 10
23.5895
 20
-9.34484
 11
23.1
 21
-9.4
  0
LINE
  8
0
 10
23.1
 20
-9.4
 11
22.6105
 21
-9.34484
  0
LINE
  8
0
 10
22.6105
 20
-9.34484
 11
22.1455
 21
-9.18213
  0
LINE
  8
0
 10
22.1455
 20
-9.18213
 11
21.7283
 21
-8.92003
  0
LINE
  8
0
 10
21.7283
 20
-8.92003
 11
21.38
 21
-8.57168
  0
LINE
  8
0
 10
21.38
 20
-8.57168
 11
21.1179
 21
-8.15454
  0
LINE
  8
0
 10
21.1179
 20
-8.15454
 11
20.9552
 21
-7.68955
  0
LINE
  8
0
 10
20.9552
 20
-7.68955
 11
20.9
 21
-7.2
  0
LINE
  8
0
 10
29.55
 20
-159.65
 11
29.6052
 21
-159.16
  0
LINE
  8
0
 10
29.6052
 20
-159.16
 11
29.7679
 21
-158.695
  0
LINE
  8
0
 10
29.7679
 20
-158.695
 11
30.03
 21
-158.278
  0
LINE
  8
0
 10
30.03
 20
-158.278
 11
30.3783
 21
-157.93
  0
LINE
  8
0
 10
30.3783
 20
-157.93
 11
30.7955
 21
-157.668
  0
LINE
  8
0
 10
30.7955
 20
-157.668
 11
31.2605
 21
-157.505
  0
LINE
  8
0
 10
31.2605
 20
-157.505
 11
31.75
 21
-157.45
  0
LINE
  8
0
 10
31.75
 20
-157.45
 11
32.2395
 21
-157.505
  0
LINE
  8
0
 10
32.2395
 20
-157.505
 11
32.7045
 21
-157.668
  0
LINE
  8
0
 10
32.7045
 20
-157.668
 11
33.1217
 21
-157.93
  0
LINE
  8
0
 10
33.1217
 20
-157.93
 11
33.47
 21
-158.278
  0
LINE
  8
0
 10
33.47
 20
-158.278
 11
33.7321
 21
-158.695
  0
LINE
  8
0
 10
33.7321
 20
-158.695
 11
33.8948
 21
-159.16
  0
LINE
  8
0
 10
33.8948
 20
-159.16
 11
33.95
 21
-159.65
  0
LINE
  8
0
 10
33.95
 20
-159.65
 11
33.8948
 21
-160.14
  0
LINE
  8
0
 10
33.8948
 20
-160.14
 11
33.7321
 21
-160.605
  0
LINE
  8
0
 10
33.7321
 20
-160.605
 11
33.47
 21
-161.022
  0
LINE
  8
0
 10
33.47
 20
-161.022
 11
33.1217
 21
-161.37
  0
LINE
  8
0
 10
33.1217
 20
-161.37
 11
32.7045
 21
-161.632
  0
LINE
  8
0
 10
32.7045
 20
-161.632
 11
32.2395
 21
-161.795
  0
LINE
  8
0
 10
32.2395
 20
-161.795
 11
31.75
 21
-161.85
  0
LINE
  8
0
 10
31.75
 20
-161.85
 11
31.2605
 21
-161.795
  0
LINE
  8
0
 10
31.2605
 20
-161.795
 11
30.7955
 21
-161.632
  0
LINE
  8
0
 10
30.7955
 20
-161.632
 11
30.3783
 21
-161.37
  0
LINE
  8
0
 10
30.3783
 20
-161.37
 11
30.03
 21
-161.022
  0
LINE
  8
0
 10
30.03
 20
-161.022
 11
29.7679
 21
-160.605
  0
LINE
  8
0
 10
29.7679
 20
-160.605
 11
29.6052
 21
-160.14
  0
LINE
  8
0
 10
29.6052
 20
-160.14
 11
29.55
 21
-159.65
  0
LINE
  8
0
 10
42.12
 20
-7.2
 11
42.1752
 21
-6.71045
  0
LINE
  8
0
 10
42.1752
 20
-6.71045
 11
42.3379
 21
-6.24546
  0
LINE
  8
0
 10
42.3379
 20
-6.24546
 11
42.6
 21
-5.82832
  0
LINE
  8
0
 10
42.6
 20
-5.82832
 11
42.9483
 21
-5.47997
  0
LINE
  8
0
 10
42.9483
 20
-5.47997
 11
43.3655
 21
-5.21787
  0
LINE
  8
0
 10
43.3655
 20
-5.21787
 11
43.8305
 21
-5.05516
  0
LINE
  8
0
 10
43.8305
 20
-5.05516
 11
44.0826
 21
-5.02675
  0
LINE
  8
0
 10
44.0826
 20
-5.02675
 11
44.32
 21
-5
  0
LINE
  8
0
 10
44.32
 20
-5
 11
44.5574
 21
-5.02675
  0
LINE
  8
0
 10
44.5574
 20
-5.02675
 11
44.8095
 21
-5.05516
  0
LINE
  8
0
 10
44.8095
 20
-5.05516
 11
45.2745
 21
-5.21787
  0
LINE
  8
0
 10
45.2745
 20
-5.21787
 11
45.6917
 21
-5.47997
  0
LINE
  8
0
 10
45.6917
 20
-5.47997
 11
46.04
 21
-5.82832
  0
LINE
  8
0
 10
46.04
 20
-5.82832
 11
46.3021
 21
-6.24546
  0
LINE
  8
0
 10
46.3021
 20
-6.24546
 11
46.4648
 21
-6.71045
  0
LINE
  8
0
 10
46.4648
 20
-6.71045
 11
46.52
 21
-7.2
  0
LINE
  8
0
 10
46.52
 20
-7.2
 11
46.4648
 21
-7.68955
  0
LINE
  8
0
 10
46.4648
 20
-7.68955
 11
46.3021
 21
-8.15454
  0
LINE
  8
0
 10
46.3021
 20
-8.15454
 11
46.04
 21
-8.57168
  0
LINE
  8
0
 10
46.04
 20
-8.57168
 11
45.6917
 21
-8.92003
  0
LINE
  8
0
 10
45.6917
 20
-8.92003
 11
45.2745
 21
-9.18213
  0
LINE
  8
0
 10
45.2745
 20
-9.18213
 11
44.8095
 21
-9.34484
  0
LINE
  8
0
 10
44.8095
 20
-9.34484
 11
44.32
 21
-9.4
  0
LINE
  8
0
 10
44.32
 20
-9.4
 11
43.8305
 21
-9.34484
  0
LINE
  8
0
 10
43.8305
 20
-9.34484
 11
43.3655
 21
-9.18213
  0
LINE
  8
0
 10
43.3655
 20
-9.18213
 11
42.9483
 21
-8.92003
  0
LINE
  8
0
 10
42.9483
 20
-8.92003
 11
42.6
 21
-8.57168
  0
LINE
  8
0
 10
42.6
 20
-8.57168
 11
42.3379
 21
-8.15454
  0
LINE
  8
0
 10
42.3379
 20
-8.15454
 11
42.1752
 21
-7.68955
  0
LINE
  8
0
 10
42.1752
 20
-7.68955
 11
42.12
 21
-7.2
  0
LINE
  8
0
 10
144.85
 20
-159.65
 11
144.905
 21
-159.16
  0
LINE
  8
0
 10
144.905
 20
-159.16
 11
145.068
 21
-158.695
  0
LINE
  8
0
 10
145.068
 20
-158.695
 11
145.33
 21
-158.278
  0
LINE
  8
0
 10
145.33
 20
-158.278
 11
145.678
 21
-157.93
  0
LINE
  8
0
 10
145.678
 20
-157.93
 11
146.095
 21
-157.668
  0
LINE
  8
0
 10
146.095
 20
-157.668
 11
146.56
 21
-157.505
  0
LINE
  8
0
 10
146.56
 20
-157.505
 11
147.05
 21
-157.45
  0
LINE
  8
0
 10
147.05
 20
-157.45
 11
147.54
 21
-157.505
  0
LINE
  8
0
 10
147.54
 20
-157.505
 11
148.005
 21
-157.668
  0
LINE
  8
0
 10
148.005
 20
-157.668
 11
148.422
 21
-157.93
  0
LINE
  8
0
 10
148.422
 20
-157.93
 11
148.77
 21
-158.278
  0
LINE
  8
0
 10
148.77
 20
-158.278
 11
149.032
 21
-158.695
  0
LINE
  8
0
 10
149.032
 20
-158.695
 11
149.195
 21
-159.16
  0
LINE
  8
0
 10
149.195
 20
-159.16
 11
149.25
 21
-159.65
  0
LINE
  8
0
 10
149.25
 20
-159.65
 11
149.195
 21
-160.14
  0
LINE
  8
0
 10
149.195
 20
-160.14
 11
149.032
 21
-160.605
  0
LINE
  8
0
 10
149.032
 20
-160.605
 11
148.77
 21
-161.022
  0
LINE
  8
0
 10
148.77
 20
-161.022
 11
148.422
 21
-161.37
  0
LINE
  8
0
 10
148.422
 20
-161.37
 11
148.005
 21
-161.632
  0
LINE
  8
0
 10
148.005
 20
-161.632
 11
147.54
 21
-161.795
  0
LINE
  8
0
 10
147.54
 20
-161.795
 11
147.05
 21
-161.85
  0
LINE
  8
0
 10
147.05
 20
-161.85
 11
146.56
 21
-161.795
  0
LINE
  8
0
 10
146.56
 20
-161.795
 11
146.095
 21
-161.632
  0
LINE
  8
0
 10
146.095
 20
-161.632
 11
145.678
 21
-161.37
  0
LINE
  8
0
 10
145.678
 20
-161.37
 11
145.33
 21
-161.022
  0
LINE
  8
0
 10
145.33
 20
-161.022
 11
145.068
 21
-160.605
  0
LINE
  8
0
 10
145.068
 20
-160.605
 11
144.905
 21
-160.14
  0
LINE
  8
0
 10
144.905
 20
-160.14
 11
144.85
 21
-159.65
  0
LINE
  8
0
 10
188.65
 20
-151.25
 11
188.734
 21
-150.771
  0
LINE
  8
0
 10
188.734
 20
-150.771
 11
188.978
 21
-150.35
  0
LINE
  8
0
 10
188.978
 20
-150.35
 11
189.35
 21
-150.038
  0
LINE
  8
0
 10
189.35
 20
-150.038
 11
189.807
 21
-149.871
  0
LINE
  8
0
 10
189.807
 20
-149.871
 11
190.293
 21
-149.871
  0
LINE
  8
0
 10
190.293
 20
-149.871
 11
190.75
 21
-150.038
  0
LINE
  8
0
 10
190.75
 20
-150.038
 11
191.122
 21
-150.35
  0
LINE
  8
0
 10
191.122
 20
-150.35
 11
191.366
 21
-150.771
  0
LINE
  8
0
 10
191.366
 20
-150.771
 11
191.45
 21
-151.25
  0
LINE
  8
0
 10
191.45
 20
-151.25
 11
191.366
 21
-151.729
  0
LINE
  8
0
 10
191.366
 20
-151.729
 11
191.122
 21
-152.15
  0
LINE
  8
0
 10
191.122
 20
-152.15
 11
190.75
 21
-152.462
  0
LINE
  8
0
 10
190.75
 20
-152.462
 11
190.293
 21
-152.629
  0
LINE
  8
0
 10
190.293
 20
-152.629
 11
189.807
 21
-152.629
  0
LINE
  8
0
 10
189.807
 20
-152.629
 11
189.35
 21
-152.462
  0
LINE
  8
0
 10
189.35
 20
-152.462
 11
188.978
 21
-152.15
  0
LINE
  8
0
 10
188.978
 20
-152.15
 11
188.734
 21
-151.729
  0
LINE
  8
0
 10
188.734
 20
-151.729
 11
188.65
 21
-151.25
  0
LINE
  8
0
 10
188.65
 20
-119.75
 11
188.734
 21
-119.271
  0
LINE
  8
0
 10
188.734
 20
-119.271
 11
188.978
 21
-118.85
  0
LINE
  8
0
 10
188.978
 20
-118.85
 11
189.35
 21
-118.538
  0
LINE
  8
0
 10
189.35
 20
-118.538
 11
189.807
 21
-118.371
  0
LINE
  8
0
 10
189.807
 20
-118.371
 11
190.293
 21
-118.371
  0
LINE
  8
0
 10
190.293
 20
-118.371
 11
190.75
 21
-118.538
  0
LINE
  8
0
 10
190.75
 20
-118.538
 11
191.122
 21
-118.85
  0
LINE
  8
0
 10
191.122
 20
-118.85
 11
191.366
 21
-119.271
  0
LINE
  8
0
 10
191.366
 20
-119.271
 11
191.45
 21
-119.75
  0
LINE
  8
0
 10
191.45
 20
-119.75
 11
191.366
 21
-120.229
  0
LINE
  8
0
 10
191.366
 20
-120.229
 11
191.122
 21
-120.65
  0
LINE
  8
0
 10
191.122
 20
-120.65
 11
190.75
 21
-120.962
  0
LINE
  8
0
 10
190.75
 20
-120.962
 11
190.293
 21
-121.129
  0
LINE
  8
0
 10
190.293
 20
-121.129
 11
189.807
 21
-121.129
  0
LINE
  8
0
 10
189.807
 20
-121.129
 11
189.35
 21
-120.962
  0
LINE
  8
0
 10
189.35
 20
-120.962
 11
188.978
 21
-120.65
  0
LINE
  8
0
 10
188.978
 20
-120.65
 11
188.734
 21
-120.229
  0
LINE
  8
0
 10
188.734
 20
-120.229
 11
188.65
 21
-119.75
  0
LINE
  8
0
 10
202.95
 20
-135.35
 11
203.034
 21
-134.871
  0
LINE
  8
0
 10
203.034
 20
-134.871
 11
203.278
 21
-134.45
  0
LINE
  8
0
 10
203.278
 20
-134.45
 11
203.65
 21
-134.138
  0
LINE
  8
0
 10
203.65
 20
-134.138
 11
204.107
 21
-133.971
  0
LINE
  8
0
 10
204.107
 20
-133.971
 11
204.593
 21
-133.971
  0
LINE
  8
0
 10
204.593
 20
-133.971
 11
205.05
 21
-134.138
  0
LINE
  8
0
 10
205.05
 20
-134.138
 11
205.422
 21
-134.45
  0
LINE
  8
0
 10
205.422
 20
-134.45
 11
205.666
 21
-134.871
  0
LINE
  8
0
 10
205.666
 20
-134.871
 11
205.75
 21
-135.35
  0
LINE
  8
0
 10
205.75
 20
-135.35
 11
205.666
 21
-135.829
  0
LINE
  8
0
 10
205.666
 20
-135.829
 11
205.422
 21
-136.25
  0
LINE
  8
0
 10
205.422
 20
-136.25
 11
205.05
 21
-136.562
  0
LINE
  8
0
 10
205.05
 20
-136.562
 11
204.593
 21
-136.729
  0
LINE
  8
0
 10
204.593
 20
-136.729
 11
204.107
 21
-136.729
  0
LINE
  8
0
 10
204.107
 20
-136.729
 11
203.65
 21
-136.562
  0
LINE
  8
0
 10
203.65
 20
-136.562
 11
203.278
 21
-136.25
  0
LINE
  8
0
 10
203.278
 20
-136.25
 11
203.034
 21
-135.829
  0
LINE
  8
0
 10
203.034
 20
-135.829
 11
202.95
 21
-135.35
  0
LINE
  8
0
 10
202.95
 20
-103.85
 11
203.034
 21
-103.371
  0
LINE
  8
0
 10
203.034
 20
-103.371
 11
203.278
 21
-102.95
  0
LINE
  8
0
 10
203.278
 20
-102.95
 11
203.65
 21
-102.638
  0
LINE
  8
0
 10
203.65
 20
-102.638
 11
204.107
 21
-102.471
  0
LINE
  8
0
 10
204.107
 20
-102.471
 11
204.593
 21
-102.471
  0
LINE
  8
0
 10
204.593
 20
-102.471
 11
205.05
 21
-102.638
  0
LINE
  8
0
 10
205.05
 20
-102.638
 11
205.422
 21
-102.95
  0
LINE
  8
0
 10
205.422
 20
-102.95
 11
205.666
 21
-103.371
  0
LINE
  8
0
 10
205.666
 20
-103.371
 11
205.75
 21
-103.85
  0
LINE
  8
0
 10
205.75
 20
-103.85
 11
205.666
 21
-104.329
  0
LINE
  8
0
 10
205.666
 20
-104.329
 11
205.422
 21
-104.75
  0
LINE
  8
0
 10
205.422
 20
-104.75
 11
205.05
 21
-105.062
  0
LINE
  8
0
 10
205.05
 20
-105.062
 11
204.593
 21
-105.229
  0
LINE
  8
0
 10
204.593
 20
-105.229
 11
204.107
 21
-105.229
  0
LINE
  8
0
 10
204.107
 20
-105.229
 11
203.65
 21
-105.062
  0
LINE
  8
0
 10
203.65
 20
-105.062
 11
203.278
 21
-104.75
  0
LINE
  8
0
 10
203.278
 20
-104.75
 11
203.034
 21
-104.329
  0
LINE
  8
0
 10
203.034
 20
-104.329
 11
202.95
 21
-103.85
  0
LINE
  8
0
 10
230.855
 20
-107.523
 11
230.891
 21
-107.033
  0
LINE
  8
0
 10
230.891
 20
-107.033
 11
231.071
 21
-106.575
  0
LINE
  8
0
 10
231.071
 20
-106.575
 11
231.378
 21
-106.19
  0
LINE
  8
0
 10
231.378
 20
-106.19
 11
231.784
 21
-105.913
  0
LINE
  8
0
 10
231.784
 20
-105.913
 11
232.254
 21
-105.768
  0
LINE
  8
0
 10
232.254
 20
-105.768
 11
232.746
 21
-105.768
  0
LINE
  8
0
 10
232.746
 20
-105.768
 11
233.216
 21
-105.913
  0
LINE
  8
0
 10
233.216
 20
-105.913
 11
233.622
 21
-106.19
  0
LINE
  8
0
 10
233.622
 20
-106.19
 11
233.929
 21
-106.575
  0
LINE
  8
0
 10
233.929
 20
-106.575
 11
234.109
 21
-107.033
  0
LINE
  8
0
 10
234.109
 20
-107.033
 11
234.145
 21
-107.523
  0
LINE
  8
0
 10
234.145
 20
-107.523
 11
234.036
 21
-108.003
  0
LINE
  8
0
 10
234.036
 20
-108.003
 11
233.79
 21
-108.429
  0
LINE
  8
0
 10
233.79
 20
-108.429
 11
233.429
 21
-108.763
  0
LINE
  8
0
 10
233.429
 20
-108.763
 11
232.986
 21
-108.977
  0
LINE
  8
0
 10
232.986
 20
-108.977
 11
232.5
 21
-109.05
  0
LINE
  8
0
 10
232.5
 20
-109.05
 11
232.014
 21
-108.977
  0
LINE
  8
0
 10
232.014
 20
-108.977
 11
231.571
 21
-108.763
  0
LINE
  8
0
 10
231.571
 20
-108.763
 11
231.21
 21
-108.429
  0
LINE
  8
0
 10
231.21
 20
-108.429
 11
230.964
 21
-108.003
  0
LINE
  8
0
 10
230.964
 20
-108.003
 11
230.855
 21
-107.523
  0
LINE
  8
0
 10
237.155
 20
-59.2233
 11
237.191
 21
-58.7328
  0
LINE
  8
0
 10
237.191
 20
-58.7328
 11
237.371
 21
-58.275
  0
LINE
  8
0
 10
237.371
 20
-58.275
 11
237.678
 21
-57.8905
  0
LINE
  8
0
 10
237.678
 20
-57.8905
 11
238.084
 21
-57.6134
  0
LINE
  8
0
 10
238.084
 20
-57.6134
 11
238.554
 21
-57.4684
  0
LINE
  8
0
 10
238.554
 20
-57.4684
 11
239.046
 21
-57.4684
  0
LINE
  8
0
 10
239.046
 20
-57.4684
 11
239.516
 21
-57.6134
  0
LINE
  8
0
 10
239.516
 20
-57.6134
 11
239.922
 21
-57.8905
  0
LINE
  8
0
 10
239.922
 20
-57.8905
 11
240.229
 21
-58.275
  0
LINE
  8
0
 10
240.229
 20
-58.275
 11
240.409
 21
-58.7328
  0
LINE
  8
0
 10
240.409
 20
-58.7328
 11
240.445
 21
-59.2233
  0
LINE
  8
0
 10
240.445
 20
-59.2233
 11
240.336
 21
-59.7028
  0
LINE
  8
0
 10
240.336
 20
-59.7028
 11
240.09
 21
-60.1288
  0
LINE
  8
0
 10
240.09
 20
-60.1288
 11
239.729
 21
-60.4633
  0
LINE
  8
0
 10
239.729
 20
-60.4633
 11
239.286
 21
-60.6767
  0
LINE
  8
0
 10
239.286
 20
-60.6767
 11
238.8
 21
-60.75
  0
LINE
  8
0
 10
238.8
 20
-60.75
 11
238.314
 21
-60.6767
  0
LINE
  8
0
 10
238.314
 20
-60.6767
 11
237.871
 21
-60.4633
  0
LINE
  8
0
 10
237.871
 20
-60.4633
 11
237.51
 21
-60.1288
  0
LINE
  8
0
 10
237.51
 20
-60.1288
 11
237.264
 21
-59.7028
  0
LINE
  8
0
 10
237.264
 20
-59.7028
 11
237.155
 21
-59.2233
  0
LINE
  8
0
 10
276.862
 20
-31.65
 11
276.917
 21
-31.1605
  0
LINE
  8
0
 10
276.917
 20
-31.1605
 11
277.079
 21
-30.6955
  0
LINE
  8
0
 10
277.079
 20
-30.6955
 11
277.342
 21
-30.2783
  0
LINE
  8
0
 10
277.342
 20
-30.2783
 11
277.69
 21
-29.93
  0
LINE
  8
0
 10
277.69
 20
-29.93
 11
278.107
 21
-29.6679
  0
LINE
  8
0
 10
278.107
 20
-29.6679
 11
278.572
 21
-29.5052
  0
LINE
  8
0
 10
278.572
 20
-29.5052
 11
279.062
 21
-29.45
  0
LINE
  8
0
 10
279.062
 20
-29.45
 11
279.551
 21
-29.5052
  0
LINE
  8
0
 10
279.551
 20
-29.5052
 11
280.016
 21
-29.6679
  0
LINE
  8
0
 10
280.016
 20
-29.6679
 11
280.433
 21
-29.93
  0
LINE
  8
0
 10
280.433
 20
-29.93
 11
280.782
 21
-30.2783
  0
LINE
  8
0
 10
280.782
 20
-30.2783
 11
281.044
 21
-30.6955
  0
LINE
  8
0
 10
281.044
 20
-30.6955
 11
281.206
 21
-31.1605
  0
LINE
  8
0
 10
281.206
 20
-31.1605
 11
281.262
 21
-31.65
  0
LINE
  8
0
 10
281.262
 20
-31.65
 11
281.206
 21
-32.1395
  0
LINE
  8
0
 10
281.206
 20
-32.1395
 11
281.044
 21
-32.6045
  0
LINE
  8
0
 10
281.044
 20
-32.6045
 11
280.782
 21
-33.0217
  0
LINE
  8
0
 10
280.782
 20
-33.0217
 11
280.433
 21
-33.37
  0
LINE
  8
0
 10
280.433
 20
-33.37
 11
280.016
 21
-33.6321
  0
LINE
  8
0
 10
280.016
 20
-33.6321
 11
279.551
 21
-33.7948
  0
LINE
  8
0
 10
279.551
 20
-33.7948
 11
279.062
 21
-33.85
  0
LINE
  8
0
 10
279.062
 20
-33.85
 11
278.572
 21
-33.7948
  0
LINE
  8
0
 10
278.572
 20
-33.7948
 11
278.107
 21
-33.6321
  0
LINE
  8
0
 10
278.107
 20
-33.6321
 11
277.69
 21
-33.37
  0
LINE
  8
0
 10
277.69
 20
-33.37
 11
277.342
 21
-33.0217
  0
LINE
  8
0
 10
277.342
 20
-33.0217
 11
277.079
 21
-32.6045
  0
LINE
  8
0
 10
277.079
 20
-32.6045
 11
276.917
 21
-32.1395
  0
LINE
  8
0
 10
276.917
 20
-32.1395
 11
276.862
 21
-31.65
  0
LINE
  8
0
 10
312.055
 20
-59.2233
 11
312.091
 21
-58.7328
  0
LINE
  8
0
 10
312.091
 20
-58.7328
 11
312.271
 21
-58.275
  0
LINE
  8
0
 10
312.271
 20
-58.275
 11
312.578
 21
-57.8905
  0
LINE
  8
0
 10
312.578
 20
-57.8905
 11
312.984
 21
-57.6134
  0
LINE
  8
0
 10
312.984
 20
-57.6134
 11
313.454
 21
-57.4684
  0
LINE
  8
0
 10
313.454
 20
-57.4684
 11
313.946
 21
-57.4684
  0
LINE
  8
0
 10
313.946
 20
-57.4684
 11
314.416
 21
-57.6134
  0
LINE
  8
0
 10
314.416
 20
-57.6134
 11
314.822
 21
-57.8905
  0
LINE
  8
0
 10
314.822
 20
-57.8905
 11
315.129
 21
-58.275
  0
LINE
  8
0
 10
315.129
 20
-58.275
 11
315.309
 21
-58.7328
  0
LINE
  8
0
 10
315.309
 20
-58.7328
 11
315.345
 21
-59.2233
  0
LINE
  8
0
 10
315.345
 20
-59.2233
 11
315.236
 21
-59.7028
  0
LINE
  8
0
 10
315.236
 20
-59.7028
 11
314.99
 21
-60.1288
  0
LINE
  8
0
 10
314.99
 20
-60.1288
 11
314.629
 21
-60.4633
  0
LINE
  8
0
 10
314.629
 20
-60.4633
 11
314.186
 21
-60.6767
  0
LINE
  8
0
 10
314.186
 20
-60.6767
 11
313.7
 21
-60.75
  0
LINE
  8
0
 10
313.7
 20
-60.75
 11
313.214
 21
-60.6767
  0
LINE
  8
0
 10
313.214
 20
-60.6767
 11
312.771
 21
-60.4633
  0
LINE
  8
0
 10
312.771
 20
-60.4633
 11
312.41
 21
-60.1288
  0
LINE
  8
0
 10
312.41
 20
-60.1288
 11
312.164
 21
-59.7028
  0
LINE
  8
0
 10
312.164
 20
-59.7028
 11
312.055
 21
-59.2233
  0
LINE
  8
0
 10
313.355
 20
-107.523
 11
313.391
 21
-107.033
  0
LINE
  8
0
 10
313.391
 20
-107.033
 11
313.571
 21
-106.575
  0
LINE
  8
0
 10
313.571
 20
-106.575
 11
313.878
 21
-106.19
  0
LINE
  8
0
 10
313.878
 20
-106.19
 11
314.284
 21
-105.913
  0
LINE
  8
0
 10
314.284
 20
-105.913
 11
314.754
 21
-105.768
  0
LINE
  8
0
 10
314.754
 20
-105.768
 11
315.246
 21
-105.768
  0
LINE
  8
0
 10
315.246
 20
-105.768
 11
315.716
 21
-105.913
  0
LINE
  8
0
 10
315.716
 20
-105.913
 11
316.122
 21
-106.19
  0
LINE
  8
0
 10
316.122
 20
-106.19
 11
316.429
 21
-106.575
  0
LINE
  8
0
 10
316.429
 20
-106.575
 11
316.609
 21
-107.033
  0
LINE
  8
0
 10
316.609
 20
-107.033
 11
316.645
 21
-107.523
  0
LINE
  8
0
 10
316.645
 20
-107.523
 11
316.536
 21
-108.003
  0
LINE
  8
0
 10
316.536
 20
-108.003
 11
316.29
 21
-108.429
  0
LINE
  8
0
 10
316.29
 20
-108.429
 11
315.929
 21
-108.763
  0
LINE
  8
0
 10
315.929
 20
-108.763
 11
315.486
 21
-108.977
  0
LINE
  8
0
 10
315.486
 20
-108.977
 11
315
 21
-109.05
  0
LINE
  8
0
 10
315
 20
-109.05
 11
314.514
 21
-108.977
  0
LINE
  8
0
 10
314.514
 20
-108.977
 11
314.071
 21
-108.763
  0
LINE
  8
0
 10
314.071
 20
-108.763
 11
313.71
 21
-108.429
  0
LINE
  8
0
 10
313.71
 20
-108.429
 11
313.464
 21
-108.003
  0
LINE
  8
0
 10
313.464
 20
-108.003
 11
313.355
 21
-107.523
  0
LINE
  8
0
 10
345.48
 20
-7.2
 11
345.535
 21
-6.71045
  0
LINE
  8
0
 10
345.535
 20
-6.71045
 11
345.698
 21
-6.24546
  0
LINE
  8
0
 10
345.698
 20
-6.24546
 11
345.96
 21
-5.82832
  0
LINE
  8
0
 10
345.96
 20
-5.82832
 11
346.308
 21
-5.47997
  0
LINE
  8
0
 10
346.308
 20
-5.47997
 11
346.725
 21
-5.21787
  0
LINE
  8
0
 10
346.725
 20
-5.21787
 11
347.19
 21
-5.05516
  0
LINE
  8
0
 10
347.19
 20
-5.05516
 11
347.443
 21
-5.02675
  0
LINE
  8
0
 10
347.443
 20
-5.02675
 11
347.68
 21
-5
  0
LINE
  8
0
 10
347.68
 20
-5
 11
347.917
 21
-5.02675
  0
LINE
  8
0
 10
347.917
 20
-5.02675
 11
348.17
 21
-5.05516
  0
LINE
  8
0
 10
348.17
 20
-5.05516
 11
348.635
 21
-5.21787
  0
LINE
  8
0
 10
348.635
 20
-5.21787
 11
349.052
 21
-5.47997
  0
LINE
  8
0
 10
349.052
 20
-5.47997
 11
349.4
 21
-5.82832
  0
LINE
  8
0
 10
349.4
 20
-5.82832
 11
349.662
 21
-6.24546
  0
LINE
  8
0
 10
349.662
 20
-6.24546
 11
349.825
 21
-6.71045
  0
LINE
  8
0
 10
349.825
 20
-6.71045
 11
349.88
 21
-7.2
  0
LINE
  8
0
 10
349.88
 20
-7.2
 11
349.825
 21
-7.68955
  0
LINE
  8
0
 10
349.825
 20
-7.68955
 11
349.662
 21
-8.15454
  0
LINE
  8
0
 10
349.662
 20
-8.15454
 11
349.4
 21
-8.57168
  0
LINE
  8
0
 10
349.4
 20
-8.57168
 11
349.052
 21
-8.92003
  0
LINE
  8
0
 10
349.052
 20
-8.92003
 11
348.635
 21
-9.18213
  0
LINE
  8
0
 10
348.635
 20
-9.18213
 11
348.17
 21
-9.34484
  0
LINE
  8
0
 10
348.17
 20
-9.34484
 11
347.68
 21
-9.4
  0
LINE
  8
0
 10
347.68
 20
-9.4
 11
347.19
 21
-9.34484
  0
LINE
  8
0
 10
347.19
 20
-9.34484
 11
346.725
 21
-9.18213
  0
LINE
  8
0
 10
346.725
 20
-9.18213
 11
346.308
 21
-8.92003
  0
LINE
  8
0
 10
346.308
 20
-8.92003
 11
345.96
 21
-8.57168
  0
LINE
  8
0
 10
345.96
 20
-8.57168
 11
345.698
 21
-8.15454
  0
LINE
  8
0
 10
345.698
 20
-8.15454
 11
345.535
 21
-7.68955
  0
LINE
  8
0
 10
345.535
 20
-7.68955
 11
345.48
 21
-7.2
  0
LINE
  8
0
 10
366.7
 20
-7.2
 11
366.755
 21
-6.71045
  0
LINE
  8
0
 10
366.755
 20
-6.71045
 11
366.918
 21
-6.24546
  0
LINE
  8
0
 10
366.918
 20
-6.24546
 11
367.18
 21
-5.82832
  0
LINE
  8
0
 10
367.18
 20
-5.82832
 11
367.528
 21
-5.47997
  0
LINE
  8
0
 10
367.528
 20
-5.47997
 11
367.945
 21
-5.21787
  0
LINE
  8
0
 10
367.945
 20
-5.21787
 11
368.41
 21
-5.05516
  0
LINE
  8
0
 10
368.41
 20
-5.05516
 11
368.663
 21
-5.02675
  0
LINE
  8
0
 10
368.663
 20
-5.02675
 11
368.9
 21
-5
  0
LINE
  8
0
 10
368.9
 20
-5
 11
369.137
 21
-5.02675
  0
LINE
  8
0
 10
369.137
 20
-5.02675
 11
369.39
 21
-5.05516
  0
LINE
  8
0
 10
369.39
 20
-5.05516
 11
369.855
 21
-5.21787
  0
LINE
  8
0
 10
369.855
 20
-5.21787
 11
370.272
 21
-5.47997
  0
LINE
  8
0
 10
370.272
 20
-5.47997
 11
370.62
 21
-5.82832
  0
LINE
  8
0
 10
370.62
 20
-5.82832
 11
370.882
 21
-6.24546
  0
LINE
  8
0
 10
370.882
 20
-6.24546
 11
371.045
 21
-6.71045
  0
LINE
  8
0
 10
371.045
 20
-6.71045
 11
371.1
 21
-7.2
  0
LINE
  8
0
 10
371.1
 20
-7.2
 11
371.045
 21
-7.68955
  0
LINE
  8
0
 10
371.045
 20
-7.68955
 11
370.882
 21
-8.15454
  0
LINE
  8
0
 10
370.882
 20
-8.15454
 11
370.62
 21
-8.57168
  0
LINE
  8
0
 10
370.62
 20
-8.57168
 11
370.272
 21
-8.92003
  0
LINE
  8
0
 10
370.272
 20
-8.92003
 11
369.855
 21
-9.18213
  0
LINE
  8
0
 10
369.855
 20
-9.18213
 11
369.39
 21
-9.34484
  0
LINE
  8
0
 10
369.39
 20
-9.34484
 11
368.9
 21
-9.4
  0
LINE
  8
0
 10
368.9
 20
-9.4
 11
368.41
 21
-9.34484
  0
LINE
  8
0
 10
368.41
 20
-9.34484
 11
367.945
 21
-9.18213
  0
LINE
  8
0
 10
367.945
 20
-9.18213
 11
367.528
 21
-8.92003
  0
LINE
  8
0
 10
367.528
 20
-8.92003
 11
367.18
 21
-8.57168
  0
LINE
  8
0
 10
367.18
 20
-8.57168
 11
366.918
 21
-8.15454
  0
LINE
  8
0
 10
366.918
 20
-8.15454
 11
366.755
 21
-7.68955
  0
LINE
  8
0
 10
366.755
 20
-7.68955
 11
366.7
 21
-7.2
  0
ENDSEC
  0
SECTION
  2
OBJECTS
  0
DICTIONARY
  0
ENDSEC
  0
EOF
