  0
SECTION
  2
BLOCKS
  0
ENDSEC
  0
SECTION
  2
ENTITIES
  0
LINE
  8
0
 10
-197.63
 20
2.49998
 11
-197.582
 21
2.98772
  0
LINE
  8
0
 10
-197.582
 20
2.98772
 11
-197.44
 21
3.4567
  0
LINE
  8
0
 10
-197.44
 20
3.4567
 11
-197.209
 21
3.88892
  0
LINE
  8
0
 10
-197.209
 20
3.88892
 11
-196.898
 21
4.26776
  0
LINE
  8
0
 10
-196.898
 20
4.26776
 11
-196.519
 21
4.57866
  0
LINE
  8
0
 10
-196.519
 20
4.57866
 11
-196.087
 21
4.80969
  0
LINE
  8
0
 10
-196.087
 20
4.80969
 11
-195.618
 21
4.95195
  0
LINE
  8
0
 10
-195.618
 20
4.95195
 11
-195.13
 21
4.99998
  0
LINE
  8
0
 10
-195.13
 20
4.99998
 11
-194.642
 21
4.95195
  0
LINE
  8
0
 10
-194.642
 20
4.95195
 11
-194.173
 21
4.80969
  0
LINE
  8
0
 10
-194.173
 20
4.80969
 11
-193.741
 21
4.57866
  0
LINE
  8
0
 10
-193.741
 20
4.57866
 11
-193.362
 21
4.26776
  0
LINE
  8
0
 10
-193.362
 20
4.26776
 11
-193.051
 21
3.88892
  0
LINE
  8
0
 10
-193.051
 20
3.88892
 11
-192.82
 21
3.4567
  0
LINE
  8
0
 10
-192.82
 20
3.4567
 11
-192.678
 21
2.98772
  0
LINE
  8
0
 10
-192.678
 20
2.98772
 11
-192.63
 21
2.49998
  0
LINE
  8
0
 10
-192.63
 20
2.49998
 11
-192.63
 21
0
  0
LINE
  8
0
 10
-192.63
 20
0
 11
-131.75
 21
0
  0
LINE
  8
0
 10
-131.75
 20
0
 11
-131.75
 21
278.1
  0
LINE
  8
0
 10
-131.75
 20
278.1
 11
-131.744
 21
278.1
  0
LINE
  8
0
 10
-131.744
 20
278.1
 11
-131.744
 21
278.349
  0
LINE
  8
0
 10
-131.744
 20
278.349
 11
-131.694
 21
278.845
  0
LINE
  8
0
 10
-131.694
 20
278.845
 11
-131.595
 21
279.334
  0
LINE
  8
0
 10
-131.595
 20
279.334
 11
-131.448
 21
279.81
  0
LINE
  8
0
 10
-131.448
 20
279.81
 11
-131.255
 21
280.269
  0
LINE
  8
0
 10
-131.255
 20
280.269
 11
-131.016
 21
280.707
  0
LINE
  8
0
 10
-131.016
 20
280.707
 11
-130.736
 21
281.119
  0
LINE
  8
0
 10
-130.736
 20
281.119
 11
-130.415
 21
281.501
  0
LINE
  8
0
 10
-130.415
 20
281.501
 11
-130.058
 21
281.849
  0
LINE
  8
0
 10
-130.058
 20
281.849
 11
-129.669
 21
282.16
  0
LINE
  8
0
 10
-129.669
 20
282.16
 11
-129.25
 21
282.43
  0
LINE
  8
0
 10
-129.25
 20
282.43
 11
-128.806
 21
282.658
  0
LINE
  8
0
 10
-128.806
 20
282.658
 11
-128.342
 21
282.84
  0
LINE
  8
0
 10
-128.342
 20
282.84
 11
-127.863
 21
282.975
  0
LINE
  8
0
 10
-127.863
 20
282.975
 11
-127.372
 21
283.061
  0
LINE
  8
0
 10
-127.372
 20
283.061
 11
-126.875
 21
283.098
  0
LINE
  8
0
 10
-126.875
 20
283.098
 11
-126.75
 21
283.095
  0
LINE
  8
0
 10
-126.75
 20
283.095
 11
-126.75
 21
283.1
  0
LINE
  8
0
 10
-126.75
 20
283.1
 11
113.25
 21
283.1
  0
LINE
  8
0
 10
113.25
 20
283.1
 11
113.25
 21
283.095
  0
LINE
  8
0
 10
113.25
 20
283.095
 11
113.624
 21
283.086
  0
LINE
  8
0
 10
113.624
 20
283.086
 11
114.118
 21
283.024
  0
LINE
  8
0
 10
114.118
 20
283.024
 11
114.604
 21
282.913
  0
LINE
  8
0
 10
114.604
 20
282.913
 11
115.077
 21
282.754
  0
LINE
  8
0
 10
115.077
 20
282.754
 11
115.531
 21
282.549
  0
LINE
  8
0
 10
115.531
 20
282.549
 11
115.963
 21
282.3
  0
LINE
  8
0
 10
115.963
 20
282.3
 11
116.367
 21
282.009
  0
LINE
  8
0
 10
116.367
 20
282.009
 11
116.741
 21
281.679
  0
LINE
  8
0
 10
116.741
 20
281.679
 11
117.08
 21
281.314
  0
LINE
  8
0
 10
117.08
 20
281.314
 11
117.381
 21
280.917
  0
LINE
  8
0
 10
117.381
 20
280.917
 11
117.641
 21
280.491
  0
LINE
  8
0
 10
117.641
 20
280.491
 11
117.857
 21
280.042
  0
LINE
  8
0
 10
117.857
 20
280.042
 11
118.028
 21
279.574
  0
LINE
  8
0
 10
118.028
 20
279.574
 11
118.151
 21
279.091
  0
LINE
  8
0
 10
118.151
 20
279.091
 11
118.225
 21
278.598
  0
LINE
  8
0
 10
118.225
 20
278.598
 11
118.25
 21
278.1
  0
LINE
  8
0
 10
118.25
 20
278.1
 11
118.25
 21
0
  0
LINE
  8
0
 10
118.25
 20
0
 11
236.25
 21
0
  0
LINE
  8
0
 10
236.25
 20
0
 11
236.25
 21
367
  0
LINE
  8
0
 10
236.25
 20
367
 11
236.155
 21
369.179
  0
LINE
  8
0
 10
236.155
 20
369.179
 11
235.87
 21
371.341
  0
LINE
  8
0
 10
235.87
 20
371.341
 11
235.398
 21
373.47
  0
LINE
  8
0
 10
235.398
 20
373.47
 11
234.742
 21
375.55
  0
LINE
  8
0
 10
234.742
 20
375.55
 11
233.908
 21
377.565
  0
LINE
  8
0
 10
233.908
 20
377.565
 11
232.901
 21
379.5
  0
LINE
  8
0
 10
232.901
 20
379.5
 11
231.729
 21
381.339
  0
LINE
  8
0
 10
231.729
 20
381.339
 11
230.401
 21
383.07
  0
LINE
  8
0
 10
230.401
 20
383.07
 11
228.928
 21
384.678
  0
LINE
  8
0
 10
228.928
 20
384.678
 11
227.32
 21
386.151
  0
LINE
  8
0
 10
227.32
 20
386.151
 11
225.589
 21
387.479
  0
LINE
  8
0
 10
225.589
 20
387.479
 11
223.75
 21
388.651
  0
LINE
  8
0
 10
223.75
 20
388.651
 11
221.815
 21
389.658
  0
LINE
  8
0
 10
221.815
 20
389.658
 11
219.8
 21
390.492
  0
LINE
  8
0
 10
219.8
 20
390.492
 11
217.72
 21
391.148
  0
LINE
  8
0
 10
217.72
 20
391.148
 11
215.591
 21
391.62
  0
LINE
  8
0
 10
215.591
 20
391.62
 11
213.429
 21
391.905
  0
LINE
  8
0
 10
213.429
 20
391.905
 11
211.25
 21
392
  0
LINE
  8
0
 10
211.25
 20
392
 11
-211.25
 21
392
  0
LINE
  8
0
 10
-211.25
 20
392
 11
-213.429
 21
391.905
  0
LINE
  8
0
 10
-213.429
 20
391.905
 11
-215.591
 21
391.62
  0
LINE
  8
0
 10
-215.591
 20
391.62
 11
-217.72
 21
391.148
  0
LINE
  8
0
 10
-217.72
 20
391.148
 11
-219.8
 21
390.492
  0
LINE
  8
0
 10
-219.8
 20
390.492
 11
-221.815
 21
389.658
  0
LINE
  8
0
 10
-221.815
 20
389.658
 11
-223.75
 21
388.651
  0
LINE
  8
0
 10
-223.75
 20
388.651
 11
-225.589
 21
387.479
  0
LINE
  8
0
 10
-225.589
 20
387.479
 11
-227.32
 21
386.151
  0
LINE
  8
0
 10
-227.32
 20
386.151
 11
-228.928
 21
384.678
  0
LINE
  8
0
 10
-228.928
 20
384.678
 11
-230.401
 21
383.07
  0
LINE
  8
0
 10
-230.401
 20
383.07
 11
-231.729
 21
381.339
  0
LINE
  8
0
 10
-231.729
 20
381.339
 11
-232.901
 21
379.5
  0
LINE
  8
0
 10
-232.901
 20
379.5
 11
-233.908
 21
377.565
  0
LINE
  8
0
 10
-233.908
 20
377.565
 11
-234.742
 21
375.55
  0
LINE
  8
0
 10
-234.742
 20
375.55
 11
-235.398
 21
373.47
  0
LINE
  8
0
 10
-235.398
 20
373.47
 11
-235.87
 21
371.341
  0
LINE
  8
0
 10
-235.87
 20
371.341
 11
-236.155
 21
369.179
  0
LINE
  8
0
 10
-236.155
 20
369.179
 11
-236.25
 21
367
  0
LINE
  8
0
 10
-236.25
 20
367
 11
-236.25
 21
0
  0
LINE
  8
0
 10
-236.25
 20
0
 11
-197.63
 21
0
  0
LINE
  8
0
 10
-197.63
 20
0
 11
-197.63
 21
2.49998
  0
LINE
  8
0
 10
158.31
 20
382.355
 11
157.845
 21
382.518
  0
LINE
  8
0
 10
157.845
 20
382.518
 11
157.428
 21
382.78
  0
LINE
  8
0
 10
157.428
 20
382.78
 11
157.08
 21
383.128
  0
LINE
  8
0
 10
157.08
 20
383.128
 11
156.818
 21
383.545
  0
LINE
  8
0
 10
156.818
 20
383.545
 11
156.655
 21
384.01
  0
LINE
  8
0
 10
156.655
 20
384.01
 11
156.6
 21
384.5
  0
LINE
  8
0
 10
156.6
 20
384.5
 11
156.655
 21
384.99
  0
LINE
  8
0
 10
156.655
 20
384.99
 11
156.818
 21
385.455
  0
LINE
  8
0
 10
156.818
 20
385.455
 11
157.08
 21
385.872
  0
LINE
  8
0
 10
157.08
 20
385.872
 11
157.428
 21
386.22
  0
LINE
  8
0
 10
157.428
 20
386.22
 11
157.845
 21
386.482
  0
LINE
  8
0
 10
157.845
 20
386.482
 11
158.31
 21
386.645
  0
LINE
  8
0
 10
158.31
 20
386.645
 11
158.8
 21
386.7
  0
LINE
  8
0
 10
158.8
 20
386.7
 11
159.29
 21
386.645
  0
LINE
  8
0
 10
159.29
 20
386.645
 11
159.755
 21
386.482
  0
LINE
  8
0
 10
159.755
 20
386.482
 11
160.172
 21
386.22
  0
LINE
  8
0
 10
160.172
 20
386.22
 11
160.52
 21
385.872
  0
LINE
  8
0
 10
160.52
 20
385.872
 11
160.782
 21
385.455
  0
LINE
  8
0
 10
160.782
 20
385.455
 11
160.945
 21
384.99
  0
LINE
  8
0
 10
160.945
 20
384.99
 11
161
 21
384.5
  0
LINE
  8
0
 10
161
 20
384.5
 11
160.945
 21
384.01
  0
LINE
  8
0
 10
160.945
 20
384.01
 11
160.782
 21
383.545
  0
LINE
  8
0
 10
160.782
 20
383.545
 11
160.52
 21
383.128
  0
LINE
  8
0
 10
160.52
 20
383.128
 11
160.172
 21
382.78
  0
LINE
  8
0
 10
160.172
 20
382.78
 11
159.755
 21
382.518
  0
LINE
  8
0
 10
159.755
 20
382.518
 11
159.29
 21
382.355
  0
LINE
  8
0
 10
159.29
 20
382.355
 11
158.8
 21
382.3
  0
LINE
  8
0
 10
158.8
 20
382.3
 11
158.31
 21
382.355
  0
LINE
  8
0
 10
126.21
 20
382.355
 11
125.745
 21
382.518
  0
LINE
  8
0
 10
125.745
 20
382.518
 11
125.328
 21
382.78
  0
LINE
  8
0
 10
125.328
 20
382.78
 11
124.98
 21
383.128
  0
LINE
  8
0
 10
124.98
 20
383.128
 11
124.718
 21
383.545
  0
LINE
  8
0
 10
124.718
 20
383.545
 11
124.555
 21
384.01
  0
LINE
  8
0
 10
124.555
 20
384.01
 11
124.5
 21
384.5
  0
LINE
  8
0
 10
124.5
 20
384.5
 11
124.555
 21
384.99
  0
LINE
  8
0
 10
124.555
 20
384.99
 11
124.718
 21
385.455
  0
LINE
  8
0
 10
124.718
 20
385.455
 11
124.98
 21
385.872
  0
LINE
  8
0
 10
124.98
 20
385.872
 11
125.328
 21
386.22
  0
LINE
  8
0
 10
125.328
 20
386.22
 11
125.745
 21
386.482
  0
LINE
  8
0
 10
125.745
 20
386.482
 11
126.21
 21
386.645
  0
LINE
  8
0
 10
126.21
 20
386.645
 11
126.7
 21
386.7
  0
LINE
  8
0
 10
126.7
 20
386.7
 11
127.19
 21
386.645
  0
LINE
  8
0
 10
127.19
 20
386.645
 11
127.655
 21
386.482
  0
LINE
  8
0
 10
127.655
 20
386.482
 11
128.072
 21
386.22
  0
LINE
  8
0
 10
128.072
 20
386.22
 11
128.42
 21
385.872
  0
LINE
  8
0
 10
128.42
 20
385.872
 11
128.682
 21
385.455
  0
LINE
  8
0
 10
128.682
 20
385.455
 11
128.845
 21
384.99
  0
LINE
  8
0
 10
128.845
 20
384.99
 11
128.9
 21
384.5
  0
LINE
  8
0
 10
128.9
 20
384.5
 11
128.845
 21
384.01
  0
LINE
  8
0
 10
128.845
 20
384.01
 11
128.682
 21
383.545
  0
LINE
  8
0
 10
128.682
 20
383.545
 11
128.42
 21
383.128
  0
LINE
  8
0
 10
128.42
 20
383.128
 11
128.072
 21
382.78
  0
LINE
  8
0
 10
128.072
 20
382.78
 11
127.655
 21
382.518
  0
LINE
  8
0
 10
127.655
 20
382.518
 11
127.19
 21
382.355
  0
LINE
  8
0
 10
127.19
 20
382.355
 11
126.7
 21
382.3
  0
LINE
  8
0
 10
126.7
 20
382.3
 11
126.21
 21
382.355
  0
LINE
  8
0
 10
-196.79
 20
382.355
 11
-197.255
 21
382.518
  0
LINE
  8
0
 10
-197.255
 20
382.518
 11
-197.672
 21
382.78
  0
LINE
  8
0
 10
-197.672
 20
382.78
 11
-198.02
 21
383.128
  0
LINE
  8
0
 10
-198.02
 20
383.128
 11
-198.282
 21
383.545
  0
LINE
  8
0
 10
-198.282
 20
383.545
 11
-198.445
 21
384.01
  0
LINE
  8
0
 10
-198.445
 20
384.01
 11
-198.5
 21
384.5
  0
LINE
  8
0
 10
-198.5
 20
384.5
 11
-198.445
 21
384.99
  0
LINE
  8
0
 10
-198.445
 20
384.99
 11
-198.282
 21
385.455
  0
LINE
  8
0
 10
-198.282
 20
385.455
 11
-198.02
 21
385.872
  0
LINE
  8
0
 10
-198.02
 20
385.872
 11
-197.672
 21
386.22
  0
LINE
  8
0
 10
-197.672
 20
386.22
 11
-197.255
 21
386.482
  0
LINE
  8
0
 10
-197.255
 20
386.482
 11
-196.79
 21
386.645
  0
LINE
  8
0
 10
-196.79
 20
386.645
 11
-196.3
 21
386.7
  0
LINE
  8
0
 10
-196.3
 20
386.7
 11
-195.81
 21
386.645
  0
LINE
  8
0
 10
-195.81
 20
386.645
 11
-195.345
 21
386.482
  0
LINE
  8
0
 10
-195.345
 20
386.482
 11
-194.928
 21
386.22
  0
LINE
  8
0
 10
-194.928
 20
386.22
 11
-194.58
 21
385.872
  0
LINE
  8
0
 10
-194.58
 20
385.872
 11
-194.318
 21
385.455
  0
LINE
  8
0
 10
-194.318
 20
385.455
 11
-194.155
 21
384.99
  0
LINE
  8
0
 10
-194.155
 20
384.99
 11
-194.1
 21
384.5
  0
LINE
  8
0
 10
-194.1
 20
384.5
 11
-194.155
 21
384.01
  0
LINE
  8
0
 10
-194.155
 20
384.01
 11
-194.318
 21
383.545
  0
LINE
  8
0
 10
-194.318
 20
383.545
 11
-194.58
 21
383.128
  0
LINE
  8
0
 10
-194.58
 20
383.128
 11
-194.928
 21
382.78
  0
LINE
  8
0
 10
-194.928
 20
382.78
 11
-195.345
 21
382.518
  0
LINE
  8
0
 10
-195.345
 20
382.518
 11
-195.81
 21
382.355
  0
LINE
  8
0
 10
-195.81
 20
382.355
 11
-196.3
 21
382.3
  0
LINE
  8
0
 10
-196.3
 20
382.3
 11
-196.79
 21
382.355
  0
LINE
  8
0
 10
-164.69
 20
382.355
 11
-165.155
 21
382.518
  0
LINE
  8
0
 10
-165.155
 20
382.518
 11
-165.572
 21
382.78
  0
LINE
  8
0
 10
-165.572
 20
382.78
 11
-165.92
 21
383.128
  0
LINE
  8
0
 10
-165.92
 20
383.128
 11
-166.182
 21
383.545
  0
LINE
  8
0
 10
-166.182
 20
383.545
 11
-166.345
 21
384.01
  0
LINE
  8
0
 10
-166.345
 20
384.01
 11
-166.4
 21
384.5
  0
LINE
  8
0
 10
-166.4
 20
384.5
 11
-166.345
 21
384.99
  0
LINE
  8
0
 10
-166.345
 20
384.99
 11
-166.182
 21
385.455
  0
LINE
  8
0
 10
-166.182
 20
385.455
 11
-165.92
 21
385.872
  0
LINE
  8
0
 10
-165.92
 20
385.872
 11
-165.572
 21
386.22
  0
LINE
  8
0
 10
-165.572
 20
386.22
 11
-165.155
 21
386.482
  0
LINE
  8
0
 10
-165.155
 20
386.482
 11
-164.69
 21
386.645
  0
LINE
  8
0
 10
-164.69
 20
386.645
 11
-164.2
 21
386.7
  0
LINE
  8
0
 10
-164.2
 20
386.7
 11
-163.71
 21
386.645
  0
LINE
  8
0
 10
-163.71
 20
386.645
 11
-163.245
 21
386.482
  0
LINE
  8
0
 10
-163.245
 20
386.482
 11
-162.828
 21
386.22
  0
LINE
  8
0
 10
-162.828
 20
386.22
 11
-162.48
 21
385.872
  0
LINE
  8
0
 10
-162.48
 20
385.872
 11
-162.218
 21
385.455
  0
LINE
  8
0
 10
-162.218
 20
385.455
 11
-162.055
 21
384.99
  0
LINE
  8
0
 10
-162.055
 20
384.99
 11
-162
 21
384.5
  0
LINE
  8
0
 10
-162
 20
384.5
 11
-162.055
 21
384.01
  0
LINE
  8
0
 10
-162.055
 20
384.01
 11
-162.218
 21
383.545
  0
LINE
  8
0
 10
-162.218
 20
383.545
 11
-162.48
 21
383.128
  0
LINE
  8
0
 10
-162.48
 20
383.128
 11
-162.828
 21
382.78
  0
LINE
  8
0
 10
-162.828
 20
382.78
 11
-163.245
 21
382.518
  0
LINE
  8
0
 10
-163.245
 20
382.518
 11
-163.71
 21
382.355
  0
LINE
  8
0
 10
-163.71
 20
382.355
 11
-164.2
 21
382.3
  0
LINE
  8
0
 10
-164.2
 20
382.3
 11
-164.69
 21
382.355
  0
LINE
  8
0
 10
-197.991
 20
373.015
 11
-198.459
 21
373.13
  0
LINE
  8
0
 10
-198.459
 20
373.13
 11
-198.886
 21
373.354
  0
LINE
  8
0
 10
-198.886
 20
373.354
 11
-199.247
 21
373.674
  0
LINE
  8
0
 10
-199.247
 20
373.674
 11
-199.521
 21
374.071
  0
LINE
  8
0
 10
-199.521
 20
374.071
 11
-199.692
 21
374.521
  0
LINE
  8
0
 10
-199.692
 20
374.521
 11
-199.75
 21
375
  0
LINE
  8
0
 10
-199.75
 20
375
 11
-199.692
 21
375.479
  0
LINE
  8
0
 10
-199.692
 20
375.479
 11
-199.521
 21
375.929
  0
LINE
  8
0
 10
-199.521
 20
375.929
 11
-199.247
 21
376.326
  0
LINE
  8
0
 10
-199.247
 20
376.326
 11
-198.886
 21
376.646
  0
LINE
  8
0
 10
-198.886
 20
376.646
 11
-198.459
 21
376.87
  0
LINE
  8
0
 10
-198.459
 20
376.87
 11
-197.991
 21
376.985
  0
LINE
  8
0
 10
-197.991
 20
376.985
 11
-197.509
 21
376.985
  0
LINE
  8
0
 10
-197.509
 20
376.985
 11
-197.041
 21
376.87
  0
LINE
  8
0
 10
-197.041
 20
376.87
 11
-196.614
 21
376.646
  0
LINE
  8
0
 10
-196.614
 20
376.646
 11
-196.253
 21
376.326
  0
LINE
  8
0
 10
-196.253
 20
376.326
 11
-195.979
 21
375.929
  0
LINE
  8
0
 10
-195.979
 20
375.929
 11
-195.808
 21
375.479
  0
LINE
  8
0
 10
-195.808
 20
375.479
 11
-195.75
 21
375
  0
LINE
  8
0
 10
-195.75
 20
375
 11
-195.808
 21
374.521
  0
LINE
  8
0
 10
-195.808
 20
374.521
 11
-195.979
 21
374.071
  0
LINE
  8
0
 10
-195.979
 20
374.071
 11
-196.253
 21
373.674
  0
LINE
  8
0
 10
-196.253
 20
373.674
 11
-196.614
 21
373.354
  0
LINE
  8
0
 10
-196.614
 20
373.354
 11
-197.041
 21
373.13
  0
LINE
  8
0
 10
-197.041
 20
373.13
 11
-197.509
 21
373.015
  0
LINE
  8
0
 10
-197.509
 20
373.015
 11
-197.991
 21
373.015
  0
LINE
  8
0
 10
190.05
 20
370.75
 11
189.572
 21
370.845
  0
LINE
  8
0
 10
189.572
 20
370.845
 11
189.166
 21
371.116
  0
LINE
  8
0
 10
189.166
 20
371.116
 11
188.895
 21
371.522
  0
LINE
  8
0
 10
188.895
 20
371.522
 11
188.8
 21
372
  0
LINE
  8
0
 10
188.8
 20
372
 11
188.895
 21
372.478
  0
LINE
  8
0
 10
188.895
 20
372.478
 11
189.166
 21
372.884
  0
LINE
  8
0
 10
189.166
 20
372.884
 11
189.572
 21
373.155
  0
LINE
  8
0
 10
189.572
 20
373.155
 11
190.05
 21
373.25
  0
LINE
  8
0
 10
190.05
 20
373.25
 11
217.45
 21
373.25
  0
LINE
  8
0
 10
217.45
 20
373.25
 11
217.928
 21
373.155
  0
LINE
  8
0
 10
217.928
 20
373.155
 11
218.334
 21
372.884
  0
LINE
  8
0
 10
218.334
 20
372.884
 11
218.605
 21
372.478
  0
LINE
  8
0
 10
218.605
 20
372.478
 11
218.7
 21
372
  0
LINE
  8
0
 10
218.7
 20
372
 11
218.605
 21
371.522
  0
LINE
  8
0
 10
218.605
 20
371.522
 11
218.334
 21
371.116
  0
LINE
  8
0
 10
218.334
 20
371.116
 11
217.928
 21
370.845
  0
LINE
  8
0
 10
217.928
 20
370.845
 11
217.45
 21
370.75
  0
LINE
  8
0
 10
217.45
 20
370.75
 11
190.05
 21
370.75
  0
LINE
  8
0
 10
220.66
 20
359.005
 11
220.195
 21
359.168
  0
LINE
  8
0
 10
220.195
 20
359.168
 11
219.778
 21
359.43
  0
LINE
  8
0
 10
219.778
 20
359.43
 11
219.43
 21
359.778
  0
LINE
  8
0
 10
219.43
 20
359.778
 11
219.168
 21
360.195
  0
LINE
  8
0
 10
219.168
 20
360.195
 11
219.005
 21
360.66
  0
LINE
  8
0
 10
219.005
 20
360.66
 11
218.95
 21
361.15
  0
LINE
  8
0
 10
218.95
 20
361.15
 11
219.005
 21
361.64
  0
LINE
  8
0
 10
219.005
 20
361.64
 11
219.168
 21
362.105
  0
LINE
  8
0
 10
219.168
 20
362.105
 11
219.43
 21
362.522
  0
LINE
  8
0
 10
219.43
 20
362.522
 11
219.778
 21
362.87
  0
LINE
  8
0
 10
219.778
 20
362.87
 11
220.195
 21
363.132
  0
LINE
  8
0
 10
220.195
 20
363.132
 11
220.66
 21
363.295
  0
LINE
  8
0
 10
220.66
 20
363.295
 11
221.15
 21
363.35
  0
LINE
  8
0
 10
221.15
 20
363.35
 11
221.64
 21
363.295
  0
LINE
  8
0
 10
221.64
 20
363.295
 11
222.105
 21
363.132
  0
LINE
  8
0
 10
222.105
 20
363.132
 11
222.522
 21
362.87
  0
LINE
  8
0
 10
222.522
 20
362.87
 11
222.87
 21
362.522
  0
LINE
  8
0
 10
222.87
 20
362.522
 11
223.132
 21
362.105
  0
LINE
  8
0
 10
223.132
 20
362.105
 11
223.295
 21
361.64
  0
LINE
  8
0
 10
223.295
 20
361.64
 11
223.35
 21
361.15
  0
LINE
  8
0
 10
223.35
 20
361.15
 11
223.295
 21
360.66
  0
LINE
  8
0
 10
223.295
 20
360.66
 11
223.132
 21
360.195
  0
LINE
  8
0
 10
223.132
 20
360.195
 11
222.87
 21
359.778
  0
LINE
  8
0
 10
222.87
 20
359.778
 11
222.522
 21
359.43
  0
LINE
  8
0
 10
222.522
 20
359.43
 11
222.105
 21
359.168
  0
LINE
  8
0
 10
222.105
 20
359.168
 11
221.64
 21
359.005
  0
LINE
  8
0
 10
221.64
 20
359.005
 11
221.15
 21
358.95
  0
LINE
  8
0
 10
221.15
 20
358.95
 11
220.66
 21
359.005
  0
LINE
  8
0
 10
185.86
 20
359.005
 11
185.395
 21
359.168
  0
LINE
  8
0
 10
185.395
 20
359.168
 11
184.978
 21
359.43
  0
LINE
  8
0
 10
184.978
 20
359.43
 11
184.63
 21
359.778
  0
LINE
  8
0
 10
184.63
 20
359.778
 11
184.368
 21
360.195
  0
LINE
  8
0
 10
184.368
 20
360.195
 11
184.205
 21
360.66
  0
LINE
  8
0
 10
184.205
 20
360.66
 11
184.15
 21
361.15
  0
LINE
  8
0
 10
184.15
 20
361.15
 11
184.205
 21
361.64
  0
LINE
  8
0
 10
184.205
 20
361.64
 11
184.368
 21
362.105
  0
LINE
  8
0
 10
184.368
 20
362.105
 11
184.63
 21
362.522
  0
LINE
  8
0
 10
184.63
 20
362.522
 11
184.978
 21
362.87
  0
LINE
  8
0
 10
184.978
 20
362.87
 11
185.395
 21
363.132
  0
LINE
  8
0
 10
185.395
 20
363.132
 11
185.86
 21
363.295
  0
LINE
  8
0
 10
185.86
 20
363.295
 11
186.35
 21
363.35
  0
LINE
  8
0
 10
186.35
 20
363.35
 11
186.84
 21
363.295
  0
LINE
  8
0
 10
186.84
 20
363.295
 11
187.305
 21
363.132
  0
LINE
  8
0
 10
187.305
 20
363.132
 11
187.722
 21
362.87
  0
LINE
  8
0
 10
187.722
 20
362.87
 11
188.07
 21
362.522
  0
LINE
  8
0
 10
188.07
 20
362.522
 11
188.332
 21
362.105
  0
LINE
  8
0
 10
188.332
 20
362.105
 11
188.495
 21
361.64
  0
LINE
  8
0
 10
188.495
 20
361.64
 11
188.55
 21
361.15
  0
LINE
  8
0
 10
188.55
 20
361.15
 11
188.495
 21
360.66
  0
LINE
  8
0
 10
188.495
 20
360.66
 11
188.332
 21
360.195
  0
LINE
  8
0
 10
188.332
 20
360.195
 11
188.07
 21
359.778
  0
LINE
  8
0
 10
188.07
 20
359.778
 11
187.722
 21
359.43
  0
LINE
  8
0
 10
187.722
 20
359.43
 11
187.305
 21
359.168
  0
LINE
  8
0
 10
187.305
 20
359.168
 11
186.84
 21
359.005
  0
LINE
  8
0
 10
186.84
 20
359.005
 11
186.35
 21
358.95
  0
LINE
  8
0
 10
186.35
 20
358.95
 11
185.86
 21
359.005
  0
LINE
  8
0
 10
129.01
 20
356.145
 11
128.545
 21
356.308
  0
LINE
  8
0
 10
128.545
 20
356.308
 11
128.128
 21
356.57
  0
LINE
  8
0
 10
128.128
 20
356.57
 11
127.78
 21
356.918
  0
LINE
  8
0
 10
127.78
 20
356.918
 11
127.518
 21
357.335
  0
LINE
  8
0
 10
127.518
 20
357.335
 11
127.355
 21
357.8
  0
LINE
  8
0
 10
127.355
 20
357.8
 11
127.3
 21
358.29
  0
LINE
  8
0
 10
127.3
 20
358.29
 11
127.355
 21
358.78
  0
LINE
  8
0
 10
127.355
 20
358.78
 11
127.518
 21
359.245
  0
LINE
  8
0
 10
127.518
 20
359.245
 11
127.78
 21
359.662
  0
LINE
  8
0
 10
127.78
 20
359.662
 11
128.128
 21
360.01
  0
LINE
  8
0
 10
128.128
 20
360.01
 11
128.545
 21
360.272
  0
LINE
  8
0
 10
128.545
 20
360.272
 11
129.01
 21
360.435
  0
LINE
  8
0
 10
129.01
 20
360.435
 11
129.5
 21
360.49
  0
LINE
  8
0
 10
129.5
 20
360.49
 11
129.99
 21
360.435
  0
LINE
  8
0
 10
129.99
 20
360.435
 11
130.455
 21
360.272
  0
LINE
  8
0
 10
130.455
 20
360.272
 11
130.872
 21
360.01
  0
LINE
  8
0
 10
130.872
 20
360.01
 11
131.22
 21
359.662
  0
LINE
  8
0
 10
131.22
 20
359.662
 11
131.482
 21
359.245
  0
LINE
  8
0
 10
131.482
 20
359.245
 11
131.645
 21
358.78
  0
LINE
  8
0
 10
131.645
 20
358.78
 11
131.7
 21
358.29
  0
LINE
  8
0
 10
131.7
 20
358.29
 11
131.645
 21
357.8
  0
LINE
  8
0
 10
131.645
 20
357.8
 11
131.482
 21
357.335
  0
LINE
  8
0
 10
131.482
 20
357.335
 11
131.22
 21
356.918
  0
LINE
  8
0
 10
131.22
 20
356.918
 11
130.872
 21
356.57
  0
LINE
  8
0
 10
130.872
 20
356.57
 11
130.455
 21
356.308
  0
LINE
  8
0
 10
130.455
 20
356.308
 11
129.99
 21
356.145
  0
LINE
  8
0
 10
129.99
 20
356.145
 11
129.5
 21
356.09
  0
LINE
  8
0
 10
129.5
 20
356.09
 11
129.01
 21
356.145
  0
LINE
  8
0
 10
-174.04
 20
356.145
 11
-174.505
 21
356.308
  0
LINE
  8
0
 10
-174.505
 20
356.308
 11
-174.922
 21
356.57
  0
LINE
  8
0
 10
-174.922
 20
356.57
 11
-175.27
 21
356.918
  0
LINE
  8
0
 10
-175.27
 20
356.918
 11
-175.532
 21
357.335
  0
LINE
  8
0
 10
-175.532
 20
357.335
 11
-175.695
 21
357.8
  0
LINE
  8
0
 10
-175.695
 20
357.8
 11
-175.75
 21
358.29
  0
LINE
  8
0
 10
-175.75
 20
358.29
 11
-175.695
 21
358.78
  0
LINE
  8
0
 10
-175.695
 20
358.78
 11
-175.532
 21
359.245
  0
LINE
  8
0
 10
-175.532
 20
359.245
 11
-175.27
 21
359.662
  0
LINE
  8
0
 10
-175.27
 20
359.662
 11
-174.922
 21
360.01
  0
LINE
  8
0
 10
-174.922
 20
360.01
 11
-174.505
 21
360.272
  0
LINE
  8
0
 10
-174.505
 20
360.272
 11
-174.04
 21
360.435
  0
LINE
  8
0
 10
-174.04
 20
360.435
 11
-173.55
 21
360.49
  0
LINE
  8
0
 10
-173.55
 20
360.49
 11
-173.06
 21
360.435
  0
LINE
  8
0
 10
-173.06
 20
360.435
 11
-172.595
 21
360.272
  0
LINE
  8
0
 10
-172.595
 20
360.272
 11
-172.178
 21
360.01
  0
LINE
  8
0
 10
-172.178
 20
360.01
 11
-171.83
 21
359.662
  0
LINE
  8
0
 10
-171.83
 20
359.662
 11
-171.568
 21
359.245
  0
LINE
  8
0
 10
-171.568
 20
359.245
 11
-171.405
 21
358.78
  0
LINE
  8
0
 10
-171.405
 20
358.78
 11
-171.35
 21
358.29
  0
LINE
  8
0
 10
-171.35
 20
358.29
 11
-171.405
 21
357.8
  0
LINE
  8
0
 10
-171.405
 20
357.8
 11
-171.568
 21
357.335
  0
LINE
  8
0
 10
-171.568
 20
357.335
 11
-171.83
 21
356.918
  0
LINE
  8
0
 10
-171.83
 20
356.918
 11
-172.178
 21
356.57
  0
LINE
  8
0
 10
-172.178
 20
356.57
 11
-172.595
 21
356.308
  0
LINE
  8
0
 10
-172.595
 20
356.308
 11
-173.06
 21
356.145
  0
LINE
  8
0
 10
-173.06
 20
356.145
 11
-173.55
 21
356.09
  0
LINE
  8
0
 10
-173.55
 20
356.09
 11
-174.04
 21
356.145
  0
LINE
  8
0
 10
50.5013
 20
320.55
 11
50.5013
 21
345.318
  0
LINE
  8
0
 10
50.5013
 20
345.318
 11
54.2133
 21
345.318
  0
LINE
  8
0
 10
54.2133
 20
345.318
 11
54.2133
 21
340.262
  0
LINE
  8
0
 10
54.2133
 20
340.262
 11
54.8241
 21
341.332
  0
LINE
  8
0
 10
54.8241
 20
341.332
 11
55.4699
 21
342.29
  0
LINE
  8
0
 10
55.4699
 20
342.29
 11
56.1509
 21
343.134
  0
LINE
  8
0
 10
56.1509
 20
343.134
 11
56.8669
 21
343.866
  0
LINE
  8
0
 10
56.8669
 20
343.866
 11
57.6181
 21
344.486
  0
LINE
  8
0
 10
57.6181
 20
344.486
 11
58.4043
 21
344.993
  0
LINE
  8
0
 10
58.4043
 20
344.993
 11
59.2257
 21
345.387
  0
LINE
  8
0
 10
59.2257
 20
345.387
 11
60.0821
 21
345.669
  0
LINE
  8
0
 10
60.0821
 20
345.669
 11
60.9737
 21
345.838
  0
LINE
  8
0
 10
60.9737
 20
345.838
 11
61.9003
 21
345.894
  0
LINE
  8
0
 10
61.9003
 20
345.894
 11
62.4586
 21
345.882
  0
LINE
  8
0
 10
62.4586
 20
345.882
 11
63.0136
 21
345.845
  0
LINE
  8
0
 10
63.0136
 20
345.845
 11
63.5653
 21
345.785
  0
LINE
  8
0
 10
63.5653
 20
345.785
 11
64.1136
 21
345.699
  0
LINE
  8
0
 10
64.1136
 20
345.699
 11
64.6586
 21
345.59
  0
LINE
  8
0
 10
64.6586
 20
345.59
 11
65.2002
 21
345.456
  0
LINE
  8
0
 10
65.2002
 20
345.456
 11
65.7385
 21
345.298
  0
LINE
  8
0
 10
65.7385
 20
345.298
 11
66.2734
 21
345.116
  0
LINE
  8
0
 10
66.2734
 20
345.116
 11
66.8051
 21
344.909
  0
LINE
  8
0
 10
66.8051
 20
344.909
 11
67.3333
 21
344.678
  0
LINE
  8
0
 10
67.3333
 20
344.678
 11
65.8383
 21
341.094
  0
LINE
  8
0
 10
65.8383
 20
341.094
 11
65.3564
 21
341.289
  0
LINE
  8
0
 10
65.3564
 20
341.289
 11
64.8876
 21
341.463
  0
LINE
  8
0
 10
64.8876
 20
341.463
 11
64.4322
 21
341.616
  0
LINE
  8
0
 10
64.4322
 20
341.616
 11
63.99
 21
341.749
  0
LINE
  8
0
 10
63.99
 20
341.749
 11
63.5611
 21
341.862
  0
LINE
  8
0
 10
63.5611
 20
341.862
 11
63.1454
 21
341.954
  0
LINE
  8
0
 10
63.1454
 20
341.954
 11
62.743
 21
342.026
  0
LINE
  8
0
 10
62.743
 20
342.026
 11
62.3538
 21
342.077
  0
LINE
  8
0
 10
62.3538
 20
342.077
 11
61.978
 21
342.108
  0
LINE
  8
0
 10
61.978
 20
342.108
 11
61.6153
 21
342.118
  0
LINE
  8
0
 10
61.6153
 20
342.118
 11
61.2886
 21
342.109
  0
LINE
  8
0
 10
61.2886
 20
342.109
 11
60.9634
 21
342.081
  0
LINE
  8
0
 10
60.9634
 20
342.081
 11
60.6395
 21
342.034
  0
LINE
  8
0
 10
60.6395
 20
342.034
 11
60.3171
 21
341.968
  0
LINE
  8
0
 10
60.3171
 20
341.968
 11
59.9961
 21
341.884
  0
LINE
  8
0
 10
59.9961
 20
341.884
 11
59.6765
 21
341.781
  0
LINE
  8
0
 10
59.6765
 20
341.781
 11
59.3583
 21
341.659
  0
LINE
  8
0
 10
59.3583
 20
341.659
 11
59.0415
 21
341.519
  0
LINE
  8
0
 10
59.0415
 20
341.519
 11
58.7262
 21
341.36
  0
LINE
  8
0
 10
58.7262
 20
341.36
 11
58.4123
 21
341.182
  0
LINE
  8
0
 10
58.4123
 20
341.182
 11
58.1016
 21
340.987
  0
LINE
  8
0
 10
58.1016
 20
340.987
 11
57.7959
 21
340.775
  0
LINE
  8
0
 10
57.7959
 20
340.775
 11
57.4951
 21
340.548
  0
LINE
  8
0
 10
57.4951
 20
340.548
 11
57.1994
 21
340.304
  0
LINE
  8
0
 10
57.1994
 20
340.304
 11
56.9086
 21
340.044
  0
LINE
  8
0
 10
56.9086
 20
340.044
 11
56.6228
 21
339.769
  0
LINE
  8
0
 10
56.6228
 20
339.769
 11
56.3419
 21
339.477
  0
LINE
  8
0
 10
56.3419
 20
339.477
 11
56.0661
 21
339.169
  0
LINE
  8
0
 10
56.0661
 20
339.169
 11
55.7952
 21
338.844
  0
LINE
  8
0
 10
55.7952
 20
338.844
 11
55.5293
 21
338.504
  0
LINE
  8
0
 10
55.5293
 20
338.504
 11
55.2793
 21
338.171
  0
LINE
  8
0
 10
55.2793
 20
338.171
 11
55.0556
 21
337.869
  0
LINE
  8
0
 10
55.0556
 20
337.869
 11
54.8582
 21
337.597
  0
LINE
  8
0
 10
54.8582
 20
337.597
 11
54.6871
 21
337.356
  0
LINE
  8
0
 10
54.6871
 20
337.356
 11
54.5423
 21
337.145
  0
LINE
  8
0
 10
54.5423
 20
337.145
 11
54.4239
 21
336.965
  0
LINE
  8
0
 10
54.4239
 20
336.965
 11
54.3318
 21
336.815
  0
LINE
  8
0
 10
54.3318
 20
336.815
 11
54.266
 21
336.696
  0
LINE
  8
0
 10
54.266
 20
336.696
 11
54.2265
 21
336.608
  0
LINE
  8
0
 10
54.2265
 20
336.608
 11
54.2133
 21
336.55
  0
LINE
  8
0
 10
54.2133
 20
336.55
 11
54.2133
 21
320.55
  0
LINE
  8
0
 10
54.2133
 20
320.55
 11
50.5013
 21
320.55
  0
LINE
  8
0
 10
30.0695
 20
320.009
 11
28.9718
 21
320.116
  0
LINE
  8
0
 10
28.9718
 20
320.116
 11
27.9213
 21
320.293
  0
LINE
  8
0
 10
27.9213
 20
320.293
 11
26.9181
 21
320.541
  0
LINE
  8
0
 10
26.9181
 20
320.541
 11
25.9622
 21
320.859
  0
LINE
  8
0
 10
25.9622
 20
320.859
 11
25.0535
 21
321.249
  0
LINE
  8
0
 10
25.0535
 20
321.249
 11
24.1921
 21
321.71
  0
LINE
  8
0
 10
24.1921
 20
321.71
 11
23.378
 21
322.241
  0
LINE
  8
0
 10
23.378
 20
322.241
 11
22.6111
 21
322.843
  0
LINE
  8
0
 10
22.6111
 20
322.843
 11
21.8914
 21
323.516
  0
LINE
  8
0
 10
21.8914
 20
323.516
 11
21.2304
 21
324.248
  0
LINE
  8
0
 10
21.2304
 20
324.248
 11
20.639
 21
325.026
  0
LINE
  8
0
 10
20.639
 20
325.026
 11
20.1171
 21
325.851
  0
LINE
  8
0
 10
20.1171
 20
325.851
 11
19.6649
 21
326.723
  0
LINE
  8
0
 10
19.6649
 20
326.723
 11
19.2822
 21
327.641
  0
LINE
  8
0
 10
19.2822
 20
327.641
 11
18.9691
 21
328.607
  0
LINE
  8
0
 10
18.9691
 20
328.607
 11
18.7255
 21
329.618
  0
LINE
  8
0
 10
18.7255
 20
329.618
 11
18.5516
 21
330.677
  0
LINE
  8
0
 10
18.5516
 20
330.677
 11
18.4472
 21
331.782
  0
LINE
  8
0
 10
18.4472
 20
331.782
 11
18.4124
 21
332.934
  0
LINE
  8
0
 10
18.4124
 20
332.934
 11
18.4475
 21
334.086
  0
LINE
  8
0
 10
18.4475
 20
334.086
 11
18.5528
 21
335.191
  0
LINE
  8
0
 10
18.5528
 20
335.191
 11
18.7282
 21
336.25
  0
LINE
  8
0
 10
18.7282
 20
336.25
 11
18.9739
 21
337.261
  0
LINE
  8
0
 10
18.9739
 20
337.261
 11
19.2897
 21
338.227
  0
LINE
  8
0
 10
19.2897
 20
338.227
 11
19.6757
 21
339.145
  0
LINE
  8
0
 10
19.6757
 20
339.145
 11
20.1319
 21
340.017
  0
LINE
  8
0
 10
20.1319
 20
340.017
 11
20.6582
 21
340.842
  0
LINE
  8
0
 10
20.6582
 20
340.842
 11
21.2547
 21
341.62
  0
LINE
  8
0
 10
21.2547
 20
341.62
 11
21.9214
 21
342.352
  0
LINE
  8
0
 10
21.9214
 20
342.352
 11
22.6452
 21
343.025
  0
LINE
  8
0
 10
22.6452
 20
343.025
 11
23.413
 21
343.627
  0
LINE
  8
0
 10
23.413
 20
343.627
 11
24.2248
 21
344.158
  0
LINE
  8
0
 10
24.2248
 20
344.158
 11
25.0806
 21
344.619
  0
LINE
  8
0
 10
25.0806
 20
344.619
 11
25.9804
 21
345.008
  0
LINE
  8
0
 10
25.9804
 20
345.008
 11
26.9242
 21
345.327
  0
LINE
  8
0
 10
26.9242
 20
345.327
 11
27.912
 21
345.575
  0
LINE
  8
0
 10
27.912
 20
345.575
 11
28.9438
 21
345.752
  0
LINE
  8
0
 10
28.9438
 20
345.752
 11
30.0196
 21
345.859
  0
LINE
  8
0
 10
30.0196
 20
345.859
 11
31.1394
 21
345.894
  0
LINE
  8
0
 10
31.1394
 20
345.894
 11
31.8829
 21
345.881
  0
LINE
  8
0
 10
31.8829
 20
345.881
 11
32.6192
 21
345.843
  0
LINE
  8
0
 10
32.6192
 20
345.843
 11
33.3483
 21
345.779
  0
LINE
  8
0
 10
33.3483
 20
345.779
 11
34.0703
 21
345.689
  0
LINE
  8
0
 10
34.0703
 20
345.689
 11
34.7852
 21
345.574
  0
LINE
  8
0
 10
34.7852
 20
345.574
 11
35.4929
 21
345.433
  0
LINE
  8
0
 10
35.4929
 20
345.433
 11
36.1935
 21
345.267
  0
LINE
  8
0
 10
36.1935
 20
345.267
 11
36.8869
 21
345.075
  0
LINE
  8
0
 10
36.8869
 20
345.075
 11
37.5733
 21
344.857
  0
LINE
  8
0
 10
37.5733
 20
344.857
 11
38.2524
 21
344.614
  0
LINE
  8
0
 10
38.2524
 20
344.614
 11
37.2734
 21
341.542
  0
LINE
  8
0
 10
37.2734
 20
341.542
 11
36.6019
 21
341.761
  0
LINE
  8
0
 10
36.6019
 20
341.761
 11
35.9438
 21
341.957
  0
LINE
  8
0
 10
35.9438
 20
341.957
 11
35.299
 21
342.13
  0
LINE
  8
0
 10
35.299
 20
342.13
 11
34.6675
 21
342.279
  0
LINE
  8
0
 10
34.6675
 20
342.279
 11
34.0494
 21
342.406
  0
LINE
  8
0
 10
34.0494
 20
342.406
 11
33.4447
 21
342.51
  0
LINE
  8
0
 10
33.4447
 20
342.51
 11
32.8533
 21
342.59
  0
LINE
  8
0
 10
32.8533
 20
342.59
 11
32.2754
 21
342.648
  0
LINE
  8
0
 10
32.2754
 20
342.648
 11
31.7107
 21
342.682
  0
LINE
  8
0
 10
31.7107
 20
342.682
 11
31.1594
 21
342.694
  0
LINE
  8
0
 10
31.1594
 20
342.694
 11
30.3551
 21
342.668
  0
LINE
  8
0
 10
30.3551
 20
342.668
 11
29.5849
 21
342.589
  0
LINE
  8
0
 10
29.5849
 20
342.589
 11
28.8489
 21
342.457
  0
LINE
  8
0
 10
28.8489
 20
342.457
 11
28.147
 21
342.273
  0
LINE
  8
0
 10
28.147
 20
342.273
 11
27.4792
 21
342.036
  0
LINE
  8
0
 10
27.4792
 20
342.036
 11
26.8456
 21
341.746
  0
LINE
  8
0
 10
26.8456
 20
341.746
 11
26.2461
 21
341.404
  0
LINE
  8
0
 10
26.2461
 20
341.404
 11
25.6807
 21
341.009
  0
LINE
  8
0
 10
25.6807
 20
341.009
 11
25.1495
 21
340.561
  0
LINE
  8
0
 10
25.1495
 20
340.561
 11
24.6524
 21
340.061
  0
LINE
  8
0
 10
24.6524
 20
340.061
 11
24.1964
 21
339.516
  0
LINE
  8
0
 10
24.1964
 20
339.516
 11
23.7884
 21
338.933
  0
LINE
  8
0
 10
23.7884
 20
338.933
 11
23.4284
 21
338.313
  0
LINE
  8
0
 10
23.4284
 20
338.313
 11
23.1164
 21
337.655
  0
LINE
  8
0
 10
23.1164
 20
337.655
 11
22.8524
 21
336.96
  0
LINE
  8
0
 10
22.8524
 20
336.96
 11
22.6364
 21
336.228
  0
LINE
  8
0
 10
22.6364
 20
336.228
 11
22.4684
 21
335.457
  0
LINE
  8
0
 10
22.4684
 20
335.457
 11
22.3484
 21
334.65
  0
LINE
  8
0
 10
22.3484
 20
334.65
 11
22.2764
 21
333.805
  0
LINE
  8
0
 10
22.2764
 20
333.805
 11
22.2524
 21
332.922
  0
LINE
  8
0
 10
22.2524
 20
332.922
 11
22.2772
 21
332.11
  0
LINE
  8
0
 10
22.2772
 20
332.11
 11
22.3515
 21
331.324
  0
LINE
  8
0
 10
22.3515
 20
331.324
 11
22.4754
 21
330.564
  0
LINE
  8
0
 10
22.4754
 20
330.564
 11
22.6489
 21
329.831
  0
LINE
  8
0
 10
22.6489
 20
329.831
 11
22.8719
 21
329.124
  0
LINE
  8
0
 10
22.8719
 20
329.124
 11
23.1445
 21
328.443
  0
LINE
  8
0
 10
23.1445
 20
328.443
 11
23.4667
 21
327.789
  0
LINE
  8
0
 10
23.4667
 20
327.789
 11
23.8383
 21
327.161
  0
LINE
  8
0
 10
23.8383
 20
327.161
 11
24.2596
 21
326.559
  0
LINE
  8
0
 10
24.2596
 20
326.559
 11
24.7304
 21
325.984
  0
LINE
  8
0
 10
24.7304
 20
325.984
 11
25.2413
 21
325.45
  0
LINE
  8
0
 10
25.2413
 20
325.45
 11
25.7821
 21
324.972
  0
LINE
  8
0
 10
25.7821
 20
324.972
 11
26.353
 21
324.551
  0
LINE
  8
0
 10
26.353
 20
324.551
 11
26.9539
 21
324.186
  0
LINE
  8
0
 10
26.9539
 20
324.186
 11
27.5849
 21
323.876
  0
LINE
  8
0
 10
27.5849
 20
323.876
 11
28.246
 21
323.624
  0
LINE
  8
0
 10
28.246
 20
323.624
 11
28.937
 21
323.427
  0
LINE
  8
0
 10
28.937
 20
323.427
 11
29.6581
 21
323.286
  0
LINE
  8
0
 10
29.6581
 20
323.286
 11
30.4093
 21
323.202
  0
LINE
  8
0
 10
30.4093
 20
323.202
 11
31.1904
 21
323.174
  0
LINE
  8
0
 10
31.1904
 20
323.174
 11
31.8215
 21
323.186
  0
LINE
  8
0
 10
31.8215
 20
323.186
 11
32.4564
 21
323.223
  0
LINE
  8
0
 10
32.4564
 20
323.223
 11
33.0951
 21
323.283
  0
LINE
  8
0
 10
33.0951
 20
323.283
 11
33.7376
 21
323.369
  0
LINE
  8
0
 10
33.7376
 20
323.369
 11
34.3839
 21
323.478
  0
LINE
  8
0
 10
34.3839
 20
323.478
 11
35.034
 21
323.612
  0
LINE
  8
0
 10
35.034
 20
323.612
 11
35.6879
 21
323.77
  0
LINE
  8
0
 10
35.6879
 20
323.77
 11
36.3456
 21
323.952
  0
LINE
  8
0
 10
36.3456
 20
323.952
 11
37.0071
 21
324.159
  0
LINE
  8
0
 10
37.0071
 20
324.159
 11
37.6724
 21
324.39
  0
LINE
  8
0
 10
37.6724
 20
324.39
 11
38.3164
 21
321.446
  0
LINE
  8
0
 10
38.3164
 20
321.446
 11
37.664
 21
321.166
  0
LINE
  8
0
 10
37.664
 20
321.166
 11
36.9987
 21
320.916
  0
LINE
  8
0
 10
36.9987
 20
320.916
 11
36.3206
 21
320.695
  0
LINE
  8
0
 10
36.3206
 20
320.695
 11
35.6297
 21
320.504
  0
LINE
  8
0
 10
35.6297
 20
320.504
 11
34.9259
 21
320.342
  0
LINE
  8
0
 10
34.9259
 20
320.342
 11
34.2093
 21
320.21
  0
LINE
  8
0
 10
34.2093
 20
320.21
 11
33.4799
 21
320.106
  0
LINE
  8
0
 10
33.4799
 20
320.106
 11
32.7375
 21
320.033
  0
LINE
  8
0
 10
32.7375
 20
320.033
 11
31.9824
 21
319.989
  0
LINE
  8
0
 10
31.9824
 20
319.989
 11
31.2144
 21
319.974
  0
LINE
  8
0
 10
31.2144
 20
319.974
 11
30.0695
 21
320.009
  0
LINE
  8
0
 10
-1.86052
 20
319.988
 11
-2.72475
 21
320.03
  0
LINE
  8
0
 10
-2.72475
 20
320.03
 11
-3.55716
 21
320.101
  0
LINE
  8
0
 10
-3.55716
 20
320.101
 11
-4.35771
 21
320.199
  0
LINE
  8
0
 10
-4.35771
 20
320.199
 11
-5.12643
 21
320.326
  0
LINE
  8
0
 10
-5.12643
 20
320.326
 11
-5.86331
 21
320.481
  0
LINE
  8
0
 10
-5.86331
 20
320.481
 11
-6.56836
 21
320.664
  0
LINE
  8
0
 10
-6.56836
 20
320.664
 11
-7.24155
 21
320.875
  0
LINE
  8
0
 10
-7.24155
 20
320.875
 11
-7.88292
 21
321.114
  0
LINE
  8
0
 10
-7.88292
 20
321.114
 11
-8.49243
 21
321.382
  0
LINE
  8
0
 10
-8.49243
 20
321.382
 11
-7.78044
 21
324.582
  0
LINE
  8
0
 10
-7.78044
 20
324.582
 11
-7.15411
 21
324.302
  0
LINE
  8
0
 10
-7.15411
 20
324.302
 11
-6.51875
 21
324.052
  0
LINE
  8
0
 10
-6.51875
 20
324.052
 11
-5.87436
 21
323.831
  0
LINE
  8
0
 10
-5.87436
 20
323.831
 11
-5.22092
 21
323.64
  0
LINE
  8
0
 10
-5.22092
 20
323.64
 11
-4.55844
 21
323.478
  0
LINE
  8
0
 10
-4.55844
 20
323.478
 11
-3.88692
 21
323.346
  0
LINE
  8
0
 10
-3.88692
 20
323.346
 11
-3.20636
 21
323.242
  0
LINE
  8
0
 10
-3.20636
 20
323.242
 11
-2.51675
 21
323.169
  0
LINE
  8
0
 10
-2.51675
 20
323.169
 11
-1.81812
 21
323.125
  0
LINE
  8
0
 10
-1.81812
 20
323.125
 11
-1.11043
 21
323.11
  0
LINE
  8
0
 10
-1.11043
 20
323.11
 11
-0.504944
 21
323.121
  0
LINE
  8
0
 10
-0.504944
 20
323.121
 11
0.0775146
 21
323.156
  0
LINE
  8
0
 10
0.0775146
 20
323.156
 11
0.636963
 21
323.213
  0
LINE
  8
0
 10
0.636963
 20
323.213
 11
1.17339
 21
323.293
  0
LINE
  8
0
 10
1.17339
 20
323.293
 11
1.6868
 21
323.395
  0
LINE
  8
0
 10
1.6868
 20
323.395
 11
2.17719
 21
323.521
  0
LINE
  8
0
 10
2.17719
 20
323.521
 11
2.64456
 21
323.669
  0
LINE
  8
0
 10
2.64456
 20
323.669
 11
3.08891
 21
323.84
  0
LINE
  8
0
 10
3.08891
 20
323.84
 11
3.51024
 21
324.034
  0
LINE
  8
0
 10
3.51024
 20
324.034
 11
3.90855
 21
324.251
  0
LINE
  8
0
 10
3.90855
 20
324.251
 11
4.2762
 21
324.487
  0
LINE
  8
0
 10
4.2762
 20
324.487
 11
4.60515
 21
324.737
  0
LINE
  8
0
 10
4.60515
 20
324.737
 11
4.8954
 21
325.003
  0
LINE
  8
0
 10
4.8954
 20
325.003
 11
5.14696
 21
325.283
  0
LINE
  8
0
 10
5.14696
 20
325.283
 11
5.3598
 21
325.578
  0
LINE
  8
0
 10
5.3598
 20
325.578
 11
5.53395
 21
325.888
  0
LINE
  8
0
 10
5.53395
 20
325.888
 11
5.6694
 21
326.213
  0
LINE
  8
0
 10
5.6694
 20
326.213
 11
5.76614
 21
326.552
  0
LINE
  8
0
 10
5.76614
 20
326.552
 11
5.8242
 21
326.907
  0
LINE
  8
0
 10
5.8242
 20
326.907
 11
5.84355
 21
327.276
  0
LINE
  8
0
 10
5.84355
 20
327.276
 11
5.83408
 21
327.527
  0
LINE
  8
0
 10
5.83408
 20
327.527
 11
5.80563
 21
327.774
  0
LINE
  8
0
 10
5.80563
 20
327.774
 11
5.75822
 21
328.014
  0
LINE
  8
0
 10
5.75822
 20
328.014
 11
5.69186
 21
328.249
  0
LINE
  8
0
 10
5.69186
 20
328.249
 11
5.60655
 21
328.479
  0
LINE
  8
0
 10
5.60655
 20
328.479
 11
5.50227
 21
328.704
  0
LINE
  8
0
 10
5.50227
 20
328.704
 11
5.37903
 21
328.923
  0
LINE
  8
0
 10
5.37903
 20
328.923
 11
5.23683
 21
329.136
  0
LINE
  8
0
 10
5.23683
 20
329.136
 11
5.07567
 21
329.344
  0
LINE
  8
0
 10
5.07567
 20
329.344
 11
4.89555
 21
329.547
  0
LINE
  8
0
 10
4.89555
 20
329.547
 11
4.67975
 21
329.748
  0
LINE
  8
0
 10
4.67975
 20
329.748
 11
4.41154
 21
329.951
  0
LINE
  8
0
 10
4.41154
 20
329.951
 11
4.09096
 21
330.156
  0
LINE
  8
0
 10
4.09096
 20
330.156
 11
3.71796
 21
330.363
  0
LINE
  8
0
 10
3.71796
 20
330.363
 11
3.29256
 21
330.572
  0
LINE
  8
0
 10
3.29256
 20
330.572
 11
2.81476
 21
330.782
  0
LINE
  8
0
 10
2.81476
 20
330.782
 11
2.28455
 21
330.995
  0
LINE
  8
0
 10
2.28455
 20
330.995
 11
1.70195
 21
331.209
  0
LINE
  8
0
 10
1.70195
 20
331.209
 11
1.06696
 21
331.426
  0
LINE
  8
0
 10
1.06696
 20
331.426
 11
0.379547
 21
331.644
  0
LINE
  8
0
 10
0.379547
 20
331.644
 11
-1.21077
 21
332.133
  0
LINE
  8
0
 10
-1.21077
 20
332.133
 11
-2.90477
 21
332.663
  0
LINE
  8
0
 10
-2.90477
 20
332.663
 11
-3.85544
 21
332.967
  0
LINE
  8
0
 10
-3.85544
 20
332.967
 11
-4.12471
 21
333.059
  0
LINE
  8
0
 10
-4.12471
 20
333.059
 11
-4.39011
 21
333.16
  0
LINE
  8
0
 10
-4.39011
 20
333.16
 11
-4.65166
 21
333.269
  0
LINE
  8
0
 10
-4.65166
 20
333.269
 11
-4.90935
 21
333.386
  0
LINE
  8
0
 10
-4.90935
 20
333.386
 11
-5.16318
 21
333.511
  0
LINE
  8
0
 10
-5.16318
 20
333.511
 11
-5.41315
 21
333.645
  0
LINE
  8
0
 10
-5.41315
 20
333.645
 11
-5.65927
 21
333.786
  0
LINE
  8
0
 10
-5.65927
 20
333.786
 11
-5.90152
 21
333.936
  0
LINE
  8
0
 10
-5.90152
 20
333.936
 11
-6.13991
 21
334.095
  0
LINE
  8
0
 10
-6.13991
 20
334.095
 11
-6.37444
 21
334.261
  0
LINE
  8
0
 10
-6.37444
 20
334.261
 11
-6.60147
 21
334.435
  0
LINE
  8
0
 10
-6.60147
 20
334.435
 11
-6.81735
 21
334.615
  0
LINE
  8
0
 10
-6.81735
 20
334.615
 11
-7.02211
 21
334.803
  0
LINE
  8
0
 10
-7.02211
 20
334.803
 11
-7.21571
 21
334.996
  0
LINE
  8
0
 10
-7.21571
 20
334.996
 11
-7.39818
 21
335.197
  0
LINE
  8
0
 10
-7.39818
 20
335.197
 11
-7.56952
 21
335.404
  0
LINE
  8
0
 10
-7.56952
 20
335.404
 11
-7.72971
 21
335.617
  0
LINE
  8
0
 10
-7.72971
 20
335.617
 11
-7.87875
 21
335.838
  0
LINE
  8
0
 10
-7.87875
 20
335.838
 11
-8.01666
 21
336.064
  0
LINE
  8
0
 10
-8.01666
 20
336.064
 11
-8.14343
 21
336.298
  0
LINE
  8
0
 10
-8.14343
 20
336.298
 11
-8.25838
 21
336.538
  0
LINE
  8
0
 10
-8.25838
 20
336.538
 11
-8.36124
 21
336.783
  0
LINE
  8
0
 10
-8.36124
 20
336.783
 11
-8.45198
 21
337.035
  0
LINE
  8
0
 10
-8.45198
 20
337.035
 11
-8.53064
 21
337.291
  0
LINE
  8
0
 10
-8.53064
 20
337.291
 11
-8.59718
 21
337.554
  0
LINE
  8
0
 10
-8.59718
 20
337.554
 11
-8.65163
 21
337.822
  0
LINE
  8
0
 10
-8.65163
 20
337.822
 11
-8.69398
 21
338.096
  0
LINE
  8
0
 10
-8.69398
 20
338.096
 11
-8.72423
 21
338.376
  0
LINE
  8
0
 10
-8.72423
 20
338.376
 11
-8.74239
 21
338.661
  0
LINE
  8
0
 10
-8.74239
 20
338.661
 11
-8.74843
 21
338.952
  0
LINE
  8
0
 10
-8.74843
 20
338.952
 11
-8.7204
 21
339.579
  0
LINE
  8
0
 10
-8.7204
 20
339.579
 11
-8.63628
 21
340.178
  0
LINE
  8
0
 10
-8.63628
 20
340.178
 11
-8.49608
 21
340.752
  0
LINE
  8
0
 10
-8.49608
 20
340.752
 11
-8.29979
 21
341.299
  0
LINE
  8
0
 10
-8.29979
 20
341.299
 11
-8.04744
 21
341.819
  0
LINE
  8
0
 10
-8.04744
 20
341.819
 11
-7.739
 21
342.313
  0
LINE
  8
0
 10
-7.739
 20
342.313
 11
-7.37448
 21
342.78
  0
LINE
  8
0
 10
-7.37448
 20
342.78
 11
-6.95387
 21
343.22
  0
LINE
  8
0
 10
-6.95387
 20
343.22
 11
-6.47719
 21
343.635
  0
LINE
  8
0
 10
-6.47719
 20
343.635
 11
-5.94443
 21
344.022
  0
LINE
  8
0
 10
-5.94443
 20
344.022
 11
-5.36534
 21
344.378
  0
LINE
  8
0
 10
-5.36534
 20
344.378
 11
-4.74963
 21
344.696
  0
LINE
  8
0
 10
-4.74963
 20
344.696
 11
-4.09734
 21
344.977
  0
LINE
  8
0
 10
-4.09734
 20
344.977
 11
-3.40843
 21
345.22
  0
LINE
  8
0
 10
-3.40843
 20
345.22
 11
-2.68294
 21
345.426
  0
LINE
  8
0
 10
-2.68294
 20
345.426
 11
-1.92084
 21
345.594
  0
LINE
  8
0
 10
-1.92084
 20
345.594
 11
-1.12213
 21
345.725
  0
LINE
  8
0
 10
-1.12213
 20
345.725
 11
-0.286835
 21
345.819
  0
LINE
  8
0
 10
-0.286835
 20
345.819
 11
0.585052
 21
345.875
  0
LINE
  8
0
 10
0.585052
 20
345.875
 11
1.49355
 21
345.894
  0
LINE
  8
0
 10
1.49355
 20
345.894
 11
2.09901
 21
345.884
  0
LINE
  8
0
 10
2.09901
 20
345.884
 11
2.71779
 21
345.853
  0
LINE
  8
0
 10
2.71779
 20
345.853
 11
3.34988
 21
345.802
  0
LINE
  8
0
 10
3.34988
 20
345.802
 11
3.99532
 21
345.73
  0
LINE
  8
0
 10
3.99532
 20
345.73
 11
4.65405
 21
345.638
  0
LINE
  8
0
 10
4.65405
 20
345.638
 11
5.32611
 21
345.525
  0
LINE
  8
0
 10
5.32611
 20
345.525
 11
6.01149
 21
345.392
  0
LINE
  8
0
 10
6.01149
 20
345.392
 11
6.71019
 21
345.239
  0
LINE
  8
0
 10
6.71019
 20
345.239
 11
7.42221
 21
345.065
  0
LINE
  8
0
 10
7.42221
 20
345.065
 11
8.14755
 21
344.87
  0
LINE
  8
0
 10
8.14755
 20
344.87
 11
7.31955
 21
341.734
  0
LINE
  8
0
 10
7.31955
 20
341.734
 11
6.7029
 21
341.929
  0
LINE
  8
0
 10
6.7029
 20
341.929
 11
6.09335
 21
342.103
  0
LINE
  8
0
 10
6.09335
 20
342.103
 11
5.49091
 21
342.256
  0
LINE
  8
0
 10
5.49091
 20
342.256
 11
4.89555
 21
342.389
  0
LINE
  8
0
 10
4.89555
 20
342.389
 11
4.3073
 21
342.502
  0
LINE
  8
0
 10
4.3073
 20
342.502
 11
3.72615
 21
342.594
  0
LINE
  8
0
 10
3.72615
 20
342.594
 11
3.1521
 21
342.666
  0
LINE
  8
0
 10
3.1521
 20
342.666
 11
2.58514
 21
342.717
  0
LINE
  8
0
 10
2.58514
 20
342.717
 11
2.0253
 21
342.748
  0
LINE
  8
0
 10
2.0253
 20
342.748
 11
1.47255
 21
342.758
  0
LINE
  8
0
 10
1.47255
 20
342.758
 11
0.883896
 21
342.748
  0
LINE
  8
0
 10
0.883896
 20
342.748
 11
0.320312
 21
342.718
  0
LINE
  8
0
 10
0.320312
 20
342.718
 11
-0.21817
 21
342.668
  0
LINE
  8
0
 10
-0.21817
 20
342.668
 11
-0.731598
 21
342.598
  0
LINE
  8
0
 10
-0.731598
 20
342.598
 11
-1.21994
 21
342.508
  0
LINE
  8
0
 10
-1.21994
 20
342.508
 11
-1.6832
 21
342.398
  0
LINE
  8
0
 10
-1.6832
 20
342.398
 11
-2.12137
 21
342.268
  0
LINE
  8
0
 10
-2.12137
 20
342.268
 11
-2.53447
 21
342.119
  0
LINE
  8
0
 10
-2.53447
 20
342.119
 11
-2.9225
 21
341.949
  0
LINE
  8
0
 10
-2.9225
 20
341.949
 11
-3.28543
 21
341.759
  0
LINE
  8
0
 10
-3.28543
 20
341.759
 11
-3.61812
 21
341.552
  0
LINE
  8
0
 10
-3.61812
 20
341.552
 11
-3.91579
 21
341.333
  0
LINE
  8
0
 10
-3.91579
 20
341.333
 11
-4.17844
 21
341.099
  0
LINE
  8
0
 10
-4.17844
 20
341.099
 11
-4.40607
 21
340.852
  0
LINE
  8
0
 10
-4.40607
 20
340.852
 11
-4.59868
 21
340.592
  0
LINE
  8
0
 10
-4.59868
 20
340.592
 11
-4.75627
 21
340.319
  0
LINE
  8
0
 10
-4.75627
 20
340.319
 11
-4.87885
 21
340.032
  0
LINE
  8
0
 10
-4.87885
 20
340.032
 11
-4.9664
 21
339.731
  0
LINE
  8
0
 10
-4.9664
 20
339.731
 11
-5.01892
 21
339.417
  0
LINE
  8
0
 10
-5.01892
 20
339.417
 11
-5.03644
 21
339.09
  0
LINE
  8
0
 10
-5.03644
 20
339.09
 11
-5.02841
 21
338.881
  0
LINE
  8
0
 10
-5.02841
 20
338.881
 11
-5.00435
 21
338.678
  0
LINE
  8
0
 10
-5.00435
 20
338.678
 11
-4.96425
 21
338.479
  0
LINE
  8
0
 10
-4.96425
 20
338.479
 11
-4.90811
 21
338.287
  0
LINE
  8
0
 10
-4.90811
 20
338.287
 11
-4.83594
 21
338.1
  0
LINE
  8
0
 10
-4.83594
 20
338.1
 11
-4.74771
 21
337.918
  0
LINE
  8
0
 10
-4.74771
 20
337.918
 11
-4.64345
 21
337.741
  0
LINE
  8
0
 10
-4.64345
 20
337.741
 11
-4.52315
 21
337.57
  0
LINE
  8
0
 10
-4.52315
 20
337.57
 11
-4.38681
 21
337.404
  0
LINE
  8
0
 10
-4.38681
 20
337.404
 11
-4.23444
 21
337.244
  0
LINE
  8
0
 10
-4.23444
 20
337.244
 11
-4.05779
 21
337.088
  0
LINE
  8
0
 10
-4.05779
 20
337.088
 11
-3.84903
 21
336.933
  0
LINE
  8
0
 10
-3.84903
 20
336.933
 11
-3.60818
 21
336.78
  0
LINE
  8
0
 10
-3.60818
 20
336.78
 11
-3.33524
 21
336.63
  0
LINE
  8
0
 10
-3.33524
 20
336.63
 11
-3.03018
 21
336.481
  0
LINE
  8
0
 10
-3.03018
 20
336.481
 11
-2.69304
 21
336.334
  0
LINE
  8
0
 10
-2.69304
 20
336.334
 11
-2.32378
 21
336.189
  0
LINE
  8
0
 10
-2.32378
 20
336.189
 11
-1.92244
 21
336.046
  0
LINE
  8
0
 10
-1.92244
 20
336.046
 11
-1.48898
 21
335.904
  0
LINE
  8
0
 10
-1.48898
 20
335.904
 11
-1.02344
 21
335.765
  0
LINE
  8
0
 10
-1.02344
 20
335.765
 11
2.49455
 21
334.74
  0
LINE
  8
0
 10
2.49455
 20
334.74
 11
2.97206
 21
334.599
  0
LINE
  8
0
 10
2.97206
 20
334.599
 11
3.43179
 21
334.452
  0
LINE
  8
0
 10
3.43179
 20
334.452
 11
3.87373
 21
334.301
  0
LINE
  8
0
 10
3.87373
 20
334.301
 11
4.29791
 21
334.144
  0
LINE
  8
0
 10
4.29791
 20
334.144
 11
4.7043
 21
333.981
  0
LINE
  8
0
 10
4.7043
 20
333.981
 11
5.09291
 21
333.813
  0
LINE
  8
0
 10
5.09291
 20
333.813
 11
5.46375
 21
333.64
  0
LINE
  8
0
 10
5.46375
 20
333.64
 11
5.81679
 21
333.461
  0
LINE
  8
0
 10
5.81679
 20
333.461
 11
6.15205
 21
333.277
  0
LINE
  8
0
 10
6.15205
 20
333.277
 11
6.46954
 21
333.088
  0
LINE
  8
0
 10
6.46954
 20
333.088
 11
6.77043
 21
332.892
  0
LINE
  8
0
 10
6.77043
 20
332.892
 11
7.05588
 21
332.688
  0
LINE
  8
0
 10
7.05588
 20
332.688
 11
7.32587
 21
332.476
  0
LINE
  8
0
 10
7.32587
 20
332.476
 11
7.58043
 21
332.256
  0
LINE
  8
0
 10
7.58043
 20
332.256
 11
7.81955
 21
332.028
  0
LINE
  8
0
 10
7.81955
 20
332.028
 11
8.04323
 21
331.792
  0
LINE
  8
0
 10
8.04323
 20
331.792
 11
8.25146
 21
331.547
  0
LINE
  8
0
 10
8.25146
 20
331.547
 11
8.44427
 21
331.295
  0
LINE
  8
0
 10
8.44427
 20
331.295
 11
8.62163
 21
331.035
  0
LINE
  8
0
 10
8.62163
 20
331.035
 11
8.78355
 21
330.766
  0
LINE
  8
0
 10
8.78355
 20
330.766
 11
8.93024
 21
330.489
  0
LINE
  8
0
 10
8.93024
 20
330.489
 11
9.06148
 21
330.204
  0
LINE
  8
0
 10
9.06148
 20
330.204
 11
9.17728
 21
329.909
  0
LINE
  8
0
 10
9.17728
 20
329.909
 11
9.27763
 21
329.606
  0
LINE
  8
0
 10
9.27763
 20
329.606
 11
9.36255
 21
329.294
  0
LINE
  8
0
 10
9.36255
 20
329.294
 11
9.43204
 21
328.974
  0
LINE
  8
0
 10
9.43204
 20
328.974
 11
9.48607
 21
328.644
  0
LINE
  8
0
 10
9.48607
 20
328.644
 11
9.52467
 21
328.306
  0
LINE
  8
0
 10
9.52467
 20
328.306
 11
9.54784
 21
327.959
  0
LINE
  8
0
 10
9.54784
 20
327.959
 11
9.55556
 21
327.603
  0
LINE
  8
0
 10
9.55556
 20
327.603
 11
9.52586
 21
326.912
  0
LINE
  8
0
 10
9.52586
 20
326.912
 11
9.4368
 21
326.25
  0
LINE
  8
0
 10
9.4368
 20
326.25
 11
9.28835
 21
325.618
  0
LINE
  8
0
 10
9.28835
 20
325.618
 11
9.08051
 21
325.016
  0
LINE
  8
0
 10
9.08051
 20
325.016
 11
8.81329
 21
324.443
  0
LINE
  8
0
 10
8.81329
 20
324.443
 11
8.48671
 21
323.9
  0
LINE
  8
0
 10
8.48671
 20
323.9
 11
8.10074
 21
323.386
  0
LINE
  8
0
 10
8.10074
 20
323.386
 11
7.6554
 21
322.902
  0
LINE
  8
0
 10
7.6554
 20
322.902
 11
7.15067
 21
322.448
  0
LINE
  8
0
 10
7.15067
 20
322.448
 11
6.58655
 21
322.023
  0
LINE
  8
0
 10
6.58655
 20
322.023
 11
5.97681
 21
321.634
  0
LINE
  8
0
 10
5.97681
 20
321.634
 11
5.33475
 21
321.285
  0
LINE
  8
0
 10
5.33475
 20
321.285
 11
4.6604
 21
320.978
  0
LINE
  8
0
 10
4.6604
 20
320.978
 11
3.95375
 21
320.712
  0
LINE
  8
0
 10
3.95375
 20
320.712
 11
3.2148
 21
320.486
  0
LINE
  8
0
 10
3.2148
 20
320.486
 11
2.44356
 21
320.302
  0
LINE
  8
0
 10
2.44356
 20
320.302
 11
1.64
 21
320.158
  0
LINE
  8
0
 10
1.64
 20
320.158
 11
0.804153
 21
320.056
  0
LINE
  8
0
 10
0.804153
 20
320.056
 11
-0.0639801
 21
319.994
  0
LINE
  8
0
 10
-0.0639801
 20
319.994
 11
-0.964432
 21
319.974
  0
LINE
  8
0
 10
-0.964432
 20
319.974
 11
-1.86052
 21
319.988
  0
LINE
  8
0
 10
-37.6373
 20
320.55
 11
-37.6373
 21
345.318
  0
LINE
  8
0
 10
-37.6373
 20
345.318
 11
-33.9253
 21
345.318
  0
LINE
  8
0
 10
-33.9253
 20
345.318
 11
-33.9253
 21
341.67
  0
LINE
  8
0
 10
-33.9253
 20
341.67
 11
-33.1234
 21
342.473
  0
LINE
  8
0
 10
-33.1234
 20
342.473
 11
-32.313
 21
343.191
  0
LINE
  8
0
 10
-32.313
 20
343.191
 11
-31.494
 21
343.824
  0
LINE
  8
0
 10
-31.494
 20
343.824
 11
-30.6664
 21
344.373
  0
LINE
  8
0
 10
-30.6664
 20
344.373
 11
-29.8303
 21
344.838
  0
LINE
  8
0
 10
-29.8303
 20
344.838
 11
-28.9856
 21
345.218
  0
LINE
  8
0
 10
-28.9856
 20
345.218
 11
-28.1324
 21
345.514
  0
LINE
  8
0
 10
-28.1324
 20
345.514
 11
-27.2706
 21
345.725
  0
LINE
  8
0
 10
-27.2706
 20
345.725
 11
-26.4002
 21
345.852
  0
LINE
  8
0
 10
-26.4002
 20
345.852
 11
-25.5213
 21
345.894
  0
LINE
  8
0
 10
-25.5213
 20
345.894
 11
-24.1997
 21
345.81
  0
LINE
  8
0
 10
-24.1997
 20
345.81
 11
-23.0172
 21
345.558
  0
LINE
  8
0
 10
-23.0172
 20
345.558
 11
-21.9738
 21
345.137
  0
LINE
  8
0
 10
-21.9738
 20
345.137
 11
-21.0695
 21
344.549
  0
LINE
  8
0
 10
-21.0695
 20
344.549
 11
-20.3043
 21
343.792
  0
LINE
  8
0
 10
-20.3043
 20
343.792
 11
-19.6783
 21
342.867
  0
LINE
  8
0
 10
-19.6783
 20
342.867
 11
-19.1914
 21
341.774
  0
LINE
  8
0
 10
-19.1914
 20
341.774
 11
-18.8436
 21
340.513
  0
LINE
  8
0
 10
-18.8436
 20
340.513
 11
-18.6349
 21
339.084
  0
LINE
  8
0
 10
-18.6349
 20
339.084
 11
-18.5653
 21
337.486
  0
LINE
  8
0
 10
-18.5653
 20
337.486
 11
-18.5653
 21
320.55
  0
LINE
  8
0
 10
-18.5653
 20
320.55
 11
-22.2773
 21
320.55
  0
LINE
  8
0
 10
-22.2773
 20
320.55
 11
-22.2773
 21
336.421
  0
LINE
  8
0
 10
-22.2773
 20
336.421
 11
-22.2879
 21
337.063
  0
LINE
  8
0
 10
-22.2879
 20
337.063
 11
-22.3195
 21
337.669
  0
LINE
  8
0
 10
-22.3195
 20
337.669
 11
-22.3724
 21
338.239
  0
LINE
  8
0
 10
-22.3724
 20
338.239
 11
-22.4463
 21
338.773
  0
LINE
  8
0
 10
-22.4463
 20
338.773
 11
-22.5413
 21
339.27
  0
LINE
  8
0
 10
-22.5413
 20
339.27
 11
-22.6575
 21
339.73
  0
LINE
  8
0
 10
-22.6575
 20
339.73
 11
-22.7948
 21
340.154
  0
LINE
  8
0
 10
-22.7948
 20
340.154
 11
-22.9532
 21
340.542
  0
LINE
  8
0
 10
-22.9532
 20
340.542
 11
-23.1327
 21
340.894
  0
LINE
  8
0
 10
-23.1327
 20
340.894
 11
-23.3333
 21
341.209
  0
LINE
  8
0
 10
-23.3333
 20
341.209
 11
-23.5563
 21
341.491
  0
LINE
  8
0
 10
-23.5563
 20
341.491
 11
-23.8033
 21
341.744
  0
LINE
  8
0
 10
-23.8033
 20
341.744
 11
-24.0742
 21
341.966
  0
LINE
  8
0
 10
-24.0742
 20
341.966
 11
-24.3692
 21
342.159
  0
LINE
  8
0
 10
-24.3692
 20
342.159
 11
-24.6881
 21
342.323
  0
LINE
  8
0
 10
-24.6881
 20
342.323
 11
-25.031
 21
342.456
  0
LINE
  8
0
 10
-25.031
 20
342.456
 11
-25.3978
 21
342.56
  0
LINE
  8
0
 10
-25.3978
 20
342.56
 11
-25.7887
 21
342.635
  0
LINE
  8
0
 10
-25.7887
 20
342.635
 11
-26.2035
 21
342.679
  0
LINE
  8
0
 10
-26.2035
 20
342.679
 11
-26.6423
 21
342.694
  0
LINE
  8
0
 10
-26.6423
 20
342.694
 11
-27.3257
 21
342.652
  0
LINE
  8
0
 10
-27.3257
 20
342.652
 11
-28.0191
 21
342.525
  0
LINE
  8
0
 10
-28.0191
 20
342.525
 11
-28.7224
 21
342.314
  0
LINE
  8
0
 10
-28.7224
 20
342.314
 11
-29.4358
 21
342.018
  0
LINE
  8
0
 10
-29.4358
 20
342.018
 11
-30.1591
 21
341.638
  0
LINE
  8
0
 10
-30.1591
 20
341.638
 11
-30.8923
 21
341.173
  0
LINE
  8
0
 10
-30.8923
 20
341.173
 11
-31.6356
 21
340.624
  0
LINE
  8
0
 10
-31.6356
 20
340.624
 11
-32.3889
 21
339.991
  0
LINE
  8
0
 10
-32.3889
 20
339.991
 11
-33.1521
 21
339.273
  0
LINE
  8
0
 10
-33.1521
 20
339.273
 11
-33.9253
 21
338.47
  0
LINE
  8
0
 10
-33.9253
 20
338.47
 11
-33.9253
 21
320.55
  0
LINE
  8
0
 10
-33.9253
 20
320.55
 11
-37.6373
 21
320.55
  0
LINE
  8
0
 10
-66.1422
 20
320.55
 11
-66.1422
 21
345.318
  0
LINE
  8
0
 10
-66.1422
 20
345.318
 11
-62.4302
 21
345.318
  0
LINE
  8
0
 10
-62.4302
 20
345.318
 11
-62.4302
 21
341.67
  0
LINE
  8
0
 10
-62.4302
 20
341.67
 11
-61.6283
 21
342.473
  0
LINE
  8
0
 10
-61.6283
 20
342.473
 11
-60.8179
 21
343.191
  0
LINE
  8
0
 10
-60.8179
 20
343.191
 11
-59.9989
 21
343.824
  0
LINE
  8
0
 10
-59.9989
 20
343.824
 11
-59.1713
 21
344.373
  0
LINE
  8
0
 10
-59.1713
 20
344.373
 11
-58.3352
 21
344.838
  0
LINE
  8
0
 10
-58.3352
 20
344.838
 11
-57.4905
 21
345.218
  0
LINE
  8
0
 10
-57.4905
 20
345.218
 11
-56.6373
 21
345.514
  0
LINE
  8
0
 10
-56.6373
 20
345.514
 11
-55.7755
 21
345.725
  0
LINE
  8
0
 10
-55.7755
 20
345.725
 11
-54.9051
 21
345.852
  0
LINE
  8
0
 10
-54.9051
 20
345.852
 11
-54.0262
 21
345.894
  0
LINE
  8
0
 10
-54.0262
 20
345.894
 11
-52.7046
 21
345.81
  0
LINE
  8
0
 10
-52.7046
 20
345.81
 11
-51.522
 21
345.558
  0
LINE
  8
0
 10
-51.522
 20
345.558
 11
-50.4786
 21
345.137
  0
LINE
  8
0
 10
-50.4786
 20
345.137
 11
-49.5744
 21
344.549
  0
LINE
  8
0
 10
-49.5744
 20
344.549
 11
-48.8092
 21
343.792
  0
LINE
  8
0
 10
-48.8092
 20
343.792
 11
-48.1832
 21
342.867
  0
LINE
  8
0
 10
-48.1832
 20
342.867
 11
-47.6962
 21
341.774
  0
LINE
  8
0
 10
-47.6962
 20
341.774
 11
-47.3484
 21
340.513
  0
LINE
  8
0
 10
-47.3484
 20
340.513
 11
-47.1398
 21
339.084
  0
LINE
  8
0
 10
-47.1398
 20
339.084
 11
-47.0702
 21
337.486
  0
LINE
  8
0
 10
-47.0702
 20
337.486
 11
-47.0702
 21
320.55
  0
LINE
  8
0
 10
-47.0702
 20
320.55
 11
-50.7822
 21
320.55
  0
LINE
  8
0
 10
-50.7822
 20
320.55
 11
-50.7822
 21
336.421
  0
LINE
  8
0
 10
-50.7822
 20
336.421
 11
-50.7928
 21
337.063
  0
LINE
  8
0
 10
-50.7928
 20
337.063
 11
-50.8244
 21
337.669
  0
LINE
  8
0
 10
-50.8244
 20
337.669
 11
-50.8772
 21
338.239
  0
LINE
  8
0
 10
-50.8772
 20
338.239
 11
-50.9512
 21
338.773
  0
LINE
  8
0
 10
-50.9512
 20
338.773
 11
-51.0462
 21
339.27
  0
LINE
  8
0
 10
-51.0462
 20
339.27
 11
-51.1624
 21
339.73
  0
LINE
  8
0
 10
-51.1624
 20
339.73
 11
-51.2996
 21
340.154
  0
LINE
  8
0
 10
-51.2996
 20
340.154
 11
-51.458
 21
340.542
  0
LINE
  8
0
 10
-51.458
 20
340.542
 11
-51.6376
 21
340.894
  0
LINE
  8
0
 10
-51.6376
 20
340.894
 11
-51.8382
 21
341.209
  0
LINE
  8
0
 10
-51.8382
 20
341.209
 11
-52.0612
 21
341.491
  0
LINE
  8
0
 10
-52.0612
 20
341.491
 11
-52.3082
 21
341.744
  0
LINE
  8
0
 10
-52.3082
 20
341.744
 11
-52.5791
 21
341.966
  0
LINE
  8
0
 10
-52.5791
 20
341.966
 11
-52.874
 21
342.159
  0
LINE
  8
0
 10
-52.874
 20
342.159
 11
-53.1929
 21
342.323
  0
LINE
  8
0
 10
-53.1929
 20
342.323
 11
-53.5358
 21
342.456
  0
LINE
  8
0
 10
-53.5358
 20
342.456
 11
-53.9027
 21
342.56
  0
LINE
  8
0
 10
-53.9027
 20
342.56
 11
-54.2936
 21
342.635
  0
LINE
  8
0
 10
-54.2936
 20
342.635
 11
-54.7084
 21
342.679
  0
LINE
  8
0
 10
-54.7084
 20
342.679
 11
-55.1472
 21
342.694
  0
LINE
  8
0
 10
-55.1472
 20
342.694
 11
-55.8306
 21
342.652
  0
LINE
  8
0
 10
-55.8306
 20
342.652
 11
-56.524
 21
342.525
  0
LINE
  8
0
 10
-56.524
 20
342.525
 11
-57.2273
 21
342.314
  0
LINE
  8
0
 10
-57.2273
 20
342.314
 11
-57.9406
 21
342.018
  0
LINE
  8
0
 10
-57.9406
 20
342.018
 11
-58.664
 21
341.638
  0
LINE
  8
0
 10
-58.664
 20
341.638
 11
-59.3972
 21
341.173
  0
LINE
  8
0
 10
-59.3972
 20
341.173
 11
-60.1405
 21
340.624
  0
LINE
  8
0
 10
-60.1405
 20
340.624
 11
-60.8938
 21
339.991
  0
LINE
  8
0
 10
-60.8938
 20
339.991
 11
-61.657
 21
339.273
  0
LINE
  8
0
 10
-61.657
 20
339.273
 11
-62.4302
 21
338.47
  0
LINE
  8
0
 10
-62.4302
 20
338.47
 11
-62.4302
 21
320.55
  0
LINE
  8
0
 10
-62.4302
 20
320.55
 11
-66.1422
 21
320.55
  0
LINE
  8
0
 10
120.213
 20
337.061
 11
119.779
 21
337.296
  0
LINE
  8
0
 10
119.779
 20
337.296
 11
119.444
 21
337.66
  0
LINE
  8
0
 10
119.444
 20
337.66
 11
119.246
 21
338.112
  0
LINE
  8
0
 10
119.246
 20
338.112
 11
119.205
 21
338.604
  0
LINE
  8
0
 10
119.205
 20
338.604
 11
119.326
 21
339.083
  0
LINE
  8
0
 10
119.326
 20
339.083
 11
119.596
 21
339.496
  0
LINE
  8
0
 10
119.596
 20
339.496
 11
119.986
 21
339.799
  0
LINE
  8
0
 10
119.986
 20
339.799
 11
120.453
 21
339.96
  0
LINE
  8
0
 10
120.453
 20
339.96
 11
120.947
 21
339.96
  0
LINE
  8
0
 10
120.947
 20
339.96
 11
121.414
 21
339.799
  0
LINE
  8
0
 10
121.414
 20
339.799
 11
121.804
 21
339.496
  0
LINE
  8
0
 10
121.804
 20
339.496
 11
122.074
 21
339.083
  0
LINE
  8
0
 10
122.074
 20
339.083
 11
122.195
 21
338.604
  0
LINE
  8
0
 10
122.195
 20
338.604
 11
122.154
 21
338.112
  0
LINE
  8
0
 10
122.154
 20
338.112
 11
121.956
 21
337.66
  0
LINE
  8
0
 10
121.956
 20
337.66
 11
121.621
 21
337.296
  0
LINE
  8
0
 10
121.621
 20
337.296
 11
121.187
 21
337.061
  0
LINE
  8
0
 10
121.187
 20
337.061
 11
120.7
 21
336.98
  0
LINE
  8
0
 10
120.7
 20
336.98
 11
120.213
 21
337.061
  0
LINE
  8
0
 10
-170.237
 20
337.061
 11
-170.671
 21
337.296
  0
LINE
  8
0
 10
-170.671
 20
337.296
 11
-171.006
 21
337.66
  0
LINE
  8
0
 10
-171.006
 20
337.66
 11
-171.204
 21
338.112
  0
LINE
  8
0
 10
-171.204
 20
338.112
 11
-171.245
 21
338.604
  0
LINE
  8
0
 10
-171.245
 20
338.604
 11
-171.124
 21
339.083
  0
LINE
  8
0
 10
-171.124
 20
339.083
 11
-170.854
 21
339.496
  0
LINE
  8
0
 10
-170.854
 20
339.496
 11
-170.464
 21
339.799
  0
LINE
  8
0
 10
-170.464
 20
339.799
 11
-169.997
 21
339.96
  0
LINE
  8
0
 10
-169.997
 20
339.96
 11
-169.503
 21
339.96
  0
LINE
  8
0
 10
-169.503
 20
339.96
 11
-169.036
 21
339.799
  0
LINE
  8
0
 10
-169.036
 20
339.799
 11
-168.646
 21
339.496
  0
LINE
  8
0
 10
-168.646
 20
339.496
 11
-168.376
 21
339.083
  0
LINE
  8
0
 10
-168.376
 20
339.083
 11
-168.255
 21
338.604
  0
LINE
  8
0
 10
-168.255
 20
338.604
 11
-168.296
 21
338.112
  0
LINE
  8
0
 10
-168.296
 20
338.112
 11
-168.494
 21
337.66
  0
LINE
  8
0
 10
-168.494
 20
337.66
 11
-168.829
 21
337.296
  0
LINE
  8
0
 10
-168.829
 20
337.296
 11
-169.263
 21
337.061
  0
LINE
  8
0
 10
-169.263
 20
337.061
 11
-169.75
 21
336.98
  0
LINE
  8
0
 10
-169.75
 20
336.98
 11
-170.237
 21
337.061
  0
LINE
  8
0
 10
120.213
 20
331.261
 11
119.779
 21
331.496
  0
LINE
  8
0
 10
119.779
 20
331.496
 11
119.444
 21
331.86
  0
LINE
  8
0
 10
119.444
 20
331.86
 11
119.246
 21
332.312
  0
LINE
  8
0
 10
119.246
 20
332.312
 11
119.205
 21
332.804
  0
LINE
  8
0
 10
119.205
 20
332.804
 11
119.326
 21
333.283
  0
LINE
  8
0
 10
119.326
 20
333.283
 11
119.596
 21
333.696
  0
LINE
  8
0
 10
119.596
 20
333.696
 11
119.986
 21
333.999
  0
LINE
  8
0
 10
119.986
 20
333.999
 11
120.453
 21
334.16
  0
LINE
  8
0
 10
120.453
 20
334.16
 11
120.947
 21
334.16
  0
LINE
  8
0
 10
120.947
 20
334.16
 11
121.414
 21
333.999
  0
LINE
  8
0
 10
121.414
 20
333.999
 11
121.804
 21
333.696
  0
LINE
  8
0
 10
121.804
 20
333.696
 11
122.074
 21
333.283
  0
LINE
  8
0
 10
122.074
 20
333.283
 11
122.195
 21
332.804
  0
LINE
  8
0
 10
122.195
 20
332.804
 11
122.154
 21
332.312
  0
LINE
  8
0
 10
122.154
 20
332.312
 11
121.956
 21
331.86
  0
LINE
  8
0
 10
121.956
 20
331.86
 11
121.621
 21
331.496
  0
LINE
  8
0
 10
121.621
 20
331.496
 11
121.187
 21
331.261
  0
LINE
  8
0
 10
121.187
 20
331.261
 11
120.7
 21
331.18
  0
LINE
  8
0
 10
120.7
 20
331.18
 11
120.213
 21
331.261
  0
LINE
  8
0
 10
-170.237
 20
331.261
 11
-170.671
 21
331.496
  0
LINE
  8
0
 10
-170.671
 20
331.496
 11
-171.006
 21
331.86
  0
LINE
  8
0
 10
-171.006
 20
331.86
 11
-171.204
 21
332.312
  0
LINE
  8
0
 10
-171.204
 20
332.312
 11
-171.245
 21
332.804
  0
LINE
  8
0
 10
-171.245
 20
332.804
 11
-171.124
 21
333.283
  0
LINE
  8
0
 10
-171.124
 20
333.283
 11
-170.854
 21
333.696
  0
LINE
  8
0
 10
-170.854
 20
333.696
 11
-170.464
 21
333.999
  0
LINE
  8
0
 10
-170.464
 20
333.999
 11
-169.997
 21
334.16
  0
LINE
  8
0
 10
-169.997
 20
334.16
 11
-169.503
 21
334.16
  0
LINE
  8
0
 10
-169.503
 20
334.16
 11
-169.036
 21
333.999
  0
LINE
  8
0
 10
-169.036
 20
333.999
 11
-168.646
 21
333.696
  0
LINE
  8
0
 10
-168.646
 20
333.696
 11
-168.376
 21
333.283
  0
LINE
  8
0
 10
-168.376
 20
333.283
 11
-168.255
 21
332.804
  0
LINE
  8
0
 10
-168.255
 20
332.804
 11
-168.296
 21
332.312
  0
LINE
  8
0
 10
-168.296
 20
332.312
 11
-168.494
 21
331.86
  0
LINE
  8
0
 10
-168.494
 20
331.86
 11
-168.829
 21
331.496
  0
LINE
  8
0
 10
-168.829
 20
331.496
 11
-169.263
 21
331.261
  0
LINE
  8
0
 10
-169.263
 20
331.261
 11
-169.75
 21
331.18
  0
LINE
  8
0
 10
-169.75
 20
331.18
 11
-170.237
 21
331.261
  0
LINE
  8
0
 10
125.453
 20
325.8
 11
124.986
 21
325.961
  0
LINE
  8
0
 10
124.986
 20
325.961
 11
124.596
 21
326.264
  0
LINE
  8
0
 10
124.596
 20
326.264
 11
124.326
 21
326.677
  0
LINE
  8
0
 10
124.326
 20
326.677
 11
124.205
 21
327.156
  0
LINE
  8
0
 10
124.205
 20
327.156
 11
124.246
 21
327.648
  0
LINE
  8
0
 10
124.246
 20
327.648
 11
124.444
 21
328.1
  0
LINE
  8
0
 10
124.444
 20
328.1
 11
124.779
 21
328.464
  0
LINE
  8
0
 10
124.779
 20
328.464
 11
125.213
 21
328.699
  0
LINE
  8
0
 10
125.213
 20
328.699
 11
125.7
 21
328.78
  0
LINE
  8
0
 10
125.7
 20
328.78
 11
126.187
 21
328.699
  0
LINE
  8
0
 10
126.187
 20
328.699
 11
126.621
 21
328.464
  0
LINE
  8
0
 10
126.621
 20
328.464
 11
126.956
 21
328.1
  0
LINE
  8
0
 10
126.956
 20
328.1
 11
127.154
 21
327.648
  0
LINE
  8
0
 10
127.154
 20
327.648
 11
127.195
 21
327.156
  0
LINE
  8
0
 10
127.195
 20
327.156
 11
127.074
 21
326.677
  0
LINE
  8
0
 10
127.074
 20
326.677
 11
126.804
 21
326.264
  0
LINE
  8
0
 10
126.804
 20
326.264
 11
126.414
 21
325.961
  0
LINE
  8
0
 10
126.414
 20
325.961
 11
125.947
 21
325.8
  0
LINE
  8
0
 10
125.947
 20
325.8
 11
125.453
 21
325.8
  0
LINE
  8
0
 10
-164.997
 20
325.8
 11
-165.464
 21
325.961
  0
LINE
  8
0
 10
-165.464
 20
325.961
 11
-165.854
 21
326.264
  0
LINE
  8
0
 10
-165.854
 20
326.264
 11
-166.124
 21
326.677
  0
LINE
  8
0
 10
-166.124
 20
326.677
 11
-166.245
 21
327.156
  0
LINE
  8
0
 10
-166.245
 20
327.156
 11
-166.204
 21
327.648
  0
LINE
  8
0
 10
-166.204
 20
327.648
 11
-166.006
 21
328.1
  0
LINE
  8
0
 10
-166.006
 20
328.1
 11
-165.671
 21
328.464
  0
LINE
  8
0
 10
-165.671
 20
328.464
 11
-165.237
 21
328.699
  0
LINE
  8
0
 10
-165.237
 20
328.699
 11
-164.75
 21
328.78
  0
LINE
  8
0
 10
-164.75
 20
328.78
 11
-164.263
 21
328.699
  0
LINE
  8
0
 10
-164.263
 20
328.699
 11
-163.829
 21
328.464
  0
LINE
  8
0
 10
-163.829
 20
328.464
 11
-163.494
 21
328.1
  0
LINE
  8
0
 10
-163.494
 20
328.1
 11
-163.296
 21
327.648
  0
LINE
  8
0
 10
-163.296
 20
327.648
 11
-163.255
 21
327.156
  0
LINE
  8
0
 10
-163.255
 20
327.156
 11
-163.376
 21
326.677
  0
LINE
  8
0
 10
-163.376
 20
326.677
 11
-163.646
 21
326.264
  0
LINE
  8
0
 10
-163.646
 20
326.264
 11
-164.036
 21
325.961
  0
LINE
  8
0
 10
-164.036
 20
325.961
 11
-164.503
 21
325.8
  0
LINE
  8
0
 10
-164.503
 20
325.8
 11
-164.997
 21
325.8
  0
LINE
  8
0
 10
125.453
 20
318.6
 11
124.986
 21
318.761
  0
LINE
  8
0
 10
124.986
 20
318.761
 11
124.596
 21
319.064
  0
LINE
  8
0
 10
124.596
 20
319.064
 11
124.326
 21
319.477
  0
LINE
  8
0
 10
124.326
 20
319.477
 11
124.205
 21
319.956
  0
LINE
  8
0
 10
124.205
 20
319.956
 11
124.246
 21
320.448
  0
LINE
  8
0
 10
124.246
 20
320.448
 11
124.444
 21
320.9
  0
LINE
  8
0
 10
124.444
 20
320.9
 11
124.779
 21
321.264
  0
LINE
  8
0
 10
124.779
 20
321.264
 11
125.213
 21
321.499
  0
LINE
  8
0
 10
125.213
 20
321.499
 11
125.7
 21
321.58
  0
LINE
  8
0
 10
125.7
 20
321.58
 11
126.187
 21
321.499
  0
LINE
  8
0
 10
126.187
 20
321.499
 11
126.621
 21
321.264
  0
LINE
  8
0
 10
126.621
 20
321.264
 11
126.956
 21
320.9
  0
LINE
  8
0
 10
126.956
 20
320.9
 11
127.154
 21
320.448
  0
LINE
  8
0
 10
127.154
 20
320.448
 11
127.195
 21
319.956
  0
LINE
  8
0
 10
127.195
 20
319.956
 11
127.074
 21
319.477
  0
LINE
  8
0
 10
127.074
 20
319.477
 11
126.804
 21
319.064
  0
LINE
  8
0
 10
126.804
 20
319.064
 11
126.414
 21
318.761
  0
LINE
  8
0
 10
126.414
 20
318.761
 11
125.947
 21
318.6
  0
LINE
  8
0
 10
125.947
 20
318.6
 11
125.453
 21
318.6
  0
LINE
  8
0
 10
-164.997
 20
318.6
 11
-165.464
 21
318.761
  0
LINE
  8
0
 10
-165.464
 20
318.761
 11
-165.854
 21
319.064
  0
LINE
  8
0
 10
-165.854
 20
319.064
 11
-166.124
 21
319.477
  0
LINE
  8
0
 10
-166.124
 20
319.477
 11
-166.245
 21
319.956
  0
LINE
  8
0
 10
-166.245
 20
319.956
 11
-166.204
 21
320.448
  0
LINE
  8
0
 10
-166.204
 20
320.448
 11
-166.006
 21
320.9
  0
LINE
  8
0
 10
-166.006
 20
320.9
 11
-165.671
 21
321.264
  0
LINE
  8
0
 10
-165.671
 20
321.264
 11
-165.237
 21
321.499
  0
LINE
  8
0
 10
-165.237
 20
321.499
 11
-164.75
 21
321.58
  0
LINE
  8
0
 10
-164.75
 20
321.58
 11
-164.263
 21
321.499
  0
LINE
  8
0
 10
-164.263
 20
321.499
 11
-163.829
 21
321.264
  0
LINE
  8
0
 10
-163.829
 20
321.264
 11
-163.494
 21
320.9
  0
LINE
  8
0
 10
-163.494
 20
320.9
 11
-163.296
 21
320.448
  0
LINE
  8
0
 10
-163.296
 20
320.448
 11
-163.255
 21
319.956
  0
LINE
  8
0
 10
-163.255
 20
319.956
 11
-163.376
 21
319.477
  0
LINE
  8
0
 10
-163.376
 20
319.477
 11
-163.646
 21
319.064
  0
LINE
  8
0
 10
-163.646
 20
319.064
 11
-164.036
 21
318.761
  0
LINE
  8
0
 10
-164.036
 20
318.761
 11
-164.503
 21
318.6
  0
LINE
  8
0
 10
-164.503
 20
318.6
 11
-164.997
 21
318.6
  0
LINE
  8
0
 10
-229.24
 20
157.355
 11
-229.705
 21
157.518
  0
LINE
  8
0
 10
-229.705
 20
157.518
 11
-230.122
 21
157.78
  0
LINE
  8
0
 10
-230.122
 20
157.78
 11
-230.47
 21
158.128
  0
LINE
  8
0
 10
-230.47
 20
158.128
 11
-230.732
 21
158.545
  0
LINE
  8
0
 10
-230.732
 20
158.545
 11
-230.895
 21
159.01
  0
LINE
  8
0
 10
-230.895
 20
159.01
 11
-230.95
 21
159.5
  0
LINE
  8
0
 10
-230.95
 20
159.5
 11
-230.895
 21
159.99
  0
LINE
  8
0
 10
-230.895
 20
159.99
 11
-230.732
 21
160.455
  0
LINE
  8
0
 10
-230.732
 20
160.455
 11
-230.47
 21
160.872
  0
LINE
  8
0
 10
-230.47
 20
160.872
 11
-230.122
 21
161.22
  0
LINE
  8
0
 10
-230.122
 20
161.22
 11
-229.705
 21
161.482
  0
LINE
  8
0
 10
-229.705
 20
161.482
 11
-229.24
 21
161.645
  0
LINE
  8
0
 10
-229.24
 20
161.645
 11
-228.75
 21
161.7
  0
LINE
  8
0
 10
-228.75
 20
161.7
 11
-228.26
 21
161.645
  0
LINE
  8
0
 10
-228.26
 20
161.645
 11
-227.795
 21
161.482
  0
LINE
  8
0
 10
-227.795
 20
161.482
 11
-227.378
 21
161.22
  0
LINE
  8
0
 10
-227.378
 20
161.22
 11
-227.03
 21
160.872
  0
LINE
  8
0
 10
-227.03
 20
160.872
 11
-226.768
 21
160.455
  0
LINE
  8
0
 10
-226.768
 20
160.455
 11
-226.605
 21
159.99
  0
LINE
  8
0
 10
-226.605
 20
159.99
 11
-226.55
 21
159.5
  0
LINE
  8
0
 10
-226.55
 20
159.5
 11
-226.605
 21
159.01
  0
LINE
  8
0
 10
-226.605
 20
159.01
 11
-226.768
 21
158.545
  0
LINE
  8
0
 10
-226.768
 20
158.545
 11
-227.03
 21
158.128
  0
LINE
  8
0
 10
-227.03
 20
158.128
 11
-227.378
 21
157.78
  0
LINE
  8
0
 10
-227.378
 20
157.78
 11
-227.795
 21
157.518
  0
LINE
  8
0
 10
-227.795
 20
157.518
 11
-228.26
 21
157.355
  0
LINE
  8
0
 10
-228.26
 20
157.355
 11
-228.75
 21
157.3
  0
LINE
  8
0
 10
-228.75
 20
157.3
 11
-229.24
 21
157.355
  0
LINE
  8
0
 10
-229.24
 20
115.955
 11
-229.705
 21
116.118
  0
LINE
  8
0
 10
-229.705
 20
116.118
 11
-230.122
 21
116.38
  0
LINE
  8
0
 10
-230.122
 20
116.38
 11
-230.47
 21
116.728
  0
LINE
  8
0
 10
-230.47
 20
116.728
 11
-230.732
 21
117.145
  0
LINE
  8
0
 10
-230.732
 20
117.145
 11
-230.895
 21
117.61
  0
LINE
  8
0
 10
-230.895
 20
117.61
 11
-230.95
 21
118.1
  0
LINE
  8
0
 10
-230.95
 20
118.1
 11
-230.895
 21
118.59
  0
LINE
  8
0
 10
-230.895
 20
118.59
 11
-230.732
 21
119.055
  0
LINE
  8
0
 10
-230.732
 20
119.055
 11
-230.47
 21
119.472
  0
LINE
  8
0
 10
-230.47
 20
119.472
 11
-230.122
 21
119.82
  0
LINE
  8
0
 10
-230.122
 20
119.82
 11
-229.705
 21
120.082
  0
LINE
  8
0
 10
-229.705
 20
120.082
 11
-229.24
 21
120.245
  0
LINE
  8
0
 10
-229.24
 20
120.245
 11
-228.75
 21
120.3
  0
LINE
  8
0
 10
-228.75
 20
120.3
 11
-228.26
 21
120.245
  0
LINE
  8
0
 10
-228.26
 20
120.245
 11
-227.795
 21
120.082
  0
LINE
  8
0
 10
-227.795
 20
120.082
 11
-227.378
 21
119.82
  0
LINE
  8
0
 10
-227.378
 20
119.82
 11
-227.03
 21
119.472
  0
LINE
  8
0
 10
-227.03
 20
119.472
 11
-226.768
 21
119.055
  0
LINE
  8
0
 10
-226.768
 20
119.055
 11
-226.605
 21
118.59
  0
LINE
  8
0
 10
-226.605
 20
118.59
 11
-226.55
 21
118.1
  0
LINE
  8
0
 10
-226.55
 20
118.1
 11
-226.605
 21
117.61
  0
LINE
  8
0
 10
-226.605
 20
117.61
 11
-226.768
 21
117.145
  0
LINE
  8
0
 10
-226.768
 20
117.145
 11
-227.03
 21
116.728
  0
LINE
  8
0
 10
-227.03
 20
116.728
 11
-227.378
 21
116.38
  0
LINE
  8
0
 10
-227.378
 20
116.38
 11
-227.795
 21
116.118
  0
LINE
  8
0
 10
-227.795
 20
116.118
 11
-228.26
 21
115.955
  0
LINE
  8
0
 10
-228.26
 20
115.955
 11
-228.75
 21
115.9
  0
LINE
  8
0
 10
-228.75
 20
115.9
 11
-229.24
 21
115.955
  0
LINE
  8
0
 10
-203.991
 20
71.0146
 11
-204.459
 21
71.13
  0
LINE
  8
0
 10
-204.459
 20
71.13
 11
-204.886
 21
71.354
  0
LINE
  8
0
 10
-204.886
 20
71.354
 11
-205.247
 21
71.6738
  0
LINE
  8
0
 10
-205.247
 20
71.6738
 11
-205.521
 21
72.0705
  0
LINE
  8
0
 10
-205.521
 20
72.0705
 11
-205.692
 21
72.5214
  0
LINE
  8
0
 10
-205.692
 20
72.5214
 11
-205.75
 21
73
  0
LINE
  8
0
 10
-205.75
 20
73
 11
-205.692
 21
73.4786
  0
LINE
  8
0
 10
-205.692
 20
73.4786
 11
-205.521
 21
73.9294
  0
LINE
  8
0
 10
-205.521
 20
73.9294
 11
-205.247
 21
74.3262
  0
LINE
  8
0
 10
-205.247
 20
74.3262
 11
-204.886
 21
74.646
  0
LINE
  8
0
 10
-204.886
 20
74.646
 11
-204.459
 21
74.87
  0
LINE
  8
0
 10
-204.459
 20
74.87
 11
-203.991
 21
74.9854
  0
LINE
  8
0
 10
-203.991
 20
74.9854
 11
-203.509
 21
74.9854
  0
LINE
  8
0
 10
-203.509
 20
74.9854
 11
-203.041
 21
74.87
  0
LINE
  8
0
 10
-203.041
 20
74.87
 11
-202.614
 21
74.646
  0
LINE
  8
0
 10
-202.614
 20
74.646
 11
-202.253
 21
74.3262
  0
LINE
  8
0
 10
-202.253
 20
74.3262
 11
-201.979
 21
73.9294
  0
LINE
  8
0
 10
-201.979
 20
73.9294
 11
-201.808
 21
73.4786
  0
LINE
  8
0
 10
-201.808
 20
73.4786
 11
-201.75
 21
73
  0
LINE
  8
0
 10
-201.75
 20
73
 11
-201.808
 21
72.5214
  0
LINE
  8
0
 10
-201.808
 20
72.5214
 11
-201.979
 21
72.0705
  0
LINE
  8
0
 10
-201.979
 20
72.0705
 11
-202.253
 21
71.6738
  0
LINE
  8
0
 10
-202.253
 20
71.6738
 11
-202.614
 21
71.354
  0
LINE
  8
0
 10
-202.614
 20
71.354
 11
-203.041
 21
71.13
  0
LINE
  8
0
 10
-203.041
 20
71.13
 11
-203.509
 21
71.0146
  0
LINE
  8
0
 10
-203.509
 20
71.0146
 11
-203.991
 21
71.0146
  0
LINE
  8
0
 10
144.71
 20
54.3551
 11
144.245
 21
54.5179
  0
LINE
  8
0
 10
144.245
 20
54.5179
 11
143.828
 21
54.78
  0
LINE
  8
0
 10
143.828
 20
54.78
 11
143.48
 21
55.1283
  0
LINE
  8
0
 10
143.48
 20
55.1283
 11
143.218
 21
55.5454
  0
LINE
  8
0
 10
143.218
 20
55.5454
 11
143.055
 21
56.0105
  0
LINE
  8
0
 10
143.055
 20
56.0105
 11
143
 21
56.5
  0
LINE
  8
0
 10
143
 20
56.5
 11
143
 21
65.5
  0
LINE
  8
0
 10
143
 20
65.5
 11
143.055
 21
65.9895
  0
LINE
  8
0
 10
143.055
 20
65.9895
 11
143.218
 21
66.4545
  0
LINE
  8
0
 10
143.218
 20
66.4545
 11
143.48
 21
66.8717
  0
LINE
  8
0
 10
143.48
 20
66.8717
 11
143.828
 21
67.22
  0
LINE
  8
0
 10
143.828
 20
67.22
 11
144.245
 21
67.4821
  0
LINE
  8
0
 10
144.245
 20
67.4821
 11
144.71
 21
67.6448
  0
LINE
  8
0
 10
144.71
 20
67.6448
 11
145.2
 21
67.7
  0
LINE
  8
0
 10
145.2
 20
67.7
 11
145.69
 21
67.6448
  0
LINE
  8
0
 10
145.69
 20
67.6448
 11
146.155
 21
67.4821
  0
LINE
  8
0
 10
146.155
 20
67.4821
 11
146.572
 21
67.22
  0
LINE
  8
0
 10
146.572
 20
67.22
 11
146.92
 21
66.8717
  0
LINE
  8
0
 10
146.92
 20
66.8717
 11
147.182
 21
66.4545
  0
LINE
  8
0
 10
147.182
 20
66.4545
 11
147.345
 21
65.9895
  0
LINE
  8
0
 10
147.345
 20
65.9895
 11
147.4
 21
65.5
  0
LINE
  8
0
 10
147.4
 20
65.5
 11
147.4
 21
56.5
  0
LINE
  8
0
 10
147.4
 20
56.5
 11
147.345
 21
56.0105
  0
LINE
  8
0
 10
147.345
 20
56.0105
 11
147.182
 21
55.5454
  0
LINE
  8
0
 10
147.182
 20
55.5454
 11
146.92
 21
55.1283
  0
LINE
  8
0
 10
146.92
 20
55.1283
 11
146.572
 21
54.78
  0
LINE
  8
0
 10
146.572
 20
54.78
 11
146.155
 21
54.5179
  0
LINE
  8
0
 10
146.155
 20
54.5179
 11
145.69
 21
54.3551
  0
LINE
  8
0
 10
145.69
 20
54.3551
 11
145.2
 21
54.3
  0
LINE
  8
0
 10
145.2
 20
54.3
 11
144.71
 21
54.3551
  0
LINE
  8
0
 10
-190.19
 20
54.3551
 11
-190.655
 21
54.5179
  0
LINE
  8
0
 10
-190.655
 20
54.5179
 11
-191.072
 21
54.78
  0
LINE
  8
0
 10
-191.072
 20
54.78
 11
-191.42
 21
55.1283
  0
LINE
  8
0
 10
-191.42
 20
55.1283
 11
-191.682
 21
55.5454
  0
LINE
  8
0
 10
-191.682
 20
55.5454
 11
-191.845
 21
56.0105
  0
LINE
  8
0
 10
-191.845
 20
56.0105
 11
-191.9
 21
56.5
  0
LINE
  8
0
 10
-191.9
 20
56.5
 11
-191.9
 21
65.5
  0
LINE
  8
0
 10
-191.9
 20
65.5
 11
-191.845
 21
65.9895
  0
LINE
  8
0
 10
-191.845
 20
65.9895
 11
-191.682
 21
66.4545
  0
LINE
  8
0
 10
-191.682
 20
66.4545
 11
-191.42
 21
66.8717
  0
LINE
  8
0
 10
-191.42
 20
66.8717
 11
-191.072
 21
67.22
  0
LINE
  8
0
 10
-191.072
 20
67.22
 11
-190.655
 21
67.4821
  0
LINE
  8
0
 10
-190.655
 20
67.4821
 11
-190.19
 21
67.6448
  0
LINE
  8
0
 10
-190.19
 20
67.6448
 11
-189.7
 21
67.7
  0
LINE
  8
0
 10
-189.7
 20
67.7
 11
-189.21
 21
67.6448
  0
LINE
  8
0
 10
-189.21
 20
67.6448
 11
-188.745
 21
67.4821
  0
LINE
  8
0
 10
-188.745
 20
67.4821
 11
-188.328
 21
67.22
  0
LINE
  8
0
 10
-188.328
 20
67.22
 11
-187.98
 21
66.8717
  0
LINE
  8
0
 10
-187.98
 20
66.8717
 11
-187.718
 21
66.4545
  0
LINE
  8
0
 10
-187.718
 20
66.4545
 11
-187.555
 21
65.9895
  0
LINE
  8
0
 10
-187.555
 20
65.9895
 11
-187.5
 21
65.5
  0
LINE
  8
0
 10
-187.5
 20
65.5
 11
-187.5
 21
56.5
  0
LINE
  8
0
 10
-187.5
 20
56.5
 11
-187.555
 21
56.0105
  0
LINE
  8
0
 10
-187.555
 20
56.0105
 11
-187.718
 21
55.5454
  0
LINE
  8
0
 10
-187.718
 20
55.5454
 11
-187.98
 21
55.1283
  0
LINE
  8
0
 10
-187.98
 20
55.1283
 11
-188.328
 21
54.78
  0
LINE
  8
0
 10
-188.328
 20
54.78
 11
-188.745
 21
54.5179
  0
LINE
  8
0
 10
-188.745
 20
54.5179
 11
-189.21
 21
54.3551
  0
LINE
  8
0
 10
-189.21
 20
54.3551
 11
-189.7
 21
54.3
  0
LINE
  8
0
 10
-189.7
 20
54.3
 11
-190.19
 21
54.3551
  0
LINE
  8
0
 10
174.81
 20
54.3551
 11
174.345
 21
54.5179
  0
LINE
  8
0
 10
174.345
 20
54.5179
 11
173.928
 21
54.78
  0
LINE
  8
0
 10
173.928
 20
54.78
 11
173.58
 21
55.1283
  0
LINE
  8
0
 10
173.58
 20
55.1283
 11
173.318
 21
55.5454
  0
LINE
  8
0
 10
173.318
 20
55.5454
 11
173.155
 21
56.0105
  0
LINE
  8
0
 10
173.155
 20
56.0105
 11
173.1
 21
56.5
  0
LINE
  8
0
 10
173.1
 20
56.5
 11
173.1
 21
65.5
  0
LINE
  8
0
 10
173.1
 20
65.5
 11
173.155
 21
65.9895
  0
LINE
  8
0
 10
173.155
 20
65.9895
 11
173.318
 21
66.4545
  0
LINE
  8
0
 10
173.318
 20
66.4545
 11
173.58
 21
66.8717
  0
LINE
  8
0
 10
173.58
 20
66.8717
 11
173.928
 21
67.22
  0
LINE
  8
0
 10
173.928
 20
67.22
 11
174.345
 21
67.4821
  0
LINE
  8
0
 10
174.345
 20
67.4821
 11
174.81
 21
67.6448
  0
LINE
  8
0
 10
174.81
 20
67.6448
 11
175.3
 21
67.7
  0
LINE
  8
0
 10
175.3
 20
67.7
 11
175.79
 21
67.6448
  0
LINE
  8
0
 10
175.79
 20
67.6448
 11
176.255
 21
67.4821
  0
LINE
  8
0
 10
176.255
 20
67.4821
 11
176.672
 21
67.22
  0
LINE
  8
0
 10
176.672
 20
67.22
 11
177.02
 21
66.8717
  0
LINE
  8
0
 10
177.02
 20
66.8717
 11
177.282
 21
66.4545
  0
LINE
  8
0
 10
177.282
 20
66.4545
 11
177.445
 21
65.9895
  0
LINE
  8
0
 10
177.445
 20
65.9895
 11
177.5
 21
65.5
  0
LINE
  8
0
 10
177.5
 20
65.5
 11
177.5
 21
56.5
  0
LINE
  8
0
 10
177.5
 20
56.5
 11
177.445
 21
56.0105
  0
LINE
  8
0
 10
177.445
 20
56.0105
 11
177.282
 21
55.5454
  0
LINE
  8
0
 10
177.282
 20
55.5454
 11
177.02
 21
55.1283
  0
LINE
  8
0
 10
177.02
 20
55.1283
 11
176.672
 21
54.78
  0
LINE
  8
0
 10
176.672
 20
54.78
 11
176.255
 21
54.5179
  0
LINE
  8
0
 10
176.255
 20
54.5179
 11
175.79
 21
54.3551
  0
LINE
  8
0
 10
175.79
 20
54.3551
 11
175.3
 21
54.3
  0
LINE
  8
0
 10
175.3
 20
54.3
 11
174.81
 21
54.3551
  0
LINE
  8
0
 10
-220.29
 20
54.3551
 11
-220.755
 21
54.5179
  0
LINE
  8
0
 10
-220.755
 20
54.5179
 11
-221.172
 21
54.78
  0
LINE
  8
0
 10
-221.172
 20
54.78
 11
-221.52
 21
55.1283
  0
LINE
  8
0
 10
-221.52
 20
55.1283
 11
-221.782
 21
55.5454
  0
LINE
  8
0
 10
-221.782
 20
55.5454
 11
-221.945
 21
56.0105
  0
LINE
  8
0
 10
-221.945
 20
56.0105
 11
-222
 21
56.5
  0
LINE
  8
0
 10
-222
 20
56.5
 11
-222
 21
65.5
  0
LINE
  8
0
 10
-222
 20
65.5
 11
-221.945
 21
65.9895
  0
LINE
  8
0
 10
-221.945
 20
65.9895
 11
-221.782
 21
66.4545
  0
LINE
  8
0
 10
-221.782
 20
66.4545
 11
-221.52
 21
66.8717
  0
LINE
  8
0
 10
-221.52
 20
66.8717
 11
-221.172
 21
67.22
  0
LINE
  8
0
 10
-221.172
 20
67.22
 11
-220.755
 21
67.4821
  0
LINE
  8
0
 10
-220.755
 20
67.4821
 11
-220.29
 21
67.6448
  0
LINE
  8
0
 10
-220.29
 20
67.6448
 11
-219.8
 21
67.7
  0
LINE
  8
0
 10
-219.8
 20
67.7
 11
-219.31
 21
67.6448
  0
LINE
  8
0
 10
-219.31
 20
67.6448
 11
-218.845
 21
67.4821
  0
LINE
  8
0
 10
-218.845
 20
67.4821
 11
-218.428
 21
67.22
  0
LINE
  8
0
 10
-218.428
 20
67.22
 11
-218.08
 21
66.8717
  0
LINE
  8
0
 10
-218.08
 20
66.8717
 11
-217.818
 21
66.4545
  0
LINE
  8
0
 10
-217.818
 20
66.4545
 11
-217.655
 21
65.9895
  0
LINE
  8
0
 10
-217.655
 20
65.9895
 11
-217.6
 21
65.5
  0
LINE
  8
0
 10
-217.6
 20
65.5
 11
-217.6
 21
56.5
  0
LINE
  8
0
 10
-217.6
 20
56.5
 11
-217.655
 21
56.0105
  0
LINE
  8
0
 10
-217.655
 20
56.0105
 11
-217.818
 21
55.5454
  0
LINE
  8
0
 10
-217.818
 20
55.5454
 11
-218.08
 21
55.1283
  0
LINE
  8
0
 10
-218.08
 20
55.1283
 11
-218.428
 21
54.78
  0
LINE
  8
0
 10
-218.428
 20
54.78
 11
-218.845
 21
54.5179
  0
LINE
  8
0
 10
-218.845
 20
54.5179
 11
-219.31
 21
54.3551
  0
LINE
  8
0
 10
-219.31
 20
54.3551
 11
-219.8
 21
54.3
  0
LINE
  8
0
 10
-219.8
 20
54.3
 11
-220.29
 21
54.3551
  0
LINE
  8
0
 10
129.01
 20
31.5652
 11
128.545
 21
31.7279
  0
LINE
  8
0
 10
128.545
 20
31.7279
 11
128.128
 21
31.99
  0
LINE
  8
0
 10
128.128
 20
31.99
 11
127.78
 21
32.3383
  0
LINE
  8
0
 10
127.78
 20
32.3383
 11
127.518
 21
32.7554
  0
LINE
  8
0
 10
127.518
 20
32.7554
 11
127.355
 21
33.2204
  0
LINE
  8
0
 10
127.355
 20
33.2204
 11
127.3
 21
33.71
  0
LINE
  8
0
 10
127.3
 20
33.71
 11
127.355
 21
34.1995
  0
LINE
  8
0
 10
127.355
 20
34.1995
 11
127.518
 21
34.6645
  0
LINE
  8
0
 10
127.518
 20
34.6645
 11
127.78
 21
35.0817
  0
LINE
  8
0
 10
127.78
 20
35.0817
 11
128.128
 21
35.43
  0
LINE
  8
0
 10
128.128
 20
35.43
 11
128.545
 21
35.6921
  0
LINE
  8
0
 10
128.545
 20
35.6921
 11
129.01
 21
35.8548
  0
LINE
  8
0
 10
129.01
 20
35.8548
 11
129.5
 21
35.91
  0
LINE
  8
0
 10
129.5
 20
35.91
 11
129.99
 21
35.8548
  0
LINE
  8
0
 10
129.99
 20
35.8548
 11
130.455
 21
35.6921
  0
LINE
  8
0
 10
130.455
 20
35.6921
 11
130.872
 21
35.43
  0
LINE
  8
0
 10
130.872
 20
35.43
 11
131.22
 21
35.0817
  0
LINE
  8
0
 10
131.22
 20
35.0817
 11
131.482
 21
34.6645
  0
LINE
  8
0
 10
131.482
 20
34.6645
 11
131.645
 21
34.1995
  0
LINE
  8
0
 10
131.645
 20
34.1995
 11
131.7
 21
33.71
  0
LINE
  8
0
 10
131.7
 20
33.71
 11
131.645
 21
33.2204
  0
LINE
  8
0
 10
131.645
 20
33.2204
 11
131.482
 21
32.7554
  0
LINE
  8
0
 10
131.482
 20
32.7554
 11
131.22
 21
32.3383
  0
LINE
  8
0
 10
131.22
 20
32.3383
 11
130.872
 21
31.99
  0
LINE
  8
0
 10
130.872
 20
31.99
 11
130.455
 21
31.7279
  0
LINE
  8
0
 10
130.455
 20
31.7279
 11
129.99
 21
31.5652
  0
LINE
  8
0
 10
129.99
 20
31.5652
 11
129.5
 21
31.51
  0
LINE
  8
0
 10
129.5
 20
31.51
 11
129.01
 21
31.5652
  0
LINE
  8
0
 10
-174.04
 20
31.5652
 11
-174.505
 21
31.7279
  0
LINE
  8
0
 10
-174.505
 20
31.7279
 11
-174.922
 21
31.99
  0
LINE
  8
0
 10
-174.922
 20
31.99
 11
-175.27
 21
32.3383
  0
LINE
  8
0
 10
-175.27
 20
32.3383
 11
-175.532
 21
32.7554
  0
LINE
  8
0
 10
-175.532
 20
32.7554
 11
-175.695
 21
33.2204
  0
LINE
  8
0
 10
-175.695
 20
33.2204
 11
-175.75
 21
33.71
  0
LINE
  8
0
 10
-175.75
 20
33.71
 11
-175.695
 21
34.1995
  0
LINE
  8
0
 10
-175.695
 20
34.1995
 11
-175.532
 21
34.6645
  0
LINE
  8
0
 10
-175.532
 20
34.6645
 11
-175.27
 21
35.0817
  0
LINE
  8
0
 10
-175.27
 20
35.0817
 11
-174.922
 21
35.43
  0
LINE
  8
0
 10
-174.922
 20
35.43
 11
-174.505
 21
35.6921
  0
LINE
  8
0
 10
-174.505
 20
35.6921
 11
-174.04
 21
35.8548
  0
LINE
  8
0
 10
-174.04
 20
35.8548
 11
-173.55
 21
35.91
  0
LINE
  8
0
 10
-173.55
 20
35.91
 11
-173.06
 21
35.8548
  0
LINE
  8
0
 10
-173.06
 20
35.8548
 11
-172.595
 21
35.6921
  0
LINE
  8
0
 10
-172.595
 20
35.6921
 11
-172.178
 21
35.43
  0
LINE
  8
0
 10
-172.178
 20
35.43
 11
-171.83
 21
35.0817
  0
LINE
  8
0
 10
-171.83
 20
35.0817
 11
-171.568
 21
34.6645
  0
LINE
  8
0
 10
-171.568
 20
34.6645
 11
-171.405
 21
34.1995
  0
LINE
  8
0
 10
-171.405
 20
34.1995
 11
-171.35
 21
33.71
  0
LINE
  8
0
 10
-171.35
 20
33.71
 11
-171.405
 21
33.2204
  0
LINE
  8
0
 10
-171.405
 20
33.2204
 11
-171.568
 21
32.7554
  0
LINE
  8
0
 10
-171.568
 20
32.7554
 11
-171.83
 21
32.3383
  0
LINE
  8
0
 10
-171.83
 20
32.3383
 11
-172.178
 21
31.99
  0
LINE
  8
0
 10
-172.178
 20
31.99
 11
-172.595
 21
31.7279
  0
LINE
  8
0
 10
-172.595
 20
31.7279
 11
-173.06
 21
31.5652
  0
LINE
  8
0
 10
-173.06
 20
31.5652
 11
-173.55
 21
31.51
  0
LINE
  8
0
 10
-173.55
 20
31.51
 11
-174.04
 21
31.5652
  0
LINE
  8
0
 10
221.16
 20
25.8051
 11
220.695
 21
25.9679
  0
LINE
  8
0
 10
220.695
 20
25.9679
 11
220.278
 21
26.23
  0
LINE
  8
0
 10
220.278
 20
26.23
 11
219.93
 21
26.5783
  0
LINE
  8
0
 10
219.93
 20
26.5783
 11
219.668
 21
26.9955
  0
LINE
  8
0
 10
219.668
 20
26.9955
 11
219.505
 21
27.4604
  0
LINE
  8
0
 10
219.505
 20
27.4604
 11
219.45
 21
27.95
  0
LINE
  8
0
 10
219.45
 20
27.95
 11
219.505
 21
28.4395
  0
LINE
  8
0
 10
219.505
 20
28.4395
 11
219.668
 21
28.9045
  0
LINE
  8
0
 10
219.668
 20
28.9045
 11
219.93
 21
29.3217
  0
LINE
  8
0
 10
219.93
 20
29.3217
 11
220.278
 21
29.67
  0
LINE
  8
0
 10
220.278
 20
29.67
 11
220.695
 21
29.9321
  0
LINE
  8
0
 10
220.695
 20
29.9321
 11
221.16
 21
30.0948
  0
LINE
  8
0
 10
221.16
 20
30.0948
 11
221.65
 21
30.15
  0
LINE
  8
0
 10
221.65
 20
30.15
 11
222.14
 21
30.0948
  0
LINE
  8
0
 10
222.14
 20
30.0948
 11
222.605
 21
29.9321
  0
LINE
  8
0
 10
222.605
 20
29.9321
 11
223.022
 21
29.67
  0
LINE
  8
0
 10
223.022
 20
29.67
 11
223.37
 21
29.3217
  0
LINE
  8
0
 10
223.37
 20
29.3217
 11
223.632
 21
28.9045
  0
LINE
  8
0
 10
223.632
 20
28.9045
 11
223.795
 21
28.4395
  0
LINE
  8
0
 10
223.795
 20
28.4395
 11
223.85
 21
27.95
  0
LINE
  8
0
 10
223.85
 20
27.95
 11
223.795
 21
27.4604
  0
LINE
  8
0
 10
223.795
 20
27.4604
 11
223.632
 21
26.9955
  0
LINE
  8
0
 10
223.632
 20
26.9955
 11
223.37
 21
26.5783
  0
LINE
  8
0
 10
223.37
 20
26.5783
 11
223.022
 21
26.23
  0
LINE
  8
0
 10
223.022
 20
26.23
 11
222.605
 21
25.9679
  0
LINE
  8
0
 10
222.605
 20
25.9679
 11
222.14
 21
25.8051
  0
LINE
  8
0
 10
222.14
 20
25.8051
 11
221.65
 21
25.75
  0
LINE
  8
0
 10
221.65
 20
25.75
 11
221.16
 21
25.8051
  0
LINE
  8
0
 10
158.882
 20
15.448
 11
158.413
 21
15.5903
  0
LINE
  8
0
 10
158.413
 20
15.5903
 11
157.981
 21
15.8213
  0
LINE
  8
0
 10
157.981
 20
15.8213
 11
157.602
 21
16.1322
  0
LINE
  8
0
 10
157.602
 20
16.1322
 11
157.291
 21
16.5111
  0
LINE
  8
0
 10
157.291
 20
16.5111
 11
157.06
 21
16.9433
  0
LINE
  8
0
 10
157.06
 20
16.9433
 11
156.918
 21
17.4123
  0
LINE
  8
0
 10
156.918
 20
17.4123
 11
156.87
 21
17.9
  0
LINE
  8
0
 10
156.87
 20
17.9
 11
156.918
 21
18.3877
  0
LINE
  8
0
 10
156.918
 20
18.3877
 11
157.06
 21
18.8567
  0
LINE
  8
0
 10
157.06
 20
18.8567
 11
157.291
 21
19.2889
  0
LINE
  8
0
 10
157.291
 20
19.2889
 11
157.602
 21
19.6678
  0
LINE
  8
0
 10
157.602
 20
19.6678
 11
157.981
 21
19.9787
  0
LINE
  8
0
 10
157.981
 20
19.9787
 11
158.413
 21
20.2097
  0
LINE
  8
0
 10
158.413
 20
20.2097
 11
158.882
 21
20.352
  0
LINE
  8
0
 10
158.882
 20
20.352
 11
159.37
 21
20.4
  0
LINE
  8
0
 10
159.37
 20
20.4
 11
159.858
 21
20.352
  0
LINE
  8
0
 10
159.858
 20
20.352
 11
160.327
 21
20.2097
  0
LINE
  8
0
 10
160.327
 20
20.2097
 11
160.759
 21
19.9787
  0
LINE
  8
0
 10
160.759
 20
19.9787
 11
161.138
 21
19.6678
  0
LINE
  8
0
 10
161.138
 20
19.6678
 11
161.449
 21
19.2889
  0
LINE
  8
0
 10
161.449
 20
19.2889
 11
161.68
 21
18.8567
  0
LINE
  8
0
 10
161.68
 20
18.8567
 11
161.822
 21
18.3877
  0
LINE
  8
0
 10
161.822
 20
18.3877
 11
161.87
 21
17.9
  0
LINE
  8
0
 10
161.87
 20
17.9
 11
161.822
 21
17.4123
  0
LINE
  8
0
 10
161.822
 20
17.4123
 11
161.68
 21
16.9433
  0
LINE
  8
0
 10
161.68
 20
16.9433
 11
161.449
 21
16.5111
  0
LINE
  8
0
 10
161.449
 20
16.5111
 11
161.138
 21
16.1322
  0
LINE
  8
0
 10
161.138
 20
16.1322
 11
160.759
 21
15.8213
  0
LINE
  8
0
 10
160.759
 20
15.8213
 11
160.327
 21
15.5903
  0
LINE
  8
0
 10
160.327
 20
15.5903
 11
159.858
 21
15.448
  0
LINE
  8
0
 10
159.858
 20
15.448
 11
159.37
 21
15.4
  0
LINE
  8
0
 10
159.37
 20
15.4
 11
158.882
 21
15.448
  0
LINE
  8
0
 10
227.55
 20
4.99998
 11
227.06
 21
5.05515
  0
LINE
  8
0
 10
227.06
 20
5.05515
 11
226.595
 21
5.21786
  0
LINE
  8
0
 10
226.595
 20
5.21786
 11
226.178
 21
5.47997
  0
LINE
  8
0
 10
226.178
 20
5.47997
 11
225.83
 21
5.82831
  0
LINE
  8
0
 10
225.83
 20
5.82831
 11
225.568
 21
6.24545
  0
LINE
  8
0
 10
225.568
 20
6.24545
 11
225.405
 21
6.71045
  0
LINE
  8
0
 10
225.405
 20
6.71045
 11
225.35
 21
7.2
  0
LINE
  8
0
 10
225.35
 20
7.2
 11
225.405
 21
7.68954
  0
LINE
  8
0
 10
225.405
 20
7.68954
 11
225.568
 21
8.15454
  0
LINE
  8
0
 10
225.568
 20
8.15454
 11
225.83
 21
8.57167
  0
LINE
  8
0
 10
225.83
 20
8.57167
 11
226.178
 21
8.92003
  0
LINE
  8
0
 10
226.178
 20
8.92003
 11
226.595
 21
9.18213
  0
LINE
  8
0
 10
226.595
 20
9.18213
 11
227.06
 21
9.34483
  0
LINE
  8
0
 10
227.06
 20
9.34483
 11
227.55
 21
9.39999
  0
LINE
  8
0
 10
227.55
 20
9.39999
 11
228.04
 21
9.34483
  0
LINE
  8
0
 10
228.04
 20
9.34483
 11
228.505
 21
9.18213
  0
LINE
  8
0
 10
228.505
 20
9.18213
 11
228.922
 21
8.92003
  0
LINE
  8
0
 10
228.922
 20
8.92003
 11
229.27
 21
8.57167
  0
LINE
  8
0
 10
229.27
 20
8.57167
 11
229.532
 21
8.15454
  0
LINE
  8
0
 10
229.532
 20
8.15454
 11
229.695
 21
7.68954
  0
LINE
  8
0
 10
229.695
 20
7.68954
 11
229.75
 21
7.2
  0
LINE
  8
0
 10
229.75
 20
7.2
 11
229.695
 21
6.71045
  0
LINE
  8
0
 10
229.695
 20
6.71045
 11
229.532
 21
6.24545
  0
LINE
  8
0
 10
229.532
 20
6.24545
 11
229.27
 21
5.82831
  0
LINE
  8
0
 10
229.27
 20
5.82831
 11
228.922
 21
5.47997
  0
LINE
  8
0
 10
228.922
 20
5.47997
 11
228.505
 21
5.21786
  0
LINE
  8
0
 10
228.505
 20
5.21786
 11
228.04
 21
5.05515
  0
LINE
  8
0
 10
228.04
 20
5.05515
 11
227.55
 21
4.99998
  0
LINE
  8
0
 10
-139.95
 20
4.99998
 11
-140.44
 21
5.05515
  0
LINE
  8
0
 10
-140.44
 20
5.05515
 11
-140.905
 21
5.21786
  0
LINE
  8
0
 10
-140.905
 20
5.21786
 11
-141.322
 21
5.47997
  0
LINE
  8
0
 10
-141.322
 20
5.47997
 11
-141.67
 21
5.82831
  0
LINE
  8
0
 10
-141.67
 20
5.82831
 11
-141.932
 21
6.24545
  0
LINE
  8
0
 10
-141.932
 20
6.24545
 11
-142.095
 21
6.71045
  0
LINE
  8
0
 10
-142.095
 20
6.71045
 11
-142.15
 21
7.2
  0
LINE
  8
0
 10
-142.15
 20
7.2
 11
-142.095
 21
7.68954
  0
LINE
  8
0
 10
-142.095
 20
7.68954
 11
-141.932
 21
8.15454
  0
LINE
  8
0
 10
-141.932
 20
8.15454
 11
-141.67
 21
8.57167
  0
LINE
  8
0
 10
-141.67
 20
8.57167
 11
-141.322
 21
8.92003
  0
LINE
  8
0
 10
-141.322
 20
8.92003
 11
-140.905
 21
9.18213
  0
LINE
  8
0
 10
-140.905
 20
9.18213
 11
-140.44
 21
9.34483
  0
LINE
  8
0
 10
-140.44
 20
9.34483
 11
-139.95
 21
9.39999
  0
LINE
  8
0
 10
-139.95
 20
9.39999
 11
-139.46
 21
9.34483
  0
LINE
  8
0
 10
-139.46
 20
9.34483
 11
-138.995
 21
9.18213
  0
LINE
  8
0
 10
-138.995
 20
9.18213
 11
-138.578
 21
8.92003
  0
LINE
  8
0
 10
-138.578
 20
8.92003
 11
-138.23
 21
8.57167
  0
LINE
  8
0
 10
-138.23
 20
8.57167
 11
-137.968
 21
8.15454
  0
LINE
  8
0
 10
-137.968
 20
8.15454
 11
-137.805
 21
7.68954
  0
LINE
  8
0
 10
-137.805
 20
7.68954
 11
-137.75
 21
7.2
  0
LINE
  8
0
 10
-137.75
 20
7.2
 11
-137.805
 21
6.71045
  0
LINE
  8
0
 10
-137.805
 20
6.71045
 11
-137.968
 21
6.24545
  0
LINE
  8
0
 10
-137.968
 20
6.24545
 11
-138.23
 21
5.82831
  0
LINE
  8
0
 10
-138.23
 20
5.82831
 11
-138.578
 21
5.47997
  0
LINE
  8
0
 10
-138.578
 20
5.47997
 11
-138.995
 21
5.21786
  0
LINE
  8
0
 10
-138.995
 20
5.21786
 11
-139.46
 21
5.05515
  0
LINE
  8
0
 10
-139.46
 20
5.05515
 11
-139.95
 21
4.99998
  0
LINE
  8
0
 10
206.33
 20
4.99998
 11
205.84
 21
5.05515
  0
LINE
  8
0
 10
205.84
 20
5.05515
 11
205.375
 21
5.21786
  0
LINE
  8
0
 10
205.375
 20
5.21786
 11
204.958
 21
5.47997
  0
LINE
  8
0
 10
204.958
 20
5.47997
 11
204.61
 21
5.82831
  0
LINE
  8
0
 10
204.61
 20
5.82831
 11
204.348
 21
6.24545
  0
LINE
  8
0
 10
204.348
 20
6.24545
 11
204.185
 21
6.71045
  0
LINE
  8
0
 10
204.185
 20
6.71045
 11
204.13
 21
7.2
  0
LINE
  8
0
 10
204.13
 20
7.2
 11
204.185
 21
7.68954
  0
LINE
  8
0
 10
204.185
 20
7.68954
 11
204.348
 21
8.15454
  0
LINE
  8
0
 10
204.348
 20
8.15454
 11
204.61
 21
8.57167
  0
LINE
  8
0
 10
204.61
 20
8.57167
 11
204.958
 21
8.92003
  0
LINE
  8
0
 10
204.958
 20
8.92003
 11
205.375
 21
9.18213
  0
LINE
  8
0
 10
205.375
 20
9.18213
 11
205.84
 21
9.34483
  0
LINE
  8
0
 10
205.84
 20
9.34483
 11
206.33
 21
9.39999
  0
LINE
  8
0
 10
206.33
 20
9.39999
 11
206.82
 21
9.34483
  0
LINE
  8
0
 10
206.82
 20
9.34483
 11
207.285
 21
9.18213
  0
LINE
  8
0
 10
207.285
 20
9.18213
 11
207.702
 21
8.92003
  0
LINE
  8
0
 10
207.702
 20
8.92003
 11
208.05
 21
8.57167
  0
LINE
  8
0
 10
208.05
 20
8.57167
 11
208.312
 21
8.15454
  0
LINE
  8
0
 10
208.312
 20
8.15454
 11
208.475
 21
7.68954
  0
LINE
  8
0
 10
208.475
 20
7.68954
 11
208.53
 21
7.2
  0
LINE
  8
0
 10
208.53
 20
7.2
 11
208.475
 21
6.71045
  0
LINE
  8
0
 10
208.475
 20
6.71045
 11
208.312
 21
6.24545
  0
LINE
  8
0
 10
208.312
 20
6.24545
 11
208.05
 21
5.82831
  0
LINE
  8
0
 10
208.05
 20
5.82831
 11
207.702
 21
5.47997
  0
LINE
  8
0
 10
207.702
 20
5.47997
 11
207.285
 21
5.21786
  0
LINE
  8
0
 10
207.285
 20
5.21786
 11
206.82
 21
5.05515
  0
LINE
  8
0
 10
206.82
 20
5.05515
 11
206.33
 21
4.99998
  0
LINE
  8
0
 10
169.62
 20
4.99998
 11
169.13
 21
5.05515
  0
LINE
  8
0
 10
169.13
 20
5.05515
 11
168.665
 21
5.21786
  0
LINE
  8
0
 10
168.665
 20
5.21786
 11
168.248
 21
5.47997
  0
LINE
  8
0
 10
168.248
 20
5.47997
 11
167.9
 21
5.82831
  0
LINE
  8
0
 10
167.9
 20
5.82831
 11
167.638
 21
6.24545
  0
LINE
  8
0
 10
167.638
 20
6.24545
 11
167.475
 21
6.71045
  0
LINE
  8
0
 10
167.475
 20
6.71045
 11
167.42
 21
7.2
  0
LINE
  8
0
 10
167.42
 20
7.2
 11
167.475
 21
7.68954
  0
LINE
  8
0
 10
167.475
 20
7.68954
 11
167.638
 21
8.15454
  0
LINE
  8
0
 10
167.638
 20
8.15454
 11
167.9
 21
8.57167
  0
LINE
  8
0
 10
167.9
 20
8.57167
 11
168.248
 21
8.92003
  0
LINE
  8
0
 10
168.248
 20
8.92003
 11
168.665
 21
9.18213
  0
LINE
  8
0
 10
168.665
 20
9.18213
 11
169.13
 21
9.34483
  0
LINE
  8
0
 10
169.13
 20
9.34483
 11
169.62
 21
9.39999
  0
LINE
  8
0
 10
169.62
 20
9.39999
 11
170.11
 21
9.34483
  0
LINE
  8
0
 10
170.11
 20
9.34483
 11
170.575
 21
9.18213
  0
LINE
  8
0
 10
170.575
 20
9.18213
 11
170.992
 21
8.92003
  0
LINE
  8
0
 10
170.992
 20
8.92003
 11
171.34
 21
8.57167
  0
LINE
  8
0
 10
171.34
 20
8.57167
 11
171.602
 21
8.15454
  0
LINE
  8
0
 10
171.602
 20
8.15454
 11
171.765
 21
7.68954
  0
LINE
  8
0
 10
171.765
 20
7.68954
 11
171.82
 21
7.2
  0
LINE
  8
0
 10
171.82
 20
7.2
 11
171.765
 21
6.71045
  0
LINE
  8
0
 10
171.765
 20
6.71045
 11
171.602
 21
6.24545
  0
LINE
  8
0
 10
171.602
 20
6.24545
 11
171.34
 21
5.82831
  0
LINE
  8
0
 10
171.34
 20
5.82831
 11
170.992
 21
5.47997
  0
LINE
  8
0
 10
170.992
 20
5.47997
 11
170.575
 21
5.21786
  0
LINE
  8
0
 10
170.575
 20
5.21786
 11
170.11
 21
5.05515
  0
LINE
  8
0
 10
170.11
 20
5.05515
 11
169.62
 21
4.99998
  0
LINE
  8
0
 10
-227.55
 20
4.99998
 11
-228.04
 21
5.05515
  0
LINE
  8
0
 10
-228.04
 20
5.05515
 11
-228.505
 21
5.21786
  0
LINE
  8
0
 10
-228.505
 20
5.21786
 11
-228.922
 21
5.47997
  0
LINE
  8
0
 10
-228.922
 20
5.47997
 11
-229.27
 21
5.82831
  0
LINE
  8
0
 10
-229.27
 20
5.82831
 11
-229.532
 21
6.24545
  0
LINE
  8
0
 10
-229.532
 20
6.24545
 11
-229.695
 21
6.71045
  0
LINE
  8
0
 10
-229.695
 20
6.71045
 11
-229.75
 21
7.2
  0
LINE
  8
0
 10
-229.75
 20
7.2
 11
-229.695
 21
7.68954
  0
LINE
  8
0
 10
-229.695
 20
7.68954
 11
-229.532
 21
8.15454
  0
LINE
  8
0
 10
-229.532
 20
8.15454
 11
-229.27
 21
8.57167
  0
LINE
  8
0
 10
-229.27
 20
8.57167
 11
-228.922
 21
8.92003
  0
LINE
  8
0
 10
-228.922
 20
8.92003
 11
-228.505
 21
9.18213
  0
LINE
  8
0
 10
-228.505
 20
9.18213
 11
-228.04
 21
9.34483
  0
LINE
  8
0
 10
-228.04
 20
9.34483
 11
-227.55
 21
9.39999
  0
LINE
  8
0
 10
-227.55
 20
9.39999
 11
-227.06
 21
9.34483
  0
LINE
  8
0
 10
-227.06
 20
9.34483
 11
-226.595
 21
9.18213
  0
LINE
  8
0
 10
-226.595
 20
9.18213
 11
-226.178
 21
8.92003
  0
LINE
  8
0
 10
-226.178
 20
8.92003
 11
-225.83
 21
8.57167
  0
LINE
  8
0
 10
-225.83
 20
8.57167
 11
-225.568
 21
8.15454
  0
LINE
  8
0
 10
-225.568
 20
8.15454
 11
-225.405
 21
7.68954
  0
LINE
  8
0
 10
-225.405
 20
7.68954
 11
-225.35
 21
7.2
  0
LINE
  8
0
 10
-225.35
 20
7.2
 11
-225.405
 21
6.71045
  0
LINE
  8
0
 10
-225.405
 20
6.71045
 11
-225.568
 21
6.24545
  0
LINE
  8
0
 10
-225.568
 20
6.24545
 11
-225.83
 21
5.82831
  0
LINE
  8
0
 10
-225.83
 20
5.82831
 11
-226.178
 21
5.47997
  0
LINE
  8
0
 10
-226.178
 20
5.47997
 11
-226.595
 21
5.21786
  0
LINE
  8
0
 10
-226.595
 20
5.21786
 11
-227.06
 21
5.05515
  0
LINE
  8
0
 10
-227.06
 20
5.05515
 11
-227.55
 21
4.99998
  0
LINE
  8
0
 10
148.4
 20
4.99998
 11
147.91
 21
5.05515
  0
LINE
  8
0
 10
147.91
 20
5.05515
 11
147.445
 21
5.21786
  0
LINE
  8
0
 10
147.445
 20
5.21786
 11
147.028
 21
5.47997
  0
LINE
  8
0
 10
147.028
 20
5.47997
 11
146.68
 21
5.82831
  0
LINE
  8
0
 10
146.68
 20
5.82831
 11
146.418
 21
6.24545
  0
LINE
  8
0
 10
146.418
 20
6.24545
 11
146.255
 21
6.71045
  0
LINE
  8
0
 10
146.255
 20
6.71045
 11
146.2
 21
7.2
  0
LINE
  8
0
 10
146.2
 20
7.2
 11
146.255
 21
7.68954
  0
LINE
  8
0
 10
146.255
 20
7.68954
 11
146.418
 21
8.15454
  0
LINE
  8
0
 10
146.418
 20
8.15454
 11
146.68
 21
8.57167
  0
LINE
  8
0
 10
146.68
 20
8.57167
 11
147.028
 21
8.92003
  0
LINE
  8
0
 10
147.028
 20
8.92003
 11
147.445
 21
9.18213
  0
LINE
  8
0
 10
147.445
 20
9.18213
 11
147.91
 21
9.34483
  0
LINE
  8
0
 10
147.91
 20
9.34483
 11
148.4
 21
9.39999
  0
LINE
  8
0
 10
148.4
 20
9.39999
 11
148.89
 21
9.34483
  0
LINE
  8
0
 10
148.89
 20
9.34483
 11
149.355
 21
9.18213
  0
LINE
  8
0
 10
149.355
 20
9.18213
 11
149.772
 21
8.92003
  0
LINE
  8
0
 10
149.772
 20
8.92003
 11
150.12
 21
8.57167
  0
LINE
  8
0
 10
150.12
 20
8.57167
 11
150.382
 21
8.15454
  0
LINE
  8
0
 10
150.382
 20
8.15454
 11
150.545
 21
7.68954
  0
LINE
  8
0
 10
150.545
 20
7.68954
 11
150.6
 21
7.2
  0
LINE
  8
0
 10
150.6
 20
7.2
 11
150.545
 21
6.71045
  0
LINE
  8
0
 10
150.545
 20
6.71045
 11
150.382
 21
6.24545
  0
LINE
  8
0
 10
150.382
 20
6.24545
 11
150.12
 21
5.82831
  0
LINE
  8
0
 10
150.12
 20
5.82831
 11
149.772
 21
5.47997
  0
LINE
  8
0
 10
149.772
 20
5.47997
 11
149.355
 21
5.21786
  0
LINE
  8
0
 10
149.355
 20
5.21786
 11
148.89
 21
5.05515
  0
LINE
  8
0
 10
148.89
 20
5.05515
 11
148.4
 21
4.99998
  0
LINE
  8
0
 10
-206.33
 20
4.99998
 11
-206.82
 21
5.05515
  0
LINE
  8
0
 10
-206.82
 20
5.05515
 11
-207.285
 21
5.21786
  0
LINE
  8
0
 10
-207.285
 20
5.21786
 11
-207.702
 21
5.47997
  0
LINE
  8
0
 10
-207.702
 20
5.47997
 11
-208.05
 21
5.82831
  0
LINE
  8
0
 10
-208.05
 20
5.82831
 11
-208.312
 21
6.24545
  0
LINE
  8
0
 10
-208.312
 20
6.24545
 11
-208.475
 21
6.71045
  0
LINE
  8
0
 10
-208.475
 20
6.71045
 11
-208.53
 21
7.2
  0
LINE
  8
0
 10
-208.53
 20
7.2
 11
-208.475
 21
7.68954
  0
LINE
  8
0
 10
-208.475
 20
7.68954
 11
-208.312
 21
8.15454
  0
LINE
  8
0
 10
-208.312
 20
8.15454
 11
-208.05
 21
8.57167
  0
LINE
  8
0
 10
-208.05
 20
8.57167
 11
-207.702
 21
8.92003
  0
LINE
  8
0
 10
-207.702
 20
8.92003
 11
-207.285
 21
9.18213
  0
LINE
  8
0
 10
-207.285
 20
9.18213
 11
-206.82
 21
9.34483
  0
LINE
  8
0
 10
-206.82
 20
9.34483
 11
-206.33
 21
9.39999
  0
LINE
  8
0
 10
-206.33
 20
9.39999
 11
-205.84
 21
9.34483
  0
LINE
  8
0
 10
-205.84
 20
9.34483
 11
-205.375
 21
9.18213
  0
LINE
  8
0
 10
-205.375
 20
9.18213
 11
-204.958
 21
8.92003
  0
LINE
  8
0
 10
-204.958
 20
8.92003
 11
-204.61
 21
8.57167
  0
LINE
  8
0
 10
-204.61
 20
8.57167
 11
-204.348
 21
8.15454
  0
LINE
  8
0
 10
-204.348
 20
8.15454
 11
-204.185
 21
7.68954
  0
LINE
  8
0
 10
-204.185
 20
7.68954
 11
-204.13
 21
7.2
  0
LINE
  8
0
 10
-204.13
 20
7.2
 11
-204.185
 21
6.71045
  0
LINE
  8
0
 10
-204.185
 20
6.71045
 11
-204.348
 21
6.24545
  0
LINE
  8
0
 10
-204.348
 20
6.24545
 11
-204.61
 21
5.82831
  0
LINE
  8
0
 10
-204.61
 20
5.82831
 11
-204.958
 21
5.47997
  0
LINE
  8
0
 10
-204.958
 20
5.47997
 11
-205.375
 21
5.21786
  0
LINE
  8
0
 10
-205.375
 20
5.21786
 11
-205.84
 21
5.05515
  0
LINE
  8
0
 10
-205.84
 20
5.05515
 11
-206.33
 21
4.99998
  0
LINE
  8
0
 10
-161.17
 20
4.99998
 11
-161.66
 21
5.05515
  0
LINE
  8
0
 10
-161.66
 20
5.05515
 11
-162.125
 21
5.21786
  0
LINE
  8
0
 10
-162.125
 20
5.21786
 11
-162.542
 21
5.47997
  0
LINE
  8
0
 10
-162.542
 20
5.47997
 11
-162.89
 21
5.82831
  0
LINE
  8
0
 10
-162.89
 20
5.82831
 11
-163.152
 21
6.24545
  0
LINE
  8
0
 10
-163.152
 20
6.24545
 11
-163.315
 21
6.71045
  0
LINE
  8
0
 10
-163.315
 20
6.71045
 11
-163.37
 21
7.2
  0
LINE
  8
0
 10
-163.37
 20
7.2
 11
-163.315
 21
7.68954
  0
LINE
  8
0
 10
-163.315
 20
7.68954
 11
-163.152
 21
8.15454
  0
LINE
  8
0
 10
-163.152
 20
8.15454
 11
-162.89
 21
8.57167
  0
LINE
  8
0
 10
-162.89
 20
8.57167
 11
-162.542
 21
8.92003
  0
LINE
  8
0
 10
-162.542
 20
8.92003
 11
-162.125
 21
9.18213
  0
LINE
  8
0
 10
-162.125
 20
9.18213
 11
-161.66
 21
9.34483
  0
LINE
  8
0
 10
-161.66
 20
9.34483
 11
-161.17
 21
9.39999
  0
LINE
  8
0
 10
-161.17
 20
9.39999
 11
-160.68
 21
9.34483
  0
LINE
  8
0
 10
-160.68
 20
9.34483
 11
-160.215
 21
9.18213
  0
LINE
  8
0
 10
-160.215
 20
9.18213
 11
-159.798
 21
8.92003
  0
LINE
  8
0
 10
-159.798
 20
8.92003
 11
-159.45
 21
8.57167
  0
LINE
  8
0
 10
-159.45
 20
8.57167
 11
-159.188
 21
8.15454
  0
LINE
  8
0
 10
-159.188
 20
8.15454
 11
-159.025
 21
7.68954
  0
LINE
  8
0
 10
-159.025
 20
7.68954
 11
-158.97
 21
7.2
  0
LINE
  8
0
 10
-158.97
 20
7.2
 11
-159.025
 21
6.71045
  0
LINE
  8
0
 10
-159.025
 20
6.71045
 11
-159.188
 21
6.24545
  0
LINE
  8
0
 10
-159.188
 20
6.24545
 11
-159.45
 21
5.82831
  0
LINE
  8
0
 10
-159.45
 20
5.82831
 11
-159.798
 21
5.47997
  0
LINE
  8
0
 10
-159.798
 20
5.47997
 11
-160.215
 21
5.21786
  0
LINE
  8
0
 10
-160.215
 20
5.21786
 11
-160.68
 21
5.05515
  0
LINE
  8
0
 10
-160.68
 20
5.05515
 11
-161.17
 21
4.99998
  0
LINE
  8
0
 10
98.9977
 20
0.0102386
 11
99.4865
 21
0.0917969
  0
LINE
  8
0
 10
99.4865
 20
0.0917969
 11
99.9551
 21
0.25267
  0
LINE
  8
0
 10
99.9551
 20
0.25267
 11
100.391
 21
0.488495
  0
LINE
  8
0
 10
100.391
 20
0.488495
 11
100.782
 21
0.792816
  0
LINE
  8
0
 10
100.782
 20
0.792816
 11
101.117
 21
1.15735
  0
LINE
  8
0
 10
101.117
 20
1.15735
 11
101.388
 21
1.57214
  0
LINE
  8
0
 10
101.388
 20
1.57214
 11
101.587
 21
2.02589
  0
LINE
  8
0
 10
101.587
 20
2.02589
 11
101.709
 21
2.50621
  0
LINE
  8
0
 10
101.709
 20
2.50621
 11
101.75
 21
3
  0
LINE
  8
0
 10
101.75
 20
3
 11
101.74
 21
214.248
  0
LINE
  8
0
 10
101.74
 20
214.248
 11
101.658
 21
214.736
  0
LINE
  8
0
 10
101.658
 20
214.736
 11
101.497
 21
215.205
  0
LINE
  8
0
 10
101.497
 20
215.205
 11
101.261
 21
215.641
  0
LINE
  8
0
 10
101.261
 20
215.641
 11
100.957
 21
216.032
  0
LINE
  8
0
 10
100.957
 20
216.032
 11
100.593
 21
216.367
  0
LINE
  8
0
 10
100.593
 20
216.367
 11
100.178
 21
216.638
  0
LINE
  8
0
 10
100.178
 20
216.638
 11
99.7241
 21
216.837
  0
LINE
  8
0
 10
99.7241
 20
216.837
 11
99.2438
 21
216.959
  0
LINE
  8
0
 10
99.2438
 20
216.959
 11
98.75
 21
217
  0
LINE
  8
0
 10
98.75
 20
217
 11
11.76
 21
216.996
  0
LINE
  8
0
 10
11.76
 20
216.996
 11
11.76
 21
212
  0
LINE
  8
0
 10
11.76
 20
212
 11
-25.26
 21
212
  0
LINE
  8
0
 10
-25.26
 20
212
 11
-25.26
 21
216.994
  0
LINE
  8
0
 10
-25.26
 20
216.994
 11
-112.498
 21
216.99
  0
LINE
  8
0
 10
-112.498
 20
216.99
 11
-112.986
 21
216.908
  0
LINE
  8
0
 10
-112.986
 20
216.908
 11
-113.455
 21
216.747
  0
LINE
  8
0
 10
-113.455
 20
216.747
 11
-113.891
 21
216.511
  0
LINE
  8
0
 10
-113.891
 20
216.511
 11
-114.282
 21
216.207
  0
LINE
  8
0
 10
-114.282
 20
216.207
 11
-114.617
 21
215.843
  0
LINE
  8
0
 10
-114.617
 20
215.843
 11
-114.888
 21
215.428
  0
LINE
  8
0
 10
-114.888
 20
215.428
 11
-115.087
 21
214.974
  0
LINE
  8
0
 10
-115.087
 20
214.974
 11
-115.209
 21
214.494
  0
LINE
  8
0
 10
-115.209
 20
214.494
 11
-115.25
 21
214
  0
LINE
  8
0
 10
-115.25
 20
214
 11
-115.24
 21
2.75226
  0
LINE
  8
0
 10
-115.24
 20
2.75226
 11
-115.158
 21
2.26353
  0
LINE
  8
0
 10
-115.158
 20
2.26353
 11
-114.997
 21
1.79491
  0
LINE
  8
0
 10
-114.997
 20
1.79491
 11
-114.761
 21
1.35915
  0
LINE
  8
0
 10
-114.761
 20
1.35915
 11
-114.457
 21
0.968155
  0
LINE
  8
0
 10
-114.457
 20
0.968155
 11
-114.093
 21
0.632568
  0
LINE
  8
0
 10
-114.093
 20
0.632568
 11
-113.678
 21
0.361572
  0
LINE
  8
0
 10
-113.678
 20
0.361572
 11
-113.224
 21
0.162537
  0
LINE
  8
0
 10
-113.224
 20
0.162537
 11
-112.744
 21
0.0409088
  0
LINE
  8
0
 10
-112.744
 20
0.0409088
 11
-112.25
 21
0
  0
LINE
  8
0
 10
-112.25
 20
0
 11
98.9977
 21
0.0102386
  0
LINE
  8
0
 10
97.2716
 20
211.845
 11
96.8661
 21
212.116
  0
LINE
  8
0
 10
96.8661
 20
212.116
 11
96.5951
 21
212.522
  0
LINE
  8
0
 10
96.5951
 20
212.522
 11
96.5
 21
213
  0
LINE
  8
0
 10
96.5
 20
213
 11
96.5951
 21
213.478
  0
LINE
  8
0
 10
96.5951
 20
213.478
 11
96.8661
 21
213.884
  0
LINE
  8
0
 10
96.8661
 20
213.884
 11
97.2716
 21
214.155
  0
LINE
  8
0
 10
97.2716
 20
214.155
 11
97.75
 21
214.25
  0
LINE
  8
0
 10
97.75
 20
214.25
 11
98.2283
 21
214.155
  0
LINE
  8
0
 10
98.2283
 20
214.155
 11
98.6339
 21
213.884
  0
LINE
  8
0
 10
98.6339
 20
213.884
 11
98.9048
 21
213.478
  0
LINE
  8
0
 10
98.9048
 20
213.478
 11
99
 21
213
  0
LINE
  8
0
 10
99
 20
213
 11
98.9048
 21
212.522
  0
LINE
  8
0
 10
98.9048
 20
212.522
 11
98.6339
 21
212.116
  0
LINE
  8
0
 10
98.6339
 20
212.116
 11
98.2283
 21
211.845
  0
LINE
  8
0
 10
98.2283
 20
211.845
 11
97.75
 21
211.75
  0
LINE
  8
0
 10
97.75
 20
211.75
 11
97.2716
 21
211.845
  0
LINE
  8
0
 10
-111.728
 20
211.845
 11
-112.134
 21
212.116
  0
LINE
  8
0
 10
-112.134
 20
212.116
 11
-112.405
 21
212.522
  0
LINE
  8
0
 10
-112.405
 20
212.522
 11
-112.5
 21
213
  0
LINE
  8
0
 10
-112.5
 20
213
 11
-112.405
 21
213.478
  0
LINE
  8
0
 10
-112.405
 20
213.478
 11
-112.134
 21
213.884
  0
LINE
  8
0
 10
-112.134
 20
213.884
 11
-111.728
 21
214.155
  0
LINE
  8
0
 10
-111.728
 20
214.155
 11
-111.25
 21
214.25
  0
LINE
  8
0
 10
-111.25
 20
214.25
 11
-110.772
 21
214.155
  0
LINE
  8
0
 10
-110.772
 20
214.155
 11
-110.366
 21
213.884
  0
LINE
  8
0
 10
-110.366
 20
213.884
 11
-110.095
 21
213.478
  0
LINE
  8
0
 10
-110.095
 20
213.478
 11
-110
 21
213
  0
LINE
  8
0
 10
-110
 20
213
 11
-110.095
 21
212.522
  0
LINE
  8
0
 10
-110.095
 20
212.522
 11
-110.366
 21
212.116
  0
LINE
  8
0
 10
-110.366
 20
212.116
 11
-110.772
 21
211.845
  0
LINE
  8
0
 10
-110.772
 20
211.845
 11
-111.25
 21
211.75
  0
LINE
  8
0
 10
-111.25
 20
211.75
 11
-111.728
 21
211.845
  0
LINE
  8
0
 10
-27.7771
 20
205.391
 11
-28.235
 21
205.571
  0
LINE
  8
0
 10
-28.235
 20
205.571
 11
-28.6195
 21
205.878
  0
LINE
  8
0
 10
-28.6195
 20
205.878
 11
-28.8966
 21
206.284
  0
LINE
  8
0
 10
-28.8966
 20
206.284
 11
-29.0416
 21
206.754
  0
LINE
  8
0
 10
-29.0416
 20
206.754
 11
-29.0416
 21
207.246
  0
LINE
  8
0
 10
-29.0416
 20
207.246
 11
-28.8966
 21
207.716
  0
LINE
  8
0
 10
-28.8966
 20
207.716
 11
-28.6195
 21
208.122
  0
LINE
  8
0
 10
-28.6195
 20
208.122
 11
-28.235
 21
208.429
  0
LINE
  8
0
 10
-28.235
 20
208.429
 11
-27.7771
 21
208.609
  0
LINE
  8
0
 10
-27.7771
 20
208.609
 11
-27.2867
 21
208.645
  0
LINE
  8
0
 10
-27.2867
 20
208.645
 11
-26.8072
 21
208.536
  0
LINE
  8
0
 10
-26.8072
 20
208.536
 11
-26.3812
 21
208.29
  0
LINE
  8
0
 10
-26.3812
 20
208.29
 11
-26.0467
 21
207.929
  0
LINE
  8
0
 10
-26.0467
 20
207.929
 11
-25.8333
 21
207.486
  0
LINE
  8
0
 10
-25.8333
 20
207.486
 11
-25.76
 21
207
  0
LINE
  8
0
 10
-25.76
 20
207
 11
-25.8333
 21
206.514
  0
LINE
  8
0
 10
-25.8333
 20
206.514
 11
-26.0467
 21
206.071
  0
LINE
  8
0
 10
-26.0467
 20
206.071
 11
-26.3812
 21
205.71
  0
LINE
  8
0
 10
-26.3812
 20
205.71
 11
-26.8072
 21
205.464
  0
LINE
  8
0
 10
-26.8072
 20
205.464
 11
-27.2867
 21
205.355
  0
LINE
  8
0
 10
-27.2867
 20
205.355
 11
-27.7771
 21
205.391
  0
LINE
  8
0
 10
13.5428
 20
205.391
 11
13.085
 21
205.571
  0
LINE
  8
0
 10
13.085
 20
205.571
 11
12.7005
 21
205.878
  0
LINE
  8
0
 10
12.7005
 20
205.878
 11
12.4234
 21
206.284
  0
LINE
  8
0
 10
12.4234
 20
206.284
 11
12.2784
 21
206.754
  0
LINE
  8
0
 10
12.2784
 20
206.754
 11
12.2784
 21
207.246
  0
LINE
  8
0
 10
12.2784
 20
207.246
 11
12.4234
 21
207.716
  0
LINE
  8
0
 10
12.4234
 20
207.716
 11
12.7005
 21
208.122
  0
LINE
  8
0
 10
12.7005
 20
208.122
 11
13.085
 21
208.429
  0
LINE
  8
0
 10
13.085
 20
208.429
 11
13.5428
 21
208.609
  0
LINE
  8
0
 10
13.5428
 20
208.609
 11
14.0333
 21
208.645
  0
LINE
  8
0
 10
14.0333
 20
208.645
 11
14.5128
 21
208.536
  0
LINE
  8
0
 10
14.5128
 20
208.536
 11
14.9388
 21
208.29
  0
LINE
  8
0
 10
14.9388
 20
208.29
 11
15.2733
 21
207.929
  0
LINE
  8
0
 10
15.2733
 20
207.929
 11
15.4867
 21
207.486
  0
LINE
  8
0
 10
15.4867
 20
207.486
 11
15.56
 21
207
  0
LINE
  8
0
 10
15.56
 20
207
 11
15.4867
 21
206.514
  0
LINE
  8
0
 10
15.4867
 20
206.514
 11
15.2733
 21
206.071
  0
LINE
  8
0
 10
15.2733
 20
206.071
 11
14.9388
 21
205.71
  0
LINE
  8
0
 10
14.9388
 20
205.71
 11
14.5128
 21
205.464
  0
LINE
  8
0
 10
14.5128
 20
205.464
 11
14.0333
 21
205.355
  0
LINE
  8
0
 10
14.0333
 20
205.355
 11
13.5428
 21
205.391
  0
LINE
  8
0
 10
-82.1528
 20
196.464
 11
-82.5788
 21
196.71
  0
LINE
  8
0
 10
-82.5788
 20
196.71
 11
-82.9133
 21
197.071
  0
LINE
  8
0
 10
-82.9133
 20
197.071
 11
-83.1267
 21
197.514
  0
LINE
  8
0
 10
-83.1267
 20
197.514
 11
-83.2
 21
198
  0
LINE
  8
0
 10
-83.2
 20
198
 11
-83.1267
 21
198.486
  0
LINE
  8
0
 10
-83.1267
 20
198.486
 11
-82.9133
 21
198.929
  0
LINE
  8
0
 10
-82.9133
 20
198.929
 11
-82.5788
 21
199.29
  0
LINE
  8
0
 10
-82.5788
 20
199.29
 11
-82.1528
 21
199.536
  0
LINE
  8
0
 10
-82.1528
 20
199.536
 11
-81.6733
 21
199.645
  0
LINE
  8
0
 10
-81.6733
 20
199.645
 11
-81.1828
 21
199.609
  0
LINE
  8
0
 10
-81.1828
 20
199.609
 11
-80.725
 21
199.429
  0
LINE
  8
0
 10
-80.725
 20
199.429
 11
-80.3405
 21
199.122
  0
LINE
  8
0
 10
-80.3405
 20
199.122
 11
-80.0634
 21
198.716
  0
LINE
  8
0
 10
-80.0634
 20
198.716
 11
-79.9184
 21
198.246
  0
LINE
  8
0
 10
-79.9184
 20
198.246
 11
-79.9184
 21
197.754
  0
LINE
  8
0
 10
-79.9184
 20
197.754
 11
-80.0634
 21
197.284
  0
LINE
  8
0
 10
-80.0634
 20
197.284
 11
-80.3405
 21
196.878
  0
LINE
  8
0
 10
-80.3405
 20
196.878
 11
-80.725
 21
196.571
  0
LINE
  8
0
 10
-80.725
 20
196.571
 11
-81.1828
 21
196.391
  0
LINE
  8
0
 10
-81.1828
 20
196.391
 11
-81.6733
 21
196.355
  0
LINE
  8
0
 10
-81.6733
 20
196.355
 11
-82.1528
 21
196.464
  0
LINE
  8
0
 10
-109.553
 20
176.464
 11
-109.979
 21
176.71
  0
LINE
  8
0
 10
-109.979
 20
176.71
 11
-110.313
 21
177.071
  0
LINE
  8
0
 10
-110.313
 20
177.071
 11
-110.527
 21
177.514
  0
LINE
  8
0
 10
-110.527
 20
177.514
 11
-110.6
 21
178
  0
LINE
  8
0
 10
-110.6
 20
178
 11
-110.527
 21
178.486
  0
LINE
  8
0
 10
-110.527
 20
178.486
 11
-110.313
 21
178.929
  0
LINE
  8
0
 10
-110.313
 20
178.929
 11
-109.979
 21
179.29
  0
LINE
  8
0
 10
-109.979
 20
179.29
 11
-109.553
 21
179.536
  0
LINE
  8
0
 10
-109.553
 20
179.536
 11
-109.073
 21
179.645
  0
LINE
  8
0
 10
-109.073
 20
179.645
 11
-108.583
 21
179.609
  0
LINE
  8
0
 10
-108.583
 20
179.609
 11
-108.125
 21
179.429
  0
LINE
  8
0
 10
-108.125
 20
179.429
 11
-107.74
 21
179.122
  0
LINE
  8
0
 10
-107.74
 20
179.122
 11
-107.463
 21
178.716
  0
LINE
  8
0
 10
-107.463
 20
178.716
 11
-107.318
 21
178.246
  0
LINE
  8
0
 10
-107.318
 20
178.246
 11
-107.318
 21
177.754
  0
LINE
  8
0
 10
-107.318
 20
177.754
 11
-107.463
 21
177.284
  0
LINE
  8
0
 10
-107.463
 20
177.284
 11
-107.74
 21
176.878
  0
LINE
  8
0
 10
-107.74
 20
176.878
 11
-108.125
 21
176.571
  0
LINE
  8
0
 10
-108.125
 20
176.571
 11
-108.583
 21
176.391
  0
LINE
  8
0
 10
-108.583
 20
176.391
 11
-109.073
 21
176.355
  0
LINE
  8
0
 10
-109.073
 20
176.355
 11
-109.553
 21
176.464
  0
LINE
  8
0
 10
-38.6272
 20
167.716
 11
-39.085
 21
167.896
  0
LINE
  8
0
 10
-39.085
 20
167.896
 11
-39.4695
 21
168.202
  0
LINE
  8
0
 10
-39.4695
 20
168.202
 11
-39.7466
 21
168.609
  0
LINE
  8
0
 10
-39.7466
 20
168.609
 11
-39.8916
 21
169.079
  0
LINE
  8
0
 10
-39.8916
 20
169.079
 11
-39.8916
 21
169.57
  0
LINE
  8
0
 10
-39.8916
 20
169.57
 11
-39.7466
 21
170.04
  0
LINE
  8
0
 10
-39.7466
 20
170.04
 11
-39.4695
 21
170.447
  0
LINE
  8
0
 10
-39.4695
 20
170.447
 11
-39.085
 21
170.754
  0
LINE
  8
0
 10
-39.085
 20
170.754
 11
-38.6272
 21
170.933
  0
LINE
  8
0
 10
-38.6272
 20
170.933
 11
-38.1367
 21
170.97
  0
LINE
  8
0
 10
-38.1367
 20
170.97
 11
-37.6572
 21
170.861
  0
LINE
  8
0
 10
-37.6572
 20
170.861
 11
-37.2312
 21
170.615
  0
LINE
  8
0
 10
-37.2312
 20
170.615
 11
-36.8967
 21
170.254
  0
LINE
  8
0
 10
-36.8967
 20
170.254
 11
-36.6833
 21
169.811
  0
LINE
  8
0
 10
-36.6833
 20
169.811
 11
-36.61
 21
169.325
  0
LINE
  8
0
 10
-36.61
 20
169.325
 11
-36.6833
 21
168.838
  0
LINE
  8
0
 10
-36.6833
 20
168.838
 11
-36.8967
 21
168.395
  0
LINE
  8
0
 10
-36.8967
 20
168.395
 11
-37.2312
 21
168.035
  0
LINE
  8
0
 10
-37.2312
 20
168.035
 11
-37.6572
 21
167.789
  0
LINE
  8
0
 10
-37.6572
 20
167.789
 11
-38.1367
 21
167.679
  0
LINE
  8
0
 10
-38.1367
 20
167.679
 11
-38.6272
 21
167.716
  0
LINE
  8
0
 10
-38.6272
 20
153.067
 11
-39.085
 21
153.246
  0
LINE
  8
0
 10
-39.085
 20
153.246
 11
-39.4695
 21
153.553
  0
LINE
  8
0
 10
-39.4695
 20
153.553
 11
-39.7466
 21
153.96
  0
LINE
  8
0
 10
-39.7466
 20
153.96
 11
-39.8916
 21
154.429
  0
LINE
  8
0
 10
-39.8916
 20
154.429
 11
-39.8916
 21
154.921
  0
LINE
  8
0
 10
-39.8916
 20
154.921
 11
-39.7466
 21
155.391
  0
LINE
  8
0
 10
-39.7466
 20
155.391
 11
-39.4695
 21
155.798
  0
LINE
  8
0
 10
-39.4695
 20
155.798
 11
-39.085
 21
156.104
  0
LINE
  8
0
 10
-39.085
 20
156.104
 11
-38.6272
 21
156.284
  0
LINE
  8
0
 10
-38.6272
 20
156.284
 11
-38.1367
 21
156.321
  0
LINE
  8
0
 10
-38.1367
 20
156.321
 11
-37.6572
 21
156.211
  0
LINE
  8
0
 10
-37.6572
 20
156.211
 11
-37.2312
 21
155.965
  0
LINE
  8
0
 10
-37.2312
 20
155.965
 11
-36.8967
 21
155.605
  0
LINE
  8
0
 10
-36.8967
 20
155.605
 11
-36.6833
 21
155.162
  0
LINE
  8
0
 10
-36.6833
 20
155.162
 11
-36.61
 21
154.675
  0
LINE
  8
0
 10
-36.61
 20
154.675
 11
-36.6833
 21
154.189
  0
LINE
  8
0
 10
-36.6833
 20
154.189
 11
-36.8967
 21
153.746
  0
LINE
  8
0
 10
-36.8967
 20
153.746
 11
-37.2312
 21
153.385
  0
LINE
  8
0
 10
-37.2312
 20
153.385
 11
-37.6572
 21
153.139
  0
LINE
  8
0
 10
-37.6572
 20
153.139
 11
-38.1367
 21
153.03
  0
LINE
  8
0
 10
-38.1367
 20
153.03
 11
-38.6272
 21
153.067
  0
LINE
  8
0
 10
94.8472
 20
116.964
 11
94.4212
 21
117.21
  0
LINE
  8
0
 10
94.4212
 20
117.21
 11
94.0867
 21
117.571
  0
LINE
  8
0
 10
94.0867
 20
117.571
 11
93.8733
 21
118.014
  0
LINE
  8
0
 10
93.8733
 20
118.014
 11
93.8
 21
118.5
  0
LINE
  8
0
 10
93.8
 20
118.5
 11
93.8733
 21
118.986
  0
LINE
  8
0
 10
93.8733
 20
118.986
 11
94.0867
 21
119.429
  0
LINE
  8
0
 10
94.0867
 20
119.429
 11
94.4212
 21
119.79
  0
LINE
  8
0
 10
94.4212
 20
119.79
 11
94.8472
 21
120.036
  0
LINE
  8
0
 10
94.8472
 20
120.036
 11
95.3267
 21
120.145
  0
LINE
  8
0
 10
95.3267
 20
120.145
 11
95.8172
 21
120.109
  0
LINE
  8
0
 10
95.8172
 20
120.109
 11
96.275
 21
119.929
  0
LINE
  8
0
 10
96.275
 20
119.929
 11
96.6595
 21
119.622
  0
LINE
  8
0
 10
96.6595
 20
119.622
 11
96.9366
 21
119.216
  0
LINE
  8
0
 10
96.9366
 20
119.216
 11
97.0816
 21
118.746
  0
LINE
  8
0
 10
97.0816
 20
118.746
 11
97.0816
 21
118.254
  0
LINE
  8
0
 10
97.0816
 20
118.254
 11
96.9366
 21
117.784
  0
LINE
  8
0
 10
96.9366
 20
117.784
 11
96.6595
 21
117.378
  0
LINE
  8
0
 10
96.6595
 20
117.378
 11
96.275
 21
117.071
  0
LINE
  8
0
 10
96.275
 20
117.071
 11
95.8172
 21
116.891
  0
LINE
  8
0
 10
95.8172
 20
116.891
 11
95.3267
 21
116.855
  0
LINE
  8
0
 10
95.3267
 20
116.855
 11
94.8472
 21
116.964
  0
LINE
  8
0
 10
67.4472
 20
96.9641
 11
67.0212
 21
97.21
  0
LINE
  8
0
 10
67.0212
 20
97.21
 11
66.6867
 21
97.5705
  0
LINE
  8
0
 10
66.6867
 20
97.5705
 11
66.4733
 21
98.0136
  0
LINE
  8
0
 10
66.4733
 20
98.0136
 11
66.4
 21
98.5
  0
LINE
  8
0
 10
66.4
 20
98.5
 11
66.4733
 21
98.9863
  0
LINE
  8
0
 10
66.4733
 20
98.9863
 11
66.6867
 21
99.4295
  0
LINE
  8
0
 10
66.6867
 20
99.4295
 11
67.0212
 21
99.79
  0
LINE
  8
0
 10
67.0212
 20
99.79
 11
67.4472
 21
100.036
  0
LINE
  8
0
 10
67.4472
 20
100.036
 11
67.9267
 21
100.145
  0
LINE
  8
0
 10
67.9267
 20
100.145
 11
68.4171
 21
100.109
  0
LINE
  8
0
 10
68.4171
 20
100.109
 11
68.875
 21
99.9289
  0
LINE
  8
0
 10
68.875
 20
99.9289
 11
69.2595
 21
99.6223
  0
LINE
  8
0
 10
69.2595
 20
99.6223
 11
69.5366
 21
99.2159
  0
LINE
  8
0
 10
69.5366
 20
99.2159
 11
69.6816
 21
98.7459
  0
LINE
  8
0
 10
69.6816
 20
98.7459
 11
69.6816
 21
98.2541
  0
LINE
  8
0
 10
69.6816
 20
98.2541
 11
69.5366
 21
97.7841
  0
LINE
  8
0
 10
69.5366
 20
97.7841
 11
69.2595
 21
97.3777
  0
LINE
  8
0
 10
69.2595
 20
97.3777
 11
68.875
 21
97.071
  0
LINE
  8
0
 10
68.875
 20
97.071
 11
68.4171
 21
96.8914
  0
LINE
  8
0
 10
68.4171
 20
96.8914
 11
67.9267
 21
96.8546
  0
LINE
  8
0
 10
67.9267
 20
96.8546
 11
67.4472
 21
96.9641
  0
LINE
  8
0
 10
-38.8628
 20
67.9386
 11
-39.2888
 21
68.1846
  0
LINE
  8
0
 10
-39.2888
 20
68.1846
 11
-39.6233
 21
68.5451
  0
LINE
  8
0
 10
-39.6233
 20
68.5451
 11
-39.8367
 21
68.9882
  0
LINE
  8
0
 10
-39.8367
 20
68.9882
 11
-39.91
 21
69.4746
  0
LINE
  8
0
 10
-39.91
 20
69.4746
 11
-39.8367
 21
69.9609
  0
LINE
  8
0
 10
-39.8367
 20
69.9609
 11
-39.6233
 21
70.4041
  0
LINE
  8
0
 10
-39.6233
 20
70.4041
 11
-39.2888
 21
70.7646
  0
LINE
  8
0
 10
-39.2888
 20
70.7646
 11
-38.8628
 21
71.0105
  0
LINE
  8
0
 10
-38.8628
 20
71.0105
 11
-38.3833
 21
71.12
  0
LINE
  8
0
 10
-38.3833
 20
71.12
 11
-37.8928
 21
71.0832
  0
LINE
  8
0
 10
-37.8928
 20
71.0832
 11
-37.435
 21
70.9035
  0
LINE
  8
0
 10
-37.435
 20
70.9035
 11
-37.0505
 21
70.5969
  0
LINE
  8
0
 10
-37.0505
 20
70.5969
 11
-36.7734
 21
70.1905
  0
LINE
  8
0
 10
-36.7734
 20
70.1905
 11
-36.6284
 21
69.7205
  0
LINE
  8
0
 10
-36.6284
 20
69.7205
 11
-36.6284
 21
69.2287
  0
LINE
  8
0
 10
-36.6284
 20
69.2287
 11
-36.7734
 21
68.7587
  0
LINE
  8
0
 10
-36.7734
 20
68.7587
 11
-37.0505
 21
68.3523
  0
LINE
  8
0
 10
-37.0505
 20
68.3523
 11
-37.435
 21
68.0456
  0
LINE
  8
0
 10
-37.435
 20
68.0456
 11
-37.8928
 21
67.8659
  0
LINE
  8
0
 10
-37.8928
 20
67.8659
 11
-38.3833
 21
67.8292
  0
LINE
  8
0
 10
-38.3833
 20
67.8292
 11
-38.8628
 21
67.9386
  0
LINE
  8
0
 10
-38.8628
 20
53.2895
 11
-39.2888
 21
53.5354
  0
LINE
  8
0
 10
-39.2888
 20
53.5354
 11
-39.6233
 21
53.8959
  0
LINE
  8
0
 10
-39.6233
 20
53.8959
 11
-39.8367
 21
54.3391
  0
LINE
  8
0
 10
-39.8367
 20
54.3391
 11
-39.91
 21
54.8254
  0
LINE
  8
0
 10
-39.91
 20
54.8254
 11
-39.8367
 21
55.3118
  0
LINE
  8
0
 10
-39.8367
 20
55.3118
 11
-39.6233
 21
55.7549
  0
LINE
  8
0
 10
-39.6233
 20
55.7549
 11
-39.2888
 21
56.1154
  0
LINE
  8
0
 10
-39.2888
 20
56.1154
 11
-38.8628
 21
56.3614
  0
LINE
  8
0
 10
-38.8628
 20
56.3614
 11
-38.3833
 21
56.4708
  0
LINE
  8
0
 10
-38.3833
 20
56.4708
 11
-37.8928
 21
56.434
  0
LINE
  8
0
 10
-37.8928
 20
56.434
 11
-37.435
 21
56.2543
  0
LINE
  8
0
 10
-37.435
 20
56.2543
 11
-37.0505
 21
55.9477
  0
LINE
  8
0
 10
-37.0505
 20
55.9477
 11
-36.7734
 21
55.5413
  0
LINE
  8
0
 10
-36.7734
 20
55.5413
 11
-36.6284
 21
55.0713
  0
LINE
  8
0
 10
-36.6284
 20
55.0713
 11
-36.6284
 21
54.5795
  0
LINE
  8
0
 10
-36.6284
 20
54.5795
 11
-36.7734
 21
54.1095
  0
LINE
  8
0
 10
-36.7734
 20
54.1095
 11
-37.0505
 21
53.7031
  0
LINE
  8
0
 10
-37.0505
 20
53.7031
 11
-37.435
 21
53.3965
  0
LINE
  8
0
 10
-37.435
 20
53.3965
 11
-37.8928
 21
53.2168
  0
LINE
  8
0
 10
-37.8928
 20
53.2168
 11
-38.3833
 21
53.18
  0
LINE
  8
0
 10
-38.3833
 20
53.18
 11
-38.8628
 21
53.2895
  0
LINE
  8
0
 10
-82.1528
 20
37.4641
 11
-82.5788
 21
37.71
  0
LINE
  8
0
 10
-82.5788
 20
37.71
 11
-82.9133
 21
38.0705
  0
LINE
  8
0
 10
-82.9133
 20
38.0705
 11
-83.1267
 21
38.5136
  0
LINE
  8
0
 10
-83.1267
 20
38.5136
 11
-83.2
 21
39
  0
LINE
  8
0
 10
-83.2
 20
39
 11
-83.1267
 21
39.4863
  0
LINE
  8
0
 10
-83.1267
 20
39.4863
 11
-82.9133
 21
39.9295
  0
LINE
  8
0
 10
-82.9133
 20
39.9295
 11
-82.5788
 21
40.29
  0
LINE
  8
0
 10
-82.5788
 20
40.29
 11
-82.1528
 21
40.5359
  0
LINE
  8
0
 10
-82.1528
 20
40.5359
 11
-81.6733
 21
40.6454
  0
LINE
  8
0
 10
-81.6733
 20
40.6454
 11
-81.1828
 21
40.6086
  0
LINE
  8
0
 10
-81.1828
 20
40.6086
 11
-80.725
 21
40.4289
  0
LINE
  8
0
 10
-80.725
 20
40.4289
 11
-80.3405
 21
40.1223
  0
LINE
  8
0
 10
-80.3405
 20
40.1223
 11
-80.0634
 21
39.7159
  0
LINE
  8
0
 10
-80.0634
 20
39.7159
 11
-79.9184
 21
39.2459
  0
LINE
  8
0
 10
-79.9184
 20
39.2459
 11
-79.9184
 21
38.7541
  0
LINE
  8
0
 10
-79.9184
 20
38.7541
 11
-80.0634
 21
38.2841
  0
LINE
  8
0
 10
-80.0634
 20
38.2841
 11
-80.3405
 21
37.8777
  0
LINE
  8
0
 10
-80.3405
 20
37.8777
 11
-80.725
 21
37.571
  0
LINE
  8
0
 10
-80.725
 20
37.571
 11
-81.1828
 21
37.3914
  0
LINE
  8
0
 10
-81.1828
 20
37.3914
 11
-81.6733
 21
37.3546
  0
LINE
  8
0
 10
-81.6733
 20
37.3546
 11
-82.1528
 21
37.4641
  0
LINE
  8
0
 10
-109.553
 20
17.4641
 11
-109.979
 21
17.71
  0
LINE
  8
0
 10
-109.979
 20
17.71
 11
-110.313
 21
18.0705
  0
LINE
  8
0
 10
-110.313
 20
18.0705
 11
-110.527
 21
18.5136
  0
LINE
  8
0
 10
-110.527
 20
18.5136
 11
-110.6
 21
19
  0
LINE
  8
0
 10
-110.6
 20
19
 11
-110.527
 21
19.4863
  0
LINE
  8
0
 10
-110.527
 20
19.4863
 11
-110.313
 21
19.9295
  0
LINE
  8
0
 10
-110.313
 20
19.9295
 11
-109.979
 21
20.29
  0
LINE
  8
0
 10
-109.979
 20
20.29
 11
-109.553
 21
20.5359
  0
LINE
  8
0
 10
-109.553
 20
20.5359
 11
-109.073
 21
20.6454
  0
LINE
  8
0
 10
-109.073
 20
20.6454
 11
-108.583
 21
20.6086
  0
LINE
  8
0
 10
-108.583
 20
20.6086
 11
-108.125
 21
20.4289
  0
LINE
  8
0
 10
-108.125
 20
20.4289
 11
-107.74
 21
20.1223
  0
LINE
  8
0
 10
-107.74
 20
20.1223
 11
-107.463
 21
19.7159
  0
LINE
  8
0
 10
-107.463
 20
19.7159
 11
-107.318
 21
19.2459
  0
LINE
  8
0
 10
-107.318
 20
19.2459
 11
-107.318
 21
18.7541
  0
LINE
  8
0
 10
-107.318
 20
18.7541
 11
-107.463
 21
18.2841
  0
LINE
  8
0
 10
-107.463
 20
18.2841
 11
-107.74
 21
17.8777
  0
LINE
  8
0
 10
-107.74
 20
17.8777
 11
-108.125
 21
17.571
  0
LINE
  8
0
 10
-108.125
 20
17.571
 11
-108.583
 21
17.3914
  0
LINE
  8
0
 10
-108.583
 20
17.3914
 11
-109.073
 21
17.3546
  0
LINE
  8
0
 10
-109.073
 20
17.3546
 11
-109.553
 21
17.4641
  0
LINE
  8
0
 10
-111.728
 20
2.84514
 11
-112.134
 21
3.1161
  0
LINE
  8
0
 10
-112.134
 20
3.1161
 11
-112.405
 21
3.52164
  0
LINE
  8
0
 10
-112.405
 20
3.52164
 11
-112.5
 21
4
  0
LINE
  8
0
 10
-112.5
 20
4
 11
-112.405
 21
4.47835
  0
LINE
  8
0
 10
-112.405
 20
4.47835
 11
-112.134
 21
4.88388
  0
LINE
  8
0
 10
-112.134
 20
4.88388
 11
-111.728
 21
5.15485
  0
LINE
  8
0
 10
-111.728
 20
5.15485
 11
-111.25
 21
5.25
  0
LINE
  8
0
 10
-111.25
 20
5.25
 11
-110.772
 21
5.15485
  0
LINE
  8
0
 10
-110.772
 20
5.15485
 11
-110.366
 21
4.88388
  0
LINE
  8
0
 10
-110.366
 20
4.88388
 11
-110.095
 21
4.47835
  0
LINE
  8
0
 10
-110.095
 20
4.47835
 11
-110
 21
4
  0
LINE
  8
0
 10
-110
 20
4
 11
-110.095
 21
3.52164
  0
LINE
  8
0
 10
-110.095
 20
3.52164
 11
-110.366
 21
3.1161
  0
LINE
  8
0
 10
-110.366
 20
3.1161
 11
-110.772
 21
2.84514
  0
LINE
  8
0
 10
-110.772
 20
2.84514
 11
-111.25
 21
2.75
  0
LINE
  8
0
 10
-111.25
 20
2.75
 11
-111.728
 21
2.84514
  0
LINE
  8
0
 10
97.2716
 20
2.84514
 11
96.8661
 21
3.1161
  0
LINE
  8
0
 10
96.8661
 20
3.1161
 11
96.5951
 21
3.52164
  0
LINE
  8
0
 10
96.5951
 20
3.52164
 11
96.5
 21
4
  0
LINE
  8
0
 10
96.5
 20
4
 11
96.5951
 21
4.47835
  0
LINE
  8
0
 10
96.5951
 20
4.47835
 11
96.8661
 21
4.88388
  0
LINE
  8
0
 10
96.8661
 20
4.88388
 11
97.2716
 21
5.15485
  0
LINE
  8
0
 10
97.2716
 20
5.15485
 11
97.75
 21
5.25
  0
LINE
  8
0
 10
97.75
 20
5.25
 11
98.2283
 21
5.15485
  0
LINE
  8
0
 10
98.2283
 20
5.15485
 11
98.6339
 21
4.88388
  0
LINE
  8
0
 10
98.6339
 20
4.88388
 11
98.9048
 21
4.47835
  0
LINE
  8
0
 10
98.9048
 20
4.47835
 11
99
 21
4
  0
LINE
  8
0
 10
99
 20
4
 11
98.9048
 21
3.52164
  0
LINE
  8
0
 10
98.9048
 20
3.52164
 11
98.6339
 21
3.1161
  0
LINE
  8
0
 10
98.6339
 20
3.1161
 11
98.2283
 21
2.84514
  0
LINE
  8
0
 10
98.2283
 20
2.84514
 11
97.75
 21
2.75
  0
LINE
  8
0
 10
97.75
 20
2.75
 11
97.2716
 21
2.84514
  0
ENDSEC
  0
SECTION
  2
OBJECTS
  0
DICTIONARY
  0
ENDSEC
  0
EOF
