  0
SECTION
  2
BLOCKS
  0
ENDSEC
  0
SECTION
  2
ENTITIES
  0
LINE
  8
0
 10
3.06866e-14
 20
-166.5
 11
359
 21
-166.5
  0
LINE
  8
0
 10
359
 20
-166.5
 11
361.179
 21
-166.405
  0
LINE
  8
0
 10
361.179
 20
-166.405
 11
363.341
 21
-166.12
  0
LINE
  8
0
 10
363.341
 20
-166.12
 11
365.47
 21
-165.648
  0
LINE
  8
0
 10
365.47
 20
-165.648
 11
367.551
 21
-164.992
  0
LINE
  8
0
 10
367.551
 20
-164.992
 11
369.565
 21
-164.158
  0
LINE
  8
0
 10
369.565
 20
-164.158
 11
371.5
 21
-163.151
  0
LINE
  8
0
 10
371.5
 20
-163.151
 11
373.339
 21
-161.979
  0
LINE
  8
0
 10
373.339
 20
-161.979
 11
375.07
 21
-160.651
  0
LINE
  8
0
 10
375.07
 20
-160.651
 11
376.678
 21
-159.178
  0
LINE
  8
0
 10
376.678
 20
-159.178
 11
378.151
 21
-157.57
  0
LINE
  8
0
 10
378.151
 20
-157.57
 11
379.479
 21
-155.839
  0
LINE
  8
0
 10
379.479
 20
-155.839
 11
380.651
 21
-154
  0
LINE
  8
0
 10
380.651
 20
-154
 11
381.658
 21
-152.065
  0
LINE
  8
0
 10
381.658
 20
-152.065
 11
382.492
 21
-150.051
  0
LINE
  8
0
 10
382.492
 20
-150.051
 11
383.148
 21
-147.97
  0
LINE
  8
0
 10
383.148
 20
-147.97
 11
383.62
 21
-145.841
  0
LINE
  8
0
 10
383.62
 20
-145.841
 11
383.905
 21
-143.679
  0
LINE
  8
0
 10
383.905
 20
-143.679
 11
384
 21
-141.5
  0
LINE
  8
0
 10
384
 20
-141.5
 11
384
 21
0
  0
LINE
  8
0
 10
384
 20
0
 11
329.565
 21
0
  0
LINE
  8
0
 10
329.565
 20
0
 11
329.565
 21
-2.24107
  0
LINE
  8
0
 10
329.565
 20
-2.24107
 11
329.45
 21
-2.70921
  0
LINE
  8
0
 10
329.45
 20
-2.70921
 11
329.226
 21
-3.13613
  0
LINE
  8
0
 10
329.226
 20
-3.13613
 11
328.906
 21
-3.49702
  0
LINE
  8
0
 10
328.906
 20
-3.49702
 11
328.509
 21
-3.77091
  0
LINE
  8
0
 10
328.509
 20
-3.77091
 11
328.059
 21
-3.94188
  0
LINE
  8
0
 10
328.059
 20
-3.94188
 11
327.58
 21
-4
  0
LINE
  8
0
 10
327.58
 20
-4
 11
327.101
 21
-3.94188
  0
LINE
  8
0
 10
327.101
 20
-3.94188
 11
326.651
 21
-3.77091
  0
LINE
  8
0
 10
326.651
 20
-3.77091
 11
326.254
 21
-3.49702
  0
LINE
  8
0
 10
326.254
 20
-3.49702
 11
325.934
 21
-3.13613
  0
LINE
  8
0
 10
325.934
 20
-3.13613
 11
325.71
 21
-2.70921
  0
LINE
  8
0
 10
325.71
 20
-2.70921
 11
325.595
 21
-2.24107
  0
LINE
  8
0
 10
325.595
 20
-2.24107
 11
325.595
 21
0
  0
LINE
  8
0
 10
325.595
 20
0
 11
318.67
 21
0
  0
LINE
  8
0
 10
318.67
 20
0
 11
318.67
 21
-3.24774
  0
LINE
  8
0
 10
318.67
 20
-3.24774
 11
318.588
 21
-3.73646
  0
LINE
  8
0
 10
318.588
 20
-3.73646
 11
318.427
 21
-4.20509
  0
LINE
  8
0
 10
318.427
 20
-4.20509
 11
318.192
 21
-4.64084
  0
LINE
  8
0
 10
318.192
 20
-4.64084
 11
317.887
 21
-5.03184
  0
LINE
  8
0
 10
317.887
 20
-5.03184
 11
317.523
 21
-5.36742
  0
LINE
  8
0
 10
317.523
 20
-5.36742
 11
317.108
 21
-5.63842
  0
LINE
  8
0
 10
317.108
 20
-5.63842
 11
316.654
 21
-5.83745
  0
LINE
  8
0
 10
316.654
 20
-5.83745
 11
316.174
 21
-5.95908
  0
LINE
  8
0
 10
316.174
 20
-5.95908
 11
315.68
 21
-6
  0
LINE
  8
0
 10
315.68
 20
-6
 11
315.186
 21
-5.95908
  0
LINE
  8
0
 10
315.186
 20
-5.95908
 11
314.706
 21
-5.83745
  0
LINE
  8
0
 10
314.706
 20
-5.83745
 11
314.252
 21
-5.63842
  0
LINE
  8
0
 10
314.252
 20
-5.63842
 11
313.837
 21
-5.36742
  0
LINE
  8
0
 10
313.837
 20
-5.36742
 11
313.473
 21
-5.03184
  0
LINE
  8
0
 10
313.473
 20
-5.03184
 11
313.169
 21
-4.64084
  0
LINE
  8
0
 10
313.169
 20
-4.64084
 11
312.933
 21
-4.20509
  0
LINE
  8
0
 10
312.933
 20
-4.20509
 11
312.772
 21
-3.73646
  0
LINE
  8
0
 10
312.772
 20
-3.73646
 11
312.69
 21
-3.24774
  0
LINE
  8
0
 10
312.69
 20
-3.24774
 11
312.69
 21
0
  0
LINE
  8
0
 10
312.69
 20
0
 11
3.06866e-14
 21
0
  0
LINE
  8
0
 10
3.06866e-14
 20
0
 11
3.06866e-14
 21
-14.4
  0
LINE
  8
0
 10
3.06866e-14
 20
-14.4
 11
2.5
 21
-14.4
  0
LINE
  8
0
 10
2.5
 20
-14.4
 11
2.74386
 21
-14.424
  0
LINE
  8
0
 10
2.74386
 20
-14.424
 11
2.98773
 21
-14.448
  0
LINE
  8
0
 10
2.98773
 20
-14.448
 11
3.45671
 21
-14.5903
  0
LINE
  8
0
 10
3.45671
 20
-14.5903
 11
3.88893
 21
-14.8213
  0
LINE
  8
0
 10
3.88893
 20
-14.8213
 11
4.26777
 21
-15.1322
  0
LINE
  8
0
 10
4.26777
 20
-15.1322
 11
4.57867
 21
-15.5111
  0
LINE
  8
0
 10
4.57867
 20
-15.5111
 11
4.8097
 21
-15.9433
  0
LINE
  8
0
 10
4.8097
 20
-15.9433
 11
4.95196
 21
-16.4123
  0
LINE
  8
0
 10
4.95196
 20
-16.4123
 11
4.97598
 21
-16.6561
  0
LINE
  8
0
 10
4.97598
 20
-16.6561
 11
5
 21
-16.9
  0
LINE
  8
0
 10
5
 20
-16.9
 11
4.97598
 21
-17.1439
  0
LINE
  8
0
 10
4.97598
 20
-17.1439
 11
4.95196
 21
-17.3877
  0
LINE
  8
0
 10
4.95196
 20
-17.3877
 11
4.8097
 21
-17.8567
  0
LINE
  8
0
 10
4.8097
 20
-17.8567
 11
4.57867
 21
-18.2889
  0
LINE
  8
0
 10
4.57867
 20
-18.2889
 11
4.26777
 21
-18.6678
  0
LINE
  8
0
 10
4.26777
 20
-18.6678
 11
3.88893
 21
-18.9787
  0
LINE
  8
0
 10
3.88893
 20
-18.9787
 11
3.45671
 21
-19.2097
  0
LINE
  8
0
 10
3.45671
 20
-19.2097
 11
2.98773
 21
-19.352
  0
LINE
  8
0
 10
2.98773
 20
-19.352
 11
2.74386
 21
-19.376
  0
LINE
  8
0
 10
2.74386
 20
-19.376
 11
2.5
 21
-19.4
  0
LINE
  8
0
 10
2.5
 20
-19.4
 11
3.06866e-14
 21
-19.4
  0
LINE
  8
0
 10
3.06866e-14
 20
-19.4
 11
3.06866e-14
 21
-24.4146
  0
LINE
  8
0
 10
3.06866e-14
 20
-24.4146
 11
2.24107
 21
-24.4146
  0
LINE
  8
0
 10
2.24107
 20
-24.4146
 11
2.70921
 21
-24.53
  0
LINE
  8
0
 10
2.70921
 20
-24.53
 11
3.13613
 21
-24.754
  0
LINE
  8
0
 10
3.13613
 20
-24.754
 11
3.49702
 21
-25.0738
  0
LINE
  8
0
 10
3.49702
 20
-25.0738
 11
3.77091
 21
-25.4706
  0
LINE
  8
0
 10
3.77091
 20
-25.4706
 11
3.94188
 21
-25.9214
  0
LINE
  8
0
 10
3.94188
 20
-25.9214
 11
3.97094
 21
-26.1607
  0
LINE
  8
0
 10
3.97094
 20
-26.1607
 11
4
 21
-26.4
  0
LINE
  8
0
 10
4
 20
-26.4
 11
3.97094
 21
-26.6393
  0
LINE
  8
0
 10
3.97094
 20
-26.6393
 11
3.94188
 21
-26.8786
  0
LINE
  8
0
 10
3.94188
 20
-26.8786
 11
3.77091
 21
-27.3294
  0
LINE
  8
0
 10
3.77091
 20
-27.3294
 11
3.49702
 21
-27.7262
  0
LINE
  8
0
 10
3.49702
 20
-27.7262
 11
3.13613
 21
-28.046
  0
LINE
  8
0
 10
3.13613
 20
-28.046
 11
2.70921
 21
-28.27
  0
LINE
  8
0
 10
2.70921
 20
-28.27
 11
2.24107
 21
-28.3854
  0
LINE
  8
0
 10
2.24107
 20
-28.3854
 11
3.06866e-14
 21
-28.3854
  0
LINE
  8
0
 10
3.06866e-14
 20
-28.3854
 11
3.06866e-14
 21
-87.9146
  0
LINE
  8
0
 10
3.06866e-14
 20
-87.9146
 11
2.24107
 21
-87.9146
  0
LINE
  8
0
 10
2.24107
 20
-87.9146
 11
2.70921
 21
-88.03
  0
LINE
  8
0
 10
2.70921
 20
-88.03
 11
3.13613
 21
-88.254
  0
LINE
  8
0
 10
3.13613
 20
-88.254
 11
3.49702
 21
-88.5738
  0
LINE
  8
0
 10
3.49702
 20
-88.5738
 11
3.77091
 21
-88.9706
  0
LINE
  8
0
 10
3.77091
 20
-88.9706
 11
3.94188
 21
-89.4214
  0
LINE
  8
0
 10
3.94188
 20
-89.4214
 11
3.97094
 21
-89.6607
  0
LINE
  8
0
 10
3.97094
 20
-89.6607
 11
4
 21
-89.9
  0
LINE
  8
0
 10
4
 20
-89.9
 11
3.97094
 21
-90.1393
  0
LINE
  8
0
 10
3.97094
 20
-90.1393
 11
3.94188
 21
-90.3786
  0
LINE
  8
0
 10
3.94188
 20
-90.3786
 11
3.77091
 21
-90.8294
  0
LINE
  8
0
 10
3.77091
 20
-90.8294
 11
3.49702
 21
-91.2262
  0
LINE
  8
0
 10
3.49702
 20
-91.2262
 11
3.13613
 21
-91.546
  0
LINE
  8
0
 10
3.13613
 20
-91.546
 11
2.70921
 21
-91.77
  0
LINE
  8
0
 10
2.70921
 20
-91.77
 11
2.24107
 21
-91.8854
  0
LINE
  8
0
 10
2.24107
 20
-91.8854
 11
3.06866e-14
 21
-91.8854
  0
LINE
  8
0
 10
3.06866e-14
 20
-91.8854
 11
3.06866e-14
 21
-99
  0
LINE
  8
0
 10
3.06866e-14
 20
-99
 11
3.5
 21
-99
  0
LINE
  8
0
 10
3.5
 20
-99
 11
3.74905
 21
-99.0178
  0
LINE
  8
0
 10
3.74905
 20
-99.0178
 11
3.9981
 21
-99.0356
  0
LINE
  8
0
 10
3.9981
 20
-99.0356
 11
4.48606
 21
-99.1418
  0
LINE
  8
0
 10
4.48606
 20
-99.1418
 11
4.95395
 21
-99.3163
  0
LINE
  8
0
 10
4.95395
 20
-99.3163
 11
5.39224
 21
-99.5556
  0
LINE
  8
0
 10
5.39224
 20
-99.5556
 11
5.79201
 21
-99.8549
  0
LINE
  8
0
 10
5.79201
 20
-99.8549
 11
6.14512
 21
-100.208
  0
LINE
  8
0
 10
6.14512
 20
-100.208
 11
6.44439
 21
-100.608
  0
LINE
  8
0
 10
6.44439
 20
-100.608
 11
6.68371
 21
-101.046
  0
LINE
  8
0
 10
6.68371
 20
-101.046
 11
6.85822
 21
-101.514
  0
LINE
  8
0
 10
6.85822
 20
-101.514
 11
6.96437
 21
-102.002
  0
LINE
  8
0
 10
6.96437
 20
-102.002
 11
6.98219
 21
-102.251
  0
LINE
  8
0
 10
6.98219
 20
-102.251
 11
7
 21
-102.5
  0
LINE
  8
0
 10
7
 20
-102.5
 11
6.98219
 21
-102.749
  0
LINE
  8
0
 10
6.98219
 20
-102.749
 11
6.96437
 21
-102.998
  0
LINE
  8
0
 10
6.96437
 20
-102.998
 11
6.85822
 21
-103.486
  0
LINE
  8
0
 10
6.85822
 20
-103.486
 11
6.68371
 21
-103.954
  0
LINE
  8
0
 10
6.68371
 20
-103.954
 11
6.44439
 21
-104.392
  0
LINE
  8
0
 10
6.44439
 20
-104.392
 11
6.14512
 21
-104.792
  0
LINE
  8
0
 10
6.14512
 20
-104.792
 11
5.79201
 21
-105.145
  0
LINE
  8
0
 10
5.79201
 20
-105.145
 11
5.39224
 21
-105.444
  0
LINE
  8
0
 10
5.39224
 20
-105.444
 11
4.95395
 21
-105.684
  0
LINE
  8
0
 10
4.95395
 20
-105.684
 11
4.48606
 21
-105.858
  0
LINE
  8
0
 10
4.48606
 20
-105.858
 11
3.9981
 21
-105.964
  0
LINE
  8
0
 10
3.9981
 20
-105.964
 11
3.74905
 21
-105.982
  0
LINE
  8
0
 10
3.74905
 20
-105.982
 11
3.5
 21
-106
  0
LINE
  8
0
 10
3.5
 20
-106
 11
3.06866e-14
 21
-106
  0
LINE
  8
0
 10
3.06866e-14
 20
-106
 11
3.06866e-14
 21
-166.5
  0
LINE
  8
0
 10
5
 20
-157.8
 11
5.02675
 21
-157.563
  0
LINE
  8
0
 10
5.02675
 20
-157.563
 11
5.05516
 21
-157.31
  0
LINE
  8
0
 10
5.05516
 20
-157.31
 11
5.21787
 21
-156.845
  0
LINE
  8
0
 10
5.21787
 20
-156.845
 11
5.47997
 21
-156.428
  0
LINE
  8
0
 10
5.47997
 20
-156.428
 11
5.82832
 21
-156.08
  0
LINE
  8
0
 10
5.82832
 20
-156.08
 11
6.24546
 21
-155.818
  0
LINE
  8
0
 10
6.24546
 20
-155.818
 11
6.71045
 21
-155.655
  0
LINE
  8
0
 10
6.71045
 20
-155.655
 11
7.2
 21
-155.6
  0
LINE
  8
0
 10
7.2
 20
-155.6
 11
7.68955
 21
-155.655
  0
LINE
  8
0
 10
7.68955
 20
-155.655
 11
8.15454
 21
-155.818
  0
LINE
  8
0
 10
8.15454
 20
-155.818
 11
8.57168
 21
-156.08
  0
LINE
  8
0
 10
8.57168
 20
-156.08
 11
8.92003
 21
-156.428
  0
LINE
  8
0
 10
8.92003
 20
-156.428
 11
9.18213
 21
-156.845
  0
LINE
  8
0
 10
9.18213
 20
-156.845
 11
9.34484
 21
-157.31
  0
LINE
  8
0
 10
9.34484
 20
-157.31
 11
9.4
 21
-157.8
  0
LINE
  8
0
 10
9.4
 20
-157.8
 11
9.34484
 21
-158.29
  0
LINE
  8
0
 10
9.34484
 20
-158.29
 11
9.18213
 21
-158.755
  0
LINE
  8
0
 10
9.18213
 20
-158.755
 11
8.92003
 21
-159.172
  0
LINE
  8
0
 10
8.92003
 20
-159.172
 11
8.57168
 21
-159.52
  0
LINE
  8
0
 10
8.57168
 20
-159.52
 11
8.15454
 21
-159.782
  0
LINE
  8
0
 10
8.15454
 20
-159.782
 11
7.68955
 21
-159.945
  0
LINE
  8
0
 10
7.68955
 20
-159.945
 11
7.2
 21
-160
  0
LINE
  8
0
 10
7.2
 20
-160
 11
6.71045
 21
-159.945
  0
LINE
  8
0
 10
6.71045
 20
-159.945
 11
6.24546
 21
-159.782
  0
LINE
  8
0
 10
6.24546
 20
-159.782
 11
5.82832
 21
-159.52
  0
LINE
  8
0
 10
5.82832
 20
-159.52
 11
5.47997
 21
-159.172
  0
LINE
  8
0
 10
5.47997
 20
-159.172
 11
5.21787
 21
-158.755
  0
LINE
  8
0
 10
5.21787
 20
-158.755
 11
5.05516
 21
-158.29
  0
LINE
  8
0
 10
5.05516
 20
-158.29
 11
5.02675
 21
-158.037
  0
LINE
  8
0
 10
5.02675
 20
-158.037
 11
5
 21
-157.8
  0
LINE
  8
0
 10
5
 20
-136.58
 11
5.02675
 21
-136.343
  0
LINE
  8
0
 10
5.02675
 20
-136.343
 11
5.05516
 21
-136.09
  0
LINE
  8
0
 10
5.05516
 20
-136.09
 11
5.21787
 21
-135.625
  0
LINE
  8
0
 10
5.21787
 20
-135.625
 11
5.47997
 21
-135.208
  0
LINE
  8
0
 10
5.47997
 20
-135.208
 11
5.82832
 21
-134.86
  0
LINE
  8
0
 10
5.82832
 20
-134.86
 11
6.24546
 21
-134.598
  0
LINE
  8
0
 10
6.24546
 20
-134.598
 11
6.71045
 21
-134.435
  0
LINE
  8
0
 10
6.71045
 20
-134.435
 11
7.2
 21
-134.38
  0
LINE
  8
0
 10
7.2
 20
-134.38
 11
7.68955
 21
-134.435
  0
LINE
  8
0
 10
7.68955
 20
-134.435
 11
8.15454
 21
-134.598
  0
LINE
  8
0
 10
8.15454
 20
-134.598
 11
8.57168
 21
-134.86
  0
LINE
  8
0
 10
8.57168
 20
-134.86
 11
8.92003
 21
-135.208
  0
LINE
  8
0
 10
8.92003
 20
-135.208
 11
9.18213
 21
-135.625
  0
LINE
  8
0
 10
9.18213
 20
-135.625
 11
9.34484
 21
-136.09
  0
LINE
  8
0
 10
9.34484
 20
-136.09
 11
9.4
 21
-136.58
  0
LINE
  8
0
 10
9.4
 20
-136.58
 11
9.34484
 21
-137.07
  0
LINE
  8
0
 10
9.34484
 20
-137.07
 11
9.18213
 21
-137.535
  0
LINE
  8
0
 10
9.18213
 20
-137.535
 11
8.92003
 21
-137.952
  0
LINE
  8
0
 10
8.92003
 20
-137.952
 11
8.57168
 21
-138.3
  0
LINE
  8
0
 10
8.57168
 20
-138.3
 11
8.15454
 21
-138.562
  0
LINE
  8
0
 10
8.15454
 20
-138.562
 11
7.68955
 21
-138.725
  0
LINE
  8
0
 10
7.68955
 20
-138.725
 11
7.2
 21
-138.78
  0
LINE
  8
0
 10
7.2
 20
-138.78
 11
6.71045
 21
-138.725
  0
LINE
  8
0
 10
6.71045
 20
-138.725
 11
6.24546
 21
-138.562
  0
LINE
  8
0
 10
6.24546
 20
-138.562
 11
5.82832
 21
-138.3
  0
LINE
  8
0
 10
5.82832
 20
-138.3
 11
5.47997
 21
-137.952
  0
LINE
  8
0
 10
5.47997
 20
-137.952
 11
5.21787
 21
-137.535
  0
LINE
  8
0
 10
5.21787
 20
-137.535
 11
5.05516
 21
-137.07
  0
LINE
  8
0
 10
5.05516
 20
-137.07
 11
5.02675
 21
-136.817
  0
LINE
  8
0
 10
5.02675
 20
-136.817
 11
5
 21
-136.58
  0
LINE
  8
0
 10
20.9
 20
-7.2
 11
20.9552
 21
-6.71045
  0
LINE
  8
0
 10
20.9552
 20
-6.71045
 11
21.1179
 21
-6.24546
  0
LINE
  8
0
 10
21.1179
 20
-6.24546
 11
21.38
 21
-5.82832
  0
LINE
  8
0
 10
21.38
 20
-5.82832
 11
21.7283
 21
-5.47997
  0
LINE
  8
0
 10
21.7283
 20
-5.47997
 11
22.1455
 21
-5.21787
  0
LINE
  8
0
 10
22.1455
 20
-5.21787
 11
22.6105
 21
-5.05516
  0
LINE
  8
0
 10
22.6105
 20
-5.05516
 11
22.8626
 21
-5.02675
  0
LINE
  8
0
 10
22.8626
 20
-5.02675
 11
23.1
 21
-5
  0
LINE
  8
0
 10
23.1
 20
-5
 11
23.3374
 21
-5.02675
  0
LINE
  8
0
 10
23.3374
 20
-5.02675
 11
23.5895
 21
-5.05516
  0
LINE
  8
0
 10
23.5895
 20
-5.05516
 11
24.0545
 21
-5.21787
  0
LINE
  8
0
 10
24.0545
 20
-5.21787
 11
24.4717
 21
-5.47997
  0
LINE
  8
0
 10
24.4717
 20
-5.47997
 11
24.82
 21
-5.82832
  0
LINE
  8
0
 10
24.82
 20
-5.82832
 11
25.0821
 21
-6.24546
  0
LINE
  8
0
 10
25.0821
 20
-6.24546
 11
25.2448
 21
-6.71045
  0
LINE
  8
0
 10
25.2448
 20
-6.71045
 11
25.3
 21
-7.2
  0
LINE
  8
0
 10
25.3
 20
-7.2
 11
25.2448
 21
-7.68955
  0
LINE
  8
0
 10
25.2448
 20
-7.68955
 11
25.0821
 21
-8.15454
  0
LINE
  8
0
 10
25.0821
 20
-8.15454
 11
24.82
 21
-8.57168
  0
LINE
  8
0
 10
24.82
 20
-8.57168
 11
24.4717
 21
-8.92003
  0
LINE
  8
0
 10
24.4717
 20
-8.92003
 11
24.0545
 21
-9.18213
  0
LINE
  8
0
 10
24.0545
 20
-9.18213
 11
23.5895
 21
-9.34484
  0
LINE
  8
0
 10
23.5895
 20
-9.34484
 11
23.1
 21
-9.4
  0
LINE
  8
0
 10
23.1
 20
-9.4
 11
22.6105
 21
-9.34484
  0
LINE
  8
0
 10
22.6105
 20
-9.34484
 11
22.1455
 21
-9.18213
  0
LINE
  8
0
 10
22.1455
 20
-9.18213
 11
21.7283
 21
-8.92003
  0
LINE
  8
0
 10
21.7283
 20
-8.92003
 11
21.38
 21
-8.57168
  0
LINE
  8
0
 10
21.38
 20
-8.57168
 11
21.1179
 21
-8.15454
  0
LINE
  8
0
 10
21.1179
 20
-8.15454
 11
20.9552
 21
-7.68955
  0
LINE
  8
0
 10
20.9552
 20
-7.68955
 11
20.9
 21
-7.2
  0
LINE
  8
0
 10
29.55
 20
-159.65
 11
29.6052
 21
-159.16
  0
LINE
  8
0
 10
29.6052
 20
-159.16
 11
29.7679
 21
-158.695
  0
LINE
  8
0
 10
29.7679
 20
-158.695
 11
30.03
 21
-158.278
  0
LINE
  8
0
 10
30.03
 20
-158.278
 11
30.3783
 21
-157.93
  0
LINE
  8
0
 10
30.3783
 20
-157.93
 11
30.7955
 21
-157.668
  0
LINE
  8
0
 10
30.7955
 20
-157.668
 11
31.2605
 21
-157.505
  0
LINE
  8
0
 10
31.2605
 20
-157.505
 11
31.75
 21
-157.45
  0
LINE
  8
0
 10
31.75
 20
-157.45
 11
32.2395
 21
-157.505
  0
LINE
  8
0
 10
32.2395
 20
-157.505
 11
32.7045
 21
-157.668
  0
LINE
  8
0
 10
32.7045
 20
-157.668
 11
33.1217
 21
-157.93
  0
LINE
  8
0
 10
33.1217
 20
-157.93
 11
33.47
 21
-158.278
  0
LINE
  8
0
 10
33.47
 20
-158.278
 11
33.7321
 21
-158.695
  0
LINE
  8
0
 10
33.7321
 20
-158.695
 11
33.8948
 21
-159.16
  0
LINE
  8
0
 10
33.8948
 20
-159.16
 11
33.95
 21
-159.65
  0
LINE
  8
0
 10
33.95
 20
-159.65
 11
33.8948
 21
-160.14
  0
LINE
  8
0
 10
33.8948
 20
-160.14
 11
33.7321
 21
-160.605
  0
LINE
  8
0
 10
33.7321
 20
-160.605
 11
33.47
 21
-161.022
  0
LINE
  8
0
 10
33.47
 20
-161.022
 11
33.1217
 21
-161.37
  0
LINE
  8
0
 10
33.1217
 20
-161.37
 11
32.7045
 21
-161.632
  0
LINE
  8
0
 10
32.7045
 20
-161.632
 11
32.2395
 21
-161.795
  0
LINE
  8
0
 10
32.2395
 20
-161.795
 11
31.75
 21
-161.85
  0
LINE
  8
0
 10
31.75
 20
-161.85
 11
31.2605
 21
-161.795
  0
LINE
  8
0
 10
31.2605
 20
-161.795
 11
30.7955
 21
-161.632
  0
LINE
  8
0
 10
30.7955
 20
-161.632
 11
30.3783
 21
-161.37
  0
LINE
  8
0
 10
30.3783
 20
-161.37
 11
30.03
 21
-161.022
  0
LINE
  8
0
 10
30.03
 20
-161.022
 11
29.7679
 21
-160.605
  0
LINE
  8
0
 10
29.7679
 20
-160.605
 11
29.6052
 21
-160.14
  0
LINE
  8
0
 10
29.6052
 20
-160.14
 11
29.55
 21
-159.65
  0
LINE
  8
0
 10
42.12
 20
-7.2
 11
42.1752
 21
-6.71045
  0
LINE
  8
0
 10
42.1752
 20
-6.71045
 11
42.3379
 21
-6.24546
  0
LINE
  8
0
 10
42.3379
 20
-6.24546
 11
42.6
 21
-5.82832
  0
LINE
  8
0
 10
42.6
 20
-5.82832
 11
42.9483
 21
-5.47997
  0
LINE
  8
0
 10
42.9483
 20
-5.47997
 11
43.3655
 21
-5.21787
  0
LINE
  8
0
 10
43.3655
 20
-5.21787
 11
43.8305
 21
-5.05516
  0
LINE
  8
0
 10
43.8305
 20
-5.05516
 11
44.0826
 21
-5.02675
  0
LINE
  8
0
 10
44.0826
 20
-5.02675
 11
44.32
 21
-5
  0
LINE
  8
0
 10
44.32
 20
-5
 11
44.5574
 21
-5.02675
  0
LINE
  8
0
 10
44.5574
 20
-5.02675
 11
44.8095
 21
-5.05516
  0
LINE
  8
0
 10
44.8095
 20
-5.05516
 11
45.2745
 21
-5.21787
  0
LINE
  8
0
 10
45.2745
 20
-5.21787
 11
45.6917
 21
-5.47997
  0
LINE
  8
0
 10
45.6917
 20
-5.47997
 11
46.04
 21
-5.82832
  0
LINE
  8
0
 10
46.04
 20
-5.82832
 11
46.3021
 21
-6.24546
  0
LINE
  8
0
 10
46.3021
 20
-6.24546
 11
46.4648
 21
-6.71045
  0
LINE
  8
0
 10
46.4648
 20
-6.71045
 11
46.52
 21
-7.2
  0
LINE
  8
0
 10
46.52
 20
-7.2
 11
46.4648
 21
-7.68955
  0
LINE
  8
0
 10
46.4648
 20
-7.68955
 11
46.3021
 21
-8.15454
  0
LINE
  8
0
 10
46.3021
 20
-8.15454
 11
46.04
 21
-8.57168
  0
LINE
  8
0
 10
46.04
 20
-8.57168
 11
45.6917
 21
-8.92003
  0
LINE
  8
0
 10
45.6917
 20
-8.92003
 11
45.2745
 21
-9.18213
  0
LINE
  8
0
 10
45.2745
 20
-9.18213
 11
44.8095
 21
-9.34484
  0
LINE
  8
0
 10
44.8095
 20
-9.34484
 11
44.32
 21
-9.4
  0
LINE
  8
0
 10
44.32
 20
-9.4
 11
43.8305
 21
-9.34484
  0
LINE
  8
0
 10
43.8305
 20
-9.34484
 11
43.3655
 21
-9.18213
  0
LINE
  8
0
 10
43.3655
 20
-9.18213
 11
42.9483
 21
-8.92003
  0
LINE
  8
0
 10
42.9483
 20
-8.92003
 11
42.6
 21
-8.57168
  0
LINE
  8
0
 10
42.6
 20
-8.57168
 11
42.3379
 21
-8.15454
  0
LINE
  8
0
 10
42.3379
 20
-8.15454
 11
42.1752
 21
-7.68955
  0
LINE
  8
0
 10
42.1752
 20
-7.68955
 11
42.12
 21
-7.2
  0
LINE
  8
0
 10
144.85
 20
-159.65
 11
144.905
 21
-159.16
  0
LINE
  8
0
 10
144.905
 20
-159.16
 11
145.068
 21
-158.695
  0
LINE
  8
0
 10
145.068
 20
-158.695
 11
145.33
 21
-158.278
  0
LINE
  8
0
 10
145.33
 20
-158.278
 11
145.678
 21
-157.93
  0
LINE
  8
0
 10
145.678
 20
-157.93
 11
146.095
 21
-157.668
  0
LINE
  8
0
 10
146.095
 20
-157.668
 11
146.56
 21
-157.505
  0
LINE
  8
0
 10
146.56
 20
-157.505
 11
147.05
 21
-157.45
  0
LINE
  8
0
 10
147.05
 20
-157.45
 11
147.54
 21
-157.505
  0
LINE
  8
0
 10
147.54
 20
-157.505
 11
148.005
 21
-157.668
  0
LINE
  8
0
 10
148.005
 20
-157.668
 11
148.422
 21
-157.93
  0
LINE
  8
0
 10
148.422
 20
-157.93
 11
148.77
 21
-158.278
  0
LINE
  8
0
 10
148.77
 20
-158.278
 11
149.032
 21
-158.695
  0
LINE
  8
0
 10
149.032
 20
-158.695
 11
149.195
 21
-159.16
  0
LINE
  8
0
 10
149.195
 20
-159.16
 11
149.25
 21
-159.65
  0
LINE
  8
0
 10
149.25
 20
-159.65
 11
149.195
 21
-160.14
  0
LINE
  8
0
 10
149.195
 20
-160.14
 11
149.032
 21
-160.605
  0
LINE
  8
0
 10
149.032
 20
-160.605
 11
148.77
 21
-161.022
  0
LINE
  8
0
 10
148.77
 20
-161.022
 11
148.422
 21
-161.37
  0
LINE
  8
0
 10
148.422
 20
-161.37
 11
148.005
 21
-161.632
  0
LINE
  8
0
 10
148.005
 20
-161.632
 11
147.54
 21
-161.795
  0
LINE
  8
0
 10
147.54
 20
-161.795
 11
147.05
 21
-161.85
  0
LINE
  8
0
 10
147.05
 20
-161.85
 11
146.56
 21
-161.795
  0
LINE
  8
0
 10
146.56
 20
-161.795
 11
146.095
 21
-161.632
  0
LINE
  8
0
 10
146.095
 20
-161.632
 11
145.678
 21
-161.37
  0
LINE
  8
0
 10
145.678
 20
-161.37
 11
145.33
 21
-161.022
  0
LINE
  8
0
 10
145.33
 20
-161.022
 11
145.068
 21
-160.605
  0
LINE
  8
0
 10
145.068
 20
-160.605
 11
144.905
 21
-160.14
  0
LINE
  8
0
 10
144.905
 20
-160.14
 11
144.85
 21
-159.65
  0
LINE
  8
0
 10
188.65
 20
-151.25
 11
188.734
 21
-150.771
  0
LINE
  8
0
 10
188.734
 20
-150.771
 11
188.978
 21
-150.35
  0
LINE
  8
0
 10
188.978
 20
-150.35
 11
189.35
 21
-150.038
  0
LINE
  8
0
 10
189.35
 20
-150.038
 11
189.807
 21
-149.871
  0
LINE
  8
0
 10
189.807
 20
-149.871
 11
190.293
 21
-149.871
  0
LINE
  8
0
 10
190.293
 20
-149.871
 11
190.75
 21
-150.038
  0
LINE
  8
0
 10
190.75
 20
-150.038
 11
191.122
 21
-150.35
  0
LINE
  8
0
 10
191.122
 20
-150.35
 11
191.366
 21
-150.771
  0
LINE
  8
0
 10
191.366
 20
-150.771
 11
191.45
 21
-151.25
  0
LINE
  8
0
 10
191.45
 20
-151.25
 11
191.366
 21
-151.729
  0
LINE
  8
0
 10
191.366
 20
-151.729
 11
191.122
 21
-152.15
  0
LINE
  8
0
 10
191.122
 20
-152.15
 11
190.75
 21
-152.462
  0
LINE
  8
0
 10
190.75
 20
-152.462
 11
190.293
 21
-152.629
  0
LINE
  8
0
 10
190.293
 20
-152.629
 11
189.807
 21
-152.629
  0
LINE
  8
0
 10
189.807
 20
-152.629
 11
189.35
 21
-152.462
  0
LINE
  8
0
 10
189.35
 20
-152.462
 11
188.978
 21
-152.15
  0
LINE
  8
0
 10
188.978
 20
-152.15
 11
188.734
 21
-151.729
  0
LINE
  8
0
 10
188.734
 20
-151.729
 11
188.65
 21
-151.25
  0
LINE
  8
0
 10
188.65
 20
-119.75
 11
188.734
 21
-119.271
  0
LINE
  8
0
 10
188.734
 20
-119.271
 11
188.978
 21
-118.85
  0
LINE
  8
0
 10
188.978
 20
-118.85
 11
189.35
 21
-118.538
  0
LINE
  8
0
 10
189.35
 20
-118.538
 11
189.807
 21
-118.371
  0
LINE
  8
0
 10
189.807
 20
-118.371
 11
190.293
 21
-118.371
  0
LINE
  8
0
 10
190.293
 20
-118.371
 11
190.75
 21
-118.538
  0
LINE
  8
0
 10
190.75
 20
-118.538
 11
191.122
 21
-118.85
  0
LINE
  8
0
 10
191.122
 20
-118.85
 11
191.366
 21
-119.271
  0
LINE
  8
0
 10
191.366
 20
-119.271
 11
191.45
 21
-119.75
  0
LINE
  8
0
 10
191.45
 20
-119.75
 11
191.366
 21
-120.229
  0
LINE
  8
0
 10
191.366
 20
-120.229
 11
191.122
 21
-120.65
  0
LINE
  8
0
 10
191.122
 20
-120.65
 11
190.75
 21
-120.962
  0
LINE
  8
0
 10
190.75
 20
-120.962
 11
190.293
 21
-121.129
  0
LINE
  8
0
 10
190.293
 20
-121.129
 11
189.807
 21
-121.129
  0
LINE
  8
0
 10
189.807
 20
-121.129
 11
189.35
 21
-120.962
  0
LINE
  8
0
 10
189.35
 20
-120.962
 11
188.978
 21
-120.65
  0
LINE
  8
0
 10
188.978
 20
-120.65
 11
188.734
 21
-120.229
  0
LINE
  8
0
 10
188.734
 20
-120.229
 11
188.65
 21
-119.75
  0
LINE
  8
0
 10
202.95
 20
-135.35
 11
203.034
 21
-134.871
  0
LINE
  8
0
 10
203.034
 20
-134.871
 11
203.278
 21
-134.45
  0
LINE
  8
0
 10
203.278
 20
-134.45
 11
203.65
 21
-134.138
  0
LINE
  8
0
 10
203.65
 20
-134.138
 11
204.107
 21
-133.971
  0
LINE
  8
0
 10
204.107
 20
-133.971
 11
204.593
 21
-133.971
  0
LINE
  8
0
 10
204.593
 20
-133.971
 11
205.05
 21
-134.138
  0
LINE
  8
0
 10
205.05
 20
-134.138
 11
205.422
 21
-134.45
  0
LINE
  8
0
 10
205.422
 20
-134.45
 11
205.666
 21
-134.871
  0
LINE
  8
0
 10
205.666
 20
-134.871
 11
205.75
 21
-135.35
  0
LINE
  8
0
 10
205.75
 20
-135.35
 11
205.666
 21
-135.829
  0
LINE
  8
0
 10
205.666
 20
-135.829
 11
205.422
 21
-136.25
  0
LINE
  8
0
 10
205.422
 20
-136.25
 11
205.05
 21
-136.562
  0
LINE
  8
0
 10
205.05
 20
-136.562
 11
204.593
 21
-136.729
  0
LINE
  8
0
 10
204.593
 20
-136.729
 11
204.107
 21
-136.729
  0
LINE
  8
0
 10
204.107
 20
-136.729
 11
203.65
 21
-136.562
  0
LINE
  8
0
 10
203.65
 20
-136.562
 11
203.278
 21
-136.25
  0
LINE
  8
0
 10
203.278
 20
-136.25
 11
203.034
 21
-135.829
  0
LINE
  8
0
 10
203.034
 20
-135.829
 11
202.95
 21
-135.35
  0
LINE
  8
0
 10
202.95
 20
-103.85
 11
203.034
 21
-103.371
  0
LINE
  8
0
 10
203.034
 20
-103.371
 11
203.278
 21
-102.95
  0
LINE
  8
0
 10
203.278
 20
-102.95
 11
203.65
 21
-102.638
  0
LINE
  8
0
 10
203.65
 20
-102.638
 11
204.107
 21
-102.471
  0
LINE
  8
0
 10
204.107
 20
-102.471
 11
204.593
 21
-102.471
  0
LINE
  8
0
 10
204.593
 20
-102.471
 11
205.05
 21
-102.638
  0
LINE
  8
0
 10
205.05
 20
-102.638
 11
205.422
 21
-102.95
  0
LINE
  8
0
 10
205.422
 20
-102.95
 11
205.666
 21
-103.371
  0
LINE
  8
0
 10
205.666
 20
-103.371
 11
205.75
 21
-103.85
  0
LINE
  8
0
 10
205.75
 20
-103.85
 11
205.666
 21
-104.329
  0
LINE
  8
0
 10
205.666
 20
-104.329
 11
205.422
 21
-104.75
  0
LINE
  8
0
 10
205.422
 20
-104.75
 11
205.05
 21
-105.062
  0
LINE
  8
0
 10
205.05
 20
-105.062
 11
204.593
 21
-105.229
  0
LINE
  8
0
 10
204.593
 20
-105.229
 11
204.107
 21
-105.229
  0
LINE
  8
0
 10
204.107
 20
-105.229
 11
203.65
 21
-105.062
  0
LINE
  8
0
 10
203.65
 20
-105.062
 11
203.278
 21
-104.75
  0
LINE
  8
0
 10
203.278
 20
-104.75
 11
203.034
 21
-104.329
  0
LINE
  8
0
 10
203.034
 20
-104.329
 11
202.95
 21
-103.85
  0
LINE
  8
0
 10
226.855
 20
-107.523
 11
226.891
 21
-107.033
  0
LINE
  8
0
 10
226.891
 20
-107.033
 11
227.071
 21
-106.575
  0
LINE
  8
0
 10
227.071
 20
-106.575
 11
227.378
 21
-106.19
  0
LINE
  8
0
 10
227.378
 20
-106.19
 11
227.784
 21
-105.913
  0
LINE
  8
0
 10
227.784
 20
-105.913
 11
228.254
 21
-105.768
  0
LINE
  8
0
 10
228.254
 20
-105.768
 11
228.746
 21
-105.768
  0
LINE
  8
0
 10
228.746
 20
-105.768
 11
229.216
 21
-105.913
  0
LINE
  8
0
 10
229.216
 20
-105.913
 11
229.622
 21
-106.19
  0
LINE
  8
0
 10
229.622
 20
-106.19
 11
229.929
 21
-106.575
  0
LINE
  8
0
 10
229.929
 20
-106.575
 11
230.109
 21
-107.033
  0
LINE
  8
0
 10
230.109
 20
-107.033
 11
230.145
 21
-107.523
  0
LINE
  8
0
 10
230.145
 20
-107.523
 11
230.036
 21
-108.003
  0
LINE
  8
0
 10
230.036
 20
-108.003
 11
229.79
 21
-108.429
  0
LINE
  8
0
 10
229.79
 20
-108.429
 11
229.429
 21
-108.763
  0
LINE
  8
0
 10
229.429
 20
-108.763
 11
228.986
 21
-108.977
  0
LINE
  8
0
 10
228.986
 20
-108.977
 11
228.5
 21
-109.05
  0
LINE
  8
0
 10
228.5
 20
-109.05
 11
228.014
 21
-108.977
  0
LINE
  8
0
 10
228.014
 20
-108.977
 11
227.571
 21
-108.763
  0
LINE
  8
0
 10
227.571
 20
-108.763
 11
227.21
 21
-108.429
  0
LINE
  8
0
 10
227.21
 20
-108.429
 11
226.964
 21
-108.003
  0
LINE
  8
0
 10
226.964
 20
-108.003
 11
226.855
 21
-107.523
  0
LINE
  8
0
 10
233.155
 20
-59.2233
 11
233.191
 21
-58.7328
  0
LINE
  8
0
 10
233.191
 20
-58.7328
 11
233.371
 21
-58.275
  0
LINE
  8
0
 10
233.371
 20
-58.275
 11
233.678
 21
-57.8905
  0
LINE
  8
0
 10
233.678
 20
-57.8905
 11
234.084
 21
-57.6134
  0
LINE
  8
0
 10
234.084
 20
-57.6134
 11
234.554
 21
-57.4684
  0
LINE
  8
0
 10
234.554
 20
-57.4684
 11
235.046
 21
-57.4684
  0
LINE
  8
0
 10
235.046
 20
-57.4684
 11
235.516
 21
-57.6134
  0
LINE
  8
0
 10
235.516
 20
-57.6134
 11
235.922
 21
-57.8905
  0
LINE
  8
0
 10
235.922
 20
-57.8905
 11
236.229
 21
-58.275
  0
LINE
  8
0
 10
236.229
 20
-58.275
 11
236.409
 21
-58.7328
  0
LINE
  8
0
 10
236.409
 20
-58.7328
 11
236.445
 21
-59.2233
  0
LINE
  8
0
 10
236.445
 20
-59.2233
 11
236.336
 21
-59.7028
  0
LINE
  8
0
 10
236.336
 20
-59.7028
 11
236.09
 21
-60.1288
  0
LINE
  8
0
 10
236.09
 20
-60.1288
 11
235.729
 21
-60.4633
  0
LINE
  8
0
 10
235.729
 20
-60.4633
 11
235.286
 21
-60.6767
  0
LINE
  8
0
 10
235.286
 20
-60.6767
 11
234.8
 21
-60.75
  0
LINE
  8
0
 10
234.8
 20
-60.75
 11
234.314
 21
-60.6767
  0
LINE
  8
0
 10
234.314
 20
-60.6767
 11
233.871
 21
-60.4633
  0
LINE
  8
0
 10
233.871
 20
-60.4633
 11
233.51
 21
-60.1288
  0
LINE
  8
0
 10
233.51
 20
-60.1288
 11
233.264
 21
-59.7028
  0
LINE
  8
0
 10
233.264
 20
-59.7028
 11
233.155
 21
-59.2233
  0
LINE
  8
0
 10
284.862
 20
-31.65
 11
284.917
 21
-31.1605
  0
LINE
  8
0
 10
284.917
 20
-31.1605
 11
285.079
 21
-30.6955
  0
LINE
  8
0
 10
285.079
 20
-30.6955
 11
285.342
 21
-30.2783
  0
LINE
  8
0
 10
285.342
 20
-30.2783
 11
285.69
 21
-29.93
  0
LINE
  8
0
 10
285.69
 20
-29.93
 11
286.107
 21
-29.6679
  0
LINE
  8
0
 10
286.107
 20
-29.6679
 11
286.572
 21
-29.5052
  0
LINE
  8
0
 10
286.572
 20
-29.5052
 11
287.062
 21
-29.45
  0
LINE
  8
0
 10
287.062
 20
-29.45
 11
287.551
 21
-29.5052
  0
LINE
  8
0
 10
287.551
 20
-29.5052
 11
288.016
 21
-29.6679
  0
LINE
  8
0
 10
288.016
 20
-29.6679
 11
288.433
 21
-29.93
  0
LINE
  8
0
 10
288.433
 20
-29.93
 11
288.782
 21
-30.2783
  0
LINE
  8
0
 10
288.782
 20
-30.2783
 11
289.044
 21
-30.6955
  0
LINE
  8
0
 10
289.044
 20
-30.6955
 11
289.206
 21
-31.1605
  0
LINE
  8
0
 10
289.206
 20
-31.1605
 11
289.262
 21
-31.65
  0
LINE
  8
0
 10
289.262
 20
-31.65
 11
289.206
 21
-32.1395
  0
LINE
  8
0
 10
289.206
 20
-32.1395
 11
289.044
 21
-32.6045
  0
LINE
  8
0
 10
289.044
 20
-32.6045
 11
288.782
 21
-33.0217
  0
LINE
  8
0
 10
288.782
 20
-33.0217
 11
288.433
 21
-33.37
  0
LINE
  8
0
 10
288.433
 20
-33.37
 11
288.016
 21
-33.6321
  0
LINE
  8
0
 10
288.016
 20
-33.6321
 11
287.551
 21
-33.7948
  0
LINE
  8
0
 10
287.551
 20
-33.7948
 11
287.062
 21
-33.85
  0
LINE
  8
0
 10
287.062
 20
-33.85
 11
286.572
 21
-33.7948
  0
LINE
  8
0
 10
286.572
 20
-33.7948
 11
286.107
 21
-33.6321
  0
LINE
  8
0
 10
286.107
 20
-33.6321
 11
285.69
 21
-33.37
  0
LINE
  8
0
 10
285.69
 20
-33.37
 11
285.342
 21
-33.0217
  0
LINE
  8
0
 10
285.342
 20
-33.0217
 11
285.079
 21
-32.6045
  0
LINE
  8
0
 10
285.079
 20
-32.6045
 11
284.917
 21
-32.1395
  0
LINE
  8
0
 10
284.917
 20
-32.1395
 11
284.862
 21
-31.65
  0
LINE
  8
0
 10
308.055
 20
-59.2233
 11
308.091
 21
-58.7328
  0
LINE
  8
0
 10
308.091
 20
-58.7328
 11
308.271
 21
-58.275
  0
LINE
  8
0
 10
308.271
 20
-58.275
 11
308.578
 21
-57.8905
  0
LINE
  8
0
 10
308.578
 20
-57.8905
 11
308.984
 21
-57.6134
  0
LINE
  8
0
 10
308.984
 20
-57.6134
 11
309.454
 21
-57.4684
  0
LINE
  8
0
 10
309.454
 20
-57.4684
 11
309.946
 21
-57.4684
  0
LINE
  8
0
 10
309.946
 20
-57.4684
 11
310.416
 21
-57.6134
  0
LINE
  8
0
 10
310.416
 20
-57.6134
 11
310.822
 21
-57.8905
  0
LINE
  8
0
 10
310.822
 20
-57.8905
 11
311.129
 21
-58.275
  0
LINE
  8
0
 10
311.129
 20
-58.275
 11
311.309
 21
-58.7328
  0
LINE
  8
0
 10
311.309
 20
-58.7328
 11
311.345
 21
-59.2233
  0
LINE
  8
0
 10
311.345
 20
-59.2233
 11
311.236
 21
-59.7028
  0
LINE
  8
0
 10
311.236
 20
-59.7028
 11
310.99
 21
-60.1288
  0
LINE
  8
0
 10
310.99
 20
-60.1288
 11
310.629
 21
-60.4633
  0
LINE
  8
0
 10
310.629
 20
-60.4633
 11
310.186
 21
-60.6767
  0
LINE
  8
0
 10
310.186
 20
-60.6767
 11
309.7
 21
-60.75
  0
LINE
  8
0
 10
309.7
 20
-60.75
 11
309.214
 21
-60.6767
  0
LINE
  8
0
 10
309.214
 20
-60.6767
 11
308.771
 21
-60.4633
  0
LINE
  8
0
 10
308.771
 20
-60.4633
 11
308.41
 21
-60.1288
  0
LINE
  8
0
 10
308.41
 20
-60.1288
 11
308.164
 21
-59.7028
  0
LINE
  8
0
 10
308.164
 20
-59.7028
 11
308.055
 21
-59.2233
  0
LINE
  8
0
 10
309.355
 20
-107.523
 11
309.391
 21
-107.033
  0
LINE
  8
0
 10
309.391
 20
-107.033
 11
309.571
 21
-106.575
  0
LINE
  8
0
 10
309.571
 20
-106.575
 11
309.878
 21
-106.19
  0
LINE
  8
0
 10
309.878
 20
-106.19
 11
310.284
 21
-105.913
  0
LINE
  8
0
 10
310.284
 20
-105.913
 11
310.754
 21
-105.768
  0
LINE
  8
0
 10
310.754
 20
-105.768
 11
311.246
 21
-105.768
  0
LINE
  8
0
 10
311.246
 20
-105.768
 11
311.716
 21
-105.913
  0
LINE
  8
0
 10
311.716
 20
-105.913
 11
312.122
 21
-106.19
  0
LINE
  8
0
 10
312.122
 20
-106.19
 11
312.429
 21
-106.575
  0
LINE
  8
0
 10
312.429
 20
-106.575
 11
312.609
 21
-107.033
  0
LINE
  8
0
 10
312.609
 20
-107.033
 11
312.645
 21
-107.523
  0
LINE
  8
0
 10
312.645
 20
-107.523
 11
312.536
 21
-108.003
  0
LINE
  8
0
 10
312.536
 20
-108.003
 11
312.29
 21
-108.429
  0
LINE
  8
0
 10
312.29
 20
-108.429
 11
311.929
 21
-108.763
  0
LINE
  8
0
 10
311.929
 20
-108.763
 11
311.486
 21
-108.977
  0
LINE
  8
0
 10
311.486
 20
-108.977
 11
311
 21
-109.05
  0
LINE
  8
0
 10
311
 20
-109.05
 11
310.514
 21
-108.977
  0
LINE
  8
0
 10
310.514
 20
-108.977
 11
310.071
 21
-108.763
  0
LINE
  8
0
 10
310.071
 20
-108.763
 11
309.71
 21
-108.429
  0
LINE
  8
0
 10
309.71
 20
-108.429
 11
309.464
 21
-108.003
  0
LINE
  8
0
 10
309.464
 20
-108.003
 11
309.355
 21
-107.523
  0
LINE
  8
0
 10
337.48
 20
-7.2
 11
337.535
 21
-6.71045
  0
LINE
  8
0
 10
337.535
 20
-6.71045
 11
337.698
 21
-6.24546
  0
LINE
  8
0
 10
337.698
 20
-6.24546
 11
337.96
 21
-5.82832
  0
LINE
  8
0
 10
337.96
 20
-5.82832
 11
338.308
 21
-5.47997
  0
LINE
  8
0
 10
338.308
 20
-5.47997
 11
338.725
 21
-5.21787
  0
LINE
  8
0
 10
338.725
 20
-5.21787
 11
339.19
 21
-5.05516
  0
LINE
  8
0
 10
339.19
 20
-5.05516
 11
339.443
 21
-5.02675
  0
LINE
  8
0
 10
339.443
 20
-5.02675
 11
339.68
 21
-5
  0
LINE
  8
0
 10
339.68
 20
-5
 11
339.917
 21
-5.02675
  0
LINE
  8
0
 10
339.917
 20
-5.02675
 11
340.17
 21
-5.05516
  0
LINE
  8
0
 10
340.17
 20
-5.05516
 11
340.635
 21
-5.21787
  0
LINE
  8
0
 10
340.635
 20
-5.21787
 11
341.052
 21
-5.47997
  0
LINE
  8
0
 10
341.052
 20
-5.47997
 11
341.4
 21
-5.82832
  0
LINE
  8
0
 10
341.4
 20
-5.82832
 11
341.662
 21
-6.24546
  0
LINE
  8
0
 10
341.662
 20
-6.24546
 11
341.825
 21
-6.71045
  0
LINE
  8
0
 10
341.825
 20
-6.71045
 11
341.88
 21
-7.2
  0
LINE
  8
0
 10
341.88
 20
-7.2
 11
341.825
 21
-7.68955
  0
LINE
  8
0
 10
341.825
 20
-7.68955
 11
341.662
 21
-8.15454
  0
LINE
  8
0
 10
341.662
 20
-8.15454
 11
341.4
 21
-8.57168
  0
LINE
  8
0
 10
341.4
 20
-8.57168
 11
341.052
 21
-8.92003
  0
LINE
  8
0
 10
341.052
 20
-8.92003
 11
340.635
 21
-9.18213
  0
LINE
  8
0
 10
340.635
 20
-9.18213
 11
340.17
 21
-9.34484
  0
LINE
  8
0
 10
340.17
 20
-9.34484
 11
339.68
 21
-9.4
  0
LINE
  8
0
 10
339.68
 20
-9.4
 11
339.19
 21
-9.34484
  0
LINE
  8
0
 10
339.19
 20
-9.34484
 11
338.725
 21
-9.18213
  0
LINE
  8
0
 10
338.725
 20
-9.18213
 11
338.308
 21
-8.92003
  0
LINE
  8
0
 10
338.308
 20
-8.92003
 11
337.96
 21
-8.57168
  0
LINE
  8
0
 10
337.96
 20
-8.57168
 11
337.698
 21
-8.15454
  0
LINE
  8
0
 10
337.698
 20
-8.15454
 11
337.535
 21
-7.68955
  0
LINE
  8
0
 10
337.535
 20
-7.68955
 11
337.48
 21
-7.2
  0
LINE
  8
0
 10
358.7
 20
-7.2
 11
358.755
 21
-6.71045
  0
LINE
  8
0
 10
358.755
 20
-6.71045
 11
358.918
 21
-6.24546
  0
LINE
  8
0
 10
358.918
 20
-6.24546
 11
359.18
 21
-5.82832
  0
LINE
  8
0
 10
359.18
 20
-5.82832
 11
359.528
 21
-5.47997
  0
LINE
  8
0
 10
359.528
 20
-5.47997
 11
359.945
 21
-5.21787
  0
LINE
  8
0
 10
359.945
 20
-5.21787
 11
360.41
 21
-5.05516
  0
LINE
  8
0
 10
360.41
 20
-5.05516
 11
360.663
 21
-5.02675
  0
LINE
  8
0
 10
360.663
 20
-5.02675
 11
360.9
 21
-5
  0
LINE
  8
0
 10
360.9
 20
-5
 11
361.137
 21
-5.02675
  0
LINE
  8
0
 10
361.137
 20
-5.02675
 11
361.39
 21
-5.05516
  0
LINE
  8
0
 10
361.39
 20
-5.05516
 11
361.855
 21
-5.21787
  0
LINE
  8
0
 10
361.855
 20
-5.21787
 11
362.272
 21
-5.47997
  0
LINE
  8
0
 10
362.272
 20
-5.47997
 11
362.62
 21
-5.82832
  0
LINE
  8
0
 10
362.62
 20
-5.82832
 11
362.882
 21
-6.24546
  0
LINE
  8
0
 10
362.882
 20
-6.24546
 11
363.045
 21
-6.71045
  0
LINE
  8
0
 10
363.045
 20
-6.71045
 11
363.1
 21
-7.2
  0
LINE
  8
0
 10
363.1
 20
-7.2
 11
363.045
 21
-7.68955
  0
LINE
  8
0
 10
363.045
 20
-7.68955
 11
362.882
 21
-8.15454
  0
LINE
  8
0
 10
362.882
 20
-8.15454
 11
362.62
 21
-8.57168
  0
LINE
  8
0
 10
362.62
 20
-8.57168
 11
362.272
 21
-8.92003
  0
LINE
  8
0
 10
362.272
 20
-8.92003
 11
361.855
 21
-9.18213
  0
LINE
  8
0
 10
361.855
 20
-9.18213
 11
361.39
 21
-9.34484
  0
LINE
  8
0
 10
361.39
 20
-9.34484
 11
360.9
 21
-9.4
  0
LINE
  8
0
 10
360.9
 20
-9.4
 11
360.41
 21
-9.34484
  0
LINE
  8
0
 10
360.41
 20
-9.34484
 11
359.945
 21
-9.18213
  0
LINE
  8
0
 10
359.945
 20
-9.18213
 11
359.528
 21
-8.92003
  0
LINE
  8
0
 10
359.528
 20
-8.92003
 11
359.18
 21
-8.57168
  0
LINE
  8
0
 10
359.18
 20
-8.57168
 11
358.918
 21
-8.15454
  0
LINE
  8
0
 10
358.918
 20
-8.15454
 11
358.755
 21
-7.68955
  0
LINE
  8
0
 10
358.755
 20
-7.68955
 11
358.7
 21
-7.2
  0
ENDSEC
  0
SECTION
  2
OBJECTS
  0
DICTIONARY
  0
ENDSEC
  0
EOF
