  0
SECTION
  2
BLOCKS
  0
ENDSEC
  0
SECTION
  2
ENTITIES
  0
LINE
  8
0
 10
-236.25
 20
-185
 11
-236.155
 21
-187.179
  0
LINE
  8
0
 10
-236.155
 20
-187.179
 11
-235.87
 21
-189.341
  0
LINE
  8
0
 10
-235.87
 20
-189.341
 11
-235.398
 21
-191.47
  0
LINE
  8
0
 10
-235.398
 20
-191.47
 11
-234.742
 21
-193.551
  0
LINE
  8
0
 10
-234.742
 20
-193.551
 11
-233.908
 21
-195.565
  0
LINE
  8
0
 10
-233.908
 20
-195.565
 11
-232.901
 21
-197.5
  0
LINE
  8
0
 10
-232.901
 20
-197.5
 11
-231.729
 21
-199.339
  0
LINE
  8
0
 10
-231.729
 20
-199.339
 11
-230.401
 21
-201.07
  0
LINE
  8
0
 10
-230.401
 20
-201.07
 11
-228.928
 21
-202.678
  0
LINE
  8
0
 10
-228.928
 20
-202.678
 11
-227.32
 21
-204.151
  0
LINE
  8
0
 10
-227.32
 20
-204.151
 11
-225.589
 21
-205.479
  0
LINE
  8
0
 10
-225.589
 20
-205.479
 11
-223.75
 21
-206.651
  0
LINE
  8
0
 10
-223.75
 20
-206.651
 11
-221.815
 21
-207.658
  0
LINE
  8
0
 10
-221.815
 20
-207.658
 11
-219.801
 21
-208.492
  0
LINE
  8
0
 10
-219.801
 20
-208.492
 11
-217.72
 21
-209.148
  0
LINE
  8
0
 10
-217.72
 20
-209.148
 11
-215.591
 21
-209.62
  0
LINE
  8
0
 10
-215.591
 20
-209.62
 11
-213.429
 21
-209.905
  0
LINE
  8
0
 10
-213.429
 20
-209.905
 11
-211.25
 21
-210
  0
LINE
  8
0
 10
-211.25
 20
-210
 11
211.25
 21
-210
  0
LINE
  8
0
 10
211.25
 20
-210
 11
213.429
 21
-209.905
  0
LINE
  8
0
 10
213.429
 20
-209.905
 11
215.591
 21
-209.62
  0
LINE
  8
0
 10
215.591
 20
-209.62
 11
217.72
 21
-209.148
  0
LINE
  8
0
 10
217.72
 20
-209.148
 11
219.801
 21
-208.492
  0
LINE
  8
0
 10
219.801
 20
-208.492
 11
221.815
 21
-207.658
  0
LINE
  8
0
 10
221.815
 20
-207.658
 11
223.75
 21
-206.651
  0
LINE
  8
0
 10
223.75
 20
-206.651
 11
225.589
 21
-205.479
  0
LINE
  8
0
 10
225.589
 20
-205.479
 11
227.32
 21
-204.151
  0
LINE
  8
0
 10
227.32
 20
-204.151
 11
228.928
 21
-202.678
  0
LINE
  8
0
 10
228.928
 20
-202.678
 11
230.401
 21
-201.07
  0
LINE
  8
0
 10
230.401
 20
-201.07
 11
231.729
 21
-199.339
  0
LINE
  8
0
 10
231.729
 20
-199.339
 11
232.901
 21
-197.5
  0
LINE
  8
0
 10
232.901
 20
-197.5
 11
233.908
 21
-195.565
  0
LINE
  8
0
 10
233.908
 20
-195.565
 11
234.742
 21
-193.551
  0
LINE
  8
0
 10
234.742
 20
-193.551
 11
235.398
 21
-191.47
  0
LINE
  8
0
 10
235.398
 20
-191.47
 11
235.87
 21
-189.341
  0
LINE
  8
0
 10
235.87
 20
-189.341
 11
236.155
 21
-187.179
  0
LINE
  8
0
 10
236.155
 20
-187.179
 11
236.25
 21
-185
  0
LINE
  8
0
 10
236.25
 20
-185
 11
236.25
 21
185
  0
LINE
  8
0
 10
236.25
 20
185
 11
236.155
 21
187.179
  0
LINE
  8
0
 10
236.155
 20
187.179
 11
235.87
 21
189.341
  0
LINE
  8
0
 10
235.87
 20
189.341
 11
235.398
 21
191.47
  0
LINE
  8
0
 10
235.398
 20
191.47
 11
234.742
 21
193.551
  0
LINE
  8
0
 10
234.742
 20
193.551
 11
233.908
 21
195.565
  0
LINE
  8
0
 10
233.908
 20
195.565
 11
232.901
 21
197.5
  0
LINE
  8
0
 10
232.901
 20
197.5
 11
231.729
 21
199.339
  0
LINE
  8
0
 10
231.729
 20
199.339
 11
230.401
 21
201.07
  0
LINE
  8
0
 10
230.401
 20
201.07
 11
228.928
 21
202.678
  0
LINE
  8
0
 10
228.928
 20
202.678
 11
227.32
 21
204.151
  0
LINE
  8
0
 10
227.32
 20
204.151
 11
225.589
 21
205.479
  0
LINE
  8
0
 10
225.589
 20
205.479
 11
223.75
 21
206.651
  0
LINE
  8
0
 10
223.75
 20
206.651
 11
221.815
 21
207.658
  0
LINE
  8
0
 10
221.815
 20
207.658
 11
219.801
 21
208.492
  0
LINE
  8
0
 10
219.801
 20
208.492
 11
217.72
 21
209.148
  0
LINE
  8
0
 10
217.72
 20
209.148
 11
215.591
 21
209.62
  0
LINE
  8
0
 10
215.591
 20
209.62
 11
213.429
 21
209.905
  0
LINE
  8
0
 10
213.429
 20
209.905
 11
211.25
 21
210
  0
LINE
  8
0
 10
211.25
 20
210
 11
-211.25
 21
210
  0
LINE
  8
0
 10
-211.25
 20
210
 11
-213.429
 21
209.905
  0
LINE
  8
0
 10
-213.429
 20
209.905
 11
-215.591
 21
209.62
  0
LINE
  8
0
 10
-215.591
 20
209.62
 11
-217.72
 21
209.148
  0
LINE
  8
0
 10
-217.72
 20
209.148
 11
-219.801
 21
208.492
  0
LINE
  8
0
 10
-219.801
 20
208.492
 11
-221.815
 21
207.658
  0
LINE
  8
0
 10
-221.815
 20
207.658
 11
-223.75
 21
206.651
  0
LINE
  8
0
 10
-223.75
 20
206.651
 11
-225.589
 21
205.479
  0
LINE
  8
0
 10
-225.589
 20
205.479
 11
-227.32
 21
204.151
  0
LINE
  8
0
 10
-227.32
 20
204.151
 11
-228.928
 21
202.678
  0
LINE
  8
0
 10
-228.928
 20
202.678
 11
-230.401
 21
201.07
  0
LINE
  8
0
 10
-230.401
 20
201.07
 11
-231.729
 21
199.339
  0
LINE
  8
0
 10
-231.729
 20
199.339
 11
-232.901
 21
197.5
  0
LINE
  8
0
 10
-232.901
 20
197.5
 11
-233.908
 21
195.565
  0
LINE
  8
0
 10
-233.908
 20
195.565
 11
-234.742
 21
193.551
  0
LINE
  8
0
 10
-234.742
 20
193.551
 11
-235.398
 21
191.47
  0
LINE
  8
0
 10
-235.398
 20
191.47
 11
-235.87
 21
189.341
  0
LINE
  8
0
 10
-235.87
 20
189.341
 11
-236.155
 21
187.179
  0
LINE
  8
0
 10
-236.155
 20
187.179
 11
-236.25
 21
185
  0
LINE
  8
0
 10
-236.25
 20
185
 11
-236.25
 21
-185
  0
LINE
  8
0
 10
-219.14
 20
50.7
 11
-219.085
 21
51.1895
  0
LINE
  8
0
 10
-219.085
 20
51.1895
 11
-218.922
 21
51.6545
  0
LINE
  8
0
 10
-218.922
 20
51.6545
 11
-218.66
 21
52.0717
  0
LINE
  8
0
 10
-218.66
 20
52.0717
 11
-218.312
 21
52.42
  0
LINE
  8
0
 10
-218.312
 20
52.42
 11
-217.895
 21
52.6821
  0
LINE
  8
0
 10
-217.895
 20
52.6821
 11
-217.43
 21
52.8448
  0
LINE
  8
0
 10
-217.43
 20
52.8448
 11
-216.94
 21
52.9
  0
LINE
  8
0
 10
-216.94
 20
52.9
 11
-216.45
 21
52.8448
  0
LINE
  8
0
 10
-216.45
 20
52.8448
 11
-215.985
 21
52.6821
  0
LINE
  8
0
 10
-215.985
 20
52.6821
 11
-215.568
 21
52.42
  0
LINE
  8
0
 10
-215.568
 20
52.42
 11
-215.22
 21
52.0717
  0
LINE
  8
0
 10
-215.22
 20
52.0717
 11
-214.958
 21
51.6545
  0
LINE
  8
0
 10
-214.958
 20
51.6545
 11
-214.795
 21
51.1895
  0
LINE
  8
0
 10
-214.795
 20
51.1895
 11
-214.74
 21
50.7
  0
LINE
  8
0
 10
-214.74
 20
50.7
 11
-214.795
 21
50.2105
  0
LINE
  8
0
 10
-214.795
 20
50.2105
 11
-214.958
 21
49.7455
  0
LINE
  8
0
 10
-214.958
 20
49.7455
 11
-215.22
 21
49.3283
  0
LINE
  8
0
 10
-215.22
 20
49.3283
 11
-215.568
 21
48.98
  0
LINE
  8
0
 10
-215.568
 20
48.98
 11
-215.985
 21
48.7179
  0
LINE
  8
0
 10
-215.985
 20
48.7179
 11
-216.45
 21
48.5552
  0
LINE
  8
0
 10
-216.45
 20
48.5552
 11
-216.94
 21
48.5
  0
LINE
  8
0
 10
-216.94
 20
48.5
 11
-217.43
 21
48.5552
  0
LINE
  8
0
 10
-217.43
 20
48.5552
 11
-217.895
 21
48.7179
  0
LINE
  8
0
 10
-217.895
 20
48.7179
 11
-218.312
 21
48.98
  0
LINE
  8
0
 10
-218.312
 20
48.98
 11
-218.66
 21
49.3283
  0
LINE
  8
0
 10
-218.66
 20
49.3283
 11
-218.922
 21
49.7455
  0
LINE
  8
0
 10
-218.922
 20
49.7455
 11
-219.085
 21
50.2105
  0
LINE
  8
0
 10
-219.085
 20
50.2105
 11
-219.14
 21
50.7
  0
LINE
  8
0
 10
-208.742
 20
-0.246243
 11
-208.742
 21
0.246243
  0
LINE
  8
0
 10
-208.742
 20
0.246243
 11
-208.682
 21
0.734998
  0
LINE
  8
0
 10
-208.682
 20
0.734998
 11
-208.562
 21
1.21261
  0
LINE
  8
0
 10
-208.562
 20
1.21261
 11
-208.384
 21
1.67184
  0
LINE
  8
0
 10
-208.384
 20
1.67184
 11
-208.151
 21
2.10573
  0
LINE
  8
0
 10
-208.151
 20
2.10573
 11
-207.866
 21
2.5077
  0
LINE
  8
0
 10
-207.866
 20
2.5077
 11
-207.535
 21
2.87165
  0
LINE
  8
0
 10
-207.535
 20
2.87165
 11
-207.161
 21
3.19207
  0
LINE
  8
0
 10
-207.161
 20
3.19207
 11
-206.75
 21
3.4641
  0
LINE
  8
0
 10
-206.75
 20
3.4641
 11
-206.309
 21
3.68362
  0
LINE
  8
0
 10
-206.309
 20
3.68362
 11
-205.845
 21
3.8473
  0
LINE
  8
0
 10
-205.845
 20
3.8473
 11
-205.364
 21
3.95266
  0
LINE
  8
0
 10
-205.364
 20
3.95266
 11
-204.873
 21
3.9981
  0
LINE
  8
0
 10
-204.873
 20
3.9981
 11
-204.381
 21
3.98294
  0
LINE
  8
0
 10
-204.381
 20
3.98294
 11
-203.894
 21
3.90739
  0
LINE
  8
0
 10
-203.894
 20
3.90739
 11
-203.421
 21
3.77262
  0
LINE
  8
0
 10
-203.421
 20
3.77262
 11
-202.967
 21
3.58065
  0
LINE
  8
0
 10
-202.967
 20
3.58065
 11
-202.541
 21
3.33441
  0
LINE
  8
0
 10
-202.541
 20
3.33441
 11
-202.148
 21
3.03762
  0
LINE
  8
0
 10
-202.148
 20
3.03762
 11
-201.794
 21
2.69478
  0
LINE
  8
0
 10
-201.794
 20
2.69478
 11
-201.485
 21
2.3111
  0
LINE
  8
0
 10
-201.485
 20
2.3111
 11
-201.226
 21
1.89237
  0
LINE
  8
0
 10
-201.226
 20
1.89237
 11
-201.02
 21
1.44497
  0
LINE
  8
0
 10
-201.02
 20
1.44497
 11
-200.871
 21
0.975655
  0
LINE
  8
0
 10
-200.871
 20
0.975655
 11
-200.78
 21
0.491552
  0
LINE
  8
0
 10
-200.78
 20
0.491552
 11
-200.75
 21
0
  0
LINE
  8
0
 10
-200.75
 20
0
 11
-200.78
 21
-0.491552
  0
LINE
  8
0
 10
-200.78
 20
-0.491552
 11
-200.871
 21
-0.975655
  0
LINE
  8
0
 10
-200.871
 20
-0.975655
 11
-201.02
 21
-1.44497
  0
LINE
  8
0
 10
-201.02
 20
-1.44497
 11
-201.226
 21
-1.89237
  0
LINE
  8
0
 10
-201.226
 20
-1.89237
 11
-201.485
 21
-2.3111
  0
LINE
  8
0
 10
-201.485
 20
-2.3111
 11
-201.794
 21
-2.69478
  0
LINE
  8
0
 10
-201.794
 20
-2.69478
 11
-202.148
 21
-3.03762
  0
LINE
  8
0
 10
-202.148
 20
-3.03762
 11
-202.541
 21
-3.33441
  0
LINE
  8
0
 10
-202.541
 20
-3.33441
 11
-202.967
 21
-3.58065
  0
LINE
  8
0
 10
-202.967
 20
-3.58065
 11
-203.421
 21
-3.77262
  0
LINE
  8
0
 10
-203.421
 20
-3.77262
 11
-203.894
 21
-3.90739
  0
LINE
  8
0
 10
-203.894
 20
-3.90739
 11
-204.381
 21
-3.98294
  0
LINE
  8
0
 10
-204.381
 20
-3.98294
 11
-204.873
 21
-3.9981
  0
LINE
  8
0
 10
-204.873
 20
-3.9981
 11
-205.364
 21
-3.95266
  0
LINE
  8
0
 10
-205.364
 20
-3.95266
 11
-205.845
 21
-3.8473
  0
LINE
  8
0
 10
-205.845
 20
-3.8473
 11
-206.309
 21
-3.68362
  0
LINE
  8
0
 10
-206.309
 20
-3.68362
 11
-206.75
 21
-3.4641
  0
LINE
  8
0
 10
-206.75
 20
-3.4641
 11
-207.161
 21
-3.19207
  0
LINE
  8
0
 10
-207.161
 20
-3.19207
 11
-207.535
 21
-2.87165
  0
LINE
  8
0
 10
-207.535
 20
-2.87165
 11
-207.866
 21
-2.5077
  0
LINE
  8
0
 10
-207.866
 20
-2.5077
 11
-208.151
 21
-2.10573
  0
LINE
  8
0
 10
-208.151
 20
-2.10573
 11
-208.384
 21
-1.67184
  0
LINE
  8
0
 10
-208.384
 20
-1.67184
 11
-208.562
 21
-1.21261
  0
LINE
  8
0
 10
-208.562
 20
-1.21261
 11
-208.682
 21
-0.734998
  0
LINE
  8
0
 10
-208.682
 20
-0.734998
 11
-208.742
 21
-0.246243
  0
LINE
  8
0
 10
-175.75
 20
-190.69
 11
-175.695
 21
-190.2
  0
LINE
  8
0
 10
-175.695
 20
-190.2
 11
-175.532
 21
-189.735
  0
LINE
  8
0
 10
-175.532
 20
-189.735
 11
-175.27
 21
-189.318
  0
LINE
  8
0
 10
-175.27
 20
-189.318
 11
-174.922
 21
-188.97
  0
LINE
  8
0
 10
-174.922
 20
-188.97
 11
-174.505
 21
-188.708
  0
LINE
  8
0
 10
-174.505
 20
-188.708
 11
-174.04
 21
-188.545
  0
LINE
  8
0
 10
-174.04
 20
-188.545
 11
-173.55
 21
-188.49
  0
LINE
  8
0
 10
-173.55
 20
-188.49
 11
-173.06
 21
-188.545
  0
LINE
  8
0
 10
-173.06
 20
-188.545
 11
-172.595
 21
-188.708
  0
LINE
  8
0
 10
-172.595
 20
-188.708
 11
-172.178
 21
-188.97
  0
LINE
  8
0
 10
-172.178
 20
-188.97
 11
-171.83
 21
-189.318
  0
LINE
  8
0
 10
-171.83
 20
-189.318
 11
-171.568
 21
-189.735
  0
LINE
  8
0
 10
-171.568
 20
-189.735
 11
-171.405
 21
-190.2
  0
LINE
  8
0
 10
-171.405
 20
-190.2
 11
-171.35
 21
-190.69
  0
LINE
  8
0
 10
-171.35
 20
-190.69
 11
-171.405
 21
-191.18
  0
LINE
  8
0
 10
-171.405
 20
-191.18
 11
-171.568
 21
-191.645
  0
LINE
  8
0
 10
-171.568
 20
-191.645
 11
-171.83
 21
-192.062
  0
LINE
  8
0
 10
-171.83
 20
-192.062
 11
-172.178
 21
-192.41
  0
LINE
  8
0
 10
-172.178
 20
-192.41
 11
-172.595
 21
-192.672
  0
LINE
  8
0
 10
-172.595
 20
-192.672
 11
-173.06
 21
-192.835
  0
LINE
  8
0
 10
-173.06
 20
-192.835
 11
-173.55
 21
-192.89
  0
LINE
  8
0
 10
-173.55
 20
-192.89
 11
-174.04
 21
-192.835
  0
LINE
  8
0
 10
-174.04
 20
-192.835
 11
-174.505
 21
-192.672
  0
LINE
  8
0
 10
-174.505
 20
-192.672
 11
-174.922
 21
-192.41
  0
LINE
  8
0
 10
-174.922
 20
-192.41
 11
-175.27
 21
-192.062
  0
LINE
  8
0
 10
-175.27
 20
-192.062
 11
-175.532
 21
-191.645
  0
LINE
  8
0
 10
-175.532
 20
-191.645
 11
-175.695
 21
-191.18
  0
LINE
  8
0
 10
-175.695
 20
-191.18
 11
-175.75
 21
-190.69
  0
LINE
  8
0
 10
-175.75
 20
190.69
 11
-175.695
 21
191.18
  0
LINE
  8
0
 10
-175.695
 20
191.18
 11
-175.532
 21
191.645
  0
LINE
  8
0
 10
-175.532
 20
191.645
 11
-175.27
 21
192.062
  0
LINE
  8
0
 10
-175.27
 20
192.062
 11
-174.922
 21
192.41
  0
LINE
  8
0
 10
-174.922
 20
192.41
 11
-174.505
 21
192.672
  0
LINE
  8
0
 10
-174.505
 20
192.672
 11
-174.04
 21
192.835
  0
LINE
  8
0
 10
-174.04
 20
192.835
 11
-173.55
 21
192.89
  0
LINE
  8
0
 10
-173.55
 20
192.89
 11
-173.06
 21
192.835
  0
LINE
  8
0
 10
-173.06
 20
192.835
 11
-172.595
 21
192.672
  0
LINE
  8
0
 10
-172.595
 20
192.672
 11
-172.178
 21
192.41
  0
LINE
  8
0
 10
-172.178
 20
192.41
 11
-171.83
 21
192.062
  0
LINE
  8
0
 10
-171.83
 20
192.062
 11
-171.568
 21
191.645
  0
LINE
  8
0
 10
-171.568
 20
191.645
 11
-171.405
 21
191.18
  0
LINE
  8
0
 10
-171.405
 20
191.18
 11
-171.35
 21
190.69
  0
LINE
  8
0
 10
-171.35
 20
190.69
 11
-171.405
 21
190.2
  0
LINE
  8
0
 10
-171.405
 20
190.2
 11
-171.568
 21
189.735
  0
LINE
  8
0
 10
-171.568
 20
189.735
 11
-171.83
 21
189.318
  0
LINE
  8
0
 10
-171.83
 20
189.318
 11
-172.178
 21
188.97
  0
LINE
  8
0
 10
-172.178
 20
188.97
 11
-172.595
 21
188.708
  0
LINE
  8
0
 10
-172.595
 20
188.708
 11
-173.06
 21
188.545
  0
LINE
  8
0
 10
-173.06
 20
188.545
 11
-173.55
 21
188.49
  0
LINE
  8
0
 10
-173.55
 20
188.49
 11
-174.04
 21
188.545
  0
LINE
  8
0
 10
-174.04
 20
188.545
 11
-174.505
 21
188.708
  0
LINE
  8
0
 10
-174.505
 20
188.708
 11
-174.922
 21
188.97
  0
LINE
  8
0
 10
-174.922
 20
188.97
 11
-175.27
 21
189.318
  0
LINE
  8
0
 10
-175.27
 20
189.318
 11
-175.532
 21
189.735
  0
LINE
  8
0
 10
-175.532
 20
189.735
 11
-175.695
 21
190.2
  0
LINE
  8
0
 10
-175.695
 20
190.2
 11
-175.75
 21
190.69
  0
LINE
  8
0
 10
-152.76
 20
50.7
 11
-152.705
 21
51.1895
  0
LINE
  8
0
 10
-152.705
 20
51.1895
 11
-152.542
 21
51.6545
  0
LINE
  8
0
 10
-152.542
 20
51.6545
 11
-152.28
 21
52.0717
  0
LINE
  8
0
 10
-152.28
 20
52.0717
 11
-151.932
 21
52.42
  0
LINE
  8
0
 10
-151.932
 20
52.42
 11
-151.515
 21
52.6821
  0
LINE
  8
0
 10
-151.515
 20
52.6821
 11
-151.05
 21
52.8448
  0
LINE
  8
0
 10
-151.05
 20
52.8448
 11
-150.56
 21
52.9
  0
LINE
  8
0
 10
-150.56
 20
52.9
 11
-150.07
 21
52.8448
  0
LINE
  8
0
 10
-150.07
 20
52.8448
 11
-149.605
 21
52.6821
  0
LINE
  8
0
 10
-149.605
 20
52.6821
 11
-149.188
 21
52.42
  0
LINE
  8
0
 10
-149.188
 20
52.42
 11
-148.84
 21
52.0717
  0
LINE
  8
0
 10
-148.84
 20
52.0717
 11
-148.578
 21
51.6545
  0
LINE
  8
0
 10
-148.578
 20
51.6545
 11
-148.415
 21
51.1895
  0
LINE
  8
0
 10
-148.415
 20
51.1895
 11
-148.36
 21
50.7
  0
LINE
  8
0
 10
-148.36
 20
50.7
 11
-148.415
 21
50.2105
  0
LINE
  8
0
 10
-148.415
 20
50.2105
 11
-148.578
 21
49.7455
  0
LINE
  8
0
 10
-148.578
 20
49.7455
 11
-148.84
 21
49.3283
  0
LINE
  8
0
 10
-148.84
 20
49.3283
 11
-149.188
 21
48.98
  0
LINE
  8
0
 10
-149.188
 20
48.98
 11
-149.605
 21
48.7179
  0
LINE
  8
0
 10
-149.605
 20
48.7179
 11
-150.07
 21
48.5552
  0
LINE
  8
0
 10
-150.07
 20
48.5552
 11
-150.56
 21
48.5
  0
LINE
  8
0
 10
-150.56
 20
48.5
 11
-151.05
 21
48.5552
  0
LINE
  8
0
 10
-151.05
 20
48.5552
 11
-151.515
 21
48.7179
  0
LINE
  8
0
 10
-151.515
 20
48.7179
 11
-151.932
 21
48.98
  0
LINE
  8
0
 10
-151.932
 20
48.98
 11
-152.28
 21
49.3283
  0
LINE
  8
0
 10
-152.28
 20
49.3283
 11
-152.542
 21
49.7455
  0
LINE
  8
0
 10
-152.542
 20
49.7455
 11
-152.705
 21
50.2105
  0
LINE
  8
0
 10
-152.705
 20
50.2105
 11
-152.76
 21
50.7
  0
LINE
  8
0
 10
-109
 20
-202.5
 11
-108.945
 21
-202.01
  0
LINE
  8
0
 10
-108.945
 20
-202.01
 11
-108.782
 21
-201.545
  0
LINE
  8
0
 10
-108.782
 20
-201.545
 11
-108.52
 21
-201.128
  0
LINE
  8
0
 10
-108.52
 20
-201.128
 11
-108.172
 21
-200.78
  0
LINE
  8
0
 10
-108.172
 20
-200.78
 11
-107.755
 21
-200.518
  0
LINE
  8
0
 10
-107.755
 20
-200.518
 11
-107.29
 21
-200.355
  0
LINE
  8
0
 10
-107.29
 20
-200.355
 11
-106.8
 21
-200.3
  0
LINE
  8
0
 10
-106.8
 20
-200.3
 11
-106.31
 21
-200.355
  0
LINE
  8
0
 10
-106.31
 20
-200.355
 11
-105.845
 21
-200.518
  0
LINE
  8
0
 10
-105.845
 20
-200.518
 11
-105.428
 21
-200.78
  0
LINE
  8
0
 10
-105.428
 20
-200.78
 11
-105.08
 21
-201.128
  0
LINE
  8
0
 10
-105.08
 20
-201.128
 11
-104.818
 21
-201.545
  0
LINE
  8
0
 10
-104.818
 20
-201.545
 11
-104.655
 21
-202.01
  0
LINE
  8
0
 10
-104.655
 20
-202.01
 11
-104.6
 21
-202.5
  0
LINE
  8
0
 10
-104.6
 20
-202.5
 11
-104.655
 21
-202.99
  0
LINE
  8
0
 10
-104.655
 20
-202.99
 11
-104.818
 21
-203.455
  0
LINE
  8
0
 10
-104.818
 20
-203.455
 11
-105.08
 21
-203.872
  0
LINE
  8
0
 10
-105.08
 20
-203.872
 11
-105.428
 21
-204.22
  0
LINE
  8
0
 10
-105.428
 20
-204.22
 11
-105.845
 21
-204.482
  0
LINE
  8
0
 10
-105.845
 20
-204.482
 11
-106.31
 21
-204.645
  0
LINE
  8
0
 10
-106.31
 20
-204.645
 11
-106.8
 21
-204.7
  0
LINE
  8
0
 10
-106.8
 20
-204.7
 11
-107.29
 21
-204.645
  0
LINE
  8
0
 10
-107.29
 20
-204.645
 11
-107.755
 21
-204.482
  0
LINE
  8
0
 10
-107.755
 20
-204.482
 11
-108.172
 21
-204.22
  0
LINE
  8
0
 10
-108.172
 20
-204.22
 11
-108.52
 21
-203.872
  0
LINE
  8
0
 10
-108.52
 20
-203.872
 11
-108.782
 21
-203.455
  0
LINE
  8
0
 10
-108.782
 20
-203.455
 11
-108.945
 21
-202.99
  0
LINE
  8
0
 10
-108.945
 20
-202.99
 11
-109
 21
-202.5
  0
LINE
  8
0
 10
-109
 20
202.5
 11
-108.945
 21
202.99
  0
LINE
  8
0
 10
-108.945
 20
202.99
 11
-108.782
 21
203.455
  0
LINE
  8
0
 10
-108.782
 20
203.455
 11
-108.52
 21
203.872
  0
LINE
  8
0
 10
-108.52
 20
203.872
 11
-108.172
 21
204.22
  0
LINE
  8
0
 10
-108.172
 20
204.22
 11
-107.755
 21
204.482
  0
LINE
  8
0
 10
-107.755
 20
204.482
 11
-107.29
 21
204.645
  0
LINE
  8
0
 10
-107.29
 20
204.645
 11
-106.8
 21
204.7
  0
LINE
  8
0
 10
-106.8
 20
204.7
 11
-106.31
 21
204.645
  0
LINE
  8
0
 10
-106.31
 20
204.645
 11
-105.845
 21
204.482
  0
LINE
  8
0
 10
-105.845
 20
204.482
 11
-105.428
 21
204.22
  0
LINE
  8
0
 10
-105.428
 20
204.22
 11
-105.08
 21
203.872
  0
LINE
  8
0
 10
-105.08
 20
203.872
 11
-104.818
 21
203.455
  0
LINE
  8
0
 10
-104.818
 20
203.455
 11
-104.655
 21
202.99
  0
LINE
  8
0
 10
-104.655
 20
202.99
 11
-104.6
 21
202.5
  0
LINE
  8
0
 10
-104.6
 20
202.5
 11
-104.655
 21
202.01
  0
LINE
  8
0
 10
-104.655
 20
202.01
 11
-104.818
 21
201.545
  0
LINE
  8
0
 10
-104.818
 20
201.545
 11
-105.08
 21
201.128
  0
LINE
  8
0
 10
-105.08
 20
201.128
 11
-105.428
 21
200.78
  0
LINE
  8
0
 10
-105.428
 20
200.78
 11
-105.845
 21
200.518
  0
LINE
  8
0
 10
-105.845
 20
200.518
 11
-106.31
 21
200.355
  0
LINE
  8
0
 10
-106.31
 20
200.355
 11
-106.8
 21
200.3
  0
LINE
  8
0
 10
-106.8
 20
200.3
 11
-107.29
 21
200.355
  0
LINE
  8
0
 10
-107.29
 20
200.355
 11
-107.755
 21
200.518
  0
LINE
  8
0
 10
-107.755
 20
200.518
 11
-108.172
 21
200.78
  0
LINE
  8
0
 10
-108.172
 20
200.78
 11
-108.52
 21
201.128
  0
LINE
  8
0
 10
-108.52
 20
201.128
 11
-108.782
 21
201.545
  0
LINE
  8
0
 10
-108.782
 20
201.545
 11
-108.945
 21
202.01
  0
LINE
  8
0
 10
-108.945
 20
202.01
 11
-109
 21
202.5
  0
LINE
  8
0
 10
-78.9
 20
-202.5
 11
-78.8448
 21
-202.01
  0
LINE
  8
0
 10
-78.8448
 20
-202.01
 11
-78.6821
 21
-201.545
  0
LINE
  8
0
 10
-78.6821
 20
-201.545
 11
-78.42
 21
-201.128
  0
LINE
  8
0
 10
-78.42
 20
-201.128
 11
-78.0717
 21
-200.78
  0
LINE
  8
0
 10
-78.0717
 20
-200.78
 11
-77.6545
 21
-200.518
  0
LINE
  8
0
 10
-77.6545
 20
-200.518
 11
-77.1895
 21
-200.355
  0
LINE
  8
0
 10
-77.1895
 20
-200.355
 11
-76.7
 21
-200.3
  0
LINE
  8
0
 10
-76.7
 20
-200.3
 11
-76.2105
 21
-200.355
  0
LINE
  8
0
 10
-76.2105
 20
-200.355
 11
-75.7455
 21
-200.518
  0
LINE
  8
0
 10
-75.7455
 20
-200.518
 11
-75.3283
 21
-200.78
  0
LINE
  8
0
 10
-75.3283
 20
-200.78
 11
-74.98
 21
-201.128
  0
LINE
  8
0
 10
-74.98
 20
-201.128
 11
-74.7179
 21
-201.545
  0
LINE
  8
0
 10
-74.7179
 20
-201.545
 11
-74.5552
 21
-202.01
  0
LINE
  8
0
 10
-74.5552
 20
-202.01
 11
-74.5
 21
-202.5
  0
LINE
  8
0
 10
-74.5
 20
-202.5
 11
-74.5552
 21
-202.99
  0
LINE
  8
0
 10
-74.5552
 20
-202.99
 11
-74.7179
 21
-203.455
  0
LINE
  8
0
 10
-74.7179
 20
-203.455
 11
-74.98
 21
-203.872
  0
LINE
  8
0
 10
-74.98
 20
-203.872
 11
-75.3283
 21
-204.22
  0
LINE
  8
0
 10
-75.3283
 20
-204.22
 11
-75.7455
 21
-204.482
  0
LINE
  8
0
 10
-75.7455
 20
-204.482
 11
-76.2105
 21
-204.645
  0
LINE
  8
0
 10
-76.2105
 20
-204.645
 11
-76.7
 21
-204.7
  0
LINE
  8
0
 10
-76.7
 20
-204.7
 11
-77.1895
 21
-204.645
  0
LINE
  8
0
 10
-77.1895
 20
-204.645
 11
-77.6545
 21
-204.482
  0
LINE
  8
0
 10
-77.6545
 20
-204.482
 11
-78.0717
 21
-204.22
  0
LINE
  8
0
 10
-78.0717
 20
-204.22
 11
-78.42
 21
-203.872
  0
LINE
  8
0
 10
-78.42
 20
-203.872
 11
-78.6821
 21
-203.455
  0
LINE
  8
0
 10
-78.6821
 20
-203.455
 11
-78.8448
 21
-202.99
  0
LINE
  8
0
 10
-78.8448
 20
-202.99
 11
-78.9
 21
-202.5
  0
LINE
  8
0
 10
-78.9
 20
202.5
 11
-78.8448
 21
202.99
  0
LINE
  8
0
 10
-78.8448
 20
202.99
 11
-78.6821
 21
203.455
  0
LINE
  8
0
 10
-78.6821
 20
203.455
 11
-78.42
 21
203.872
  0
LINE
  8
0
 10
-78.42
 20
203.872
 11
-78.0717
 21
204.22
  0
LINE
  8
0
 10
-78.0717
 20
204.22
 11
-77.6545
 21
204.482
  0
LINE
  8
0
 10
-77.6545
 20
204.482
 11
-77.1895
 21
204.645
  0
LINE
  8
0
 10
-77.1895
 20
204.645
 11
-76.7
 21
204.7
  0
LINE
  8
0
 10
-76.7
 20
204.7
 11
-76.2105
 21
204.645
  0
LINE
  8
0
 10
-76.2105
 20
204.645
 11
-75.7455
 21
204.482
  0
LINE
  8
0
 10
-75.7455
 20
204.482
 11
-75.3283
 21
204.22
  0
LINE
  8
0
 10
-75.3283
 20
204.22
 11
-74.98
 21
203.872
  0
LINE
  8
0
 10
-74.98
 20
203.872
 11
-74.7179
 21
203.455
  0
LINE
  8
0
 10
-74.7179
 20
203.455
 11
-74.5552
 21
202.99
  0
LINE
  8
0
 10
-74.5552
 20
202.99
 11
-74.5
 21
202.5
  0
LINE
  8
0
 10
-74.5
 20
202.5
 11
-74.5552
 21
202.01
  0
LINE
  8
0
 10
-74.5552
 20
202.01
 11
-74.7179
 21
201.545
  0
LINE
  8
0
 10
-74.7179
 20
201.545
 11
-74.98
 21
201.128
  0
LINE
  8
0
 10
-74.98
 20
201.128
 11
-75.3283
 21
200.78
  0
LINE
  8
0
 10
-75.3283
 20
200.78
 11
-75.7455
 21
200.518
  0
LINE
  8
0
 10
-75.7455
 20
200.518
 11
-76.2105
 21
200.355
  0
LINE
  8
0
 10
-76.2105
 20
200.355
 11
-76.7
 21
200.3
  0
LINE
  8
0
 10
-76.7
 20
200.3
 11
-77.1895
 21
200.355
  0
LINE
  8
0
 10
-77.1895
 20
200.355
 11
-77.6545
 21
200.518
  0
LINE
  8
0
 10
-77.6545
 20
200.518
 11
-78.0717
 21
200.78
  0
LINE
  8
0
 10
-78.0717
 20
200.78
 11
-78.42
 21
201.128
  0
LINE
  8
0
 10
-78.42
 20
201.128
 11
-78.6821
 21
201.545
  0
LINE
  8
0
 10
-78.6821
 20
201.545
 11
-78.8448
 21
202.01
  0
LINE
  8
0
 10
-78.8448
 20
202.01
 11
-78.9
 21
202.5
  0
LINE
  8
0
 10
-40.46
 20
187.55
 11
-40.46
 21
197.55
  0
LINE
  8
0
 10
-40.46
 20
197.55
 11
-40.4048
 21
198.04
  0
LINE
  8
0
 10
-40.4048
 20
198.04
 11
-40.2421
 21
198.505
  0
LINE
  8
0
 10
-40.2421
 20
198.505
 11
-39.98
 21
198.922
  0
LINE
  8
0
 10
-39.98
 20
198.922
 11
-39.6317
 21
199.27
  0
LINE
  8
0
 10
-39.6317
 20
199.27
 11
-39.2145
 21
199.532
  0
LINE
  8
0
 10
-39.2145
 20
199.532
 11
-38.7495
 21
199.695
  0
LINE
  8
0
 10
-38.7495
 20
199.695
 11
-38.26
 21
199.75
  0
LINE
  8
0
 10
-38.26
 20
199.75
 11
-37.7705
 21
199.695
  0
LINE
  8
0
 10
-37.7705
 20
199.695
 11
-37.3055
 21
199.532
  0
LINE
  8
0
 10
-37.3055
 20
199.532
 11
-36.8883
 21
199.27
  0
LINE
  8
0
 10
-36.8883
 20
199.27
 11
-36.54
 21
198.922
  0
LINE
  8
0
 10
-36.54
 20
198.922
 11
-36.2779
 21
198.505
  0
LINE
  8
0
 10
-36.2779
 20
198.505
 11
-36.1152
 21
198.04
  0
LINE
  8
0
 10
-36.1152
 20
198.04
 11
-36.06
 21
197.55
  0
LINE
  8
0
 10
-36.06
 20
197.55
 11
-36.06
 21
187.55
  0
LINE
  8
0
 10
-36.06
 20
187.55
 11
-36.1152
 21
187.06
  0
LINE
  8
0
 10
-36.1152
 20
187.06
 11
-36.2779
 21
186.595
  0
LINE
  8
0
 10
-36.2779
 20
186.595
 11
-36.54
 21
186.178
  0
LINE
  8
0
 10
-36.54
 20
186.178
 11
-36.8883
 21
185.83
  0
LINE
  8
0
 10
-36.8883
 20
185.83
 11
-37.3055
 21
185.568
  0
LINE
  8
0
 10
-37.3055
 20
185.568
 11
-37.7705
 21
185.405
  0
LINE
  8
0
 10
-37.7705
 20
185.405
 11
-38.26
 21
185.35
  0
LINE
  8
0
 10
-38.26
 20
185.35
 11
-38.7495
 21
185.405
  0
LINE
  8
0
 10
-38.7495
 20
185.405
 11
-39.2145
 21
185.568
  0
LINE
  8
0
 10
-39.2145
 20
185.568
 11
-39.6317
 21
185.83
  0
LINE
  8
0
 10
-39.6317
 20
185.83
 11
-39.98
 21
186.178
  0
LINE
  8
0
 10
-39.98
 20
186.178
 11
-40.2421
 21
186.595
  0
LINE
  8
0
 10
-40.2421
 20
186.595
 11
-40.4048
 21
187.06
  0
LINE
  8
0
 10
-40.4048
 20
187.06
 11
-40.46
 21
187.55
  0
LINE
  8
0
 10
-30.16
 20
98.5
 11
-30.1048
 21
98.9895
  0
LINE
  8
0
 10
-30.1048
 20
98.9895
 11
-29.9421
 21
99.4545
  0
LINE
  8
0
 10
-29.9421
 20
99.4545
 11
-29.68
 21
99.8717
  0
LINE
  8
0
 10
-29.68
 20
99.8717
 11
-29.3317
 21
100.22
  0
LINE
  8
0
 10
-29.3317
 20
100.22
 11
-28.9145
 21
100.482
  0
LINE
  8
0
 10
-28.9145
 20
100.482
 11
-28.4495
 21
100.645
  0
LINE
  8
0
 10
-28.4495
 20
100.645
 11
-27.96
 21
100.7
  0
LINE
  8
0
 10
-27.96
 20
100.7
 11
-27.4705
 21
100.645
  0
LINE
  8
0
 10
-27.4705
 20
100.645
 11
-27.0055
 21
100.482
  0
LINE
  8
0
 10
-27.0055
 20
100.482
 11
-26.5883
 21
100.22
  0
LINE
  8
0
 10
-26.5883
 20
100.22
 11
-26.24
 21
99.8717
  0
LINE
  8
0
 10
-26.24
 20
99.8717
 11
-25.9779
 21
99.4545
  0
LINE
  8
0
 10
-25.9779
 20
99.4545
 11
-25.8152
 21
98.9895
  0
LINE
  8
0
 10
-25.8152
 20
98.9895
 11
-25.76
 21
98.5
  0
LINE
  8
0
 10
-25.76
 20
98.5
 11
-25.8152
 21
98.0105
  0
LINE
  8
0
 10
-25.8152
 20
98.0105
 11
-25.9779
 21
97.5455
  0
LINE
  8
0
 10
-25.9779
 20
97.5455
 11
-26.24
 21
97.1283
  0
LINE
  8
0
 10
-26.24
 20
97.1283
 11
-26.5883
 21
96.78
  0
LINE
  8
0
 10
-26.5883
 20
96.78
 11
-27.0055
 21
96.5179
  0
LINE
  8
0
 10
-27.0055
 20
96.5179
 11
-27.4705
 21
96.3552
  0
LINE
  8
0
 10
-27.4705
 20
96.3552
 11
-27.96
 21
96.3
  0
LINE
  8
0
 10
-27.96
 20
96.3
 11
-28.4495
 21
96.3552
  0
LINE
  8
0
 10
-28.4495
 20
96.3552
 11
-28.9145
 21
96.5179
  0
LINE
  8
0
 10
-28.9145
 20
96.5179
 11
-29.3317
 21
96.78
  0
LINE
  8
0
 10
-29.3317
 20
96.78
 11
-29.68
 21
97.1283
  0
LINE
  8
0
 10
-29.68
 20
97.1283
 11
-29.9421
 21
97.5455
  0
LINE
  8
0
 10
-29.9421
 20
97.5455
 11
-30.1048
 21
98.0105
  0
LINE
  8
0
 10
-30.1048
 20
98.0105
 11
-30.16
 21
98.5
  0
LINE
  8
0
 10
-21.96
 20
-141.45
 11
-21.9048
 21
-140.96
  0
LINE
  8
0
 10
-21.9048
 20
-140.96
 11
-21.7421
 21
-140.495
  0
LINE
  8
0
 10
-21.7421
 20
-140.495
 11
-21.48
 21
-140.078
  0
LINE
  8
0
 10
-21.48
 20
-140.078
 11
-21.1317
 21
-139.73
  0
LINE
  8
0
 10
-21.1317
 20
-139.73
 11
-20.7145
 21
-139.468
  0
LINE
  8
0
 10
-20.7145
 20
-139.468
 11
-20.2495
 21
-139.305
  0
LINE
  8
0
 10
-20.2495
 20
-139.305
 11
-20.0366
 21
-139.281
  0
LINE
  8
0
 10
-20.0366
 20
-139.281
 11
-19.76
 21
-139.25
  0
LINE
  8
0
 10
-19.76
 20
-139.25
 11
-19.547
 21
-139.274
  0
LINE
  8
0
 10
-19.547
 20
-139.274
 11
-19.2705
 21
-139.305
  0
LINE
  8
0
 10
-19.2705
 20
-139.305
 11
-18.8055
 21
-139.468
  0
LINE
  8
0
 10
-18.8055
 20
-139.468
 11
-18.3883
 21
-139.73
  0
LINE
  8
0
 10
-18.3883
 20
-139.73
 11
-18.04
 21
-140.078
  0
LINE
  8
0
 10
-18.04
 20
-140.078
 11
-17.7779
 21
-140.495
  0
LINE
  8
0
 10
-17.7779
 20
-140.495
 11
-17.6152
 21
-140.96
  0
LINE
  8
0
 10
-17.6152
 20
-140.96
 11
-17.56
 21
-141.45
  0
LINE
  8
0
 10
-17.56
 20
-141.45
 11
-17.6152
 21
-141.94
  0
LINE
  8
0
 10
-17.6152
 20
-141.94
 11
-17.7779
 21
-142.405
  0
LINE
  8
0
 10
-17.7779
 20
-142.405
 11
-18.04
 21
-142.822
  0
LINE
  8
0
 10
-18.04
 20
-142.822
 11
-18.3883
 21
-143.17
  0
LINE
  8
0
 10
-18.3883
 20
-143.17
 11
-18.8055
 21
-143.432
  0
LINE
  8
0
 10
-18.8055
 20
-143.432
 11
-19.2705
 21
-143.595
  0
LINE
  8
0
 10
-19.2705
 20
-143.595
 11
-19.547
 21
-143.626
  0
LINE
  8
0
 10
-19.547
 20
-143.626
 11
-19.76
 21
-143.65
  0
LINE
  8
0
 10
-19.76
 20
-143.65
 11
-20.0366
 21
-143.619
  0
LINE
  8
0
 10
-20.0366
 20
-143.619
 11
-20.2495
 21
-143.595
  0
LINE
  8
0
 10
-20.2495
 20
-143.595
 11
-20.7145
 21
-143.432
  0
LINE
  8
0
 10
-20.7145
 20
-143.432
 11
-21.1317
 21
-143.17
  0
LINE
  8
0
 10
-21.1317
 20
-143.17
 11
-21.48
 21
-142.822
  0
LINE
  8
0
 10
-21.48
 20
-142.822
 11
-21.7421
 21
-142.405
  0
LINE
  8
0
 10
-21.7421
 20
-142.405
 11
-21.9048
 21
-141.94
  0
LINE
  8
0
 10
-21.9048
 20
-141.94
 11
-21.96
 21
-141.45
  0
LINE
  8
0
 10
-21.96
 20
-202.55
 11
-21.9048
 21
-202.06
  0
LINE
  8
0
 10
-21.9048
 20
-202.06
 11
-21.7421
 21
-201.595
  0
LINE
  8
0
 10
-21.7421
 20
-201.595
 11
-21.48
 21
-201.178
  0
LINE
  8
0
 10
-21.48
 20
-201.178
 11
-21.1317
 21
-200.83
  0
LINE
  8
0
 10
-21.1317
 20
-200.83
 11
-20.7145
 21
-200.568
  0
LINE
  8
0
 10
-20.7145
 20
-200.568
 11
-20.2495
 21
-200.405
  0
LINE
  8
0
 10
-20.2495
 20
-200.405
 11
-20.0366
 21
-200.381
  0
LINE
  8
0
 10
-20.0366
 20
-200.381
 11
-19.76
 21
-200.35
  0
LINE
  8
0
 10
-19.76
 20
-200.35
 11
-19.547
 21
-200.374
  0
LINE
  8
0
 10
-19.547
 20
-200.374
 11
-19.2705
 21
-200.405
  0
LINE
  8
0
 10
-19.2705
 20
-200.405
 11
-18.8055
 21
-200.568
  0
LINE
  8
0
 10
-18.8055
 20
-200.568
 11
-18.3883
 21
-200.83
  0
LINE
  8
0
 10
-18.3883
 20
-200.83
 11
-18.04
 21
-201.178
  0
LINE
  8
0
 10
-18.04
 20
-201.178
 11
-17.7779
 21
-201.595
  0
LINE
  8
0
 10
-17.7779
 20
-201.595
 11
-17.6152
 21
-202.06
  0
LINE
  8
0
 10
-17.6152
 20
-202.06
 11
-17.56
 21
-202.55
  0
LINE
  8
0
 10
-17.56
 20
-202.55
 11
-17.6152
 21
-203.04
  0
LINE
  8
0
 10
-17.6152
 20
-203.04
 11
-17.7779
 21
-203.505
  0
LINE
  8
0
 10
-17.7779
 20
-203.505
 11
-18.04
 21
-203.922
  0
LINE
  8
0
 10
-18.04
 20
-203.922
 11
-18.3883
 21
-204.27
  0
LINE
  8
0
 10
-18.3883
 20
-204.27
 11
-18.8055
 21
-204.532
  0
LINE
  8
0
 10
-18.8055
 20
-204.532
 11
-19.2705
 21
-204.695
  0
LINE
  8
0
 10
-19.2705
 20
-204.695
 11
-19.547
 21
-204.726
  0
LINE
  8
0
 10
-19.547
 20
-204.726
 11
-19.76
 21
-204.75
  0
LINE
  8
0
 10
-19.76
 20
-204.75
 11
-20.0366
 21
-204.719
  0
LINE
  8
0
 10
-20.0366
 20
-204.719
 11
-20.2495
 21
-204.695
  0
LINE
  8
0
 10
-20.2495
 20
-204.695
 11
-20.7145
 21
-204.532
  0
LINE
  8
0
 10
-20.7145
 20
-204.532
 11
-21.1317
 21
-204.27
  0
LINE
  8
0
 10
-21.1317
 20
-204.27
 11
-21.48
 21
-203.922
  0
LINE
  8
0
 10
-21.48
 20
-203.922
 11
-21.7421
 21
-203.505
  0
LINE
  8
0
 10
-21.7421
 20
-203.505
 11
-21.9048
 21
-203.04
  0
LINE
  8
0
 10
-21.9048
 20
-203.04
 11
-21.96
 21
-202.55
  0
LINE
  8
0
 10
8.04
 20
-141.45
 11
8.09516
 21
-140.96
  0
LINE
  8
0
 10
8.09516
 20
-140.96
 11
8.25787
 21
-140.495
  0
LINE
  8
0
 10
8.25787
 20
-140.495
 11
8.51997
 21
-140.078
  0
LINE
  8
0
 10
8.51997
 20
-140.078
 11
8.86832
 21
-139.73
  0
LINE
  8
0
 10
8.86832
 20
-139.73
 11
9.28545
 21
-139.468
  0
LINE
  8
0
 10
9.28545
 20
-139.468
 11
9.75045
 21
-139.305
  0
LINE
  8
0
 10
9.75045
 20
-139.305
 11
9.96341
 21
-139.281
  0
LINE
  8
0
 10
9.96341
 20
-139.281
 11
10.24
 21
-139.25
  0
LINE
  8
0
 10
10.24
 20
-139.25
 11
10.453
 21
-139.274
  0
LINE
  8
0
 10
10.453
 20
-139.274
 11
10.7295
 21
-139.305
  0
LINE
  8
0
 10
10.7295
 20
-139.305
 11
11.1945
 21
-139.468
  0
LINE
  8
0
 10
11.1945
 20
-139.468
 11
11.6117
 21
-139.73
  0
LINE
  8
0
 10
11.6117
 20
-139.73
 11
11.96
 21
-140.078
  0
LINE
  8
0
 10
11.96
 20
-140.078
 11
12.2221
 21
-140.495
  0
LINE
  8
0
 10
12.2221
 20
-140.495
 11
12.3848
 21
-140.96
  0
LINE
  8
0
 10
12.3848
 20
-140.96
 11
12.44
 21
-141.45
  0
LINE
  8
0
 10
12.44
 20
-141.45
 11
12.3848
 21
-141.94
  0
LINE
  8
0
 10
12.3848
 20
-141.94
 11
12.2221
 21
-142.405
  0
LINE
  8
0
 10
12.2221
 20
-142.405
 11
11.96
 21
-142.822
  0
LINE
  8
0
 10
11.96
 20
-142.822
 11
11.6117
 21
-143.17
  0
LINE
  8
0
 10
11.6117
 20
-143.17
 11
11.1945
 21
-143.432
  0
LINE
  8
0
 10
11.1945
 20
-143.432
 11
10.7295
 21
-143.595
  0
LINE
  8
0
 10
10.7295
 20
-143.595
 11
10.453
 21
-143.626
  0
LINE
  8
0
 10
10.453
 20
-143.626
 11
10.24
 21
-143.65
  0
LINE
  8
0
 10
10.24
 20
-143.65
 11
9.96341
 21
-143.619
  0
LINE
  8
0
 10
9.96341
 20
-143.619
 11
9.75045
 21
-143.595
  0
LINE
  8
0
 10
9.75045
 20
-143.595
 11
9.28545
 21
-143.432
  0
LINE
  8
0
 10
9.28545
 20
-143.432
 11
8.86832
 21
-143.17
  0
LINE
  8
0
 10
8.86832
 20
-143.17
 11
8.51997
 21
-142.822
  0
LINE
  8
0
 10
8.51997
 20
-142.822
 11
8.25787
 21
-142.405
  0
LINE
  8
0
 10
8.25787
 20
-142.405
 11
8.09516
 21
-141.94
  0
LINE
  8
0
 10
8.09516
 20
-141.94
 11
8.04
 21
-141.45
  0
LINE
  8
0
 10
8.04
 20
-202.55
 11
8.09516
 21
-202.06
  0
LINE
  8
0
 10
8.09516
 20
-202.06
 11
8.25787
 21
-201.595
  0
LINE
  8
0
 10
8.25787
 20
-201.595
 11
8.51997
 21
-201.178
  0
LINE
  8
0
 10
8.51997
 20
-201.178
 11
8.86832
 21
-200.83
  0
LINE
  8
0
 10
8.86832
 20
-200.83
 11
9.28545
 21
-200.568
  0
LINE
  8
0
 10
9.28545
 20
-200.568
 11
9.75045
 21
-200.405
  0
LINE
  8
0
 10
9.75045
 20
-200.405
 11
9.96341
 21
-200.381
  0
LINE
  8
0
 10
9.96341
 20
-200.381
 11
10.24
 21
-200.35
  0
LINE
  8
0
 10
10.24
 20
-200.35
 11
10.453
 21
-200.374
  0
LINE
  8
0
 10
10.453
 20
-200.374
 11
10.7295
 21
-200.405
  0
LINE
  8
0
 10
10.7295
 20
-200.405
 11
11.1945
 21
-200.568
  0
LINE
  8
0
 10
11.1945
 20
-200.568
 11
11.6117
 21
-200.83
  0
LINE
  8
0
 10
11.6117
 20
-200.83
 11
11.96
 21
-201.178
  0
LINE
  8
0
 10
11.96
 20
-201.178
 11
12.2221
 21
-201.595
  0
LINE
  8
0
 10
12.2221
 20
-201.595
 11
12.3848
 21
-202.06
  0
LINE
  8
0
 10
12.3848
 20
-202.06
 11
12.44
 21
-202.55
  0
LINE
  8
0
 10
12.44
 20
-202.55
 11
12.3848
 21
-203.04
  0
LINE
  8
0
 10
12.3848
 20
-203.04
 11
12.2221
 21
-203.505
  0
LINE
  8
0
 10
12.2221
 20
-203.505
 11
11.96
 21
-203.922
  0
LINE
  8
0
 10
11.96
 20
-203.922
 11
11.6117
 21
-204.27
  0
LINE
  8
0
 10
11.6117
 20
-204.27
 11
11.1945
 21
-204.532
  0
LINE
  8
0
 10
11.1945
 20
-204.532
 11
10.7295
 21
-204.695
  0
LINE
  8
0
 10
10.7295
 20
-204.695
 11
10.453
 21
-204.726
  0
LINE
  8
0
 10
10.453
 20
-204.726
 11
10.24
 21
-204.75
  0
LINE
  8
0
 10
10.24
 20
-204.75
 11
9.96341
 21
-204.719
  0
LINE
  8
0
 10
9.96341
 20
-204.719
 11
9.75045
 21
-204.695
  0
LINE
  8
0
 10
9.75045
 20
-204.695
 11
9.28545
 21
-204.532
  0
LINE
  8
0
 10
9.28545
 20
-204.532
 11
8.86832
 21
-204.27
  0
LINE
  8
0
 10
8.86832
 20
-204.27
 11
8.51997
 21
-203.922
  0
LINE
  8
0
 10
8.51997
 20
-203.922
 11
8.25787
 21
-203.505
  0
LINE
  8
0
 10
8.25787
 20
-203.505
 11
8.09516
 21
-203.04
  0
LINE
  8
0
 10
8.09516
 20
-203.04
 11
8.04
 21
-202.55
  0
LINE
  8
0
 10
12.26
 20
98.5
 11
12.3152
 21
98.9895
  0
LINE
  8
0
 10
12.3152
 20
98.9895
 11
12.4779
 21
99.4545
  0
LINE
  8
0
 10
12.4779
 20
99.4545
 11
12.74
 21
99.8717
  0
LINE
  8
0
 10
12.74
 20
99.8717
 11
13.0883
 21
100.22
  0
LINE
  8
0
 10
13.0883
 20
100.22
 11
13.5055
 21
100.482
  0
LINE
  8
0
 10
13.5055
 20
100.482
 11
13.9705
 21
100.645
  0
LINE
  8
0
 10
13.9705
 20
100.645
 11
14.46
 21
100.7
  0
LINE
  8
0
 10
14.46
 20
100.7
 11
14.9495
 21
100.645
  0
LINE
  8
0
 10
14.9495
 20
100.645
 11
15.4145
 21
100.482
  0
LINE
  8
0
 10
15.4145
 20
100.482
 11
15.8317
 21
100.22
  0
LINE
  8
0
 10
15.8317
 20
100.22
 11
16.18
 21
99.8717
  0
LINE
  8
0
 10
16.18
 20
99.8717
 11
16.4421
 21
99.4545
  0
LINE
  8
0
 10
16.4421
 20
99.4545
 11
16.6048
 21
98.9895
  0
LINE
  8
0
 10
16.6048
 20
98.9895
 11
16.66
 21
98.5
  0
LINE
  8
0
 10
16.66
 20
98.5
 11
16.6048
 21
98.0105
  0
LINE
  8
0
 10
16.6048
 20
98.0105
 11
16.4421
 21
97.5455
  0
LINE
  8
0
 10
16.4421
 20
97.5455
 11
16.18
 21
97.1283
  0
LINE
  8
0
 10
16.18
 20
97.1283
 11
15.8317
 21
96.78
  0
LINE
  8
0
 10
15.8317
 20
96.78
 11
15.4145
 21
96.5179
  0
LINE
  8
0
 10
15.4145
 20
96.5179
 11
14.9495
 21
96.3552
  0
LINE
  8
0
 10
14.9495
 20
96.3552
 11
14.46
 21
96.3
  0
LINE
  8
0
 10
14.46
 20
96.3
 11
13.9705
 21
96.3552
  0
LINE
  8
0
 10
13.9705
 20
96.3552
 11
13.5055
 21
96.5179
  0
LINE
  8
0
 10
13.5055
 20
96.5179
 11
13.0883
 21
96.78
  0
LINE
  8
0
 10
13.0883
 20
96.78
 11
12.74
 21
97.1283
  0
LINE
  8
0
 10
12.74
 20
97.1283
 11
12.4779
 21
97.5455
  0
LINE
  8
0
 10
12.4779
 20
97.5455
 11
12.3152
 21
98.0105
  0
LINE
  8
0
 10
12.3152
 20
98.0105
 11
12.26
 21
98.5
  0
LINE
  8
0
 10
16.0051
 20
130.376
 11
16.0459
 21
130.868
  0
LINE
  8
0
 10
16.0459
 20
130.868
 11
16.2443
 21
131.32
  0
LINE
  8
0
 10
16.2443
 20
131.32
 11
16.5787
 21
131.684
  0
LINE
  8
0
 10
16.5787
 20
131.684
 11
17.013
 21
131.919
  0
LINE
  8
0
 10
17.013
 20
131.919
 11
17.5
 21
132
  0
LINE
  8
0
 10
17.5
 20
132
 11
17.9871
 21
131.919
  0
LINE
  8
0
 10
17.9871
 20
131.919
 11
18.4213
 21
131.684
  0
LINE
  8
0
 10
18.4213
 20
131.684
 11
18.7558
 21
131.32
  0
LINE
  8
0
 10
18.7558
 20
131.32
 11
18.9541
 21
130.868
  0
LINE
  8
0
 10
18.9541
 20
130.868
 11
18.9949
 21
130.376
  0
LINE
  8
0
 10
18.9949
 20
130.376
 11
18.8737
 21
129.897
  0
LINE
  8
0
 10
18.8737
 20
129.897
 11
18.6036
 21
129.484
  0
LINE
  8
0
 10
18.6036
 20
129.484
 11
18.2139
 21
129.181
  0
LINE
  8
0
 10
18.2139
 20
129.181
 11
17.7469
 21
129.02
  0
LINE
  8
0
 10
17.7469
 20
129.02
 11
17.2531
 21
129.02
  0
LINE
  8
0
 10
17.2531
 20
129.02
 11
16.7861
 21
129.181
  0
LINE
  8
0
 10
16.7861
 20
129.181
 11
16.3964
 21
129.484
  0
LINE
  8
0
 10
16.3964
 20
129.484
 11
16.1263
 21
129.897
  0
LINE
  8
0
 10
16.1263
 20
129.897
 11
16.0051
 21
130.376
  0
LINE
  8
0
 10
16.0051
 20
136.176
 11
16.0459
 21
136.668
  0
LINE
  8
0
 10
16.0459
 20
136.668
 11
16.2443
 21
137.12
  0
LINE
  8
0
 10
16.2443
 20
137.12
 11
16.5787
 21
137.484
  0
LINE
  8
0
 10
16.5787
 20
137.484
 11
17.013
 21
137.719
  0
LINE
  8
0
 10
17.013
 20
137.719
 11
17.5
 21
137.8
  0
LINE
  8
0
 10
17.5
 20
137.8
 11
17.9871
 21
137.719
  0
LINE
  8
0
 10
17.9871
 20
137.719
 11
18.4213
 21
137.484
  0
LINE
  8
0
 10
18.4213
 20
137.484
 11
18.7558
 21
137.12
  0
LINE
  8
0
 10
18.7558
 20
137.12
 11
18.9541
 21
136.668
  0
LINE
  8
0
 10
18.9541
 20
136.668
 11
18.9949
 21
136.176
  0
LINE
  8
0
 10
18.9949
 20
136.176
 11
18.8737
 21
135.697
  0
LINE
  8
0
 10
18.8737
 20
135.697
 11
18.6036
 21
135.284
  0
LINE
  8
0
 10
18.6036
 20
135.284
 11
18.2139
 21
134.981
  0
LINE
  8
0
 10
18.2139
 20
134.981
 11
17.7469
 21
134.82
  0
LINE
  8
0
 10
17.7469
 20
134.82
 11
17.2531
 21
134.82
  0
LINE
  8
0
 10
17.2531
 20
134.82
 11
16.7861
 21
134.981
  0
LINE
  8
0
 10
16.7861
 20
134.981
 11
16.3964
 21
135.284
  0
LINE
  8
0
 10
16.3964
 20
135.284
 11
16.1263
 21
135.697
  0
LINE
  8
0
 10
16.1263
 20
135.697
 11
16.0051
 21
136.176
  0
LINE
  8
0
 10
17.24
 20
-172
 11
17.288
 21
-171.512
  0
LINE
  8
0
 10
17.288
 20
-171.512
 11
17.4303
 21
-171.043
  0
LINE
  8
0
 10
17.4303
 20
-171.043
 11
17.6613
 21
-170.611
  0
LINE
  8
0
 10
17.6613
 20
-170.611
 11
17.9722
 21
-170.232
  0
LINE
  8
0
 10
17.9722
 20
-170.232
 11
18.3511
 21
-169.921
  0
LINE
  8
0
 10
18.3511
 20
-169.921
 11
18.7833
 21
-169.69
  0
LINE
  8
0
 10
18.7833
 20
-169.69
 11
19.2523
 21
-169.548
  0
LINE
  8
0
 10
19.2523
 20
-169.548
 11
19.74
 21
-169.5
  0
LINE
  8
0
 10
19.74
 20
-169.5
 11
20.2277
 21
-169.548
  0
LINE
  8
0
 10
20.2277
 20
-169.548
 11
20.6967
 21
-169.69
  0
LINE
  8
0
 10
20.6967
 20
-169.69
 11
21.1289
 21
-169.921
  0
LINE
  8
0
 10
21.1289
 20
-169.921
 11
21.5078
 21
-170.232
  0
LINE
  8
0
 10
21.5078
 20
-170.232
 11
21.8187
 21
-170.611
  0
LINE
  8
0
 10
21.8187
 20
-170.611
 11
22.0497
 21
-171.043
  0
LINE
  8
0
 10
22.0497
 20
-171.043
 11
22.192
 21
-171.512
  0
LINE
  8
0
 10
22.192
 20
-171.512
 11
22.24
 21
-172
  0
LINE
  8
0
 10
22.24
 20
-172
 11
22.192
 21
-172.488
  0
LINE
  8
0
 10
22.192
 20
-172.488
 11
22.0497
 21
-172.957
  0
LINE
  8
0
 10
22.0497
 20
-172.957
 11
21.8187
 21
-173.389
  0
LINE
  8
0
 10
21.8187
 20
-173.389
 11
21.5078
 21
-173.768
  0
LINE
  8
0
 10
21.5078
 20
-173.768
 11
21.1289
 21
-174.079
  0
LINE
  8
0
 10
21.1289
 20
-174.079
 11
20.6967
 21
-174.31
  0
LINE
  8
0
 10
20.6967
 20
-174.31
 11
20.2277
 21
-174.452
  0
LINE
  8
0
 10
20.2277
 20
-174.452
 11
19.74
 21
-174.5
  0
LINE
  8
0
 10
19.74
 20
-174.5
 11
19.2523
 21
-174.452
  0
LINE
  8
0
 10
19.2523
 20
-174.452
 11
18.7833
 21
-174.31
  0
LINE
  8
0
 10
18.7833
 20
-174.31
 11
18.3511
 21
-174.079
  0
LINE
  8
0
 10
18.3511
 20
-174.079
 11
17.9722
 21
-173.768
  0
LINE
  8
0
 10
17.9722
 20
-173.768
 11
17.6613
 21
-173.389
  0
LINE
  8
0
 10
17.6613
 20
-173.389
 11
17.4303
 21
-172.957
  0
LINE
  8
0
 10
17.4303
 20
-172.957
 11
17.288
 21
-172.488
  0
LINE
  8
0
 10
17.288
 20
-172.488
 11
17.24
 21
-172
  0
LINE
  8
0
 10
21.0051
 20
141.824
 11
21.1263
 21
142.303
  0
LINE
  8
0
 10
21.1263
 20
142.303
 11
21.3964
 21
142.716
  0
LINE
  8
0
 10
21.3964
 20
142.716
 11
21.7861
 21
143.019
  0
LINE
  8
0
 10
21.7861
 20
143.019
 11
22.2531
 21
143.18
  0
LINE
  8
0
 10
22.2531
 20
143.18
 11
22.7469
 21
143.18
  0
LINE
  8
0
 10
22.7469
 20
143.18
 11
23.2139
 21
143.019
  0
LINE
  8
0
 10
23.2139
 20
143.019
 11
23.6036
 21
142.716
  0
LINE
  8
0
 10
23.6036
 20
142.716
 11
23.8737
 21
142.303
  0
LINE
  8
0
 10
23.8737
 20
142.303
 11
23.9949
 21
141.824
  0
LINE
  8
0
 10
23.9949
 20
141.824
 11
23.9541
 21
141.332
  0
LINE
  8
0
 10
23.9541
 20
141.332
 11
23.7557
 21
140.88
  0
LINE
  8
0
 10
23.7557
 20
140.88
 11
23.4213
 21
140.516
  0
LINE
  8
0
 10
23.4213
 20
140.516
 11
22.987
 21
140.281
  0
LINE
  8
0
 10
22.987
 20
140.281
 11
22.5
 21
140.2
  0
LINE
  8
0
 10
22.5
 20
140.2
 11
22.0129
 21
140.281
  0
LINE
  8
0
 10
22.0129
 20
140.281
 11
21.5787
 21
140.516
  0
LINE
  8
0
 10
21.5787
 20
140.516
 11
21.2442
 21
140.88
  0
LINE
  8
0
 10
21.2442
 20
140.88
 11
21.0459
 21
141.332
  0
LINE
  8
0
 10
21.0459
 20
141.332
 11
21.0051
 21
141.824
  0
LINE
  8
0
 10
21.0051
 20
150.424
 11
21.1263
 21
150.903
  0
LINE
  8
0
 10
21.1263
 20
150.903
 11
21.3964
 21
151.316
  0
LINE
  8
0
 10
21.3964
 20
151.316
 11
21.7861
 21
151.619
  0
LINE
  8
0
 10
21.7861
 20
151.619
 11
22.2531
 21
151.78
  0
LINE
  8
0
 10
22.2531
 20
151.78
 11
22.7469
 21
151.78
  0
LINE
  8
0
 10
22.7469
 20
151.78
 11
23.2139
 21
151.619
  0
LINE
  8
0
 10
23.2139
 20
151.619
 11
23.6036
 21
151.316
  0
LINE
  8
0
 10
23.6036
 20
151.316
 11
23.8737
 21
150.903
  0
LINE
  8
0
 10
23.8737
 20
150.903
 11
23.9949
 21
150.424
  0
LINE
  8
0
 10
23.9949
 20
150.424
 11
23.9541
 21
149.932
  0
LINE
  8
0
 10
23.9541
 20
149.932
 11
23.7557
 21
149.48
  0
LINE
  8
0
 10
23.7557
 20
149.48
 11
23.4213
 21
149.116
  0
LINE
  8
0
 10
23.4213
 20
149.116
 11
22.987
 21
148.881
  0
LINE
  8
0
 10
22.987
 20
148.881
 11
22.5
 21
148.8
  0
LINE
  8
0
 10
22.5
 20
148.8
 11
22.0129
 21
148.881
  0
LINE
  8
0
 10
22.0129
 20
148.881
 11
21.5787
 21
149.116
  0
LINE
  8
0
 10
21.5787
 20
149.116
 11
21.2442
 21
149.48
  0
LINE
  8
0
 10
21.2442
 20
149.48
 11
21.0459
 21
149.932
  0
LINE
  8
0
 10
21.0459
 20
149.932
 11
21.0051
 21
150.424
  0
LINE
  8
0
 10
61
 20
-134
 11
61.0552
 21
-133.51
  0
LINE
  8
0
 10
61.0552
 20
-133.51
 11
61.2179
 21
-133.045
  0
LINE
  8
0
 10
61.2179
 20
-133.045
 11
61.48
 21
-132.628
  0
LINE
  8
0
 10
61.48
 20
-132.628
 11
61.8283
 21
-132.28
  0
LINE
  8
0
 10
61.8283
 20
-132.28
 11
62.2455
 21
-132.018
  0
LINE
  8
0
 10
62.2455
 20
-132.018
 11
62.7105
 21
-131.855
  0
LINE
  8
0
 10
62.7105
 20
-131.855
 11
63.2
 21
-131.8
  0
LINE
  8
0
 10
63.2
 20
-131.8
 11
63.6895
 21
-131.855
  0
LINE
  8
0
 10
63.6895
 20
-131.855
 11
64.1545
 21
-132.018
  0
LINE
  8
0
 10
64.1545
 20
-132.018
 11
64.5717
 21
-132.28
  0
LINE
  8
0
 10
64.5717
 20
-132.28
 11
64.92
 21
-132.628
  0
LINE
  8
0
 10
64.92
 20
-132.628
 11
65.1821
 21
-133.045
  0
LINE
  8
0
 10
65.1821
 20
-133.045
 11
65.3448
 21
-133.51
  0
LINE
  8
0
 10
65.3448
 20
-133.51
 11
65.4
 21
-134
  0
LINE
  8
0
 10
65.4
 20
-134
 11
65.3448
 21
-134.49
  0
LINE
  8
0
 10
65.3448
 20
-134.49
 11
65.1821
 21
-134.955
  0
LINE
  8
0
 10
65.1821
 20
-134.955
 11
64.92
 21
-135.372
  0
LINE
  8
0
 10
64.92
 20
-135.372
 11
64.5717
 21
-135.72
  0
LINE
  8
0
 10
64.5717
 20
-135.72
 11
64.1545
 21
-135.982
  0
LINE
  8
0
 10
64.1545
 20
-135.982
 11
63.6895
 21
-136.145
  0
LINE
  8
0
 10
63.6895
 20
-136.145
 11
63.2
 21
-136.2
  0
LINE
  8
0
 10
63.2
 20
-136.2
 11
62.7105
 21
-136.145
  0
LINE
  8
0
 10
62.7105
 20
-136.145
 11
62.2455
 21
-135.982
  0
LINE
  8
0
 10
62.2455
 20
-135.982
 11
61.8283
 21
-135.72
  0
LINE
  8
0
 10
61.8283
 20
-135.72
 11
61.48
 21
-135.372
  0
LINE
  8
0
 10
61.48
 20
-135.372
 11
61.2179
 21
-134.955
  0
LINE
  8
0
 10
61.2179
 20
-134.955
 11
61.0552
 21
-134.49
  0
LINE
  8
0
 10
61.0552
 20
-134.49
 11
61
 21
-134
  0
LINE
  8
0
 10
61
 20
123
 11
61.0552
 21
123.49
  0
LINE
  8
0
 10
61.0552
 20
123.49
 11
61.2179
 21
123.955
  0
LINE
  8
0
 10
61.2179
 20
123.955
 11
61.48
 21
124.372
  0
LINE
  8
0
 10
61.48
 20
124.372
 11
61.8283
 21
124.72
  0
LINE
  8
0
 10
61.8283
 20
124.72
 11
62.2455
 21
124.982
  0
LINE
  8
0
 10
62.2455
 20
124.982
 11
62.7105
 21
125.145
  0
LINE
  8
0
 10
62.7105
 20
125.145
 11
63.2
 21
125.2
  0
LINE
  8
0
 10
63.2
 20
125.2
 11
63.6895
 21
125.145
  0
LINE
  8
0
 10
63.6895
 20
125.145
 11
64.1545
 21
124.982
  0
LINE
  8
0
 10
64.1545
 20
124.982
 11
64.5717
 21
124.72
  0
LINE
  8
0
 10
64.5717
 20
124.72
 11
64.92
 21
124.372
  0
LINE
  8
0
 10
64.92
 20
124.372
 11
65.1821
 21
123.955
  0
LINE
  8
0
 10
65.1821
 20
123.955
 11
65.3448
 21
123.49
  0
LINE
  8
0
 10
65.3448
 20
123.49
 11
65.4
 21
123
  0
LINE
  8
0
 10
65.4
 20
123
 11
65.3448
 21
122.51
  0
LINE
  8
0
 10
65.3448
 20
122.51
 11
65.1821
 21
122.045
  0
LINE
  8
0
 10
65.1821
 20
122.045
 11
64.92
 21
121.628
  0
LINE
  8
0
 10
64.92
 20
121.628
 11
64.5717
 21
121.28
  0
LINE
  8
0
 10
64.5717
 20
121.28
 11
64.1545
 21
121.018
  0
LINE
  8
0
 10
64.1545
 20
121.018
 11
63.6895
 21
120.855
  0
LINE
  8
0
 10
63.6895
 20
120.855
 11
63.2
 21
120.8
  0
LINE
  8
0
 10
63.2
 20
120.8
 11
62.7105
 21
120.855
  0
LINE
  8
0
 10
62.7105
 20
120.855
 11
62.2455
 21
121.018
  0
LINE
  8
0
 10
62.2455
 20
121.018
 11
61.8283
 21
121.28
  0
LINE
  8
0
 10
61.8283
 20
121.28
 11
61.48
 21
121.628
  0
LINE
  8
0
 10
61.48
 20
121.628
 11
61.2179
 21
122.045
  0
LINE
  8
0
 10
61.2179
 20
122.045
 11
61.0552
 21
122.51
  0
LINE
  8
0
 10
61.0552
 20
122.51
 11
61
 21
123
  0
LINE
  8
0
 10
91.1
 20
-134
 11
91.1552
 21
-133.51
  0
LINE
  8
0
 10
91.1552
 20
-133.51
 11
91.3179
 21
-133.045
  0
LINE
  8
0
 10
91.3179
 20
-133.045
 11
91.58
 21
-132.628
  0
LINE
  8
0
 10
91.58
 20
-132.628
 11
91.9283
 21
-132.28
  0
LINE
  8
0
 10
91.9283
 20
-132.28
 11
92.3455
 21
-132.018
  0
LINE
  8
0
 10
92.3455
 20
-132.018
 11
92.8105
 21
-131.855
  0
LINE
  8
0
 10
92.8105
 20
-131.855
 11
93.3
 21
-131.8
  0
LINE
  8
0
 10
93.3
 20
-131.8
 11
93.7895
 21
-131.855
  0
LINE
  8
0
 10
93.7895
 20
-131.855
 11
94.2545
 21
-132.018
  0
LINE
  8
0
 10
94.2545
 20
-132.018
 11
94.6717
 21
-132.28
  0
LINE
  8
0
 10
94.6717
 20
-132.28
 11
95.02
 21
-132.628
  0
LINE
  8
0
 10
95.02
 20
-132.628
 11
95.2821
 21
-133.045
  0
LINE
  8
0
 10
95.2821
 20
-133.045
 11
95.4448
 21
-133.51
  0
LINE
  8
0
 10
95.4448
 20
-133.51
 11
95.5
 21
-134
  0
LINE
  8
0
 10
95.5
 20
-134
 11
95.4448
 21
-134.49
  0
LINE
  8
0
 10
95.4448
 20
-134.49
 11
95.2821
 21
-134.955
  0
LINE
  8
0
 10
95.2821
 20
-134.955
 11
95.02
 21
-135.372
  0
LINE
  8
0
 10
95.02
 20
-135.372
 11
94.6717
 21
-135.72
  0
LINE
  8
0
 10
94.6717
 20
-135.72
 11
94.2545
 21
-135.982
  0
LINE
  8
0
 10
94.2545
 20
-135.982
 11
93.7895
 21
-136.145
  0
LINE
  8
0
 10
93.7895
 20
-136.145
 11
93.3
 21
-136.2
  0
LINE
  8
0
 10
93.3
 20
-136.2
 11
92.8105
 21
-136.145
  0
LINE
  8
0
 10
92.8105
 20
-136.145
 11
92.3455
 21
-135.982
  0
LINE
  8
0
 10
92.3455
 20
-135.982
 11
91.9283
 21
-135.72
  0
LINE
  8
0
 10
91.9283
 20
-135.72
 11
91.58
 21
-135.372
  0
LINE
  8
0
 10
91.58
 20
-135.372
 11
91.3179
 21
-134.955
  0
LINE
  8
0
 10
91.3179
 20
-134.955
 11
91.1552
 21
-134.49
  0
LINE
  8
0
 10
91.1552
 20
-134.49
 11
91.1
 21
-134
  0
LINE
  8
0
 10
91.1
 20
123
 11
91.1552
 21
123.49
  0
LINE
  8
0
 10
91.1552
 20
123.49
 11
91.3179
 21
123.955
  0
LINE
  8
0
 10
91.3179
 20
123.955
 11
91.58
 21
124.372
  0
LINE
  8
0
 10
91.58
 20
124.372
 11
91.9283
 21
124.72
  0
LINE
  8
0
 10
91.9283
 20
124.72
 11
92.3455
 21
124.982
  0
LINE
  8
0
 10
92.3455
 20
124.982
 11
92.8105
 21
125.145
  0
LINE
  8
0
 10
92.8105
 20
125.145
 11
93.3
 21
125.2
  0
LINE
  8
0
 10
93.3
 20
125.2
 11
93.7895
 21
125.145
  0
LINE
  8
0
 10
93.7895
 20
125.145
 11
94.2545
 21
124.982
  0
LINE
  8
0
 10
94.2545
 20
124.982
 11
94.6717
 21
124.72
  0
LINE
  8
0
 10
94.6717
 20
124.72
 11
95.02
 21
124.372
  0
LINE
  8
0
 10
95.02
 20
124.372
 11
95.2821
 21
123.955
  0
LINE
  8
0
 10
95.2821
 20
123.955
 11
95.4448
 21
123.49
  0
LINE
  8
0
 10
95.4448
 20
123.49
 11
95.5
 21
123
  0
LINE
  8
0
 10
95.5
 20
123
 11
95.4448
 21
122.51
  0
LINE
  8
0
 10
95.4448
 20
122.51
 11
95.2821
 21
122.045
  0
LINE
  8
0
 10
95.2821
 20
122.045
 11
95.02
 21
121.628
  0
LINE
  8
0
 10
95.02
 20
121.628
 11
94.6717
 21
121.28
  0
LINE
  8
0
 10
94.6717
 20
121.28
 11
94.2545
 21
121.018
  0
LINE
  8
0
 10
94.2545
 20
121.018
 11
93.7895
 21
120.855
  0
LINE
  8
0
 10
93.7895
 20
120.855
 11
93.3
 21
120.8
  0
LINE
  8
0
 10
93.3
 20
120.8
 11
92.8105
 21
120.855
  0
LINE
  8
0
 10
92.8105
 20
120.855
 11
92.3455
 21
121.018
  0
LINE
  8
0
 10
92.3455
 20
121.018
 11
91.9283
 21
121.28
  0
LINE
  8
0
 10
91.9283
 20
121.28
 11
91.58
 21
121.628
  0
LINE
  8
0
 10
91.58
 20
121.628
 11
91.3179
 21
122.045
  0
LINE
  8
0
 10
91.3179
 20
122.045
 11
91.1552
 21
122.51
  0
LINE
  8
0
 10
91.1552
 20
122.51
 11
91.1
 21
123
  0
LINE
  8
0
 10
92.75
 20
-120
 11
92.8081
 21
-119.521
  0
LINE
  8
0
 10
92.8081
 20
-119.521
 11
92.9791
 21
-119.071
  0
LINE
  8
0
 10
92.9791
 20
-119.071
 11
93.253
 21
-118.674
  0
LINE
  8
0
 10
93.253
 20
-118.674
 11
93.6139
 21
-118.354
  0
LINE
  8
0
 10
93.6139
 20
-118.354
 11
94.0408
 21
-118.13
  0
LINE
  8
0
 10
94.0408
 20
-118.13
 11
94.5089
 21
-118.015
  0
LINE
  8
0
 10
94.5089
 20
-118.015
 11
94.9911
 21
-118.015
  0
LINE
  8
0
 10
94.9911
 20
-118.015
 11
95.4592
 21
-118.13
  0
LINE
  8
0
 10
95.4592
 20
-118.13
 11
95.8861
 21
-118.354
  0
LINE
  8
0
 10
95.8861
 20
-118.354
 11
96.247
 21
-118.674
  0
LINE
  8
0
 10
96.247
 20
-118.674
 11
96.5209
 21
-119.071
  0
LINE
  8
0
 10
96.5209
 20
-119.071
 11
96.6919
 21
-119.521
  0
LINE
  8
0
 10
96.6919
 20
-119.521
 11
96.75
 21
-120
  0
LINE
  8
0
 10
96.75
 20
-120
 11
96.6919
 21
-120.479
  0
LINE
  8
0
 10
96.6919
 20
-120.479
 11
96.5209
 21
-120.929
  0
LINE
  8
0
 10
96.5209
 20
-120.929
 11
96.247
 21
-121.326
  0
LINE
  8
0
 10
96.247
 20
-121.326
 11
95.8861
 21
-121.646
  0
LINE
  8
0
 10
95.8861
 20
-121.646
 11
95.4592
 21
-121.87
  0
LINE
  8
0
 10
95.4592
 20
-121.87
 11
94.9911
 21
-121.985
  0
LINE
  8
0
 10
94.9911
 20
-121.985
 11
94.5089
 21
-121.985
  0
LINE
  8
0
 10
94.5089
 20
-121.985
 11
94.0408
 21
-121.87
  0
LINE
  8
0
 10
94.0408
 20
-121.87
 11
93.6139
 21
-121.646
  0
LINE
  8
0
 10
93.6139
 20
-121.646
 11
93.253
 21
-121.326
  0
LINE
  8
0
 10
93.253
 20
-121.326
 11
92.9791
 21
-120.929
  0
LINE
  8
0
 10
92.9791
 20
-120.929
 11
92.8081
 21
-120.479
  0
LINE
  8
0
 10
92.8081
 20
-120.479
 11
92.75
 21
-120
  0
LINE
  8
0
 10
99.2705
 20
-112.747
 11
99.2705
 21
-112.253
  0
LINE
  8
0
 10
99.2705
 20
-112.253
 11
99.4308
 21
-111.786
  0
LINE
  8
0
 10
99.4308
 20
-111.786
 11
99.7341
 21
-111.396
  0
LINE
  8
0
 10
99.7341
 20
-111.396
 11
100.147
 21
-111.126
  0
LINE
  8
0
 10
100.147
 20
-111.126
 11
100.626
 21
-111.005
  0
LINE
  8
0
 10
100.626
 20
-111.005
 11
101.118
 21
-111.046
  0
LINE
  8
0
 10
101.118
 20
-111.046
 11
101.57
 21
-111.244
  0
LINE
  8
0
 10
101.57
 20
-111.244
 11
101.934
 21
-111.579
  0
LINE
  8
0
 10
101.934
 20
-111.579
 11
102.169
 21
-112.013
  0
LINE
  8
0
 10
102.169
 20
-112.013
 11
102.25
 21
-112.5
  0
LINE
  8
0
 10
102.25
 20
-112.5
 11
102.169
 21
-112.987
  0
LINE
  8
0
 10
102.169
 20
-112.987
 11
101.934
 21
-113.421
  0
LINE
  8
0
 10
101.934
 20
-113.421
 11
101.57
 21
-113.756
  0
LINE
  8
0
 10
101.57
 20
-113.756
 11
101.118
 21
-113.954
  0
LINE
  8
0
 10
101.118
 20
-113.954
 11
100.626
 21
-113.995
  0
LINE
  8
0
 10
100.626
 20
-113.995
 11
100.147
 21
-113.874
  0
LINE
  8
0
 10
100.147
 20
-113.874
 11
99.7341
 21
-113.604
  0
LINE
  8
0
 10
99.7341
 20
-113.604
 11
99.4308
 21
-113.214
  0
LINE
  8
0
 10
99.4308
 20
-113.214
 11
99.2705
 21
-112.747
  0
LINE
  8
0
 10
99.2705
 20
55.1531
 11
99.2705
 21
55.6469
  0
LINE
  8
0
 10
99.2705
 20
55.6469
 11
99.4308
 21
56.1139
  0
LINE
  8
0
 10
99.4308
 20
56.1139
 11
99.7341
 21
56.5036
  0
LINE
  8
0
 10
99.7341
 20
56.5036
 11
100.147
 21
56.7737
  0
LINE
  8
0
 10
100.147
 20
56.7737
 11
100.626
 21
56.8949
  0
LINE
  8
0
 10
100.626
 20
56.8949
 11
101.118
 21
56.8541
  0
LINE
  8
0
 10
101.118
 20
56.8541
 11
101.57
 21
56.6557
  0
LINE
  8
0
 10
101.57
 20
56.6557
 11
101.934
 21
56.3213
  0
LINE
  8
0
 10
101.934
 20
56.3213
 11
102.169
 21
55.887
  0
LINE
  8
0
 10
102.169
 20
55.887
 11
102.25
 21
55.4
  0
LINE
  8
0
 10
102.25
 20
55.4
 11
102.169
 21
54.9129
  0
LINE
  8
0
 10
102.169
 20
54.9129
 11
101.934
 21
54.4787
  0
LINE
  8
0
 10
101.934
 20
54.4787
 11
101.57
 21
54.1442
  0
LINE
  8
0
 10
101.57
 20
54.1442
 11
101.118
 21
53.9459
  0
LINE
  8
0
 10
101.118
 20
53.9459
 11
100.626
 21
53.9051
  0
LINE
  8
0
 10
100.626
 20
53.9051
 11
100.147
 21
54.0263
  0
LINE
  8
0
 10
100.147
 20
54.0263
 11
99.7341
 21
54.2964
  0
LINE
  8
0
 10
99.7341
 20
54.2964
 11
99.4308
 21
54.6861
  0
LINE
  8
0
 10
99.4308
 20
54.6861
 11
99.2705
 21
55.1531
  0
LINE
  8
0
 10
101.65
 20
69.9
 11
101.708
 21
70.3786
  0
LINE
  8
0
 10
101.708
 20
70.3786
 11
101.879
 21
70.8294
  0
LINE
  8
0
 10
101.879
 20
70.8294
 11
102.153
 21
71.2262
  0
LINE
  8
0
 10
102.153
 20
71.2262
 11
102.514
 21
71.546
  0
LINE
  8
0
 10
102.514
 20
71.546
 11
102.941
 21
71.77
  0
LINE
  8
0
 10
102.941
 20
71.77
 11
103.409
 21
71.8854
  0
LINE
  8
0
 10
103.409
 20
71.8854
 11
103.891
 21
71.8854
  0
LINE
  8
0
 10
103.891
 20
71.8854
 11
104.359
 21
71.77
  0
LINE
  8
0
 10
104.359
 20
71.77
 11
104.786
 21
71.546
  0
LINE
  8
0
 10
104.786
 20
71.546
 11
105.147
 21
71.2262
  0
LINE
  8
0
 10
105.147
 20
71.2262
 11
105.421
 21
70.8294
  0
LINE
  8
0
 10
105.421
 20
70.8294
 11
105.592
 21
70.3786
  0
LINE
  8
0
 10
105.592
 20
70.3786
 11
105.65
 21
69.9
  0
LINE
  8
0
 10
105.65
 20
69.9
 11
105.592
 21
69.4214
  0
LINE
  8
0
 10
105.592
 20
69.4214
 11
105.421
 21
68.9706
  0
LINE
  8
0
 10
105.421
 20
68.9706
 11
105.147
 21
68.5738
  0
LINE
  8
0
 10
105.147
 20
68.5738
 11
104.786
 21
68.254
  0
LINE
  8
0
 10
104.786
 20
68.254
 11
104.359
 21
68.03
  0
LINE
  8
0
 10
104.359
 20
68.03
 11
103.891
 21
67.9146
  0
LINE
  8
0
 10
103.891
 20
67.9146
 11
103.409
 21
67.9146
  0
LINE
  8
0
 10
103.409
 20
67.9146
 11
102.941
 21
68.03
  0
LINE
  8
0
 10
102.941
 20
68.03
 11
102.514
 21
68.254
  0
LINE
  8
0
 10
102.514
 20
68.254
 11
102.153
 21
68.5738
  0
LINE
  8
0
 10
102.153
 20
68.5738
 11
101.879
 21
68.9706
  0
LINE
  8
0
 10
101.879
 20
68.9706
 11
101.708
 21
69.4214
  0
LINE
  8
0
 10
101.708
 20
69.4214
 11
101.65
 21
69.9
  0
LINE
  8
0
 10
105.07
 20
-112.747
 11
105.07
 21
-112.253
  0
LINE
  8
0
 10
105.07
 20
-112.253
 11
105.231
 21
-111.786
  0
LINE
  8
0
 10
105.231
 20
-111.786
 11
105.534
 21
-111.396
  0
LINE
  8
0
 10
105.534
 20
-111.396
 11
105.947
 21
-111.126
  0
LINE
  8
0
 10
105.947
 20
-111.126
 11
106.426
 21
-111.005
  0
LINE
  8
0
 10
106.426
 20
-111.005
 11
106.918
 21
-111.046
  0
LINE
  8
0
 10
106.918
 20
-111.046
 11
107.37
 21
-111.244
  0
LINE
  8
0
 10
107.37
 20
-111.244
 11
107.734
 21
-111.579
  0
LINE
  8
0
 10
107.734
 20
-111.579
 11
107.969
 21
-112.013
  0
LINE
  8
0
 10
107.969
 20
-112.013
 11
108.05
 21
-112.5
  0
LINE
  8
0
 10
108.05
 20
-112.5
 11
107.969
 21
-112.987
  0
LINE
  8
0
 10
107.969
 20
-112.987
 11
107.734
 21
-113.421
  0
LINE
  8
0
 10
107.734
 20
-113.421
 11
107.37
 21
-113.756
  0
LINE
  8
0
 10
107.37
 20
-113.756
 11
106.918
 21
-113.954
  0
LINE
  8
0
 10
106.918
 20
-113.954
 11
106.426
 21
-113.995
  0
LINE
  8
0
 10
106.426
 20
-113.995
 11
105.947
 21
-113.874
  0
LINE
  8
0
 10
105.947
 20
-113.874
 11
105.534
 21
-113.604
  0
LINE
  8
0
 10
105.534
 20
-113.604
 11
105.231
 21
-113.214
  0
LINE
  8
0
 10
105.231
 20
-113.214
 11
105.07
 21
-112.747
  0
LINE
  8
0
 10
105.07
 20
55.1531
 11
105.07
 21
55.6469
  0
LINE
  8
0
 10
105.07
 20
55.6469
 11
105.231
 21
56.1139
  0
LINE
  8
0
 10
105.231
 20
56.1139
 11
105.534
 21
56.5036
  0
LINE
  8
0
 10
105.534
 20
56.5036
 11
105.947
 21
56.7737
  0
LINE
  8
0
 10
105.947
 20
56.7737
 11
106.426
 21
56.8949
  0
LINE
  8
0
 10
106.426
 20
56.8949
 11
106.918
 21
56.8541
  0
LINE
  8
0
 10
106.918
 20
56.8541
 11
107.37
 21
56.6557
  0
LINE
  8
0
 10
107.37
 20
56.6557
 11
107.734
 21
56.3213
  0
LINE
  8
0
 10
107.734
 20
56.3213
 11
107.969
 21
55.887
  0
LINE
  8
0
 10
107.969
 20
55.887
 11
108.05
 21
55.4
  0
LINE
  8
0
 10
108.05
 20
55.4
 11
107.969
 21
54.9129
  0
LINE
  8
0
 10
107.969
 20
54.9129
 11
107.734
 21
54.4787
  0
LINE
  8
0
 10
107.734
 20
54.4787
 11
107.37
 21
54.1442
  0
LINE
  8
0
 10
107.37
 20
54.1442
 11
106.918
 21
53.9459
  0
LINE
  8
0
 10
106.918
 20
53.9459
 11
106.426
 21
53.9051
  0
LINE
  8
0
 10
106.426
 20
53.9051
 11
105.947
 21
54.0263
  0
LINE
  8
0
 10
105.947
 20
54.0263
 11
105.534
 21
54.2964
  0
LINE
  8
0
 10
105.534
 20
54.2964
 11
105.231
 21
54.6861
  0
LINE
  8
0
 10
105.231
 20
54.6861
 11
105.07
 21
55.1531
  0
LINE
  8
0
 10
110.45
 20
-117.5
 11
110.531
 21
-117.013
  0
LINE
  8
0
 10
110.531
 20
-117.013
 11
110.766
 21
-116.579
  0
LINE
  8
0
 10
110.766
 20
-116.579
 11
111.13
 21
-116.244
  0
LINE
  8
0
 10
111.13
 20
-116.244
 11
111.582
 21
-116.046
  0
LINE
  8
0
 10
111.582
 20
-116.046
 11
112.074
 21
-116.005
  0
LINE
  8
0
 10
112.074
 20
-116.005
 11
112.553
 21
-116.126
  0
LINE
  8
0
 10
112.553
 20
-116.126
 11
112.966
 21
-116.396
  0
LINE
  8
0
 10
112.966
 20
-116.396
 11
113.269
 21
-116.786
  0
LINE
  8
0
 10
113.269
 20
-116.786
 11
113.43
 21
-117.253
  0
LINE
  8
0
 10
113.43
 20
-117.253
 11
113.43
 21
-117.747
  0
LINE
  8
0
 10
113.43
 20
-117.747
 11
113.269
 21
-118.214
  0
LINE
  8
0
 10
113.269
 20
-118.214
 11
112.966
 21
-118.604
  0
LINE
  8
0
 10
112.966
 20
-118.604
 11
112.553
 21
-118.874
  0
LINE
  8
0
 10
112.553
 20
-118.874
 11
112.074
 21
-118.995
  0
LINE
  8
0
 10
112.074
 20
-118.995
 11
111.582
 21
-118.954
  0
LINE
  8
0
 10
111.582
 20
-118.954
 11
111.13
 21
-118.756
  0
LINE
  8
0
 10
111.13
 20
-118.756
 11
110.766
 21
-118.421
  0
LINE
  8
0
 10
110.766
 20
-118.421
 11
110.531
 21
-117.987
  0
LINE
  8
0
 10
110.531
 20
-117.987
 11
110.45
 21
-117.5
  0
LINE
  8
0
 10
110.45
 20
50.4
 11
110.531
 21
50.8871
  0
LINE
  8
0
 10
110.531
 20
50.8871
 11
110.766
 21
51.3213
  0
LINE
  8
0
 10
110.766
 20
51.3213
 11
111.13
 21
51.6558
  0
LINE
  8
0
 10
111.13
 20
51.6558
 11
111.582
 21
51.8541
  0
LINE
  8
0
 10
111.582
 20
51.8541
 11
112.074
 21
51.8949
  0
LINE
  8
0
 10
112.074
 20
51.8949
 11
112.553
 21
51.7737
  0
LINE
  8
0
 10
112.553
 20
51.7737
 11
112.966
 21
51.5036
  0
LINE
  8
0
 10
112.966
 20
51.5036
 11
113.269
 21
51.1139
  0
LINE
  8
0
 10
113.269
 20
51.1139
 11
113.43
 21
50.6469
  0
LINE
  8
0
 10
113.43
 20
50.6469
 11
113.43
 21
50.1531
  0
LINE
  8
0
 10
113.43
 20
50.1531
 11
113.269
 21
49.6861
  0
LINE
  8
0
 10
113.269
 20
49.6861
 11
112.966
 21
49.2964
  0
LINE
  8
0
 10
112.966
 20
49.2964
 11
112.553
 21
49.0263
  0
LINE
  8
0
 10
112.553
 20
49.0263
 11
112.074
 21
48.9051
  0
LINE
  8
0
 10
112.074
 20
48.9051
 11
111.582
 21
48.9459
  0
LINE
  8
0
 10
111.582
 20
48.9459
 11
111.13
 21
49.1443
  0
LINE
  8
0
 10
111.13
 20
49.1443
 11
110.766
 21
49.4787
  0
LINE
  8
0
 10
110.766
 20
49.4787
 11
110.531
 21
49.913
  0
LINE
  8
0
 10
110.531
 20
49.913
 11
110.45
 21
50.4
  0
LINE
  8
0
 10
112.35
 20
60.4
 11
112.398
 21
60.8877
  0
LINE
  8
0
 10
112.398
 20
60.8877
 11
112.54
 21
61.3567
  0
LINE
  8
0
 10
112.54
 20
61.3567
 11
112.771
 21
61.7889
  0
LINE
  8
0
 10
112.771
 20
61.7889
 11
113.082
 21
62.1678
  0
LINE
  8
0
 10
113.082
 20
62.1678
 11
113.461
 21
62.4787
  0
LINE
  8
0
 10
113.461
 20
62.4787
 11
113.893
 21
62.7097
  0
LINE
  8
0
 10
113.893
 20
62.7097
 11
114.362
 21
62.852
  0
LINE
  8
0
 10
114.362
 20
62.852
 11
114.85
 21
62.9
  0
LINE
  8
0
 10
114.85
 20
62.9
 11
115.338
 21
62.852
  0
LINE
  8
0
 10
115.338
 20
62.852
 11
115.807
 21
62.7097
  0
LINE
  8
0
 10
115.807
 20
62.7097
 11
116.239
 21
62.4787
  0
LINE
  8
0
 10
116.239
 20
62.4787
 11
116.618
 21
62.1678
  0
LINE
  8
0
 10
116.618
 20
62.1678
 11
116.929
 21
61.7889
  0
LINE
  8
0
 10
116.929
 20
61.7889
 11
117.16
 21
61.3567
  0
LINE
  8
0
 10
117.16
 20
61.3567
 11
117.302
 21
60.8877
  0
LINE
  8
0
 10
117.302
 20
60.8877
 11
117.35
 21
60.4
  0
LINE
  8
0
 10
117.35
 20
60.4
 11
117.302
 21
59.9123
  0
LINE
  8
0
 10
117.302
 20
59.9123
 11
117.16
 21
59.4433
  0
LINE
  8
0
 10
117.16
 20
59.4433
 11
116.929
 21
59.0111
  0
LINE
  8
0
 10
116.929
 20
59.0111
 11
116.618
 21
58.6322
  0
LINE
  8
0
 10
116.618
 20
58.6322
 11
116.239
 21
58.3213
  0
LINE
  8
0
 10
116.239
 20
58.3213
 11
115.807
 21
58.0903
  0
LINE
  8
0
 10
115.807
 20
58.0903
 11
115.338
 21
57.948
  0
LINE
  8
0
 10
115.338
 20
57.948
 11
114.85
 21
57.9
  0
LINE
  8
0
 10
114.85
 20
57.9
 11
114.362
 21
57.948
  0
LINE
  8
0
 10
114.362
 20
57.948
 11
113.893
 21
58.0903
  0
LINE
  8
0
 10
113.893
 20
58.0903
 11
113.461
 21
58.3213
  0
LINE
  8
0
 10
113.461
 20
58.3213
 11
113.082
 21
58.6322
  0
LINE
  8
0
 10
113.082
 20
58.6322
 11
112.771
 21
59.0111
  0
LINE
  8
0
 10
112.771
 20
59.0111
 11
112.54
 21
59.4433
  0
LINE
  8
0
 10
112.54
 20
59.4433
 11
112.398
 21
59.9123
  0
LINE
  8
0
 10
112.398
 20
59.9123
 11
112.35
 21
60.4
  0
LINE
  8
0
 10
116.25
 20
-117.5
 11
116.331
 21
-117.013
  0
LINE
  8
0
 10
116.331
 20
-117.013
 11
116.566
 21
-116.579
  0
LINE
  8
0
 10
116.566
 20
-116.579
 11
116.93
 21
-116.244
  0
LINE
  8
0
 10
116.93
 20
-116.244
 11
117.382
 21
-116.046
  0
LINE
  8
0
 10
117.382
 20
-116.046
 11
117.874
 21
-116.005
  0
LINE
  8
0
 10
117.874
 20
-116.005
 11
118.353
 21
-116.126
  0
LINE
  8
0
 10
118.353
 20
-116.126
 11
118.766
 21
-116.396
  0
LINE
  8
0
 10
118.766
 20
-116.396
 11
119.069
 21
-116.786
  0
LINE
  8
0
 10
119.069
 20
-116.786
 11
119.23
 21
-117.253
  0
LINE
  8
0
 10
119.23
 20
-117.253
 11
119.23
 21
-117.747
  0
LINE
  8
0
 10
119.23
 20
-117.747
 11
119.069
 21
-118.214
  0
LINE
  8
0
 10
119.069
 20
-118.214
 11
118.766
 21
-118.604
  0
LINE
  8
0
 10
118.766
 20
-118.604
 11
118.353
 21
-118.874
  0
LINE
  8
0
 10
118.353
 20
-118.874
 11
117.874
 21
-118.995
  0
LINE
  8
0
 10
117.874
 20
-118.995
 11
117.382
 21
-118.954
  0
LINE
  8
0
 10
117.382
 20
-118.954
 11
116.93
 21
-118.756
  0
LINE
  8
0
 10
116.93
 20
-118.756
 11
116.566
 21
-118.421
  0
LINE
  8
0
 10
116.566
 20
-118.421
 11
116.331
 21
-117.987
  0
LINE
  8
0
 10
116.331
 20
-117.987
 11
116.25
 21
-117.5
  0
LINE
  8
0
 10
116.25
 20
50.4
 11
116.331
 21
50.8871
  0
LINE
  8
0
 10
116.331
 20
50.8871
 11
116.566
 21
51.3213
  0
LINE
  8
0
 10
116.566
 20
51.3213
 11
116.93
 21
51.6558
  0
LINE
  8
0
 10
116.93
 20
51.6558
 11
117.382
 21
51.8541
  0
LINE
  8
0
 10
117.382
 20
51.8541
 11
117.874
 21
51.8949
  0
LINE
  8
0
 10
117.874
 20
51.8949
 11
118.353
 21
51.7737
  0
LINE
  8
0
 10
118.353
 20
51.7737
 11
118.766
 21
51.5036
  0
LINE
  8
0
 10
118.766
 20
51.5036
 11
119.069
 21
51.1139
  0
LINE
  8
0
 10
119.069
 20
51.1139
 11
119.23
 21
50.6469
  0
LINE
  8
0
 10
119.23
 20
50.6469
 11
119.23
 21
50.1531
  0
LINE
  8
0
 10
119.23
 20
50.1531
 11
119.069
 21
49.6861
  0
LINE
  8
0
 10
119.069
 20
49.6861
 11
118.766
 21
49.2964
  0
LINE
  8
0
 10
118.766
 20
49.2964
 11
118.353
 21
49.0263
  0
LINE
  8
0
 10
118.353
 20
49.0263
 11
117.874
 21
48.9051
  0
LINE
  8
0
 10
117.874
 20
48.9051
 11
117.382
 21
48.9459
  0
LINE
  8
0
 10
117.382
 20
48.9459
 11
116.93
 21
49.1443
  0
LINE
  8
0
 10
116.93
 20
49.1443
 11
116.566
 21
49.4787
  0
LINE
  8
0
 10
116.566
 20
49.4787
 11
116.331
 21
49.913
  0
LINE
  8
0
 10
116.331
 20
49.913
 11
116.25
 21
50.4
  0
LINE
  8
0
 10
127.3
 20
-190.69
 11
127.355
 21
-190.2
  0
LINE
  8
0
 10
127.355
 20
-190.2
 11
127.518
 21
-189.735
  0
LINE
  8
0
 10
127.518
 20
-189.735
 11
127.78
 21
-189.318
  0
LINE
  8
0
 10
127.78
 20
-189.318
 11
128.128
 21
-188.97
  0
LINE
  8
0
 10
128.128
 20
-188.97
 11
128.545
 21
-188.708
  0
LINE
  8
0
 10
128.545
 20
-188.708
 11
129.01
 21
-188.545
  0
LINE
  8
0
 10
129.01
 20
-188.545
 11
129.5
 21
-188.49
  0
LINE
  8
0
 10
129.5
 20
-188.49
 11
129.99
 21
-188.545
  0
LINE
  8
0
 10
129.99
 20
-188.545
 11
130.455
 21
-188.708
  0
LINE
  8
0
 10
130.455
 20
-188.708
 11
130.872
 21
-188.97
  0
LINE
  8
0
 10
130.872
 20
-188.97
 11
131.22
 21
-189.318
  0
LINE
  8
0
 10
131.22
 20
-189.318
 11
131.482
 21
-189.735
  0
LINE
  8
0
 10
131.482
 20
-189.735
 11
131.645
 21
-190.2
  0
LINE
  8
0
 10
131.645
 20
-190.2
 11
131.7
 21
-190.69
  0
LINE
  8
0
 10
131.7
 20
-190.69
 11
131.645
 21
-191.18
  0
LINE
  8
0
 10
131.645
 20
-191.18
 11
131.482
 21
-191.645
  0
LINE
  8
0
 10
131.482
 20
-191.645
 11
131.22
 21
-192.062
  0
LINE
  8
0
 10
131.22
 20
-192.062
 11
130.872
 21
-192.41
  0
LINE
  8
0
 10
130.872
 20
-192.41
 11
130.455
 21
-192.672
  0
LINE
  8
0
 10
130.455
 20
-192.672
 11
129.99
 21
-192.835
  0
LINE
  8
0
 10
129.99
 20
-192.835
 11
129.5
 21
-192.89
  0
LINE
  8
0
 10
129.5
 20
-192.89
 11
129.01
 21
-192.835
  0
LINE
  8
0
 10
129.01
 20
-192.835
 11
128.545
 21
-192.672
  0
LINE
  8
0
 10
128.545
 20
-192.672
 11
128.128
 21
-192.41
  0
LINE
  8
0
 10
128.128
 20
-192.41
 11
127.78
 21
-192.062
  0
LINE
  8
0
 10
127.78
 20
-192.062
 11
127.518
 21
-191.645
  0
LINE
  8
0
 10
127.518
 20
-191.645
 11
127.355
 21
-191.18
  0
LINE
  8
0
 10
127.355
 20
-191.18
 11
127.3
 21
-190.69
  0
LINE
  8
0
 10
127.3
 20
190.69
 11
127.355
 21
191.18
  0
LINE
  8
0
 10
127.355
 20
191.18
 11
127.518
 21
191.645
  0
LINE
  8
0
 10
127.518
 20
191.645
 11
127.78
 21
192.062
  0
LINE
  8
0
 10
127.78
 20
192.062
 11
128.128
 21
192.41
  0
LINE
  8
0
 10
128.128
 20
192.41
 11
128.545
 21
192.672
  0
LINE
  8
0
 10
128.545
 20
192.672
 11
129.01
 21
192.835
  0
LINE
  8
0
 10
129.01
 20
192.835
 11
129.5
 21
192.89
  0
LINE
  8
0
 10
129.5
 20
192.89
 11
129.99
 21
192.835
  0
LINE
  8
0
 10
129.99
 20
192.835
 11
130.455
 21
192.672
  0
LINE
  8
0
 10
130.455
 20
192.672
 11
130.872
 21
192.41
  0
LINE
  8
0
 10
130.872
 20
192.41
 11
131.22
 21
192.062
  0
LINE
  8
0
 10
131.22
 20
192.062
 11
131.482
 21
191.645
  0
LINE
  8
0
 10
131.482
 20
191.645
 11
131.645
 21
191.18
  0
LINE
  8
0
 10
131.645
 20
191.18
 11
131.7
 21
190.69
  0
LINE
  8
0
 10
131.7
 20
190.69
 11
131.645
 21
190.2
  0
LINE
  8
0
 10
131.645
 20
190.2
 11
131.482
 21
189.735
  0
LINE
  8
0
 10
131.482
 20
189.735
 11
131.22
 21
189.318
  0
LINE
  8
0
 10
131.22
 20
189.318
 11
130.872
 21
188.97
  0
LINE
  8
0
 10
130.872
 20
188.97
 11
130.455
 21
188.708
  0
LINE
  8
0
 10
130.455
 20
188.708
 11
129.99
 21
188.545
  0
LINE
  8
0
 10
129.99
 20
188.545
 11
129.5
 21
188.49
  0
LINE
  8
0
 10
129.5
 20
188.49
 11
129.01
 21
188.545
  0
LINE
  8
0
 10
129.01
 20
188.545
 11
128.545
 21
188.708
  0
LINE
  8
0
 10
128.545
 20
188.708
 11
128.128
 21
188.97
  0
LINE
  8
0
 10
128.128
 20
188.97
 11
127.78
 21
189.318
  0
LINE
  8
0
 10
127.78
 20
189.318
 11
127.518
 21
189.735
  0
LINE
  8
0
 10
127.518
 20
189.735
 11
127.355
 21
190.2
  0
LINE
  8
0
 10
127.355
 20
190.2
 11
127.3
 21
190.69
  0
LINE
  8
0
 10
156.258
 20
-0.246243
 11
156.258
 21
0.246243
  0
LINE
  8
0
 10
156.258
 20
0.246243
 11
156.318
 21
0.734998
  0
LINE
  8
0
 10
156.318
 20
0.734998
 11
156.438
 21
1.21261
  0
LINE
  8
0
 10
156.438
 20
1.21261
 11
156.616
 21
1.67184
  0
LINE
  8
0
 10
156.616
 20
1.67184
 11
156.849
 21
2.10573
  0
LINE
  8
0
 10
156.849
 20
2.10573
 11
157.134
 21
2.5077
  0
LINE
  8
0
 10
157.134
 20
2.5077
 11
157.465
 21
2.87165
  0
LINE
  8
0
 10
157.465
 20
2.87165
 11
157.839
 21
3.19207
  0
LINE
  8
0
 10
157.839
 20
3.19207
 11
158.25
 21
3.4641
  0
LINE
  8
0
 10
158.25
 20
3.4641
 11
158.691
 21
3.68362
  0
LINE
  8
0
 10
158.691
 20
3.68362
 11
159.155
 21
3.8473
  0
LINE
  8
0
 10
159.155
 20
3.8473
 11
159.636
 21
3.95266
  0
LINE
  8
0
 10
159.636
 20
3.95266
 11
160.127
 21
3.9981
  0
LINE
  8
0
 10
160.127
 20
3.9981
 11
160.619
 21
3.98294
  0
LINE
  8
0
 10
160.619
 20
3.98294
 11
161.106
 21
3.90739
  0
LINE
  8
0
 10
161.106
 20
3.90739
 11
161.579
 21
3.77262
  0
LINE
  8
0
 10
161.579
 20
3.77262
 11
162.033
 21
3.58065
  0
LINE
  8
0
 10
162.033
 20
3.58065
 11
162.459
 21
3.33441
  0
LINE
  8
0
 10
162.459
 20
3.33441
 11
162.852
 21
3.03762
  0
LINE
  8
0
 10
162.852
 20
3.03762
 11
163.206
 21
2.69478
  0
LINE
  8
0
 10
163.206
 20
2.69478
 11
163.515
 21
2.3111
  0
LINE
  8
0
 10
163.515
 20
2.3111
 11
163.774
 21
1.89237
  0
LINE
  8
0
 10
163.774
 20
1.89237
 11
163.98
 21
1.44497
  0
LINE
  8
0
 10
163.98
 20
1.44497
 11
164.129
 21
0.975655
  0
LINE
  8
0
 10
164.129
 20
0.975655
 11
164.22
 21
0.491552
  0
LINE
  8
0
 10
164.22
 20
0.491552
 11
164.25
 21
0
  0
LINE
  8
0
 10
164.25
 20
0
 11
164.22
 21
-0.491552
  0
LINE
  8
0
 10
164.22
 20
-0.491552
 11
164.129
 21
-0.975655
  0
LINE
  8
0
 10
164.129
 20
-0.975655
 11
163.98
 21
-1.44497
  0
LINE
  8
0
 10
163.98
 20
-1.44497
 11
163.774
 21
-1.89237
  0
LINE
  8
0
 10
163.774
 20
-1.89237
 11
163.515
 21
-2.3111
  0
LINE
  8
0
 10
163.515
 20
-2.3111
 11
163.206
 21
-2.69478
  0
LINE
  8
0
 10
163.206
 20
-2.69478
 11
162.852
 21
-3.03762
  0
LINE
  8
0
 10
162.852
 20
-3.03762
 11
162.459
 21
-3.33441
  0
LINE
  8
0
 10
162.459
 20
-3.33441
 11
162.033
 21
-3.58065
  0
LINE
  8
0
 10
162.033
 20
-3.58065
 11
161.579
 21
-3.77262
  0
LINE
  8
0
 10
161.579
 20
-3.77262
 11
161.106
 21
-3.90739
  0
LINE
  8
0
 10
161.106
 20
-3.90739
 11
160.619
 21
-3.98294
  0
LINE
  8
0
 10
160.619
 20
-3.98294
 11
160.127
 21
-3.9981
  0
LINE
  8
0
 10
160.127
 20
-3.9981
 11
159.636
 21
-3.95266
  0
LINE
  8
0
 10
159.636
 20
-3.95266
 11
159.155
 21
-3.8473
  0
LINE
  8
0
 10
159.155
 20
-3.8473
 11
158.691
 21
-3.68362
  0
LINE
  8
0
 10
158.691
 20
-3.68362
 11
158.25
 21
-3.4641
  0
LINE
  8
0
 10
158.25
 20
-3.4641
 11
157.839
 21
-3.19207
  0
LINE
  8
0
 10
157.839
 20
-3.19207
 11
157.465
 21
-2.87165
  0
LINE
  8
0
 10
157.465
 20
-2.87165
 11
157.134
 21
-2.5077
  0
LINE
  8
0
 10
157.134
 20
-2.5077
 11
156.849
 21
-2.10573
  0
LINE
  8
0
 10
156.849
 20
-2.10573
 11
156.616
 21
-1.67184
  0
LINE
  8
0
 10
156.616
 20
-1.67184
 11
156.438
 21
-1.21261
  0
LINE
  8
0
 10
156.438
 20
-1.21261
 11
156.318
 21
-0.734998
  0
LINE
  8
0
 10
156.318
 20
-0.734998
 11
156.258
 21
-0.246243
  0
LINE
  8
0
 10
156.81
 20
50.7
 11
156.865
 21
51.1895
  0
LINE
  8
0
 10
156.865
 20
51.1895
 11
157.028
 21
51.6545
  0
LINE
  8
0
 10
157.028
 20
51.6545
 11
157.29
 21
52.0717
  0
LINE
  8
0
 10
157.29
 20
52.0717
 11
157.638
 21
52.42
  0
LINE
  8
0
 10
157.638
 20
52.42
 11
158.055
 21
52.6821
  0
LINE
  8
0
 10
158.055
 20
52.6821
 11
158.52
 21
52.8448
  0
LINE
  8
0
 10
158.52
 20
52.8448
 11
159.01
 21
52.9
  0
LINE
  8
0
 10
159.01
 20
52.9
 11
159.5
 21
52.8448
  0
LINE
  8
0
 10
159.5
 20
52.8448
 11
159.965
 21
52.6821
  0
LINE
  8
0
 10
159.965
 20
52.6821
 11
160.382
 21
52.42
  0
LINE
  8
0
 10
160.382
 20
52.42
 11
160.73
 21
52.0717
  0
LINE
  8
0
 10
160.73
 20
52.0717
 11
160.992
 21
51.6545
  0
LINE
  8
0
 10
160.992
 20
51.6545
 11
161.155
 21
51.1895
  0
LINE
  8
0
 10
161.155
 20
51.1895
 11
161.21
 21
50.7
  0
LINE
  8
0
 10
161.21
 20
50.7
 11
161.155
 21
50.2105
  0
LINE
  8
0
 10
161.155
 20
50.2105
 11
160.992
 21
49.7455
  0
LINE
  8
0
 10
160.992
 20
49.7455
 11
160.73
 21
49.3283
  0
LINE
  8
0
 10
160.73
 20
49.3283
 11
160.382
 21
48.98
  0
LINE
  8
0
 10
160.382
 20
48.98
 11
159.965
 21
48.7179
  0
LINE
  8
0
 10
159.965
 20
48.7179
 11
159.5
 21
48.5552
  0
LINE
  8
0
 10
159.5
 20
48.5552
 11
159.01
 21
48.5
  0
LINE
  8
0
 10
159.01
 20
48.5
 11
158.52
 21
48.5552
  0
LINE
  8
0
 10
158.52
 20
48.5552
 11
158.055
 21
48.7179
  0
LINE
  8
0
 10
158.055
 20
48.7179
 11
157.638
 21
48.98
  0
LINE
  8
0
 10
157.638
 20
48.98
 11
157.29
 21
49.3283
  0
LINE
  8
0
 10
157.29
 20
49.3283
 11
157.028
 21
49.7455
  0
LINE
  8
0
 10
157.028
 20
49.7455
 11
156.865
 21
50.2105
  0
LINE
  8
0
 10
156.865
 20
50.2105
 11
156.81
 21
50.7
  0
LINE
  8
0
 10
214.74
 20
50.7
 11
214.795
 21
51.1895
  0
LINE
  8
0
 10
214.795
 20
51.1895
 11
214.958
 21
51.6545
  0
LINE
  8
0
 10
214.958
 20
51.6545
 11
215.22
 21
52.0717
  0
LINE
  8
0
 10
215.22
 20
52.0717
 11
215.568
 21
52.42
  0
LINE
  8
0
 10
215.568
 20
52.42
 11
215.985
 21
52.6821
  0
LINE
  8
0
 10
215.985
 20
52.6821
 11
216.45
 21
52.8448
  0
LINE
  8
0
 10
216.45
 20
52.8448
 11
216.94
 21
52.9
  0
LINE
  8
0
 10
216.94
 20
52.9
 11
217.43
 21
52.8448
  0
LINE
  8
0
 10
217.43
 20
52.8448
 11
217.895
 21
52.6821
  0
LINE
  8
0
 10
217.895
 20
52.6821
 11
218.312
 21
52.42
  0
LINE
  8
0
 10
218.312
 20
52.42
 11
218.66
 21
52.0717
  0
LINE
  8
0
 10
218.66
 20
52.0717
 11
218.922
 21
51.6545
  0
LINE
  8
0
 10
218.922
 20
51.6545
 11
219.085
 21
51.1895
  0
LINE
  8
0
 10
219.085
 20
51.1895
 11
219.14
 21
50.7
  0
LINE
  8
0
 10
219.14
 20
50.7
 11
219.085
 21
50.2105
  0
LINE
  8
0
 10
219.085
 20
50.2105
 11
218.922
 21
49.7455
  0
LINE
  8
0
 10
218.922
 20
49.7455
 11
218.66
 21
49.3283
  0
LINE
  8
0
 10
218.66
 20
49.3283
 11
218.312
 21
48.98
  0
LINE
  8
0
 10
218.312
 20
48.98
 11
217.895
 21
48.7179
  0
LINE
  8
0
 10
217.895
 20
48.7179
 11
217.43
 21
48.5552
  0
LINE
  8
0
 10
217.43
 20
48.5552
 11
216.94
 21
48.5
  0
LINE
  8
0
 10
216.94
 20
48.5
 11
216.45
 21
48.5552
  0
LINE
  8
0
 10
216.45
 20
48.5552
 11
215.985
 21
48.7179
  0
LINE
  8
0
 10
215.985
 20
48.7179
 11
215.568
 21
48.98
  0
LINE
  8
0
 10
215.568
 20
48.98
 11
215.22
 21
49.3283
  0
LINE
  8
0
 10
215.22
 20
49.3283
 11
214.958
 21
49.7455
  0
LINE
  8
0
 10
214.958
 20
49.7455
 11
214.795
 21
50.2105
  0
LINE
  8
0
 10
214.795
 20
50.2105
 11
214.74
 21
50.7
  0
LINE
  8
0
 10
219.85
 20
70.85
 11
219.905
 21
71.3395
  0
LINE
  8
0
 10
219.905
 20
71.3395
 11
220.068
 21
71.8045
  0
LINE
  8
0
 10
220.068
 20
71.8045
 11
220.33
 21
72.2217
  0
LINE
  8
0
 10
220.33
 20
72.2217
 11
220.678
 21
72.57
  0
LINE
  8
0
 10
220.678
 20
72.57
 11
221.095
 21
72.8321
  0
LINE
  8
0
 10
221.095
 20
72.8321
 11
221.56
 21
72.9948
  0
LINE
  8
0
 10
221.56
 20
72.9948
 11
222.05
 21
73.05
  0
LINE
  8
0
 10
222.05
 20
73.05
 11
222.54
 21
72.9948
  0
LINE
  8
0
 10
222.54
 20
72.9948
 11
223.005
 21
72.8321
  0
LINE
  8
0
 10
223.005
 20
72.8321
 11
223.422
 21
72.57
  0
LINE
  8
0
 10
223.422
 20
72.57
 11
223.77
 21
72.2217
  0
LINE
  8
0
 10
223.77
 20
72.2217
 11
224.032
 21
71.8045
  0
LINE
  8
0
 10
224.032
 20
71.8045
 11
224.195
 21
71.3395
  0
LINE
  8
0
 10
224.195
 20
71.3395
 11
224.25
 21
70.85
  0
LINE
  8
0
 10
224.25
 20
70.85
 11
224.195
 21
70.3605
  0
LINE
  8
0
 10
224.195
 20
70.3605
 11
224.032
 21
69.8955
  0
LINE
  8
0
 10
224.032
 20
69.8955
 11
223.77
 21
69.4783
  0
LINE
  8
0
 10
223.77
 20
69.4783
 11
223.422
 21
69.13
  0
LINE
  8
0
 10
223.422
 20
69.13
 11
223.005
 21
68.8679
  0
LINE
  8
0
 10
223.005
 20
68.8679
 11
222.54
 21
68.7052
  0
LINE
  8
0
 10
222.54
 20
68.7052
 11
222.05
 21
68.65
  0
LINE
  8
0
 10
222.05
 20
68.65
 11
221.56
 21
68.7052
  0
LINE
  8
0
 10
221.56
 20
68.7052
 11
221.095
 21
68.8679
  0
LINE
  8
0
 10
221.095
 20
68.8679
 11
220.678
 21
69.13
  0
LINE
  8
0
 10
220.678
 20
69.13
 11
220.33
 21
69.4783
  0
LINE
  8
0
 10
220.33
 20
69.4783
 11
220.068
 21
69.8955
  0
LINE
  8
0
 10
220.068
 20
69.8955
 11
219.905
 21
70.3605
  0
LINE
  8
0
 10
219.905
 20
70.3605
 11
219.85
 21
70.85
  0
ENDSEC
  0
SECTION
  2
OBJECTS
  0
DICTIONARY
  0
ENDSEC
  0
EOF
