<?xml version="1.0"?>
<svg xmlns="http://www.w3.org/2000/svg" version="1.1" height="413mm" width="485mm" >
 <g style="fill-opacity:1.0; stroke:black; stroke-width:1;">
  <line x1="105.500000mm" y1="403.000000mm" x2="105.500000mm" y2="403.000000mm" />
  <line x1="105.500000mm" y1="403.000000mm" x2="105.500000mm" y2="115.900000mm" />
  <line x1="105.500000mm" y1="115.900000mm" x2="105.506000mm" y2="115.900000mm" />
  <line x1="105.506000mm" y1="115.900000mm" x2="105.506000mm" y2="115.651000mm" />
  <line x1="105.506000mm" y1="115.651000mm" x2="105.556000mm" y2="115.155000mm" />
  <line x1="105.556000mm" y1="115.155000mm" x2="105.655000mm" y2="114.666000mm" />
  <line x1="105.655000mm" y1="114.666000mm" x2="105.802000mm" y2="114.190000mm" />
  <line x1="105.802000mm" y1="114.190000mm" x2="105.995000mm" y2="113.731000mm" />
  <line x1="105.995000mm" y1="113.731000mm" x2="106.234000mm" y2="113.293000mm" />
  <line x1="106.234000mm" y1="113.293000mm" x2="106.514000mm" y2="112.881000mm" />
  <line x1="106.514000mm" y1="112.881000mm" x2="106.835000mm" y2="112.499000mm" />
  <line x1="106.835000mm" y1="112.499000mm" x2="107.192000mm" y2="112.151000mm" />
  <line x1="107.192000mm" y1="112.151000mm" x2="107.581000mm" y2="111.840000mm" />
  <line x1="107.581000mm" y1="111.840000mm" x2="108.000000mm" y2="111.570000mm" />
  <line x1="108.000000mm" y1="111.570000mm" x2="108.444000mm" y2="111.342000mm" />
  <line x1="108.444000mm" y1="111.342000mm" x2="108.908000mm" y2="111.160000mm" />
  <line x1="108.908000mm" y1="111.160000mm" x2="109.387000mm" y2="111.025000mm" />
  <line x1="109.387000mm" y1="111.025000mm" x2="109.878000mm" y2="110.939000mm" />
  <line x1="109.878000mm" y1="110.939000mm" x2="110.375000mm" y2="110.902000mm" />
  <line x1="110.375000mm" y1="110.902000mm" x2="110.500000mm" y2="110.905000mm" />
  <line x1="110.500000mm" y1="110.905000mm" x2="110.500000mm" y2="110.900000mm" />
  <line x1="110.500000mm" y1="110.900000mm" x2="350.500000mm" y2="110.900000mm" />
  <line x1="350.500000mm" y1="110.900000mm" x2="350.500000mm" y2="110.905000mm" />
  <line x1="350.500000mm" y1="110.905000mm" x2="350.874000mm" y2="110.914000mm" />
  <line x1="350.874000mm" y1="110.914000mm" x2="351.368000mm" y2="110.976000mm" />
  <line x1="351.368000mm" y1="110.976000mm" x2="351.854000mm" y2="111.087000mm" />
  <line x1="351.854000mm" y1="111.087000mm" x2="352.327000mm" y2="111.246000mm" />
  <line x1="352.327000mm" y1="111.246000mm" x2="352.781000mm" y2="111.451000mm" />
  <line x1="352.781000mm" y1="111.451000mm" x2="353.213000mm" y2="111.700000mm" />
  <line x1="353.213000mm" y1="111.700000mm" x2="353.617000mm" y2="111.991000mm" />
  <line x1="353.617000mm" y1="111.991000mm" x2="353.991000mm" y2="112.321000mm" />
  <line x1="353.991000mm" y1="112.321000mm" x2="354.330000mm" y2="112.686000mm" />
  <line x1="354.330000mm" y1="112.686000mm" x2="354.631000mm" y2="113.083000mm" />
  <line x1="354.631000mm" y1="113.083000mm" x2="354.891000mm" y2="113.509000mm" />
  <line x1="354.891000mm" y1="113.509000mm" x2="355.107000mm" y2="113.958000mm" />
  <line x1="355.107000mm" y1="113.958000mm" x2="355.278000mm" y2="114.426000mm" />
  <line x1="355.278000mm" y1="114.426000mm" x2="355.401000mm" y2="114.909000mm" />
  <line x1="355.401000mm" y1="114.909000mm" x2="355.475000mm" y2="115.402000mm" />
  <line x1="355.475000mm" y1="115.402000mm" x2="355.500000mm" y2="115.900000mm" />
  <line x1="355.500000mm" y1="115.900000mm" x2="355.500000mm" y2="403.000000mm" />
  <line x1="355.500000mm" y1="403.000000mm" x2="474.500000mm" y2="403.000000mm" />
  <line x1="474.500000mm" y1="403.000000mm" x2="474.500000mm" y2="15.000000mm" />
  <line x1="474.500000mm" y1="15.000000mm" x2="474.443000mm" y2="13.693000mm" />
  <line x1="474.443000mm" y1="13.693000mm" x2="474.272000mm" y2="12.395000mm" />
  <line x1="474.272000mm" y1="12.395000mm" x2="473.989000mm" y2="11.118000mm" />
  <line x1="473.989000mm" y1="11.118000mm" x2="473.595000mm" y2="9.870000mm" />
  <line x1="473.595000mm" y1="9.870000mm" x2="473.095000mm" y2="8.661000mm" />
  <line x1="473.095000mm" y1="8.661000mm" x2="472.490000mm" y2="7.500000mm" />
  <line x1="472.490000mm" y1="7.500000mm" x2="471.787000mm" y2="6.396000mm" />
  <line x1="471.787000mm" y1="6.396000mm" x2="470.991000mm" y2="5.358000mm" />
  <line x1="470.991000mm" y1="5.358000mm" x2="470.107000mm" y2="4.393000mm" />
  <line x1="470.107000mm" y1="4.393000mm" x2="469.142000mm" y2="3.509000mm" />
  <line x1="469.142000mm" y1="3.509000mm" x2="468.104000mm" y2="2.713000mm" />
  <line x1="468.104000mm" y1="2.713000mm" x2="467.000000mm" y2="2.010000mm" />
  <line x1="467.000000mm" y1="2.010000mm" x2="465.839000mm" y2="1.405000mm" />
  <line x1="465.839000mm" y1="1.405000mm" x2="464.630000mm" y2="0.905000mm" />
  <line x1="464.630000mm" y1="0.905000mm" x2="463.382000mm" y2="0.511000mm" />
  <line x1="463.382000mm" y1="0.511000mm" x2="462.105000mm" y2="0.228000mm" />
  <line x1="462.105000mm" y1="0.228000mm" x2="460.807000mm" y2="0.057000mm" />
  <line x1="460.807000mm" y1="0.057000mm" x2="459.500000mm" y2="0.000000mm" />
  <line x1="459.500000mm" y1="0.000000mm" x2="15.000000mm" y2="0.000000mm" />
  <line x1="15.000000mm" y1="0.000000mm" x2="13.693000mm" y2="0.057000mm" />
  <line x1="13.693000mm" y1="0.057000mm" x2="12.395000mm" y2="0.228000mm" />
  <line x1="12.395000mm" y1="0.228000mm" x2="11.118000mm" y2="0.511000mm" />
  <line x1="11.118000mm" y1="0.511000mm" x2="9.870000mm" y2="0.905000mm" />
  <line x1="9.870000mm" y1="0.905000mm" x2="8.661000mm" y2="1.405000mm" />
  <line x1="8.661000mm" y1="1.405000mm" x2="7.500000mm" y2="2.010000mm" />
  <line x1="7.500000mm" y1="2.010000mm" x2="6.396000mm" y2="2.713000mm" />
  <line x1="6.396000mm" y1="2.713000mm" x2="5.358000mm" y2="3.509000mm" />
  <line x1="5.358000mm" y1="3.509000mm" x2="4.393000mm" y2="4.393000mm" />
  <line x1="4.393000mm" y1="4.393000mm" x2="3.509000mm" y2="5.358000mm" />
  <line x1="3.509000mm" y1="5.358000mm" x2="2.713000mm" y2="6.396000mm" />
  <line x1="2.713000mm" y1="6.396000mm" x2="2.010000mm" y2="7.500000mm" />
  <line x1="2.010000mm" y1="7.500000mm" x2="1.405000mm" y2="8.661000mm" />
  <line x1="1.405000mm" y1="8.661000mm" x2="0.905000mm" y2="9.870000mm" />
  <line x1="0.905000mm" y1="9.870000mm" x2="0.511000mm" y2="11.118000mm" />
  <line x1="0.511000mm" y1="11.118000mm" x2="0.228000mm" y2="12.395000mm" />
  <line x1="0.228000mm" y1="12.395000mm" x2="0.057000mm" y2="13.693000mm" />
  <line x1="0.057000mm" y1="13.693000mm" x2="0.000000mm" y2="15.000000mm" />
  <line x1="0.000000mm" y1="15.000000mm" x2="0.000000mm" y2="403.000000mm" />
  <line x1="0.000000mm" y1="403.000000mm" x2="105.500000mm" y2="403.000000mm" />
  <circle cx="397.500000mm" cy="8.499908mm" r="1.000092mm" fill="none"/>
  <line x1="399.500185mm" y1="8.499908mm" x2="395.499815mm" y2="8.499908mm" />
  <line x1="397.500000mm" y1="6.499723mm" x2="397.500000mm" y2="10.500092mm" />
  <text x="398mm" y="7mm" font-size="24">
   2.0
  </text>
  <circle cx="74.500000mm" cy="8.499908mm" r="1.000092mm" fill="none"/>
  <line x1="76.500185mm" y1="8.499908mm" x2="72.499815mm" y2="8.499908mm" />
  <line x1="74.500000mm" y1="6.499723mm" x2="74.500000mm" y2="10.500092mm" />
  <text x="75mm" y="7mm" font-size="24">
   2.0
  </text>
  <circle cx="39.500000mm" cy="8.499908mm" r="1.000092mm" fill="none"/>
  <line x1="41.500185mm" y1="8.499908mm" x2="37.499815mm" y2="8.499908mm" />
  <line x1="39.500000mm" y1="6.499723mm" x2="39.500000mm" y2="10.500092mm" />
  <text x="40mm" y="7mm" font-size="24">
   2.0
  </text>
  <circle cx="362.500000mm" cy="8.499908mm" r="1.000092mm" fill="none"/>
  <line x1="364.500185mm" y1="8.499908mm" x2="360.499815mm" y2="8.499908mm" />
  <line x1="362.500000mm" y1="6.499723mm" x2="362.500000mm" y2="10.500092mm" />
  <text x="363mm" y="7mm" font-size="24">
   2.0
  </text>
  <circle cx="458.199908mm" cy="12.000377mm" r="0.999982mm" fill="none"/>
  <line x1="460.199872mm" y1="12.000377mm" x2="456.199944mm" y2="12.000377mm" />
  <line x1="458.199908mm" y1="10.000413mm" x2="458.199908mm" y2="14.000341mm" />
  <text x="459mm" y="11mm" font-size="24">
   2.0
  </text>
  <circle cx="423.799908mm" cy="12.000377mm" r="0.999982mm" fill="none"/>
  <line x1="425.799872mm" y1="12.000377mm" x2="421.799944mm" y2="12.000377mm" />
  <line x1="423.799908mm" y1="10.000413mm" x2="423.799908mm" y2="14.000341mm" />
  <text x="424mm" y="11mm" font-size="24">
   2.0
  </text>
  <circle cx="39.500000mm" cy="18.999798mm" r="1.999777mm" fill="none"/>
  <line x1="43.499554mm" y1="18.999798mm" x2="35.500446mm" y2="18.999798mm" />
  <line x1="39.500000mm" y1="15.000245mm" x2="39.500000mm" y2="22.999352mm" />
  <text x="41mm" y="17mm" font-size="24">
   4.0
  </text>
  <circle cx="74.199777mm" cy="36.509918mm" r="1.000114mm" fill="none"/>
  <line x1="76.200004mm" y1="36.509918mm" x2="72.199550mm" y2="36.509918mm" />
  <line x1="74.199777mm" y1="34.509691mm" x2="74.199777mm" y2="38.510146mm" />
  <text x="75mm" y="35mm" font-size="24">
   2.0
  </text>
  <circle cx="365.700000mm" cy="36.509908mm" r="1.000092mm" fill="none"/>
  <line x1="367.700185mm" y1="36.509908mm" x2="363.699815mm" y2="36.509908mm" />
  <line x1="365.700000mm" y1="34.509723mm" x2="365.700000mm" y2="38.510092mm" />
  <text x="366mm" y="35mm" font-size="24">
   2.0
  </text>
  <line x1="291.463300mm" y1="73.450000mm" x2="291.463300mm" y2="73.450000mm" />
  <line x1="291.463300mm" y1="73.450000mm" x2="287.751300mm" y2="73.450000mm" />
  <line x1="287.751300mm" y1="73.450000mm" x2="287.751300mm" y2="48.682000mm" />
  <line x1="287.751300mm" y1="48.682000mm" x2="291.463300mm" y2="48.682000mm" />
  <line x1="291.463300mm" y1="48.682000mm" x2="291.463300mm" y2="53.738000mm" />
  <line x1="291.463300mm" y1="53.738000mm" x2="292.074100mm" y2="52.668000mm" />
  <line x1="292.074100mm" y1="52.668000mm" x2="292.719900mm" y2="51.710000mm" />
  <line x1="292.719900mm" y1="51.710000mm" x2="293.400900mm" y2="50.866000mm" />
  <line x1="293.400900mm" y1="50.866000mm" x2="294.116900mm" y2="50.134000mm" />
  <line x1="294.116900mm" y1="50.134000mm" x2="294.868100mm" y2="49.514000mm" />
  <line x1="294.868100mm" y1="49.514000mm" x2="295.654300mm" y2="49.007000mm" />
  <line x1="295.654300mm" y1="49.007000mm" x2="296.475700mm" y2="48.613000mm" />
  <line x1="296.475700mm" y1="48.613000mm" x2="297.332100mm" y2="48.331000mm" />
  <line x1="297.332100mm" y1="48.331000mm" x2="298.223700mm" y2="48.162000mm" />
  <line x1="298.223700mm" y1="48.162000mm" x2="299.150300mm" y2="48.106000mm" />
  <line x1="299.150300mm" y1="48.106000mm" x2="299.708600mm" y2="48.118000mm" />
  <line x1="299.708600mm" y1="48.118000mm" x2="300.263600mm" y2="48.155000mm" />
  <line x1="300.263600mm" y1="48.155000mm" x2="300.815300mm" y2="48.215000mm" />
  <line x1="300.815300mm" y1="48.215000mm" x2="301.363600mm" y2="48.301000mm" />
  <line x1="301.363600mm" y1="48.301000mm" x2="301.908600mm" y2="48.410000mm" />
  <line x1="301.908600mm" y1="48.410000mm" x2="302.450200mm" y2="48.544000mm" />
  <line x1="302.450200mm" y1="48.544000mm" x2="302.988500mm" y2="48.702000mm" />
  <line x1="302.988500mm" y1="48.702000mm" x2="303.523400mm" y2="48.884000mm" />
  <line x1="303.523400mm" y1="48.884000mm" x2="304.055100mm" y2="49.091000mm" />
  <line x1="304.055100mm" y1="49.091000mm" x2="304.583300mm" y2="49.322000mm" />
  <line x1="304.583300mm" y1="49.322000mm" x2="303.088300mm" y2="52.906000mm" />
  <line x1="303.088300mm" y1="52.906000mm" x2="302.606400mm" y2="52.711000mm" />
  <line x1="302.606400mm" y1="52.711000mm" x2="302.137600mm" y2="52.537000mm" />
  <line x1="302.137600mm" y1="52.537000mm" x2="301.682200mm" y2="52.384000mm" />
  <line x1="301.682200mm" y1="52.384000mm" x2="301.240000mm" y2="52.251000mm" />
  <line x1="301.240000mm" y1="52.251000mm" x2="300.811100mm" y2="52.138000mm" />
  <line x1="300.811100mm" y1="52.138000mm" x2="300.395400mm" y2="52.046000mm" />
  <line x1="300.395400mm" y1="52.046000mm" x2="299.993000mm" y2="51.974000mm" />
  <line x1="299.993000mm" y1="51.974000mm" x2="299.603800mm" y2="51.923000mm" />
  <line x1="299.603800mm" y1="51.923000mm" x2="299.228000mm" y2="51.892000mm" />
  <line x1="299.228000mm" y1="51.892000mm" x2="298.865300mm" y2="51.882000mm" />
  <line x1="298.865300mm" y1="51.882000mm" x2="298.538600mm" y2="51.891000mm" />
  <line x1="298.538600mm" y1="51.891000mm" x2="298.213400mm" y2="51.919000mm" />
  <line x1="298.213400mm" y1="51.919000mm" x2="297.889500mm" y2="51.966000mm" />
  <line x1="297.889500mm" y1="51.966000mm" x2="297.567100mm" y2="52.032000mm" />
  <line x1="297.567100mm" y1="52.032000mm" x2="297.246100mm" y2="52.116000mm" />
  <line x1="297.246100mm" y1="52.116000mm" x2="296.926500mm" y2="52.219000mm" />
  <line x1="296.926500mm" y1="52.219000mm" x2="296.608300mm" y2="52.341000mm" />
  <line x1="296.608300mm" y1="52.341000mm" x2="296.291500mm" y2="52.481000mm" />
  <line x1="296.291500mm" y1="52.481000mm" x2="295.976200mm" y2="52.640000mm" />
  <line x1="295.976200mm" y1="52.640000mm" x2="295.662300mm" y2="52.818000mm" />
  <line x1="295.662300mm" y1="52.818000mm" x2="295.351600mm" y2="53.013000mm" />
  <line x1="295.351600mm" y1="53.013000mm" x2="295.045900mm" y2="53.225000mm" />
  <line x1="295.045900mm" y1="53.225000mm" x2="294.745100mm" y2="53.452000mm" />
  <line x1="294.745100mm" y1="53.452000mm" x2="294.449400mm" y2="53.696000mm" />
  <line x1="294.449400mm" y1="53.696000mm" x2="294.158600mm" y2="53.956000mm" />
  <line x1="294.158600mm" y1="53.956000mm" x2="293.872800mm" y2="54.231000mm" />
  <line x1="293.872800mm" y1="54.231000mm" x2="293.591900mm" y2="54.523000mm" />
  <line x1="293.591900mm" y1="54.523000mm" x2="293.316100mm" y2="54.831000mm" />
  <line x1="293.316100mm" y1="54.831000mm" x2="293.045200mm" y2="55.156000mm" />
  <line x1="293.045200mm" y1="55.156000mm" x2="292.779300mm" y2="55.496000mm" />
  <line x1="292.779300mm" y1="55.496000mm" x2="292.529300mm" y2="55.829000mm" />
  <line x1="292.529300mm" y1="55.829000mm" x2="292.305600mm" y2="56.131000mm" />
  <line x1="292.305600mm" y1="56.131000mm" x2="292.108200mm" y2="56.403000mm" />
  <line x1="292.108200mm" y1="56.403000mm" x2="291.937100mm" y2="56.644000mm" />
  <line x1="291.937100mm" y1="56.644000mm" x2="291.792300mm" y2="56.855000mm" />
  <line x1="291.792300mm" y1="56.855000mm" x2="291.673900mm" y2="57.035000mm" />
  <line x1="291.673900mm" y1="57.035000mm" x2="291.581800mm" y2="57.185000mm" />
  <line x1="291.581800mm" y1="57.185000mm" x2="291.516000mm" y2="57.304000mm" />
  <line x1="291.516000mm" y1="57.304000mm" x2="291.476500mm" y2="57.392000mm" />
  <line x1="291.476500mm" y1="57.392000mm" x2="291.463300mm" y2="57.450000mm" />
  <line x1="291.463300mm" y1="57.450000mm" x2="291.463300mm" y2="73.450000mm" />
  <line x1="236.285568mm" y1="74.026000mm" x2="236.285568mm" y2="74.026000mm" />
  <line x1="236.285568mm" y1="74.026000mm" x2="235.389480mm" y2="74.012000mm" />
  <line x1="235.389480mm" y1="74.012000mm" x2="234.525250mm" y2="73.970000mm" />
  <line x1="234.525250mm" y1="73.970000mm" x2="233.692840mm" y2="73.899000mm" />
  <line x1="233.692840mm" y1="73.899000mm" x2="232.892290mm" y2="73.801000mm" />
  <line x1="232.892290mm" y1="73.801000mm" x2="232.123570mm" y2="73.674000mm" />
  <line x1="232.123570mm" y1="73.674000mm" x2="231.386690mm" y2="73.519000mm" />
  <line x1="231.386690mm" y1="73.519000mm" x2="230.681640mm" y2="73.336000mm" />
  <line x1="230.681640mm" y1="73.336000mm" x2="230.008450mm" y2="73.125000mm" />
  <line x1="230.008450mm" y1="73.125000mm" x2="229.367080mm" y2="72.886000mm" />
  <line x1="229.367080mm" y1="72.886000mm" x2="228.757570mm" y2="72.618000mm" />
  <line x1="228.757570mm" y1="72.618000mm" x2="229.469560mm" y2="69.418000mm" />
  <line x1="229.469560mm" y1="69.418000mm" x2="230.095890mm" y2="69.698000mm" />
  <line x1="230.095890mm" y1="69.698000mm" x2="230.731250mm" y2="69.948000mm" />
  <line x1="230.731250mm" y1="69.948000mm" x2="231.375640mm" y2="70.169000mm" />
  <line x1="231.375640mm" y1="70.169000mm" x2="232.029080mm" y2="70.360000mm" />
  <line x1="232.029080mm" y1="70.360000mm" x2="232.691560mm" y2="70.522000mm" />
  <line x1="232.691560mm" y1="70.522000mm" x2="233.363080mm" y2="70.654000mm" />
  <line x1="233.363080mm" y1="70.654000mm" x2="234.043640mm" y2="70.758000mm" />
  <line x1="234.043640mm" y1="70.758000mm" x2="234.733250mm" y2="70.831000mm" />
  <line x1="234.733250mm" y1="70.831000mm" x2="235.431880mm" y2="70.875000mm" />
  <line x1="235.431880mm" y1="70.875000mm" x2="236.139570mm" y2="70.890000mm" />
  <line x1="236.139570mm" y1="70.890000mm" x2="236.745056mm" y2="70.879000mm" />
  <line x1="236.745056mm" y1="70.879000mm" x2="237.327515mm" y2="70.844000mm" />
  <line x1="237.327515mm" y1="70.844000mm" x2="237.886963mm" y2="70.787000mm" />
  <line x1="237.886963mm" y1="70.787000mm" x2="238.423390mm" y2="70.707000mm" />
  <line x1="238.423390mm" y1="70.707000mm" x2="238.936800mm" y2="70.605000mm" />
  <line x1="238.936800mm" y1="70.605000mm" x2="239.427190mm" y2="70.479000mm" />
  <line x1="239.427190mm" y1="70.479000mm" x2="239.894560mm" y2="70.331000mm" />
  <line x1="239.894560mm" y1="70.331000mm" x2="240.338910mm" y2="70.160000mm" />
  <line x1="240.338910mm" y1="70.160000mm" x2="240.760240mm" y2="69.966000mm" />
  <line x1="240.760240mm" y1="69.966000mm" x2="241.158550mm" y2="69.749000mm" />
  <line x1="241.158550mm" y1="69.749000mm" x2="241.526200mm" y2="69.513000mm" />
  <line x1="241.526200mm" y1="69.513000mm" x2="241.855150mm" y2="69.263000mm" />
  <line x1="241.855150mm" y1="69.263000mm" x2="242.145400mm" y2="68.997000mm" />
  <line x1="242.145400mm" y1="68.997000mm" x2="242.396960mm" y2="68.717000mm" />
  <line x1="242.396960mm" y1="68.717000mm" x2="242.609800mm" y2="68.422000mm" />
  <line x1="242.609800mm" y1="68.422000mm" x2="242.783950mm" y2="68.112000mm" />
  <line x1="242.783950mm" y1="68.112000mm" x2="242.919400mm" y2="67.787000mm" />
  <line x1="242.919400mm" y1="67.787000mm" x2="243.016140mm" y2="67.448000mm" />
  <line x1="243.016140mm" y1="67.448000mm" x2="243.074200mm" y2="67.093000mm" />
  <line x1="243.074200mm" y1="67.093000mm" x2="243.093550mm" y2="66.724000mm" />
  <line x1="243.093550mm" y1="66.724000mm" x2="243.084080mm" y2="66.473000mm" />
  <line x1="243.084080mm" y1="66.473000mm" x2="243.055630mm" y2="66.226000mm" />
  <line x1="243.055630mm" y1="66.226000mm" x2="243.008220mm" y2="65.986000mm" />
  <line x1="243.008220mm" y1="65.986000mm" x2="242.941860mm" y2="65.751000mm" />
  <line x1="242.941860mm" y1="65.751000mm" x2="242.856550mm" y2="65.521000mm" />
  <line x1="242.856550mm" y1="65.521000mm" x2="242.752270mm" y2="65.296000mm" />
  <line x1="242.752270mm" y1="65.296000mm" x2="242.629030mm" y2="65.077000mm" />
  <line x1="242.629030mm" y1="65.077000mm" x2="242.486830mm" y2="64.864000mm" />
  <line x1="242.486830mm" y1="64.864000mm" x2="242.325670mm" y2="64.656000mm" />
  <line x1="242.325670mm" y1="64.656000mm" x2="242.145550mm" y2="64.453000mm" />
  <line x1="242.145550mm" y1="64.453000mm" x2="241.929750mm" y2="64.252000mm" />
  <line x1="241.929750mm" y1="64.252000mm" x2="241.661540mm" y2="64.049000mm" />
  <line x1="241.661540mm" y1="64.049000mm" x2="241.340960mm" y2="63.844000mm" />
  <line x1="241.340960mm" y1="63.844000mm" x2="240.967960mm" y2="63.637000mm" />
  <line x1="240.967960mm" y1="63.637000mm" x2="240.542560mm" y2="63.428000mm" />
  <line x1="240.542560mm" y1="63.428000mm" x2="240.064760mm" y2="63.218000mm" />
  <line x1="240.064760mm" y1="63.218000mm" x2="239.534550mm" y2="63.005000mm" />
  <line x1="239.534550mm" y1="63.005000mm" x2="238.951950mm" y2="62.791000mm" />
  <line x1="238.951950mm" y1="62.791000mm" x2="238.316960mm" y2="62.574000mm" />
  <line x1="238.316960mm" y1="62.574000mm" x2="237.629547mm" y2="62.356000mm" />
  <line x1="237.629547mm" y1="62.356000mm" x2="236.039230mm" y2="61.867000mm" />
  <line x1="236.039230mm" y1="61.867000mm" x2="234.345230mm" y2="61.337000mm" />
  <line x1="234.345230mm" y1="61.337000mm" x2="233.394560mm" y2="61.033000mm" />
  <line x1="233.394560mm" y1="61.033000mm" x2="233.125290mm" y2="60.941000mm" />
  <line x1="233.125290mm" y1="60.941000mm" x2="232.859890mm" y2="60.840000mm" />
  <line x1="232.859890mm" y1="60.840000mm" x2="232.598340mm" y2="60.731000mm" />
  <line x1="232.598340mm" y1="60.731000mm" x2="232.340650mm" y2="60.614000mm" />
  <line x1="232.340650mm" y1="60.614000mm" x2="232.086820mm" y2="60.489000mm" />
  <line x1="232.086820mm" y1="60.489000mm" x2="231.836850mm" y2="60.355000mm" />
  <line x1="231.836850mm" y1="60.355000mm" x2="231.590730mm" y2="60.214000mm" />
  <line x1="231.590730mm" y1="60.214000mm" x2="231.348480mm" y2="60.064000mm" />
  <line x1="231.348480mm" y1="60.064000mm" x2="231.110090mm" y2="59.905000mm" />
  <line x1="231.110090mm" y1="59.905000mm" x2="230.875560mm" y2="59.739000mm" />
  <line x1="230.875560mm" y1="59.739000mm" x2="230.648530mm" y2="59.565000mm" />
  <line x1="230.648530mm" y1="59.565000mm" x2="230.432650mm" y2="59.385000mm" />
  <line x1="230.432650mm" y1="59.385000mm" x2="230.227890mm" y2="59.197000mm" />
  <line x1="230.227890mm" y1="59.197000mm" x2="230.034290mm" y2="59.004000mm" />
  <line x1="230.034290mm" y1="59.004000mm" x2="229.851820mm" y2="58.803000mm" />
  <line x1="229.851820mm" y1="58.803000mm" x2="229.680480mm" y2="58.596000mm" />
  <line x1="229.680480mm" y1="58.596000mm" x2="229.520290mm" y2="58.383000mm" />
  <line x1="229.520290mm" y1="58.383000mm" x2="229.371250mm" y2="58.162000mm" />
  <line x1="229.371250mm" y1="58.162000mm" x2="229.233340mm" y2="57.936000mm" />
  <line x1="229.233340mm" y1="57.936000mm" x2="229.106570mm" y2="57.702000mm" />
  <line x1="229.106570mm" y1="57.702000mm" x2="228.991620mm" y2="57.462000mm" />
  <line x1="228.991620mm" y1="57.462000mm" x2="228.888760mm" y2="57.217000mm" />
  <line x1="228.888760mm" y1="57.217000mm" x2="228.798020mm" y2="56.965000mm" />
  <line x1="228.798020mm" y1="56.965000mm" x2="228.719360mm" y2="56.709000mm" />
  <line x1="228.719360mm" y1="56.709000mm" x2="228.652820mm" y2="56.446000mm" />
  <line x1="228.652820mm" y1="56.446000mm" x2="228.598370mm" y2="56.178000mm" />
  <line x1="228.598370mm" y1="56.178000mm" x2="228.556020mm" y2="55.904000mm" />
  <line x1="228.556020mm" y1="55.904000mm" x2="228.525770mm" y2="55.624000mm" />
  <line x1="228.525770mm" y1="55.624000mm" x2="228.507610mm" y2="55.339000mm" />
  <line x1="228.507610mm" y1="55.339000mm" x2="228.501570mm" y2="55.048000mm" />
  <line x1="228.501570mm" y1="55.048000mm" x2="228.529600mm" y2="54.421000mm" />
  <line x1="228.529600mm" y1="54.421000mm" x2="228.613720mm" y2="53.822000mm" />
  <line x1="228.613720mm" y1="53.822000mm" x2="228.753920mm" y2="53.248000mm" />
  <line x1="228.753920mm" y1="53.248000mm" x2="228.950210mm" y2="52.701000mm" />
  <line x1="228.950210mm" y1="52.701000mm" x2="229.202560mm" y2="52.181000mm" />
  <line x1="229.202560mm" y1="52.181000mm" x2="229.511000mm" y2="51.687000mm" />
  <line x1="229.511000mm" y1="51.687000mm" x2="229.875520mm" y2="51.220000mm" />
  <line x1="229.875520mm" y1="51.220000mm" x2="230.296130mm" y2="50.780000mm" />
  <line x1="230.296130mm" y1="50.780000mm" x2="230.772810mm" y2="50.365000mm" />
  <line x1="230.772810mm" y1="50.365000mm" x2="231.305570mm" y2="49.978000mm" />
  <line x1="231.305570mm" y1="49.978000mm" x2="231.884660mm" y2="49.622000mm" />
  <line x1="231.884660mm" y1="49.622000mm" x2="232.500370mm" y2="49.304000mm" />
  <line x1="232.500370mm" y1="49.304000mm" x2="233.152660mm" y2="49.023000mm" />
  <line x1="233.152660mm" y1="49.023000mm" x2="233.841570mm" y2="48.780000mm" />
  <line x1="233.841570mm" y1="48.780000mm" x2="234.567060mm" y2="48.574000mm" />
  <line x1="234.567060mm" y1="48.574000mm" x2="235.329160mm" y2="48.406000mm" />
  <line x1="235.329160mm" y1="48.406000mm" x2="236.127870mm" y2="48.275000mm" />
  <line x1="236.127870mm" y1="48.275000mm" x2="236.963165mm" y2="48.181000mm" />
  <line x1="236.963165mm" y1="48.181000mm" x2="237.835052mm" y2="48.125000mm" />
  <line x1="237.835052mm" y1="48.125000mm" x2="238.743550mm" y2="48.106000mm" />
  <line x1="238.743550mm" y1="48.106000mm" x2="239.349010mm" y2="48.116000mm" />
  <line x1="239.349010mm" y1="48.116000mm" x2="239.967790mm" y2="48.147000mm" />
  <line x1="239.967790mm" y1="48.147000mm" x2="240.599880mm" y2="48.198000mm" />
  <line x1="240.599880mm" y1="48.198000mm" x2="241.245320mm" y2="48.270000mm" />
  <line x1="241.245320mm" y1="48.270000mm" x2="241.904050mm" y2="48.362000mm" />
  <line x1="241.904050mm" y1="48.362000mm" x2="242.576110mm" y2="48.475000mm" />
  <line x1="242.576110mm" y1="48.475000mm" x2="243.261490mm" y2="48.608000mm" />
  <line x1="243.261490mm" y1="48.608000mm" x2="243.960190mm" y2="48.761000mm" />
  <line x1="243.960190mm" y1="48.761000mm" x2="244.672210mm" y2="48.935000mm" />
  <line x1="244.672210mm" y1="48.935000mm" x2="245.397550mm" y2="49.130000mm" />
  <line x1="245.397550mm" y1="49.130000mm" x2="244.569550mm" y2="52.266000mm" />
  <line x1="244.569550mm" y1="52.266000mm" x2="243.952900mm" y2="52.071000mm" />
  <line x1="243.952900mm" y1="52.071000mm" x2="243.343350mm" y2="51.897000mm" />
  <line x1="243.343350mm" y1="51.897000mm" x2="242.740910mm" y2="51.744000mm" />
  <line x1="242.740910mm" y1="51.744000mm" x2="242.145550mm" y2="51.611000mm" />
  <line x1="242.145550mm" y1="51.611000mm" x2="241.557300mm" y2="51.498000mm" />
  <line x1="241.557300mm" y1="51.498000mm" x2="240.976150mm" y2="51.406000mm" />
  <line x1="240.976150mm" y1="51.406000mm" x2="240.402100mm" y2="51.334000mm" />
  <line x1="240.402100mm" y1="51.334000mm" x2="239.835140mm" y2="51.283000mm" />
  <line x1="239.835140mm" y1="51.283000mm" x2="239.275300mm" y2="51.252000mm" />
  <line x1="239.275300mm" y1="51.252000mm" x2="238.722550mm" y2="51.242000mm" />
  <line x1="238.722550mm" y1="51.242000mm" x2="238.133896mm" y2="51.252000mm" />
  <line x1="238.133896mm" y1="51.252000mm" x2="237.570312mm" y2="51.282000mm" />
  <line x1="237.570312mm" y1="51.282000mm" x2="237.031830mm" y2="51.332000mm" />
  <line x1="237.031830mm" y1="51.332000mm" x2="236.518402mm" y2="51.402000mm" />
  <line x1="236.518402mm" y1="51.402000mm" x2="236.030060mm" y2="51.492000mm" />
  <line x1="236.030060mm" y1="51.492000mm" x2="235.566800mm" y2="51.602000mm" />
  <line x1="235.566800mm" y1="51.602000mm" x2="235.128630mm" y2="51.732000mm" />
  <line x1="235.128630mm" y1="51.732000mm" x2="234.715530mm" y2="51.881000mm" />
  <line x1="234.715530mm" y1="51.881000mm" x2="234.327500mm" y2="52.051000mm" />
  <line x1="234.327500mm" y1="52.051000mm" x2="233.964570mm" y2="52.241000mm" />
  <line x1="233.964570mm" y1="52.241000mm" x2="233.631880mm" y2="52.448000mm" />
  <line x1="233.631880mm" y1="52.448000mm" x2="233.334210mm" y2="52.667000mm" />
  <line x1="233.334210mm" y1="52.667000mm" x2="233.071560mm" y2="52.901000mm" />
  <line x1="233.071560mm" y1="52.901000mm" x2="232.843930mm" y2="53.148000mm" />
  <line x1="232.843930mm" y1="53.148000mm" x2="232.651320mm" y2="53.408000mm" />
  <line x1="232.651320mm" y1="53.408000mm" x2="232.493730mm" y2="53.681000mm" />
  <line x1="232.493730mm" y1="53.681000mm" x2="232.371150mm" y2="53.968000mm" />
  <line x1="232.371150mm" y1="53.968000mm" x2="232.283600mm" y2="54.269000mm" />
  <line x1="232.283600mm" y1="54.269000mm" x2="232.231080mm" y2="54.583000mm" />
  <line x1="232.231080mm" y1="54.583000mm" x2="232.213560mm" y2="54.910000mm" />
  <line x1="232.213560mm" y1="54.910000mm" x2="232.221590mm" y2="55.119000mm" />
  <line x1="232.221590mm" y1="55.119000mm" x2="232.245650mm" y2="55.322000mm" />
  <line x1="232.245650mm" y1="55.322000mm" x2="232.285750mm" y2="55.521000mm" />
  <line x1="232.285750mm" y1="55.521000mm" x2="232.341890mm" y2="55.713000mm" />
  <line x1="232.341890mm" y1="55.713000mm" x2="232.414060mm" y2="55.900000mm" />
  <line x1="232.414060mm" y1="55.900000mm" x2="232.502290mm" y2="56.082000mm" />
  <line x1="232.502290mm" y1="56.082000mm" x2="232.606550mm" y2="56.259000mm" />
  <line x1="232.606550mm" y1="56.259000mm" x2="232.726850mm" y2="56.430000mm" />
  <line x1="232.726850mm" y1="56.430000mm" x2="232.863190mm" y2="56.596000mm" />
  <line x1="232.863190mm" y1="56.596000mm" x2="233.015560mm" y2="56.756000mm" />
  <line x1="233.015560mm" y1="56.756000mm" x2="233.192210mm" y2="56.912000mm" />
  <line x1="233.192210mm" y1="56.912000mm" x2="233.400970mm" y2="57.067000mm" />
  <line x1="233.400970mm" y1="57.067000mm" x2="233.641820mm" y2="57.220000mm" />
  <line x1="233.641820mm" y1="57.220000mm" x2="233.914760mm" y2="57.370000mm" />
  <line x1="233.914760mm" y1="57.370000mm" x2="234.219820mm" y2="57.519000mm" />
  <line x1="234.219820mm" y1="57.519000mm" x2="234.556960mm" y2="57.666000mm" />
  <line x1="234.556960mm" y1="57.666000mm" x2="234.926220mm" y2="57.811000mm" />
  <line x1="234.926220mm" y1="57.811000mm" x2="235.327560mm" y2="57.954000mm" />
  <line x1="235.327560mm" y1="57.954000mm" x2="235.761020mm" y2="58.096000mm" />
  <line x1="235.761020mm" y1="58.096000mm" x2="236.226560mm" y2="58.235000mm" />
  <line x1="236.226560mm" y1="58.235000mm" x2="239.744550mm" y2="59.260000mm" />
  <line x1="239.744550mm" y1="59.260000mm" x2="240.222060mm" y2="59.401000mm" />
  <line x1="240.222060mm" y1="59.401000mm" x2="240.681790mm" y2="59.548000mm" />
  <line x1="240.681790mm" y1="59.548000mm" x2="241.123730mm" y2="59.699000mm" />
  <line x1="241.123730mm" y1="59.699000mm" x2="241.547910mm" y2="59.856000mm" />
  <line x1="241.547910mm" y1="59.856000mm" x2="241.954300mm" y2="60.019000mm" />
  <line x1="241.954300mm" y1="60.019000mm" x2="242.342910mm" y2="60.187000mm" />
  <line x1="242.342910mm" y1="60.187000mm" x2="242.713750mm" y2="60.360000mm" />
  <line x1="242.713750mm" y1="60.360000mm" x2="243.066790mm" y2="60.539000mm" />
  <line x1="243.066790mm" y1="60.539000mm" x2="243.402050mm" y2="60.723000mm" />
  <line x1="243.402050mm" y1="60.723000mm" x2="243.719540mm" y2="60.912000mm" />
  <line x1="243.719540mm" y1="60.912000mm" x2="244.020430mm" y2="61.108000mm" />
  <line x1="244.020430mm" y1="61.108000mm" x2="244.305880mm" y2="61.312000mm" />
  <line x1="244.305880mm" y1="61.312000mm" x2="244.575870mm" y2="61.524000mm" />
  <line x1="244.575870mm" y1="61.524000mm" x2="244.830430mm" y2="61.744000mm" />
  <line x1="244.830430mm" y1="61.744000mm" x2="245.069550mm" y2="61.972000mm" />
  <line x1="245.069550mm" y1="61.972000mm" x2="245.293230mm" y2="62.208000mm" />
  <line x1="245.293230mm" y1="62.208000mm" x2="245.501460mm" y2="62.453000mm" />
  <line x1="245.501460mm" y1="62.453000mm" x2="245.694270mm" y2="62.705000mm" />
  <line x1="245.694270mm" y1="62.705000mm" x2="245.871630mm" y2="62.965000mm" />
  <line x1="245.871630mm" y1="62.965000mm" x2="246.033550mm" y2="63.234000mm" />
  <line x1="246.033550mm" y1="63.234000mm" x2="246.180240mm" y2="63.511000mm" />
  <line x1="246.180240mm" y1="63.511000mm" x2="246.311480mm" y2="63.796000mm" />
  <line x1="246.311480mm" y1="63.796000mm" x2="246.427280mm" y2="64.091000mm" />
  <line x1="246.427280mm" y1="64.091000mm" x2="246.527630mm" y2="64.394000mm" />
  <line x1="246.527630mm" y1="64.394000mm" x2="246.612550mm" y2="64.706000mm" />
  <line x1="246.612550mm" y1="64.706000mm" x2="246.682040mm" y2="65.026000mm" />
  <line x1="246.682040mm" y1="65.026000mm" x2="246.736070mm" y2="65.356000mm" />
  <line x1="246.736070mm" y1="65.356000mm" x2="246.774670mm" y2="65.694000mm" />
  <line x1="246.774670mm" y1="65.694000mm" x2="246.797840mm" y2="66.041000mm" />
  <line x1="246.797840mm" y1="66.041000mm" x2="246.805560mm" y2="66.397000mm" />
  <line x1="246.805560mm" y1="66.397000mm" x2="246.775860mm" y2="67.088000mm" />
  <line x1="246.775860mm" y1="67.088000mm" x2="246.686800mm" y2="67.750000mm" />
  <line x1="246.686800mm" y1="67.750000mm" x2="246.538350mm" y2="68.382000mm" />
  <line x1="246.538350mm" y1="68.382000mm" x2="246.330510mm" y2="68.984000mm" />
  <line x1="246.330510mm" y1="68.984000mm" x2="246.063290mm" y2="69.557000mm" />
  <line x1="246.063290mm" y1="69.557000mm" x2="245.736710mm" y2="70.100000mm" />
  <line x1="245.736710mm" y1="70.100000mm" x2="245.350740mm" y2="70.614000mm" />
  <line x1="245.350740mm" y1="70.614000mm" x2="244.905400mm" y2="71.098000mm" />
  <line x1="244.905400mm" y1="71.098000mm" x2="244.400670mm" y2="71.552000mm" />
  <line x1="244.400670mm" y1="71.552000mm" x2="243.836550mm" y2="71.977000mm" />
  <line x1="243.836550mm" y1="71.977000mm" x2="243.226810mm" y2="72.366000mm" />
  <line x1="243.226810mm" y1="72.366000mm" x2="242.584750mm" y2="72.715000mm" />
  <line x1="242.584750mm" y1="72.715000mm" x2="241.910400mm" y2="73.022000mm" />
  <line x1="241.910400mm" y1="73.022000mm" x2="241.203750mm" y2="73.288000mm" />
  <line x1="241.203750mm" y1="73.288000mm" x2="240.464800mm" y2="73.514000mm" />
  <line x1="240.464800mm" y1="73.514000mm" x2="239.693560mm" y2="73.698000mm" />
  <line x1="239.693560mm" y1="73.698000mm" x2="238.890000mm" y2="73.842000mm" />
  <line x1="238.890000mm" y1="73.842000mm" x2="238.054153mm" y2="73.944000mm" />
  <line x1="238.054153mm" y1="73.944000mm" x2="237.186020mm" y2="74.006000mm" />
  <line x1="237.186020mm" y1="74.006000mm" x2="236.285568mm" y2="74.026000mm" />
  <line x1="268.464400mm" y1="74.026000mm" x2="268.464400mm" y2="74.026000mm" />
  <line x1="268.464400mm" y1="74.026000mm" x2="267.319500mm" y2="73.991000mm" />
  <line x1="267.319500mm" y1="73.991000mm" x2="266.221800mm" y2="73.884000mm" />
  <line x1="266.221800mm" y1="73.884000mm" x2="265.171300mm" y2="73.707000mm" />
  <line x1="265.171300mm" y1="73.707000mm" x2="264.168100mm" y2="73.459000mm" />
  <line x1="264.168100mm" y1="73.459000mm" x2="263.212200mm" y2="73.141000mm" />
  <line x1="263.212200mm" y1="73.141000mm" x2="262.303500mm" y2="72.751000mm" />
  <line x1="262.303500mm" y1="72.751000mm" x2="261.442100mm" y2="72.290000mm" />
  <line x1="261.442100mm" y1="72.290000mm" x2="260.628000mm" y2="71.759000mm" />
  <line x1="260.628000mm" y1="71.759000mm" x2="259.861100mm" y2="71.157000mm" />
  <line x1="259.861100mm" y1="71.157000mm" x2="259.141400mm" y2="70.484000mm" />
  <line x1="259.141400mm" y1="70.484000mm" x2="258.480400mm" y2="69.752000mm" />
  <line x1="258.480400mm" y1="69.752000mm" x2="257.889000mm" y2="68.974000mm" />
  <line x1="257.889000mm" y1="68.974000mm" x2="257.367100mm" y2="68.149000mm" />
  <line x1="257.367100mm" y1="68.149000mm" x2="256.914900mm" y2="67.277000mm" />
  <line x1="256.914900mm" y1="67.277000mm" x2="256.532200mm" y2="66.359000mm" />
  <line x1="256.532200mm" y1="66.359000mm" x2="256.219100mm" y2="65.393000mm" />
  <line x1="256.219100mm" y1="65.393000mm" x2="255.975500mm" y2="64.382000mm" />
  <line x1="255.975500mm" y1="64.382000mm" x2="255.801600mm" y2="63.323000mm" />
  <line x1="255.801600mm" y1="63.323000mm" x2="255.697200mm" y2="62.218000mm" />
  <line x1="255.697200mm" y1="62.218000mm" x2="255.662400mm" y2="61.066000mm" />
  <line x1="255.662400mm" y1="61.066000mm" x2="255.697500mm" y2="59.914000mm" />
  <line x1="255.697500mm" y1="59.914000mm" x2="255.802800mm" y2="58.809000mm" />
  <line x1="255.802800mm" y1="58.809000mm" x2="255.978200mm" y2="57.750000mm" />
  <line x1="255.978200mm" y1="57.750000mm" x2="256.223900mm" y2="56.739000mm" />
  <line x1="256.223900mm" y1="56.739000mm" x2="256.539700mm" y2="55.773000mm" />
  <line x1="256.539700mm" y1="55.773000mm" x2="256.925700mm" y2="54.855000mm" />
  <line x1="256.925700mm" y1="54.855000mm" x2="257.381900mm" y2="53.983000mm" />
  <line x1="257.381900mm" y1="53.983000mm" x2="257.908200mm" y2="53.158000mm" />
  <line x1="257.908200mm" y1="53.158000mm" x2="258.504700mm" y2="52.380000mm" />
  <line x1="258.504700mm" y1="52.380000mm" x2="259.171400mm" y2="51.648000mm" />
  <line x1="259.171400mm" y1="51.648000mm" x2="259.895200mm" y2="50.975000mm" />
  <line x1="259.895200mm" y1="50.975000mm" x2="260.663000mm" y2="50.373000mm" />
  <line x1="260.663000mm" y1="50.373000mm" x2="261.474800mm" y2="49.842000mm" />
  <line x1="261.474800mm" y1="49.842000mm" x2="262.330600mm" y2="49.381000mm" />
  <line x1="262.330600mm" y1="49.381000mm" x2="263.230400mm" y2="48.992000mm" />
  <line x1="263.230400mm" y1="48.992000mm" x2="264.174200mm" y2="48.673000mm" />
  <line x1="264.174200mm" y1="48.673000mm" x2="265.162000mm" y2="48.425000mm" />
  <line x1="265.162000mm" y1="48.425000mm" x2="266.193800mm" y2="48.248000mm" />
  <line x1="266.193800mm" y1="48.248000mm" x2="267.269600mm" y2="48.141000mm" />
  <line x1="267.269600mm" y1="48.141000mm" x2="268.389400mm" y2="48.106000mm" />
  <line x1="268.389400mm" y1="48.106000mm" x2="269.132900mm" y2="48.119000mm" />
  <line x1="269.132900mm" y1="48.119000mm" x2="269.869200mm" y2="48.157000mm" />
  <line x1="269.869200mm" y1="48.157000mm" x2="270.598300mm" y2="48.221000mm" />
  <line x1="270.598300mm" y1="48.221000mm" x2="271.320300mm" y2="48.311000mm" />
  <line x1="271.320300mm" y1="48.311000mm" x2="272.035200mm" y2="48.426000mm" />
  <line x1="272.035200mm" y1="48.426000mm" x2="272.742900mm" y2="48.567000mm" />
  <line x1="272.742900mm" y1="48.567000mm" x2="273.443500mm" y2="48.733000mm" />
  <line x1="273.443500mm" y1="48.733000mm" x2="274.136900mm" y2="48.925000mm" />
  <line x1="274.136900mm" y1="48.925000mm" x2="274.823300mm" y2="49.143000mm" />
  <line x1="274.823300mm" y1="49.143000mm" x2="275.502400mm" y2="49.386000mm" />
  <line x1="275.502400mm" y1="49.386000mm" x2="274.523400mm" y2="52.458000mm" />
  <line x1="274.523400mm" y1="52.458000mm" x2="273.851900mm" y2="52.239000mm" />
  <line x1="273.851900mm" y1="52.239000mm" x2="273.193800mm" y2="52.043000mm" />
  <line x1="273.193800mm" y1="52.043000mm" x2="272.549000mm" y2="51.870000mm" />
  <line x1="272.549000mm" y1="51.870000mm" x2="271.917500mm" y2="51.721000mm" />
  <line x1="271.917500mm" y1="51.721000mm" x2="271.299400mm" y2="51.594000mm" />
  <line x1="271.299400mm" y1="51.594000mm" x2="270.694700mm" y2="51.490000mm" />
  <line x1="270.694700mm" y1="51.490000mm" x2="270.103300mm" y2="51.410000mm" />
  <line x1="270.103300mm" y1="51.410000mm" x2="269.525400mm" y2="51.352000mm" />
  <line x1="269.525400mm" y1="51.352000mm" x2="268.960700mm" y2="51.318000mm" />
  <line x1="268.960700mm" y1="51.318000mm" x2="268.409400mm" y2="51.306000mm" />
  <line x1="268.409400mm" y1="51.306000mm" x2="267.605100mm" y2="51.332000mm" />
  <line x1="267.605100mm" y1="51.332000mm" x2="266.834900mm" y2="51.411000mm" />
  <line x1="266.834900mm" y1="51.411000mm" x2="266.098900mm" y2="51.543000mm" />
  <line x1="266.098900mm" y1="51.543000mm" x2="265.397000mm" y2="51.727000mm" />
  <line x1="265.397000mm" y1="51.727000mm" x2="264.729200mm" y2="51.964000mm" />
  <line x1="264.729200mm" y1="51.964000mm" x2="264.095600mm" y2="52.254000mm" />
  <line x1="264.095600mm" y1="52.254000mm" x2="263.496100mm" y2="52.596000mm" />
  <line x1="263.496100mm" y1="52.596000mm" x2="262.930700mm" y2="52.991000mm" />
  <line x1="262.930700mm" y1="52.991000mm" x2="262.399500mm" y2="53.439000mm" />
  <line x1="262.399500mm" y1="53.439000mm" x2="261.902400mm" y2="53.939000mm" />
  <line x1="261.902400mm" y1="53.939000mm" x2="261.446400mm" y2="54.484000mm" />
  <line x1="261.446400mm" y1="54.484000mm" x2="261.038400mm" y2="55.067000mm" />
  <line x1="261.038400mm" y1="55.067000mm" x2="260.678400mm" y2="55.687000mm" />
  <line x1="260.678400mm" y1="55.687000mm" x2="260.366400mm" y2="56.345000mm" />
  <line x1="260.366400mm" y1="56.345000mm" x2="260.102400mm" y2="57.040000mm" />
  <line x1="260.102400mm" y1="57.040000mm" x2="259.886400mm" y2="57.772000mm" />
  <line x1="259.886400mm" y1="57.772000mm" x2="259.718400mm" y2="58.543000mm" />
  <line x1="259.718400mm" y1="58.543000mm" x2="259.598400mm" y2="59.350000mm" />
  <line x1="259.598400mm" y1="59.350000mm" x2="259.526400mm" y2="60.195000mm" />
  <line x1="259.526400mm" y1="60.195000mm" x2="259.502400mm" y2="61.078000mm" />
  <line x1="259.502400mm" y1="61.078000mm" x2="259.527200mm" y2="61.890000mm" />
  <line x1="259.527200mm" y1="61.890000mm" x2="259.601500mm" y2="62.676000mm" />
  <line x1="259.601500mm" y1="62.676000mm" x2="259.725400mm" y2="63.436000mm" />
  <line x1="259.725400mm" y1="63.436000mm" x2="259.898900mm" y2="64.169000mm" />
  <line x1="259.898900mm" y1="64.169000mm" x2="260.121900mm" y2="64.876000mm" />
  <line x1="260.121900mm" y1="64.876000mm" x2="260.394500mm" y2="65.557000mm" />
  <line x1="260.394500mm" y1="65.557000mm" x2="260.716700mm" y2="66.211000mm" />
  <line x1="260.716700mm" y1="66.211000mm" x2="261.088300mm" y2="66.839000mm" />
  <line x1="261.088300mm" y1="66.839000mm" x2="261.509600mm" y2="67.441000mm" />
  <line x1="261.509600mm" y1="67.441000mm" x2="261.980400mm" y2="68.016000mm" />
  <line x1="261.980400mm" y1="68.016000mm" x2="262.491300mm" y2="68.550000mm" />
  <line x1="262.491300mm" y1="68.550000mm" x2="263.032100mm" y2="69.028000mm" />
  <line x1="263.032100mm" y1="69.028000mm" x2="263.603000mm" y2="69.449000mm" />
  <line x1="263.603000mm" y1="69.449000mm" x2="264.203900mm" y2="69.814000mm" />
  <line x1="264.203900mm" y1="69.814000mm" x2="264.834900mm" y2="70.124000mm" />
  <line x1="264.834900mm" y1="70.124000mm" x2="265.496000mm" y2="70.376000mm" />
  <line x1="265.496000mm" y1="70.376000mm" x2="266.187000mm" y2="70.573000mm" />
  <line x1="266.187000mm" y1="70.573000mm" x2="266.908100mm" y2="70.714000mm" />
  <line x1="266.908100mm" y1="70.714000mm" x2="267.659300mm" y2="70.798000mm" />
  <line x1="267.659300mm" y1="70.798000mm" x2="268.440400mm" y2="70.826000mm" />
  <line x1="268.440400mm" y1="70.826000mm" x2="269.071500mm" y2="70.814000mm" />
  <line x1="269.071500mm" y1="70.814000mm" x2="269.706400mm" y2="70.777000mm" />
  <line x1="269.706400mm" y1="70.777000mm" x2="270.345100mm" y2="70.717000mm" />
  <line x1="270.345100mm" y1="70.717000mm" x2="270.987600mm" y2="70.631000mm" />
  <line x1="270.987600mm" y1="70.631000mm" x2="271.633900mm" y2="70.522000mm" />
  <line x1="271.633900mm" y1="70.522000mm" x2="272.284000mm" y2="70.388000mm" />
  <line x1="272.284000mm" y1="70.388000mm" x2="272.937900mm" y2="70.230000mm" />
  <line x1="272.937900mm" y1="70.230000mm" x2="273.595600mm" y2="70.048000mm" />
  <line x1="273.595600mm" y1="70.048000mm" x2="274.257100mm" y2="69.841000mm" />
  <line x1="274.257100mm" y1="69.841000mm" x2="274.922400mm" y2="69.610000mm" />
  <line x1="274.922400mm" y1="69.610000mm" x2="275.566400mm" y2="72.554000mm" />
  <line x1="275.566400mm" y1="72.554000mm" x2="274.914000mm" y2="72.834000mm" />
  <line x1="274.914000mm" y1="72.834000mm" x2="274.248700mm" y2="73.084000mm" />
  <line x1="274.248700mm" y1="73.084000mm" x2="273.570600mm" y2="73.305000mm" />
  <line x1="273.570600mm" y1="73.305000mm" x2="272.879700mm" y2="73.496000mm" />
  <line x1="272.879700mm" y1="73.496000mm" x2="272.175900mm" y2="73.658000mm" />
  <line x1="272.175900mm" y1="73.658000mm" x2="271.459300mm" y2="73.790000mm" />
  <line x1="271.459300mm" y1="73.790000mm" x2="270.729900mm" y2="73.894000mm" />
  <line x1="270.729900mm" y1="73.894000mm" x2="269.987500mm" y2="73.967000mm" />
  <line x1="269.987500mm" y1="73.967000mm" x2="269.232400mm" y2="74.011000mm" />
  <line x1="269.232400mm" y1="74.011000mm" x2="268.464400mm" y2="74.026000mm" />
  <line x1="174.819800mm" y1="73.450000mm" x2="174.819800mm" y2="73.450000mm" />
  <line x1="174.819800mm" y1="73.450000mm" x2="171.107800mm" y2="73.450000mm" />
  <line x1="171.107800mm" y1="73.450000mm" x2="171.107800mm" y2="48.682000mm" />
  <line x1="171.107800mm" y1="48.682000mm" x2="174.819800mm" y2="48.682000mm" />
  <line x1="174.819800mm" y1="48.682000mm" x2="174.819800mm" y2="52.330000mm" />
  <line x1="174.819800mm" y1="52.330000mm" x2="175.621700mm" y2="51.527000mm" />
  <line x1="175.621700mm" y1="51.527000mm" x2="176.432100mm" y2="50.809000mm" />
  <line x1="176.432100mm" y1="50.809000mm" x2="177.251100mm" y2="50.176000mm" />
  <line x1="177.251100mm" y1="50.176000mm" x2="178.078700mm" y2="49.627000mm" />
  <line x1="178.078700mm" y1="49.627000mm" x2="178.914800mm" y2="49.162000mm" />
  <line x1="178.914800mm" y1="49.162000mm" x2="179.759500mm" y2="48.782000mm" />
  <line x1="179.759500mm" y1="48.782000mm" x2="180.612700mm" y2="48.486000mm" />
  <line x1="180.612700mm" y1="48.486000mm" x2="181.474500mm" y2="48.275000mm" />
  <line x1="181.474500mm" y1="48.275000mm" x2="182.344900mm" y2="48.148000mm" />
  <line x1="182.344900mm" y1="48.148000mm" x2="183.223800mm" y2="48.106000mm" />
  <line x1="183.223800mm" y1="48.106000mm" x2="184.545400mm" y2="48.190000mm" />
  <line x1="184.545400mm" y1="48.190000mm" x2="185.728000mm" y2="48.442000mm" />
  <line x1="185.728000mm" y1="48.442000mm" x2="186.771400mm" y2="48.863000mm" />
  <line x1="186.771400mm" y1="48.863000mm" x2="187.675600mm" y2="49.451000mm" />
  <line x1="187.675600mm" y1="49.451000mm" x2="188.440800mm" y2="50.208000mm" />
  <line x1="188.440800mm" y1="50.208000mm" x2="189.066800mm" y2="51.133000mm" />
  <line x1="189.066800mm" y1="51.133000mm" x2="189.553800mm" y2="52.226000mm" />
  <line x1="189.553800mm" y1="52.226000mm" x2="189.901600mm" y2="53.487000mm" />
  <line x1="189.901600mm" y1="53.487000mm" x2="190.110200mm" y2="54.916000mm" />
  <line x1="190.110200mm" y1="54.916000mm" x2="190.179800mm" y2="56.514000mm" />
  <line x1="190.179800mm" y1="56.514000mm" x2="190.179800mm" y2="73.450000mm" />
  <line x1="190.179800mm" y1="73.450000mm" x2="186.467800mm" y2="73.450000mm" />
  <line x1="186.467800mm" y1="73.450000mm" x2="186.467800mm" y2="57.579000mm" />
  <line x1="186.467800mm" y1="57.579000mm" x2="186.457200mm" y2="56.937000mm" />
  <line x1="186.457200mm" y1="56.937000mm" x2="186.425600mm" y2="56.331000mm" />
  <line x1="186.425600mm" y1="56.331000mm" x2="186.372800mm" y2="55.761000mm" />
  <line x1="186.372800mm" y1="55.761000mm" x2="186.298800mm" y2="55.227000mm" />
  <line x1="186.298800mm" y1="55.227000mm" x2="186.203800mm" y2="54.730000mm" />
  <line x1="186.203800mm" y1="54.730000mm" x2="186.087600mm" y2="54.270000mm" />
  <line x1="186.087600mm" y1="54.270000mm" x2="185.950400mm" y2="53.846000mm" />
  <line x1="185.950400mm" y1="53.846000mm" x2="185.792000mm" y2="53.458000mm" />
  <line x1="185.792000mm" y1="53.458000mm" x2="185.612400mm" y2="53.106000mm" />
  <line x1="185.612400mm" y1="53.106000mm" x2="185.411800mm" y2="52.791000mm" />
  <line x1="185.411800mm" y1="52.791000mm" x2="185.188800mm" y2="52.509000mm" />
  <line x1="185.188800mm" y1="52.509000mm" x2="184.941800mm" y2="52.256000mm" />
  <line x1="184.941800mm" y1="52.256000mm" x2="184.670900mm" y2="52.034000mm" />
  <line x1="184.670900mm" y1="52.034000mm" x2="184.376000mm" y2="51.841000mm" />
  <line x1="184.376000mm" y1="51.841000mm" x2="184.057100mm" y2="51.677000mm" />
  <line x1="184.057100mm" y1="51.677000mm" x2="183.714200mm" y2="51.544000mm" />
  <line x1="183.714200mm" y1="51.544000mm" x2="183.347300mm" y2="51.440000mm" />
  <line x1="183.347300mm" y1="51.440000mm" x2="182.956400mm" y2="51.365000mm" />
  <line x1="182.956400mm" y1="51.365000mm" x2="182.541600mm" y2="51.321000mm" />
  <line x1="182.541600mm" y1="51.321000mm" x2="182.102800mm" y2="51.306000mm" />
  <line x1="182.102800mm" y1="51.306000mm" x2="181.419400mm" y2="51.348000mm" />
  <line x1="181.419400mm" y1="51.348000mm" x2="180.726000mm" y2="51.475000mm" />
  <line x1="180.726000mm" y1="51.475000mm" x2="180.022700mm" y2="51.686000mm" />
  <line x1="180.022700mm" y1="51.686000mm" x2="179.309400mm" y2="51.982000mm" />
  <line x1="179.309400mm" y1="51.982000mm" x2="178.586000mm" y2="52.362000mm" />
  <line x1="178.586000mm" y1="52.362000mm" x2="177.852800mm" y2="52.827000mm" />
  <line x1="177.852800mm" y1="52.827000mm" x2="177.109500mm" y2="53.376000mm" />
  <line x1="177.109500mm" y1="53.376000mm" x2="176.356200mm" y2="54.009000mm" />
  <line x1="176.356200mm" y1="54.009000mm" x2="175.593000mm" y2="54.727000mm" />
  <line x1="175.593000mm" y1="54.727000mm" x2="174.819800mm" y2="55.530000mm" />
  <line x1="174.819800mm" y1="55.530000mm" x2="174.819800mm" y2="73.450000mm" />
  <line x1="203.324700mm" y1="73.450000mm" x2="203.324700mm" y2="73.450000mm" />
  <line x1="203.324700mm" y1="73.450000mm" x2="199.612700mm" y2="73.450000mm" />
  <line x1="199.612700mm" y1="73.450000mm" x2="199.612700mm" y2="48.682000mm" />
  <line x1="199.612700mm" y1="48.682000mm" x2="203.324700mm" y2="48.682000mm" />
  <line x1="203.324700mm" y1="48.682000mm" x2="203.324700mm" y2="52.330000mm" />
  <line x1="203.324700mm" y1="52.330000mm" x2="204.126600mm" y2="51.527000mm" />
  <line x1="204.126600mm" y1="51.527000mm" x2="204.937000mm" y2="50.809000mm" />
  <line x1="204.937000mm" y1="50.809000mm" x2="205.756000mm" y2="50.176000mm" />
  <line x1="205.756000mm" y1="50.176000mm" x2="206.583600mm" y2="49.627000mm" />
  <line x1="206.583600mm" y1="49.627000mm" x2="207.419700mm" y2="49.162000mm" />
  <line x1="207.419700mm" y1="49.162000mm" x2="208.264400mm" y2="48.782000mm" />
  <line x1="208.264400mm" y1="48.782000mm" x2="209.117600mm" y2="48.486000mm" />
  <line x1="209.117600mm" y1="48.486000mm" x2="209.979400mm" y2="48.275000mm" />
  <line x1="209.979400mm" y1="48.275000mm" x2="210.849800mm" y2="48.148000mm" />
  <line x1="210.849800mm" y1="48.148000mm" x2="211.728700mm" y2="48.106000mm" />
  <line x1="211.728700mm" y1="48.106000mm" x2="213.050300mm" y2="48.190000mm" />
  <line x1="213.050300mm" y1="48.190000mm" x2="214.232800mm" y2="48.442000mm" />
  <line x1="214.232800mm" y1="48.442000mm" x2="215.276200mm" y2="48.863000mm" />
  <line x1="215.276200mm" y1="48.863000mm" x2="216.180500mm" y2="49.451000mm" />
  <line x1="216.180500mm" y1="49.451000mm" x2="216.945700mm" y2="50.208000mm" />
  <line x1="216.945700mm" y1="50.208000mm" x2="217.571700mm" y2="51.133000mm" />
  <line x1="217.571700mm" y1="51.133000mm" x2="218.058600mm" y2="52.226000mm" />
  <line x1="218.058600mm" y1="52.226000mm" x2="218.406400mm" y2="53.487000mm" />
  <line x1="218.406400mm" y1="53.487000mm" x2="218.615100mm" y2="54.916000mm" />
  <line x1="218.615100mm" y1="54.916000mm" x2="218.684700mm" y2="56.514000mm" />
  <line x1="218.684700mm" y1="56.514000mm" x2="218.684700mm" y2="73.450000mm" />
  <line x1="218.684700mm" y1="73.450000mm" x2="214.972700mm" y2="73.450000mm" />
  <line x1="214.972700mm" y1="73.450000mm" x2="214.972700mm" y2="57.579000mm" />
  <line x1="214.972700mm" y1="57.579000mm" x2="214.962100mm" y2="56.937000mm" />
  <line x1="214.962100mm" y1="56.937000mm" x2="214.930500mm" y2="56.331000mm" />
  <line x1="214.930500mm" y1="56.331000mm" x2="214.877600mm" y2="55.761000mm" />
  <line x1="214.877600mm" y1="55.761000mm" x2="214.803700mm" y2="55.227000mm" />
  <line x1="214.803700mm" y1="55.227000mm" x2="214.708700mm" y2="54.730000mm" />
  <line x1="214.708700mm" y1="54.730000mm" x2="214.592500mm" y2="54.270000mm" />
  <line x1="214.592500mm" y1="54.270000mm" x2="214.455200mm" y2="53.846000mm" />
  <line x1="214.455200mm" y1="53.846000mm" x2="214.296800mm" y2="53.458000mm" />
  <line x1="214.296800mm" y1="53.458000mm" x2="214.117300mm" y2="53.106000mm" />
  <line x1="214.117300mm" y1="53.106000mm" x2="213.916700mm" y2="52.791000mm" />
  <line x1="213.916700mm" y1="52.791000mm" x2="213.693700mm" y2="52.509000mm" />
  <line x1="213.693700mm" y1="52.509000mm" x2="213.446700mm" y2="52.256000mm" />
  <line x1="213.446700mm" y1="52.256000mm" x2="213.175800mm" y2="52.034000mm" />
  <line x1="213.175800mm" y1="52.034000mm" x2="212.880800mm" y2="51.841000mm" />
  <line x1="212.880800mm" y1="51.841000mm" x2="212.561900mm" y2="51.677000mm" />
  <line x1="212.561900mm" y1="51.677000mm" x2="212.219000mm" y2="51.544000mm" />
  <line x1="212.219000mm" y1="51.544000mm" x2="211.852200mm" y2="51.440000mm" />
  <line x1="211.852200mm" y1="51.440000mm" x2="211.461300mm" y2="51.365000mm" />
  <line x1="211.461300mm" y1="51.365000mm" x2="211.046500mm" y2="51.321000mm" />
  <line x1="211.046500mm" y1="51.321000mm" x2="210.607700mm" y2="51.306000mm" />
  <line x1="210.607700mm" y1="51.306000mm" x2="209.924300mm" y2="51.348000mm" />
  <line x1="209.924300mm" y1="51.348000mm" x2="209.230900mm" y2="51.475000mm" />
  <line x1="209.230900mm" y1="51.475000mm" x2="208.527600mm" y2="51.686000mm" />
  <line x1="208.527600mm" y1="51.686000mm" x2="207.814200mm" y2="51.982000mm" />
  <line x1="207.814200mm" y1="51.982000mm" x2="207.090900mm" y2="52.362000mm" />
  <line x1="207.090900mm" y1="52.362000mm" x2="206.357700mm" y2="52.827000mm" />
  <line x1="206.357700mm" y1="52.827000mm" x2="205.614400mm" y2="53.376000mm" />
  <line x1="205.614400mm" y1="53.376000mm" x2="204.861100mm" y2="54.009000mm" />
  <line x1="204.861100mm" y1="54.009000mm" x2="204.097900mm" y2="54.727000mm" />
  <line x1="204.097900mm" y1="54.727000mm" x2="203.324700mm" y2="55.530000mm" />
  <line x1="203.324700mm" y1="55.530000mm" x2="203.324700mm" y2="73.450000mm" />
  <circle cx="364.900000mm" cy="65.419908mm" r="1.000092mm" fill="none"/>
  <line x1="366.900185mm" y1="65.419908mm" x2="362.899815mm" y2="65.419908mm" />
  <line x1="364.900000mm" y1="63.419723mm" x2="364.900000mm" y2="67.420092mm" />
  <text x="365mm" y="64mm" font-size="24">
   2.0
  </text>
  <circle cx="75.000000mm" cy="65.419908mm" r="1.000092mm" fill="none"/>
  <line x1="77.000185mm" y1="65.419908mm" x2="72.999815mm" y2="65.419908mm" />
  <line x1="75.000000mm" y1="63.419723mm" x2="75.000000mm" y2="67.420092mm" />
  <text x="76mm" y="64mm" font-size="24">
   2.0
  </text>
  <circle cx="7.499908mm" cy="234.500377mm" r="0.999982mm" fill="none"/>
  <line x1="9.499872mm" y1="234.500377mm" x2="5.499944mm" y2="234.500377mm" />
  <line x1="7.499908mm" y1="232.500413mm" x2="7.499908mm" y2="236.500341mm" />
  <text x="8mm" y="233mm" font-size="24">
   2.0
  </text>
  <circle cx="7.499908mm" cy="275.900377mm" r="0.999982mm" fill="none"/>
  <line x1="9.499872mm" y1="275.900377mm" x2="5.499944mm" y2="275.900377mm" />
  <line x1="7.499908mm" y1="273.900413mm" x2="7.499908mm" y2="277.900341mm" />
  <text x="8mm" y="274mm" font-size="24">
   2.0
  </text>
  <circle cx="33.500000mm" cy="329.999943mm" r="2.000030mm" fill="none"/>
  <line x1="37.500060mm" y1="329.999943mm" x2="29.499940mm" y2="329.999943mm" />
  <line x1="33.500000mm" y1="325.999883mm" x2="33.500000mm" y2="334.000003mm" />
  <text x="35mm" y="327mm" font-size="24">
   4.0
  </text>
  <circle cx="16.499772mm" cy="342.000197mm" r="0.999879mm" fill="none"/>
  <line x1="18.499530mm" y1="342.000197mm" x2="14.500015mm" y2="342.000197mm" />
  <line x1="16.499772mm" y1="340.000440mm" x2="16.499772mm" y2="343.999955mm" />
  <text x="17mm" y="341mm" font-size="24">
   2.0
  </text>
  <circle cx="381.499772mm" cy="342.000197mm" r="0.999879mm" fill="none"/>
  <line x1="383.499530mm" y1="342.000197mm" x2="379.500015mm" y2="342.000197mm" />
  <line x1="381.499772mm" y1="340.000440mm" x2="381.499772mm" y2="343.999955mm" />
  <text x="382mm" y="341mm" font-size="24">
   2.0
  </text>
  <circle cx="48.499772mm" cy="342.000197mm" r="0.999879mm" fill="none"/>
  <line x1="50.499530mm" y1="342.000197mm" x2="46.500015mm" y2="342.000197mm" />
  <line x1="48.499772mm" y1="340.000440mm" x2="48.499772mm" y2="343.999955mm" />
  <text x="49mm" y="341mm" font-size="24">
   2.0
  </text>
  <circle cx="413.499772mm" cy="342.000197mm" r="0.999879mm" fill="none"/>
  <line x1="415.499530mm" y1="342.000197mm" x2="411.500015mm" y2="342.000197mm" />
  <line x1="413.499772mm" y1="340.000440mm" x2="413.499772mm" y2="343.999955mm" />
  <text x="414mm" y="341mm" font-size="24">
   2.0
  </text>
  <circle cx="74.199838mm" cy="366.489905mm" r="1.000112mm" fill="none"/>
  <line x1="76.200063mm" y1="366.489905mm" x2="72.199613mm" y2="366.489905mm" />
  <line x1="74.199838mm" y1="364.489680mm" x2="74.199838mm" y2="368.490129mm" />
  <text x="75mm" y="365mm" font-size="24">
   2.0
  </text>
  <circle cx="365.700000mm" cy="366.490012mm" r="0.999988mm" fill="none"/>
  <line x1="367.699975mm" y1="366.490012mm" x2="363.700025mm" y2="366.490012mm" />
  <line x1="365.700000mm" y1="364.490037mm" x2="365.700000mm" y2="368.489988mm" />
  <text x="366mm" y="365mm" font-size="24">
   2.0
  </text>
  <circle cx="398.220028mm" cy="382.099820mm" r="2.500180mm" fill="none"/>
  <line x1="403.220388mm" y1="382.099820mm" x2="393.219668mm" y2="382.099820mm" />
  <line x1="398.220028mm" y1="377.099460mm" x2="398.220028mm" y2="387.100180mm" />
  <text x="400mm" y="379mm" font-size="24">
   5.0
  </text>
  <circle cx="42.719982mm" cy="395.499857mm" r="2.500204mm" fill="none"/>
  <line x1="47.720389mm" y1="395.499857mm" x2="37.719575mm" y2="395.499857mm" />
  <line x1="42.719982mm" y1="390.499450mm" x2="42.719982mm" y2="400.500265mm" />
  <text x="45mm" y="392mm" font-size="24">
   5.0
  </text>
  <circle cx="464.800222mm" cy="394.800201mm" r="0.999885mm" fill="none"/>
  <line x1="466.799992mm" y1="394.800201mm" x2="462.800453mm" y2="394.800201mm" />
  <line x1="464.800222mm" y1="392.800431mm" x2="464.800222mm" y2="396.799970mm" />
  <text x="465mm" y="393mm" font-size="24">
   2.0
  </text>
  <circle cx="443.980222mm" cy="394.800201mm" r="0.999885mm" fill="none"/>
  <line x1="445.979992mm" y1="394.800201mm" x2="441.980453mm" y2="394.800201mm" />
  <line x1="443.980222mm" y1="392.800431mm" x2="443.980222mm" y2="396.799970mm" />
  <text x="444mm" y="393mm" font-size="24">
   2.0
  </text>
  <circle cx="395.600222mm" cy="394.800201mm" r="0.999885mm" fill="none"/>
  <line x1="397.599992mm" y1="394.800201mm" x2="393.600453mm" y2="394.800201mm" />
  <line x1="395.600222mm" y1="392.800431mm" x2="395.600222mm" y2="396.799970mm" />
  <text x="396mm" y="393mm" font-size="24">
   2.0
  </text>
  <circle cx="416.420222mm" cy="394.800201mm" r="0.999885mm" fill="none"/>
  <line x1="418.419992mm" y1="394.800201mm" x2="414.420453mm" y2="394.800201mm" />
  <line x1="416.420222mm" y1="392.800431mm" x2="416.420222mm" y2="396.799970mm" />
  <text x="417mm" y="393mm" font-size="24">
   2.0
  </text>
  <circle cx="96.300222mm" cy="394.800201mm" r="0.999885mm" fill="none"/>
  <line x1="98.299992mm" y1="394.800201mm" x2="94.300453mm" y2="394.800201mm" />
  <line x1="96.300222mm" y1="392.800431mm" x2="96.300222mm" y2="396.799970mm" />
  <text x="97mm" y="393mm" font-size="24">
   2.0
  </text>
  <circle cx="9.700222mm" cy="394.800201mm" r="0.999885mm" fill="none"/>
  <line x1="11.699992mm" y1="394.800201mm" x2="7.700453mm" y2="394.800201mm" />
  <line x1="9.700222mm" y1="392.800431mm" x2="9.700222mm" y2="396.799970mm" />
  <text x="10mm" y="393mm" font-size="24">
   2.0
  </text>
  <circle cx="30.520222mm" cy="394.800201mm" r="0.999885mm" fill="none"/>
  <line x1="32.519992mm" y1="394.800201mm" x2="28.520453mm" y2="394.800201mm" />
  <line x1="30.520222mm" y1="392.800431mm" x2="30.520222mm" y2="396.799970mm" />
  <text x="31mm" y="393mm" font-size="24">
   2.0
  </text>
  <circle cx="75.480222mm" cy="394.800201mm" r="0.999885mm" fill="none"/>
  <line x1="77.479992mm" y1="394.800201mm" x2="73.480453mm" y2="394.800201mm" />
  <line x1="75.480222mm" y1="392.800431mm" x2="75.480222mm" y2="396.799970mm" />
  <text x="76mm" y="393mm" font-size="24">
   2.0
  </text>
  <circle cx="350.499654mm" cy="115.899829mm" r="4.989703mm" fill="none"/>
  <line x1="360.479060mm" y1="115.899829mm" x2="340.520248mm" y2="115.899829mm" />
  <line x1="350.499654mm" y1="105.920423mm" x2="350.499654mm" y2="125.879235mm" />
  <text x="355mm" y="110mm" font-size="24">
   10.0
  </text>
  <circle cx="110.499654mm" cy="115.899829mm" r="4.989703mm" fill="none"/>
  <line x1="120.479060mm" y1="115.899829mm" x2="100.520248mm" y2="115.899829mm" />
  <line x1="110.499654mm" y1="105.920423mm" x2="110.499654mm" y2="125.879235mm" />
  <text x="115mm" y="110mm" font-size="24">
   10.0
  </text>
 </g>
</svg>
