  0
SECTION
  2
BLOCKS
  0
ENDSEC
  0
SECTION
  2
ENTITIES
  0
LINE
  8
0
 10
403
 20
139.5
 11
402.943
 21
140.807
  0
LINE
  8
0
 10
402.943
 20
140.807
 11
402.772
 21
142.105
  0
LINE
  8
0
 10
402.772
 20
142.105
 11
402.489
 21
143.382
  0
LINE
  8
0
 10
402.489
 20
143.382
 11
402.095
 21
144.63
  0
LINE
  8
0
 10
402.095
 20
144.63
 11
401.595
 21
145.839
  0
LINE
  8
0
 10
401.595
 20
145.839
 11
400.99
 21
147
  0
LINE
  8
0
 10
400.99
 20
147
 11
400.287
 21
148.104
  0
LINE
  8
0
 10
400.287
 20
148.104
 11
399.491
 21
149.142
  0
LINE
  8
0
 10
399.491
 20
149.142
 11
398.607
 21
150.107
  0
LINE
  8
0
 10
398.607
 20
150.107
 11
397.642
 21
150.991
  0
LINE
  8
0
 10
397.642
 20
150.991
 11
396.604
 21
151.787
  0
LINE
  8
0
 10
396.604
 20
151.787
 11
395.5
 21
152.49
  0
LINE
  8
0
 10
395.5
 20
152.49
 11
394.339
 21
153.095
  0
LINE
  8
0
 10
394.339
 20
153.095
 11
393.13
 21
153.595
  0
LINE
  8
0
 10
393.13
 20
153.595
 11
391.882
 21
153.989
  0
LINE
  8
0
 10
391.882
 20
153.989
 11
390.605
 21
154.272
  0
LINE
  8
0
 10
390.605
 20
154.272
 11
389.307
 21
154.443
  0
LINE
  8
0
 10
389.307
 20
154.443
 11
388
 21
154.5
  0
LINE
  8
0
 10
388
 20
154.5
 11
0
 21
154.5
  0
LINE
  8
0
 10
0
 20
154.5
 11
0
 21
0
  0
LINE
  8
0
 10
0
 20
0
 11
403
 21
0
  0
LINE
  8
0
 10
403
 20
0
 11
403
 21
139.5
  0
LINE
  8
0
 10
7.96068
 20
143.829
 11
7.53687
 21
144.051
  0
LINE
  8
0
 10
7.53687
 20
144.051
 11
7.26497
 21
144.445
  0
LINE
  8
0
 10
7.26497
 20
144.445
 11
7.20728
 21
144.921
  0
LINE
  8
0
 10
7.20728
 20
144.921
 11
7.37701
 21
145.368
  0
LINE
  8
0
 10
7.37701
 20
145.368
 11
7.73528
 21
145.685
  0
LINE
  8
0
 10
7.73528
 20
145.685
 11
8.2
 21
145.8
  0
LINE
  8
0
 10
8.2
 20
145.8
 11
8.66472
 21
145.685
  0
LINE
  8
0
 10
8.66472
 20
145.685
 11
9.02298
 21
145.368
  0
LINE
  8
0
 10
9.02298
 20
145.368
 11
9.1927
 21
144.921
  0
LINE
  8
0
 10
9.1927
 20
144.921
 11
9.13501
 21
144.445
  0
LINE
  8
0
 10
9.13501
 20
144.445
 11
8.86311
 21
144.051
  0
LINE
  8
0
 10
8.86311
 20
144.051
 11
8.4393
 21
143.829
  0
LINE
  8
0
 10
8.4393
 20
143.829
 11
7.96068
 21
143.829
  0
LINE
  8
0
 10
7.96068
 20
123.009
 11
7.53687
 21
123.231
  0
LINE
  8
0
 10
7.53687
 20
123.231
 11
7.26497
 21
123.625
  0
LINE
  8
0
 10
7.26497
 20
123.625
 11
7.20728
 21
124.101
  0
LINE
  8
0
 10
7.20728
 20
124.101
 11
7.37701
 21
124.548
  0
LINE
  8
0
 10
7.37701
 20
124.548
 11
7.73528
 21
124.865
  0
LINE
  8
0
 10
7.73528
 20
124.865
 11
8.2
 21
124.98
  0
LINE
  8
0
 10
8.2
 20
124.98
 11
8.66472
 21
124.865
  0
LINE
  8
0
 10
8.66472
 20
124.865
 11
9.02298
 21
124.548
  0
LINE
  8
0
 10
9.02298
 20
124.548
 11
9.1927
 21
124.101
  0
LINE
  8
0
 10
9.1927
 20
124.101
 11
9.13501
 21
123.625
  0
LINE
  8
0
 10
9.13501
 20
123.625
 11
8.86311
 21
123.231
  0
LINE
  8
0
 10
8.86311
 20
123.231
 11
8.4393
 21
123.009
  0
LINE
  8
0
 10
8.4393
 20
123.009
 11
7.96068
 21
123.009
  0
LINE
  8
0
 10
127.26
 20
92.0052
 11
126.795
 21
92.1679
  0
LINE
  8
0
 10
126.795
 20
92.1679
 11
126.378
 21
92.43
  0
LINE
  8
0
 10
126.378
 20
92.43
 11
126.03
 21
92.7783
  0
LINE
  8
0
 10
126.03
 20
92.7783
 11
125.768
 21
93.1954
  0
LINE
  8
0
 10
125.768
 20
93.1954
 11
125.605
 21
93.6604
  0
LINE
  8
0
 10
125.605
 20
93.6604
 11
125.55
 21
94.15
  0
LINE
  8
0
 10
125.55
 20
94.15
 11
125.605
 21
94.6395
  0
LINE
  8
0
 10
125.605
 20
94.6395
 11
125.768
 21
95.1045
  0
LINE
  8
0
 10
125.768
 20
95.1045
 11
126.03
 21
95.5217
  0
LINE
  8
0
 10
126.03
 20
95.5217
 11
126.378
 21
95.87
  0
LINE
  8
0
 10
126.378
 20
95.87
 11
126.795
 21
96.1321
  0
LINE
  8
0
 10
126.795
 20
96.1321
 11
127.26
 21
96.2948
  0
LINE
  8
0
 10
127.26
 20
96.2948
 11
127.75
 21
96.35
  0
LINE
  8
0
 10
127.75
 20
96.35
 11
128.24
 21
96.2948
  0
LINE
  8
0
 10
128.24
 20
96.2948
 11
128.705
 21
96.1321
  0
LINE
  8
0
 10
128.705
 20
96.1321
 11
129.122
 21
95.87
  0
LINE
  8
0
 10
129.122
 20
95.87
 11
129.47
 21
95.5217
  0
LINE
  8
0
 10
129.47
 20
95.5217
 11
129.732
 21
95.1045
  0
LINE
  8
0
 10
129.732
 20
95.1045
 11
129.895
 21
94.6395
  0
LINE
  8
0
 10
129.895
 20
94.6395
 11
129.95
 21
94.15
  0
LINE
  8
0
 10
129.95
 20
94.15
 11
129.895
 21
93.6604
  0
LINE
  8
0
 10
129.895
 20
93.6604
 11
129.732
 21
93.1954
  0
LINE
  8
0
 10
129.732
 20
93.1954
 11
129.47
 21
92.7783
  0
LINE
  8
0
 10
129.47
 20
92.7783
 11
129.122
 21
92.43
  0
LINE
  8
0
 10
129.122
 20
92.43
 11
128.705
 21
92.1679
  0
LINE
  8
0
 10
128.705
 20
92.1679
 11
128.24
 21
92.0052
  0
LINE
  8
0
 10
128.24
 20
92.0052
 11
127.75
 21
91.95
  0
LINE
  8
0
 10
127.75
 20
91.95
 11
127.26
 21
92.0052
  0
LINE
  8
0
 10
55.7605
 20
92.0052
 11
55.2954
 21
92.1679
  0
LINE
  8
0
 10
55.2954
 20
92.1679
 11
54.8783
 21
92.43
  0
LINE
  8
0
 10
54.8783
 20
92.43
 11
54.53
 21
92.7783
  0
LINE
  8
0
 10
54.53
 20
92.7783
 11
54.2679
 21
93.1954
  0
LINE
  8
0
 10
54.2679
 20
93.1954
 11
54.1051
 21
93.6604
  0
LINE
  8
0
 10
54.1051
 20
93.6604
 11
54.05
 21
94.15
  0
LINE
  8
0
 10
54.05
 20
94.15
 11
54.1051
 21
94.6395
  0
LINE
  8
0
 10
54.1051
 20
94.6395
 11
54.2679
 21
95.1045
  0
LINE
  8
0
 10
54.2679
 20
95.1045
 11
54.53
 21
95.5217
  0
LINE
  8
0
 10
54.53
 20
95.5217
 11
54.8783
 21
95.87
  0
LINE
  8
0
 10
54.8783
 20
95.87
 11
55.2954
 21
96.1321
  0
LINE
  8
0
 10
55.2954
 20
96.1321
 11
55.7605
 21
96.2948
  0
LINE
  8
0
 10
55.7605
 20
96.2948
 11
56.25
 21
96.35
  0
LINE
  8
0
 10
56.25
 20
96.35
 11
56.7395
 21
96.2948
  0
LINE
  8
0
 10
56.7395
 20
96.2948
 11
57.2045
 21
96.1321
  0
LINE
  8
0
 10
57.2045
 20
96.1321
 11
57.6217
 21
95.87
  0
LINE
  8
0
 10
57.6217
 20
95.87
 11
57.97
 21
95.5217
  0
LINE
  8
0
 10
57.97
 20
95.5217
 11
58.2321
 21
95.1045
  0
LINE
  8
0
 10
58.2321
 20
95.1045
 11
58.3948
 21
94.6395
  0
LINE
  8
0
 10
58.3948
 20
94.6395
 11
58.45
 21
94.15
  0
LINE
  8
0
 10
58.45
 20
94.15
 11
58.3948
 21
93.6604
  0
LINE
  8
0
 10
58.3948
 20
93.6604
 11
58.2321
 21
93.1954
  0
LINE
  8
0
 10
58.2321
 20
93.1954
 11
57.97
 21
92.7783
  0
LINE
  8
0
 10
57.97
 20
92.7783
 11
57.6217
 21
92.43
  0
LINE
  8
0
 10
57.6217
 20
92.43
 11
57.2045
 21
92.1679
  0
LINE
  8
0
 10
57.2045
 20
92.1679
 11
56.7395
 21
92.0052
  0
LINE
  8
0
 10
56.7395
 20
92.0052
 11
56.25
 21
91.95
  0
LINE
  8
0
 10
56.25
 20
91.95
 11
55.7605
 21
92.0052
  0
LINE
  8
0
 10
88.7317
 20
21.0427
 11
85.4882
 21
21.4697
  0
LINE
  8
0
 10
85.4882
 20
21.4697
 11
82.2943
 21
22.1778
  0
LINE
  8
0
 10
82.2943
 20
22.1778
 11
79.1742
 21
23.1615
  0
LINE
  8
0
 10
79.1742
 20
23.1615
 11
76.1518
 21
24.4135
  0
LINE
  8
0
 10
76.1518
 20
24.4135
 11
73.25
 21
25.924
  0
LINE
  8
0
 10
73.25
 20
25.924
 11
70.4909
 21
27.6818
  0
LINE
  8
0
 10
70.4909
 20
27.6818
 11
67.8955
 21
29.6733
  0
LINE
  8
0
 10
67.8955
 20
29.6733
 11
65.4835
 21
31.8835
  0
LINE
  8
0
 10
65.4835
 20
31.8835
 11
63.2733
 21
34.2955
  0
LINE
  8
0
 10
63.2733
 20
34.2955
 11
61.2818
 21
36.8909
  0
LINE
  8
0
 10
61.2818
 20
36.8909
 11
59.524
 21
39.65
  0
LINE
  8
0
 10
59.524
 20
39.65
 11
58.0134
 21
42.5518
  0
LINE
  8
0
 10
58.0134
 20
42.5518
 11
56.7615
 21
45.5742
  0
LINE
  8
0
 10
56.7615
 20
45.5742
 11
55.7778
 21
48.6943
  0
LINE
  8
0
 10
55.7778
 20
48.6943
 11
55.0697
 21
51.8882
  0
LINE
  8
0
 10
55.0697
 20
51.8882
 11
54.6427
 21
55.1317
  0
LINE
  8
0
 10
54.6427
 20
55.1317
 11
54.5
 21
58.4
  0
LINE
  8
0
 10
54.5
 20
58.4
 11
54.6427
 21
61.6683
  0
LINE
  8
0
 10
54.6427
 20
61.6683
 11
55.0697
 21
64.9118
  0
LINE
  8
0
 10
55.0697
 20
64.9118
 11
55.7778
 21
68.1057
  0
LINE
  8
0
 10
55.7778
 20
68.1057
 11
56.7615
 21
71.2258
  0
LINE
  8
0
 10
56.7615
 20
71.2258
 11
58.0134
 21
74.2482
  0
LINE
  8
0
 10
58.0134
 20
74.2482
 11
59.524
 21
77.15
  0
LINE
  8
0
 10
59.524
 20
77.15
 11
61.2818
 21
79.9091
  0
LINE
  8
0
 10
61.2818
 20
79.9091
 11
63.2733
 21
82.5045
  0
LINE
  8
0
 10
63.2733
 20
82.5045
 11
65.4835
 21
84.9165
  0
LINE
  8
0
 10
65.4835
 20
84.9165
 11
67.8955
 21
87.1267
  0
LINE
  8
0
 10
67.8955
 20
87.1267
 11
70.4909
 21
89.1182
  0
LINE
  8
0
 10
70.4909
 20
89.1182
 11
73.25
 21
90.8759
  0
LINE
  8
0
 10
73.25
 20
90.8759
 11
76.1518
 21
92.3865
  0
LINE
  8
0
 10
76.1518
 20
92.3865
 11
79.1742
 21
93.6385
  0
LINE
  8
0
 10
79.1742
 20
93.6385
 11
82.2943
 21
94.6222
  0
LINE
  8
0
 10
82.2943
 20
94.6222
 11
85.4882
 21
95.3303
  0
LINE
  8
0
 10
85.4882
 20
95.3303
 11
88.7317
 21
95.7573
  0
LINE
  8
0
 10
88.7317
 20
95.7573
 11
92
 21
95.9
  0
LINE
  8
0
 10
92
 20
95.9
 11
95.2683
 21
95.7573
  0
LINE
  8
0
 10
95.2683
 20
95.7573
 11
98.5118
 21
95.3303
  0
LINE
  8
0
 10
98.5118
 20
95.3303
 11
101.706
 21
94.6222
  0
LINE
  8
0
 10
101.706
 20
94.6222
 11
104.826
 21
93.6385
  0
LINE
  8
0
 10
104.826
 20
93.6385
 11
107.848
 21
92.3865
  0
LINE
  8
0
 10
107.848
 20
92.3865
 11
110.75
 21
90.8759
  0
LINE
  8
0
 10
110.75
 20
90.8759
 11
113.509
 21
89.1182
  0
LINE
  8
0
 10
113.509
 20
89.1182
 11
116.105
 21
87.1267
  0
LINE
  8
0
 10
116.105
 20
87.1267
 11
118.516
 21
84.9165
  0
LINE
  8
0
 10
118.516
 20
84.9165
 11
120.727
 21
82.5045
  0
LINE
  8
0
 10
120.727
 20
82.5045
 11
122.718
 21
79.9091
  0
LINE
  8
0
 10
122.718
 20
79.9091
 11
124.476
 21
77.15
  0
LINE
  8
0
 10
124.476
 20
77.15
 11
125.987
 21
74.2482
  0
LINE
  8
0
 10
125.987
 20
74.2482
 11
127.238
 21
71.2258
  0
LINE
  8
0
 10
127.238
 20
71.2258
 11
128.222
 21
68.1057
  0
LINE
  8
0
 10
128.222
 20
68.1057
 11
128.93
 21
64.9118
  0
LINE
  8
0
 10
128.93
 20
64.9118
 11
129.357
 21
61.6683
  0
LINE
  8
0
 10
129.357
 20
61.6683
 11
129.5
 21
58.4
  0
LINE
  8
0
 10
129.5
 20
58.4
 11
129.357
 21
55.1317
  0
LINE
  8
0
 10
129.357
 20
55.1317
 11
128.93
 21
51.8882
  0
LINE
  8
0
 10
128.93
 20
51.8882
 11
128.222
 21
48.6943
  0
LINE
  8
0
 10
128.222
 20
48.6943
 11
127.238
 21
45.5742
  0
LINE
  8
0
 10
127.238
 20
45.5742
 11
125.987
 21
42.5518
  0
LINE
  8
0
 10
125.987
 20
42.5518
 11
124.476
 21
39.65
  0
LINE
  8
0
 10
124.476
 20
39.65
 11
122.718
 21
36.8909
  0
LINE
  8
0
 10
122.718
 20
36.8909
 11
120.727
 21
34.2955
  0
LINE
  8
0
 10
120.727
 20
34.2955
 11
118.516
 21
31.8835
  0
LINE
  8
0
 10
118.516
 20
31.8835
 11
116.105
 21
29.6733
  0
LINE
  8
0
 10
116.105
 20
29.6733
 11
113.509
 21
27.6818
  0
LINE
  8
0
 10
113.509
 20
27.6818
 11
110.75
 21
25.924
  0
LINE
  8
0
 10
110.75
 20
25.924
 11
107.848
 21
24.4135
  0
LINE
  8
0
 10
107.848
 20
24.4135
 11
104.826
 21
23.1615
  0
LINE
  8
0
 10
104.826
 20
23.1615
 11
101.706
 21
22.1778
  0
LINE
  8
0
 10
101.706
 20
22.1778
 11
98.5118
 21
21.4697
  0
LINE
  8
0
 10
98.5118
 20
21.4697
 11
95.2683
 21
21.0427
  0
LINE
  8
0
 10
95.2683
 20
21.0427
 11
92
 21
20.9
  0
LINE
  8
0
 10
92
 20
20.9
 11
88.7317
 21
21.0427
  0
LINE
  8
0
 10
285.944
 20
88.077
 11
285.626
 21
88.4353
  0
LINE
  8
0
 10
285.626
 20
88.4353
 11
285.512
 21
88.9
  0
LINE
  8
0
 10
285.512
 20
88.9
 11
285.626
 21
89.3647
  0
LINE
  8
0
 10
285.626
 20
89.3647
 11
285.944
 21
89.723
  0
LINE
  8
0
 10
285.944
 20
89.723
 11
286.391
 21
89.8927
  0
LINE
  8
0
 10
286.391
 20
89.8927
 11
286.866
 21
89.835
  0
LINE
  8
0
 10
286.866
 20
89.835
 11
287.26
 21
89.5631
  0
LINE
  8
0
 10
287.26
 20
89.5631
 11
287.483
 21
89.1393
  0
LINE
  8
0
 10
287.483
 20
89.1393
 11
287.483
 21
88.6607
  0
LINE
  8
0
 10
287.483
 20
88.6607
 11
287.26
 21
88.2369
  0
LINE
  8
0
 10
287.26
 20
88.2369
 11
286.866
 21
87.965
  0
LINE
  8
0
 10
286.866
 20
87.965
 11
286.391
 21
87.9073
  0
LINE
  8
0
 10
286.391
 20
87.9073
 11
285.944
 21
88.077
  0
LINE
  8
0
 10
55.7605
 20
20.5052
 11
55.2954
 21
20.6679
  0
LINE
  8
0
 10
55.2954
 20
20.6679
 11
54.8783
 21
20.93
  0
LINE
  8
0
 10
54.8783
 20
20.93
 11
54.53
 21
21.2783
  0
LINE
  8
0
 10
54.53
 20
21.2783
 11
54.2679
 21
21.6954
  0
LINE
  8
0
 10
54.2679
 20
21.6954
 11
54.1051
 21
22.1604
  0
LINE
  8
0
 10
54.1051
 20
22.1604
 11
54.05
 21
22.65
  0
LINE
  8
0
 10
54.05
 20
22.65
 11
54.1051
 21
23.1395
  0
LINE
  8
0
 10
54.1051
 20
23.1395
 11
54.2679
 21
23.6045
  0
LINE
  8
0
 10
54.2679
 20
23.6045
 11
54.53
 21
24.0217
  0
LINE
  8
0
 10
54.53
 20
24.0217
 11
54.8783
 21
24.37
  0
LINE
  8
0
 10
54.8783
 20
24.37
 11
55.2954
 21
24.6321
  0
LINE
  8
0
 10
55.2954
 20
24.6321
 11
55.7605
 21
24.7948
  0
LINE
  8
0
 10
55.7605
 20
24.7948
 11
56.25
 21
24.85
  0
LINE
  8
0
 10
56.25
 20
24.85
 11
56.7395
 21
24.7948
  0
LINE
  8
0
 10
56.7395
 20
24.7948
 11
57.2045
 21
24.6321
  0
LINE
  8
0
 10
57.2045
 20
24.6321
 11
57.6217
 21
24.37
  0
LINE
  8
0
 10
57.6217
 20
24.37
 11
57.97
 21
24.0217
  0
LINE
  8
0
 10
57.97
 20
24.0217
 11
58.2321
 21
23.6045
  0
LINE
  8
0
 10
58.2321
 20
23.6045
 11
58.3948
 21
23.1395
  0
LINE
  8
0
 10
58.3948
 20
23.1395
 11
58.45
 21
22.65
  0
LINE
  8
0
 10
58.45
 20
22.65
 11
58.3948
 21
22.1604
  0
LINE
  8
0
 10
58.3948
 20
22.1604
 11
58.2321
 21
21.6954
  0
LINE
  8
0
 10
58.2321
 20
21.6954
 11
57.97
 21
21.2783
  0
LINE
  8
0
 10
57.97
 20
21.2783
 11
57.6217
 21
20.93
  0
LINE
  8
0
 10
57.6217
 20
20.93
 11
57.2045
 21
20.6679
  0
LINE
  8
0
 10
57.2045
 20
20.6679
 11
56.7395
 21
20.5052
  0
LINE
  8
0
 10
56.7395
 20
20.5052
 11
56.25
 21
20.45
  0
LINE
  8
0
 10
56.25
 20
20.45
 11
55.7605
 21
20.5052
  0
LINE
  8
0
 10
127.26
 20
20.5052
 11
126.795
 21
20.6679
  0
LINE
  8
0
 10
126.795
 20
20.6679
 11
126.378
 21
20.93
  0
LINE
  8
0
 10
126.378
 20
20.93
 11
126.03
 21
21.2783
  0
LINE
  8
0
 10
126.03
 20
21.2783
 11
125.768
 21
21.6954
  0
LINE
  8
0
 10
125.768
 20
21.6954
 11
125.605
 21
22.1604
  0
LINE
  8
0
 10
125.605
 20
22.1604
 11
125.55
 21
22.65
  0
LINE
  8
0
 10
125.55
 20
22.65
 11
125.605
 21
23.1395
  0
LINE
  8
0
 10
125.605
 20
23.1395
 11
125.768
 21
23.6045
  0
LINE
  8
0
 10
125.768
 20
23.6045
 11
126.03
 21
24.0217
  0
LINE
  8
0
 10
126.03
 20
24.0217
 11
126.378
 21
24.37
  0
LINE
  8
0
 10
126.378
 20
24.37
 11
126.795
 21
24.6321
  0
LINE
  8
0
 10
126.795
 20
24.6321
 11
127.26
 21
24.7948
  0
LINE
  8
0
 10
127.26
 20
24.7948
 11
127.75
 21
24.85
  0
LINE
  8
0
 10
127.75
 20
24.85
 11
128.24
 21
24.7948
  0
LINE
  8
0
 10
128.24
 20
24.7948
 11
128.705
 21
24.6321
  0
LINE
  8
0
 10
128.705
 20
24.6321
 11
129.122
 21
24.37
  0
LINE
  8
0
 10
129.122
 20
24.37
 11
129.47
 21
24.0217
  0
LINE
  8
0
 10
129.47
 20
24.0217
 11
129.732
 21
23.6045
  0
LINE
  8
0
 10
129.732
 20
23.6045
 11
129.895
 21
23.1395
  0
LINE
  8
0
 10
129.895
 20
23.1395
 11
129.95
 21
22.65
  0
LINE
  8
0
 10
129.95
 20
22.65
 11
129.895
 21
22.1604
  0
LINE
  8
0
 10
129.895
 20
22.1604
 11
129.732
 21
21.6954
  0
LINE
  8
0
 10
129.732
 20
21.6954
 11
129.47
 21
21.2783
  0
LINE
  8
0
 10
129.47
 20
21.2783
 11
129.122
 21
20.93
  0
LINE
  8
0
 10
129.122
 20
20.93
 11
128.705
 21
20.6679
  0
LINE
  8
0
 10
128.705
 20
20.6679
 11
128.24
 21
20.5052
  0
LINE
  8
0
 10
128.24
 20
20.5052
 11
127.75
 21
20.45
  0
LINE
  8
0
 10
127.75
 20
20.45
 11
127.26
 21
20.5052
  0
LINE
  8
0
 10
331.232
 20
5.01024
 11
330.744
 21
5.0918
  0
LINE
  8
0
 10
330.744
 20
5.0918
 11
330.275
 21
5.25267
  0
LINE
  8
0
 10
330.275
 20
5.25267
 11
329.839
 21
5.48849
  0
LINE
  8
0
 10
329.839
 20
5.48849
 11
329.448
 21
5.79282
  0
LINE
  8
0
 10
329.448
 20
5.79282
 11
329.113
 21
6.15735
  0
LINE
  8
0
 10
329.113
 20
6.15735
 11
328.842
 21
6.57214
  0
LINE
  8
0
 10
328.842
 20
6.57214
 11
328.643
 21
7.02589
  0
LINE
  8
0
 10
328.643
 20
7.02589
 11
328.521
 21
7.50621
  0
LINE
  8
0
 10
328.521
 20
7.50621
 11
328.48
 21
8
  0
LINE
  8
0
 10
328.48
 20
8
 11
328.521
 21
8.49377
  0
LINE
  8
0
 10
328.521
 20
8.49377
 11
328.643
 21
8.97409
  0
LINE
  8
0
 10
328.643
 20
8.97409
 11
328.842
 21
9.42784
  0
LINE
  8
0
 10
328.842
 20
9.42784
 11
329.113
 21
9.84264
  0
LINE
  8
0
 10
329.113
 20
9.84264
 11
329.448
 21
10.2072
  0
LINE
  8
0
 10
329.448
 20
10.2072
 11
329.839
 21
10.5115
  0
LINE
  8
0
 10
329.839
 20
10.5115
 11
330.275
 21
10.7473
  0
LINE
  8
0
 10
330.275
 20
10.7473
 11
330.744
 21
10.9082
  0
LINE
  8
0
 10
330.744
 20
10.9082
 11
331.232
 21
10.9897
  0
LINE
  8
0
 10
331.232
 20
10.9897
 11
331.728
 21
10.9897
  0
LINE
  8
0
 10
331.728
 20
10.9897
 11
332.216
 21
10.9082
  0
LINE
  8
0
 10
332.216
 20
10.9082
 11
332.685
 21
10.7473
  0
LINE
  8
0
 10
332.685
 20
10.7473
 11
333.121
 21
10.5115
  0
LINE
  8
0
 10
333.121
 20
10.5115
 11
333.512
 21
10.2072
  0
LINE
  8
0
 10
333.512
 20
10.2072
 11
333.847
 21
9.84264
  0
LINE
  8
0
 10
333.847
 20
9.84264
 11
334.118
 21
9.42784
  0
LINE
  8
0
 10
334.118
 20
9.42784
 11
334.317
 21
8.97409
  0
LINE
  8
0
 10
334.317
 20
8.97409
 11
334.439
 21
8.49377
  0
LINE
  8
0
 10
334.439
 20
8.49377
 11
334.48
 21
8
  0
LINE
  8
0
 10
334.48
 20
8
 11
334.439
 21
7.50621
  0
LINE
  8
0
 10
334.439
 20
7.50621
 11
334.317
 21
7.02589
  0
LINE
  8
0
 10
334.317
 20
7.02589
 11
334.118
 21
6.57214
  0
LINE
  8
0
 10
334.118
 20
6.57214
 11
333.847
 21
6.15735
  0
LINE
  8
0
 10
333.847
 20
6.15735
 11
333.512
 21
5.79282
  0
LINE
  8
0
 10
333.512
 20
5.79282
 11
333.121
 21
5.48849
  0
LINE
  8
0
 10
333.121
 20
5.48849
 11
332.685
 21
5.25267
  0
LINE
  8
0
 10
332.685
 20
5.25267
 11
332.216
 21
5.0918
  0
LINE
  8
0
 10
332.216
 20
5.0918
 11
331.728
 21
5.01024
  0
LINE
  8
0
 10
331.728
 20
5.01024
 11
331.232
 21
5.01024
  0
LINE
  8
0
 10
46.3519
 20
7.37701
 11
46.0345
 21
7.73528
  0
LINE
  8
0
 10
46.0345
 20
7.73528
 11
45.92
 21
8.2
  0
LINE
  8
0
 10
45.92
 20
8.2
 11
46.0345
 21
8.66472
  0
LINE
  8
0
 10
46.0345
 20
8.66472
 11
46.3519
 21
9.02298
  0
LINE
  8
0
 10
46.3519
 20
9.02298
 11
46.7995
 21
9.1927
  0
LINE
  8
0
 10
46.7995
 20
9.1927
 11
47.2746
 21
9.13501
  0
LINE
  8
0
 10
47.2746
 20
9.13501
 11
47.6685
 21
8.86311
  0
LINE
  8
0
 10
47.6685
 20
8.86311
 11
47.8909
 21
8.4393
  0
LINE
  8
0
 10
47.8909
 20
8.4393
 11
47.8909
 21
7.96068
  0
LINE
  8
0
 10
47.8909
 20
7.96068
 11
47.6685
 21
7.53687
  0
LINE
  8
0
 10
47.6685
 20
7.53687
 11
47.2746
 21
7.26497
  0
LINE
  8
0
 10
47.2746
 20
7.26497
 11
46.7995
 21
7.20728
  0
LINE
  8
0
 10
46.7995
 20
7.20728
 11
46.3519
 21
7.37701
  0
LINE
  8
0
 10
355.512
 20
7.37701
 11
355.195
 21
7.73528
  0
LINE
  8
0
 10
355.195
 20
7.73528
 11
355.08
 21
8.2
  0
LINE
  8
0
 10
355.08
 20
8.2
 11
355.195
 21
8.66472
  0
LINE
  8
0
 10
355.195
 20
8.66472
 11
355.512
 21
9.02298
  0
LINE
  8
0
 10
355.512
 20
9.02298
 11
355.959
 21
9.1927
  0
LINE
  8
0
 10
355.959
 20
9.1927
 11
356.435
 21
9.13501
  0
LINE
  8
0
 10
356.435
 20
9.13501
 11
356.829
 21
8.86311
  0
LINE
  8
0
 10
356.829
 20
8.86311
 11
357.051
 21
8.4393
  0
LINE
  8
0
 10
357.051
 20
8.4393
 11
357.051
 21
7.96068
  0
LINE
  8
0
 10
357.051
 20
7.96068
 11
356.829
 21
7.53687
  0
LINE
  8
0
 10
356.829
 20
7.53687
 11
356.435
 21
7.26497
  0
LINE
  8
0
 10
356.435
 20
7.26497
 11
355.959
 21
7.20729
  0
LINE
  8
0
 10
355.959
 20
7.20729
 11
355.512
 21
7.37701
  0
LINE
  8
0
 10
376.332
 20
7.37701
 11
376.015
 21
7.73528
  0
LINE
  8
0
 10
376.015
 20
7.73528
 11
375.9
 21
8.2
  0
LINE
  8
0
 10
375.9
 20
8.2
 11
376.015
 21
8.66472
  0
LINE
  8
0
 10
376.015
 20
8.66472
 11
376.332
 21
9.02298
  0
LINE
  8
0
 10
376.332
 20
9.02298
 11
376.779
 21
9.1927
  0
LINE
  8
0
 10
376.779
 20
9.1927
 11
377.255
 21
9.13501
  0
LINE
  8
0
 10
377.255
 20
9.13501
 11
377.648
 21
8.86311
  0
LINE
  8
0
 10
377.648
 20
8.86311
 11
377.871
 21
8.4393
  0
LINE
  8
0
 10
377.871
 20
8.4393
 11
377.871
 21
7.96068
  0
LINE
  8
0
 10
377.871
 20
7.96068
 11
377.648
 21
7.53687
  0
LINE
  8
0
 10
377.648
 20
7.53687
 11
377.255
 21
7.26497
  0
LINE
  8
0
 10
377.255
 20
7.26497
 11
376.779
 21
7.20728
  0
LINE
  8
0
 10
376.779
 20
7.20728
 11
376.332
 21
7.37701
  0
LINE
  8
0
 10
25.5319
 20
7.37701
 11
25.2145
 21
7.73528
  0
LINE
  8
0
 10
25.2145
 20
7.73528
 11
25.1
 21
8.2
  0
LINE
  8
0
 10
25.1
 20
8.2
 11
25.2145
 21
8.66472
  0
LINE
  8
0
 10
25.2145
 20
8.66472
 11
25.5319
 21
9.02298
  0
LINE
  8
0
 10
25.5319
 20
9.02298
 11
25.9795
 21
9.1927
  0
LINE
  8
0
 10
25.9795
 20
9.1927
 11
26.4546
 21
9.13501
  0
LINE
  8
0
 10
26.4546
 20
9.13501
 11
26.8485
 21
8.86311
  0
LINE
  8
0
 10
26.8485
 20
8.86311
 11
27.0709
 21
8.4393
  0
LINE
  8
0
 10
27.0709
 20
8.4393
 11
27.0709
 21
7.96068
  0
LINE
  8
0
 10
27.0709
 20
7.96068
 11
26.8485
 21
7.53687
  0
LINE
  8
0
 10
26.8485
 20
7.53687
 11
26.4546
 21
7.26497
  0
LINE
  8
0
 10
26.4546
 20
7.26497
 11
25.9795
 21
7.20729
  0
LINE
  8
0
 10
25.9795
 20
7.20729
 11
25.5319
 21
7.37701
  0
LINE
  8
0
 10
342.739
 20
5.01457
 11
342.271
 21
5.12996
  0
LINE
  8
0
 10
342.271
 20
5.12996
 11
341.844
 21
5.35402
  0
LINE
  8
0
 10
341.844
 20
5.35402
 11
341.483
 21
5.67375
  0
LINE
  8
0
 10
341.483
 20
5.67375
 11
341.209
 21
6.07054
  0
LINE
  8
0
 10
341.209
 20
6.07054
 11
341.038
 21
6.52136
  0
LINE
  8
0
 10
341.038
 20
6.52136
 11
340.98
 21
7
  0
LINE
  8
0
 10
340.98
 20
7
 11
341.038
 21
7.47862
  0
LINE
  8
0
 10
341.038
 20
7.47862
 11
341.209
 21
7.92944
  0
LINE
  8
0
 10
341.209
 20
7.92944
 11
341.483
 21
8.32623
  0
LINE
  8
0
 10
341.483
 20
8.32623
 11
341.844
 21
8.64597
  0
LINE
  8
0
 10
341.844
 20
8.64597
 11
342.271
 21
8.87003
  0
LINE
  8
0
 10
342.271
 20
8.87003
 11
342.739
 21
8.98541
  0
LINE
  8
0
 10
342.739
 20
8.98541
 11
343.221
 21
8.98541
  0
LINE
  8
0
 10
343.221
 20
8.98541
 11
343.689
 21
8.87003
  0
LINE
  8
0
 10
343.689
 20
8.87003
 11
344.116
 21
8.64597
  0
LINE
  8
0
 10
344.116
 20
8.64597
 11
344.477
 21
8.32623
  0
LINE
  8
0
 10
344.477
 20
8.32623
 11
344.751
 21
7.92944
  0
LINE
  8
0
 10
344.751
 20
7.92944
 11
344.922
 21
7.47862
  0
LINE
  8
0
 10
344.922
 20
7.47862
 11
344.98
 21
6.99998
  0
LINE
  8
0
 10
344.98
 20
6.99998
 11
344.922
 21
6.52136
  0
LINE
  8
0
 10
344.922
 20
6.52136
 11
344.751
 21
6.07054
  0
LINE
  8
0
 10
344.751
 20
6.07054
 11
344.477
 21
5.67375
  0
LINE
  8
0
 10
344.477
 20
5.67375
 11
344.116
 21
5.35402
  0
LINE
  8
0
 10
344.116
 20
5.35402
 11
343.689
 21
5.12996
  0
LINE
  8
0
 10
343.689
 20
5.12996
 11
343.221
 21
5.01457
  0
LINE
  8
0
 10
343.221
 20
5.01457
 11
342.739
 21
5.01457
  0
LINE
  8
0
 10
389.307
 20
-158.443
 11
390.605
 21
-158.272
  0
LINE
  8
0
 10
390.605
 20
-158.272
 11
391.882
 21
-157.989
  0
LINE
  8
0
 10
391.882
 20
-157.989
 11
393.13
 21
-157.595
  0
LINE
  8
0
 10
393.13
 20
-157.595
 11
394.339
 21
-157.095
  0
LINE
  8
0
 10
394.339
 20
-157.095
 11
395.5
 21
-156.49
  0
LINE
  8
0
 10
395.5
 20
-156.49
 11
396.604
 21
-155.787
  0
LINE
  8
0
 10
396.604
 20
-155.787
 11
397.642
 21
-154.991
  0
LINE
  8
0
 10
397.642
 20
-154.991
 11
398.607
 21
-154.107
  0
LINE
  8
0
 10
398.607
 20
-154.107
 11
399.491
 21
-153.142
  0
LINE
  8
0
 10
399.491
 20
-153.142
 11
400.287
 21
-152.104
  0
LINE
  8
0
 10
400.287
 20
-152.104
 11
400.99
 21
-151
  0
LINE
  8
0
 10
400.99
 20
-151
 11
401.595
 21
-149.839
  0
LINE
  8
0
 10
401.595
 20
-149.839
 11
402.095
 21
-148.63
  0
LINE
  8
0
 10
402.095
 20
-148.63
 11
402.489
 21
-147.382
  0
LINE
  8
0
 10
402.489
 20
-147.382
 11
402.772
 21
-146.105
  0
LINE
  8
0
 10
402.772
 20
-146.105
 11
402.943
 21
-144.807
  0
LINE
  8
0
 10
402.943
 20
-144.807
 11
403
 21
-143.5
  0
LINE
  8
0
 10
403
 20
-143.5
 11
403
 21
-4
  0
LINE
  8
0
 10
403
 20
-4
 11
0
 21
-4
  0
LINE
  8
0
 10
0
 20
-4
 11
0
 21
-158.5
  0
LINE
  8
0
 10
0
 20
-158.5
 11
388
 21
-158.5
  0
LINE
  8
0
 10
388
 20
-158.5
 11
389.307
 21
-158.443
  0
LINE
  8
0
 10
331.232
 20
-14.9897
 11
330.744
 21
-14.9082
  0
LINE
  8
0
 10
330.744
 20
-14.9082
 11
330.275
 21
-14.7473
  0
LINE
  8
0
 10
330.275
 20
-14.7473
 11
329.839
 21
-14.5115
  0
LINE
  8
0
 10
329.839
 20
-14.5115
 11
329.448
 21
-14.2072
  0
LINE
  8
0
 10
329.448
 20
-14.2072
 11
329.113
 21
-13.8426
  0
LINE
  8
0
 10
329.113
 20
-13.8426
 11
328.842
 21
-13.4278
  0
LINE
  8
0
 10
328.842
 20
-13.4278
 11
328.643
 21
-12.9741
  0
LINE
  8
0
 10
328.643
 20
-12.9741
 11
328.521
 21
-12.4938
  0
LINE
  8
0
 10
328.521
 20
-12.4938
 11
328.48
 21
-12
  0
LINE
  8
0
 10
328.48
 20
-12
 11
328.521
 21
-11.5062
  0
LINE
  8
0
 10
328.521
 20
-11.5062
 11
328.643
 21
-11.0259
  0
LINE
  8
0
 10
328.643
 20
-11.0259
 11
328.842
 21
-10.5721
  0
LINE
  8
0
 10
328.842
 20
-10.5721
 11
329.113
 21
-10.1573
  0
LINE
  8
0
 10
329.113
 20
-10.1573
 11
329.448
 21
-9.79282
  0
LINE
  8
0
 10
329.448
 20
-9.79282
 11
329.839
 21
-9.48849
  0
LINE
  8
0
 10
329.839
 20
-9.48849
 11
330.275
 21
-9.25267
  0
LINE
  8
0
 10
330.275
 20
-9.25267
 11
330.744
 21
-9.0918
  0
LINE
  8
0
 10
330.744
 20
-9.0918
 11
331.232
 21
-9.01024
  0
LINE
  8
0
 10
331.232
 20
-9.01024
 11
331.728
 21
-9.01024
  0
LINE
  8
0
 10
331.728
 20
-9.01024
 11
332.216
 21
-9.0918
  0
LINE
  8
0
 10
332.216
 20
-9.0918
 11
332.685
 21
-9.25267
  0
LINE
  8
0
 10
332.685
 20
-9.25267
 11
333.121
 21
-9.48849
  0
LINE
  8
0
 10
333.121
 20
-9.48849
 11
333.512
 21
-9.79282
  0
LINE
  8
0
 10
333.512
 20
-9.79282
 11
333.847
 21
-10.1573
  0
LINE
  8
0
 10
333.847
 20
-10.1573
 11
334.118
 21
-10.5721
  0
LINE
  8
0
 10
334.118
 20
-10.5721
 11
334.317
 21
-11.0259
  0
LINE
  8
0
 10
334.317
 20
-11.0259
 11
334.439
 21
-11.5062
  0
LINE
  8
0
 10
334.439
 20
-11.5062
 11
334.48
 21
-12
  0
LINE
  8
0
 10
334.48
 20
-12
 11
334.439
 21
-12.4938
  0
LINE
  8
0
 10
334.439
 20
-12.4938
 11
334.317
 21
-12.9741
  0
LINE
  8
0
 10
334.317
 20
-12.9741
 11
334.118
 21
-13.4278
  0
LINE
  8
0
 10
334.118
 20
-13.4278
 11
333.847
 21
-13.8426
  0
LINE
  8
0
 10
333.847
 20
-13.8426
 11
333.512
 21
-14.2072
  0
LINE
  8
0
 10
333.512
 20
-14.2072
 11
333.121
 21
-14.5115
  0
LINE
  8
0
 10
333.121
 20
-14.5115
 11
332.685
 21
-14.7473
  0
LINE
  8
0
 10
332.685
 20
-14.7473
 11
332.216
 21
-14.9082
  0
LINE
  8
0
 10
332.216
 20
-14.9082
 11
331.728
 21
-14.9897
  0
LINE
  8
0
 10
331.728
 20
-14.9897
 11
331.232
 21
-14.9897
  0
LINE
  8
0
 10
342.739
 20
-12.9854
 11
342.271
 21
-12.87
  0
LINE
  8
0
 10
342.271
 20
-12.87
 11
341.844
 21
-12.646
  0
LINE
  8
0
 10
341.844
 20
-12.646
 11
341.483
 21
-12.3262
  0
LINE
  8
0
 10
341.483
 20
-12.3262
 11
341.209
 21
-11.9294
  0
LINE
  8
0
 10
341.209
 20
-11.9294
 11
341.038
 21
-11.4786
  0
LINE
  8
0
 10
341.038
 20
-11.4786
 11
340.98
 21
-11
  0
LINE
  8
0
 10
340.98
 20
-11
 11
341.038
 21
-10.5214
  0
LINE
  8
0
 10
341.038
 20
-10.5214
 11
341.209
 21
-10.0705
  0
LINE
  8
0
 10
341.209
 20
-10.0705
 11
341.483
 21
-9.67375
  0
LINE
  8
0
 10
341.483
 20
-9.67375
 11
341.844
 21
-9.35402
  0
LINE
  8
0
 10
341.844
 20
-9.35402
 11
342.271
 21
-9.12996
  0
LINE
  8
0
 10
342.271
 20
-9.12996
 11
342.739
 21
-9.01457
  0
LINE
  8
0
 10
342.739
 20
-9.01457
 11
343.221
 21
-9.01457
  0
LINE
  8
0
 10
343.221
 20
-9.01457
 11
343.689
 21
-9.12996
  0
LINE
  8
0
 10
343.689
 20
-9.12996
 11
344.116
 21
-9.35402
  0
LINE
  8
0
 10
344.116
 20
-9.35402
 11
344.477
 21
-9.67375
  0
LINE
  8
0
 10
344.477
 20
-9.67375
 11
344.751
 21
-10.0705
  0
LINE
  8
0
 10
344.751
 20
-10.0705
 11
344.922
 21
-10.5214
  0
LINE
  8
0
 10
344.922
 20
-10.5214
 11
344.98
 21
-11
  0
LINE
  8
0
 10
344.98
 20
-11
 11
344.922
 21
-11.4786
  0
LINE
  8
0
 10
344.922
 20
-11.4786
 11
344.751
 21
-11.9294
  0
LINE
  8
0
 10
344.751
 20
-11.9294
 11
344.477
 21
-12.3262
  0
LINE
  8
0
 10
344.477
 20
-12.3262
 11
344.116
 21
-12.646
  0
LINE
  8
0
 10
344.116
 20
-12.646
 11
343.689
 21
-12.87
  0
LINE
  8
0
 10
343.689
 20
-12.87
 11
343.221
 21
-12.9854
  0
LINE
  8
0
 10
343.221
 20
-12.9854
 11
342.739
 21
-12.9854
  0
LINE
  8
0
 10
376.545
 20
-13.135
 11
376.151
 21
-12.8631
  0
LINE
  8
0
 10
376.151
 20
-12.8631
 11
375.929
 21
-12.4393
  0
LINE
  8
0
 10
375.929
 20
-12.4393
 11
375.929
 21
-11.9607
  0
LINE
  8
0
 10
375.929
 20
-11.9607
 11
376.151
 21
-11.5369
  0
LINE
  8
0
 10
376.151
 20
-11.5369
 11
376.545
 21
-11.265
  0
LINE
  8
0
 10
376.545
 20
-11.265
 11
377.021
 21
-11.2073
  0
LINE
  8
0
 10
377.021
 20
-11.2073
 11
377.468
 21
-11.377
  0
LINE
  8
0
 10
377.468
 20
-11.377
 11
377.785
 21
-11.7353
  0
LINE
  8
0
 10
377.785
 20
-11.7353
 11
377.9
 21
-12.2
  0
LINE
  8
0
 10
377.9
 20
-12.2
 11
377.785
 21
-12.6647
  0
LINE
  8
0
 10
377.785
 20
-12.6647
 11
377.468
 21
-13.023
  0
LINE
  8
0
 10
377.468
 20
-13.023
 11
377.021
 21
-13.1927
  0
LINE
  8
0
 10
377.021
 20
-13.1927
 11
376.545
 21
-13.135
  0
LINE
  8
0
 10
46.5654
 20
-13.135
 11
46.1715
 21
-12.8631
  0
LINE
  8
0
 10
46.1715
 20
-12.8631
 11
45.9491
 21
-12.4393
  0
LINE
  8
0
 10
45.9491
 20
-12.4393
 11
45.9491
 21
-11.9607
  0
LINE
  8
0
 10
45.9491
 20
-11.9607
 11
46.1715
 21
-11.5369
  0
LINE
  8
0
 10
46.1715
 20
-11.5369
 11
46.5654
 21
-11.265
  0
LINE
  8
0
 10
46.5654
 20
-11.265
 11
47.0405
 21
-11.2073
  0
LINE
  8
0
 10
47.0405
 20
-11.2073
 11
47.4881
 21
-11.377
  0
LINE
  8
0
 10
47.4881
 20
-11.377
 11
47.8055
 21
-11.7353
  0
LINE
  8
0
 10
47.8055
 20
-11.7353
 11
47.92
 21
-12.2
  0
LINE
  8
0
 10
47.92
 20
-12.2
 11
47.8055
 21
-12.6647
  0
LINE
  8
0
 10
47.8055
 20
-12.6647
 11
47.4881
 21
-13.023
  0
LINE
  8
0
 10
47.4881
 20
-13.023
 11
47.0405
 21
-13.1927
  0
LINE
  8
0
 10
47.0405
 20
-13.1927
 11
46.5654
 21
-13.135
  0
LINE
  8
0
 10
25.7454
 20
-13.135
 11
25.3515
 21
-12.8631
  0
LINE
  8
0
 10
25.3515
 20
-12.8631
 11
25.129
 21
-12.4393
  0
LINE
  8
0
 10
25.129
 20
-12.4393
 11
25.129
 21
-11.9607
  0
LINE
  8
0
 10
25.129
 20
-11.9607
 11
25.3515
 21
-11.5369
  0
LINE
  8
0
 10
25.3515
 20
-11.5369
 11
25.7454
 21
-11.265
  0
LINE
  8
0
 10
25.7454
 20
-11.265
 11
26.2205
 21
-11.2073
  0
LINE
  8
0
 10
26.2205
 20
-11.2073
 11
26.6681
 21
-11.377
  0
LINE
  8
0
 10
26.6681
 20
-11.377
 11
26.9854
 21
-11.7353
  0
LINE
  8
0
 10
26.9854
 20
-11.7353
 11
27.1
 21
-12.2
  0
LINE
  8
0
 10
27.1
 20
-12.2
 11
26.9854
 21
-12.6647
  0
LINE
  8
0
 10
26.9854
 20
-12.6647
 11
26.6681
 21
-13.023
  0
LINE
  8
0
 10
26.6681
 20
-13.023
 11
26.2205
 21
-13.1927
  0
LINE
  8
0
 10
26.2205
 20
-13.1927
 11
25.7454
 21
-13.135
  0
LINE
  8
0
 10
355.725
 20
-13.135
 11
355.331
 21
-12.8631
  0
LINE
  8
0
 10
355.331
 20
-12.8631
 11
355.109
 21
-12.4393
  0
LINE
  8
0
 10
355.109
 20
-12.4393
 11
355.109
 21
-11.9607
  0
LINE
  8
0
 10
355.109
 20
-11.9607
 11
355.331
 21
-11.5369
  0
LINE
  8
0
 10
355.331
 20
-11.5369
 11
355.725
 21
-11.265
  0
LINE
  8
0
 10
355.725
 20
-11.265
 11
356.201
 21
-11.2073
  0
LINE
  8
0
 10
356.201
 20
-11.2073
 11
356.648
 21
-11.377
  0
LINE
  8
0
 10
356.648
 20
-11.377
 11
356.965
 21
-11.7353
  0
LINE
  8
0
 10
356.965
 20
-11.7353
 11
357.08
 21
-12.2
  0
LINE
  8
0
 10
357.08
 20
-12.2
 11
356.965
 21
-12.6647
  0
LINE
  8
0
 10
356.965
 20
-12.6647
 11
356.648
 21
-13.023
  0
LINE
  8
0
 10
356.648
 20
-13.023
 11
356.201
 21
-13.1927
  0
LINE
  8
0
 10
356.201
 20
-13.1927
 11
355.725
 21
-13.135
  0
LINE
  8
0
 10
7.49998
 20
-25.4
 11
7.01227
 21
-25.352
  0
LINE
  8
0
 10
7.01227
 20
-25.352
 11
6.54329
 21
-25.2097
  0
LINE
  8
0
 10
6.54329
 20
-25.2097
 11
6.11107
 21
-24.9787
  0
LINE
  8
0
 10
6.11107
 20
-24.9787
 11
5.73222
 21
-24.6678
  0
LINE
  8
0
 10
5.73222
 20
-24.6678
 11
5.42133
 21
-24.2889
  0
LINE
  8
0
 10
5.42133
 20
-24.2889
 11
5.19029
 21
-23.8567
  0
LINE
  8
0
 10
5.19029
 20
-23.8567
 11
5.04803
 21
-23.3877
  0
LINE
  8
0
 10
5.04803
 20
-23.3877
 11
4.99998
 21
-22.9
  0
LINE
  8
0
 10
4.99998
 20
-22.9
 11
5.04803
 21
-22.4123
  0
LINE
  8
0
 10
5.04803
 20
-22.4123
 11
5.19029
 21
-21.9433
  0
LINE
  8
0
 10
5.19029
 20
-21.9433
 11
5.42133
 21
-21.5111
  0
LINE
  8
0
 10
5.42133
 20
-21.5111
 11
5.73222
 21
-21.1322
  0
LINE
  8
0
 10
5.73222
 20
-21.1322
 11
6.11107
 21
-20.8213
  0
LINE
  8
0
 10
6.11107
 20
-20.8213
 11
6.54329
 21
-20.5903
  0
LINE
  8
0
 10
6.54329
 20
-20.5903
 11
7.01227
 21
-20.448
  0
LINE
  8
0
 10
7.01227
 20
-20.448
 11
7.49998
 21
-20.4
  0
LINE
  8
0
 10
7.49998
 20
-20.4
 11
7.98772
 21
-20.448
  0
LINE
  8
0
 10
7.98772
 20
-20.448
 11
8.4567
 21
-20.5903
  0
LINE
  8
0
 10
8.4567
 20
-20.5903
 11
8.88892
 21
-20.8213
  0
LINE
  8
0
 10
8.88892
 20
-20.8213
 11
9.26776
 21
-21.1322
  0
LINE
  8
0
 10
9.26776
 20
-21.1322
 11
9.57866
 21
-21.5111
  0
LINE
  8
0
 10
9.57866
 20
-21.5111
 11
9.80969
 21
-21.9433
  0
LINE
  8
0
 10
9.80969
 20
-21.9433
 11
9.95195
 21
-22.4123
  0
LINE
  8
0
 10
9.95195
 20
-22.4123
 11
9.99998
 21
-22.9
  0
LINE
  8
0
 10
9.99998
 20
-22.9
 11
9.95195
 21
-23.3877
  0
LINE
  8
0
 10
9.95195
 20
-23.3877
 11
9.80969
 21
-23.8567
  0
LINE
  8
0
 10
9.80969
 20
-23.8567
 11
9.57866
 21
-24.2889
  0
LINE
  8
0
 10
9.57866
 20
-24.2889
 11
9.26776
 21
-24.6678
  0
LINE
  8
0
 10
9.26776
 20
-24.6678
 11
8.88892
 21
-24.9787
  0
LINE
  8
0
 10
8.88892
 20
-24.9787
 11
8.4567
 21
-25.2097
  0
LINE
  8
0
 10
8.4567
 20
-25.2097
 11
7.98772
 21
-25.352
  0
LINE
  8
0
 10
7.98772
 20
-25.352
 11
7.49998
 21
-25.4
  0
LINE
  8
0
 10
6.99998
 20
-34.4
 11
6.52136
 21
-34.3419
  0
LINE
  8
0
 10
6.52136
 20
-34.3419
 11
6.07054
 21
-34.1709
  0
LINE
  8
0
 10
6.07054
 20
-34.1709
 11
5.67375
 21
-33.897
  0
LINE
  8
0
 10
5.67375
 20
-33.897
 11
5.35402
 21
-33.5361
  0
LINE
  8
0
 10
5.35402
 20
-33.5361
 11
5.12996
 21
-33.1092
  0
LINE
  8
0
 10
5.12996
 20
-33.1092
 11
5.01457
 21
-32.6411
  0
LINE
  8
0
 10
5.01457
 20
-32.6411
 11
5.01457
 21
-32.1589
  0
LINE
  8
0
 10
5.01457
 20
-32.1589
 11
5.12996
 21
-31.6908
  0
LINE
  8
0
 10
5.12996
 20
-31.6908
 11
5.35402
 21
-31.2639
  0
LINE
  8
0
 10
5.35402
 20
-31.2639
 11
5.67375
 21
-30.903
  0
LINE
  8
0
 10
5.67375
 20
-30.903
 11
6.07054
 21
-30.6291
  0
LINE
  8
0
 10
6.07054
 20
-30.6291
 11
6.52136
 21
-30.4581
  0
LINE
  8
0
 10
6.52136
 20
-30.4581
 11
6.99998
 21
-30.4
  0
LINE
  8
0
 10
6.99998
 20
-30.4
 11
7.47862
 21
-30.4581
  0
LINE
  8
0
 10
7.47862
 20
-30.4581
 11
7.92944
 21
-30.6291
  0
LINE
  8
0
 10
7.92944
 20
-30.6291
 11
8.32623
 21
-30.903
  0
LINE
  8
0
 10
8.32623
 20
-30.903
 11
8.64597
 21
-31.2639
  0
LINE
  8
0
 10
8.64597
 20
-31.2639
 11
8.87003
 21
-31.6908
  0
LINE
  8
0
 10
8.87003
 20
-31.6908
 11
8.98541
 21
-32.1589
  0
LINE
  8
0
 10
8.98541
 20
-32.1589
 11
8.98541
 21
-32.6411
  0
LINE
  8
0
 10
8.98541
 20
-32.6411
 11
8.87003
 21
-33.1092
  0
LINE
  8
0
 10
8.87003
 20
-33.1092
 11
8.64597
 21
-33.5361
  0
LINE
  8
0
 10
8.64597
 20
-33.5361
 11
8.32623
 21
-33.897
  0
LINE
  8
0
 10
8.32623
 20
-33.897
 11
7.92944
 21
-34.1709
  0
LINE
  8
0
 10
7.92944
 20
-34.1709
 11
7.47862
 21
-34.3419
  0
LINE
  8
0
 10
7.47862
 20
-34.3419
 11
6.99998
 21
-34.4
  0
LINE
  8
0
 10
285.944
 20
-36.923
 11
285.626
 21
-36.5647
  0
LINE
  8
0
 10
285.626
 20
-36.5647
 11
285.512
 21
-36.1
  0
LINE
  8
0
 10
285.512
 20
-36.1
 11
285.626
 21
-35.6353
  0
LINE
  8
0
 10
285.626
 20
-35.6353
 11
285.944
 21
-35.277
  0
LINE
  8
0
 10
285.944
 20
-35.277
 11
286.391
 21
-35.1073
  0
LINE
  8
0
 10
286.391
 20
-35.1073
 11
286.866
 21
-35.165
  0
LINE
  8
0
 10
286.866
 20
-35.165
 11
287.26
 21
-35.4369
  0
LINE
  8
0
 10
287.26
 20
-35.4369
 11
287.483
 21
-35.8607
  0
LINE
  8
0
 10
287.483
 20
-35.8607
 11
287.483
 21
-36.3393
  0
LINE
  8
0
 10
287.483
 20
-36.3393
 11
287.26
 21
-36.7631
  0
LINE
  8
0
 10
287.26
 20
-36.7631
 11
286.866
 21
-37.035
  0
LINE
  8
0
 10
286.866
 20
-37.035
 11
286.391
 21
-37.0927
  0
LINE
  8
0
 10
286.391
 20
-37.0927
 11
285.944
 21
-36.923
  0
LINE
  8
0
 10
321.022
 20
-58.2548
 11
320.616
 21
-57.9839
  0
LINE
  8
0
 10
320.616
 20
-57.9839
 11
320.345
 21
-57.5783
  0
LINE
  8
0
 10
320.345
 20
-57.5783
 11
320.25
 21
-57.1
  0
LINE
  8
0
 10
320.25
 20
-57.1
 11
320.345
 21
-56.6216
  0
LINE
  8
0
 10
320.345
 20
-56.6216
 11
320.616
 21
-56.2161
  0
LINE
  8
0
 10
320.616
 20
-56.2161
 11
321.022
 21
-55.9451
  0
LINE
  8
0
 10
321.022
 20
-55.9451
 11
321.5
 21
-55.85
  0
LINE
  8
0
 10
321.5
 20
-55.85
 11
321.978
 21
-55.9451
  0
LINE
  8
0
 10
321.978
 20
-55.9451
 11
322.384
 21
-56.2161
  0
LINE
  8
0
 10
322.384
 20
-56.2161
 11
322.655
 21
-56.6216
  0
LINE
  8
0
 10
322.655
 20
-56.6216
 11
322.75
 21
-57.1
  0
LINE
  8
0
 10
322.75
 20
-57.1
 11
322.655
 21
-57.5783
  0
LINE
  8
0
 10
322.655
 20
-57.5783
 11
322.384
 21
-57.9839
  0
LINE
  8
0
 10
322.384
 20
-57.9839
 11
321.978
 21
-58.2548
  0
LINE
  8
0
 10
321.978
 20
-58.2548
 11
321.5
 21
-58.35
  0
LINE
  8
0
 10
321.5
 20
-58.35
 11
321.022
 21
-58.2548
  0
LINE
  8
0
 10
238.522
 20
-58.2548
 11
238.116
 21
-57.9839
  0
LINE
  8
0
 10
238.116
 20
-57.9839
 11
237.845
 21
-57.5783
  0
LINE
  8
0
 10
237.845
 20
-57.5783
 11
237.75
 21
-57.1
  0
LINE
  8
0
 10
237.75
 20
-57.1
 11
237.845
 21
-56.6216
  0
LINE
  8
0
 10
237.845
 20
-56.6216
 11
238.116
 21
-56.2161
  0
LINE
  8
0
 10
238.116
 20
-56.2161
 11
238.522
 21
-55.9451
  0
LINE
  8
0
 10
238.522
 20
-55.9451
 11
239
 21
-55.85
  0
LINE
  8
0
 10
239
 20
-55.85
 11
239.478
 21
-55.9451
  0
LINE
  8
0
 10
239.478
 20
-55.9451
 11
239.884
 21
-56.2161
  0
LINE
  8
0
 10
239.884
 20
-56.2161
 11
240.155
 21
-56.6216
  0
LINE
  8
0
 10
240.155
 20
-56.6216
 11
240.25
 21
-57.1
  0
LINE
  8
0
 10
240.25
 20
-57.1
 11
240.155
 21
-57.5783
  0
LINE
  8
0
 10
240.155
 20
-57.5783
 11
239.884
 21
-57.9839
  0
LINE
  8
0
 10
239.884
 20
-57.9839
 11
239.478
 21
-58.2548
  0
LINE
  8
0
 10
239.478
 20
-58.2548
 11
239
 21
-58.35
  0
LINE
  8
0
 10
239
 20
-58.35
 11
238.522
 21
-58.2548
  0
LINE
  8
0
 10
6.99998
 20
-86.4
 11
6.52136
 21
-86.3419
  0
LINE
  8
0
 10
6.52136
 20
-86.3419
 11
6.07054
 21
-86.1709
  0
LINE
  8
0
 10
6.07054
 20
-86.1709
 11
5.67375
 21
-85.897
  0
LINE
  8
0
 10
5.67375
 20
-85.897
 11
5.35402
 21
-85.5361
  0
LINE
  8
0
 10
5.35402
 20
-85.5361
 11
5.12996
 21
-85.1092
  0
LINE
  8
0
 10
5.12996
 20
-85.1092
 11
5.01457
 21
-84.6411
  0
LINE
  8
0
 10
5.01457
 20
-84.6411
 11
5.01457
 21
-84.1589
  0
LINE
  8
0
 10
5.01457
 20
-84.1589
 11
5.12996
 21
-83.6908
  0
LINE
  8
0
 10
5.12996
 20
-83.6908
 11
5.35402
 21
-83.2639
  0
LINE
  8
0
 10
5.35402
 20
-83.2639
 11
5.67375
 21
-82.903
  0
LINE
  8
0
 10
5.67375
 20
-82.903
 11
6.07054
 21
-82.6291
  0
LINE
  8
0
 10
6.07054
 20
-82.6291
 11
6.52136
 21
-82.4581
  0
LINE
  8
0
 10
6.52136
 20
-82.4581
 11
6.99998
 21
-82.4
  0
LINE
  8
0
 10
6.99998
 20
-82.4
 11
7.47862
 21
-82.4581
  0
LINE
  8
0
 10
7.47862
 20
-82.4581
 11
7.92944
 21
-82.6291
  0
LINE
  8
0
 10
7.92944
 20
-82.6291
 11
8.32623
 21
-82.903
  0
LINE
  8
0
 10
8.32623
 20
-82.903
 11
8.64597
 21
-83.2639
  0
LINE
  8
0
 10
8.64597
 20
-83.2639
 11
8.87003
 21
-83.6908
  0
LINE
  8
0
 10
8.87003
 20
-83.6908
 11
8.98541
 21
-84.1589
  0
LINE
  8
0
 10
8.98541
 20
-84.1589
 11
8.98541
 21
-84.6411
  0
LINE
  8
0
 10
8.98541
 20
-84.6411
 11
8.87003
 21
-85.1092
  0
LINE
  8
0
 10
8.87003
 20
-85.1092
 11
8.64597
 21
-85.5361
  0
LINE
  8
0
 10
8.64597
 20
-85.5361
 11
8.32623
 21
-85.897
  0
LINE
  8
0
 10
8.32623
 20
-85.897
 11
7.92944
 21
-86.1709
  0
LINE
  8
0
 10
7.92944
 20
-86.1709
 11
7.47862
 21
-86.3419
  0
LINE
  8
0
 10
7.47862
 20
-86.3419
 11
6.99998
 21
-86.4
  0
LINE
  8
0
 10
8.49998
 20
-100.1
 11
8.00189
 21
-100.064
  0
LINE
  8
0
 10
8.00189
 20
-100.064
 11
7.51393
 21
-99.9582
  0
LINE
  8
0
 10
7.51393
 20
-99.9582
 11
7.04604
 21
-99.7837
  0
LINE
  8
0
 10
7.04604
 20
-99.7837
 11
6.60774
 21
-99.5444
  0
LINE
  8
0
 10
6.60774
 20
-99.5444
 11
6.20798
 21
-99.2451
  0
LINE
  8
0
 10
6.20798
 20
-99.2451
 11
5.85487
 21
-98.892
  0
LINE
  8
0
 10
5.85487
 20
-98.892
 11
5.5556
 21
-98.4922
  0
LINE
  8
0
 10
5.5556
 20
-98.4922
 11
5.31628
 21
-98.0539
  0
LINE
  8
0
 10
5.31628
 20
-98.0539
 11
5.14177
 21
-97.5861
  0
LINE
  8
0
 10
5.14177
 20
-97.5861
 11
5.03561
 21
-97.0981
  0
LINE
  8
0
 10
5.03561
 20
-97.0981
 11
4.99998
 21
-96.6
  0
LINE
  8
0
 10
4.99998
 20
-96.6
 11
5.03561
 21
-96.1019
  0
LINE
  8
0
 10
5.03561
 20
-96.1019
 11
5.14177
 21
-95.6139
  0
LINE
  8
0
 10
5.14177
 20
-95.6139
 11
5.31628
 21
-95.146
  0
LINE
  8
0
 10
5.31628
 20
-95.146
 11
5.5556
 21
-94.7077
  0
LINE
  8
0
 10
5.5556
 20
-94.7077
 11
5.85487
 21
-94.308
  0
LINE
  8
0
 10
5.85487
 20
-94.308
 11
6.20798
 21
-93.9549
  0
LINE
  8
0
 10
6.20798
 20
-93.9549
 11
6.60774
 21
-93.6556
  0
LINE
  8
0
 10
6.60774
 20
-93.6556
 11
7.04604
 21
-93.4163
  0
LINE
  8
0
 10
7.04604
 20
-93.4163
 11
7.51393
 21
-93.2418
  0
LINE
  8
0
 10
7.51393
 20
-93.2418
 11
8.00189
 21
-93.1356
  0
LINE
  8
0
 10
8.00189
 20
-93.1356
 11
8.49998
 21
-93.1
  0
LINE
  8
0
 10
8.49998
 20
-93.1
 11
8.99809
 21
-93.1356
  0
LINE
  8
0
 10
8.99809
 20
-93.1356
 11
9.48605
 21
-93.2418
  0
LINE
  8
0
 10
9.48605
 20
-93.2418
 11
9.95395
 21
-93.4163
  0
LINE
  8
0
 10
9.95395
 20
-93.4163
 11
10.3922
 21
-93.6556
  0
LINE
  8
0
 10
10.3922
 20
-93.6556
 11
10.792
 21
-93.9549
  0
LINE
  8
0
 10
10.792
 20
-93.9549
 11
11.1451
 21
-94.308
  0
LINE
  8
0
 10
11.1451
 20
-94.308
 11
11.4444
 21
-94.7077
  0
LINE
  8
0
 10
11.4444
 20
-94.7077
 11
11.6837
 21
-95.146
  0
LINE
  8
0
 10
11.6837
 20
-95.146
 11
11.8582
 21
-95.6139
  0
LINE
  8
0
 10
11.8582
 20
-95.6139
 11
11.9644
 21
-96.1019
  0
LINE
  8
0
 10
11.9644
 20
-96.1019
 11
12
 21
-96.6
  0
LINE
  8
0
 10
12
 20
-96.6
 11
11.9644
 21
-97.0981
  0
LINE
  8
0
 10
11.9644
 20
-97.0981
 11
11.8582
 21
-97.5861
  0
LINE
  8
0
 10
11.8582
 20
-97.5861
 11
11.6837
 21
-98.0539
  0
LINE
  8
0
 10
11.6837
 20
-98.0539
 11
11.4444
 21
-98.4922
  0
LINE
  8
0
 10
11.4444
 20
-98.4922
 11
11.1451
 21
-98.892
  0
LINE
  8
0
 10
11.1451
 20
-98.892
 11
10.792
 21
-99.2451
  0
LINE
  8
0
 10
10.792
 20
-99.2451
 11
10.3922
 21
-99.5444
  0
LINE
  8
0
 10
10.3922
 20
-99.5444
 11
9.95395
 21
-99.7837
  0
LINE
  8
0
 10
9.95395
 20
-99.7837
 11
9.48605
 21
-99.9582
  0
LINE
  8
0
 10
9.48605
 20
-99.9582
 11
8.99809
 21
-100.064
  0
LINE
  8
0
 10
8.99809
 20
-100.064
 11
8.49998
 21
-100.1
  0
LINE
  8
0
 10
205.793
 20
-97.1924
 11
205.534
 21
-96.7895
  0
LINE
  8
0
 10
205.534
 20
-96.7895
 11
205.534
 21
-96.3105
  0
LINE
  8
0
 10
205.534
 20
-96.3105
 11
205.793
 21
-95.9076
  0
LINE
  8
0
 10
205.793
 20
-95.9076
 11
206.229
 21
-95.7086
  0
LINE
  8
0
 10
206.229
 20
-95.7086
 11
206.703
 21
-95.7768
  0
LINE
  8
0
 10
206.703
 20
-95.7768
 11
207.065
 21
-96.0905
  0
LINE
  8
0
 10
207.065
 20
-96.0905
 11
207.2
 21
-96.55
  0
LINE
  8
0
 10
207.2
 20
-96.55
 11
207.065
 21
-97.0095
  0
LINE
  8
0
 10
207.065
 20
-97.0095
 11
206.703
 21
-97.3232
  0
LINE
  8
0
 10
206.703
 20
-97.3232
 11
206.229
 21
-97.3913
  0
LINE
  8
0
 10
206.229
 20
-97.3913
 11
205.793
 21
-97.1924
  0
LINE
  8
0
 10
244.822
 20
-106.555
 11
244.416
 21
-106.284
  0
LINE
  8
0
 10
244.416
 20
-106.284
 11
244.145
 21
-105.878
  0
LINE
  8
0
 10
244.145
 20
-105.878
 11
244.05
 21
-105.4
  0
LINE
  8
0
 10
244.05
 20
-105.4
 11
244.145
 21
-104.922
  0
LINE
  8
0
 10
244.145
 20
-104.922
 11
244.416
 21
-104.516
  0
LINE
  8
0
 10
244.416
 20
-104.516
 11
244.822
 21
-104.245
  0
LINE
  8
0
 10
244.822
 20
-104.245
 11
245.3
 21
-104.15
  0
LINE
  8
0
 10
245.3
 20
-104.15
 11
245.778
 21
-104.245
  0
LINE
  8
0
 10
245.778
 20
-104.245
 11
246.184
 21
-104.516
  0
LINE
  8
0
 10
246.184
 20
-104.516
 11
246.455
 21
-104.922
  0
LINE
  8
0
 10
246.455
 20
-104.922
 11
246.55
 21
-105.4
  0
LINE
  8
0
 10
246.55
 20
-105.4
 11
246.455
 21
-105.878
  0
LINE
  8
0
 10
246.455
 20
-105.878
 11
246.184
 21
-106.284
  0
LINE
  8
0
 10
246.184
 20
-106.284
 11
245.778
 21
-106.555
  0
LINE
  8
0
 10
245.778
 20
-106.555
 11
245.3
 21
-106.65
  0
LINE
  8
0
 10
245.3
 20
-106.65
 11
244.822
 21
-106.555
  0
LINE
  8
0
 10
319.722
 20
-106.555
 11
319.316
 21
-106.284
  0
LINE
  8
0
 10
319.316
 20
-106.284
 11
319.045
 21
-105.878
  0
LINE
  8
0
 10
319.045
 20
-105.878
 11
318.95
 21
-105.4
  0
LINE
  8
0
 10
318.95
 20
-105.4
 11
319.045
 21
-104.922
  0
LINE
  8
0
 10
319.045
 20
-104.922
 11
319.316
 21
-104.516
  0
LINE
  8
0
 10
319.316
 20
-104.516
 11
319.722
 21
-104.245
  0
LINE
  8
0
 10
319.722
 20
-104.245
 11
320.2
 21
-104.15
  0
LINE
  8
0
 10
320.2
 20
-104.15
 11
320.678
 21
-104.245
  0
LINE
  8
0
 10
320.678
 20
-104.245
 11
321.084
 21
-104.516
  0
LINE
  8
0
 10
321.084
 20
-104.516
 11
321.355
 21
-104.922
  0
LINE
  8
0
 10
321.355
 20
-104.922
 11
321.45
 21
-105.4
  0
LINE
  8
0
 10
321.45
 20
-105.4
 11
321.355
 21
-105.878
  0
LINE
  8
0
 10
321.355
 20
-105.878
 11
321.084
 21
-106.284
  0
LINE
  8
0
 10
321.084
 20
-106.284
 11
320.678
 21
-106.555
  0
LINE
  8
0
 10
320.678
 20
-106.555
 11
320.2
 21
-106.65
  0
LINE
  8
0
 10
320.2
 20
-106.65
 11
319.722
 21
-106.555
  0
LINE
  8
0
 10
191.493
 20
-113.092
 11
191.234
 21
-112.689
  0
LINE
  8
0
 10
191.234
 20
-112.689
 11
191.234
 21
-112.211
  0
LINE
  8
0
 10
191.234
 20
-112.211
 11
191.493
 21
-111.808
  0
LINE
  8
0
 10
191.493
 20
-111.808
 11
191.929
 21
-111.609
  0
LINE
  8
0
 10
191.929
 20
-111.609
 11
192.403
 21
-111.677
  0
LINE
  8
0
 10
192.403
 20
-111.677
 11
192.765
 21
-111.99
  0
LINE
  8
0
 10
192.765
 20
-111.99
 11
192.9
 21
-112.45
  0
LINE
  8
0
 10
192.9
 20
-112.45
 11
192.765
 21
-112.91
  0
LINE
  8
0
 10
192.765
 20
-112.91
 11
192.403
 21
-113.223
  0
LINE
  8
0
 10
192.403
 20
-113.223
 11
191.929
 21
-113.291
  0
LINE
  8
0
 10
191.929
 20
-113.291
 11
191.493
 21
-113.092
  0
LINE
  8
0
 10
7.96068
 20
-128.951
 11
7.53687
 21
-128.729
  0
LINE
  8
0
 10
7.53687
 20
-128.729
 11
7.26497
 21
-128.335
  0
LINE
  8
0
 10
7.26497
 20
-128.335
 11
7.20729
 21
-127.859
  0
LINE
  8
0
 10
7.20729
 20
-127.859
 11
7.37701
 21
-127.412
  0
LINE
  8
0
 10
7.37701
 20
-127.412
 11
7.73528
 21
-127.095
  0
LINE
  8
0
 10
7.73528
 20
-127.095
 11
8.2
 21
-126.98
  0
LINE
  8
0
 10
8.2
 20
-126.98
 11
8.66472
 21
-127.095
  0
LINE
  8
0
 10
8.66472
 20
-127.095
 11
9.02298
 21
-127.412
  0
LINE
  8
0
 10
9.02298
 20
-127.412
 11
9.1927
 21
-127.859
  0
LINE
  8
0
 10
9.1927
 20
-127.859
 11
9.13501
 21
-128.335
  0
LINE
  8
0
 10
9.13501
 20
-128.335
 11
8.86311
 21
-128.729
  0
LINE
  8
0
 10
8.86311
 20
-128.729
 11
8.4393
 21
-128.951
  0
LINE
  8
0
 10
8.4393
 20
-128.951
 11
7.96068
 21
-128.951
  0
LINE
  8
0
 10
205.793
 20
-128.692
 11
205.534
 21
-128.289
  0
LINE
  8
0
 10
205.534
 20
-128.289
 11
205.534
 21
-127.811
  0
LINE
  8
0
 10
205.534
 20
-127.811
 11
205.793
 21
-127.408
  0
LINE
  8
0
 10
205.793
 20
-127.408
 11
206.229
 21
-127.209
  0
LINE
  8
0
 10
206.229
 20
-127.209
 11
206.703
 21
-127.277
  0
LINE
  8
0
 10
206.703
 20
-127.277
 11
207.065
 21
-127.59
  0
LINE
  8
0
 10
207.065
 20
-127.59
 11
207.2
 21
-128.05
  0
LINE
  8
0
 10
207.2
 20
-128.05
 11
207.065
 21
-128.51
  0
LINE
  8
0
 10
207.065
 20
-128.51
 11
206.703
 21
-128.823
  0
LINE
  8
0
 10
206.703
 20
-128.823
 11
206.229
 21
-128.891
  0
LINE
  8
0
 10
206.229
 20
-128.891
 11
205.793
 21
-128.692
  0
LINE
  8
0
 10
191.493
 20
-144.592
 11
191.234
 21
-144.189
  0
LINE
  8
0
 10
191.234
 20
-144.189
 11
191.234
 21
-143.711
  0
LINE
  8
0
 10
191.234
 20
-143.711
 11
191.493
 21
-143.308
  0
LINE
  8
0
 10
191.493
 20
-143.308
 11
191.929
 21
-143.109
  0
LINE
  8
0
 10
191.929
 20
-143.109
 11
192.403
 21
-143.177
  0
LINE
  8
0
 10
192.403
 20
-143.177
 11
192.765
 21
-143.49
  0
LINE
  8
0
 10
192.765
 20
-143.49
 11
192.9
 21
-143.95
  0
LINE
  8
0
 10
192.9
 20
-143.95
 11
192.765
 21
-144.41
  0
LINE
  8
0
 10
192.765
 20
-144.41
 11
192.403
 21
-144.723
  0
LINE
  8
0
 10
192.403
 20
-144.723
 11
191.929
 21
-144.791
  0
LINE
  8
0
 10
191.929
 20
-144.791
 11
191.493
 21
-144.592
  0
LINE
  8
0
 10
7.96068
 20
-149.771
 11
7.53687
 21
-149.549
  0
LINE
  8
0
 10
7.53687
 20
-149.549
 11
7.26497
 21
-149.155
  0
LINE
  8
0
 10
7.26497
 20
-149.155
 11
7.20729
 21
-148.679
  0
LINE
  8
0
 10
7.20729
 20
-148.679
 11
7.37701
 21
-148.232
  0
LINE
  8
0
 10
7.37701
 20
-148.232
 11
7.73528
 21
-147.915
  0
LINE
  8
0
 10
7.73528
 20
-147.915
 11
8.2
 21
-147.8
  0
LINE
  8
0
 10
8.2
 20
-147.8
 11
8.66472
 21
-147.915
  0
LINE
  8
0
 10
8.66472
 20
-147.915
 11
9.02298
 21
-148.232
  0
LINE
  8
0
 10
9.02298
 20
-148.232
 11
9.1927
 21
-148.679
  0
LINE
  8
0
 10
9.1927
 20
-148.679
 11
9.13501
 21
-149.155
  0
LINE
  8
0
 10
9.13501
 20
-149.155
 11
8.86311
 21
-149.549
  0
LINE
  8
0
 10
8.86311
 20
-149.549
 11
8.4393
 21
-149.771
  0
LINE
  8
0
 10
8.4393
 20
-149.771
 11
7.96068
 21
-149.771
  0
LINE
  8
0
 10
149.545
 20
-152.435
 11
149.151
 21
-152.163
  0
LINE
  8
0
 10
149.151
 20
-152.163
 11
148.929
 21
-151.739
  0
LINE
  8
0
 10
148.929
 20
-151.739
 11
148.929
 21
-151.261
  0
LINE
  8
0
 10
148.929
 20
-151.261
 11
149.151
 21
-150.837
  0
LINE
  8
0
 10
149.151
 20
-150.837
 11
149.545
 21
-150.565
  0
LINE
  8
0
 10
149.545
 20
-150.565
 11
150.021
 21
-150.507
  0
LINE
  8
0
 10
150.021
 20
-150.507
 11
150.468
 21
-150.677
  0
LINE
  8
0
 10
150.468
 20
-150.677
 11
150.785
 21
-151.035
  0
LINE
  8
0
 10
150.785
 20
-151.035
 11
150.9
 21
-151.5
  0
LINE
  8
0
 10
150.9
 20
-151.5
 11
150.785
 21
-151.965
  0
LINE
  8
0
 10
150.785
 20
-151.965
 11
150.468
 21
-152.323
  0
LINE
  8
0
 10
150.468
 20
-152.323
 11
150.021
 21
-152.493
  0
LINE
  8
0
 10
150.021
 20
-152.493
 11
149.545
 21
-152.435
  0
LINE
  8
0
 10
32.5454
 20
-152.435
 11
32.1515
 21
-152.163
  0
LINE
  8
0
 10
32.1515
 20
-152.163
 11
31.929
 21
-151.739
  0
LINE
  8
0
 10
31.929
 20
-151.739
 11
31.929
 21
-151.261
  0
LINE
  8
0
 10
31.929
 20
-151.261
 11
32.1515
 21
-150.837
  0
LINE
  8
0
 10
32.1515
 20
-150.837
 11
32.5454
 21
-150.565
  0
LINE
  8
0
 10
32.5454
 20
-150.565
 11
33.0205
 21
-150.507
  0
LINE
  8
0
 10
33.0205
 20
-150.507
 11
33.4681
 21
-150.677
  0
LINE
  8
0
 10
33.4681
 20
-150.677
 11
33.7854
 21
-151.035
  0
LINE
  8
0
 10
33.7854
 20
-151.035
 11
33.9
 21
-151.5
  0
LINE
  8
0
 10
33.9
 20
-151.5
 11
33.7854
 21
-151.965
  0
LINE
  8
0
 10
33.7854
 20
-151.965
 11
33.4681
 21
-152.323
  0
LINE
  8
0
 10
33.4681
 20
-152.323
 11
33.0205
 21
-152.493
  0
LINE
  8
0
 10
33.0205
 20
-152.493
 11
32.5454
 21
-152.435
  0
ENDSEC
  0
SECTION
  2
OBJECTS
  0
DICTIONARY
  0
ENDSEC
  0
EOF
