<?xml version="1.0"?>
<svg xmlns="http://www.w3.org/2000/svg" version="1.1" height="430mm" width="483mm" >
 <g style="fill-opacity:1.0; stroke:black; stroke-width:1;">
  <line x1="0.000000mm" y1="25.000000mm" x2="0.000000mm" y2="25.000000mm" />
  <line x1="0.000000mm" y1="25.000000mm" x2="0.000000mm" y2="395.000000mm" />
  <line x1="0.000000mm" y1="395.000000mm" x2="0.095000mm" y2="397.179000mm" />
  <line x1="0.095000mm" y1="397.179000mm" x2="0.380000mm" y2="399.341000mm" />
  <line x1="0.380000mm" y1="399.341000mm" x2="0.852000mm" y2="401.470000mm" />
  <line x1="0.852000mm" y1="401.470000mm" x2="1.508000mm" y2="403.551000mm" />
  <line x1="1.508000mm" y1="403.551000mm" x2="2.342000mm" y2="405.565000mm" />
  <line x1="2.342000mm" y1="405.565000mm" x2="3.349000mm" y2="407.500000mm" />
  <line x1="3.349000mm" y1="407.500000mm" x2="4.521000mm" y2="409.339000mm" />
  <line x1="4.521000mm" y1="409.339000mm" x2="5.849000mm" y2="411.070000mm" />
  <line x1="5.849000mm" y1="411.070000mm" x2="7.322000mm" y2="412.678000mm" />
  <line x1="7.322000mm" y1="412.678000mm" x2="8.930000mm" y2="414.151000mm" />
  <line x1="8.930000mm" y1="414.151000mm" x2="10.661000mm" y2="415.479000mm" />
  <line x1="10.661000mm" y1="415.479000mm" x2="12.500000mm" y2="416.651000mm" />
  <line x1="12.500000mm" y1="416.651000mm" x2="14.435000mm" y2="417.658000mm" />
  <line x1="14.435000mm" y1="417.658000mm" x2="16.449000mm" y2="418.492000mm" />
  <line x1="16.449000mm" y1="418.492000mm" x2="18.530000mm" y2="419.148000mm" />
  <line x1="18.530000mm" y1="419.148000mm" x2="20.659000mm" y2="419.620000mm" />
  <line x1="20.659000mm" y1="419.620000mm" x2="22.821000mm" y2="419.905000mm" />
  <line x1="22.821000mm" y1="419.905000mm" x2="25.000000mm" y2="420.000000mm" />
  <line x1="25.000000mm" y1="420.000000mm" x2="447.500000mm" y2="420.000000mm" />
  <line x1="447.500000mm" y1="420.000000mm" x2="449.679000mm" y2="419.905000mm" />
  <line x1="449.679000mm" y1="419.905000mm" x2="451.841000mm" y2="419.620000mm" />
  <line x1="451.841000mm" y1="419.620000mm" x2="453.970000mm" y2="419.148000mm" />
  <line x1="453.970000mm" y1="419.148000mm" x2="456.051000mm" y2="418.492000mm" />
  <line x1="456.051000mm" y1="418.492000mm" x2="458.065000mm" y2="417.658000mm" />
  <line x1="458.065000mm" y1="417.658000mm" x2="460.000000mm" y2="416.651000mm" />
  <line x1="460.000000mm" y1="416.651000mm" x2="461.839000mm" y2="415.479000mm" />
  <line x1="461.839000mm" y1="415.479000mm" x2="463.570000mm" y2="414.151000mm" />
  <line x1="463.570000mm" y1="414.151000mm" x2="465.178000mm" y2="412.678000mm" />
  <line x1="465.178000mm" y1="412.678000mm" x2="466.651000mm" y2="411.070000mm" />
  <line x1="466.651000mm" y1="411.070000mm" x2="467.979000mm" y2="409.339000mm" />
  <line x1="467.979000mm" y1="409.339000mm" x2="469.151000mm" y2="407.500000mm" />
  <line x1="469.151000mm" y1="407.500000mm" x2="470.158000mm" y2="405.565000mm" />
  <line x1="470.158000mm" y1="405.565000mm" x2="470.992000mm" y2="403.551000mm" />
  <line x1="470.992000mm" y1="403.551000mm" x2="471.648000mm" y2="401.470000mm" />
  <line x1="471.648000mm" y1="401.470000mm" x2="472.120000mm" y2="399.341000mm" />
  <line x1="472.120000mm" y1="399.341000mm" x2="472.405000mm" y2="397.179000mm" />
  <line x1="472.405000mm" y1="397.179000mm" x2="472.500000mm" y2="395.000000mm" />
  <line x1="472.500000mm" y1="395.000000mm" x2="472.500000mm" y2="25.000000mm" />
  <line x1="472.500000mm" y1="25.000000mm" x2="472.405000mm" y2="22.821000mm" />
  <line x1="472.405000mm" y1="22.821000mm" x2="472.120000mm" y2="20.659000mm" />
  <line x1="472.120000mm" y1="20.659000mm" x2="471.648000mm" y2="18.530000mm" />
  <line x1="471.648000mm" y1="18.530000mm" x2="470.992000mm" y2="16.449000mm" />
  <line x1="470.992000mm" y1="16.449000mm" x2="470.158000mm" y2="14.435000mm" />
  <line x1="470.158000mm" y1="14.435000mm" x2="469.151000mm" y2="12.500000mm" />
  <line x1="469.151000mm" y1="12.500000mm" x2="467.979000mm" y2="10.661000mm" />
  <line x1="467.979000mm" y1="10.661000mm" x2="466.651000mm" y2="8.930000mm" />
  <line x1="466.651000mm" y1="8.930000mm" x2="465.178000mm" y2="7.322000mm" />
  <line x1="465.178000mm" y1="7.322000mm" x2="463.570000mm" y2="5.849000mm" />
  <line x1="463.570000mm" y1="5.849000mm" x2="461.839000mm" y2="4.521000mm" />
  <line x1="461.839000mm" y1="4.521000mm" x2="460.000000mm" y2="3.349000mm" />
  <line x1="460.000000mm" y1="3.349000mm" x2="458.065000mm" y2="2.342000mm" />
  <line x1="458.065000mm" y1="2.342000mm" x2="456.051000mm" y2="1.508000mm" />
  <line x1="456.051000mm" y1="1.508000mm" x2="453.970000mm" y2="0.852000mm" />
  <line x1="453.970000mm" y1="0.852000mm" x2="451.841000mm" y2="0.380000mm" />
  <line x1="451.841000mm" y1="0.380000mm" x2="449.679000mm" y2="0.095000mm" />
  <line x1="449.679000mm" y1="0.095000mm" x2="447.500000mm" y2="0.000000mm" />
  <line x1="447.500000mm" y1="0.000000mm" x2="25.000000mm" y2="0.000000mm" />
  <line x1="25.000000mm" y1="0.000000mm" x2="22.821000mm" y2="0.095000mm" />
  <line x1="22.821000mm" y1="0.095000mm" x2="20.659000mm" y2="0.380000mm" />
  <line x1="20.659000mm" y1="0.380000mm" x2="18.530000mm" y2="0.852000mm" />
  <line x1="18.530000mm" y1="0.852000mm" x2="16.449000mm" y2="1.508000mm" />
  <line x1="16.449000mm" y1="1.508000mm" x2="14.435000mm" y2="2.342000mm" />
  <line x1="14.435000mm" y1="2.342000mm" x2="12.500000mm" y2="3.349000mm" />
  <line x1="12.500000mm" y1="3.349000mm" x2="10.661000mm" y2="4.521000mm" />
  <line x1="10.661000mm" y1="4.521000mm" x2="8.930000mm" y2="5.849000mm" />
  <line x1="8.930000mm" y1="5.849000mm" x2="7.322000mm" y2="7.322000mm" />
  <line x1="7.322000mm" y1="7.322000mm" x2="5.849000mm" y2="8.930000mm" />
  <line x1="5.849000mm" y1="8.930000mm" x2="4.521000mm" y2="10.661000mm" />
  <line x1="4.521000mm" y1="10.661000mm" x2="3.349000mm" y2="12.500000mm" />
  <line x1="3.349000mm" y1="12.500000mm" x2="2.342000mm" y2="14.435000mm" />
  <line x1="2.342000mm" y1="14.435000mm" x2="1.508000mm" y2="16.449000mm" />
  <line x1="1.508000mm" y1="16.449000mm" x2="0.852000mm" y2="18.530000mm" />
  <line x1="0.852000mm" y1="18.530000mm" x2="0.380000mm" y2="20.659000mm" />
  <line x1="0.380000mm" y1="20.659000mm" x2="0.095000mm" y2="22.821000mm" />
  <line x1="0.095000mm" y1="22.821000mm" x2="0.000000mm" y2="25.000000mm" />
  <circle cx="19.309998mm" cy="159.300067mm" r="2.200127mm" fill="none"/>
  <line x1="23.710252mm" y1="159.300067mm" x2="14.909744mm" y2="159.300067mm" />
  <line x1="19.309998mm" y1="154.899813mm" x2="19.309998mm" y2="163.700321mm" />
  <text x="21mm" y="157mm" font-size="24">
   4.4
  </text>
  <circle cx="31.499767mm" cy="209.999943mm" r="3.999887mm" fill="none"/>
  <line x1="39.499541mm" y1="209.999943mm" x2="23.499993mm" y2="209.999943mm" />
  <line x1="31.499767mm" y1="202.000170mm" x2="31.499767mm" y2="217.999717mm" />
  <text x="35mm" y="206mm" font-size="24">
   8.0
  </text>
  <circle cx="62.699964mm" cy="400.689964mm" r="2.200229mm" fill="none"/>
  <line x1="67.100421mm" y1="400.689964mm" x2="58.299507mm" y2="400.689964mm" />
  <line x1="62.699964mm" y1="396.289507mm" x2="62.699964mm" y2="405.090421mm" />
  <text x="64mm" y="398mm" font-size="24">
   4.4
  </text>
  <circle cx="62.699964mm" cy="19.309964mm" r="2.200229mm" fill="none"/>
  <line x1="67.100421mm" y1="19.309964mm" x2="58.299507mm" y2="19.309964mm" />
  <line x1="62.699964mm" y1="14.909507mm" x2="62.699964mm" y2="23.710421mm" />
  <text x="64mm" y="17mm" font-size="24">
   4.4
  </text>
  <circle cx="85.689998mm" cy="159.300067mm" r="2.200127mm" fill="none"/>
  <line x1="90.090252mm" y1="159.300067mm" x2="81.289744mm" y2="159.300067mm" />
  <line x1="85.689998mm" y1="154.899813mm" x2="85.689998mm" y2="163.700321mm" />
  <text x="87mm" y="157mm" font-size="24">
   4.4
  </text>
  <circle cx="129.449964mm" cy="412.499964mm" r="2.200229mm" fill="none"/>
  <line x1="133.850421mm" y1="412.499964mm" x2="125.049507mm" y2="412.499964mm" />
  <line x1="129.449964mm" y1="408.099507mm" x2="129.449964mm" y2="416.900421mm" />
  <text x="131mm" y="410mm" font-size="24">
   4.4
  </text>
  <circle cx="129.449964mm" cy="7.499964mm" r="2.200229mm" fill="none"/>
  <line x1="133.850421mm" y1="7.499964mm" x2="125.049507mm" y2="7.499964mm" />
  <line x1="129.449964mm" y1="3.099507mm" x2="129.449964mm" y2="11.900421mm" />
  <text x="131mm" y="5mm" font-size="24">
   4.4
  </text>
  <circle cx="159.549986mm" cy="412.499916mm" r="2.200066mm" fill="none"/>
  <line x1="163.950117mm" y1="412.499916mm" x2="155.149855mm" y2="412.499916mm" />
  <line x1="159.549986mm" y1="408.099785mm" x2="159.549986mm" y2="416.900047mm" />
  <text x="161mm" y="410mm" font-size="24">
   4.4
  </text>
  <circle cx="159.549986mm" cy="7.499916mm" r="2.200066mm" fill="none"/>
  <line x1="163.950117mm" y1="7.499916mm" x2="155.149855mm" y2="7.499916mm" />
  <line x1="159.549986mm" y1="3.099785mm" x2="159.549986mm" y2="11.900047mm" />
  <text x="161mm" y="5mm" font-size="24">
   4.4
  </text>
  <line x1="195.845200mm" y1="22.940000mm" x2="195.845200mm" y2="22.940000mm" />
  <line x1="195.845200mm" y1="22.940000mm" x2="195.790000mm" y2="22.450000mm" />
  <line x1="195.790000mm" y1="22.450000mm" x2="195.790000mm" y2="12.450000mm" />
  <line x1="195.790000mm" y1="12.450000mm" x2="195.845200mm" y2="11.960000mm" />
  <line x1="195.845200mm" y1="11.960000mm" x2="196.007900mm" y2="11.495000mm" />
  <line x1="196.007900mm" y1="11.495000mm" x2="196.270000mm" y2="11.078000mm" />
  <line x1="196.270000mm" y1="11.078000mm" x2="196.618300mm" y2="10.730000mm" />
  <line x1="196.618300mm" y1="10.730000mm" x2="197.035500mm" y2="10.468000mm" />
  <line x1="197.035500mm" y1="10.468000mm" x2="197.500500mm" y2="10.305000mm" />
  <line x1="197.500500mm" y1="10.305000mm" x2="197.990000mm" y2="10.250000mm" />
  <line x1="197.990000mm" y1="10.250000mm" x2="198.479500mm" y2="10.305000mm" />
  <line x1="198.479500mm" y1="10.305000mm" x2="198.944500mm" y2="10.468000mm" />
  <line x1="198.944500mm" y1="10.468000mm" x2="199.361700mm" y2="10.730000mm" />
  <line x1="199.361700mm" y1="10.730000mm" x2="199.710000mm" y2="11.078000mm" />
  <line x1="199.710000mm" y1="11.078000mm" x2="199.972100mm" y2="11.495000mm" />
  <line x1="199.972100mm" y1="11.495000mm" x2="200.134800mm" y2="11.960000mm" />
  <line x1="200.134800mm" y1="11.960000mm" x2="200.190000mm" y2="12.450000mm" />
  <line x1="200.190000mm" y1="12.450000mm" x2="200.190000mm" y2="22.450000mm" />
  <line x1="200.190000mm" y1="22.450000mm" x2="200.134800mm" y2="22.940000mm" />
  <line x1="200.134800mm" y1="22.940000mm" x2="199.972100mm" y2="23.405000mm" />
  <line x1="199.972100mm" y1="23.405000mm" x2="199.710000mm" y2="23.822000mm" />
  <line x1="199.710000mm" y1="23.822000mm" x2="199.361700mm" y2="24.170000mm" />
  <line x1="199.361700mm" y1="24.170000mm" x2="198.944500mm" y2="24.432000mm" />
  <line x1="198.944500mm" y1="24.432000mm" x2="198.479500mm" y2="24.595000mm" />
  <line x1="198.479500mm" y1="24.595000mm" x2="197.990000mm" y2="24.650000mm" />
  <line x1="197.990000mm" y1="24.650000mm" x2="197.500500mm" y2="24.595000mm" />
  <line x1="197.500500mm" y1="24.595000mm" x2="197.035500mm" y2="24.432000mm" />
  <line x1="197.035500mm" y1="24.432000mm" x2="196.618300mm" y2="24.170000mm" />
  <line x1="196.618300mm" y1="24.170000mm" x2="196.270000mm" y2="23.822000mm" />
  <line x1="196.270000mm" y1="23.822000mm" x2="196.007900mm" y2="23.405000mm" />
  <line x1="196.007900mm" y1="23.405000mm" x2="195.845200mm" y2="22.940000mm" />
  <circle cx="208.290062mm" cy="111.499899mm" r="2.200032mm" fill="none"/>
  <line x1="212.690125mm" y1="111.499899mm" x2="203.889998mm" y2="111.499899mm" />
  <line x1="208.290062mm" y1="107.099835mm" x2="208.290062mm" y2="115.899963mm" />
  <text x="210mm" y="109mm" font-size="24">
   4.4
  </text>
  <circle cx="216.489928mm" cy="351.449858mm" r="2.200022mm" fill="none"/>
  <line x1="220.889971mm" y1="351.449858mm" x2="212.089884mm" y2="351.449858mm" />
  <line x1="216.489928mm" y1="347.049814mm" x2="216.489928mm" y2="355.849901mm" />
  <text x="218mm" y="349mm" font-size="24">
   4.4
  </text>
  <circle cx="216.489928mm" cy="412.549858mm" r="2.200022mm" fill="none"/>
  <line x1="220.889971mm" y1="412.549858mm" x2="212.089884mm" y2="412.549858mm" />
  <line x1="216.489928mm" y1="408.149814mm" x2="216.489928mm" y2="416.949901mm" />
  <text x="218mm" y="410mm" font-size="24">
   4.4
  </text>
  <circle cx="246.489898mm" cy="351.449861mm" r="2.200032mm" fill="none"/>
  <line x1="250.889962mm" y1="351.449861mm" x2="242.089835mm" y2="351.449861mm" />
  <line x1="246.489898mm" y1="347.049798mm" x2="246.489898mm" y2="355.849924mm" />
  <text x="248mm" y="349mm" font-size="24">
   4.4
  </text>
  <circle cx="246.489898mm" cy="412.549861mm" r="2.200032mm" fill="none"/>
  <line x1="250.889962mm" y1="412.549861mm" x2="242.089835mm" y2="412.549861mm" />
  <line x1="246.489898mm" y1="408.149798mm" x2="246.489898mm" y2="416.949924mm" />
  <text x="248mm" y="410mm" font-size="24">
   4.4
  </text>
  <circle cx="250.710062mm" cy="111.499899mm" r="2.200032mm" fill="none"/>
  <line x1="255.110125mm" y1="111.499899mm" x2="246.309998mm" y2="111.499899mm" />
  <line x1="250.710062mm" y1="107.099835mm" x2="250.710062mm" y2="115.899963mm" />
  <text x="252mm" y="109mm" font-size="24">
   4.4
  </text>
  <circle cx="253.749891mm" cy="79.500086mm" r="1.500086mm" fill="none"/>
  <line x1="256.750062mm" y1="79.500086mm" x2="250.749719mm" y2="79.500086mm" />
  <line x1="253.749891mm" y1="76.499914mm" x2="253.749891mm" y2="82.500257mm" />
  <text x="255mm" y="77mm" font-size="24">
   3.0
  </text>
  <circle cx="253.749891mm" cy="73.700086mm" r="1.500086mm" fill="none"/>
  <line x1="256.750062mm" y1="73.700086mm" x2="250.749719mm" y2="73.700086mm" />
  <line x1="253.749891mm" y1="70.699914mm" x2="253.749891mm" y2="76.700257mm" />
  <text x="255mm" y="72mm" font-size="24">
   3.0
  </text>
  <circle cx="255.990118mm" cy="381.999978mm" r="2.500210mm" fill="none"/>
  <line x1="260.990537mm" y1="381.999978mm" x2="250.989699mm" y2="381.999978mm" />
  <line x1="255.990118mm" y1="376.999559mm" x2="255.990118mm" y2="387.000397mm" />
  <text x="258mm" y="379mm" font-size="24">
   5.0
  </text>
  <circle cx="258.750239mm" cy="68.299806mm" r="1.500223mm" fill="none"/>
  <line x1="261.750684mm" y1="68.299806mm" x2="255.749793mm" y2="68.299806mm" />
  <line x1="258.750239mm" y1="65.299361mm" x2="258.750239mm" y2="71.300252mm" />
  <text x="260mm" y="66mm" font-size="24">
   3.0
  </text>
  <circle cx="258.750239mm" cy="59.699806mm" r="1.500223mm" fill="none"/>
  <line x1="261.750684mm" y1="59.699806mm" x2="255.749793mm" y2="59.699806mm" />
  <line x1="258.750239mm" y1="56.699361mm" x2="258.750239mm" y2="62.700252mm" />
  <text x="260mm" y="58mm" font-size="24">
   3.0
  </text>
  <circle cx="299.449986mm" cy="343.999916mm" r="2.200066mm" fill="none"/>
  <line x1="303.850117mm" y1="343.999916mm" x2="295.049855mm" y2="343.999916mm" />
  <line x1="299.449986mm" y1="339.599785mm" x2="299.449986mm" y2="348.400047mm" />
  <text x="301mm" y="341mm" font-size="24">
   4.4
  </text>
  <circle cx="299.449986mm" cy="86.999916mm" r="2.200066mm" fill="none"/>
  <line x1="303.850117mm" y1="86.999916mm" x2="295.049855mm" y2="86.999916mm" />
  <line x1="299.449986mm" y1="82.599785mm" x2="299.449986mm" y2="91.400047mm" />
  <text x="301mm" y="84mm" font-size="24">
   4.4
  </text>
  <circle cx="329.549986mm" cy="343.999916mm" r="2.200066mm" fill="none"/>
  <line x1="333.950117mm" y1="343.999916mm" x2="325.149855mm" y2="343.999916mm" />
  <line x1="329.549986mm" y1="339.599785mm" x2="329.549986mm" y2="348.400047mm" />
  <text x="331mm" y="341mm" font-size="24">
   4.4
  </text>
  <circle cx="329.549986mm" cy="86.999916mm" r="2.200066mm" fill="none"/>
  <line x1="333.950117mm" y1="86.999916mm" x2="325.149855mm" y2="86.999916mm" />
  <line x1="329.549986mm" y1="82.599785mm" x2="329.549986mm" y2="91.400047mm" />
  <text x="331mm" y="84mm" font-size="24">
   4.4
  </text>
  <circle cx="330.999926mm" cy="330.000034mm" r="2.000024mm" fill="none"/>
  <line x1="334.999974mm" y1="330.000034mm" x2="326.999878mm" y2="330.000034mm" />
  <line x1="330.999926mm" y1="325.999986mm" x2="330.999926mm" y2="334.000082mm" />
  <text x="332mm" y="328mm" font-size="24">
   4.0
  </text>
  <circle cx="337.000008mm" cy="322.499933mm" r="1.500067mm" fill="none"/>
  <line x1="340.000143mm" y1="322.499933mm" x2="333.999873mm" y2="322.499933mm" />
  <line x1="337.000008mm" y1="319.499798mm" x2="337.000008mm" y2="325.500067mm" />
  <text x="338mm" y="320mm" font-size="24">
   3.0
  </text>
  <circle cx="337.000138mm" cy="154.600039mm" r="1.500084mm" fill="none"/>
  <line x1="340.000306mm" y1="154.600039mm" x2="333.999971mm" y2="154.600039mm" />
  <line x1="337.000138mm" y1="151.599871mm" x2="337.000138mm" y2="157.600206mm" />
  <text x="338mm" y="153mm" font-size="24">
   3.0
  </text>
  <circle cx="339.899883mm" cy="140.100047mm" r="1.999981mm" fill="none"/>
  <line x1="343.899844mm" y1="140.100047mm" x2="335.899922mm" y2="140.100047mm" />
  <line x1="339.899883mm" y1="136.100086mm" x2="339.899883mm" y2="144.100008mm" />
  <text x="341mm" y="138mm" font-size="24">
   4.0
  </text>
  <circle cx="342.800118mm" cy="322.499873mm" r="1.500017mm" fill="none"/>
  <line x1="345.800152mm" y1="322.499873mm" x2="339.800085mm" y2="322.499873mm" />
  <line x1="342.800118mm" y1="319.499839mm" x2="342.800118mm" y2="325.499907mm" />
  <text x="344mm" y="320mm" font-size="24">
   3.0
  </text>
  <circle cx="342.800249mm" cy="154.599979mm" r="1.500033mm" fill="none"/>
  <line x1="345.800315mm" y1="154.599979mm" x2="339.800182mm" y2="154.599979mm" />
  <line x1="342.800249mm" y1="151.599912mm" x2="342.800249mm" y2="157.600046mm" />
  <text x="344mm" y="153mm" font-size="24">
   3.0
  </text>
  <circle cx="348.200041mm" cy="327.500115mm" r="1.500245mm" fill="none"/>
  <line x1="351.200531mm" y1="327.500115mm" x2="345.199551mm" y2="327.500115mm" />
  <line x1="348.200041mm" y1="324.499625mm" x2="348.200041mm" y2="330.500605mm" />
  <text x="349mm" y="325mm" font-size="24">
   3.0
  </text>
  <circle cx="348.199874mm" cy="159.600060mm" r="1.500104mm" fill="none"/>
  <line x1="351.200082mm" y1="159.600060mm" x2="345.199665mm" y2="159.600060mm" />
  <line x1="348.199874mm" y1="156.599851mm" x2="348.199874mm" y2="162.600269mm" />
  <text x="349mm" y="158mm" font-size="24">
   3.0
  </text>
  <circle cx="351.100034mm" cy="149.599968mm" r="2.500070mm" fill="none"/>
  <line x1="356.100175mm" y1="149.599968mm" x2="346.099893mm" y2="149.599968mm" />
  <line x1="351.100034mm" y1="144.599828mm" x2="351.100034mm" y2="154.600109mm" />
  <text x="353mm" y="147mm" font-size="24">
   5.0
  </text>
  <circle cx="354.000041mm" cy="327.500115mm" r="1.500245mm" fill="none"/>
  <line x1="357.000531mm" y1="327.500115mm" x2="350.999551mm" y2="327.500115mm" />
  <line x1="354.000041mm" y1="324.499625mm" x2="354.000041mm" y2="330.500605mm" />
  <text x="355mm" y="325mm" font-size="24">
   3.0
  </text>
  <circle cx="353.999874mm" cy="159.600060mm" r="1.500104mm" fill="none"/>
  <line x1="357.000082mm" y1="159.600060mm" x2="350.999665mm" y2="159.600060mm" />
  <line x1="353.999874mm" y1="156.599851mm" x2="353.999874mm" y2="162.600269mm" />
  <text x="355mm" y="158mm" font-size="24">
   3.0
  </text>
  <circle cx="365.749964mm" cy="400.689964mm" r="2.200229mm" fill="none"/>
  <line x1="370.150421mm" y1="400.689964mm" x2="361.349507mm" y2="400.689964mm" />
  <line x1="365.749964mm" y1="396.289507mm" x2="365.749964mm" y2="405.090421mm" />
  <text x="367mm" y="398mm" font-size="24">
   4.4
  </text>
  <circle cx="365.749964mm" cy="19.309964mm" r="2.200229mm" fill="none"/>
  <line x1="370.150421mm" y1="19.309964mm" x2="361.349507mm" y2="19.309964mm" />
  <line x1="365.749964mm" y1="14.909507mm" x2="365.749964mm" y2="23.710421mm" />
  <text x="367mm" y="17mm" font-size="24">
   4.4
  </text>
  <circle cx="396.499767mm" cy="209.999943mm" r="3.999887mm" fill="none"/>
  <line x1="404.499541mm" y1="209.999943mm" x2="388.499993mm" y2="209.999943mm" />
  <line x1="396.499767mm" y1="202.000170mm" x2="396.499767mm" y2="217.999717mm" />
  <text x="400mm" y="206mm" font-size="24">
   8.0
  </text>
  <circle cx="395.259998mm" cy="159.300067mm" r="2.200127mm" fill="none"/>
  <line x1="399.660252mm" y1="159.300067mm" x2="390.859744mm" y2="159.300067mm" />
  <line x1="395.259998mm" y1="154.899813mm" x2="395.259998mm" y2="163.700321mm" />
  <text x="397mm" y="157mm" font-size="24">
   4.4
  </text>
  <circle cx="453.189998mm" cy="159.300067mm" r="2.200127mm" fill="none"/>
  <line x1="457.590252mm" y1="159.300067mm" x2="448.789744mm" y2="159.300067mm" />
  <line x1="453.189998mm" y1="154.899813mm" x2="453.189998mm" y2="163.700321mm" />
  <text x="455mm" y="157mm" font-size="24">
   4.4
  </text>
  <circle cx="458.299998mm" cy="139.150067mm" r="2.200127mm" fill="none"/>
  <line x1="462.700252mm" y1="139.150067mm" x2="453.899744mm" y2="139.150067mm" />
  <line x1="458.299998mm" y1="134.749813mm" x2="458.299998mm" y2="143.550321mm" />
  <text x="460mm" y="136mm" font-size="24">
   4.4
  </text>
 </g>
</svg>
