  0
SECTION
  2
BLOCKS
  0
ENDSEC
  0
SECTION
  2
ENTITIES
  0
LINE
  8
0
 10
-131.75
 20
287.1
 11
-131.744
 21
287.1
  0
LINE
  8
0
 10
-131.744
 20
287.1
 11
-131.744
 21
287.349
  0
LINE
  8
0
 10
-131.744
 20
287.349
 11
-131.694
 21
287.845
  0
LINE
  8
0
 10
-131.694
 20
287.845
 11
-131.595
 21
288.334
  0
LINE
  8
0
 10
-131.595
 20
288.334
 11
-131.448
 21
288.81
  0
LINE
  8
0
 10
-131.448
 20
288.81
 11
-131.255
 21
289.269
  0
LINE
  8
0
 10
-131.255
 20
289.269
 11
-131.016
 21
289.707
  0
LINE
  8
0
 10
-131.016
 20
289.707
 11
-130.736
 21
290.119
  0
LINE
  8
0
 10
-130.736
 20
290.119
 11
-130.415
 21
290.501
  0
LINE
  8
0
 10
-130.415
 20
290.501
 11
-130.058
 21
290.849
  0
LINE
  8
0
 10
-130.058
 20
290.849
 11
-129.669
 21
291.16
  0
LINE
  8
0
 10
-129.669
 20
291.16
 11
-129.25
 21
291.43
  0
LINE
  8
0
 10
-129.25
 20
291.43
 11
-128.806
 21
291.658
  0
LINE
  8
0
 10
-128.806
 20
291.658
 11
-128.342
 21
291.84
  0
LINE
  8
0
 10
-128.342
 20
291.84
 11
-127.863
 21
291.975
  0
LINE
  8
0
 10
-127.863
 20
291.975
 11
-127.372
 21
292.061
  0
LINE
  8
0
 10
-127.372
 20
292.061
 11
-126.875
 21
292.098
  0
LINE
  8
0
 10
-126.875
 20
292.098
 11
-126.75
 21
292.095
  0
LINE
  8
0
 10
-126.75
 20
292.095
 11
-126.75
 21
292.1
  0
LINE
  8
0
 10
-126.75
 20
292.1
 11
113.25
 21
292.1
  0
LINE
  8
0
 10
113.25
 20
292.1
 11
113.25
 21
292.095
  0
LINE
  8
0
 10
113.25
 20
292.095
 11
113.624
 21
292.086
  0
LINE
  8
0
 10
113.624
 20
292.086
 11
114.118
 21
292.024
  0
LINE
  8
0
 10
114.118
 20
292.024
 11
114.604
 21
291.913
  0
LINE
  8
0
 10
114.604
 20
291.913
 11
115.077
 21
291.754
  0
LINE
  8
0
 10
115.077
 20
291.754
 11
115.531
 21
291.549
  0
LINE
  8
0
 10
115.531
 20
291.549
 11
115.963
 21
291.3
  0
LINE
  8
0
 10
115.963
 20
291.3
 11
116.367
 21
291.009
  0
LINE
  8
0
 10
116.367
 20
291.009
 11
116.741
 21
290.679
  0
LINE
  8
0
 10
116.741
 20
290.679
 11
117.08
 21
290.314
  0
LINE
  8
0
 10
117.08
 20
290.314
 11
117.381
 21
289.917
  0
LINE
  8
0
 10
117.381
 20
289.917
 11
117.641
 21
289.491
  0
LINE
  8
0
 10
117.641
 20
289.491
 11
117.857
 21
289.042
  0
LINE
  8
0
 10
117.857
 20
289.042
 11
118.028
 21
288.574
  0
LINE
  8
0
 10
118.028
 20
288.574
 11
118.151
 21
288.091
  0
LINE
  8
0
 10
118.151
 20
288.091
 11
118.225
 21
287.598
  0
LINE
  8
0
 10
118.225
 20
287.598
 11
118.25
 21
287.1
  0
LINE
  8
0
 10
118.25
 20
287.1
 11
118.25
 21
0
  0
LINE
  8
0
 10
118.25
 20
0
 11
237.25
 21
0
  0
LINE
  8
0
 10
237.25
 20
0
 11
237.25
 21
388
  0
LINE
  8
0
 10
237.25
 20
388
 11
237.193
 21
389.307
  0
LINE
  8
0
 10
237.193
 20
389.307
 11
237.022
 21
390.605
  0
LINE
  8
0
 10
237.022
 20
390.605
 11
236.739
 21
391.882
  0
LINE
  8
0
 10
236.739
 20
391.882
 11
236.345
 21
393.13
  0
LINE
  8
0
 10
236.345
 20
393.13
 11
235.845
 21
394.339
  0
LINE
  8
0
 10
235.845
 20
394.339
 11
235.24
 21
395.5
  0
LINE
  8
0
 10
235.24
 20
395.5
 11
234.537
 21
396.604
  0
LINE
  8
0
 10
234.537
 20
396.604
 11
233.741
 21
397.642
  0
LINE
  8
0
 10
233.741
 20
397.642
 11
232.857
 21
398.607
  0
LINE
  8
0
 10
232.857
 20
398.607
 11
231.892
 21
399.491
  0
LINE
  8
0
 10
231.892
 20
399.491
 11
230.854
 21
400.287
  0
LINE
  8
0
 10
230.854
 20
400.287
 11
229.75
 21
400.99
  0
LINE
  8
0
 10
229.75
 20
400.99
 11
228.589
 21
401.595
  0
LINE
  8
0
 10
228.589
 20
401.595
 11
227.38
 21
402.095
  0
LINE
  8
0
 10
227.38
 20
402.095
 11
226.132
 21
402.489
  0
LINE
  8
0
 10
226.132
 20
402.489
 11
224.855
 21
402.772
  0
LINE
  8
0
 10
224.855
 20
402.772
 11
223.557
 21
402.943
  0
LINE
  8
0
 10
223.557
 20
402.943
 11
222.25
 21
403
  0
LINE
  8
0
 10
222.25
 20
403
 11
-222.25
 21
403
  0
LINE
  8
0
 10
-222.25
 20
403
 11
-223.557
 21
402.943
  0
LINE
  8
0
 10
-223.557
 20
402.943
 11
-224.855
 21
402.772
  0
LINE
  8
0
 10
-224.855
 20
402.772
 11
-226.132
 21
402.489
  0
LINE
  8
0
 10
-226.132
 20
402.489
 11
-227.38
 21
402.095
  0
LINE
  8
0
 10
-227.38
 20
402.095
 11
-228.589
 21
401.595
  0
LINE
  8
0
 10
-228.589
 20
401.595
 11
-229.75
 21
400.99
  0
LINE
  8
0
 10
-229.75
 20
400.99
 11
-230.854
 21
400.287
  0
LINE
  8
0
 10
-230.854
 20
400.287
 11
-231.892
 21
399.491
  0
LINE
  8
0
 10
-231.892
 20
399.491
 11
-232.857
 21
398.607
  0
LINE
  8
0
 10
-232.857
 20
398.607
 11
-233.741
 21
397.642
  0
LINE
  8
0
 10
-233.741
 20
397.642
 11
-234.537
 21
396.604
  0
LINE
  8
0
 10
-234.537
 20
396.604
 11
-235.24
 21
395.5
  0
LINE
  8
0
 10
-235.24
 20
395.5
 11
-235.845
 21
394.339
  0
LINE
  8
0
 10
-235.845
 20
394.339
 11
-236.345
 21
393.13
  0
LINE
  8
0
 10
-236.345
 20
393.13
 11
-236.739
 21
391.882
  0
LINE
  8
0
 10
-236.739
 20
391.882
 11
-237.022
 21
390.605
  0
LINE
  8
0
 10
-237.022
 20
390.605
 11
-237.193
 21
389.307
  0
LINE
  8
0
 10
-237.193
 20
389.307
 11
-237.25
 21
388
  0
LINE
  8
0
 10
-237.25
 20
388
 11
-237.25
 21
0
  0
LINE
  8
0
 10
-237.25
 20
0
 11
-131.75
 21
0
  0
LINE
  8
0
 10
-131.75
 20
0
 11
-131.75
 21
287.1
  0
LINE
  8
0
 10
159.785
 20
393.615
 11
159.427
 21
393.932
  0
LINE
  8
0
 10
159.427
 20
393.932
 11
159.257
 21
394.379
  0
LINE
  8
0
 10
159.257
 20
394.379
 11
159.315
 21
394.855
  0
LINE
  8
0
 10
159.315
 20
394.855
 11
159.587
 21
395.249
  0
LINE
  8
0
 10
159.587
 20
395.249
 11
160.011
 21
395.471
  0
LINE
  8
0
 10
160.011
 20
395.471
 11
160.489
 21
395.471
  0
LINE
  8
0
 10
160.489
 20
395.471
 11
160.913
 21
395.249
  0
LINE
  8
0
 10
160.913
 20
395.249
 11
161.185
 21
394.855
  0
LINE
  8
0
 10
161.185
 20
394.855
 11
161.243
 21
394.379
  0
LINE
  8
0
 10
161.243
 20
394.379
 11
161.073
 21
393.932
  0
LINE
  8
0
 10
161.073
 20
393.932
 11
160.715
 21
393.615
  0
LINE
  8
0
 10
160.715
 20
393.615
 11
160.25
 21
393.5
  0
LINE
  8
0
 10
160.25
 20
393.5
 11
159.785
 21
393.615
  0
LINE
  8
0
 10
-163.215
 20
393.615
 11
-163.573
 21
393.932
  0
LINE
  8
0
 10
-163.573
 20
393.932
 11
-163.743
 21
394.379
  0
LINE
  8
0
 10
-163.743
 20
394.379
 11
-163.685
 21
394.855
  0
LINE
  8
0
 10
-163.685
 20
394.855
 11
-163.413
 21
395.249
  0
LINE
  8
0
 10
-163.413
 20
395.249
 11
-162.989
 21
395.471
  0
LINE
  8
0
 10
-162.989
 20
395.471
 11
-162.511
 21
395.471
  0
LINE
  8
0
 10
-162.511
 20
395.471
 11
-162.087
 21
395.249
  0
LINE
  8
0
 10
-162.087
 20
395.249
 11
-161.815
 21
394.855
  0
LINE
  8
0
 10
-161.815
 20
394.855
 11
-161.757
 21
394.379
  0
LINE
  8
0
 10
-161.757
 20
394.379
 11
-161.927
 21
393.932
  0
LINE
  8
0
 10
-161.927
 20
393.932
 11
-162.285
 21
393.615
  0
LINE
  8
0
 10
-162.285
 20
393.615
 11
-162.75
 21
393.5
  0
LINE
  8
0
 10
-162.75
 20
393.5
 11
-163.215
 21
393.615
  0
LINE
  8
0
 10
-198.215
 20
393.615
 11
-198.573
 21
393.932
  0
LINE
  8
0
 10
-198.573
 20
393.932
 11
-198.743
 21
394.379
  0
LINE
  8
0
 10
-198.743
 20
394.379
 11
-198.685
 21
394.855
  0
LINE
  8
0
 10
-198.685
 20
394.855
 11
-198.413
 21
395.249
  0
LINE
  8
0
 10
-198.413
 20
395.249
 11
-197.989
 21
395.471
  0
LINE
  8
0
 10
-197.989
 20
395.471
 11
-197.511
 21
395.471
  0
LINE
  8
0
 10
-197.511
 20
395.471
 11
-197.087
 21
395.249
  0
LINE
  8
0
 10
-197.087
 20
395.249
 11
-196.815
 21
394.855
  0
LINE
  8
0
 10
-196.815
 20
394.855
 11
-196.757
 21
394.379
  0
LINE
  8
0
 10
-196.757
 20
394.379
 11
-196.927
 21
393.932
  0
LINE
  8
0
 10
-196.927
 20
393.932
 11
-197.285
 21
393.615
  0
LINE
  8
0
 10
-197.285
 20
393.615
 11
-197.75
 21
393.5
  0
LINE
  8
0
 10
-197.75
 20
393.5
 11
-198.215
 21
393.615
  0
LINE
  8
0
 10
124.785
 20
393.615
 11
124.427
 21
393.932
  0
LINE
  8
0
 10
124.427
 20
393.932
 11
124.257
 21
394.379
  0
LINE
  8
0
 10
124.257
 20
394.379
 11
124.315
 21
394.855
  0
LINE
  8
0
 10
124.315
 20
394.855
 11
124.587
 21
395.249
  0
LINE
  8
0
 10
124.587
 20
395.249
 11
125.011
 21
395.471
  0
LINE
  8
0
 10
125.011
 20
395.471
 11
125.489
 21
395.471
  0
LINE
  8
0
 10
125.489
 20
395.471
 11
125.913
 21
395.249
  0
LINE
  8
0
 10
125.913
 20
395.249
 11
126.185
 21
394.855
  0
LINE
  8
0
 10
126.185
 20
394.855
 11
126.243
 21
394.379
  0
LINE
  8
0
 10
126.243
 20
394.379
 11
126.073
 21
393.932
  0
LINE
  8
0
 10
126.073
 20
393.932
 11
125.715
 21
393.615
  0
LINE
  8
0
 10
125.715
 20
393.615
 11
125.25
 21
393.5
  0
LINE
  8
0
 10
125.25
 20
393.5
 11
124.785
 21
393.615
  0
LINE
  8
0
 10
220.595
 20
390.065
 11
220.201
 21
390.337
  0
LINE
  8
0
 10
220.201
 20
390.337
 11
219.979
 21
390.761
  0
LINE
  8
0
 10
219.979
 20
390.761
 11
219.979
 21
391.239
  0
LINE
  8
0
 10
219.979
 20
391.239
 11
220.201
 21
391.663
  0
LINE
  8
0
 10
220.201
 20
391.663
 11
220.595
 21
391.935
  0
LINE
  8
0
 10
220.595
 20
391.935
 11
221.071
 21
391.993
  0
LINE
  8
0
 10
221.071
 20
391.993
 11
221.518
 21
391.823
  0
LINE
  8
0
 10
221.518
 20
391.823
 11
221.835
 21
391.465
  0
LINE
  8
0
 10
221.835
 20
391.465
 11
221.95
 21
391
  0
LINE
  8
0
 10
221.95
 20
391
 11
221.835
 21
390.535
  0
LINE
  8
0
 10
221.835
 20
390.535
 11
221.518
 21
390.177
  0
LINE
  8
0
 10
221.518
 20
390.177
 11
221.071
 21
390.007
  0
LINE
  8
0
 10
221.071
 20
390.007
 11
220.595
 21
390.065
  0
LINE
  8
0
 10
186.195
 20
390.065
 11
185.801
 21
390.337
  0
LINE
  8
0
 10
185.801
 20
390.337
 11
185.579
 21
390.761
  0
LINE
  8
0
 10
185.579
 20
390.761
 11
185.579
 21
391.239
  0
LINE
  8
0
 10
185.579
 20
391.239
 11
185.801
 21
391.663
  0
LINE
  8
0
 10
185.801
 20
391.663
 11
186.195
 21
391.935
  0
LINE
  8
0
 10
186.195
 20
391.935
 11
186.671
 21
391.993
  0
LINE
  8
0
 10
186.671
 20
391.993
 11
187.118
 21
391.823
  0
LINE
  8
0
 10
187.118
 20
391.823
 11
187.435
 21
391.465
  0
LINE
  8
0
 10
187.435
 20
391.465
 11
187.55
 21
391
  0
LINE
  8
0
 10
187.55
 20
391
 11
187.435
 21
390.535
  0
LINE
  8
0
 10
187.435
 20
390.535
 11
187.118
 21
390.177
  0
LINE
  8
0
 10
187.118
 20
390.177
 11
186.671
 21
390.007
  0
LINE
  8
0
 10
186.671
 20
390.007
 11
186.195
 21
390.065
  0
LINE
  8
0
 10
-197.991
 20
382.015
 11
-198.459
 21
382.13
  0
LINE
  8
0
 10
-198.459
 20
382.13
 11
-198.886
 21
382.354
  0
LINE
  8
0
 10
-198.886
 20
382.354
 11
-199.247
 21
382.674
  0
LINE
  8
0
 10
-199.247
 20
382.674
 11
-199.521
 21
383.071
  0
LINE
  8
0
 10
-199.521
 20
383.071
 11
-199.692
 21
383.521
  0
LINE
  8
0
 10
-199.692
 20
383.521
 11
-199.75
 21
384
  0
LINE
  8
0
 10
-199.75
 20
384
 11
-199.692
 21
384.479
  0
LINE
  8
0
 10
-199.692
 20
384.479
 11
-199.521
 21
384.929
  0
LINE
  8
0
 10
-199.521
 20
384.929
 11
-199.247
 21
385.326
  0
LINE
  8
0
 10
-199.247
 20
385.326
 11
-198.886
 21
385.646
  0
LINE
  8
0
 10
-198.886
 20
385.646
 11
-198.459
 21
385.87
  0
LINE
  8
0
 10
-198.459
 20
385.87
 11
-197.991
 21
385.985
  0
LINE
  8
0
 10
-197.991
 20
385.985
 11
-197.509
 21
385.985
  0
LINE
  8
0
 10
-197.509
 20
385.985
 11
-197.041
 21
385.87
  0
LINE
  8
0
 10
-197.041
 20
385.87
 11
-196.614
 21
385.646
  0
LINE
  8
0
 10
-196.614
 20
385.646
 11
-196.253
 21
385.326
  0
LINE
  8
0
 10
-196.253
 20
385.326
 11
-195.979
 21
384.929
  0
LINE
  8
0
 10
-195.979
 20
384.929
 11
-195.808
 21
384.479
  0
LINE
  8
0
 10
-195.808
 20
384.479
 11
-195.75
 21
384
  0
LINE
  8
0
 10
-195.75
 20
384
 11
-195.808
 21
383.521
  0
LINE
  8
0
 10
-195.808
 20
383.521
 11
-195.979
 21
383.071
  0
LINE
  8
0
 10
-195.979
 20
383.071
 11
-196.253
 21
382.674
  0
LINE
  8
0
 10
-196.253
 20
382.674
 11
-196.614
 21
382.354
  0
LINE
  8
0
 10
-196.614
 20
382.354
 11
-197.041
 21
382.13
  0
LINE
  8
0
 10
-197.041
 20
382.13
 11
-197.509
 21
382.015
  0
LINE
  8
0
 10
-197.509
 20
382.015
 11
-197.991
 21
382.015
  0
LINE
  8
0
 10
-163.289
 20
365.519
 11
-163.713
 21
365.741
  0
LINE
  8
0
 10
-163.713
 20
365.741
 11
-163.985
 21
366.135
  0
LINE
  8
0
 10
-163.985
 20
366.135
 11
-164.043
 21
366.611
  0
LINE
  8
0
 10
-164.043
 20
366.611
 11
-163.873
 21
367.058
  0
LINE
  8
0
 10
-163.873
 20
367.058
 11
-163.515
 21
367.375
  0
LINE
  8
0
 10
-163.515
 20
367.375
 11
-163.05
 21
367.49
  0
LINE
  8
0
 10
-163.05
 20
367.49
 11
-162.585
 21
367.375
  0
LINE
  8
0
 10
-162.585
 20
367.375
 11
-162.227
 21
367.058
  0
LINE
  8
0
 10
-162.227
 20
367.058
 11
-162.057
 21
366.611
  0
LINE
  8
0
 10
-162.057
 20
366.611
 11
-162.115
 21
366.135
  0
LINE
  8
0
 10
-162.115
 20
366.135
 11
-162.387
 21
365.741
  0
LINE
  8
0
 10
-162.387
 20
365.741
 11
-162.811
 21
365.519
  0
LINE
  8
0
 10
-162.811
 20
365.519
 11
-163.289
 21
365.519
  0
LINE
  8
0
 10
127.985
 20
365.605
 11
127.627
 21
365.922
  0
LINE
  8
0
 10
127.627
 20
365.922
 11
127.457
 21
366.369
  0
LINE
  8
0
 10
127.457
 20
366.369
 11
127.515
 21
366.845
  0
LINE
  8
0
 10
127.515
 20
366.845
 11
127.787
 21
367.239
  0
LINE
  8
0
 10
127.787
 20
367.239
 11
128.211
 21
367.461
  0
LINE
  8
0
 10
128.211
 20
367.461
 11
128.689
 21
367.461
  0
LINE
  8
0
 10
128.689
 20
367.461
 11
129.113
 21
367.239
  0
LINE
  8
0
 10
129.113
 20
367.239
 11
129.385
 21
366.845
  0
LINE
  8
0
 10
129.385
 20
366.845
 11
129.443
 21
366.369
  0
LINE
  8
0
 10
129.443
 20
366.369
 11
129.273
 21
365.922
  0
LINE
  8
0
 10
129.273
 20
365.922
 11
128.915
 21
365.605
  0
LINE
  8
0
 10
128.915
 20
365.605
 11
128.45
 21
365.49
  0
LINE
  8
0
 10
128.45
 20
365.49
 11
127.985
 21
365.605
  0
LINE
  8
0
 10
50.5013
 20
329.55
 11
50.5013
 21
354.318
  0
LINE
  8
0
 10
50.5013
 20
354.318
 11
54.2133
 21
354.318
  0
LINE
  8
0
 10
54.2133
 20
354.318
 11
54.2133
 21
349.262
  0
LINE
  8
0
 10
54.2133
 20
349.262
 11
54.8241
 21
350.332
  0
LINE
  8
0
 10
54.8241
 20
350.332
 11
55.4699
 21
351.29
  0
LINE
  8
0
 10
55.4699
 20
351.29
 11
56.1509
 21
352.134
  0
LINE
  8
0
 10
56.1509
 20
352.134
 11
56.8669
 21
352.866
  0
LINE
  8
0
 10
56.8669
 20
352.866
 11
57.6181
 21
353.486
  0
LINE
  8
0
 10
57.6181
 20
353.486
 11
58.4043
 21
353.993
  0
LINE
  8
0
 10
58.4043
 20
353.993
 11
59.2257
 21
354.387
  0
LINE
  8
0
 10
59.2257
 20
354.387
 11
60.0821
 21
354.669
  0
LINE
  8
0
 10
60.0821
 20
354.669
 11
60.9737
 21
354.838
  0
LINE
  8
0
 10
60.9737
 20
354.838
 11
61.9003
 21
354.894
  0
LINE
  8
0
 10
61.9003
 20
354.894
 11
62.4586
 21
354.882
  0
LINE
  8
0
 10
62.4586
 20
354.882
 11
63.0136
 21
354.845
  0
LINE
  8
0
 10
63.0136
 20
354.845
 11
63.5653
 21
354.785
  0
LINE
  8
0
 10
63.5653
 20
354.785
 11
64.1136
 21
354.699
  0
LINE
  8
0
 10
64.1136
 20
354.699
 11
64.6586
 21
354.59
  0
LINE
  8
0
 10
64.6586
 20
354.59
 11
65.2002
 21
354.456
  0
LINE
  8
0
 10
65.2002
 20
354.456
 11
65.7385
 21
354.298
  0
LINE
  8
0
 10
65.7385
 20
354.298
 11
66.2734
 21
354.116
  0
LINE
  8
0
 10
66.2734
 20
354.116
 11
66.8051
 21
353.909
  0
LINE
  8
0
 10
66.8051
 20
353.909
 11
67.3333
 21
353.678
  0
LINE
  8
0
 10
67.3333
 20
353.678
 11
65.8383
 21
350.094
  0
LINE
  8
0
 10
65.8383
 20
350.094
 11
65.3564
 21
350.289
  0
LINE
  8
0
 10
65.3564
 20
350.289
 11
64.8876
 21
350.463
  0
LINE
  8
0
 10
64.8876
 20
350.463
 11
64.4322
 21
350.616
  0
LINE
  8
0
 10
64.4322
 20
350.616
 11
63.99
 21
350.749
  0
LINE
  8
0
 10
63.99
 20
350.749
 11
63.5611
 21
350.862
  0
LINE
  8
0
 10
63.5611
 20
350.862
 11
63.1454
 21
350.954
  0
LINE
  8
0
 10
63.1454
 20
350.954
 11
62.743
 21
351.026
  0
LINE
  8
0
 10
62.743
 20
351.026
 11
62.3538
 21
351.077
  0
LINE
  8
0
 10
62.3538
 20
351.077
 11
61.978
 21
351.108
  0
LINE
  8
0
 10
61.978
 20
351.108
 11
61.6153
 21
351.118
  0
LINE
  8
0
 10
61.6153
 20
351.118
 11
61.2886
 21
351.109
  0
LINE
  8
0
 10
61.2886
 20
351.109
 11
60.9634
 21
351.081
  0
LINE
  8
0
 10
60.9634
 20
351.081
 11
60.6395
 21
351.034
  0
LINE
  8
0
 10
60.6395
 20
351.034
 11
60.3171
 21
350.968
  0
LINE
  8
0
 10
60.3171
 20
350.968
 11
59.9961
 21
350.884
  0
LINE
  8
0
 10
59.9961
 20
350.884
 11
59.6765
 21
350.781
  0
LINE
  8
0
 10
59.6765
 20
350.781
 11
59.3583
 21
350.659
  0
LINE
  8
0
 10
59.3583
 20
350.659
 11
59.0415
 21
350.519
  0
LINE
  8
0
 10
59.0415
 20
350.519
 11
58.7262
 21
350.36
  0
LINE
  8
0
 10
58.7262
 20
350.36
 11
58.4123
 21
350.182
  0
LINE
  8
0
 10
58.4123
 20
350.182
 11
58.1016
 21
349.987
  0
LINE
  8
0
 10
58.1016
 20
349.987
 11
57.7959
 21
349.775
  0
LINE
  8
0
 10
57.7959
 20
349.775
 11
57.4951
 21
349.548
  0
LINE
  8
0
 10
57.4951
 20
349.548
 11
57.1994
 21
349.304
  0
LINE
  8
0
 10
57.1994
 20
349.304
 11
56.9086
 21
349.044
  0
LINE
  8
0
 10
56.9086
 20
349.044
 11
56.6228
 21
348.769
  0
LINE
  8
0
 10
56.6228
 20
348.769
 11
56.3419
 21
348.477
  0
LINE
  8
0
 10
56.3419
 20
348.477
 11
56.0661
 21
348.169
  0
LINE
  8
0
 10
56.0661
 20
348.169
 11
55.7952
 21
347.844
  0
LINE
  8
0
 10
55.7952
 20
347.844
 11
55.5293
 21
347.504
  0
LINE
  8
0
 10
55.5293
 20
347.504
 11
55.2793
 21
347.171
  0
LINE
  8
0
 10
55.2793
 20
347.171
 11
55.0556
 21
346.869
  0
LINE
  8
0
 10
55.0556
 20
346.869
 11
54.8582
 21
346.597
  0
LINE
  8
0
 10
54.8582
 20
346.597
 11
54.6871
 21
346.356
  0
LINE
  8
0
 10
54.6871
 20
346.356
 11
54.5423
 21
346.145
  0
LINE
  8
0
 10
54.5423
 20
346.145
 11
54.4239
 21
345.965
  0
LINE
  8
0
 10
54.4239
 20
345.965
 11
54.3318
 21
345.815
  0
LINE
  8
0
 10
54.3318
 20
345.815
 11
54.266
 21
345.696
  0
LINE
  8
0
 10
54.266
 20
345.696
 11
54.2265
 21
345.608
  0
LINE
  8
0
 10
54.2265
 20
345.608
 11
54.2133
 21
345.55
  0
LINE
  8
0
 10
54.2133
 20
345.55
 11
54.2133
 21
329.55
  0
LINE
  8
0
 10
54.2133
 20
329.55
 11
50.5013
 21
329.55
  0
LINE
  8
0
 10
-1.86052
 20
328.988
 11
-2.72475
 21
329.03
  0
LINE
  8
0
 10
-2.72475
 20
329.03
 11
-3.55716
 21
329.101
  0
LINE
  8
0
 10
-3.55716
 20
329.101
 11
-4.35771
 21
329.199
  0
LINE
  8
0
 10
-4.35771
 20
329.199
 11
-5.12643
 21
329.326
  0
LINE
  8
0
 10
-5.12643
 20
329.326
 11
-5.86331
 21
329.481
  0
LINE
  8
0
 10
-5.86331
 20
329.481
 11
-6.56836
 21
329.664
  0
LINE
  8
0
 10
-6.56836
 20
329.664
 11
-7.24155
 21
329.875
  0
LINE
  8
0
 10
-7.24155
 20
329.875
 11
-7.88292
 21
330.114
  0
LINE
  8
0
 10
-7.88292
 20
330.114
 11
-8.49243
 21
330.382
  0
LINE
  8
0
 10
-8.49243
 20
330.382
 11
-7.78044
 21
333.582
  0
LINE
  8
0
 10
-7.78044
 20
333.582
 11
-7.15411
 21
333.302
  0
LINE
  8
0
 10
-7.15411
 20
333.302
 11
-6.51875
 21
333.052
  0
LINE
  8
0
 10
-6.51875
 20
333.052
 11
-5.87436
 21
332.831
  0
LINE
  8
0
 10
-5.87436
 20
332.831
 11
-5.22092
 21
332.64
  0
LINE
  8
0
 10
-5.22092
 20
332.64
 11
-4.55844
 21
332.478
  0
LINE
  8
0
 10
-4.55844
 20
332.478
 11
-3.88692
 21
332.346
  0
LINE
  8
0
 10
-3.88692
 20
332.346
 11
-3.20636
 21
332.242
  0
LINE
  8
0
 10
-3.20636
 20
332.242
 11
-2.51675
 21
332.169
  0
LINE
  8
0
 10
-2.51675
 20
332.169
 11
-1.81812
 21
332.125
  0
LINE
  8
0
 10
-1.81812
 20
332.125
 11
-1.11043
 21
332.11
  0
LINE
  8
0
 10
-1.11043
 20
332.11
 11
-0.504944
 21
332.121
  0
LINE
  8
0
 10
-0.504944
 20
332.121
 11
0.0775146
 21
332.156
  0
LINE
  8
0
 10
0.0775146
 20
332.156
 11
0.636963
 21
332.213
  0
LINE
  8
0
 10
0.636963
 20
332.213
 11
1.17339
 21
332.293
  0
LINE
  8
0
 10
1.17339
 20
332.293
 11
1.6868
 21
332.395
  0
LINE
  8
0
 10
1.6868
 20
332.395
 11
2.17719
 21
332.521
  0
LINE
  8
0
 10
2.17719
 20
332.521
 11
2.64456
 21
332.669
  0
LINE
  8
0
 10
2.64456
 20
332.669
 11
3.08891
 21
332.84
  0
LINE
  8
0
 10
3.08891
 20
332.84
 11
3.51024
 21
333.034
  0
LINE
  8
0
 10
3.51024
 20
333.034
 11
3.90855
 21
333.251
  0
LINE
  8
0
 10
3.90855
 20
333.251
 11
4.2762
 21
333.487
  0
LINE
  8
0
 10
4.2762
 20
333.487
 11
4.60515
 21
333.737
  0
LINE
  8
0
 10
4.60515
 20
333.737
 11
4.8954
 21
334.003
  0
LINE
  8
0
 10
4.8954
 20
334.003
 11
5.14696
 21
334.283
  0
LINE
  8
0
 10
5.14696
 20
334.283
 11
5.3598
 21
334.578
  0
LINE
  8
0
 10
5.3598
 20
334.578
 11
5.53395
 21
334.888
  0
LINE
  8
0
 10
5.53395
 20
334.888
 11
5.6694
 21
335.213
  0
LINE
  8
0
 10
5.6694
 20
335.213
 11
5.76614
 21
335.552
  0
LINE
  8
0
 10
5.76614
 20
335.552
 11
5.8242
 21
335.907
  0
LINE
  8
0
 10
5.8242
 20
335.907
 11
5.84355
 21
336.276
  0
LINE
  8
0
 10
5.84355
 20
336.276
 11
5.83408
 21
336.527
  0
LINE
  8
0
 10
5.83408
 20
336.527
 11
5.80563
 21
336.774
  0
LINE
  8
0
 10
5.80563
 20
336.774
 11
5.75822
 21
337.014
  0
LINE
  8
0
 10
5.75822
 20
337.014
 11
5.69186
 21
337.249
  0
LINE
  8
0
 10
5.69186
 20
337.249
 11
5.60655
 21
337.479
  0
LINE
  8
0
 10
5.60655
 20
337.479
 11
5.50227
 21
337.704
  0
LINE
  8
0
 10
5.50227
 20
337.704
 11
5.37903
 21
337.923
  0
LINE
  8
0
 10
5.37903
 20
337.923
 11
5.23683
 21
338.136
  0
LINE
  8
0
 10
5.23683
 20
338.136
 11
5.07567
 21
338.344
  0
LINE
  8
0
 10
5.07567
 20
338.344
 11
4.89555
 21
338.547
  0
LINE
  8
0
 10
4.89555
 20
338.547
 11
4.67975
 21
338.748
  0
LINE
  8
0
 10
4.67975
 20
338.748
 11
4.41154
 21
338.951
  0
LINE
  8
0
 10
4.41154
 20
338.951
 11
4.09096
 21
339.156
  0
LINE
  8
0
 10
4.09096
 20
339.156
 11
3.71796
 21
339.363
  0
LINE
  8
0
 10
3.71796
 20
339.363
 11
3.29256
 21
339.572
  0
LINE
  8
0
 10
3.29256
 20
339.572
 11
2.81476
 21
339.782
  0
LINE
  8
0
 10
2.81476
 20
339.782
 11
2.28455
 21
339.995
  0
LINE
  8
0
 10
2.28455
 20
339.995
 11
1.70195
 21
340.209
  0
LINE
  8
0
 10
1.70195
 20
340.209
 11
1.06696
 21
340.426
  0
LINE
  8
0
 10
1.06696
 20
340.426
 11
0.379547
 21
340.644
  0
LINE
  8
0
 10
0.379547
 20
340.644
 11
-1.21077
 21
341.133
  0
LINE
  8
0
 10
-1.21077
 20
341.133
 11
-2.90477
 21
341.663
  0
LINE
  8
0
 10
-2.90477
 20
341.663
 11
-3.85544
 21
341.967
  0
LINE
  8
0
 10
-3.85544
 20
341.967
 11
-4.12471
 21
342.059
  0
LINE
  8
0
 10
-4.12471
 20
342.059
 11
-4.39011
 21
342.16
  0
LINE
  8
0
 10
-4.39011
 20
342.16
 11
-4.65166
 21
342.269
  0
LINE
  8
0
 10
-4.65166
 20
342.269
 11
-4.90935
 21
342.386
  0
LINE
  8
0
 10
-4.90935
 20
342.386
 11
-5.16318
 21
342.511
  0
LINE
  8
0
 10
-5.16318
 20
342.511
 11
-5.41315
 21
342.645
  0
LINE
  8
0
 10
-5.41315
 20
342.645
 11
-5.65927
 21
342.786
  0
LINE
  8
0
 10
-5.65927
 20
342.786
 11
-5.90152
 21
342.936
  0
LINE
  8
0
 10
-5.90152
 20
342.936
 11
-6.13991
 21
343.095
  0
LINE
  8
0
 10
-6.13991
 20
343.095
 11
-6.37444
 21
343.261
  0
LINE
  8
0
 10
-6.37444
 20
343.261
 11
-6.60147
 21
343.435
  0
LINE
  8
0
 10
-6.60147
 20
343.435
 11
-6.81735
 21
343.615
  0
LINE
  8
0
 10
-6.81735
 20
343.615
 11
-7.02211
 21
343.803
  0
LINE
  8
0
 10
-7.02211
 20
343.803
 11
-7.21571
 21
343.996
  0
LINE
  8
0
 10
-7.21571
 20
343.996
 11
-7.39818
 21
344.197
  0
LINE
  8
0
 10
-7.39818
 20
344.197
 11
-7.56952
 21
344.404
  0
LINE
  8
0
 10
-7.56952
 20
344.404
 11
-7.72971
 21
344.617
  0
LINE
  8
0
 10
-7.72971
 20
344.617
 11
-7.87875
 21
344.838
  0
LINE
  8
0
 10
-7.87875
 20
344.838
 11
-8.01666
 21
345.064
  0
LINE
  8
0
 10
-8.01666
 20
345.064
 11
-8.14343
 21
345.298
  0
LINE
  8
0
 10
-8.14343
 20
345.298
 11
-8.25838
 21
345.538
  0
LINE
  8
0
 10
-8.25838
 20
345.538
 11
-8.36124
 21
345.783
  0
LINE
  8
0
 10
-8.36124
 20
345.783
 11
-8.45198
 21
346.035
  0
LINE
  8
0
 10
-8.45198
 20
346.035
 11
-8.53064
 21
346.291
  0
LINE
  8
0
 10
-8.53064
 20
346.291
 11
-8.59718
 21
346.554
  0
LINE
  8
0
 10
-8.59718
 20
346.554
 11
-8.65163
 21
346.822
  0
LINE
  8
0
 10
-8.65163
 20
346.822
 11
-8.69398
 21
347.096
  0
LINE
  8
0
 10
-8.69398
 20
347.096
 11
-8.72423
 21
347.376
  0
LINE
  8
0
 10
-8.72423
 20
347.376
 11
-8.74239
 21
347.661
  0
LINE
  8
0
 10
-8.74239
 20
347.661
 11
-8.74843
 21
347.952
  0
LINE
  8
0
 10
-8.74843
 20
347.952
 11
-8.7204
 21
348.579
  0
LINE
  8
0
 10
-8.7204
 20
348.579
 11
-8.63628
 21
349.178
  0
LINE
  8
0
 10
-8.63628
 20
349.178
 11
-8.49608
 21
349.752
  0
LINE
  8
0
 10
-8.49608
 20
349.752
 11
-8.29979
 21
350.299
  0
LINE
  8
0
 10
-8.29979
 20
350.299
 11
-8.04744
 21
350.819
  0
LINE
  8
0
 10
-8.04744
 20
350.819
 11
-7.739
 21
351.313
  0
LINE
  8
0
 10
-7.739
 20
351.313
 11
-7.37448
 21
351.78
  0
LINE
  8
0
 10
-7.37448
 20
351.78
 11
-6.95387
 21
352.22
  0
LINE
  8
0
 10
-6.95387
 20
352.22
 11
-6.47719
 21
352.635
  0
LINE
  8
0
 10
-6.47719
 20
352.635
 11
-5.94443
 21
353.022
  0
LINE
  8
0
 10
-5.94443
 20
353.022
 11
-5.36534
 21
353.378
  0
LINE
  8
0
 10
-5.36534
 20
353.378
 11
-4.74963
 21
353.696
  0
LINE
  8
0
 10
-4.74963
 20
353.696
 11
-4.09734
 21
353.977
  0
LINE
  8
0
 10
-4.09734
 20
353.977
 11
-3.40843
 21
354.22
  0
LINE
  8
0
 10
-3.40843
 20
354.22
 11
-2.68294
 21
354.426
  0
LINE
  8
0
 10
-2.68294
 20
354.426
 11
-1.92084
 21
354.594
  0
LINE
  8
0
 10
-1.92084
 20
354.594
 11
-1.12213
 21
354.725
  0
LINE
  8
0
 10
-1.12213
 20
354.725
 11
-0.286835
 21
354.819
  0
LINE
  8
0
 10
-0.286835
 20
354.819
 11
0.585052
 21
354.875
  0
LINE
  8
0
 10
0.585052
 20
354.875
 11
1.49355
 21
354.894
  0
LINE
  8
0
 10
1.49355
 20
354.894
 11
2.09901
 21
354.884
  0
LINE
  8
0
 10
2.09901
 20
354.884
 11
2.71779
 21
354.853
  0
LINE
  8
0
 10
2.71779
 20
354.853
 11
3.34988
 21
354.802
  0
LINE
  8
0
 10
3.34988
 20
354.802
 11
3.99532
 21
354.73
  0
LINE
  8
0
 10
3.99532
 20
354.73
 11
4.65405
 21
354.638
  0
LINE
  8
0
 10
4.65405
 20
354.638
 11
5.32611
 21
354.525
  0
LINE
  8
0
 10
5.32611
 20
354.525
 11
6.01149
 21
354.392
  0
LINE
  8
0
 10
6.01149
 20
354.392
 11
6.71019
 21
354.239
  0
LINE
  8
0
 10
6.71019
 20
354.239
 11
7.42221
 21
354.065
  0
LINE
  8
0
 10
7.42221
 20
354.065
 11
8.14755
 21
353.87
  0
LINE
  8
0
 10
8.14755
 20
353.87
 11
7.31955
 21
350.734
  0
LINE
  8
0
 10
7.31955
 20
350.734
 11
6.7029
 21
350.929
  0
LINE
  8
0
 10
6.7029
 20
350.929
 11
6.09335
 21
351.103
  0
LINE
  8
0
 10
6.09335
 20
351.103
 11
5.49091
 21
351.256
  0
LINE
  8
0
 10
5.49091
 20
351.256
 11
4.89555
 21
351.389
  0
LINE
  8
0
 10
4.89555
 20
351.389
 11
4.3073
 21
351.502
  0
LINE
  8
0
 10
4.3073
 20
351.502
 11
3.72615
 21
351.594
  0
LINE
  8
0
 10
3.72615
 20
351.594
 11
3.1521
 21
351.666
  0
LINE
  8
0
 10
3.1521
 20
351.666
 11
2.58514
 21
351.717
  0
LINE
  8
0
 10
2.58514
 20
351.717
 11
2.0253
 21
351.748
  0
LINE
  8
0
 10
2.0253
 20
351.748
 11
1.47255
 21
351.758
  0
LINE
  8
0
 10
1.47255
 20
351.758
 11
0.883896
 21
351.748
  0
LINE
  8
0
 10
0.883896
 20
351.748
 11
0.320312
 21
351.718
  0
LINE
  8
0
 10
0.320312
 20
351.718
 11
-0.21817
 21
351.668
  0
LINE
  8
0
 10
-0.21817
 20
351.668
 11
-0.731598
 21
351.598
  0
LINE
  8
0
 10
-0.731598
 20
351.598
 11
-1.21994
 21
351.508
  0
LINE
  8
0
 10
-1.21994
 20
351.508
 11
-1.6832
 21
351.398
  0
LINE
  8
0
 10
-1.6832
 20
351.398
 11
-2.12137
 21
351.268
  0
LINE
  8
0
 10
-2.12137
 20
351.268
 11
-2.53447
 21
351.119
  0
LINE
  8
0
 10
-2.53447
 20
351.119
 11
-2.9225
 21
350.949
  0
LINE
  8
0
 10
-2.9225
 20
350.949
 11
-3.28543
 21
350.759
  0
LINE
  8
0
 10
-3.28543
 20
350.759
 11
-3.61812
 21
350.552
  0
LINE
  8
0
 10
-3.61812
 20
350.552
 11
-3.91579
 21
350.333
  0
LINE
  8
0
 10
-3.91579
 20
350.333
 11
-4.17844
 21
350.099
  0
LINE
  8
0
 10
-4.17844
 20
350.099
 11
-4.40607
 21
349.852
  0
LINE
  8
0
 10
-4.40607
 20
349.852
 11
-4.59868
 21
349.592
  0
LINE
  8
0
 10
-4.59868
 20
349.592
 11
-4.75627
 21
349.319
  0
LINE
  8
0
 10
-4.75627
 20
349.319
 11
-4.87885
 21
349.032
  0
LINE
  8
0
 10
-4.87885
 20
349.032
 11
-4.9664
 21
348.731
  0
LINE
  8
0
 10
-4.9664
 20
348.731
 11
-5.01892
 21
348.417
  0
LINE
  8
0
 10
-5.01892
 20
348.417
 11
-5.03644
 21
348.09
  0
LINE
  8
0
 10
-5.03644
 20
348.09
 11
-5.02841
 21
347.881
  0
LINE
  8
0
 10
-5.02841
 20
347.881
 11
-5.00435
 21
347.678
  0
LINE
  8
0
 10
-5.00435
 20
347.678
 11
-4.96425
 21
347.479
  0
LINE
  8
0
 10
-4.96425
 20
347.479
 11
-4.90811
 21
347.287
  0
LINE
  8
0
 10
-4.90811
 20
347.287
 11
-4.83594
 21
347.1
  0
LINE
  8
0
 10
-4.83594
 20
347.1
 11
-4.74771
 21
346.918
  0
LINE
  8
0
 10
-4.74771
 20
346.918
 11
-4.64345
 21
346.741
  0
LINE
  8
0
 10
-4.64345
 20
346.741
 11
-4.52315
 21
346.57
  0
LINE
  8
0
 10
-4.52315
 20
346.57
 11
-4.38681
 21
346.404
  0
LINE
  8
0
 10
-4.38681
 20
346.404
 11
-4.23444
 21
346.244
  0
LINE
  8
0
 10
-4.23444
 20
346.244
 11
-4.05779
 21
346.088
  0
LINE
  8
0
 10
-4.05779
 20
346.088
 11
-3.84903
 21
345.933
  0
LINE
  8
0
 10
-3.84903
 20
345.933
 11
-3.60818
 21
345.78
  0
LINE
  8
0
 10
-3.60818
 20
345.78
 11
-3.33524
 21
345.63
  0
LINE
  8
0
 10
-3.33524
 20
345.63
 11
-3.03018
 21
345.481
  0
LINE
  8
0
 10
-3.03018
 20
345.481
 11
-2.69304
 21
345.334
  0
LINE
  8
0
 10
-2.69304
 20
345.334
 11
-2.32378
 21
345.189
  0
LINE
  8
0
 10
-2.32378
 20
345.189
 11
-1.92244
 21
345.046
  0
LINE
  8
0
 10
-1.92244
 20
345.046
 11
-1.48898
 21
344.904
  0
LINE
  8
0
 10
-1.48898
 20
344.904
 11
-1.02344
 21
344.765
  0
LINE
  8
0
 10
-1.02344
 20
344.765
 11
2.49455
 21
343.74
  0
LINE
  8
0
 10
2.49455
 20
343.74
 11
2.97206
 21
343.599
  0
LINE
  8
0
 10
2.97206
 20
343.599
 11
3.43179
 21
343.452
  0
LINE
  8
0
 10
3.43179
 20
343.452
 11
3.87373
 21
343.301
  0
LINE
  8
0
 10
3.87373
 20
343.301
 11
4.29791
 21
343.144
  0
LINE
  8
0
 10
4.29791
 20
343.144
 11
4.7043
 21
342.981
  0
LINE
  8
0
 10
4.7043
 20
342.981
 11
5.09291
 21
342.813
  0
LINE
  8
0
 10
5.09291
 20
342.813
 11
5.46375
 21
342.64
  0
LINE
  8
0
 10
5.46375
 20
342.64
 11
5.81679
 21
342.461
  0
LINE
  8
0
 10
5.81679
 20
342.461
 11
6.15205
 21
342.277
  0
LINE
  8
0
 10
6.15205
 20
342.277
 11
6.46954
 21
342.088
  0
LINE
  8
0
 10
6.46954
 20
342.088
 11
6.77043
 21
341.892
  0
LINE
  8
0
 10
6.77043
 20
341.892
 11
7.05588
 21
341.688
  0
LINE
  8
0
 10
7.05588
 20
341.688
 11
7.32587
 21
341.476
  0
LINE
  8
0
 10
7.32587
 20
341.476
 11
7.58043
 21
341.256
  0
LINE
  8
0
 10
7.58043
 20
341.256
 11
7.81955
 21
341.028
  0
LINE
  8
0
 10
7.81955
 20
341.028
 11
8.04323
 21
340.792
  0
LINE
  8
0
 10
8.04323
 20
340.792
 11
8.25146
 21
340.547
  0
LINE
  8
0
 10
8.25146
 20
340.547
 11
8.44427
 21
340.295
  0
LINE
  8
0
 10
8.44427
 20
340.295
 11
8.62163
 21
340.035
  0
LINE
  8
0
 10
8.62163
 20
340.035
 11
8.78355
 21
339.766
  0
LINE
  8
0
 10
8.78355
 20
339.766
 11
8.93024
 21
339.489
  0
LINE
  8
0
 10
8.93024
 20
339.489
 11
9.06148
 21
339.204
  0
LINE
  8
0
 10
9.06148
 20
339.204
 11
9.17728
 21
338.909
  0
LINE
  8
0
 10
9.17728
 20
338.909
 11
9.27763
 21
338.606
  0
LINE
  8
0
 10
9.27763
 20
338.606
 11
9.36255
 21
338.294
  0
LINE
  8
0
 10
9.36255
 20
338.294
 11
9.43204
 21
337.974
  0
LINE
  8
0
 10
9.43204
 20
337.974
 11
9.48607
 21
337.644
  0
LINE
  8
0
 10
9.48607
 20
337.644
 11
9.52467
 21
337.306
  0
LINE
  8
0
 10
9.52467
 20
337.306
 11
9.54784
 21
336.959
  0
LINE
  8
0
 10
9.54784
 20
336.959
 11
9.55556
 21
336.603
  0
LINE
  8
0
 10
9.55556
 20
336.603
 11
9.52586
 21
335.912
  0
LINE
  8
0
 10
9.52586
 20
335.912
 11
9.4368
 21
335.25
  0
LINE
  8
0
 10
9.4368
 20
335.25
 11
9.28835
 21
334.618
  0
LINE
  8
0
 10
9.28835
 20
334.618
 11
9.08051
 21
334.016
  0
LINE
  8
0
 10
9.08051
 20
334.016
 11
8.81329
 21
333.443
  0
LINE
  8
0
 10
8.81329
 20
333.443
 11
8.48671
 21
332.9
  0
LINE
  8
0
 10
8.48671
 20
332.9
 11
8.10074
 21
332.386
  0
LINE
  8
0
 10
8.10074
 20
332.386
 11
7.6554
 21
331.902
  0
LINE
  8
0
 10
7.6554
 20
331.902
 11
7.15067
 21
331.448
  0
LINE
  8
0
 10
7.15067
 20
331.448
 11
6.58655
 21
331.023
  0
LINE
  8
0
 10
6.58655
 20
331.023
 11
5.97681
 21
330.634
  0
LINE
  8
0
 10
5.97681
 20
330.634
 11
5.33475
 21
330.285
  0
LINE
  8
0
 10
5.33475
 20
330.285
 11
4.6604
 21
329.978
  0
LINE
  8
0
 10
4.6604
 20
329.978
 11
3.95375
 21
329.712
  0
LINE
  8
0
 10
3.95375
 20
329.712
 11
3.2148
 21
329.486
  0
LINE
  8
0
 10
3.2148
 20
329.486
 11
2.44356
 21
329.302
  0
LINE
  8
0
 10
2.44356
 20
329.302
 11
1.64
 21
329.158
  0
LINE
  8
0
 10
1.64
 20
329.158
 11
0.804153
 21
329.056
  0
LINE
  8
0
 10
0.804153
 20
329.056
 11
-0.0639801
 21
328.994
  0
LINE
  8
0
 10
-0.0639801
 20
328.994
 11
-0.964432
 21
328.974
  0
LINE
  8
0
 10
-0.964432
 20
328.974
 11
-1.86052
 21
328.988
  0
LINE
  8
0
 10
30.0695
 20
329.009
 11
28.9718
 21
329.116
  0
LINE
  8
0
 10
28.9718
 20
329.116
 11
27.9213
 21
329.293
  0
LINE
  8
0
 10
27.9213
 20
329.293
 11
26.9181
 21
329.541
  0
LINE
  8
0
 10
26.9181
 20
329.541
 11
25.9622
 21
329.859
  0
LINE
  8
0
 10
25.9622
 20
329.859
 11
25.0535
 21
330.249
  0
LINE
  8
0
 10
25.0535
 20
330.249
 11
24.1921
 21
330.71
  0
LINE
  8
0
 10
24.1921
 20
330.71
 11
23.378
 21
331.241
  0
LINE
  8
0
 10
23.378
 20
331.241
 11
22.6111
 21
331.843
  0
LINE
  8
0
 10
22.6111
 20
331.843
 11
21.8914
 21
332.516
  0
LINE
  8
0
 10
21.8914
 20
332.516
 11
21.2304
 21
333.248
  0
LINE
  8
0
 10
21.2304
 20
333.248
 11
20.639
 21
334.026
  0
LINE
  8
0
 10
20.639
 20
334.026
 11
20.1171
 21
334.851
  0
LINE
  8
0
 10
20.1171
 20
334.851
 11
19.6649
 21
335.723
  0
LINE
  8
0
 10
19.6649
 20
335.723
 11
19.2822
 21
336.641
  0
LINE
  8
0
 10
19.2822
 20
336.641
 11
18.9691
 21
337.607
  0
LINE
  8
0
 10
18.9691
 20
337.607
 11
18.7255
 21
338.618
  0
LINE
  8
0
 10
18.7255
 20
338.618
 11
18.5516
 21
339.677
  0
LINE
  8
0
 10
18.5516
 20
339.677
 11
18.4472
 21
340.782
  0
LINE
  8
0
 10
18.4472
 20
340.782
 11
18.4124
 21
341.934
  0
LINE
  8
0
 10
18.4124
 20
341.934
 11
18.4475
 21
343.086
  0
LINE
  8
0
 10
18.4475
 20
343.086
 11
18.5528
 21
344.191
  0
LINE
  8
0
 10
18.5528
 20
344.191
 11
18.7282
 21
345.25
  0
LINE
  8
0
 10
18.7282
 20
345.25
 11
18.9739
 21
346.261
  0
LINE
  8
0
 10
18.9739
 20
346.261
 11
19.2897
 21
347.227
  0
LINE
  8
0
 10
19.2897
 20
347.227
 11
19.6757
 21
348.145
  0
LINE
  8
0
 10
19.6757
 20
348.145
 11
20.1319
 21
349.017
  0
LINE
  8
0
 10
20.1319
 20
349.017
 11
20.6582
 21
349.842
  0
LINE
  8
0
 10
20.6582
 20
349.842
 11
21.2547
 21
350.62
  0
LINE
  8
0
 10
21.2547
 20
350.62
 11
21.9214
 21
351.352
  0
LINE
  8
0
 10
21.9214
 20
351.352
 11
22.6452
 21
352.025
  0
LINE
  8
0
 10
22.6452
 20
352.025
 11
23.413
 21
352.627
  0
LINE
  8
0
 10
23.413
 20
352.627
 11
24.2248
 21
353.158
  0
LINE
  8
0
 10
24.2248
 20
353.158
 11
25.0806
 21
353.619
  0
LINE
  8
0
 10
25.0806
 20
353.619
 11
25.9804
 21
354.008
  0
LINE
  8
0
 10
25.9804
 20
354.008
 11
26.9242
 21
354.327
  0
LINE
  8
0
 10
26.9242
 20
354.327
 11
27.912
 21
354.575
  0
LINE
  8
0
 10
27.912
 20
354.575
 11
28.9438
 21
354.752
  0
LINE
  8
0
 10
28.9438
 20
354.752
 11
30.0196
 21
354.859
  0
LINE
  8
0
 10
30.0196
 20
354.859
 11
31.1394
 21
354.894
  0
LINE
  8
0
 10
31.1394
 20
354.894
 11
31.8829
 21
354.881
  0
LINE
  8
0
 10
31.8829
 20
354.881
 11
32.6192
 21
354.843
  0
LINE
  8
0
 10
32.6192
 20
354.843
 11
33.3483
 21
354.779
  0
LINE
  8
0
 10
33.3483
 20
354.779
 11
34.0703
 21
354.689
  0
LINE
  8
0
 10
34.0703
 20
354.689
 11
34.7852
 21
354.574
  0
LINE
  8
0
 10
34.7852
 20
354.574
 11
35.4929
 21
354.433
  0
LINE
  8
0
 10
35.4929
 20
354.433
 11
36.1935
 21
354.267
  0
LINE
  8
0
 10
36.1935
 20
354.267
 11
36.8869
 21
354.075
  0
LINE
  8
0
 10
36.8869
 20
354.075
 11
37.5733
 21
353.857
  0
LINE
  8
0
 10
37.5733
 20
353.857
 11
38.2524
 21
353.614
  0
LINE
  8
0
 10
38.2524
 20
353.614
 11
37.2734
 21
350.542
  0
LINE
  8
0
 10
37.2734
 20
350.542
 11
36.6019
 21
350.761
  0
LINE
  8
0
 10
36.6019
 20
350.761
 11
35.9438
 21
350.957
  0
LINE
  8
0
 10
35.9438
 20
350.957
 11
35.299
 21
351.13
  0
LINE
  8
0
 10
35.299
 20
351.13
 11
34.6675
 21
351.279
  0
LINE
  8
0
 10
34.6675
 20
351.279
 11
34.0494
 21
351.406
  0
LINE
  8
0
 10
34.0494
 20
351.406
 11
33.4447
 21
351.51
  0
LINE
  8
0
 10
33.4447
 20
351.51
 11
32.8533
 21
351.59
  0
LINE
  8
0
 10
32.8533
 20
351.59
 11
32.2754
 21
351.648
  0
LINE
  8
0
 10
32.2754
 20
351.648
 11
31.7107
 21
351.682
  0
LINE
  8
0
 10
31.7107
 20
351.682
 11
31.1594
 21
351.694
  0
LINE
  8
0
 10
31.1594
 20
351.694
 11
30.3551
 21
351.668
  0
LINE
  8
0
 10
30.3551
 20
351.668
 11
29.5849
 21
351.589
  0
LINE
  8
0
 10
29.5849
 20
351.589
 11
28.8489
 21
351.457
  0
LINE
  8
0
 10
28.8489
 20
351.457
 11
28.147
 21
351.273
  0
LINE
  8
0
 10
28.147
 20
351.273
 11
27.4792
 21
351.036
  0
LINE
  8
0
 10
27.4792
 20
351.036
 11
26.8456
 21
350.746
  0
LINE
  8
0
 10
26.8456
 20
350.746
 11
26.2461
 21
350.404
  0
LINE
  8
0
 10
26.2461
 20
350.404
 11
25.6807
 21
350.009
  0
LINE
  8
0
 10
25.6807
 20
350.009
 11
25.1495
 21
349.561
  0
LINE
  8
0
 10
25.1495
 20
349.561
 11
24.6524
 21
349.061
  0
LINE
  8
0
 10
24.6524
 20
349.061
 11
24.1964
 21
348.516
  0
LINE
  8
0
 10
24.1964
 20
348.516
 11
23.7884
 21
347.933
  0
LINE
  8
0
 10
23.7884
 20
347.933
 11
23.4284
 21
347.313
  0
LINE
  8
0
 10
23.4284
 20
347.313
 11
23.1164
 21
346.655
  0
LINE
  8
0
 10
23.1164
 20
346.655
 11
22.8524
 21
345.96
  0
LINE
  8
0
 10
22.8524
 20
345.96
 11
22.6364
 21
345.228
  0
LINE
  8
0
 10
22.6364
 20
345.228
 11
22.4684
 21
344.457
  0
LINE
  8
0
 10
22.4684
 20
344.457
 11
22.3484
 21
343.65
  0
LINE
  8
0
 10
22.3484
 20
343.65
 11
22.2764
 21
342.805
  0
LINE
  8
0
 10
22.2764
 20
342.805
 11
22.2524
 21
341.922
  0
LINE
  8
0
 10
22.2524
 20
341.922
 11
22.2772
 21
341.11
  0
LINE
  8
0
 10
22.2772
 20
341.11
 11
22.3515
 21
340.324
  0
LINE
  8
0
 10
22.3515
 20
340.324
 11
22.4754
 21
339.564
  0
LINE
  8
0
 10
22.4754
 20
339.564
 11
22.6489
 21
338.831
  0
LINE
  8
0
 10
22.6489
 20
338.831
 11
22.8719
 21
338.124
  0
LINE
  8
0
 10
22.8719
 20
338.124
 11
23.1445
 21
337.443
  0
LINE
  8
0
 10
23.1445
 20
337.443
 11
23.4667
 21
336.789
  0
LINE
  8
0
 10
23.4667
 20
336.789
 11
23.8383
 21
336.161
  0
LINE
  8
0
 10
23.8383
 20
336.161
 11
24.2596
 21
335.559
  0
LINE
  8
0
 10
24.2596
 20
335.559
 11
24.7304
 21
334.984
  0
LINE
  8
0
 10
24.7304
 20
334.984
 11
25.2413
 21
334.45
  0
LINE
  8
0
 10
25.2413
 20
334.45
 11
25.7821
 21
333.972
  0
LINE
  8
0
 10
25.7821
 20
333.972
 11
26.353
 21
333.551
  0
LINE
  8
0
 10
26.353
 20
333.551
 11
26.9539
 21
333.186
  0
LINE
  8
0
 10
26.9539
 20
333.186
 11
27.5849
 21
332.876
  0
LINE
  8
0
 10
27.5849
 20
332.876
 11
28.246
 21
332.624
  0
LINE
  8
0
 10
28.246
 20
332.624
 11
28.937
 21
332.427
  0
LINE
  8
0
 10
28.937
 20
332.427
 11
29.6581
 21
332.286
  0
LINE
  8
0
 10
29.6581
 20
332.286
 11
30.4093
 21
332.202
  0
LINE
  8
0
 10
30.4093
 20
332.202
 11
31.1904
 21
332.174
  0
LINE
  8
0
 10
31.1904
 20
332.174
 11
31.8215
 21
332.186
  0
LINE
  8
0
 10
31.8215
 20
332.186
 11
32.4564
 21
332.223
  0
LINE
  8
0
 10
32.4564
 20
332.223
 11
33.0951
 21
332.283
  0
LINE
  8
0
 10
33.0951
 20
332.283
 11
33.7376
 21
332.369
  0
LINE
  8
0
 10
33.7376
 20
332.369
 11
34.3839
 21
332.478
  0
LINE
  8
0
 10
34.3839
 20
332.478
 11
35.034
 21
332.612
  0
LINE
  8
0
 10
35.034
 20
332.612
 11
35.6879
 21
332.77
  0
LINE
  8
0
 10
35.6879
 20
332.77
 11
36.3456
 21
332.952
  0
LINE
  8
0
 10
36.3456
 20
332.952
 11
37.0071
 21
333.159
  0
LINE
  8
0
 10
37.0071
 20
333.159
 11
37.6724
 21
333.39
  0
LINE
  8
0
 10
37.6724
 20
333.39
 11
38.3164
 21
330.446
  0
LINE
  8
0
 10
38.3164
 20
330.446
 11
37.664
 21
330.166
  0
LINE
  8
0
 10
37.664
 20
330.166
 11
36.9987
 21
329.916
  0
LINE
  8
0
 10
36.9987
 20
329.916
 11
36.3206
 21
329.695
  0
LINE
  8
0
 10
36.3206
 20
329.695
 11
35.6297
 21
329.504
  0
LINE
  8
0
 10
35.6297
 20
329.504
 11
34.9259
 21
329.342
  0
LINE
  8
0
 10
34.9259
 20
329.342
 11
34.2093
 21
329.21
  0
LINE
  8
0
 10
34.2093
 20
329.21
 11
33.4799
 21
329.106
  0
LINE
  8
0
 10
33.4799
 20
329.106
 11
32.7375
 21
329.033
  0
LINE
  8
0
 10
32.7375
 20
329.033
 11
31.9824
 21
328.989
  0
LINE
  8
0
 10
31.9824
 20
328.989
 11
31.2144
 21
328.974
  0
LINE
  8
0
 10
31.2144
 20
328.974
 11
30.0695
 21
329.009
  0
LINE
  8
0
 10
-66.1422
 20
329.55
 11
-66.1422
 21
354.318
  0
LINE
  8
0
 10
-66.1422
 20
354.318
 11
-62.4302
 21
354.318
  0
LINE
  8
0
 10
-62.4302
 20
354.318
 11
-62.4302
 21
350.67
  0
LINE
  8
0
 10
-62.4302
 20
350.67
 11
-61.6283
 21
351.473
  0
LINE
  8
0
 10
-61.6283
 20
351.473
 11
-60.8179
 21
352.191
  0
LINE
  8
0
 10
-60.8179
 20
352.191
 11
-59.9989
 21
352.824
  0
LINE
  8
0
 10
-59.9989
 20
352.824
 11
-59.1713
 21
353.373
  0
LINE
  8
0
 10
-59.1713
 20
353.373
 11
-58.3352
 21
353.838
  0
LINE
  8
0
 10
-58.3352
 20
353.838
 11
-57.4905
 21
354.218
  0
LINE
  8
0
 10
-57.4905
 20
354.218
 11
-56.6373
 21
354.514
  0
LINE
  8
0
 10
-56.6373
 20
354.514
 11
-55.7755
 21
354.725
  0
LINE
  8
0
 10
-55.7755
 20
354.725
 11
-54.9051
 21
354.852
  0
LINE
  8
0
 10
-54.9051
 20
354.852
 11
-54.0262
 21
354.894
  0
LINE
  8
0
 10
-54.0262
 20
354.894
 11
-52.7046
 21
354.81
  0
LINE
  8
0
 10
-52.7046
 20
354.81
 11
-51.522
 21
354.558
  0
LINE
  8
0
 10
-51.522
 20
354.558
 11
-50.4786
 21
354.137
  0
LINE
  8
0
 10
-50.4786
 20
354.137
 11
-49.5744
 21
353.549
  0
LINE
  8
0
 10
-49.5744
 20
353.549
 11
-48.8092
 21
352.792
  0
LINE
  8
0
 10
-48.8092
 20
352.792
 11
-48.1832
 21
351.867
  0
LINE
  8
0
 10
-48.1832
 20
351.867
 11
-47.6962
 21
350.774
  0
LINE
  8
0
 10
-47.6962
 20
350.774
 11
-47.3484
 21
349.513
  0
LINE
  8
0
 10
-47.3484
 20
349.513
 11
-47.1398
 21
348.084
  0
LINE
  8
0
 10
-47.1398
 20
348.084
 11
-47.0702
 21
346.486
  0
LINE
  8
0
 10
-47.0702
 20
346.486
 11
-47.0702
 21
329.55
  0
LINE
  8
0
 10
-47.0702
 20
329.55
 11
-50.7822
 21
329.55
  0
LINE
  8
0
 10
-50.7822
 20
329.55
 11
-50.7822
 21
345.421
  0
LINE
  8
0
 10
-50.7822
 20
345.421
 11
-50.7928
 21
346.063
  0
LINE
  8
0
 10
-50.7928
 20
346.063
 11
-50.8244
 21
346.669
  0
LINE
  8
0
 10
-50.8244
 20
346.669
 11
-50.8772
 21
347.239
  0
LINE
  8
0
 10
-50.8772
 20
347.239
 11
-50.9512
 21
347.773
  0
LINE
  8
0
 10
-50.9512
 20
347.773
 11
-51.0462
 21
348.27
  0
LINE
  8
0
 10
-51.0462
 20
348.27
 11
-51.1624
 21
348.73
  0
LINE
  8
0
 10
-51.1624
 20
348.73
 11
-51.2996
 21
349.154
  0
LINE
  8
0
 10
-51.2996
 20
349.154
 11
-51.458
 21
349.542
  0
LINE
  8
0
 10
-51.458
 20
349.542
 11
-51.6376
 21
349.894
  0
LINE
  8
0
 10
-51.6376
 20
349.894
 11
-51.8382
 21
350.209
  0
LINE
  8
0
 10
-51.8382
 20
350.209
 11
-52.0612
 21
350.491
  0
LINE
  8
0
 10
-52.0612
 20
350.491
 11
-52.3082
 21
350.744
  0
LINE
  8
0
 10
-52.3082
 20
350.744
 11
-52.5791
 21
350.966
  0
LINE
  8
0
 10
-52.5791
 20
350.966
 11
-52.874
 21
351.159
  0
LINE
  8
0
 10
-52.874
 20
351.159
 11
-53.1929
 21
351.323
  0
LINE
  8
0
 10
-53.1929
 20
351.323
 11
-53.5358
 21
351.456
  0
LINE
  8
0
 10
-53.5358
 20
351.456
 11
-53.9027
 21
351.56
  0
LINE
  8
0
 10
-53.9027
 20
351.56
 11
-54.2936
 21
351.635
  0
LINE
  8
0
 10
-54.2936
 20
351.635
 11
-54.7084
 21
351.679
  0
LINE
  8
0
 10
-54.7084
 20
351.679
 11
-55.1472
 21
351.694
  0
LINE
  8
0
 10
-55.1472
 20
351.694
 11
-55.8306
 21
351.652
  0
LINE
  8
0
 10
-55.8306
 20
351.652
 11
-56.524
 21
351.525
  0
LINE
  8
0
 10
-56.524
 20
351.525
 11
-57.2273
 21
351.314
  0
LINE
  8
0
 10
-57.2273
 20
351.314
 11
-57.9406
 21
351.018
  0
LINE
  8
0
 10
-57.9406
 20
351.018
 11
-58.664
 21
350.638
  0
LINE
  8
0
 10
-58.664
 20
350.638
 11
-59.3972
 21
350.173
  0
LINE
  8
0
 10
-59.3972
 20
350.173
 11
-60.1405
 21
349.624
  0
LINE
  8
0
 10
-60.1405
 20
349.624
 11
-60.8938
 21
348.991
  0
LINE
  8
0
 10
-60.8938
 20
348.991
 11
-61.657
 21
348.273
  0
LINE
  8
0
 10
-61.657
 20
348.273
 11
-62.4302
 21
347.47
  0
LINE
  8
0
 10
-62.4302
 20
347.47
 11
-62.4302
 21
329.55
  0
LINE
  8
0
 10
-62.4302
 20
329.55
 11
-66.1422
 21
329.55
  0
LINE
  8
0
 10
-37.6373
 20
329.55
 11
-37.6373
 21
354.318
  0
LINE
  8
0
 10
-37.6373
 20
354.318
 11
-33.9253
 21
354.318
  0
LINE
  8
0
 10
-33.9253
 20
354.318
 11
-33.9253
 21
350.67
  0
LINE
  8
0
 10
-33.9253
 20
350.67
 11
-33.1234
 21
351.473
  0
LINE
  8
0
 10
-33.1234
 20
351.473
 11
-32.313
 21
352.191
  0
LINE
  8
0
 10
-32.313
 20
352.191
 11
-31.494
 21
352.824
  0
LINE
  8
0
 10
-31.494
 20
352.824
 11
-30.6664
 21
353.373
  0
LINE
  8
0
 10
-30.6664
 20
353.373
 11
-29.8303
 21
353.838
  0
LINE
  8
0
 10
-29.8303
 20
353.838
 11
-28.9856
 21
354.218
  0
LINE
  8
0
 10
-28.9856
 20
354.218
 11
-28.1324
 21
354.514
  0
LINE
  8
0
 10
-28.1324
 20
354.514
 11
-27.2706
 21
354.725
  0
LINE
  8
0
 10
-27.2706
 20
354.725
 11
-26.4002
 21
354.852
  0
LINE
  8
0
 10
-26.4002
 20
354.852
 11
-25.5213
 21
354.894
  0
LINE
  8
0
 10
-25.5213
 20
354.894
 11
-24.1997
 21
354.81
  0
LINE
  8
0
 10
-24.1997
 20
354.81
 11
-23.0172
 21
354.558
  0
LINE
  8
0
 10
-23.0172
 20
354.558
 11
-21.9738
 21
354.137
  0
LINE
  8
0
 10
-21.9738
 20
354.137
 11
-21.0695
 21
353.549
  0
LINE
  8
0
 10
-21.0695
 20
353.549
 11
-20.3043
 21
352.792
  0
LINE
  8
0
 10
-20.3043
 20
352.792
 11
-19.6783
 21
351.867
  0
LINE
  8
0
 10
-19.6783
 20
351.867
 11
-19.1914
 21
350.774
  0
LINE
  8
0
 10
-19.1914
 20
350.774
 11
-18.8436
 21
349.513
  0
LINE
  8
0
 10
-18.8436
 20
349.513
 11
-18.6349
 21
348.084
  0
LINE
  8
0
 10
-18.6349
 20
348.084
 11
-18.5653
 21
346.486
  0
LINE
  8
0
 10
-18.5653
 20
346.486
 11
-18.5653
 21
329.55
  0
LINE
  8
0
 10
-18.5653
 20
329.55
 11
-22.2773
 21
329.55
  0
LINE
  8
0
 10
-22.2773
 20
329.55
 11
-22.2773
 21
345.421
  0
LINE
  8
0
 10
-22.2773
 20
345.421
 11
-22.2879
 21
346.063
  0
LINE
  8
0
 10
-22.2879
 20
346.063
 11
-22.3195
 21
346.669
  0
LINE
  8
0
 10
-22.3195
 20
346.669
 11
-22.3724
 21
347.239
  0
LINE
  8
0
 10
-22.3724
 20
347.239
 11
-22.4463
 21
347.773
  0
LINE
  8
0
 10
-22.4463
 20
347.773
 11
-22.5413
 21
348.27
  0
LINE
  8
0
 10
-22.5413
 20
348.27
 11
-22.6575
 21
348.73
  0
LINE
  8
0
 10
-22.6575
 20
348.73
 11
-22.7948
 21
349.154
  0
LINE
  8
0
 10
-22.7948
 20
349.154
 11
-22.9532
 21
349.542
  0
LINE
  8
0
 10
-22.9532
 20
349.542
 11
-23.1327
 21
349.894
  0
LINE
  8
0
 10
-23.1327
 20
349.894
 11
-23.3333
 21
350.209
  0
LINE
  8
0
 10
-23.3333
 20
350.209
 11
-23.5563
 21
350.491
  0
LINE
  8
0
 10
-23.5563
 20
350.491
 11
-23.8033
 21
350.744
  0
LINE
  8
0
 10
-23.8033
 20
350.744
 11
-24.0742
 21
350.966
  0
LINE
  8
0
 10
-24.0742
 20
350.966
 11
-24.3692
 21
351.159
  0
LINE
  8
0
 10
-24.3692
 20
351.159
 11
-24.6881
 21
351.323
  0
LINE
  8
0
 10
-24.6881
 20
351.323
 11
-25.031
 21
351.456
  0
LINE
  8
0
 10
-25.031
 20
351.456
 11
-25.3978
 21
351.56
  0
LINE
  8
0
 10
-25.3978
 20
351.56
 11
-25.7887
 21
351.635
  0
LINE
  8
0
 10
-25.7887
 20
351.635
 11
-26.2035
 21
351.679
  0
LINE
  8
0
 10
-26.2035
 20
351.679
 11
-26.6423
 21
351.694
  0
LINE
  8
0
 10
-26.6423
 20
351.694
 11
-27.3257
 21
351.652
  0
LINE
  8
0
 10
-27.3257
 20
351.652
 11
-28.0191
 21
351.525
  0
LINE
  8
0
 10
-28.0191
 20
351.525
 11
-28.7224
 21
351.314
  0
LINE
  8
0
 10
-28.7224
 20
351.314
 11
-29.4358
 21
351.018
  0
LINE
  8
0
 10
-29.4358
 20
351.018
 11
-30.1591
 21
350.638
  0
LINE
  8
0
 10
-30.1591
 20
350.638
 11
-30.8923
 21
350.173
  0
LINE
  8
0
 10
-30.8923
 20
350.173
 11
-31.6356
 21
349.624
  0
LINE
  8
0
 10
-31.6356
 20
349.624
 11
-32.3889
 21
348.991
  0
LINE
  8
0
 10
-32.3889
 20
348.991
 11
-33.1521
 21
348.273
  0
LINE
  8
0
 10
-33.1521
 20
348.273
 11
-33.9253
 21
347.47
  0
LINE
  8
0
 10
-33.9253
 20
347.47
 11
-33.9253
 21
329.55
  0
LINE
  8
0
 10
-33.9253
 20
329.55
 11
-37.6373
 21
329.55
  0
LINE
  8
0
 10
127.185
 20
336.695
 11
126.827
 21
337.012
  0
LINE
  8
0
 10
126.827
 20
337.012
 11
126.657
 21
337.459
  0
LINE
  8
0
 10
126.657
 20
337.459
 11
126.715
 21
337.935
  0
LINE
  8
0
 10
126.715
 20
337.935
 11
126.987
 21
338.329
  0
LINE
  8
0
 10
126.987
 20
338.329
 11
127.411
 21
338.551
  0
LINE
  8
0
 10
127.411
 20
338.551
 11
127.889
 21
338.551
  0
LINE
  8
0
 10
127.889
 20
338.551
 11
128.313
 21
338.329
  0
LINE
  8
0
 10
128.313
 20
338.329
 11
128.585
 21
337.935
  0
LINE
  8
0
 10
128.585
 20
337.935
 11
128.643
 21
337.459
  0
LINE
  8
0
 10
128.643
 20
337.459
 11
128.473
 21
337.012
  0
LINE
  8
0
 10
128.473
 20
337.012
 11
128.115
 21
336.695
  0
LINE
  8
0
 10
128.115
 20
336.695
 11
127.65
 21
336.58
  0
LINE
  8
0
 10
127.65
 20
336.58
 11
127.185
 21
336.695
  0
LINE
  8
0
 10
-162.715
 20
336.695
 11
-163.073
 21
337.012
  0
LINE
  8
0
 10
-163.073
 20
337.012
 11
-163.243
 21
337.459
  0
LINE
  8
0
 10
-163.243
 20
337.459
 11
-163.185
 21
337.935
  0
LINE
  8
0
 10
-163.185
 20
337.935
 11
-162.913
 21
338.329
  0
LINE
  8
0
 10
-162.913
 20
338.329
 11
-162.489
 21
338.551
  0
LINE
  8
0
 10
-162.489
 20
338.551
 11
-162.011
 21
338.551
  0
LINE
  8
0
 10
-162.011
 20
338.551
 11
-161.587
 21
338.329
  0
LINE
  8
0
 10
-161.587
 20
338.329
 11
-161.315
 21
337.935
  0
LINE
  8
0
 10
-161.315
 20
337.935
 11
-161.257
 21
337.459
  0
LINE
  8
0
 10
-161.257
 20
337.459
 11
-161.427
 21
337.012
  0
LINE
  8
0
 10
-161.427
 20
337.012
 11
-161.785
 21
336.695
  0
LINE
  8
0
 10
-161.785
 20
336.695
 11
-162.25
 21
336.58
  0
LINE
  8
0
 10
-162.25
 20
336.58
 11
-162.715
 21
336.695
  0
LINE
  8
0
 10
-230.105
 20
167.565
 11
-230.499
 21
167.837
  0
LINE
  8
0
 10
-230.499
 20
167.837
 11
-230.721
 21
168.261
  0
LINE
  8
0
 10
-230.721
 20
168.261
 11
-230.721
 21
168.739
  0
LINE
  8
0
 10
-230.721
 20
168.739
 11
-230.499
 21
169.163
  0
LINE
  8
0
 10
-230.499
 20
169.163
 11
-230.105
 21
169.435
  0
LINE
  8
0
 10
-230.105
 20
169.435
 11
-229.629
 21
169.493
  0
LINE
  8
0
 10
-229.629
 20
169.493
 11
-229.182
 21
169.323
  0
LINE
  8
0
 10
-229.182
 20
169.323
 11
-228.865
 21
168.965
  0
LINE
  8
0
 10
-228.865
 20
168.965
 11
-228.75
 21
168.5
  0
LINE
  8
0
 10
-228.75
 20
168.5
 11
-228.865
 21
168.035
  0
LINE
  8
0
 10
-228.865
 20
168.035
 11
-229.182
 21
167.677
  0
LINE
  8
0
 10
-229.182
 20
167.677
 11
-229.629
 21
167.507
  0
LINE
  8
0
 10
-229.629
 20
167.507
 11
-230.105
 21
167.565
  0
LINE
  8
0
 10
-230.105
 20
126.165
 11
-230.499
 21
126.437
  0
LINE
  8
0
 10
-230.499
 20
126.437
 11
-230.721
 21
126.861
  0
LINE
  8
0
 10
-230.721
 20
126.861
 11
-230.721
 21
127.339
  0
LINE
  8
0
 10
-230.721
 20
127.339
 11
-230.499
 21
127.763
  0
LINE
  8
0
 10
-230.499
 20
127.763
 11
-230.105
 21
128.035
  0
LINE
  8
0
 10
-230.105
 20
128.035
 11
-229.629
 21
128.093
  0
LINE
  8
0
 10
-229.629
 20
128.093
 11
-229.182
 21
127.923
  0
LINE
  8
0
 10
-229.182
 20
127.923
 11
-228.865
 21
127.565
  0
LINE
  8
0
 10
-228.865
 20
127.565
 11
-228.75
 21
127.1
  0
LINE
  8
0
 10
-228.75
 20
127.1
 11
-228.865
 21
126.635
  0
LINE
  8
0
 10
-228.865
 20
126.635
 11
-229.182
 21
126.277
  0
LINE
  8
0
 10
-229.182
 20
126.277
 11
-229.629
 21
126.107
  0
LINE
  8
0
 10
-229.629
 20
126.107
 11
-230.105
 21
126.165
  0
LINE
  8
0
 10
-203.991
 20
71.0146
 11
-204.459
 21
71.13
  0
LINE
  8
0
 10
-204.459
 20
71.13
 11
-204.886
 21
71.354
  0
LINE
  8
0
 10
-204.886
 20
71.354
 11
-205.247
 21
71.6738
  0
LINE
  8
0
 10
-205.247
 20
71.6738
 11
-205.521
 21
72.0705
  0
LINE
  8
0
 10
-205.521
 20
72.0705
 11
-205.692
 21
72.5214
  0
LINE
  8
0
 10
-205.692
 20
72.5214
 11
-205.75
 21
73
  0
LINE
  8
0
 10
-205.75
 20
73
 11
-205.692
 21
73.4786
  0
LINE
  8
0
 10
-205.692
 20
73.4786
 11
-205.521
 21
73.9294
  0
LINE
  8
0
 10
-205.521
 20
73.9294
 11
-205.247
 21
74.3262
  0
LINE
  8
0
 10
-205.247
 20
74.3262
 11
-204.886
 21
74.646
  0
LINE
  8
0
 10
-204.886
 20
74.646
 11
-204.459
 21
74.87
  0
LINE
  8
0
 10
-204.459
 20
74.87
 11
-203.991
 21
74.9854
  0
LINE
  8
0
 10
-203.991
 20
74.9854
 11
-203.509
 21
74.9854
  0
LINE
  8
0
 10
-203.509
 20
74.9854
 11
-203.041
 21
74.87
  0
LINE
  8
0
 10
-203.041
 20
74.87
 11
-202.614
 21
74.646
  0
LINE
  8
0
 10
-202.614
 20
74.646
 11
-202.253
 21
74.3262
  0
LINE
  8
0
 10
-202.253
 20
74.3262
 11
-201.979
 21
73.9294
  0
LINE
  8
0
 10
-201.979
 20
73.9294
 11
-201.808
 21
73.4786
  0
LINE
  8
0
 10
-201.808
 20
73.4786
 11
-201.75
 21
73
  0
LINE
  8
0
 10
-201.75
 20
73
 11
-201.808
 21
72.5214
  0
LINE
  8
0
 10
-201.808
 20
72.5214
 11
-201.979
 21
72.0705
  0
LINE
  8
0
 10
-201.979
 20
72.0705
 11
-202.253
 21
71.6738
  0
LINE
  8
0
 10
-202.253
 20
71.6738
 11
-202.614
 21
71.354
  0
LINE
  8
0
 10
-202.614
 20
71.354
 11
-203.041
 21
71.13
  0
LINE
  8
0
 10
-203.041
 20
71.13
 11
-203.509
 21
71.0146
  0
LINE
  8
0
 10
-203.509
 20
71.0146
 11
-203.991
 21
71.0146
  0
LINE
  8
0
 10
175.895
 20
60.065
 11
175.501
 21
60.3369
  0
LINE
  8
0
 10
175.501
 20
60.3369
 11
175.279
 21
60.7607
  0
LINE
  8
0
 10
175.279
 20
60.7607
 11
175.279
 21
61.2393
  0
LINE
  8
0
 10
175.279
 20
61.2393
 11
175.501
 21
61.6631
  0
LINE
  8
0
 10
175.501
 20
61.6631
 11
175.895
 21
61.935
  0
LINE
  8
0
 10
175.895
 20
61.935
 11
176.371
 21
61.9927
  0
LINE
  8
0
 10
176.371
 20
61.9927
 11
176.818
 21
61.823
  0
LINE
  8
0
 10
176.818
 20
61.823
 11
177.135
 21
61.4647
  0
LINE
  8
0
 10
177.135
 20
61.4647
 11
177.25
 21
61
  0
LINE
  8
0
 10
177.25
 20
61
 11
177.135
 21
60.5353
  0
LINE
  8
0
 10
177.135
 20
60.5353
 11
176.818
 21
60.177
  0
LINE
  8
0
 10
176.818
 20
60.177
 11
176.371
 21
60.0073
  0
LINE
  8
0
 10
176.371
 20
60.0073
 11
175.895
 21
60.065
  0
LINE
  8
0
 10
143.895
 20
60.065
 11
143.501
 21
60.3369
  0
LINE
  8
0
 10
143.501
 20
60.3369
 11
143.279
 21
60.7607
  0
LINE
  8
0
 10
143.279
 20
60.7607
 11
143.279
 21
61.2393
  0
LINE
  8
0
 10
143.279
 20
61.2393
 11
143.501
 21
61.6631
  0
LINE
  8
0
 10
143.501
 20
61.6631
 11
143.895
 21
61.935
  0
LINE
  8
0
 10
143.895
 20
61.935
 11
144.371
 21
61.9927
  0
LINE
  8
0
 10
144.371
 20
61.9927
 11
144.818
 21
61.823
  0
LINE
  8
0
 10
144.818
 20
61.823
 11
145.135
 21
61.4647
  0
LINE
  8
0
 10
145.135
 20
61.4647
 11
145.25
 21
61
  0
LINE
  8
0
 10
145.25
 20
61
 11
145.135
 21
60.5353
  0
LINE
  8
0
 10
145.135
 20
60.5353
 11
144.818
 21
60.177
  0
LINE
  8
0
 10
144.818
 20
60.177
 11
144.371
 21
60.0073
  0
LINE
  8
0
 10
144.371
 20
60.0073
 11
143.895
 21
60.065
  0
LINE
  8
0
 10
-221.105
 20
60.065
 11
-221.499
 21
60.3369
  0
LINE
  8
0
 10
-221.499
 20
60.3369
 11
-221.721
 21
60.7607
  0
LINE
  8
0
 10
-221.721
 20
60.7607
 11
-221.721
 21
61.2393
  0
LINE
  8
0
 10
-221.721
 20
61.2393
 11
-221.499
 21
61.6631
  0
LINE
  8
0
 10
-221.499
 20
61.6631
 11
-221.105
 21
61.935
  0
LINE
  8
0
 10
-221.105
 20
61.935
 11
-220.629
 21
61.9927
  0
LINE
  8
0
 10
-220.629
 20
61.9927
 11
-220.182
 21
61.823
  0
LINE
  8
0
 10
-220.182
 20
61.823
 11
-219.865
 21
61.4647
  0
LINE
  8
0
 10
-219.865
 20
61.4647
 11
-219.75
 21
61
  0
LINE
  8
0
 10
-219.75
 20
61
 11
-219.865
 21
60.5353
  0
LINE
  8
0
 10
-219.865
 20
60.5353
 11
-220.182
 21
60.177
  0
LINE
  8
0
 10
-220.182
 20
60.177
 11
-220.629
 21
60.0073
  0
LINE
  8
0
 10
-220.629
 20
60.0073
 11
-221.105
 21
60.065
  0
LINE
  8
0
 10
-189.105
 20
60.065
 11
-189.499
 21
60.3369
  0
LINE
  8
0
 10
-189.499
 20
60.3369
 11
-189.721
 21
60.7607
  0
LINE
  8
0
 10
-189.721
 20
60.7607
 11
-189.721
 21
61.2393
  0
LINE
  8
0
 10
-189.721
 20
61.2393
 11
-189.499
 21
61.6631
  0
LINE
  8
0
 10
-189.499
 20
61.6631
 11
-189.105
 21
61.935
  0
LINE
  8
0
 10
-189.105
 20
61.935
 11
-188.629
 21
61.9927
  0
LINE
  8
0
 10
-188.629
 20
61.9927
 11
-188.182
 21
61.823
  0
LINE
  8
0
 10
-188.182
 20
61.823
 11
-187.865
 21
61.4647
  0
LINE
  8
0
 10
-187.865
 20
61.4647
 11
-187.75
 21
61
  0
LINE
  8
0
 10
-187.75
 20
61
 11
-187.865
 21
60.5353
  0
LINE
  8
0
 10
-187.865
 20
60.5353
 11
-188.182
 21
60.177
  0
LINE
  8
0
 10
-188.182
 20
60.177
 11
-188.629
 21
60.0073
  0
LINE
  8
0
 10
-188.629
 20
60.0073
 11
-189.105
 21
60.065
  0
LINE
  8
0
 10
-163.289
 20
35.539
 11
-163.713
 21
35.7615
  0
LINE
  8
0
 10
-163.713
 20
35.7615
 11
-163.985
 21
36.1554
  0
LINE
  8
0
 10
-163.985
 20
36.1554
 11
-164.043
 21
36.6305
  0
LINE
  8
0
 10
-164.043
 20
36.6305
 11
-163.873
 21
37.0781
  0
LINE
  8
0
 10
-163.873
 20
37.0781
 11
-163.515
 21
37.3954
  0
LINE
  8
0
 10
-163.515
 20
37.3954
 11
-163.05
 21
37.51
  0
LINE
  8
0
 10
-163.05
 20
37.51
 11
-162.585
 21
37.3954
  0
LINE
  8
0
 10
-162.585
 20
37.3954
 11
-162.227
 21
37.0781
  0
LINE
  8
0
 10
-162.227
 20
37.0781
 11
-162.057
 21
36.6305
  0
LINE
  8
0
 10
-162.057
 20
36.6305
 11
-162.115
 21
36.1554
  0
LINE
  8
0
 10
-162.115
 20
36.1554
 11
-162.387
 21
35.7615
  0
LINE
  8
0
 10
-162.387
 20
35.7615
 11
-162.811
 21
35.539
  0
LINE
  8
0
 10
-162.811
 20
35.539
 11
-163.289
 21
35.539
  0
LINE
  8
0
 10
127.985
 20
35.6245
 11
127.627
 21
35.9419
  0
LINE
  8
0
 10
127.627
 20
35.9419
 11
127.457
 21
36.3895
  0
LINE
  8
0
 10
127.457
 20
36.3895
 11
127.515
 21
36.8646
  0
LINE
  8
0
 10
127.515
 20
36.8646
 11
127.787
 21
37.2585
  0
LINE
  8
0
 10
127.787
 20
37.2585
 11
128.211
 21
37.4809
  0
LINE
  8
0
 10
128.211
 20
37.4809
 11
128.689
 21
37.4809
  0
LINE
  8
0
 10
128.689
 20
37.4809
 11
129.113
 21
37.2585
  0
LINE
  8
0
 10
129.113
 20
37.2585
 11
129.385
 21
36.8646
  0
LINE
  8
0
 10
129.385
 20
36.8646
 11
129.443
 21
36.3895
  0
LINE
  8
0
 10
129.443
 20
36.3895
 11
129.273
 21
35.9419
  0
LINE
  8
0
 10
129.273
 20
35.9419
 11
128.915
 21
35.6245
  0
LINE
  8
0
 10
128.915
 20
35.6245
 11
128.45
 21
35.51
  0
LINE
  8
0
 10
128.45
 20
35.51
 11
127.985
 21
35.6245
  0
LINE
  8
0
 10
160.482
 20
18.448
 11
160.013
 21
18.5903
  0
LINE
  8
0
 10
160.013
 20
18.5903
 11
159.581
 21
18.8213
  0
LINE
  8
0
 10
159.581
 20
18.8213
 11
159.202
 21
19.1322
  0
LINE
  8
0
 10
159.202
 20
19.1322
 11
158.891
 21
19.5111
  0
LINE
  8
0
 10
158.891
 20
19.5111
 11
158.66
 21
19.9433
  0
LINE
  8
0
 10
158.66
 20
19.9433
 11
158.518
 21
20.4123
  0
LINE
  8
0
 10
158.518
 20
20.4123
 11
158.47
 21
20.9
  0
LINE
  8
0
 10
158.47
 20
20.9
 11
158.518
 21
21.3877
  0
LINE
  8
0
 10
158.518
 20
21.3877
 11
158.66
 21
21.8567
  0
LINE
  8
0
 10
158.66
 20
21.8567
 11
158.891
 21
22.2889
  0
LINE
  8
0
 10
158.891
 20
22.2889
 11
159.202
 21
22.6678
  0
LINE
  8
0
 10
159.202
 20
22.6678
 11
159.581
 21
22.9787
  0
LINE
  8
0
 10
159.581
 20
22.9787
 11
160.013
 21
23.2097
  0
LINE
  8
0
 10
160.013
 20
23.2097
 11
160.482
 21
23.352
  0
LINE
  8
0
 10
160.482
 20
23.352
 11
160.97
 21
23.4
  0
LINE
  8
0
 10
160.97
 20
23.4
 11
161.458
 21
23.352
  0
LINE
  8
0
 10
161.458
 20
23.352
 11
161.927
 21
23.2097
  0
LINE
  8
0
 10
161.927
 20
23.2097
 11
162.359
 21
22.9787
  0
LINE
  8
0
 10
162.359
 20
22.9787
 11
162.738
 21
22.6678
  0
LINE
  8
0
 10
162.738
 20
22.6678
 11
163.049
 21
22.2889
  0
LINE
  8
0
 10
163.049
 20
22.2889
 11
163.28
 21
21.8567
  0
LINE
  8
0
 10
163.28
 20
21.8567
 11
163.422
 21
21.3877
  0
LINE
  8
0
 10
163.422
 20
21.3877
 11
163.47
 21
20.9
  0
LINE
  8
0
 10
163.47
 20
20.9
 11
163.422
 21
20.4123
  0
LINE
  8
0
 10
163.422
 20
20.4123
 11
163.28
 21
19.9433
  0
LINE
  8
0
 10
163.28
 20
19.9433
 11
163.049
 21
19.5111
  0
LINE
  8
0
 10
163.049
 20
19.5111
 11
162.738
 21
19.1322
  0
LINE
  8
0
 10
162.738
 20
19.1322
 11
162.359
 21
18.8213
  0
LINE
  8
0
 10
162.359
 20
18.8213
 11
161.927
 21
18.5903
  0
LINE
  8
0
 10
161.927
 20
18.5903
 11
161.458
 21
18.448
  0
LINE
  8
0
 10
161.458
 20
18.448
 11
160.97
 21
18.4
  0
LINE
  8
0
 10
160.97
 20
18.4
 11
160.482
 21
18.448
  0
LINE
  8
0
 10
-194.53
 20
4.99998
 11
-195.018
 21
5.04803
  0
LINE
  8
0
 10
-195.018
 20
5.04803
 11
-195.487
 21
5.19029
  0
LINE
  8
0
 10
-195.487
 20
5.19029
 11
-195.919
 21
5.42133
  0
LINE
  8
0
 10
-195.919
 20
5.42133
 11
-196.298
 21
5.73222
  0
LINE
  8
0
 10
-196.298
 20
5.73222
 11
-196.609
 21
6.11107
  0
LINE
  8
0
 10
-196.609
 20
6.11107
 11
-196.84
 21
6.54329
  0
LINE
  8
0
 10
-196.84
 20
6.54329
 11
-196.982
 21
7.01227
  0
LINE
  8
0
 10
-196.982
 20
7.01227
 11
-197.03
 21
7.49998
  0
LINE
  8
0
 10
-197.03
 20
7.49998
 11
-196.982
 21
7.98772
  0
LINE
  8
0
 10
-196.982
 20
7.98772
 11
-196.84
 21
8.4567
  0
LINE
  8
0
 10
-196.84
 20
8.4567
 11
-196.609
 21
8.88892
  0
LINE
  8
0
 10
-196.609
 20
8.88892
 11
-196.298
 21
9.26776
  0
LINE
  8
0
 10
-196.298
 20
9.26776
 11
-195.919
 21
9.57866
  0
LINE
  8
0
 10
-195.919
 20
9.57866
 11
-195.487
 21
9.80969
  0
LINE
  8
0
 10
-195.487
 20
9.80969
 11
-195.018
 21
9.95195
  0
LINE
  8
0
 10
-195.018
 20
9.95195
 11
-194.53
 21
9.99998
  0
LINE
  8
0
 10
-194.53
 20
9.99998
 11
-194.042
 21
9.95195
  0
LINE
  8
0
 10
-194.042
 20
9.95195
 11
-193.573
 21
9.80969
  0
LINE
  8
0
 10
-193.573
 20
9.80969
 11
-193.141
 21
9.57866
  0
LINE
  8
0
 10
-193.141
 20
9.57866
 11
-192.762
 21
9.26776
  0
LINE
  8
0
 10
-192.762
 20
9.26776
 11
-192.451
 21
8.88892
  0
LINE
  8
0
 10
-192.451
 20
8.88892
 11
-192.22
 21
8.4567
  0
LINE
  8
0
 10
-192.22
 20
8.4567
 11
-192.078
 21
7.98772
  0
LINE
  8
0
 10
-192.078
 20
7.98772
 11
-192.03
 21
7.49998
  0
LINE
  8
0
 10
-192.03
 20
7.49998
 11
-192.078
 21
7.01227
  0
LINE
  8
0
 10
-192.078
 20
7.01227
 11
-192.22
 21
6.54329
  0
LINE
  8
0
 10
-192.22
 20
6.54329
 11
-192.451
 21
6.11107
  0
LINE
  8
0
 10
-192.451
 20
6.11107
 11
-192.762
 21
5.73222
  0
LINE
  8
0
 10
-192.762
 20
5.73222
 11
-193.141
 21
5.42133
  0
LINE
  8
0
 10
-193.141
 20
5.42133
 11
-193.573
 21
5.19029
  0
LINE
  8
0
 10
-193.573
 20
5.19029
 11
-194.042
 21
5.04803
  0
LINE
  8
0
 10
-194.042
 20
5.04803
 11
-194.53
 21
4.99998
  0
LINE
  8
0
 10
226.982
 20
7.37701
 11
226.665
 21
7.73528
  0
LINE
  8
0
 10
226.665
 20
7.73528
 11
226.55
 21
8.2
  0
LINE
  8
0
 10
226.55
 20
8.2
 11
226.665
 21
8.66472
  0
LINE
  8
0
 10
226.665
 20
8.66472
 11
226.982
 21
9.02298
  0
LINE
  8
0
 10
226.982
 20
9.02298
 11
227.429
 21
9.1927
  0
LINE
  8
0
 10
227.429
 20
9.1927
 11
227.905
 21
9.13501
  0
LINE
  8
0
 10
227.905
 20
9.13501
 11
228.299
 21
8.86311
  0
LINE
  8
0
 10
228.299
 20
8.86311
 11
228.521
 21
8.4393
  0
LINE
  8
0
 10
228.521
 20
8.4393
 11
228.521
 21
7.96068
  0
LINE
  8
0
 10
228.521
 20
7.96068
 11
228.299
 21
7.53687
  0
LINE
  8
0
 10
228.299
 20
7.53687
 11
227.905
 21
7.26497
  0
LINE
  8
0
 10
227.905
 20
7.26497
 11
227.429
 21
7.20729
  0
LINE
  8
0
 10
227.429
 20
7.20729
 11
226.982
 21
7.37701
  0
LINE
  8
0
 10
-141.518
 20
7.37701
 11
-141.835
 21
7.73528
  0
LINE
  8
0
 10
-141.835
 20
7.73528
 11
-141.95
 21
8.2
  0
LINE
  8
0
 10
-141.95
 20
8.2
 11
-141.835
 21
8.66472
  0
LINE
  8
0
 10
-141.835
 20
8.66472
 11
-141.518
 21
9.02298
  0
LINE
  8
0
 10
-141.518
 20
9.02298
 11
-141.071
 21
9.1927
  0
LINE
  8
0
 10
-141.071
 20
9.1927
 11
-140.595
 21
9.13501
  0
LINE
  8
0
 10
-140.595
 20
9.13501
 11
-140.201
 21
8.86311
  0
LINE
  8
0
 10
-140.201
 20
8.86311
 11
-139.979
 21
8.4393
  0
LINE
  8
0
 10
-139.979
 20
8.4393
 11
-139.979
 21
7.96068
  0
LINE
  8
0
 10
-139.979
 20
7.96068
 11
-140.201
 21
7.53687
  0
LINE
  8
0
 10
-140.201
 20
7.53687
 11
-140.595
 21
7.26497
  0
LINE
  8
0
 10
-140.595
 20
7.26497
 11
-141.071
 21
7.20729
  0
LINE
  8
0
 10
-141.071
 20
7.20729
 11
-141.518
 21
7.37701
  0
LINE
  8
0
 10
206.162
 20
7.37701
 11
205.845
 21
7.73528
  0
LINE
  8
0
 10
205.845
 20
7.73528
 11
205.73
 21
8.2
  0
LINE
  8
0
 10
205.73
 20
8.2
 11
205.845
 21
8.66472
  0
LINE
  8
0
 10
205.845
 20
8.66472
 11
206.162
 21
9.02298
  0
LINE
  8
0
 10
206.162
 20
9.02298
 11
206.609
 21
9.1927
  0
LINE
  8
0
 10
206.609
 20
9.1927
 11
207.085
 21
9.13501
  0
LINE
  8
0
 10
207.085
 20
9.13501
 11
207.479
 21
8.86311
  0
LINE
  8
0
 10
207.479
 20
8.86311
 11
207.701
 21
8.4393
  0
LINE
  8
0
 10
207.701
 20
8.4393
 11
207.701
 21
7.96068
  0
LINE
  8
0
 10
207.701
 20
7.96068
 11
207.479
 21
7.53687
  0
LINE
  8
0
 10
207.479
 20
7.53687
 11
207.085
 21
7.26497
  0
LINE
  8
0
 10
207.085
 20
7.26497
 11
206.609
 21
7.20729
  0
LINE
  8
0
 10
206.609
 20
7.20729
 11
206.162
 21
7.37701
  0
LINE
  8
0
 10
178.602
 20
7.37701
 11
178.285
 21
7.73528
  0
LINE
  8
0
 10
178.285
 20
7.73528
 11
178.17
 21
8.2
  0
LINE
  8
0
 10
178.17
 20
8.2
 11
178.285
 21
8.66472
  0
LINE
  8
0
 10
178.285
 20
8.66472
 11
178.602
 21
9.02298
  0
LINE
  8
0
 10
178.602
 20
9.02298
 11
179.049
 21
9.1927
  0
LINE
  8
0
 10
179.049
 20
9.1927
 11
179.525
 21
9.13501
  0
LINE
  8
0
 10
179.525
 20
9.13501
 11
179.919
 21
8.86311
  0
LINE
  8
0
 10
179.919
 20
8.86311
 11
180.141
 21
8.4393
  0
LINE
  8
0
 10
180.141
 20
8.4393
 11
180.141
 21
7.96068
  0
LINE
  8
0
 10
180.141
 20
7.96068
 11
179.919
 21
7.53687
  0
LINE
  8
0
 10
179.919
 20
7.53687
 11
179.525
 21
7.26497
  0
LINE
  8
0
 10
179.525
 20
7.26497
 11
179.049
 21
7.20729
  0
LINE
  8
0
 10
179.049
 20
7.20729
 11
178.602
 21
7.37701
  0
LINE
  8
0
 10
157.782
 20
7.37701
 11
157.465
 21
7.73528
  0
LINE
  8
0
 10
157.465
 20
7.73528
 11
157.35
 21
8.2
  0
LINE
  8
0
 10
157.35
 20
8.2
 11
157.465
 21
8.66472
  0
LINE
  8
0
 10
157.465
 20
8.66472
 11
157.782
 21
9.02298
  0
LINE
  8
0
 10
157.782
 20
9.02298
 11
158.229
 21
9.1927
  0
LINE
  8
0
 10
158.229
 20
9.1927
 11
158.705
 21
9.13501
  0
LINE
  8
0
 10
158.705
 20
9.13501
 11
159.099
 21
8.86311
  0
LINE
  8
0
 10
159.099
 20
8.86311
 11
159.321
 21
8.4393
  0
LINE
  8
0
 10
159.321
 20
8.4393
 11
159.321
 21
7.96068
  0
LINE
  8
0
 10
159.321
 20
7.96068
 11
159.099
 21
7.53687
  0
LINE
  8
0
 10
159.099
 20
7.53687
 11
158.705
 21
7.26497
  0
LINE
  8
0
 10
158.705
 20
7.26497
 11
158.229
 21
7.20729
  0
LINE
  8
0
 10
158.229
 20
7.20729
 11
157.782
 21
7.37701
  0
LINE
  8
0
 10
-228.118
 20
7.37701
 11
-228.435
 21
7.73528
  0
LINE
  8
0
 10
-228.435
 20
7.73528
 11
-228.55
 21
8.2
  0
LINE
  8
0
 10
-228.55
 20
8.2
 11
-228.435
 21
8.66472
  0
LINE
  8
0
 10
-228.435
 20
8.66472
 11
-228.118
 21
9.02298
  0
LINE
  8
0
 10
-228.118
 20
9.02298
 11
-227.671
 21
9.1927
  0
LINE
  8
0
 10
-227.671
 20
9.1927
 11
-227.195
 21
9.13501
  0
LINE
  8
0
 10
-227.195
 20
9.13501
 11
-226.801
 21
8.86311
  0
LINE
  8
0
 10
-226.801
 20
8.86311
 11
-226.579
 21
8.4393
  0
LINE
  8
0
 10
-226.579
 20
8.4393
 11
-226.579
 21
7.96068
  0
LINE
  8
0
 10
-226.579
 20
7.96068
 11
-226.801
 21
7.53687
  0
LINE
  8
0
 10
-226.801
 20
7.53687
 11
-227.195
 21
7.26497
  0
LINE
  8
0
 10
-227.195
 20
7.26497
 11
-227.671
 21
7.20729
  0
LINE
  8
0
 10
-227.671
 20
7.20729
 11
-228.118
 21
7.37701
  0
LINE
  8
0
 10
-207.298
 20
7.37701
 11
-207.615
 21
7.73528
  0
LINE
  8
0
 10
-207.615
 20
7.73528
 11
-207.73
 21
8.2
  0
LINE
  8
0
 10
-207.73
 20
8.2
 11
-207.615
 21
8.66472
  0
LINE
  8
0
 10
-207.615
 20
8.66472
 11
-207.298
 21
9.02298
  0
LINE
  8
0
 10
-207.298
 20
9.02298
 11
-206.851
 21
9.1927
  0
LINE
  8
0
 10
-206.851
 20
9.1927
 11
-206.375
 21
9.13501
  0
LINE
  8
0
 10
-206.375
 20
9.13501
 11
-205.981
 21
8.86311
  0
LINE
  8
0
 10
-205.981
 20
8.86311
 11
-205.759
 21
8.4393
  0
LINE
  8
0
 10
-205.759
 20
8.4393
 11
-205.759
 21
7.96068
  0
LINE
  8
0
 10
-205.759
 20
7.96068
 11
-205.981
 21
7.53687
  0
LINE
  8
0
 10
-205.981
 20
7.53687
 11
-206.375
 21
7.26497
  0
LINE
  8
0
 10
-206.375
 20
7.26497
 11
-206.851
 21
7.20729
  0
LINE
  8
0
 10
-206.851
 20
7.20729
 11
-207.298
 21
7.37701
  0
LINE
  8
0
 10
-162.338
 20
7.37701
 11
-162.655
 21
7.73528
  0
LINE
  8
0
 10
-162.655
 20
7.73528
 11
-162.77
 21
8.2
  0
LINE
  8
0
 10
-162.77
 20
8.2
 11
-162.655
 21
8.66472
  0
LINE
  8
0
 10
-162.655
 20
8.66472
 11
-162.338
 21
9.02298
  0
LINE
  8
0
 10
-162.338
 20
9.02298
 11
-161.891
 21
9.1927
  0
LINE
  8
0
 10
-161.891
 20
9.1927
 11
-161.415
 21
9.13501
  0
LINE
  8
0
 10
-161.415
 20
9.13501
 11
-161.021
 21
8.86311
  0
LINE
  8
0
 10
-161.021
 20
8.86311
 11
-160.799
 21
8.4393
  0
LINE
  8
0
 10
-160.799
 20
8.4393
 11
-160.799
 21
7.96068
  0
LINE
  8
0
 10
-160.799
 20
7.96068
 11
-161.021
 21
7.53687
  0
LINE
  8
0
 10
-161.021
 20
7.53687
 11
-161.415
 21
7.26497
  0
LINE
  8
0
 10
-161.415
 20
7.26497
 11
-161.891
 21
7.20729
  0
LINE
  8
0
 10
-161.891
 20
7.20729
 11
-162.338
 21
7.37701
  0
LINE
  8
0
 10
98.9977
 20
0.0102386
 11
99.4865
 21
0.0917969
  0
LINE
  8
0
 10
99.4865
 20
0.0917969
 11
99.9551
 21
0.25267
  0
LINE
  8
0
 10
99.9551
 20
0.25267
 11
100.391
 21
0.488495
  0
LINE
  8
0
 10
100.391
 20
0.488495
 11
100.782
 21
0.792816
  0
LINE
  8
0
 10
100.782
 20
0.792816
 11
101.117
 21
1.15735
  0
LINE
  8
0
 10
101.117
 20
1.15735
 11
101.388
 21
1.57214
  0
LINE
  8
0
 10
101.388
 20
1.57214
 11
101.587
 21
2.02589
  0
LINE
  8
0
 10
101.587
 20
2.02589
 11
101.709
 21
2.50621
  0
LINE
  8
0
 10
101.709
 20
2.50621
 11
101.75
 21
3
  0
LINE
  8
0
 10
101.75
 20
3
 11
101.74
 21
214.248
  0
LINE
  8
0
 10
101.74
 20
214.248
 11
101.658
 21
214.736
  0
LINE
  8
0
 10
101.658
 20
214.736
 11
101.497
 21
215.205
  0
LINE
  8
0
 10
101.497
 20
215.205
 11
101.261
 21
215.641
  0
LINE
  8
0
 10
101.261
 20
215.641
 11
100.957
 21
216.032
  0
LINE
  8
0
 10
100.957
 20
216.032
 11
100.593
 21
216.367
  0
LINE
  8
0
 10
100.593
 20
216.367
 11
100.178
 21
216.638
  0
LINE
  8
0
 10
100.178
 20
216.638
 11
99.7241
 21
216.837
  0
LINE
  8
0
 10
99.7241
 20
216.837
 11
99.2438
 21
216.959
  0
LINE
  8
0
 10
99.2438
 20
216.959
 11
98.75
 21
217
  0
LINE
  8
0
 10
98.75
 20
217
 11
11.76
 21
216.996
  0
LINE
  8
0
 10
11.76
 20
216.996
 11
11.76
 21
212.3
  0
LINE
  8
0
 10
11.76
 20
212.3
 11
-25.26
 21
212.3
  0
LINE
  8
0
 10
-25.26
 20
212.3
 11
-25.26
 21
216.994
  0
LINE
  8
0
 10
-25.26
 20
216.994
 11
-112.498
 21
216.99
  0
LINE
  8
0
 10
-112.498
 20
216.99
 11
-112.986
 21
216.908
  0
LINE
  8
0
 10
-112.986
 20
216.908
 11
-113.455
 21
216.747
  0
LINE
  8
0
 10
-113.455
 20
216.747
 11
-113.891
 21
216.511
  0
LINE
  8
0
 10
-113.891
 20
216.511
 11
-114.282
 21
216.207
  0
LINE
  8
0
 10
-114.282
 20
216.207
 11
-114.617
 21
215.843
  0
LINE
  8
0
 10
-114.617
 20
215.843
 11
-114.888
 21
215.428
  0
LINE
  8
0
 10
-114.888
 20
215.428
 11
-115.087
 21
214.974
  0
LINE
  8
0
 10
-115.087
 20
214.974
 11
-115.209
 21
214.494
  0
LINE
  8
0
 10
-115.209
 20
214.494
 11
-115.25
 21
214
  0
LINE
  8
0
 10
-115.25
 20
214
 11
-115.24
 21
2.75226
  0
LINE
  8
0
 10
-115.24
 20
2.75226
 11
-115.158
 21
2.26353
  0
LINE
  8
0
 10
-115.158
 20
2.26353
 11
-114.997
 21
1.79491
  0
LINE
  8
0
 10
-114.997
 20
1.79491
 11
-114.761
 21
1.35915
  0
LINE
  8
0
 10
-114.761
 20
1.35915
 11
-114.457
 21
0.968155
  0
LINE
  8
0
 10
-114.457
 20
0.968155
 11
-114.093
 21
0.632568
  0
LINE
  8
0
 10
-114.093
 20
0.632568
 11
-113.678
 21
0.361572
  0
LINE
  8
0
 10
-113.678
 20
0.361572
 11
-113.224
 21
0.162537
  0
LINE
  8
0
 10
-113.224
 20
0.162537
 11
-112.744
 21
0.0409088
  0
LINE
  8
0
 10
-112.744
 20
0.0409088
 11
-112.25
 21
0
  0
LINE
  8
0
 10
-112.25
 20
0
 11
98.9977
 21
0.0102386
  0
LINE
  8
0
 10
97.2716
 20
211.845
 11
96.8661
 21
212.116
  0
LINE
  8
0
 10
96.8661
 20
212.116
 11
96.5951
 21
212.522
  0
LINE
  8
0
 10
96.5951
 20
212.522
 11
96.5
 21
213
  0
LINE
  8
0
 10
96.5
 20
213
 11
96.5951
 21
213.478
  0
LINE
  8
0
 10
96.5951
 20
213.478
 11
96.8661
 21
213.884
  0
LINE
  8
0
 10
96.8661
 20
213.884
 11
97.2716
 21
214.155
  0
LINE
  8
0
 10
97.2716
 20
214.155
 11
97.75
 21
214.25
  0
LINE
  8
0
 10
97.75
 20
214.25
 11
98.2283
 21
214.155
  0
LINE
  8
0
 10
98.2283
 20
214.155
 11
98.6339
 21
213.884
  0
LINE
  8
0
 10
98.6339
 20
213.884
 11
98.9048
 21
213.478
  0
LINE
  8
0
 10
98.9048
 20
213.478
 11
99
 21
213
  0
LINE
  8
0
 10
99
 20
213
 11
98.9048
 21
212.522
  0
LINE
  8
0
 10
98.9048
 20
212.522
 11
98.6339
 21
212.116
  0
LINE
  8
0
 10
98.6339
 20
212.116
 11
98.2283
 21
211.845
  0
LINE
  8
0
 10
98.2283
 20
211.845
 11
97.75
 21
211.75
  0
LINE
  8
0
 10
97.75
 20
211.75
 11
97.2716
 21
211.845
  0
LINE
  8
0
 10
-111.728
 20
211.845
 11
-112.134
 21
212.116
  0
LINE
  8
0
 10
-112.134
 20
212.116
 11
-112.405
 21
212.522
  0
LINE
  8
0
 10
-112.405
 20
212.522
 11
-112.5
 21
213
  0
LINE
  8
0
 10
-112.5
 20
213
 11
-112.405
 21
213.478
  0
LINE
  8
0
 10
-112.405
 20
213.478
 11
-112.134
 21
213.884
  0
LINE
  8
0
 10
-112.134
 20
213.884
 11
-111.728
 21
214.155
  0
LINE
  8
0
 10
-111.728
 20
214.155
 11
-111.25
 21
214.25
  0
LINE
  8
0
 10
-111.25
 20
214.25
 11
-110.772
 21
214.155
  0
LINE
  8
0
 10
-110.772
 20
214.155
 11
-110.366
 21
213.884
  0
LINE
  8
0
 10
-110.366
 20
213.884
 11
-110.095
 21
213.478
  0
LINE
  8
0
 10
-110.095
 20
213.478
 11
-110
 21
213
  0
LINE
  8
0
 10
-110
 20
213
 11
-110.095
 21
212.522
  0
LINE
  8
0
 10
-110.095
 20
212.522
 11
-110.366
 21
212.116
  0
LINE
  8
0
 10
-110.366
 20
212.116
 11
-110.772
 21
211.845
  0
LINE
  8
0
 10
-110.772
 20
211.845
 11
-111.25
 21
211.75
  0
LINE
  8
0
 10
-111.25
 20
211.75
 11
-111.728
 21
211.845
  0
LINE
  8
0
 10
-27.7771
 20
205.991
 11
-28.235
 21
206.171
  0
LINE
  8
0
 10
-28.235
 20
206.171
 11
-28.6195
 21
206.478
  0
LINE
  8
0
 10
-28.6195
 20
206.478
 11
-28.8966
 21
206.884
  0
LINE
  8
0
 10
-28.8966
 20
206.884
 11
-29.0416
 21
207.354
  0
LINE
  8
0
 10
-29.0416
 20
207.354
 11
-29.0416
 21
207.846
  0
LINE
  8
0
 10
-29.0416
 20
207.846
 11
-28.8966
 21
208.316
  0
LINE
  8
0
 10
-28.8966
 20
208.316
 11
-28.6195
 21
208.722
  0
LINE
  8
0
 10
-28.6195
 20
208.722
 11
-28.235
 21
209.029
  0
LINE
  8
0
 10
-28.235
 20
209.029
 11
-27.7771
 21
209.209
  0
LINE
  8
0
 10
-27.7771
 20
209.209
 11
-27.2867
 21
209.245
  0
LINE
  8
0
 10
-27.2867
 20
209.245
 11
-26.8072
 21
209.136
  0
LINE
  8
0
 10
-26.8072
 20
209.136
 11
-26.3812
 21
208.89
  0
LINE
  8
0
 10
-26.3812
 20
208.89
 11
-26.0467
 21
208.529
  0
LINE
  8
0
 10
-26.0467
 20
208.529
 11
-25.8333
 21
208.086
  0
LINE
  8
0
 10
-25.8333
 20
208.086
 11
-25.76
 21
207.6
  0
LINE
  8
0
 10
-25.76
 20
207.6
 11
-25.8333
 21
207.114
  0
LINE
  8
0
 10
-25.8333
 20
207.114
 11
-26.0467
 21
206.671
  0
LINE
  8
0
 10
-26.0467
 20
206.671
 11
-26.3812
 21
206.31
  0
LINE
  8
0
 10
-26.3812
 20
206.31
 11
-26.8072
 21
206.064
  0
LINE
  8
0
 10
-26.8072
 20
206.064
 11
-27.2867
 21
205.955
  0
LINE
  8
0
 10
-27.2867
 20
205.955
 11
-27.7771
 21
205.991
  0
LINE
  8
0
 10
13.5428
 20
205.991
 11
13.085
 21
206.171
  0
LINE
  8
0
 10
13.085
 20
206.171
 11
12.7005
 21
206.478
  0
LINE
  8
0
 10
12.7005
 20
206.478
 11
12.4234
 21
206.884
  0
LINE
  8
0
 10
12.4234
 20
206.884
 11
12.2784
 21
207.354
  0
LINE
  8
0
 10
12.2784
 20
207.354
 11
12.2784
 21
207.846
  0
LINE
  8
0
 10
12.2784
 20
207.846
 11
12.4234
 21
208.316
  0
LINE
  8
0
 10
12.4234
 20
208.316
 11
12.7005
 21
208.722
  0
LINE
  8
0
 10
12.7005
 20
208.722
 11
13.085
 21
209.029
  0
LINE
  8
0
 10
13.085
 20
209.029
 11
13.5428
 21
209.209
  0
LINE
  8
0
 10
13.5428
 20
209.209
 11
14.0333
 21
209.245
  0
LINE
  8
0
 10
14.0333
 20
209.245
 11
14.5128
 21
209.136
  0
LINE
  8
0
 10
14.5128
 20
209.136
 11
14.9388
 21
208.89
  0
LINE
  8
0
 10
14.9388
 20
208.89
 11
15.2733
 21
208.529
  0
LINE
  8
0
 10
15.2733
 20
208.529
 11
15.4867
 21
208.086
  0
LINE
  8
0
 10
15.4867
 20
208.086
 11
15.56
 21
207.6
  0
LINE
  8
0
 10
15.56
 20
207.6
 11
15.4867
 21
207.114
  0
LINE
  8
0
 10
15.4867
 20
207.114
 11
15.2733
 21
206.671
  0
LINE
  8
0
 10
15.2733
 20
206.671
 11
14.9388
 21
206.31
  0
LINE
  8
0
 10
14.9388
 20
206.31
 11
14.5128
 21
206.064
  0
LINE
  8
0
 10
14.5128
 20
206.064
 11
14.0333
 21
205.955
  0
LINE
  8
0
 10
14.0333
 20
205.955
 11
13.5428
 21
205.991
  0
LINE
  8
0
 10
-75.3528
 20
195.964
 11
-75.7787
 21
196.21
  0
LINE
  8
0
 10
-75.7787
 20
196.21
 11
-76.1133
 21
196.571
  0
LINE
  8
0
 10
-76.1133
 20
196.571
 11
-76.3267
 21
197.014
  0
LINE
  8
0
 10
-76.3267
 20
197.014
 11
-76.4
 21
197.5
  0
LINE
  8
0
 10
-76.4
 20
197.5
 11
-76.3267
 21
197.986
  0
LINE
  8
0
 10
-76.3267
 20
197.986
 11
-76.1133
 21
198.429
  0
LINE
  8
0
 10
-76.1133
 20
198.429
 11
-75.7787
 21
198.79
  0
LINE
  8
0
 10
-75.7787
 20
198.79
 11
-75.3528
 21
199.036
  0
LINE
  8
0
 10
-75.3528
 20
199.036
 11
-74.8733
 21
199.145
  0
LINE
  8
0
 10
-74.8733
 20
199.145
 11
-74.3828
 21
199.109
  0
LINE
  8
0
 10
-74.3828
 20
199.109
 11
-73.925
 21
198.929
  0
LINE
  8
0
 10
-73.925
 20
198.929
 11
-73.5405
 21
198.622
  0
LINE
  8
0
 10
-73.5405
 20
198.622
 11
-73.2634
 21
198.216
  0
LINE
  8
0
 10
-73.2634
 20
198.216
 11
-73.1184
 21
197.746
  0
LINE
  8
0
 10
-73.1184
 20
197.746
 11
-73.1184
 21
197.254
  0
LINE
  8
0
 10
-73.1184
 20
197.254
 11
-73.2634
 21
196.784
  0
LINE
  8
0
 10
-73.2634
 20
196.784
 11
-73.5405
 21
196.378
  0
LINE
  8
0
 10
-73.5405
 20
196.378
 11
-73.925
 21
196.071
  0
LINE
  8
0
 10
-73.925
 20
196.071
 11
-74.3828
 21
195.891
  0
LINE
  8
0
 10
-74.3828
 20
195.891
 11
-74.8733
 21
195.855
  0
LINE
  8
0
 10
-74.8733
 20
195.855
 11
-75.3528
 21
195.964
  0
LINE
  8
0
 10
-110.353
 20
169.964
 11
-110.779
 21
170.21
  0
LINE
  8
0
 10
-110.779
 20
170.21
 11
-111.113
 21
170.571
  0
LINE
  8
0
 10
-111.113
 20
170.571
 11
-111.327
 21
171.014
  0
LINE
  8
0
 10
-111.327
 20
171.014
 11
-111.4
 21
171.5
  0
LINE
  8
0
 10
-111.4
 20
171.5
 11
-111.327
 21
171.986
  0
LINE
  8
0
 10
-111.327
 20
171.986
 11
-111.113
 21
172.429
  0
LINE
  8
0
 10
-111.113
 20
172.429
 11
-110.779
 21
172.79
  0
LINE
  8
0
 10
-110.779
 20
172.79
 11
-110.353
 21
173.036
  0
LINE
  8
0
 10
-110.353
 20
173.036
 11
-109.873
 21
173.145
  0
LINE
  8
0
 10
-109.873
 20
173.145
 11
-109.383
 21
173.109
  0
LINE
  8
0
 10
-109.383
 20
173.109
 11
-108.925
 21
172.929
  0
LINE
  8
0
 10
-108.925
 20
172.929
 11
-108.54
 21
172.622
  0
LINE
  8
0
 10
-108.54
 20
172.622
 11
-108.263
 21
172.216
  0
LINE
  8
0
 10
-108.263
 20
172.216
 11
-108.118
 21
171.746
  0
LINE
  8
0
 10
-108.118
 20
171.746
 11
-108.118
 21
171.254
  0
LINE
  8
0
 10
-108.118
 20
171.254
 11
-108.263
 21
170.784
  0
LINE
  8
0
 10
-108.263
 20
170.784
 11
-108.54
 21
170.378
  0
LINE
  8
0
 10
-108.54
 20
170.378
 11
-108.925
 21
170.071
  0
LINE
  8
0
 10
-108.925
 20
170.071
 11
-109.383
 21
169.891
  0
LINE
  8
0
 10
-109.383
 20
169.891
 11
-109.873
 21
169.855
  0
LINE
  8
0
 10
-109.873
 20
169.855
 11
-110.353
 21
169.964
  0
LINE
  8
0
 10
-38.6272
 20
157.716
 11
-39.085
 21
157.896
  0
LINE
  8
0
 10
-39.085
 20
157.896
 11
-39.4695
 21
158.202
  0
LINE
  8
0
 10
-39.4695
 20
158.202
 11
-39.7466
 21
158.609
  0
LINE
  8
0
 10
-39.7466
 20
158.609
 11
-39.8916
 21
159.079
  0
LINE
  8
0
 10
-39.8916
 20
159.079
 11
-39.8916
 21
159.57
  0
LINE
  8
0
 10
-39.8916
 20
159.57
 11
-39.7466
 21
160.04
  0
LINE
  8
0
 10
-39.7466
 20
160.04
 11
-39.4695
 21
160.447
  0
LINE
  8
0
 10
-39.4695
 20
160.447
 11
-39.085
 21
160.754
  0
LINE
  8
0
 10
-39.085
 20
160.754
 11
-38.6272
 21
160.933
  0
LINE
  8
0
 10
-38.6272
 20
160.933
 11
-38.1367
 21
160.97
  0
LINE
  8
0
 10
-38.1367
 20
160.97
 11
-37.6572
 21
160.861
  0
LINE
  8
0
 10
-37.6572
 20
160.861
 11
-37.2312
 21
160.615
  0
LINE
  8
0
 10
-37.2312
 20
160.615
 11
-36.8967
 21
160.254
  0
LINE
  8
0
 10
-36.8967
 20
160.254
 11
-36.6833
 21
159.811
  0
LINE
  8
0
 10
-36.6833
 20
159.811
 11
-36.61
 21
159.325
  0
LINE
  8
0
 10
-36.61
 20
159.325
 11
-36.6833
 21
158.838
  0
LINE
  8
0
 10
-36.6833
 20
158.838
 11
-36.8967
 21
158.395
  0
LINE
  8
0
 10
-36.8967
 20
158.395
 11
-37.2312
 21
158.035
  0
LINE
  8
0
 10
-37.2312
 20
158.035
 11
-37.6572
 21
157.789
  0
LINE
  8
0
 10
-37.6572
 20
157.789
 11
-38.1367
 21
157.679
  0
LINE
  8
0
 10
-38.1367
 20
157.679
 11
-38.6272
 21
157.716
  0
LINE
  8
0
 10
-38.6272
 20
143.067
 11
-39.085
 21
143.246
  0
LINE
  8
0
 10
-39.085
 20
143.246
 11
-39.4695
 21
143.553
  0
LINE
  8
0
 10
-39.4695
 20
143.553
 11
-39.7466
 21
143.96
  0
LINE
  8
0
 10
-39.7466
 20
143.96
 11
-39.8916
 21
144.429
  0
LINE
  8
0
 10
-39.8916
 20
144.429
 11
-39.8916
 21
144.921
  0
LINE
  8
0
 10
-39.8916
 20
144.921
 11
-39.7466
 21
145.391
  0
LINE
  8
0
 10
-39.7466
 20
145.391
 11
-39.4695
 21
145.798
  0
LINE
  8
0
 10
-39.4695
 20
145.798
 11
-39.085
 21
146.104
  0
LINE
  8
0
 10
-39.085
 20
146.104
 11
-38.6272
 21
146.284
  0
LINE
  8
0
 10
-38.6272
 20
146.284
 11
-38.1367
 21
146.321
  0
LINE
  8
0
 10
-38.1367
 20
146.321
 11
-37.6572
 21
146.211
  0
LINE
  8
0
 10
-37.6572
 20
146.211
 11
-37.2312
 21
145.965
  0
LINE
  8
0
 10
-37.2312
 20
145.965
 11
-36.8967
 21
145.605
  0
LINE
  8
0
 10
-36.8967
 20
145.605
 11
-36.6833
 21
145.162
  0
LINE
  8
0
 10
-36.6833
 20
145.162
 11
-36.61
 21
144.675
  0
LINE
  8
0
 10
-36.61
 20
144.675
 11
-36.6833
 21
144.189
  0
LINE
  8
0
 10
-36.6833
 20
144.189
 11
-36.8967
 21
143.746
  0
LINE
  8
0
 10
-36.8967
 20
143.746
 11
-37.2312
 21
143.385
  0
LINE
  8
0
 10
-37.2312
 20
143.385
 11
-37.6572
 21
143.139
  0
LINE
  8
0
 10
-37.6572
 20
143.139
 11
-38.1367
 21
143.03
  0
LINE
  8
0
 10
-38.1367
 20
143.03
 11
-38.6272
 21
143.067
  0
LINE
  8
0
 10
95.6472
 20
119.964
 11
95.2212
 21
120.21
  0
LINE
  8
0
 10
95.2212
 20
120.21
 11
94.8867
 21
120.571
  0
LINE
  8
0
 10
94.8867
 20
120.571
 11
94.6733
 21
121.014
  0
LINE
  8
0
 10
94.6733
 20
121.014
 11
94.6
 21
121.5
  0
LINE
  8
0
 10
94.6
 20
121.5
 11
94.6733
 21
121.986
  0
LINE
  8
0
 10
94.6733
 20
121.986
 11
94.8867
 21
122.429
  0
LINE
  8
0
 10
94.8867
 20
122.429
 11
95.2212
 21
122.79
  0
LINE
  8
0
 10
95.2212
 20
122.79
 11
95.6472
 21
123.036
  0
LINE
  8
0
 10
95.6472
 20
123.036
 11
96.1267
 21
123.145
  0
LINE
  8
0
 10
96.1267
 20
123.145
 11
96.6172
 21
123.109
  0
LINE
  8
0
 10
96.6172
 20
123.109
 11
97.075
 21
122.929
  0
LINE
  8
0
 10
97.075
 20
122.929
 11
97.4595
 21
122.622
  0
LINE
  8
0
 10
97.4595
 20
122.622
 11
97.7366
 21
122.216
  0
LINE
  8
0
 10
97.7366
 20
122.216
 11
97.8816
 21
121.746
  0
LINE
  8
0
 10
97.8816
 20
121.746
 11
97.8816
 21
121.254
  0
LINE
  8
0
 10
97.8816
 20
121.254
 11
97.7366
 21
120.784
  0
LINE
  8
0
 10
97.7366
 20
120.784
 11
97.4595
 21
120.378
  0
LINE
  8
0
 10
97.4595
 20
120.378
 11
97.075
 21
120.071
  0
LINE
  8
0
 10
97.075
 20
120.071
 11
96.6172
 21
119.891
  0
LINE
  8
0
 10
96.6172
 20
119.891
 11
96.1267
 21
119.855
  0
LINE
  8
0
 10
96.1267
 20
119.855
 11
95.6472
 21
119.964
  0
LINE
  8
0
 10
60.6472
 20
93.9641
 11
60.2212
 21
94.21
  0
LINE
  8
0
 10
60.2212
 20
94.21
 11
59.8867
 21
94.5705
  0
LINE
  8
0
 10
59.8867
 20
94.5705
 11
59.6733
 21
95.0136
  0
LINE
  8
0
 10
59.6733
 20
95.0136
 11
59.6
 21
95.5
  0
LINE
  8
0
 10
59.6
 20
95.5
 11
59.6733
 21
95.9863
  0
LINE
  8
0
 10
59.6733
 20
95.9863
 11
59.8867
 21
96.4295
  0
LINE
  8
0
 10
59.8867
 20
96.4295
 11
60.2212
 21
96.79
  0
LINE
  8
0
 10
60.2212
 20
96.79
 11
60.6472
 21
97.0359
  0
LINE
  8
0
 10
60.6472
 20
97.0359
 11
61.1267
 21
97.1454
  0
LINE
  8
0
 10
61.1267
 20
97.1454
 11
61.6172
 21
97.1086
  0
LINE
  8
0
 10
61.6172
 20
97.1086
 11
62.075
 21
96.9289
  0
LINE
  8
0
 10
62.075
 20
96.9289
 11
62.4595
 21
96.6223
  0
LINE
  8
0
 10
62.4595
 20
96.6223
 11
62.7366
 21
96.2159
  0
LINE
  8
0
 10
62.7366
 20
96.2159
 11
62.8816
 21
95.7459
  0
LINE
  8
0
 10
62.8816
 20
95.7459
 11
62.8816
 21
95.2541
  0
LINE
  8
0
 10
62.8816
 20
95.2541
 11
62.7366
 21
94.7841
  0
LINE
  8
0
 10
62.7366
 20
94.7841
 11
62.4595
 21
94.3777
  0
LINE
  8
0
 10
62.4595
 20
94.3777
 11
62.075
 21
94.071
  0
LINE
  8
0
 10
62.075
 20
94.071
 11
61.6172
 21
93.8914
  0
LINE
  8
0
 10
61.6172
 20
93.8914
 11
61.1267
 21
93.8546
  0
LINE
  8
0
 10
61.1267
 20
93.8546
 11
60.6472
 21
93.9641
  0
LINE
  8
0
 10
-38.8628
 20
67.9386
 11
-39.2888
 21
68.1846
  0
LINE
  8
0
 10
-39.2888
 20
68.1846
 11
-39.6233
 21
68.5451
  0
LINE
  8
0
 10
-39.6233
 20
68.5451
 11
-39.8367
 21
68.9882
  0
LINE
  8
0
 10
-39.8367
 20
68.9882
 11
-39.91
 21
69.4746
  0
LINE
  8
0
 10
-39.91
 20
69.4746
 11
-39.8367
 21
69.9609
  0
LINE
  8
0
 10
-39.8367
 20
69.9609
 11
-39.6233
 21
70.4041
  0
LINE
  8
0
 10
-39.6233
 20
70.4041
 11
-39.2888
 21
70.7646
  0
LINE
  8
0
 10
-39.2888
 20
70.7646
 11
-38.8628
 21
71.0105
  0
LINE
  8
0
 10
-38.8628
 20
71.0105
 11
-38.3833
 21
71.12
  0
LINE
  8
0
 10
-38.3833
 20
71.12
 11
-37.8928
 21
71.0832
  0
LINE
  8
0
 10
-37.8928
 20
71.0832
 11
-37.435
 21
70.9035
  0
LINE
  8
0
 10
-37.435
 20
70.9035
 11
-37.0505
 21
70.5969
  0
LINE
  8
0
 10
-37.0505
 20
70.5969
 11
-36.7734
 21
70.1905
  0
LINE
  8
0
 10
-36.7734
 20
70.1905
 11
-36.6284
 21
69.7205
  0
LINE
  8
0
 10
-36.6284
 20
69.7205
 11
-36.6284
 21
69.2287
  0
LINE
  8
0
 10
-36.6284
 20
69.2287
 11
-36.7734
 21
68.7587
  0
LINE
  8
0
 10
-36.7734
 20
68.7587
 11
-37.0505
 21
68.3523
  0
LINE
  8
0
 10
-37.0505
 20
68.3523
 11
-37.435
 21
68.0456
  0
LINE
  8
0
 10
-37.435
 20
68.0456
 11
-37.8928
 21
67.8659
  0
LINE
  8
0
 10
-37.8928
 20
67.8659
 11
-38.3833
 21
67.8292
  0
LINE
  8
0
 10
-38.3833
 20
67.8292
 11
-38.8628
 21
67.9386
  0
LINE
  8
0
 10
-38.8628
 20
53.2895
 11
-39.2888
 21
53.5354
  0
LINE
  8
0
 10
-39.2888
 20
53.5354
 11
-39.6233
 21
53.8959
  0
LINE
  8
0
 10
-39.6233
 20
53.8959
 11
-39.8367
 21
54.3391
  0
LINE
  8
0
 10
-39.8367
 20
54.3391
 11
-39.91
 21
54.8254
  0
LINE
  8
0
 10
-39.91
 20
54.8254
 11
-39.8367
 21
55.3118
  0
LINE
  8
0
 10
-39.8367
 20
55.3118
 11
-39.6233
 21
55.7549
  0
LINE
  8
0
 10
-39.6233
 20
55.7549
 11
-39.2888
 21
56.1154
  0
LINE
  8
0
 10
-39.2888
 20
56.1154
 11
-38.8628
 21
56.3614
  0
LINE
  8
0
 10
-38.8628
 20
56.3614
 11
-38.3833
 21
56.4708
  0
LINE
  8
0
 10
-38.3833
 20
56.4708
 11
-37.8928
 21
56.434
  0
LINE
  8
0
 10
-37.8928
 20
56.434
 11
-37.435
 21
56.2543
  0
LINE
  8
0
 10
-37.435
 20
56.2543
 11
-37.0505
 21
55.9477
  0
LINE
  8
0
 10
-37.0505
 20
55.9477
 11
-36.7734
 21
55.5413
  0
LINE
  8
0
 10
-36.7734
 20
55.5413
 11
-36.6284
 21
55.0713
  0
LINE
  8
0
 10
-36.6284
 20
55.0713
 11
-36.6284
 21
54.5795
  0
LINE
  8
0
 10
-36.6284
 20
54.5795
 11
-36.7734
 21
54.1095
  0
LINE
  8
0
 10
-36.7734
 20
54.1095
 11
-37.0505
 21
53.7031
  0
LINE
  8
0
 10
-37.0505
 20
53.7031
 11
-37.435
 21
53.3965
  0
LINE
  8
0
 10
-37.435
 20
53.3965
 11
-37.8928
 21
53.2168
  0
LINE
  8
0
 10
-37.8928
 20
53.2168
 11
-38.3833
 21
53.18
  0
LINE
  8
0
 10
-38.3833
 20
53.18
 11
-38.8628
 21
53.2895
  0
LINE
  8
0
 10
-75.3528
 20
43.9641
 11
-75.7787
 21
44.21
  0
LINE
  8
0
 10
-75.7787
 20
44.21
 11
-76.1133
 21
44.5705
  0
LINE
  8
0
 10
-76.1133
 20
44.5705
 11
-76.3267
 21
45.0136
  0
LINE
  8
0
 10
-76.3267
 20
45.0136
 11
-76.4
 21
45.5
  0
LINE
  8
0
 10
-76.4
 20
45.5
 11
-76.3267
 21
45.9863
  0
LINE
  8
0
 10
-76.3267
 20
45.9863
 11
-76.1133
 21
46.4295
  0
LINE
  8
0
 10
-76.1133
 20
46.4295
 11
-75.7787
 21
46.79
  0
LINE
  8
0
 10
-75.7787
 20
46.79
 11
-75.3528
 21
47.0359
  0
LINE
  8
0
 10
-75.3528
 20
47.0359
 11
-74.8733
 21
47.1454
  0
LINE
  8
0
 10
-74.8733
 20
47.1454
 11
-74.3828
 21
47.1086
  0
LINE
  8
0
 10
-74.3828
 20
47.1086
 11
-73.925
 21
46.9289
  0
LINE
  8
0
 10
-73.925
 20
46.9289
 11
-73.5405
 21
46.6223
  0
LINE
  8
0
 10
-73.5405
 20
46.6223
 11
-73.2634
 21
46.2159
  0
LINE
  8
0
 10
-73.2634
 20
46.2159
 11
-73.1184
 21
45.7459
  0
LINE
  8
0
 10
-73.1184
 20
45.7459
 11
-73.1184
 21
45.2541
  0
LINE
  8
0
 10
-73.1184
 20
45.2541
 11
-73.2634
 21
44.7841
  0
LINE
  8
0
 10
-73.2634
 20
44.7841
 11
-73.5405
 21
44.3777
  0
LINE
  8
0
 10
-73.5405
 20
44.3777
 11
-73.925
 21
44.071
  0
LINE
  8
0
 10
-73.925
 20
44.071
 11
-74.3828
 21
43.8914
  0
LINE
  8
0
 10
-74.3828
 20
43.8914
 11
-74.8733
 21
43.8546
  0
LINE
  8
0
 10
-74.8733
 20
43.8546
 11
-75.3528
 21
43.9641
  0
LINE
  8
0
 10
-110.353
 20
17.9641
 11
-110.779
 21
18.21
  0
LINE
  8
0
 10
-110.779
 20
18.21
 11
-111.113
 21
18.5705
  0
LINE
  8
0
 10
-111.113
 20
18.5705
 11
-111.327
 21
19.0136
  0
LINE
  8
0
 10
-111.327
 20
19.0136
 11
-111.4
 21
19.5
  0
LINE
  8
0
 10
-111.4
 20
19.5
 11
-111.327
 21
19.9863
  0
LINE
  8
0
 10
-111.327
 20
19.9863
 11
-111.113
 21
20.4295
  0
LINE
  8
0
 10
-111.113
 20
20.4295
 11
-110.779
 21
20.79
  0
LINE
  8
0
 10
-110.779
 20
20.79
 11
-110.353
 21
21.0359
  0
LINE
  8
0
 10
-110.353
 20
21.0359
 11
-109.873
 21
21.1454
  0
LINE
  8
0
 10
-109.873
 20
21.1454
 11
-109.383
 21
21.1086
  0
LINE
  8
0
 10
-109.383
 20
21.1086
 11
-108.925
 21
20.9289
  0
LINE
  8
0
 10
-108.925
 20
20.9289
 11
-108.54
 21
20.6223
  0
LINE
  8
0
 10
-108.54
 20
20.6223
 11
-108.263
 21
20.2159
  0
LINE
  8
0
 10
-108.263
 20
20.2159
 11
-108.118
 21
19.7459
  0
LINE
  8
0
 10
-108.118
 20
19.7459
 11
-108.118
 21
19.2541
  0
LINE
  8
0
 10
-108.118
 20
19.2541
 11
-108.263
 21
18.7841
  0
LINE
  8
0
 10
-108.263
 20
18.7841
 11
-108.54
 21
18.3777
  0
LINE
  8
0
 10
-108.54
 20
18.3777
 11
-108.925
 21
18.071
  0
LINE
  8
0
 10
-108.925
 20
18.071
 11
-109.383
 21
17.8914
  0
LINE
  8
0
 10
-109.383
 20
17.8914
 11
-109.873
 21
17.8546
  0
LINE
  8
0
 10
-109.873
 20
17.8546
 11
-110.353
 21
17.9641
  0
LINE
  8
0
 10
-111.728
 20
2.84514
 11
-112.134
 21
3.1161
  0
LINE
  8
0
 10
-112.134
 20
3.1161
 11
-112.405
 21
3.52164
  0
LINE
  8
0
 10
-112.405
 20
3.52164
 11
-112.5
 21
4
  0
LINE
  8
0
 10
-112.5
 20
4
 11
-112.405
 21
4.47835
  0
LINE
  8
0
 10
-112.405
 20
4.47835
 11
-112.134
 21
4.88388
  0
LINE
  8
0
 10
-112.134
 20
4.88388
 11
-111.728
 21
5.15485
  0
LINE
  8
0
 10
-111.728
 20
5.15485
 11
-111.25
 21
5.25
  0
LINE
  8
0
 10
-111.25
 20
5.25
 11
-110.772
 21
5.15485
  0
LINE
  8
0
 10
-110.772
 20
5.15485
 11
-110.366
 21
4.88388
  0
LINE
  8
0
 10
-110.366
 20
4.88388
 11
-110.095
 21
4.47835
  0
LINE
  8
0
 10
-110.095
 20
4.47835
 11
-110
 21
4
  0
LINE
  8
0
 10
-110
 20
4
 11
-110.095
 21
3.52164
  0
LINE
  8
0
 10
-110.095
 20
3.52164
 11
-110.366
 21
3.1161
  0
LINE
  8
0
 10
-110.366
 20
3.1161
 11
-110.772
 21
2.84514
  0
LINE
  8
0
 10
-110.772
 20
2.84514
 11
-111.25
 21
2.75
  0
LINE
  8
0
 10
-111.25
 20
2.75
 11
-111.728
 21
2.84514
  0
LINE
  8
0
 10
97.2716
 20
2.84514
 11
96.8661
 21
3.1161
  0
LINE
  8
0
 10
96.8661
 20
3.1161
 11
96.5951
 21
3.52164
  0
LINE
  8
0
 10
96.5951
 20
3.52164
 11
96.5
 21
4
  0
LINE
  8
0
 10
96.5
 20
4
 11
96.5951
 21
4.47835
  0
LINE
  8
0
 10
96.5951
 20
4.47835
 11
96.8661
 21
4.88388
  0
LINE
  8
0
 10
96.8661
 20
4.88388
 11
97.2716
 21
5.15485
  0
LINE
  8
0
 10
97.2716
 20
5.15485
 11
97.75
 21
5.25
  0
LINE
  8
0
 10
97.75
 20
5.25
 11
98.2283
 21
5.15485
  0
LINE
  8
0
 10
98.2283
 20
5.15485
 11
98.6339
 21
4.88388
  0
LINE
  8
0
 10
98.6339
 20
4.88388
 11
98.9048
 21
4.47835
  0
LINE
  8
0
 10
98.9048
 20
4.47835
 11
99
 21
4
  0
LINE
  8
0
 10
99
 20
4
 11
98.9048
 21
3.52164
  0
LINE
  8
0
 10
98.9048
 20
3.52164
 11
98.6339
 21
3.1161
  0
LINE
  8
0
 10
98.6339
 20
3.1161
 11
98.2283
 21
2.84514
  0
LINE
  8
0
 10
98.2283
 20
2.84514
 11
97.75
 21
2.75
  0
LINE
  8
0
 10
97.75
 20
2.75
 11
97.2716
 21
2.84514
  0
ENDSEC
  0
SECTION
  2
OBJECTS
  0
DICTIONARY
  0
ENDSEC
  0
EOF
