<?xml version="1.0"?>
<svg xmlns="http://www.w3.org/2000/svg" version="1.1" height="402mm" width="483mm" >
 <g style="fill-opacity:1.0; stroke:black; stroke-width:1;">
  <line x1="0.000000mm" y1="25.000000mm" x2="0.000000mm" y2="25.000000mm" />
  <line x1="0.000000mm" y1="25.000000mm" x2="0.000000mm" y2="392.000000mm" />
  <line x1="0.000000mm" y1="392.000000mm" x2="38.620000mm" y2="392.000000mm" />
  <line x1="38.620000mm" y1="392.000000mm" x2="38.620000mm" y2="389.500000mm" />
  <line x1="38.620000mm" y1="389.500000mm" x2="38.645000mm" y2="389.248820mm" />
  <line x1="38.645000mm" y1="389.248820mm" x2="38.668000mm" y2="389.012270mm" />
  <line x1="38.668000mm" y1="389.012270mm" x2="38.810000mm" y2="388.543290mm" />
  <line x1="38.810000mm" y1="388.543290mm" x2="39.041000mm" y2="388.111070mm" />
  <line x1="39.041000mm" y1="388.111070mm" x2="39.352000mm" y2="387.732230mm" />
  <line x1="39.352000mm" y1="387.732230mm" x2="39.731000mm" y2="387.421330mm" />
  <line x1="39.731000mm" y1="387.421330mm" x2="40.163000mm" y2="387.190300mm" />
  <line x1="40.163000mm" y1="387.190300mm" x2="40.632000mm" y2="387.048040mm" />
  <line x1="40.632000mm" y1="387.048040mm" x2="40.869000mm" y2="387.024740mm" />
  <line x1="40.869000mm" y1="387.024740mm" x2="41.120000mm" y2="387.000000mm" />
  <line x1="41.120000mm" y1="387.000000mm" x2="41.371000mm" y2="387.024740mm" />
  <line x1="41.371000mm" y1="387.024740mm" x2="41.608000mm" y2="387.048040mm" />
  <line x1="41.608000mm" y1="387.048040mm" x2="42.077000mm" y2="387.190300mm" />
  <line x1="42.077000mm" y1="387.190300mm" x2="42.509000mm" y2="387.421330mm" />
  <line x1="42.509000mm" y1="387.421330mm" x2="42.888000mm" y2="387.732230mm" />
  <line x1="42.888000mm" y1="387.732230mm" x2="43.199000mm" y2="388.111070mm" />
  <line x1="43.199000mm" y1="388.111070mm" x2="43.430000mm" y2="388.543290mm" />
  <line x1="43.430000mm" y1="388.543290mm" x2="43.572000mm" y2="389.012270mm" />
  <line x1="43.572000mm" y1="389.012270mm" x2="43.595000mm" y2="389.248820mm" />
  <line x1="43.595000mm" y1="389.248820mm" x2="43.620000mm" y2="389.500000mm" />
  <line x1="43.620000mm" y1="389.500000mm" x2="43.620000mm" y2="392.000000mm" />
  <line x1="43.620000mm" y1="392.000000mm" x2="104.500000mm" y2="392.000000mm" />
  <line x1="104.500000mm" y1="392.000000mm" x2="104.500000mm" y2="113.900000mm" />
  <line x1="104.500000mm" y1="113.900000mm" x2="104.506000mm" y2="113.900000mm" />
  <line x1="104.506000mm" y1="113.900000mm" x2="104.506000mm" y2="113.651000mm" />
  <line x1="104.506000mm" y1="113.651000mm" x2="104.556000mm" y2="113.155000mm" />
  <line x1="104.556000mm" y1="113.155000mm" x2="104.655000mm" y2="112.666000mm" />
  <line x1="104.655000mm" y1="112.666000mm" x2="104.802000mm" y2="112.190000mm" />
  <line x1="104.802000mm" y1="112.190000mm" x2="104.995000mm" y2="111.731000mm" />
  <line x1="104.995000mm" y1="111.731000mm" x2="105.234000mm" y2="111.293000mm" />
  <line x1="105.234000mm" y1="111.293000mm" x2="105.514000mm" y2="110.881000mm" />
  <line x1="105.514000mm" y1="110.881000mm" x2="105.835000mm" y2="110.499000mm" />
  <line x1="105.835000mm" y1="110.499000mm" x2="106.192000mm" y2="110.151000mm" />
  <line x1="106.192000mm" y1="110.151000mm" x2="106.581000mm" y2="109.840000mm" />
  <line x1="106.581000mm" y1="109.840000mm" x2="107.000000mm" y2="109.570000mm" />
  <line x1="107.000000mm" y1="109.570000mm" x2="107.444000mm" y2="109.342000mm" />
  <line x1="107.444000mm" y1="109.342000mm" x2="107.908000mm" y2="109.160000mm" />
  <line x1="107.908000mm" y1="109.160000mm" x2="108.387000mm" y2="109.025000mm" />
  <line x1="108.387000mm" y1="109.025000mm" x2="108.878000mm" y2="108.939000mm" />
  <line x1="108.878000mm" y1="108.939000mm" x2="109.375000mm" y2="108.902000mm" />
  <line x1="109.375000mm" y1="108.902000mm" x2="109.500000mm" y2="108.905000mm" />
  <line x1="109.500000mm" y1="108.905000mm" x2="109.500000mm" y2="108.900000mm" />
  <line x1="109.500000mm" y1="108.900000mm" x2="349.500000mm" y2="108.900000mm" />
  <line x1="349.500000mm" y1="108.900000mm" x2="349.500000mm" y2="108.905000mm" />
  <line x1="349.500000mm" y1="108.905000mm" x2="349.874000mm" y2="108.914000mm" />
  <line x1="349.874000mm" y1="108.914000mm" x2="350.368000mm" y2="108.976000mm" />
  <line x1="350.368000mm" y1="108.976000mm" x2="350.854000mm" y2="109.087000mm" />
  <line x1="350.854000mm" y1="109.087000mm" x2="351.327000mm" y2="109.246000mm" />
  <line x1="351.327000mm" y1="109.246000mm" x2="351.781000mm" y2="109.451000mm" />
  <line x1="351.781000mm" y1="109.451000mm" x2="352.213000mm" y2="109.700000mm" />
  <line x1="352.213000mm" y1="109.700000mm" x2="352.617000mm" y2="109.991000mm" />
  <line x1="352.617000mm" y1="109.991000mm" x2="352.991000mm" y2="110.321000mm" />
  <line x1="352.991000mm" y1="110.321000mm" x2="353.330000mm" y2="110.686000mm" />
  <line x1="353.330000mm" y1="110.686000mm" x2="353.631000mm" y2="111.083000mm" />
  <line x1="353.631000mm" y1="111.083000mm" x2="353.891000mm" y2="111.509000mm" />
  <line x1="353.891000mm" y1="111.509000mm" x2="354.107000mm" y2="111.958000mm" />
  <line x1="354.107000mm" y1="111.958000mm" x2="354.278000mm" y2="112.426000mm" />
  <line x1="354.278000mm" y1="112.426000mm" x2="354.401000mm" y2="112.909000mm" />
  <line x1="354.401000mm" y1="112.909000mm" x2="354.475000mm" y2="113.402000mm" />
  <line x1="354.475000mm" y1="113.402000mm" x2="354.500000mm" y2="113.900000mm" />
  <line x1="354.500000mm" y1="113.900000mm" x2="354.500000mm" y2="392.000000mm" />
  <line x1="354.500000mm" y1="392.000000mm" x2="472.500000mm" y2="392.000000mm" />
  <line x1="472.500000mm" y1="392.000000mm" x2="472.500000mm" y2="25.000000mm" />
  <line x1="472.500000mm" y1="25.000000mm" x2="472.405000mm" y2="22.821000mm" />
  <line x1="472.405000mm" y1="22.821000mm" x2="472.120000mm" y2="20.659000mm" />
  <line x1="472.120000mm" y1="20.659000mm" x2="471.648000mm" y2="18.530000mm" />
  <line x1="471.648000mm" y1="18.530000mm" x2="470.992000mm" y2="16.449000mm" />
  <line x1="470.992000mm" y1="16.449000mm" x2="470.158000mm" y2="14.435000mm" />
  <line x1="470.158000mm" y1="14.435000mm" x2="469.151000mm" y2="12.500000mm" />
  <line x1="469.151000mm" y1="12.500000mm" x2="467.979000mm" y2="10.661000mm" />
  <line x1="467.979000mm" y1="10.661000mm" x2="466.651000mm" y2="8.930000mm" />
  <line x1="466.651000mm" y1="8.930000mm" x2="465.178000mm" y2="7.322000mm" />
  <line x1="465.178000mm" y1="7.322000mm" x2="463.570000mm" y2="5.849000mm" />
  <line x1="463.570000mm" y1="5.849000mm" x2="461.839000mm" y2="4.521000mm" />
  <line x1="461.839000mm" y1="4.521000mm" x2="460.000000mm" y2="3.349000mm" />
  <line x1="460.000000mm" y1="3.349000mm" x2="458.065000mm" y2="2.342000mm" />
  <line x1="458.065000mm" y1="2.342000mm" x2="456.051000mm" y2="1.508000mm" />
  <line x1="456.051000mm" y1="1.508000mm" x2="453.970000mm" y2="0.852000mm" />
  <line x1="453.970000mm" y1="0.852000mm" x2="451.841000mm" y2="0.380000mm" />
  <line x1="451.841000mm" y1="0.380000mm" x2="449.679000mm" y2="0.095000mm" />
  <line x1="449.679000mm" y1="0.095000mm" x2="447.500000mm" y2="0.000000mm" />
  <line x1="447.500000mm" y1="0.000000mm" x2="25.000000mm" y2="0.000000mm" />
  <line x1="25.000000mm" y1="0.000000mm" x2="22.821000mm" y2="0.095000mm" />
  <line x1="22.821000mm" y1="0.095000mm" x2="20.659000mm" y2="0.380000mm" />
  <line x1="20.659000mm" y1="0.380000mm" x2="18.530000mm" y2="0.852000mm" />
  <line x1="18.530000mm" y1="0.852000mm" x2="16.449000mm" y2="1.508000mm" />
  <line x1="16.449000mm" y1="1.508000mm" x2="14.435000mm" y2="2.342000mm" />
  <line x1="14.435000mm" y1="2.342000mm" x2="12.500000mm" y2="3.349000mm" />
  <line x1="12.500000mm" y1="3.349000mm" x2="10.661000mm" y2="4.521000mm" />
  <line x1="10.661000mm" y1="4.521000mm" x2="8.930000mm" y2="5.849000mm" />
  <line x1="8.930000mm" y1="5.849000mm" x2="7.322000mm" y2="7.322000mm" />
  <line x1="7.322000mm" y1="7.322000mm" x2="5.849000mm" y2="8.930000mm" />
  <line x1="5.849000mm" y1="8.930000mm" x2="4.521000mm" y2="10.661000mm" />
  <line x1="4.521000mm" y1="10.661000mm" x2="3.349000mm" y2="12.500000mm" />
  <line x1="3.349000mm" y1="12.500000mm" x2="2.342000mm" y2="14.435000mm" />
  <line x1="2.342000mm" y1="14.435000mm" x2="1.508000mm" y2="16.449000mm" />
  <line x1="1.508000mm" y1="16.449000mm" x2="0.852000mm" y2="18.530000mm" />
  <line x1="0.852000mm" y1="18.530000mm" x2="0.380000mm" y2="20.659000mm" />
  <line x1="0.380000mm" y1="20.659000mm" x2="0.095000mm" y2="22.821000mm" />
  <line x1="0.095000mm" y1="22.821000mm" x2="0.000000mm" y2="25.000000mm" />
  <circle cx="7.499964mm" cy="273.899964mm" r="2.200229mm" fill="none"/>
  <line x1="11.900421mm" y1="273.899964mm" x2="3.099507mm" y2="273.899964mm" />
  <line x1="7.499964mm" y1="269.499507mm" x2="7.499964mm" y2="278.300421mm" />
  <text x="9mm" y="271mm" font-size="24">
   4.4
  </text>
  <circle cx="7.508919mm" cy="232.499054mm" r="2.195369mm" fill="none"/>
  <line x1="11.899657mm" y1="232.499054mm" x2="3.118181mm" y2="232.499054mm" />
  <line x1="7.508919mm" y1="228.108316mm" x2="7.508919mm" y2="236.889792mm" />
  <text x="9mm" y="230mm" font-size="24">
   4.4
  </text>
  <circle cx="8.700108mm" cy="384.799967mm" r="2.200108mm" fill="none"/>
  <line x1="13.100324mm" y1="384.799967mm" x2="4.299892mm" y2="384.799967mm" />
  <line x1="8.700108mm" y1="380.399750mm" x2="8.700108mm" y2="389.200183mm" />
  <text x="10mm" y="382mm" font-size="24">
   4.4
  </text>
  <line x1="14.274000mm" y1="335.710500mm" x2="14.274000mm" y2="335.710500mm" />
  <line x1="14.274000mm" y1="335.710500mm" x2="14.250000mm" y2="335.500000mm" />
  <line x1="14.250000mm" y1="335.500000mm" x2="14.250000mm" y2="326.500000mm" />
  <line x1="14.250000mm" y1="326.500000mm" x2="14.281000mm" y2="326.221000mm" />
  <line x1="14.281000mm" y1="326.221000mm" x2="14.305000mm" y2="326.010500mm" />
  <line x1="14.305000mm" y1="326.010500mm" x2="14.468000mm" y2="325.545500mm" />
  <line x1="14.468000mm" y1="325.545500mm" x2="14.730000mm" y2="325.128300mm" />
  <line x1="14.730000mm" y1="325.128300mm" x2="15.078000mm" y2="324.780000mm" />
  <line x1="15.078000mm" y1="324.780000mm" x2="15.495000mm" y2="324.517900mm" />
  <line x1="15.495000mm" y1="324.517900mm" x2="15.960000mm" y2="324.355200mm" />
  <line x1="15.960000mm" y1="324.355200mm" x2="16.450000mm" y2="324.300000mm" />
  <line x1="16.450000mm" y1="324.300000mm" x2="16.940000mm" y2="324.355200mm" />
  <line x1="16.940000mm" y1="324.355200mm" x2="17.405000mm" y2="324.517900mm" />
  <line x1="17.405000mm" y1="324.517900mm" x2="17.822000mm" y2="324.780000mm" />
  <line x1="17.822000mm" y1="324.780000mm" x2="18.170000mm" y2="325.128300mm" />
  <line x1="18.170000mm" y1="325.128300mm" x2="18.432000mm" y2="325.545500mm" />
  <line x1="18.432000mm" y1="325.545500mm" x2="18.595000mm" y2="326.010500mm" />
  <line x1="18.595000mm" y1="326.010500mm" x2="18.619000mm" y2="326.221000mm" />
  <line x1="18.619000mm" y1="326.221000mm" x2="18.650000mm" y2="326.500000mm" />
  <line x1="18.650000mm" y1="326.500000mm" x2="18.650000mm" y2="335.500000mm" />
  <line x1="18.650000mm" y1="335.500000mm" x2="18.626000mm" y2="335.710500mm" />
  <line x1="18.626000mm" y1="335.710500mm" x2="18.595000mm" y2="335.989500mm" />
  <line x1="18.595000mm" y1="335.989500mm" x2="18.432000mm" y2="336.454500mm" />
  <line x1="18.432000mm" y1="336.454500mm" x2="18.170000mm" y2="336.871700mm" />
  <line x1="18.170000mm" y1="336.871700mm" x2="17.822000mm" y2="337.220000mm" />
  <line x1="17.822000mm" y1="337.220000mm" x2="17.405000mm" y2="337.482100mm" />
  <line x1="17.405000mm" y1="337.482100mm" x2="16.940000mm" y2="337.644800mm" />
  <line x1="16.940000mm" y1="337.644800mm" x2="16.450000mm" y2="337.700000mm" />
  <line x1="16.450000mm" y1="337.700000mm" x2="15.960000mm" y2="337.644800mm" />
  <line x1="15.960000mm" y1="337.644800mm" x2="15.495000mm" y2="337.482100mm" />
  <line x1="15.495000mm" y1="337.482100mm" x2="15.078000mm" y2="337.220000mm" />
  <line x1="15.078000mm" y1="337.220000mm" x2="14.730000mm" y2="336.871700mm" />
  <line x1="14.730000mm" y1="336.871700mm" x2="14.468000mm" y2="336.454500mm" />
  <line x1="14.468000mm" y1="336.454500mm" x2="14.305000mm" y2="335.989500mm" />
  <line x1="14.305000mm" y1="335.989500mm" x2="14.274000mm" y2="335.710500mm" />
  <circle cx="29.920108mm" cy="384.799967mm" r="2.200108mm" fill="none"/>
  <line x1="34.320324mm" y1="384.799967mm" x2="25.519892mm" y2="384.799967mm" />
  <line x1="29.920108mm" y1="380.399750mm" x2="29.920108mm" y2="389.200183mm" />
  <text x="32mm" y="382mm" font-size="24">
   4.4
  </text>
  <circle cx="32.508921mm" cy="318.997837mm" r="1.994725mm" fill="none"/>
  <line x1="36.498370mm" y1="318.997837mm" x2="28.519471mm" y2="318.997837mm" />
  <line x1="32.508921mm" y1="315.008388mm" x2="32.508921mm" y2="322.987287mm" />
  <text x="34mm" y="317mm" font-size="24">
   4.0
  </text>
  <circle cx="38.499818mm" cy="17.000055mm" r="2.000011mm" fill="none"/>
  <line x1="42.499840mm" y1="17.000055mm" x2="34.499795mm" y2="17.000055mm" />
  <line x1="38.499818mm" y1="13.000033mm" x2="38.499818mm" y2="21.000077mm" />
  <text x="40mm" y="15mm" font-size="24">
   4.0
  </text>
  <circle cx="39.949964mm" cy="7.499964mm" r="2.200229mm" fill="none"/>
  <line x1="44.350421mm" y1="7.499964mm" x2="35.549507mm" y2="7.499964mm" />
  <line x1="39.949964mm" y1="3.099507mm" x2="39.949964mm" y2="11.900421mm" />
  <text x="42mm" y="5mm" font-size="24">
   4.4
  </text>
  <line x1="44.374000mm" y1="335.710500mm" x2="44.374000mm" y2="335.710500mm" />
  <line x1="44.374000mm" y1="335.710500mm" x2="44.350000mm" y2="335.500000mm" />
  <line x1="44.350000mm" y1="335.500000mm" x2="44.350000mm" y2="326.500000mm" />
  <line x1="44.350000mm" y1="326.500000mm" x2="44.381000mm" y2="326.221000mm" />
  <line x1="44.381000mm" y1="326.221000mm" x2="44.405000mm" y2="326.010500mm" />
  <line x1="44.405000mm" y1="326.010500mm" x2="44.568000mm" y2="325.545500mm" />
  <line x1="44.568000mm" y1="325.545500mm" x2="44.830000mm" y2="325.128300mm" />
  <line x1="44.830000mm" y1="325.128300mm" x2="45.178000mm" y2="324.780000mm" />
  <line x1="45.178000mm" y1="324.780000mm" x2="45.595000mm" y2="324.517900mm" />
  <line x1="45.595000mm" y1="324.517900mm" x2="46.060000mm" y2="324.355200mm" />
  <line x1="46.060000mm" y1="324.355200mm" x2="46.550000mm" y2="324.300000mm" />
  <line x1="46.550000mm" y1="324.300000mm" x2="47.040000mm" y2="324.355200mm" />
  <line x1="47.040000mm" y1="324.355200mm" x2="47.505000mm" y2="324.517900mm" />
  <line x1="47.505000mm" y1="324.517900mm" x2="47.922000mm" y2="324.780000mm" />
  <line x1="47.922000mm" y1="324.780000mm" x2="48.270000mm" y2="325.128300mm" />
  <line x1="48.270000mm" y1="325.128300mm" x2="48.532000mm" y2="325.545500mm" />
  <line x1="48.532000mm" y1="325.545500mm" x2="48.695000mm" y2="326.010500mm" />
  <line x1="48.695000mm" y1="326.010500mm" x2="48.719000mm" y2="326.221000mm" />
  <line x1="48.719000mm" y1="326.221000mm" x2="48.750000mm" y2="326.500000mm" />
  <line x1="48.750000mm" y1="326.500000mm" x2="48.750000mm" y2="335.500000mm" />
  <line x1="48.750000mm" y1="335.500000mm" x2="48.726000mm" y2="335.710500mm" />
  <line x1="48.726000mm" y1="335.710500mm" x2="48.695000mm" y2="335.989500mm" />
  <line x1="48.695000mm" y1="335.989500mm" x2="48.532000mm" y2="336.454500mm" />
  <line x1="48.532000mm" y1="336.454500mm" x2="48.270000mm" y2="336.871700mm" />
  <line x1="48.270000mm" y1="336.871700mm" x2="47.922000mm" y2="337.220000mm" />
  <line x1="47.922000mm" y1="337.220000mm" x2="47.505000mm" y2="337.482100mm" />
  <line x1="47.505000mm" y1="337.482100mm" x2="47.040000mm" y2="337.644800mm" />
  <line x1="47.040000mm" y1="337.644800mm" x2="46.550000mm" y2="337.700000mm" />
  <line x1="46.550000mm" y1="337.700000mm" x2="46.060000mm" y2="337.644800mm" />
  <line x1="46.060000mm" y1="337.644800mm" x2="45.595000mm" y2="337.482100mm" />
  <line x1="45.595000mm" y1="337.482100mm" x2="45.178000mm" y2="337.220000mm" />
  <line x1="45.178000mm" y1="337.220000mm" x2="44.830000mm" y2="336.871700mm" />
  <line x1="44.830000mm" y1="336.871700mm" x2="44.568000mm" y2="336.454500mm" />
  <line x1="44.568000mm" y1="336.454500mm" x2="44.405000mm" y2="335.989500mm" />
  <line x1="44.405000mm" y1="335.989500mm" x2="44.374000mm" y2="335.710500mm" />
  <circle cx="62.699998mm" cy="358.290067mm" r="2.200127mm" fill="none"/>
  <line x1="67.100252mm" y1="358.290067mm" x2="58.299744mm" y2="358.290067mm" />
  <line x1="62.699998mm" y1="353.889813mm" x2="62.699998mm" y2="362.690321mm" />
  <text x="64mm" y="356mm" font-size="24">
   4.4
  </text>
  <circle cx="62.699964mm" cy="33.709964mm" r="2.200229mm" fill="none"/>
  <line x1="67.100421mm" y1="33.709964mm" x2="58.299507mm" y2="33.709964mm" />
  <line x1="62.699964mm" y1="29.309507mm" x2="62.699964mm" y2="38.110421mm" />
  <text x="64mm" y="31mm" font-size="24">
   4.4
  </text>
  <circle cx="66.500221mm" cy="59.319698mm" r="1.500135mm" fill="none"/>
  <line x1="69.500491mm" y1="59.319698mm" x2="63.499951mm" y2="59.319698mm" />
  <line x1="66.500221mm" y1="56.319428mm" x2="66.500221mm" y2="62.319968mm" />
  <text x="68mm" y="57mm" font-size="24">
   3.0
  </text>
  <circle cx="66.500221mm" cy="53.519698mm" r="1.500135mm" fill="none"/>
  <line x1="69.500491mm" y1="53.519698mm" x2="63.499951mm" y2="53.519698mm" />
  <line x1="66.500221mm" y1="50.519428mm" x2="66.500221mm" y2="56.519968mm" />
  <text x="68mm" y="52mm" font-size="24">
   3.0
  </text>
  <circle cx="72.049964mm" cy="7.499964mm" r="2.200229mm" fill="none"/>
  <line x1="76.450421mm" y1="7.499964mm" x2="67.649507mm" y2="7.499964mm" />
  <line x1="72.049964mm" y1="3.099507mm" x2="72.049964mm" y2="11.900421mm" />
  <text x="74mm" y="5mm" font-size="24">
   4.4
  </text>
  <circle cx="71.499872mm" cy="71.920269mm" r="1.500269mm" fill="none"/>
  <line x1="74.500410mm" y1="71.920269mm" x2="68.499333mm" y2="71.920269mm" />
  <line x1="71.499872mm" y1="68.919731mm" x2="71.499872mm" y2="74.920808mm" />
  <text x="73mm" y="70mm" font-size="24">
   3.0
  </text>
  <circle cx="71.499872mm" cy="64.720269mm" r="1.500269mm" fill="none"/>
  <line x1="74.500410mm" y1="64.720269mm" x2="68.499333mm" y2="64.720269mm" />
  <line x1="71.499872mm" y1="61.719731mm" x2="71.499872mm" y2="67.720808mm" />
  <text x="73mm" y="63mm" font-size="24">
   3.0
  </text>
  <circle cx="75.080108mm" cy="384.799967mm" r="2.200108mm" fill="none"/>
  <line x1="79.480324mm" y1="384.799967mm" x2="70.679892mm" y2="384.799967mm" />
  <line x1="75.080108mm" y1="380.399750mm" x2="75.080108mm" y2="389.200183mm" />
  <text x="77mm" y="382mm" font-size="24">
   4.4
  </text>
  <circle cx="96.300108mm" cy="384.799967mm" r="2.200108mm" fill="none"/>
  <line x1="100.700324mm" y1="384.799967mm" x2="91.899892mm" y2="384.799967mm" />
  <line x1="96.300108mm" y1="380.399750mm" x2="96.300108mm" y2="389.200183mm" />
  <text x="98mm" y="382mm" font-size="24">
   4.4
  </text>
  <line x1="173.819800mm" y1="71.450000mm" x2="173.819800mm" y2="71.450000mm" />
  <line x1="173.819800mm" y1="71.450000mm" x2="170.107800mm" y2="71.450000mm" />
  <line x1="170.107800mm" y1="71.450000mm" x2="170.107800mm" y2="46.682000mm" />
  <line x1="170.107800mm" y1="46.682000mm" x2="173.819800mm" y2="46.682000mm" />
  <line x1="173.819800mm" y1="46.682000mm" x2="173.819800mm" y2="50.330000mm" />
  <line x1="173.819800mm" y1="50.330000mm" x2="174.621700mm" y2="49.527000mm" />
  <line x1="174.621700mm" y1="49.527000mm" x2="175.432100mm" y2="48.809000mm" />
  <line x1="175.432100mm" y1="48.809000mm" x2="176.251100mm" y2="48.176000mm" />
  <line x1="176.251100mm" y1="48.176000mm" x2="177.078700mm" y2="47.627000mm" />
  <line x1="177.078700mm" y1="47.627000mm" x2="177.914800mm" y2="47.162000mm" />
  <line x1="177.914800mm" y1="47.162000mm" x2="178.759500mm" y2="46.782000mm" />
  <line x1="178.759500mm" y1="46.782000mm" x2="179.612700mm" y2="46.486000mm" />
  <line x1="179.612700mm" y1="46.486000mm" x2="180.474500mm" y2="46.275000mm" />
  <line x1="180.474500mm" y1="46.275000mm" x2="181.344900mm" y2="46.148000mm" />
  <line x1="181.344900mm" y1="46.148000mm" x2="182.223800mm" y2="46.106000mm" />
  <line x1="182.223800mm" y1="46.106000mm" x2="183.545400mm" y2="46.190000mm" />
  <line x1="183.545400mm" y1="46.190000mm" x2="184.728000mm" y2="46.442000mm" />
  <line x1="184.728000mm" y1="46.442000mm" x2="185.771400mm" y2="46.863000mm" />
  <line x1="185.771400mm" y1="46.863000mm" x2="186.675600mm" y2="47.451000mm" />
  <line x1="186.675600mm" y1="47.451000mm" x2="187.440800mm" y2="48.208000mm" />
  <line x1="187.440800mm" y1="48.208000mm" x2="188.066800mm" y2="49.133000mm" />
  <line x1="188.066800mm" y1="49.133000mm" x2="188.553800mm" y2="50.226000mm" />
  <line x1="188.553800mm" y1="50.226000mm" x2="188.901600mm" y2="51.487000mm" />
  <line x1="188.901600mm" y1="51.487000mm" x2="189.110200mm" y2="52.916000mm" />
  <line x1="189.110200mm" y1="52.916000mm" x2="189.179800mm" y2="54.514000mm" />
  <line x1="189.179800mm" y1="54.514000mm" x2="189.179800mm" y2="71.450000mm" />
  <line x1="189.179800mm" y1="71.450000mm" x2="185.467800mm" y2="71.450000mm" />
  <line x1="185.467800mm" y1="71.450000mm" x2="185.467800mm" y2="55.579000mm" />
  <line x1="185.467800mm" y1="55.579000mm" x2="185.457200mm" y2="54.937000mm" />
  <line x1="185.457200mm" y1="54.937000mm" x2="185.425600mm" y2="54.331000mm" />
  <line x1="185.425600mm" y1="54.331000mm" x2="185.372800mm" y2="53.761000mm" />
  <line x1="185.372800mm" y1="53.761000mm" x2="185.298800mm" y2="53.227000mm" />
  <line x1="185.298800mm" y1="53.227000mm" x2="185.203800mm" y2="52.730000mm" />
  <line x1="185.203800mm" y1="52.730000mm" x2="185.087600mm" y2="52.270000mm" />
  <line x1="185.087600mm" y1="52.270000mm" x2="184.950400mm" y2="51.846000mm" />
  <line x1="184.950400mm" y1="51.846000mm" x2="184.792000mm" y2="51.458000mm" />
  <line x1="184.792000mm" y1="51.458000mm" x2="184.612400mm" y2="51.106000mm" />
  <line x1="184.612400mm" y1="51.106000mm" x2="184.411800mm" y2="50.791000mm" />
  <line x1="184.411800mm" y1="50.791000mm" x2="184.188800mm" y2="50.509000mm" />
  <line x1="184.188800mm" y1="50.509000mm" x2="183.941800mm" y2="50.256000mm" />
  <line x1="183.941800mm" y1="50.256000mm" x2="183.670900mm" y2="50.034000mm" />
  <line x1="183.670900mm" y1="50.034000mm" x2="183.376000mm" y2="49.841000mm" />
  <line x1="183.376000mm" y1="49.841000mm" x2="183.057100mm" y2="49.677000mm" />
  <line x1="183.057100mm" y1="49.677000mm" x2="182.714200mm" y2="49.544000mm" />
  <line x1="182.714200mm" y1="49.544000mm" x2="182.347300mm" y2="49.440000mm" />
  <line x1="182.347300mm" y1="49.440000mm" x2="181.956400mm" y2="49.365000mm" />
  <line x1="181.956400mm" y1="49.365000mm" x2="181.541600mm" y2="49.321000mm" />
  <line x1="181.541600mm" y1="49.321000mm" x2="181.102800mm" y2="49.306000mm" />
  <line x1="181.102800mm" y1="49.306000mm" x2="180.419400mm" y2="49.348000mm" />
  <line x1="180.419400mm" y1="49.348000mm" x2="179.726000mm" y2="49.475000mm" />
  <line x1="179.726000mm" y1="49.475000mm" x2="179.022700mm" y2="49.686000mm" />
  <line x1="179.022700mm" y1="49.686000mm" x2="178.309400mm" y2="49.982000mm" />
  <line x1="178.309400mm" y1="49.982000mm" x2="177.586000mm" y2="50.362000mm" />
  <line x1="177.586000mm" y1="50.362000mm" x2="176.852800mm" y2="50.827000mm" />
  <line x1="176.852800mm" y1="50.827000mm" x2="176.109500mm" y2="51.376000mm" />
  <line x1="176.109500mm" y1="51.376000mm" x2="175.356200mm" y2="52.009000mm" />
  <line x1="175.356200mm" y1="52.009000mm" x2="174.593000mm" y2="52.727000mm" />
  <line x1="174.593000mm" y1="52.727000mm" x2="173.819800mm" y2="53.530000mm" />
  <line x1="173.819800mm" y1="53.530000mm" x2="173.819800mm" y2="71.450000mm" />
  <line x1="202.324700mm" y1="71.450000mm" x2="202.324700mm" y2="71.450000mm" />
  <line x1="202.324700mm" y1="71.450000mm" x2="198.612700mm" y2="71.450000mm" />
  <line x1="198.612700mm" y1="71.450000mm" x2="198.612700mm" y2="46.682000mm" />
  <line x1="198.612700mm" y1="46.682000mm" x2="202.324700mm" y2="46.682000mm" />
  <line x1="202.324700mm" y1="46.682000mm" x2="202.324700mm" y2="50.330000mm" />
  <line x1="202.324700mm" y1="50.330000mm" x2="203.126600mm" y2="49.527000mm" />
  <line x1="203.126600mm" y1="49.527000mm" x2="203.937000mm" y2="48.809000mm" />
  <line x1="203.937000mm" y1="48.809000mm" x2="204.756000mm" y2="48.176000mm" />
  <line x1="204.756000mm" y1="48.176000mm" x2="205.583600mm" y2="47.627000mm" />
  <line x1="205.583600mm" y1="47.627000mm" x2="206.419700mm" y2="47.162000mm" />
  <line x1="206.419700mm" y1="47.162000mm" x2="207.264400mm" y2="46.782000mm" />
  <line x1="207.264400mm" y1="46.782000mm" x2="208.117600mm" y2="46.486000mm" />
  <line x1="208.117600mm" y1="46.486000mm" x2="208.979400mm" y2="46.275000mm" />
  <line x1="208.979400mm" y1="46.275000mm" x2="209.849800mm" y2="46.148000mm" />
  <line x1="209.849800mm" y1="46.148000mm" x2="210.728700mm" y2="46.106000mm" />
  <line x1="210.728700mm" y1="46.106000mm" x2="212.050300mm" y2="46.190000mm" />
  <line x1="212.050300mm" y1="46.190000mm" x2="213.232800mm" y2="46.442000mm" />
  <line x1="213.232800mm" y1="46.442000mm" x2="214.276200mm" y2="46.863000mm" />
  <line x1="214.276200mm" y1="46.863000mm" x2="215.180500mm" y2="47.451000mm" />
  <line x1="215.180500mm" y1="47.451000mm" x2="215.945700mm" y2="48.208000mm" />
  <line x1="215.945700mm" y1="48.208000mm" x2="216.571700mm" y2="49.133000mm" />
  <line x1="216.571700mm" y1="49.133000mm" x2="217.058600mm" y2="50.226000mm" />
  <line x1="217.058600mm" y1="50.226000mm" x2="217.406400mm" y2="51.487000mm" />
  <line x1="217.406400mm" y1="51.487000mm" x2="217.615100mm" y2="52.916000mm" />
  <line x1="217.615100mm" y1="52.916000mm" x2="217.684700mm" y2="54.514000mm" />
  <line x1="217.684700mm" y1="54.514000mm" x2="217.684700mm" y2="71.450000mm" />
  <line x1="217.684700mm" y1="71.450000mm" x2="213.972700mm" y2="71.450000mm" />
  <line x1="213.972700mm" y1="71.450000mm" x2="213.972700mm" y2="55.579000mm" />
  <line x1="213.972700mm" y1="55.579000mm" x2="213.962100mm" y2="54.937000mm" />
  <line x1="213.962100mm" y1="54.937000mm" x2="213.930500mm" y2="54.331000mm" />
  <line x1="213.930500mm" y1="54.331000mm" x2="213.877600mm" y2="53.761000mm" />
  <line x1="213.877600mm" y1="53.761000mm" x2="213.803700mm" y2="53.227000mm" />
  <line x1="213.803700mm" y1="53.227000mm" x2="213.708700mm" y2="52.730000mm" />
  <line x1="213.708700mm" y1="52.730000mm" x2="213.592500mm" y2="52.270000mm" />
  <line x1="213.592500mm" y1="52.270000mm" x2="213.455200mm" y2="51.846000mm" />
  <line x1="213.455200mm" y1="51.846000mm" x2="213.296800mm" y2="51.458000mm" />
  <line x1="213.296800mm" y1="51.458000mm" x2="213.117300mm" y2="51.106000mm" />
  <line x1="213.117300mm" y1="51.106000mm" x2="212.916700mm" y2="50.791000mm" />
  <line x1="212.916700mm" y1="50.791000mm" x2="212.693700mm" y2="50.509000mm" />
  <line x1="212.693700mm" y1="50.509000mm" x2="212.446700mm" y2="50.256000mm" />
  <line x1="212.446700mm" y1="50.256000mm" x2="212.175800mm" y2="50.034000mm" />
  <line x1="212.175800mm" y1="50.034000mm" x2="211.880800mm" y2="49.841000mm" />
  <line x1="211.880800mm" y1="49.841000mm" x2="211.561900mm" y2="49.677000mm" />
  <line x1="211.561900mm" y1="49.677000mm" x2="211.219000mm" y2="49.544000mm" />
  <line x1="211.219000mm" y1="49.544000mm" x2="210.852200mm" y2="49.440000mm" />
  <line x1="210.852200mm" y1="49.440000mm" x2="210.461300mm" y2="49.365000mm" />
  <line x1="210.461300mm" y1="49.365000mm" x2="210.046500mm" y2="49.321000mm" />
  <line x1="210.046500mm" y1="49.321000mm" x2="209.607700mm" y2="49.306000mm" />
  <line x1="209.607700mm" y1="49.306000mm" x2="208.924300mm" y2="49.348000mm" />
  <line x1="208.924300mm" y1="49.348000mm" x2="208.230900mm" y2="49.475000mm" />
  <line x1="208.230900mm" y1="49.475000mm" x2="207.527600mm" y2="49.686000mm" />
  <line x1="207.527600mm" y1="49.686000mm" x2="206.814200mm" y2="49.982000mm" />
  <line x1="206.814200mm" y1="49.982000mm" x2="206.090900mm" y2="50.362000mm" />
  <line x1="206.090900mm" y1="50.362000mm" x2="205.357700mm" y2="50.827000mm" />
  <line x1="205.357700mm" y1="50.827000mm" x2="204.614400mm" y2="51.376000mm" />
  <line x1="204.614400mm" y1="51.376000mm" x2="203.861100mm" y2="52.009000mm" />
  <line x1="203.861100mm" y1="52.009000mm" x2="203.097900mm" y2="52.727000mm" />
  <line x1="203.097900mm" y1="52.727000mm" x2="202.324700mm" y2="53.530000mm" />
  <line x1="202.324700mm" y1="53.530000mm" x2="202.324700mm" y2="71.450000mm" />
  <line x1="227.507610mm" y1="53.339000mm" x2="227.507610mm" y2="53.339000mm" />
  <line x1="227.507610mm" y1="53.339000mm" x2="227.501570mm" y2="53.048000mm" />
  <line x1="227.501570mm" y1="53.048000mm" x2="227.529600mm" y2="52.421000mm" />
  <line x1="227.529600mm" y1="52.421000mm" x2="227.613720mm" y2="51.822000mm" />
  <line x1="227.613720mm" y1="51.822000mm" x2="227.753920mm" y2="51.248000mm" />
  <line x1="227.753920mm" y1="51.248000mm" x2="227.950210mm" y2="50.701000mm" />
  <line x1="227.950210mm" y1="50.701000mm" x2="228.202560mm" y2="50.181000mm" />
  <line x1="228.202560mm" y1="50.181000mm" x2="228.511000mm" y2="49.687000mm" />
  <line x1="228.511000mm" y1="49.687000mm" x2="228.875520mm" y2="49.220000mm" />
  <line x1="228.875520mm" y1="49.220000mm" x2="229.296130mm" y2="48.780000mm" />
  <line x1="229.296130mm" y1="48.780000mm" x2="229.772810mm" y2="48.365000mm" />
  <line x1="229.772810mm" y1="48.365000mm" x2="230.305570mm" y2="47.978000mm" />
  <line x1="230.305570mm" y1="47.978000mm" x2="230.884660mm" y2="47.622000mm" />
  <line x1="230.884660mm" y1="47.622000mm" x2="231.500370mm" y2="47.304000mm" />
  <line x1="231.500370mm" y1="47.304000mm" x2="232.152660mm" y2="47.023000mm" />
  <line x1="232.152660mm" y1="47.023000mm" x2="232.841570mm" y2="46.780000mm" />
  <line x1="232.841570mm" y1="46.780000mm" x2="233.567060mm" y2="46.574000mm" />
  <line x1="233.567060mm" y1="46.574000mm" x2="234.329160mm" y2="46.406000mm" />
  <line x1="234.329160mm" y1="46.406000mm" x2="235.127870mm" y2="46.274000mm" />
  <line x1="235.127870mm" y1="46.274000mm" x2="235.963165mm" y2="46.181000mm" />
  <line x1="235.963165mm" y1="46.181000mm" x2="236.835052mm" y2="46.125000mm" />
  <line x1="236.835052mm" y1="46.125000mm" x2="237.743550mm" y2="46.106000mm" />
  <line x1="237.743550mm" y1="46.106000mm" x2="238.349010mm" y2="46.116000mm" />
  <line x1="238.349010mm" y1="46.116000mm" x2="238.967790mm" y2="46.147000mm" />
  <line x1="238.967790mm" y1="46.147000mm" x2="239.599880mm" y2="46.198000mm" />
  <line x1="239.599880mm" y1="46.198000mm" x2="240.245320mm" y2="46.270000mm" />
  <line x1="240.245320mm" y1="46.270000mm" x2="240.904050mm" y2="46.362000mm" />
  <line x1="240.904050mm" y1="46.362000mm" x2="241.576110mm" y2="46.475000mm" />
  <line x1="241.576110mm" y1="46.475000mm" x2="242.261490mm" y2="46.608000mm" />
  <line x1="242.261490mm" y1="46.608000mm" x2="242.960190mm" y2="46.761000mm" />
  <line x1="242.960190mm" y1="46.761000mm" x2="243.672210mm" y2="46.935000mm" />
  <line x1="243.672210mm" y1="46.935000mm" x2="244.397550mm" y2="47.130000mm" />
  <line x1="244.397550mm" y1="47.130000mm" x2="243.569550mm" y2="50.266000mm" />
  <line x1="243.569550mm" y1="50.266000mm" x2="242.952900mm" y2="50.071000mm" />
  <line x1="242.952900mm" y1="50.071000mm" x2="242.343350mm" y2="49.897000mm" />
  <line x1="242.343350mm" y1="49.897000mm" x2="241.740910mm" y2="49.744000mm" />
  <line x1="241.740910mm" y1="49.744000mm" x2="241.145550mm" y2="49.611000mm" />
  <line x1="241.145550mm" y1="49.611000mm" x2="240.557300mm" y2="49.498000mm" />
  <line x1="240.557300mm" y1="49.498000mm" x2="239.976150mm" y2="49.406000mm" />
  <line x1="239.976150mm" y1="49.406000mm" x2="239.402100mm" y2="49.334000mm" />
  <line x1="239.402100mm" y1="49.334000mm" x2="238.835140mm" y2="49.283000mm" />
  <line x1="238.835140mm" y1="49.283000mm" x2="238.275300mm" y2="49.252000mm" />
  <line x1="238.275300mm" y1="49.252000mm" x2="237.722550mm" y2="49.242000mm" />
  <line x1="237.722550mm" y1="49.242000mm" x2="237.133896mm" y2="49.252000mm" />
  <line x1="237.133896mm" y1="49.252000mm" x2="236.570312mm" y2="49.282000mm" />
  <line x1="236.570312mm" y1="49.282000mm" x2="236.031830mm" y2="49.332000mm" />
  <line x1="236.031830mm" y1="49.332000mm" x2="235.518402mm" y2="49.402000mm" />
  <line x1="235.518402mm" y1="49.402000mm" x2="235.030060mm" y2="49.492000mm" />
  <line x1="235.030060mm" y1="49.492000mm" x2="234.566800mm" y2="49.602000mm" />
  <line x1="234.566800mm" y1="49.602000mm" x2="234.128630mm" y2="49.732000mm" />
  <line x1="234.128630mm" y1="49.732000mm" x2="233.715530mm" y2="49.881000mm" />
  <line x1="233.715530mm" y1="49.881000mm" x2="233.327500mm" y2="50.051000mm" />
  <line x1="233.327500mm" y1="50.051000mm" x2="232.964570mm" y2="50.241000mm" />
  <line x1="232.964570mm" y1="50.241000mm" x2="232.631880mm" y2="50.447000mm" />
  <line x1="232.631880mm" y1="50.447000mm" x2="232.334210mm" y2="50.667000mm" />
  <line x1="232.334210mm" y1="50.667000mm" x2="232.071560mm" y2="50.901000mm" />
  <line x1="232.071560mm" y1="50.901000mm" x2="231.843930mm" y2="51.148000mm" />
  <line x1="231.843930mm" y1="51.148000mm" x2="231.651320mm" y2="51.408000mm" />
  <line x1="231.651320mm" y1="51.408000mm" x2="231.493730mm" y2="51.681000mm" />
  <line x1="231.493730mm" y1="51.681000mm" x2="231.371150mm" y2="51.968000mm" />
  <line x1="231.371150mm" y1="51.968000mm" x2="231.283600mm" y2="52.269000mm" />
  <line x1="231.283600mm" y1="52.269000mm" x2="231.231080mm" y2="52.583000mm" />
  <line x1="231.231080mm" y1="52.583000mm" x2="231.213560mm" y2="52.910000mm" />
  <line x1="231.213560mm" y1="52.910000mm" x2="231.221590mm" y2="53.119000mm" />
  <line x1="231.221590mm" y1="53.119000mm" x2="231.245650mm" y2="53.322000mm" />
  <line x1="231.245650mm" y1="53.322000mm" x2="231.285750mm" y2="53.520000mm" />
  <line x1="231.285750mm" y1="53.520000mm" x2="231.341890mm" y2="53.713000mm" />
  <line x1="231.341890mm" y1="53.713000mm" x2="231.414060mm" y2="53.900000mm" />
  <line x1="231.414060mm" y1="53.900000mm" x2="231.502290mm" y2="54.082000mm" />
  <line x1="231.502290mm" y1="54.082000mm" x2="231.606550mm" y2="54.259000mm" />
  <line x1="231.606550mm" y1="54.259000mm" x2="231.726850mm" y2="54.430000mm" />
  <line x1="231.726850mm" y1="54.430000mm" x2="231.863190mm" y2="54.596000mm" />
  <line x1="231.863190mm" y1="54.596000mm" x2="232.015560mm" y2="54.756000mm" />
  <line x1="232.015560mm" y1="54.756000mm" x2="232.192210mm" y2="54.912000mm" />
  <line x1="232.192210mm" y1="54.912000mm" x2="232.400970mm" y2="55.067000mm" />
  <line x1="232.400970mm" y1="55.067000mm" x2="232.641820mm" y2="55.220000mm" />
  <line x1="232.641820mm" y1="55.220000mm" x2="232.914760mm" y2="55.370000mm" />
  <line x1="232.914760mm" y1="55.370000mm" x2="233.219820mm" y2="55.519000mm" />
  <line x1="233.219820mm" y1="55.519000mm" x2="233.556960mm" y2="55.666000mm" />
  <line x1="233.556960mm" y1="55.666000mm" x2="233.926220mm" y2="55.811000mm" />
  <line x1="233.926220mm" y1="55.811000mm" x2="234.327560mm" y2="55.954000mm" />
  <line x1="234.327560mm" y1="55.954000mm" x2="234.761020mm" y2="56.096000mm" />
  <line x1="234.761020mm" y1="56.096000mm" x2="235.226560mm" y2="56.235000mm" />
  <line x1="235.226560mm" y1="56.235000mm" x2="238.744550mm" y2="57.260000mm" />
  <line x1="238.744550mm" y1="57.260000mm" x2="239.222060mm" y2="57.401000mm" />
  <line x1="239.222060mm" y1="57.401000mm" x2="239.681790mm" y2="57.548000mm" />
  <line x1="239.681790mm" y1="57.548000mm" x2="240.123730mm" y2="57.699000mm" />
  <line x1="240.123730mm" y1="57.699000mm" x2="240.547910mm" y2="57.856000mm" />
  <line x1="240.547910mm" y1="57.856000mm" x2="240.954300mm" y2="58.019000mm" />
  <line x1="240.954300mm" y1="58.019000mm" x2="241.342910mm" y2="58.187000mm" />
  <line x1="241.342910mm" y1="58.187000mm" x2="241.713750mm" y2="58.360000mm" />
  <line x1="241.713750mm" y1="58.360000mm" x2="242.066790mm" y2="58.539000mm" />
  <line x1="242.066790mm" y1="58.539000mm" x2="242.402050mm" y2="58.723000mm" />
  <line x1="242.402050mm" y1="58.723000mm" x2="242.719540mm" y2="58.912000mm" />
  <line x1="242.719540mm" y1="58.912000mm" x2="243.020430mm" y2="59.108000mm" />
  <line x1="243.020430mm" y1="59.108000mm" x2="243.305880mm" y2="59.312000mm" />
  <line x1="243.305880mm" y1="59.312000mm" x2="243.575870mm" y2="59.524000mm" />
  <line x1="243.575870mm" y1="59.524000mm" x2="243.830430mm" y2="59.744000mm" />
  <line x1="243.830430mm" y1="59.744000mm" x2="244.069550mm" y2="59.972000mm" />
  <line x1="244.069550mm" y1="59.972000mm" x2="244.293230mm" y2="60.208000mm" />
  <line x1="244.293230mm" y1="60.208000mm" x2="244.501460mm" y2="60.453000mm" />
  <line x1="244.501460mm" y1="60.453000mm" x2="244.694270mm" y2="60.705000mm" />
  <line x1="244.694270mm" y1="60.705000mm" x2="244.871630mm" y2="60.965000mm" />
  <line x1="244.871630mm" y1="60.965000mm" x2="245.033550mm" y2="61.234000mm" />
  <line x1="245.033550mm" y1="61.234000mm" x2="245.180240mm" y2="61.511000mm" />
  <line x1="245.180240mm" y1="61.511000mm" x2="245.311480mm" y2="61.796000mm" />
  <line x1="245.311480mm" y1="61.796000mm" x2="245.427280mm" y2="62.091000mm" />
  <line x1="245.427280mm" y1="62.091000mm" x2="245.527630mm" y2="62.394000mm" />
  <line x1="245.527630mm" y1="62.394000mm" x2="245.612550mm" y2="62.706000mm" />
  <line x1="245.612550mm" y1="62.706000mm" x2="245.682040mm" y2="63.026000mm" />
  <line x1="245.682040mm" y1="63.026000mm" x2="245.736070mm" y2="63.356000mm" />
  <line x1="245.736070mm" y1="63.356000mm" x2="245.774670mm" y2="63.694000mm" />
  <line x1="245.774670mm" y1="63.694000mm" x2="245.797840mm" y2="64.041000mm" />
  <line x1="245.797840mm" y1="64.041000mm" x2="245.805560mm" y2="64.397000mm" />
  <line x1="245.805560mm" y1="64.397000mm" x2="245.775860mm" y2="65.088000mm" />
  <line x1="245.775860mm" y1="65.088000mm" x2="245.686800mm" y2="65.750000mm" />
  <line x1="245.686800mm" y1="65.750000mm" x2="245.538350mm" y2="66.382000mm" />
  <line x1="245.538350mm" y1="66.382000mm" x2="245.330510mm" y2="66.984000mm" />
  <line x1="245.330510mm" y1="66.984000mm" x2="245.063290mm" y2="67.557000mm" />
  <line x1="245.063290mm" y1="67.557000mm" x2="244.736710mm" y2="68.100000mm" />
  <line x1="244.736710mm" y1="68.100000mm" x2="244.350740mm" y2="68.614000mm" />
  <line x1="244.350740mm" y1="68.614000mm" x2="243.905400mm" y2="69.098000mm" />
  <line x1="243.905400mm" y1="69.098000mm" x2="243.400670mm" y2="69.552000mm" />
  <line x1="243.400670mm" y1="69.552000mm" x2="242.836550mm" y2="69.977000mm" />
  <line x1="242.836550mm" y1="69.977000mm" x2="242.226810mm" y2="70.366000mm" />
  <line x1="242.226810mm" y1="70.366000mm" x2="241.584750mm" y2="70.715000mm" />
  <line x1="241.584750mm" y1="70.715000mm" x2="240.910400mm" y2="71.022000mm" />
  <line x1="240.910400mm" y1="71.022000mm" x2="240.203750mm" y2="71.288000mm" />
  <line x1="240.203750mm" y1="71.288000mm" x2="239.464800mm" y2="71.514000mm" />
  <line x1="239.464800mm" y1="71.514000mm" x2="238.693560mm" y2="71.698000mm" />
  <line x1="238.693560mm" y1="71.698000mm" x2="237.890000mm" y2="71.842000mm" />
  <line x1="237.890000mm" y1="71.842000mm" x2="237.054153mm" y2="71.944000mm" />
  <line x1="237.054153mm" y1="71.944000mm" x2="236.186020mm" y2="72.005000mm" />
  <line x1="236.186020mm" y1="72.005000mm" x2="235.285568mm" y2="72.026000mm" />
  <line x1="235.285568mm" y1="72.026000mm" x2="234.389480mm" y2="72.012000mm" />
  <line x1="234.389480mm" y1="72.012000mm" x2="233.525250mm" y2="71.970000mm" />
  <line x1="233.525250mm" y1="71.970000mm" x2="232.692840mm" y2="71.899000mm" />
  <line x1="232.692840mm" y1="71.899000mm" x2="231.892290mm" y2="71.801000mm" />
  <line x1="231.892290mm" y1="71.801000mm" x2="231.123570mm" y2="71.674000mm" />
  <line x1="231.123570mm" y1="71.674000mm" x2="230.386690mm" y2="71.519000mm" />
  <line x1="230.386690mm" y1="71.519000mm" x2="229.681640mm" y2="71.336000mm" />
  <line x1="229.681640mm" y1="71.336000mm" x2="229.008450mm" y2="71.125000mm" />
  <line x1="229.008450mm" y1="71.125000mm" x2="228.367080mm" y2="70.886000mm" />
  <line x1="228.367080mm" y1="70.886000mm" x2="227.757570mm" y2="70.618000mm" />
  <line x1="227.757570mm" y1="70.618000mm" x2="228.469560mm" y2="67.418000mm" />
  <line x1="228.469560mm" y1="67.418000mm" x2="229.095890mm" y2="67.698000mm" />
  <line x1="229.095890mm" y1="67.698000mm" x2="229.731250mm" y2="67.948000mm" />
  <line x1="229.731250mm" y1="67.948000mm" x2="230.375640mm" y2="68.169000mm" />
  <line x1="230.375640mm" y1="68.169000mm" x2="231.029080mm" y2="68.360000mm" />
  <line x1="231.029080mm" y1="68.360000mm" x2="231.691560mm" y2="68.522000mm" />
  <line x1="231.691560mm" y1="68.522000mm" x2="232.363080mm" y2="68.654000mm" />
  <line x1="232.363080mm" y1="68.654000mm" x2="233.043640mm" y2="68.758000mm" />
  <line x1="233.043640mm" y1="68.758000mm" x2="233.733250mm" y2="68.831000mm" />
  <line x1="233.733250mm" y1="68.831000mm" x2="234.431880mm" y2="68.875000mm" />
  <line x1="234.431880mm" y1="68.875000mm" x2="235.139570mm" y2="68.890000mm" />
  <line x1="235.139570mm" y1="68.890000mm" x2="235.745056mm" y2="68.879000mm" />
  <line x1="235.745056mm" y1="68.879000mm" x2="236.327515mm" y2="68.844000mm" />
  <line x1="236.327515mm" y1="68.844000mm" x2="236.886963mm" y2="68.787000mm" />
  <line x1="236.886963mm" y1="68.787000mm" x2="237.423390mm" y2="68.707000mm" />
  <line x1="237.423390mm" y1="68.707000mm" x2="237.936800mm" y2="68.605000mm" />
  <line x1="237.936800mm" y1="68.605000mm" x2="238.427190mm" y2="68.479000mm" />
  <line x1="238.427190mm" y1="68.479000mm" x2="238.894560mm" y2="68.331000mm" />
  <line x1="238.894560mm" y1="68.331000mm" x2="239.338910mm" y2="68.160000mm" />
  <line x1="239.338910mm" y1="68.160000mm" x2="239.760240mm" y2="67.966000mm" />
  <line x1="239.760240mm" y1="67.966000mm" x2="240.158550mm" y2="67.749000mm" />
  <line x1="240.158550mm" y1="67.749000mm" x2="240.526200mm" y2="67.513000mm" />
  <line x1="240.526200mm" y1="67.513000mm" x2="240.855150mm" y2="67.263000mm" />
  <line x1="240.855150mm" y1="67.263000mm" x2="241.145400mm" y2="66.997000mm" />
  <line x1="241.145400mm" y1="66.997000mm" x2="241.396960mm" y2="66.717000mm" />
  <line x1="241.396960mm" y1="66.717000mm" x2="241.609800mm" y2="66.422000mm" />
  <line x1="241.609800mm" y1="66.422000mm" x2="241.783950mm" y2="66.112000mm" />
  <line x1="241.783950mm" y1="66.112000mm" x2="241.919400mm" y2="65.787000mm" />
  <line x1="241.919400mm" y1="65.787000mm" x2="242.016140mm" y2="65.448000mm" />
  <line x1="242.016140mm" y1="65.448000mm" x2="242.074200mm" y2="65.093000mm" />
  <line x1="242.074200mm" y1="65.093000mm" x2="242.093550mm" y2="64.724000mm" />
  <line x1="242.093550mm" y1="64.724000mm" x2="242.084080mm" y2="64.473000mm" />
  <line x1="242.084080mm" y1="64.473000mm" x2="242.055630mm" y2="64.226000mm" />
  <line x1="242.055630mm" y1="64.226000mm" x2="242.008220mm" y2="63.986000mm" />
  <line x1="242.008220mm" y1="63.986000mm" x2="241.941860mm" y2="63.751000mm" />
  <line x1="241.941860mm" y1="63.751000mm" x2="241.856550mm" y2="63.521000mm" />
  <line x1="241.856550mm" y1="63.521000mm" x2="241.752270mm" y2="63.296000mm" />
  <line x1="241.752270mm" y1="63.296000mm" x2="241.629030mm" y2="63.077000mm" />
  <line x1="241.629030mm" y1="63.077000mm" x2="241.486830mm" y2="62.864000mm" />
  <line x1="241.486830mm" y1="62.864000mm" x2="241.325670mm" y2="62.656000mm" />
  <line x1="241.325670mm" y1="62.656000mm" x2="241.145550mm" y2="62.453000mm" />
  <line x1="241.145550mm" y1="62.453000mm" x2="240.929750mm" y2="62.252000mm" />
  <line x1="240.929750mm" y1="62.252000mm" x2="240.661540mm" y2="62.049000mm" />
  <line x1="240.661540mm" y1="62.049000mm" x2="240.340960mm" y2="61.844000mm" />
  <line x1="240.340960mm" y1="61.844000mm" x2="239.967960mm" y2="61.637000mm" />
  <line x1="239.967960mm" y1="61.637000mm" x2="239.542560mm" y2="61.428000mm" />
  <line x1="239.542560mm" y1="61.428000mm" x2="239.064760mm" y2="61.218000mm" />
  <line x1="239.064760mm" y1="61.218000mm" x2="238.534550mm" y2="61.005000mm" />
  <line x1="238.534550mm" y1="61.005000mm" x2="237.951950mm" y2="60.791000mm" />
  <line x1="237.951950mm" y1="60.791000mm" x2="237.316960mm" y2="60.574000mm" />
  <line x1="237.316960mm" y1="60.574000mm" x2="236.629547mm" y2="60.356000mm" />
  <line x1="236.629547mm" y1="60.356000mm" x2="235.039230mm" y2="59.866000mm" />
  <line x1="235.039230mm" y1="59.866000mm" x2="233.345230mm" y2="59.337000mm" />
  <line x1="233.345230mm" y1="59.337000mm" x2="232.394560mm" y2="59.033000mm" />
  <line x1="232.394560mm" y1="59.033000mm" x2="232.125290mm" y2="58.941000mm" />
  <line x1="232.125290mm" y1="58.941000mm" x2="231.859890mm" y2="58.840000mm" />
  <line x1="231.859890mm" y1="58.840000mm" x2="231.598340mm" y2="58.731000mm" />
  <line x1="231.598340mm" y1="58.731000mm" x2="231.340650mm" y2="58.614000mm" />
  <line x1="231.340650mm" y1="58.614000mm" x2="231.086820mm" y2="58.489000mm" />
  <line x1="231.086820mm" y1="58.489000mm" x2="230.836850mm" y2="58.355000mm" />
  <line x1="230.836850mm" y1="58.355000mm" x2="230.590730mm" y2="58.214000mm" />
  <line x1="230.590730mm" y1="58.214000mm" x2="230.348480mm" y2="58.064000mm" />
  <line x1="230.348480mm" y1="58.064000mm" x2="230.110090mm" y2="57.905000mm" />
  <line x1="230.110090mm" y1="57.905000mm" x2="229.875560mm" y2="57.739000mm" />
  <line x1="229.875560mm" y1="57.739000mm" x2="229.648530mm" y2="57.565000mm" />
  <line x1="229.648530mm" y1="57.565000mm" x2="229.432650mm" y2="57.385000mm" />
  <line x1="229.432650mm" y1="57.385000mm" x2="229.227890mm" y2="57.197000mm" />
  <line x1="229.227890mm" y1="57.197000mm" x2="229.034290mm" y2="57.004000mm" />
  <line x1="229.034290mm" y1="57.004000mm" x2="228.851820mm" y2="56.803000mm" />
  <line x1="228.851820mm" y1="56.803000mm" x2="228.680480mm" y2="56.596000mm" />
  <line x1="228.680480mm" y1="56.596000mm" x2="228.520290mm" y2="56.383000mm" />
  <line x1="228.520290mm" y1="56.383000mm" x2="228.371250mm" y2="56.162000mm" />
  <line x1="228.371250mm" y1="56.162000mm" x2="228.233340mm" y2="55.935000mm" />
  <line x1="228.233340mm" y1="55.935000mm" x2="228.106570mm" y2="55.702000mm" />
  <line x1="228.106570mm" y1="55.702000mm" x2="227.991620mm" y2="55.462000mm" />
  <line x1="227.991620mm" y1="55.462000mm" x2="227.888760mm" y2="55.217000mm" />
  <line x1="227.888760mm" y1="55.217000mm" x2="227.798020mm" y2="54.965000mm" />
  <line x1="227.798020mm" y1="54.965000mm" x2="227.719360mm" y2="54.709000mm" />
  <line x1="227.719360mm" y1="54.709000mm" x2="227.652820mm" y2="54.446000mm" />
  <line x1="227.652820mm" y1="54.446000mm" x2="227.598370mm" y2="54.178000mm" />
  <line x1="227.598370mm" y1="54.178000mm" x2="227.556020mm" y2="53.904000mm" />
  <line x1="227.556020mm" y1="53.904000mm" x2="227.525770mm" y2="53.624000mm" />
  <line x1="227.525770mm" y1="53.624000mm" x2="227.507610mm" y2="53.339000mm" />
  <line x1="254.697200mm" y1="60.218000mm" x2="254.697200mm" y2="60.218000mm" />
  <line x1="254.697200mm" y1="60.218000mm" x2="254.662400mm" y2="59.066000mm" />
  <line x1="254.662400mm" y1="59.066000mm" x2="254.697500mm" y2="57.914000mm" />
  <line x1="254.697500mm" y1="57.914000mm" x2="254.802800mm" y2="56.809000mm" />
  <line x1="254.802800mm" y1="56.809000mm" x2="254.978200mm" y2="55.750000mm" />
  <line x1="254.978200mm" y1="55.750000mm" x2="255.223900mm" y2="54.739000mm" />
  <line x1="255.223900mm" y1="54.739000mm" x2="255.539700mm" y2="53.773000mm" />
  <line x1="255.539700mm" y1="53.773000mm" x2="255.925700mm" y2="52.855000mm" />
  <line x1="255.925700mm" y1="52.855000mm" x2="256.381900mm" y2="51.983000mm" />
  <line x1="256.381900mm" y1="51.983000mm" x2="256.908200mm" y2="51.158000mm" />
  <line x1="256.908200mm" y1="51.158000mm" x2="257.504700mm" y2="50.380000mm" />
  <line x1="257.504700mm" y1="50.380000mm" x2="258.171400mm" y2="49.648000mm" />
  <line x1="258.171400mm" y1="49.648000mm" x2="258.895200mm" y2="48.975000mm" />
  <line x1="258.895200mm" y1="48.975000mm" x2="259.663000mm" y2="48.373000mm" />
  <line x1="259.663000mm" y1="48.373000mm" x2="260.474800mm" y2="47.842000mm" />
  <line x1="260.474800mm" y1="47.842000mm" x2="261.330600mm" y2="47.381000mm" />
  <line x1="261.330600mm" y1="47.381000mm" x2="262.230400mm" y2="46.991000mm" />
  <line x1="262.230400mm" y1="46.991000mm" x2="263.174200mm" y2="46.673000mm" />
  <line x1="263.174200mm" y1="46.673000mm" x2="264.162000mm" y2="46.425000mm" />
  <line x1="264.162000mm" y1="46.425000mm" x2="265.193800mm" y2="46.248000mm" />
  <line x1="265.193800mm" y1="46.248000mm" x2="266.269600mm" y2="46.141000mm" />
  <line x1="266.269600mm" y1="46.141000mm" x2="267.389400mm" y2="46.106000mm" />
  <line x1="267.389400mm" y1="46.106000mm" x2="268.132900mm" y2="46.119000mm" />
  <line x1="268.132900mm" y1="46.119000mm" x2="268.869200mm" y2="46.157000mm" />
  <line x1="268.869200mm" y1="46.157000mm" x2="269.598300mm" y2="46.221000mm" />
  <line x1="269.598300mm" y1="46.221000mm" x2="270.320300mm" y2="46.311000mm" />
  <line x1="270.320300mm" y1="46.311000mm" x2="271.035200mm" y2="46.426000mm" />
  <line x1="271.035200mm" y1="46.426000mm" x2="271.742900mm" y2="46.567000mm" />
  <line x1="271.742900mm" y1="46.567000mm" x2="272.443500mm" y2="46.733000mm" />
  <line x1="272.443500mm" y1="46.733000mm" x2="273.136900mm" y2="46.925000mm" />
  <line x1="273.136900mm" y1="46.925000mm" x2="273.823300mm" y2="47.143000mm" />
  <line x1="273.823300mm" y1="47.143000mm" x2="274.502400mm" y2="47.386000mm" />
  <line x1="274.502400mm" y1="47.386000mm" x2="273.523400mm" y2="50.458000mm" />
  <line x1="273.523400mm" y1="50.458000mm" x2="272.851900mm" y2="50.239000mm" />
  <line x1="272.851900mm" y1="50.239000mm" x2="272.193800mm" y2="50.043000mm" />
  <line x1="272.193800mm" y1="50.043000mm" x2="271.549000mm" y2="49.870000mm" />
  <line x1="271.549000mm" y1="49.870000mm" x2="270.917500mm" y2="49.721000mm" />
  <line x1="270.917500mm" y1="49.721000mm" x2="270.299400mm" y2="49.594000mm" />
  <line x1="270.299400mm" y1="49.594000mm" x2="269.694700mm" y2="49.490000mm" />
  <line x1="269.694700mm" y1="49.490000mm" x2="269.103300mm" y2="49.410000mm" />
  <line x1="269.103300mm" y1="49.410000mm" x2="268.525400mm" y2="49.352000mm" />
  <line x1="268.525400mm" y1="49.352000mm" x2="267.960700mm" y2="49.318000mm" />
  <line x1="267.960700mm" y1="49.318000mm" x2="267.409400mm" y2="49.306000mm" />
  <line x1="267.409400mm" y1="49.306000mm" x2="266.605100mm" y2="49.332000mm" />
  <line x1="266.605100mm" y1="49.332000mm" x2="265.834900mm" y2="49.411000mm" />
  <line x1="265.834900mm" y1="49.411000mm" x2="265.098900mm" y2="49.543000mm" />
  <line x1="265.098900mm" y1="49.543000mm" x2="264.397000mm" y2="49.727000mm" />
  <line x1="264.397000mm" y1="49.727000mm" x2="263.729200mm" y2="49.964000mm" />
  <line x1="263.729200mm" y1="49.964000mm" x2="263.095600mm" y2="50.254000mm" />
  <line x1="263.095600mm" y1="50.254000mm" x2="262.496100mm" y2="50.596000mm" />
  <line x1="262.496100mm" y1="50.596000mm" x2="261.930700mm" y2="50.991000mm" />
  <line x1="261.930700mm" y1="50.991000mm" x2="261.399500mm" y2="51.439000mm" />
  <line x1="261.399500mm" y1="51.439000mm" x2="260.902400mm" y2="51.939000mm" />
  <line x1="260.902400mm" y1="51.939000mm" x2="260.446400mm" y2="52.484000mm" />
  <line x1="260.446400mm" y1="52.484000mm" x2="260.038400mm" y2="53.067000mm" />
  <line x1="260.038400mm" y1="53.067000mm" x2="259.678400mm" y2="53.687000mm" />
  <line x1="259.678400mm" y1="53.687000mm" x2="259.366400mm" y2="54.345000mm" />
  <line x1="259.366400mm" y1="54.345000mm" x2="259.102400mm" y2="55.040000mm" />
  <line x1="259.102400mm" y1="55.040000mm" x2="258.886400mm" y2="55.772000mm" />
  <line x1="258.886400mm" y1="55.772000mm" x2="258.718400mm" y2="56.543000mm" />
  <line x1="258.718400mm" y1="56.543000mm" x2="258.598400mm" y2="57.350000mm" />
  <line x1="258.598400mm" y1="57.350000mm" x2="258.526400mm" y2="58.195000mm" />
  <line x1="258.526400mm" y1="58.195000mm" x2="258.502400mm" y2="59.078000mm" />
  <line x1="258.502400mm" y1="59.078000mm" x2="258.527200mm" y2="59.890000mm" />
  <line x1="258.527200mm" y1="59.890000mm" x2="258.601500mm" y2="60.676000mm" />
  <line x1="258.601500mm" y1="60.676000mm" x2="258.725400mm" y2="61.436000mm" />
  <line x1="258.725400mm" y1="61.436000mm" x2="258.898900mm" y2="62.169000mm" />
  <line x1="258.898900mm" y1="62.169000mm" x2="259.121900mm" y2="62.876000mm" />
  <line x1="259.121900mm" y1="62.876000mm" x2="259.394500mm" y2="63.557000mm" />
  <line x1="259.394500mm" y1="63.557000mm" x2="259.716700mm" y2="64.211000mm" />
  <line x1="259.716700mm" y1="64.211000mm" x2="260.088300mm" y2="64.839000mm" />
  <line x1="260.088300mm" y1="64.839000mm" x2="260.509600mm" y2="65.441000mm" />
  <line x1="260.509600mm" y1="65.441000mm" x2="260.980400mm" y2="66.016000mm" />
  <line x1="260.980400mm" y1="66.016000mm" x2="261.491300mm" y2="66.550000mm" />
  <line x1="261.491300mm" y1="66.550000mm" x2="262.032100mm" y2="67.028000mm" />
  <line x1="262.032100mm" y1="67.028000mm" x2="262.603000mm" y2="67.449000mm" />
  <line x1="262.603000mm" y1="67.449000mm" x2="263.203900mm" y2="67.814000mm" />
  <line x1="263.203900mm" y1="67.814000mm" x2="263.834900mm" y2="68.123000mm" />
  <line x1="263.834900mm" y1="68.123000mm" x2="264.496000mm" y2="68.376000mm" />
  <line x1="264.496000mm" y1="68.376000mm" x2="265.187000mm" y2="68.573000mm" />
  <line x1="265.187000mm" y1="68.573000mm" x2="265.908100mm" y2="68.714000mm" />
  <line x1="265.908100mm" y1="68.714000mm" x2="266.659300mm" y2="68.798000mm" />
  <line x1="266.659300mm" y1="68.798000mm" x2="267.440400mm" y2="68.826000mm" />
  <line x1="267.440400mm" y1="68.826000mm" x2="268.071500mm" y2="68.814000mm" />
  <line x1="268.071500mm" y1="68.814000mm" x2="268.706400mm" y2="68.777000mm" />
  <line x1="268.706400mm" y1="68.777000mm" x2="269.345100mm" y2="68.717000mm" />
  <line x1="269.345100mm" y1="68.717000mm" x2="269.987600mm" y2="68.631000mm" />
  <line x1="269.987600mm" y1="68.631000mm" x2="270.633900mm" y2="68.522000mm" />
  <line x1="270.633900mm" y1="68.522000mm" x2="271.284000mm" y2="68.388000mm" />
  <line x1="271.284000mm" y1="68.388000mm" x2="271.937900mm" y2="68.230000mm" />
  <line x1="271.937900mm" y1="68.230000mm" x2="272.595600mm" y2="68.048000mm" />
  <line x1="272.595600mm" y1="68.048000mm" x2="273.257100mm" y2="67.841000mm" />
  <line x1="273.257100mm" y1="67.841000mm" x2="273.922400mm" y2="67.610000mm" />
  <line x1="273.922400mm" y1="67.610000mm" x2="274.566400mm" y2="70.554000mm" />
  <line x1="274.566400mm" y1="70.554000mm" x2="273.914000mm" y2="70.834000mm" />
  <line x1="273.914000mm" y1="70.834000mm" x2="273.248700mm" y2="71.084000mm" />
  <line x1="273.248700mm" y1="71.084000mm" x2="272.570600mm" y2="71.305000mm" />
  <line x1="272.570600mm" y1="71.305000mm" x2="271.879700mm" y2="71.496000mm" />
  <line x1="271.879700mm" y1="71.496000mm" x2="271.175900mm" y2="71.658000mm" />
  <line x1="271.175900mm" y1="71.658000mm" x2="270.459300mm" y2="71.790000mm" />
  <line x1="270.459300mm" y1="71.790000mm" x2="269.729900mm" y2="71.894000mm" />
  <line x1="269.729900mm" y1="71.894000mm" x2="268.987500mm" y2="71.967000mm" />
  <line x1="268.987500mm" y1="71.967000mm" x2="268.232400mm" y2="72.011000mm" />
  <line x1="268.232400mm" y1="72.011000mm" x2="267.464400mm" y2="72.026000mm" />
  <line x1="267.464400mm" y1="72.026000mm" x2="266.319500mm" y2="71.991000mm" />
  <line x1="266.319500mm" y1="71.991000mm" x2="265.221800mm" y2="71.884000mm" />
  <line x1="265.221800mm" y1="71.884000mm" x2="264.171300mm" y2="71.707000mm" />
  <line x1="264.171300mm" y1="71.707000mm" x2="263.168100mm" y2="71.459000mm" />
  <line x1="263.168100mm" y1="71.459000mm" x2="262.212200mm" y2="71.140000mm" />
  <line x1="262.212200mm" y1="71.140000mm" x2="261.303500mm" y2="70.751000mm" />
  <line x1="261.303500mm" y1="70.751000mm" x2="260.442100mm" y2="70.290000mm" />
  <line x1="260.442100mm" y1="70.290000mm" x2="259.628000mm" y2="69.759000mm" />
  <line x1="259.628000mm" y1="69.759000mm" x2="258.861100mm" y2="69.157000mm" />
  <line x1="258.861100mm" y1="69.157000mm" x2="258.141400mm" y2="68.484000mm" />
  <line x1="258.141400mm" y1="68.484000mm" x2="257.480400mm" y2="67.752000mm" />
  <line x1="257.480400mm" y1="67.752000mm" x2="256.889000mm" y2="66.974000mm" />
  <line x1="256.889000mm" y1="66.974000mm" x2="256.367100mm" y2="66.149000mm" />
  <line x1="256.367100mm" y1="66.149000mm" x2="255.914900mm" y2="65.277000mm" />
  <line x1="255.914900mm" y1="65.277000mm" x2="255.532200mm" y2="64.358000mm" />
  <line x1="255.532200mm" y1="64.358000mm" x2="255.219100mm" y2="63.393000mm" />
  <line x1="255.219100mm" y1="63.393000mm" x2="254.975500mm" y2="62.382000mm" />
  <line x1="254.975500mm" y1="62.382000mm" x2="254.801600mm" y2="61.323000mm" />
  <line x1="254.801600mm" y1="61.323000mm" x2="254.697200mm" y2="60.218000mm" />
  <line x1="290.463300mm" y1="71.450000mm" x2="290.463300mm" y2="71.450000mm" />
  <line x1="290.463300mm" y1="71.450000mm" x2="286.751300mm" y2="71.450000mm" />
  <line x1="286.751300mm" y1="71.450000mm" x2="286.751300mm" y2="46.682000mm" />
  <line x1="286.751300mm" y1="46.682000mm" x2="290.463300mm" y2="46.682000mm" />
  <line x1="290.463300mm" y1="46.682000mm" x2="290.463300mm" y2="51.738000mm" />
  <line x1="290.463300mm" y1="51.738000mm" x2="291.074100mm" y2="50.668000mm" />
  <line x1="291.074100mm" y1="50.668000mm" x2="291.719900mm" y2="49.710000mm" />
  <line x1="291.719900mm" y1="49.710000mm" x2="292.400900mm" y2="48.866000mm" />
  <line x1="292.400900mm" y1="48.866000mm" x2="293.116900mm" y2="48.134000mm" />
  <line x1="293.116900mm" y1="48.134000mm" x2="293.868100mm" y2="47.514000mm" />
  <line x1="293.868100mm" y1="47.514000mm" x2="294.654300mm" y2="47.007000mm" />
  <line x1="294.654300mm" y1="47.007000mm" x2="295.475700mm" y2="46.613000mm" />
  <line x1="295.475700mm" y1="46.613000mm" x2="296.332100mm" y2="46.331000mm" />
  <line x1="296.332100mm" y1="46.331000mm" x2="297.223700mm" y2="46.162000mm" />
  <line x1="297.223700mm" y1="46.162000mm" x2="298.150300mm" y2="46.106000mm" />
  <line x1="298.150300mm" y1="46.106000mm" x2="298.708600mm" y2="46.118000mm" />
  <line x1="298.708600mm" y1="46.118000mm" x2="299.263600mm" y2="46.155000mm" />
  <line x1="299.263600mm" y1="46.155000mm" x2="299.815300mm" y2="46.215000mm" />
  <line x1="299.815300mm" y1="46.215000mm" x2="300.363600mm" y2="46.301000mm" />
  <line x1="300.363600mm" y1="46.301000mm" x2="300.908600mm" y2="46.410000mm" />
  <line x1="300.908600mm" y1="46.410000mm" x2="301.450200mm" y2="46.544000mm" />
  <line x1="301.450200mm" y1="46.544000mm" x2="301.988500mm" y2="46.702000mm" />
  <line x1="301.988500mm" y1="46.702000mm" x2="302.523400mm" y2="46.884000mm" />
  <line x1="302.523400mm" y1="46.884000mm" x2="303.055100mm" y2="47.091000mm" />
  <line x1="303.055100mm" y1="47.091000mm" x2="303.583300mm" y2="47.322000mm" />
  <line x1="303.583300mm" y1="47.322000mm" x2="302.088300mm" y2="50.906000mm" />
  <line x1="302.088300mm" y1="50.906000mm" x2="301.606400mm" y2="50.711000mm" />
  <line x1="301.606400mm" y1="50.711000mm" x2="301.137600mm" y2="50.537000mm" />
  <line x1="301.137600mm" y1="50.537000mm" x2="300.682200mm" y2="50.384000mm" />
  <line x1="300.682200mm" y1="50.384000mm" x2="300.240000mm" y2="50.251000mm" />
  <line x1="300.240000mm" y1="50.251000mm" x2="299.811100mm" y2="50.138000mm" />
  <line x1="299.811100mm" y1="50.138000mm" x2="299.395400mm" y2="50.046000mm" />
  <line x1="299.395400mm" y1="50.046000mm" x2="298.993000mm" y2="49.974000mm" />
  <line x1="298.993000mm" y1="49.974000mm" x2="298.603800mm" y2="49.923000mm" />
  <line x1="298.603800mm" y1="49.923000mm" x2="298.228000mm" y2="49.892000mm" />
  <line x1="298.228000mm" y1="49.892000mm" x2="297.865300mm" y2="49.882000mm" />
  <line x1="297.865300mm" y1="49.882000mm" x2="297.538600mm" y2="49.891000mm" />
  <line x1="297.538600mm" y1="49.891000mm" x2="297.213400mm" y2="49.919000mm" />
  <line x1="297.213400mm" y1="49.919000mm" x2="296.889500mm" y2="49.966000mm" />
  <line x1="296.889500mm" y1="49.966000mm" x2="296.567100mm" y2="50.032000mm" />
  <line x1="296.567100mm" y1="50.032000mm" x2="296.246100mm" y2="50.116000mm" />
  <line x1="296.246100mm" y1="50.116000mm" x2="295.926500mm" y2="50.219000mm" />
  <line x1="295.926500mm" y1="50.219000mm" x2="295.608300mm" y2="50.341000mm" />
  <line x1="295.608300mm" y1="50.341000mm" x2="295.291500mm" y2="50.481000mm" />
  <line x1="295.291500mm" y1="50.481000mm" x2="294.976200mm" y2="50.640000mm" />
  <line x1="294.976200mm" y1="50.640000mm" x2="294.662300mm" y2="50.818000mm" />
  <line x1="294.662300mm" y1="50.818000mm" x2="294.351600mm" y2="51.013000mm" />
  <line x1="294.351600mm" y1="51.013000mm" x2="294.045900mm" y2="51.225000mm" />
  <line x1="294.045900mm" y1="51.225000mm" x2="293.745100mm" y2="51.452000mm" />
  <line x1="293.745100mm" y1="51.452000mm" x2="293.449400mm" y2="51.696000mm" />
  <line x1="293.449400mm" y1="51.696000mm" x2="293.158600mm" y2="51.955000mm" />
  <line x1="293.158600mm" y1="51.955000mm" x2="292.872800mm" y2="52.231000mm" />
  <line x1="292.872800mm" y1="52.231000mm" x2="292.591900mm" y2="52.523000mm" />
  <line x1="292.591900mm" y1="52.523000mm" x2="292.316100mm" y2="52.831000mm" />
  <line x1="292.316100mm" y1="52.831000mm" x2="292.045200mm" y2="53.156000mm" />
  <line x1="292.045200mm" y1="53.156000mm" x2="291.779300mm" y2="53.496000mm" />
  <line x1="291.779300mm" y1="53.496000mm" x2="291.529300mm" y2="53.829000mm" />
  <line x1="291.529300mm" y1="53.829000mm" x2="291.305600mm" y2="54.131000mm" />
  <line x1="291.305600mm" y1="54.131000mm" x2="291.108200mm" y2="54.403000mm" />
  <line x1="291.108200mm" y1="54.403000mm" x2="290.937100mm" y2="54.644000mm" />
  <line x1="290.937100mm" y1="54.644000mm" x2="290.792300mm" y2="54.855000mm" />
  <line x1="290.792300mm" y1="54.855000mm" x2="290.673900mm" y2="55.035000mm" />
  <line x1="290.673900mm" y1="55.035000mm" x2="290.581800mm" y2="55.185000mm" />
  <line x1="290.581800mm" y1="55.185000mm" x2="290.516000mm" y2="55.304000mm" />
  <line x1="290.516000mm" y1="55.304000mm" x2="290.476500mm" y2="55.392000mm" />
  <line x1="290.476500mm" y1="55.392000mm" x2="290.463300mm" y2="55.450000mm" />
  <line x1="290.463300mm" y1="55.450000mm" x2="290.463300mm" y2="71.450000mm" />
  <circle cx="356.950221mm" cy="59.319698mm" r="1.500135mm" fill="none"/>
  <line x1="359.950491mm" y1="59.319698mm" x2="353.949951mm" y2="59.319698mm" />
  <line x1="356.950221mm" y1="56.319428mm" x2="356.950221mm" y2="62.319968mm" />
  <text x="358mm" y="57mm" font-size="24">
   3.0
  </text>
  <circle cx="356.950221mm" cy="53.519698mm" r="1.500135mm" fill="none"/>
  <line x1="359.950491mm" y1="53.519698mm" x2="353.949951mm" y2="53.519698mm" />
  <line x1="356.950221mm" y1="50.519428mm" x2="356.950221mm" y2="56.519968mm" />
  <text x="358mm" y="52mm" font-size="24">
   3.0
  </text>
  <circle cx="361.949872mm" cy="71.920269mm" r="1.500269mm" fill="none"/>
  <line x1="364.950410mm" y1="71.920269mm" x2="358.949333mm" y2="71.920269mm" />
  <line x1="361.949872mm" y1="68.919731mm" x2="361.949872mm" y2="74.920808mm" />
  <text x="363mm" y="70mm" font-size="24">
   3.0
  </text>
  <circle cx="361.949872mm" cy="64.720269mm" r="1.500269mm" fill="none"/>
  <line x1="364.950410mm" y1="64.720269mm" x2="358.949333mm" y2="64.720269mm" />
  <line x1="361.949872mm" y1="61.719731mm" x2="361.949872mm" y2="67.720808mm" />
  <text x="363mm" y="63mm" font-size="24">
   3.0
  </text>
  <circle cx="362.949964mm" cy="7.499964mm" r="2.200229mm" fill="none"/>
  <line x1="367.350421mm" y1="7.499964mm" x2="358.549507mm" y2="7.499964mm" />
  <line x1="362.949964mm" y1="3.099507mm" x2="362.949964mm" y2="11.900421mm" />
  <text x="365mm" y="5mm" font-size="24">
   4.4
  </text>
  <circle cx="365.749998mm" cy="358.290067mm" r="2.200127mm" fill="none"/>
  <line x1="370.150252mm" y1="358.290067mm" x2="361.349744mm" y2="358.290067mm" />
  <line x1="365.749998mm" y1="353.889813mm" x2="365.749998mm" y2="362.690321mm" />
  <text x="367mm" y="356mm" font-size="24">
   4.4
  </text>
  <circle cx="365.749964mm" cy="33.709964mm" r="2.200229mm" fill="none"/>
  <line x1="370.150421mm" y1="33.709964mm" x2="361.349507mm" y2="33.709964mm" />
  <line x1="365.749964mm" y1="29.309507mm" x2="365.749964mm" y2="38.110421mm" />
  <text x="367mm" y="31mm" font-size="24">
   4.4
  </text>
  <line x1="379.274000mm" y1="335.710500mm" x2="379.274000mm" y2="335.710500mm" />
  <line x1="379.274000mm" y1="335.710500mm" x2="379.250000mm" y2="335.500000mm" />
  <line x1="379.250000mm" y1="335.500000mm" x2="379.250000mm" y2="326.500000mm" />
  <line x1="379.250000mm" y1="326.500000mm" x2="379.281000mm" y2="326.221000mm" />
  <line x1="379.281000mm" y1="326.221000mm" x2="379.305000mm" y2="326.010500mm" />
  <line x1="379.305000mm" y1="326.010500mm" x2="379.468000mm" y2="325.545500mm" />
  <line x1="379.468000mm" y1="325.545500mm" x2="379.730000mm" y2="325.128300mm" />
  <line x1="379.730000mm" y1="325.128300mm" x2="380.078000mm" y2="324.780000mm" />
  <line x1="380.078000mm" y1="324.780000mm" x2="380.495000mm" y2="324.517900mm" />
  <line x1="380.495000mm" y1="324.517900mm" x2="380.960000mm" y2="324.355200mm" />
  <line x1="380.960000mm" y1="324.355200mm" x2="381.450000mm" y2="324.300000mm" />
  <line x1="381.450000mm" y1="324.300000mm" x2="381.940000mm" y2="324.355200mm" />
  <line x1="381.940000mm" y1="324.355200mm" x2="382.405000mm" y2="324.517900mm" />
  <line x1="382.405000mm" y1="324.517900mm" x2="382.822000mm" y2="324.780000mm" />
  <line x1="382.822000mm" y1="324.780000mm" x2="383.170000mm" y2="325.128300mm" />
  <line x1="383.170000mm" y1="325.128300mm" x2="383.432000mm" y2="325.545500mm" />
  <line x1="383.432000mm" y1="325.545500mm" x2="383.595000mm" y2="326.010500mm" />
  <line x1="383.595000mm" y1="326.010500mm" x2="383.619000mm" y2="326.221000mm" />
  <line x1="383.619000mm" y1="326.221000mm" x2="383.650000mm" y2="326.500000mm" />
  <line x1="383.650000mm" y1="326.500000mm" x2="383.650000mm" y2="335.500000mm" />
  <line x1="383.650000mm" y1="335.500000mm" x2="383.626000mm" y2="335.710500mm" />
  <line x1="383.626000mm" y1="335.710500mm" x2="383.595000mm" y2="335.989500mm" />
  <line x1="383.595000mm" y1="335.989500mm" x2="383.432000mm" y2="336.454500mm" />
  <line x1="383.432000mm" y1="336.454500mm" x2="383.170000mm" y2="336.871700mm" />
  <line x1="383.170000mm" y1="336.871700mm" x2="382.822000mm" y2="337.220000mm" />
  <line x1="382.822000mm" y1="337.220000mm" x2="382.405000mm" y2="337.482100mm" />
  <line x1="382.405000mm" y1="337.482100mm" x2="381.940000mm" y2="337.644800mm" />
  <line x1="381.940000mm" y1="337.644800mm" x2="381.450000mm" y2="337.700000mm" />
  <line x1="381.450000mm" y1="337.700000mm" x2="380.960000mm" y2="337.644800mm" />
  <line x1="380.960000mm" y1="337.644800mm" x2="380.495000mm" y2="337.482100mm" />
  <line x1="380.495000mm" y1="337.482100mm" x2="380.078000mm" y2="337.220000mm" />
  <line x1="380.078000mm" y1="337.220000mm" x2="379.730000mm" y2="336.871700mm" />
  <line x1="379.730000mm" y1="336.871700mm" x2="379.468000mm" y2="336.454500mm" />
  <line x1="379.468000mm" y1="336.454500mm" x2="379.305000mm" y2="335.989500mm" />
  <line x1="379.305000mm" y1="335.989500mm" x2="379.274000mm" y2="335.710500mm" />
  <circle cx="384.650108mm" cy="384.799967mm" r="2.200108mm" fill="none"/>
  <line x1="389.050324mm" y1="384.799967mm" x2="380.249892mm" y2="384.799967mm" />
  <line x1="384.650108mm" y1="380.399750mm" x2="384.650108mm" y2="389.200183mm" />
  <text x="386mm" y="382mm" font-size="24">
   4.4
  </text>
  <circle cx="395.049964mm" cy="7.499964mm" r="2.200229mm" fill="none"/>
  <line x1="399.450421mm" y1="7.499964mm" x2="390.649507mm" y2="7.499964mm" />
  <line x1="395.049964mm" y1="3.099507mm" x2="395.049964mm" y2="11.900421mm" />
  <text x="397mm" y="5mm" font-size="24">
   4.4
  </text>
  <circle cx="395.620034mm" cy="374.099968mm" r="2.500070mm" fill="none"/>
  <line x1="400.620175mm" y1="374.099968mm" x2="390.619893mm" y2="374.099968mm" />
  <line x1="395.620034mm" y1="369.099828mm" x2="395.620034mm" y2="379.100109mm" />
  <text x="398mm" y="371mm" font-size="24">
   5.0
  </text>
  <circle cx="405.870108mm" cy="384.799967mm" r="2.200108mm" fill="none"/>
  <line x1="410.270324mm" y1="384.799967mm" x2="401.469892mm" y2="384.799967mm" />
  <line x1="405.870108mm" y1="380.399750mm" x2="405.870108mm" y2="389.200183mm" />
  <text x="408mm" y="382mm" font-size="24">
   4.4
  </text>
  <line x1="409.374000mm" y1="335.710500mm" x2="409.374000mm" y2="335.710500mm" />
  <line x1="409.374000mm" y1="335.710500mm" x2="409.350000mm" y2="335.500000mm" />
  <line x1="409.350000mm" y1="335.500000mm" x2="409.350000mm" y2="326.500000mm" />
  <line x1="409.350000mm" y1="326.500000mm" x2="409.381000mm" y2="326.221000mm" />
  <line x1="409.381000mm" y1="326.221000mm" x2="409.405000mm" y2="326.010500mm" />
  <line x1="409.405000mm" y1="326.010500mm" x2="409.568000mm" y2="325.545500mm" />
  <line x1="409.568000mm" y1="325.545500mm" x2="409.830000mm" y2="325.128300mm" />
  <line x1="409.830000mm" y1="325.128300mm" x2="410.178000mm" y2="324.780000mm" />
  <line x1="410.178000mm" y1="324.780000mm" x2="410.595000mm" y2="324.517900mm" />
  <line x1="410.595000mm" y1="324.517900mm" x2="411.060000mm" y2="324.355200mm" />
  <line x1="411.060000mm" y1="324.355200mm" x2="411.550000mm" y2="324.300000mm" />
  <line x1="411.550000mm" y1="324.300000mm" x2="412.040000mm" y2="324.355200mm" />
  <line x1="412.040000mm" y1="324.355200mm" x2="412.505000mm" y2="324.517900mm" />
  <line x1="412.505000mm" y1="324.517900mm" x2="412.922000mm" y2="324.780000mm" />
  <line x1="412.922000mm" y1="324.780000mm" x2="413.270000mm" y2="325.128300mm" />
  <line x1="413.270000mm" y1="325.128300mm" x2="413.532000mm" y2="325.545500mm" />
  <line x1="413.532000mm" y1="325.545500mm" x2="413.695000mm" y2="326.010500mm" />
  <line x1="413.695000mm" y1="326.010500mm" x2="413.719000mm" y2="326.221000mm" />
  <line x1="413.719000mm" y1="326.221000mm" x2="413.750000mm" y2="326.500000mm" />
  <line x1="413.750000mm" y1="326.500000mm" x2="413.750000mm" y2="335.500000mm" />
  <line x1="413.750000mm" y1="335.500000mm" x2="413.726000mm" y2="335.710500mm" />
  <line x1="413.726000mm" y1="335.710500mm" x2="413.695000mm" y2="335.989500mm" />
  <line x1="413.695000mm" y1="335.989500mm" x2="413.532000mm" y2="336.454500mm" />
  <line x1="413.532000mm" y1="336.454500mm" x2="413.270000mm" y2="336.871700mm" />
  <line x1="413.270000mm" y1="336.871700mm" x2="412.922000mm" y2="337.220000mm" />
  <line x1="412.922000mm" y1="337.220000mm" x2="412.505000mm" y2="337.482100mm" />
  <line x1="412.505000mm" y1="337.482100mm" x2="412.040000mm" y2="337.644800mm" />
  <line x1="412.040000mm" y1="337.644800mm" x2="411.550000mm" y2="337.700000mm" />
  <line x1="411.550000mm" y1="337.700000mm" x2="411.060000mm" y2="337.644800mm" />
  <line x1="411.060000mm" y1="337.644800mm" x2="410.595000mm" y2="337.482100mm" />
  <line x1="410.595000mm" y1="337.482100mm" x2="410.178000mm" y2="337.220000mm" />
  <line x1="410.178000mm" y1="337.220000mm" x2="409.830000mm" y2="336.871700mm" />
  <line x1="409.830000mm" y1="336.871700mm" x2="409.568000mm" y2="336.454500mm" />
  <line x1="409.568000mm" y1="336.454500mm" x2="409.405000mm" y2="335.989500mm" />
  <line x1="409.405000mm" y1="335.989500mm" x2="409.374000mm" y2="335.710500mm" />
  <circle cx="422.599964mm" cy="30.849964mm" r="2.200229mm" fill="none"/>
  <line x1="427.000421mm" y1="30.849964mm" x2="418.199507mm" y2="30.849964mm" />
  <line x1="422.599964mm" y1="26.449507mm" x2="422.599964mm" y2="35.250421mm" />
  <text x="424mm" y="28mm" font-size="24">
   4.4
  </text>
  <line x1="425.145000mm" y1="20.478000mm" x2="425.145000mm" y2="20.478000mm" />
  <line x1="425.145000mm" y1="20.478000mm" x2="425.050000mm" y2="20.000000mm" />
  <line x1="425.050000mm" y1="20.000000mm" x2="425.145000mm" y2="19.522000mm" />
  <line x1="425.145000mm" y1="19.522000mm" x2="425.416000mm" y2="19.116000mm" />
  <line x1="425.416000mm" y1="19.116000mm" x2="425.822000mm" y2="18.845000mm" />
  <line x1="425.822000mm" y1="18.845000mm" x2="426.300000mm" y2="18.750000mm" />
  <line x1="426.300000mm" y1="18.750000mm" x2="453.700000mm" y2="18.750000mm" />
  <line x1="453.700000mm" y1="18.750000mm" x2="454.178000mm" y2="18.845000mm" />
  <line x1="454.178000mm" y1="18.845000mm" x2="454.584000mm" y2="19.116000mm" />
  <line x1="454.584000mm" y1="19.116000mm" x2="454.855000mm" y2="19.522000mm" />
  <line x1="454.855000mm" y1="19.522000mm" x2="454.950000mm" y2="20.000000mm" />
  <line x1="454.950000mm" y1="20.000000mm" x2="454.855000mm" y2="20.478000mm" />
  <line x1="454.855000mm" y1="20.478000mm" x2="454.584000mm" y2="20.884000mm" />
  <line x1="454.584000mm" y1="20.884000mm" x2="454.178000mm" y2="21.155000mm" />
  <line x1="454.178000mm" y1="21.155000mm" x2="453.700000mm" y2="21.250000mm" />
  <line x1="453.700000mm" y1="21.250000mm" x2="426.300000mm" y2="21.250000mm" />
  <line x1="426.300000mm" y1="21.250000mm" x2="425.822000mm" y2="21.155000mm" />
  <line x1="425.822000mm" y1="21.155000mm" x2="425.416000mm" y2="20.884000mm" />
  <line x1="425.416000mm" y1="20.884000mm" x2="425.145000mm" y2="20.478000mm" />
  <circle cx="442.580108mm" cy="384.799967mm" r="2.200108mm" fill="none"/>
  <line x1="446.980324mm" y1="384.799967mm" x2="438.179892mm" y2="384.799967mm" />
  <line x1="442.580108mm" y1="380.399750mm" x2="442.580108mm" y2="389.200183mm" />
  <text x="444mm" y="382mm" font-size="24">
   4.4
  </text>
  <circle cx="457.399964mm" cy="30.849964mm" r="2.200229mm" fill="none"/>
  <line x1="461.800421mm" y1="30.849964mm" x2="452.999507mm" y2="30.849964mm" />
  <line x1="457.399964mm" y1="26.449507mm" x2="457.399964mm" y2="35.250421mm" />
  <text x="459mm" y="28mm" font-size="24">
   4.4
  </text>
  <circle cx="457.909400mm" cy="364.047922mm" r="2.195958mm" fill="none"/>
  <line x1="462.301316mm" y1="364.047922mm" x2="453.517484mm" y2="364.047922mm" />
  <line x1="457.909400mm" y1="359.656005mm" x2="457.909400mm" y2="368.439838mm" />
  <text x="460mm" y="361mm" font-size="24">
   4.4
  </text>
  <circle cx="463.800108mm" cy="384.799967mm" r="2.200108mm" fill="none"/>
  <line x1="468.200324mm" y1="384.799967mm" x2="459.399892mm" y2="384.799967mm" />
  <line x1="463.800108mm" y1="380.399750mm" x2="463.800108mm" y2="389.200183mm" />
  <text x="466mm" y="382mm" font-size="24">
   4.4
  </text>
 </g>
</svg>
