<?xml version="1.0"?>
<svg xmlns="http://www.w3.org/2000/svg" version="1.1" height="394mm" width="483mm" >
 <g style="fill-opacity:1.0; stroke:black; stroke-width:1;">
  <line x1="38.620000mm" y1="384.000000mm" x2="38.620000mm" y2="384.000000mm" />
  <line x1="38.620000mm" y1="384.000000mm" x2="38.620000mm" y2="381.500020mm" />
  <line x1="38.620000mm" y1="381.500020mm" x2="38.668000mm" y2="381.012280mm" />
  <line x1="38.668000mm" y1="381.012280mm" x2="38.810000mm" y2="380.543300mm" />
  <line x1="38.810000mm" y1="380.543300mm" x2="39.041000mm" y2="380.111080mm" />
  <line x1="39.041000mm" y1="380.111080mm" x2="39.352000mm" y2="379.732240mm" />
  <line x1="39.352000mm" y1="379.732240mm" x2="39.731000mm" y2="379.421340mm" />
  <line x1="39.731000mm" y1="379.421340mm" x2="40.163000mm" y2="379.190310mm" />
  <line x1="40.163000mm" y1="379.190310mm" x2="40.632000mm" y2="379.048050mm" />
  <line x1="40.632000mm" y1="379.048050mm" x2="41.120000mm" y2="379.000020mm" />
  <line x1="41.120000mm" y1="379.000020mm" x2="41.608000mm" y2="379.048050mm" />
  <line x1="41.608000mm" y1="379.048050mm" x2="42.077000mm" y2="379.190310mm" />
  <line x1="42.077000mm" y1="379.190310mm" x2="42.509000mm" y2="379.421340mm" />
  <line x1="42.509000mm" y1="379.421340mm" x2="42.888000mm" y2="379.732240mm" />
  <line x1="42.888000mm" y1="379.732240mm" x2="43.199000mm" y2="380.111080mm" />
  <line x1="43.199000mm" y1="380.111080mm" x2="43.430000mm" y2="380.543300mm" />
  <line x1="43.430000mm" y1="380.543300mm" x2="43.572000mm" y2="381.012280mm" />
  <line x1="43.572000mm" y1="381.012280mm" x2="43.620000mm" y2="381.500020mm" />
  <line x1="43.620000mm" y1="381.500020mm" x2="43.620000mm" y2="384.000000mm" />
  <line x1="43.620000mm" y1="384.000000mm" x2="104.500000mm" y2="384.000000mm" />
  <line x1="104.500000mm" y1="384.000000mm" x2="104.500000mm" y2="105.900000mm" />
  <line x1="104.500000mm" y1="105.900000mm" x2="104.506000mm" y2="105.900000mm" />
  <line x1="104.506000mm" y1="105.900000mm" x2="104.506000mm" y2="105.651000mm" />
  <line x1="104.506000mm" y1="105.651000mm" x2="104.556000mm" y2="105.155000mm" />
  <line x1="104.556000mm" y1="105.155000mm" x2="104.655000mm" y2="104.666000mm" />
  <line x1="104.655000mm" y1="104.666000mm" x2="104.802000mm" y2="104.190000mm" />
  <line x1="104.802000mm" y1="104.190000mm" x2="104.995000mm" y2="103.731000mm" />
  <line x1="104.995000mm" y1="103.731000mm" x2="105.234000mm" y2="103.293000mm" />
  <line x1="105.234000mm" y1="103.293000mm" x2="105.514000mm" y2="102.881000mm" />
  <line x1="105.514000mm" y1="102.881000mm" x2="105.835000mm" y2="102.499000mm" />
  <line x1="105.835000mm" y1="102.499000mm" x2="106.192000mm" y2="102.151000mm" />
  <line x1="106.192000mm" y1="102.151000mm" x2="106.581000mm" y2="101.840000mm" />
  <line x1="106.581000mm" y1="101.840000mm" x2="107.000000mm" y2="101.570000mm" />
  <line x1="107.000000mm" y1="101.570000mm" x2="107.444000mm" y2="101.342000mm" />
  <line x1="107.444000mm" y1="101.342000mm" x2="107.908000mm" y2="101.160000mm" />
  <line x1="107.908000mm" y1="101.160000mm" x2="108.387000mm" y2="101.025000mm" />
  <line x1="108.387000mm" y1="101.025000mm" x2="108.878000mm" y2="100.939000mm" />
  <line x1="108.878000mm" y1="100.939000mm" x2="109.375000mm" y2="100.902000mm" />
  <line x1="109.375000mm" y1="100.902000mm" x2="109.500000mm" y2="100.905000mm" />
  <line x1="109.500000mm" y1="100.905000mm" x2="109.500000mm" y2="100.900000mm" />
  <line x1="109.500000mm" y1="100.900000mm" x2="349.500000mm" y2="100.900000mm" />
  <line x1="349.500000mm" y1="100.900000mm" x2="349.500000mm" y2="100.905000mm" />
  <line x1="349.500000mm" y1="100.905000mm" x2="349.874000mm" y2="100.914000mm" />
  <line x1="349.874000mm" y1="100.914000mm" x2="350.368000mm" y2="100.976000mm" />
  <line x1="350.368000mm" y1="100.976000mm" x2="350.854000mm" y2="101.087000mm" />
  <line x1="350.854000mm" y1="101.087000mm" x2="351.327000mm" y2="101.246000mm" />
  <line x1="351.327000mm" y1="101.246000mm" x2="351.781000mm" y2="101.451000mm" />
  <line x1="351.781000mm" y1="101.451000mm" x2="352.213000mm" y2="101.700000mm" />
  <line x1="352.213000mm" y1="101.700000mm" x2="352.617000mm" y2="101.991000mm" />
  <line x1="352.617000mm" y1="101.991000mm" x2="352.991000mm" y2="102.321000mm" />
  <line x1="352.991000mm" y1="102.321000mm" x2="353.330000mm" y2="102.686000mm" />
  <line x1="353.330000mm" y1="102.686000mm" x2="353.631000mm" y2="103.083000mm" />
  <line x1="353.631000mm" y1="103.083000mm" x2="353.891000mm" y2="103.509000mm" />
  <line x1="353.891000mm" y1="103.509000mm" x2="354.107000mm" y2="103.958000mm" />
  <line x1="354.107000mm" y1="103.958000mm" x2="354.278000mm" y2="104.426000mm" />
  <line x1="354.278000mm" y1="104.426000mm" x2="354.401000mm" y2="104.909000mm" />
  <line x1="354.401000mm" y1="104.909000mm" x2="354.475000mm" y2="105.402000mm" />
  <line x1="354.475000mm" y1="105.402000mm" x2="354.500000mm" y2="105.900000mm" />
  <line x1="354.500000mm" y1="105.900000mm" x2="354.500000mm" y2="384.000000mm" />
  <line x1="354.500000mm" y1="384.000000mm" x2="472.500000mm" y2="384.000000mm" />
  <line x1="472.500000mm" y1="384.000000mm" x2="472.500000mm" y2="25.000000mm" />
  <line x1="472.500000mm" y1="25.000000mm" x2="472.405000mm" y2="22.821000mm" />
  <line x1="472.405000mm" y1="22.821000mm" x2="472.120000mm" y2="20.659000mm" />
  <line x1="472.120000mm" y1="20.659000mm" x2="471.648000mm" y2="18.530000mm" />
  <line x1="471.648000mm" y1="18.530000mm" x2="470.992000mm" y2="16.450000mm" />
  <line x1="470.992000mm" y1="16.450000mm" x2="470.158000mm" y2="14.435000mm" />
  <line x1="470.158000mm" y1="14.435000mm" x2="469.151000mm" y2="12.500000mm" />
  <line x1="469.151000mm" y1="12.500000mm" x2="467.979000mm" y2="10.661000mm" />
  <line x1="467.979000mm" y1="10.661000mm" x2="466.651000mm" y2="8.930000mm" />
  <line x1="466.651000mm" y1="8.930000mm" x2="465.178000mm" y2="7.322000mm" />
  <line x1="465.178000mm" y1="7.322000mm" x2="463.570000mm" y2="5.849000mm" />
  <line x1="463.570000mm" y1="5.849000mm" x2="461.839000mm" y2="4.521000mm" />
  <line x1="461.839000mm" y1="4.521000mm" x2="460.000000mm" y2="3.349000mm" />
  <line x1="460.000000mm" y1="3.349000mm" x2="458.065000mm" y2="2.342000mm" />
  <line x1="458.065000mm" y1="2.342000mm" x2="456.050000mm" y2="1.508000mm" />
  <line x1="456.050000mm" y1="1.508000mm" x2="453.970000mm" y2="0.852000mm" />
  <line x1="453.970000mm" y1="0.852000mm" x2="451.841000mm" y2="0.380000mm" />
  <line x1="451.841000mm" y1="0.380000mm" x2="449.679000mm" y2="0.095000mm" />
  <line x1="449.679000mm" y1="0.095000mm" x2="447.500000mm" y2="0.000000mm" />
  <line x1="447.500000mm" y1="0.000000mm" x2="25.000000mm" y2="0.000000mm" />
  <line x1="25.000000mm" y1="0.000000mm" x2="22.821000mm" y2="0.095000mm" />
  <line x1="22.821000mm" y1="0.095000mm" x2="20.659000mm" y2="0.380000mm" />
  <line x1="20.659000mm" y1="0.380000mm" x2="18.530000mm" y2="0.852000mm" />
  <line x1="18.530000mm" y1="0.852000mm" x2="16.450000mm" y2="1.508000mm" />
  <line x1="16.450000mm" y1="1.508000mm" x2="14.435000mm" y2="2.342000mm" />
  <line x1="14.435000mm" y1="2.342000mm" x2="12.500000mm" y2="3.349000mm" />
  <line x1="12.500000mm" y1="3.349000mm" x2="10.661000mm" y2="4.521000mm" />
  <line x1="10.661000mm" y1="4.521000mm" x2="8.930000mm" y2="5.849000mm" />
  <line x1="8.930000mm" y1="5.849000mm" x2="7.322000mm" y2="7.322000mm" />
  <line x1="7.322000mm" y1="7.322000mm" x2="5.849000mm" y2="8.930000mm" />
  <line x1="5.849000mm" y1="8.930000mm" x2="4.521000mm" y2="10.661000mm" />
  <line x1="4.521000mm" y1="10.661000mm" x2="3.349000mm" y2="12.500000mm" />
  <line x1="3.349000mm" y1="12.500000mm" x2="2.342000mm" y2="14.435000mm" />
  <line x1="2.342000mm" y1="14.435000mm" x2="1.508000mm" y2="16.450000mm" />
  <line x1="1.508000mm" y1="16.450000mm" x2="0.852000mm" y2="18.530000mm" />
  <line x1="0.852000mm" y1="18.530000mm" x2="0.380000mm" y2="20.659000mm" />
  <line x1="0.380000mm" y1="20.659000mm" x2="0.095000mm" y2="22.821000mm" />
  <line x1="0.095000mm" y1="22.821000mm" x2="0.000000mm" y2="25.000000mm" />
  <line x1="0.000000mm" y1="25.000000mm" x2="0.000000mm" y2="384.000000mm" />
  <line x1="0.000000mm" y1="384.000000mm" x2="38.620000mm" y2="384.000000mm" />
  <circle cx="72.050000mm" cy="7.499945mm" r="2.200055mm" fill="none"/>
  <line x1="76.450111mm" y1="7.499945mm" x2="67.649889mm" y2="7.499945mm" />
  <line x1="72.050000mm" y1="3.099834mm" x2="72.050000mm" y2="11.900055mm" />
  <text x="74mm" y="5mm" font-size="24">
   4.4
  </text>
  <circle cx="395.050000mm" cy="7.499945mm" r="2.200055mm" fill="none"/>
  <line x1="399.450111mm" y1="7.499945mm" x2="390.649889mm" y2="7.499945mm" />
  <line x1="395.050000mm" y1="3.099834mm" x2="395.050000mm" y2="11.900055mm" />
  <text x="397mm" y="5mm" font-size="24">
   4.4
  </text>
  <circle cx="39.950000mm" cy="7.499945mm" r="2.200055mm" fill="none"/>
  <line x1="44.350111mm" y1="7.499945mm" x2="35.549889mm" y2="7.499945mm" />
  <line x1="39.950000mm" y1="3.099834mm" x2="39.950000mm" y2="11.900055mm" />
  <text x="42mm" y="5mm" font-size="24">
   4.4
  </text>
  <circle cx="362.950000mm" cy="7.499945mm" r="2.200055mm" fill="none"/>
  <line x1="367.350111mm" y1="7.499945mm" x2="358.549889mm" y2="7.499945mm" />
  <line x1="362.950000mm" y1="3.099834mm" x2="362.950000mm" y2="11.900055mm" />
  <text x="365mm" y="5mm" font-size="24">
   4.4
  </text>
  <circle cx="38.500000mm" cy="16.999798mm" r="1.999777mm" fill="none"/>
  <line x1="42.499554mm" y1="16.999798mm" x2="34.500446mm" y2="16.999798mm" />
  <line x1="38.500000mm" y1="13.000245mm" x2="38.500000mm" y2="20.999352mm" />
  <text x="40mm" y="15mm" font-size="24">
   4.0
  </text>
  <line x1="453.700000mm" y1="21.250000mm" x2="453.700000mm" y2="21.250000mm" />
  <line x1="453.700000mm" y1="21.250000mm" x2="426.300000mm" y2="21.250000mm" />
  <line x1="426.300000mm" y1="21.250000mm" x2="425.822000mm" y2="21.155000mm" />
  <line x1="425.822000mm" y1="21.155000mm" x2="425.416000mm" y2="20.884000mm" />
  <line x1="425.416000mm" y1="20.884000mm" x2="425.145000mm" y2="20.478000mm" />
  <line x1="425.145000mm" y1="20.478000mm" x2="425.050000mm" y2="20.000000mm" />
  <line x1="425.050000mm" y1="20.000000mm" x2="425.145000mm" y2="19.522000mm" />
  <line x1="425.145000mm" y1="19.522000mm" x2="425.416000mm" y2="19.116000mm" />
  <line x1="425.416000mm" y1="19.116000mm" x2="425.822000mm" y2="18.845000mm" />
  <line x1="425.822000mm" y1="18.845000mm" x2="426.300000mm" y2="18.750000mm" />
  <line x1="426.300000mm" y1="18.750000mm" x2="453.700000mm" y2="18.750000mm" />
  <line x1="453.700000mm" y1="18.750000mm" x2="454.178000mm" y2="18.845000mm" />
  <line x1="454.178000mm" y1="18.845000mm" x2="454.584000mm" y2="19.116000mm" />
  <line x1="454.584000mm" y1="19.116000mm" x2="454.855000mm" y2="19.522000mm" />
  <line x1="454.855000mm" y1="19.522000mm" x2="454.950000mm" y2="20.000000mm" />
  <line x1="454.950000mm" y1="20.000000mm" x2="454.855000mm" y2="20.478000mm" />
  <line x1="454.855000mm" y1="20.478000mm" x2="454.584000mm" y2="20.884000mm" />
  <line x1="454.584000mm" y1="20.884000mm" x2="454.178000mm" y2="21.155000mm" />
  <line x1="454.178000mm" y1="21.155000mm" x2="453.700000mm" y2="21.250000mm" />
  <circle cx="422.600000mm" cy="30.849945mm" r="2.200055mm" fill="none"/>
  <line x1="427.000111mm" y1="30.849945mm" x2="418.199889mm" y2="30.849945mm" />
  <line x1="422.600000mm" y1="26.449834mm" x2="422.600000mm" y2="35.250055mm" />
  <text x="424mm" y="28mm" font-size="24">
   4.4
  </text>
  <circle cx="457.400000mm" cy="30.849945mm" r="2.200055mm" fill="none"/>
  <line x1="461.800111mm" y1="30.849945mm" x2="452.999889mm" y2="30.849945mm" />
  <line x1="457.400000mm" y1="26.449834mm" x2="457.400000mm" y2="35.250055mm" />
  <text x="459mm" y="28mm" font-size="24">
   4.4
  </text>
  <circle cx="365.750000mm" cy="33.709945mm" r="2.200055mm" fill="none"/>
  <line x1="370.150111mm" y1="33.709945mm" x2="361.349889mm" y2="33.709945mm" />
  <line x1="365.750000mm" y1="29.309834mm" x2="365.750000mm" y2="38.110055mm" />
  <text x="367mm" y="31mm" font-size="24">
   4.4
  </text>
  <circle cx="62.700000mm" cy="33.709945mm" r="2.200055mm" fill="none"/>
  <line x1="67.100111mm" y1="33.709945mm" x2="58.299889mm" y2="33.709945mm" />
  <line x1="62.700000mm" y1="29.309834mm" x2="62.700000mm" y2="38.110055mm" />
  <text x="64mm" y="31mm" font-size="24">
   4.4
  </text>
  <circle cx="66.500000mm" cy="53.519647mm" r="1.500353mm" fill="none"/>
  <line x1="69.500706mm" y1="53.519647mm" x2="63.499294mm" y2="53.519647mm" />
  <line x1="66.500000mm" y1="50.518941mm" x2="66.500000mm" y2="56.520353mm" />
  <text x="68mm" y="52mm" font-size="24">
   3.0
  </text>
  <circle cx="356.950000mm" cy="53.519647mm" r="1.500353mm" fill="none"/>
  <line x1="359.950706mm" y1="53.519647mm" x2="353.949294mm" y2="53.519647mm" />
  <line x1="356.950000mm" y1="50.518941mm" x2="356.950000mm" y2="56.520353mm" />
  <text x="358mm" y="52mm" font-size="24">
   3.0
  </text>
  <circle cx="356.950000mm" cy="59.319647mm" r="1.500353mm" fill="none"/>
  <line x1="359.950706mm" y1="59.319647mm" x2="353.949294mm" y2="59.319647mm" />
  <line x1="356.950000mm" y1="56.318941mm" x2="356.950000mm" y2="62.320353mm" />
  <text x="358mm" y="57mm" font-size="24">
   3.0
  </text>
  <circle cx="66.500000mm" cy="59.319647mm" r="1.500353mm" fill="none"/>
  <line x1="69.500706mm" y1="59.319647mm" x2="63.499294mm" y2="59.319647mm" />
  <line x1="66.500000mm" y1="56.318941mm" x2="66.500000mm" y2="62.320353mm" />
  <text x="68mm" y="57mm" font-size="24">
   3.0
  </text>
  <circle cx="71.500136mm" cy="64.720380mm" r="1.500072mm" fill="none"/>
  <line x1="74.500281mm" y1="64.720380mm" x2="68.499992mm" y2="64.720380mm" />
  <line x1="71.500136mm" y1="61.720236mm" x2="71.500136mm" y2="67.720525mm" />
  <text x="73mm" y="63mm" font-size="24">
   3.0
  </text>
  <circle cx="361.950136mm" cy="64.720380mm" r="1.500072mm" fill="none"/>
  <line x1="364.950281mm" y1="64.720380mm" x2="358.949992mm" y2="64.720380mm" />
  <line x1="361.950136mm" y1="61.720236mm" x2="361.950136mm" y2="67.720525mm" />
  <text x="363mm" y="63mm" font-size="24">
   3.0
  </text>
  <circle cx="361.950136mm" cy="71.920380mm" r="1.500072mm" fill="none"/>
  <line x1="364.950281mm" y1="71.920380mm" x2="358.949992mm" y2="71.920380mm" />
  <line x1="361.950136mm" y1="68.920236mm" x2="361.950136mm" y2="74.920525mm" />
  <text x="363mm" y="70mm" font-size="24">
   3.0
  </text>
  <circle cx="71.500136mm" cy="71.920380mm" r="1.500072mm" fill="none"/>
  <line x1="74.500281mm" y1="71.920380mm" x2="68.499992mm" y2="71.920380mm" />
  <line x1="71.500136mm" y1="68.920236mm" x2="71.500136mm" y2="74.920525mm" />
  <text x="73mm" y="70mm" font-size="24">
   3.0
  </text>
  <circle cx="7.500000mm" cy="232.499945mm" r="2.200055mm" fill="none"/>
  <line x1="11.900111mm" y1="232.499945mm" x2="3.099889mm" y2="232.499945mm" />
  <line x1="7.500000mm" y1="228.099834mm" x2="7.500000mm" y2="236.900055mm" />
  <text x="9mm" y="230mm" font-size="24">
   4.4
  </text>
  <circle cx="7.500000mm" cy="273.899945mm" r="2.200055mm" fill="none"/>
  <line x1="11.900111mm" y1="273.899945mm" x2="3.099889mm" y2="273.899945mm" />
  <line x1="7.500000mm" y1="269.499834mm" x2="7.500000mm" y2="278.300055mm" />
  <text x="9mm" y="271mm" font-size="24">
   4.4
  </text>
  <circle cx="32.500000mm" cy="310.999943mm" r="2.000030mm" fill="none"/>
  <line x1="36.500060mm" y1="310.999943mm" x2="28.499940mm" y2="310.999943mm" />
  <line x1="32.500000mm" y1="306.999883mm" x2="32.500000mm" y2="315.000003mm" />
  <text x="34mm" y="308mm" font-size="24">
   4.0
  </text>
  <line x1="46.550000mm" y1="329.700000mm" x2="46.550000mm" y2="329.700000mm" />
  <line x1="46.550000mm" y1="329.700000mm" x2="46.060000mm" y2="329.644900mm" />
  <line x1="46.060000mm" y1="329.644900mm" x2="45.595000mm" y2="329.482100mm" />
  <line x1="45.595000mm" y1="329.482100mm" x2="45.178000mm" y2="329.220000mm" />
  <line x1="45.178000mm" y1="329.220000mm" x2="44.830000mm" y2="328.871700mm" />
  <line x1="44.830000mm" y1="328.871700mm" x2="44.568000mm" y2="328.454600mm" />
  <line x1="44.568000mm" y1="328.454600mm" x2="44.405000mm" y2="327.989500mm" />
  <line x1="44.405000mm" y1="327.989500mm" x2="44.350000mm" y2="327.500000mm" />
  <line x1="44.350000mm" y1="327.500000mm" x2="44.350000mm" y2="318.500000mm" />
  <line x1="44.350000mm" y1="318.500000mm" x2="44.405000mm" y2="318.010500mm" />
  <line x1="44.405000mm" y1="318.010500mm" x2="44.568000mm" y2="317.545500mm" />
  <line x1="44.568000mm" y1="317.545500mm" x2="44.830000mm" y2="317.128300mm" />
  <line x1="44.830000mm" y1="317.128300mm" x2="45.178000mm" y2="316.780000mm" />
  <line x1="45.178000mm" y1="316.780000mm" x2="45.595000mm" y2="316.517900mm" />
  <line x1="45.595000mm" y1="316.517900mm" x2="46.060000mm" y2="316.355200mm" />
  <line x1="46.060000mm" y1="316.355200mm" x2="46.550000mm" y2="316.300000mm" />
  <line x1="46.550000mm" y1="316.300000mm" x2="47.040000mm" y2="316.355200mm" />
  <line x1="47.040000mm" y1="316.355200mm" x2="47.505000mm" y2="316.517900mm" />
  <line x1="47.505000mm" y1="316.517900mm" x2="47.922000mm" y2="316.780000mm" />
  <line x1="47.922000mm" y1="316.780000mm" x2="48.270000mm" y2="317.128300mm" />
  <line x1="48.270000mm" y1="317.128300mm" x2="48.532000mm" y2="317.545500mm" />
  <line x1="48.532000mm" y1="317.545500mm" x2="48.695000mm" y2="318.010500mm" />
  <line x1="48.695000mm" y1="318.010500mm" x2="48.750000mm" y2="318.500000mm" />
  <line x1="48.750000mm" y1="318.500000mm" x2="48.750000mm" y2="327.500000mm" />
  <line x1="48.750000mm" y1="327.500000mm" x2="48.695000mm" y2="327.989500mm" />
  <line x1="48.695000mm" y1="327.989500mm" x2="48.532000mm" y2="328.454600mm" />
  <line x1="48.532000mm" y1="328.454600mm" x2="48.270000mm" y2="328.871700mm" />
  <line x1="48.270000mm" y1="328.871700mm" x2="47.922000mm" y2="329.220000mm" />
  <line x1="47.922000mm" y1="329.220000mm" x2="47.505000mm" y2="329.482100mm" />
  <line x1="47.505000mm" y1="329.482100mm" x2="47.040000mm" y2="329.644900mm" />
  <line x1="47.040000mm" y1="329.644900mm" x2="46.550000mm" y2="329.700000mm" />
  <line x1="16.450000mm" y1="329.700000mm" x2="16.450000mm" y2="329.700000mm" />
  <line x1="16.450000mm" y1="329.700000mm" x2="15.960000mm" y2="329.644900mm" />
  <line x1="15.960000mm" y1="329.644900mm" x2="15.495000mm" y2="329.482100mm" />
  <line x1="15.495000mm" y1="329.482100mm" x2="15.078000mm" y2="329.220000mm" />
  <line x1="15.078000mm" y1="329.220000mm" x2="14.730000mm" y2="328.871700mm" />
  <line x1="14.730000mm" y1="328.871700mm" x2="14.468000mm" y2="328.454600mm" />
  <line x1="14.468000mm" y1="328.454600mm" x2="14.305000mm" y2="327.989500mm" />
  <line x1="14.305000mm" y1="327.989500mm" x2="14.250000mm" y2="327.500000mm" />
  <line x1="14.250000mm" y1="327.500000mm" x2="14.250000mm" y2="318.500000mm" />
  <line x1="14.250000mm" y1="318.500000mm" x2="14.305000mm" y2="318.010500mm" />
  <line x1="14.305000mm" y1="318.010500mm" x2="14.468000mm" y2="317.545500mm" />
  <line x1="14.468000mm" y1="317.545500mm" x2="14.730000mm" y2="317.128300mm" />
  <line x1="14.730000mm" y1="317.128300mm" x2="15.078000mm" y2="316.780000mm" />
  <line x1="15.078000mm" y1="316.780000mm" x2="15.495000mm" y2="316.517900mm" />
  <line x1="15.495000mm" y1="316.517900mm" x2="15.960000mm" y2="316.355200mm" />
  <line x1="15.960000mm" y1="316.355200mm" x2="16.450000mm" y2="316.300000mm" />
  <line x1="16.450000mm" y1="316.300000mm" x2="16.940000mm" y2="316.355200mm" />
  <line x1="16.940000mm" y1="316.355200mm" x2="17.405000mm" y2="316.517900mm" />
  <line x1="17.405000mm" y1="316.517900mm" x2="17.822000mm" y2="316.780000mm" />
  <line x1="17.822000mm" y1="316.780000mm" x2="18.170000mm" y2="317.128300mm" />
  <line x1="18.170000mm" y1="317.128300mm" x2="18.432000mm" y2="317.545500mm" />
  <line x1="18.432000mm" y1="317.545500mm" x2="18.595000mm" y2="318.010500mm" />
  <line x1="18.595000mm" y1="318.010500mm" x2="18.650000mm" y2="318.500000mm" />
  <line x1="18.650000mm" y1="318.500000mm" x2="18.650000mm" y2="327.500000mm" />
  <line x1="18.650000mm" y1="327.500000mm" x2="18.595000mm" y2="327.989500mm" />
  <line x1="18.595000mm" y1="327.989500mm" x2="18.432000mm" y2="328.454600mm" />
  <line x1="18.432000mm" y1="328.454600mm" x2="18.170000mm" y2="328.871700mm" />
  <line x1="18.170000mm" y1="328.871700mm" x2="17.822000mm" y2="329.220000mm" />
  <line x1="17.822000mm" y1="329.220000mm" x2="17.405000mm" y2="329.482100mm" />
  <line x1="17.405000mm" y1="329.482100mm" x2="16.940000mm" y2="329.644900mm" />
  <line x1="16.940000mm" y1="329.644900mm" x2="16.450000mm" y2="329.700000mm" />
  <line x1="411.550000mm" y1="329.700000mm" x2="411.550000mm" y2="329.700000mm" />
  <line x1="411.550000mm" y1="329.700000mm" x2="411.060000mm" y2="329.644900mm" />
  <line x1="411.060000mm" y1="329.644900mm" x2="410.595000mm" y2="329.482100mm" />
  <line x1="410.595000mm" y1="329.482100mm" x2="410.178000mm" y2="329.220000mm" />
  <line x1="410.178000mm" y1="329.220000mm" x2="409.830000mm" y2="328.871700mm" />
  <line x1="409.830000mm" y1="328.871700mm" x2="409.568000mm" y2="328.454600mm" />
  <line x1="409.568000mm" y1="328.454600mm" x2="409.405000mm" y2="327.989500mm" />
  <line x1="409.405000mm" y1="327.989500mm" x2="409.350000mm" y2="327.500000mm" />
  <line x1="409.350000mm" y1="327.500000mm" x2="409.350000mm" y2="318.500000mm" />
  <line x1="409.350000mm" y1="318.500000mm" x2="409.405000mm" y2="318.010500mm" />
  <line x1="409.405000mm" y1="318.010500mm" x2="409.568000mm" y2="317.545500mm" />
  <line x1="409.568000mm" y1="317.545500mm" x2="409.830000mm" y2="317.128300mm" />
  <line x1="409.830000mm" y1="317.128300mm" x2="410.178000mm" y2="316.780000mm" />
  <line x1="410.178000mm" y1="316.780000mm" x2="410.595000mm" y2="316.517900mm" />
  <line x1="410.595000mm" y1="316.517900mm" x2="411.060000mm" y2="316.355200mm" />
  <line x1="411.060000mm" y1="316.355200mm" x2="411.550000mm" y2="316.300000mm" />
  <line x1="411.550000mm" y1="316.300000mm" x2="412.040000mm" y2="316.355200mm" />
  <line x1="412.040000mm" y1="316.355200mm" x2="412.505000mm" y2="316.517900mm" />
  <line x1="412.505000mm" y1="316.517900mm" x2="412.922000mm" y2="316.780000mm" />
  <line x1="412.922000mm" y1="316.780000mm" x2="413.270000mm" y2="317.128300mm" />
  <line x1="413.270000mm" y1="317.128300mm" x2="413.532000mm" y2="317.545500mm" />
  <line x1="413.532000mm" y1="317.545500mm" x2="413.695000mm" y2="318.010500mm" />
  <line x1="413.695000mm" y1="318.010500mm" x2="413.750000mm" y2="318.500000mm" />
  <line x1="413.750000mm" y1="318.500000mm" x2="413.750000mm" y2="327.500000mm" />
  <line x1="413.750000mm" y1="327.500000mm" x2="413.695000mm" y2="327.989500mm" />
  <line x1="413.695000mm" y1="327.989500mm" x2="413.532000mm" y2="328.454600mm" />
  <line x1="413.532000mm" y1="328.454600mm" x2="413.270000mm" y2="328.871700mm" />
  <line x1="413.270000mm" y1="328.871700mm" x2="412.922000mm" y2="329.220000mm" />
  <line x1="412.922000mm" y1="329.220000mm" x2="412.505000mm" y2="329.482100mm" />
  <line x1="412.505000mm" y1="329.482100mm" x2="412.040000mm" y2="329.644900mm" />
  <line x1="412.040000mm" y1="329.644900mm" x2="411.550000mm" y2="329.700000mm" />
  <line x1="381.450000mm" y1="329.700000mm" x2="381.450000mm" y2="329.700000mm" />
  <line x1="381.450000mm" y1="329.700000mm" x2="380.960000mm" y2="329.644900mm" />
  <line x1="380.960000mm" y1="329.644900mm" x2="380.495000mm" y2="329.482100mm" />
  <line x1="380.495000mm" y1="329.482100mm" x2="380.078000mm" y2="329.220000mm" />
  <line x1="380.078000mm" y1="329.220000mm" x2="379.730000mm" y2="328.871700mm" />
  <line x1="379.730000mm" y1="328.871700mm" x2="379.468000mm" y2="328.454600mm" />
  <line x1="379.468000mm" y1="328.454600mm" x2="379.305000mm" y2="327.989500mm" />
  <line x1="379.305000mm" y1="327.989500mm" x2="379.250000mm" y2="327.500000mm" />
  <line x1="379.250000mm" y1="327.500000mm" x2="379.250000mm" y2="318.500000mm" />
  <line x1="379.250000mm" y1="318.500000mm" x2="379.305000mm" y2="318.010500mm" />
  <line x1="379.305000mm" y1="318.010500mm" x2="379.468000mm" y2="317.545500mm" />
  <line x1="379.468000mm" y1="317.545500mm" x2="379.730000mm" y2="317.128300mm" />
  <line x1="379.730000mm" y1="317.128300mm" x2="380.078000mm" y2="316.780000mm" />
  <line x1="380.078000mm" y1="316.780000mm" x2="380.495000mm" y2="316.517900mm" />
  <line x1="380.495000mm" y1="316.517900mm" x2="380.960000mm" y2="316.355200mm" />
  <line x1="380.960000mm" y1="316.355200mm" x2="381.450000mm" y2="316.300000mm" />
  <line x1="381.450000mm" y1="316.300000mm" x2="381.940000mm" y2="316.355200mm" />
  <line x1="381.940000mm" y1="316.355200mm" x2="382.405000mm" y2="316.517900mm" />
  <line x1="382.405000mm" y1="316.517900mm" x2="382.822000mm" y2="316.780000mm" />
  <line x1="382.822000mm" y1="316.780000mm" x2="383.170000mm" y2="317.128300mm" />
  <line x1="383.170000mm" y1="317.128300mm" x2="383.432000mm" y2="317.545500mm" />
  <line x1="383.432000mm" y1="317.545500mm" x2="383.595000mm" y2="318.010500mm" />
  <line x1="383.595000mm" y1="318.010500mm" x2="383.650000mm" y2="318.500000mm" />
  <line x1="383.650000mm" y1="318.500000mm" x2="383.650000mm" y2="327.500000mm" />
  <line x1="383.650000mm" y1="327.500000mm" x2="383.595000mm" y2="327.989500mm" />
  <line x1="383.595000mm" y1="327.989500mm" x2="383.432000mm" y2="328.454600mm" />
  <line x1="383.432000mm" y1="328.454600mm" x2="383.170000mm" y2="328.871700mm" />
  <line x1="383.170000mm" y1="328.871700mm" x2="382.822000mm" y2="329.220000mm" />
  <line x1="382.822000mm" y1="329.220000mm" x2="382.405000mm" y2="329.482100mm" />
  <line x1="382.405000mm" y1="329.482100mm" x2="381.940000mm" y2="329.644900mm" />
  <line x1="381.940000mm" y1="329.644900mm" x2="381.450000mm" y2="329.700000mm" />
  <circle cx="62.700000mm" cy="350.290096mm" r="2.199904mm" fill="none"/>
  <line x1="67.099808mm" y1="350.290096mm" x2="58.300192mm" y2="350.290096mm" />
  <line x1="62.700000mm" y1="345.890288mm" x2="62.700000mm" y2="354.689904mm" />
  <text x="64mm" y="348mm" font-size="24">
   4.4
  </text>
  <circle cx="365.750000mm" cy="350.290096mm" r="2.199904mm" fill="none"/>
  <line x1="370.149808mm" y1="350.290096mm" x2="361.350192mm" y2="350.290096mm" />
  <line x1="365.750000mm" y1="345.890288mm" x2="365.750000mm" y2="354.689904mm" />
  <text x="367mm" y="348mm" font-size="24">
   4.4
  </text>
  <circle cx="457.900000mm" cy="356.050096mm" r="2.199904mm" fill="none"/>
  <line x1="462.299808mm" y1="356.050096mm" x2="453.500192mm" y2="356.050096mm" />
  <line x1="457.900000mm" y1="351.650288mm" x2="457.900000mm" y2="360.449904mm" />
  <text x="460mm" y="353mm" font-size="24">
   4.4
  </text>
  <circle cx="395.620028mm" cy="366.099820mm" r="2.500180mm" fill="none"/>
  <line x1="400.620388mm" y1="366.099820mm" x2="390.619668mm" y2="366.099820mm" />
  <line x1="395.620028mm" y1="361.099460mm" x2="395.620028mm" y2="371.100180mm" />
  <text x="398mm" y="363mm" font-size="24">
   5.0
  </text>
  <circle cx="75.079909mm" cy="376.800054mm" r="2.200077mm" fill="none"/>
  <line x1="79.480063mm" y1="376.800054mm" x2="70.679755mm" y2="376.800054mm" />
  <line x1="75.079909mm" y1="372.399900mm" x2="75.079909mm" y2="381.200208mm" />
  <text x="77mm" y="374mm" font-size="24">
   4.4
  </text>
  <circle cx="8.699909mm" cy="376.800054mm" r="2.200077mm" fill="none"/>
  <line x1="13.100063mm" y1="376.800054mm" x2="4.299755mm" y2="376.800054mm" />
  <line x1="8.699909mm" y1="372.399900mm" x2="8.699909mm" y2="381.200208mm" />
  <text x="10mm" y="374mm" font-size="24">
   4.4
  </text>
  <circle cx="463.799909mm" cy="376.800054mm" r="2.200077mm" fill="none"/>
  <line x1="468.200063mm" y1="376.800054mm" x2="459.399755mm" y2="376.800054mm" />
  <line x1="463.799909mm" y1="372.399900mm" x2="463.799909mm" y2="381.200208mm" />
  <text x="465mm" y="374mm" font-size="24">
   4.4
  </text>
  <circle cx="442.579909mm" cy="376.800054mm" r="2.200077mm" fill="none"/>
  <line x1="446.980063mm" y1="376.800054mm" x2="438.179755mm" y2="376.800054mm" />
  <line x1="442.579909mm" y1="372.399900mm" x2="442.579909mm" y2="381.200208mm" />
  <text x="444mm" y="374mm" font-size="24">
   4.4
  </text>
  <circle cx="29.919909mm" cy="376.800054mm" r="2.200077mm" fill="none"/>
  <line x1="34.320063mm" y1="376.800054mm" x2="25.519755mm" y2="376.800054mm" />
  <line x1="29.919909mm" y1="372.399900mm" x2="29.919909mm" y2="381.200208mm" />
  <text x="32mm" y="374mm" font-size="24">
   4.4
  </text>
  <circle cx="405.869909mm" cy="376.800054mm" r="2.200077mm" fill="none"/>
  <line x1="410.270063mm" y1="376.800054mm" x2="401.469755mm" y2="376.800054mm" />
  <line x1="405.869909mm" y1="372.399900mm" x2="405.869909mm" y2="381.200208mm" />
  <text x="408mm" y="374mm" font-size="24">
   4.4
  </text>
  <circle cx="384.649909mm" cy="376.800054mm" r="2.200077mm" fill="none"/>
  <line x1="389.050063mm" y1="376.800054mm" x2="380.249755mm" y2="376.800054mm" />
  <line x1="384.649909mm" y1="372.399900mm" x2="384.649909mm" y2="381.200208mm" />
  <text x="386mm" y="374mm" font-size="24">
   4.4
  </text>
  <circle cx="96.299909mm" cy="376.800054mm" r="2.200077mm" fill="none"/>
  <line x1="100.700063mm" y1="376.800054mm" x2="91.899755mm" y2="376.800054mm" />
  <line x1="96.299909mm" y1="372.399900mm" x2="96.299909mm" y2="381.200208mm" />
  <text x="98mm" y="374mm" font-size="24">
   4.4
  </text>
  <line x1="124.000000mm" y1="384.000000mm" x2="124.000000mm" y2="384.000000mm" />
  <line x1="124.000000mm" y1="384.000000mm" x2="335.247700mm" y2="383.989761mm" />
  <line x1="335.247700mm" y1="383.989761mm" x2="335.736500mm" y2="383.908203mm" />
  <line x1="335.736500mm" y1="383.908203mm" x2="336.205100mm" y2="383.747330mm" />
  <line x1="336.205100mm" y1="383.747330mm" x2="336.641000mm" y2="383.511505mm" />
  <line x1="336.641000mm" y1="383.511505mm" x2="337.032000mm" y2="383.207184mm" />
  <line x1="337.032000mm" y1="383.207184mm" x2="337.367000mm" y2="382.842650mm" />
  <line x1="337.367000mm" y1="382.842650mm" x2="337.638000mm" y2="382.427860mm" />
  <line x1="337.638000mm" y1="382.427860mm" x2="337.837000mm" y2="381.974110mm" />
  <line x1="337.837000mm" y1="381.974110mm" x2="337.959000mm" y2="381.493790mm" />
  <line x1="337.959000mm" y1="381.493790mm" x2="338.000000mm" y2="381.000000mm" />
  <line x1="338.000000mm" y1="381.000000mm" x2="337.990000mm" y2="169.752000mm" />
  <line x1="337.990000mm" y1="169.752000mm" x2="337.908000mm" y2="169.264000mm" />
  <line x1="337.908000mm" y1="169.264000mm" x2="337.747000mm" y2="168.795000mm" />
  <line x1="337.747000mm" y1="168.795000mm" x2="337.511000mm" y2="168.359000mm" />
  <line x1="337.511000mm" y1="168.359000mm" x2="337.207000mm" y2="167.968000mm" />
  <line x1="337.207000mm" y1="167.968000mm" x2="336.843000mm" y2="167.633000mm" />
  <line x1="336.843000mm" y1="167.633000mm" x2="336.428000mm" y2="167.362000mm" />
  <line x1="336.428000mm" y1="167.362000mm" x2="335.974100mm" y2="167.163000mm" />
  <line x1="335.974100mm" y1="167.163000mm" x2="335.493800mm" y2="167.041000mm" />
  <line x1="335.493800mm" y1="167.041000mm" x2="335.000000mm" y2="167.000000mm" />
  <line x1="335.000000mm" y1="167.000000mm" x2="248.010000mm" y2="167.004000mm" />
  <line x1="248.010000mm" y1="167.004000mm" x2="248.010000mm" y2="172.000000mm" />
  <line x1="248.010000mm" y1="172.000000mm" x2="210.990000mm" y2="172.000000mm" />
  <line x1="210.990000mm" y1="172.000000mm" x2="210.990000mm" y2="167.006000mm" />
  <line x1="210.990000mm" y1="167.006000mm" x2="123.752000mm" y2="167.010000mm" />
  <line x1="123.752000mm" y1="167.010000mm" x2="123.264000mm" y2="167.092000mm" />
  <line x1="123.264000mm" y1="167.092000mm" x2="122.795000mm" y2="167.253000mm" />
  <line x1="122.795000mm" y1="167.253000mm" x2="122.359000mm" y2="167.489000mm" />
  <line x1="122.359000mm" y1="167.489000mm" x2="121.968000mm" y2="167.793000mm" />
  <line x1="121.968000mm" y1="167.793000mm" x2="121.633000mm" y2="168.157000mm" />
  <line x1="121.633000mm" y1="168.157000mm" x2="121.362000mm" y2="168.572000mm" />
  <line x1="121.362000mm" y1="168.572000mm" x2="121.163000mm" y2="169.026000mm" />
  <line x1="121.163000mm" y1="169.026000mm" x2="121.041000mm" y2="169.506000mm" />
  <line x1="121.041000mm" y1="169.506000mm" x2="121.000000mm" y2="170.000000mm" />
  <line x1="121.000000mm" y1="170.000000mm" x2="121.010000mm" y2="381.247740mm" />
  <line x1="121.010000mm" y1="381.247740mm" x2="121.092000mm" y2="381.736470mm" />
  <line x1="121.092000mm" y1="381.736470mm" x2="121.253000mm" y2="382.205090mm" />
  <line x1="121.253000mm" y1="382.205090mm" x2="121.489000mm" y2="382.640850mm" />
  <line x1="121.489000mm" y1="382.640850mm" x2="121.793000mm" y2="383.031845mm" />
  <line x1="121.793000mm" y1="383.031845mm" x2="122.157000mm" y2="383.367432mm" />
  <line x1="122.157000mm" y1="383.367432mm" x2="122.572000mm" y2="383.638428mm" />
  <line x1="122.572000mm" y1="383.638428mm" x2="123.026000mm" y2="383.837463mm" />
  <line x1="123.026000mm" y1="383.837463mm" x2="123.506000mm" y2="383.959091mm" />
  <line x1="123.506000mm" y1="383.959091mm" x2="124.000000mm" y2="384.000000mm" />
  <circle cx="125.000000mm" cy="170.999997mm" r="1.250003mm" fill="none"/>
  <line x1="127.500005mm" y1="170.999997mm" x2="122.499995mm" y2="170.999997mm" />
  <line x1="125.000000mm" y1="168.499992mm" x2="125.000000mm" y2="173.500003mm" />
  <text x="126mm" y="169mm" font-size="24">
   2.5
  </text>
  <circle cx="333.999950mm" cy="171.000098mm" r="1.249902mm" fill="none"/>
  <line x1="336.499755mm" y1="171.000098mm" x2="331.500145mm" y2="171.000098mm" />
  <line x1="333.999950mm" y1="168.500293mm" x2="333.999950mm" y2="173.499902mm" />
  <text x="335mm" y="169mm" font-size="24">
   2.5
  </text>
  <circle cx="208.839811mm" cy="176.999831mm" r="1.649797mm" fill="none"/>
  <line x1="212.139405mm" y1="176.999831mm" x2="205.540216mm" y2="176.999831mm" />
  <line x1="208.839811mm" y1="173.700237mm" x2="208.839811mm" y2="180.299425mm" />
  <text x="210mm" y="175mm" font-size="24">
   3.3
  </text>
  <circle cx="250.159811mm" cy="176.999831mm" r="1.649797mm" fill="none"/>
  <line x1="253.459405mm" y1="176.999831mm" x2="246.860216mm" y2="176.999831mm" />
  <line x1="250.159811mm" y1="173.700237mm" x2="250.159811mm" y2="180.299425mm" />
  <text x="251mm" y="175mm" font-size="24">
   3.3
  </text>
  <circle cx="154.700189mm" cy="185.999831mm" r="1.649797mm" fill="none"/>
  <line x1="157.999784mm" y1="185.999831mm" x2="151.400595mm" y2="185.999831mm" />
  <line x1="154.700189mm" y1="182.700237mm" x2="154.700189mm" y2="189.299425mm" />
  <text x="156mm" y="184mm" font-size="24">
   3.3
  </text>
  <circle cx="127.300544mm" cy="205.999805mm" r="1.649827mm" fill="none"/>
  <line x1="130.600198mm" y1="205.999805mm" x2="124.000889mm" y2="205.999805mm" />
  <line x1="127.300544mm" y1="202.700151mm" x2="127.300544mm" y2="209.299459mm" />
  <text x="128mm" y="204mm" font-size="24">
   3.3
  </text>
  <circle cx="197.990121mm" cy="214.675620mm" r="1.649985mm" fill="none"/>
  <line x1="201.290090mm" y1="214.675620mm" x2="194.690151mm" y2="214.675620mm" />
  <line x1="197.990121mm" y1="211.375650mm" x2="197.990121mm" y2="217.975589mm" />
  <text x="199mm" y="213mm" font-size="24">
   3.3
  </text>
  <circle cx="197.990121mm" cy="229.324620mm" r="1.649985mm" fill="none"/>
  <line x1="201.290090mm" y1="229.324620mm" x2="194.690151mm" y2="229.324620mm" />
  <line x1="197.990121mm" y1="226.024650mm" x2="197.990121mm" y2="232.624589mm" />
  <text x="199mm" y="227mm" font-size="24">
   3.3
  </text>
  <circle cx="331.700189mm" cy="265.499831mm" r="1.649797mm" fill="none"/>
  <line x1="334.999784mm" y1="265.499831mm" x2="328.400595mm" y2="265.499831mm" />
  <line x1="331.700189mm" y1="262.200237mm" x2="331.700189mm" y2="268.799425mm" />
  <text x="333mm" y="263mm" font-size="24">
   3.3
  </text>
  <circle cx="304.299988mm" cy="285.500003mm" r="1.650009mm" fill="none"/>
  <line x1="307.600007mm" y1="285.500003mm" x2="300.999970mm" y2="285.500003mm" />
  <line x1="304.299988mm" y1="282.199984mm" x2="304.299988mm" y2="288.800022mm" />
  <text x="305mm" y="283mm" font-size="24">
   3.3
  </text>
  <circle cx="197.989988mm" cy="314.525403mm" r="1.650009mm" fill="none"/>
  <line x1="201.290007mm" y1="314.525403mm" x2="194.689970mm" y2="314.525403mm" />
  <line x1="197.989988mm" y1="311.225384mm" x2="197.989988mm" y2="317.825422mm" />
  <text x="199mm" y="312mm" font-size="24">
   3.3
  </text>
  <circle cx="197.989988mm" cy="329.174603mm" r="1.650009mm" fill="none"/>
  <line x1="201.290007mm" y1="329.174603mm" x2="194.689970mm" y2="329.174603mm" />
  <line x1="197.989988mm" y1="325.874584mm" x2="197.989988mm" y2="332.474622mm" />
  <text x="199mm" y="327mm" font-size="24">
   3.3
  </text>
  <circle cx="154.699988mm" cy="345.000003mm" r="1.650009mm" fill="none"/>
  <line x1="158.000007mm" y1="345.000003mm" x2="151.399970mm" y2="345.000003mm" />
  <line x1="154.699988mm" y1="341.699984mm" x2="154.699988mm" y2="348.300022mm" />
  <text x="156mm" y="343mm" font-size="24">
   3.3
  </text>
  <circle cx="127.300343mm" cy="364.999977mm" r="1.650039mm" fill="none"/>
  <line x1="130.600421mm" y1="364.999977mm" x2="124.000264mm" y2="364.999977mm" />
  <line x1="127.300343mm" y1="361.699898mm" x2="127.300343mm" y2="368.300056mm" />
  <text x="128mm" y="363mm" font-size="24">
   3.3
  </text>
  <circle cx="125.000000mm" cy="379.999901mm" r="1.250099mm" fill="none"/>
  <line x1="127.500199mm" y1="379.999901mm" x2="122.499801mm" y2="379.999901mm" />
  <line x1="125.000000mm" y1="377.499702mm" x2="125.000000mm" y2="382.500099mm" />
  <text x="126mm" y="378mm" font-size="24">
   2.5
  </text>
  <circle cx="333.999950mm" cy="380.000001mm" r="1.249999mm" fill="none"/>
  <line x1="336.499948mm" y1="380.000001mm" x2="331.499952mm" y2="380.000001mm" />
  <line x1="333.999950mm" y1="377.500002mm" x2="333.999950mm" y2="382.499999mm" />
  <text x="335mm" y="378mm" font-size="24">
   2.5
  </text>
 </g>
</svg>
