<?xml version="1.0"?>
<svg xmlns="http://www.w3.org/2000/svg" version="1.1" height="347mm" width="394mm" >
 <g style="fill-opacity:1.0; stroke:black; stroke-width:1;">
  <line x1="312.690000mm" y1="166.500000mm" x2="312.690000mm" y2="166.500000mm" />
  <line x1="312.690000mm" y1="166.500000mm" x2="312.690000mm" y2="163.252270mm" />
  <line x1="312.690000mm" y1="163.252270mm" x2="312.772000mm" y2="162.763550mm" />
  <line x1="312.772000mm" y1="162.763550mm" x2="312.933000mm" y2="162.294920mm" />
  <line x1="312.933000mm" y1="162.294920mm" x2="313.168000mm" y2="161.859160mm" />
  <line x1="313.168000mm" y1="161.859160mm" x2="313.473000mm" y2="161.468170mm" />
  <line x1="313.473000mm" y1="161.468170mm" x2="313.837000mm" y2="161.132580mm" />
  <line x1="313.837000mm" y1="161.132580mm" x2="314.252000mm" y2="160.861590mm" />
  <line x1="314.252000mm" y1="160.861590mm" x2="314.706000mm" y2="160.662550mm" />
  <line x1="314.706000mm" y1="160.662550mm" x2="315.186000mm" y2="160.540920mm" />
  <line x1="315.186000mm" y1="160.540920mm" x2="315.680000mm" y2="160.500000mm" />
  <line x1="315.680000mm" y1="160.500000mm" x2="316.174000mm" y2="160.540920mm" />
  <line x1="316.174000mm" y1="160.540920mm" x2="316.654000mm" y2="160.662550mm" />
  <line x1="316.654000mm" y1="160.662550mm" x2="317.108000mm" y2="160.861590mm" />
  <line x1="317.108000mm" y1="160.861590mm" x2="317.523000mm" y2="161.132580mm" />
  <line x1="317.523000mm" y1="161.132580mm" x2="317.887000mm" y2="161.468170mm" />
  <line x1="317.887000mm" y1="161.468170mm" x2="318.191000mm" y2="161.859160mm" />
  <line x1="318.191000mm" y1="161.859160mm" x2="318.427000mm" y2="162.294920mm" />
  <line x1="318.427000mm" y1="162.294920mm" x2="318.588000mm" y2="162.763550mm" />
  <line x1="318.588000mm" y1="162.763550mm" x2="318.670000mm" y2="163.252270mm" />
  <line x1="318.670000mm" y1="163.252270mm" x2="318.670000mm" y2="166.500000mm" />
  <line x1="318.670000mm" y1="166.500000mm" x2="325.595000mm" y2="166.500000mm" />
  <line x1="325.595000mm" y1="166.500000mm" x2="325.595000mm" y2="164.258940mm" />
  <line x1="325.595000mm" y1="164.258940mm" x2="325.710000mm" y2="163.790800mm" />
  <line x1="325.710000mm" y1="163.790800mm" x2="325.934000mm" y2="163.363880mm" />
  <line x1="325.934000mm" y1="163.363880mm" x2="326.254000mm" y2="163.002990mm" />
  <line x1="326.254000mm" y1="163.002990mm" x2="326.651000mm" y2="162.729100mm" />
  <line x1="326.651000mm" y1="162.729100mm" x2="327.101000mm" y2="162.558120mm" />
  <line x1="327.101000mm" y1="162.558120mm" x2="327.580000mm" y2="162.500000mm" />
  <line x1="327.580000mm" y1="162.500000mm" x2="328.059000mm" y2="162.558120mm" />
  <line x1="328.059000mm" y1="162.558120mm" x2="328.509000mm" y2="162.729100mm" />
  <line x1="328.509000mm" y1="162.729100mm" x2="328.906000mm" y2="163.002990mm" />
  <line x1="328.906000mm" y1="163.002990mm" x2="329.226000mm" y2="163.363880mm" />
  <line x1="329.226000mm" y1="163.363880mm" x2="329.450000mm" y2="163.790800mm" />
  <line x1="329.450000mm" y1="163.790800mm" x2="329.565000mm" y2="164.258940mm" />
  <line x1="329.565000mm" y1="164.258940mm" x2="329.565000mm" y2="166.500000mm" />
  <line x1="329.565000mm" y1="166.500000mm" x2="384.000000mm" y2="166.500000mm" />
  <line x1="384.000000mm" y1="166.500000mm" x2="384.000000mm" y2="25.000000mm" />
  <line x1="384.000000mm" y1="25.000000mm" x2="383.905000mm" y2="22.821000mm" />
  <line x1="383.905000mm" y1="22.821000mm" x2="383.620000mm" y2="20.659000mm" />
  <line x1="383.620000mm" y1="20.659000mm" x2="383.148000mm" y2="18.530000mm" />
  <line x1="383.148000mm" y1="18.530000mm" x2="382.492000mm" y2="16.450000mm" />
  <line x1="382.492000mm" y1="16.450000mm" x2="381.658000mm" y2="14.435000mm" />
  <line x1="381.658000mm" y1="14.435000mm" x2="380.651000mm" y2="12.500000mm" />
  <line x1="380.651000mm" y1="12.500000mm" x2="379.479000mm" y2="10.661000mm" />
  <line x1="379.479000mm" y1="10.661000mm" x2="378.151000mm" y2="8.930000mm" />
  <line x1="378.151000mm" y1="8.930000mm" x2="376.678000mm" y2="7.322000mm" />
  <line x1="376.678000mm" y1="7.322000mm" x2="375.070000mm" y2="5.849000mm" />
  <line x1="375.070000mm" y1="5.849000mm" x2="373.339000mm" y2="4.521000mm" />
  <line x1="373.339000mm" y1="4.521000mm" x2="371.500000mm" y2="3.349000mm" />
  <line x1="371.500000mm" y1="3.349000mm" x2="369.565000mm" y2="2.342000mm" />
  <line x1="369.565000mm" y1="2.342000mm" x2="367.550000mm" y2="1.508000mm" />
  <line x1="367.550000mm" y1="1.508000mm" x2="365.470000mm" y2="0.852000mm" />
  <line x1="365.470000mm" y1="0.852000mm" x2="363.341000mm" y2="0.380000mm" />
  <line x1="363.341000mm" y1="0.380000mm" x2="361.179000mm" y2="0.095000mm" />
  <line x1="361.179000mm" y1="0.095000mm" x2="359.000000mm" y2="0.000000mm" />
  <line x1="359.000000mm" y1="0.000000mm" x2="0.000000mm" y2="0.000000mm" />
  <line x1="0.000000mm" y1="0.000000mm" x2="0.000000mm" y2="166.500000mm" />
  <line x1="0.000000mm" y1="166.500000mm" x2="312.690000mm" y2="166.500000mm" />
  <circle cx="7.199995mm" cy="8.699860mm" r="2.200140mm" fill="none"/>
  <line x1="11.600275mm" y1="8.699860mm" x2="2.799715mm" y2="8.699860mm" />
  <line x1="7.199995mm" y1="4.299580mm" x2="7.199995mm" y2="13.100140mm" />
  <text x="9mm" y="6mm" font-size="24">
   4.4
  </text>
  <circle cx="7.199995mm" cy="29.919860mm" r="2.200140mm" fill="none"/>
  <line x1="11.600275mm" y1="29.919860mm" x2="2.799715mm" y2="29.919860mm" />
  <line x1="7.199995mm" y1="25.519580mm" x2="7.199995mm" y2="34.320140mm" />
  <text x="9mm" y="27mm" font-size="24">
   4.4
  </text>
  <circle cx="51.750000mm" cy="75.350033mm" r="2.199967mm" fill="none"/>
  <line x1="56.149934mm" y1="75.350033mm" x2="47.350066mm" y2="75.350033mm" />
  <line x1="51.750000mm" y1="70.950100mm" x2="51.750000mm" y2="79.749967mm" />
  <text x="53mm" y="73mm" font-size="24">
   4.4
  </text>
  <circle cx="123.250000mm" cy="75.350096mm" r="2.199904mm" fill="none"/>
  <line x1="127.649808mm" y1="75.350096mm" x2="118.850192mm" y2="75.350096mm" />
  <line x1="123.250000mm" y1="70.950288mm" x2="123.250000mm" y2="79.749904mm" />
  <text x="125mm" y="73mm" font-size="24">
   4.4
  </text>
  <circle cx="87.500000mm" cy="111.099973mm" r="37.500027mm" fill="none"/>
  <line x1="162.500055mm" y1="111.099973mm" x2="12.499945mm" y2="111.099973mm" />
  <line x1="87.500000mm" y1="36.099918mm" x2="87.500000mm" y2="186.100027mm" />
  <text x="125mm" y="73mm" font-size="24">
   75.0
  </text>
  <circle cx="287.061500mm" cy="77.149782mm" r="2.200218mm" fill="none"/>
  <line x1="291.461936mm" y1="77.149782mm" x2="282.661064mm" y2="77.149782mm" />
  <line x1="287.061500mm" y1="72.749345mm" x2="287.061500mm" y2="81.550218mm" />
  <text x="289mm" y="74mm" font-size="24">
   4.4
  </text>
  <circle cx="51.750000mm" cy="146.850033mm" r="2.199967mm" fill="none"/>
  <line x1="56.149934mm" y1="146.850033mm" x2="47.350066mm" y2="146.850033mm" />
  <line x1="51.750000mm" y1="142.450100mm" x2="51.750000mm" y2="151.249967mm" />
  <text x="53mm" y="144mm" font-size="24">
   4.4
  </text>
  <circle cx="123.250000mm" cy="146.850096mm" r="2.199904mm" fill="none"/>
  <line x1="127.649808mm" y1="146.850096mm" x2="118.850192mm" y2="146.850096mm" />
  <line x1="123.250000mm" y1="142.450288mm" x2="123.250000mm" y2="151.249904mm" />
  <text x="125mm" y="144mm" font-size="24">
   4.4
  </text>
  <circle cx="23.100013mm" cy="159.300021mm" r="2.199975mm" fill="none"/>
  <line x1="27.499963mm" y1="159.300021mm" x2="18.700062mm" y2="159.300021mm" />
  <line x1="23.100013mm" y1="154.900070mm" x2="23.100013mm" y2="163.699971mm" />
  <text x="25mm" y="157mm" font-size="24">
   4.4
  </text>
  <circle cx="44.320013mm" cy="159.300021mm" r="2.199975mm" fill="none"/>
  <line x1="48.719963mm" y1="159.300021mm" x2="39.920062mm" y2="159.300021mm" />
  <line x1="44.320013mm" y1="154.900070mm" x2="44.320013mm" y2="163.699971mm" />
  <text x="46mm" y="157mm" font-size="24">
   4.4
  </text>
  <circle cx="339.679909mm" cy="159.300054mm" r="2.200077mm" fill="none"/>
  <line x1="344.080063mm" y1="159.300054mm" x2="335.279755mm" y2="159.300054mm" />
  <line x1="339.679909mm" y1="154.899900mm" x2="339.679909mm" y2="163.700208mm" />
  <text x="341mm" y="157mm" font-size="24">
   4.4
  </text>
  <circle cx="360.899909mm" cy="159.300054mm" r="2.200077mm" fill="none"/>
  <line x1="365.300063mm" y1="159.300054mm" x2="356.499755mm" y2="159.300054mm" />
  <line x1="360.899909mm" y1="154.899900mm" x2="360.899909mm" y2="163.700208mm" />
  <text x="363mm" y="157mm" font-size="24">
   4.4
  </text>
  <line x1="359.000000mm" y1="337.000000mm" x2="359.000000mm" y2="337.000000mm" />
  <line x1="359.000000mm" y1="337.000000mm" x2="361.179000mm" y2="336.905000mm" />
  <line x1="361.179000mm" y1="336.905000mm" x2="363.341000mm" y2="336.620000mm" />
  <line x1="363.341000mm" y1="336.620000mm" x2="365.470000mm" y2="336.148000mm" />
  <line x1="365.470000mm" y1="336.148000mm" x2="367.550000mm" y2="335.492000mm" />
  <line x1="367.550000mm" y1="335.492000mm" x2="369.565000mm" y2="334.658000mm" />
  <line x1="369.565000mm" y1="334.658000mm" x2="371.500000mm" y2="333.651000mm" />
  <line x1="371.500000mm" y1="333.651000mm" x2="373.339000mm" y2="332.479000mm" />
  <line x1="373.339000mm" y1="332.479000mm" x2="375.070000mm" y2="331.151000mm" />
  <line x1="375.070000mm" y1="331.151000mm" x2="376.678000mm" y2="329.678000mm" />
  <line x1="376.678000mm" y1="329.678000mm" x2="378.151000mm" y2="328.070000mm" />
  <line x1="378.151000mm" y1="328.070000mm" x2="379.479000mm" y2="326.339000mm" />
  <line x1="379.479000mm" y1="326.339000mm" x2="380.651000mm" y2="324.500000mm" />
  <line x1="380.651000mm" y1="324.500000mm" x2="381.658000mm" y2="322.565000mm" />
  <line x1="381.658000mm" y1="322.565000mm" x2="382.492000mm" y2="320.550000mm" />
  <line x1="382.492000mm" y1="320.550000mm" x2="383.148000mm" y2="318.470000mm" />
  <line x1="383.148000mm" y1="318.470000mm" x2="383.620000mm" y2="316.341000mm" />
  <line x1="383.620000mm" y1="316.341000mm" x2="383.905000mm" y2="314.179000mm" />
  <line x1="383.905000mm" y1="314.179000mm" x2="384.000000mm" y2="312.000000mm" />
  <line x1="384.000000mm" y1="312.000000mm" x2="384.000000mm" y2="170.500000mm" />
  <line x1="384.000000mm" y1="170.500000mm" x2="329.565000mm" y2="170.500000mm" />
  <line x1="329.565000mm" y1="170.500000mm" x2="329.565000mm" y2="172.741060mm" />
  <line x1="329.565000mm" y1="172.741060mm" x2="329.450000mm" y2="173.209200mm" />
  <line x1="329.450000mm" y1="173.209200mm" x2="329.226000mm" y2="173.636120mm" />
  <line x1="329.226000mm" y1="173.636120mm" x2="328.906000mm" y2="173.997010mm" />
  <line x1="328.906000mm" y1="173.997010mm" x2="328.509000mm" y2="174.270900mm" />
  <line x1="328.509000mm" y1="174.270900mm" x2="328.059000mm" y2="174.441880mm" />
  <line x1="328.059000mm" y1="174.441880mm" x2="327.580000mm" y2="174.500000mm" />
  <line x1="327.580000mm" y1="174.500000mm" x2="327.101000mm" y2="174.441880mm" />
  <line x1="327.101000mm" y1="174.441880mm" x2="326.651000mm" y2="174.270900mm" />
  <line x1="326.651000mm" y1="174.270900mm" x2="326.254000mm" y2="173.997010mm" />
  <line x1="326.254000mm" y1="173.997010mm" x2="325.934000mm" y2="173.636120mm" />
  <line x1="325.934000mm" y1="173.636120mm" x2="325.710000mm" y2="173.209200mm" />
  <line x1="325.710000mm" y1="173.209200mm" x2="325.595000mm" y2="172.741060mm" />
  <line x1="325.595000mm" y1="172.741060mm" x2="325.595000mm" y2="170.500000mm" />
  <line x1="325.595000mm" y1="170.500000mm" x2="318.670000mm" y2="170.500000mm" />
  <line x1="318.670000mm" y1="170.500000mm" x2="318.670000mm" y2="173.747730mm" />
  <line x1="318.670000mm" y1="173.747730mm" x2="318.588000mm" y2="174.236450mm" />
  <line x1="318.588000mm" y1="174.236450mm" x2="318.427000mm" y2="174.705080mm" />
  <line x1="318.427000mm" y1="174.705080mm" x2="318.191000mm" y2="175.140840mm" />
  <line x1="318.191000mm" y1="175.140840mm" x2="317.887000mm" y2="175.531830mm" />
  <line x1="317.887000mm" y1="175.531830mm" x2="317.523000mm" y2="175.867420mm" />
  <line x1="317.523000mm" y1="175.867420mm" x2="317.108000mm" y2="176.138410mm" />
  <line x1="317.108000mm" y1="176.138410mm" x2="316.654000mm" y2="176.337450mm" />
  <line x1="316.654000mm" y1="176.337450mm" x2="316.174000mm" y2="176.459080mm" />
  <line x1="316.174000mm" y1="176.459080mm" x2="315.680000mm" y2="176.500000mm" />
  <line x1="315.680000mm" y1="176.500000mm" x2="315.186000mm" y2="176.459080mm" />
  <line x1="315.186000mm" y1="176.459080mm" x2="314.706000mm" y2="176.337450mm" />
  <line x1="314.706000mm" y1="176.337450mm" x2="314.252000mm" y2="176.138410mm" />
  <line x1="314.252000mm" y1="176.138410mm" x2="313.837000mm" y2="175.867420mm" />
  <line x1="313.837000mm" y1="175.867420mm" x2="313.473000mm" y2="175.531830mm" />
  <line x1="313.473000mm" y1="175.531830mm" x2="313.168000mm" y2="175.140840mm" />
  <line x1="313.168000mm" y1="175.140840mm" x2="312.933000mm" y2="174.705080mm" />
  <line x1="312.933000mm" y1="174.705080mm" x2="312.772000mm" y2="174.236450mm" />
  <line x1="312.772000mm" y1="174.236450mm" x2="312.690000mm" y2="173.747730mm" />
  <line x1="312.690000mm" y1="173.747730mm" x2="312.690000mm" y2="170.500000mm" />
  <line x1="312.690000mm" y1="170.500000mm" x2="0.000000mm" y2="170.500000mm" />
  <line x1="0.000000mm" y1="170.500000mm" x2="0.000000mm" y2="184.900000mm" />
  <line x1="0.000000mm" y1="184.900000mm" x2="2.499980mm" y2="184.900000mm" />
  <line x1="2.499980mm" y1="184.900000mm" x2="2.987720mm" y2="184.948000mm" />
  <line x1="2.987720mm" y1="184.948000mm" x2="3.456700mm" y2="185.090300mm" />
  <line x1="3.456700mm" y1="185.090300mm" x2="3.888920mm" y2="185.321300mm" />
  <line x1="3.888920mm" y1="185.321300mm" x2="4.267760mm" y2="185.632200mm" />
  <line x1="4.267760mm" y1="185.632200mm" x2="4.578660mm" y2="186.011100mm" />
  <line x1="4.578660mm" y1="186.011100mm" x2="4.809690mm" y2="186.443300mm" />
  <line x1="4.809690mm" y1="186.443300mm" x2="4.951950mm" y2="186.912300mm" />
  <line x1="4.951950mm" y1="186.912300mm" x2="4.999980mm" y2="187.400000mm" />
  <line x1="4.999980mm" y1="187.400000mm" x2="4.951950mm" y2="187.887700mm" />
  <line x1="4.951950mm" y1="187.887700mm" x2="4.809690mm" y2="188.356700mm" />
  <line x1="4.809690mm" y1="188.356700mm" x2="4.578660mm" y2="188.788900mm" />
  <line x1="4.578660mm" y1="188.788900mm" x2="4.267760mm" y2="189.167800mm" />
  <line x1="4.267760mm" y1="189.167800mm" x2="3.888920mm" y2="189.478700mm" />
  <line x1="3.888920mm" y1="189.478700mm" x2="3.456700mm" y2="189.709700mm" />
  <line x1="3.456700mm" y1="189.709700mm" x2="2.987720mm" y2="189.852000mm" />
  <line x1="2.987720mm" y1="189.852000mm" x2="2.499980mm" y2="189.900000mm" />
  <line x1="2.499980mm" y1="189.900000mm" x2="0.000000mm" y2="189.900000mm" />
  <line x1="0.000000mm" y1="189.900000mm" x2="0.000000mm" y2="194.914600mm" />
  <line x1="0.000000mm" y1="194.914600mm" x2="2.241060mm" y2="194.914600mm" />
  <line x1="2.241060mm" y1="194.914600mm" x2="2.709200mm" y2="195.030000mm" />
  <line x1="2.709200mm" y1="195.030000mm" x2="3.136120mm" y2="195.254000mm" />
  <line x1="3.136120mm" y1="195.254000mm" x2="3.497010mm" y2="195.573700mm" />
  <line x1="3.497010mm" y1="195.573700mm" x2="3.770900mm" y2="195.970600mm" />
  <line x1="3.770900mm" y1="195.970600mm" x2="3.941880mm" y2="196.421400mm" />
  <line x1="3.941880mm" y1="196.421400mm" x2="3.999980mm" y2="196.900000mm" />
  <line x1="3.999980mm" y1="196.900000mm" x2="3.941880mm" y2="197.378600mm" />
  <line x1="3.941880mm" y1="197.378600mm" x2="3.770900mm" y2="197.829400mm" />
  <line x1="3.770900mm" y1="197.829400mm" x2="3.497010mm" y2="198.226200mm" />
  <line x1="3.497010mm" y1="198.226200mm" x2="3.136120mm" y2="198.546000mm" />
  <line x1="3.136120mm" y1="198.546000mm" x2="2.709200mm" y2="198.770000mm" />
  <line x1="2.709200mm" y1="198.770000mm" x2="2.241060mm" y2="198.885400mm" />
  <line x1="2.241060mm" y1="198.885400mm" x2="0.000000mm" y2="198.885400mm" />
  <line x1="0.000000mm" y1="198.885400mm" x2="0.000000mm" y2="258.414600mm" />
  <line x1="0.000000mm" y1="258.414600mm" x2="2.241060mm" y2="258.414600mm" />
  <line x1="2.241060mm" y1="258.414600mm" x2="2.709200mm" y2="258.530000mm" />
  <line x1="2.709200mm" y1="258.530000mm" x2="3.136120mm" y2="258.754000mm" />
  <line x1="3.136120mm" y1="258.754000mm" x2="3.497010mm" y2="259.073700mm" />
  <line x1="3.497010mm" y1="259.073700mm" x2="3.770900mm" y2="259.470600mm" />
  <line x1="3.770900mm" y1="259.470600mm" x2="3.941880mm" y2="259.921400mm" />
  <line x1="3.941880mm" y1="259.921400mm" x2="3.999980mm" y2="260.400000mm" />
  <line x1="3.999980mm" y1="260.400000mm" x2="3.941880mm" y2="260.878600mm" />
  <line x1="3.941880mm" y1="260.878600mm" x2="3.770900mm" y2="261.329400mm" />
  <line x1="3.770900mm" y1="261.329400mm" x2="3.497010mm" y2="261.726200mm" />
  <line x1="3.497010mm" y1="261.726200mm" x2="3.136120mm" y2="262.046000mm" />
  <line x1="3.136120mm" y1="262.046000mm" x2="2.709200mm" y2="262.270000mm" />
  <line x1="2.709200mm" y1="262.270000mm" x2="2.241060mm" y2="262.385400mm" />
  <line x1="2.241060mm" y1="262.385400mm" x2="0.000000mm" y2="262.385400mm" />
  <line x1="0.000000mm" y1="262.385400mm" x2="0.000000mm" y2="269.500000mm" />
  <line x1="0.000000mm" y1="269.500000mm" x2="3.499980mm" y2="269.500000mm" />
  <line x1="3.499980mm" y1="269.500000mm" x2="3.998090mm" y2="269.536000mm" />
  <line x1="3.998090mm" y1="269.536000mm" x2="4.486050mm" y2="269.642000mm" />
  <line x1="4.486050mm" y1="269.642000mm" x2="4.953950mm" y2="269.816000mm" />
  <line x1="4.953950mm" y1="269.816000mm" x2="5.392240mm" y2="270.056000mm" />
  <line x1="5.392240mm" y1="270.056000mm" x2="5.792010mm" y2="270.355000mm" />
  <line x1="5.792010mm" y1="270.355000mm" x2="6.145110mm" y2="270.708000mm" />
  <line x1="6.145110mm" y1="270.708000mm" x2="6.444380mm" y2="271.108000mm" />
  <line x1="6.444380mm" y1="271.108000mm" x2="6.683700mm" y2="271.546000mm" />
  <line x1="6.683700mm" y1="271.546000mm" x2="6.858220mm" y2="272.014000mm" />
  <line x1="6.858220mm" y1="272.014000mm" x2="6.964370mm" y2="272.502000mm" />
  <line x1="6.964370mm" y1="272.502000mm" x2="6.999980mm" y2="273.000000mm" />
  <line x1="6.999980mm" y1="273.000000mm" x2="6.964370mm" y2="273.498000mm" />
  <line x1="6.964370mm" y1="273.498000mm" x2="6.858220mm" y2="273.986000mm" />
  <line x1="6.858220mm" y1="273.986000mm" x2="6.683700mm" y2="274.454000mm" />
  <line x1="6.683700mm" y1="274.454000mm" x2="6.444380mm" y2="274.892000mm" />
  <line x1="6.444380mm" y1="274.892000mm" x2="6.145110mm" y2="275.292000mm" />
  <line x1="6.145110mm" y1="275.292000mm" x2="5.792010mm" y2="275.645000mm" />
  <line x1="5.792010mm" y1="275.645000mm" x2="5.392240mm" y2="275.944000mm" />
  <line x1="5.392240mm" y1="275.944000mm" x2="4.953950mm" y2="276.184000mm" />
  <line x1="4.953950mm" y1="276.184000mm" x2="4.486050mm" y2="276.358000mm" />
  <line x1="4.486050mm" y1="276.358000mm" x2="3.998090mm" y2="276.464000mm" />
  <line x1="3.998090mm" y1="276.464000mm" x2="3.499980mm" y2="276.500000mm" />
  <line x1="3.499980mm" y1="276.500000mm" x2="0.000000mm" y2="276.500000mm" />
  <line x1="0.000000mm" y1="276.500000mm" x2="0.000000mm" y2="337.000000mm" />
  <line x1="0.000000mm" y1="337.000000mm" x2="359.000000mm" y2="337.000000mm" />
  <circle cx="360.900000mm" cy="177.700096mm" r="2.199904mm" fill="none"/>
  <line x1="365.299808mm" y1="177.700096mm" x2="356.500192mm" y2="177.700096mm" />
  <line x1="360.900000mm" y1="173.300288mm" x2="360.900000mm" y2="182.099904mm" />
  <text x="363mm" y="175mm" font-size="24">
   4.4
  </text>
  <circle cx="339.680000mm" cy="177.700096mm" r="2.199904mm" fill="none"/>
  <line x1="344.079808mm" y1="177.700096mm" x2="335.280192mm" y2="177.700096mm" />
  <line x1="339.680000mm" y1="173.300288mm" x2="339.680000mm" y2="182.099904mm" />
  <text x="341mm" y="175mm" font-size="24">
   4.4
  </text>
  <circle cx="44.320000mm" cy="177.700033mm" r="2.199967mm" fill="none"/>
  <line x1="48.719934mm" y1="177.700033mm" x2="39.920066mm" y2="177.700033mm" />
  <line x1="44.320000mm" y1="173.300100mm" x2="44.320000mm" y2="182.099967mm" />
  <text x="46mm" y="175mm" font-size="24">
   4.4
  </text>
  <circle cx="23.100000mm" cy="177.700033mm" r="2.199967mm" fill="none"/>
  <line x1="27.499934mm" y1="177.700033mm" x2="18.700066mm" y2="177.700033mm" />
  <line x1="23.100000mm" y1="173.300100mm" x2="23.100000mm" y2="182.099967mm" />
  <text x="25mm" y="175mm" font-size="24">
   4.4
  </text>
  <circle cx="287.061500mm" cy="202.149752mm" r="2.200248mm" fill="none"/>
  <line x1="291.461997mm" y1="202.149752mm" x2="282.661003mm" y2="202.149752mm" />
  <line x1="287.061500mm" y1="197.749255mm" x2="287.061500mm" y2="206.550249mm" />
  <text x="289mm" y="199mm" font-size="24">
   4.4
  </text>
  <circle cx="234.800000mm" cy="229.599966mm" r="1.650034mm" fill="none"/>
  <line x1="238.100067mm" y1="229.599966mm" x2="231.499933mm" y2="229.599966mm" />
  <line x1="234.800000mm" y1="226.299899mm" x2="234.800000mm" y2="232.900034mm" />
  <text x="236mm" y="227mm" font-size="24">
   3.3
  </text>
  <circle cx="309.700000mm" cy="229.599966mm" r="1.650034mm" fill="none"/>
  <line x1="313.000067mm" y1="229.599966mm" x2="306.399933mm" y2="229.599966mm" />
  <line x1="309.700000mm" y1="226.299899mm" x2="309.700000mm" y2="232.900034mm" />
  <text x="311mm" y="227mm" font-size="24">
   3.3
  </text>
  <circle cx="204.349590mm" cy="274.350181mm" r="1.400139mm" fill="none"/>
  <line x1="207.149868mm" y1="274.350181mm" x2="201.549311mm" y2="274.350181mm" />
  <line x1="204.349590mm" y1="271.549902mm" x2="204.349590mm" y2="277.150460mm" />
  <text x="205mm" y="272mm" font-size="24">
   2.8
  </text>
  <circle cx="228.500000mm" cy="277.899966mm" r="1.650034mm" fill="none"/>
  <line x1="231.800067mm" y1="277.899966mm" x2="225.199933mm" y2="277.899966mm" />
  <line x1="228.500000mm" y1="274.599899mm" x2="228.500000mm" y2="281.200034mm" />
  <text x="230mm" y="276mm" font-size="24">
   3.3
  </text>
  <circle cx="311.000000mm" cy="277.899966mm" r="1.650034mm" fill="none"/>
  <line x1="314.300067mm" y1="277.899966mm" x2="307.699933mm" y2="277.899966mm" />
  <line x1="311.000000mm" y1="274.599899mm" x2="311.000000mm" y2="281.200034mm" />
  <text x="312mm" y="276mm" font-size="24">
   3.3
  </text>
  <circle cx="190.049590mm" cy="290.250181mm" r="1.400139mm" fill="none"/>
  <line x1="192.849868mm" y1="290.250181mm" x2="187.249311mm" y2="290.250181mm" />
  <line x1="190.049590mm" y1="287.449902mm" x2="190.049590mm" y2="293.050460mm" />
  <text x="191mm" y="288mm" font-size="24">
   2.8
  </text>
  <circle cx="204.349590mm" cy="305.850181mm" r="1.400139mm" fill="none"/>
  <line x1="207.149868mm" y1="305.850181mm" x2="201.549311mm" y2="305.850181mm" />
  <line x1="204.349590mm" y1="303.049902mm" x2="204.349590mm" y2="308.650460mm" />
  <text x="205mm" y="304mm" font-size="24">
   2.8
  </text>
  <circle cx="7.199995mm" cy="307.079860mm" r="2.200140mm" fill="none"/>
  <line x1="11.600275mm" y1="307.079860mm" x2="2.799715mm" y2="307.079860mm" />
  <line x1="7.199995mm" y1="302.679580mm" x2="7.199995mm" y2="311.480140mm" />
  <text x="9mm" y="304mm" font-size="24">
   4.4
  </text>
  <circle cx="190.049590mm" cy="321.750181mm" r="1.400139mm" fill="none"/>
  <line x1="192.849868mm" y1="321.750181mm" x2="187.249311mm" y2="321.750181mm" />
  <line x1="190.049590mm" y1="318.949902mm" x2="190.049590mm" y2="324.550460mm" />
  <text x="191mm" y="320mm" font-size="24">
   2.8
  </text>
  <circle cx="7.199995mm" cy="328.299860mm" r="2.200140mm" fill="none"/>
  <line x1="11.600275mm" y1="328.299860mm" x2="2.799715mm" y2="328.299860mm" />
  <line x1="7.199995mm" y1="323.899580mm" x2="7.199995mm" y2="332.700140mm" />
  <text x="9mm" y="326mm" font-size="24">
   4.4
  </text>
  <circle cx="31.750000mm" cy="330.149882mm" r="2.200118mm" fill="none"/>
  <line x1="36.150236mm" y1="330.149882mm" x2="27.349764mm" y2="330.149882mm" />
  <line x1="31.750000mm" y1="325.749646mm" x2="31.750000mm" y2="334.550118mm" />
  <text x="33mm" y="327mm" font-size="24">
   4.4
  </text>
  <circle cx="147.050000mm" cy="330.149945mm" r="2.200055mm" fill="none"/>
  <line x1="151.450111mm" y1="330.149945mm" x2="142.649889mm" y2="330.149945mm" />
  <line x1="147.050000mm" y1="325.749834mm" x2="147.050000mm" y2="334.550055mm" />
  <text x="149mm" y="327mm" font-size="24">
   4.4
  </text>
 </g>
</svg>
