<?xml version="1.0"?>
<svg xmlns="http://www.w3.org/2000/svg" version="1.1" height="165mm" width="414mm" >
 <g style="fill-opacity:1.0; stroke:black; stroke-width:1;">
  <line x1="0.000000mm" y1="0.000000mm" x2="0.000000mm" y2="0.000000mm" />
  <line x1="0.000000mm" y1="0.000000mm" x2="0.000000mm" y2="154.500000mm" />
  <line x1="0.000000mm" y1="154.500000mm" x2="403.000000mm" y2="154.500000mm" />
  <line x1="403.000000mm" y1="154.500000mm" x2="403.000000mm" y2="15.000000mm" />
  <line x1="403.000000mm" y1="15.000000mm" x2="402.943000mm" y2="13.693000mm" />
  <line x1="402.943000mm" y1="13.693000mm" x2="402.772000mm" y2="12.395000mm" />
  <line x1="402.772000mm" y1="12.395000mm" x2="402.489000mm" y2="11.118000mm" />
  <line x1="402.489000mm" y1="11.118000mm" x2="402.095000mm" y2="9.870000mm" />
  <line x1="402.095000mm" y1="9.870000mm" x2="401.595000mm" y2="8.661000mm" />
  <line x1="401.595000mm" y1="8.661000mm" x2="400.990000mm" y2="7.500000mm" />
  <line x1="400.990000mm" y1="7.500000mm" x2="400.287000mm" y2="6.396000mm" />
  <line x1="400.287000mm" y1="6.396000mm" x2="399.491000mm" y2="5.358000mm" />
  <line x1="399.491000mm" y1="5.358000mm" x2="398.607000mm" y2="4.393000mm" />
  <line x1="398.607000mm" y1="4.393000mm" x2="397.642000mm" y2="3.509000mm" />
  <line x1="397.642000mm" y1="3.509000mm" x2="396.604000mm" y2="2.713000mm" />
  <line x1="396.604000mm" y1="2.713000mm" x2="395.500000mm" y2="2.010000mm" />
  <line x1="395.500000mm" y1="2.010000mm" x2="394.339000mm" y2="1.405000mm" />
  <line x1="394.339000mm" y1="1.405000mm" x2="393.130000mm" y2="0.905000mm" />
  <line x1="393.130000mm" y1="0.905000mm" x2="391.882000mm" y2="0.511000mm" />
  <line x1="391.882000mm" y1="0.511000mm" x2="390.605000mm" y2="0.228000mm" />
  <line x1="390.605000mm" y1="0.228000mm" x2="389.307000mm" y2="0.057000mm" />
  <line x1="389.307000mm" y1="0.057000mm" x2="388.000000mm" y2="0.000000mm" />
  <line x1="388.000000mm" y1="0.000000mm" x2="0.000000mm" y2="0.000000mm" />
  <circle cx="8.200096mm" cy="30.520172mm" r="1.000172mm" fill="none"/>
  <line x1="10.200440mm" y1="30.520172mm" x2="6.199751mm" y2="30.520172mm" />
  <line x1="8.200096mm" y1="28.519828mm" x2="8.200096mm" y2="32.520516mm" />
  <text x="9mm" y="29mm" font-size="24">
   2.0
  </text>
  <circle cx="8.200096mm" cy="9.700172mm" r="1.000172mm" fill="none"/>
  <line x1="10.200440mm" y1="9.700172mm" x2="6.199751mm" y2="9.700172mm" />
  <line x1="8.200096mm" y1="7.699828mm" x2="8.200096mm" y2="11.700516mm" />
  <text x="9mm" y="8mm" font-size="24">
   2.0
  </text>
  <circle cx="26.099970mm" cy="146.300012mm" r="1.000005mm" fill="none"/>
  <line x1="28.099980mm" y1="146.300012mm" x2="24.099960mm" y2="146.300012mm" />
  <line x1="26.099970mm" y1="144.300002mm" x2="26.099970mm" y2="148.300022mm" />
  <text x="27mm" y="145mm" font-size="24">
   2.0
  </text>
  <circle cx="46.919970mm" cy="146.300012mm" r="1.000005mm" fill="none"/>
  <line x1="48.919980mm" y1="146.300012mm" x2="44.919960mm" y2="146.300012mm" />
  <line x1="46.919970mm" y1="144.300002mm" x2="46.919970mm" y2="148.300022mm" />
  <text x="47mm" y="145mm" font-size="24">
   2.0
  </text>
  <circle cx="56.250019mm" cy="131.850019mm" r="2.199964mm" fill="none"/>
  <line x1="60.649947mm" y1="131.850019mm" x2="51.850091mm" y2="131.850019mm" />
  <line x1="56.250019mm" y1="127.450091mm" x2="56.250019mm" y2="136.249947mm" />
  <text x="58mm" y="129mm" font-size="24">
   4.4
  </text>
  <circle cx="56.250019mm" cy="60.350019mm" r="2.199964mm" fill="none"/>
  <line x1="60.649947mm" y1="60.350019mm" x2="51.850091mm" y2="60.350019mm" />
  <line x1="56.250019mm" y1="55.950091mm" x2="56.250019mm" y2="64.749947mm" />
  <text x="58mm" y="58mm" font-size="24">
   4.4
  </text>
  <circle cx="91.999944mm" cy="96.100033mm" r="37.499937mm" fill="none"/>
  <line x1="166.999818mm" y1="96.100033mm" x2="17.000070mm" y2="96.100033mm" />
  <line x1="91.999944mm" y1="21.100159mm" x2="91.999944mm" y2="171.099907mm" />
  <text x="129mm" y="58mm" font-size="24">
   75.0
  </text>
  <circle cx="127.749998mm" cy="131.850067mm" r="2.200127mm" fill="none"/>
  <line x1="132.150252mm" y1="131.850067mm" x2="123.349744mm" y2="131.850067mm" />
  <line x1="127.749998mm" y1="127.449813mm" x2="127.749998mm" y2="136.250321mm" />
  <text x="129mm" y="129mm" font-size="24">
   4.4
  </text>
  <circle cx="127.749998mm" cy="60.350067mm" r="2.200127mm" fill="none"/>
  <line x1="132.150252mm" y1="60.350067mm" x2="123.349744mm" y2="60.350067mm" />
  <line x1="127.749998mm" y1="55.949813mm" x2="127.749998mm" y2="64.750321mm" />
  <text x="129mm" y="58mm" font-size="24">
   4.4
  </text>
  <circle cx="286.511467mm" cy="65.600011mm" r="0.999994mm" fill="none"/>
  <line x1="288.511455mm" y1="65.600011mm" x2="284.511479mm" y2="65.600011mm" />
  <line x1="286.511467mm" y1="63.600023mm" x2="286.511467mm" y2="67.599999mm" />
  <text x="287mm" y="64mm" font-size="24">
   2.0
  </text>
  <circle cx="331.480078mm" cy="146.500073mm" r="2.999982mm" fill="none"/>
  <line x1="337.480042mm" y1="146.500073mm" x2="325.480114mm" y2="146.500073mm" />
  <line x1="331.480078mm" y1="140.500109mm" x2="331.480078mm" y2="152.500036mm" />
  <text x="334mm" y="143mm" font-size="24">
   6.0
  </text>
  <circle cx="342.979873mm" cy="147.500018mm" r="1.999985mm" fill="none"/>
  <line x1="346.979844mm" y1="147.500018mm" x2="338.979903mm" y2="147.500018mm" />
  <line x1="342.979873mm" y1="143.500048mm" x2="342.979873mm" y2="151.499989mm" />
  <text x="344mm" y="145mm" font-size="24">
   4.0
  </text>
  <circle cx="356.080479mm" cy="146.299934mm" r="1.000050mm" fill="none"/>
  <line x1="358.080578mm" y1="146.299934mm" x2="354.080380mm" y2="146.299934mm" />
  <line x1="356.080479mm" y1="144.299835mm" x2="356.080479mm" y2="148.300033mm" />
  <text x="357mm" y="145mm" font-size="24">
   2.0
  </text>
  <circle cx="376.900479mm" cy="146.299934mm" r="1.000050mm" fill="none"/>
  <line x1="378.900578mm" y1="146.299934mm" x2="374.900380mm" y2="146.299934mm" />
  <line x1="376.900479mm" y1="144.299835mm" x2="376.900479mm" y2="148.300033mm" />
  <text x="377mm" y="145mm" font-size="24">
   2.0
  </text>
 </g>
</svg>
