<?xml version="1.0"?>
<svg xmlns="http://www.w3.org/2000/svg" version="1.1" height="165mm" width="413mm" >
 <g style="fill-opacity:1.0; stroke:black; stroke-width:1;">
  <line x1="0.000000mm" y1="0.000000mm" x2="0.000000mm" y2="0.000000mm" />
  <line x1="0.000000mm" y1="0.000000mm" x2="0.000000mm" y2="154.500000mm" />
  <line x1="0.000000mm" y1="154.500000mm" x2="388.000000mm" y2="154.500000mm" />
  <line x1="388.000000mm" y1="154.500000mm" x2="389.307000mm" y2="154.443000mm" />
  <line x1="389.307000mm" y1="154.443000mm" x2="390.605000mm" y2="154.272000mm" />
  <line x1="390.605000mm" y1="154.272000mm" x2="391.882000mm" y2="153.989000mm" />
  <line x1="391.882000mm" y1="153.989000mm" x2="393.130000mm" y2="153.595000mm" />
  <line x1="393.130000mm" y1="153.595000mm" x2="394.339000mm" y2="153.095000mm" />
  <line x1="394.339000mm" y1="153.095000mm" x2="395.500000mm" y2="152.490000mm" />
  <line x1="395.500000mm" y1="152.490000mm" x2="396.604000mm" y2="151.787000mm" />
  <line x1="396.604000mm" y1="151.787000mm" x2="397.642000mm" y2="150.991000mm" />
  <line x1="397.642000mm" y1="150.991000mm" x2="398.607000mm" y2="150.107000mm" />
  <line x1="398.607000mm" y1="150.107000mm" x2="399.491000mm" y2="149.142000mm" />
  <line x1="399.491000mm" y1="149.142000mm" x2="400.287000mm" y2="148.104000mm" />
  <line x1="400.287000mm" y1="148.104000mm" x2="400.990000mm" y2="147.000000mm" />
  <line x1="400.990000mm" y1="147.000000mm" x2="401.595000mm" y2="145.839000mm" />
  <line x1="401.595000mm" y1="145.839000mm" x2="402.095000mm" y2="144.630000mm" />
  <line x1="402.095000mm" y1="144.630000mm" x2="402.489000mm" y2="143.382000mm" />
  <line x1="402.489000mm" y1="143.382000mm" x2="402.772000mm" y2="142.105000mm" />
  <line x1="402.772000mm" y1="142.105000mm" x2="402.943000mm" y2="140.807000mm" />
  <line x1="402.943000mm" y1="140.807000mm" x2="403.000000mm" y2="139.500000mm" />
  <line x1="403.000000mm" y1="139.500000mm" x2="403.000000mm" y2="0.000000mm" />
  <line x1="403.000000mm" y1="0.000000mm" x2="0.000000mm" y2="0.000000mm" />
  <circle cx="7.508598mm" cy="18.898283mm" r="2.496689mm" fill="none"/>
  <line x1="12.501975mm" y1="18.898283mm" x2="2.515221mm" y2="18.898283mm" />
  <line x1="7.508598mm" y1="13.904906mm" x2="7.508598mm" y2="23.891660mm" />
  <text x="10mm" y="16mm" font-size="24">
   5.0
  </text>
  <circle cx="8.506234mm" cy="92.599111mm" r="3.497370mm" fill="none"/>
  <line x1="15.500974mm" y1="92.599111mm" x2="1.511494mm" y2="92.599111mm" />
  <line x1="8.506234mm" y1="85.604371mm" x2="8.506234mm" y2="99.593851mm" />
  <text x="12mm" y="89mm" font-size="24">
   7.0
  </text>
  <circle cx="6.997753mm" cy="80.409100mm" r="1.994681mm" fill="none"/>
  <line x1="10.987115mm" y1="80.409100mm" x2="3.008390mm" y2="80.409100mm" />
  <line x1="6.997753mm" y1="76.419737mm" x2="6.997753mm" y2="84.398462mm" />
  <text x="8mm" y="78mm" font-size="24">
   4.0
  </text>
  <circle cx="6.997753mm" cy="28.409100mm" r="1.994681mm" fill="none"/>
  <line x1="10.987115mm" y1="28.409100mm" x2="3.008390mm" y2="28.409100mm" />
  <line x1="6.997753mm" y1="24.419737mm" x2="6.997753mm" y2="32.398462mm" />
  <text x="8mm" y="26mm" font-size="24">
   4.0
  </text>
  <circle cx="8.200096mm" cy="144.800172mm" r="1.000172mm" fill="none"/>
  <line x1="10.200440mm" y1="144.800172mm" x2="6.199751mm" y2="144.800172mm" />
  <line x1="8.200096mm" y1="142.799828mm" x2="8.200096mm" y2="146.800516mm" />
  <text x="9mm" y="143mm" font-size="24">
   2.0
  </text>
  <circle cx="8.200096mm" cy="123.980172mm" r="1.000172mm" fill="none"/>
  <line x1="10.200440mm" y1="123.980172mm" x2="6.199751mm" y2="123.980172mm" />
  <line x1="8.200096mm" y1="121.979828mm" x2="8.200096mm" y2="125.980516mm" />
  <text x="9mm" y="122mm" font-size="24">
   2.0
  </text>
  <circle cx="26.100029mm" cy="8.200000mm" r="1.000012mm" fill="none"/>
  <line x1="28.100053mm" y1="8.200000mm" x2="24.100005mm" y2="8.200000mm" />
  <line x1="26.100029mm" y1="6.199976mm" x2="26.100029mm" y2="10.200024mm" />
  <text x="27mm" y="7mm" font-size="24">
   2.0
  </text>
  <circle cx="32.900156mm" cy="147.499993mm" r="1.000032mm" fill="none"/>
  <line x1="34.900221mm" y1="147.499993mm" x2="30.900092mm" y2="147.499993mm" />
  <line x1="32.900156mm" y1="145.499929mm" x2="32.900156mm" y2="149.500058mm" />
  <text x="33mm" y="146mm" font-size="24">
   2.0
  </text>
  <circle cx="46.920029mm" cy="8.200000mm" r="1.000012mm" fill="none"/>
  <line x1="48.920053mm" y1="8.200000mm" x2="44.920005mm" y2="8.200000mm" />
  <line x1="46.920029mm" y1="6.199976mm" x2="46.920029mm" y2="10.200024mm" />
  <text x="47mm" y="7mm" font-size="24">
   2.0
  </text>
  <circle cx="149.899659mm" cy="147.500016mm" r="1.000019mm" fill="none"/>
  <line x1="151.899698mm" y1="147.500016mm" x2="147.899621mm" y2="147.500016mm" />
  <line x1="149.899659mm" y1="145.499978mm" x2="149.899659mm" y2="149.500054mm" />
  <text x="150mm" y="146mm" font-size="24">
   2.0
  </text>
  <circle cx="192.050194mm" cy="139.950223mm" r="0.849908mm" fill="none"/>
  <line x1="193.750009mm" y1="139.950223mm" x2="190.350378mm" y2="139.950223mm" />
  <line x1="192.050194mm" y1="138.250407mm" x2="192.050194mm" y2="141.650038mm" />
  <text x="192mm" y="139mm" font-size="24">
   1.7
  </text>
  <circle cx="192.050194mm" cy="108.450223mm" r="0.849908mm" fill="none"/>
  <line x1="193.750009mm" y1="108.450223mm" x2="190.350378mm" y2="108.450223mm" />
  <line x1="192.050194mm" y1="106.750407mm" x2="192.050194mm" y2="110.150038mm" />
  <text x="192mm" y="107mm" font-size="24">
   1.7
  </text>
  <circle cx="206.350194mm" cy="124.050223mm" r="0.849908mm" fill="none"/>
  <line x1="208.050009mm" y1="124.050223mm" x2="204.650378mm" y2="124.050223mm" />
  <line x1="206.350194mm" y1="122.350407mm" x2="206.350194mm" y2="125.750038mm" />
  <text x="207mm" y="123mm" font-size="24">
   1.7
  </text>
  <circle cx="206.349795mm" cy="92.550108mm" r="0.850035mm" fill="none"/>
  <line x1="208.049865mm" y1="92.550108mm" x2="204.649725mm" y2="92.550108mm" />
  <line x1="206.349795mm" y1="90.850039mm" x2="206.349795mm" y2="94.250178mm" />
  <text x="207mm" y="91mm" font-size="24">
   1.7
  </text>
  <circle cx="238.999946mm" cy="53.100077mm" r="1.250077mm" fill="none"/>
  <line x1="241.500101mm" y1="53.100077mm" x2="236.499792mm" y2="53.100077mm" />
  <line x1="238.999946mm" y1="50.599923mm" x2="238.999946mm" y2="55.600232mm" />
  <text x="240mm" y="51mm" font-size="24">
   2.5
  </text>
  <circle cx="245.300087mm" cy="101.400061mm" r="1.250061mm" fill="none"/>
  <line x1="247.800208mm" y1="101.400061mm" x2="242.799966mm" y2="101.400061mm" />
  <line x1="245.300087mm" y1="98.899939mm" x2="245.300087mm" y2="103.900182mm" />
  <text x="246mm" y="100mm" font-size="24">
   2.5
  </text>
  <circle cx="286.511467mm" cy="32.100011mm" r="0.999994mm" fill="none"/>
  <line x1="288.511455mm" y1="32.100011mm" x2="284.511479mm" y2="32.100011mm" />
  <line x1="286.511467mm" y1="30.100023mm" x2="286.511467mm" y2="34.099999mm" />
  <text x="287mm" y="31mm" font-size="24">
   2.0
  </text>
  <circle cx="320.200087mm" cy="101.400061mm" r="1.250061mm" fill="none"/>
  <line x1="322.700208mm" y1="101.400061mm" x2="317.699966mm" y2="101.400061mm" />
  <line x1="320.200087mm" y1="98.899939mm" x2="320.200087mm" y2="103.900182mm" />
  <text x="321mm" y="100mm" font-size="24">
   2.5
  </text>
  <circle cx="321.499946mm" cy="53.100077mm" r="1.250077mm" fill="none"/>
  <line x1="324.000101mm" y1="53.100077mm" x2="318.999792mm" y2="53.100077mm" />
  <line x1="321.499946mm" y1="50.599923mm" x2="321.499946mm" y2="55.600232mm" />
  <text x="322mm" y="51mm" font-size="24">
   2.5
  </text>
  <circle cx="331.480083mm" cy="8.000062mm" r="2.999988mm" fill="none"/>
  <line x1="337.480060mm" y1="8.000062mm" x2="325.480106mm" y2="8.000062mm" />
  <line x1="331.480083mm" y1="2.000085mm" x2="331.480083mm" y2="14.000039mm" />
  <text x="334mm" y="5mm" font-size="24">
   6.0
  </text>
  <circle cx="342.979873mm" cy="7.000018mm" r="1.999985mm" fill="none"/>
  <line x1="346.979844mm" y1="7.000018mm" x2="338.979903mm" y2="7.000018mm" />
  <line x1="342.979873mm" y1="3.000048mm" x2="342.979873mm" y2="10.999989mm" />
  <text x="344mm" y="5mm" font-size="24">
   4.0
  </text>
  <circle cx="356.079532mm" cy="8.200023mm" r="0.999999mm" fill="none"/>
  <line x1="358.079529mm" y1="8.200023mm" x2="354.079534mm" y2="8.200023mm" />
  <line x1="356.079532mm" y1="6.200025mm" x2="356.079532mm" y2="10.200020mm" />
  <text x="357mm" y="7mm" font-size="24">
   2.0
  </text>
  <circle cx="376.899532mm" cy="8.200023mm" r="0.999999mm" fill="none"/>
  <line x1="378.899529mm" y1="8.200023mm" x2="374.899534mm" y2="8.200023mm" />
  <line x1="376.899532mm" y1="6.200025mm" x2="376.899532mm" y2="10.200020mm" />
  <text x="377mm" y="7mm" font-size="24">
   2.0
  </text>
 </g>
</svg>
