<?xml version="1.0"?>
<svg xmlns="http://www.w3.org/2000/svg" version="1.1" height="327mm" width="411mm" >
 <g style="fill-opacity:1.0; stroke:black; stroke-width:1;">
  <line x1="401.000000mm" y1="156.500000mm" x2="401.000000mm" y2="156.500000mm" />
  <line x1="401.000000mm" y1="156.500000mm" x2="401.000000mm" y2="15.000000mm" />
  <line x1="401.000000mm" y1="15.000000mm" x2="400.943000mm" y2="13.693000mm" />
  <line x1="400.943000mm" y1="13.693000mm" x2="400.772000mm" y2="12.395000mm" />
  <line x1="400.772000mm" y1="12.395000mm" x2="400.489000mm" y2="11.118000mm" />
  <line x1="400.489000mm" y1="11.118000mm" x2="400.095000mm" y2="9.870000mm" />
  <line x1="400.095000mm" y1="9.870000mm" x2="399.595000mm" y2="8.661000mm" />
  <line x1="399.595000mm" y1="8.661000mm" x2="398.990000mm" y2="7.500000mm" />
  <line x1="398.990000mm" y1="7.500000mm" x2="398.287000mm" y2="6.396000mm" />
  <line x1="398.287000mm" y1="6.396000mm" x2="397.491000mm" y2="5.358000mm" />
  <line x1="397.491000mm" y1="5.358000mm" x2="396.607000mm" y2="4.393000mm" />
  <line x1="396.607000mm" y1="4.393000mm" x2="395.642000mm" y2="3.509000mm" />
  <line x1="395.642000mm" y1="3.509000mm" x2="394.604000mm" y2="2.713000mm" />
  <line x1="394.604000mm" y1="2.713000mm" x2="393.500000mm" y2="2.010000mm" />
  <line x1="393.500000mm" y1="2.010000mm" x2="392.339000mm" y2="1.405000mm" />
  <line x1="392.339000mm" y1="1.405000mm" x2="391.130000mm" y2="0.905000mm" />
  <line x1="391.130000mm" y1="0.905000mm" x2="389.882000mm" y2="0.511000mm" />
  <line x1="389.882000mm" y1="0.511000mm" x2="388.605000mm" y2="0.228000mm" />
  <line x1="388.605000mm" y1="0.228000mm" x2="387.307000mm" y2="0.057000mm" />
  <line x1="387.307000mm" y1="0.057000mm" x2="386.000000mm" y2="0.000000mm" />
  <line x1="386.000000mm" y1="0.000000mm" x2="0.000000mm" y2="0.000000mm" />
  <line x1="0.000000mm" y1="0.000000mm" x2="0.000000mm" y2="156.500000mm" />
  <line x1="0.000000mm" y1="156.500000mm" x2="401.000000mm" y2="156.500000mm" />
  <circle cx="8.199951mm" cy="9.700042mm" r="1.000024mm" fill="none"/>
  <line x1="10.199999mm" y1="9.700042mm" x2="6.199904mm" y2="9.700042mm" />
  <line x1="8.199951mm" y1="7.699994mm" x2="8.199951mm" y2="11.700089mm" />
  <text x="9mm" y="8mm" font-size="24">
   2.0
  </text>
  <circle cx="8.199951mm" cy="30.520042mm" r="1.000024mm" fill="none"/>
  <line x1="10.199999mm" y1="30.520042mm" x2="6.199904mm" y2="30.520042mm" />
  <line x1="8.199951mm" y1="28.519994mm" x2="8.199951mm" y2="32.520089mm" />
  <text x="9mm" y="29mm" font-size="24">
   2.0
  </text>
  <circle cx="126.750000mm" cy="62.350096mm" r="2.199904mm" fill="none"/>
  <line x1="131.149808mm" y1="62.350096mm" x2="122.350192mm" y2="62.350096mm" />
  <line x1="126.750000mm" y1="57.950288mm" x2="126.750000mm" y2="66.749904mm" />
  <text x="128mm" y="60mm" font-size="24">
   4.4
  </text>
  <circle cx="55.250000mm" cy="62.350033mm" r="2.199967mm" fill="none"/>
  <line x1="59.649934mm" y1="62.350033mm" x2="50.850066mm" y2="62.350033mm" />
  <line x1="55.250000mm" y1="57.950100mm" x2="55.250000mm" y2="66.749967mm" />
  <text x="57mm" y="60mm" font-size="24">
   4.4
  </text>
  <circle cx="91.000000mm" cy="98.099973mm" r="37.500027mm" fill="none"/>
  <line x1="166.000055mm" y1="98.099973mm" x2="15.999945mm" y2="98.099973mm" />
  <line x1="91.000000mm" y1="23.099918mm" x2="91.000000mm" y2="173.100027mm" />
  <text x="128mm" y="60mm" font-size="24">
   75.0
  </text>
  <circle cx="284.511797mm" cy="67.599816mm" r="1.000206mm" fill="none"/>
  <line x1="286.512208mm" y1="67.599816mm" x2="282.511386mm" y2="67.599816mm" />
  <line x1="284.511797mm" y1="65.599404mm" x2="284.511797mm" y2="69.600227mm" />
  <text x="285mm" y="66mm" font-size="24">
   2.0
  </text>
  <circle cx="55.250000mm" cy="133.850033mm" r="2.199967mm" fill="none"/>
  <line x1="59.649934mm" y1="133.850033mm" x2="50.850066mm" y2="133.850033mm" />
  <line x1="55.250000mm" y1="129.450100mm" x2="55.250000mm" y2="138.249967mm" />
  <text x="57mm" y="131mm" font-size="24">
   4.4
  </text>
  <circle cx="126.750000mm" cy="133.850096mm" r="2.199904mm" fill="none"/>
  <line x1="131.149808mm" y1="133.850096mm" x2="122.350192mm" y2="133.850096mm" />
  <line x1="126.750000mm" y1="129.450288mm" x2="126.750000mm" y2="138.249904mm" />
  <text x="128mm" y="131mm" font-size="24">
   4.4
  </text>
  <circle cx="329.480000mm" cy="148.500271mm" r="2.999758mm" fill="none"/>
  <line x1="335.479515mm" y1="148.500271mm" x2="323.480485mm" y2="148.500271mm" />
  <line x1="329.480000mm" y1="142.500756mm" x2="329.480000mm" y2="154.499787mm" />
  <text x="332mm" y="145mm" font-size="24">
   6.0
  </text>
  <circle cx="46.919956mm" cy="148.300002mm" r="0.999999mm" fill="none"/>
  <line x1="48.919954mm" y1="148.300002mm" x2="44.919957mm" y2="148.300002mm" />
  <line x1="46.919956mm" y1="146.300004mm" x2="46.919956mm" y2="150.300000mm" />
  <text x="47mm" y="147mm" font-size="24">
   2.0
  </text>
  <circle cx="354.080222mm" cy="148.300201mm" r="0.999885mm" fill="none"/>
  <line x1="356.079992mm" y1="148.300201mm" x2="352.080453mm" y2="148.300201mm" />
  <line x1="354.080222mm" y1="146.300431mm" x2="354.080222mm" y2="150.299970mm" />
  <text x="355mm" y="147mm" font-size="24">
   2.0
  </text>
  <circle cx="374.900221mm" cy="148.300208mm" r="0.999887mm" fill="none"/>
  <line x1="376.899996mm" y1="148.300208mm" x2="372.900447mm" y2="148.300208mm" />
  <line x1="374.900221mm" y1="146.300433mm" x2="374.900221mm" y2="150.299983mm" />
  <text x="375mm" y="147mm" font-size="24">
   2.0
  </text>
  <circle cx="26.099957mm" cy="148.299995mm" r="0.999997mm" fill="none"/>
  <line x1="28.099950mm" y1="148.299995mm" x2="24.099963mm" y2="148.299995mm" />
  <line x1="26.099957mm" y1="146.300002mm" x2="26.099957mm" y2="150.299988mm" />
  <text x="27mm" y="147mm" font-size="24">
   2.0
  </text>
  <circle cx="340.980000mm" cy="149.499951mm" r="2.000052mm" fill="none"/>
  <line x1="344.980104mm" y1="149.499951mm" x2="336.979896mm" y2="149.499951mm" />
  <line x1="340.980000mm" y1="145.499847mm" x2="340.980000mm" y2="153.500055mm" />
  <text x="342mm" y="147mm" font-size="24">
   4.0
  </text>
  <line x1="386.000000mm" y1="317.000000mm" x2="386.000000mm" y2="317.000000mm" />
  <line x1="386.000000mm" y1="317.000000mm" x2="387.307000mm" y2="316.943000mm" />
  <line x1="387.307000mm" y1="316.943000mm" x2="388.605000mm" y2="316.772000mm" />
  <line x1="388.605000mm" y1="316.772000mm" x2="389.882000mm" y2="316.489000mm" />
  <line x1="389.882000mm" y1="316.489000mm" x2="391.130000mm" y2="316.095000mm" />
  <line x1="391.130000mm" y1="316.095000mm" x2="392.339000mm" y2="315.595000mm" />
  <line x1="392.339000mm" y1="315.595000mm" x2="393.500000mm" y2="314.990000mm" />
  <line x1="393.500000mm" y1="314.990000mm" x2="394.604000mm" y2="314.287000mm" />
  <line x1="394.604000mm" y1="314.287000mm" x2="395.642000mm" y2="313.491000mm" />
  <line x1="395.642000mm" y1="313.491000mm" x2="396.607000mm" y2="312.607000mm" />
  <line x1="396.607000mm" y1="312.607000mm" x2="397.491000mm" y2="311.642000mm" />
  <line x1="397.491000mm" y1="311.642000mm" x2="398.287000mm" y2="310.604000mm" />
  <line x1="398.287000mm" y1="310.604000mm" x2="398.990000mm" y2="309.500000mm" />
  <line x1="398.990000mm" y1="309.500000mm" x2="399.595000mm" y2="308.339000mm" />
  <line x1="399.595000mm" y1="308.339000mm" x2="400.095000mm" y2="307.130000mm" />
  <line x1="400.095000mm" y1="307.130000mm" x2="400.489000mm" y2="305.882000mm" />
  <line x1="400.489000mm" y1="305.882000mm" x2="400.772000mm" y2="304.605000mm" />
  <line x1="400.772000mm" y1="304.605000mm" x2="400.943000mm" y2="303.307000mm" />
  <line x1="400.943000mm" y1="303.307000mm" x2="401.000000mm" y2="302.000000mm" />
  <line x1="401.000000mm" y1="302.000000mm" x2="401.000000mm" y2="160.500000mm" />
  <line x1="401.000000mm" y1="160.500000mm" x2="0.000000mm" y2="160.500000mm" />
  <line x1="0.000000mm" y1="160.500000mm" x2="0.000000mm" y2="317.000000mm" />
  <line x1="0.000000mm" y1="317.000000mm" x2="386.000000mm" y2="317.000000mm" />
  <circle cx="329.480000mm" cy="168.500211mm" r="2.999758mm" fill="none"/>
  <line x1="335.479515mm" y1="168.500211mm" x2="323.480485mm" y2="168.500211mm" />
  <line x1="329.480000mm" y1="162.500696mm" x2="329.480000mm" y2="174.499727mm" />
  <text x="332mm" y="165mm" font-size="24">
   6.0
  </text>
  <circle cx="340.980000mm" cy="167.499911mm" r="2.000062mm" fill="none"/>
  <line x1="344.980123mm" y1="167.499911mm" x2="336.979877mm" y2="167.499911mm" />
  <line x1="340.980000mm" y1="163.499788mm" x2="340.980000mm" y2="171.500034mm" />
  <text x="342mm" y="165mm" font-size="24">
   4.0
  </text>
  <circle cx="374.899772mm" cy="168.700197mm" r="0.999879mm" fill="none"/>
  <line x1="376.899530mm" y1="168.700197mm" x2="372.900015mm" y2="168.700197mm" />
  <line x1="374.899772mm" y1="166.700440mm" x2="374.899772mm" y2="170.699955mm" />
  <text x="375mm" y="167mm" font-size="24">
   2.0
  </text>
  <circle cx="46.920038mm" cy="168.699992mm" r="0.999991mm" fill="none"/>
  <line x1="48.920019mm" y1="168.699992mm" x2="44.920057mm" y2="168.699992mm" />
  <line x1="46.920038mm" y1="166.700010mm" x2="46.920038mm" y2="170.699973mm" />
  <text x="47mm" y="167mm" font-size="24">
   2.0
  </text>
  <circle cx="26.099939mm" cy="168.700000mm" r="0.999994mm" fill="none"/>
  <line x1="28.099927mm" y1="168.700000mm" x2="24.099952mm" y2="168.700000mm" />
  <line x1="26.099939mm" y1="166.700013mm" x2="26.099939mm" y2="170.699988mm" />
  <text x="27mm" y="167mm" font-size="24">
   2.0
  </text>
  <circle cx="354.079772mm" cy="168.700197mm" r="0.999879mm" fill="none"/>
  <line x1="356.079530mm" y1="168.700197mm" x2="352.080015mm" y2="168.700197mm" />
  <line x1="354.079772mm" y1="166.700440mm" x2="354.079772mm" y2="170.699955mm" />
  <text x="355mm" y="167mm" font-size="24">
   2.0
  </text>
  <circle cx="7.499985mm" cy="179.400033mm" r="2.500005mm" fill="none"/>
  <line x1="12.499995mm" y1="179.400033mm" x2="2.499974mm" y2="179.400033mm" />
  <line x1="7.499985mm" y1="174.400022mm" x2="7.499985mm" y2="184.400044mm" />
  <text x="9mm" y="176mm" font-size="24">
   5.0
  </text>
  <circle cx="6.999991mm" cy="188.900015mm" r="2.000001mm" fill="none"/>
  <line x1="10.999993mm" y1="188.900015mm" x2="2.999990mm" y2="188.900015mm" />
  <line x1="6.999991mm" y1="184.900013mm" x2="6.999991mm" y2="192.900016mm" />
  <text x="8mm" y="186mm" font-size="24">
   4.0
  </text>
  <circle cx="284.511797mm" cy="192.599816mm" r="1.000206mm" fill="none"/>
  <line x1="286.512208mm" y1="192.599816mm" x2="282.511386mm" y2="192.599816mm" />
  <line x1="284.511797mm" y1="190.599404mm" x2="284.511797mm" y2="194.600227mm" />
  <text x="285mm" y="191mm" font-size="24">
   2.0
  </text>
  <circle cx="320.500000mm" cy="214.599887mm" r="1.250113mm" fill="none"/>
  <line x1="323.000227mm" y1="214.599887mm" x2="317.999773mm" y2="214.599887mm" />
  <line x1="320.500000mm" y1="212.099660mm" x2="320.500000mm" y2="217.100113mm" />
  <text x="321mm" y="213mm" font-size="24">
   2.5
  </text>
  <circle cx="238.000000mm" cy="214.599887mm" r="1.250113mm" fill="none"/>
  <line x1="240.500227mm" y1="214.599887mm" x2="235.499773mm" y2="214.599887mm" />
  <line x1="238.000000mm" y1="212.099660mm" x2="238.000000mm" y2="217.100113mm" />
  <text x="239mm" y="213mm" font-size="24">
   2.5
  </text>
  <circle cx="6.999991mm" cy="242.900015mm" r="2.000001mm" fill="none"/>
  <line x1="10.999993mm" y1="242.900015mm" x2="2.999990mm" y2="242.900015mm" />
  <line x1="6.999991mm" y1="238.900013mm" x2="6.999991mm" y2="246.900016mm" />
  <text x="8mm" y="240mm" font-size="24">
   4.0
  </text>
  <circle cx="8.499989mm" cy="255.099724mm" r="3.499902mm" fill="none"/>
  <line x1="15.499792mm" y1="255.099724mm" x2="1.500185mm" y2="255.099724mm" />
  <line x1="8.499989mm" y1="248.099920mm" x2="8.499989mm" y2="262.099528mm" />
  <text x="11mm" y="251mm" font-size="24">
   7.0
  </text>
  <circle cx="206.349914mm" cy="255.049857mm" r="0.850086mm" fill="none"/>
  <line x1="208.050086mm" y1="255.049857mm" x2="204.649741mm" y2="255.049857mm" />
  <line x1="206.349914mm" y1="253.349684mm" x2="206.349914mm" y2="256.750029mm" />
  <text x="207mm" y="254mm" font-size="24">
   1.7
  </text>
  <circle cx="244.300000mm" cy="262.899997mm" r="1.250003mm" fill="none"/>
  <line x1="246.800005mm" y1="262.899997mm" x2="241.799995mm" y2="262.899997mm" />
  <line x1="244.300000mm" y1="260.399992mm" x2="244.300000mm" y2="265.400003mm" />
  <text x="245mm" y="261mm" font-size="24">
   2.5
  </text>
  <circle cx="319.200000mm" cy="262.899997mm" r="1.250003mm" fill="none"/>
  <line x1="321.700005mm" y1="262.899997mm" x2="316.699995mm" y2="262.899997mm" />
  <line x1="319.200000mm" y1="260.399992mm" x2="319.200000mm" y2="265.400003mm" />
  <text x="320mm" y="261mm" font-size="24">
   2.5
  </text>
  <circle cx="192.050123mm" cy="270.949798mm" r="0.849877mm" fill="none"/>
  <line x1="193.749877mm" y1="270.949798mm" x2="190.350369mm" y2="270.949798mm" />
  <line x1="192.050123mm" y1="269.250044mm" x2="192.050123mm" y2="272.649552mm" />
  <text x="192mm" y="270mm" font-size="24">
   1.7
  </text>
  <circle cx="8.199957mm" cy="286.480044mm" r="1.000020mm" fill="none"/>
  <line x1="10.199998mm" y1="286.480044mm" x2="6.199917mm" y2="286.480044mm" />
  <line x1="8.199957mm" y1="284.480004mm" x2="8.199957mm" y2="288.480084mm" />
  <text x="9mm" y="285mm" font-size="24">
   2.0
  </text>
  <circle cx="206.350123mm" cy="286.549798mm" r="0.849877mm" fill="none"/>
  <line x1="208.049877mm" y1="286.549798mm" x2="204.650369mm" y2="286.549798mm" />
  <line x1="206.350123mm" y1="284.850044mm" x2="206.350123mm" y2="288.249552mm" />
  <text x="207mm" y="285mm" font-size="24">
   1.7
  </text>
  <circle cx="192.050123mm" cy="302.449798mm" r="0.849877mm" fill="none"/>
  <line x1="193.749877mm" y1="302.449798mm" x2="190.350369mm" y2="302.449798mm" />
  <line x1="192.050123mm" y1="300.750044mm" x2="192.050123mm" y2="304.149552mm" />
  <text x="192mm" y="301mm" font-size="24">
   1.7
  </text>
  <circle cx="8.199957mm" cy="307.300044mm" r="1.000020mm" fill="none"/>
  <line x1="10.199998mm" y1="307.300044mm" x2="6.199917mm" y2="307.300044mm" />
  <line x1="8.199957mm" y1="305.300004mm" x2="8.199957mm" y2="309.300084mm" />
  <text x="9mm" y="306mm" font-size="24">
   2.0
  </text>
  <circle cx="149.899908mm" cy="310.000377mm" r="0.999982mm" fill="none"/>
  <line x1="151.899872mm" y1="310.000377mm" x2="147.899944mm" y2="310.000377mm" />
  <line x1="149.899908mm" y1="308.000413mm" x2="149.899908mm" y2="312.000341mm" />
  <text x="150mm" y="309mm" font-size="24">
   2.0
  </text>
  <circle cx="32.900075mm" cy="310.000180mm" r="1.000097mm" fill="none"/>
  <line x1="34.900268mm" y1="310.000180mm" x2="30.899881mm" y2="310.000180mm" />
  <line x1="32.900075mm" y1="307.999987mm" x2="32.900075mm" y2="312.000374mm" />
  <text x="33mm" y="309mm" font-size="24">
   2.0
  </text>
 </g>
</svg>
