<?xml version="1.0"?>
<svg xmlns="http://www.w3.org/2000/svg" version="1.1" height="177mm" width="394mm" >
 <g style="fill-opacity:1.0; stroke:black; stroke-width:1;">
  <line x1="0.000000mm" y1="106.000000mm" x2="0.000000mm" y2="106.000000mm" />
  <line x1="0.000000mm" y1="106.000000mm" x2="0.000000mm" y2="166.500000mm" />
  <line x1="0.000000mm" y1="166.500000mm" x2="359.000000mm" y2="166.500000mm" />
  <line x1="359.000000mm" y1="166.500000mm" x2="361.179000mm" y2="166.405000mm" />
  <line x1="361.179000mm" y1="166.405000mm" x2="363.341000mm" y2="166.120000mm" />
  <line x1="363.341000mm" y1="166.120000mm" x2="365.470000mm" y2="165.648000mm" />
  <line x1="365.470000mm" y1="165.648000mm" x2="367.551000mm" y2="164.992000mm" />
  <line x1="367.551000mm" y1="164.992000mm" x2="369.565000mm" y2="164.158000mm" />
  <line x1="369.565000mm" y1="164.158000mm" x2="371.500000mm" y2="163.151000mm" />
  <line x1="371.500000mm" y1="163.151000mm" x2="373.339000mm" y2="161.979000mm" />
  <line x1="373.339000mm" y1="161.979000mm" x2="375.070000mm" y2="160.651000mm" />
  <line x1="375.070000mm" y1="160.651000mm" x2="376.678000mm" y2="159.178000mm" />
  <line x1="376.678000mm" y1="159.178000mm" x2="378.151000mm" y2="157.570000mm" />
  <line x1="378.151000mm" y1="157.570000mm" x2="379.479000mm" y2="155.839000mm" />
  <line x1="379.479000mm" y1="155.839000mm" x2="380.651000mm" y2="154.000000mm" />
  <line x1="380.651000mm" y1="154.000000mm" x2="381.658000mm" y2="152.065000mm" />
  <line x1="381.658000mm" y1="152.065000mm" x2="382.492000mm" y2="150.051000mm" />
  <line x1="382.492000mm" y1="150.051000mm" x2="383.148000mm" y2="147.970000mm" />
  <line x1="383.148000mm" y1="147.970000mm" x2="383.620000mm" y2="145.841000mm" />
  <line x1="383.620000mm" y1="145.841000mm" x2="383.905000mm" y2="143.679000mm" />
  <line x1="383.905000mm" y1="143.679000mm" x2="384.000000mm" y2="141.500000mm" />
  <line x1="384.000000mm" y1="141.500000mm" x2="384.000000mm" y2="0.000000mm" />
  <line x1="384.000000mm" y1="0.000000mm" x2="329.565000mm" y2="0.000000mm" />
  <line x1="329.565000mm" y1="0.000000mm" x2="329.565000mm" y2="2.241070mm" />
  <line x1="329.565000mm" y1="2.241070mm" x2="329.450000mm" y2="2.709210mm" />
  <line x1="329.450000mm" y1="2.709210mm" x2="329.226000mm" y2="3.136130mm" />
  <line x1="329.226000mm" y1="3.136130mm" x2="328.906000mm" y2="3.497020mm" />
  <line x1="328.906000mm" y1="3.497020mm" x2="328.509000mm" y2="3.770910mm" />
  <line x1="328.509000mm" y1="3.770910mm" x2="328.059000mm" y2="3.941880mm" />
  <line x1="328.059000mm" y1="3.941880mm" x2="327.580000mm" y2="4.000000mm" />
  <line x1="327.580000mm" y1="4.000000mm" x2="327.101000mm" y2="3.941880mm" />
  <line x1="327.101000mm" y1="3.941880mm" x2="326.651000mm" y2="3.770910mm" />
  <line x1="326.651000mm" y1="3.770910mm" x2="326.254000mm" y2="3.497020mm" />
  <line x1="326.254000mm" y1="3.497020mm" x2="325.934000mm" y2="3.136130mm" />
  <line x1="325.934000mm" y1="3.136130mm" x2="325.710000mm" y2="2.709210mm" />
  <line x1="325.710000mm" y1="2.709210mm" x2="325.595000mm" y2="2.241070mm" />
  <line x1="325.595000mm" y1="2.241070mm" x2="325.595000mm" y2="0.000000mm" />
  <line x1="325.595000mm" y1="0.000000mm" x2="318.670000mm" y2="0.000000mm" />
  <line x1="318.670000mm" y1="0.000000mm" x2="318.670000mm" y2="3.247740mm" />
  <line x1="318.670000mm" y1="3.247740mm" x2="318.588000mm" y2="3.736460mm" />
  <line x1="318.588000mm" y1="3.736460mm" x2="318.427000mm" y2="4.205090mm" />
  <line x1="318.427000mm" y1="4.205090mm" x2="318.192000mm" y2="4.640840mm" />
  <line x1="318.192000mm" y1="4.640840mm" x2="317.887000mm" y2="5.031840mm" />
  <line x1="317.887000mm" y1="5.031840mm" x2="317.523000mm" y2="5.367420mm" />
  <line x1="317.523000mm" y1="5.367420mm" x2="317.108000mm" y2="5.638420mm" />
  <line x1="317.108000mm" y1="5.638420mm" x2="316.654000mm" y2="5.837450mm" />
  <line x1="316.654000mm" y1="5.837450mm" x2="316.174000mm" y2="5.959080mm" />
  <line x1="316.174000mm" y1="5.959080mm" x2="315.680000mm" y2="6.000000mm" />
  <line x1="315.680000mm" y1="6.000000mm" x2="315.186000mm" y2="5.959080mm" />
  <line x1="315.186000mm" y1="5.959080mm" x2="314.706000mm" y2="5.837450mm" />
  <line x1="314.706000mm" y1="5.837450mm" x2="314.252000mm" y2="5.638420mm" />
  <line x1="314.252000mm" y1="5.638420mm" x2="313.837000mm" y2="5.367420mm" />
  <line x1="313.837000mm" y1="5.367420mm" x2="313.473000mm" y2="5.031840mm" />
  <line x1="313.473000mm" y1="5.031840mm" x2="313.169000mm" y2="4.640840mm" />
  <line x1="313.169000mm" y1="4.640840mm" x2="312.933000mm" y2="4.205090mm" />
  <line x1="312.933000mm" y1="4.205090mm" x2="312.772000mm" y2="3.736460mm" />
  <line x1="312.772000mm" y1="3.736460mm" x2="312.690000mm" y2="3.247740mm" />
  <line x1="312.690000mm" y1="3.247740mm" x2="312.690000mm" y2="0.000000mm" />
  <line x1="312.690000mm" y1="0.000000mm" x2="0.000000mm" y2="0.000000mm" />
  <line x1="0.000000mm" y1="0.000000mm" x2="0.000000mm" y2="14.400000mm" />
  <line x1="0.000000mm" y1="14.400000mm" x2="2.500000mm" y2="14.400000mm" />
  <line x1="2.500000mm" y1="14.400000mm" x2="2.743860mm" y2="14.424000mm" />
  <line x1="2.743860mm" y1="14.424000mm" x2="2.987730mm" y2="14.448000mm" />
  <line x1="2.987730mm" y1="14.448000mm" x2="3.456710mm" y2="14.590300mm" />
  <line x1="3.456710mm" y1="14.590300mm" x2="3.888930mm" y2="14.821300mm" />
  <line x1="3.888930mm" y1="14.821300mm" x2="4.267770mm" y2="15.132200mm" />
  <line x1="4.267770mm" y1="15.132200mm" x2="4.578670mm" y2="15.511100mm" />
  <line x1="4.578670mm" y1="15.511100mm" x2="4.809700mm" y2="15.943300mm" />
  <line x1="4.809700mm" y1="15.943300mm" x2="4.951960mm" y2="16.412300mm" />
  <line x1="4.951960mm" y1="16.412300mm" x2="4.975980mm" y2="16.656100mm" />
  <line x1="4.975980mm" y1="16.656100mm" x2="5.000000mm" y2="16.900000mm" />
  <line x1="5.000000mm" y1="16.900000mm" x2="4.975980mm" y2="17.143900mm" />
  <line x1="4.975980mm" y1="17.143900mm" x2="4.951960mm" y2="17.387700mm" />
  <line x1="4.951960mm" y1="17.387700mm" x2="4.809700mm" y2="17.856700mm" />
  <line x1="4.809700mm" y1="17.856700mm" x2="4.578670mm" y2="18.288900mm" />
  <line x1="4.578670mm" y1="18.288900mm" x2="4.267770mm" y2="18.667800mm" />
  <line x1="4.267770mm" y1="18.667800mm" x2="3.888930mm" y2="18.978700mm" />
  <line x1="3.888930mm" y1="18.978700mm" x2="3.456710mm" y2="19.209700mm" />
  <line x1="3.456710mm" y1="19.209700mm" x2="2.987730mm" y2="19.352000mm" />
  <line x1="2.987730mm" y1="19.352000mm" x2="2.743860mm" y2="19.376000mm" />
  <line x1="2.743860mm" y1="19.376000mm" x2="2.500000mm" y2="19.400000mm" />
  <line x1="2.500000mm" y1="19.400000mm" x2="0.000000mm" y2="19.400000mm" />
  <line x1="0.000000mm" y1="19.400000mm" x2="0.000000mm" y2="24.414600mm" />
  <line x1="0.000000mm" y1="24.414600mm" x2="2.241070mm" y2="24.414600mm" />
  <line x1="2.241070mm" y1="24.414600mm" x2="2.709210mm" y2="24.530000mm" />
  <line x1="2.709210mm" y1="24.530000mm" x2="3.136130mm" y2="24.754000mm" />
  <line x1="3.136130mm" y1="24.754000mm" x2="3.497020mm" y2="25.073800mm" />
  <line x1="3.497020mm" y1="25.073800mm" x2="3.770910mm" y2="25.470600mm" />
  <line x1="3.770910mm" y1="25.470600mm" x2="3.941880mm" y2="25.921400mm" />
  <line x1="3.941880mm" y1="25.921400mm" x2="3.970940mm" y2="26.160700mm" />
  <line x1="3.970940mm" y1="26.160700mm" x2="4.000000mm" y2="26.400000mm" />
  <line x1="4.000000mm" y1="26.400000mm" x2="3.970940mm" y2="26.639300mm" />
  <line x1="3.970940mm" y1="26.639300mm" x2="3.941880mm" y2="26.878600mm" />
  <line x1="3.941880mm" y1="26.878600mm" x2="3.770910mm" y2="27.329400mm" />
  <line x1="3.770910mm" y1="27.329400mm" x2="3.497020mm" y2="27.726200mm" />
  <line x1="3.497020mm" y1="27.726200mm" x2="3.136130mm" y2="28.046000mm" />
  <line x1="3.136130mm" y1="28.046000mm" x2="2.709210mm" y2="28.270000mm" />
  <line x1="2.709210mm" y1="28.270000mm" x2="2.241070mm" y2="28.385400mm" />
  <line x1="2.241070mm" y1="28.385400mm" x2="0.000000mm" y2="28.385400mm" />
  <line x1="0.000000mm" y1="28.385400mm" x2="0.000000mm" y2="87.914600mm" />
  <line x1="0.000000mm" y1="87.914600mm" x2="2.241070mm" y2="87.914600mm" />
  <line x1="2.241070mm" y1="87.914600mm" x2="2.709210mm" y2="88.030000mm" />
  <line x1="2.709210mm" y1="88.030000mm" x2="3.136130mm" y2="88.254000mm" />
  <line x1="3.136130mm" y1="88.254000mm" x2="3.497020mm" y2="88.573800mm" />
  <line x1="3.497020mm" y1="88.573800mm" x2="3.770910mm" y2="88.970600mm" />
  <line x1="3.770910mm" y1="88.970600mm" x2="3.941880mm" y2="89.421400mm" />
  <line x1="3.941880mm" y1="89.421400mm" x2="3.970940mm" y2="89.660700mm" />
  <line x1="3.970940mm" y1="89.660700mm" x2="4.000000mm" y2="89.900000mm" />
  <line x1="4.000000mm" y1="89.900000mm" x2="3.970940mm" y2="90.139300mm" />
  <line x1="3.970940mm" y1="90.139300mm" x2="3.941880mm" y2="90.378600mm" />
  <line x1="3.941880mm" y1="90.378600mm" x2="3.770910mm" y2="90.829400mm" />
  <line x1="3.770910mm" y1="90.829400mm" x2="3.497020mm" y2="91.226200mm" />
  <line x1="3.497020mm" y1="91.226200mm" x2="3.136130mm" y2="91.546000mm" />
  <line x1="3.136130mm" y1="91.546000mm" x2="2.709210mm" y2="91.770000mm" />
  <line x1="2.709210mm" y1="91.770000mm" x2="2.241070mm" y2="91.885400mm" />
  <line x1="2.241070mm" y1="91.885400mm" x2="0.000000mm" y2="91.885400mm" />
  <line x1="0.000000mm" y1="91.885400mm" x2="0.000000mm" y2="99.000000mm" />
  <line x1="0.000000mm" y1="99.000000mm" x2="3.500000mm" y2="99.000000mm" />
  <line x1="3.500000mm" y1="99.000000mm" x2="3.749050mm" y2="99.017800mm" />
  <line x1="3.749050mm" y1="99.017800mm" x2="3.998100mm" y2="99.035600mm" />
  <line x1="3.998100mm" y1="99.035600mm" x2="4.486060mm" y2="99.141800mm" />
  <line x1="4.486060mm" y1="99.141800mm" x2="4.953950mm" y2="99.316300mm" />
  <line x1="4.953950mm" y1="99.316300mm" x2="5.392240mm" y2="99.555600mm" />
  <line x1="5.392240mm" y1="99.555600mm" x2="5.792010mm" y2="99.854900mm" />
  <line x1="5.792010mm" y1="99.854900mm" x2="6.145120mm" y2="100.208000mm" />
  <line x1="6.145120mm" y1="100.208000mm" x2="6.444390mm" y2="100.608000mm" />
  <line x1="6.444390mm" y1="100.608000mm" x2="6.683710mm" y2="101.046000mm" />
  <line x1="6.683710mm" y1="101.046000mm" x2="6.858220mm" y2="101.514000mm" />
  <line x1="6.858220mm" y1="101.514000mm" x2="6.964370mm" y2="102.002000mm" />
  <line x1="6.964370mm" y1="102.002000mm" x2="6.982190mm" y2="102.251000mm" />
  <line x1="6.982190mm" y1="102.251000mm" x2="7.000000mm" y2="102.500000mm" />
  <line x1="7.000000mm" y1="102.500000mm" x2="6.982190mm" y2="102.749000mm" />
  <line x1="6.982190mm" y1="102.749000mm" x2="6.964370mm" y2="102.998000mm" />
  <line x1="6.964370mm" y1="102.998000mm" x2="6.858220mm" y2="103.486000mm" />
  <line x1="6.858220mm" y1="103.486000mm" x2="6.683710mm" y2="103.954000mm" />
  <line x1="6.683710mm" y1="103.954000mm" x2="6.444390mm" y2="104.392000mm" />
  <line x1="6.444390mm" y1="104.392000mm" x2="6.145120mm" y2="104.792000mm" />
  <line x1="6.145120mm" y1="104.792000mm" x2="5.792010mm" y2="105.145000mm" />
  <line x1="5.792010mm" y1="105.145000mm" x2="5.392240mm" y2="105.444000mm" />
  <line x1="5.392240mm" y1="105.444000mm" x2="4.953950mm" y2="105.684000mm" />
  <line x1="4.953950mm" y1="105.684000mm" x2="4.486060mm" y2="105.858000mm" />
  <line x1="4.486060mm" y1="105.858000mm" x2="3.998100mm" y2="105.964000mm" />
  <line x1="3.998100mm" y1="105.964000mm" x2="3.749050mm" y2="105.982000mm" />
  <line x1="3.749050mm" y1="105.982000mm" x2="3.500000mm" y2="106.000000mm" />
  <line x1="3.500000mm" y1="106.000000mm" x2="0.000000mm" y2="106.000000mm" />
  <circle cx="7.209515mm" cy="157.797728mm" r="2.195840mm" fill="none"/>
  <line x1="11.601196mm" y1="157.797728mm" x2="2.817834mm" y2="157.797728mm" />
  <line x1="7.209515mm" y1="153.406047mm" x2="7.209515mm" y2="162.189408mm" />
  <text x="9mm" y="155mm" font-size="24">
   4.4
  </text>
  <circle cx="7.209515mm" cy="136.577728mm" r="2.195840mm" fill="none"/>
  <line x1="11.601196mm" y1="136.577728mm" x2="2.817834mm" y2="136.577728mm" />
  <line x1="7.209515mm" y1="132.186047mm" x2="7.209515mm" y2="140.969408mm" />
  <text x="9mm" y="134mm" font-size="24">
   4.4
  </text>
  <circle cx="23.097857mm" cy="7.209434mm" r="2.195789mm" fill="none"/>
  <line x1="27.489436mm" y1="7.209434mm" x2="18.706279mm" y2="7.209434mm" />
  <line x1="23.097857mm" y1="2.817856mm" x2="23.097857mm" y2="11.601013mm" />
  <text x="25mm" y="5mm" font-size="24">
   4.4
  </text>
  <circle cx="31.749986mm" cy="159.649916mm" r="2.200066mm" fill="none"/>
  <line x1="36.150117mm" y1="159.649916mm" x2="27.349855mm" y2="159.649916mm" />
  <line x1="31.749986mm" y1="155.249785mm" x2="31.749986mm" y2="164.050047mm" />
  <text x="33mm" y="157mm" font-size="24">
   4.4
  </text>
  <circle cx="44.317857mm" cy="7.209434mm" r="2.195789mm" fill="none"/>
  <line x1="48.709436mm" y1="7.209434mm" x2="39.926279mm" y2="7.209434mm" />
  <line x1="44.317857mm" y1="2.817856mm" x2="44.317857mm" y2="11.601013mm" />
  <text x="46mm" y="5mm" font-size="24">
   4.4
  </text>
  <circle cx="147.049964mm" cy="159.649964mm" r="2.200229mm" fill="none"/>
  <line x1="151.450421mm" y1="159.649964mm" x2="142.649507mm" y2="159.649964mm" />
  <line x1="147.049964mm" y1="155.249507mm" x2="147.049964mm" y2="164.050421mm" />
  <text x="149mm" y="157mm" font-size="24">
   4.4
  </text>
  <circle cx="190.049590mm" cy="151.249819mm" r="1.400139mm" fill="none"/>
  <line x1="192.849868mm" y1="151.249819mm" x2="187.249311mm" y2="151.249819mm" />
  <line x1="190.049590mm" y1="148.449540mm" x2="190.049590mm" y2="154.050098mm" />
  <text x="191mm" y="149mm" font-size="24">
   2.8
  </text>
  <circle cx="190.049590mm" cy="119.749819mm" r="1.400139mm" fill="none"/>
  <line x1="192.849868mm" y1="119.749819mm" x2="187.249311mm" y2="119.749819mm" />
  <line x1="190.049590mm" y1="116.949540mm" x2="190.049590mm" y2="122.550098mm" />
  <text x="191mm" y="118mm" font-size="24">
   2.8
  </text>
  <circle cx="204.349590mm" cy="135.349819mm" r="1.400139mm" fill="none"/>
  <line x1="207.149868mm" y1="135.349819mm" x2="201.549311mm" y2="135.349819mm" />
  <line x1="204.349590mm" y1="132.549540mm" x2="204.349590mm" y2="138.150098mm" />
  <text x="205mm" y="133mm" font-size="24">
   2.8
  </text>
  <circle cx="204.349590mm" cy="103.849819mm" r="1.400139mm" fill="none"/>
  <line x1="207.149868mm" y1="103.849819mm" x2="201.549311mm" y2="103.849819mm" />
  <line x1="204.349590mm" y1="101.049540mm" x2="204.349590mm" y2="106.650098mm" />
  <text x="205mm" y="102mm" font-size="24">
   2.8
  </text>
  <circle cx="228.500037mm" cy="107.399798mm" r="1.650231mm" fill="none"/>
  <line x1="231.800499mm" y1="107.399798mm" x2="225.199575mm" y2="107.399798mm" />
  <line x1="228.500037mm" y1="104.099336mm" x2="228.500037mm" y2="110.700260mm" />
  <text x="230mm" y="105mm" font-size="24">
   3.3
  </text>
  <circle cx="234.799978mm" cy="59.099989mm" r="1.650033mm" fill="none"/>
  <line x1="238.100044mm" y1="59.099989mm" x2="231.499912mm" y2="59.099989mm" />
  <line x1="234.799978mm" y1="55.799923mm" x2="234.799978mm" y2="62.400055mm" />
  <text x="236mm" y="57mm" font-size="24">
   3.3
  </text>
  <circle cx="287.061660mm" cy="31.649916mm" r="2.199832mm" fill="none"/>
  <line x1="291.461324mm" y1="31.649916mm" x2="282.661997mm" y2="31.649916mm" />
  <line x1="287.061660mm" y1="27.250252mm" x2="287.061660mm" y2="36.049580mm" />
  <text x="289mm" y="29mm" font-size="24">
   4.4
  </text>
  <circle cx="309.699978mm" cy="59.099989mm" r="1.650033mm" fill="none"/>
  <line x1="313.000044mm" y1="59.099989mm" x2="306.399912mm" y2="59.099989mm" />
  <line x1="309.699978mm" y1="55.799923mm" x2="309.699978mm" y2="62.400055mm" />
  <text x="311mm" y="57mm" font-size="24">
   3.3
  </text>
  <circle cx="311.000037mm" cy="107.399798mm" r="1.650231mm" fill="none"/>
  <line x1="314.300499mm" y1="107.399798mm" x2="307.699575mm" y2="107.399798mm" />
  <line x1="311.000037mm" y1="104.099336mm" x2="311.000037mm" y2="110.700260mm" />
  <text x="312mm" y="105mm" font-size="24">
   3.3
  </text>
  <circle cx="339.677728mm" cy="7.209515mm" r="2.195840mm" fill="none"/>
  <line x1="344.069408mm" y1="7.209515mm" x2="335.286047mm" y2="7.209515mm" />
  <line x1="339.677728mm" y1="2.817834mm" x2="339.677728mm" y2="11.601196mm" />
  <text x="341mm" y="5mm" font-size="24">
   4.4
  </text>
  <circle cx="360.897728mm" cy="7.209515mm" r="2.195840mm" fill="none"/>
  <line x1="365.289408mm" y1="7.209515mm" x2="356.506047mm" y2="7.209515mm" />
  <line x1="360.897728mm" y1="2.817834mm" x2="360.897728mm" y2="11.601196mm" />
  <text x="363mm" y="5mm" font-size="24">
   4.4
  </text>
 </g>
</svg>
