  0
SECTION
  2
BLOCKS
  0
ENDSEC
  0
SECTION
  2
ENTITIES
  0
LINE
  8
0
 10
-197.63
 20
2.49998
 11
-197.582
 21
2.98772
  0
LINE
  8
0
 10
-197.582
 20
2.98772
 11
-197.44
 21
3.4567
  0
LINE
  8
0
 10
-197.44
 20
3.4567
 11
-197.209
 21
3.88892
  0
LINE
  8
0
 10
-197.209
 20
3.88892
 11
-196.898
 21
4.26776
  0
LINE
  8
0
 10
-196.898
 20
4.26776
 11
-196.519
 21
4.57866
  0
LINE
  8
0
 10
-196.519
 20
4.57866
 11
-196.087
 21
4.80969
  0
LINE
  8
0
 10
-196.087
 20
4.80969
 11
-195.618
 21
4.95195
  0
LINE
  8
0
 10
-195.618
 20
4.95195
 11
-195.13
 21
4.99998
  0
LINE
  8
0
 10
-195.13
 20
4.99998
 11
-194.642
 21
4.95195
  0
LINE
  8
0
 10
-194.642
 20
4.95195
 11
-194.173
 21
4.80969
  0
LINE
  8
0
 10
-194.173
 20
4.80969
 11
-193.741
 21
4.57866
  0
LINE
  8
0
 10
-193.741
 20
4.57866
 11
-193.362
 21
4.26776
  0
LINE
  8
0
 10
-193.362
 20
4.26776
 11
-193.051
 21
3.88892
  0
LINE
  8
0
 10
-193.051
 20
3.88892
 11
-192.82
 21
3.4567
  0
LINE
  8
0
 10
-192.82
 20
3.4567
 11
-192.678
 21
2.98772
  0
LINE
  8
0
 10
-192.678
 20
2.98772
 11
-192.63
 21
2.49998
  0
LINE
  8
0
 10
-192.63
 20
2.49998
 11
-192.63
 21
0
  0
LINE
  8
0
 10
-192.63
 20
0
 11
-131.75
 21
0
  0
LINE
  8
0
 10
-131.75
 20
0
 11
-131.75
 21
278.1
  0
LINE
  8
0
 10
-131.75
 20
278.1
 11
-131.744
 21
278.1
  0
LINE
  8
0
 10
-131.744
 20
278.1
 11
-131.744
 21
278.349
  0
LINE
  8
0
 10
-131.744
 20
278.349
 11
-131.694
 21
278.845
  0
LINE
  8
0
 10
-131.694
 20
278.845
 11
-131.595
 21
279.334
  0
LINE
  8
0
 10
-131.595
 20
279.334
 11
-131.448
 21
279.81
  0
LINE
  8
0
 10
-131.448
 20
279.81
 11
-131.255
 21
280.269
  0
LINE
  8
0
 10
-131.255
 20
280.269
 11
-131.016
 21
280.707
  0
LINE
  8
0
 10
-131.016
 20
280.707
 11
-130.736
 21
281.119
  0
LINE
  8
0
 10
-130.736
 20
281.119
 11
-130.415
 21
281.501
  0
LINE
  8
0
 10
-130.415
 20
281.501
 11
-130.058
 21
281.849
  0
LINE
  8
0
 10
-130.058
 20
281.849
 11
-129.669
 21
282.16
  0
LINE
  8
0
 10
-129.669
 20
282.16
 11
-129.25
 21
282.43
  0
LINE
  8
0
 10
-129.25
 20
282.43
 11
-128.806
 21
282.658
  0
LINE
  8
0
 10
-128.806
 20
282.658
 11
-128.342
 21
282.84
  0
LINE
  8
0
 10
-128.342
 20
282.84
 11
-127.863
 21
282.975
  0
LINE
  8
0
 10
-127.863
 20
282.975
 11
-127.372
 21
283.061
  0
LINE
  8
0
 10
-127.372
 20
283.061
 11
-126.875
 21
283.098
  0
LINE
  8
0
 10
-126.875
 20
283.098
 11
-126.75
 21
283.095
  0
LINE
  8
0
 10
-126.75
 20
283.095
 11
-126.75
 21
283.1
  0
LINE
  8
0
 10
-126.75
 20
283.1
 11
113.25
 21
283.1
  0
LINE
  8
0
 10
113.25
 20
283.1
 11
113.25
 21
283.095
  0
LINE
  8
0
 10
113.25
 20
283.095
 11
113.624
 21
283.086
  0
LINE
  8
0
 10
113.624
 20
283.086
 11
114.118
 21
283.024
  0
LINE
  8
0
 10
114.118
 20
283.024
 11
114.604
 21
282.913
  0
LINE
  8
0
 10
114.604
 20
282.913
 11
115.077
 21
282.754
  0
LINE
  8
0
 10
115.077
 20
282.754
 11
115.531
 21
282.549
  0
LINE
  8
0
 10
115.531
 20
282.549
 11
115.963
 21
282.3
  0
LINE
  8
0
 10
115.963
 20
282.3
 11
116.367
 21
282.009
  0
LINE
  8
0
 10
116.367
 20
282.009
 11
116.741
 21
281.679
  0
LINE
  8
0
 10
116.741
 20
281.679
 11
117.08
 21
281.314
  0
LINE
  8
0
 10
117.08
 20
281.314
 11
117.381
 21
280.917
  0
LINE
  8
0
 10
117.381
 20
280.917
 11
117.641
 21
280.491
  0
LINE
  8
0
 10
117.641
 20
280.491
 11
117.857
 21
280.042
  0
LINE
  8
0
 10
117.857
 20
280.042
 11
118.028
 21
279.574
  0
LINE
  8
0
 10
118.028
 20
279.574
 11
118.151
 21
279.091
  0
LINE
  8
0
 10
118.151
 20
279.091
 11
118.225
 21
278.598
  0
LINE
  8
0
 10
118.225
 20
278.598
 11
118.25
 21
278.1
  0
LINE
  8
0
 10
118.25
 20
278.1
 11
118.25
 21
0
  0
LINE
  8
0
 10
118.25
 20
0
 11
236.25
 21
0
  0
LINE
  8
0
 10
236.25
 20
0
 11
236.25
 21
359
  0
LINE
  8
0
 10
236.25
 20
359
 11
236.155
 21
361.179
  0
LINE
  8
0
 10
236.155
 20
361.179
 11
235.87
 21
363.341
  0
LINE
  8
0
 10
235.87
 20
363.341
 11
235.398
 21
365.47
  0
LINE
  8
0
 10
235.398
 20
365.47
 11
234.742
 21
367.55
  0
LINE
  8
0
 10
234.742
 20
367.55
 11
233.908
 21
369.565
  0
LINE
  8
0
 10
233.908
 20
369.565
 11
232.901
 21
371.5
  0
LINE
  8
0
 10
232.901
 20
371.5
 11
231.729
 21
373.339
  0
LINE
  8
0
 10
231.729
 20
373.339
 11
230.401
 21
375.07
  0
LINE
  8
0
 10
230.401
 20
375.07
 11
228.928
 21
376.678
  0
LINE
  8
0
 10
228.928
 20
376.678
 11
227.32
 21
378.151
  0
LINE
  8
0
 10
227.32
 20
378.151
 11
225.589
 21
379.479
  0
LINE
  8
0
 10
225.589
 20
379.479
 11
223.75
 21
380.651
  0
LINE
  8
0
 10
223.75
 20
380.651
 11
221.815
 21
381.658
  0
LINE
  8
0
 10
221.815
 20
381.658
 11
219.8
 21
382.492
  0
LINE
  8
0
 10
219.8
 20
382.492
 11
217.72
 21
383.148
  0
LINE
  8
0
 10
217.72
 20
383.148
 11
215.591
 21
383.62
  0
LINE
  8
0
 10
215.591
 20
383.62
 11
213.429
 21
383.905
  0
LINE
  8
0
 10
213.429
 20
383.905
 11
211.25
 21
384
  0
LINE
  8
0
 10
211.25
 20
384
 11
-211.25
 21
384
  0
LINE
  8
0
 10
-211.25
 20
384
 11
-213.429
 21
383.905
  0
LINE
  8
0
 10
-213.429
 20
383.905
 11
-215.591
 21
383.62
  0
LINE
  8
0
 10
-215.591
 20
383.62
 11
-217.72
 21
383.148
  0
LINE
  8
0
 10
-217.72
 20
383.148
 11
-219.8
 21
382.492
  0
LINE
  8
0
 10
-219.8
 20
382.492
 11
-221.815
 21
381.658
  0
LINE
  8
0
 10
-221.815
 20
381.658
 11
-223.75
 21
380.651
  0
LINE
  8
0
 10
-223.75
 20
380.651
 11
-225.589
 21
379.479
  0
LINE
  8
0
 10
-225.589
 20
379.479
 11
-227.32
 21
378.151
  0
LINE
  8
0
 10
-227.32
 20
378.151
 11
-228.928
 21
376.678
  0
LINE
  8
0
 10
-228.928
 20
376.678
 11
-230.401
 21
375.07
  0
LINE
  8
0
 10
-230.401
 20
375.07
 11
-231.729
 21
373.339
  0
LINE
  8
0
 10
-231.729
 20
373.339
 11
-232.901
 21
371.5
  0
LINE
  8
0
 10
-232.901
 20
371.5
 11
-233.908
 21
369.565
  0
LINE
  8
0
 10
-233.908
 20
369.565
 11
-234.742
 21
367.55
  0
LINE
  8
0
 10
-234.742
 20
367.55
 11
-235.398
 21
365.47
  0
LINE
  8
0
 10
-235.398
 20
365.47
 11
-235.87
 21
363.341
  0
LINE
  8
0
 10
-235.87
 20
363.341
 11
-236.155
 21
361.179
  0
LINE
  8
0
 10
-236.155
 20
361.179
 11
-236.25
 21
359
  0
LINE
  8
0
 10
-236.25
 20
359
 11
-236.25
 21
0
  0
LINE
  8
0
 10
-236.25
 20
0
 11
-197.63
 21
0
  0
LINE
  8
0
 10
-197.63
 20
0
 11
-197.63
 21
2.49998
  0
LINE
  8
0
 10
158.31
 20
374.355
 11
157.845
 21
374.518
  0
LINE
  8
0
 10
157.845
 20
374.518
 11
157.428
 21
374.78
  0
LINE
  8
0
 10
157.428
 20
374.78
 11
157.08
 21
375.128
  0
LINE
  8
0
 10
157.08
 20
375.128
 11
156.818
 21
375.545
  0
LINE
  8
0
 10
156.818
 20
375.545
 11
156.655
 21
376.01
  0
LINE
  8
0
 10
156.655
 20
376.01
 11
156.6
 21
376.5
  0
LINE
  8
0
 10
156.6
 20
376.5
 11
156.655
 21
376.99
  0
LINE
  8
0
 10
156.655
 20
376.99
 11
156.818
 21
377.455
  0
LINE
  8
0
 10
156.818
 20
377.455
 11
157.08
 21
377.872
  0
LINE
  8
0
 10
157.08
 20
377.872
 11
157.428
 21
378.22
  0
LINE
  8
0
 10
157.428
 20
378.22
 11
157.845
 21
378.482
  0
LINE
  8
0
 10
157.845
 20
378.482
 11
158.31
 21
378.645
  0
LINE
  8
0
 10
158.31
 20
378.645
 11
158.8
 21
378.7
  0
LINE
  8
0
 10
158.8
 20
378.7
 11
159.29
 21
378.645
  0
LINE
  8
0
 10
159.29
 20
378.645
 11
159.755
 21
378.482
  0
LINE
  8
0
 10
159.755
 20
378.482
 11
160.172
 21
378.22
  0
LINE
  8
0
 10
160.172
 20
378.22
 11
160.52
 21
377.872
  0
LINE
  8
0
 10
160.52
 20
377.872
 11
160.782
 21
377.455
  0
LINE
  8
0
 10
160.782
 20
377.455
 11
160.945
 21
376.99
  0
LINE
  8
0
 10
160.945
 20
376.99
 11
161
 21
376.5
  0
LINE
  8
0
 10
161
 20
376.5
 11
160.945
 21
376.01
  0
LINE
  8
0
 10
160.945
 20
376.01
 11
160.782
 21
375.545
  0
LINE
  8
0
 10
160.782
 20
375.545
 11
160.52
 21
375.128
  0
LINE
  8
0
 10
160.52
 20
375.128
 11
160.172
 21
374.78
  0
LINE
  8
0
 10
160.172
 20
374.78
 11
159.755
 21
374.518
  0
LINE
  8
0
 10
159.755
 20
374.518
 11
159.29
 21
374.355
  0
LINE
  8
0
 10
159.29
 20
374.355
 11
158.8
 21
374.3
  0
LINE
  8
0
 10
158.8
 20
374.3
 11
158.31
 21
374.355
  0
LINE
  8
0
 10
126.21
 20
374.355
 11
125.745
 21
374.518
  0
LINE
  8
0
 10
125.745
 20
374.518
 11
125.328
 21
374.78
  0
LINE
  8
0
 10
125.328
 20
374.78
 11
124.98
 21
375.128
  0
LINE
  8
0
 10
124.98
 20
375.128
 11
124.718
 21
375.545
  0
LINE
  8
0
 10
124.718
 20
375.545
 11
124.555
 21
376.01
  0
LINE
  8
0
 10
124.555
 20
376.01
 11
124.5
 21
376.5
  0
LINE
  8
0
 10
124.5
 20
376.5
 11
124.555
 21
376.99
  0
LINE
  8
0
 10
124.555
 20
376.99
 11
124.718
 21
377.455
  0
LINE
  8
0
 10
124.718
 20
377.455
 11
124.98
 21
377.872
  0
LINE
  8
0
 10
124.98
 20
377.872
 11
125.328
 21
378.22
  0
LINE
  8
0
 10
125.328
 20
378.22
 11
125.745
 21
378.482
  0
LINE
  8
0
 10
125.745
 20
378.482
 11
126.21
 21
378.645
  0
LINE
  8
0
 10
126.21
 20
378.645
 11
126.7
 21
378.7
  0
LINE
  8
0
 10
126.7
 20
378.7
 11
127.19
 21
378.645
  0
LINE
  8
0
 10
127.19
 20
378.645
 11
127.655
 21
378.482
  0
LINE
  8
0
 10
127.655
 20
378.482
 11
128.072
 21
378.22
  0
LINE
  8
0
 10
128.072
 20
378.22
 11
128.42
 21
377.872
  0
LINE
  8
0
 10
128.42
 20
377.872
 11
128.682
 21
377.455
  0
LINE
  8
0
 10
128.682
 20
377.455
 11
128.845
 21
376.99
  0
LINE
  8
0
 10
128.845
 20
376.99
 11
128.9
 21
376.5
  0
LINE
  8
0
 10
128.9
 20
376.5
 11
128.845
 21
376.01
  0
LINE
  8
0
 10
128.845
 20
376.01
 11
128.682
 21
375.545
  0
LINE
  8
0
 10
128.682
 20
375.545
 11
128.42
 21
375.128
  0
LINE
  8
0
 10
128.42
 20
375.128
 11
128.072
 21
374.78
  0
LINE
  8
0
 10
128.072
 20
374.78
 11
127.655
 21
374.518
  0
LINE
  8
0
 10
127.655
 20
374.518
 11
127.19
 21
374.355
  0
LINE
  8
0
 10
127.19
 20
374.355
 11
126.7
 21
374.3
  0
LINE
  8
0
 10
126.7
 20
374.3
 11
126.21
 21
374.355
  0
LINE
  8
0
 10
-196.79
 20
374.355
 11
-197.255
 21
374.518
  0
LINE
  8
0
 10
-197.255
 20
374.518
 11
-197.672
 21
374.78
  0
LINE
  8
0
 10
-197.672
 20
374.78
 11
-198.02
 21
375.128
  0
LINE
  8
0
 10
-198.02
 20
375.128
 11
-198.282
 21
375.545
  0
LINE
  8
0
 10
-198.282
 20
375.545
 11
-198.445
 21
376.01
  0
LINE
  8
0
 10
-198.445
 20
376.01
 11
-198.5
 21
376.5
  0
LINE
  8
0
 10
-198.5
 20
376.5
 11
-198.445
 21
376.99
  0
LINE
  8
0
 10
-198.445
 20
376.99
 11
-198.282
 21
377.455
  0
LINE
  8
0
 10
-198.282
 20
377.455
 11
-198.02
 21
377.872
  0
LINE
  8
0
 10
-198.02
 20
377.872
 11
-197.672
 21
378.22
  0
LINE
  8
0
 10
-197.672
 20
378.22
 11
-197.255
 21
378.482
  0
LINE
  8
0
 10
-197.255
 20
378.482
 11
-196.79
 21
378.645
  0
LINE
  8
0
 10
-196.79
 20
378.645
 11
-196.3
 21
378.7
  0
LINE
  8
0
 10
-196.3
 20
378.7
 11
-195.81
 21
378.645
  0
LINE
  8
0
 10
-195.81
 20
378.645
 11
-195.345
 21
378.482
  0
LINE
  8
0
 10
-195.345
 20
378.482
 11
-194.928
 21
378.22
  0
LINE
  8
0
 10
-194.928
 20
378.22
 11
-194.58
 21
377.872
  0
LINE
  8
0
 10
-194.58
 20
377.872
 11
-194.318
 21
377.455
  0
LINE
  8
0
 10
-194.318
 20
377.455
 11
-194.155
 21
376.99
  0
LINE
  8
0
 10
-194.155
 20
376.99
 11
-194.1
 21
376.5
  0
LINE
  8
0
 10
-194.1
 20
376.5
 11
-194.155
 21
376.01
  0
LINE
  8
0
 10
-194.155
 20
376.01
 11
-194.318
 21
375.545
  0
LINE
  8
0
 10
-194.318
 20
375.545
 11
-194.58
 21
375.128
  0
LINE
  8
0
 10
-194.58
 20
375.128
 11
-194.928
 21
374.78
  0
LINE
  8
0
 10
-194.928
 20
374.78
 11
-195.345
 21
374.518
  0
LINE
  8
0
 10
-195.345
 20
374.518
 11
-195.81
 21
374.355
  0
LINE
  8
0
 10
-195.81
 20
374.355
 11
-196.3
 21
374.3
  0
LINE
  8
0
 10
-196.3
 20
374.3
 11
-196.79
 21
374.355
  0
LINE
  8
0
 10
-164.69
 20
374.355
 11
-165.155
 21
374.518
  0
LINE
  8
0
 10
-165.155
 20
374.518
 11
-165.572
 21
374.78
  0
LINE
  8
0
 10
-165.572
 20
374.78
 11
-165.92
 21
375.128
  0
LINE
  8
0
 10
-165.92
 20
375.128
 11
-166.182
 21
375.545
  0
LINE
  8
0
 10
-166.182
 20
375.545
 11
-166.345
 21
376.01
  0
LINE
  8
0
 10
-166.345
 20
376.01
 11
-166.4
 21
376.5
  0
LINE
  8
0
 10
-166.4
 20
376.5
 11
-166.345
 21
376.99
  0
LINE
  8
0
 10
-166.345
 20
376.99
 11
-166.182
 21
377.455
  0
LINE
  8
0
 10
-166.182
 20
377.455
 11
-165.92
 21
377.872
  0
LINE
  8
0
 10
-165.92
 20
377.872
 11
-165.572
 21
378.22
  0
LINE
  8
0
 10
-165.572
 20
378.22
 11
-165.155
 21
378.482
  0
LINE
  8
0
 10
-165.155
 20
378.482
 11
-164.69
 21
378.645
  0
LINE
  8
0
 10
-164.69
 20
378.645
 11
-164.2
 21
378.7
  0
LINE
  8
0
 10
-164.2
 20
378.7
 11
-163.71
 21
378.645
  0
LINE
  8
0
 10
-163.71
 20
378.645
 11
-163.245
 21
378.482
  0
LINE
  8
0
 10
-163.245
 20
378.482
 11
-162.828
 21
378.22
  0
LINE
  8
0
 10
-162.828
 20
378.22
 11
-162.48
 21
377.872
  0
LINE
  8
0
 10
-162.48
 20
377.872
 11
-162.218
 21
377.455
  0
LINE
  8
0
 10
-162.218
 20
377.455
 11
-162.055
 21
376.99
  0
LINE
  8
0
 10
-162.055
 20
376.99
 11
-162
 21
376.5
  0
LINE
  8
0
 10
-162
 20
376.5
 11
-162.055
 21
376.01
  0
LINE
  8
0
 10
-162.055
 20
376.01
 11
-162.218
 21
375.545
  0
LINE
  8
0
 10
-162.218
 20
375.545
 11
-162.48
 21
375.128
  0
LINE
  8
0
 10
-162.48
 20
375.128
 11
-162.828
 21
374.78
  0
LINE
  8
0
 10
-162.828
 20
374.78
 11
-163.245
 21
374.518
  0
LINE
  8
0
 10
-163.245
 20
374.518
 11
-163.71
 21
374.355
  0
LINE
  8
0
 10
-163.71
 20
374.355
 11
-164.2
 21
374.3
  0
LINE
  8
0
 10
-164.2
 20
374.3
 11
-164.69
 21
374.355
  0
LINE
  8
0
 10
-197.991
 20
365.015
 11
-198.459
 21
365.13
  0
LINE
  8
0
 10
-198.459
 20
365.13
 11
-198.886
 21
365.354
  0
LINE
  8
0
 10
-198.886
 20
365.354
 11
-199.247
 21
365.674
  0
LINE
  8
0
 10
-199.247
 20
365.674
 11
-199.521
 21
366.071
  0
LINE
  8
0
 10
-199.521
 20
366.071
 11
-199.692
 21
366.521
  0
LINE
  8
0
 10
-199.692
 20
366.521
 11
-199.75
 21
367
  0
LINE
  8
0
 10
-199.75
 20
367
 11
-199.692
 21
367.479
  0
LINE
  8
0
 10
-199.692
 20
367.479
 11
-199.521
 21
367.929
  0
LINE
  8
0
 10
-199.521
 20
367.929
 11
-199.247
 21
368.326
  0
LINE
  8
0
 10
-199.247
 20
368.326
 11
-198.886
 21
368.646
  0
LINE
  8
0
 10
-198.886
 20
368.646
 11
-198.459
 21
368.87
  0
LINE
  8
0
 10
-198.459
 20
368.87
 11
-197.991
 21
368.985
  0
LINE
  8
0
 10
-197.991
 20
368.985
 11
-197.509
 21
368.985
  0
LINE
  8
0
 10
-197.509
 20
368.985
 11
-197.041
 21
368.87
  0
LINE
  8
0
 10
-197.041
 20
368.87
 11
-196.614
 21
368.646
  0
LINE
  8
0
 10
-196.614
 20
368.646
 11
-196.253
 21
368.326
  0
LINE
  8
0
 10
-196.253
 20
368.326
 11
-195.979
 21
367.929
  0
LINE
  8
0
 10
-195.979
 20
367.929
 11
-195.808
 21
367.479
  0
LINE
  8
0
 10
-195.808
 20
367.479
 11
-195.75
 21
367
  0
LINE
  8
0
 10
-195.75
 20
367
 11
-195.808
 21
366.521
  0
LINE
  8
0
 10
-195.808
 20
366.521
 11
-195.979
 21
366.071
  0
LINE
  8
0
 10
-195.979
 20
366.071
 11
-196.253
 21
365.674
  0
LINE
  8
0
 10
-196.253
 20
365.674
 11
-196.614
 21
365.354
  0
LINE
  8
0
 10
-196.614
 20
365.354
 11
-197.041
 21
365.13
  0
LINE
  8
0
 10
-197.041
 20
365.13
 11
-197.509
 21
365.015
  0
LINE
  8
0
 10
-197.509
 20
365.015
 11
-197.991
 21
365.015
  0
LINE
  8
0
 10
190.05
 20
362.75
 11
189.572
 21
362.845
  0
LINE
  8
0
 10
189.572
 20
362.845
 11
189.166
 21
363.116
  0
LINE
  8
0
 10
189.166
 20
363.116
 11
188.895
 21
363.522
  0
LINE
  8
0
 10
188.895
 20
363.522
 11
188.8
 21
364
  0
LINE
  8
0
 10
188.8
 20
364
 11
188.895
 21
364.478
  0
LINE
  8
0
 10
188.895
 20
364.478
 11
189.166
 21
364.884
  0
LINE
  8
0
 10
189.166
 20
364.884
 11
189.572
 21
365.155
  0
LINE
  8
0
 10
189.572
 20
365.155
 11
190.05
 21
365.25
  0
LINE
  8
0
 10
190.05
 20
365.25
 11
217.45
 21
365.25
  0
LINE
  8
0
 10
217.45
 20
365.25
 11
217.928
 21
365.155
  0
LINE
  8
0
 10
217.928
 20
365.155
 11
218.334
 21
364.884
  0
LINE
  8
0
 10
218.334
 20
364.884
 11
218.605
 21
364.478
  0
LINE
  8
0
 10
218.605
 20
364.478
 11
218.7
 21
364
  0
LINE
  8
0
 10
218.7
 20
364
 11
218.605
 21
363.522
  0
LINE
  8
0
 10
218.605
 20
363.522
 11
218.334
 21
363.116
  0
LINE
  8
0
 10
218.334
 20
363.116
 11
217.928
 21
362.845
  0
LINE
  8
0
 10
217.928
 20
362.845
 11
217.45
 21
362.75
  0
LINE
  8
0
 10
217.45
 20
362.75
 11
190.05
 21
362.75
  0
LINE
  8
0
 10
220.66
 20
351.005
 11
220.195
 21
351.168
  0
LINE
  8
0
 10
220.195
 20
351.168
 11
219.778
 21
351.43
  0
LINE
  8
0
 10
219.778
 20
351.43
 11
219.43
 21
351.778
  0
LINE
  8
0
 10
219.43
 20
351.778
 11
219.168
 21
352.195
  0
LINE
  8
0
 10
219.168
 20
352.195
 11
219.005
 21
352.66
  0
LINE
  8
0
 10
219.005
 20
352.66
 11
218.95
 21
353.15
  0
LINE
  8
0
 10
218.95
 20
353.15
 11
219.005
 21
353.64
  0
LINE
  8
0
 10
219.005
 20
353.64
 11
219.168
 21
354.105
  0
LINE
  8
0
 10
219.168
 20
354.105
 11
219.43
 21
354.522
  0
LINE
  8
0
 10
219.43
 20
354.522
 11
219.778
 21
354.87
  0
LINE
  8
0
 10
219.778
 20
354.87
 11
220.195
 21
355.132
  0
LINE
  8
0
 10
220.195
 20
355.132
 11
220.66
 21
355.295
  0
LINE
  8
0
 10
220.66
 20
355.295
 11
221.15
 21
355.35
  0
LINE
  8
0
 10
221.15
 20
355.35
 11
221.64
 21
355.295
  0
LINE
  8
0
 10
221.64
 20
355.295
 11
222.105
 21
355.132
  0
LINE
  8
0
 10
222.105
 20
355.132
 11
222.522
 21
354.87
  0
LINE
  8
0
 10
222.522
 20
354.87
 11
222.87
 21
354.522
  0
LINE
  8
0
 10
222.87
 20
354.522
 11
223.132
 21
354.105
  0
LINE
  8
0
 10
223.132
 20
354.105
 11
223.295
 21
353.64
  0
LINE
  8
0
 10
223.295
 20
353.64
 11
223.35
 21
353.15
  0
LINE
  8
0
 10
223.35
 20
353.15
 11
223.295
 21
352.66
  0
LINE
  8
0
 10
223.295
 20
352.66
 11
223.132
 21
352.195
  0
LINE
  8
0
 10
223.132
 20
352.195
 11
222.87
 21
351.778
  0
LINE
  8
0
 10
222.87
 20
351.778
 11
222.522
 21
351.43
  0
LINE
  8
0
 10
222.522
 20
351.43
 11
222.105
 21
351.168
  0
LINE
  8
0
 10
222.105
 20
351.168
 11
221.64
 21
351.005
  0
LINE
  8
0
 10
221.64
 20
351.005
 11
221.15
 21
350.95
  0
LINE
  8
0
 10
221.15
 20
350.95
 11
220.66
 21
351.005
  0
LINE
  8
0
 10
185.86
 20
351.005
 11
185.395
 21
351.168
  0
LINE
  8
0
 10
185.395
 20
351.168
 11
184.978
 21
351.43
  0
LINE
  8
0
 10
184.978
 20
351.43
 11
184.63
 21
351.778
  0
LINE
  8
0
 10
184.63
 20
351.778
 11
184.368
 21
352.195
  0
LINE
  8
0
 10
184.368
 20
352.195
 11
184.205
 21
352.66
  0
LINE
  8
0
 10
184.205
 20
352.66
 11
184.15
 21
353.15
  0
LINE
  8
0
 10
184.15
 20
353.15
 11
184.205
 21
353.64
  0
LINE
  8
0
 10
184.205
 20
353.64
 11
184.368
 21
354.105
  0
LINE
  8
0
 10
184.368
 20
354.105
 11
184.63
 21
354.522
  0
LINE
  8
0
 10
184.63
 20
354.522
 11
184.978
 21
354.87
  0
LINE
  8
0
 10
184.978
 20
354.87
 11
185.395
 21
355.132
  0
LINE
  8
0
 10
185.395
 20
355.132
 11
185.86
 21
355.295
  0
LINE
  8
0
 10
185.86
 20
355.295
 11
186.35
 21
355.35
  0
LINE
  8
0
 10
186.35
 20
355.35
 11
186.84
 21
355.295
  0
LINE
  8
0
 10
186.84
 20
355.295
 11
187.305
 21
355.132
  0
LINE
  8
0
 10
187.305
 20
355.132
 11
187.722
 21
354.87
  0
LINE
  8
0
 10
187.722
 20
354.87
 11
188.07
 21
354.522
  0
LINE
  8
0
 10
188.07
 20
354.522
 11
188.332
 21
354.105
  0
LINE
  8
0
 10
188.332
 20
354.105
 11
188.495
 21
353.64
  0
LINE
  8
0
 10
188.495
 20
353.64
 11
188.55
 21
353.15
  0
LINE
  8
0
 10
188.55
 20
353.15
 11
188.495
 21
352.66
  0
LINE
  8
0
 10
188.495
 20
352.66
 11
188.332
 21
352.195
  0
LINE
  8
0
 10
188.332
 20
352.195
 11
188.07
 21
351.778
  0
LINE
  8
0
 10
188.07
 20
351.778
 11
187.722
 21
351.43
  0
LINE
  8
0
 10
187.722
 20
351.43
 11
187.305
 21
351.168
  0
LINE
  8
0
 10
187.305
 20
351.168
 11
186.84
 21
351.005
  0
LINE
  8
0
 10
186.84
 20
351.005
 11
186.35
 21
350.95
  0
LINE
  8
0
 10
186.35
 20
350.95
 11
185.86
 21
351.005
  0
LINE
  8
0
 10
129.01
 20
348.145
 11
128.545
 21
348.308
  0
LINE
  8
0
 10
128.545
 20
348.308
 11
128.128
 21
348.57
  0
LINE
  8
0
 10
128.128
 20
348.57
 11
127.78
 21
348.918
  0
LINE
  8
0
 10
127.78
 20
348.918
 11
127.518
 21
349.335
  0
LINE
  8
0
 10
127.518
 20
349.335
 11
127.355
 21
349.8
  0
LINE
  8
0
 10
127.355
 20
349.8
 11
127.3
 21
350.29
  0
LINE
  8
0
 10
127.3
 20
350.29
 11
127.355
 21
350.78
  0
LINE
  8
0
 10
127.355
 20
350.78
 11
127.518
 21
351.245
  0
LINE
  8
0
 10
127.518
 20
351.245
 11
127.78
 21
351.662
  0
LINE
  8
0
 10
127.78
 20
351.662
 11
128.128
 21
352.01
  0
LINE
  8
0
 10
128.128
 20
352.01
 11
128.545
 21
352.272
  0
LINE
  8
0
 10
128.545
 20
352.272
 11
129.01
 21
352.435
  0
LINE
  8
0
 10
129.01
 20
352.435
 11
129.5
 21
352.49
  0
LINE
  8
0
 10
129.5
 20
352.49
 11
129.99
 21
352.435
  0
LINE
  8
0
 10
129.99
 20
352.435
 11
130.455
 21
352.272
  0
LINE
  8
0
 10
130.455
 20
352.272
 11
130.872
 21
352.01
  0
LINE
  8
0
 10
130.872
 20
352.01
 11
131.22
 21
351.662
  0
LINE
  8
0
 10
131.22
 20
351.662
 11
131.482
 21
351.245
  0
LINE
  8
0
 10
131.482
 20
351.245
 11
131.645
 21
350.78
  0
LINE
  8
0
 10
131.645
 20
350.78
 11
131.7
 21
350.29
  0
LINE
  8
0
 10
131.7
 20
350.29
 11
131.645
 21
349.8
  0
LINE
  8
0
 10
131.645
 20
349.8
 11
131.482
 21
349.335
  0
LINE
  8
0
 10
131.482
 20
349.335
 11
131.22
 21
348.918
  0
LINE
  8
0
 10
131.22
 20
348.918
 11
130.872
 21
348.57
  0
LINE
  8
0
 10
130.872
 20
348.57
 11
130.455
 21
348.308
  0
LINE
  8
0
 10
130.455
 20
348.308
 11
129.99
 21
348.145
  0
LINE
  8
0
 10
129.99
 20
348.145
 11
129.5
 21
348.09
  0
LINE
  8
0
 10
129.5
 20
348.09
 11
129.01
 21
348.145
  0
LINE
  8
0
 10
-174.04
 20
348.145
 11
-174.505
 21
348.308
  0
LINE
  8
0
 10
-174.505
 20
348.308
 11
-174.922
 21
348.57
  0
LINE
  8
0
 10
-174.922
 20
348.57
 11
-175.27
 21
348.918
  0
LINE
  8
0
 10
-175.27
 20
348.918
 11
-175.532
 21
349.335
  0
LINE
  8
0
 10
-175.532
 20
349.335
 11
-175.695
 21
349.8
  0
LINE
  8
0
 10
-175.695
 20
349.8
 11
-175.75
 21
350.29
  0
LINE
  8
0
 10
-175.75
 20
350.29
 11
-175.695
 21
350.78
  0
LINE
  8
0
 10
-175.695
 20
350.78
 11
-175.532
 21
351.245
  0
LINE
  8
0
 10
-175.532
 20
351.245
 11
-175.27
 21
351.662
  0
LINE
  8
0
 10
-175.27
 20
351.662
 11
-174.922
 21
352.01
  0
LINE
  8
0
 10
-174.922
 20
352.01
 11
-174.505
 21
352.272
  0
LINE
  8
0
 10
-174.505
 20
352.272
 11
-174.04
 21
352.435
  0
LINE
  8
0
 10
-174.04
 20
352.435
 11
-173.55
 21
352.49
  0
LINE
  8
0
 10
-173.55
 20
352.49
 11
-173.06
 21
352.435
  0
LINE
  8
0
 10
-173.06
 20
352.435
 11
-172.595
 21
352.272
  0
LINE
  8
0
 10
-172.595
 20
352.272
 11
-172.178
 21
352.01
  0
LINE
  8
0
 10
-172.178
 20
352.01
 11
-171.83
 21
351.662
  0
LINE
  8
0
 10
-171.83
 20
351.662
 11
-171.568
 21
351.245
  0
LINE
  8
0
 10
-171.568
 20
351.245
 11
-171.405
 21
350.78
  0
LINE
  8
0
 10
-171.405
 20
350.78
 11
-171.35
 21
350.29
  0
LINE
  8
0
 10
-171.35
 20
350.29
 11
-171.405
 21
349.8
  0
LINE
  8
0
 10
-171.405
 20
349.8
 11
-171.568
 21
349.335
  0
LINE
  8
0
 10
-171.568
 20
349.335
 11
-171.83
 21
348.918
  0
LINE
  8
0
 10
-171.83
 20
348.918
 11
-172.178
 21
348.57
  0
LINE
  8
0
 10
-172.178
 20
348.57
 11
-172.595
 21
348.308
  0
LINE
  8
0
 10
-172.595
 20
348.308
 11
-173.06
 21
348.145
  0
LINE
  8
0
 10
-173.06
 20
348.145
 11
-173.55
 21
348.09
  0
LINE
  8
0
 10
-173.55
 20
348.09
 11
-174.04
 21
348.145
  0
LINE
  8
0
 10
50.5013
 20
316.55
 11
50.5013
 21
341.318
  0
LINE
  8
0
 10
50.5013
 20
341.318
 11
54.2133
 21
341.318
  0
LINE
  8
0
 10
54.2133
 20
341.318
 11
54.2133
 21
336.262
  0
LINE
  8
0
 10
54.2133
 20
336.262
 11
54.8241
 21
337.332
  0
LINE
  8
0
 10
54.8241
 20
337.332
 11
55.4699
 21
338.29
  0
LINE
  8
0
 10
55.4699
 20
338.29
 11
56.1509
 21
339.134
  0
LINE
  8
0
 10
56.1509
 20
339.134
 11
56.8669
 21
339.866
  0
LINE
  8
0
 10
56.8669
 20
339.866
 11
57.6181
 21
340.486
  0
LINE
  8
0
 10
57.6181
 20
340.486
 11
58.4043
 21
340.993
  0
LINE
  8
0
 10
58.4043
 20
340.993
 11
59.2257
 21
341.387
  0
LINE
  8
0
 10
59.2257
 20
341.387
 11
60.0821
 21
341.669
  0
LINE
  8
0
 10
60.0821
 20
341.669
 11
60.9737
 21
341.838
  0
LINE
  8
0
 10
60.9737
 20
341.838
 11
61.9003
 21
341.894
  0
LINE
  8
0
 10
61.9003
 20
341.894
 11
62.4586
 21
341.882
  0
LINE
  8
0
 10
62.4586
 20
341.882
 11
63.0136
 21
341.845
  0
LINE
  8
0
 10
63.0136
 20
341.845
 11
63.5653
 21
341.785
  0
LINE
  8
0
 10
63.5653
 20
341.785
 11
64.1136
 21
341.699
  0
LINE
  8
0
 10
64.1136
 20
341.699
 11
64.6586
 21
341.59
  0
LINE
  8
0
 10
64.6586
 20
341.59
 11
65.2002
 21
341.456
  0
LINE
  8
0
 10
65.2002
 20
341.456
 11
65.7385
 21
341.298
  0
LINE
  8
0
 10
65.7385
 20
341.298
 11
66.2734
 21
341.116
  0
LINE
  8
0
 10
66.2734
 20
341.116
 11
66.8051
 21
340.909
  0
LINE
  8
0
 10
66.8051
 20
340.909
 11
67.3333
 21
340.678
  0
LINE
  8
0
 10
67.3333
 20
340.678
 11
65.8383
 21
337.094
  0
LINE
  8
0
 10
65.8383
 20
337.094
 11
65.3564
 21
337.289
  0
LINE
  8
0
 10
65.3564
 20
337.289
 11
64.8876
 21
337.463
  0
LINE
  8
0
 10
64.8876
 20
337.463
 11
64.4322
 21
337.616
  0
LINE
  8
0
 10
64.4322
 20
337.616
 11
63.99
 21
337.749
  0
LINE
  8
0
 10
63.99
 20
337.749
 11
63.5611
 21
337.862
  0
LINE
  8
0
 10
63.5611
 20
337.862
 11
63.1454
 21
337.954
  0
LINE
  8
0
 10
63.1454
 20
337.954
 11
62.743
 21
338.026
  0
LINE
  8
0
 10
62.743
 20
338.026
 11
62.3538
 21
338.077
  0
LINE
  8
0
 10
62.3538
 20
338.077
 11
61.978
 21
338.108
  0
LINE
  8
0
 10
61.978
 20
338.108
 11
61.6153
 21
338.118
  0
LINE
  8
0
 10
61.6153
 20
338.118
 11
61.2886
 21
338.109
  0
LINE
  8
0
 10
61.2886
 20
338.109
 11
60.9634
 21
338.081
  0
LINE
  8
0
 10
60.9634
 20
338.081
 11
60.6395
 21
338.034
  0
LINE
  8
0
 10
60.6395
 20
338.034
 11
60.3171
 21
337.968
  0
LINE
  8
0
 10
60.3171
 20
337.968
 11
59.9961
 21
337.884
  0
LINE
  8
0
 10
59.9961
 20
337.884
 11
59.6765
 21
337.781
  0
LINE
  8
0
 10
59.6765
 20
337.781
 11
59.3583
 21
337.659
  0
LINE
  8
0
 10
59.3583
 20
337.659
 11
59.0415
 21
337.519
  0
LINE
  8
0
 10
59.0415
 20
337.519
 11
58.7262
 21
337.36
  0
LINE
  8
0
 10
58.7262
 20
337.36
 11
58.4123
 21
337.182
  0
LINE
  8
0
 10
58.4123
 20
337.182
 11
58.1016
 21
336.987
  0
LINE
  8
0
 10
58.1016
 20
336.987
 11
57.7959
 21
336.775
  0
LINE
  8
0
 10
57.7959
 20
336.775
 11
57.4951
 21
336.548
  0
LINE
  8
0
 10
57.4951
 20
336.548
 11
57.1994
 21
336.304
  0
LINE
  8
0
 10
57.1994
 20
336.304
 11
56.9086
 21
336.044
  0
LINE
  8
0
 10
56.9086
 20
336.044
 11
56.6228
 21
335.769
  0
LINE
  8
0
 10
56.6228
 20
335.769
 11
56.3419
 21
335.477
  0
LINE
  8
0
 10
56.3419
 20
335.477
 11
56.0661
 21
335.169
  0
LINE
  8
0
 10
56.0661
 20
335.169
 11
55.7952
 21
334.844
  0
LINE
  8
0
 10
55.7952
 20
334.844
 11
55.5293
 21
334.504
  0
LINE
  8
0
 10
55.5293
 20
334.504
 11
55.2793
 21
334.171
  0
LINE
  8
0
 10
55.2793
 20
334.171
 11
55.0556
 21
333.869
  0
LINE
  8
0
 10
55.0556
 20
333.869
 11
54.8582
 21
333.597
  0
LINE
  8
0
 10
54.8582
 20
333.597
 11
54.6871
 21
333.356
  0
LINE
  8
0
 10
54.6871
 20
333.356
 11
54.5423
 21
333.145
  0
LINE
  8
0
 10
54.5423
 20
333.145
 11
54.4239
 21
332.965
  0
LINE
  8
0
 10
54.4239
 20
332.965
 11
54.3318
 21
332.815
  0
LINE
  8
0
 10
54.3318
 20
332.815
 11
54.266
 21
332.696
  0
LINE
  8
0
 10
54.266
 20
332.696
 11
54.2265
 21
332.608
  0
LINE
  8
0
 10
54.2265
 20
332.608
 11
54.2133
 21
332.55
  0
LINE
  8
0
 10
54.2133
 20
332.55
 11
54.2133
 21
316.55
  0
LINE
  8
0
 10
54.2133
 20
316.55
 11
50.5013
 21
316.55
  0
LINE
  8
0
 10
30.0695
 20
316.009
 11
28.9718
 21
316.116
  0
LINE
  8
0
 10
28.9718
 20
316.116
 11
27.9213
 21
316.293
  0
LINE
  8
0
 10
27.9213
 20
316.293
 11
26.9181
 21
316.541
  0
LINE
  8
0
 10
26.9181
 20
316.541
 11
25.9622
 21
316.859
  0
LINE
  8
0
 10
25.9622
 20
316.859
 11
25.0535
 21
317.249
  0
LINE
  8
0
 10
25.0535
 20
317.249
 11
24.1921
 21
317.71
  0
LINE
  8
0
 10
24.1921
 20
317.71
 11
23.378
 21
318.241
  0
LINE
  8
0
 10
23.378
 20
318.241
 11
22.6111
 21
318.843
  0
LINE
  8
0
 10
22.6111
 20
318.843
 11
21.8914
 21
319.516
  0
LINE
  8
0
 10
21.8914
 20
319.516
 11
21.2304
 21
320.248
  0
LINE
  8
0
 10
21.2304
 20
320.248
 11
20.639
 21
321.026
  0
LINE
  8
0
 10
20.639
 20
321.026
 11
20.1171
 21
321.851
  0
LINE
  8
0
 10
20.1171
 20
321.851
 11
19.6649
 21
322.723
  0
LINE
  8
0
 10
19.6649
 20
322.723
 11
19.2822
 21
323.641
  0
LINE
  8
0
 10
19.2822
 20
323.641
 11
18.9691
 21
324.607
  0
LINE
  8
0
 10
18.9691
 20
324.607
 11
18.7255
 21
325.618
  0
LINE
  8
0
 10
18.7255
 20
325.618
 11
18.5516
 21
326.677
  0
LINE
  8
0
 10
18.5516
 20
326.677
 11
18.4472
 21
327.782
  0
LINE
  8
0
 10
18.4472
 20
327.782
 11
18.4124
 21
328.934
  0
LINE
  8
0
 10
18.4124
 20
328.934
 11
18.4475
 21
330.086
  0
LINE
  8
0
 10
18.4475
 20
330.086
 11
18.5528
 21
331.191
  0
LINE
  8
0
 10
18.5528
 20
331.191
 11
18.7282
 21
332.25
  0
LINE
  8
0
 10
18.7282
 20
332.25
 11
18.9739
 21
333.261
  0
LINE
  8
0
 10
18.9739
 20
333.261
 11
19.2897
 21
334.227
  0
LINE
  8
0
 10
19.2897
 20
334.227
 11
19.6757
 21
335.145
  0
LINE
  8
0
 10
19.6757
 20
335.145
 11
20.1319
 21
336.017
  0
LINE
  8
0
 10
20.1319
 20
336.017
 11
20.6582
 21
336.842
  0
LINE
  8
0
 10
20.6582
 20
336.842
 11
21.2547
 21
337.62
  0
LINE
  8
0
 10
21.2547
 20
337.62
 11
21.9214
 21
338.352
  0
LINE
  8
0
 10
21.9214
 20
338.352
 11
22.6452
 21
339.025
  0
LINE
  8
0
 10
22.6452
 20
339.025
 11
23.413
 21
339.627
  0
LINE
  8
0
 10
23.413
 20
339.627
 11
24.2248
 21
340.158
  0
LINE
  8
0
 10
24.2248
 20
340.158
 11
25.0806
 21
340.619
  0
LINE
  8
0
 10
25.0806
 20
340.619
 11
25.9804
 21
341.008
  0
LINE
  8
0
 10
25.9804
 20
341.008
 11
26.9242
 21
341.327
  0
LINE
  8
0
 10
26.9242
 20
341.327
 11
27.912
 21
341.575
  0
LINE
  8
0
 10
27.912
 20
341.575
 11
28.9438
 21
341.752
  0
LINE
  8
0
 10
28.9438
 20
341.752
 11
30.0196
 21
341.859
  0
LINE
  8
0
 10
30.0196
 20
341.859
 11
31.1394
 21
341.894
  0
LINE
  8
0
 10
31.1394
 20
341.894
 11
31.8829
 21
341.881
  0
LINE
  8
0
 10
31.8829
 20
341.881
 11
32.6192
 21
341.843
  0
LINE
  8
0
 10
32.6192
 20
341.843
 11
33.3483
 21
341.779
  0
LINE
  8
0
 10
33.3483
 20
341.779
 11
34.0703
 21
341.689
  0
LINE
  8
0
 10
34.0703
 20
341.689
 11
34.7852
 21
341.574
  0
LINE
  8
0
 10
34.7852
 20
341.574
 11
35.4929
 21
341.433
  0
LINE
  8
0
 10
35.4929
 20
341.433
 11
36.1935
 21
341.267
  0
LINE
  8
0
 10
36.1935
 20
341.267
 11
36.8869
 21
341.075
  0
LINE
  8
0
 10
36.8869
 20
341.075
 11
37.5733
 21
340.857
  0
LINE
  8
0
 10
37.5733
 20
340.857
 11
38.2524
 21
340.614
  0
LINE
  8
0
 10
38.2524
 20
340.614
 11
37.2734
 21
337.542
  0
LINE
  8
0
 10
37.2734
 20
337.542
 11
36.6019
 21
337.761
  0
LINE
  8
0
 10
36.6019
 20
337.761
 11
35.9438
 21
337.957
  0
LINE
  8
0
 10
35.9438
 20
337.957
 11
35.299
 21
338.13
  0
LINE
  8
0
 10
35.299
 20
338.13
 11
34.6675
 21
338.279
  0
LINE
  8
0
 10
34.6675
 20
338.279
 11
34.0494
 21
338.406
  0
LINE
  8
0
 10
34.0494
 20
338.406
 11
33.4447
 21
338.51
  0
LINE
  8
0
 10
33.4447
 20
338.51
 11
32.8533
 21
338.59
  0
LINE
  8
0
 10
32.8533
 20
338.59
 11
32.2754
 21
338.648
  0
LINE
  8
0
 10
32.2754
 20
338.648
 11
31.7107
 21
338.682
  0
LINE
  8
0
 10
31.7107
 20
338.682
 11
31.1594
 21
338.694
  0
LINE
  8
0
 10
31.1594
 20
338.694
 11
30.3551
 21
338.668
  0
LINE
  8
0
 10
30.3551
 20
338.668
 11
29.5849
 21
338.589
  0
LINE
  8
0
 10
29.5849
 20
338.589
 11
28.8489
 21
338.457
  0
LINE
  8
0
 10
28.8489
 20
338.457
 11
28.147
 21
338.273
  0
LINE
  8
0
 10
28.147
 20
338.273
 11
27.4792
 21
338.036
  0
LINE
  8
0
 10
27.4792
 20
338.036
 11
26.8456
 21
337.746
  0
LINE
  8
0
 10
26.8456
 20
337.746
 11
26.2461
 21
337.404
  0
LINE
  8
0
 10
26.2461
 20
337.404
 11
25.6807
 21
337.009
  0
LINE
  8
0
 10
25.6807
 20
337.009
 11
25.1495
 21
336.561
  0
LINE
  8
0
 10
25.1495
 20
336.561
 11
24.6524
 21
336.061
  0
LINE
  8
0
 10
24.6524
 20
336.061
 11
24.1964
 21
335.516
  0
LINE
  8
0
 10
24.1964
 20
335.516
 11
23.7884
 21
334.933
  0
LINE
  8
0
 10
23.7884
 20
334.933
 11
23.4284
 21
334.313
  0
LINE
  8
0
 10
23.4284
 20
334.313
 11
23.1164
 21
333.655
  0
LINE
  8
0
 10
23.1164
 20
333.655
 11
22.8524
 21
332.96
  0
LINE
  8
0
 10
22.8524
 20
332.96
 11
22.6364
 21
332.228
  0
LINE
  8
0
 10
22.6364
 20
332.228
 11
22.4684
 21
331.457
  0
LINE
  8
0
 10
22.4684
 20
331.457
 11
22.3484
 21
330.65
  0
LINE
  8
0
 10
22.3484
 20
330.65
 11
22.2764
 21
329.805
  0
LINE
  8
0
 10
22.2764
 20
329.805
 11
22.2524
 21
328.922
  0
LINE
  8
0
 10
22.2524
 20
328.922
 11
22.2772
 21
328.11
  0
LINE
  8
0
 10
22.2772
 20
328.11
 11
22.3515
 21
327.324
  0
LINE
  8
0
 10
22.3515
 20
327.324
 11
22.4754
 21
326.564
  0
LINE
  8
0
 10
22.4754
 20
326.564
 11
22.6489
 21
325.831
  0
LINE
  8
0
 10
22.6489
 20
325.831
 11
22.8719
 21
325.124
  0
LINE
  8
0
 10
22.8719
 20
325.124
 11
23.1445
 21
324.443
  0
LINE
  8
0
 10
23.1445
 20
324.443
 11
23.4667
 21
323.789
  0
LINE
  8
0
 10
23.4667
 20
323.789
 11
23.8383
 21
323.161
  0
LINE
  8
0
 10
23.8383
 20
323.161
 11
24.2596
 21
322.559
  0
LINE
  8
0
 10
24.2596
 20
322.559
 11
24.7304
 21
321.984
  0
LINE
  8
0
 10
24.7304
 20
321.984
 11
25.2413
 21
321.45
  0
LINE
  8
0
 10
25.2413
 20
321.45
 11
25.7821
 21
320.972
  0
LINE
  8
0
 10
25.7821
 20
320.972
 11
26.353
 21
320.551
  0
LINE
  8
0
 10
26.353
 20
320.551
 11
26.9539
 21
320.186
  0
LINE
  8
0
 10
26.9539
 20
320.186
 11
27.5849
 21
319.876
  0
LINE
  8
0
 10
27.5849
 20
319.876
 11
28.246
 21
319.624
  0
LINE
  8
0
 10
28.246
 20
319.624
 11
28.937
 21
319.427
  0
LINE
  8
0
 10
28.937
 20
319.427
 11
29.6581
 21
319.286
  0
LINE
  8
0
 10
29.6581
 20
319.286
 11
30.4093
 21
319.202
  0
LINE
  8
0
 10
30.4093
 20
319.202
 11
31.1904
 21
319.174
  0
LINE
  8
0
 10
31.1904
 20
319.174
 11
31.8215
 21
319.186
  0
LINE
  8
0
 10
31.8215
 20
319.186
 11
32.4564
 21
319.223
  0
LINE
  8
0
 10
32.4564
 20
319.223
 11
33.0951
 21
319.283
  0
LINE
  8
0
 10
33.0951
 20
319.283
 11
33.7376
 21
319.369
  0
LINE
  8
0
 10
33.7376
 20
319.369
 11
34.3839
 21
319.478
  0
LINE
  8
0
 10
34.3839
 20
319.478
 11
35.034
 21
319.612
  0
LINE
  8
0
 10
35.034
 20
319.612
 11
35.6879
 21
319.77
  0
LINE
  8
0
 10
35.6879
 20
319.77
 11
36.3456
 21
319.952
  0
LINE
  8
0
 10
36.3456
 20
319.952
 11
37.0071
 21
320.159
  0
LINE
  8
0
 10
37.0071
 20
320.159
 11
37.6724
 21
320.39
  0
LINE
  8
0
 10
37.6724
 20
320.39
 11
38.3164
 21
317.446
  0
LINE
  8
0
 10
38.3164
 20
317.446
 11
37.664
 21
317.166
  0
LINE
  8
0
 10
37.664
 20
317.166
 11
36.9987
 21
316.916
  0
LINE
  8
0
 10
36.9987
 20
316.916
 11
36.3206
 21
316.695
  0
LINE
  8
0
 10
36.3206
 20
316.695
 11
35.6297
 21
316.504
  0
LINE
  8
0
 10
35.6297
 20
316.504
 11
34.9259
 21
316.342
  0
LINE
  8
0
 10
34.9259
 20
316.342
 11
34.2093
 21
316.21
  0
LINE
  8
0
 10
34.2093
 20
316.21
 11
33.4799
 21
316.106
  0
LINE
  8
0
 10
33.4799
 20
316.106
 11
32.7375
 21
316.033
  0
LINE
  8
0
 10
32.7375
 20
316.033
 11
31.9824
 21
315.989
  0
LINE
  8
0
 10
31.9824
 20
315.989
 11
31.2144
 21
315.974
  0
LINE
  8
0
 10
31.2144
 20
315.974
 11
30.0695
 21
316.009
  0
LINE
  8
0
 10
-1.86052
 20
315.988
 11
-2.72475
 21
316.03
  0
LINE
  8
0
 10
-2.72475
 20
316.03
 11
-3.55716
 21
316.101
  0
LINE
  8
0
 10
-3.55716
 20
316.101
 11
-4.35771
 21
316.199
  0
LINE
  8
0
 10
-4.35771
 20
316.199
 11
-5.12643
 21
316.326
  0
LINE
  8
0
 10
-5.12643
 20
316.326
 11
-5.86331
 21
316.481
  0
LINE
  8
0
 10
-5.86331
 20
316.481
 11
-6.56836
 21
316.664
  0
LINE
  8
0
 10
-6.56836
 20
316.664
 11
-7.24155
 21
316.875
  0
LINE
  8
0
 10
-7.24155
 20
316.875
 11
-7.88292
 21
317.114
  0
LINE
  8
0
 10
-7.88292
 20
317.114
 11
-8.49243
 21
317.382
  0
LINE
  8
0
 10
-8.49243
 20
317.382
 11
-7.78044
 21
320.582
  0
LINE
  8
0
 10
-7.78044
 20
320.582
 11
-7.15411
 21
320.302
  0
LINE
  8
0
 10
-7.15411
 20
320.302
 11
-6.51875
 21
320.052
  0
LINE
  8
0
 10
-6.51875
 20
320.052
 11
-5.87436
 21
319.831
  0
LINE
  8
0
 10
-5.87436
 20
319.831
 11
-5.22092
 21
319.64
  0
LINE
  8
0
 10
-5.22092
 20
319.64
 11
-4.55844
 21
319.478
  0
LINE
  8
0
 10
-4.55844
 20
319.478
 11
-3.88692
 21
319.346
  0
LINE
  8
0
 10
-3.88692
 20
319.346
 11
-3.20636
 21
319.242
  0
LINE
  8
0
 10
-3.20636
 20
319.242
 11
-2.51675
 21
319.169
  0
LINE
  8
0
 10
-2.51675
 20
319.169
 11
-1.81812
 21
319.125
  0
LINE
  8
0
 10
-1.81812
 20
319.125
 11
-1.11043
 21
319.11
  0
LINE
  8
0
 10
-1.11043
 20
319.11
 11
-0.504944
 21
319.121
  0
LINE
  8
0
 10
-0.504944
 20
319.121
 11
0.0775146
 21
319.156
  0
LINE
  8
0
 10
0.0775146
 20
319.156
 11
0.636963
 21
319.213
  0
LINE
  8
0
 10
0.636963
 20
319.213
 11
1.17339
 21
319.293
  0
LINE
  8
0
 10
1.17339
 20
319.293
 11
1.6868
 21
319.395
  0
LINE
  8
0
 10
1.6868
 20
319.395
 11
2.17719
 21
319.521
  0
LINE
  8
0
 10
2.17719
 20
319.521
 11
2.64456
 21
319.669
  0
LINE
  8
0
 10
2.64456
 20
319.669
 11
3.08891
 21
319.84
  0
LINE
  8
0
 10
3.08891
 20
319.84
 11
3.51024
 21
320.034
  0
LINE
  8
0
 10
3.51024
 20
320.034
 11
3.90855
 21
320.251
  0
LINE
  8
0
 10
3.90855
 20
320.251
 11
4.2762
 21
320.487
  0
LINE
  8
0
 10
4.2762
 20
320.487
 11
4.60515
 21
320.737
  0
LINE
  8
0
 10
4.60515
 20
320.737
 11
4.8954
 21
321.003
  0
LINE
  8
0
 10
4.8954
 20
321.003
 11
5.14696
 21
321.283
  0
LINE
  8
0
 10
5.14696
 20
321.283
 11
5.3598
 21
321.578
  0
LINE
  8
0
 10
5.3598
 20
321.578
 11
5.53395
 21
321.888
  0
LINE
  8
0
 10
5.53395
 20
321.888
 11
5.6694
 21
322.213
  0
LINE
  8
0
 10
5.6694
 20
322.213
 11
5.76614
 21
322.552
  0
LINE
  8
0
 10
5.76614
 20
322.552
 11
5.8242
 21
322.907
  0
LINE
  8
0
 10
5.8242
 20
322.907
 11
5.84355
 21
323.276
  0
LINE
  8
0
 10
5.84355
 20
323.276
 11
5.83408
 21
323.527
  0
LINE
  8
0
 10
5.83408
 20
323.527
 11
5.80563
 21
323.774
  0
LINE
  8
0
 10
5.80563
 20
323.774
 11
5.75822
 21
324.014
  0
LINE
  8
0
 10
5.75822
 20
324.014
 11
5.69186
 21
324.249
  0
LINE
  8
0
 10
5.69186
 20
324.249
 11
5.60655
 21
324.479
  0
LINE
  8
0
 10
5.60655
 20
324.479
 11
5.50227
 21
324.704
  0
LINE
  8
0
 10
5.50227
 20
324.704
 11
5.37903
 21
324.923
  0
LINE
  8
0
 10
5.37903
 20
324.923
 11
5.23683
 21
325.136
  0
LINE
  8
0
 10
5.23683
 20
325.136
 11
5.07567
 21
325.344
  0
LINE
  8
0
 10
5.07567
 20
325.344
 11
4.89555
 21
325.547
  0
LINE
  8
0
 10
4.89555
 20
325.547
 11
4.67975
 21
325.748
  0
LINE
  8
0
 10
4.67975
 20
325.748
 11
4.41154
 21
325.951
  0
LINE
  8
0
 10
4.41154
 20
325.951
 11
4.09096
 21
326.156
  0
LINE
  8
0
 10
4.09096
 20
326.156
 11
3.71796
 21
326.363
  0
LINE
  8
0
 10
3.71796
 20
326.363
 11
3.29256
 21
326.572
  0
LINE
  8
0
 10
3.29256
 20
326.572
 11
2.81476
 21
326.782
  0
LINE
  8
0
 10
2.81476
 20
326.782
 11
2.28455
 21
326.995
  0
LINE
  8
0
 10
2.28455
 20
326.995
 11
1.70195
 21
327.209
  0
LINE
  8
0
 10
1.70195
 20
327.209
 11
1.06696
 21
327.426
  0
LINE
  8
0
 10
1.06696
 20
327.426
 11
0.379547
 21
327.644
  0
LINE
  8
0
 10
0.379547
 20
327.644
 11
-1.21077
 21
328.133
  0
LINE
  8
0
 10
-1.21077
 20
328.133
 11
-2.90477
 21
328.663
  0
LINE
  8
0
 10
-2.90477
 20
328.663
 11
-3.85544
 21
328.967
  0
LINE
  8
0
 10
-3.85544
 20
328.967
 11
-4.12471
 21
329.059
  0
LINE
  8
0
 10
-4.12471
 20
329.059
 11
-4.39011
 21
329.16
  0
LINE
  8
0
 10
-4.39011
 20
329.16
 11
-4.65166
 21
329.269
  0
LINE
  8
0
 10
-4.65166
 20
329.269
 11
-4.90935
 21
329.386
  0
LINE
  8
0
 10
-4.90935
 20
329.386
 11
-5.16318
 21
329.511
  0
LINE
  8
0
 10
-5.16318
 20
329.511
 11
-5.41315
 21
329.645
  0
LINE
  8
0
 10
-5.41315
 20
329.645
 11
-5.65927
 21
329.786
  0
LINE
  8
0
 10
-5.65927
 20
329.786
 11
-5.90152
 21
329.936
  0
LINE
  8
0
 10
-5.90152
 20
329.936
 11
-6.13991
 21
330.095
  0
LINE
  8
0
 10
-6.13991
 20
330.095
 11
-6.37444
 21
330.261
  0
LINE
  8
0
 10
-6.37444
 20
330.261
 11
-6.60147
 21
330.435
  0
LINE
  8
0
 10
-6.60147
 20
330.435
 11
-6.81735
 21
330.615
  0
LINE
  8
0
 10
-6.81735
 20
330.615
 11
-7.02211
 21
330.803
  0
LINE
  8
0
 10
-7.02211
 20
330.803
 11
-7.21571
 21
330.996
  0
LINE
  8
0
 10
-7.21571
 20
330.996
 11
-7.39818
 21
331.197
  0
LINE
  8
0
 10
-7.39818
 20
331.197
 11
-7.56952
 21
331.404
  0
LINE
  8
0
 10
-7.56952
 20
331.404
 11
-7.72971
 21
331.617
  0
LINE
  8
0
 10
-7.72971
 20
331.617
 11
-7.87875
 21
331.838
  0
LINE
  8
0
 10
-7.87875
 20
331.838
 11
-8.01666
 21
332.064
  0
LINE
  8
0
 10
-8.01666
 20
332.064
 11
-8.14343
 21
332.298
  0
LINE
  8
0
 10
-8.14343
 20
332.298
 11
-8.25838
 21
332.538
  0
LINE
  8
0
 10
-8.25838
 20
332.538
 11
-8.36124
 21
332.783
  0
LINE
  8
0
 10
-8.36124
 20
332.783
 11
-8.45198
 21
333.035
  0
LINE
  8
0
 10
-8.45198
 20
333.035
 11
-8.53064
 21
333.291
  0
LINE
  8
0
 10
-8.53064
 20
333.291
 11
-8.59718
 21
333.554
  0
LINE
  8
0
 10
-8.59718
 20
333.554
 11
-8.65163
 21
333.822
  0
LINE
  8
0
 10
-8.65163
 20
333.822
 11
-8.69398
 21
334.096
  0
LINE
  8
0
 10
-8.69398
 20
334.096
 11
-8.72423
 21
334.376
  0
LINE
  8
0
 10
-8.72423
 20
334.376
 11
-8.74239
 21
334.661
  0
LINE
  8
0
 10
-8.74239
 20
334.661
 11
-8.74843
 21
334.952
  0
LINE
  8
0
 10
-8.74843
 20
334.952
 11
-8.7204
 21
335.579
  0
LINE
  8
0
 10
-8.7204
 20
335.579
 11
-8.63628
 21
336.178
  0
LINE
  8
0
 10
-8.63628
 20
336.178
 11
-8.49608
 21
336.752
  0
LINE
  8
0
 10
-8.49608
 20
336.752
 11
-8.29979
 21
337.299
  0
LINE
  8
0
 10
-8.29979
 20
337.299
 11
-8.04744
 21
337.819
  0
LINE
  8
0
 10
-8.04744
 20
337.819
 11
-7.739
 21
338.313
  0
LINE
  8
0
 10
-7.739
 20
338.313
 11
-7.37448
 21
338.78
  0
LINE
  8
0
 10
-7.37448
 20
338.78
 11
-6.95387
 21
339.22
  0
LINE
  8
0
 10
-6.95387
 20
339.22
 11
-6.47719
 21
339.635
  0
LINE
  8
0
 10
-6.47719
 20
339.635
 11
-5.94443
 21
340.022
  0
LINE
  8
0
 10
-5.94443
 20
340.022
 11
-5.36534
 21
340.378
  0
LINE
  8
0
 10
-5.36534
 20
340.378
 11
-4.74963
 21
340.696
  0
LINE
  8
0
 10
-4.74963
 20
340.696
 11
-4.09734
 21
340.977
  0
LINE
  8
0
 10
-4.09734
 20
340.977
 11
-3.40843
 21
341.22
  0
LINE
  8
0
 10
-3.40843
 20
341.22
 11
-2.68294
 21
341.426
  0
LINE
  8
0
 10
-2.68294
 20
341.426
 11
-1.92084
 21
341.594
  0
LINE
  8
0
 10
-1.92084
 20
341.594
 11
-1.12213
 21
341.725
  0
LINE
  8
0
 10
-1.12213
 20
341.725
 11
-0.286835
 21
341.819
  0
LINE
  8
0
 10
-0.286835
 20
341.819
 11
0.585052
 21
341.875
  0
LINE
  8
0
 10
0.585052
 20
341.875
 11
1.49355
 21
341.894
  0
LINE
  8
0
 10
1.49355
 20
341.894
 11
2.09901
 21
341.884
  0
LINE
  8
0
 10
2.09901
 20
341.884
 11
2.71779
 21
341.853
  0
LINE
  8
0
 10
2.71779
 20
341.853
 11
3.34988
 21
341.802
  0
LINE
  8
0
 10
3.34988
 20
341.802
 11
3.99532
 21
341.73
  0
LINE
  8
0
 10
3.99532
 20
341.73
 11
4.65405
 21
341.638
  0
LINE
  8
0
 10
4.65405
 20
341.638
 11
5.32611
 21
341.525
  0
LINE
  8
0
 10
5.32611
 20
341.525
 11
6.01149
 21
341.392
  0
LINE
  8
0
 10
6.01149
 20
341.392
 11
6.71019
 21
341.239
  0
LINE
  8
0
 10
6.71019
 20
341.239
 11
7.42221
 21
341.065
  0
LINE
  8
0
 10
7.42221
 20
341.065
 11
8.14755
 21
340.87
  0
LINE
  8
0
 10
8.14755
 20
340.87
 11
7.31955
 21
337.734
  0
LINE
  8
0
 10
7.31955
 20
337.734
 11
6.7029
 21
337.929
  0
LINE
  8
0
 10
6.7029
 20
337.929
 11
6.09335
 21
338.103
  0
LINE
  8
0
 10
6.09335
 20
338.103
 11
5.49091
 21
338.256
  0
LINE
  8
0
 10
5.49091
 20
338.256
 11
4.89555
 21
338.389
  0
LINE
  8
0
 10
4.89555
 20
338.389
 11
4.3073
 21
338.502
  0
LINE
  8
0
 10
4.3073
 20
338.502
 11
3.72615
 21
338.594
  0
LINE
  8
0
 10
3.72615
 20
338.594
 11
3.1521
 21
338.666
  0
LINE
  8
0
 10
3.1521
 20
338.666
 11
2.58514
 21
338.717
  0
LINE
  8
0
 10
2.58514
 20
338.717
 11
2.0253
 21
338.748
  0
LINE
  8
0
 10
2.0253
 20
338.748
 11
1.47255
 21
338.758
  0
LINE
  8
0
 10
1.47255
 20
338.758
 11
0.883896
 21
338.748
  0
LINE
  8
0
 10
0.883896
 20
338.748
 11
0.320312
 21
338.718
  0
LINE
  8
0
 10
0.320312
 20
338.718
 11
-0.21817
 21
338.668
  0
LINE
  8
0
 10
-0.21817
 20
338.668
 11
-0.731598
 21
338.598
  0
LINE
  8
0
 10
-0.731598
 20
338.598
 11
-1.21994
 21
338.508
  0
LINE
  8
0
 10
-1.21994
 20
338.508
 11
-1.6832
 21
338.398
  0
LINE
  8
0
 10
-1.6832
 20
338.398
 11
-2.12137
 21
338.268
  0
LINE
  8
0
 10
-2.12137
 20
338.268
 11
-2.53447
 21
338.119
  0
LINE
  8
0
 10
-2.53447
 20
338.119
 11
-2.9225
 21
337.949
  0
LINE
  8
0
 10
-2.9225
 20
337.949
 11
-3.28543
 21
337.759
  0
LINE
  8
0
 10
-3.28543
 20
337.759
 11
-3.61812
 21
337.552
  0
LINE
  8
0
 10
-3.61812
 20
337.552
 11
-3.91579
 21
337.333
  0
LINE
  8
0
 10
-3.91579
 20
337.333
 11
-4.17844
 21
337.099
  0
LINE
  8
0
 10
-4.17844
 20
337.099
 11
-4.40607
 21
336.852
  0
LINE
  8
0
 10
-4.40607
 20
336.852
 11
-4.59868
 21
336.592
  0
LINE
  8
0
 10
-4.59868
 20
336.592
 11
-4.75627
 21
336.319
  0
LINE
  8
0
 10
-4.75627
 20
336.319
 11
-4.87885
 21
336.032
  0
LINE
  8
0
 10
-4.87885
 20
336.032
 11
-4.9664
 21
335.731
  0
LINE
  8
0
 10
-4.9664
 20
335.731
 11
-5.01892
 21
335.417
  0
LINE
  8
0
 10
-5.01892
 20
335.417
 11
-5.03644
 21
335.09
  0
LINE
  8
0
 10
-5.03644
 20
335.09
 11
-5.02841
 21
334.881
  0
LINE
  8
0
 10
-5.02841
 20
334.881
 11
-5.00435
 21
334.678
  0
LINE
  8
0
 10
-5.00435
 20
334.678
 11
-4.96425
 21
334.479
  0
LINE
  8
0
 10
-4.96425
 20
334.479
 11
-4.90811
 21
334.287
  0
LINE
  8
0
 10
-4.90811
 20
334.287
 11
-4.83594
 21
334.1
  0
LINE
  8
0
 10
-4.83594
 20
334.1
 11
-4.74771
 21
333.918
  0
LINE
  8
0
 10
-4.74771
 20
333.918
 11
-4.64345
 21
333.741
  0
LINE
  8
0
 10
-4.64345
 20
333.741
 11
-4.52315
 21
333.57
  0
LINE
  8
0
 10
-4.52315
 20
333.57
 11
-4.38681
 21
333.404
  0
LINE
  8
0
 10
-4.38681
 20
333.404
 11
-4.23444
 21
333.244
  0
LINE
  8
0
 10
-4.23444
 20
333.244
 11
-4.05779
 21
333.088
  0
LINE
  8
0
 10
-4.05779
 20
333.088
 11
-3.84903
 21
332.933
  0
LINE
  8
0
 10
-3.84903
 20
332.933
 11
-3.60818
 21
332.78
  0
LINE
  8
0
 10
-3.60818
 20
332.78
 11
-3.33524
 21
332.63
  0
LINE
  8
0
 10
-3.33524
 20
332.63
 11
-3.03018
 21
332.481
  0
LINE
  8
0
 10
-3.03018
 20
332.481
 11
-2.69304
 21
332.334
  0
LINE
  8
0
 10
-2.69304
 20
332.334
 11
-2.32378
 21
332.189
  0
LINE
  8
0
 10
-2.32378
 20
332.189
 11
-1.92244
 21
332.046
  0
LINE
  8
0
 10
-1.92244
 20
332.046
 11
-1.48898
 21
331.904
  0
LINE
  8
0
 10
-1.48898
 20
331.904
 11
-1.02344
 21
331.765
  0
LINE
  8
0
 10
-1.02344
 20
331.765
 11
2.49455
 21
330.74
  0
LINE
  8
0
 10
2.49455
 20
330.74
 11
2.97206
 21
330.599
  0
LINE
  8
0
 10
2.97206
 20
330.599
 11
3.43179
 21
330.452
  0
LINE
  8
0
 10
3.43179
 20
330.452
 11
3.87373
 21
330.301
  0
LINE
  8
0
 10
3.87373
 20
330.301
 11
4.29791
 21
330.144
  0
LINE
  8
0
 10
4.29791
 20
330.144
 11
4.7043
 21
329.981
  0
LINE
  8
0
 10
4.7043
 20
329.981
 11
5.09291
 21
329.813
  0
LINE
  8
0
 10
5.09291
 20
329.813
 11
5.46375
 21
329.64
  0
LINE
  8
0
 10
5.46375
 20
329.64
 11
5.81679
 21
329.461
  0
LINE
  8
0
 10
5.81679
 20
329.461
 11
6.15205
 21
329.277
  0
LINE
  8
0
 10
6.15205
 20
329.277
 11
6.46954
 21
329.088
  0
LINE
  8
0
 10
6.46954
 20
329.088
 11
6.77043
 21
328.892
  0
LINE
  8
0
 10
6.77043
 20
328.892
 11
7.05588
 21
328.688
  0
LINE
  8
0
 10
7.05588
 20
328.688
 11
7.32587
 21
328.476
  0
LINE
  8
0
 10
7.32587
 20
328.476
 11
7.58043
 21
328.256
  0
LINE
  8
0
 10
7.58043
 20
328.256
 11
7.81955
 21
328.028
  0
LINE
  8
0
 10
7.81955
 20
328.028
 11
8.04323
 21
327.792
  0
LINE
  8
0
 10
8.04323
 20
327.792
 11
8.25146
 21
327.547
  0
LINE
  8
0
 10
8.25146
 20
327.547
 11
8.44427
 21
327.295
  0
LINE
  8
0
 10
8.44427
 20
327.295
 11
8.62163
 21
327.035
  0
LINE
  8
0
 10
8.62163
 20
327.035
 11
8.78355
 21
326.766
  0
LINE
  8
0
 10
8.78355
 20
326.766
 11
8.93024
 21
326.489
  0
LINE
  8
0
 10
8.93024
 20
326.489
 11
9.06148
 21
326.204
  0
LINE
  8
0
 10
9.06148
 20
326.204
 11
9.17728
 21
325.909
  0
LINE
  8
0
 10
9.17728
 20
325.909
 11
9.27763
 21
325.606
  0
LINE
  8
0
 10
9.27763
 20
325.606
 11
9.36255
 21
325.294
  0
LINE
  8
0
 10
9.36255
 20
325.294
 11
9.43204
 21
324.974
  0
LINE
  8
0
 10
9.43204
 20
324.974
 11
9.48607
 21
324.644
  0
LINE
  8
0
 10
9.48607
 20
324.644
 11
9.52467
 21
324.306
  0
LINE
  8
0
 10
9.52467
 20
324.306
 11
9.54784
 21
323.959
  0
LINE
  8
0
 10
9.54784
 20
323.959
 11
9.55556
 21
323.603
  0
LINE
  8
0
 10
9.55556
 20
323.603
 11
9.52586
 21
322.912
  0
LINE
  8
0
 10
9.52586
 20
322.912
 11
9.4368
 21
322.25
  0
LINE
  8
0
 10
9.4368
 20
322.25
 11
9.28835
 21
321.618
  0
LINE
  8
0
 10
9.28835
 20
321.618
 11
9.08051
 21
321.016
  0
LINE
  8
0
 10
9.08051
 20
321.016
 11
8.81329
 21
320.443
  0
LINE
  8
0
 10
8.81329
 20
320.443
 11
8.48671
 21
319.9
  0
LINE
  8
0
 10
8.48671
 20
319.9
 11
8.10074
 21
319.386
  0
LINE
  8
0
 10
8.10074
 20
319.386
 11
7.6554
 21
318.902
  0
LINE
  8
0
 10
7.6554
 20
318.902
 11
7.15067
 21
318.448
  0
LINE
  8
0
 10
7.15067
 20
318.448
 11
6.58655
 21
318.023
  0
LINE
  8
0
 10
6.58655
 20
318.023
 11
5.97681
 21
317.634
  0
LINE
  8
0
 10
5.97681
 20
317.634
 11
5.33475
 21
317.285
  0
LINE
  8
0
 10
5.33475
 20
317.285
 11
4.6604
 21
316.978
  0
LINE
  8
0
 10
4.6604
 20
316.978
 11
3.95375
 21
316.712
  0
LINE
  8
0
 10
3.95375
 20
316.712
 11
3.2148
 21
316.486
  0
LINE
  8
0
 10
3.2148
 20
316.486
 11
2.44356
 21
316.302
  0
LINE
  8
0
 10
2.44356
 20
316.302
 11
1.64
 21
316.158
  0
LINE
  8
0
 10
1.64
 20
316.158
 11
0.804153
 21
316.056
  0
LINE
  8
0
 10
0.804153
 20
316.056
 11
-0.0639801
 21
315.994
  0
LINE
  8
0
 10
-0.0639801
 20
315.994
 11
-0.964432
 21
315.974
  0
LINE
  8
0
 10
-0.964432
 20
315.974
 11
-1.86052
 21
315.988
  0
LINE
  8
0
 10
-37.6373
 20
316.55
 11
-37.6373
 21
341.318
  0
LINE
  8
0
 10
-37.6373
 20
341.318
 11
-33.9253
 21
341.318
  0
LINE
  8
0
 10
-33.9253
 20
341.318
 11
-33.9253
 21
337.67
  0
LINE
  8
0
 10
-33.9253
 20
337.67
 11
-33.1234
 21
338.473
  0
LINE
  8
0
 10
-33.1234
 20
338.473
 11
-32.313
 21
339.191
  0
LINE
  8
0
 10
-32.313
 20
339.191
 11
-31.494
 21
339.824
  0
LINE
  8
0
 10
-31.494
 20
339.824
 11
-30.6664
 21
340.373
  0
LINE
  8
0
 10
-30.6664
 20
340.373
 11
-29.8303
 21
340.838
  0
LINE
  8
0
 10
-29.8303
 20
340.838
 11
-28.9856
 21
341.218
  0
LINE
  8
0
 10
-28.9856
 20
341.218
 11
-28.1324
 21
341.514
  0
LINE
  8
0
 10
-28.1324
 20
341.514
 11
-27.2706
 21
341.725
  0
LINE
  8
0
 10
-27.2706
 20
341.725
 11
-26.4002
 21
341.852
  0
LINE
  8
0
 10
-26.4002
 20
341.852
 11
-25.5213
 21
341.894
  0
LINE
  8
0
 10
-25.5213
 20
341.894
 11
-24.1997
 21
341.81
  0
LINE
  8
0
 10
-24.1997
 20
341.81
 11
-23.0172
 21
341.558
  0
LINE
  8
0
 10
-23.0172
 20
341.558
 11
-21.9738
 21
341.137
  0
LINE
  8
0
 10
-21.9738
 20
341.137
 11
-21.0695
 21
340.549
  0
LINE
  8
0
 10
-21.0695
 20
340.549
 11
-20.3043
 21
339.792
  0
LINE
  8
0
 10
-20.3043
 20
339.792
 11
-19.6783
 21
338.867
  0
LINE
  8
0
 10
-19.6783
 20
338.867
 11
-19.1914
 21
337.774
  0
LINE
  8
0
 10
-19.1914
 20
337.774
 11
-18.8436
 21
336.513
  0
LINE
  8
0
 10
-18.8436
 20
336.513
 11
-18.6349
 21
335.084
  0
LINE
  8
0
 10
-18.6349
 20
335.084
 11
-18.5653
 21
333.486
  0
LINE
  8
0
 10
-18.5653
 20
333.486
 11
-18.5653
 21
316.55
  0
LINE
  8
0
 10
-18.5653
 20
316.55
 11
-22.2773
 21
316.55
  0
LINE
  8
0
 10
-22.2773
 20
316.55
 11
-22.2773
 21
332.421
  0
LINE
  8
0
 10
-22.2773
 20
332.421
 11
-22.2879
 21
333.063
  0
LINE
  8
0
 10
-22.2879
 20
333.063
 11
-22.3195
 21
333.669
  0
LINE
  8
0
 10
-22.3195
 20
333.669
 11
-22.3724
 21
334.239
  0
LINE
  8
0
 10
-22.3724
 20
334.239
 11
-22.4463
 21
334.773
  0
LINE
  8
0
 10
-22.4463
 20
334.773
 11
-22.5413
 21
335.27
  0
LINE
  8
0
 10
-22.5413
 20
335.27
 11
-22.6575
 21
335.73
  0
LINE
  8
0
 10
-22.6575
 20
335.73
 11
-22.7948
 21
336.154
  0
LINE
  8
0
 10
-22.7948
 20
336.154
 11
-22.9532
 21
336.542
  0
LINE
  8
0
 10
-22.9532
 20
336.542
 11
-23.1327
 21
336.894
  0
LINE
  8
0
 10
-23.1327
 20
336.894
 11
-23.3333
 21
337.209
  0
LINE
  8
0
 10
-23.3333
 20
337.209
 11
-23.5563
 21
337.491
  0
LINE
  8
0
 10
-23.5563
 20
337.491
 11
-23.8033
 21
337.744
  0
LINE
  8
0
 10
-23.8033
 20
337.744
 11
-24.0742
 21
337.966
  0
LINE
  8
0
 10
-24.0742
 20
337.966
 11
-24.3692
 21
338.159
  0
LINE
  8
0
 10
-24.3692
 20
338.159
 11
-24.6881
 21
338.323
  0
LINE
  8
0
 10
-24.6881
 20
338.323
 11
-25.031
 21
338.456
  0
LINE
  8
0
 10
-25.031
 20
338.456
 11
-25.3978
 21
338.56
  0
LINE
  8
0
 10
-25.3978
 20
338.56
 11
-25.7887
 21
338.635
  0
LINE
  8
0
 10
-25.7887
 20
338.635
 11
-26.2035
 21
338.679
  0
LINE
  8
0
 10
-26.2035
 20
338.679
 11
-26.6423
 21
338.694
  0
LINE
  8
0
 10
-26.6423
 20
338.694
 11
-27.3257
 21
338.652
  0
LINE
  8
0
 10
-27.3257
 20
338.652
 11
-28.0191
 21
338.525
  0
LINE
  8
0
 10
-28.0191
 20
338.525
 11
-28.7224
 21
338.314
  0
LINE
  8
0
 10
-28.7224
 20
338.314
 11
-29.4358
 21
338.018
  0
LINE
  8
0
 10
-29.4358
 20
338.018
 11
-30.1591
 21
337.638
  0
LINE
  8
0
 10
-30.1591
 20
337.638
 11
-30.8923
 21
337.173
  0
LINE
  8
0
 10
-30.8923
 20
337.173
 11
-31.6356
 21
336.624
  0
LINE
  8
0
 10
-31.6356
 20
336.624
 11
-32.3889
 21
335.991
  0
LINE
  8
0
 10
-32.3889
 20
335.991
 11
-33.1521
 21
335.273
  0
LINE
  8
0
 10
-33.1521
 20
335.273
 11
-33.9253
 21
334.47
  0
LINE
  8
0
 10
-33.9253
 20
334.47
 11
-33.9253
 21
316.55
  0
LINE
  8
0
 10
-33.9253
 20
316.55
 11
-37.6373
 21
316.55
  0
LINE
  8
0
 10
-66.1422
 20
316.55
 11
-66.1422
 21
341.318
  0
LINE
  8
0
 10
-66.1422
 20
341.318
 11
-62.4302
 21
341.318
  0
LINE
  8
0
 10
-62.4302
 20
341.318
 11
-62.4302
 21
337.67
  0
LINE
  8
0
 10
-62.4302
 20
337.67
 11
-61.6283
 21
338.473
  0
LINE
  8
0
 10
-61.6283
 20
338.473
 11
-60.8179
 21
339.191
  0
LINE
  8
0
 10
-60.8179
 20
339.191
 11
-59.9989
 21
339.824
  0
LINE
  8
0
 10
-59.9989
 20
339.824
 11
-59.1713
 21
340.373
  0
LINE
  8
0
 10
-59.1713
 20
340.373
 11
-58.3352
 21
340.838
  0
LINE
  8
0
 10
-58.3352
 20
340.838
 11
-57.4905
 21
341.218
  0
LINE
  8
0
 10
-57.4905
 20
341.218
 11
-56.6373
 21
341.514
  0
LINE
  8
0
 10
-56.6373
 20
341.514
 11
-55.7755
 21
341.725
  0
LINE
  8
0
 10
-55.7755
 20
341.725
 11
-54.9051
 21
341.852
  0
LINE
  8
0
 10
-54.9051
 20
341.852
 11
-54.0262
 21
341.894
  0
LINE
  8
0
 10
-54.0262
 20
341.894
 11
-52.7046
 21
341.81
  0
LINE
  8
0
 10
-52.7046
 20
341.81
 11
-51.522
 21
341.558
  0
LINE
  8
0
 10
-51.522
 20
341.558
 11
-50.4786
 21
341.137
  0
LINE
  8
0
 10
-50.4786
 20
341.137
 11
-49.5744
 21
340.549
  0
LINE
  8
0
 10
-49.5744
 20
340.549
 11
-48.8092
 21
339.792
  0
LINE
  8
0
 10
-48.8092
 20
339.792
 11
-48.1832
 21
338.867
  0
LINE
  8
0
 10
-48.1832
 20
338.867
 11
-47.6962
 21
337.774
  0
LINE
  8
0
 10
-47.6962
 20
337.774
 11
-47.3484
 21
336.513
  0
LINE
  8
0
 10
-47.3484
 20
336.513
 11
-47.1398
 21
335.084
  0
LINE
  8
0
 10
-47.1398
 20
335.084
 11
-47.0702
 21
333.486
  0
LINE
  8
0
 10
-47.0702
 20
333.486
 11
-47.0702
 21
316.55
  0
LINE
  8
0
 10
-47.0702
 20
316.55
 11
-50.7822
 21
316.55
  0
LINE
  8
0
 10
-50.7822
 20
316.55
 11
-50.7822
 21
332.421
  0
LINE
  8
0
 10
-50.7822
 20
332.421
 11
-50.7928
 21
333.063
  0
LINE
  8
0
 10
-50.7928
 20
333.063
 11
-50.8244
 21
333.669
  0
LINE
  8
0
 10
-50.8244
 20
333.669
 11
-50.8772
 21
334.239
  0
LINE
  8
0
 10
-50.8772
 20
334.239
 11
-50.9512
 21
334.773
  0
LINE
  8
0
 10
-50.9512
 20
334.773
 11
-51.0462
 21
335.27
  0
LINE
  8
0
 10
-51.0462
 20
335.27
 11
-51.1624
 21
335.73
  0
LINE
  8
0
 10
-51.1624
 20
335.73
 11
-51.2996
 21
336.154
  0
LINE
  8
0
 10
-51.2996
 20
336.154
 11
-51.458
 21
336.542
  0
LINE
  8
0
 10
-51.458
 20
336.542
 11
-51.6376
 21
336.894
  0
LINE
  8
0
 10
-51.6376
 20
336.894
 11
-51.8382
 21
337.209
  0
LINE
  8
0
 10
-51.8382
 20
337.209
 11
-52.0612
 21
337.491
  0
LINE
  8
0
 10
-52.0612
 20
337.491
 11
-52.3082
 21
337.744
  0
LINE
  8
0
 10
-52.3082
 20
337.744
 11
-52.5791
 21
337.966
  0
LINE
  8
0
 10
-52.5791
 20
337.966
 11
-52.874
 21
338.159
  0
LINE
  8
0
 10
-52.874
 20
338.159
 11
-53.1929
 21
338.323
  0
LINE
  8
0
 10
-53.1929
 20
338.323
 11
-53.5358
 21
338.456
  0
LINE
  8
0
 10
-53.5358
 20
338.456
 11
-53.9027
 21
338.56
  0
LINE
  8
0
 10
-53.9027
 20
338.56
 11
-54.2936
 21
338.635
  0
LINE
  8
0
 10
-54.2936
 20
338.635
 11
-54.7084
 21
338.679
  0
LINE
  8
0
 10
-54.7084
 20
338.679
 11
-55.1472
 21
338.694
  0
LINE
  8
0
 10
-55.1472
 20
338.694
 11
-55.8306
 21
338.652
  0
LINE
  8
0
 10
-55.8306
 20
338.652
 11
-56.524
 21
338.525
  0
LINE
  8
0
 10
-56.524
 20
338.525
 11
-57.2273
 21
338.314
  0
LINE
  8
0
 10
-57.2273
 20
338.314
 11
-57.9406
 21
338.018
  0
LINE
  8
0
 10
-57.9406
 20
338.018
 11
-58.664
 21
337.638
  0
LINE
  8
0
 10
-58.664
 20
337.638
 11
-59.3972
 21
337.173
  0
LINE
  8
0
 10
-59.3972
 20
337.173
 11
-60.1405
 21
336.624
  0
LINE
  8
0
 10
-60.1405
 20
336.624
 11
-60.8938
 21
335.991
  0
LINE
  8
0
 10
-60.8938
 20
335.991
 11
-61.657
 21
335.273
  0
LINE
  8
0
 10
-61.657
 20
335.273
 11
-62.4302
 21
334.47
  0
LINE
  8
0
 10
-62.4302
 20
334.47
 11
-62.4302
 21
316.55
  0
LINE
  8
0
 10
-62.4302
 20
316.55
 11
-66.1422
 21
316.55
  0
LINE
  8
0
 10
120.213
 20
329.061
 11
119.779
 21
329.296
  0
LINE
  8
0
 10
119.779
 20
329.296
 11
119.444
 21
329.66
  0
LINE
  8
0
 10
119.444
 20
329.66
 11
119.246
 21
330.112
  0
LINE
  8
0
 10
119.246
 20
330.112
 11
119.205
 21
330.604
  0
LINE
  8
0
 10
119.205
 20
330.604
 11
119.326
 21
331.083
  0
LINE
  8
0
 10
119.326
 20
331.083
 11
119.596
 21
331.496
  0
LINE
  8
0
 10
119.596
 20
331.496
 11
119.986
 21
331.799
  0
LINE
  8
0
 10
119.986
 20
331.799
 11
120.453
 21
331.96
  0
LINE
  8
0
 10
120.453
 20
331.96
 11
120.947
 21
331.96
  0
LINE
  8
0
 10
120.947
 20
331.96
 11
121.414
 21
331.799
  0
LINE
  8
0
 10
121.414
 20
331.799
 11
121.804
 21
331.496
  0
LINE
  8
0
 10
121.804
 20
331.496
 11
122.074
 21
331.083
  0
LINE
  8
0
 10
122.074
 20
331.083
 11
122.195
 21
330.604
  0
LINE
  8
0
 10
122.195
 20
330.604
 11
122.154
 21
330.112
  0
LINE
  8
0
 10
122.154
 20
330.112
 11
121.956
 21
329.66
  0
LINE
  8
0
 10
121.956
 20
329.66
 11
121.621
 21
329.296
  0
LINE
  8
0
 10
121.621
 20
329.296
 11
121.187
 21
329.061
  0
LINE
  8
0
 10
121.187
 20
329.061
 11
120.7
 21
328.98
  0
LINE
  8
0
 10
120.7
 20
328.98
 11
120.213
 21
329.061
  0
LINE
  8
0
 10
-170.237
 20
329.061
 11
-170.671
 21
329.296
  0
LINE
  8
0
 10
-170.671
 20
329.296
 11
-171.006
 21
329.66
  0
LINE
  8
0
 10
-171.006
 20
329.66
 11
-171.204
 21
330.112
  0
LINE
  8
0
 10
-171.204
 20
330.112
 11
-171.245
 21
330.604
  0
LINE
  8
0
 10
-171.245
 20
330.604
 11
-171.124
 21
331.083
  0
LINE
  8
0
 10
-171.124
 20
331.083
 11
-170.854
 21
331.496
  0
LINE
  8
0
 10
-170.854
 20
331.496
 11
-170.464
 21
331.799
  0
LINE
  8
0
 10
-170.464
 20
331.799
 11
-169.997
 21
331.96
  0
LINE
  8
0
 10
-169.997
 20
331.96
 11
-169.503
 21
331.96
  0
LINE
  8
0
 10
-169.503
 20
331.96
 11
-169.036
 21
331.799
  0
LINE
  8
0
 10
-169.036
 20
331.799
 11
-168.646
 21
331.496
  0
LINE
  8
0
 10
-168.646
 20
331.496
 11
-168.376
 21
331.083
  0
LINE
  8
0
 10
-168.376
 20
331.083
 11
-168.255
 21
330.604
  0
LINE
  8
0
 10
-168.255
 20
330.604
 11
-168.296
 21
330.112
  0
LINE
  8
0
 10
-168.296
 20
330.112
 11
-168.494
 21
329.66
  0
LINE
  8
0
 10
-168.494
 20
329.66
 11
-168.829
 21
329.296
  0
LINE
  8
0
 10
-168.829
 20
329.296
 11
-169.263
 21
329.061
  0
LINE
  8
0
 10
-169.263
 20
329.061
 11
-169.75
 21
328.98
  0
LINE
  8
0
 10
-169.75
 20
328.98
 11
-170.237
 21
329.061
  0
LINE
  8
0
 10
120.213
 20
323.261
 11
119.779
 21
323.496
  0
LINE
  8
0
 10
119.779
 20
323.496
 11
119.444
 21
323.86
  0
LINE
  8
0
 10
119.444
 20
323.86
 11
119.246
 21
324.312
  0
LINE
  8
0
 10
119.246
 20
324.312
 11
119.205
 21
324.804
  0
LINE
  8
0
 10
119.205
 20
324.804
 11
119.326
 21
325.283
  0
LINE
  8
0
 10
119.326
 20
325.283
 11
119.596
 21
325.696
  0
LINE
  8
0
 10
119.596
 20
325.696
 11
119.986
 21
325.999
  0
LINE
  8
0
 10
119.986
 20
325.999
 11
120.453
 21
326.16
  0
LINE
  8
0
 10
120.453
 20
326.16
 11
120.947
 21
326.16
  0
LINE
  8
0
 10
120.947
 20
326.16
 11
121.414
 21
325.999
  0
LINE
  8
0
 10
121.414
 20
325.999
 11
121.804
 21
325.696
  0
LINE
  8
0
 10
121.804
 20
325.696
 11
122.074
 21
325.283
  0
LINE
  8
0
 10
122.074
 20
325.283
 11
122.195
 21
324.804
  0
LINE
  8
0
 10
122.195
 20
324.804
 11
122.154
 21
324.312
  0
LINE
  8
0
 10
122.154
 20
324.312
 11
121.956
 21
323.86
  0
LINE
  8
0
 10
121.956
 20
323.86
 11
121.621
 21
323.496
  0
LINE
  8
0
 10
121.621
 20
323.496
 11
121.187
 21
323.261
  0
LINE
  8
0
 10
121.187
 20
323.261
 11
120.7
 21
323.18
  0
LINE
  8
0
 10
120.7
 20
323.18
 11
120.213
 21
323.261
  0
LINE
  8
0
 10
-170.237
 20
323.261
 11
-170.671
 21
323.496
  0
LINE
  8
0
 10
-170.671
 20
323.496
 11
-171.006
 21
323.86
  0
LINE
  8
0
 10
-171.006
 20
323.86
 11
-171.204
 21
324.312
  0
LINE
  8
0
 10
-171.204
 20
324.312
 11
-171.245
 21
324.804
  0
LINE
  8
0
 10
-171.245
 20
324.804
 11
-171.124
 21
325.283
  0
LINE
  8
0
 10
-171.124
 20
325.283
 11
-170.854
 21
325.696
  0
LINE
  8
0
 10
-170.854
 20
325.696
 11
-170.464
 21
325.999
  0
LINE
  8
0
 10
-170.464
 20
325.999
 11
-169.997
 21
326.16
  0
LINE
  8
0
 10
-169.997
 20
326.16
 11
-169.503
 21
326.16
  0
LINE
  8
0
 10
-169.503
 20
326.16
 11
-169.036
 21
325.999
  0
LINE
  8
0
 10
-169.036
 20
325.999
 11
-168.646
 21
325.696
  0
LINE
  8
0
 10
-168.646
 20
325.696
 11
-168.376
 21
325.283
  0
LINE
  8
0
 10
-168.376
 20
325.283
 11
-168.255
 21
324.804
  0
LINE
  8
0
 10
-168.255
 20
324.804
 11
-168.296
 21
324.312
  0
LINE
  8
0
 10
-168.296
 20
324.312
 11
-168.494
 21
323.86
  0
LINE
  8
0
 10
-168.494
 20
323.86
 11
-168.829
 21
323.496
  0
LINE
  8
0
 10
-168.829
 20
323.496
 11
-169.263
 21
323.261
  0
LINE
  8
0
 10
-169.263
 20
323.261
 11
-169.75
 21
323.18
  0
LINE
  8
0
 10
-169.75
 20
323.18
 11
-170.237
 21
323.261
  0
LINE
  8
0
 10
125.453
 20
317.8
 11
124.986
 21
317.961
  0
LINE
  8
0
 10
124.986
 20
317.961
 11
124.596
 21
318.264
  0
LINE
  8
0
 10
124.596
 20
318.264
 11
124.326
 21
318.677
  0
LINE
  8
0
 10
124.326
 20
318.677
 11
124.205
 21
319.156
  0
LINE
  8
0
 10
124.205
 20
319.156
 11
124.246
 21
319.648
  0
LINE
  8
0
 10
124.246
 20
319.648
 11
124.444
 21
320.1
  0
LINE
  8
0
 10
124.444
 20
320.1
 11
124.779
 21
320.464
  0
LINE
  8
0
 10
124.779
 20
320.464
 11
125.213
 21
320.699
  0
LINE
  8
0
 10
125.213
 20
320.699
 11
125.7
 21
320.78
  0
LINE
  8
0
 10
125.7
 20
320.78
 11
126.187
 21
320.699
  0
LINE
  8
0
 10
126.187
 20
320.699
 11
126.621
 21
320.464
  0
LINE
  8
0
 10
126.621
 20
320.464
 11
126.956
 21
320.1
  0
LINE
  8
0
 10
126.956
 20
320.1
 11
127.154
 21
319.648
  0
LINE
  8
0
 10
127.154
 20
319.648
 11
127.195
 21
319.156
  0
LINE
  8
0
 10
127.195
 20
319.156
 11
127.074
 21
318.677
  0
LINE
  8
0
 10
127.074
 20
318.677
 11
126.804
 21
318.264
  0
LINE
  8
0
 10
126.804
 20
318.264
 11
126.414
 21
317.961
  0
LINE
  8
0
 10
126.414
 20
317.961
 11
125.947
 21
317.8
  0
LINE
  8
0
 10
125.947
 20
317.8
 11
125.453
 21
317.8
  0
LINE
  8
0
 10
-164.997
 20
317.8
 11
-165.464
 21
317.961
  0
LINE
  8
0
 10
-165.464
 20
317.961
 11
-165.854
 21
318.264
  0
LINE
  8
0
 10
-165.854
 20
318.264
 11
-166.124
 21
318.677
  0
LINE
  8
0
 10
-166.124
 20
318.677
 11
-166.245
 21
319.156
  0
LINE
  8
0
 10
-166.245
 20
319.156
 11
-166.204
 21
319.648
  0
LINE
  8
0
 10
-166.204
 20
319.648
 11
-166.006
 21
320.1
  0
LINE
  8
0
 10
-166.006
 20
320.1
 11
-165.671
 21
320.464
  0
LINE
  8
0
 10
-165.671
 20
320.464
 11
-165.237
 21
320.699
  0
LINE
  8
0
 10
-165.237
 20
320.699
 11
-164.75
 21
320.78
  0
LINE
  8
0
 10
-164.75
 20
320.78
 11
-164.263
 21
320.699
  0
LINE
  8
0
 10
-164.263
 20
320.699
 11
-163.829
 21
320.464
  0
LINE
  8
0
 10
-163.829
 20
320.464
 11
-163.494
 21
320.1
  0
LINE
  8
0
 10
-163.494
 20
320.1
 11
-163.296
 21
319.648
  0
LINE
  8
0
 10
-163.296
 20
319.648
 11
-163.255
 21
319.156
  0
LINE
  8
0
 10
-163.255
 20
319.156
 11
-163.376
 21
318.677
  0
LINE
  8
0
 10
-163.376
 20
318.677
 11
-163.646
 21
318.264
  0
LINE
  8
0
 10
-163.646
 20
318.264
 11
-164.036
 21
317.961
  0
LINE
  8
0
 10
-164.036
 20
317.961
 11
-164.503
 21
317.8
  0
LINE
  8
0
 10
-164.503
 20
317.8
 11
-164.997
 21
317.8
  0
LINE
  8
0
 10
125.453
 20
310.6
 11
124.986
 21
310.761
  0
LINE
  8
0
 10
124.986
 20
310.761
 11
124.596
 21
311.064
  0
LINE
  8
0
 10
124.596
 20
311.064
 11
124.326
 21
311.477
  0
LINE
  8
0
 10
124.326
 20
311.477
 11
124.205
 21
311.956
  0
LINE
  8
0
 10
124.205
 20
311.956
 11
124.246
 21
312.448
  0
LINE
  8
0
 10
124.246
 20
312.448
 11
124.444
 21
312.9
  0
LINE
  8
0
 10
124.444
 20
312.9
 11
124.779
 21
313.264
  0
LINE
  8
0
 10
124.779
 20
313.264
 11
125.213
 21
313.499
  0
LINE
  8
0
 10
125.213
 20
313.499
 11
125.7
 21
313.58
  0
LINE
  8
0
 10
125.7
 20
313.58
 11
126.187
 21
313.499
  0
LINE
  8
0
 10
126.187
 20
313.499
 11
126.621
 21
313.264
  0
LINE
  8
0
 10
126.621
 20
313.264
 11
126.956
 21
312.9
  0
LINE
  8
0
 10
126.956
 20
312.9
 11
127.154
 21
312.448
  0
LINE
  8
0
 10
127.154
 20
312.448
 11
127.195
 21
311.956
  0
LINE
  8
0
 10
127.195
 20
311.956
 11
127.074
 21
311.477
  0
LINE
  8
0
 10
127.074
 20
311.477
 11
126.804
 21
311.064
  0
LINE
  8
0
 10
126.804
 20
311.064
 11
126.414
 21
310.761
  0
LINE
  8
0
 10
126.414
 20
310.761
 11
125.947
 21
310.6
  0
LINE
  8
0
 10
125.947
 20
310.6
 11
125.453
 21
310.6
  0
LINE
  8
0
 10
-164.997
 20
310.6
 11
-165.464
 21
310.761
  0
LINE
  8
0
 10
-165.464
 20
310.761
 11
-165.854
 21
311.064
  0
LINE
  8
0
 10
-165.854
 20
311.064
 11
-166.124
 21
311.477
  0
LINE
  8
0
 10
-166.124
 20
311.477
 11
-166.245
 21
311.956
  0
LINE
  8
0
 10
-166.245
 20
311.956
 11
-166.204
 21
312.448
  0
LINE
  8
0
 10
-166.204
 20
312.448
 11
-166.006
 21
312.9
  0
LINE
  8
0
 10
-166.006
 20
312.9
 11
-165.671
 21
313.264
  0
LINE
  8
0
 10
-165.671
 20
313.264
 11
-165.237
 21
313.499
  0
LINE
  8
0
 10
-165.237
 20
313.499
 11
-164.75
 21
313.58
  0
LINE
  8
0
 10
-164.75
 20
313.58
 11
-164.263
 21
313.499
  0
LINE
  8
0
 10
-164.263
 20
313.499
 11
-163.829
 21
313.264
  0
LINE
  8
0
 10
-163.829
 20
313.264
 11
-163.494
 21
312.9
  0
LINE
  8
0
 10
-163.494
 20
312.9
 11
-163.296
 21
312.448
  0
LINE
  8
0
 10
-163.296
 20
312.448
 11
-163.255
 21
311.956
  0
LINE
  8
0
 10
-163.255
 20
311.956
 11
-163.376
 21
311.477
  0
LINE
  8
0
 10
-163.376
 20
311.477
 11
-163.646
 21
311.064
  0
LINE
  8
0
 10
-163.646
 20
311.064
 11
-164.036
 21
310.761
  0
LINE
  8
0
 10
-164.036
 20
310.761
 11
-164.503
 21
310.6
  0
LINE
  8
0
 10
-164.503
 20
310.6
 11
-164.997
 21
310.6
  0
LINE
  8
0
 10
-229.24
 20
149.355
 11
-229.705
 21
149.518
  0
LINE
  8
0
 10
-229.705
 20
149.518
 11
-230.122
 21
149.78
  0
LINE
  8
0
 10
-230.122
 20
149.78
 11
-230.47
 21
150.128
  0
LINE
  8
0
 10
-230.47
 20
150.128
 11
-230.732
 21
150.545
  0
LINE
  8
0
 10
-230.732
 20
150.545
 11
-230.895
 21
151.01
  0
LINE
  8
0
 10
-230.895
 20
151.01
 11
-230.95
 21
151.5
  0
LINE
  8
0
 10
-230.95
 20
151.5
 11
-230.895
 21
151.99
  0
LINE
  8
0
 10
-230.895
 20
151.99
 11
-230.732
 21
152.455
  0
LINE
  8
0
 10
-230.732
 20
152.455
 11
-230.47
 21
152.872
  0
LINE
  8
0
 10
-230.47
 20
152.872
 11
-230.122
 21
153.22
  0
LINE
  8
0
 10
-230.122
 20
153.22
 11
-229.705
 21
153.482
  0
LINE
  8
0
 10
-229.705
 20
153.482
 11
-229.24
 21
153.645
  0
LINE
  8
0
 10
-229.24
 20
153.645
 11
-228.75
 21
153.7
  0
LINE
  8
0
 10
-228.75
 20
153.7
 11
-228.26
 21
153.645
  0
LINE
  8
0
 10
-228.26
 20
153.645
 11
-227.795
 21
153.482
  0
LINE
  8
0
 10
-227.795
 20
153.482
 11
-227.378
 21
153.22
  0
LINE
  8
0
 10
-227.378
 20
153.22
 11
-227.03
 21
152.872
  0
LINE
  8
0
 10
-227.03
 20
152.872
 11
-226.768
 21
152.455
  0
LINE
  8
0
 10
-226.768
 20
152.455
 11
-226.605
 21
151.99
  0
LINE
  8
0
 10
-226.605
 20
151.99
 11
-226.55
 21
151.5
  0
LINE
  8
0
 10
-226.55
 20
151.5
 11
-226.605
 21
151.01
  0
LINE
  8
0
 10
-226.605
 20
151.01
 11
-226.768
 21
150.545
  0
LINE
  8
0
 10
-226.768
 20
150.545
 11
-227.03
 21
150.128
  0
LINE
  8
0
 10
-227.03
 20
150.128
 11
-227.378
 21
149.78
  0
LINE
  8
0
 10
-227.378
 20
149.78
 11
-227.795
 21
149.518
  0
LINE
  8
0
 10
-227.795
 20
149.518
 11
-228.26
 21
149.355
  0
LINE
  8
0
 10
-228.26
 20
149.355
 11
-228.75
 21
149.3
  0
LINE
  8
0
 10
-228.75
 20
149.3
 11
-229.24
 21
149.355
  0
LINE
  8
0
 10
-229.24
 20
107.955
 11
-229.705
 21
108.118
  0
LINE
  8
0
 10
-229.705
 20
108.118
 11
-230.122
 21
108.38
  0
LINE
  8
0
 10
-230.122
 20
108.38
 11
-230.47
 21
108.728
  0
LINE
  8
0
 10
-230.47
 20
108.728
 11
-230.732
 21
109.145
  0
LINE
  8
0
 10
-230.732
 20
109.145
 11
-230.895
 21
109.61
  0
LINE
  8
0
 10
-230.895
 20
109.61
 11
-230.95
 21
110.1
  0
LINE
  8
0
 10
-230.95
 20
110.1
 11
-230.895
 21
110.59
  0
LINE
  8
0
 10
-230.895
 20
110.59
 11
-230.732
 21
111.055
  0
LINE
  8
0
 10
-230.732
 20
111.055
 11
-230.47
 21
111.472
  0
LINE
  8
0
 10
-230.47
 20
111.472
 11
-230.122
 21
111.82
  0
LINE
  8
0
 10
-230.122
 20
111.82
 11
-229.705
 21
112.082
  0
LINE
  8
0
 10
-229.705
 20
112.082
 11
-229.24
 21
112.245
  0
LINE
  8
0
 10
-229.24
 20
112.245
 11
-228.75
 21
112.3
  0
LINE
  8
0
 10
-228.75
 20
112.3
 11
-228.26
 21
112.245
  0
LINE
  8
0
 10
-228.26
 20
112.245
 11
-227.795
 21
112.082
  0
LINE
  8
0
 10
-227.795
 20
112.082
 11
-227.378
 21
111.82
  0
LINE
  8
0
 10
-227.378
 20
111.82
 11
-227.03
 21
111.472
  0
LINE
  8
0
 10
-227.03
 20
111.472
 11
-226.768
 21
111.055
  0
LINE
  8
0
 10
-226.768
 20
111.055
 11
-226.605
 21
110.59
  0
LINE
  8
0
 10
-226.605
 20
110.59
 11
-226.55
 21
110.1
  0
LINE
  8
0
 10
-226.55
 20
110.1
 11
-226.605
 21
109.61
  0
LINE
  8
0
 10
-226.605
 20
109.61
 11
-226.768
 21
109.145
  0
LINE
  8
0
 10
-226.768
 20
109.145
 11
-227.03
 21
108.728
  0
LINE
  8
0
 10
-227.03
 20
108.728
 11
-227.378
 21
108.38
  0
LINE
  8
0
 10
-227.378
 20
108.38
 11
-227.795
 21
108.118
  0
LINE
  8
0
 10
-227.795
 20
108.118
 11
-228.26
 21
107.955
  0
LINE
  8
0
 10
-228.26
 20
107.955
 11
-228.75
 21
107.9
  0
LINE
  8
0
 10
-228.75
 20
107.9
 11
-229.24
 21
107.955
  0
LINE
  8
0
 10
-203.991
 20
71.0146
 11
-204.459
 21
71.13
  0
LINE
  8
0
 10
-204.459
 20
71.13
 11
-204.886
 21
71.354
  0
LINE
  8
0
 10
-204.886
 20
71.354
 11
-205.247
 21
71.6738
  0
LINE
  8
0
 10
-205.247
 20
71.6738
 11
-205.521
 21
72.0705
  0
LINE
  8
0
 10
-205.521
 20
72.0705
 11
-205.692
 21
72.5214
  0
LINE
  8
0
 10
-205.692
 20
72.5214
 11
-205.75
 21
73
  0
LINE
  8
0
 10
-205.75
 20
73
 11
-205.692
 21
73.4786
  0
LINE
  8
0
 10
-205.692
 20
73.4786
 11
-205.521
 21
73.9294
  0
LINE
  8
0
 10
-205.521
 20
73.9294
 11
-205.247
 21
74.3262
  0
LINE
  8
0
 10
-205.247
 20
74.3262
 11
-204.886
 21
74.646
  0
LINE
  8
0
 10
-204.886
 20
74.646
 11
-204.459
 21
74.87
  0
LINE
  8
0
 10
-204.459
 20
74.87
 11
-203.991
 21
74.9854
  0
LINE
  8
0
 10
-203.991
 20
74.9854
 11
-203.509
 21
74.9854
  0
LINE
  8
0
 10
-203.509
 20
74.9854
 11
-203.041
 21
74.87
  0
LINE
  8
0
 10
-203.041
 20
74.87
 11
-202.614
 21
74.646
  0
LINE
  8
0
 10
-202.614
 20
74.646
 11
-202.253
 21
74.3262
  0
LINE
  8
0
 10
-202.253
 20
74.3262
 11
-201.979
 21
73.9294
  0
LINE
  8
0
 10
-201.979
 20
73.9294
 11
-201.808
 21
73.4786
  0
LINE
  8
0
 10
-201.808
 20
73.4786
 11
-201.75
 21
73
  0
LINE
  8
0
 10
-201.75
 20
73
 11
-201.808
 21
72.5214
  0
LINE
  8
0
 10
-201.808
 20
72.5214
 11
-201.979
 21
72.0705
  0
LINE
  8
0
 10
-201.979
 20
72.0705
 11
-202.253
 21
71.6738
  0
LINE
  8
0
 10
-202.253
 20
71.6738
 11
-202.614
 21
71.354
  0
LINE
  8
0
 10
-202.614
 20
71.354
 11
-203.041
 21
71.13
  0
LINE
  8
0
 10
-203.041
 20
71.13
 11
-203.509
 21
71.0146
  0
LINE
  8
0
 10
-203.509
 20
71.0146
 11
-203.991
 21
71.0146
  0
LINE
  8
0
 10
144.71
 20
54.3551
 11
144.245
 21
54.5179
  0
LINE
  8
0
 10
144.245
 20
54.5179
 11
143.828
 21
54.78
  0
LINE
  8
0
 10
143.828
 20
54.78
 11
143.48
 21
55.1283
  0
LINE
  8
0
 10
143.48
 20
55.1283
 11
143.218
 21
55.5454
  0
LINE
  8
0
 10
143.218
 20
55.5454
 11
143.055
 21
56.0105
  0
LINE
  8
0
 10
143.055
 20
56.0105
 11
143
 21
56.5
  0
LINE
  8
0
 10
143
 20
56.5
 11
143
 21
65.5
  0
LINE
  8
0
 10
143
 20
65.5
 11
143.055
 21
65.9895
  0
LINE
  8
0
 10
143.055
 20
65.9895
 11
143.218
 21
66.4545
  0
LINE
  8
0
 10
143.218
 20
66.4545
 11
143.48
 21
66.8717
  0
LINE
  8
0
 10
143.48
 20
66.8717
 11
143.828
 21
67.22
  0
LINE
  8
0
 10
143.828
 20
67.22
 11
144.245
 21
67.4821
  0
LINE
  8
0
 10
144.245
 20
67.4821
 11
144.71
 21
67.6448
  0
LINE
  8
0
 10
144.71
 20
67.6448
 11
145.2
 21
67.7
  0
LINE
  8
0
 10
145.2
 20
67.7
 11
145.69
 21
67.6448
  0
LINE
  8
0
 10
145.69
 20
67.6448
 11
146.155
 21
67.4821
  0
LINE
  8
0
 10
146.155
 20
67.4821
 11
146.572
 21
67.22
  0
LINE
  8
0
 10
146.572
 20
67.22
 11
146.92
 21
66.8717
  0
LINE
  8
0
 10
146.92
 20
66.8717
 11
147.182
 21
66.4545
  0
LINE
  8
0
 10
147.182
 20
66.4545
 11
147.345
 21
65.9895
  0
LINE
  8
0
 10
147.345
 20
65.9895
 11
147.4
 21
65.5
  0
LINE
  8
0
 10
147.4
 20
65.5
 11
147.4
 21
56.5
  0
LINE
  8
0
 10
147.4
 20
56.5
 11
147.345
 21
56.0105
  0
LINE
  8
0
 10
147.345
 20
56.0105
 11
147.182
 21
55.5454
  0
LINE
  8
0
 10
147.182
 20
55.5454
 11
146.92
 21
55.1283
  0
LINE
  8
0
 10
146.92
 20
55.1283
 11
146.572
 21
54.78
  0
LINE
  8
0
 10
146.572
 20
54.78
 11
146.155
 21
54.5179
  0
LINE
  8
0
 10
146.155
 20
54.5179
 11
145.69
 21
54.3551
  0
LINE
  8
0
 10
145.69
 20
54.3551
 11
145.2
 21
54.3
  0
LINE
  8
0
 10
145.2
 20
54.3
 11
144.71
 21
54.3551
  0
LINE
  8
0
 10
-190.19
 20
54.3551
 11
-190.655
 21
54.5179
  0
LINE
  8
0
 10
-190.655
 20
54.5179
 11
-191.072
 21
54.78
  0
LINE
  8
0
 10
-191.072
 20
54.78
 11
-191.42
 21
55.1283
  0
LINE
  8
0
 10
-191.42
 20
55.1283
 11
-191.682
 21
55.5454
  0
LINE
  8
0
 10
-191.682
 20
55.5454
 11
-191.845
 21
56.0105
  0
LINE
  8
0
 10
-191.845
 20
56.0105
 11
-191.9
 21
56.5
  0
LINE
  8
0
 10
-191.9
 20
56.5
 11
-191.9
 21
65.5
  0
LINE
  8
0
 10
-191.9
 20
65.5
 11
-191.845
 21
65.9895
  0
LINE
  8
0
 10
-191.845
 20
65.9895
 11
-191.682
 21
66.4545
  0
LINE
  8
0
 10
-191.682
 20
66.4545
 11
-191.42
 21
66.8717
  0
LINE
  8
0
 10
-191.42
 20
66.8717
 11
-191.072
 21
67.22
  0
LINE
  8
0
 10
-191.072
 20
67.22
 11
-190.655
 21
67.4821
  0
LINE
  8
0
 10
-190.655
 20
67.4821
 11
-190.19
 21
67.6448
  0
LINE
  8
0
 10
-190.19
 20
67.6448
 11
-189.7
 21
67.7
  0
LINE
  8
0
 10
-189.7
 20
67.7
 11
-189.21
 21
67.6448
  0
LINE
  8
0
 10
-189.21
 20
67.6448
 11
-188.745
 21
67.4821
  0
LINE
  8
0
 10
-188.745
 20
67.4821
 11
-188.328
 21
67.22
  0
LINE
  8
0
 10
-188.328
 20
67.22
 11
-187.98
 21
66.8717
  0
LINE
  8
0
 10
-187.98
 20
66.8717
 11
-187.718
 21
66.4545
  0
LINE
  8
0
 10
-187.718
 20
66.4545
 11
-187.555
 21
65.9895
  0
LINE
  8
0
 10
-187.555
 20
65.9895
 11
-187.5
 21
65.5
  0
LINE
  8
0
 10
-187.5
 20
65.5
 11
-187.5
 21
56.5
  0
LINE
  8
0
 10
-187.5
 20
56.5
 11
-187.555
 21
56.0105
  0
LINE
  8
0
 10
-187.555
 20
56.0105
 11
-187.718
 21
55.5454
  0
LINE
  8
0
 10
-187.718
 20
55.5454
 11
-187.98
 21
55.1283
  0
LINE
  8
0
 10
-187.98
 20
55.1283
 11
-188.328
 21
54.78
  0
LINE
  8
0
 10
-188.328
 20
54.78
 11
-188.745
 21
54.5179
  0
LINE
  8
0
 10
-188.745
 20
54.5179
 11
-189.21
 21
54.3551
  0
LINE
  8
0
 10
-189.21
 20
54.3551
 11
-189.7
 21
54.3
  0
LINE
  8
0
 10
-189.7
 20
54.3
 11
-190.19
 21
54.3551
  0
LINE
  8
0
 10
174.81
 20
54.3551
 11
174.345
 21
54.5179
  0
LINE
  8
0
 10
174.345
 20
54.5179
 11
173.928
 21
54.78
  0
LINE
  8
0
 10
173.928
 20
54.78
 11
173.58
 21
55.1283
  0
LINE
  8
0
 10
173.58
 20
55.1283
 11
173.318
 21
55.5454
  0
LINE
  8
0
 10
173.318
 20
55.5454
 11
173.155
 21
56.0105
  0
LINE
  8
0
 10
173.155
 20
56.0105
 11
173.1
 21
56.5
  0
LINE
  8
0
 10
173.1
 20
56.5
 11
173.1
 21
65.5
  0
LINE
  8
0
 10
173.1
 20
65.5
 11
173.155
 21
65.9895
  0
LINE
  8
0
 10
173.155
 20
65.9895
 11
173.318
 21
66.4545
  0
LINE
  8
0
 10
173.318
 20
66.4545
 11
173.58
 21
66.8717
  0
LINE
  8
0
 10
173.58
 20
66.8717
 11
173.928
 21
67.22
  0
LINE
  8
0
 10
173.928
 20
67.22
 11
174.345
 21
67.4821
  0
LINE
  8
0
 10
174.345
 20
67.4821
 11
174.81
 21
67.6448
  0
LINE
  8
0
 10
174.81
 20
67.6448
 11
175.3
 21
67.7
  0
LINE
  8
0
 10
175.3
 20
67.7
 11
175.79
 21
67.6448
  0
LINE
  8
0
 10
175.79
 20
67.6448
 11
176.255
 21
67.4821
  0
LINE
  8
0
 10
176.255
 20
67.4821
 11
176.672
 21
67.22
  0
LINE
  8
0
 10
176.672
 20
67.22
 11
177.02
 21
66.8717
  0
LINE
  8
0
 10
177.02
 20
66.8717
 11
177.282
 21
66.4545
  0
LINE
  8
0
 10
177.282
 20
66.4545
 11
177.445
 21
65.9895
  0
LINE
  8
0
 10
177.445
 20
65.9895
 11
177.5
 21
65.5
  0
LINE
  8
0
 10
177.5
 20
65.5
 11
177.5
 21
56.5
  0
LINE
  8
0
 10
177.5
 20
56.5
 11
177.445
 21
56.0105
  0
LINE
  8
0
 10
177.445
 20
56.0105
 11
177.282
 21
55.5454
  0
LINE
  8
0
 10
177.282
 20
55.5454
 11
177.02
 21
55.1283
  0
LINE
  8
0
 10
177.02
 20
55.1283
 11
176.672
 21
54.78
  0
LINE
  8
0
 10
176.672
 20
54.78
 11
176.255
 21
54.5179
  0
LINE
  8
0
 10
176.255
 20
54.5179
 11
175.79
 21
54.3551
  0
LINE
  8
0
 10
175.79
 20
54.3551
 11
175.3
 21
54.3
  0
LINE
  8
0
 10
175.3
 20
54.3
 11
174.81
 21
54.3551
  0
LINE
  8
0
 10
-220.29
 20
54.3551
 11
-220.755
 21
54.5179
  0
LINE
  8
0
 10
-220.755
 20
54.5179
 11
-221.172
 21
54.78
  0
LINE
  8
0
 10
-221.172
 20
54.78
 11
-221.52
 21
55.1283
  0
LINE
  8
0
 10
-221.52
 20
55.1283
 11
-221.782
 21
55.5454
  0
LINE
  8
0
 10
-221.782
 20
55.5454
 11
-221.945
 21
56.0105
  0
LINE
  8
0
 10
-221.945
 20
56.0105
 11
-222
 21
56.5
  0
LINE
  8
0
 10
-222
 20
56.5
 11
-222
 21
65.5
  0
LINE
  8
0
 10
-222
 20
65.5
 11
-221.945
 21
65.9895
  0
LINE
  8
0
 10
-221.945
 20
65.9895
 11
-221.782
 21
66.4545
  0
LINE
  8
0
 10
-221.782
 20
66.4545
 11
-221.52
 21
66.8717
  0
LINE
  8
0
 10
-221.52
 20
66.8717
 11
-221.172
 21
67.22
  0
LINE
  8
0
 10
-221.172
 20
67.22
 11
-220.755
 21
67.4821
  0
LINE
  8
0
 10
-220.755
 20
67.4821
 11
-220.29
 21
67.6448
  0
LINE
  8
0
 10
-220.29
 20
67.6448
 11
-219.8
 21
67.7
  0
LINE
  8
0
 10
-219.8
 20
67.7
 11
-219.31
 21
67.6448
  0
LINE
  8
0
 10
-219.31
 20
67.6448
 11
-218.845
 21
67.4821
  0
LINE
  8
0
 10
-218.845
 20
67.4821
 11
-218.428
 21
67.22
  0
LINE
  8
0
 10
-218.428
 20
67.22
 11
-218.08
 21
66.8717
  0
LINE
  8
0
 10
-218.08
 20
66.8717
 11
-217.818
 21
66.4545
  0
LINE
  8
0
 10
-217.818
 20
66.4545
 11
-217.655
 21
65.9895
  0
LINE
  8
0
 10
-217.655
 20
65.9895
 11
-217.6
 21
65.5
  0
LINE
  8
0
 10
-217.6
 20
65.5
 11
-217.6
 21
56.5
  0
LINE
  8
0
 10
-217.6
 20
56.5
 11
-217.655
 21
56.0105
  0
LINE
  8
0
 10
-217.655
 20
56.0105
 11
-217.818
 21
55.5454
  0
LINE
  8
0
 10
-217.818
 20
55.5454
 11
-218.08
 21
55.1283
  0
LINE
  8
0
 10
-218.08
 20
55.1283
 11
-218.428
 21
54.78
  0
LINE
  8
0
 10
-218.428
 20
54.78
 11
-218.845
 21
54.5179
  0
LINE
  8
0
 10
-218.845
 20
54.5179
 11
-219.31
 21
54.3551
  0
LINE
  8
0
 10
-219.31
 20
54.3551
 11
-219.8
 21
54.3
  0
LINE
  8
0
 10
-219.8
 20
54.3
 11
-220.29
 21
54.3551
  0
LINE
  8
0
 10
129.01
 20
31.5652
 11
128.545
 21
31.7279
  0
LINE
  8
0
 10
128.545
 20
31.7279
 11
128.128
 21
31.99
  0
LINE
  8
0
 10
128.128
 20
31.99
 11
127.78
 21
32.3383
  0
LINE
  8
0
 10
127.78
 20
32.3383
 11
127.518
 21
32.7554
  0
LINE
  8
0
 10
127.518
 20
32.7554
 11
127.355
 21
33.2204
  0
LINE
  8
0
 10
127.355
 20
33.2204
 11
127.3
 21
33.71
  0
LINE
  8
0
 10
127.3
 20
33.71
 11
127.355
 21
34.1995
  0
LINE
  8
0
 10
127.355
 20
34.1995
 11
127.518
 21
34.6645
  0
LINE
  8
0
 10
127.518
 20
34.6645
 11
127.78
 21
35.0817
  0
LINE
  8
0
 10
127.78
 20
35.0817
 11
128.128
 21
35.43
  0
LINE
  8
0
 10
128.128
 20
35.43
 11
128.545
 21
35.6921
  0
LINE
  8
0
 10
128.545
 20
35.6921
 11
129.01
 21
35.8548
  0
LINE
  8
0
 10
129.01
 20
35.8548
 11
129.5
 21
35.91
  0
LINE
  8
0
 10
129.5
 20
35.91
 11
129.99
 21
35.8548
  0
LINE
  8
0
 10
129.99
 20
35.8548
 11
130.455
 21
35.6921
  0
LINE
  8
0
 10
130.455
 20
35.6921
 11
130.872
 21
35.43
  0
LINE
  8
0
 10
130.872
 20
35.43
 11
131.22
 21
35.0817
  0
LINE
  8
0
 10
131.22
 20
35.0817
 11
131.482
 21
34.6645
  0
LINE
  8
0
 10
131.482
 20
34.6645
 11
131.645
 21
34.1995
  0
LINE
  8
0
 10
131.645
 20
34.1995
 11
131.7
 21
33.71
  0
LINE
  8
0
 10
131.7
 20
33.71
 11
131.645
 21
33.2204
  0
LINE
  8
0
 10
131.645
 20
33.2204
 11
131.482
 21
32.7554
  0
LINE
  8
0
 10
131.482
 20
32.7554
 11
131.22
 21
32.3383
  0
LINE
  8
0
 10
131.22
 20
32.3383
 11
130.872
 21
31.99
  0
LINE
  8
0
 10
130.872
 20
31.99
 11
130.455
 21
31.7279
  0
LINE
  8
0
 10
130.455
 20
31.7279
 11
129.99
 21
31.5652
  0
LINE
  8
0
 10
129.99
 20
31.5652
 11
129.5
 21
31.51
  0
LINE
  8
0
 10
129.5
 20
31.51
 11
129.01
 21
31.5652
  0
LINE
  8
0
 10
-174.04
 20
31.5652
 11
-174.505
 21
31.7279
  0
LINE
  8
0
 10
-174.505
 20
31.7279
 11
-174.922
 21
31.99
  0
LINE
  8
0
 10
-174.922
 20
31.99
 11
-175.27
 21
32.3383
  0
LINE
  8
0
 10
-175.27
 20
32.3383
 11
-175.532
 21
32.7554
  0
LINE
  8
0
 10
-175.532
 20
32.7554
 11
-175.695
 21
33.2204
  0
LINE
  8
0
 10
-175.695
 20
33.2204
 11
-175.75
 21
33.71
  0
LINE
  8
0
 10
-175.75
 20
33.71
 11
-175.695
 21
34.1995
  0
LINE
  8
0
 10
-175.695
 20
34.1995
 11
-175.532
 21
34.6645
  0
LINE
  8
0
 10
-175.532
 20
34.6645
 11
-175.27
 21
35.0817
  0
LINE
  8
0
 10
-175.27
 20
35.0817
 11
-174.922
 21
35.43
  0
LINE
  8
0
 10
-174.922
 20
35.43
 11
-174.505
 21
35.6921
  0
LINE
  8
0
 10
-174.505
 20
35.6921
 11
-174.04
 21
35.8548
  0
LINE
  8
0
 10
-174.04
 20
35.8548
 11
-173.55
 21
35.91
  0
LINE
  8
0
 10
-173.55
 20
35.91
 11
-173.06
 21
35.8548
  0
LINE
  8
0
 10
-173.06
 20
35.8548
 11
-172.595
 21
35.6921
  0
LINE
  8
0
 10
-172.595
 20
35.6921
 11
-172.178
 21
35.43
  0
LINE
  8
0
 10
-172.178
 20
35.43
 11
-171.83
 21
35.0817
  0
LINE
  8
0
 10
-171.83
 20
35.0817
 11
-171.568
 21
34.6645
  0
LINE
  8
0
 10
-171.568
 20
34.6645
 11
-171.405
 21
34.1995
  0
LINE
  8
0
 10
-171.405
 20
34.1995
 11
-171.35
 21
33.71
  0
LINE
  8
0
 10
-171.35
 20
33.71
 11
-171.405
 21
33.2204
  0
LINE
  8
0
 10
-171.405
 20
33.2204
 11
-171.568
 21
32.7554
  0
LINE
  8
0
 10
-171.568
 20
32.7554
 11
-171.83
 21
32.3383
  0
LINE
  8
0
 10
-171.83
 20
32.3383
 11
-172.178
 21
31.99
  0
LINE
  8
0
 10
-172.178
 20
31.99
 11
-172.595
 21
31.7279
  0
LINE
  8
0
 10
-172.595
 20
31.7279
 11
-173.06
 21
31.5652
  0
LINE
  8
0
 10
-173.06
 20
31.5652
 11
-173.55
 21
31.51
  0
LINE
  8
0
 10
-173.55
 20
31.51
 11
-174.04
 21
31.5652
  0
LINE
  8
0
 10
221.16
 20
25.8051
 11
220.695
 21
25.9679
  0
LINE
  8
0
 10
220.695
 20
25.9679
 11
220.278
 21
26.23
  0
LINE
  8
0
 10
220.278
 20
26.23
 11
219.93
 21
26.5783
  0
LINE
  8
0
 10
219.93
 20
26.5783
 11
219.668
 21
26.9955
  0
LINE
  8
0
 10
219.668
 20
26.9955
 11
219.505
 21
27.4604
  0
LINE
  8
0
 10
219.505
 20
27.4604
 11
219.45
 21
27.95
  0
LINE
  8
0
 10
219.45
 20
27.95
 11
219.505
 21
28.4395
  0
LINE
  8
0
 10
219.505
 20
28.4395
 11
219.668
 21
28.9045
  0
LINE
  8
0
 10
219.668
 20
28.9045
 11
219.93
 21
29.3217
  0
LINE
  8
0
 10
219.93
 20
29.3217
 11
220.278
 21
29.67
  0
LINE
  8
0
 10
220.278
 20
29.67
 11
220.695
 21
29.9321
  0
LINE
  8
0
 10
220.695
 20
29.9321
 11
221.16
 21
30.0948
  0
LINE
  8
0
 10
221.16
 20
30.0948
 11
221.65
 21
30.15
  0
LINE
  8
0
 10
221.65
 20
30.15
 11
222.14
 21
30.0948
  0
LINE
  8
0
 10
222.14
 20
30.0948
 11
222.605
 21
29.9321
  0
LINE
  8
0
 10
222.605
 20
29.9321
 11
223.022
 21
29.67
  0
LINE
  8
0
 10
223.022
 20
29.67
 11
223.37
 21
29.3217
  0
LINE
  8
0
 10
223.37
 20
29.3217
 11
223.632
 21
28.9045
  0
LINE
  8
0
 10
223.632
 20
28.9045
 11
223.795
 21
28.4395
  0
LINE
  8
0
 10
223.795
 20
28.4395
 11
223.85
 21
27.95
  0
LINE
  8
0
 10
223.85
 20
27.95
 11
223.795
 21
27.4604
  0
LINE
  8
0
 10
223.795
 20
27.4604
 11
223.632
 21
26.9955
  0
LINE
  8
0
 10
223.632
 20
26.9955
 11
223.37
 21
26.5783
  0
LINE
  8
0
 10
223.37
 20
26.5783
 11
223.022
 21
26.23
  0
LINE
  8
0
 10
223.022
 20
26.23
 11
222.605
 21
25.9679
  0
LINE
  8
0
 10
222.605
 20
25.9679
 11
222.14
 21
25.8051
  0
LINE
  8
0
 10
222.14
 20
25.8051
 11
221.65
 21
25.75
  0
LINE
  8
0
 10
221.65
 20
25.75
 11
221.16
 21
25.8051
  0
LINE
  8
0
 10
158.882
 20
15.448
 11
158.413
 21
15.5903
  0
LINE
  8
0
 10
158.413
 20
15.5903
 11
157.981
 21
15.8213
  0
LINE
  8
0
 10
157.981
 20
15.8213
 11
157.602
 21
16.1322
  0
LINE
  8
0
 10
157.602
 20
16.1322
 11
157.291
 21
16.5111
  0
LINE
  8
0
 10
157.291
 20
16.5111
 11
157.06
 21
16.9433
  0
LINE
  8
0
 10
157.06
 20
16.9433
 11
156.918
 21
17.4123
  0
LINE
  8
0
 10
156.918
 20
17.4123
 11
156.87
 21
17.9
  0
LINE
  8
0
 10
156.87
 20
17.9
 11
156.918
 21
18.3877
  0
LINE
  8
0
 10
156.918
 20
18.3877
 11
157.06
 21
18.8567
  0
LINE
  8
0
 10
157.06
 20
18.8567
 11
157.291
 21
19.2889
  0
LINE
  8
0
 10
157.291
 20
19.2889
 11
157.602
 21
19.6678
  0
LINE
  8
0
 10
157.602
 20
19.6678
 11
157.981
 21
19.9787
  0
LINE
  8
0
 10
157.981
 20
19.9787
 11
158.413
 21
20.2097
  0
LINE
  8
0
 10
158.413
 20
20.2097
 11
158.882
 21
20.352
  0
LINE
  8
0
 10
158.882
 20
20.352
 11
159.37
 21
20.4
  0
LINE
  8
0
 10
159.37
 20
20.4
 11
159.858
 21
20.352
  0
LINE
  8
0
 10
159.858
 20
20.352
 11
160.327
 21
20.2097
  0
LINE
  8
0
 10
160.327
 20
20.2097
 11
160.759
 21
19.9787
  0
LINE
  8
0
 10
160.759
 20
19.9787
 11
161.138
 21
19.6678
  0
LINE
  8
0
 10
161.138
 20
19.6678
 11
161.449
 21
19.2889
  0
LINE
  8
0
 10
161.449
 20
19.2889
 11
161.68
 21
18.8567
  0
LINE
  8
0
 10
161.68
 20
18.8567
 11
161.822
 21
18.3877
  0
LINE
  8
0
 10
161.822
 20
18.3877
 11
161.87
 21
17.9
  0
LINE
  8
0
 10
161.87
 20
17.9
 11
161.822
 21
17.4123
  0
LINE
  8
0
 10
161.822
 20
17.4123
 11
161.68
 21
16.9433
  0
LINE
  8
0
 10
161.68
 20
16.9433
 11
161.449
 21
16.5111
  0
LINE
  8
0
 10
161.449
 20
16.5111
 11
161.138
 21
16.1322
  0
LINE
  8
0
 10
161.138
 20
16.1322
 11
160.759
 21
15.8213
  0
LINE
  8
0
 10
160.759
 20
15.8213
 11
160.327
 21
15.5903
  0
LINE
  8
0
 10
160.327
 20
15.5903
 11
159.858
 21
15.448
  0
LINE
  8
0
 10
159.858
 20
15.448
 11
159.37
 21
15.4
  0
LINE
  8
0
 10
159.37
 20
15.4
 11
158.882
 21
15.448
  0
LINE
  8
0
 10
227.55
 20
4.99998
 11
227.06
 21
5.05515
  0
LINE
  8
0
 10
227.06
 20
5.05515
 11
226.595
 21
5.21786
  0
LINE
  8
0
 10
226.595
 20
5.21786
 11
226.178
 21
5.47997
  0
LINE
  8
0
 10
226.178
 20
5.47997
 11
225.83
 21
5.82831
  0
LINE
  8
0
 10
225.83
 20
5.82831
 11
225.568
 21
6.24545
  0
LINE
  8
0
 10
225.568
 20
6.24545
 11
225.405
 21
6.71045
  0
LINE
  8
0
 10
225.405
 20
6.71045
 11
225.35
 21
7.2
  0
LINE
  8
0
 10
225.35
 20
7.2
 11
225.405
 21
7.68954
  0
LINE
  8
0
 10
225.405
 20
7.68954
 11
225.568
 21
8.15454
  0
LINE
  8
0
 10
225.568
 20
8.15454
 11
225.83
 21
8.57167
  0
LINE
  8
0
 10
225.83
 20
8.57167
 11
226.178
 21
8.92003
  0
LINE
  8
0
 10
226.178
 20
8.92003
 11
226.595
 21
9.18213
  0
LINE
  8
0
 10
226.595
 20
9.18213
 11
227.06
 21
9.34483
  0
LINE
  8
0
 10
227.06
 20
9.34483
 11
227.55
 21
9.39999
  0
LINE
  8
0
 10
227.55
 20
9.39999
 11
228.04
 21
9.34483
  0
LINE
  8
0
 10
228.04
 20
9.34483
 11
228.505
 21
9.18213
  0
LINE
  8
0
 10
228.505
 20
9.18213
 11
228.922
 21
8.92003
  0
LINE
  8
0
 10
228.922
 20
8.92003
 11
229.27
 21
8.57167
  0
LINE
  8
0
 10
229.27
 20
8.57167
 11
229.532
 21
8.15454
  0
LINE
  8
0
 10
229.532
 20
8.15454
 11
229.695
 21
7.68954
  0
LINE
  8
0
 10
229.695
 20
7.68954
 11
229.75
 21
7.2
  0
LINE
  8
0
 10
229.75
 20
7.2
 11
229.695
 21
6.71045
  0
LINE
  8
0
 10
229.695
 20
6.71045
 11
229.532
 21
6.24545
  0
LINE
  8
0
 10
229.532
 20
6.24545
 11
229.27
 21
5.82831
  0
LINE
  8
0
 10
229.27
 20
5.82831
 11
228.922
 21
5.47997
  0
LINE
  8
0
 10
228.922
 20
5.47997
 11
228.505
 21
5.21786
  0
LINE
  8
0
 10
228.505
 20
5.21786
 11
228.04
 21
5.05515
  0
LINE
  8
0
 10
228.04
 20
5.05515
 11
227.55
 21
4.99998
  0
LINE
  8
0
 10
-139.95
 20
4.99998
 11
-140.44
 21
5.05515
  0
LINE
  8
0
 10
-140.44
 20
5.05515
 11
-140.905
 21
5.21786
  0
LINE
  8
0
 10
-140.905
 20
5.21786
 11
-141.322
 21
5.47997
  0
LINE
  8
0
 10
-141.322
 20
5.47997
 11
-141.67
 21
5.82831
  0
LINE
  8
0
 10
-141.67
 20
5.82831
 11
-141.932
 21
6.24545
  0
LINE
  8
0
 10
-141.932
 20
6.24545
 11
-142.095
 21
6.71045
  0
LINE
  8
0
 10
-142.095
 20
6.71045
 11
-142.15
 21
7.2
  0
LINE
  8
0
 10
-142.15
 20
7.2
 11
-142.095
 21
7.68954
  0
LINE
  8
0
 10
-142.095
 20
7.68954
 11
-141.932
 21
8.15454
  0
LINE
  8
0
 10
-141.932
 20
8.15454
 11
-141.67
 21
8.57167
  0
LINE
  8
0
 10
-141.67
 20
8.57167
 11
-141.322
 21
8.92003
  0
LINE
  8
0
 10
-141.322
 20
8.92003
 11
-140.905
 21
9.18213
  0
LINE
  8
0
 10
-140.905
 20
9.18213
 11
-140.44
 21
9.34483
  0
LINE
  8
0
 10
-140.44
 20
9.34483
 11
-139.95
 21
9.39999
  0
LINE
  8
0
 10
-139.95
 20
9.39999
 11
-139.46
 21
9.34483
  0
LINE
  8
0
 10
-139.46
 20
9.34483
 11
-138.995
 21
9.18213
  0
LINE
  8
0
 10
-138.995
 20
9.18213
 11
-138.578
 21
8.92003
  0
LINE
  8
0
 10
-138.578
 20
8.92003
 11
-138.23
 21
8.57167
  0
LINE
  8
0
 10
-138.23
 20
8.57167
 11
-137.968
 21
8.15454
  0
LINE
  8
0
 10
-137.968
 20
8.15454
 11
-137.805
 21
7.68954
  0
LINE
  8
0
 10
-137.805
 20
7.68954
 11
-137.75
 21
7.2
  0
LINE
  8
0
 10
-137.75
 20
7.2
 11
-137.805
 21
6.71045
  0
LINE
  8
0
 10
-137.805
 20
6.71045
 11
-137.968
 21
6.24545
  0
LINE
  8
0
 10
-137.968
 20
6.24545
 11
-138.23
 21
5.82831
  0
LINE
  8
0
 10
-138.23
 20
5.82831
 11
-138.578
 21
5.47997
  0
LINE
  8
0
 10
-138.578
 20
5.47997
 11
-138.995
 21
5.21786
  0
LINE
  8
0
 10
-138.995
 20
5.21786
 11
-139.46
 21
5.05515
  0
LINE
  8
0
 10
-139.46
 20
5.05515
 11
-139.95
 21
4.99998
  0
LINE
  8
0
 10
206.33
 20
4.99998
 11
205.84
 21
5.05515
  0
LINE
  8
0
 10
205.84
 20
5.05515
 11
205.375
 21
5.21786
  0
LINE
  8
0
 10
205.375
 20
5.21786
 11
204.958
 21
5.47997
  0
LINE
  8
0
 10
204.958
 20
5.47997
 11
204.61
 21
5.82831
  0
LINE
  8
0
 10
204.61
 20
5.82831
 11
204.348
 21
6.24545
  0
LINE
  8
0
 10
204.348
 20
6.24545
 11
204.185
 21
6.71045
  0
LINE
  8
0
 10
204.185
 20
6.71045
 11
204.13
 21
7.2
  0
LINE
  8
0
 10
204.13
 20
7.2
 11
204.185
 21
7.68954
  0
LINE
  8
0
 10
204.185
 20
7.68954
 11
204.348
 21
8.15454
  0
LINE
  8
0
 10
204.348
 20
8.15454
 11
204.61
 21
8.57167
  0
LINE
  8
0
 10
204.61
 20
8.57167
 11
204.958
 21
8.92003
  0
LINE
  8
0
 10
204.958
 20
8.92003
 11
205.375
 21
9.18213
  0
LINE
  8
0
 10
205.375
 20
9.18213
 11
205.84
 21
9.34483
  0
LINE
  8
0
 10
205.84
 20
9.34483
 11
206.33
 21
9.39999
  0
LINE
  8
0
 10
206.33
 20
9.39999
 11
206.82
 21
9.34483
  0
LINE
  8
0
 10
206.82
 20
9.34483
 11
207.285
 21
9.18213
  0
LINE
  8
0
 10
207.285
 20
9.18213
 11
207.702
 21
8.92003
  0
LINE
  8
0
 10
207.702
 20
8.92003
 11
208.05
 21
8.57167
  0
LINE
  8
0
 10
208.05
 20
8.57167
 11
208.312
 21
8.15454
  0
LINE
  8
0
 10
208.312
 20
8.15454
 11
208.475
 21
7.68954
  0
LINE
  8
0
 10
208.475
 20
7.68954
 11
208.53
 21
7.2
  0
LINE
  8
0
 10
208.53
 20
7.2
 11
208.475
 21
6.71045
  0
LINE
  8
0
 10
208.475
 20
6.71045
 11
208.312
 21
6.24545
  0
LINE
  8
0
 10
208.312
 20
6.24545
 11
208.05
 21
5.82831
  0
LINE
  8
0
 10
208.05
 20
5.82831
 11
207.702
 21
5.47997
  0
LINE
  8
0
 10
207.702
 20
5.47997
 11
207.285
 21
5.21786
  0
LINE
  8
0
 10
207.285
 20
5.21786
 11
206.82
 21
5.05515
  0
LINE
  8
0
 10
206.82
 20
5.05515
 11
206.33
 21
4.99998
  0
LINE
  8
0
 10
169.62
 20
4.99998
 11
169.13
 21
5.05515
  0
LINE
  8
0
 10
169.13
 20
5.05515
 11
168.665
 21
5.21786
  0
LINE
  8
0
 10
168.665
 20
5.21786
 11
168.248
 21
5.47997
  0
LINE
  8
0
 10
168.248
 20
5.47997
 11
167.9
 21
5.82831
  0
LINE
  8
0
 10
167.9
 20
5.82831
 11
167.638
 21
6.24545
  0
LINE
  8
0
 10
167.638
 20
6.24545
 11
167.475
 21
6.71045
  0
LINE
  8
0
 10
167.475
 20
6.71045
 11
167.42
 21
7.2
  0
LINE
  8
0
 10
167.42
 20
7.2
 11
167.475
 21
7.68954
  0
LINE
  8
0
 10
167.475
 20
7.68954
 11
167.638
 21
8.15454
  0
LINE
  8
0
 10
167.638
 20
8.15454
 11
167.9
 21
8.57167
  0
LINE
  8
0
 10
167.9
 20
8.57167
 11
168.248
 21
8.92003
  0
LINE
  8
0
 10
168.248
 20
8.92003
 11
168.665
 21
9.18213
  0
LINE
  8
0
 10
168.665
 20
9.18213
 11
169.13
 21
9.34483
  0
LINE
  8
0
 10
169.13
 20
9.34483
 11
169.62
 21
9.39999
  0
LINE
  8
0
 10
169.62
 20
9.39999
 11
170.11
 21
9.34483
  0
LINE
  8
0
 10
170.11
 20
9.34483
 11
170.575
 21
9.18213
  0
LINE
  8
0
 10
170.575
 20
9.18213
 11
170.992
 21
8.92003
  0
LINE
  8
0
 10
170.992
 20
8.92003
 11
171.34
 21
8.57167
  0
LINE
  8
0
 10
171.34
 20
8.57167
 11
171.602
 21
8.15454
  0
LINE
  8
0
 10
171.602
 20
8.15454
 11
171.765
 21
7.68954
  0
LINE
  8
0
 10
171.765
 20
7.68954
 11
171.82
 21
7.2
  0
LINE
  8
0
 10
171.82
 20
7.2
 11
171.765
 21
6.71045
  0
LINE
  8
0
 10
171.765
 20
6.71045
 11
171.602
 21
6.24545
  0
LINE
  8
0
 10
171.602
 20
6.24545
 11
171.34
 21
5.82831
  0
LINE
  8
0
 10
171.34
 20
5.82831
 11
170.992
 21
5.47997
  0
LINE
  8
0
 10
170.992
 20
5.47997
 11
170.575
 21
5.21786
  0
LINE
  8
0
 10
170.575
 20
5.21786
 11
170.11
 21
5.05515
  0
LINE
  8
0
 10
170.11
 20
5.05515
 11
169.62
 21
4.99998
  0
LINE
  8
0
 10
-227.55
 20
4.99998
 11
-228.04
 21
5.05515
  0
LINE
  8
0
 10
-228.04
 20
5.05515
 11
-228.505
 21
5.21786
  0
LINE
  8
0
 10
-228.505
 20
5.21786
 11
-228.922
 21
5.47997
  0
LINE
  8
0
 10
-228.922
 20
5.47997
 11
-229.27
 21
5.82831
  0
LINE
  8
0
 10
-229.27
 20
5.82831
 11
-229.532
 21
6.24545
  0
LINE
  8
0
 10
-229.532
 20
6.24545
 11
-229.695
 21
6.71045
  0
LINE
  8
0
 10
-229.695
 20
6.71045
 11
-229.75
 21
7.2
  0
LINE
  8
0
 10
-229.75
 20
7.2
 11
-229.695
 21
7.68954
  0
LINE
  8
0
 10
-229.695
 20
7.68954
 11
-229.532
 21
8.15454
  0
LINE
  8
0
 10
-229.532
 20
8.15454
 11
-229.27
 21
8.57167
  0
LINE
  8
0
 10
-229.27
 20
8.57167
 11
-228.922
 21
8.92003
  0
LINE
  8
0
 10
-228.922
 20
8.92003
 11
-228.505
 21
9.18213
  0
LINE
  8
0
 10
-228.505
 20
9.18213
 11
-228.04
 21
9.34483
  0
LINE
  8
0
 10
-228.04
 20
9.34483
 11
-227.55
 21
9.39999
  0
LINE
  8
0
 10
-227.55
 20
9.39999
 11
-227.06
 21
9.34483
  0
LINE
  8
0
 10
-227.06
 20
9.34483
 11
-226.595
 21
9.18213
  0
LINE
  8
0
 10
-226.595
 20
9.18213
 11
-226.178
 21
8.92003
  0
LINE
  8
0
 10
-226.178
 20
8.92003
 11
-225.83
 21
8.57167
  0
LINE
  8
0
 10
-225.83
 20
8.57167
 11
-225.568
 21
8.15454
  0
LINE
  8
0
 10
-225.568
 20
8.15454
 11
-225.405
 21
7.68954
  0
LINE
  8
0
 10
-225.405
 20
7.68954
 11
-225.35
 21
7.2
  0
LINE
  8
0
 10
-225.35
 20
7.2
 11
-225.405
 21
6.71045
  0
LINE
  8
0
 10
-225.405
 20
6.71045
 11
-225.568
 21
6.24545
  0
LINE
  8
0
 10
-225.568
 20
6.24545
 11
-225.83
 21
5.82831
  0
LINE
  8
0
 10
-225.83
 20
5.82831
 11
-226.178
 21
5.47997
  0
LINE
  8
0
 10
-226.178
 20
5.47997
 11
-226.595
 21
5.21786
  0
LINE
  8
0
 10
-226.595
 20
5.21786
 11
-227.06
 21
5.05515
  0
LINE
  8
0
 10
-227.06
 20
5.05515
 11
-227.55
 21
4.99998
  0
LINE
  8
0
 10
148.4
 20
4.99998
 11
147.91
 21
5.05515
  0
LINE
  8
0
 10
147.91
 20
5.05515
 11
147.445
 21
5.21786
  0
LINE
  8
0
 10
147.445
 20
5.21786
 11
147.028
 21
5.47997
  0
LINE
  8
0
 10
147.028
 20
5.47997
 11
146.68
 21
5.82831
  0
LINE
  8
0
 10
146.68
 20
5.82831
 11
146.418
 21
6.24545
  0
LINE
  8
0
 10
146.418
 20
6.24545
 11
146.255
 21
6.71045
  0
LINE
  8
0
 10
146.255
 20
6.71045
 11
146.2
 21
7.2
  0
LINE
  8
0
 10
146.2
 20
7.2
 11
146.255
 21
7.68954
  0
LINE
  8
0
 10
146.255
 20
7.68954
 11
146.418
 21
8.15454
  0
LINE
  8
0
 10
146.418
 20
8.15454
 11
146.68
 21
8.57167
  0
LINE
  8
0
 10
146.68
 20
8.57167
 11
147.028
 21
8.92003
  0
LINE
  8
0
 10
147.028
 20
8.92003
 11
147.445
 21
9.18213
  0
LINE
  8
0
 10
147.445
 20
9.18213
 11
147.91
 21
9.34483
  0
LINE
  8
0
 10
147.91
 20
9.34483
 11
148.4
 21
9.39999
  0
LINE
  8
0
 10
148.4
 20
9.39999
 11
148.89
 21
9.34483
  0
LINE
  8
0
 10
148.89
 20
9.34483
 11
149.355
 21
9.18213
  0
LINE
  8
0
 10
149.355
 20
9.18213
 11
149.772
 21
8.92003
  0
LINE
  8
0
 10
149.772
 20
8.92003
 11
150.12
 21
8.57167
  0
LINE
  8
0
 10
150.12
 20
8.57167
 11
150.382
 21
8.15454
  0
LINE
  8
0
 10
150.382
 20
8.15454
 11
150.545
 21
7.68954
  0
LINE
  8
0
 10
150.545
 20
7.68954
 11
150.6
 21
7.2
  0
LINE
  8
0
 10
150.6
 20
7.2
 11
150.545
 21
6.71045
  0
LINE
  8
0
 10
150.545
 20
6.71045
 11
150.382
 21
6.24545
  0
LINE
  8
0
 10
150.382
 20
6.24545
 11
150.12
 21
5.82831
  0
LINE
  8
0
 10
150.12
 20
5.82831
 11
149.772
 21
5.47997
  0
LINE
  8
0
 10
149.772
 20
5.47997
 11
149.355
 21
5.21786
  0
LINE
  8
0
 10
149.355
 20
5.21786
 11
148.89
 21
5.05515
  0
LINE
  8
0
 10
148.89
 20
5.05515
 11
148.4
 21
4.99998
  0
LINE
  8
0
 10
-206.33
 20
4.99998
 11
-206.82
 21
5.05515
  0
LINE
  8
0
 10
-206.82
 20
5.05515
 11
-207.285
 21
5.21786
  0
LINE
  8
0
 10
-207.285
 20
5.21786
 11
-207.702
 21
5.47997
  0
LINE
  8
0
 10
-207.702
 20
5.47997
 11
-208.05
 21
5.82831
  0
LINE
  8
0
 10
-208.05
 20
5.82831
 11
-208.312
 21
6.24545
  0
LINE
  8
0
 10
-208.312
 20
6.24545
 11
-208.475
 21
6.71045
  0
LINE
  8
0
 10
-208.475
 20
6.71045
 11
-208.53
 21
7.2
  0
LINE
  8
0
 10
-208.53
 20
7.2
 11
-208.475
 21
7.68954
  0
LINE
  8
0
 10
-208.475
 20
7.68954
 11
-208.312
 21
8.15454
  0
LINE
  8
0
 10
-208.312
 20
8.15454
 11
-208.05
 21
8.57167
  0
LINE
  8
0
 10
-208.05
 20
8.57167
 11
-207.702
 21
8.92003
  0
LINE
  8
0
 10
-207.702
 20
8.92003
 11
-207.285
 21
9.18213
  0
LINE
  8
0
 10
-207.285
 20
9.18213
 11
-206.82
 21
9.34483
  0
LINE
  8
0
 10
-206.82
 20
9.34483
 11
-206.33
 21
9.39999
  0
LINE
  8
0
 10
-206.33
 20
9.39999
 11
-205.84
 21
9.34483
  0
LINE
  8
0
 10
-205.84
 20
9.34483
 11
-205.375
 21
9.18213
  0
LINE
  8
0
 10
-205.375
 20
9.18213
 11
-204.958
 21
8.92003
  0
LINE
  8
0
 10
-204.958
 20
8.92003
 11
-204.61
 21
8.57167
  0
LINE
  8
0
 10
-204.61
 20
8.57167
 11
-204.348
 21
8.15454
  0
LINE
  8
0
 10
-204.348
 20
8.15454
 11
-204.185
 21
7.68954
  0
LINE
  8
0
 10
-204.185
 20
7.68954
 11
-204.13
 21
7.2
  0
LINE
  8
0
 10
-204.13
 20
7.2
 11
-204.185
 21
6.71045
  0
LINE
  8
0
 10
-204.185
 20
6.71045
 11
-204.348
 21
6.24545
  0
LINE
  8
0
 10
-204.348
 20
6.24545
 11
-204.61
 21
5.82831
  0
LINE
  8
0
 10
-204.61
 20
5.82831
 11
-204.958
 21
5.47997
  0
LINE
  8
0
 10
-204.958
 20
5.47997
 11
-205.375
 21
5.21786
  0
LINE
  8
0
 10
-205.375
 20
5.21786
 11
-205.84
 21
5.05515
  0
LINE
  8
0
 10
-205.84
 20
5.05515
 11
-206.33
 21
4.99998
  0
LINE
  8
0
 10
-161.17
 20
4.99998
 11
-161.66
 21
5.05515
  0
LINE
  8
0
 10
-161.66
 20
5.05515
 11
-162.125
 21
5.21786
  0
LINE
  8
0
 10
-162.125
 20
5.21786
 11
-162.542
 21
5.47997
  0
LINE
  8
0
 10
-162.542
 20
5.47997
 11
-162.89
 21
5.82831
  0
LINE
  8
0
 10
-162.89
 20
5.82831
 11
-163.152
 21
6.24545
  0
LINE
  8
0
 10
-163.152
 20
6.24545
 11
-163.315
 21
6.71045
  0
LINE
  8
0
 10
-163.315
 20
6.71045
 11
-163.37
 21
7.2
  0
LINE
  8
0
 10
-163.37
 20
7.2
 11
-163.315
 21
7.68954
  0
LINE
  8
0
 10
-163.315
 20
7.68954
 11
-163.152
 21
8.15454
  0
LINE
  8
0
 10
-163.152
 20
8.15454
 11
-162.89
 21
8.57167
  0
LINE
  8
0
 10
-162.89
 20
8.57167
 11
-162.542
 21
8.92003
  0
LINE
  8
0
 10
-162.542
 20
8.92003
 11
-162.125
 21
9.18213
  0
LINE
  8
0
 10
-162.125
 20
9.18213
 11
-161.66
 21
9.34483
  0
LINE
  8
0
 10
-161.66
 20
9.34483
 11
-161.17
 21
9.39999
  0
LINE
  8
0
 10
-161.17
 20
9.39999
 11
-160.68
 21
9.34483
  0
LINE
  8
0
 10
-160.68
 20
9.34483
 11
-160.215
 21
9.18213
  0
LINE
  8
0
 10
-160.215
 20
9.18213
 11
-159.798
 21
8.92003
  0
LINE
  8
0
 10
-159.798
 20
8.92003
 11
-159.45
 21
8.57167
  0
LINE
  8
0
 10
-159.45
 20
8.57167
 11
-159.188
 21
8.15454
  0
LINE
  8
0
 10
-159.188
 20
8.15454
 11
-159.025
 21
7.68954
  0
LINE
  8
0
 10
-159.025
 20
7.68954
 11
-158.97
 21
7.2
  0
LINE
  8
0
 10
-158.97
 20
7.2
 11
-159.025
 21
6.71045
  0
LINE
  8
0
 10
-159.025
 20
6.71045
 11
-159.188
 21
6.24545
  0
LINE
  8
0
 10
-159.188
 20
6.24545
 11
-159.45
 21
5.82831
  0
LINE
  8
0
 10
-159.45
 20
5.82831
 11
-159.798
 21
5.47997
  0
LINE
  8
0
 10
-159.798
 20
5.47997
 11
-160.215
 21
5.21786
  0
LINE
  8
0
 10
-160.215
 20
5.21786
 11
-160.68
 21
5.05515
  0
LINE
  8
0
 10
-160.68
 20
5.05515
 11
-161.17
 21
4.99998
  0
LINE
  8
0
 10
98.9977
 20
0.0102386
 11
99.4865
 21
0.0917969
  0
LINE
  8
0
 10
99.4865
 20
0.0917969
 11
99.9551
 21
0.25267
  0
LINE
  8
0
 10
99.9551
 20
0.25267
 11
100.391
 21
0.488495
  0
LINE
  8
0
 10
100.391
 20
0.488495
 11
100.782
 21
0.792816
  0
LINE
  8
0
 10
100.782
 20
0.792816
 11
101.117
 21
1.15735
  0
LINE
  8
0
 10
101.117
 20
1.15735
 11
101.388
 21
1.57214
  0
LINE
  8
0
 10
101.388
 20
1.57214
 11
101.587
 21
2.02589
  0
LINE
  8
0
 10
101.587
 20
2.02589
 11
101.709
 21
2.50621
  0
LINE
  8
0
 10
101.709
 20
2.50621
 11
101.75
 21
3
  0
LINE
  8
0
 10
101.75
 20
3
 11
101.74
 21
214.248
  0
LINE
  8
0
 10
101.74
 20
214.248
 11
101.658
 21
214.736
  0
LINE
  8
0
 10
101.658
 20
214.736
 11
101.497
 21
215.205
  0
LINE
  8
0
 10
101.497
 20
215.205
 11
101.261
 21
215.641
  0
LINE
  8
0
 10
101.261
 20
215.641
 11
100.957
 21
216.032
  0
LINE
  8
0
 10
100.957
 20
216.032
 11
100.593
 21
216.367
  0
LINE
  8
0
 10
100.593
 20
216.367
 11
100.178
 21
216.638
  0
LINE
  8
0
 10
100.178
 20
216.638
 11
99.7241
 21
216.837
  0
LINE
  8
0
 10
99.7241
 20
216.837
 11
99.2438
 21
216.959
  0
LINE
  8
0
 10
99.2438
 20
216.959
 11
98.75
 21
217
  0
LINE
  8
0
 10
98.75
 20
217
 11
11.76
 21
216.996
  0
LINE
  8
0
 10
11.76
 20
216.996
 11
11.76
 21
212
  0
LINE
  8
0
 10
11.76
 20
212
 11
-25.26
 21
212
  0
LINE
  8
0
 10
-25.26
 20
212
 11
-25.26
 21
216.994
  0
LINE
  8
0
 10
-25.26
 20
216.994
 11
-112.498
 21
216.99
  0
LINE
  8
0
 10
-112.498
 20
216.99
 11
-112.986
 21
216.908
  0
LINE
  8
0
 10
-112.986
 20
216.908
 11
-113.455
 21
216.747
  0
LINE
  8
0
 10
-113.455
 20
216.747
 11
-113.891
 21
216.511
  0
LINE
  8
0
 10
-113.891
 20
216.511
 11
-114.282
 21
216.207
  0
LINE
  8
0
 10
-114.282
 20
216.207
 11
-114.617
 21
215.843
  0
LINE
  8
0
 10
-114.617
 20
215.843
 11
-114.888
 21
215.428
  0
LINE
  8
0
 10
-114.888
 20
215.428
 11
-115.087
 21
214.974
  0
LINE
  8
0
 10
-115.087
 20
214.974
 11
-115.209
 21
214.494
  0
LINE
  8
0
 10
-115.209
 20
214.494
 11
-115.25
 21
214
  0
LINE
  8
0
 10
-115.25
 20
214
 11
-115.24
 21
2.75226
  0
LINE
  8
0
 10
-115.24
 20
2.75226
 11
-115.158
 21
2.26353
  0
LINE
  8
0
 10
-115.158
 20
2.26353
 11
-114.997
 21
1.79491
  0
LINE
  8
0
 10
-114.997
 20
1.79491
 11
-114.761
 21
1.35915
  0
LINE
  8
0
 10
-114.761
 20
1.35915
 11
-114.457
 21
0.968155
  0
LINE
  8
0
 10
-114.457
 20
0.968155
 11
-114.093
 21
0.632568
  0
LINE
  8
0
 10
-114.093
 20
0.632568
 11
-113.678
 21
0.361572
  0
LINE
  8
0
 10
-113.678
 20
0.361572
 11
-113.224
 21
0.162537
  0
LINE
  8
0
 10
-113.224
 20
0.162537
 11
-112.744
 21
0.0409088
  0
LINE
  8
0
 10
-112.744
 20
0.0409088
 11
-112.25
 21
0
  0
LINE
  8
0
 10
-112.25
 20
0
 11
98.9977
 21
0.0102386
  0
LINE
  8
0
 10
97.2716
 20
211.845
 11
96.8661
 21
212.116
  0
LINE
  8
0
 10
96.8661
 20
212.116
 11
96.5951
 21
212.522
  0
LINE
  8
0
 10
96.5951
 20
212.522
 11
96.5
 21
213
  0
LINE
  8
0
 10
96.5
 20
213
 11
96.5951
 21
213.478
  0
LINE
  8
0
 10
96.5951
 20
213.478
 11
96.8661
 21
213.884
  0
LINE
  8
0
 10
96.8661
 20
213.884
 11
97.2716
 21
214.155
  0
LINE
  8
0
 10
97.2716
 20
214.155
 11
97.75
 21
214.25
  0
LINE
  8
0
 10
97.75
 20
214.25
 11
98.2283
 21
214.155
  0
LINE
  8
0
 10
98.2283
 20
214.155
 11
98.6339
 21
213.884
  0
LINE
  8
0
 10
98.6339
 20
213.884
 11
98.9048
 21
213.478
  0
LINE
  8
0
 10
98.9048
 20
213.478
 11
99
 21
213
  0
LINE
  8
0
 10
99
 20
213
 11
98.9048
 21
212.522
  0
LINE
  8
0
 10
98.9048
 20
212.522
 11
98.6339
 21
212.116
  0
LINE
  8
0
 10
98.6339
 20
212.116
 11
98.2283
 21
211.845
  0
LINE
  8
0
 10
98.2283
 20
211.845
 11
97.75
 21
211.75
  0
LINE
  8
0
 10
97.75
 20
211.75
 11
97.2716
 21
211.845
  0
LINE
  8
0
 10
-111.728
 20
211.845
 11
-112.134
 21
212.116
  0
LINE
  8
0
 10
-112.134
 20
212.116
 11
-112.405
 21
212.522
  0
LINE
  8
0
 10
-112.405
 20
212.522
 11
-112.5
 21
213
  0
LINE
  8
0
 10
-112.5
 20
213
 11
-112.405
 21
213.478
  0
LINE
  8
0
 10
-112.405
 20
213.478
 11
-112.134
 21
213.884
  0
LINE
  8
0
 10
-112.134
 20
213.884
 11
-111.728
 21
214.155
  0
LINE
  8
0
 10
-111.728
 20
214.155
 11
-111.25
 21
214.25
  0
LINE
  8
0
 10
-111.25
 20
214.25
 11
-110.772
 21
214.155
  0
LINE
  8
0
 10
-110.772
 20
214.155
 11
-110.366
 21
213.884
  0
LINE
  8
0
 10
-110.366
 20
213.884
 11
-110.095
 21
213.478
  0
LINE
  8
0
 10
-110.095
 20
213.478
 11
-110
 21
213
  0
LINE
  8
0
 10
-110
 20
213
 11
-110.095
 21
212.522
  0
LINE
  8
0
 10
-110.095
 20
212.522
 11
-110.366
 21
212.116
  0
LINE
  8
0
 10
-110.366
 20
212.116
 11
-110.772
 21
211.845
  0
LINE
  8
0
 10
-110.772
 20
211.845
 11
-111.25
 21
211.75
  0
LINE
  8
0
 10
-111.25
 20
211.75
 11
-111.728
 21
211.845
  0
LINE
  8
0
 10
-27.7771
 20
205.391
 11
-28.235
 21
205.571
  0
LINE
  8
0
 10
-28.235
 20
205.571
 11
-28.6195
 21
205.878
  0
LINE
  8
0
 10
-28.6195
 20
205.878
 11
-28.8966
 21
206.284
  0
LINE
  8
0
 10
-28.8966
 20
206.284
 11
-29.0416
 21
206.754
  0
LINE
  8
0
 10
-29.0416
 20
206.754
 11
-29.0416
 21
207.246
  0
LINE
  8
0
 10
-29.0416
 20
207.246
 11
-28.8966
 21
207.716
  0
LINE
  8
0
 10
-28.8966
 20
207.716
 11
-28.6195
 21
208.122
  0
LINE
  8
0
 10
-28.6195
 20
208.122
 11
-28.235
 21
208.429
  0
LINE
  8
0
 10
-28.235
 20
208.429
 11
-27.7771
 21
208.609
  0
LINE
  8
0
 10
-27.7771
 20
208.609
 11
-27.2867
 21
208.645
  0
LINE
  8
0
 10
-27.2867
 20
208.645
 11
-26.8072
 21
208.536
  0
LINE
  8
0
 10
-26.8072
 20
208.536
 11
-26.3812
 21
208.29
  0
LINE
  8
0
 10
-26.3812
 20
208.29
 11
-26.0467
 21
207.929
  0
LINE
  8
0
 10
-26.0467
 20
207.929
 11
-25.8333
 21
207.486
  0
LINE
  8
0
 10
-25.8333
 20
207.486
 11
-25.76
 21
207
  0
LINE
  8
0
 10
-25.76
 20
207
 11
-25.8333
 21
206.514
  0
LINE
  8
0
 10
-25.8333
 20
206.514
 11
-26.0467
 21
206.071
  0
LINE
  8
0
 10
-26.0467
 20
206.071
 11
-26.3812
 21
205.71
  0
LINE
  8
0
 10
-26.3812
 20
205.71
 11
-26.8072
 21
205.464
  0
LINE
  8
0
 10
-26.8072
 20
205.464
 11
-27.2867
 21
205.355
  0
LINE
  8
0
 10
-27.2867
 20
205.355
 11
-27.7771
 21
205.391
  0
LINE
  8
0
 10
13.5428
 20
205.391
 11
13.085
 21
205.571
  0
LINE
  8
0
 10
13.085
 20
205.571
 11
12.7005
 21
205.878
  0
LINE
  8
0
 10
12.7005
 20
205.878
 11
12.4234
 21
206.284
  0
LINE
  8
0
 10
12.4234
 20
206.284
 11
12.2784
 21
206.754
  0
LINE
  8
0
 10
12.2784
 20
206.754
 11
12.2784
 21
207.246
  0
LINE
  8
0
 10
12.2784
 20
207.246
 11
12.4234
 21
207.716
  0
LINE
  8
0
 10
12.4234
 20
207.716
 11
12.7005
 21
208.122
  0
LINE
  8
0
 10
12.7005
 20
208.122
 11
13.085
 21
208.429
  0
LINE
  8
0
 10
13.085
 20
208.429
 11
13.5428
 21
208.609
  0
LINE
  8
0
 10
13.5428
 20
208.609
 11
14.0333
 21
208.645
  0
LINE
  8
0
 10
14.0333
 20
208.645
 11
14.5128
 21
208.536
  0
LINE
  8
0
 10
14.5128
 20
208.536
 11
14.9388
 21
208.29
  0
LINE
  8
0
 10
14.9388
 20
208.29
 11
15.2733
 21
207.929
  0
LINE
  8
0
 10
15.2733
 20
207.929
 11
15.4867
 21
207.486
  0
LINE
  8
0
 10
15.4867
 20
207.486
 11
15.56
 21
207
  0
LINE
  8
0
 10
15.56
 20
207
 11
15.4867
 21
206.514
  0
LINE
  8
0
 10
15.4867
 20
206.514
 11
15.2733
 21
206.071
  0
LINE
  8
0
 10
15.2733
 20
206.071
 11
14.9388
 21
205.71
  0
LINE
  8
0
 10
14.9388
 20
205.71
 11
14.5128
 21
205.464
  0
LINE
  8
0
 10
14.5128
 20
205.464
 11
14.0333
 21
205.355
  0
LINE
  8
0
 10
14.0333
 20
205.355
 11
13.5428
 21
205.391
  0
LINE
  8
0
 10
-82.1528
 20
196.464
 11
-82.5788
 21
196.71
  0
LINE
  8
0
 10
-82.5788
 20
196.71
 11
-82.9133
 21
197.071
  0
LINE
  8
0
 10
-82.9133
 20
197.071
 11
-83.1267
 21
197.514
  0
LINE
  8
0
 10
-83.1267
 20
197.514
 11
-83.2
 21
198
  0
LINE
  8
0
 10
-83.2
 20
198
 11
-83.1267
 21
198.486
  0
LINE
  8
0
 10
-83.1267
 20
198.486
 11
-82.9133
 21
198.929
  0
LINE
  8
0
 10
-82.9133
 20
198.929
 11
-82.5788
 21
199.29
  0
LINE
  8
0
 10
-82.5788
 20
199.29
 11
-82.1528
 21
199.536
  0
LINE
  8
0
 10
-82.1528
 20
199.536
 11
-81.6733
 21
199.645
  0
LINE
  8
0
 10
-81.6733
 20
199.645
 11
-81.1828
 21
199.609
  0
LINE
  8
0
 10
-81.1828
 20
199.609
 11
-80.725
 21
199.429
  0
LINE
  8
0
 10
-80.725
 20
199.429
 11
-80.3405
 21
199.122
  0
LINE
  8
0
 10
-80.3405
 20
199.122
 11
-80.0634
 21
198.716
  0
LINE
  8
0
 10
-80.0634
 20
198.716
 11
-79.9184
 21
198.246
  0
LINE
  8
0
 10
-79.9184
 20
198.246
 11
-79.9184
 21
197.754
  0
LINE
  8
0
 10
-79.9184
 20
197.754
 11
-80.0634
 21
197.284
  0
LINE
  8
0
 10
-80.0634
 20
197.284
 11
-80.3405
 21
196.878
  0
LINE
  8
0
 10
-80.3405
 20
196.878
 11
-80.725
 21
196.571
  0
LINE
  8
0
 10
-80.725
 20
196.571
 11
-81.1828
 21
196.391
  0
LINE
  8
0
 10
-81.1828
 20
196.391
 11
-81.6733
 21
196.355
  0
LINE
  8
0
 10
-81.6733
 20
196.355
 11
-82.1528
 21
196.464
  0
LINE
  8
0
 10
-109.553
 20
176.464
 11
-109.979
 21
176.71
  0
LINE
  8
0
 10
-109.979
 20
176.71
 11
-110.313
 21
177.071
  0
LINE
  8
0
 10
-110.313
 20
177.071
 11
-110.527
 21
177.514
  0
LINE
  8
0
 10
-110.527
 20
177.514
 11
-110.6
 21
178
  0
LINE
  8
0
 10
-110.6
 20
178
 11
-110.527
 21
178.486
  0
LINE
  8
0
 10
-110.527
 20
178.486
 11
-110.313
 21
178.929
  0
LINE
  8
0
 10
-110.313
 20
178.929
 11
-109.979
 21
179.29
  0
LINE
  8
0
 10
-109.979
 20
179.29
 11
-109.553
 21
179.536
  0
LINE
  8
0
 10
-109.553
 20
179.536
 11
-109.073
 21
179.645
  0
LINE
  8
0
 10
-109.073
 20
179.645
 11
-108.583
 21
179.609
  0
LINE
  8
0
 10
-108.583
 20
179.609
 11
-108.125
 21
179.429
  0
LINE
  8
0
 10
-108.125
 20
179.429
 11
-107.74
 21
179.122
  0
LINE
  8
0
 10
-107.74
 20
179.122
 11
-107.463
 21
178.716
  0
LINE
  8
0
 10
-107.463
 20
178.716
 11
-107.318
 21
178.246
  0
LINE
  8
0
 10
-107.318
 20
178.246
 11
-107.318
 21
177.754
  0
LINE
  8
0
 10
-107.318
 20
177.754
 11
-107.463
 21
177.284
  0
LINE
  8
0
 10
-107.463
 20
177.284
 11
-107.74
 21
176.878
  0
LINE
  8
0
 10
-107.74
 20
176.878
 11
-108.125
 21
176.571
  0
LINE
  8
0
 10
-108.125
 20
176.571
 11
-108.583
 21
176.391
  0
LINE
  8
0
 10
-108.583
 20
176.391
 11
-109.073
 21
176.355
  0
LINE
  8
0
 10
-109.073
 20
176.355
 11
-109.553
 21
176.464
  0
LINE
  8
0
 10
-38.6272
 20
167.716
 11
-39.085
 21
167.896
  0
LINE
  8
0
 10
-39.085
 20
167.896
 11
-39.4695
 21
168.202
  0
LINE
  8
0
 10
-39.4695
 20
168.202
 11
-39.7466
 21
168.609
  0
LINE
  8
0
 10
-39.7466
 20
168.609
 11
-39.8916
 21
169.079
  0
LINE
  8
0
 10
-39.8916
 20
169.079
 11
-39.8916
 21
169.57
  0
LINE
  8
0
 10
-39.8916
 20
169.57
 11
-39.7466
 21
170.04
  0
LINE
  8
0
 10
-39.7466
 20
170.04
 11
-39.4695
 21
170.447
  0
LINE
  8
0
 10
-39.4695
 20
170.447
 11
-39.085
 21
170.754
  0
LINE
  8
0
 10
-39.085
 20
170.754
 11
-38.6272
 21
170.933
  0
LINE
  8
0
 10
-38.6272
 20
170.933
 11
-38.1367
 21
170.97
  0
LINE
  8
0
 10
-38.1367
 20
170.97
 11
-37.6572
 21
170.861
  0
LINE
  8
0
 10
-37.6572
 20
170.861
 11
-37.2312
 21
170.615
  0
LINE
  8
0
 10
-37.2312
 20
170.615
 11
-36.8967
 21
170.254
  0
LINE
  8
0
 10
-36.8967
 20
170.254
 11
-36.6833
 21
169.811
  0
LINE
  8
0
 10
-36.6833
 20
169.811
 11
-36.61
 21
169.325
  0
LINE
  8
0
 10
-36.61
 20
169.325
 11
-36.6833
 21
168.838
  0
LINE
  8
0
 10
-36.6833
 20
168.838
 11
-36.8967
 21
168.395
  0
LINE
  8
0
 10
-36.8967
 20
168.395
 11
-37.2312
 21
168.035
  0
LINE
  8
0
 10
-37.2312
 20
168.035
 11
-37.6572
 21
167.789
  0
LINE
  8
0
 10
-37.6572
 20
167.789
 11
-38.1367
 21
167.679
  0
LINE
  8
0
 10
-38.1367
 20
167.679
 11
-38.6272
 21
167.716
  0
LINE
  8
0
 10
-38.6272
 20
153.067
 11
-39.085
 21
153.246
  0
LINE
  8
0
 10
-39.085
 20
153.246
 11
-39.4695
 21
153.553
  0
LINE
  8
0
 10
-39.4695
 20
153.553
 11
-39.7466
 21
153.96
  0
LINE
  8
0
 10
-39.7466
 20
153.96
 11
-39.8916
 21
154.429
  0
LINE
  8
0
 10
-39.8916
 20
154.429
 11
-39.8916
 21
154.921
  0
LINE
  8
0
 10
-39.8916
 20
154.921
 11
-39.7466
 21
155.391
  0
LINE
  8
0
 10
-39.7466
 20
155.391
 11
-39.4695
 21
155.798
  0
LINE
  8
0
 10
-39.4695
 20
155.798
 11
-39.085
 21
156.104
  0
LINE
  8
0
 10
-39.085
 20
156.104
 11
-38.6272
 21
156.284
  0
LINE
  8
0
 10
-38.6272
 20
156.284
 11
-38.1367
 21
156.321
  0
LINE
  8
0
 10
-38.1367
 20
156.321
 11
-37.6572
 21
156.211
  0
LINE
  8
0
 10
-37.6572
 20
156.211
 11
-37.2312
 21
155.965
  0
LINE
  8
0
 10
-37.2312
 20
155.965
 11
-36.8967
 21
155.605
  0
LINE
  8
0
 10
-36.8967
 20
155.605
 11
-36.6833
 21
155.162
  0
LINE
  8
0
 10
-36.6833
 20
155.162
 11
-36.61
 21
154.675
  0
LINE
  8
0
 10
-36.61
 20
154.675
 11
-36.6833
 21
154.189
  0
LINE
  8
0
 10
-36.6833
 20
154.189
 11
-36.8967
 21
153.746
  0
LINE
  8
0
 10
-36.8967
 20
153.746
 11
-37.2312
 21
153.385
  0
LINE
  8
0
 10
-37.2312
 20
153.385
 11
-37.6572
 21
153.139
  0
LINE
  8
0
 10
-37.6572
 20
153.139
 11
-38.1367
 21
153.03
  0
LINE
  8
0
 10
-38.1367
 20
153.03
 11
-38.6272
 21
153.067
  0
LINE
  8
0
 10
94.8472
 20
116.964
 11
94.4212
 21
117.21
  0
LINE
  8
0
 10
94.4212
 20
117.21
 11
94.0867
 21
117.571
  0
LINE
  8
0
 10
94.0867
 20
117.571
 11
93.8733
 21
118.014
  0
LINE
  8
0
 10
93.8733
 20
118.014
 11
93.8
 21
118.5
  0
LINE
  8
0
 10
93.8
 20
118.5
 11
93.8733
 21
118.986
  0
LINE
  8
0
 10
93.8733
 20
118.986
 11
94.0867
 21
119.429
  0
LINE
  8
0
 10
94.0867
 20
119.429
 11
94.4212
 21
119.79
  0
LINE
  8
0
 10
94.4212
 20
119.79
 11
94.8472
 21
120.036
  0
LINE
  8
0
 10
94.8472
 20
120.036
 11
95.3267
 21
120.145
  0
LINE
  8
0
 10
95.3267
 20
120.145
 11
95.8172
 21
120.109
  0
LINE
  8
0
 10
95.8172
 20
120.109
 11
96.275
 21
119.929
  0
LINE
  8
0
 10
96.275
 20
119.929
 11
96.6595
 21
119.622
  0
LINE
  8
0
 10
96.6595
 20
119.622
 11
96.9366
 21
119.216
  0
LINE
  8
0
 10
96.9366
 20
119.216
 11
97.0816
 21
118.746
  0
LINE
  8
0
 10
97.0816
 20
118.746
 11
97.0816
 21
118.254
  0
LINE
  8
0
 10
97.0816
 20
118.254
 11
96.9366
 21
117.784
  0
LINE
  8
0
 10
96.9366
 20
117.784
 11
96.6595
 21
117.378
  0
LINE
  8
0
 10
96.6595
 20
117.378
 11
96.275
 21
117.071
  0
LINE
  8
0
 10
96.275
 20
117.071
 11
95.8172
 21
116.891
  0
LINE
  8
0
 10
95.8172
 20
116.891
 11
95.3267
 21
116.855
  0
LINE
  8
0
 10
95.3267
 20
116.855
 11
94.8472
 21
116.964
  0
LINE
  8
0
 10
67.4472
 20
96.9641
 11
67.0212
 21
97.21
  0
LINE
  8
0
 10
67.0212
 20
97.21
 11
66.6867
 21
97.5705
  0
LINE
  8
0
 10
66.6867
 20
97.5705
 11
66.4733
 21
98.0136
  0
LINE
  8
0
 10
66.4733
 20
98.0136
 11
66.4
 21
98.5
  0
LINE
  8
0
 10
66.4
 20
98.5
 11
66.4733
 21
98.9863
  0
LINE
  8
0
 10
66.4733
 20
98.9863
 11
66.6867
 21
99.4295
  0
LINE
  8
0
 10
66.6867
 20
99.4295
 11
67.0212
 21
99.79
  0
LINE
  8
0
 10
67.0212
 20
99.79
 11
67.4472
 21
100.036
  0
LINE
  8
0
 10
67.4472
 20
100.036
 11
67.9267
 21
100.145
  0
LINE
  8
0
 10
67.9267
 20
100.145
 11
68.4171
 21
100.109
  0
LINE
  8
0
 10
68.4171
 20
100.109
 11
68.875
 21
99.9289
  0
LINE
  8
0
 10
68.875
 20
99.9289
 11
69.2595
 21
99.6223
  0
LINE
  8
0
 10
69.2595
 20
99.6223
 11
69.5366
 21
99.2159
  0
LINE
  8
0
 10
69.5366
 20
99.2159
 11
69.6816
 21
98.7459
  0
LINE
  8
0
 10
69.6816
 20
98.7459
 11
69.6816
 21
98.2541
  0
LINE
  8
0
 10
69.6816
 20
98.2541
 11
69.5366
 21
97.7841
  0
LINE
  8
0
 10
69.5366
 20
97.7841
 11
69.2595
 21
97.3777
  0
LINE
  8
0
 10
69.2595
 20
97.3777
 11
68.875
 21
97.071
  0
LINE
  8
0
 10
68.875
 20
97.071
 11
68.4171
 21
96.8914
  0
LINE
  8
0
 10
68.4171
 20
96.8914
 11
67.9267
 21
96.8546
  0
LINE
  8
0
 10
67.9267
 20
96.8546
 11
67.4472
 21
96.9641
  0
LINE
  8
0
 10
-38.8628
 20
67.9386
 11
-39.2888
 21
68.1846
  0
LINE
  8
0
 10
-39.2888
 20
68.1846
 11
-39.6233
 21
68.5451
  0
LINE
  8
0
 10
-39.6233
 20
68.5451
 11
-39.8367
 21
68.9882
  0
LINE
  8
0
 10
-39.8367
 20
68.9882
 11
-39.91
 21
69.4746
  0
LINE
  8
0
 10
-39.91
 20
69.4746
 11
-39.8367
 21
69.9609
  0
LINE
  8
0
 10
-39.8367
 20
69.9609
 11
-39.6233
 21
70.4041
  0
LINE
  8
0
 10
-39.6233
 20
70.4041
 11
-39.2888
 21
70.7646
  0
LINE
  8
0
 10
-39.2888
 20
70.7646
 11
-38.8628
 21
71.0105
  0
LINE
  8
0
 10
-38.8628
 20
71.0105
 11
-38.3833
 21
71.12
  0
LINE
  8
0
 10
-38.3833
 20
71.12
 11
-37.8928
 21
71.0832
  0
LINE
  8
0
 10
-37.8928
 20
71.0832
 11
-37.435
 21
70.9035
  0
LINE
  8
0
 10
-37.435
 20
70.9035
 11
-37.0505
 21
70.5969
  0
LINE
  8
0
 10
-37.0505
 20
70.5969
 11
-36.7734
 21
70.1905
  0
LINE
  8
0
 10
-36.7734
 20
70.1905
 11
-36.6284
 21
69.7205
  0
LINE
  8
0
 10
-36.6284
 20
69.7205
 11
-36.6284
 21
69.2287
  0
LINE
  8
0
 10
-36.6284
 20
69.2287
 11
-36.7734
 21
68.7587
  0
LINE
  8
0
 10
-36.7734
 20
68.7587
 11
-37.0505
 21
68.3523
  0
LINE
  8
0
 10
-37.0505
 20
68.3523
 11
-37.435
 21
68.0456
  0
LINE
  8
0
 10
-37.435
 20
68.0456
 11
-37.8928
 21
67.8659
  0
LINE
  8
0
 10
-37.8928
 20
67.8659
 11
-38.3833
 21
67.8292
  0
LINE
  8
0
 10
-38.3833
 20
67.8292
 11
-38.8628
 21
67.9386
  0
LINE
  8
0
 10
-38.8628
 20
53.2895
 11
-39.2888
 21
53.5354
  0
LINE
  8
0
 10
-39.2888
 20
53.5354
 11
-39.6233
 21
53.8959
  0
LINE
  8
0
 10
-39.6233
 20
53.8959
 11
-39.8367
 21
54.3391
  0
LINE
  8
0
 10
-39.8367
 20
54.3391
 11
-39.91
 21
54.8254
  0
LINE
  8
0
 10
-39.91
 20
54.8254
 11
-39.8367
 21
55.3118
  0
LINE
  8
0
 10
-39.8367
 20
55.3118
 11
-39.6233
 21
55.7549
  0
LINE
  8
0
 10
-39.6233
 20
55.7549
 11
-39.2888
 21
56.1154
  0
LINE
  8
0
 10
-39.2888
 20
56.1154
 11
-38.8628
 21
56.3614
  0
LINE
  8
0
 10
-38.8628
 20
56.3614
 11
-38.3833
 21
56.4708
  0
LINE
  8
0
 10
-38.3833
 20
56.4708
 11
-37.8928
 21
56.434
  0
LINE
  8
0
 10
-37.8928
 20
56.434
 11
-37.435
 21
56.2543
  0
LINE
  8
0
 10
-37.435
 20
56.2543
 11
-37.0505
 21
55.9477
  0
LINE
  8
0
 10
-37.0505
 20
55.9477
 11
-36.7734
 21
55.5413
  0
LINE
  8
0
 10
-36.7734
 20
55.5413
 11
-36.6284
 21
55.0713
  0
LINE
  8
0
 10
-36.6284
 20
55.0713
 11
-36.6284
 21
54.5795
  0
LINE
  8
0
 10
-36.6284
 20
54.5795
 11
-36.7734
 21
54.1095
  0
LINE
  8
0
 10
-36.7734
 20
54.1095
 11
-37.0505
 21
53.7031
  0
LINE
  8
0
 10
-37.0505
 20
53.7031
 11
-37.435
 21
53.3965
  0
LINE
  8
0
 10
-37.435
 20
53.3965
 11
-37.8928
 21
53.2168
  0
LINE
  8
0
 10
-37.8928
 20
53.2168
 11
-38.3833
 21
53.18
  0
LINE
  8
0
 10
-38.3833
 20
53.18
 11
-38.8628
 21
53.2895
  0
LINE
  8
0
 10
-82.1528
 20
37.4641
 11
-82.5788
 21
37.71
  0
LINE
  8
0
 10
-82.5788
 20
37.71
 11
-82.9133
 21
38.0705
  0
LINE
  8
0
 10
-82.9133
 20
38.0705
 11
-83.1267
 21
38.5136
  0
LINE
  8
0
 10
-83.1267
 20
38.5136
 11
-83.2
 21
39
  0
LINE
  8
0
 10
-83.2
 20
39
 11
-83.1267
 21
39.4863
  0
LINE
  8
0
 10
-83.1267
 20
39.4863
 11
-82.9133
 21
39.9295
  0
LINE
  8
0
 10
-82.9133
 20
39.9295
 11
-82.5788
 21
40.29
  0
LINE
  8
0
 10
-82.5788
 20
40.29
 11
-82.1528
 21
40.5359
  0
LINE
  8
0
 10
-82.1528
 20
40.5359
 11
-81.6733
 21
40.6454
  0
LINE
  8
0
 10
-81.6733
 20
40.6454
 11
-81.1828
 21
40.6086
  0
LINE
  8
0
 10
-81.1828
 20
40.6086
 11
-80.725
 21
40.4289
  0
LINE
  8
0
 10
-80.725
 20
40.4289
 11
-80.3405
 21
40.1223
  0
LINE
  8
0
 10
-80.3405
 20
40.1223
 11
-80.0634
 21
39.7159
  0
LINE
  8
0
 10
-80.0634
 20
39.7159
 11
-79.9184
 21
39.2459
  0
LINE
  8
0
 10
-79.9184
 20
39.2459
 11
-79.9184
 21
38.7541
  0
LINE
  8
0
 10
-79.9184
 20
38.7541
 11
-80.0634
 21
38.2841
  0
LINE
  8
0
 10
-80.0634
 20
38.2841
 11
-80.3405
 21
37.8777
  0
LINE
  8
0
 10
-80.3405
 20
37.8777
 11
-80.725
 21
37.571
  0
LINE
  8
0
 10
-80.725
 20
37.571
 11
-81.1828
 21
37.3914
  0
LINE
  8
0
 10
-81.1828
 20
37.3914
 11
-81.6733
 21
37.3546
  0
LINE
  8
0
 10
-81.6733
 20
37.3546
 11
-82.1528
 21
37.4641
  0
LINE
  8
0
 10
-109.553
 20
17.4641
 11
-109.979
 21
17.71
  0
LINE
  8
0
 10
-109.979
 20
17.71
 11
-110.313
 21
18.0705
  0
LINE
  8
0
 10
-110.313
 20
18.0705
 11
-110.527
 21
18.5136
  0
LINE
  8
0
 10
-110.527
 20
18.5136
 11
-110.6
 21
19
  0
LINE
  8
0
 10
-110.6
 20
19
 11
-110.527
 21
19.4863
  0
LINE
  8
0
 10
-110.527
 20
19.4863
 11
-110.313
 21
19.9295
  0
LINE
  8
0
 10
-110.313
 20
19.9295
 11
-109.979
 21
20.29
  0
LINE
  8
0
 10
-109.979
 20
20.29
 11
-109.553
 21
20.5359
  0
LINE
  8
0
 10
-109.553
 20
20.5359
 11
-109.073
 21
20.6454
  0
LINE
  8
0
 10
-109.073
 20
20.6454
 11
-108.583
 21
20.6086
  0
LINE
  8
0
 10
-108.583
 20
20.6086
 11
-108.125
 21
20.4289
  0
LINE
  8
0
 10
-108.125
 20
20.4289
 11
-107.74
 21
20.1223
  0
LINE
  8
0
 10
-107.74
 20
20.1223
 11
-107.463
 21
19.7159
  0
LINE
  8
0
 10
-107.463
 20
19.7159
 11
-107.318
 21
19.2459
  0
LINE
  8
0
 10
-107.318
 20
19.2459
 11
-107.318
 21
18.7541
  0
LINE
  8
0
 10
-107.318
 20
18.7541
 11
-107.463
 21
18.2841
  0
LINE
  8
0
 10
-107.463
 20
18.2841
 11
-107.74
 21
17.8777
  0
LINE
  8
0
 10
-107.74
 20
17.8777
 11
-108.125
 21
17.571
  0
LINE
  8
0
 10
-108.125
 20
17.571
 11
-108.583
 21
17.3914
  0
LINE
  8
0
 10
-108.583
 20
17.3914
 11
-109.073
 21
17.3546
  0
LINE
  8
0
 10
-109.073
 20
17.3546
 11
-109.553
 21
17.4641
  0
LINE
  8
0
 10
-111.728
 20
2.84514
 11
-112.134
 21
3.1161
  0
LINE
  8
0
 10
-112.134
 20
3.1161
 11
-112.405
 21
3.52164
  0
LINE
  8
0
 10
-112.405
 20
3.52164
 11
-112.5
 21
4
  0
LINE
  8
0
 10
-112.5
 20
4
 11
-112.405
 21
4.47835
  0
LINE
  8
0
 10
-112.405
 20
4.47835
 11
-112.134
 21
4.88388
  0
LINE
  8
0
 10
-112.134
 20
4.88388
 11
-111.728
 21
5.15485
  0
LINE
  8
0
 10
-111.728
 20
5.15485
 11
-111.25
 21
5.25
  0
LINE
  8
0
 10
-111.25
 20
5.25
 11
-110.772
 21
5.15485
  0
LINE
  8
0
 10
-110.772
 20
5.15485
 11
-110.366
 21
4.88388
  0
LINE
  8
0
 10
-110.366
 20
4.88388
 11
-110.095
 21
4.47835
  0
LINE
  8
0
 10
-110.095
 20
4.47835
 11
-110
 21
4
  0
LINE
  8
0
 10
-110
 20
4
 11
-110.095
 21
3.52164
  0
LINE
  8
0
 10
-110.095
 20
3.52164
 11
-110.366
 21
3.1161
  0
LINE
  8
0
 10
-110.366
 20
3.1161
 11
-110.772
 21
2.84514
  0
LINE
  8
0
 10
-110.772
 20
2.84514
 11
-111.25
 21
2.75
  0
LINE
  8
0
 10
-111.25
 20
2.75
 11
-111.728
 21
2.84514
  0
LINE
  8
0
 10
97.2716
 20
2.84514
 11
96.8661
 21
3.1161
  0
LINE
  8
0
 10
96.8661
 20
3.1161
 11
96.5951
 21
3.52164
  0
LINE
  8
0
 10
96.5951
 20
3.52164
 11
96.5
 21
4
  0
LINE
  8
0
 10
96.5
 20
4
 11
96.5951
 21
4.47835
  0
LINE
  8
0
 10
96.5951
 20
4.47835
 11
96.8661
 21
4.88388
  0
LINE
  8
0
 10
96.8661
 20
4.88388
 11
97.2716
 21
5.15485
  0
LINE
  8
0
 10
97.2716
 20
5.15485
 11
97.75
 21
5.25
  0
LINE
  8
0
 10
97.75
 20
5.25
 11
98.2283
 21
5.15485
  0
LINE
  8
0
 10
98.2283
 20
5.15485
 11
98.6339
 21
4.88388
  0
LINE
  8
0
 10
98.6339
 20
4.88388
 11
98.9048
 21
4.47835
  0
LINE
  8
0
 10
98.9048
 20
4.47835
 11
99
 21
4
  0
LINE
  8
0
 10
99
 20
4
 11
98.9048
 21
3.52164
  0
LINE
  8
0
 10
98.9048
 20
3.52164
 11
98.6339
 21
3.1161
  0
LINE
  8
0
 10
98.6339
 20
3.1161
 11
98.2283
 21
2.84514
  0
LINE
  8
0
 10
98.2283
 20
2.84514
 11
97.75
 21
2.75
  0
LINE
  8
0
 10
97.75
 20
2.75
 11
97.2716
 21
2.84514
  0
ENDSEC
  0
SECTION
  2
OBJECTS
  0
DICTIONARY
  0
ENDSEC
  0
EOF
