  0
SECTION
  2
BLOCKS
  0
ENDSEC
  0
SECTION
  2
ENTITIES
  0
LINE
  8
0
 10
-237.25
 20
-196
 11
-237.193
 21
-197.307
  0
LINE
  8
0
 10
-237.193
 20
-197.307
 11
-237.022
 21
-198.605
  0
LINE
  8
0
 10
-237.022
 20
-198.605
 11
-236.739
 21
-199.882
  0
LINE
  8
0
 10
-236.739
 20
-199.882
 11
-236.345
 21
-201.13
  0
LINE
  8
0
 10
-236.345
 20
-201.13
 11
-235.845
 21
-202.339
  0
LINE
  8
0
 10
-235.845
 20
-202.339
 11
-235.24
 21
-203.5
  0
LINE
  8
0
 10
-235.24
 20
-203.5
 11
-234.537
 21
-204.604
  0
LINE
  8
0
 10
-234.537
 20
-204.604
 11
-233.741
 21
-205.642
  0
LINE
  8
0
 10
-233.741
 20
-205.642
 11
-232.857
 21
-206.607
  0
LINE
  8
0
 10
-232.857
 20
-206.607
 11
-231.892
 21
-207.491
  0
LINE
  8
0
 10
-231.892
 20
-207.491
 11
-230.854
 21
-208.287
  0
LINE
  8
0
 10
-230.854
 20
-208.287
 11
-229.75
 21
-208.99
  0
LINE
  8
0
 10
-229.75
 20
-208.99
 11
-228.589
 21
-209.595
  0
LINE
  8
0
 10
-228.589
 20
-209.595
 11
-227.38
 21
-210.095
  0
LINE
  8
0
 10
-227.38
 20
-210.095
 11
-226.132
 21
-210.489
  0
LINE
  8
0
 10
-226.132
 20
-210.489
 11
-224.855
 21
-210.772
  0
LINE
  8
0
 10
-224.855
 20
-210.772
 11
-223.557
 21
-210.943
  0
LINE
  8
0
 10
-223.557
 20
-210.943
 11
-222.25
 21
-211
  0
LINE
  8
0
 10
-222.25
 20
-211
 11
222.25
 21
-211
  0
LINE
  8
0
 10
222.25
 20
-211
 11
223.557
 21
-210.943
  0
LINE
  8
0
 10
223.557
 20
-210.943
 11
224.855
 21
-210.772
  0
LINE
  8
0
 10
224.855
 20
-210.772
 11
226.132
 21
-210.489
  0
LINE
  8
0
 10
226.132
 20
-210.489
 11
227.38
 21
-210.095
  0
LINE
  8
0
 10
227.38
 20
-210.095
 11
228.589
 21
-209.595
  0
LINE
  8
0
 10
228.589
 20
-209.595
 11
229.75
 21
-208.99
  0
LINE
  8
0
 10
229.75
 20
-208.99
 11
230.854
 21
-208.287
  0
LINE
  8
0
 10
230.854
 20
-208.287
 11
231.892
 21
-207.491
  0
LINE
  8
0
 10
231.892
 20
-207.491
 11
232.857
 21
-206.607
  0
LINE
  8
0
 10
232.857
 20
-206.607
 11
233.741
 21
-205.642
  0
LINE
  8
0
 10
233.741
 20
-205.642
 11
234.537
 21
-204.604
  0
LINE
  8
0
 10
234.537
 20
-204.604
 11
235.24
 21
-203.5
  0
LINE
  8
0
 10
235.24
 20
-203.5
 11
235.845
 21
-202.339
  0
LINE
  8
0
 10
235.845
 20
-202.339
 11
236.345
 21
-201.13
  0
LINE
  8
0
 10
236.345
 20
-201.13
 11
236.739
 21
-199.882
  0
LINE
  8
0
 10
236.739
 20
-199.882
 11
237.022
 21
-198.605
  0
LINE
  8
0
 10
237.022
 20
-198.605
 11
237.193
 21
-197.307
  0
LINE
  8
0
 10
237.193
 20
-197.307
 11
237.25
 21
-196
  0
LINE
  8
0
 10
237.25
 20
-196
 11
237.25
 21
196
  0
LINE
  8
0
 10
237.25
 20
196
 11
237.193
 21
197.307
  0
LINE
  8
0
 10
237.193
 20
197.307
 11
237.022
 21
198.605
  0
LINE
  8
0
 10
237.022
 20
198.605
 11
236.739
 21
199.882
  0
LINE
  8
0
 10
236.739
 20
199.882
 11
236.345
 21
201.13
  0
LINE
  8
0
 10
236.345
 20
201.13
 11
235.845
 21
202.339
  0
LINE
  8
0
 10
235.845
 20
202.339
 11
235.24
 21
203.5
  0
LINE
  8
0
 10
235.24
 20
203.5
 11
234.537
 21
204.604
  0
LINE
  8
0
 10
234.537
 20
204.604
 11
233.741
 21
205.642
  0
LINE
  8
0
 10
233.741
 20
205.642
 11
232.857
 21
206.607
  0
LINE
  8
0
 10
232.857
 20
206.607
 11
231.892
 21
207.491
  0
LINE
  8
0
 10
231.892
 20
207.491
 11
230.854
 21
208.287
  0
LINE
  8
0
 10
230.854
 20
208.287
 11
229.75
 21
208.99
  0
LINE
  8
0
 10
229.75
 20
208.99
 11
228.589
 21
209.595
  0
LINE
  8
0
 10
228.589
 20
209.595
 11
227.38
 21
210.095
  0
LINE
  8
0
 10
227.38
 20
210.095
 11
226.132
 21
210.489
  0
LINE
  8
0
 10
226.132
 20
210.489
 11
224.855
 21
210.772
  0
LINE
  8
0
 10
224.855
 20
210.772
 11
223.557
 21
210.943
  0
LINE
  8
0
 10
223.557
 20
210.943
 11
222.25
 21
211
  0
LINE
  8
0
 10
222.25
 20
211
 11
-222.25
 21
211
  0
LINE
  8
0
 10
-222.25
 20
211
 11
-223.557
 21
210.943
  0
LINE
  8
0
 10
-223.557
 20
210.943
 11
-224.855
 21
210.772
  0
LINE
  8
0
 10
-224.855
 20
210.772
 11
-226.132
 21
210.489
  0
LINE
  8
0
 10
-226.132
 20
210.489
 11
-227.38
 21
210.095
  0
LINE
  8
0
 10
-227.38
 20
210.095
 11
-228.589
 21
209.595
  0
LINE
  8
0
 10
-228.589
 20
209.595
 11
-229.75
 21
208.99
  0
LINE
  8
0
 10
-229.75
 20
208.99
 11
-230.854
 21
208.287
  0
LINE
  8
0
 10
-230.854
 20
208.287
 11
-231.892
 21
207.491
  0
LINE
  8
0
 10
-231.892
 20
207.491
 11
-232.857
 21
206.607
  0
LINE
  8
0
 10
-232.857
 20
206.607
 11
-233.741
 21
205.642
  0
LINE
  8
0
 10
-233.741
 20
205.642
 11
-234.537
 21
204.604
  0
LINE
  8
0
 10
-234.537
 20
204.604
 11
-235.24
 21
203.5
  0
LINE
  8
0
 10
-235.24
 20
203.5
 11
-235.845
 21
202.339
  0
LINE
  8
0
 10
-235.845
 20
202.339
 11
-236.345
 21
201.13
  0
LINE
  8
0
 10
-236.345
 20
201.13
 11
-236.739
 21
199.882
  0
LINE
  8
0
 10
-236.739
 20
199.882
 11
-237.022
 21
198.605
  0
LINE
  8
0
 10
-237.022
 20
198.605
 11
-237.193
 21
197.307
  0
LINE
  8
0
 10
-237.193
 20
197.307
 11
-237.25
 21
196
  0
LINE
  8
0
 10
-237.25
 20
196
 11
-237.25
 21
-196
  0
LINE
  8
0
 10
-218.111
 20
64.4607
 11
-218.111
 21
64.9393
  0
LINE
  8
0
 10
-218.111
 20
64.9393
 11
-217.889
 21
65.3631
  0
LINE
  8
0
 10
-217.889
 20
65.3631
 11
-217.495
 21
65.635
  0
LINE
  8
0
 10
-217.495
 20
65.635
 11
-217.019
 21
65.6927
  0
LINE
  8
0
 10
-217.019
 20
65.6927
 11
-216.572
 21
65.523
  0
LINE
  8
0
 10
-216.572
 20
65.523
 11
-216.255
 21
65.1647
  0
LINE
  8
0
 10
-216.255
 20
65.1647
 11
-216.14
 21
64.7
  0
LINE
  8
0
 10
-216.14
 20
64.7
 11
-216.255
 21
64.2353
  0
LINE
  8
0
 10
-216.255
 20
64.2353
 11
-216.572
 21
63.877
  0
LINE
  8
0
 10
-216.572
 20
63.877
 11
-217.019
 21
63.7073
  0
LINE
  8
0
 10
-217.019
 20
63.7073
 11
-217.495
 21
63.765
  0
LINE
  8
0
 10
-217.495
 20
63.765
 11
-217.889
 21
64.0369
  0
LINE
  8
0
 10
-217.889
 20
64.0369
 11
-218.111
 21
64.4607
  0
LINE
  8
0
 10
-208.742
 20
-0.246243
 11
-208.742
 21
0.246243
  0
LINE
  8
0
 10
-208.742
 20
0.246243
 11
-208.682
 21
0.734998
  0
LINE
  8
0
 10
-208.682
 20
0.734998
 11
-208.562
 21
1.21261
  0
LINE
  8
0
 10
-208.562
 20
1.21261
 11
-208.384
 21
1.67184
  0
LINE
  8
0
 10
-208.384
 20
1.67184
 11
-208.151
 21
2.10573
  0
LINE
  8
0
 10
-208.151
 20
2.10573
 11
-207.866
 21
2.5077
  0
LINE
  8
0
 10
-207.866
 20
2.5077
 11
-207.535
 21
2.87165
  0
LINE
  8
0
 10
-207.535
 20
2.87165
 11
-207.161
 21
3.19207
  0
LINE
  8
0
 10
-207.161
 20
3.19207
 11
-206.75
 21
3.4641
  0
LINE
  8
0
 10
-206.75
 20
3.4641
 11
-206.309
 21
3.68362
  0
LINE
  8
0
 10
-206.309
 20
3.68362
 11
-205.845
 21
3.8473
  0
LINE
  8
0
 10
-205.845
 20
3.8473
 11
-205.364
 21
3.95266
  0
LINE
  8
0
 10
-205.364
 20
3.95266
 11
-204.873
 21
3.9981
  0
LINE
  8
0
 10
-204.873
 20
3.9981
 11
-204.381
 21
3.98294
  0
LINE
  8
0
 10
-204.381
 20
3.98294
 11
-203.894
 21
3.90739
  0
LINE
  8
0
 10
-203.894
 20
3.90739
 11
-203.421
 21
3.77262
  0
LINE
  8
0
 10
-203.421
 20
3.77262
 11
-202.967
 21
3.58065
  0
LINE
  8
0
 10
-202.967
 20
3.58065
 11
-202.541
 21
3.33441
  0
LINE
  8
0
 10
-202.541
 20
3.33441
 11
-202.148
 21
3.03762
  0
LINE
  8
0
 10
-202.148
 20
3.03762
 11
-201.794
 21
2.69478
  0
LINE
  8
0
 10
-201.794
 20
2.69478
 11
-201.485
 21
2.3111
  0
LINE
  8
0
 10
-201.485
 20
2.3111
 11
-201.226
 21
1.89237
  0
LINE
  8
0
 10
-201.226
 20
1.89237
 11
-201.02
 21
1.44497
  0
LINE
  8
0
 10
-201.02
 20
1.44497
 11
-200.871
 21
0.975655
  0
LINE
  8
0
 10
-200.871
 20
0.975655
 11
-200.78
 21
0.491552
  0
LINE
  8
0
 10
-200.78
 20
0.491552
 11
-200.75
 21
0
  0
LINE
  8
0
 10
-200.75
 20
0
 11
-200.78
 21
-0.491552
  0
LINE
  8
0
 10
-200.78
 20
-0.491552
 11
-200.871
 21
-0.975655
  0
LINE
  8
0
 10
-200.871
 20
-0.975655
 11
-201.02
 21
-1.44497
  0
LINE
  8
0
 10
-201.02
 20
-1.44497
 11
-201.226
 21
-1.89237
  0
LINE
  8
0
 10
-201.226
 20
-1.89237
 11
-201.485
 21
-2.3111
  0
LINE
  8
0
 10
-201.485
 20
-2.3111
 11
-201.794
 21
-2.69478
  0
LINE
  8
0
 10
-201.794
 20
-2.69478
 11
-202.148
 21
-3.03762
  0
LINE
  8
0
 10
-202.148
 20
-3.03762
 11
-202.541
 21
-3.33441
  0
LINE
  8
0
 10
-202.541
 20
-3.33441
 11
-202.967
 21
-3.58065
  0
LINE
  8
0
 10
-202.967
 20
-3.58065
 11
-203.421
 21
-3.77262
  0
LINE
  8
0
 10
-203.421
 20
-3.77262
 11
-203.894
 21
-3.90739
  0
LINE
  8
0
 10
-203.894
 20
-3.90739
 11
-204.381
 21
-3.98294
  0
LINE
  8
0
 10
-204.381
 20
-3.98294
 11
-204.873
 21
-3.9981
  0
LINE
  8
0
 10
-204.873
 20
-3.9981
 11
-205.364
 21
-3.95266
  0
LINE
  8
0
 10
-205.364
 20
-3.95266
 11
-205.845
 21
-3.8473
  0
LINE
  8
0
 10
-205.845
 20
-3.8473
 11
-206.309
 21
-3.68362
  0
LINE
  8
0
 10
-206.309
 20
-3.68362
 11
-206.75
 21
-3.4641
  0
LINE
  8
0
 10
-206.75
 20
-3.4641
 11
-207.161
 21
-3.19207
  0
LINE
  8
0
 10
-207.161
 20
-3.19207
 11
-207.535
 21
-2.87165
  0
LINE
  8
0
 10
-207.535
 20
-2.87165
 11
-207.866
 21
-2.5077
  0
LINE
  8
0
 10
-207.866
 20
-2.5077
 11
-208.151
 21
-2.10573
  0
LINE
  8
0
 10
-208.151
 20
-2.10573
 11
-208.384
 21
-1.67184
  0
LINE
  8
0
 10
-208.384
 20
-1.67184
 11
-208.562
 21
-1.21261
  0
LINE
  8
0
 10
-208.562
 20
-1.21261
 11
-208.682
 21
-0.734998
  0
LINE
  8
0
 10
-208.682
 20
-0.734998
 11
-208.742
 21
-0.246243
  0
LINE
  8
0
 10
-164.043
 20
190.769
 11
-163.985
 21
191.245
  0
LINE
  8
0
 10
-163.985
 20
191.245
 11
-163.713
 21
191.639
  0
LINE
  8
0
 10
-163.713
 20
191.639
 11
-163.289
 21
191.861
  0
LINE
  8
0
 10
-163.289
 20
191.861
 11
-162.811
 21
191.861
  0
LINE
  8
0
 10
-162.811
 20
191.861
 11
-162.387
 21
191.639
  0
LINE
  8
0
 10
-162.387
 20
191.639
 11
-162.115
 21
191.245
  0
LINE
  8
0
 10
-162.115
 20
191.245
 11
-162.057
 21
190.769
  0
LINE
  8
0
 10
-162.057
 20
190.769
 11
-162.227
 21
190.322
  0
LINE
  8
0
 10
-162.227
 20
190.322
 11
-162.585
 21
190.005
  0
LINE
  8
0
 10
-162.585
 20
190.005
 11
-163.05
 21
189.89
  0
LINE
  8
0
 10
-163.05
 20
189.89
 11
-163.515
 21
190.005
  0
LINE
  8
0
 10
-163.515
 20
190.005
 11
-163.873
 21
190.322
  0
LINE
  8
0
 10
-163.873
 20
190.322
 11
-164.043
 21
190.769
  0
LINE
  8
0
 10
-152.331
 20
64.4607
 11
-152.331
 21
64.9393
  0
LINE
  8
0
 10
-152.331
 20
64.9393
 11
-152.109
 21
65.3631
  0
LINE
  8
0
 10
-152.109
 20
65.3631
 11
-151.715
 21
65.635
  0
LINE
  8
0
 10
-151.715
 20
65.635
 11
-151.239
 21
65.6927
  0
LINE
  8
0
 10
-151.239
 20
65.6927
 11
-150.792
 21
65.523
  0
LINE
  8
0
 10
-150.792
 20
65.523
 11
-150.475
 21
65.1647
  0
LINE
  8
0
 10
-150.475
 20
65.1647
 11
-150.36
 21
64.7
  0
LINE
  8
0
 10
-150.36
 20
64.7
 11
-150.475
 21
64.2353
  0
LINE
  8
0
 10
-150.475
 20
64.2353
 11
-150.792
 21
63.877
  0
LINE
  8
0
 10
-150.792
 20
63.877
 11
-151.239
 21
63.7073
  0
LINE
  8
0
 10
-151.239
 20
63.7073
 11
-151.715
 21
63.765
  0
LINE
  8
0
 10
-151.715
 20
63.765
 11
-152.109
 21
64.0369
  0
LINE
  8
0
 10
-152.109
 20
64.0369
 11
-152.331
 21
64.4607
  0
LINE
  8
0
 10
-107.243
 20
-202.379
 11
-107.073
 21
-201.932
  0
LINE
  8
0
 10
-107.073
 20
-201.932
 11
-106.715
 21
-201.615
  0
LINE
  8
0
 10
-106.715
 20
-201.615
 11
-106.25
 21
-201.5
  0
LINE
  8
0
 10
-106.25
 20
-201.5
 11
-105.785
 21
-201.615
  0
LINE
  8
0
 10
-105.785
 20
-201.615
 11
-105.427
 21
-201.932
  0
LINE
  8
0
 10
-105.427
 20
-201.932
 11
-105.257
 21
-202.379
  0
LINE
  8
0
 10
-105.257
 20
-202.379
 11
-105.315
 21
-202.855
  0
LINE
  8
0
 10
-105.315
 20
-202.855
 11
-105.587
 21
-203.249
  0
LINE
  8
0
 10
-105.587
 20
-203.249
 11
-106.011
 21
-203.471
  0
LINE
  8
0
 10
-106.011
 20
-203.471
 11
-106.489
 21
-203.471
  0
LINE
  8
0
 10
-106.489
 20
-203.471
 11
-106.913
 21
-203.249
  0
LINE
  8
0
 10
-106.913
 20
-203.249
 11
-107.185
 21
-202.855
  0
LINE
  8
0
 10
-107.185
 20
-202.855
 11
-107.243
 21
-202.379
  0
LINE
  8
0
 10
-107.243
 20
202.621
 11
-107.073
 21
203.068
  0
LINE
  8
0
 10
-107.073
 20
203.068
 11
-106.715
 21
203.385
  0
LINE
  8
0
 10
-106.715
 20
203.385
 11
-106.25
 21
203.5
  0
LINE
  8
0
 10
-106.25
 20
203.5
 11
-105.785
 21
203.385
  0
LINE
  8
0
 10
-105.785
 20
203.385
 11
-105.427
 21
203.068
  0
LINE
  8
0
 10
-105.427
 20
203.068
 11
-105.257
 21
202.621
  0
LINE
  8
0
 10
-105.257
 20
202.621
 11
-105.315
 21
202.145
  0
LINE
  8
0
 10
-105.315
 20
202.145
 11
-105.587
 21
201.751
  0
LINE
  8
0
 10
-105.587
 20
201.751
 11
-106.011
 21
201.529
  0
LINE
  8
0
 10
-106.011
 20
201.529
 11
-106.489
 21
201.529
  0
LINE
  8
0
 10
-106.489
 20
201.529
 11
-106.913
 21
201.751
  0
LINE
  8
0
 10
-106.913
 20
201.751
 11
-107.185
 21
202.145
  0
LINE
  8
0
 10
-107.185
 20
202.145
 11
-107.243
 21
202.621
  0
LINE
  8
0
 10
-72.2427
 20
-202.379
 11
-72.073
 21
-201.932
  0
LINE
  8
0
 10
-72.073
 20
-201.932
 11
-71.7147
 21
-201.615
  0
LINE
  8
0
 10
-71.7147
 20
-201.615
 11
-71.25
 21
-201.5
  0
LINE
  8
0
 10
-71.25
 20
-201.5
 11
-70.7853
 21
-201.615
  0
LINE
  8
0
 10
-70.7853
 20
-201.615
 11
-70.427
 21
-201.932
  0
LINE
  8
0
 10
-70.427
 20
-201.932
 11
-70.2573
 21
-202.379
  0
LINE
  8
0
 10
-70.2573
 20
-202.379
 11
-70.315
 21
-202.855
  0
LINE
  8
0
 10
-70.315
 20
-202.855
 11
-70.5869
 21
-203.249
  0
LINE
  8
0
 10
-70.5869
 20
-203.249
 11
-71.0107
 21
-203.471
  0
LINE
  8
0
 10
-71.0107
 20
-203.471
 11
-71.4893
 21
-203.471
  0
LINE
  8
0
 10
-71.4893
 20
-203.471
 11
-71.9131
 21
-203.249
  0
LINE
  8
0
 10
-71.9131
 20
-203.249
 11
-72.185
 21
-202.855
  0
LINE
  8
0
 10
-72.185
 20
-202.855
 11
-72.2427
 21
-202.379
  0
LINE
  8
0
 10
-72.2427
 20
202.621
 11
-72.073
 21
203.068
  0
LINE
  8
0
 10
-72.073
 20
203.068
 11
-71.7147
 21
203.385
  0
LINE
  8
0
 10
-71.7147
 20
203.385
 11
-71.25
 21
203.5
  0
LINE
  8
0
 10
-71.25
 20
203.5
 11
-70.7853
 21
203.385
  0
LINE
  8
0
 10
-70.7853
 20
203.385
 11
-70.427
 21
203.068
  0
LINE
  8
0
 10
-70.427
 20
203.068
 11
-70.2573
 21
202.621
  0
LINE
  8
0
 10
-70.2573
 20
202.621
 11
-70.315
 21
202.145
  0
LINE
  8
0
 10
-70.315
 20
202.145
 11
-70.5869
 21
201.751
  0
LINE
  8
0
 10
-70.5869
 20
201.751
 11
-71.0107
 21
201.529
  0
LINE
  8
0
 10
-71.0107
 20
201.529
 11
-71.4893
 21
201.529
  0
LINE
  8
0
 10
-71.4893
 20
201.529
 11
-71.9131
 21
201.751
  0
LINE
  8
0
 10
-71.9131
 20
201.751
 11
-72.185
 21
202.145
  0
LINE
  8
0
 10
-72.185
 20
202.145
 11
-72.2427
 21
202.621
  0
LINE
  8
0
 10
-39.2309
 20
188.261
 11
-39.2309
 21
188.739
  0
LINE
  8
0
 10
-39.2309
 20
188.739
 11
-39.0085
 21
189.163
  0
LINE
  8
0
 10
-39.0085
 20
189.163
 11
-38.6146
 21
189.435
  0
LINE
  8
0
 10
-38.6146
 20
189.435
 11
-38.1395
 21
189.493
  0
LINE
  8
0
 10
-38.1395
 20
189.493
 11
-37.6919
 21
189.323
  0
LINE
  8
0
 10
-37.6919
 20
189.323
 11
-37.3745
 21
188.965
  0
LINE
  8
0
 10
-37.3745
 20
188.965
 11
-37.26
 21
188.5
  0
LINE
  8
0
 10
-37.26
 20
188.5
 11
-37.3745
 21
188.035
  0
LINE
  8
0
 10
-37.3745
 20
188.035
 11
-37.6919
 21
187.677
  0
LINE
  8
0
 10
-37.6919
 20
187.677
 11
-38.1395
 21
187.507
  0
LINE
  8
0
 10
-38.1395
 20
187.507
 11
-38.6146
 21
187.565
  0
LINE
  8
0
 10
-38.6146
 20
187.565
 11
-39.0085
 21
187.837
  0
LINE
  8
0
 10
-39.0085
 20
187.837
 11
-39.2309
 21
188.261
  0
LINE
  8
0
 10
-28.7309
 20
98.8607
 11
-28.7309
 21
99.3393
  0
LINE
  8
0
 10
-28.7309
 20
99.3393
 11
-28.5085
 21
99.7631
  0
LINE
  8
0
 10
-28.5085
 20
99.7631
 11
-28.1146
 21
100.035
  0
LINE
  8
0
 10
-28.1146
 20
100.035
 11
-27.6395
 21
100.093
  0
LINE
  8
0
 10
-27.6395
 20
100.093
 11
-27.1919
 21
99.923
  0
LINE
  8
0
 10
-27.1919
 20
99.923
 11
-26.8745
 21
99.5647
  0
LINE
  8
0
 10
-26.8745
 20
99.5647
 11
-26.76
 21
99.1
  0
LINE
  8
0
 10
-26.76
 20
99.1
 11
-26.8745
 21
98.6353
  0
LINE
  8
0
 10
-26.8745
 20
98.6353
 11
-27.1919
 21
98.277
  0
LINE
  8
0
 10
-27.1919
 20
98.277
 11
-27.6395
 21
98.1073
  0
LINE
  8
0
 10
-27.6395
 20
98.1073
 11
-28.1146
 21
98.165
  0
LINE
  8
0
 10
-28.1146
 20
98.165
 11
-28.5085
 21
98.4369
  0
LINE
  8
0
 10
-28.5085
 20
98.4369
 11
-28.7309
 21
98.8607
  0
LINE
  8
0
 10
-20.7527
 20
-140.621
 11
-20.695
 21
-140.145
  0
LINE
  8
0
 10
-20.695
 20
-140.145
 11
-20.4231
 21
-139.751
  0
LINE
  8
0
 10
-20.4231
 20
-139.751
 11
-19.9993
 21
-139.529
  0
LINE
  8
0
 10
-19.9993
 20
-139.529
 11
-19.5207
 21
-139.529
  0
LINE
  8
0
 10
-19.5207
 20
-139.529
 11
-19.0969
 21
-139.751
  0
LINE
  8
0
 10
-19.0969
 20
-139.751
 11
-18.825
 21
-140.145
  0
LINE
  8
0
 10
-18.825
 20
-140.145
 11
-18.7673
 21
-140.621
  0
LINE
  8
0
 10
-18.7673
 20
-140.621
 11
-18.937
 21
-141.068
  0
LINE
  8
0
 10
-18.937
 20
-141.068
 11
-19.2953
 21
-141.385
  0
LINE
  8
0
 10
-19.2953
 20
-141.385
 11
-19.5881
 21
-141.458
  0
LINE
  8
0
 10
-19.5881
 20
-141.458
 11
-19.76
 21
-141.5
  0
LINE
  8
0
 10
-19.76
 20
-141.5
 11
-20.0528
 21
-141.428
  0
LINE
  8
0
 10
-20.0528
 20
-141.428
 11
-20.2247
 21
-141.385
  0
LINE
  8
0
 10
-20.2247
 20
-141.385
 11
-20.583
 21
-141.068
  0
LINE
  8
0
 10
-20.583
 20
-141.068
 11
-20.7527
 21
-140.621
  0
LINE
  8
0
 10
-20.7527
 20
-203.621
 11
-20.695
 21
-203.145
  0
LINE
  8
0
 10
-20.695
 20
-203.145
 11
-20.4231
 21
-202.751
  0
LINE
  8
0
 10
-20.4231
 20
-202.751
 11
-19.9993
 21
-202.529
  0
LINE
  8
0
 10
-19.9993
 20
-202.529
 11
-19.5207
 21
-202.529
  0
LINE
  8
0
 10
-19.5207
 20
-202.529
 11
-19.0969
 21
-202.751
  0
LINE
  8
0
 10
-19.0969
 20
-202.751
 11
-18.825
 21
-203.145
  0
LINE
  8
0
 10
-18.825
 20
-203.145
 11
-18.7673
 21
-203.621
  0
LINE
  8
0
 10
-18.7673
 20
-203.621
 11
-18.937
 21
-204.068
  0
LINE
  8
0
 10
-18.937
 20
-204.068
 11
-19.2953
 21
-204.385
  0
LINE
  8
0
 10
-19.2953
 20
-204.385
 11
-19.5881
 21
-204.458
  0
LINE
  8
0
 10
-19.5881
 20
-204.458
 11
-19.76
 21
-204.5
  0
LINE
  8
0
 10
-19.76
 20
-204.5
 11
-20.0528
 21
-204.428
  0
LINE
  8
0
 10
-20.0528
 20
-204.428
 11
-20.2247
 21
-204.385
  0
LINE
  8
0
 10
-20.2247
 20
-204.385
 11
-20.583
 21
-204.068
  0
LINE
  8
0
 10
-20.583
 20
-204.068
 11
-20.7527
 21
-203.621
  0
LINE
  8
0
 10
9.24729
 20
-140.621
 11
9.30498
 21
-140.145
  0
LINE
  8
0
 10
9.30498
 20
-140.145
 11
9.57688
 21
-139.751
  0
LINE
  8
0
 10
9.57688
 20
-139.751
 11
10.0007
 21
-139.529
  0
LINE
  8
0
 10
10.0007
 20
-139.529
 11
10.4793
 21
-139.529
  0
LINE
  8
0
 10
10.4793
 20
-139.529
 11
10.9031
 21
-139.751
  0
LINE
  8
0
 10
10.9031
 20
-139.751
 11
11.175
 21
-140.145
  0
LINE
  8
0
 10
11.175
 20
-140.145
 11
11.2327
 21
-140.621
  0
LINE
  8
0
 10
11.2327
 20
-140.621
 11
11.063
 21
-141.068
  0
LINE
  8
0
 10
11.063
 20
-141.068
 11
10.7047
 21
-141.385
  0
LINE
  8
0
 10
10.7047
 20
-141.385
 11
10.4119
 21
-141.458
  0
LINE
  8
0
 10
10.4119
 20
-141.458
 11
10.24
 21
-141.5
  0
LINE
  8
0
 10
10.24
 20
-141.5
 11
9.94722
 21
-141.428
  0
LINE
  8
0
 10
9.94722
 20
-141.428
 11
9.77528
 21
-141.385
  0
LINE
  8
0
 10
9.77528
 20
-141.385
 11
9.41702
 21
-141.068
  0
LINE
  8
0
 10
9.41702
 20
-141.068
 11
9.24729
 21
-140.621
  0
LINE
  8
0
 10
9.24729
 20
-203.621
 11
9.30498
 21
-203.145
  0
LINE
  8
0
 10
9.30498
 20
-203.145
 11
9.57688
 21
-202.751
  0
LINE
  8
0
 10
9.57688
 20
-202.751
 11
10.0007
 21
-202.529
  0
LINE
  8
0
 10
10.0007
 20
-202.529
 11
10.4793
 21
-202.529
  0
LINE
  8
0
 10
10.4793
 20
-202.529
 11
10.9031
 21
-202.751
  0
LINE
  8
0
 10
10.9031
 20
-202.751
 11
11.175
 21
-203.145
  0
LINE
  8
0
 10
11.175
 20
-203.145
 11
11.2327
 21
-203.621
  0
LINE
  8
0
 10
11.2327
 20
-203.621
 11
11.063
 21
-204.068
  0
LINE
  8
0
 10
11.063
 20
-204.068
 11
10.7047
 21
-204.385
  0
LINE
  8
0
 10
10.7047
 20
-204.385
 11
10.4119
 21
-204.458
  0
LINE
  8
0
 10
10.4119
 20
-204.458
 11
10.24
 21
-204.5
  0
LINE
  8
0
 10
10.24
 20
-204.5
 11
9.94722
 21
-204.428
  0
LINE
  8
0
 10
9.94722
 20
-204.428
 11
9.77528
 21
-204.385
  0
LINE
  8
0
 10
9.77528
 20
-204.385
 11
9.41702
 21
-204.068
  0
LINE
  8
0
 10
9.41702
 20
-204.068
 11
9.24729
 21
-203.621
  0
LINE
  8
0
 10
13.2891
 20
98.8607
 11
13.2891
 21
99.3393
  0
LINE
  8
0
 10
13.2891
 20
99.3393
 11
13.5115
 21
99.7631
  0
LINE
  8
0
 10
13.5115
 20
99.7631
 11
13.9054
 21
100.035
  0
LINE
  8
0
 10
13.9054
 20
100.035
 11
14.3805
 21
100.093
  0
LINE
  8
0
 10
14.3805
 20
100.093
 11
14.8281
 21
99.923
  0
LINE
  8
0
 10
14.8281
 20
99.923
 11
15.1455
 21
99.5647
  0
LINE
  8
0
 10
15.1455
 20
99.5647
 11
15.26
 21
99.1
  0
LINE
  8
0
 10
15.26
 20
99.1
 11
15.1455
 21
98.6353
  0
LINE
  8
0
 10
15.1455
 20
98.6353
 11
14.8281
 21
98.277
  0
LINE
  8
0
 10
14.8281
 20
98.277
 11
14.3805
 21
98.1073
  0
LINE
  8
0
 10
14.3805
 20
98.1073
 11
13.9054
 21
98.165
  0
LINE
  8
0
 10
13.9054
 20
98.165
 11
13.5115
 21
98.4369
  0
LINE
  8
0
 10
13.5115
 20
98.4369
 11
13.2891
 21
98.8607
  0
LINE
  8
0
 10
19.0073
 20
142.179
 11
19.065
 21
142.655
  0
LINE
  8
0
 10
19.065
 20
142.655
 11
19.3369
 21
143.049
  0
LINE
  8
0
 10
19.3369
 20
143.049
 11
19.7607
 21
143.271
  0
LINE
  8
0
 10
19.7607
 20
143.271
 11
20.2393
 21
143.271
  0
LINE
  8
0
 10
20.2393
 20
143.271
 11
20.6631
 21
143.049
  0
LINE
  8
0
 10
20.6631
 20
143.049
 11
20.935
 21
142.655
  0
LINE
  8
0
 10
20.935
 20
142.655
 11
20.9927
 21
142.179
  0
LINE
  8
0
 10
20.9927
 20
142.179
 11
20.823
 21
141.732
  0
LINE
  8
0
 10
20.823
 20
141.732
 11
20.4647
 21
141.415
  0
LINE
  8
0
 10
20.4647
 20
141.415
 11
20
 21
141.3
  0
LINE
  8
0
 10
20
 20
141.3
 11
19.5353
 21
141.415
  0
LINE
  8
0
 10
19.5353
 20
141.415
 11
19.177
 21
141.732
  0
LINE
  8
0
 10
19.177
 20
141.732
 11
19.0073
 21
142.179
  0
LINE
  8
0
 10
56.7573
 20
-136.621
 11
56.815
 21
-136.145
  0
LINE
  8
0
 10
56.815
 20
-136.145
 11
57.0869
 21
-135.751
  0
LINE
  8
0
 10
57.0869
 20
-135.751
 11
57.5107
 21
-135.529
  0
LINE
  8
0
 10
57.5107
 20
-135.529
 11
57.9893
 21
-135.529
  0
LINE
  8
0
 10
57.9893
 20
-135.529
 11
58.4131
 21
-135.751
  0
LINE
  8
0
 10
58.4131
 20
-135.751
 11
58.685
 21
-136.145
  0
LINE
  8
0
 10
58.685
 20
-136.145
 11
58.7427
 21
-136.621
  0
LINE
  8
0
 10
58.7427
 20
-136.621
 11
58.573
 21
-137.068
  0
LINE
  8
0
 10
58.573
 20
-137.068
 11
58.2147
 21
-137.385
  0
LINE
  8
0
 10
58.2147
 20
-137.385
 11
57.75
 21
-137.5
  0
LINE
  8
0
 10
57.75
 20
-137.5
 11
57.2853
 21
-137.385
  0
LINE
  8
0
 10
57.2853
 20
-137.385
 11
56.927
 21
-137.068
  0
LINE
  8
0
 10
56.927
 20
-137.068
 11
56.7573
 21
-136.621
  0
LINE
  8
0
 10
56.7573
 20
126.379
 11
56.815
 21
126.855
  0
LINE
  8
0
 10
56.815
 20
126.855
 11
57.0869
 21
127.249
  0
LINE
  8
0
 10
57.0869
 20
127.249
 11
57.5107
 21
127.471
  0
LINE
  8
0
 10
57.5107
 20
127.471
 11
57.9893
 21
127.471
  0
LINE
  8
0
 10
57.9893
 20
127.471
 11
58.4131
 21
127.249
  0
LINE
  8
0
 10
58.4131
 20
127.249
 11
58.685
 21
126.855
  0
LINE
  8
0
 10
58.685
 20
126.855
 11
58.7427
 21
126.379
  0
LINE
  8
0
 10
58.7427
 20
126.379
 11
58.573
 21
125.932
  0
LINE
  8
0
 10
58.573
 20
125.932
 11
58.2147
 21
125.615
  0
LINE
  8
0
 10
58.2147
 20
125.615
 11
57.75
 21
125.5
  0
LINE
  8
0
 10
57.75
 20
125.5
 11
57.2853
 21
125.615
  0
LINE
  8
0
 10
57.2853
 20
125.615
 11
56.927
 21
125.932
  0
LINE
  8
0
 10
56.927
 20
125.932
 11
56.7573
 21
126.379
  0
LINE
  8
0
 10
91.7573
 20
-136.621
 11
91.815
 21
-136.145
  0
LINE
  8
0
 10
91.815
 20
-136.145
 11
92.0869
 21
-135.751
  0
LINE
  8
0
 10
92.0869
 20
-135.751
 11
92.5107
 21
-135.529
  0
LINE
  8
0
 10
92.5107
 20
-135.529
 11
92.9893
 21
-135.529
  0
LINE
  8
0
 10
92.9893
 20
-135.529
 11
93.4131
 21
-135.751
  0
LINE
  8
0
 10
93.4131
 20
-135.751
 11
93.685
 21
-136.145
  0
LINE
  8
0
 10
93.685
 20
-136.145
 11
93.7427
 21
-136.621
  0
LINE
  8
0
 10
93.7427
 20
-136.621
 11
93.573
 21
-137.068
  0
LINE
  8
0
 10
93.573
 20
-137.068
 11
93.2147
 21
-137.385
  0
LINE
  8
0
 10
93.2147
 20
-137.385
 11
92.75
 21
-137.5
  0
LINE
  8
0
 10
92.75
 20
-137.5
 11
92.2853
 21
-137.385
  0
LINE
  8
0
 10
92.2853
 20
-137.385
 11
91.927
 21
-137.068
  0
LINE
  8
0
 10
91.927
 20
-137.068
 11
91.7573
 21
-136.621
  0
LINE
  8
0
 10
91.7573
 20
126.379
 11
91.815
 21
126.855
  0
LINE
  8
0
 10
91.815
 20
126.855
 11
92.0869
 21
127.249
  0
LINE
  8
0
 10
92.0869
 20
127.249
 11
92.5107
 21
127.471
  0
LINE
  8
0
 10
92.5107
 20
127.471
 11
92.9893
 21
127.471
  0
LINE
  8
0
 10
92.9893
 20
127.471
 11
93.4131
 21
127.249
  0
LINE
  8
0
 10
93.4131
 20
127.249
 11
93.685
 21
126.855
  0
LINE
  8
0
 10
93.685
 20
126.855
 11
93.7427
 21
126.379
  0
LINE
  8
0
 10
93.7427
 20
126.379
 11
93.573
 21
125.932
  0
LINE
  8
0
 10
93.573
 20
125.932
 11
93.2147
 21
125.615
  0
LINE
  8
0
 10
93.2147
 20
125.615
 11
92.75
 21
125.5
  0
LINE
  8
0
 10
92.75
 20
125.5
 11
92.2853
 21
125.615
  0
LINE
  8
0
 10
92.2853
 20
125.615
 11
91.927
 21
125.932
  0
LINE
  8
0
 10
91.927
 20
125.932
 11
91.7573
 21
126.379
  0
LINE
  8
0
 10
108.479
 20
-118.239
 11
108.479
 21
-117.761
  0
LINE
  8
0
 10
108.479
 20
-117.761
 11
108.701
 21
-117.337
  0
LINE
  8
0
 10
108.701
 20
-117.337
 11
109.095
 21
-117.065
  0
LINE
  8
0
 10
109.095
 20
-117.065
 11
109.571
 21
-117.007
  0
LINE
  8
0
 10
109.571
 20
-117.007
 11
110.018
 21
-117.177
  0
LINE
  8
0
 10
110.018
 20
-117.177
 11
110.335
 21
-117.535
  0
LINE
  8
0
 10
110.335
 20
-117.535
 11
110.45
 21
-118
  0
LINE
  8
0
 10
110.45
 20
-118
 11
110.335
 21
-118.465
  0
LINE
  8
0
 10
110.335
 20
-118.465
 11
110.018
 21
-118.823
  0
LINE
  8
0
 10
110.018
 20
-118.823
 11
109.571
 21
-118.993
  0
LINE
  8
0
 10
109.571
 20
-118.993
 11
109.095
 21
-118.935
  0
LINE
  8
0
 10
109.095
 20
-118.935
 11
108.701
 21
-118.663
  0
LINE
  8
0
 10
108.701
 20
-118.663
 11
108.479
 21
-118.239
  0
LINE
  8
0
 10
108.479
 20
67.6607
 11
108.479
 21
68.1393
  0
LINE
  8
0
 10
108.479
 20
68.1393
 11
108.701
 21
68.5631
  0
LINE
  8
0
 10
108.701
 20
68.5631
 11
109.095
 21
68.835
  0
LINE
  8
0
 10
109.095
 20
68.835
 11
109.571
 21
68.8927
  0
LINE
  8
0
 10
109.571
 20
68.8927
 11
110.018
 21
68.723
  0
LINE
  8
0
 10
110.018
 20
68.723
 11
110.335
 21
68.3647
  0
LINE
  8
0
 10
110.335
 20
68.3647
 11
110.45
 21
67.9
  0
LINE
  8
0
 10
110.45
 20
67.9
 11
110.335
 21
67.4353
  0
LINE
  8
0
 10
110.335
 20
67.4353
 11
110.018
 21
67.077
  0
LINE
  8
0
 10
110.018
 20
67.077
 11
109.571
 21
66.9073
  0
LINE
  8
0
 10
109.571
 20
66.9073
 11
109.095
 21
66.965
  0
LINE
  8
0
 10
109.095
 20
66.965
 11
108.701
 21
67.2369
  0
LINE
  8
0
 10
108.701
 20
67.2369
 11
108.479
 21
67.6607
  0
LINE
  8
0
 10
127.457
 20
191.011
 11
127.627
 21
191.458
  0
LINE
  8
0
 10
127.627
 20
191.458
 11
127.985
 21
191.775
  0
LINE
  8
0
 10
127.985
 20
191.775
 11
128.45
 21
191.89
  0
LINE
  8
0
 10
128.45
 20
191.89
 11
128.915
 21
191.775
  0
LINE
  8
0
 10
128.915
 20
191.775
 11
129.273
 21
191.458
  0
LINE
  8
0
 10
129.273
 20
191.458
 11
129.443
 21
191.011
  0
LINE
  8
0
 10
129.443
 20
191.011
 11
129.385
 21
190.535
  0
LINE
  8
0
 10
129.385
 20
190.535
 11
129.113
 21
190.141
  0
LINE
  8
0
 10
129.113
 20
190.141
 11
128.689
 21
189.919
  0
LINE
  8
0
 10
128.689
 20
189.919
 11
128.211
 21
189.919
  0
LINE
  8
0
 10
128.211
 20
189.919
 11
127.787
 21
190.141
  0
LINE
  8
0
 10
127.787
 20
190.141
 11
127.515
 21
190.535
  0
LINE
  8
0
 10
127.515
 20
190.535
 11
127.457
 21
191.011
  0
LINE
  8
0
 10
156.258
 20
-0.246243
 11
156.258
 21
0.246243
  0
LINE
  8
0
 10
156.258
 20
0.246243
 11
156.318
 21
0.734998
  0
LINE
  8
0
 10
156.318
 20
0.734998
 11
156.438
 21
1.21261
  0
LINE
  8
0
 10
156.438
 20
1.21261
 11
156.616
 21
1.67184
  0
LINE
  8
0
 10
156.616
 20
1.67184
 11
156.849
 21
2.10573
  0
LINE
  8
0
 10
156.849
 20
2.10573
 11
157.134
 21
2.5077
  0
LINE
  8
0
 10
157.134
 20
2.5077
 11
157.465
 21
2.87165
  0
LINE
  8
0
 10
157.465
 20
2.87165
 11
157.839
 21
3.19207
  0
LINE
  8
0
 10
157.839
 20
3.19207
 11
158.25
 21
3.4641
  0
LINE
  8
0
 10
158.25
 20
3.4641
 11
158.691
 21
3.68362
  0
LINE
  8
0
 10
158.691
 20
3.68362
 11
159.155
 21
3.8473
  0
LINE
  8
0
 10
159.155
 20
3.8473
 11
159.636
 21
3.95266
  0
LINE
  8
0
 10
159.636
 20
3.95266
 11
160.127
 21
3.9981
  0
LINE
  8
0
 10
160.127
 20
3.9981
 11
160.619
 21
3.98294
  0
LINE
  8
0
 10
160.619
 20
3.98294
 11
161.106
 21
3.90739
  0
LINE
  8
0
 10
161.106
 20
3.90739
 11
161.579
 21
3.77262
  0
LINE
  8
0
 10
161.579
 20
3.77262
 11
162.033
 21
3.58065
  0
LINE
  8
0
 10
162.033
 20
3.58065
 11
162.459
 21
3.33441
  0
LINE
  8
0
 10
162.459
 20
3.33441
 11
162.852
 21
3.03762
  0
LINE
  8
0
 10
162.852
 20
3.03762
 11
163.206
 21
2.69478
  0
LINE
  8
0
 10
163.206
 20
2.69478
 11
163.515
 21
2.3111
  0
LINE
  8
0
 10
163.515
 20
2.3111
 11
163.774
 21
1.89237
  0
LINE
  8
0
 10
163.774
 20
1.89237
 11
163.98
 21
1.44497
  0
LINE
  8
0
 10
163.98
 20
1.44497
 11
164.129
 21
0.975655
  0
LINE
  8
0
 10
164.129
 20
0.975655
 11
164.22
 21
0.491552
  0
LINE
  8
0
 10
164.22
 20
0.491552
 11
164.25
 21
0
  0
LINE
  8
0
 10
164.25
 20
0
 11
164.22
 21
-0.491552
  0
LINE
  8
0
 10
164.22
 20
-0.491552
 11
164.129
 21
-0.975655
  0
LINE
  8
0
 10
164.129
 20
-0.975655
 11
163.98
 21
-1.44497
  0
LINE
  8
0
 10
163.98
 20
-1.44497
 11
163.774
 21
-1.89237
  0
LINE
  8
0
 10
163.774
 20
-1.89237
 11
163.515
 21
-2.3111
  0
LINE
  8
0
 10
163.515
 20
-2.3111
 11
163.206
 21
-2.69478
  0
LINE
  8
0
 10
163.206
 20
-2.69478
 11
162.852
 21
-3.03762
  0
LINE
  8
0
 10
162.852
 20
-3.03762
 11
162.459
 21
-3.33441
  0
LINE
  8
0
 10
162.459
 20
-3.33441
 11
162.033
 21
-3.58065
  0
LINE
  8
0
 10
162.033
 20
-3.58065
 11
161.579
 21
-3.77262
  0
LINE
  8
0
 10
161.579
 20
-3.77262
 11
161.106
 21
-3.90739
  0
LINE
  8
0
 10
161.106
 20
-3.90739
 11
160.619
 21
-3.98294
  0
LINE
  8
0
 10
160.619
 20
-3.98294
 11
160.127
 21
-3.9981
  0
LINE
  8
0
 10
160.127
 20
-3.9981
 11
159.636
 21
-3.95266
  0
LINE
  8
0
 10
159.636
 20
-3.95266
 11
159.155
 21
-3.8473
  0
LINE
  8
0
 10
159.155
 20
-3.8473
 11
158.691
 21
-3.68362
  0
LINE
  8
0
 10
158.691
 20
-3.68362
 11
158.25
 21
-3.4641
  0
LINE
  8
0
 10
158.25
 20
-3.4641
 11
157.839
 21
-3.19207
  0
LINE
  8
0
 10
157.839
 20
-3.19207
 11
157.465
 21
-2.87165
  0
LINE
  8
0
 10
157.465
 20
-2.87165
 11
157.134
 21
-2.5077
  0
LINE
  8
0
 10
157.134
 20
-2.5077
 11
156.849
 21
-2.10573
  0
LINE
  8
0
 10
156.849
 20
-2.10573
 11
156.616
 21
-1.67184
  0
LINE
  8
0
 10
156.616
 20
-1.67184
 11
156.438
 21
-1.21261
  0
LINE
  8
0
 10
156.438
 20
-1.21261
 11
156.318
 21
-0.734998
  0
LINE
  8
0
 10
156.318
 20
-0.734998
 11
156.258
 21
-0.246243
  0
LINE
  8
0
 10
167.789
 20
64.4607
 11
167.789
 21
64.9393
  0
LINE
  8
0
 10
167.789
 20
64.9393
 11
168.011
 21
65.3631
  0
LINE
  8
0
 10
168.011
 20
65.3631
 11
168.405
 21
65.635
  0
LINE
  8
0
 10
168.405
 20
65.635
 11
168.881
 21
65.6927
  0
LINE
  8
0
 10
168.881
 20
65.6927
 11
169.328
 21
65.523
  0
LINE
  8
0
 10
169.328
 20
65.523
 11
169.645
 21
65.1647
  0
LINE
  8
0
 10
169.645
 20
65.1647
 11
169.76
 21
64.7
  0
LINE
  8
0
 10
169.76
 20
64.7
 11
169.645
 21
64.2353
  0
LINE
  8
0
 10
169.645
 20
64.2353
 11
169.328
 21
63.877
  0
LINE
  8
0
 10
169.328
 20
63.877
 11
168.881
 21
63.7073
  0
LINE
  8
0
 10
168.881
 20
63.7073
 11
168.405
 21
63.765
  0
LINE
  8
0
 10
168.405
 20
63.765
 11
168.011
 21
64.0369
  0
LINE
  8
0
 10
168.011
 20
64.0369
 11
167.789
 21
64.4607
  0
LINE
  8
0
 10
216.169
 20
64.4607
 11
216.169
 21
64.9393
  0
LINE
  8
0
 10
216.169
 20
64.9393
 11
216.391
 21
65.3631
  0
LINE
  8
0
 10
216.391
 20
65.3631
 11
216.785
 21
65.635
  0
LINE
  8
0
 10
216.785
 20
65.635
 11
217.261
 21
65.6927
  0
LINE
  8
0
 10
217.261
 20
65.6927
 11
217.708
 21
65.523
  0
LINE
  8
0
 10
217.708
 20
65.523
 11
218.025
 21
65.1647
  0
LINE
  8
0
 10
218.025
 20
65.1647
 11
218.14
 21
64.7
  0
LINE
  8
0
 10
218.14
 20
64.7
 11
218.025
 21
64.2353
  0
LINE
  8
0
 10
218.025
 20
64.2353
 11
217.708
 21
63.877
  0
LINE
  8
0
 10
217.708
 20
63.877
 11
217.261
 21
63.7073
  0
LINE
  8
0
 10
217.261
 20
63.7073
 11
216.785
 21
63.765
  0
LINE
  8
0
 10
216.785
 20
63.765
 11
216.391
 21
64.0369
  0
LINE
  8
0
 10
216.391
 20
64.0369
 11
216.169
 21
64.4607
  0
LINE
  8
0
 10
229.457
 20
83.7795
 11
229.515
 21
84.2546
  0
LINE
  8
0
 10
229.515
 20
84.2546
 11
229.787
 21
84.6485
  0
LINE
  8
0
 10
229.787
 20
84.6485
 11
230.211
 21
84.8709
  0
LINE
  8
0
 10
230.211
 20
84.8709
 11
230.689
 21
84.8709
  0
LINE
  8
0
 10
230.689
 20
84.8709
 11
231.113
 21
84.6485
  0
LINE
  8
0
 10
231.113
 20
84.6485
 11
231.385
 21
84.2546
  0
LINE
  8
0
 10
231.385
 20
84.2546
 11
231.443
 21
83.7795
  0
LINE
  8
0
 10
231.443
 20
83.7795
 11
231.273
 21
83.3319
  0
LINE
  8
0
 10
231.273
 20
83.3319
 11
230.915
 21
83.0145
  0
LINE
  8
0
 10
230.915
 20
83.0145
 11
230.45
 21
82.9
  0
LINE
  8
0
 10
230.45
 20
82.9
 11
229.985
 21
83.0145
  0
LINE
  8
0
 10
229.985
 20
83.0145
 11
229.627
 21
83.3319
  0
LINE
  8
0
 10
229.627
 20
83.3319
 11
229.457
 21
83.7795
  0
ENDSEC
  0
SECTION
  2
OBJECTS
  0
DICTIONARY
  0
ENDSEC
  0
EOF
