<?xml version="1.0"?>
<svg xmlns="http://www.w3.org/2000/svg" version="1.1" height="177mm" width="403mm" >
 <g style="fill-opacity:1.0; stroke:black; stroke-width:1;">
  <line x1="0.000000mm" y1="0.000000mm" x2="0.000000mm" y2="0.000000mm" />
  <line x1="0.000000mm" y1="0.000000mm" x2="0.000000mm" y2="166.500000mm" />
  <line x1="0.000000mm" y1="166.500000mm" x2="320.690000mm" y2="166.500000mm" />
  <line x1="320.690000mm" y1="166.500000mm" x2="320.690000mm" y2="163.252260mm" />
  <line x1="320.690000mm" y1="163.252260mm" x2="320.772000mm" y2="162.763540mm" />
  <line x1="320.772000mm" y1="162.763540mm" x2="320.933000mm" y2="162.294910mm" />
  <line x1="320.933000mm" y1="162.294910mm" x2="321.169000mm" y2="161.859160mm" />
  <line x1="321.169000mm" y1="161.859160mm" x2="321.473000mm" y2="161.468160mm" />
  <line x1="321.473000mm" y1="161.468160mm" x2="321.837000mm" y2="161.132580mm" />
  <line x1="321.837000mm" y1="161.132580mm" x2="322.252000mm" y2="160.861580mm" />
  <line x1="322.252000mm" y1="160.861580mm" x2="322.706000mm" y2="160.662550mm" />
  <line x1="322.706000mm" y1="160.662550mm" x2="323.186000mm" y2="160.540920mm" />
  <line x1="323.186000mm" y1="160.540920mm" x2="323.680000mm" y2="160.500000mm" />
  <line x1="323.680000mm" y1="160.500000mm" x2="324.174000mm" y2="160.540920mm" />
  <line x1="324.174000mm" y1="160.540920mm" x2="324.654000mm" y2="160.662550mm" />
  <line x1="324.654000mm" y1="160.662550mm" x2="325.108000mm" y2="160.861580mm" />
  <line x1="325.108000mm" y1="160.861580mm" x2="325.523000mm" y2="161.132580mm" />
  <line x1="325.523000mm" y1="161.132580mm" x2="325.887000mm" y2="161.468160mm" />
  <line x1="325.887000mm" y1="161.468160mm" x2="326.192000mm" y2="161.859160mm" />
  <line x1="326.192000mm" y1="161.859160mm" x2="326.427000mm" y2="162.294910mm" />
  <line x1="326.427000mm" y1="162.294910mm" x2="326.588000mm" y2="162.763540mm" />
  <line x1="326.588000mm" y1="162.763540mm" x2="326.670000mm" y2="163.252260mm" />
  <line x1="326.670000mm" y1="163.252260mm" x2="326.670000mm" y2="166.500000mm" />
  <line x1="326.670000mm" y1="166.500000mm" x2="333.595000mm" y2="166.500000mm" />
  <line x1="333.595000mm" y1="166.500000mm" x2="333.595000mm" y2="164.258930mm" />
  <line x1="333.595000mm" y1="164.258930mm" x2="333.710000mm" y2="163.790790mm" />
  <line x1="333.710000mm" y1="163.790790mm" x2="333.934000mm" y2="163.363870mm" />
  <line x1="333.934000mm" y1="163.363870mm" x2="334.254000mm" y2="163.002980mm" />
  <line x1="334.254000mm" y1="163.002980mm" x2="334.651000mm" y2="162.729090mm" />
  <line x1="334.651000mm" y1="162.729090mm" x2="335.101000mm" y2="162.558120mm" />
  <line x1="335.101000mm" y1="162.558120mm" x2="335.580000mm" y2="162.500000mm" />
  <line x1="335.580000mm" y1="162.500000mm" x2="336.059000mm" y2="162.558120mm" />
  <line x1="336.059000mm" y1="162.558120mm" x2="336.509000mm" y2="162.729090mm" />
  <line x1="336.509000mm" y1="162.729090mm" x2="336.906000mm" y2="163.002980mm" />
  <line x1="336.906000mm" y1="163.002980mm" x2="337.226000mm" y2="163.363870mm" />
  <line x1="337.226000mm" y1="163.363870mm" x2="337.450000mm" y2="163.790790mm" />
  <line x1="337.450000mm" y1="163.790790mm" x2="337.565000mm" y2="164.258930mm" />
  <line x1="337.565000mm" y1="164.258930mm" x2="337.565000mm" y2="166.500000mm" />
  <line x1="337.565000mm" y1="166.500000mm" x2="392.000000mm" y2="166.500000mm" />
  <line x1="392.000000mm" y1="166.500000mm" x2="392.000000mm" y2="25.000000mm" />
  <line x1="392.000000mm" y1="25.000000mm" x2="391.905000mm" y2="22.821000mm" />
  <line x1="391.905000mm" y1="22.821000mm" x2="391.620000mm" y2="20.659000mm" />
  <line x1="391.620000mm" y1="20.659000mm" x2="391.148000mm" y2="18.530000mm" />
  <line x1="391.148000mm" y1="18.530000mm" x2="390.492000mm" y2="16.449000mm" />
  <line x1="390.492000mm" y1="16.449000mm" x2="389.658000mm" y2="14.435000mm" />
  <line x1="389.658000mm" y1="14.435000mm" x2="388.651000mm" y2="12.500000mm" />
  <line x1="388.651000mm" y1="12.500000mm" x2="387.479000mm" y2="10.661000mm" />
  <line x1="387.479000mm" y1="10.661000mm" x2="386.151000mm" y2="8.930000mm" />
  <line x1="386.151000mm" y1="8.930000mm" x2="384.678000mm" y2="7.322000mm" />
  <line x1="384.678000mm" y1="7.322000mm" x2="383.070000mm" y2="5.849000mm" />
  <line x1="383.070000mm" y1="5.849000mm" x2="381.339000mm" y2="4.521000mm" />
  <line x1="381.339000mm" y1="4.521000mm" x2="379.500000mm" y2="3.349000mm" />
  <line x1="379.500000mm" y1="3.349000mm" x2="377.565000mm" y2="2.342000mm" />
  <line x1="377.565000mm" y1="2.342000mm" x2="375.551000mm" y2="1.508000mm" />
  <line x1="375.551000mm" y1="1.508000mm" x2="373.470000mm" y2="0.852000mm" />
  <line x1="373.470000mm" y1="0.852000mm" x2="371.341000mm" y2="0.380000mm" />
  <line x1="371.341000mm" y1="0.380000mm" x2="369.179000mm" y2="0.095000mm" />
  <line x1="369.179000mm" y1="0.095000mm" x2="367.000000mm" y2="0.000000mm" />
  <line x1="367.000000mm" y1="0.000000mm" x2="0.000000mm" y2="0.000000mm" />
  <circle cx="7.209515mm" cy="29.917728mm" r="2.195840mm" fill="none"/>
  <line x1="11.601196mm" y1="29.917728mm" x2="2.817834mm" y2="29.917728mm" />
  <line x1="7.209515mm" y1="25.526047mm" x2="7.209515mm" y2="34.309408mm" />
  <text x="9mm" y="27mm" font-size="24">
   4.4
  </text>
  <circle cx="7.209515mm" cy="8.697728mm" r="2.195840mm" fill="none"/>
  <line x1="11.601196mm" y1="8.697728mm" x2="2.817834mm" y2="8.697728mm" />
  <line x1="7.209515mm" y1="4.306047mm" x2="7.209515mm" y2="13.089408mm" />
  <text x="9mm" y="6mm" font-size="24">
   4.4
  </text>
  <circle cx="23.100002mm" cy="159.299986mm" r="2.200002mm" fill="none"/>
  <line x1="27.500006mm" y1="159.299986mm" x2="18.699998mm" y2="159.299986mm" />
  <line x1="23.100002mm" y1="154.899982mm" x2="23.100002mm" y2="163.699990mm" />
  <text x="25mm" y="157mm" font-size="24">
   4.4
  </text>
  <circle cx="44.320002mm" cy="159.299986mm" r="2.200002mm" fill="none"/>
  <line x1="48.720006mm" y1="159.299986mm" x2="39.919998mm" y2="159.299986mm" />
  <line x1="44.320002mm" y1="154.899982mm" x2="44.320002mm" y2="163.699990mm" />
  <text x="46mm" y="157mm" font-size="24">
   4.4
  </text>
  <circle cx="51.750019mm" cy="146.850019mm" r="2.199964mm" fill="none"/>
  <line x1="56.149947mm" y1="146.850019mm" x2="47.350091mm" y2="146.850019mm" />
  <line x1="51.750019mm" y1="142.450091mm" x2="51.750019mm" y2="151.249947mm" />
  <text x="53mm" y="144mm" font-size="24">
   4.4
  </text>
  <circle cx="51.750019mm" cy="75.350019mm" r="2.199964mm" fill="none"/>
  <line x1="56.149947mm" y1="75.350019mm" x2="47.350091mm" y2="75.350019mm" />
  <line x1="51.750019mm" y1="70.950091mm" x2="51.750019mm" y2="79.749947mm" />
  <text x="53mm" y="73mm" font-size="24">
   4.4
  </text>
  <circle cx="87.499944mm" cy="111.100033mm" r="37.499937mm" fill="none"/>
  <line x1="162.499818mm" y1="111.100033mm" x2="12.500070mm" y2="111.100033mm" />
  <line x1="87.499944mm" y1="36.100159mm" x2="87.499944mm" y2="186.099907mm" />
  <text x="124mm" y="73mm" font-size="24">
   75.0
  </text>
  <circle cx="123.249998mm" cy="146.850067mm" r="2.200127mm" fill="none"/>
  <line x1="127.650252mm" y1="146.850067mm" x2="118.849744mm" y2="146.850067mm" />
  <line x1="123.249998mm" y1="142.449813mm" x2="123.249998mm" y2="151.250321mm" />
  <text x="125mm" y="144mm" font-size="24">
   4.4
  </text>
  <circle cx="123.249998mm" cy="75.350067mm" r="2.200127mm" fill="none"/>
  <line x1="127.650252mm" y1="75.350067mm" x2="118.849744mm" y2="75.350067mm" />
  <line x1="123.249998mm" y1="70.949813mm" x2="123.249998mm" y2="79.750321mm" />
  <text x="125mm" y="73mm" font-size="24">
   4.4
  </text>
  <circle cx="279.061660mm" cy="77.149916mm" r="2.199832mm" fill="none"/>
  <line x1="283.461324mm" y1="77.149916mm" x2="274.661997mm" y2="77.149916mm" />
  <line x1="279.061660mm" y1="72.750252mm" x2="279.061660mm" y2="81.549580mm" />
  <text x="281mm" y="74mm" font-size="24">
   4.4
  </text>
  <circle cx="347.680108mm" cy="159.299967mm" r="2.200108mm" fill="none"/>
  <line x1="352.080324mm" y1="159.299967mm" x2="343.279892mm" y2="159.299967mm" />
  <line x1="347.680108mm" y1="154.899750mm" x2="347.680108mm" y2="163.700183mm" />
  <text x="349mm" y="157mm" font-size="24">
   4.4
  </text>
  <circle cx="368.900108mm" cy="159.299967mm" r="2.200108mm" fill="none"/>
  <line x1="373.300324mm" y1="159.299967mm" x2="364.499892mm" y2="159.299967mm" />
  <line x1="368.900108mm" y1="154.899750mm" x2="368.900108mm" y2="163.700183mm" />
  <text x="371mm" y="157mm" font-size="24">
   4.4
  </text>
 </g>
</svg>
