  0
SECTION
  2
BLOCKS
  0
ENDSEC
  0
SECTION
  2
ENTITIES
  0
LINE
  8
0
 10
-131.75
 20
285.1
 11
-131.744
 21
285.1
  0
LINE
  8
0
 10
-131.744
 20
285.1
 11
-131.744
 21
285.349
  0
LINE
  8
0
 10
-131.744
 20
285.349
 11
-131.694
 21
285.845
  0
LINE
  8
0
 10
-131.694
 20
285.845
 11
-131.595
 21
286.334
  0
LINE
  8
0
 10
-131.595
 20
286.334
 11
-131.448
 21
286.81
  0
LINE
  8
0
 10
-131.448
 20
286.81
 11
-131.255
 21
287.269
  0
LINE
  8
0
 10
-131.255
 20
287.269
 11
-131.016
 21
287.707
  0
LINE
  8
0
 10
-131.016
 20
287.707
 11
-130.736
 21
288.119
  0
LINE
  8
0
 10
-130.736
 20
288.119
 11
-130.415
 21
288.501
  0
LINE
  8
0
 10
-130.415
 20
288.501
 11
-130.058
 21
288.849
  0
LINE
  8
0
 10
-130.058
 20
288.849
 11
-129.669
 21
289.16
  0
LINE
  8
0
 10
-129.669
 20
289.16
 11
-129.25
 21
289.43
  0
LINE
  8
0
 10
-129.25
 20
289.43
 11
-128.806
 21
289.658
  0
LINE
  8
0
 10
-128.806
 20
289.658
 11
-128.342
 21
289.84
  0
LINE
  8
0
 10
-128.342
 20
289.84
 11
-127.863
 21
289.975
  0
LINE
  8
0
 10
-127.863
 20
289.975
 11
-127.372
 21
290.061
  0
LINE
  8
0
 10
-127.372
 20
290.061
 11
-126.875
 21
290.098
  0
LINE
  8
0
 10
-126.875
 20
290.098
 11
-126.75
 21
290.095
  0
LINE
  8
0
 10
-126.75
 20
290.095
 11
-126.75
 21
290.1
  0
LINE
  8
0
 10
-126.75
 20
290.1
 11
113.25
 21
290.1
  0
LINE
  8
0
 10
113.25
 20
290.1
 11
113.25
 21
290.095
  0
LINE
  8
0
 10
113.25
 20
290.095
 11
113.624
 21
290.086
  0
LINE
  8
0
 10
113.624
 20
290.086
 11
114.118
 21
290.024
  0
LINE
  8
0
 10
114.118
 20
290.024
 11
114.604
 21
289.913
  0
LINE
  8
0
 10
114.604
 20
289.913
 11
115.077
 21
289.754
  0
LINE
  8
0
 10
115.077
 20
289.754
 11
115.531
 21
289.549
  0
LINE
  8
0
 10
115.531
 20
289.549
 11
115.963
 21
289.3
  0
LINE
  8
0
 10
115.963
 20
289.3
 11
116.367
 21
289.009
  0
LINE
  8
0
 10
116.367
 20
289.009
 11
116.741
 21
288.679
  0
LINE
  8
0
 10
116.741
 20
288.679
 11
117.08
 21
288.314
  0
LINE
  8
0
 10
117.08
 20
288.314
 11
117.381
 21
287.917
  0
LINE
  8
0
 10
117.381
 20
287.917
 11
117.641
 21
287.491
  0
LINE
  8
0
 10
117.641
 20
287.491
 11
117.857
 21
287.042
  0
LINE
  8
0
 10
117.857
 20
287.042
 11
118.028
 21
286.574
  0
LINE
  8
0
 10
118.028
 20
286.574
 11
118.151
 21
286.091
  0
LINE
  8
0
 10
118.151
 20
286.091
 11
118.225
 21
285.598
  0
LINE
  8
0
 10
118.225
 20
285.598
 11
118.25
 21
285.1
  0
LINE
  8
0
 10
118.25
 20
285.1
 11
118.25
 21
0
  0
LINE
  8
0
 10
118.25
 20
0
 11
237.25
 21
0
  0
LINE
  8
0
 10
237.25
 20
0
 11
237.25
 21
386
  0
LINE
  8
0
 10
237.25
 20
386
 11
237.193
 21
387.307
  0
LINE
  8
0
 10
237.193
 20
387.307
 11
237.022
 21
388.605
  0
LINE
  8
0
 10
237.022
 20
388.605
 11
236.739
 21
389.882
  0
LINE
  8
0
 10
236.739
 20
389.882
 11
236.345
 21
391.13
  0
LINE
  8
0
 10
236.345
 20
391.13
 11
235.845
 21
392.339
  0
LINE
  8
0
 10
235.845
 20
392.339
 11
235.24
 21
393.5
  0
LINE
  8
0
 10
235.24
 20
393.5
 11
234.537
 21
394.604
  0
LINE
  8
0
 10
234.537
 20
394.604
 11
233.741
 21
395.642
  0
LINE
  8
0
 10
233.741
 20
395.642
 11
232.857
 21
396.607
  0
LINE
  8
0
 10
232.857
 20
396.607
 11
231.892
 21
397.491
  0
LINE
  8
0
 10
231.892
 20
397.491
 11
230.854
 21
398.287
  0
LINE
  8
0
 10
230.854
 20
398.287
 11
229.75
 21
398.99
  0
LINE
  8
0
 10
229.75
 20
398.99
 11
228.589
 21
399.595
  0
LINE
  8
0
 10
228.589
 20
399.595
 11
227.38
 21
400.095
  0
LINE
  8
0
 10
227.38
 20
400.095
 11
226.132
 21
400.489
  0
LINE
  8
0
 10
226.132
 20
400.489
 11
224.855
 21
400.772
  0
LINE
  8
0
 10
224.855
 20
400.772
 11
223.557
 21
400.943
  0
LINE
  8
0
 10
223.557
 20
400.943
 11
222.25
 21
401
  0
LINE
  8
0
 10
222.25
 20
401
 11
-222.25
 21
401
  0
LINE
  8
0
 10
-222.25
 20
401
 11
-223.557
 21
400.943
  0
LINE
  8
0
 10
-223.557
 20
400.943
 11
-224.855
 21
400.772
  0
LINE
  8
0
 10
-224.855
 20
400.772
 11
-226.132
 21
400.489
  0
LINE
  8
0
 10
-226.132
 20
400.489
 11
-227.38
 21
400.095
  0
LINE
  8
0
 10
-227.38
 20
400.095
 11
-228.589
 21
399.595
  0
LINE
  8
0
 10
-228.589
 20
399.595
 11
-229.75
 21
398.99
  0
LINE
  8
0
 10
-229.75
 20
398.99
 11
-230.854
 21
398.287
  0
LINE
  8
0
 10
-230.854
 20
398.287
 11
-231.892
 21
397.491
  0
LINE
  8
0
 10
-231.892
 20
397.491
 11
-232.857
 21
396.607
  0
LINE
  8
0
 10
-232.857
 20
396.607
 11
-233.741
 21
395.642
  0
LINE
  8
0
 10
-233.741
 20
395.642
 11
-234.537
 21
394.604
  0
LINE
  8
0
 10
-234.537
 20
394.604
 11
-235.24
 21
393.5
  0
LINE
  8
0
 10
-235.24
 20
393.5
 11
-235.845
 21
392.339
  0
LINE
  8
0
 10
-235.845
 20
392.339
 11
-236.345
 21
391.13
  0
LINE
  8
0
 10
-236.345
 20
391.13
 11
-236.739
 21
389.882
  0
LINE
  8
0
 10
-236.739
 20
389.882
 11
-237.022
 21
388.605
  0
LINE
  8
0
 10
-237.022
 20
388.605
 11
-237.193
 21
387.307
  0
LINE
  8
0
 10
-237.193
 20
387.307
 11
-237.25
 21
386
  0
LINE
  8
0
 10
-237.25
 20
386
 11
-237.25
 21
0
  0
LINE
  8
0
 10
-237.25
 20
0
 11
-131.75
 21
0
  0
LINE
  8
0
 10
-131.75
 20
0
 11
-131.75
 21
285.1
  0
LINE
  8
0
 10
159.785
 20
391.615
 11
159.427
 21
391.932
  0
LINE
  8
0
 10
159.427
 20
391.932
 11
159.257
 21
392.379
  0
LINE
  8
0
 10
159.257
 20
392.379
 11
159.315
 21
392.855
  0
LINE
  8
0
 10
159.315
 20
392.855
 11
159.587
 21
393.249
  0
LINE
  8
0
 10
159.587
 20
393.249
 11
160.011
 21
393.471
  0
LINE
  8
0
 10
160.011
 20
393.471
 11
160.489
 21
393.471
  0
LINE
  8
0
 10
160.489
 20
393.471
 11
160.913
 21
393.249
  0
LINE
  8
0
 10
160.913
 20
393.249
 11
161.185
 21
392.855
  0
LINE
  8
0
 10
161.185
 20
392.855
 11
161.243
 21
392.379
  0
LINE
  8
0
 10
161.243
 20
392.379
 11
161.073
 21
391.932
  0
LINE
  8
0
 10
161.073
 20
391.932
 11
160.715
 21
391.615
  0
LINE
  8
0
 10
160.715
 20
391.615
 11
160.25
 21
391.5
  0
LINE
  8
0
 10
160.25
 20
391.5
 11
159.785
 21
391.615
  0
LINE
  8
0
 10
-163.215
 20
391.615
 11
-163.573
 21
391.932
  0
LINE
  8
0
 10
-163.573
 20
391.932
 11
-163.743
 21
392.379
  0
LINE
  8
0
 10
-163.743
 20
392.379
 11
-163.685
 21
392.855
  0
LINE
  8
0
 10
-163.685
 20
392.855
 11
-163.413
 21
393.249
  0
LINE
  8
0
 10
-163.413
 20
393.249
 11
-162.989
 21
393.471
  0
LINE
  8
0
 10
-162.989
 20
393.471
 11
-162.511
 21
393.471
  0
LINE
  8
0
 10
-162.511
 20
393.471
 11
-162.087
 21
393.249
  0
LINE
  8
0
 10
-162.087
 20
393.249
 11
-161.815
 21
392.855
  0
LINE
  8
0
 10
-161.815
 20
392.855
 11
-161.757
 21
392.379
  0
LINE
  8
0
 10
-161.757
 20
392.379
 11
-161.927
 21
391.932
  0
LINE
  8
0
 10
-161.927
 20
391.932
 11
-162.285
 21
391.615
  0
LINE
  8
0
 10
-162.285
 20
391.615
 11
-162.75
 21
391.5
  0
LINE
  8
0
 10
-162.75
 20
391.5
 11
-163.215
 21
391.615
  0
LINE
  8
0
 10
-198.215
 20
391.615
 11
-198.573
 21
391.932
  0
LINE
  8
0
 10
-198.573
 20
391.932
 11
-198.743
 21
392.379
  0
LINE
  8
0
 10
-198.743
 20
392.379
 11
-198.685
 21
392.855
  0
LINE
  8
0
 10
-198.685
 20
392.855
 11
-198.413
 21
393.249
  0
LINE
  8
0
 10
-198.413
 20
393.249
 11
-197.989
 21
393.471
  0
LINE
  8
0
 10
-197.989
 20
393.471
 11
-197.511
 21
393.471
  0
LINE
  8
0
 10
-197.511
 20
393.471
 11
-197.087
 21
393.249
  0
LINE
  8
0
 10
-197.087
 20
393.249
 11
-196.815
 21
392.855
  0
LINE
  8
0
 10
-196.815
 20
392.855
 11
-196.757
 21
392.379
  0
LINE
  8
0
 10
-196.757
 20
392.379
 11
-196.927
 21
391.932
  0
LINE
  8
0
 10
-196.927
 20
391.932
 11
-197.285
 21
391.615
  0
LINE
  8
0
 10
-197.285
 20
391.615
 11
-197.75
 21
391.5
  0
LINE
  8
0
 10
-197.75
 20
391.5
 11
-198.215
 21
391.615
  0
LINE
  8
0
 10
124.785
 20
391.615
 11
124.427
 21
391.932
  0
LINE
  8
0
 10
124.427
 20
391.932
 11
124.257
 21
392.379
  0
LINE
  8
0
 10
124.257
 20
392.379
 11
124.315
 21
392.855
  0
LINE
  8
0
 10
124.315
 20
392.855
 11
124.587
 21
393.249
  0
LINE
  8
0
 10
124.587
 20
393.249
 11
125.011
 21
393.471
  0
LINE
  8
0
 10
125.011
 20
393.471
 11
125.489
 21
393.471
  0
LINE
  8
0
 10
125.489
 20
393.471
 11
125.913
 21
393.249
  0
LINE
  8
0
 10
125.913
 20
393.249
 11
126.185
 21
392.855
  0
LINE
  8
0
 10
126.185
 20
392.855
 11
126.243
 21
392.379
  0
LINE
  8
0
 10
126.243
 20
392.379
 11
126.073
 21
391.932
  0
LINE
  8
0
 10
126.073
 20
391.932
 11
125.715
 21
391.615
  0
LINE
  8
0
 10
125.715
 20
391.615
 11
125.25
 21
391.5
  0
LINE
  8
0
 10
125.25
 20
391.5
 11
124.785
 21
391.615
  0
LINE
  8
0
 10
220.595
 20
388.065
 11
220.201
 21
388.337
  0
LINE
  8
0
 10
220.201
 20
388.337
 11
219.979
 21
388.761
  0
LINE
  8
0
 10
219.979
 20
388.761
 11
219.979
 21
389.239
  0
LINE
  8
0
 10
219.979
 20
389.239
 11
220.201
 21
389.663
  0
LINE
  8
0
 10
220.201
 20
389.663
 11
220.595
 21
389.935
  0
LINE
  8
0
 10
220.595
 20
389.935
 11
221.071
 21
389.993
  0
LINE
  8
0
 10
221.071
 20
389.993
 11
221.518
 21
389.823
  0
LINE
  8
0
 10
221.518
 20
389.823
 11
221.835
 21
389.465
  0
LINE
  8
0
 10
221.835
 20
389.465
 11
221.95
 21
389
  0
LINE
  8
0
 10
221.95
 20
389
 11
221.835
 21
388.535
  0
LINE
  8
0
 10
221.835
 20
388.535
 11
221.518
 21
388.177
  0
LINE
  8
0
 10
221.518
 20
388.177
 11
221.071
 21
388.007
  0
LINE
  8
0
 10
221.071
 20
388.007
 11
220.595
 21
388.065
  0
LINE
  8
0
 10
186.195
 20
388.065
 11
185.801
 21
388.337
  0
LINE
  8
0
 10
185.801
 20
388.337
 11
185.579
 21
388.761
  0
LINE
  8
0
 10
185.579
 20
388.761
 11
185.579
 21
389.239
  0
LINE
  8
0
 10
185.579
 20
389.239
 11
185.801
 21
389.663
  0
LINE
  8
0
 10
185.801
 20
389.663
 11
186.195
 21
389.935
  0
LINE
  8
0
 10
186.195
 20
389.935
 11
186.671
 21
389.993
  0
LINE
  8
0
 10
186.671
 20
389.993
 11
187.118
 21
389.823
  0
LINE
  8
0
 10
187.118
 20
389.823
 11
187.435
 21
389.465
  0
LINE
  8
0
 10
187.435
 20
389.465
 11
187.55
 21
389
  0
LINE
  8
0
 10
187.55
 20
389
 11
187.435
 21
388.535
  0
LINE
  8
0
 10
187.435
 20
388.535
 11
187.118
 21
388.177
  0
LINE
  8
0
 10
187.118
 20
388.177
 11
186.671
 21
388.007
  0
LINE
  8
0
 10
186.671
 20
388.007
 11
186.195
 21
388.065
  0
LINE
  8
0
 10
-197.991
 20
380.015
 11
-198.459
 21
380.13
  0
LINE
  8
0
 10
-198.459
 20
380.13
 11
-198.886
 21
380.354
  0
LINE
  8
0
 10
-198.886
 20
380.354
 11
-199.247
 21
380.674
  0
LINE
  8
0
 10
-199.247
 20
380.674
 11
-199.521
 21
381.071
  0
LINE
  8
0
 10
-199.521
 20
381.071
 11
-199.692
 21
381.521
  0
LINE
  8
0
 10
-199.692
 20
381.521
 11
-199.75
 21
382
  0
LINE
  8
0
 10
-199.75
 20
382
 11
-199.692
 21
382.479
  0
LINE
  8
0
 10
-199.692
 20
382.479
 11
-199.521
 21
382.929
  0
LINE
  8
0
 10
-199.521
 20
382.929
 11
-199.247
 21
383.326
  0
LINE
  8
0
 10
-199.247
 20
383.326
 11
-198.886
 21
383.646
  0
LINE
  8
0
 10
-198.886
 20
383.646
 11
-198.459
 21
383.87
  0
LINE
  8
0
 10
-198.459
 20
383.87
 11
-197.991
 21
383.985
  0
LINE
  8
0
 10
-197.991
 20
383.985
 11
-197.509
 21
383.985
  0
LINE
  8
0
 10
-197.509
 20
383.985
 11
-197.041
 21
383.87
  0
LINE
  8
0
 10
-197.041
 20
383.87
 11
-196.614
 21
383.646
  0
LINE
  8
0
 10
-196.614
 20
383.646
 11
-196.253
 21
383.326
  0
LINE
  8
0
 10
-196.253
 20
383.326
 11
-195.979
 21
382.929
  0
LINE
  8
0
 10
-195.979
 20
382.929
 11
-195.808
 21
382.479
  0
LINE
  8
0
 10
-195.808
 20
382.479
 11
-195.75
 21
382
  0
LINE
  8
0
 10
-195.75
 20
382
 11
-195.808
 21
381.521
  0
LINE
  8
0
 10
-195.808
 20
381.521
 11
-195.979
 21
381.071
  0
LINE
  8
0
 10
-195.979
 20
381.071
 11
-196.253
 21
380.674
  0
LINE
  8
0
 10
-196.253
 20
380.674
 11
-196.614
 21
380.354
  0
LINE
  8
0
 10
-196.614
 20
380.354
 11
-197.041
 21
380.13
  0
LINE
  8
0
 10
-197.041
 20
380.13
 11
-197.509
 21
380.015
  0
LINE
  8
0
 10
-197.509
 20
380.015
 11
-197.991
 21
380.015
  0
LINE
  8
0
 10
-165.289
 20
363.519
 11
-165.713
 21
363.741
  0
LINE
  8
0
 10
-165.713
 20
363.741
 11
-165.985
 21
364.135
  0
LINE
  8
0
 10
-165.985
 20
364.135
 11
-166.043
 21
364.611
  0
LINE
  8
0
 10
-166.043
 20
364.611
 11
-165.873
 21
365.058
  0
LINE
  8
0
 10
-165.873
 20
365.058
 11
-165.515
 21
365.375
  0
LINE
  8
0
 10
-165.515
 20
365.375
 11
-165.05
 21
365.49
  0
LINE
  8
0
 10
-165.05
 20
365.49
 11
-164.585
 21
365.375
  0
LINE
  8
0
 10
-164.585
 20
365.375
 11
-164.227
 21
365.058
  0
LINE
  8
0
 10
-164.227
 20
365.058
 11
-164.057
 21
364.611
  0
LINE
  8
0
 10
-164.057
 20
364.611
 11
-164.115
 21
364.135
  0
LINE
  8
0
 10
-164.115
 20
364.135
 11
-164.387
 21
363.741
  0
LINE
  8
0
 10
-164.387
 20
363.741
 11
-164.811
 21
363.519
  0
LINE
  8
0
 10
-164.811
 20
363.519
 11
-165.289
 21
363.519
  0
LINE
  8
0
 10
127.985
 20
363.605
 11
127.627
 21
363.922
  0
LINE
  8
0
 10
127.627
 20
363.922
 11
127.457
 21
364.369
  0
LINE
  8
0
 10
127.457
 20
364.369
 11
127.515
 21
364.845
  0
LINE
  8
0
 10
127.515
 20
364.845
 11
127.787
 21
365.239
  0
LINE
  8
0
 10
127.787
 20
365.239
 11
128.211
 21
365.461
  0
LINE
  8
0
 10
128.211
 20
365.461
 11
128.689
 21
365.461
  0
LINE
  8
0
 10
128.689
 20
365.461
 11
129.113
 21
365.239
  0
LINE
  8
0
 10
129.113
 20
365.239
 11
129.385
 21
364.845
  0
LINE
  8
0
 10
129.385
 20
364.845
 11
129.443
 21
364.369
  0
LINE
  8
0
 10
129.443
 20
364.369
 11
129.273
 21
363.922
  0
LINE
  8
0
 10
129.273
 20
363.922
 11
128.915
 21
363.605
  0
LINE
  8
0
 10
128.915
 20
363.605
 11
128.45
 21
363.49
  0
LINE
  8
0
 10
128.45
 20
363.49
 11
127.985
 21
363.605
  0
LINE
  8
0
 10
50.5013
 20
327.55
 11
50.5013
 21
352.318
  0
LINE
  8
0
 10
50.5013
 20
352.318
 11
54.2133
 21
352.318
  0
LINE
  8
0
 10
54.2133
 20
352.318
 11
54.2133
 21
347.262
  0
LINE
  8
0
 10
54.2133
 20
347.262
 11
54.8241
 21
348.332
  0
LINE
  8
0
 10
54.8241
 20
348.332
 11
55.4699
 21
349.29
  0
LINE
  8
0
 10
55.4699
 20
349.29
 11
56.1509
 21
350.134
  0
LINE
  8
0
 10
56.1509
 20
350.134
 11
56.8669
 21
350.866
  0
LINE
  8
0
 10
56.8669
 20
350.866
 11
57.6181
 21
351.486
  0
LINE
  8
0
 10
57.6181
 20
351.486
 11
58.4043
 21
351.993
  0
LINE
  8
0
 10
58.4043
 20
351.993
 11
59.2257
 21
352.387
  0
LINE
  8
0
 10
59.2257
 20
352.387
 11
60.0821
 21
352.669
  0
LINE
  8
0
 10
60.0821
 20
352.669
 11
60.9737
 21
352.838
  0
LINE
  8
0
 10
60.9737
 20
352.838
 11
61.9003
 21
352.894
  0
LINE
  8
0
 10
61.9003
 20
352.894
 11
62.4586
 21
352.882
  0
LINE
  8
0
 10
62.4586
 20
352.882
 11
63.0136
 21
352.845
  0
LINE
  8
0
 10
63.0136
 20
352.845
 11
63.5653
 21
352.785
  0
LINE
  8
0
 10
63.5653
 20
352.785
 11
64.1136
 21
352.699
  0
LINE
  8
0
 10
64.1136
 20
352.699
 11
64.6586
 21
352.59
  0
LINE
  8
0
 10
64.6586
 20
352.59
 11
65.2002
 21
352.456
  0
LINE
  8
0
 10
65.2002
 20
352.456
 11
65.7385
 21
352.298
  0
LINE
  8
0
 10
65.7385
 20
352.298
 11
66.2734
 21
352.116
  0
LINE
  8
0
 10
66.2734
 20
352.116
 11
66.8051
 21
351.909
  0
LINE
  8
0
 10
66.8051
 20
351.909
 11
67.3333
 21
351.678
  0
LINE
  8
0
 10
67.3333
 20
351.678
 11
65.8383
 21
348.094
  0
LINE
  8
0
 10
65.8383
 20
348.094
 11
65.3564
 21
348.289
  0
LINE
  8
0
 10
65.3564
 20
348.289
 11
64.8876
 21
348.463
  0
LINE
  8
0
 10
64.8876
 20
348.463
 11
64.4322
 21
348.616
  0
LINE
  8
0
 10
64.4322
 20
348.616
 11
63.99
 21
348.749
  0
LINE
  8
0
 10
63.99
 20
348.749
 11
63.5611
 21
348.862
  0
LINE
  8
0
 10
63.5611
 20
348.862
 11
63.1454
 21
348.954
  0
LINE
  8
0
 10
63.1454
 20
348.954
 11
62.743
 21
349.026
  0
LINE
  8
0
 10
62.743
 20
349.026
 11
62.3538
 21
349.077
  0
LINE
  8
0
 10
62.3538
 20
349.077
 11
61.978
 21
349.108
  0
LINE
  8
0
 10
61.978
 20
349.108
 11
61.6153
 21
349.118
  0
LINE
  8
0
 10
61.6153
 20
349.118
 11
61.2886
 21
349.109
  0
LINE
  8
0
 10
61.2886
 20
349.109
 11
60.9634
 21
349.081
  0
LINE
  8
0
 10
60.9634
 20
349.081
 11
60.6395
 21
349.034
  0
LINE
  8
0
 10
60.6395
 20
349.034
 11
60.3171
 21
348.968
  0
LINE
  8
0
 10
60.3171
 20
348.968
 11
59.9961
 21
348.884
  0
LINE
  8
0
 10
59.9961
 20
348.884
 11
59.6765
 21
348.781
  0
LINE
  8
0
 10
59.6765
 20
348.781
 11
59.3583
 21
348.659
  0
LINE
  8
0
 10
59.3583
 20
348.659
 11
59.0415
 21
348.519
  0
LINE
  8
0
 10
59.0415
 20
348.519
 11
58.7262
 21
348.36
  0
LINE
  8
0
 10
58.7262
 20
348.36
 11
58.4123
 21
348.182
  0
LINE
  8
0
 10
58.4123
 20
348.182
 11
58.1016
 21
347.987
  0
LINE
  8
0
 10
58.1016
 20
347.987
 11
57.7959
 21
347.775
  0
LINE
  8
0
 10
57.7959
 20
347.775
 11
57.4951
 21
347.548
  0
LINE
  8
0
 10
57.4951
 20
347.548
 11
57.1994
 21
347.304
  0
LINE
  8
0
 10
57.1994
 20
347.304
 11
56.9086
 21
347.044
  0
LINE
  8
0
 10
56.9086
 20
347.044
 11
56.6228
 21
346.769
  0
LINE
  8
0
 10
56.6228
 20
346.769
 11
56.3419
 21
346.477
  0
LINE
  8
0
 10
56.3419
 20
346.477
 11
56.0661
 21
346.169
  0
LINE
  8
0
 10
56.0661
 20
346.169
 11
55.7952
 21
345.844
  0
LINE
  8
0
 10
55.7952
 20
345.844
 11
55.5293
 21
345.504
  0
LINE
  8
0
 10
55.5293
 20
345.504
 11
55.2793
 21
345.171
  0
LINE
  8
0
 10
55.2793
 20
345.171
 11
55.0556
 21
344.869
  0
LINE
  8
0
 10
55.0556
 20
344.869
 11
54.8582
 21
344.597
  0
LINE
  8
0
 10
54.8582
 20
344.597
 11
54.6871
 21
344.356
  0
LINE
  8
0
 10
54.6871
 20
344.356
 11
54.5423
 21
344.145
  0
LINE
  8
0
 10
54.5423
 20
344.145
 11
54.4239
 21
343.965
  0
LINE
  8
0
 10
54.4239
 20
343.965
 11
54.3318
 21
343.815
  0
LINE
  8
0
 10
54.3318
 20
343.815
 11
54.266
 21
343.696
  0
LINE
  8
0
 10
54.266
 20
343.696
 11
54.2265
 21
343.608
  0
LINE
  8
0
 10
54.2265
 20
343.608
 11
54.2133
 21
343.55
  0
LINE
  8
0
 10
54.2133
 20
343.55
 11
54.2133
 21
327.55
  0
LINE
  8
0
 10
54.2133
 20
327.55
 11
50.5013
 21
327.55
  0
LINE
  8
0
 10
-1.86052
 20
326.988
 11
-2.72475
 21
327.03
  0
LINE
  8
0
 10
-2.72475
 20
327.03
 11
-3.55716
 21
327.101
  0
LINE
  8
0
 10
-3.55716
 20
327.101
 11
-4.35771
 21
327.199
  0
LINE
  8
0
 10
-4.35771
 20
327.199
 11
-5.12643
 21
327.326
  0
LINE
  8
0
 10
-5.12643
 20
327.326
 11
-5.86331
 21
327.481
  0
LINE
  8
0
 10
-5.86331
 20
327.481
 11
-6.56836
 21
327.664
  0
LINE
  8
0
 10
-6.56836
 20
327.664
 11
-7.24155
 21
327.875
  0
LINE
  8
0
 10
-7.24155
 20
327.875
 11
-7.88292
 21
328.114
  0
LINE
  8
0
 10
-7.88292
 20
328.114
 11
-8.49243
 21
328.382
  0
LINE
  8
0
 10
-8.49243
 20
328.382
 11
-7.78044
 21
331.582
  0
LINE
  8
0
 10
-7.78044
 20
331.582
 11
-7.15411
 21
331.302
  0
LINE
  8
0
 10
-7.15411
 20
331.302
 11
-6.51875
 21
331.052
  0
LINE
  8
0
 10
-6.51875
 20
331.052
 11
-5.87436
 21
330.831
  0
LINE
  8
0
 10
-5.87436
 20
330.831
 11
-5.22092
 21
330.64
  0
LINE
  8
0
 10
-5.22092
 20
330.64
 11
-4.55844
 21
330.478
  0
LINE
  8
0
 10
-4.55844
 20
330.478
 11
-3.88692
 21
330.346
  0
LINE
  8
0
 10
-3.88692
 20
330.346
 11
-3.20636
 21
330.242
  0
LINE
  8
0
 10
-3.20636
 20
330.242
 11
-2.51675
 21
330.169
  0
LINE
  8
0
 10
-2.51675
 20
330.169
 11
-1.81812
 21
330.125
  0
LINE
  8
0
 10
-1.81812
 20
330.125
 11
-1.11043
 21
330.11
  0
LINE
  8
0
 10
-1.11043
 20
330.11
 11
-0.504944
 21
330.121
  0
LINE
  8
0
 10
-0.504944
 20
330.121
 11
0.0775146
 21
330.156
  0
LINE
  8
0
 10
0.0775146
 20
330.156
 11
0.636963
 21
330.213
  0
LINE
  8
0
 10
0.636963
 20
330.213
 11
1.17339
 21
330.293
  0
LINE
  8
0
 10
1.17339
 20
330.293
 11
1.6868
 21
330.395
  0
LINE
  8
0
 10
1.6868
 20
330.395
 11
2.17719
 21
330.521
  0
LINE
  8
0
 10
2.17719
 20
330.521
 11
2.64456
 21
330.669
  0
LINE
  8
0
 10
2.64456
 20
330.669
 11
3.08891
 21
330.84
  0
LINE
  8
0
 10
3.08891
 20
330.84
 11
3.51024
 21
331.034
  0
LINE
  8
0
 10
3.51024
 20
331.034
 11
3.90855
 21
331.251
  0
LINE
  8
0
 10
3.90855
 20
331.251
 11
4.2762
 21
331.487
  0
LINE
  8
0
 10
4.2762
 20
331.487
 11
4.60515
 21
331.737
  0
LINE
  8
0
 10
4.60515
 20
331.737
 11
4.8954
 21
332.003
  0
LINE
  8
0
 10
4.8954
 20
332.003
 11
5.14696
 21
332.283
  0
LINE
  8
0
 10
5.14696
 20
332.283
 11
5.3598
 21
332.578
  0
LINE
  8
0
 10
5.3598
 20
332.578
 11
5.53395
 21
332.888
  0
LINE
  8
0
 10
5.53395
 20
332.888
 11
5.6694
 21
333.213
  0
LINE
  8
0
 10
5.6694
 20
333.213
 11
5.76614
 21
333.552
  0
LINE
  8
0
 10
5.76614
 20
333.552
 11
5.8242
 21
333.907
  0
LINE
  8
0
 10
5.8242
 20
333.907
 11
5.84355
 21
334.276
  0
LINE
  8
0
 10
5.84355
 20
334.276
 11
5.83408
 21
334.527
  0
LINE
  8
0
 10
5.83408
 20
334.527
 11
5.80563
 21
334.774
  0
LINE
  8
0
 10
5.80563
 20
334.774
 11
5.75822
 21
335.014
  0
LINE
  8
0
 10
5.75822
 20
335.014
 11
5.69186
 21
335.249
  0
LINE
  8
0
 10
5.69186
 20
335.249
 11
5.60655
 21
335.479
  0
LINE
  8
0
 10
5.60655
 20
335.479
 11
5.50227
 21
335.704
  0
LINE
  8
0
 10
5.50227
 20
335.704
 11
5.37903
 21
335.923
  0
LINE
  8
0
 10
5.37903
 20
335.923
 11
5.23683
 21
336.136
  0
LINE
  8
0
 10
5.23683
 20
336.136
 11
5.07567
 21
336.344
  0
LINE
  8
0
 10
5.07567
 20
336.344
 11
4.89555
 21
336.547
  0
LINE
  8
0
 10
4.89555
 20
336.547
 11
4.67975
 21
336.748
  0
LINE
  8
0
 10
4.67975
 20
336.748
 11
4.41154
 21
336.951
  0
LINE
  8
0
 10
4.41154
 20
336.951
 11
4.09096
 21
337.156
  0
LINE
  8
0
 10
4.09096
 20
337.156
 11
3.71796
 21
337.363
  0
LINE
  8
0
 10
3.71796
 20
337.363
 11
3.29256
 21
337.572
  0
LINE
  8
0
 10
3.29256
 20
337.572
 11
2.81476
 21
337.782
  0
LINE
  8
0
 10
2.81476
 20
337.782
 11
2.28455
 21
337.995
  0
LINE
  8
0
 10
2.28455
 20
337.995
 11
1.70195
 21
338.209
  0
LINE
  8
0
 10
1.70195
 20
338.209
 11
1.06696
 21
338.426
  0
LINE
  8
0
 10
1.06696
 20
338.426
 11
0.379547
 21
338.644
  0
LINE
  8
0
 10
0.379547
 20
338.644
 11
-1.21077
 21
339.133
  0
LINE
  8
0
 10
-1.21077
 20
339.133
 11
-2.90477
 21
339.663
  0
LINE
  8
0
 10
-2.90477
 20
339.663
 11
-3.85544
 21
339.967
  0
LINE
  8
0
 10
-3.85544
 20
339.967
 11
-4.12471
 21
340.059
  0
LINE
  8
0
 10
-4.12471
 20
340.059
 11
-4.39011
 21
340.16
  0
LINE
  8
0
 10
-4.39011
 20
340.16
 11
-4.65166
 21
340.269
  0
LINE
  8
0
 10
-4.65166
 20
340.269
 11
-4.90935
 21
340.386
  0
LINE
  8
0
 10
-4.90935
 20
340.386
 11
-5.16318
 21
340.511
  0
LINE
  8
0
 10
-5.16318
 20
340.511
 11
-5.41315
 21
340.645
  0
LINE
  8
0
 10
-5.41315
 20
340.645
 11
-5.65927
 21
340.786
  0
LINE
  8
0
 10
-5.65927
 20
340.786
 11
-5.90152
 21
340.936
  0
LINE
  8
0
 10
-5.90152
 20
340.936
 11
-6.13991
 21
341.095
  0
LINE
  8
0
 10
-6.13991
 20
341.095
 11
-6.37444
 21
341.261
  0
LINE
  8
0
 10
-6.37444
 20
341.261
 11
-6.60147
 21
341.435
  0
LINE
  8
0
 10
-6.60147
 20
341.435
 11
-6.81735
 21
341.615
  0
LINE
  8
0
 10
-6.81735
 20
341.615
 11
-7.02211
 21
341.803
  0
LINE
  8
0
 10
-7.02211
 20
341.803
 11
-7.21571
 21
341.996
  0
LINE
  8
0
 10
-7.21571
 20
341.996
 11
-7.39818
 21
342.197
  0
LINE
  8
0
 10
-7.39818
 20
342.197
 11
-7.56952
 21
342.404
  0
LINE
  8
0
 10
-7.56952
 20
342.404
 11
-7.72971
 21
342.617
  0
LINE
  8
0
 10
-7.72971
 20
342.617
 11
-7.87875
 21
342.838
  0
LINE
  8
0
 10
-7.87875
 20
342.838
 11
-8.01666
 21
343.064
  0
LINE
  8
0
 10
-8.01666
 20
343.064
 11
-8.14343
 21
343.298
  0
LINE
  8
0
 10
-8.14343
 20
343.298
 11
-8.25838
 21
343.538
  0
LINE
  8
0
 10
-8.25838
 20
343.538
 11
-8.36124
 21
343.783
  0
LINE
  8
0
 10
-8.36124
 20
343.783
 11
-8.45198
 21
344.035
  0
LINE
  8
0
 10
-8.45198
 20
344.035
 11
-8.53064
 21
344.291
  0
LINE
  8
0
 10
-8.53064
 20
344.291
 11
-8.59718
 21
344.554
  0
LINE
  8
0
 10
-8.59718
 20
344.554
 11
-8.65163
 21
344.822
  0
LINE
  8
0
 10
-8.65163
 20
344.822
 11
-8.69398
 21
345.096
  0
LINE
  8
0
 10
-8.69398
 20
345.096
 11
-8.72423
 21
345.376
  0
LINE
  8
0
 10
-8.72423
 20
345.376
 11
-8.74239
 21
345.661
  0
LINE
  8
0
 10
-8.74239
 20
345.661
 11
-8.74843
 21
345.952
  0
LINE
  8
0
 10
-8.74843
 20
345.952
 11
-8.7204
 21
346.579
  0
LINE
  8
0
 10
-8.7204
 20
346.579
 11
-8.63628
 21
347.178
  0
LINE
  8
0
 10
-8.63628
 20
347.178
 11
-8.49608
 21
347.752
  0
LINE
  8
0
 10
-8.49608
 20
347.752
 11
-8.29979
 21
348.299
  0
LINE
  8
0
 10
-8.29979
 20
348.299
 11
-8.04744
 21
348.819
  0
LINE
  8
0
 10
-8.04744
 20
348.819
 11
-7.739
 21
349.313
  0
LINE
  8
0
 10
-7.739
 20
349.313
 11
-7.37448
 21
349.78
  0
LINE
  8
0
 10
-7.37448
 20
349.78
 11
-6.95387
 21
350.22
  0
LINE
  8
0
 10
-6.95387
 20
350.22
 11
-6.47719
 21
350.635
  0
LINE
  8
0
 10
-6.47719
 20
350.635
 11
-5.94443
 21
351.022
  0
LINE
  8
0
 10
-5.94443
 20
351.022
 11
-5.36534
 21
351.378
  0
LINE
  8
0
 10
-5.36534
 20
351.378
 11
-4.74963
 21
351.696
  0
LINE
  8
0
 10
-4.74963
 20
351.696
 11
-4.09734
 21
351.977
  0
LINE
  8
0
 10
-4.09734
 20
351.977
 11
-3.40843
 21
352.22
  0
LINE
  8
0
 10
-3.40843
 20
352.22
 11
-2.68294
 21
352.426
  0
LINE
  8
0
 10
-2.68294
 20
352.426
 11
-1.92084
 21
352.594
  0
LINE
  8
0
 10
-1.92084
 20
352.594
 11
-1.12213
 21
352.725
  0
LINE
  8
0
 10
-1.12213
 20
352.725
 11
-0.286835
 21
352.819
  0
LINE
  8
0
 10
-0.286835
 20
352.819
 11
0.585052
 21
352.875
  0
LINE
  8
0
 10
0.585052
 20
352.875
 11
1.49355
 21
352.894
  0
LINE
  8
0
 10
1.49355
 20
352.894
 11
2.09901
 21
352.884
  0
LINE
  8
0
 10
2.09901
 20
352.884
 11
2.71779
 21
352.853
  0
LINE
  8
0
 10
2.71779
 20
352.853
 11
3.34988
 21
352.802
  0
LINE
  8
0
 10
3.34988
 20
352.802
 11
3.99532
 21
352.73
  0
LINE
  8
0
 10
3.99532
 20
352.73
 11
4.65405
 21
352.638
  0
LINE
  8
0
 10
4.65405
 20
352.638
 11
5.32611
 21
352.525
  0
LINE
  8
0
 10
5.32611
 20
352.525
 11
6.01149
 21
352.392
  0
LINE
  8
0
 10
6.01149
 20
352.392
 11
6.71019
 21
352.239
  0
LINE
  8
0
 10
6.71019
 20
352.239
 11
7.42221
 21
352.065
  0
LINE
  8
0
 10
7.42221
 20
352.065
 11
8.14755
 21
351.87
  0
LINE
  8
0
 10
8.14755
 20
351.87
 11
7.31955
 21
348.734
  0
LINE
  8
0
 10
7.31955
 20
348.734
 11
6.7029
 21
348.929
  0
LINE
  8
0
 10
6.7029
 20
348.929
 11
6.09335
 21
349.103
  0
LINE
  8
0
 10
6.09335
 20
349.103
 11
5.49091
 21
349.256
  0
LINE
  8
0
 10
5.49091
 20
349.256
 11
4.89555
 21
349.389
  0
LINE
  8
0
 10
4.89555
 20
349.389
 11
4.3073
 21
349.502
  0
LINE
  8
0
 10
4.3073
 20
349.502
 11
3.72615
 21
349.594
  0
LINE
  8
0
 10
3.72615
 20
349.594
 11
3.1521
 21
349.666
  0
LINE
  8
0
 10
3.1521
 20
349.666
 11
2.58514
 21
349.717
  0
LINE
  8
0
 10
2.58514
 20
349.717
 11
2.0253
 21
349.748
  0
LINE
  8
0
 10
2.0253
 20
349.748
 11
1.47255
 21
349.758
  0
LINE
  8
0
 10
1.47255
 20
349.758
 11
0.883896
 21
349.748
  0
LINE
  8
0
 10
0.883896
 20
349.748
 11
0.320312
 21
349.718
  0
LINE
  8
0
 10
0.320312
 20
349.718
 11
-0.21817
 21
349.668
  0
LINE
  8
0
 10
-0.21817
 20
349.668
 11
-0.731598
 21
349.598
  0
LINE
  8
0
 10
-0.731598
 20
349.598
 11
-1.21994
 21
349.508
  0
LINE
  8
0
 10
-1.21994
 20
349.508
 11
-1.6832
 21
349.398
  0
LINE
  8
0
 10
-1.6832
 20
349.398
 11
-2.12137
 21
349.268
  0
LINE
  8
0
 10
-2.12137
 20
349.268
 11
-2.53447
 21
349.119
  0
LINE
  8
0
 10
-2.53447
 20
349.119
 11
-2.9225
 21
348.949
  0
LINE
  8
0
 10
-2.9225
 20
348.949
 11
-3.28543
 21
348.759
  0
LINE
  8
0
 10
-3.28543
 20
348.759
 11
-3.61812
 21
348.552
  0
LINE
  8
0
 10
-3.61812
 20
348.552
 11
-3.91579
 21
348.333
  0
LINE
  8
0
 10
-3.91579
 20
348.333
 11
-4.17844
 21
348.099
  0
LINE
  8
0
 10
-4.17844
 20
348.099
 11
-4.40607
 21
347.852
  0
LINE
  8
0
 10
-4.40607
 20
347.852
 11
-4.59868
 21
347.592
  0
LINE
  8
0
 10
-4.59868
 20
347.592
 11
-4.75627
 21
347.319
  0
LINE
  8
0
 10
-4.75627
 20
347.319
 11
-4.87885
 21
347.032
  0
LINE
  8
0
 10
-4.87885
 20
347.032
 11
-4.9664
 21
346.731
  0
LINE
  8
0
 10
-4.9664
 20
346.731
 11
-5.01892
 21
346.417
  0
LINE
  8
0
 10
-5.01892
 20
346.417
 11
-5.03644
 21
346.09
  0
LINE
  8
0
 10
-5.03644
 20
346.09
 11
-5.02841
 21
345.881
  0
LINE
  8
0
 10
-5.02841
 20
345.881
 11
-5.00435
 21
345.678
  0
LINE
  8
0
 10
-5.00435
 20
345.678
 11
-4.96425
 21
345.479
  0
LINE
  8
0
 10
-4.96425
 20
345.479
 11
-4.90811
 21
345.287
  0
LINE
  8
0
 10
-4.90811
 20
345.287
 11
-4.83594
 21
345.1
  0
LINE
  8
0
 10
-4.83594
 20
345.1
 11
-4.74771
 21
344.918
  0
LINE
  8
0
 10
-4.74771
 20
344.918
 11
-4.64345
 21
344.741
  0
LINE
  8
0
 10
-4.64345
 20
344.741
 11
-4.52315
 21
344.57
  0
LINE
  8
0
 10
-4.52315
 20
344.57
 11
-4.38681
 21
344.404
  0
LINE
  8
0
 10
-4.38681
 20
344.404
 11
-4.23444
 21
344.244
  0
LINE
  8
0
 10
-4.23444
 20
344.244
 11
-4.05779
 21
344.088
  0
LINE
  8
0
 10
-4.05779
 20
344.088
 11
-3.84903
 21
343.933
  0
LINE
  8
0
 10
-3.84903
 20
343.933
 11
-3.60818
 21
343.78
  0
LINE
  8
0
 10
-3.60818
 20
343.78
 11
-3.33524
 21
343.63
  0
LINE
  8
0
 10
-3.33524
 20
343.63
 11
-3.03018
 21
343.481
  0
LINE
  8
0
 10
-3.03018
 20
343.481
 11
-2.69304
 21
343.334
  0
LINE
  8
0
 10
-2.69304
 20
343.334
 11
-2.32378
 21
343.189
  0
LINE
  8
0
 10
-2.32378
 20
343.189
 11
-1.92244
 21
343.046
  0
LINE
  8
0
 10
-1.92244
 20
343.046
 11
-1.48898
 21
342.904
  0
LINE
  8
0
 10
-1.48898
 20
342.904
 11
-1.02344
 21
342.765
  0
LINE
  8
0
 10
-1.02344
 20
342.765
 11
2.49455
 21
341.74
  0
LINE
  8
0
 10
2.49455
 20
341.74
 11
2.97206
 21
341.599
  0
LINE
  8
0
 10
2.97206
 20
341.599
 11
3.43179
 21
341.452
  0
LINE
  8
0
 10
3.43179
 20
341.452
 11
3.87373
 21
341.301
  0
LINE
  8
0
 10
3.87373
 20
341.301
 11
4.29791
 21
341.144
  0
LINE
  8
0
 10
4.29791
 20
341.144
 11
4.7043
 21
340.981
  0
LINE
  8
0
 10
4.7043
 20
340.981
 11
5.09291
 21
340.813
  0
LINE
  8
0
 10
5.09291
 20
340.813
 11
5.46375
 21
340.64
  0
LINE
  8
0
 10
5.46375
 20
340.64
 11
5.81679
 21
340.461
  0
LINE
  8
0
 10
5.81679
 20
340.461
 11
6.15205
 21
340.277
  0
LINE
  8
0
 10
6.15205
 20
340.277
 11
6.46954
 21
340.088
  0
LINE
  8
0
 10
6.46954
 20
340.088
 11
6.77043
 21
339.892
  0
LINE
  8
0
 10
6.77043
 20
339.892
 11
7.05588
 21
339.688
  0
LINE
  8
0
 10
7.05588
 20
339.688
 11
7.32587
 21
339.476
  0
LINE
  8
0
 10
7.32587
 20
339.476
 11
7.58043
 21
339.256
  0
LINE
  8
0
 10
7.58043
 20
339.256
 11
7.81955
 21
339.028
  0
LINE
  8
0
 10
7.81955
 20
339.028
 11
8.04323
 21
338.792
  0
LINE
  8
0
 10
8.04323
 20
338.792
 11
8.25146
 21
338.547
  0
LINE
  8
0
 10
8.25146
 20
338.547
 11
8.44427
 21
338.295
  0
LINE
  8
0
 10
8.44427
 20
338.295
 11
8.62163
 21
338.035
  0
LINE
  8
0
 10
8.62163
 20
338.035
 11
8.78355
 21
337.766
  0
LINE
  8
0
 10
8.78355
 20
337.766
 11
8.93024
 21
337.489
  0
LINE
  8
0
 10
8.93024
 20
337.489
 11
9.06148
 21
337.204
  0
LINE
  8
0
 10
9.06148
 20
337.204
 11
9.17728
 21
336.909
  0
LINE
  8
0
 10
9.17728
 20
336.909
 11
9.27763
 21
336.606
  0
LINE
  8
0
 10
9.27763
 20
336.606
 11
9.36255
 21
336.294
  0
LINE
  8
0
 10
9.36255
 20
336.294
 11
9.43204
 21
335.974
  0
LINE
  8
0
 10
9.43204
 20
335.974
 11
9.48607
 21
335.644
  0
LINE
  8
0
 10
9.48607
 20
335.644
 11
9.52467
 21
335.306
  0
LINE
  8
0
 10
9.52467
 20
335.306
 11
9.54784
 21
334.959
  0
LINE
  8
0
 10
9.54784
 20
334.959
 11
9.55556
 21
334.603
  0
LINE
  8
0
 10
9.55556
 20
334.603
 11
9.52586
 21
333.912
  0
LINE
  8
0
 10
9.52586
 20
333.912
 11
9.4368
 21
333.25
  0
LINE
  8
0
 10
9.4368
 20
333.25
 11
9.28835
 21
332.618
  0
LINE
  8
0
 10
9.28835
 20
332.618
 11
9.08051
 21
332.016
  0
LINE
  8
0
 10
9.08051
 20
332.016
 11
8.81329
 21
331.443
  0
LINE
  8
0
 10
8.81329
 20
331.443
 11
8.48671
 21
330.9
  0
LINE
  8
0
 10
8.48671
 20
330.9
 11
8.10074
 21
330.386
  0
LINE
  8
0
 10
8.10074
 20
330.386
 11
7.6554
 21
329.902
  0
LINE
  8
0
 10
7.6554
 20
329.902
 11
7.15067
 21
329.448
  0
LINE
  8
0
 10
7.15067
 20
329.448
 11
6.58655
 21
329.023
  0
LINE
  8
0
 10
6.58655
 20
329.023
 11
5.97681
 21
328.634
  0
LINE
  8
0
 10
5.97681
 20
328.634
 11
5.33475
 21
328.285
  0
LINE
  8
0
 10
5.33475
 20
328.285
 11
4.6604
 21
327.978
  0
LINE
  8
0
 10
4.6604
 20
327.978
 11
3.95375
 21
327.712
  0
LINE
  8
0
 10
3.95375
 20
327.712
 11
3.2148
 21
327.486
  0
LINE
  8
0
 10
3.2148
 20
327.486
 11
2.44356
 21
327.302
  0
LINE
  8
0
 10
2.44356
 20
327.302
 11
1.64
 21
327.158
  0
LINE
  8
0
 10
1.64
 20
327.158
 11
0.804153
 21
327.056
  0
LINE
  8
0
 10
0.804153
 20
327.056
 11
-0.0639801
 21
326.994
  0
LINE
  8
0
 10
-0.0639801
 20
326.994
 11
-0.964432
 21
326.974
  0
LINE
  8
0
 10
-0.964432
 20
326.974
 11
-1.86052
 21
326.988
  0
LINE
  8
0
 10
30.0695
 20
327.009
 11
28.9718
 21
327.116
  0
LINE
  8
0
 10
28.9718
 20
327.116
 11
27.9213
 21
327.293
  0
LINE
  8
0
 10
27.9213
 20
327.293
 11
26.9181
 21
327.541
  0
LINE
  8
0
 10
26.9181
 20
327.541
 11
25.9622
 21
327.859
  0
LINE
  8
0
 10
25.9622
 20
327.859
 11
25.0535
 21
328.249
  0
LINE
  8
0
 10
25.0535
 20
328.249
 11
24.1921
 21
328.71
  0
LINE
  8
0
 10
24.1921
 20
328.71
 11
23.378
 21
329.241
  0
LINE
  8
0
 10
23.378
 20
329.241
 11
22.6111
 21
329.843
  0
LINE
  8
0
 10
22.6111
 20
329.843
 11
21.8914
 21
330.516
  0
LINE
  8
0
 10
21.8914
 20
330.516
 11
21.2304
 21
331.248
  0
LINE
  8
0
 10
21.2304
 20
331.248
 11
20.639
 21
332.026
  0
LINE
  8
0
 10
20.639
 20
332.026
 11
20.1171
 21
332.851
  0
LINE
  8
0
 10
20.1171
 20
332.851
 11
19.6649
 21
333.723
  0
LINE
  8
0
 10
19.6649
 20
333.723
 11
19.2822
 21
334.641
  0
LINE
  8
0
 10
19.2822
 20
334.641
 11
18.9691
 21
335.607
  0
LINE
  8
0
 10
18.9691
 20
335.607
 11
18.7255
 21
336.618
  0
LINE
  8
0
 10
18.7255
 20
336.618
 11
18.5516
 21
337.677
  0
LINE
  8
0
 10
18.5516
 20
337.677
 11
18.4472
 21
338.782
  0
LINE
  8
0
 10
18.4472
 20
338.782
 11
18.4124
 21
339.934
  0
LINE
  8
0
 10
18.4124
 20
339.934
 11
18.4475
 21
341.086
  0
LINE
  8
0
 10
18.4475
 20
341.086
 11
18.5528
 21
342.191
  0
LINE
  8
0
 10
18.5528
 20
342.191
 11
18.7282
 21
343.25
  0
LINE
  8
0
 10
18.7282
 20
343.25
 11
18.9739
 21
344.261
  0
LINE
  8
0
 10
18.9739
 20
344.261
 11
19.2897
 21
345.227
  0
LINE
  8
0
 10
19.2897
 20
345.227
 11
19.6757
 21
346.145
  0
LINE
  8
0
 10
19.6757
 20
346.145
 11
20.1319
 21
347.017
  0
LINE
  8
0
 10
20.1319
 20
347.017
 11
20.6582
 21
347.842
  0
LINE
  8
0
 10
20.6582
 20
347.842
 11
21.2547
 21
348.62
  0
LINE
  8
0
 10
21.2547
 20
348.62
 11
21.9214
 21
349.352
  0
LINE
  8
0
 10
21.9214
 20
349.352
 11
22.6452
 21
350.025
  0
LINE
  8
0
 10
22.6452
 20
350.025
 11
23.413
 21
350.627
  0
LINE
  8
0
 10
23.413
 20
350.627
 11
24.2248
 21
351.158
  0
LINE
  8
0
 10
24.2248
 20
351.158
 11
25.0806
 21
351.619
  0
LINE
  8
0
 10
25.0806
 20
351.619
 11
25.9804
 21
352.008
  0
LINE
  8
0
 10
25.9804
 20
352.008
 11
26.9242
 21
352.327
  0
LINE
  8
0
 10
26.9242
 20
352.327
 11
27.912
 21
352.575
  0
LINE
  8
0
 10
27.912
 20
352.575
 11
28.9438
 21
352.752
  0
LINE
  8
0
 10
28.9438
 20
352.752
 11
30.0196
 21
352.859
  0
LINE
  8
0
 10
30.0196
 20
352.859
 11
31.1394
 21
352.894
  0
LINE
  8
0
 10
31.1394
 20
352.894
 11
31.8829
 21
352.881
  0
LINE
  8
0
 10
31.8829
 20
352.881
 11
32.6192
 21
352.843
  0
LINE
  8
0
 10
32.6192
 20
352.843
 11
33.3483
 21
352.779
  0
LINE
  8
0
 10
33.3483
 20
352.779
 11
34.0703
 21
352.689
  0
LINE
  8
0
 10
34.0703
 20
352.689
 11
34.7852
 21
352.574
  0
LINE
  8
0
 10
34.7852
 20
352.574
 11
35.4929
 21
352.433
  0
LINE
  8
0
 10
35.4929
 20
352.433
 11
36.1935
 21
352.267
  0
LINE
  8
0
 10
36.1935
 20
352.267
 11
36.8869
 21
352.075
  0
LINE
  8
0
 10
36.8869
 20
352.075
 11
37.5733
 21
351.857
  0
LINE
  8
0
 10
37.5733
 20
351.857
 11
38.2524
 21
351.614
  0
LINE
  8
0
 10
38.2524
 20
351.614
 11
37.2734
 21
348.542
  0
LINE
  8
0
 10
37.2734
 20
348.542
 11
36.6019
 21
348.761
  0
LINE
  8
0
 10
36.6019
 20
348.761
 11
35.9438
 21
348.957
  0
LINE
  8
0
 10
35.9438
 20
348.957
 11
35.299
 21
349.13
  0
LINE
  8
0
 10
35.299
 20
349.13
 11
34.6675
 21
349.279
  0
LINE
  8
0
 10
34.6675
 20
349.279
 11
34.0494
 21
349.406
  0
LINE
  8
0
 10
34.0494
 20
349.406
 11
33.4447
 21
349.51
  0
LINE
  8
0
 10
33.4447
 20
349.51
 11
32.8533
 21
349.59
  0
LINE
  8
0
 10
32.8533
 20
349.59
 11
32.2754
 21
349.648
  0
LINE
  8
0
 10
32.2754
 20
349.648
 11
31.7107
 21
349.682
  0
LINE
  8
0
 10
31.7107
 20
349.682
 11
31.1594
 21
349.694
  0
LINE
  8
0
 10
31.1594
 20
349.694
 11
30.3551
 21
349.668
  0
LINE
  8
0
 10
30.3551
 20
349.668
 11
29.5849
 21
349.589
  0
LINE
  8
0
 10
29.5849
 20
349.589
 11
28.8489
 21
349.457
  0
LINE
  8
0
 10
28.8489
 20
349.457
 11
28.147
 21
349.273
  0
LINE
  8
0
 10
28.147
 20
349.273
 11
27.4792
 21
349.036
  0
LINE
  8
0
 10
27.4792
 20
349.036
 11
26.8456
 21
348.746
  0
LINE
  8
0
 10
26.8456
 20
348.746
 11
26.2461
 21
348.404
  0
LINE
  8
0
 10
26.2461
 20
348.404
 11
25.6807
 21
348.009
  0
LINE
  8
0
 10
25.6807
 20
348.009
 11
25.1495
 21
347.561
  0
LINE
  8
0
 10
25.1495
 20
347.561
 11
24.6524
 21
347.061
  0
LINE
  8
0
 10
24.6524
 20
347.061
 11
24.1964
 21
346.516
  0
LINE
  8
0
 10
24.1964
 20
346.516
 11
23.7884
 21
345.933
  0
LINE
  8
0
 10
23.7884
 20
345.933
 11
23.4284
 21
345.313
  0
LINE
  8
0
 10
23.4284
 20
345.313
 11
23.1164
 21
344.655
  0
LINE
  8
0
 10
23.1164
 20
344.655
 11
22.8524
 21
343.96
  0
LINE
  8
0
 10
22.8524
 20
343.96
 11
22.6364
 21
343.228
  0
LINE
  8
0
 10
22.6364
 20
343.228
 11
22.4684
 21
342.457
  0
LINE
  8
0
 10
22.4684
 20
342.457
 11
22.3484
 21
341.65
  0
LINE
  8
0
 10
22.3484
 20
341.65
 11
22.2764
 21
340.805
  0
LINE
  8
0
 10
22.2764
 20
340.805
 11
22.2524
 21
339.922
  0
LINE
  8
0
 10
22.2524
 20
339.922
 11
22.2772
 21
339.11
  0
LINE
  8
0
 10
22.2772
 20
339.11
 11
22.3515
 21
338.324
  0
LINE
  8
0
 10
22.3515
 20
338.324
 11
22.4754
 21
337.564
  0
LINE
  8
0
 10
22.4754
 20
337.564
 11
22.6489
 21
336.831
  0
LINE
  8
0
 10
22.6489
 20
336.831
 11
22.8719
 21
336.124
  0
LINE
  8
0
 10
22.8719
 20
336.124
 11
23.1445
 21
335.443
  0
LINE
  8
0
 10
23.1445
 20
335.443
 11
23.4667
 21
334.789
  0
LINE
  8
0
 10
23.4667
 20
334.789
 11
23.8383
 21
334.161
  0
LINE
  8
0
 10
23.8383
 20
334.161
 11
24.2596
 21
333.559
  0
LINE
  8
0
 10
24.2596
 20
333.559
 11
24.7304
 21
332.984
  0
LINE
  8
0
 10
24.7304
 20
332.984
 11
25.2413
 21
332.45
  0
LINE
  8
0
 10
25.2413
 20
332.45
 11
25.7821
 21
331.972
  0
LINE
  8
0
 10
25.7821
 20
331.972
 11
26.353
 21
331.551
  0
LINE
  8
0
 10
26.353
 20
331.551
 11
26.9539
 21
331.186
  0
LINE
  8
0
 10
26.9539
 20
331.186
 11
27.5849
 21
330.876
  0
LINE
  8
0
 10
27.5849
 20
330.876
 11
28.246
 21
330.624
  0
LINE
  8
0
 10
28.246
 20
330.624
 11
28.937
 21
330.427
  0
LINE
  8
0
 10
28.937
 20
330.427
 11
29.6581
 21
330.286
  0
LINE
  8
0
 10
29.6581
 20
330.286
 11
30.4093
 21
330.202
  0
LINE
  8
0
 10
30.4093
 20
330.202
 11
31.1904
 21
330.174
  0
LINE
  8
0
 10
31.1904
 20
330.174
 11
31.8215
 21
330.186
  0
LINE
  8
0
 10
31.8215
 20
330.186
 11
32.4564
 21
330.223
  0
LINE
  8
0
 10
32.4564
 20
330.223
 11
33.0951
 21
330.283
  0
LINE
  8
0
 10
33.0951
 20
330.283
 11
33.7376
 21
330.369
  0
LINE
  8
0
 10
33.7376
 20
330.369
 11
34.3839
 21
330.478
  0
LINE
  8
0
 10
34.3839
 20
330.478
 11
35.034
 21
330.612
  0
LINE
  8
0
 10
35.034
 20
330.612
 11
35.6879
 21
330.77
  0
LINE
  8
0
 10
35.6879
 20
330.77
 11
36.3456
 21
330.952
  0
LINE
  8
0
 10
36.3456
 20
330.952
 11
37.0071
 21
331.159
  0
LINE
  8
0
 10
37.0071
 20
331.159
 11
37.6724
 21
331.39
  0
LINE
  8
0
 10
37.6724
 20
331.39
 11
38.3164
 21
328.446
  0
LINE
  8
0
 10
38.3164
 20
328.446
 11
37.664
 21
328.166
  0
LINE
  8
0
 10
37.664
 20
328.166
 11
36.9987
 21
327.916
  0
LINE
  8
0
 10
36.9987
 20
327.916
 11
36.3206
 21
327.695
  0
LINE
  8
0
 10
36.3206
 20
327.695
 11
35.6297
 21
327.504
  0
LINE
  8
0
 10
35.6297
 20
327.504
 11
34.9259
 21
327.342
  0
LINE
  8
0
 10
34.9259
 20
327.342
 11
34.2093
 21
327.21
  0
LINE
  8
0
 10
34.2093
 20
327.21
 11
33.4799
 21
327.106
  0
LINE
  8
0
 10
33.4799
 20
327.106
 11
32.7375
 21
327.033
  0
LINE
  8
0
 10
32.7375
 20
327.033
 11
31.9824
 21
326.989
  0
LINE
  8
0
 10
31.9824
 20
326.989
 11
31.2144
 21
326.974
  0
LINE
  8
0
 10
31.2144
 20
326.974
 11
30.0695
 21
327.009
  0
LINE
  8
0
 10
-66.1422
 20
327.55
 11
-66.1422
 21
352.318
  0
LINE
  8
0
 10
-66.1422
 20
352.318
 11
-62.4302
 21
352.318
  0
LINE
  8
0
 10
-62.4302
 20
352.318
 11
-62.4302
 21
348.67
  0
LINE
  8
0
 10
-62.4302
 20
348.67
 11
-61.6283
 21
349.473
  0
LINE
  8
0
 10
-61.6283
 20
349.473
 11
-60.8179
 21
350.191
  0
LINE
  8
0
 10
-60.8179
 20
350.191
 11
-59.9989
 21
350.824
  0
LINE
  8
0
 10
-59.9989
 20
350.824
 11
-59.1713
 21
351.373
  0
LINE
  8
0
 10
-59.1713
 20
351.373
 11
-58.3352
 21
351.838
  0
LINE
  8
0
 10
-58.3352
 20
351.838
 11
-57.4905
 21
352.218
  0
LINE
  8
0
 10
-57.4905
 20
352.218
 11
-56.6373
 21
352.514
  0
LINE
  8
0
 10
-56.6373
 20
352.514
 11
-55.7755
 21
352.725
  0
LINE
  8
0
 10
-55.7755
 20
352.725
 11
-54.9051
 21
352.852
  0
LINE
  8
0
 10
-54.9051
 20
352.852
 11
-54.0262
 21
352.894
  0
LINE
  8
0
 10
-54.0262
 20
352.894
 11
-52.7046
 21
352.81
  0
LINE
  8
0
 10
-52.7046
 20
352.81
 11
-51.522
 21
352.558
  0
LINE
  8
0
 10
-51.522
 20
352.558
 11
-50.4786
 21
352.137
  0
LINE
  8
0
 10
-50.4786
 20
352.137
 11
-49.5744
 21
351.549
  0
LINE
  8
0
 10
-49.5744
 20
351.549
 11
-48.8092
 21
350.792
  0
LINE
  8
0
 10
-48.8092
 20
350.792
 11
-48.1832
 21
349.867
  0
LINE
  8
0
 10
-48.1832
 20
349.867
 11
-47.6962
 21
348.774
  0
LINE
  8
0
 10
-47.6962
 20
348.774
 11
-47.3484
 21
347.513
  0
LINE
  8
0
 10
-47.3484
 20
347.513
 11
-47.1398
 21
346.084
  0
LINE
  8
0
 10
-47.1398
 20
346.084
 11
-47.0702
 21
344.486
  0
LINE
  8
0
 10
-47.0702
 20
344.486
 11
-47.0702
 21
327.55
  0
LINE
  8
0
 10
-47.0702
 20
327.55
 11
-50.7822
 21
327.55
  0
LINE
  8
0
 10
-50.7822
 20
327.55
 11
-50.7822
 21
343.421
  0
LINE
  8
0
 10
-50.7822
 20
343.421
 11
-50.7928
 21
344.063
  0
LINE
  8
0
 10
-50.7928
 20
344.063
 11
-50.8244
 21
344.669
  0
LINE
  8
0
 10
-50.8244
 20
344.669
 11
-50.8772
 21
345.239
  0
LINE
  8
0
 10
-50.8772
 20
345.239
 11
-50.9512
 21
345.773
  0
LINE
  8
0
 10
-50.9512
 20
345.773
 11
-51.0462
 21
346.27
  0
LINE
  8
0
 10
-51.0462
 20
346.27
 11
-51.1624
 21
346.73
  0
LINE
  8
0
 10
-51.1624
 20
346.73
 11
-51.2996
 21
347.154
  0
LINE
  8
0
 10
-51.2996
 20
347.154
 11
-51.458
 21
347.542
  0
LINE
  8
0
 10
-51.458
 20
347.542
 11
-51.6376
 21
347.894
  0
LINE
  8
0
 10
-51.6376
 20
347.894
 11
-51.8382
 21
348.209
  0
LINE
  8
0
 10
-51.8382
 20
348.209
 11
-52.0612
 21
348.491
  0
LINE
  8
0
 10
-52.0612
 20
348.491
 11
-52.3082
 21
348.744
  0
LINE
  8
0
 10
-52.3082
 20
348.744
 11
-52.5791
 21
348.966
  0
LINE
  8
0
 10
-52.5791
 20
348.966
 11
-52.874
 21
349.159
  0
LINE
  8
0
 10
-52.874
 20
349.159
 11
-53.1929
 21
349.323
  0
LINE
  8
0
 10
-53.1929
 20
349.323
 11
-53.5358
 21
349.456
  0
LINE
  8
0
 10
-53.5358
 20
349.456
 11
-53.9027
 21
349.56
  0
LINE
  8
0
 10
-53.9027
 20
349.56
 11
-54.2936
 21
349.635
  0
LINE
  8
0
 10
-54.2936
 20
349.635
 11
-54.7084
 21
349.679
  0
LINE
  8
0
 10
-54.7084
 20
349.679
 11
-55.1472
 21
349.694
  0
LINE
  8
0
 10
-55.1472
 20
349.694
 11
-55.8306
 21
349.652
  0
LINE
  8
0
 10
-55.8306
 20
349.652
 11
-56.524
 21
349.525
  0
LINE
  8
0
 10
-56.524
 20
349.525
 11
-57.2273
 21
349.314
  0
LINE
  8
0
 10
-57.2273
 20
349.314
 11
-57.9406
 21
349.018
  0
LINE
  8
0
 10
-57.9406
 20
349.018
 11
-58.664
 21
348.638
  0
LINE
  8
0
 10
-58.664
 20
348.638
 11
-59.3972
 21
348.173
  0
LINE
  8
0
 10
-59.3972
 20
348.173
 11
-60.1405
 21
347.624
  0
LINE
  8
0
 10
-60.1405
 20
347.624
 11
-60.8938
 21
346.991
  0
LINE
  8
0
 10
-60.8938
 20
346.991
 11
-61.657
 21
346.273
  0
LINE
  8
0
 10
-61.657
 20
346.273
 11
-62.4302
 21
345.47
  0
LINE
  8
0
 10
-62.4302
 20
345.47
 11
-62.4302
 21
327.55
  0
LINE
  8
0
 10
-62.4302
 20
327.55
 11
-66.1422
 21
327.55
  0
LINE
  8
0
 10
-37.6373
 20
327.55
 11
-37.6373
 21
352.318
  0
LINE
  8
0
 10
-37.6373
 20
352.318
 11
-33.9253
 21
352.318
  0
LINE
  8
0
 10
-33.9253
 20
352.318
 11
-33.9253
 21
348.67
  0
LINE
  8
0
 10
-33.9253
 20
348.67
 11
-33.1234
 21
349.473
  0
LINE
  8
0
 10
-33.1234
 20
349.473
 11
-32.313
 21
350.191
  0
LINE
  8
0
 10
-32.313
 20
350.191
 11
-31.494
 21
350.824
  0
LINE
  8
0
 10
-31.494
 20
350.824
 11
-30.6664
 21
351.373
  0
LINE
  8
0
 10
-30.6664
 20
351.373
 11
-29.8303
 21
351.838
  0
LINE
  8
0
 10
-29.8303
 20
351.838
 11
-28.9856
 21
352.218
  0
LINE
  8
0
 10
-28.9856
 20
352.218
 11
-28.1324
 21
352.514
  0
LINE
  8
0
 10
-28.1324
 20
352.514
 11
-27.2706
 21
352.725
  0
LINE
  8
0
 10
-27.2706
 20
352.725
 11
-26.4002
 21
352.852
  0
LINE
  8
0
 10
-26.4002
 20
352.852
 11
-25.5213
 21
352.894
  0
LINE
  8
0
 10
-25.5213
 20
352.894
 11
-24.1997
 21
352.81
  0
LINE
  8
0
 10
-24.1997
 20
352.81
 11
-23.0172
 21
352.558
  0
LINE
  8
0
 10
-23.0172
 20
352.558
 11
-21.9738
 21
352.137
  0
LINE
  8
0
 10
-21.9738
 20
352.137
 11
-21.0695
 21
351.549
  0
LINE
  8
0
 10
-21.0695
 20
351.549
 11
-20.3043
 21
350.792
  0
LINE
  8
0
 10
-20.3043
 20
350.792
 11
-19.6783
 21
349.867
  0
LINE
  8
0
 10
-19.6783
 20
349.867
 11
-19.1914
 21
348.774
  0
LINE
  8
0
 10
-19.1914
 20
348.774
 11
-18.8436
 21
347.513
  0
LINE
  8
0
 10
-18.8436
 20
347.513
 11
-18.6349
 21
346.084
  0
LINE
  8
0
 10
-18.6349
 20
346.084
 11
-18.5653
 21
344.486
  0
LINE
  8
0
 10
-18.5653
 20
344.486
 11
-18.5653
 21
327.55
  0
LINE
  8
0
 10
-18.5653
 20
327.55
 11
-22.2773
 21
327.55
  0
LINE
  8
0
 10
-22.2773
 20
327.55
 11
-22.2773
 21
343.421
  0
LINE
  8
0
 10
-22.2773
 20
343.421
 11
-22.2879
 21
344.063
  0
LINE
  8
0
 10
-22.2879
 20
344.063
 11
-22.3195
 21
344.669
  0
LINE
  8
0
 10
-22.3195
 20
344.669
 11
-22.3724
 21
345.239
  0
LINE
  8
0
 10
-22.3724
 20
345.239
 11
-22.4463
 21
345.773
  0
LINE
  8
0
 10
-22.4463
 20
345.773
 11
-22.5413
 21
346.27
  0
LINE
  8
0
 10
-22.5413
 20
346.27
 11
-22.6575
 21
346.73
  0
LINE
  8
0
 10
-22.6575
 20
346.73
 11
-22.7948
 21
347.154
  0
LINE
  8
0
 10
-22.7948
 20
347.154
 11
-22.9532
 21
347.542
  0
LINE
  8
0
 10
-22.9532
 20
347.542
 11
-23.1327
 21
347.894
  0
LINE
  8
0
 10
-23.1327
 20
347.894
 11
-23.3333
 21
348.209
  0
LINE
  8
0
 10
-23.3333
 20
348.209
 11
-23.5563
 21
348.491
  0
LINE
  8
0
 10
-23.5563
 20
348.491
 11
-23.8033
 21
348.744
  0
LINE
  8
0
 10
-23.8033
 20
348.744
 11
-24.0742
 21
348.966
  0
LINE
  8
0
 10
-24.0742
 20
348.966
 11
-24.3692
 21
349.159
  0
LINE
  8
0
 10
-24.3692
 20
349.159
 11
-24.6881
 21
349.323
  0
LINE
  8
0
 10
-24.6881
 20
349.323
 11
-25.031
 21
349.456
  0
LINE
  8
0
 10
-25.031
 20
349.456
 11
-25.3978
 21
349.56
  0
LINE
  8
0
 10
-25.3978
 20
349.56
 11
-25.7887
 21
349.635
  0
LINE
  8
0
 10
-25.7887
 20
349.635
 11
-26.2035
 21
349.679
  0
LINE
  8
0
 10
-26.2035
 20
349.679
 11
-26.6423
 21
349.694
  0
LINE
  8
0
 10
-26.6423
 20
349.694
 11
-27.3257
 21
349.652
  0
LINE
  8
0
 10
-27.3257
 20
349.652
 11
-28.0191
 21
349.525
  0
LINE
  8
0
 10
-28.0191
 20
349.525
 11
-28.7224
 21
349.314
  0
LINE
  8
0
 10
-28.7224
 20
349.314
 11
-29.4358
 21
349.018
  0
LINE
  8
0
 10
-29.4358
 20
349.018
 11
-30.1591
 21
348.638
  0
LINE
  8
0
 10
-30.1591
 20
348.638
 11
-30.8923
 21
348.173
  0
LINE
  8
0
 10
-30.8923
 20
348.173
 11
-31.6356
 21
347.624
  0
LINE
  8
0
 10
-31.6356
 20
347.624
 11
-32.3889
 21
346.991
  0
LINE
  8
0
 10
-32.3889
 20
346.991
 11
-33.1521
 21
346.273
  0
LINE
  8
0
 10
-33.1521
 20
346.273
 11
-33.9253
 21
345.47
  0
LINE
  8
0
 10
-33.9253
 20
345.47
 11
-33.9253
 21
327.55
  0
LINE
  8
0
 10
-33.9253
 20
327.55
 11
-37.6373
 21
327.55
  0
LINE
  8
0
 10
126.185
 20
334.695
 11
125.827
 21
335.012
  0
LINE
  8
0
 10
125.827
 20
335.012
 11
125.657
 21
335.459
  0
LINE
  8
0
 10
125.657
 20
335.459
 11
125.715
 21
335.935
  0
LINE
  8
0
 10
125.715
 20
335.935
 11
125.987
 21
336.329
  0
LINE
  8
0
 10
125.987
 20
336.329
 11
126.411
 21
336.551
  0
LINE
  8
0
 10
126.411
 20
336.551
 11
126.889
 21
336.551
  0
LINE
  8
0
 10
126.889
 20
336.551
 11
127.313
 21
336.329
  0
LINE
  8
0
 10
127.313
 20
336.329
 11
127.585
 21
335.935
  0
LINE
  8
0
 10
127.585
 20
335.935
 11
127.643
 21
335.459
  0
LINE
  8
0
 10
127.643
 20
335.459
 11
127.473
 21
335.012
  0
LINE
  8
0
 10
127.473
 20
335.012
 11
127.115
 21
334.695
  0
LINE
  8
0
 10
127.115
 20
334.695
 11
126.65
 21
334.58
  0
LINE
  8
0
 10
126.65
 20
334.58
 11
126.185
 21
334.695
  0
LINE
  8
0
 10
-163.715
 20
334.695
 11
-164.073
 21
335.012
  0
LINE
  8
0
 10
-164.073
 20
335.012
 11
-164.243
 21
335.459
  0
LINE
  8
0
 10
-164.243
 20
335.459
 11
-164.185
 21
335.935
  0
LINE
  8
0
 10
-164.185
 20
335.935
 11
-163.913
 21
336.329
  0
LINE
  8
0
 10
-163.913
 20
336.329
 11
-163.489
 21
336.551
  0
LINE
  8
0
 10
-163.489
 20
336.551
 11
-163.011
 21
336.551
  0
LINE
  8
0
 10
-163.011
 20
336.551
 11
-162.587
 21
336.329
  0
LINE
  8
0
 10
-162.587
 20
336.329
 11
-162.315
 21
335.935
  0
LINE
  8
0
 10
-162.315
 20
335.935
 11
-162.257
 21
335.459
  0
LINE
  8
0
 10
-162.257
 20
335.459
 11
-162.427
 21
335.012
  0
LINE
  8
0
 10
-162.427
 20
335.012
 11
-162.785
 21
334.695
  0
LINE
  8
0
 10
-162.785
 20
334.695
 11
-163.25
 21
334.58
  0
LINE
  8
0
 10
-163.25
 20
334.58
 11
-163.715
 21
334.695
  0
LINE
  8
0
 10
-230.105
 20
165.565
 11
-230.499
 21
165.837
  0
LINE
  8
0
 10
-230.499
 20
165.837
 11
-230.721
 21
166.261
  0
LINE
  8
0
 10
-230.721
 20
166.261
 11
-230.721
 21
166.739
  0
LINE
  8
0
 10
-230.721
 20
166.739
 11
-230.499
 21
167.163
  0
LINE
  8
0
 10
-230.499
 20
167.163
 11
-230.105
 21
167.435
  0
LINE
  8
0
 10
-230.105
 20
167.435
 11
-229.629
 21
167.493
  0
LINE
  8
0
 10
-229.629
 20
167.493
 11
-229.182
 21
167.323
  0
LINE
  8
0
 10
-229.182
 20
167.323
 11
-228.865
 21
166.965
  0
LINE
  8
0
 10
-228.865
 20
166.965
 11
-228.75
 21
166.5
  0
LINE
  8
0
 10
-228.75
 20
166.5
 11
-228.865
 21
166.035
  0
LINE
  8
0
 10
-228.865
 20
166.035
 11
-229.182
 21
165.677
  0
LINE
  8
0
 10
-229.182
 20
165.677
 11
-229.629
 21
165.507
  0
LINE
  8
0
 10
-229.629
 20
165.507
 11
-230.105
 21
165.565
  0
LINE
  8
0
 10
-230.105
 20
124.165
 11
-230.499
 21
124.437
  0
LINE
  8
0
 10
-230.499
 20
124.437
 11
-230.721
 21
124.861
  0
LINE
  8
0
 10
-230.721
 20
124.861
 11
-230.721
 21
125.339
  0
LINE
  8
0
 10
-230.721
 20
125.339
 11
-230.499
 21
125.763
  0
LINE
  8
0
 10
-230.499
 20
125.763
 11
-230.105
 21
126.035
  0
LINE
  8
0
 10
-230.105
 20
126.035
 11
-229.629
 21
126.093
  0
LINE
  8
0
 10
-229.629
 20
126.093
 11
-229.182
 21
125.923
  0
LINE
  8
0
 10
-229.182
 20
125.923
 11
-228.865
 21
125.565
  0
LINE
  8
0
 10
-228.865
 20
125.565
 11
-228.75
 21
125.1
  0
LINE
  8
0
 10
-228.75
 20
125.1
 11
-228.865
 21
124.635
  0
LINE
  8
0
 10
-228.865
 20
124.635
 11
-229.182
 21
124.277
  0
LINE
  8
0
 10
-229.182
 20
124.277
 11
-229.629
 21
124.107
  0
LINE
  8
0
 10
-229.629
 20
124.107
 11
-230.105
 21
124.165
  0
LINE
  8
0
 10
-203.991
 20
71.0146
 11
-204.459
 21
71.13
  0
LINE
  8
0
 10
-204.459
 20
71.13
 11
-204.886
 21
71.354
  0
LINE
  8
0
 10
-204.886
 20
71.354
 11
-205.247
 21
71.6738
  0
LINE
  8
0
 10
-205.247
 20
71.6738
 11
-205.521
 21
72.0705
  0
LINE
  8
0
 10
-205.521
 20
72.0705
 11
-205.692
 21
72.5214
  0
LINE
  8
0
 10
-205.692
 20
72.5214
 11
-205.75
 21
73
  0
LINE
  8
0
 10
-205.75
 20
73
 11
-205.692
 21
73.4786
  0
LINE
  8
0
 10
-205.692
 20
73.4786
 11
-205.521
 21
73.9294
  0
LINE
  8
0
 10
-205.521
 20
73.9294
 11
-205.247
 21
74.3262
  0
LINE
  8
0
 10
-205.247
 20
74.3262
 11
-204.886
 21
74.646
  0
LINE
  8
0
 10
-204.886
 20
74.646
 11
-204.459
 21
74.87
  0
LINE
  8
0
 10
-204.459
 20
74.87
 11
-203.991
 21
74.9854
  0
LINE
  8
0
 10
-203.991
 20
74.9854
 11
-203.509
 21
74.9854
  0
LINE
  8
0
 10
-203.509
 20
74.9854
 11
-203.041
 21
74.87
  0
LINE
  8
0
 10
-203.041
 20
74.87
 11
-202.614
 21
74.646
  0
LINE
  8
0
 10
-202.614
 20
74.646
 11
-202.253
 21
74.3262
  0
LINE
  8
0
 10
-202.253
 20
74.3262
 11
-201.979
 21
73.9294
  0
LINE
  8
0
 10
-201.979
 20
73.9294
 11
-201.808
 21
73.4786
  0
LINE
  8
0
 10
-201.808
 20
73.4786
 11
-201.75
 21
73
  0
LINE
  8
0
 10
-201.75
 20
73
 11
-201.808
 21
72.5214
  0
LINE
  8
0
 10
-201.808
 20
72.5214
 11
-201.979
 21
72.0705
  0
LINE
  8
0
 10
-201.979
 20
72.0705
 11
-202.253
 21
71.6738
  0
LINE
  8
0
 10
-202.253
 20
71.6738
 11
-202.614
 21
71.354
  0
LINE
  8
0
 10
-202.614
 20
71.354
 11
-203.041
 21
71.13
  0
LINE
  8
0
 10
-203.041
 20
71.13
 11
-203.509
 21
71.0146
  0
LINE
  8
0
 10
-203.509
 20
71.0146
 11
-203.991
 21
71.0146
  0
LINE
  8
0
 10
175.895
 20
60.065
 11
175.501
 21
60.3369
  0
LINE
  8
0
 10
175.501
 20
60.3369
 11
175.279
 21
60.7607
  0
LINE
  8
0
 10
175.279
 20
60.7607
 11
175.279
 21
61.2393
  0
LINE
  8
0
 10
175.279
 20
61.2393
 11
175.501
 21
61.6631
  0
LINE
  8
0
 10
175.501
 20
61.6631
 11
175.895
 21
61.935
  0
LINE
  8
0
 10
175.895
 20
61.935
 11
176.371
 21
61.9927
  0
LINE
  8
0
 10
176.371
 20
61.9927
 11
176.818
 21
61.823
  0
LINE
  8
0
 10
176.818
 20
61.823
 11
177.135
 21
61.4647
  0
LINE
  8
0
 10
177.135
 20
61.4647
 11
177.25
 21
61
  0
LINE
  8
0
 10
177.25
 20
61
 11
177.135
 21
60.5353
  0
LINE
  8
0
 10
177.135
 20
60.5353
 11
176.818
 21
60.177
  0
LINE
  8
0
 10
176.818
 20
60.177
 11
176.371
 21
60.0073
  0
LINE
  8
0
 10
176.371
 20
60.0073
 11
175.895
 21
60.065
  0
LINE
  8
0
 10
143.895
 20
60.065
 11
143.501
 21
60.3369
  0
LINE
  8
0
 10
143.501
 20
60.3369
 11
143.279
 21
60.7607
  0
LINE
  8
0
 10
143.279
 20
60.7607
 11
143.279
 21
61.2393
  0
LINE
  8
0
 10
143.279
 20
61.2393
 11
143.501
 21
61.6631
  0
LINE
  8
0
 10
143.501
 20
61.6631
 11
143.895
 21
61.935
  0
LINE
  8
0
 10
143.895
 20
61.935
 11
144.371
 21
61.9927
  0
LINE
  8
0
 10
144.371
 20
61.9927
 11
144.818
 21
61.823
  0
LINE
  8
0
 10
144.818
 20
61.823
 11
145.135
 21
61.4647
  0
LINE
  8
0
 10
145.135
 20
61.4647
 11
145.25
 21
61
  0
LINE
  8
0
 10
145.25
 20
61
 11
145.135
 21
60.5353
  0
LINE
  8
0
 10
145.135
 20
60.5353
 11
144.818
 21
60.177
  0
LINE
  8
0
 10
144.818
 20
60.177
 11
144.371
 21
60.0073
  0
LINE
  8
0
 10
144.371
 20
60.0073
 11
143.895
 21
60.065
  0
LINE
  8
0
 10
-221.105
 20
60.065
 11
-221.499
 21
60.3369
  0
LINE
  8
0
 10
-221.499
 20
60.3369
 11
-221.721
 21
60.7607
  0
LINE
  8
0
 10
-221.721
 20
60.7607
 11
-221.721
 21
61.2393
  0
LINE
  8
0
 10
-221.721
 20
61.2393
 11
-221.499
 21
61.6631
  0
LINE
  8
0
 10
-221.499
 20
61.6631
 11
-221.105
 21
61.935
  0
LINE
  8
0
 10
-221.105
 20
61.935
 11
-220.629
 21
61.9927
  0
LINE
  8
0
 10
-220.629
 20
61.9927
 11
-220.182
 21
61.823
  0
LINE
  8
0
 10
-220.182
 20
61.823
 11
-219.865
 21
61.4647
  0
LINE
  8
0
 10
-219.865
 20
61.4647
 11
-219.75
 21
61
  0
LINE
  8
0
 10
-219.75
 20
61
 11
-219.865
 21
60.5353
  0
LINE
  8
0
 10
-219.865
 20
60.5353
 11
-220.182
 21
60.177
  0
LINE
  8
0
 10
-220.182
 20
60.177
 11
-220.629
 21
60.0073
  0
LINE
  8
0
 10
-220.629
 20
60.0073
 11
-221.105
 21
60.065
  0
LINE
  8
0
 10
-189.105
 20
60.065
 11
-189.499
 21
60.3369
  0
LINE
  8
0
 10
-189.499
 20
60.3369
 11
-189.721
 21
60.7607
  0
LINE
  8
0
 10
-189.721
 20
60.7607
 11
-189.721
 21
61.2393
  0
LINE
  8
0
 10
-189.721
 20
61.2393
 11
-189.499
 21
61.6631
  0
LINE
  8
0
 10
-189.499
 20
61.6631
 11
-189.105
 21
61.935
  0
LINE
  8
0
 10
-189.105
 20
61.935
 11
-188.629
 21
61.9927
  0
LINE
  8
0
 10
-188.629
 20
61.9927
 11
-188.182
 21
61.823
  0
LINE
  8
0
 10
-188.182
 20
61.823
 11
-187.865
 21
61.4647
  0
LINE
  8
0
 10
-187.865
 20
61.4647
 11
-187.75
 21
61
  0
LINE
  8
0
 10
-187.75
 20
61
 11
-187.865
 21
60.5353
  0
LINE
  8
0
 10
-187.865
 20
60.5353
 11
-188.182
 21
60.177
  0
LINE
  8
0
 10
-188.182
 20
60.177
 11
-188.629
 21
60.0073
  0
LINE
  8
0
 10
-188.629
 20
60.0073
 11
-189.105
 21
60.065
  0
LINE
  8
0
 10
-165.289
 20
35.539
 11
-165.713
 21
35.7615
  0
LINE
  8
0
 10
-165.713
 20
35.7615
 11
-165.985
 21
36.1554
  0
LINE
  8
0
 10
-165.985
 20
36.1554
 11
-166.043
 21
36.6305
  0
LINE
  8
0
 10
-166.043
 20
36.6305
 11
-165.873
 21
37.0781
  0
LINE
  8
0
 10
-165.873
 20
37.0781
 11
-165.515
 21
37.3954
  0
LINE
  8
0
 10
-165.515
 20
37.3954
 11
-165.05
 21
37.51
  0
LINE
  8
0
 10
-165.05
 20
37.51
 11
-164.585
 21
37.3954
  0
LINE
  8
0
 10
-164.585
 20
37.3954
 11
-164.227
 21
37.0781
  0
LINE
  8
0
 10
-164.227
 20
37.0781
 11
-164.057
 21
36.6305
  0
LINE
  8
0
 10
-164.057
 20
36.6305
 11
-164.115
 21
36.1554
  0
LINE
  8
0
 10
-164.115
 20
36.1554
 11
-164.387
 21
35.7615
  0
LINE
  8
0
 10
-164.387
 20
35.7615
 11
-164.811
 21
35.539
  0
LINE
  8
0
 10
-164.811
 20
35.539
 11
-165.289
 21
35.539
  0
LINE
  8
0
 10
127.985
 20
35.6245
 11
127.627
 21
35.9419
  0
LINE
  8
0
 10
127.627
 20
35.9419
 11
127.457
 21
36.3895
  0
LINE
  8
0
 10
127.457
 20
36.3895
 11
127.515
 21
36.8646
  0
LINE
  8
0
 10
127.515
 20
36.8646
 11
127.787
 21
37.2585
  0
LINE
  8
0
 10
127.787
 20
37.2585
 11
128.211
 21
37.4809
  0
LINE
  8
0
 10
128.211
 20
37.4809
 11
128.689
 21
37.4809
  0
LINE
  8
0
 10
128.689
 20
37.4809
 11
129.113
 21
37.2585
  0
LINE
  8
0
 10
129.113
 20
37.2585
 11
129.385
 21
36.8646
  0
LINE
  8
0
 10
129.385
 20
36.8646
 11
129.443
 21
36.3895
  0
LINE
  8
0
 10
129.443
 20
36.3895
 11
129.273
 21
35.9419
  0
LINE
  8
0
 10
129.273
 20
35.9419
 11
128.915
 21
35.6245
  0
LINE
  8
0
 10
128.915
 20
35.6245
 11
128.45
 21
35.51
  0
LINE
  8
0
 10
128.45
 20
35.51
 11
127.985
 21
35.6245
  0
LINE
  8
0
 10
160.482
 20
18.448
 11
160.013
 21
18.5903
  0
LINE
  8
0
 10
160.013
 20
18.5903
 11
159.581
 21
18.8213
  0
LINE
  8
0
 10
159.581
 20
18.8213
 11
159.202
 21
19.1322
  0
LINE
  8
0
 10
159.202
 20
19.1322
 11
158.891
 21
19.5111
  0
LINE
  8
0
 10
158.891
 20
19.5111
 11
158.66
 21
19.9433
  0
LINE
  8
0
 10
158.66
 20
19.9433
 11
158.518
 21
20.4123
  0
LINE
  8
0
 10
158.518
 20
20.4123
 11
158.47
 21
20.9
  0
LINE
  8
0
 10
158.47
 20
20.9
 11
158.518
 21
21.3877
  0
LINE
  8
0
 10
158.518
 20
21.3877
 11
158.66
 21
21.8567
  0
LINE
  8
0
 10
158.66
 20
21.8567
 11
158.891
 21
22.2889
  0
LINE
  8
0
 10
158.891
 20
22.2889
 11
159.202
 21
22.6678
  0
LINE
  8
0
 10
159.202
 20
22.6678
 11
159.581
 21
22.9787
  0
LINE
  8
0
 10
159.581
 20
22.9787
 11
160.013
 21
23.2097
  0
LINE
  8
0
 10
160.013
 20
23.2097
 11
160.482
 21
23.352
  0
LINE
  8
0
 10
160.482
 20
23.352
 11
160.97
 21
23.4
  0
LINE
  8
0
 10
160.97
 20
23.4
 11
161.458
 21
23.352
  0
LINE
  8
0
 10
161.458
 20
23.352
 11
161.927
 21
23.2097
  0
LINE
  8
0
 10
161.927
 20
23.2097
 11
162.359
 21
22.9787
  0
LINE
  8
0
 10
162.359
 20
22.9787
 11
162.738
 21
22.6678
  0
LINE
  8
0
 10
162.738
 20
22.6678
 11
163.049
 21
22.2889
  0
LINE
  8
0
 10
163.049
 20
22.2889
 11
163.28
 21
21.8567
  0
LINE
  8
0
 10
163.28
 20
21.8567
 11
163.422
 21
21.3877
  0
LINE
  8
0
 10
163.422
 20
21.3877
 11
163.47
 21
20.9
  0
LINE
  8
0
 10
163.47
 20
20.9
 11
163.422
 21
20.4123
  0
LINE
  8
0
 10
163.422
 20
20.4123
 11
163.28
 21
19.9433
  0
LINE
  8
0
 10
163.28
 20
19.9433
 11
163.049
 21
19.5111
  0
LINE
  8
0
 10
163.049
 20
19.5111
 11
162.738
 21
19.1322
  0
LINE
  8
0
 10
162.738
 20
19.1322
 11
162.359
 21
18.8213
  0
LINE
  8
0
 10
162.359
 20
18.8213
 11
161.927
 21
18.5903
  0
LINE
  8
0
 10
161.927
 20
18.5903
 11
161.458
 21
18.448
  0
LINE
  8
0
 10
161.458
 20
18.448
 11
160.97
 21
18.4
  0
LINE
  8
0
 10
160.97
 20
18.4
 11
160.482
 21
18.448
  0
LINE
  8
0
 10
-194.53
 20
4.99998
 11
-195.018
 21
5.04803
  0
LINE
  8
0
 10
-195.018
 20
5.04803
 11
-195.487
 21
5.19029
  0
LINE
  8
0
 10
-195.487
 20
5.19029
 11
-195.919
 21
5.42133
  0
LINE
  8
0
 10
-195.919
 20
5.42133
 11
-196.298
 21
5.73222
  0
LINE
  8
0
 10
-196.298
 20
5.73222
 11
-196.609
 21
6.11107
  0
LINE
  8
0
 10
-196.609
 20
6.11107
 11
-196.84
 21
6.54329
  0
LINE
  8
0
 10
-196.84
 20
6.54329
 11
-196.982
 21
7.01227
  0
LINE
  8
0
 10
-196.982
 20
7.01227
 11
-197.03
 21
7.49998
  0
LINE
  8
0
 10
-197.03
 20
7.49998
 11
-196.982
 21
7.98772
  0
LINE
  8
0
 10
-196.982
 20
7.98772
 11
-196.84
 21
8.4567
  0
LINE
  8
0
 10
-196.84
 20
8.4567
 11
-196.609
 21
8.88892
  0
LINE
  8
0
 10
-196.609
 20
8.88892
 11
-196.298
 21
9.26776
  0
LINE
  8
0
 10
-196.298
 20
9.26776
 11
-195.919
 21
9.57866
  0
LINE
  8
0
 10
-195.919
 20
9.57866
 11
-195.487
 21
9.80969
  0
LINE
  8
0
 10
-195.487
 20
9.80969
 11
-195.018
 21
9.95195
  0
LINE
  8
0
 10
-195.018
 20
9.95195
 11
-194.53
 21
9.99998
  0
LINE
  8
0
 10
-194.53
 20
9.99998
 11
-194.042
 21
9.95195
  0
LINE
  8
0
 10
-194.042
 20
9.95195
 11
-193.573
 21
9.80969
  0
LINE
  8
0
 10
-193.573
 20
9.80969
 11
-193.141
 21
9.57866
  0
LINE
  8
0
 10
-193.141
 20
9.57866
 11
-192.762
 21
9.26776
  0
LINE
  8
0
 10
-192.762
 20
9.26776
 11
-192.451
 21
8.88892
  0
LINE
  8
0
 10
-192.451
 20
8.88892
 11
-192.22
 21
8.4567
  0
LINE
  8
0
 10
-192.22
 20
8.4567
 11
-192.078
 21
7.98772
  0
LINE
  8
0
 10
-192.078
 20
7.98772
 11
-192.03
 21
7.49998
  0
LINE
  8
0
 10
-192.03
 20
7.49998
 11
-192.078
 21
7.01227
  0
LINE
  8
0
 10
-192.078
 20
7.01227
 11
-192.22
 21
6.54329
  0
LINE
  8
0
 10
-192.22
 20
6.54329
 11
-192.451
 21
6.11107
  0
LINE
  8
0
 10
-192.451
 20
6.11107
 11
-192.762
 21
5.73222
  0
LINE
  8
0
 10
-192.762
 20
5.73222
 11
-193.141
 21
5.42133
  0
LINE
  8
0
 10
-193.141
 20
5.42133
 11
-193.573
 21
5.19029
  0
LINE
  8
0
 10
-193.573
 20
5.19029
 11
-194.042
 21
5.04803
  0
LINE
  8
0
 10
-194.042
 20
5.04803
 11
-194.53
 21
4.99998
  0
LINE
  8
0
 10
226.982
 20
7.37701
 11
226.665
 21
7.73528
  0
LINE
  8
0
 10
226.665
 20
7.73528
 11
226.55
 21
8.2
  0
LINE
  8
0
 10
226.55
 20
8.2
 11
226.665
 21
8.66472
  0
LINE
  8
0
 10
226.665
 20
8.66472
 11
226.982
 21
9.02298
  0
LINE
  8
0
 10
226.982
 20
9.02298
 11
227.429
 21
9.1927
  0
LINE
  8
0
 10
227.429
 20
9.1927
 11
227.905
 21
9.13501
  0
LINE
  8
0
 10
227.905
 20
9.13501
 11
228.299
 21
8.86311
  0
LINE
  8
0
 10
228.299
 20
8.86311
 11
228.521
 21
8.4393
  0
LINE
  8
0
 10
228.521
 20
8.4393
 11
228.521
 21
7.96068
  0
LINE
  8
0
 10
228.521
 20
7.96068
 11
228.299
 21
7.53687
  0
LINE
  8
0
 10
228.299
 20
7.53687
 11
227.905
 21
7.26497
  0
LINE
  8
0
 10
227.905
 20
7.26497
 11
227.429
 21
7.20729
  0
LINE
  8
0
 10
227.429
 20
7.20729
 11
226.982
 21
7.37701
  0
LINE
  8
0
 10
-141.518
 20
7.37701
 11
-141.835
 21
7.73528
  0
LINE
  8
0
 10
-141.835
 20
7.73528
 11
-141.95
 21
8.2
  0
LINE
  8
0
 10
-141.95
 20
8.2
 11
-141.835
 21
8.66472
  0
LINE
  8
0
 10
-141.835
 20
8.66472
 11
-141.518
 21
9.02298
  0
LINE
  8
0
 10
-141.518
 20
9.02298
 11
-141.071
 21
9.1927
  0
LINE
  8
0
 10
-141.071
 20
9.1927
 11
-140.595
 21
9.13501
  0
LINE
  8
0
 10
-140.595
 20
9.13501
 11
-140.201
 21
8.86311
  0
LINE
  8
0
 10
-140.201
 20
8.86311
 11
-139.979
 21
8.4393
  0
LINE
  8
0
 10
-139.979
 20
8.4393
 11
-139.979
 21
7.96068
  0
LINE
  8
0
 10
-139.979
 20
7.96068
 11
-140.201
 21
7.53687
  0
LINE
  8
0
 10
-140.201
 20
7.53687
 11
-140.595
 21
7.26497
  0
LINE
  8
0
 10
-140.595
 20
7.26497
 11
-141.071
 21
7.20729
  0
LINE
  8
0
 10
-141.071
 20
7.20729
 11
-141.518
 21
7.37701
  0
LINE
  8
0
 10
206.162
 20
7.37701
 11
205.845
 21
7.73528
  0
LINE
  8
0
 10
205.845
 20
7.73528
 11
205.73
 21
8.2
  0
LINE
  8
0
 10
205.73
 20
8.2
 11
205.845
 21
8.66472
  0
LINE
  8
0
 10
205.845
 20
8.66472
 11
206.162
 21
9.02298
  0
LINE
  8
0
 10
206.162
 20
9.02298
 11
206.609
 21
9.1927
  0
LINE
  8
0
 10
206.609
 20
9.1927
 11
207.085
 21
9.13501
  0
LINE
  8
0
 10
207.085
 20
9.13501
 11
207.479
 21
8.86311
  0
LINE
  8
0
 10
207.479
 20
8.86311
 11
207.701
 21
8.4393
  0
LINE
  8
0
 10
207.701
 20
8.4393
 11
207.701
 21
7.96068
  0
LINE
  8
0
 10
207.701
 20
7.96068
 11
207.479
 21
7.53687
  0
LINE
  8
0
 10
207.479
 20
7.53687
 11
207.085
 21
7.26497
  0
LINE
  8
0
 10
207.085
 20
7.26497
 11
206.609
 21
7.20729
  0
LINE
  8
0
 10
206.609
 20
7.20729
 11
206.162
 21
7.37701
  0
LINE
  8
0
 10
176.602
 20
7.37701
 11
176.285
 21
7.73528
  0
LINE
  8
0
 10
176.285
 20
7.73528
 11
176.17
 21
8.2
  0
LINE
  8
0
 10
176.17
 20
8.2
 11
176.285
 21
8.66472
  0
LINE
  8
0
 10
176.285
 20
8.66472
 11
176.602
 21
9.02298
  0
LINE
  8
0
 10
176.602
 20
9.02298
 11
177.049
 21
9.1927
  0
LINE
  8
0
 10
177.049
 20
9.1927
 11
177.525
 21
9.13501
  0
LINE
  8
0
 10
177.525
 20
9.13501
 11
177.919
 21
8.86311
  0
LINE
  8
0
 10
177.919
 20
8.86311
 11
178.141
 21
8.4393
  0
LINE
  8
0
 10
178.141
 20
8.4393
 11
178.141
 21
7.96068
  0
LINE
  8
0
 10
178.141
 20
7.96068
 11
177.919
 21
7.53687
  0
LINE
  8
0
 10
177.919
 20
7.53687
 11
177.525
 21
7.26497
  0
LINE
  8
0
 10
177.525
 20
7.26497
 11
177.049
 21
7.20729
  0
LINE
  8
0
 10
177.049
 20
7.20729
 11
176.602
 21
7.37701
  0
LINE
  8
0
 10
155.782
 20
7.37701
 11
155.465
 21
7.73528
  0
LINE
  8
0
 10
155.465
 20
7.73528
 11
155.35
 21
8.2
  0
LINE
  8
0
 10
155.35
 20
8.2
 11
155.465
 21
8.66472
  0
LINE
  8
0
 10
155.465
 20
8.66472
 11
155.782
 21
9.02298
  0
LINE
  8
0
 10
155.782
 20
9.02298
 11
156.229
 21
9.1927
  0
LINE
  8
0
 10
156.229
 20
9.1927
 11
156.705
 21
9.13501
  0
LINE
  8
0
 10
156.705
 20
9.13501
 11
157.099
 21
8.86311
  0
LINE
  8
0
 10
157.099
 20
8.86311
 11
157.321
 21
8.4393
  0
LINE
  8
0
 10
157.321
 20
8.4393
 11
157.321
 21
7.96068
  0
LINE
  8
0
 10
157.321
 20
7.96068
 11
157.099
 21
7.53687
  0
LINE
  8
0
 10
157.099
 20
7.53687
 11
156.705
 21
7.26497
  0
LINE
  8
0
 10
156.705
 20
7.26497
 11
156.229
 21
7.20729
  0
LINE
  8
0
 10
156.229
 20
7.20729
 11
155.782
 21
7.37701
  0
LINE
  8
0
 10
-228.118
 20
7.37701
 11
-228.435
 21
7.73528
  0
LINE
  8
0
 10
-228.435
 20
7.73528
 11
-228.55
 21
8.2
  0
LINE
  8
0
 10
-228.55
 20
8.2
 11
-228.435
 21
8.66472
  0
LINE
  8
0
 10
-228.435
 20
8.66472
 11
-228.118
 21
9.02298
  0
LINE
  8
0
 10
-228.118
 20
9.02298
 11
-227.671
 21
9.1927
  0
LINE
  8
0
 10
-227.671
 20
9.1927
 11
-227.195
 21
9.13501
  0
LINE
  8
0
 10
-227.195
 20
9.13501
 11
-226.801
 21
8.86311
  0
LINE
  8
0
 10
-226.801
 20
8.86311
 11
-226.579
 21
8.4393
  0
LINE
  8
0
 10
-226.579
 20
8.4393
 11
-226.579
 21
7.96068
  0
LINE
  8
0
 10
-226.579
 20
7.96068
 11
-226.801
 21
7.53687
  0
LINE
  8
0
 10
-226.801
 20
7.53687
 11
-227.195
 21
7.26497
  0
LINE
  8
0
 10
-227.195
 20
7.26497
 11
-227.671
 21
7.20729
  0
LINE
  8
0
 10
-227.671
 20
7.20729
 11
-228.118
 21
7.37701
  0
LINE
  8
0
 10
-207.298
 20
7.37701
 11
-207.615
 21
7.73528
  0
LINE
  8
0
 10
-207.615
 20
7.73528
 11
-207.73
 21
8.2
  0
LINE
  8
0
 10
-207.73
 20
8.2
 11
-207.615
 21
8.66472
  0
LINE
  8
0
 10
-207.615
 20
8.66472
 11
-207.298
 21
9.02298
  0
LINE
  8
0
 10
-207.298
 20
9.02298
 11
-206.851
 21
9.1927
  0
LINE
  8
0
 10
-206.851
 20
9.1927
 11
-206.375
 21
9.13501
  0
LINE
  8
0
 10
-206.375
 20
9.13501
 11
-205.981
 21
8.86311
  0
LINE
  8
0
 10
-205.981
 20
8.86311
 11
-205.759
 21
8.4393
  0
LINE
  8
0
 10
-205.759
 20
8.4393
 11
-205.759
 21
7.96068
  0
LINE
  8
0
 10
-205.759
 20
7.96068
 11
-205.981
 21
7.53687
  0
LINE
  8
0
 10
-205.981
 20
7.53687
 11
-206.375
 21
7.26497
  0
LINE
  8
0
 10
-206.375
 20
7.26497
 11
-206.851
 21
7.20729
  0
LINE
  8
0
 10
-206.851
 20
7.20729
 11
-207.298
 21
7.37701
  0
LINE
  8
0
 10
-162.338
 20
7.37701
 11
-162.655
 21
7.73528
  0
LINE
  8
0
 10
-162.655
 20
7.73528
 11
-162.77
 21
8.2
  0
LINE
  8
0
 10
-162.77
 20
8.2
 11
-162.655
 21
8.66472
  0
LINE
  8
0
 10
-162.655
 20
8.66472
 11
-162.338
 21
9.02298
  0
LINE
  8
0
 10
-162.338
 20
9.02298
 11
-161.891
 21
9.1927
  0
LINE
  8
0
 10
-161.891
 20
9.1927
 11
-161.415
 21
9.13501
  0
LINE
  8
0
 10
-161.415
 20
9.13501
 11
-161.021
 21
8.86311
  0
LINE
  8
0
 10
-161.021
 20
8.86311
 11
-160.799
 21
8.4393
  0
LINE
  8
0
 10
-160.799
 20
8.4393
 11
-160.799
 21
7.96068
  0
LINE
  8
0
 10
-160.799
 20
7.96068
 11
-161.021
 21
7.53687
  0
LINE
  8
0
 10
-161.021
 20
7.53687
 11
-161.415
 21
7.26497
  0
LINE
  8
0
 10
-161.415
 20
7.26497
 11
-161.891
 21
7.20729
  0
LINE
  8
0
 10
-161.891
 20
7.20729
 11
-162.338
 21
7.37701
  0
LINE
  8
0
 10
98.9977
 20
0.0102386
 11
99.4865
 21
0.0917969
  0
LINE
  8
0
 10
99.4865
 20
0.0917969
 11
99.9551
 21
0.25267
  0
LINE
  8
0
 10
99.9551
 20
0.25267
 11
100.391
 21
0.488495
  0
LINE
  8
0
 10
100.391
 20
0.488495
 11
100.782
 21
0.792816
  0
LINE
  8
0
 10
100.782
 20
0.792816
 11
101.117
 21
1.15735
  0
LINE
  8
0
 10
101.117
 20
1.15735
 11
101.388
 21
1.57214
  0
LINE
  8
0
 10
101.388
 20
1.57214
 11
101.587
 21
2.02589
  0
LINE
  8
0
 10
101.587
 20
2.02589
 11
101.709
 21
2.50621
  0
LINE
  8
0
 10
101.709
 20
2.50621
 11
101.75
 21
3
  0
LINE
  8
0
 10
101.75
 20
3
 11
101.74
 21
214.248
  0
LINE
  8
0
 10
101.74
 20
214.248
 11
101.658
 21
214.736
  0
LINE
  8
0
 10
101.658
 20
214.736
 11
101.497
 21
215.205
  0
LINE
  8
0
 10
101.497
 20
215.205
 11
101.261
 21
215.641
  0
LINE
  8
0
 10
101.261
 20
215.641
 11
100.957
 21
216.032
  0
LINE
  8
0
 10
100.957
 20
216.032
 11
100.593
 21
216.367
  0
LINE
  8
0
 10
100.593
 20
216.367
 11
100.178
 21
216.638
  0
LINE
  8
0
 10
100.178
 20
216.638
 11
99.7241
 21
216.837
  0
LINE
  8
0
 10
99.7241
 20
216.837
 11
99.2438
 21
216.959
  0
LINE
  8
0
 10
99.2438
 20
216.959
 11
98.75
 21
217
  0
LINE
  8
0
 10
98.75
 20
217
 11
11.76
 21
216.996
  0
LINE
  8
0
 10
11.76
 20
216.996
 11
11.76
 21
212.3
  0
LINE
  8
0
 10
11.76
 20
212.3
 11
-25.26
 21
212.3
  0
LINE
  8
0
 10
-25.26
 20
212.3
 11
-25.26
 21
216.994
  0
LINE
  8
0
 10
-25.26
 20
216.994
 11
-112.498
 21
216.99
  0
LINE
  8
0
 10
-112.498
 20
216.99
 11
-112.986
 21
216.908
  0
LINE
  8
0
 10
-112.986
 20
216.908
 11
-113.455
 21
216.747
  0
LINE
  8
0
 10
-113.455
 20
216.747
 11
-113.891
 21
216.511
  0
LINE
  8
0
 10
-113.891
 20
216.511
 11
-114.282
 21
216.207
  0
LINE
  8
0
 10
-114.282
 20
216.207
 11
-114.617
 21
215.843
  0
LINE
  8
0
 10
-114.617
 20
215.843
 11
-114.888
 21
215.428
  0
LINE
  8
0
 10
-114.888
 20
215.428
 11
-115.087
 21
214.974
  0
LINE
  8
0
 10
-115.087
 20
214.974
 11
-115.209
 21
214.494
  0
LINE
  8
0
 10
-115.209
 20
214.494
 11
-115.25
 21
214
  0
LINE
  8
0
 10
-115.25
 20
214
 11
-115.24
 21
2.75226
  0
LINE
  8
0
 10
-115.24
 20
2.75226
 11
-115.158
 21
2.26353
  0
LINE
  8
0
 10
-115.158
 20
2.26353
 11
-114.997
 21
1.79491
  0
LINE
  8
0
 10
-114.997
 20
1.79491
 11
-114.761
 21
1.35915
  0
LINE
  8
0
 10
-114.761
 20
1.35915
 11
-114.457
 21
0.968155
  0
LINE
  8
0
 10
-114.457
 20
0.968155
 11
-114.093
 21
0.632568
  0
LINE
  8
0
 10
-114.093
 20
0.632568
 11
-113.678
 21
0.361572
  0
LINE
  8
0
 10
-113.678
 20
0.361572
 11
-113.224
 21
0.162537
  0
LINE
  8
0
 10
-113.224
 20
0.162537
 11
-112.744
 21
0.0409088
  0
LINE
  8
0
 10
-112.744
 20
0.0409088
 11
-112.25
 21
0
  0
LINE
  8
0
 10
-112.25
 20
0
 11
98.9977
 21
0.0102386
  0
LINE
  8
0
 10
97.2716
 20
211.845
 11
96.8661
 21
212.116
  0
LINE
  8
0
 10
96.8661
 20
212.116
 11
96.5951
 21
212.522
  0
LINE
  8
0
 10
96.5951
 20
212.522
 11
96.5
 21
213
  0
LINE
  8
0
 10
96.5
 20
213
 11
96.5951
 21
213.478
  0
LINE
  8
0
 10
96.5951
 20
213.478
 11
96.8661
 21
213.884
  0
LINE
  8
0
 10
96.8661
 20
213.884
 11
97.2716
 21
214.155
  0
LINE
  8
0
 10
97.2716
 20
214.155
 11
97.75
 21
214.25
  0
LINE
  8
0
 10
97.75
 20
214.25
 11
98.2283
 21
214.155
  0
LINE
  8
0
 10
98.2283
 20
214.155
 11
98.6339
 21
213.884
  0
LINE
  8
0
 10
98.6339
 20
213.884
 11
98.9048
 21
213.478
  0
LINE
  8
0
 10
98.9048
 20
213.478
 11
99
 21
213
  0
LINE
  8
0
 10
99
 20
213
 11
98.9048
 21
212.522
  0
LINE
  8
0
 10
98.9048
 20
212.522
 11
98.6339
 21
212.116
  0
LINE
  8
0
 10
98.6339
 20
212.116
 11
98.2283
 21
211.845
  0
LINE
  8
0
 10
98.2283
 20
211.845
 11
97.75
 21
211.75
  0
LINE
  8
0
 10
97.75
 20
211.75
 11
97.2716
 21
211.845
  0
LINE
  8
0
 10
-111.728
 20
211.845
 11
-112.134
 21
212.116
  0
LINE
  8
0
 10
-112.134
 20
212.116
 11
-112.405
 21
212.522
  0
LINE
  8
0
 10
-112.405
 20
212.522
 11
-112.5
 21
213
  0
LINE
  8
0
 10
-112.5
 20
213
 11
-112.405
 21
213.478
  0
LINE
  8
0
 10
-112.405
 20
213.478
 11
-112.134
 21
213.884
  0
LINE
  8
0
 10
-112.134
 20
213.884
 11
-111.728
 21
214.155
  0
LINE
  8
0
 10
-111.728
 20
214.155
 11
-111.25
 21
214.25
  0
LINE
  8
0
 10
-111.25
 20
214.25
 11
-110.772
 21
214.155
  0
LINE
  8
0
 10
-110.772
 20
214.155
 11
-110.366
 21
213.884
  0
LINE
  8
0
 10
-110.366
 20
213.884
 11
-110.095
 21
213.478
  0
LINE
  8
0
 10
-110.095
 20
213.478
 11
-110
 21
213
  0
LINE
  8
0
 10
-110
 20
213
 11
-110.095
 21
212.522
  0
LINE
  8
0
 10
-110.095
 20
212.522
 11
-110.366
 21
212.116
  0
LINE
  8
0
 10
-110.366
 20
212.116
 11
-110.772
 21
211.845
  0
LINE
  8
0
 10
-110.772
 20
211.845
 11
-111.25
 21
211.75
  0
LINE
  8
0
 10
-111.25
 20
211.75
 11
-111.728
 21
211.845
  0
LINE
  8
0
 10
-27.7771
 20
205.991
 11
-28.235
 21
206.171
  0
LINE
  8
0
 10
-28.235
 20
206.171
 11
-28.6195
 21
206.478
  0
LINE
  8
0
 10
-28.6195
 20
206.478
 11
-28.8966
 21
206.884
  0
LINE
  8
0
 10
-28.8966
 20
206.884
 11
-29.0416
 21
207.354
  0
LINE
  8
0
 10
-29.0416
 20
207.354
 11
-29.0416
 21
207.846
  0
LINE
  8
0
 10
-29.0416
 20
207.846
 11
-28.8966
 21
208.316
  0
LINE
  8
0
 10
-28.8966
 20
208.316
 11
-28.6195
 21
208.722
  0
LINE
  8
0
 10
-28.6195
 20
208.722
 11
-28.235
 21
209.029
  0
LINE
  8
0
 10
-28.235
 20
209.029
 11
-27.7771
 21
209.209
  0
LINE
  8
0
 10
-27.7771
 20
209.209
 11
-27.2867
 21
209.245
  0
LINE
  8
0
 10
-27.2867
 20
209.245
 11
-26.8072
 21
209.136
  0
LINE
  8
0
 10
-26.8072
 20
209.136
 11
-26.3812
 21
208.89
  0
LINE
  8
0
 10
-26.3812
 20
208.89
 11
-26.0467
 21
208.529
  0
LINE
  8
0
 10
-26.0467
 20
208.529
 11
-25.8333
 21
208.086
  0
LINE
  8
0
 10
-25.8333
 20
208.086
 11
-25.76
 21
207.6
  0
LINE
  8
0
 10
-25.76
 20
207.6
 11
-25.8333
 21
207.114
  0
LINE
  8
0
 10
-25.8333
 20
207.114
 11
-26.0467
 21
206.671
  0
LINE
  8
0
 10
-26.0467
 20
206.671
 11
-26.3812
 21
206.31
  0
LINE
  8
0
 10
-26.3812
 20
206.31
 11
-26.8072
 21
206.064
  0
LINE
  8
0
 10
-26.8072
 20
206.064
 11
-27.2867
 21
205.955
  0
LINE
  8
0
 10
-27.2867
 20
205.955
 11
-27.7771
 21
205.991
  0
LINE
  8
0
 10
13.5428
 20
205.991
 11
13.085
 21
206.171
  0
LINE
  8
0
 10
13.085
 20
206.171
 11
12.7005
 21
206.478
  0
LINE
  8
0
 10
12.7005
 20
206.478
 11
12.4234
 21
206.884
  0
LINE
  8
0
 10
12.4234
 20
206.884
 11
12.2784
 21
207.354
  0
LINE
  8
0
 10
12.2784
 20
207.354
 11
12.2784
 21
207.846
  0
LINE
  8
0
 10
12.2784
 20
207.846
 11
12.4234
 21
208.316
  0
LINE
  8
0
 10
12.4234
 20
208.316
 11
12.7005
 21
208.722
  0
LINE
  8
0
 10
12.7005
 20
208.722
 11
13.085
 21
209.029
  0
LINE
  8
0
 10
13.085
 20
209.029
 11
13.5428
 21
209.209
  0
LINE
  8
0
 10
13.5428
 20
209.209
 11
14.0333
 21
209.245
  0
LINE
  8
0
 10
14.0333
 20
209.245
 11
14.5128
 21
209.136
  0
LINE
  8
0
 10
14.5128
 20
209.136
 11
14.9388
 21
208.89
  0
LINE
  8
0
 10
14.9388
 20
208.89
 11
15.2733
 21
208.529
  0
LINE
  8
0
 10
15.2733
 20
208.529
 11
15.4867
 21
208.086
  0
LINE
  8
0
 10
15.4867
 20
208.086
 11
15.56
 21
207.6
  0
LINE
  8
0
 10
15.56
 20
207.6
 11
15.4867
 21
207.114
  0
LINE
  8
0
 10
15.4867
 20
207.114
 11
15.2733
 21
206.671
  0
LINE
  8
0
 10
15.2733
 20
206.671
 11
14.9388
 21
206.31
  0
LINE
  8
0
 10
14.9388
 20
206.31
 11
14.5128
 21
206.064
  0
LINE
  8
0
 10
14.5128
 20
206.064
 11
14.0333
 21
205.955
  0
LINE
  8
0
 10
14.0333
 20
205.955
 11
13.5428
 21
205.991
  0
LINE
  8
0
 10
-75.3528
 20
195.964
 11
-75.7787
 21
196.21
  0
LINE
  8
0
 10
-75.7787
 20
196.21
 11
-76.1133
 21
196.571
  0
LINE
  8
0
 10
-76.1133
 20
196.571
 11
-76.3267
 21
197.014
  0
LINE
  8
0
 10
-76.3267
 20
197.014
 11
-76.4
 21
197.5
  0
LINE
  8
0
 10
-76.4
 20
197.5
 11
-76.3267
 21
197.986
  0
LINE
  8
0
 10
-76.3267
 20
197.986
 11
-76.1133
 21
198.429
  0
LINE
  8
0
 10
-76.1133
 20
198.429
 11
-75.7787
 21
198.79
  0
LINE
  8
0
 10
-75.7787
 20
198.79
 11
-75.3528
 21
199.036
  0
LINE
  8
0
 10
-75.3528
 20
199.036
 11
-74.8733
 21
199.145
  0
LINE
  8
0
 10
-74.8733
 20
199.145
 11
-74.3828
 21
199.109
  0
LINE
  8
0
 10
-74.3828
 20
199.109
 11
-73.925
 21
198.929
  0
LINE
  8
0
 10
-73.925
 20
198.929
 11
-73.5405
 21
198.622
  0
LINE
  8
0
 10
-73.5405
 20
198.622
 11
-73.2634
 21
198.216
  0
LINE
  8
0
 10
-73.2634
 20
198.216
 11
-73.1184
 21
197.746
  0
LINE
  8
0
 10
-73.1184
 20
197.746
 11
-73.1184
 21
197.254
  0
LINE
  8
0
 10
-73.1184
 20
197.254
 11
-73.2634
 21
196.784
  0
LINE
  8
0
 10
-73.2634
 20
196.784
 11
-73.5405
 21
196.378
  0
LINE
  8
0
 10
-73.5405
 20
196.378
 11
-73.925
 21
196.071
  0
LINE
  8
0
 10
-73.925
 20
196.071
 11
-74.3828
 21
195.891
  0
LINE
  8
0
 10
-74.3828
 20
195.891
 11
-74.8733
 21
195.855
  0
LINE
  8
0
 10
-74.8733
 20
195.855
 11
-75.3528
 21
195.964
  0
LINE
  8
0
 10
-110.353
 20
169.964
 11
-110.779
 21
170.21
  0
LINE
  8
0
 10
-110.779
 20
170.21
 11
-111.113
 21
170.571
  0
LINE
  8
0
 10
-111.113
 20
170.571
 11
-111.327
 21
171.014
  0
LINE
  8
0
 10
-111.327
 20
171.014
 11
-111.4
 21
171.5
  0
LINE
  8
0
 10
-111.4
 20
171.5
 11
-111.327
 21
171.986
  0
LINE
  8
0
 10
-111.327
 20
171.986
 11
-111.113
 21
172.429
  0
LINE
  8
0
 10
-111.113
 20
172.429
 11
-110.779
 21
172.79
  0
LINE
  8
0
 10
-110.779
 20
172.79
 11
-110.353
 21
173.036
  0
LINE
  8
0
 10
-110.353
 20
173.036
 11
-109.873
 21
173.145
  0
LINE
  8
0
 10
-109.873
 20
173.145
 11
-109.383
 21
173.109
  0
LINE
  8
0
 10
-109.383
 20
173.109
 11
-108.925
 21
172.929
  0
LINE
  8
0
 10
-108.925
 20
172.929
 11
-108.54
 21
172.622
  0
LINE
  8
0
 10
-108.54
 20
172.622
 11
-108.263
 21
172.216
  0
LINE
  8
0
 10
-108.263
 20
172.216
 11
-108.118
 21
171.746
  0
LINE
  8
0
 10
-108.118
 20
171.746
 11
-108.118
 21
171.254
  0
LINE
  8
0
 10
-108.118
 20
171.254
 11
-108.263
 21
170.784
  0
LINE
  8
0
 10
-108.263
 20
170.784
 11
-108.54
 21
170.378
  0
LINE
  8
0
 10
-108.54
 20
170.378
 11
-108.925
 21
170.071
  0
LINE
  8
0
 10
-108.925
 20
170.071
 11
-109.383
 21
169.891
  0
LINE
  8
0
 10
-109.383
 20
169.891
 11
-109.873
 21
169.855
  0
LINE
  8
0
 10
-109.873
 20
169.855
 11
-110.353
 21
169.964
  0
LINE
  8
0
 10
-38.6272
 20
157.716
 11
-39.085
 21
157.896
  0
LINE
  8
0
 10
-39.085
 20
157.896
 11
-39.4695
 21
158.202
  0
LINE
  8
0
 10
-39.4695
 20
158.202
 11
-39.7466
 21
158.609
  0
LINE
  8
0
 10
-39.7466
 20
158.609
 11
-39.8916
 21
159.079
  0
LINE
  8
0
 10
-39.8916
 20
159.079
 11
-39.8916
 21
159.57
  0
LINE
  8
0
 10
-39.8916
 20
159.57
 11
-39.7466
 21
160.04
  0
LINE
  8
0
 10
-39.7466
 20
160.04
 11
-39.4695
 21
160.447
  0
LINE
  8
0
 10
-39.4695
 20
160.447
 11
-39.085
 21
160.754
  0
LINE
  8
0
 10
-39.085
 20
160.754
 11
-38.6272
 21
160.933
  0
LINE
  8
0
 10
-38.6272
 20
160.933
 11
-38.1367
 21
160.97
  0
LINE
  8
0
 10
-38.1367
 20
160.97
 11
-37.6572
 21
160.861
  0
LINE
  8
0
 10
-37.6572
 20
160.861
 11
-37.2312
 21
160.615
  0
LINE
  8
0
 10
-37.2312
 20
160.615
 11
-36.8967
 21
160.254
  0
LINE
  8
0
 10
-36.8967
 20
160.254
 11
-36.6833
 21
159.811
  0
LINE
  8
0
 10
-36.6833
 20
159.811
 11
-36.61
 21
159.325
  0
LINE
  8
0
 10
-36.61
 20
159.325
 11
-36.6833
 21
158.838
  0
LINE
  8
0
 10
-36.6833
 20
158.838
 11
-36.8967
 21
158.395
  0
LINE
  8
0
 10
-36.8967
 20
158.395
 11
-37.2312
 21
158.035
  0
LINE
  8
0
 10
-37.2312
 20
158.035
 11
-37.6572
 21
157.789
  0
LINE
  8
0
 10
-37.6572
 20
157.789
 11
-38.1367
 21
157.679
  0
LINE
  8
0
 10
-38.1367
 20
157.679
 11
-38.6272
 21
157.716
  0
LINE
  8
0
 10
-38.6272
 20
143.067
 11
-39.085
 21
143.246
  0
LINE
  8
0
 10
-39.085
 20
143.246
 11
-39.4695
 21
143.553
  0
LINE
  8
0
 10
-39.4695
 20
143.553
 11
-39.7466
 21
143.96
  0
LINE
  8
0
 10
-39.7466
 20
143.96
 11
-39.8916
 21
144.429
  0
LINE
  8
0
 10
-39.8916
 20
144.429
 11
-39.8916
 21
144.921
  0
LINE
  8
0
 10
-39.8916
 20
144.921
 11
-39.7466
 21
145.391
  0
LINE
  8
0
 10
-39.7466
 20
145.391
 11
-39.4695
 21
145.798
  0
LINE
  8
0
 10
-39.4695
 20
145.798
 11
-39.085
 21
146.104
  0
LINE
  8
0
 10
-39.085
 20
146.104
 11
-38.6272
 21
146.284
  0
LINE
  8
0
 10
-38.6272
 20
146.284
 11
-38.1367
 21
146.321
  0
LINE
  8
0
 10
-38.1367
 20
146.321
 11
-37.6572
 21
146.211
  0
LINE
  8
0
 10
-37.6572
 20
146.211
 11
-37.2312
 21
145.965
  0
LINE
  8
0
 10
-37.2312
 20
145.965
 11
-36.8967
 21
145.605
  0
LINE
  8
0
 10
-36.8967
 20
145.605
 11
-36.6833
 21
145.162
  0
LINE
  8
0
 10
-36.6833
 20
145.162
 11
-36.61
 21
144.675
  0
LINE
  8
0
 10
-36.61
 20
144.675
 11
-36.6833
 21
144.189
  0
LINE
  8
0
 10
-36.6833
 20
144.189
 11
-36.8967
 21
143.746
  0
LINE
  8
0
 10
-36.8967
 20
143.746
 11
-37.2312
 21
143.385
  0
LINE
  8
0
 10
-37.2312
 20
143.385
 11
-37.6572
 21
143.139
  0
LINE
  8
0
 10
-37.6572
 20
143.139
 11
-38.1367
 21
143.03
  0
LINE
  8
0
 10
-38.1367
 20
143.03
 11
-38.6272
 21
143.067
  0
LINE
  8
0
 10
95.6472
 20
119.964
 11
95.2212
 21
120.21
  0
LINE
  8
0
 10
95.2212
 20
120.21
 11
94.8867
 21
120.571
  0
LINE
  8
0
 10
94.8867
 20
120.571
 11
94.6733
 21
121.014
  0
LINE
  8
0
 10
94.6733
 20
121.014
 11
94.6
 21
121.5
  0
LINE
  8
0
 10
94.6
 20
121.5
 11
94.6733
 21
121.986
  0
LINE
  8
0
 10
94.6733
 20
121.986
 11
94.8867
 21
122.429
  0
LINE
  8
0
 10
94.8867
 20
122.429
 11
95.2212
 21
122.79
  0
LINE
  8
0
 10
95.2212
 20
122.79
 11
95.6472
 21
123.036
  0
LINE
  8
0
 10
95.6472
 20
123.036
 11
96.1267
 21
123.145
  0
LINE
  8
0
 10
96.1267
 20
123.145
 11
96.6172
 21
123.109
  0
LINE
  8
0
 10
96.6172
 20
123.109
 11
97.075
 21
122.929
  0
LINE
  8
0
 10
97.075
 20
122.929
 11
97.4595
 21
122.622
  0
LINE
  8
0
 10
97.4595
 20
122.622
 11
97.7366
 21
122.216
  0
LINE
  8
0
 10
97.7366
 20
122.216
 11
97.8816
 21
121.746
  0
LINE
  8
0
 10
97.8816
 20
121.746
 11
97.8816
 21
121.254
  0
LINE
  8
0
 10
97.8816
 20
121.254
 11
97.7366
 21
120.784
  0
LINE
  8
0
 10
97.7366
 20
120.784
 11
97.4595
 21
120.378
  0
LINE
  8
0
 10
97.4595
 20
120.378
 11
97.075
 21
120.071
  0
LINE
  8
0
 10
97.075
 20
120.071
 11
96.6172
 21
119.891
  0
LINE
  8
0
 10
96.6172
 20
119.891
 11
96.1267
 21
119.855
  0
LINE
  8
0
 10
96.1267
 20
119.855
 11
95.6472
 21
119.964
  0
LINE
  8
0
 10
60.6472
 20
93.9641
 11
60.2212
 21
94.21
  0
LINE
  8
0
 10
60.2212
 20
94.21
 11
59.8867
 21
94.5705
  0
LINE
  8
0
 10
59.8867
 20
94.5705
 11
59.6733
 21
95.0136
  0
LINE
  8
0
 10
59.6733
 20
95.0136
 11
59.6
 21
95.5
  0
LINE
  8
0
 10
59.6
 20
95.5
 11
59.6733
 21
95.9863
  0
LINE
  8
0
 10
59.6733
 20
95.9863
 11
59.8867
 21
96.4295
  0
LINE
  8
0
 10
59.8867
 20
96.4295
 11
60.2212
 21
96.79
  0
LINE
  8
0
 10
60.2212
 20
96.79
 11
60.6472
 21
97.0359
  0
LINE
  8
0
 10
60.6472
 20
97.0359
 11
61.1267
 21
97.1454
  0
LINE
  8
0
 10
61.1267
 20
97.1454
 11
61.6172
 21
97.1086
  0
LINE
  8
0
 10
61.6172
 20
97.1086
 11
62.075
 21
96.9289
  0
LINE
  8
0
 10
62.075
 20
96.9289
 11
62.4595
 21
96.6223
  0
LINE
  8
0
 10
62.4595
 20
96.6223
 11
62.7366
 21
96.2159
  0
LINE
  8
0
 10
62.7366
 20
96.2159
 11
62.8816
 21
95.7459
  0
LINE
  8
0
 10
62.8816
 20
95.7459
 11
62.8816
 21
95.2541
  0
LINE
  8
0
 10
62.8816
 20
95.2541
 11
62.7366
 21
94.7841
  0
LINE
  8
0
 10
62.7366
 20
94.7841
 11
62.4595
 21
94.3777
  0
LINE
  8
0
 10
62.4595
 20
94.3777
 11
62.075
 21
94.071
  0
LINE
  8
0
 10
62.075
 20
94.071
 11
61.6172
 21
93.8914
  0
LINE
  8
0
 10
61.6172
 20
93.8914
 11
61.1267
 21
93.8546
  0
LINE
  8
0
 10
61.1267
 20
93.8546
 11
60.6472
 21
93.9641
  0
LINE
  8
0
 10
-38.8628
 20
67.9386
 11
-39.2888
 21
68.1846
  0
LINE
  8
0
 10
-39.2888
 20
68.1846
 11
-39.6233
 21
68.5451
  0
LINE
  8
0
 10
-39.6233
 20
68.5451
 11
-39.8367
 21
68.9882
  0
LINE
  8
0
 10
-39.8367
 20
68.9882
 11
-39.91
 21
69.4746
  0
LINE
  8
0
 10
-39.91
 20
69.4746
 11
-39.8367
 21
69.9609
  0
LINE
  8
0
 10
-39.8367
 20
69.9609
 11
-39.6233
 21
70.4041
  0
LINE
  8
0
 10
-39.6233
 20
70.4041
 11
-39.2888
 21
70.7646
  0
LINE
  8
0
 10
-39.2888
 20
70.7646
 11
-38.8628
 21
71.0105
  0
LINE
  8
0
 10
-38.8628
 20
71.0105
 11
-38.3833
 21
71.12
  0
LINE
  8
0
 10
-38.3833
 20
71.12
 11
-37.8928
 21
71.0832
  0
LINE
  8
0
 10
-37.8928
 20
71.0832
 11
-37.435
 21
70.9035
  0
LINE
  8
0
 10
-37.435
 20
70.9035
 11
-37.0505
 21
70.5969
  0
LINE
  8
0
 10
-37.0505
 20
70.5969
 11
-36.7734
 21
70.1905
  0
LINE
  8
0
 10
-36.7734
 20
70.1905
 11
-36.6284
 21
69.7205
  0
LINE
  8
0
 10
-36.6284
 20
69.7205
 11
-36.6284
 21
69.2287
  0
LINE
  8
0
 10
-36.6284
 20
69.2287
 11
-36.7734
 21
68.7587
  0
LINE
  8
0
 10
-36.7734
 20
68.7587
 11
-37.0505
 21
68.3523
  0
LINE
  8
0
 10
-37.0505
 20
68.3523
 11
-37.435
 21
68.0456
  0
LINE
  8
0
 10
-37.435
 20
68.0456
 11
-37.8928
 21
67.8659
  0
LINE
  8
0
 10
-37.8928
 20
67.8659
 11
-38.3833
 21
67.8292
  0
LINE
  8
0
 10
-38.3833
 20
67.8292
 11
-38.8628
 21
67.9386
  0
LINE
  8
0
 10
-38.8628
 20
53.2895
 11
-39.2888
 21
53.5354
  0
LINE
  8
0
 10
-39.2888
 20
53.5354
 11
-39.6233
 21
53.8959
  0
LINE
  8
0
 10
-39.6233
 20
53.8959
 11
-39.8367
 21
54.3391
  0
LINE
  8
0
 10
-39.8367
 20
54.3391
 11
-39.91
 21
54.8254
  0
LINE
  8
0
 10
-39.91
 20
54.8254
 11
-39.8367
 21
55.3118
  0
LINE
  8
0
 10
-39.8367
 20
55.3118
 11
-39.6233
 21
55.7549
  0
LINE
  8
0
 10
-39.6233
 20
55.7549
 11
-39.2888
 21
56.1154
  0
LINE
  8
0
 10
-39.2888
 20
56.1154
 11
-38.8628
 21
56.3614
  0
LINE
  8
0
 10
-38.8628
 20
56.3614
 11
-38.3833
 21
56.4708
  0
LINE
  8
0
 10
-38.3833
 20
56.4708
 11
-37.8928
 21
56.434
  0
LINE
  8
0
 10
-37.8928
 20
56.434
 11
-37.435
 21
56.2543
  0
LINE
  8
0
 10
-37.435
 20
56.2543
 11
-37.0505
 21
55.9477
  0
LINE
  8
0
 10
-37.0505
 20
55.9477
 11
-36.7734
 21
55.5413
  0
LINE
  8
0
 10
-36.7734
 20
55.5413
 11
-36.6284
 21
55.0713
  0
LINE
  8
0
 10
-36.6284
 20
55.0713
 11
-36.6284
 21
54.5795
  0
LINE
  8
0
 10
-36.6284
 20
54.5795
 11
-36.7734
 21
54.1095
  0
LINE
  8
0
 10
-36.7734
 20
54.1095
 11
-37.0505
 21
53.7031
  0
LINE
  8
0
 10
-37.0505
 20
53.7031
 11
-37.435
 21
53.3965
  0
LINE
  8
0
 10
-37.435
 20
53.3965
 11
-37.8928
 21
53.2168
  0
LINE
  8
0
 10
-37.8928
 20
53.2168
 11
-38.3833
 21
53.18
  0
LINE
  8
0
 10
-38.3833
 20
53.18
 11
-38.8628
 21
53.2895
  0
LINE
  8
0
 10
-75.3528
 20
43.9641
 11
-75.7787
 21
44.21
  0
LINE
  8
0
 10
-75.7787
 20
44.21
 11
-76.1133
 21
44.5705
  0
LINE
  8
0
 10
-76.1133
 20
44.5705
 11
-76.3267
 21
45.0136
  0
LINE
  8
0
 10
-76.3267
 20
45.0136
 11
-76.4
 21
45.5
  0
LINE
  8
0
 10
-76.4
 20
45.5
 11
-76.3267
 21
45.9863
  0
LINE
  8
0
 10
-76.3267
 20
45.9863
 11
-76.1133
 21
46.4295
  0
LINE
  8
0
 10
-76.1133
 20
46.4295
 11
-75.7787
 21
46.79
  0
LINE
  8
0
 10
-75.7787
 20
46.79
 11
-75.3528
 21
47.0359
  0
LINE
  8
0
 10
-75.3528
 20
47.0359
 11
-74.8733
 21
47.1454
  0
LINE
  8
0
 10
-74.8733
 20
47.1454
 11
-74.3828
 21
47.1086
  0
LINE
  8
0
 10
-74.3828
 20
47.1086
 11
-73.925
 21
46.9289
  0
LINE
  8
0
 10
-73.925
 20
46.9289
 11
-73.5405
 21
46.6223
  0
LINE
  8
0
 10
-73.5405
 20
46.6223
 11
-73.2634
 21
46.2159
  0
LINE
  8
0
 10
-73.2634
 20
46.2159
 11
-73.1184
 21
45.7459
  0
LINE
  8
0
 10
-73.1184
 20
45.7459
 11
-73.1184
 21
45.2541
  0
LINE
  8
0
 10
-73.1184
 20
45.2541
 11
-73.2634
 21
44.7841
  0
LINE
  8
0
 10
-73.2634
 20
44.7841
 11
-73.5405
 21
44.3777
  0
LINE
  8
0
 10
-73.5405
 20
44.3777
 11
-73.925
 21
44.071
  0
LINE
  8
0
 10
-73.925
 20
44.071
 11
-74.3828
 21
43.8914
  0
LINE
  8
0
 10
-74.3828
 20
43.8914
 11
-74.8733
 21
43.8546
  0
LINE
  8
0
 10
-74.8733
 20
43.8546
 11
-75.3528
 21
43.9641
  0
LINE
  8
0
 10
-110.353
 20
17.9641
 11
-110.779
 21
18.21
  0
LINE
  8
0
 10
-110.779
 20
18.21
 11
-111.113
 21
18.5705
  0
LINE
  8
0
 10
-111.113
 20
18.5705
 11
-111.327
 21
19.0136
  0
LINE
  8
0
 10
-111.327
 20
19.0136
 11
-111.4
 21
19.5
  0
LINE
  8
0
 10
-111.4
 20
19.5
 11
-111.327
 21
19.9863
  0
LINE
  8
0
 10
-111.327
 20
19.9863
 11
-111.113
 21
20.4295
  0
LINE
  8
0
 10
-111.113
 20
20.4295
 11
-110.779
 21
20.79
  0
LINE
  8
0
 10
-110.779
 20
20.79
 11
-110.353
 21
21.0359
  0
LINE
  8
0
 10
-110.353
 20
21.0359
 11
-109.873
 21
21.1454
  0
LINE
  8
0
 10
-109.873
 20
21.1454
 11
-109.383
 21
21.1086
  0
LINE
  8
0
 10
-109.383
 20
21.1086
 11
-108.925
 21
20.9289
  0
LINE
  8
0
 10
-108.925
 20
20.9289
 11
-108.54
 21
20.6223
  0
LINE
  8
0
 10
-108.54
 20
20.6223
 11
-108.263
 21
20.2159
  0
LINE
  8
0
 10
-108.263
 20
20.2159
 11
-108.118
 21
19.7459
  0
LINE
  8
0
 10
-108.118
 20
19.7459
 11
-108.118
 21
19.2541
  0
LINE
  8
0
 10
-108.118
 20
19.2541
 11
-108.263
 21
18.7841
  0
LINE
  8
0
 10
-108.263
 20
18.7841
 11
-108.54
 21
18.3777
  0
LINE
  8
0
 10
-108.54
 20
18.3777
 11
-108.925
 21
18.071
  0
LINE
  8
0
 10
-108.925
 20
18.071
 11
-109.383
 21
17.8914
  0
LINE
  8
0
 10
-109.383
 20
17.8914
 11
-109.873
 21
17.8546
  0
LINE
  8
0
 10
-109.873
 20
17.8546
 11
-110.353
 21
17.9641
  0
LINE
  8
0
 10
-111.728
 20
2.84514
 11
-112.134
 21
3.1161
  0
LINE
  8
0
 10
-112.134
 20
3.1161
 11
-112.405
 21
3.52164
  0
LINE
  8
0
 10
-112.405
 20
3.52164
 11
-112.5
 21
4
  0
LINE
  8
0
 10
-112.5
 20
4
 11
-112.405
 21
4.47835
  0
LINE
  8
0
 10
-112.405
 20
4.47835
 11
-112.134
 21
4.88388
  0
LINE
  8
0
 10
-112.134
 20
4.88388
 11
-111.728
 21
5.15485
  0
LINE
  8
0
 10
-111.728
 20
5.15485
 11
-111.25
 21
5.25
  0
LINE
  8
0
 10
-111.25
 20
5.25
 11
-110.772
 21
5.15485
  0
LINE
  8
0
 10
-110.772
 20
5.15485
 11
-110.366
 21
4.88388
  0
LINE
  8
0
 10
-110.366
 20
4.88388
 11
-110.095
 21
4.47835
  0
LINE
  8
0
 10
-110.095
 20
4.47835
 11
-110
 21
4
  0
LINE
  8
0
 10
-110
 20
4
 11
-110.095
 21
3.52164
  0
LINE
  8
0
 10
-110.095
 20
3.52164
 11
-110.366
 21
3.1161
  0
LINE
  8
0
 10
-110.366
 20
3.1161
 11
-110.772
 21
2.84514
  0
LINE
  8
0
 10
-110.772
 20
2.84514
 11
-111.25
 21
2.75
  0
LINE
  8
0
 10
-111.25
 20
2.75
 11
-111.728
 21
2.84514
  0
LINE
  8
0
 10
97.2716
 20
2.84514
 11
96.8661
 21
3.1161
  0
LINE
  8
0
 10
96.8661
 20
3.1161
 11
96.5951
 21
3.52164
  0
LINE
  8
0
 10
96.5951
 20
3.52164
 11
96.5
 21
4
  0
LINE
  8
0
 10
96.5
 20
4
 11
96.5951
 21
4.47835
  0
LINE
  8
0
 10
96.5951
 20
4.47835
 11
96.8661
 21
4.88388
  0
LINE
  8
0
 10
96.8661
 20
4.88388
 11
97.2716
 21
5.15485
  0
LINE
  8
0
 10
97.2716
 20
5.15485
 11
97.75
 21
5.25
  0
LINE
  8
0
 10
97.75
 20
5.25
 11
98.2283
 21
5.15485
  0
LINE
  8
0
 10
98.2283
 20
5.15485
 11
98.6339
 21
4.88388
  0
LINE
  8
0
 10
98.6339
 20
4.88388
 11
98.9048
 21
4.47835
  0
LINE
  8
0
 10
98.9048
 20
4.47835
 11
99
 21
4
  0
LINE
  8
0
 10
99
 20
4
 11
98.9048
 21
3.52164
  0
LINE
  8
0
 10
98.9048
 20
3.52164
 11
98.6339
 21
3.1161
  0
LINE
  8
0
 10
98.6339
 20
3.1161
 11
98.2283
 21
2.84514
  0
LINE
  8
0
 10
98.2283
 20
2.84514
 11
97.75
 21
2.75
  0
LINE
  8
0
 10
97.75
 20
2.75
 11
97.2716
 21
2.84514
  0
ENDSEC
  0
SECTION
  2
OBJECTS
  0
DICTIONARY
  0
ENDSEC
  0
EOF
