  0
SECTION
  2
BLOCKS
  0
ENDSEC
  0
SECTION
  2
ENTITIES
  0
LINE
  8
0
 10
3.14526e-14
 20
-156.5
 11
386
 21
-156.5
  0
LINE
  8
0
 10
386
 20
-156.5
 11
387.307
 21
-156.443
  0
LINE
  8
0
 10
387.307
 20
-156.443
 11
388.605
 21
-156.272
  0
LINE
  8
0
 10
388.605
 20
-156.272
 11
389.882
 21
-155.989
  0
LINE
  8
0
 10
389.882
 20
-155.989
 11
391.13
 21
-155.595
  0
LINE
  8
0
 10
391.13
 20
-155.595
 11
392.339
 21
-155.095
  0
LINE
  8
0
 10
392.339
 20
-155.095
 11
393.5
 21
-154.49
  0
LINE
  8
0
 10
393.5
 20
-154.49
 11
394.604
 21
-153.787
  0
LINE
  8
0
 10
394.604
 20
-153.787
 11
395.642
 21
-152.991
  0
LINE
  8
0
 10
395.642
 20
-152.991
 11
396.607
 21
-152.107
  0
LINE
  8
0
 10
396.607
 20
-152.107
 11
397.491
 21
-151.142
  0
LINE
  8
0
 10
397.491
 20
-151.142
 11
398.287
 21
-150.104
  0
LINE
  8
0
 10
398.287
 20
-150.104
 11
398.99
 21
-149
  0
LINE
  8
0
 10
398.99
 20
-149
 11
399.595
 21
-147.839
  0
LINE
  8
0
 10
399.595
 20
-147.839
 11
400.095
 21
-146.63
  0
LINE
  8
0
 10
400.095
 20
-146.63
 11
400.489
 21
-145.382
  0
LINE
  8
0
 10
400.489
 20
-145.382
 11
400.772
 21
-144.105
  0
LINE
  8
0
 10
400.772
 20
-144.105
 11
400.943
 21
-142.807
  0
LINE
  8
0
 10
400.943
 20
-142.807
 11
401
 21
-141.5
  0
LINE
  8
0
 10
401
 20
-141.5
 11
401
 21
0
  0
LINE
  8
0
 10
401
 20
0
 11
3.14526e-14
 21
0
  0
LINE
  8
0
 10
3.14526e-14
 20
0
 11
3.14526e-14
 21
-156.5
  0
LINE
  8
0
 10
5
 20
-18.9
 11
5.02402
 21
-18.6561
  0
LINE
  8
0
 10
5.02402
 20
-18.6561
 11
5.04804
 21
-18.4123
  0
LINE
  8
0
 10
5.04804
 20
-18.4123
 11
5.1903
 21
-17.9433
  0
LINE
  8
0
 10
5.1903
 20
-17.9433
 11
5.42133
 21
-17.5111
  0
LINE
  8
0
 10
5.42133
 20
-17.5111
 11
5.73223
 21
-17.1322
  0
LINE
  8
0
 10
5.73223
 20
-17.1322
 11
6.11107
 21
-16.8213
  0
LINE
  8
0
 10
6.11107
 20
-16.8213
 11
6.54329
 21
-16.5903
  0
LINE
  8
0
 10
6.54329
 20
-16.5903
 11
7.01227
 21
-16.448
  0
LINE
  8
0
 10
7.01227
 20
-16.448
 11
7.25614
 21
-16.424
  0
LINE
  8
0
 10
7.25614
 20
-16.424
 11
7.5
 21
-16.4
  0
LINE
  8
0
 10
7.5
 20
-16.4
 11
7.74386
 21
-16.424
  0
LINE
  8
0
 10
7.74386
 20
-16.424
 11
7.98773
 21
-16.448
  0
LINE
  8
0
 10
7.98773
 20
-16.448
 11
8.45671
 21
-16.5903
  0
LINE
  8
0
 10
8.45671
 20
-16.5903
 11
8.88893
 21
-16.8213
  0
LINE
  8
0
 10
8.88893
 20
-16.8213
 11
9.26777
 21
-17.1322
  0
LINE
  8
0
 10
9.26777
 20
-17.1322
 11
9.57867
 21
-17.5111
  0
LINE
  8
0
 10
9.57867
 20
-17.5111
 11
9.8097
 21
-17.9433
  0
LINE
  8
0
 10
9.8097
 20
-17.9433
 11
9.95196
 21
-18.4123
  0
LINE
  8
0
 10
9.95196
 20
-18.4123
 11
9.97598
 21
-18.6561
  0
LINE
  8
0
 10
9.97598
 20
-18.6561
 11
10
 21
-18.9
  0
LINE
  8
0
 10
10
 20
-18.9
 11
9.97598
 21
-19.1439
  0
LINE
  8
0
 10
9.97598
 20
-19.1439
 11
9.95196
 21
-19.3877
  0
LINE
  8
0
 10
9.95196
 20
-19.3877
 11
9.8097
 21
-19.8567
  0
LINE
  8
0
 10
9.8097
 20
-19.8567
 11
9.57867
 21
-20.2889
  0
LINE
  8
0
 10
9.57867
 20
-20.2889
 11
9.26777
 21
-20.6678
  0
LINE
  8
0
 10
9.26777
 20
-20.6678
 11
8.88893
 21
-20.9787
  0
LINE
  8
0
 10
8.88893
 20
-20.9787
 11
8.45671
 21
-21.2097
  0
LINE
  8
0
 10
8.45671
 20
-21.2097
 11
7.98773
 21
-21.352
  0
LINE
  8
0
 10
7.98773
 20
-21.352
 11
7.74386
 21
-21.376
  0
LINE
  8
0
 10
7.74386
 20
-21.376
 11
7.5
 21
-21.4
  0
LINE
  8
0
 10
7.5
 20
-21.4
 11
7.25614
 21
-21.376
  0
LINE
  8
0
 10
7.25614
 20
-21.376
 11
7.01227
 21
-21.352
  0
LINE
  8
0
 10
7.01227
 20
-21.352
 11
6.54329
 21
-21.2097
  0
LINE
  8
0
 10
6.54329
 20
-21.2097
 11
6.11107
 21
-20.9787
  0
LINE
  8
0
 10
6.11107
 20
-20.9787
 11
5.73223
 21
-20.6678
  0
LINE
  8
0
 10
5.73223
 20
-20.6678
 11
5.42133
 21
-20.2889
  0
LINE
  8
0
 10
5.42133
 20
-20.2889
 11
5.1903
 21
-19.8567
  0
LINE
  8
0
 10
5.1903
 20
-19.8567
 11
5.04804
 21
-19.3877
  0
LINE
  8
0
 10
5.04804
 20
-19.3877
 11
5.02402
 21
-19.1439
  0
LINE
  8
0
 10
5.02402
 20
-19.1439
 11
5
 21
-18.9
  0
LINE
  8
0
 10
5
 20
-94.6
 11
5.01781
 21
-94.3509
  0
LINE
  8
0
 10
5.01781
 20
-94.3509
 11
5.03562
 21
-94.1019
  0
LINE
  8
0
 10
5.03562
 20
-94.1019
 11
5.14177
 21
-93.6139
  0
LINE
  8
0
 10
5.14177
 20
-93.6139
 11
5.31629
 21
-93.146
  0
LINE
  8
0
 10
5.31629
 20
-93.146
 11
5.55561
 21
-92.7078
  0
LINE
  8
0
 10
5.55561
 20
-92.7078
 11
5.85488
 21
-92.308
  0
LINE
  8
0
 10
5.85488
 20
-92.308
 11
6.20799
 21
-91.9549
  0
LINE
  8
0
 10
6.20799
 20
-91.9549
 11
6.60776
 21
-91.6556
  0
LINE
  8
0
 10
6.60776
 20
-91.6556
 11
7.04605
 21
-91.4163
  0
LINE
  8
0
 10
7.04605
 20
-91.4163
 11
7.51394
 21
-91.2418
  0
LINE
  8
0
 10
7.51394
 20
-91.2418
 11
8.0019
 21
-91.1356
  0
LINE
  8
0
 10
8.0019
 20
-91.1356
 11
8.25095
 21
-91.1178
  0
LINE
  8
0
 10
8.25095
 20
-91.1178
 11
8.5
 21
-91.1
  0
LINE
  8
0
 10
8.5
 20
-91.1
 11
8.74905
 21
-91.1178
  0
LINE
  8
0
 10
8.74905
 20
-91.1178
 11
8.9981
 21
-91.1356
  0
LINE
  8
0
 10
8.9981
 20
-91.1356
 11
9.48606
 21
-91.2418
  0
LINE
  8
0
 10
9.48606
 20
-91.2418
 11
9.95395
 21
-91.4163
  0
LINE
  8
0
 10
9.95395
 20
-91.4163
 11
10.3922
 21
-91.6556
  0
LINE
  8
0
 10
10.3922
 20
-91.6556
 11
10.792
 21
-91.9549
  0
LINE
  8
0
 10
10.792
 20
-91.9549
 11
11.1451
 21
-92.308
  0
LINE
  8
0
 10
11.1451
 20
-92.308
 11
11.4444
 21
-92.7078
  0
LINE
  8
0
 10
11.4444
 20
-92.7078
 11
11.6837
 21
-93.146
  0
LINE
  8
0
 10
11.6837
 20
-93.146
 11
11.8582
 21
-93.6139
  0
LINE
  8
0
 10
11.8582
 20
-93.6139
 11
11.9644
 21
-94.1019
  0
LINE
  8
0
 10
11.9644
 20
-94.1019
 11
11.9822
 21
-94.3509
  0
LINE
  8
0
 10
11.9822
 20
-94.3509
 11
12
 21
-94.6
  0
LINE
  8
0
 10
12
 20
-94.6
 11
11.9822
 21
-94.8491
  0
LINE
  8
0
 10
11.9822
 20
-94.8491
 11
11.9644
 21
-95.0981
  0
LINE
  8
0
 10
11.9644
 20
-95.0981
 11
11.8582
 21
-95.5861
  0
LINE
  8
0
 10
11.8582
 20
-95.5861
 11
11.6837
 21
-96.054
  0
LINE
  8
0
 10
11.6837
 20
-96.054
 11
11.4444
 21
-96.4922
  0
LINE
  8
0
 10
11.4444
 20
-96.4922
 11
11.1451
 21
-96.892
  0
LINE
  8
0
 10
11.1451
 20
-96.892
 11
10.792
 21
-97.2451
  0
LINE
  8
0
 10
10.792
 20
-97.2451
 11
10.3922
 21
-97.5444
  0
LINE
  8
0
 10
10.3922
 20
-97.5444
 11
9.95395
 21
-97.7837
  0
LINE
  8
0
 10
9.95395
 20
-97.7837
 11
9.48606
 21
-97.9582
  0
LINE
  8
0
 10
9.48606
 20
-97.9582
 11
8.9981
 21
-98.0644
  0
LINE
  8
0
 10
8.9981
 20
-98.0644
 11
8.74905
 21
-98.0822
  0
LINE
  8
0
 10
8.74905
 20
-98.0822
 11
8.5
 21
-98.1
  0
LINE
  8
0
 10
8.5
 20
-98.1
 11
8.25095
 21
-98.0822
  0
LINE
  8
0
 10
8.25095
 20
-98.0822
 11
8.0019
 21
-98.0644
  0
LINE
  8
0
 10
8.0019
 20
-98.0644
 11
7.51394
 21
-97.9582
  0
LINE
  8
0
 10
7.51394
 20
-97.9582
 11
7.04605
 21
-97.7837
  0
LINE
  8
0
 10
7.04605
 20
-97.7837
 11
6.60776
 21
-97.5444
  0
LINE
  8
0
 10
6.60776
 20
-97.5444
 11
6.20799
 21
-97.2451
  0
LINE
  8
0
 10
6.20799
 20
-97.2451
 11
5.85488
 21
-96.892
  0
LINE
  8
0
 10
5.85488
 20
-96.892
 11
5.55561
 21
-96.4922
  0
LINE
  8
0
 10
5.55561
 20
-96.4922
 11
5.31629
 21
-96.054
  0
LINE
  8
0
 10
5.31629
 20
-96.054
 11
5.14177
 21
-95.5861
  0
LINE
  8
0
 10
5.14177
 20
-95.5861
 11
5.03562
 21
-95.0981
  0
LINE
  8
0
 10
5.03562
 20
-95.0981
 11
5.01781
 21
-94.8491
  0
LINE
  8
0
 10
5.01781
 20
-94.8491
 11
5
 21
-94.6
  0
LINE
  8
0
 10
5.01458
 20
-82.6411
 11
5.01458
 21
-82.1589
  0
LINE
  8
0
 10
5.01458
 20
-82.1589
 11
5.12997
 21
-81.6908
  0
LINE
  8
0
 10
5.12997
 20
-81.6908
 11
5.35403
 21
-81.2639
  0
LINE
  8
0
 10
5.35403
 20
-81.2639
 11
5.67375
 21
-80.903
  0
LINE
  8
0
 10
5.67375
 20
-80.903
 11
6.07055
 21
-80.6291
  0
LINE
  8
0
 10
6.07055
 20
-80.6291
 11
6.52137
 21
-80.4581
  0
LINE
  8
0
 10
6.52137
 20
-80.4581
 11
6.76068
 21
-80.4291
  0
LINE
  8
0
 10
6.76068
 20
-80.4291
 11
7
 21
-80.4
  0
LINE
  8
0
 10
7
 20
-80.4
 11
7.23932
 21
-80.4291
  0
LINE
  8
0
 10
7.23932
 20
-80.4291
 11
7.47863
 21
-80.4581
  0
LINE
  8
0
 10
7.47863
 20
-80.4581
 11
7.92945
 21
-80.6291
  0
LINE
  8
0
 10
7.92945
 20
-80.6291
 11
8.32625
 21
-80.903
  0
LINE
  8
0
 10
8.32625
 20
-80.903
 11
8.64597
 21
-81.2639
  0
LINE
  8
0
 10
8.64597
 20
-81.2639
 11
8.87003
 21
-81.6908
  0
LINE
  8
0
 10
8.87003
 20
-81.6908
 11
8.98542
 21
-82.1589
  0
LINE
  8
0
 10
8.98542
 20
-82.1589
 11
8.98542
 21
-82.6411
  0
LINE
  8
0
 10
8.98542
 20
-82.6411
 11
8.87003
 21
-83.1092
  0
LINE
  8
0
 10
8.87003
 20
-83.1092
 11
8.64597
 21
-83.5361
  0
LINE
  8
0
 10
8.64597
 20
-83.5361
 11
8.32625
 21
-83.897
  0
LINE
  8
0
 10
8.32625
 20
-83.897
 11
7.92945
 21
-84.1709
  0
LINE
  8
0
 10
7.92945
 20
-84.1709
 11
7.47863
 21
-84.3419
  0
LINE
  8
0
 10
7.47863
 20
-84.3419
 11
7.23932
 21
-84.3709
  0
LINE
  8
0
 10
7.23932
 20
-84.3709
 11
7
 21
-84.4
  0
LINE
  8
0
 10
7
 20
-84.4
 11
6.76068
 21
-84.3709
  0
LINE
  8
0
 10
6.76068
 20
-84.3709
 11
6.52137
 21
-84.3419
  0
LINE
  8
0
 10
6.52137
 20
-84.3419
 11
6.07055
 21
-84.1709
  0
LINE
  8
0
 10
6.07055
 20
-84.1709
 11
5.67375
 21
-83.897
  0
LINE
  8
0
 10
5.67375
 20
-83.897
 11
5.35403
 21
-83.5361
  0
LINE
  8
0
 10
5.35403
 20
-83.5361
 11
5.12997
 21
-83.1092
  0
LINE
  8
0
 10
5.12997
 20
-83.1092
 11
5.01458
 21
-82.6411
  0
LINE
  8
0
 10
5.01458
 20
-28.6411
 11
5.01458
 21
-28.1589
  0
LINE
  8
0
 10
5.01458
 20
-28.1589
 11
5.12997
 21
-27.6908
  0
LINE
  8
0
 10
5.12997
 20
-27.6908
 11
5.35403
 21
-27.2639
  0
LINE
  8
0
 10
5.35403
 20
-27.2639
 11
5.67375
 21
-26.903
  0
LINE
  8
0
 10
5.67375
 20
-26.903
 11
6.07055
 21
-26.6291
  0
LINE
  8
0
 10
6.07055
 20
-26.6291
 11
6.52137
 21
-26.4581
  0
LINE
  8
0
 10
6.52137
 20
-26.4581
 11
6.76068
 21
-26.4291
  0
LINE
  8
0
 10
6.76068
 20
-26.4291
 11
7
 21
-26.4
  0
LINE
  8
0
 10
7
 20
-26.4
 11
7.23932
 21
-26.4291
  0
LINE
  8
0
 10
7.23932
 20
-26.4291
 11
7.47863
 21
-26.4581
  0
LINE
  8
0
 10
7.47863
 20
-26.4581
 11
7.92945
 21
-26.6291
  0
LINE
  8
0
 10
7.92945
 20
-26.6291
 11
8.32625
 21
-26.903
  0
LINE
  8
0
 10
8.32625
 20
-26.903
 11
8.64597
 21
-27.2639
  0
LINE
  8
0
 10
8.64597
 20
-27.2639
 11
8.87003
 21
-27.6908
  0
LINE
  8
0
 10
8.87003
 20
-27.6908
 11
8.98542
 21
-28.1589
  0
LINE
  8
0
 10
8.98542
 20
-28.1589
 11
8.98542
 21
-28.6411
  0
LINE
  8
0
 10
8.98542
 20
-28.6411
 11
8.87003
 21
-29.1092
  0
LINE
  8
0
 10
8.87003
 20
-29.1092
 11
8.64597
 21
-29.5361
  0
LINE
  8
0
 10
8.64597
 20
-29.5361
 11
8.32625
 21
-29.897
  0
LINE
  8
0
 10
8.32625
 20
-29.897
 11
7.92945
 21
-30.1709
  0
LINE
  8
0
 10
7.92945
 20
-30.1709
 11
7.47863
 21
-30.3419
  0
LINE
  8
0
 10
7.47863
 20
-30.3419
 11
7.23932
 21
-30.3709
  0
LINE
  8
0
 10
7.23932
 20
-30.3709
 11
7
 21
-30.4
  0
LINE
  8
0
 10
7
 20
-30.4
 11
6.76068
 21
-30.3709
  0
LINE
  8
0
 10
6.76068
 20
-30.3709
 11
6.52137
 21
-30.3419
  0
LINE
  8
0
 10
6.52137
 20
-30.3419
 11
6.07055
 21
-30.1709
  0
LINE
  8
0
 10
6.07055
 20
-30.1709
 11
5.67375
 21
-29.897
  0
LINE
  8
0
 10
5.67375
 20
-29.897
 11
5.35403
 21
-29.5361
  0
LINE
  8
0
 10
5.35403
 20
-29.5361
 11
5.12997
 21
-29.1092
  0
LINE
  8
0
 10
5.12997
 20
-29.1092
 11
5.01458
 21
-28.6411
  0
LINE
  8
0
 10
7.20729
 20
-146.679
 11
7.37702
 21
-146.232
  0
LINE
  8
0
 10
7.37702
 20
-146.232
 11
7.73528
 21
-145.915
  0
LINE
  8
0
 10
7.73528
 20
-145.915
 11
8.2
 21
-145.8
  0
LINE
  8
0
 10
8.2
 20
-145.8
 11
8.66472
 21
-145.915
  0
LINE
  8
0
 10
8.66472
 20
-145.915
 11
9.02298
 21
-146.232
  0
LINE
  8
0
 10
9.02298
 20
-146.232
 11
9.19271
 21
-146.679
  0
LINE
  8
0
 10
9.19271
 20
-146.679
 11
9.13502
 21
-147.155
  0
LINE
  8
0
 10
9.13502
 20
-147.155
 11
8.86312
 21
-147.549
  0
LINE
  8
0
 10
8.86312
 20
-147.549
 11
8.43931
 21
-147.771
  0
LINE
  8
0
 10
8.43931
 20
-147.771
 11
7.96068
 21
-147.771
  0
LINE
  8
0
 10
7.96068
 20
-147.771
 11
7.53688
 21
-147.549
  0
LINE
  8
0
 10
7.53688
 20
-147.549
 11
7.26498
 21
-147.155
  0
LINE
  8
0
 10
7.26498
 20
-147.155
 11
7.20729
 21
-146.679
  0
LINE
  8
0
 10
7.20729
 20
-125.859
 11
7.37702
 21
-125.412
  0
LINE
  8
0
 10
7.37702
 20
-125.412
 11
7.73528
 21
-125.095
  0
LINE
  8
0
 10
7.73528
 20
-125.095
 11
8.2
 21
-124.98
  0
LINE
  8
0
 10
8.2
 20
-124.98
 11
8.66472
 21
-125.095
  0
LINE
  8
0
 10
8.66472
 20
-125.095
 11
9.02298
 21
-125.412
  0
LINE
  8
0
 10
9.02298
 20
-125.412
 11
9.19271
 21
-125.859
  0
LINE
  8
0
 10
9.19271
 20
-125.859
 11
9.13502
 21
-126.335
  0
LINE
  8
0
 10
9.13502
 20
-126.335
 11
8.86312
 21
-126.729
  0
LINE
  8
0
 10
8.86312
 20
-126.729
 11
8.43931
 21
-126.951
  0
LINE
  8
0
 10
8.43931
 20
-126.951
 11
7.96068
 21
-126.951
  0
LINE
  8
0
 10
7.96068
 20
-126.951
 11
7.53688
 21
-126.729
  0
LINE
  8
0
 10
7.53688
 20
-126.729
 11
7.26498
 21
-126.335
  0
LINE
  8
0
 10
7.26498
 20
-126.335
 11
7.20729
 21
-125.859
  0
LINE
  8
0
 10
25.1291
 20
-8.43931
 11
25.1291
 21
-7.96068
  0
LINE
  8
0
 10
25.1291
 20
-7.96068
 11
25.3515
 21
-7.53688
  0
LINE
  8
0
 10
25.3515
 20
-7.53688
 11
25.7454
 21
-7.26498
  0
LINE
  8
0
 10
25.7454
 20
-7.26498
 11
26.2205
 21
-7.20729
  0
LINE
  8
0
 10
26.2205
 20
-7.20729
 11
26.6681
 21
-7.37702
  0
LINE
  8
0
 10
26.6681
 20
-7.37702
 11
26.9855
 21
-7.73528
  0
LINE
  8
0
 10
26.9855
 20
-7.73528
 11
27.1
 21
-8.2
  0
LINE
  8
0
 10
27.1
 20
-8.2
 11
26.9855
 21
-8.66472
  0
LINE
  8
0
 10
26.9855
 20
-8.66472
 11
26.6681
 21
-9.02298
  0
LINE
  8
0
 10
26.6681
 20
-9.02298
 11
26.2205
 21
-9.19271
  0
LINE
  8
0
 10
26.2205
 20
-9.19271
 11
25.7454
 21
-9.13502
  0
LINE
  8
0
 10
25.7454
 20
-9.13502
 11
25.3515
 21
-8.86312
  0
LINE
  8
0
 10
25.3515
 20
-8.86312
 11
25.1291
 21
-8.43931
  0
LINE
  8
0
 10
31.9291
 20
-149.739
 11
31.9291
 21
-149.261
  0
LINE
  8
0
 10
31.9291
 20
-149.261
 11
32.1515
 21
-148.837
  0
LINE
  8
0
 10
32.1515
 20
-148.837
 11
32.5454
 21
-148.565
  0
LINE
  8
0
 10
32.5454
 20
-148.565
 11
33.0205
 21
-148.507
  0
LINE
  8
0
 10
33.0205
 20
-148.507
 11
33.4681
 21
-148.677
  0
LINE
  8
0
 10
33.4681
 20
-148.677
 11
33.7855
 21
-149.035
  0
LINE
  8
0
 10
33.7855
 20
-149.035
 11
33.9
 21
-149.5
  0
LINE
  8
0
 10
33.9
 20
-149.5
 11
33.7855
 21
-149.965
  0
LINE
  8
0
 10
33.7855
 20
-149.965
 11
33.4681
 21
-150.323
  0
LINE
  8
0
 10
33.4681
 20
-150.323
 11
33.0205
 21
-150.493
  0
LINE
  8
0
 10
33.0205
 20
-150.493
 11
32.5454
 21
-150.435
  0
LINE
  8
0
 10
32.5454
 20
-150.435
 11
32.1515
 21
-150.163
  0
LINE
  8
0
 10
32.1515
 20
-150.163
 11
31.9291
 21
-149.739
  0
LINE
  8
0
 10
45.9491
 20
-8.43931
 11
45.9491
 21
-7.96068
  0
LINE
  8
0
 10
45.9491
 20
-7.96068
 11
46.1715
 21
-7.53688
  0
LINE
  8
0
 10
46.1715
 20
-7.53688
 11
46.5654
 21
-7.26498
  0
LINE
  8
0
 10
46.5654
 20
-7.26498
 11
47.0405
 21
-7.20729
  0
LINE
  8
0
 10
47.0405
 20
-7.20729
 11
47.4881
 21
-7.37702
  0
LINE
  8
0
 10
47.4881
 20
-7.37702
 11
47.8055
 21
-7.73528
  0
LINE
  8
0
 10
47.8055
 20
-7.73528
 11
47.92
 21
-8.2
  0
LINE
  8
0
 10
47.92
 20
-8.2
 11
47.8055
 21
-8.66472
  0
LINE
  8
0
 10
47.8055
 20
-8.66472
 11
47.4881
 21
-9.02298
  0
LINE
  8
0
 10
47.4881
 20
-9.02298
 11
47.0405
 21
-9.19271
  0
LINE
  8
0
 10
47.0405
 20
-9.19271
 11
46.5654
 21
-9.13502
  0
LINE
  8
0
 10
46.5654
 20
-9.13502
 11
46.1715
 21
-8.86312
  0
LINE
  8
0
 10
46.1715
 20
-8.86312
 11
45.9491
 21
-8.43931
  0
LINE
  8
0
 10
148.929
 20
-149.739
 11
148.929
 21
-149.261
  0
LINE
  8
0
 10
148.929
 20
-149.261
 11
149.151
 21
-148.837
  0
LINE
  8
0
 10
149.151
 20
-148.837
 11
149.545
 21
-148.565
  0
LINE
  8
0
 10
149.545
 20
-148.565
 11
150.021
 21
-148.507
  0
LINE
  8
0
 10
150.021
 20
-148.507
 11
150.468
 21
-148.677
  0
LINE
  8
0
 10
150.468
 20
-148.677
 11
150.785
 21
-149.035
  0
LINE
  8
0
 10
150.785
 20
-149.035
 11
150.9
 21
-149.5
  0
LINE
  8
0
 10
150.9
 20
-149.5
 11
150.785
 21
-149.965
  0
LINE
  8
0
 10
150.785
 20
-149.965
 11
150.468
 21
-150.323
  0
LINE
  8
0
 10
150.468
 20
-150.323
 11
150.021
 21
-150.493
  0
LINE
  8
0
 10
150.021
 20
-150.493
 11
149.545
 21
-150.435
  0
LINE
  8
0
 10
149.545
 20
-150.435
 11
149.151
 21
-150.163
  0
LINE
  8
0
 10
149.151
 20
-150.163
 11
148.929
 21
-149.739
  0
LINE
  8
0
 10
191.234
 20
-142.189
 11
191.234
 21
-141.711
  0
LINE
  8
0
 10
191.234
 20
-141.711
 11
191.493
 21
-141.308
  0
LINE
  8
0
 10
191.493
 20
-141.308
 11
191.929
 21
-141.109
  0
LINE
  8
0
 10
191.929
 20
-141.109
 11
192.403
 21
-141.177
  0
LINE
  8
0
 10
192.403
 20
-141.177
 11
192.765
 21
-141.49
  0
LINE
  8
0
 10
192.765
 20
-141.49
 11
192.9
 21
-141.95
  0
LINE
  8
0
 10
192.9
 20
-141.95
 11
192.765
 21
-142.41
  0
LINE
  8
0
 10
192.765
 20
-142.41
 11
192.403
 21
-142.723
  0
LINE
  8
0
 10
192.403
 20
-142.723
 11
191.929
 21
-142.791
  0
LINE
  8
0
 10
191.929
 20
-142.791
 11
191.493
 21
-142.592
  0
LINE
  8
0
 10
191.493
 20
-142.592
 11
191.234
 21
-142.189
  0
LINE
  8
0
 10
191.234
 20
-110.689
 11
191.234
 21
-110.211
  0
LINE
  8
0
 10
191.234
 20
-110.211
 11
191.493
 21
-109.808
  0
LINE
  8
0
 10
191.493
 20
-109.808
 11
191.929
 21
-109.609
  0
LINE
  8
0
 10
191.929
 20
-109.609
 11
192.403
 21
-109.677
  0
LINE
  8
0
 10
192.403
 20
-109.677
 11
192.765
 21
-109.99
  0
LINE
  8
0
 10
192.765
 20
-109.99
 11
192.9
 21
-110.45
  0
LINE
  8
0
 10
192.9
 20
-110.45
 11
192.765
 21
-110.91
  0
LINE
  8
0
 10
192.765
 20
-110.91
 11
192.403
 21
-111.223
  0
LINE
  8
0
 10
192.403
 20
-111.223
 11
191.929
 21
-111.291
  0
LINE
  8
0
 10
191.929
 20
-111.291
 11
191.493
 21
-111.092
  0
LINE
  8
0
 10
191.493
 20
-111.092
 11
191.234
 21
-110.689
  0
LINE
  8
0
 10
205.534
 20
-126.289
 11
205.534
 21
-125.811
  0
LINE
  8
0
 10
205.534
 20
-125.811
 11
205.793
 21
-125.408
  0
LINE
  8
0
 10
205.793
 20
-125.408
 11
206.229
 21
-125.209
  0
LINE
  8
0
 10
206.229
 20
-125.209
 11
206.703
 21
-125.277
  0
LINE
  8
0
 10
206.703
 20
-125.277
 11
207.065
 21
-125.59
  0
LINE
  8
0
 10
207.065
 20
-125.59
 11
207.2
 21
-126.05
  0
LINE
  8
0
 10
207.2
 20
-126.05
 11
207.065
 21
-126.51
  0
LINE
  8
0
 10
207.065
 20
-126.51
 11
206.703
 21
-126.823
  0
LINE
  8
0
 10
206.703
 20
-126.823
 11
206.229
 21
-126.891
  0
LINE
  8
0
 10
206.229
 20
-126.891
 11
205.793
 21
-126.692
  0
LINE
  8
0
 10
205.793
 20
-126.692
 11
205.534
 21
-126.289
  0
LINE
  8
0
 10
205.534
 20
-94.7895
 11
205.534
 21
-94.3105
  0
LINE
  8
0
 10
205.534
 20
-94.3105
 11
205.793
 21
-93.9076
  0
LINE
  8
0
 10
205.793
 20
-93.9076
 11
206.229
 21
-93.7087
  0
LINE
  8
0
 10
206.229
 20
-93.7087
 11
206.703
 21
-93.7768
  0
LINE
  8
0
 10
206.703
 20
-93.7768
 11
207.065
 21
-94.0905
  0
LINE
  8
0
 10
207.065
 20
-94.0905
 11
207.2
 21
-94.55
  0
LINE
  8
0
 10
207.2
 20
-94.55
 11
207.065
 21
-95.0095
  0
LINE
  8
0
 10
207.065
 20
-95.0095
 11
206.703
 21
-95.3232
  0
LINE
  8
0
 10
206.703
 20
-95.3232
 11
206.229
 21
-95.3913
  0
LINE
  8
0
 10
206.229
 20
-95.3913
 11
205.793
 21
-95.1924
  0
LINE
  8
0
 10
205.793
 20
-95.1924
 11
205.534
 21
-94.7895
  0
LINE
  8
0
 10
236.75
 20
-54.1
 11
236.845
 21
-53.6216
  0
LINE
  8
0
 10
236.845
 20
-53.6216
 11
237.116
 21
-53.2161
  0
LINE
  8
0
 10
237.116
 20
-53.2161
 11
237.522
 21
-52.9451
  0
LINE
  8
0
 10
237.522
 20
-52.9451
 11
238
 21
-52.85
  0
LINE
  8
0
 10
238
 20
-52.85
 11
238.478
 21
-52.9451
  0
LINE
  8
0
 10
238.478
 20
-52.9451
 11
238.884
 21
-53.2161
  0
LINE
  8
0
 10
238.884
 20
-53.2161
 11
239.155
 21
-53.6216
  0
LINE
  8
0
 10
239.155
 20
-53.6216
 11
239.25
 21
-54.1
  0
LINE
  8
0
 10
239.25
 20
-54.1
 11
239.155
 21
-54.5784
  0
LINE
  8
0
 10
239.155
 20
-54.5784
 11
238.884
 21
-54.9839
  0
LINE
  8
0
 10
238.884
 20
-54.9839
 11
238.478
 21
-55.2548
  0
LINE
  8
0
 10
238.478
 20
-55.2548
 11
238
 21
-55.35
  0
LINE
  8
0
 10
238
 20
-55.35
 11
237.522
 21
-55.2548
  0
LINE
  8
0
 10
237.522
 20
-55.2548
 11
237.116
 21
-54.9839
  0
LINE
  8
0
 10
237.116
 20
-54.9839
 11
236.845
 21
-54.5784
  0
LINE
  8
0
 10
236.845
 20
-54.5784
 11
236.75
 21
-54.1
  0
LINE
  8
0
 10
243.05
 20
-102.4
 11
243.145
 21
-101.922
  0
LINE
  8
0
 10
243.145
 20
-101.922
 11
243.416
 21
-101.516
  0
LINE
  8
0
 10
243.416
 20
-101.516
 11
243.822
 21
-101.245
  0
LINE
  8
0
 10
243.822
 20
-101.245
 11
244.3
 21
-101.15
  0
LINE
  8
0
 10
244.3
 20
-101.15
 11
244.778
 21
-101.245
  0
LINE
  8
0
 10
244.778
 20
-101.245
 11
245.184
 21
-101.516
  0
LINE
  8
0
 10
245.184
 20
-101.516
 11
245.455
 21
-101.922
  0
LINE
  8
0
 10
245.455
 20
-101.922
 11
245.55
 21
-102.4
  0
LINE
  8
0
 10
245.55
 20
-102.4
 11
245.455
 21
-102.878
  0
LINE
  8
0
 10
245.455
 20
-102.878
 11
245.184
 21
-103.284
  0
LINE
  8
0
 10
245.184
 20
-103.284
 11
244.778
 21
-103.555
  0
LINE
  8
0
 10
244.778
 20
-103.555
 11
244.3
 21
-103.65
  0
LINE
  8
0
 10
244.3
 20
-103.65
 11
243.822
 21
-103.555
  0
LINE
  8
0
 10
243.822
 20
-103.555
 11
243.416
 21
-103.284
  0
LINE
  8
0
 10
243.416
 20
-103.284
 11
243.145
 21
-102.878
  0
LINE
  8
0
 10
243.145
 20
-102.878
 11
243.05
 21
-102.4
  0
LINE
  8
0
 10
283.512
 20
-32.1
 11
283.626
 21
-31.6353
  0
LINE
  8
0
 10
283.626
 20
-31.6353
 11
283.944
 21
-31.277
  0
LINE
  8
0
 10
283.944
 20
-31.277
 11
284.391
 21
-31.1073
  0
LINE
  8
0
 10
284.391
 20
-31.1073
 11
284.866
 21
-31.165
  0
LINE
  8
0
 10
284.866
 20
-31.165
 11
285.26
 21
-31.4369
  0
LINE
  8
0
 10
285.26
 20
-31.4369
 11
285.483
 21
-31.8607
  0
LINE
  8
0
 10
285.483
 20
-31.8607
 11
285.483
 21
-32.3393
  0
LINE
  8
0
 10
285.483
 20
-32.3393
 11
285.26
 21
-32.7631
  0
LINE
  8
0
 10
285.26
 20
-32.7631
 11
284.866
 21
-33.035
  0
LINE
  8
0
 10
284.866
 20
-33.035
 11
284.391
 21
-33.0927
  0
LINE
  8
0
 10
284.391
 20
-33.0927
 11
283.944
 21
-32.923
  0
LINE
  8
0
 10
283.944
 20
-32.923
 11
283.626
 21
-32.5647
  0
LINE
  8
0
 10
283.626
 20
-32.5647
 11
283.512
 21
-32.1
  0
LINE
  8
0
 10
317.95
 20
-102.4
 11
318.045
 21
-101.922
  0
LINE
  8
0
 10
318.045
 20
-101.922
 11
318.316
 21
-101.516
  0
LINE
  8
0
 10
318.316
 20
-101.516
 11
318.722
 21
-101.245
  0
LINE
  8
0
 10
318.722
 20
-101.245
 11
319.2
 21
-101.15
  0
LINE
  8
0
 10
319.2
 20
-101.15
 11
319.678
 21
-101.245
  0
LINE
  8
0
 10
319.678
 20
-101.245
 11
320.084
 21
-101.516
  0
LINE
  8
0
 10
320.084
 20
-101.516
 11
320.355
 21
-101.922
  0
LINE
  8
0
 10
320.355
 20
-101.922
 11
320.45
 21
-102.4
  0
LINE
  8
0
 10
320.45
 20
-102.4
 11
320.355
 21
-102.878
  0
LINE
  8
0
 10
320.355
 20
-102.878
 11
320.084
 21
-103.284
  0
LINE
  8
0
 10
320.084
 20
-103.284
 11
319.678
 21
-103.555
  0
LINE
  8
0
 10
319.678
 20
-103.555
 11
319.2
 21
-103.65
  0
LINE
  8
0
 10
319.2
 20
-103.65
 11
318.722
 21
-103.555
  0
LINE
  8
0
 10
318.722
 20
-103.555
 11
318.316
 21
-103.284
  0
LINE
  8
0
 10
318.316
 20
-103.284
 11
318.045
 21
-102.878
  0
LINE
  8
0
 10
318.045
 20
-102.878
 11
317.95
 21
-102.4
  0
LINE
  8
0
 10
319.25
 20
-54.1
 11
319.345
 21
-53.6216
  0
LINE
  8
0
 10
319.345
 20
-53.6216
 11
319.616
 21
-53.2161
  0
LINE
  8
0
 10
319.616
 20
-53.2161
 11
320.022
 21
-52.9451
  0
LINE
  8
0
 10
320.022
 20
-52.9451
 11
320.5
 21
-52.85
  0
LINE
  8
0
 10
320.5
 20
-52.85
 11
320.978
 21
-52.9451
  0
LINE
  8
0
 10
320.978
 20
-52.9451
 11
321.384
 21
-53.2161
  0
LINE
  8
0
 10
321.384
 20
-53.2161
 11
321.655
 21
-53.6216
  0
LINE
  8
0
 10
321.655
 20
-53.6216
 11
321.75
 21
-54.1
  0
LINE
  8
0
 10
321.75
 20
-54.1
 11
321.655
 21
-54.5784
  0
LINE
  8
0
 10
321.655
 20
-54.5784
 11
321.384
 21
-54.9839
  0
LINE
  8
0
 10
321.384
 20
-54.9839
 11
320.978
 21
-55.2548
  0
LINE
  8
0
 10
320.978
 20
-55.2548
 11
320.5
 21
-55.35
  0
LINE
  8
0
 10
320.5
 20
-55.35
 11
320.022
 21
-55.2548
  0
LINE
  8
0
 10
320.022
 20
-55.2548
 11
319.616
 21
-54.9839
  0
LINE
  8
0
 10
319.616
 20
-54.9839
 11
319.345
 21
-54.5784
  0
LINE
  8
0
 10
319.345
 20
-54.5784
 11
319.25
 21
-54.1
  0
LINE
  8
0
 10
326.48
 20
-8
 11
326.521
 21
-7.50622
  0
LINE
  8
0
 10
326.521
 20
-7.50622
 11
326.643
 21
-7.0259
  0
LINE
  8
0
 10
326.643
 20
-7.0259
 11
326.842
 21
-6.57216
  0
LINE
  8
0
 10
326.842
 20
-6.57216
 11
327.113
 21
-6.15736
  0
LINE
  8
0
 10
327.113
 20
-6.15736
 11
327.448
 21
-5.79283
  0
LINE
  8
0
 10
327.448
 20
-5.79283
 11
327.839
 21
-5.4885
  0
LINE
  8
0
 10
327.839
 20
-5.4885
 11
328.275
 21
-5.25268
  0
LINE
  8
0
 10
328.275
 20
-5.25268
 11
328.744
 21
-5.0918
  0
LINE
  8
0
 10
328.744
 20
-5.0918
 11
329.232
 21
-5.01025
  0
LINE
  8
0
 10
329.232
 20
-5.01025
 11
329.728
 21
-5.01025
  0
LINE
  8
0
 10
329.728
 20
-5.01025
 11
330.216
 21
-5.0918
  0
LINE
  8
0
 10
330.216
 20
-5.0918
 11
330.685
 21
-5.25268
  0
LINE
  8
0
 10
330.685
 20
-5.25268
 11
331.121
 21
-5.4885
  0
LINE
  8
0
 10
331.121
 20
-5.4885
 11
331.512
 21
-5.79283
  0
LINE
  8
0
 10
331.512
 20
-5.79283
 11
331.847
 21
-6.15736
  0
LINE
  8
0
 10
331.847
 20
-6.15736
 11
332.118
 21
-6.57216
  0
LINE
  8
0
 10
332.118
 20
-6.57216
 11
332.317
 21
-7.0259
  0
LINE
  8
0
 10
332.317
 20
-7.0259
 11
332.439
 21
-7.50622
  0
LINE
  8
0
 10
332.439
 20
-7.50622
 11
332.48
 21
-8
  0
LINE
  8
0
 10
332.48
 20
-8
 11
332.439
 21
-8.49378
  0
LINE
  8
0
 10
332.439
 20
-8.49378
 11
332.317
 21
-8.9741
  0
LINE
  8
0
 10
332.317
 20
-8.9741
 11
332.118
 21
-9.42784
  0
LINE
  8
0
 10
332.118
 20
-9.42784
 11
331.847
 21
-9.84264
  0
LINE
  8
0
 10
331.847
 20
-9.84264
 11
331.512
 21
-10.2072
  0
LINE
  8
0
 10
331.512
 20
-10.2072
 11
331.121
 21
-10.5115
  0
LINE
  8
0
 10
331.121
 20
-10.5115
 11
330.685
 21
-10.7473
  0
LINE
  8
0
 10
330.685
 20
-10.7473
 11
330.216
 21
-10.9082
  0
LINE
  8
0
 10
330.216
 20
-10.9082
 11
329.728
 21
-10.9898
  0
LINE
  8
0
 10
329.728
 20
-10.9898
 11
329.232
 21
-10.9898
  0
LINE
  8
0
 10
329.232
 20
-10.9898
 11
328.744
 21
-10.9082
  0
LINE
  8
0
 10
328.744
 20
-10.9082
 11
328.275
 21
-10.7473
  0
LINE
  8
0
 10
328.275
 20
-10.7473
 11
327.839
 21
-10.5115
  0
LINE
  8
0
 10
327.839
 20
-10.5115
 11
327.448
 21
-10.2072
  0
LINE
  8
0
 10
327.448
 20
-10.2072
 11
327.113
 21
-9.84264
  0
LINE
  8
0
 10
327.113
 20
-9.84264
 11
326.842
 21
-9.42784
  0
LINE
  8
0
 10
326.842
 20
-9.42784
 11
326.643
 21
-8.9741
  0
LINE
  8
0
 10
326.643
 20
-8.9741
 11
326.521
 21
-8.49378
  0
LINE
  8
0
 10
326.521
 20
-8.49378
 11
326.48
 21
-8
  0
LINE
  8
0
 10
338.98
 20
-7
 11
339.038
 21
-6.52137
  0
LINE
  8
0
 10
339.038
 20
-6.52137
 11
339.209
 21
-6.07055
  0
LINE
  8
0
 10
339.209
 20
-6.07055
 11
339.483
 21
-5.67375
  0
LINE
  8
0
 10
339.483
 20
-5.67375
 11
339.844
 21
-5.35403
  0
LINE
  8
0
 10
339.844
 20
-5.35403
 11
340.271
 21
-5.12997
  0
LINE
  8
0
 10
340.271
 20
-5.12997
 11
340.739
 21
-5.01458
  0
LINE
  8
0
 10
340.739
 20
-5.01458
 11
341.221
 21
-5.01458
  0
LINE
  8
0
 10
341.221
 20
-5.01458
 11
341.689
 21
-5.12997
  0
LINE
  8
0
 10
341.689
 20
-5.12997
 11
342.116
 21
-5.35403
  0
LINE
  8
0
 10
342.116
 20
-5.35403
 11
342.477
 21
-5.67375
  0
LINE
  8
0
 10
342.477
 20
-5.67375
 11
342.751
 21
-6.07055
  0
LINE
  8
0
 10
342.751
 20
-6.07055
 11
342.922
 21
-6.52137
  0
LINE
  8
0
 10
342.922
 20
-6.52137
 11
342.98
 21
-7
  0
LINE
  8
0
 10
342.98
 20
-7
 11
342.922
 21
-7.47863
  0
LINE
  8
0
 10
342.922
 20
-7.47863
 11
342.751
 21
-7.92945
  0
LINE
  8
0
 10
342.751
 20
-7.92945
 11
342.477
 21
-8.32625
  0
LINE
  8
0
 10
342.477
 20
-8.32625
 11
342.116
 21
-8.64597
  0
LINE
  8
0
 10
342.116
 20
-8.64597
 11
341.689
 21
-8.87003
  0
LINE
  8
0
 10
341.689
 20
-8.87003
 11
341.221
 21
-8.98542
  0
LINE
  8
0
 10
341.221
 20
-8.98542
 11
340.739
 21
-8.98542
  0
LINE
  8
0
 10
340.739
 20
-8.98542
 11
340.271
 21
-8.87003
  0
LINE
  8
0
 10
340.271
 20
-8.87003
 11
339.844
 21
-8.64597
  0
LINE
  8
0
 10
339.844
 20
-8.64597
 11
339.483
 21
-8.32625
  0
LINE
  8
0
 10
339.483
 20
-8.32625
 11
339.209
 21
-7.92945
  0
LINE
  8
0
 10
339.209
 20
-7.92945
 11
339.038
 21
-7.47863
  0
LINE
  8
0
 10
339.038
 20
-7.47863
 11
338.98
 21
-7
  0
LINE
  8
0
 10
353.109
 20
-8.43931
 11
353.109
 21
-7.96068
  0
LINE
  8
0
 10
353.109
 20
-7.96068
 11
353.331
 21
-7.53688
  0
LINE
  8
0
 10
353.331
 20
-7.53688
 11
353.725
 21
-7.26498
  0
LINE
  8
0
 10
353.725
 20
-7.26498
 11
354.201
 21
-7.20729
  0
LINE
  8
0
 10
354.201
 20
-7.20729
 11
354.648
 21
-7.37702
  0
LINE
  8
0
 10
354.648
 20
-7.37702
 11
354.965
 21
-7.73528
  0
LINE
  8
0
 10
354.965
 20
-7.73528
 11
355.08
 21
-8.2
  0
LINE
  8
0
 10
355.08
 20
-8.2
 11
354.965
 21
-8.66472
  0
LINE
  8
0
 10
354.965
 20
-8.66472
 11
354.648
 21
-9.02298
  0
LINE
  8
0
 10
354.648
 20
-9.02298
 11
354.201
 21
-9.19271
  0
LINE
  8
0
 10
354.201
 20
-9.19271
 11
353.725
 21
-9.13502
  0
LINE
  8
0
 10
353.725
 20
-9.13502
 11
353.331
 21
-8.86312
  0
LINE
  8
0
 10
353.331
 20
-8.86312
 11
353.109
 21
-8.43931
  0
LINE
  8
0
 10
373.929
 20
-8.43931
 11
373.929
 21
-7.96068
  0
LINE
  8
0
 10
373.929
 20
-7.96068
 11
374.151
 21
-7.53688
  0
LINE
  8
0
 10
374.151
 20
-7.53688
 11
374.545
 21
-7.26498
  0
LINE
  8
0
 10
374.545
 20
-7.26498
 11
375.021
 21
-7.20729
  0
LINE
  8
0
 10
375.021
 20
-7.20729
 11
375.468
 21
-7.37702
  0
LINE
  8
0
 10
375.468
 20
-7.37702
 11
375.785
 21
-7.73528
  0
LINE
  8
0
 10
375.785
 20
-7.73528
 11
375.9
 21
-8.2
  0
LINE
  8
0
 10
375.9
 20
-8.2
 11
375.785
 21
-8.66472
  0
LINE
  8
0
 10
375.785
 20
-8.66472
 11
375.468
 21
-9.02298
  0
LINE
  8
0
 10
375.468
 20
-9.02298
 11
375.021
 21
-9.19271
  0
LINE
  8
0
 10
375.021
 20
-9.19271
 11
374.545
 21
-9.13502
  0
LINE
  8
0
 10
374.545
 20
-9.13502
 11
374.151
 21
-8.86312
  0
LINE
  8
0
 10
374.151
 20
-8.86312
 11
373.929
 21
-8.43931
  0
ENDSEC
  0
SECTION
  2
OBJECTS
  0
DICTIONARY
  0
ENDSEC
  0
EOF
