  0
SECTION
  2
BLOCKS
  0
ENDSEC
  0
SECTION
  2
ENTITIES
  0
LINE
  8
0
 10
-197.63
 20
2.49998
 11
-197.582
 21
2.98772
  0
LINE
  8
0
 10
-197.582
 20
2.98772
 11
-197.44
 21
3.4567
  0
LINE
  8
0
 10
-197.44
 20
3.4567
 11
-197.209
 21
3.88892
  0
LINE
  8
0
 10
-197.209
 20
3.88892
 11
-196.898
 21
4.26776
  0
LINE
  8
0
 10
-196.898
 20
4.26776
 11
-196.519
 21
4.57866
  0
LINE
  8
0
 10
-196.519
 20
4.57866
 11
-196.087
 21
4.80969
  0
LINE
  8
0
 10
-196.087
 20
4.80969
 11
-195.618
 21
4.95195
  0
LINE
  8
0
 10
-195.618
 20
4.95195
 11
-195.13
 21
4.99998
  0
LINE
  8
0
 10
-195.13
 20
4.99998
 11
-194.642
 21
4.95195
  0
LINE
  8
0
 10
-194.642
 20
4.95195
 11
-194.173
 21
4.80969
  0
LINE
  8
0
 10
-194.173
 20
4.80969
 11
-193.741
 21
4.57866
  0
LINE
  8
0
 10
-193.741
 20
4.57866
 11
-193.362
 21
4.26776
  0
LINE
  8
0
 10
-193.362
 20
4.26776
 11
-193.051
 21
3.88892
  0
LINE
  8
0
 10
-193.051
 20
3.88892
 11
-192.82
 21
3.4567
  0
LINE
  8
0
 10
-192.82
 20
3.4567
 11
-192.678
 21
2.98772
  0
LINE
  8
0
 10
-192.678
 20
2.98772
 11
-192.63
 21
2.49998
  0
LINE
  8
0
 10
-192.63
 20
2.49998
 11
-192.63
 21
0
  0
LINE
  8
0
 10
-192.63
 20
0
 11
-131.75
 21
0
  0
LINE
  8
0
 10
-131.75
 20
0
 11
-131.75
 21
278.1
  0
LINE
  8
0
 10
-131.75
 20
278.1
 11
-131.744
 21
278.1
  0
LINE
  8
0
 10
-131.744
 20
278.1
 11
-131.744
 21
278.349
  0
LINE
  8
0
 10
-131.744
 20
278.349
 11
-131.694
 21
278.845
  0
LINE
  8
0
 10
-131.694
 20
278.845
 11
-131.595
 21
279.334
  0
LINE
  8
0
 10
-131.595
 20
279.334
 11
-131.448
 21
279.81
  0
LINE
  8
0
 10
-131.448
 20
279.81
 11
-131.255
 21
280.269
  0
LINE
  8
0
 10
-131.255
 20
280.269
 11
-131.016
 21
280.707
  0
LINE
  8
0
 10
-131.016
 20
280.707
 11
-130.736
 21
281.119
  0
LINE
  8
0
 10
-130.736
 20
281.119
 11
-130.415
 21
281.501
  0
LINE
  8
0
 10
-130.415
 20
281.501
 11
-130.058
 21
281.849
  0
LINE
  8
0
 10
-130.058
 20
281.849
 11
-129.669
 21
282.16
  0
LINE
  8
0
 10
-129.669
 20
282.16
 11
-129.25
 21
282.43
  0
LINE
  8
0
 10
-129.25
 20
282.43
 11
-128.806
 21
282.658
  0
LINE
  8
0
 10
-128.806
 20
282.658
 11
-128.342
 21
282.84
  0
LINE
  8
0
 10
-128.342
 20
282.84
 11
-127.863
 21
282.975
  0
LINE
  8
0
 10
-127.863
 20
282.975
 11
-127.372
 21
283.061
  0
LINE
  8
0
 10
-127.372
 20
283.061
 11
-126.875
 21
283.098
  0
LINE
  8
0
 10
-126.875
 20
283.098
 11
-126.75
 21
283.095
  0
LINE
  8
0
 10
-126.75
 20
283.095
 11
-126.75
 21
283.1
  0
LINE
  8
0
 10
-126.75
 20
283.1
 11
113.25
 21
283.1
  0
LINE
  8
0
 10
113.25
 20
283.1
 11
113.25
 21
283.095
  0
LINE
  8
0
 10
113.25
 20
283.095
 11
113.624
 21
283.086
  0
LINE
  8
0
 10
113.624
 20
283.086
 11
114.118
 21
283.024
  0
LINE
  8
0
 10
114.118
 20
283.024
 11
114.604
 21
282.913
  0
LINE
  8
0
 10
114.604
 20
282.913
 11
115.077
 21
282.754
  0
LINE
  8
0
 10
115.077
 20
282.754
 11
115.531
 21
282.549
  0
LINE
  8
0
 10
115.531
 20
282.549
 11
115.963
 21
282.3
  0
LINE
  8
0
 10
115.963
 20
282.3
 11
116.367
 21
282.009
  0
LINE
  8
0
 10
116.367
 20
282.009
 11
116.741
 21
281.679
  0
LINE
  8
0
 10
116.741
 20
281.679
 11
117.08
 21
281.314
  0
LINE
  8
0
 10
117.08
 20
281.314
 11
117.381
 21
280.917
  0
LINE
  8
0
 10
117.381
 20
280.917
 11
117.641
 21
280.491
  0
LINE
  8
0
 10
117.641
 20
280.491
 11
117.857
 21
280.042
  0
LINE
  8
0
 10
117.857
 20
280.042
 11
118.028
 21
279.574
  0
LINE
  8
0
 10
118.028
 20
279.574
 11
118.151
 21
279.091
  0
LINE
  8
0
 10
118.151
 20
279.091
 11
118.225
 21
278.598
  0
LINE
  8
0
 10
118.225
 20
278.598
 11
118.25
 21
278.1
  0
LINE
  8
0
 10
118.25
 20
278.1
 11
118.25
 21
0
  0
LINE
  8
0
 10
118.25
 20
0
 11
236.25
 21
0
  0
LINE
  8
0
 10
236.25
 20
0
 11
236.25
 21
359
  0
LINE
  8
0
 10
236.25
 20
359
 11
236.155
 21
361.179
  0
LINE
  8
0
 10
236.155
 20
361.179
 11
235.87
 21
363.341
  0
LINE
  8
0
 10
235.87
 20
363.341
 11
235.398
 21
365.47
  0
LINE
  8
0
 10
235.398
 20
365.47
 11
234.742
 21
367.55
  0
LINE
  8
0
 10
234.742
 20
367.55
 11
233.908
 21
369.565
  0
LINE
  8
0
 10
233.908
 20
369.565
 11
232.901
 21
371.5
  0
LINE
  8
0
 10
232.901
 20
371.5
 11
231.729
 21
373.339
  0
LINE
  8
0
 10
231.729
 20
373.339
 11
230.401
 21
375.07
  0
LINE
  8
0
 10
230.401
 20
375.07
 11
228.928
 21
376.678
  0
LINE
  8
0
 10
228.928
 20
376.678
 11
227.32
 21
378.151
  0
LINE
  8
0
 10
227.32
 20
378.151
 11
225.589
 21
379.479
  0
LINE
  8
0
 10
225.589
 20
379.479
 11
223.75
 21
380.651
  0
LINE
  8
0
 10
223.75
 20
380.651
 11
221.815
 21
381.658
  0
LINE
  8
0
 10
221.815
 20
381.658
 11
219.8
 21
382.492
  0
LINE
  8
0
 10
219.8
 20
382.492
 11
217.72
 21
383.148
  0
LINE
  8
0
 10
217.72
 20
383.148
 11
215.591
 21
383.62
  0
LINE
  8
0
 10
215.591
 20
383.62
 11
213.429
 21
383.905
  0
LINE
  8
0
 10
213.429
 20
383.905
 11
211.25
 21
384
  0
LINE
  8
0
 10
211.25
 20
384
 11
-211.25
 21
384
  0
LINE
  8
0
 10
-211.25
 20
384
 11
-213.429
 21
383.905
  0
LINE
  8
0
 10
-213.429
 20
383.905
 11
-215.591
 21
383.62
  0
LINE
  8
0
 10
-215.591
 20
383.62
 11
-217.72
 21
383.148
  0
LINE
  8
0
 10
-217.72
 20
383.148
 11
-219.8
 21
382.492
  0
LINE
  8
0
 10
-219.8
 20
382.492
 11
-221.815
 21
381.658
  0
LINE
  8
0
 10
-221.815
 20
381.658
 11
-223.75
 21
380.651
  0
LINE
  8
0
 10
-223.75
 20
380.651
 11
-225.589
 21
379.479
  0
LINE
  8
0
 10
-225.589
 20
379.479
 11
-227.32
 21
378.151
  0
LINE
  8
0
 10
-227.32
 20
378.151
 11
-228.928
 21
376.678
  0
LINE
  8
0
 10
-228.928
 20
376.678
 11
-230.401
 21
375.07
  0
LINE
  8
0
 10
-230.401
 20
375.07
 11
-231.729
 21
373.339
  0
LINE
  8
0
 10
-231.729
 20
373.339
 11
-232.901
 21
371.5
  0
LINE
  8
0
 10
-232.901
 20
371.5
 11
-233.908
 21
369.565
  0
LINE
  8
0
 10
-233.908
 20
369.565
 11
-234.742
 21
367.55
  0
LINE
  8
0
 10
-234.742
 20
367.55
 11
-235.398
 21
365.47
  0
LINE
  8
0
 10
-235.398
 20
365.47
 11
-235.87
 21
363.341
  0
LINE
  8
0
 10
-235.87
 20
363.341
 11
-236.155
 21
361.179
  0
LINE
  8
0
 10
-236.155
 20
361.179
 11
-236.25
 21
359
  0
LINE
  8
0
 10
-236.25
 20
359
 11
-236.25
 21
0
  0
LINE
  8
0
 10
-236.25
 20
0
 11
-197.63
 21
0
  0
LINE
  8
0
 10
-197.63
 20
0
 11
-197.63
 21
2.49998
  0
LINE
  8
0
 10
-164.69
 20
374.355
 11
-165.155
 21
374.518
  0
LINE
  8
0
 10
-165.155
 20
374.518
 11
-165.572
 21
374.78
  0
LINE
  8
0
 10
-165.572
 20
374.78
 11
-165.92
 21
375.128
  0
LINE
  8
0
 10
-165.92
 20
375.128
 11
-166.182
 21
375.545
  0
LINE
  8
0
 10
-166.182
 20
375.545
 11
-166.345
 21
376.01
  0
LINE
  8
0
 10
-166.345
 20
376.01
 11
-166.4
 21
376.5
  0
LINE
  8
0
 10
-166.4
 20
376.5
 11
-166.345
 21
376.99
  0
LINE
  8
0
 10
-166.345
 20
376.99
 11
-166.182
 21
377.455
  0
LINE
  8
0
 10
-166.182
 20
377.455
 11
-165.92
 21
377.872
  0
LINE
  8
0
 10
-165.92
 20
377.872
 11
-165.572
 21
378.22
  0
LINE
  8
0
 10
-165.572
 20
378.22
 11
-165.155
 21
378.482
  0
LINE
  8
0
 10
-165.155
 20
378.482
 11
-164.69
 21
378.645
  0
LINE
  8
0
 10
-164.69
 20
378.645
 11
-164.2
 21
378.7
  0
LINE
  8
0
 10
-164.2
 20
378.7
 11
-163.71
 21
378.645
  0
LINE
  8
0
 10
-163.71
 20
378.645
 11
-163.245
 21
378.482
  0
LINE
  8
0
 10
-163.245
 20
378.482
 11
-162.828
 21
378.22
  0
LINE
  8
0
 10
-162.828
 20
378.22
 11
-162.48
 21
377.872
  0
LINE
  8
0
 10
-162.48
 20
377.872
 11
-162.218
 21
377.455
  0
LINE
  8
0
 10
-162.218
 20
377.455
 11
-162.055
 21
376.99
  0
LINE
  8
0
 10
-162.055
 20
376.99
 11
-162
 21
376.5
  0
LINE
  8
0
 10
-162
 20
376.5
 11
-162.055
 21
376.01
  0
LINE
  8
0
 10
-162.055
 20
376.01
 11
-162.218
 21
375.545
  0
LINE
  8
0
 10
-162.218
 20
375.545
 11
-162.48
 21
375.128
  0
LINE
  8
0
 10
-162.48
 20
375.128
 11
-162.828
 21
374.78
  0
LINE
  8
0
 10
-162.828
 20
374.78
 11
-163.245
 21
374.518
  0
LINE
  8
0
 10
-163.245
 20
374.518
 11
-163.71
 21
374.355
  0
LINE
  8
0
 10
-163.71
 20
374.355
 11
-164.2
 21
374.3
  0
LINE
  8
0
 10
-164.2
 20
374.3
 11
-164.69
 21
374.355
  0
LINE
  8
0
 10
158.31
 20
374.355
 11
157.845
 21
374.518
  0
LINE
  8
0
 10
157.845
 20
374.518
 11
157.428
 21
374.78
  0
LINE
  8
0
 10
157.428
 20
374.78
 11
157.08
 21
375.128
  0
LINE
  8
0
 10
157.08
 20
375.128
 11
156.818
 21
375.545
  0
LINE
  8
0
 10
156.818
 20
375.545
 11
156.655
 21
376.01
  0
LINE
  8
0
 10
156.655
 20
376.01
 11
156.6
 21
376.5
  0
LINE
  8
0
 10
156.6
 20
376.5
 11
156.655
 21
376.99
  0
LINE
  8
0
 10
156.655
 20
376.99
 11
156.818
 21
377.455
  0
LINE
  8
0
 10
156.818
 20
377.455
 11
157.08
 21
377.872
  0
LINE
  8
0
 10
157.08
 20
377.872
 11
157.428
 21
378.22
  0
LINE
  8
0
 10
157.428
 20
378.22
 11
157.845
 21
378.482
  0
LINE
  8
0
 10
157.845
 20
378.482
 11
158.31
 21
378.645
  0
LINE
  8
0
 10
158.31
 20
378.645
 11
158.8
 21
378.7
  0
LINE
  8
0
 10
158.8
 20
378.7
 11
159.29
 21
378.645
  0
LINE
  8
0
 10
159.29
 20
378.645
 11
159.755
 21
378.482
  0
LINE
  8
0
 10
159.755
 20
378.482
 11
160.172
 21
378.22
  0
LINE
  8
0
 10
160.172
 20
378.22
 11
160.52
 21
377.872
  0
LINE
  8
0
 10
160.52
 20
377.872
 11
160.782
 21
377.455
  0
LINE
  8
0
 10
160.782
 20
377.455
 11
160.945
 21
376.99
  0
LINE
  8
0
 10
160.945
 20
376.99
 11
161
 21
376.5
  0
LINE
  8
0
 10
161
 20
376.5
 11
160.945
 21
376.01
  0
LINE
  8
0
 10
160.945
 20
376.01
 11
160.782
 21
375.545
  0
LINE
  8
0
 10
160.782
 20
375.545
 11
160.52
 21
375.128
  0
LINE
  8
0
 10
160.52
 20
375.128
 11
160.172
 21
374.78
  0
LINE
  8
0
 10
160.172
 20
374.78
 11
159.755
 21
374.518
  0
LINE
  8
0
 10
159.755
 20
374.518
 11
159.29
 21
374.355
  0
LINE
  8
0
 10
159.29
 20
374.355
 11
158.8
 21
374.3
  0
LINE
  8
0
 10
158.8
 20
374.3
 11
158.31
 21
374.355
  0
LINE
  8
0
 10
-196.79
 20
374.355
 11
-197.255
 21
374.518
  0
LINE
  8
0
 10
-197.255
 20
374.518
 11
-197.672
 21
374.78
  0
LINE
  8
0
 10
-197.672
 20
374.78
 11
-198.02
 21
375.128
  0
LINE
  8
0
 10
-198.02
 20
375.128
 11
-198.282
 21
375.545
  0
LINE
  8
0
 10
-198.282
 20
375.545
 11
-198.445
 21
376.01
  0
LINE
  8
0
 10
-198.445
 20
376.01
 11
-198.5
 21
376.5
  0
LINE
  8
0
 10
-198.5
 20
376.5
 11
-198.445
 21
376.99
  0
LINE
  8
0
 10
-198.445
 20
376.99
 11
-198.282
 21
377.455
  0
LINE
  8
0
 10
-198.282
 20
377.455
 11
-198.02
 21
377.872
  0
LINE
  8
0
 10
-198.02
 20
377.872
 11
-197.672
 21
378.22
  0
LINE
  8
0
 10
-197.672
 20
378.22
 11
-197.255
 21
378.482
  0
LINE
  8
0
 10
-197.255
 20
378.482
 11
-196.79
 21
378.645
  0
LINE
  8
0
 10
-196.79
 20
378.645
 11
-196.3
 21
378.7
  0
LINE
  8
0
 10
-196.3
 20
378.7
 11
-195.81
 21
378.645
  0
LINE
  8
0
 10
-195.81
 20
378.645
 11
-195.345
 21
378.482
  0
LINE
  8
0
 10
-195.345
 20
378.482
 11
-194.928
 21
378.22
  0
LINE
  8
0
 10
-194.928
 20
378.22
 11
-194.58
 21
377.872
  0
LINE
  8
0
 10
-194.58
 20
377.872
 11
-194.318
 21
377.455
  0
LINE
  8
0
 10
-194.318
 20
377.455
 11
-194.155
 21
376.99
  0
LINE
  8
0
 10
-194.155
 20
376.99
 11
-194.1
 21
376.5
  0
LINE
  8
0
 10
-194.1
 20
376.5
 11
-194.155
 21
376.01
  0
LINE
  8
0
 10
-194.155
 20
376.01
 11
-194.318
 21
375.545
  0
LINE
  8
0
 10
-194.318
 20
375.545
 11
-194.58
 21
375.128
  0
LINE
  8
0
 10
-194.58
 20
375.128
 11
-194.928
 21
374.78
  0
LINE
  8
0
 10
-194.928
 20
374.78
 11
-195.345
 21
374.518
  0
LINE
  8
0
 10
-195.345
 20
374.518
 11
-195.81
 21
374.355
  0
LINE
  8
0
 10
-195.81
 20
374.355
 11
-196.3
 21
374.3
  0
LINE
  8
0
 10
-196.3
 20
374.3
 11
-196.79
 21
374.355
  0
LINE
  8
0
 10
126.21
 20
374.355
 11
125.745
 21
374.518
  0
LINE
  8
0
 10
125.745
 20
374.518
 11
125.328
 21
374.78
  0
LINE
  8
0
 10
125.328
 20
374.78
 11
124.98
 21
375.128
  0
LINE
  8
0
 10
124.98
 20
375.128
 11
124.718
 21
375.545
  0
LINE
  8
0
 10
124.718
 20
375.545
 11
124.555
 21
376.01
  0
LINE
  8
0
 10
124.555
 20
376.01
 11
124.5
 21
376.5
  0
LINE
  8
0
 10
124.5
 20
376.5
 11
124.555
 21
376.99
  0
LINE
  8
0
 10
124.555
 20
376.99
 11
124.718
 21
377.455
  0
LINE
  8
0
 10
124.718
 20
377.455
 11
124.98
 21
377.872
  0
LINE
  8
0
 10
124.98
 20
377.872
 11
125.328
 21
378.22
  0
LINE
  8
0
 10
125.328
 20
378.22
 11
125.745
 21
378.482
  0
LINE
  8
0
 10
125.745
 20
378.482
 11
126.21
 21
378.645
  0
LINE
  8
0
 10
126.21
 20
378.645
 11
126.7
 21
378.7
  0
LINE
  8
0
 10
126.7
 20
378.7
 11
127.19
 21
378.645
  0
LINE
  8
0
 10
127.19
 20
378.645
 11
127.655
 21
378.482
  0
LINE
  8
0
 10
127.655
 20
378.482
 11
128.072
 21
378.22
  0
LINE
  8
0
 10
128.072
 20
378.22
 11
128.42
 21
377.872
  0
LINE
  8
0
 10
128.42
 20
377.872
 11
128.682
 21
377.455
  0
LINE
  8
0
 10
128.682
 20
377.455
 11
128.845
 21
376.99
  0
LINE
  8
0
 10
128.845
 20
376.99
 11
128.9
 21
376.5
  0
LINE
  8
0
 10
128.9
 20
376.5
 11
128.845
 21
376.01
  0
LINE
  8
0
 10
128.845
 20
376.01
 11
128.682
 21
375.545
  0
LINE
  8
0
 10
128.682
 20
375.545
 11
128.42
 21
375.128
  0
LINE
  8
0
 10
128.42
 20
375.128
 11
128.072
 21
374.78
  0
LINE
  8
0
 10
128.072
 20
374.78
 11
127.655
 21
374.518
  0
LINE
  8
0
 10
127.655
 20
374.518
 11
127.19
 21
374.355
  0
LINE
  8
0
 10
127.19
 20
374.355
 11
126.7
 21
374.3
  0
LINE
  8
0
 10
126.7
 20
374.3
 11
126.21
 21
374.355
  0
LINE
  8
0
 10
-197.991
 20
365.015
 11
-198.459
 21
365.13
  0
LINE
  8
0
 10
-198.459
 20
365.13
 11
-198.886
 21
365.354
  0
LINE
  8
0
 10
-198.886
 20
365.354
 11
-199.247
 21
365.674
  0
LINE
  8
0
 10
-199.247
 20
365.674
 11
-199.521
 21
366.071
  0
LINE
  8
0
 10
-199.521
 20
366.071
 11
-199.692
 21
366.521
  0
LINE
  8
0
 10
-199.692
 20
366.521
 11
-199.75
 21
367
  0
LINE
  8
0
 10
-199.75
 20
367
 11
-199.692
 21
367.479
  0
LINE
  8
0
 10
-199.692
 20
367.479
 11
-199.521
 21
367.929
  0
LINE
  8
0
 10
-199.521
 20
367.929
 11
-199.247
 21
368.326
  0
LINE
  8
0
 10
-199.247
 20
368.326
 11
-198.886
 21
368.646
  0
LINE
  8
0
 10
-198.886
 20
368.646
 11
-198.459
 21
368.87
  0
LINE
  8
0
 10
-198.459
 20
368.87
 11
-197.991
 21
368.985
  0
LINE
  8
0
 10
-197.991
 20
368.985
 11
-197.509
 21
368.985
  0
LINE
  8
0
 10
-197.509
 20
368.985
 11
-197.041
 21
368.87
  0
LINE
  8
0
 10
-197.041
 20
368.87
 11
-196.614
 21
368.646
  0
LINE
  8
0
 10
-196.614
 20
368.646
 11
-196.253
 21
368.326
  0
LINE
  8
0
 10
-196.253
 20
368.326
 11
-195.979
 21
367.929
  0
LINE
  8
0
 10
-195.979
 20
367.929
 11
-195.808
 21
367.479
  0
LINE
  8
0
 10
-195.808
 20
367.479
 11
-195.75
 21
367
  0
LINE
  8
0
 10
-195.75
 20
367
 11
-195.808
 21
366.521
  0
LINE
  8
0
 10
-195.808
 20
366.521
 11
-195.979
 21
366.071
  0
LINE
  8
0
 10
-195.979
 20
366.071
 11
-196.253
 21
365.674
  0
LINE
  8
0
 10
-196.253
 20
365.674
 11
-196.614
 21
365.354
  0
LINE
  8
0
 10
-196.614
 20
365.354
 11
-197.041
 21
365.13
  0
LINE
  8
0
 10
-197.041
 20
365.13
 11
-197.509
 21
365.015
  0
LINE
  8
0
 10
-197.509
 20
365.015
 11
-197.991
 21
365.015
  0
LINE
  8
0
 10
190.05
 20
362.75
 11
189.572
 21
362.845
  0
LINE
  8
0
 10
189.572
 20
362.845
 11
189.166
 21
363.116
  0
LINE
  8
0
 10
189.166
 20
363.116
 11
188.895
 21
363.522
  0
LINE
  8
0
 10
188.895
 20
363.522
 11
188.8
 21
364
  0
LINE
  8
0
 10
188.8
 20
364
 11
188.895
 21
364.478
  0
LINE
  8
0
 10
188.895
 20
364.478
 11
189.166
 21
364.884
  0
LINE
  8
0
 10
189.166
 20
364.884
 11
189.572
 21
365.155
  0
LINE
  8
0
 10
189.572
 20
365.155
 11
190.05
 21
365.25
  0
LINE
  8
0
 10
190.05
 20
365.25
 11
217.45
 21
365.25
  0
LINE
  8
0
 10
217.45
 20
365.25
 11
217.928
 21
365.155
  0
LINE
  8
0
 10
217.928
 20
365.155
 11
218.334
 21
364.884
  0
LINE
  8
0
 10
218.334
 20
364.884
 11
218.605
 21
364.478
  0
LINE
  8
0
 10
218.605
 20
364.478
 11
218.7
 21
364
  0
LINE
  8
0
 10
218.7
 20
364
 11
218.605
 21
363.522
  0
LINE
  8
0
 10
218.605
 20
363.522
 11
218.334
 21
363.116
  0
LINE
  8
0
 10
218.334
 20
363.116
 11
217.928
 21
362.845
  0
LINE
  8
0
 10
217.928
 20
362.845
 11
217.45
 21
362.75
  0
LINE
  8
0
 10
217.45
 20
362.75
 11
190.05
 21
362.75
  0
LINE
  8
0
 10
185.86
 20
351.005
 11
185.395
 21
351.168
  0
LINE
  8
0
 10
185.395
 20
351.168
 11
184.978
 21
351.43
  0
LINE
  8
0
 10
184.978
 20
351.43
 11
184.63
 21
351.778
  0
LINE
  8
0
 10
184.63
 20
351.778
 11
184.368
 21
352.195
  0
LINE
  8
0
 10
184.368
 20
352.195
 11
184.205
 21
352.66
  0
LINE
  8
0
 10
184.205
 20
352.66
 11
184.15
 21
353.15
  0
LINE
  8
0
 10
184.15
 20
353.15
 11
184.205
 21
353.64
  0
LINE
  8
0
 10
184.205
 20
353.64
 11
184.368
 21
354.105
  0
LINE
  8
0
 10
184.368
 20
354.105
 11
184.63
 21
354.522
  0
LINE
  8
0
 10
184.63
 20
354.522
 11
184.978
 21
354.87
  0
LINE
  8
0
 10
184.978
 20
354.87
 11
185.395
 21
355.132
  0
LINE
  8
0
 10
185.395
 20
355.132
 11
185.86
 21
355.295
  0
LINE
  8
0
 10
185.86
 20
355.295
 11
186.35
 21
355.35
  0
LINE
  8
0
 10
186.35
 20
355.35
 11
186.84
 21
355.295
  0
LINE
  8
0
 10
186.84
 20
355.295
 11
187.305
 21
355.132
  0
LINE
  8
0
 10
187.305
 20
355.132
 11
187.722
 21
354.87
  0
LINE
  8
0
 10
187.722
 20
354.87
 11
188.07
 21
354.522
  0
LINE
  8
0
 10
188.07
 20
354.522
 11
188.332
 21
354.105
  0
LINE
  8
0
 10
188.332
 20
354.105
 11
188.495
 21
353.64
  0
LINE
  8
0
 10
188.495
 20
353.64
 11
188.55
 21
353.15
  0
LINE
  8
0
 10
188.55
 20
353.15
 11
188.495
 21
352.66
  0
LINE
  8
0
 10
188.495
 20
352.66
 11
188.332
 21
352.195
  0
LINE
  8
0
 10
188.332
 20
352.195
 11
188.07
 21
351.778
  0
LINE
  8
0
 10
188.07
 20
351.778
 11
187.722
 21
351.43
  0
LINE
  8
0
 10
187.722
 20
351.43
 11
187.305
 21
351.168
  0
LINE
  8
0
 10
187.305
 20
351.168
 11
186.84
 21
351.005
  0
LINE
  8
0
 10
186.84
 20
351.005
 11
186.35
 21
350.95
  0
LINE
  8
0
 10
186.35
 20
350.95
 11
185.86
 21
351.005
  0
LINE
  8
0
 10
220.66
 20
351.005
 11
220.195
 21
351.168
  0
LINE
  8
0
 10
220.195
 20
351.168
 11
219.778
 21
351.43
  0
LINE
  8
0
 10
219.778
 20
351.43
 11
219.43
 21
351.778
  0
LINE
  8
0
 10
219.43
 20
351.778
 11
219.168
 21
352.195
  0
LINE
  8
0
 10
219.168
 20
352.195
 11
219.005
 21
352.66
  0
LINE
  8
0
 10
219.005
 20
352.66
 11
218.95
 21
353.15
  0
LINE
  8
0
 10
218.95
 20
353.15
 11
219.005
 21
353.64
  0
LINE
  8
0
 10
219.005
 20
353.64
 11
219.168
 21
354.105
  0
LINE
  8
0
 10
219.168
 20
354.105
 11
219.43
 21
354.522
  0
LINE
  8
0
 10
219.43
 20
354.522
 11
219.778
 21
354.87
  0
LINE
  8
0
 10
219.778
 20
354.87
 11
220.195
 21
355.132
  0
LINE
  8
0
 10
220.195
 20
355.132
 11
220.66
 21
355.295
  0
LINE
  8
0
 10
220.66
 20
355.295
 11
221.15
 21
355.35
  0
LINE
  8
0
 10
221.15
 20
355.35
 11
221.64
 21
355.295
  0
LINE
  8
0
 10
221.64
 20
355.295
 11
222.105
 21
355.132
  0
LINE
  8
0
 10
222.105
 20
355.132
 11
222.522
 21
354.87
  0
LINE
  8
0
 10
222.522
 20
354.87
 11
222.87
 21
354.522
  0
LINE
  8
0
 10
222.87
 20
354.522
 11
223.132
 21
354.105
  0
LINE
  8
0
 10
223.132
 20
354.105
 11
223.295
 21
353.64
  0
LINE
  8
0
 10
223.295
 20
353.64
 11
223.35
 21
353.15
  0
LINE
  8
0
 10
223.35
 20
353.15
 11
223.295
 21
352.66
  0
LINE
  8
0
 10
223.295
 20
352.66
 11
223.132
 21
352.195
  0
LINE
  8
0
 10
223.132
 20
352.195
 11
222.87
 21
351.778
  0
LINE
  8
0
 10
222.87
 20
351.778
 11
222.522
 21
351.43
  0
LINE
  8
0
 10
222.522
 20
351.43
 11
222.105
 21
351.168
  0
LINE
  8
0
 10
222.105
 20
351.168
 11
221.64
 21
351.005
  0
LINE
  8
0
 10
221.64
 20
351.005
 11
221.15
 21
350.95
  0
LINE
  8
0
 10
221.15
 20
350.95
 11
220.66
 21
351.005
  0
LINE
  8
0
 10
129.01
 20
348.145
 11
128.545
 21
348.308
  0
LINE
  8
0
 10
128.545
 20
348.308
 11
128.128
 21
348.57
  0
LINE
  8
0
 10
128.128
 20
348.57
 11
127.78
 21
348.918
  0
LINE
  8
0
 10
127.78
 20
348.918
 11
127.518
 21
349.335
  0
LINE
  8
0
 10
127.518
 20
349.335
 11
127.355
 21
349.8
  0
LINE
  8
0
 10
127.355
 20
349.8
 11
127.3
 21
350.29
  0
LINE
  8
0
 10
127.3
 20
350.29
 11
127.355
 21
350.78
  0
LINE
  8
0
 10
127.355
 20
350.78
 11
127.518
 21
351.245
  0
LINE
  8
0
 10
127.518
 20
351.245
 11
127.78
 21
351.662
  0
LINE
  8
0
 10
127.78
 20
351.662
 11
128.128
 21
352.01
  0
LINE
  8
0
 10
128.128
 20
352.01
 11
128.545
 21
352.272
  0
LINE
  8
0
 10
128.545
 20
352.272
 11
129.01
 21
352.435
  0
LINE
  8
0
 10
129.01
 20
352.435
 11
129.5
 21
352.49
  0
LINE
  8
0
 10
129.5
 20
352.49
 11
129.99
 21
352.435
  0
LINE
  8
0
 10
129.99
 20
352.435
 11
130.455
 21
352.272
  0
LINE
  8
0
 10
130.455
 20
352.272
 11
130.872
 21
352.01
  0
LINE
  8
0
 10
130.872
 20
352.01
 11
131.22
 21
351.662
  0
LINE
  8
0
 10
131.22
 20
351.662
 11
131.482
 21
351.245
  0
LINE
  8
0
 10
131.482
 20
351.245
 11
131.645
 21
350.78
  0
LINE
  8
0
 10
131.645
 20
350.78
 11
131.7
 21
350.29
  0
LINE
  8
0
 10
131.7
 20
350.29
 11
131.645
 21
349.8
  0
LINE
  8
0
 10
131.645
 20
349.8
 11
131.482
 21
349.335
  0
LINE
  8
0
 10
131.482
 20
349.335
 11
131.22
 21
348.918
  0
LINE
  8
0
 10
131.22
 20
348.918
 11
130.872
 21
348.57
  0
LINE
  8
0
 10
130.872
 20
348.57
 11
130.455
 21
348.308
  0
LINE
  8
0
 10
130.455
 20
348.308
 11
129.99
 21
348.145
  0
LINE
  8
0
 10
129.99
 20
348.145
 11
129.5
 21
348.09
  0
LINE
  8
0
 10
129.5
 20
348.09
 11
129.01
 21
348.145
  0
LINE
  8
0
 10
-174.04
 20
348.145
 11
-174.505
 21
348.308
  0
LINE
  8
0
 10
-174.505
 20
348.308
 11
-174.922
 21
348.57
  0
LINE
  8
0
 10
-174.922
 20
348.57
 11
-175.27
 21
348.918
  0
LINE
  8
0
 10
-175.27
 20
348.918
 11
-175.532
 21
349.335
  0
LINE
  8
0
 10
-175.532
 20
349.335
 11
-175.695
 21
349.8
  0
LINE
  8
0
 10
-175.695
 20
349.8
 11
-175.75
 21
350.29
  0
LINE
  8
0
 10
-175.75
 20
350.29
 11
-175.695
 21
350.78
  0
LINE
  8
0
 10
-175.695
 20
350.78
 11
-175.532
 21
351.245
  0
LINE
  8
0
 10
-175.532
 20
351.245
 11
-175.27
 21
351.662
  0
LINE
  8
0
 10
-175.27
 20
351.662
 11
-174.922
 21
352.01
  0
LINE
  8
0
 10
-174.922
 20
352.01
 11
-174.505
 21
352.272
  0
LINE
  8
0
 10
-174.505
 20
352.272
 11
-174.04
 21
352.435
  0
LINE
  8
0
 10
-174.04
 20
352.435
 11
-173.55
 21
352.49
  0
LINE
  8
0
 10
-173.55
 20
352.49
 11
-173.06
 21
352.435
  0
LINE
  8
0
 10
-173.06
 20
352.435
 11
-172.595
 21
352.272
  0
LINE
  8
0
 10
-172.595
 20
352.272
 11
-172.178
 21
352.01
  0
LINE
  8
0
 10
-172.178
 20
352.01
 11
-171.83
 21
351.662
  0
LINE
  8
0
 10
-171.83
 20
351.662
 11
-171.568
 21
351.245
  0
LINE
  8
0
 10
-171.568
 20
351.245
 11
-171.405
 21
350.78
  0
LINE
  8
0
 10
-171.405
 20
350.78
 11
-171.35
 21
350.29
  0
LINE
  8
0
 10
-171.35
 20
350.29
 11
-171.405
 21
349.8
  0
LINE
  8
0
 10
-171.405
 20
349.8
 11
-171.568
 21
349.335
  0
LINE
  8
0
 10
-171.568
 20
349.335
 11
-171.83
 21
348.918
  0
LINE
  8
0
 10
-171.83
 20
348.918
 11
-172.178
 21
348.57
  0
LINE
  8
0
 10
-172.178
 20
348.57
 11
-172.595
 21
348.308
  0
LINE
  8
0
 10
-172.595
 20
348.308
 11
-173.06
 21
348.145
  0
LINE
  8
0
 10
-173.06
 20
348.145
 11
-173.55
 21
348.09
  0
LINE
  8
0
 10
-173.55
 20
348.09
 11
-174.04
 21
348.145
  0
LINE
  8
0
 10
-170.237
 20
329.061
 11
-170.671
 21
329.296
  0
LINE
  8
0
 10
-170.671
 20
329.296
 11
-171.006
 21
329.66
  0
LINE
  8
0
 10
-171.006
 20
329.66
 11
-171.204
 21
330.112
  0
LINE
  8
0
 10
-171.204
 20
330.112
 11
-171.245
 21
330.604
  0
LINE
  8
0
 10
-171.245
 20
330.604
 11
-171.124
 21
331.083
  0
LINE
  8
0
 10
-171.124
 20
331.083
 11
-170.854
 21
331.496
  0
LINE
  8
0
 10
-170.854
 20
331.496
 11
-170.464
 21
331.799
  0
LINE
  8
0
 10
-170.464
 20
331.799
 11
-169.997
 21
331.96
  0
LINE
  8
0
 10
-169.997
 20
331.96
 11
-169.503
 21
331.96
  0
LINE
  8
0
 10
-169.503
 20
331.96
 11
-169.036
 21
331.799
  0
LINE
  8
0
 10
-169.036
 20
331.799
 11
-168.646
 21
331.496
  0
LINE
  8
0
 10
-168.646
 20
331.496
 11
-168.376
 21
331.083
  0
LINE
  8
0
 10
-168.376
 20
331.083
 11
-168.255
 21
330.604
  0
LINE
  8
0
 10
-168.255
 20
330.604
 11
-168.296
 21
330.112
  0
LINE
  8
0
 10
-168.296
 20
330.112
 11
-168.494
 21
329.66
  0
LINE
  8
0
 10
-168.494
 20
329.66
 11
-168.829
 21
329.296
  0
LINE
  8
0
 10
-168.829
 20
329.296
 11
-169.263
 21
329.061
  0
LINE
  8
0
 10
-169.263
 20
329.061
 11
-169.75
 21
328.98
  0
LINE
  8
0
 10
-169.75
 20
328.98
 11
-170.237
 21
329.061
  0
LINE
  8
0
 10
120.213
 20
329.061
 11
119.779
 21
329.296
  0
LINE
  8
0
 10
119.779
 20
329.296
 11
119.444
 21
329.66
  0
LINE
  8
0
 10
119.444
 20
329.66
 11
119.246
 21
330.112
  0
LINE
  8
0
 10
119.246
 20
330.112
 11
119.205
 21
330.604
  0
LINE
  8
0
 10
119.205
 20
330.604
 11
119.326
 21
331.083
  0
LINE
  8
0
 10
119.326
 20
331.083
 11
119.596
 21
331.496
  0
LINE
  8
0
 10
119.596
 20
331.496
 11
119.986
 21
331.799
  0
LINE
  8
0
 10
119.986
 20
331.799
 11
120.453
 21
331.96
  0
LINE
  8
0
 10
120.453
 20
331.96
 11
120.947
 21
331.96
  0
LINE
  8
0
 10
120.947
 20
331.96
 11
121.414
 21
331.799
  0
LINE
  8
0
 10
121.414
 20
331.799
 11
121.804
 21
331.496
  0
LINE
  8
0
 10
121.804
 20
331.496
 11
122.074
 21
331.083
  0
LINE
  8
0
 10
122.074
 20
331.083
 11
122.195
 21
330.604
  0
LINE
  8
0
 10
122.195
 20
330.604
 11
122.154
 21
330.112
  0
LINE
  8
0
 10
122.154
 20
330.112
 11
121.956
 21
329.66
  0
LINE
  8
0
 10
121.956
 20
329.66
 11
121.621
 21
329.296
  0
LINE
  8
0
 10
121.621
 20
329.296
 11
121.187
 21
329.061
  0
LINE
  8
0
 10
121.187
 20
329.061
 11
120.7
 21
328.98
  0
LINE
  8
0
 10
120.7
 20
328.98
 11
120.213
 21
329.061
  0
LINE
  8
0
 10
120.213
 20
323.261
 11
119.779
 21
323.496
  0
LINE
  8
0
 10
119.779
 20
323.496
 11
119.444
 21
323.86
  0
LINE
  8
0
 10
119.444
 20
323.86
 11
119.246
 21
324.312
  0
LINE
  8
0
 10
119.246
 20
324.312
 11
119.205
 21
324.804
  0
LINE
  8
0
 10
119.205
 20
324.804
 11
119.326
 21
325.283
  0
LINE
  8
0
 10
119.326
 20
325.283
 11
119.596
 21
325.696
  0
LINE
  8
0
 10
119.596
 20
325.696
 11
119.986
 21
325.999
  0
LINE
  8
0
 10
119.986
 20
325.999
 11
120.453
 21
326.16
  0
LINE
  8
0
 10
120.453
 20
326.16
 11
120.947
 21
326.16
  0
LINE
  8
0
 10
120.947
 20
326.16
 11
121.414
 21
325.999
  0
LINE
  8
0
 10
121.414
 20
325.999
 11
121.804
 21
325.696
  0
LINE
  8
0
 10
121.804
 20
325.696
 11
122.074
 21
325.283
  0
LINE
  8
0
 10
122.074
 20
325.283
 11
122.195
 21
324.804
  0
LINE
  8
0
 10
122.195
 20
324.804
 11
122.154
 21
324.312
  0
LINE
  8
0
 10
122.154
 20
324.312
 11
121.956
 21
323.86
  0
LINE
  8
0
 10
121.956
 20
323.86
 11
121.621
 21
323.496
  0
LINE
  8
0
 10
121.621
 20
323.496
 11
121.187
 21
323.261
  0
LINE
  8
0
 10
121.187
 20
323.261
 11
120.7
 21
323.18
  0
LINE
  8
0
 10
120.7
 20
323.18
 11
120.213
 21
323.261
  0
LINE
  8
0
 10
-170.237
 20
323.261
 11
-170.671
 21
323.496
  0
LINE
  8
0
 10
-170.671
 20
323.496
 11
-171.006
 21
323.86
  0
LINE
  8
0
 10
-171.006
 20
323.86
 11
-171.204
 21
324.312
  0
LINE
  8
0
 10
-171.204
 20
324.312
 11
-171.245
 21
324.804
  0
LINE
  8
0
 10
-171.245
 20
324.804
 11
-171.124
 21
325.283
  0
LINE
  8
0
 10
-171.124
 20
325.283
 11
-170.854
 21
325.696
  0
LINE
  8
0
 10
-170.854
 20
325.696
 11
-170.464
 21
325.999
  0
LINE
  8
0
 10
-170.464
 20
325.999
 11
-169.997
 21
326.16
  0
LINE
  8
0
 10
-169.997
 20
326.16
 11
-169.503
 21
326.16
  0
LINE
  8
0
 10
-169.503
 20
326.16
 11
-169.036
 21
325.999
  0
LINE
  8
0
 10
-169.036
 20
325.999
 11
-168.646
 21
325.696
  0
LINE
  8
0
 10
-168.646
 20
325.696
 11
-168.376
 21
325.283
  0
LINE
  8
0
 10
-168.376
 20
325.283
 11
-168.255
 21
324.804
  0
LINE
  8
0
 10
-168.255
 20
324.804
 11
-168.296
 21
324.312
  0
LINE
  8
0
 10
-168.296
 20
324.312
 11
-168.494
 21
323.86
  0
LINE
  8
0
 10
-168.494
 20
323.86
 11
-168.829
 21
323.496
  0
LINE
  8
0
 10
-168.829
 20
323.496
 11
-169.263
 21
323.261
  0
LINE
  8
0
 10
-169.263
 20
323.261
 11
-169.75
 21
323.18
  0
LINE
  8
0
 10
-169.75
 20
323.18
 11
-170.237
 21
323.261
  0
LINE
  8
0
 10
-164.997
 20
317.8
 11
-165.464
 21
317.961
  0
LINE
  8
0
 10
-165.464
 20
317.961
 11
-165.854
 21
318.264
  0
LINE
  8
0
 10
-165.854
 20
318.264
 11
-166.124
 21
318.677
  0
LINE
  8
0
 10
-166.124
 20
318.677
 11
-166.245
 21
319.156
  0
LINE
  8
0
 10
-166.245
 20
319.156
 11
-166.204
 21
319.648
  0
LINE
  8
0
 10
-166.204
 20
319.648
 11
-166.006
 21
320.1
  0
LINE
  8
0
 10
-166.006
 20
320.1
 11
-165.671
 21
320.464
  0
LINE
  8
0
 10
-165.671
 20
320.464
 11
-165.237
 21
320.699
  0
LINE
  8
0
 10
-165.237
 20
320.699
 11
-164.75
 21
320.78
  0
LINE
  8
0
 10
-164.75
 20
320.78
 11
-164.263
 21
320.699
  0
LINE
  8
0
 10
-164.263
 20
320.699
 11
-163.829
 21
320.464
  0
LINE
  8
0
 10
-163.829
 20
320.464
 11
-163.494
 21
320.1
  0
LINE
  8
0
 10
-163.494
 20
320.1
 11
-163.296
 21
319.648
  0
LINE
  8
0
 10
-163.296
 20
319.648
 11
-163.255
 21
319.156
  0
LINE
  8
0
 10
-163.255
 20
319.156
 11
-163.376
 21
318.677
  0
LINE
  8
0
 10
-163.376
 20
318.677
 11
-163.646
 21
318.264
  0
LINE
  8
0
 10
-163.646
 20
318.264
 11
-164.036
 21
317.961
  0
LINE
  8
0
 10
-164.036
 20
317.961
 11
-164.503
 21
317.8
  0
LINE
  8
0
 10
-164.503
 20
317.8
 11
-164.997
 21
317.8
  0
LINE
  8
0
 10
125.453
 20
317.8
 11
124.986
 21
317.961
  0
LINE
  8
0
 10
124.986
 20
317.961
 11
124.596
 21
318.264
  0
LINE
  8
0
 10
124.596
 20
318.264
 11
124.326
 21
318.677
  0
LINE
  8
0
 10
124.326
 20
318.677
 11
124.205
 21
319.156
  0
LINE
  8
0
 10
124.205
 20
319.156
 11
124.246
 21
319.648
  0
LINE
  8
0
 10
124.246
 20
319.648
 11
124.444
 21
320.1
  0
LINE
  8
0
 10
124.444
 20
320.1
 11
124.779
 21
320.464
  0
LINE
  8
0
 10
124.779
 20
320.464
 11
125.213
 21
320.699
  0
LINE
  8
0
 10
125.213
 20
320.699
 11
125.7
 21
320.78
  0
LINE
  8
0
 10
125.7
 20
320.78
 11
126.187
 21
320.699
  0
LINE
  8
0
 10
126.187
 20
320.699
 11
126.621
 21
320.464
  0
LINE
  8
0
 10
126.621
 20
320.464
 11
126.956
 21
320.1
  0
LINE
  8
0
 10
126.956
 20
320.1
 11
127.154
 21
319.648
  0
LINE
  8
0
 10
127.154
 20
319.648
 11
127.195
 21
319.156
  0
LINE
  8
0
 10
127.195
 20
319.156
 11
127.074
 21
318.677
  0
LINE
  8
0
 10
127.074
 20
318.677
 11
126.804
 21
318.264
  0
LINE
  8
0
 10
126.804
 20
318.264
 11
126.414
 21
317.961
  0
LINE
  8
0
 10
126.414
 20
317.961
 11
125.947
 21
317.8
  0
LINE
  8
0
 10
125.947
 20
317.8
 11
125.453
 21
317.8
  0
LINE
  8
0
 10
125.453
 20
310.6
 11
124.986
 21
310.761
  0
LINE
  8
0
 10
124.986
 20
310.761
 11
124.596
 21
311.064
  0
LINE
  8
0
 10
124.596
 20
311.064
 11
124.326
 21
311.477
  0
LINE
  8
0
 10
124.326
 20
311.477
 11
124.205
 21
311.956
  0
LINE
  8
0
 10
124.205
 20
311.956
 11
124.246
 21
312.448
  0
LINE
  8
0
 10
124.246
 20
312.448
 11
124.444
 21
312.9
  0
LINE
  8
0
 10
124.444
 20
312.9
 11
124.779
 21
313.264
  0
LINE
  8
0
 10
124.779
 20
313.264
 11
125.213
 21
313.499
  0
LINE
  8
0
 10
125.213
 20
313.499
 11
125.7
 21
313.58
  0
LINE
  8
0
 10
125.7
 20
313.58
 11
126.187
 21
313.499
  0
LINE
  8
0
 10
126.187
 20
313.499
 11
126.621
 21
313.264
  0
LINE
  8
0
 10
126.621
 20
313.264
 11
126.956
 21
312.9
  0
LINE
  8
0
 10
126.956
 20
312.9
 11
127.154
 21
312.448
  0
LINE
  8
0
 10
127.154
 20
312.448
 11
127.195
 21
311.956
  0
LINE
  8
0
 10
127.195
 20
311.956
 11
127.074
 21
311.477
  0
LINE
  8
0
 10
127.074
 20
311.477
 11
126.804
 21
311.064
  0
LINE
  8
0
 10
126.804
 20
311.064
 11
126.414
 21
310.761
  0
LINE
  8
0
 10
126.414
 20
310.761
 11
125.947
 21
310.6
  0
LINE
  8
0
 10
125.947
 20
310.6
 11
125.453
 21
310.6
  0
LINE
  8
0
 10
-164.997
 20
310.6
 11
-165.464
 21
310.761
  0
LINE
  8
0
 10
-165.464
 20
310.761
 11
-165.854
 21
311.064
  0
LINE
  8
0
 10
-165.854
 20
311.064
 11
-166.124
 21
311.477
  0
LINE
  8
0
 10
-166.124
 20
311.477
 11
-166.245
 21
311.956
  0
LINE
  8
0
 10
-166.245
 20
311.956
 11
-166.204
 21
312.448
  0
LINE
  8
0
 10
-166.204
 20
312.448
 11
-166.006
 21
312.9
  0
LINE
  8
0
 10
-166.006
 20
312.9
 11
-165.671
 21
313.264
  0
LINE
  8
0
 10
-165.671
 20
313.264
 11
-165.237
 21
313.499
  0
LINE
  8
0
 10
-165.237
 20
313.499
 11
-164.75
 21
313.58
  0
LINE
  8
0
 10
-164.75
 20
313.58
 11
-164.263
 21
313.499
  0
LINE
  8
0
 10
-164.263
 20
313.499
 11
-163.829
 21
313.264
  0
LINE
  8
0
 10
-163.829
 20
313.264
 11
-163.494
 21
312.9
  0
LINE
  8
0
 10
-163.494
 20
312.9
 11
-163.296
 21
312.448
  0
LINE
  8
0
 10
-163.296
 20
312.448
 11
-163.255
 21
311.956
  0
LINE
  8
0
 10
-163.255
 20
311.956
 11
-163.376
 21
311.477
  0
LINE
  8
0
 10
-163.376
 20
311.477
 11
-163.646
 21
311.064
  0
LINE
  8
0
 10
-163.646
 20
311.064
 11
-164.036
 21
310.761
  0
LINE
  8
0
 10
-164.036
 20
310.761
 11
-164.503
 21
310.6
  0
LINE
  8
0
 10
-164.503
 20
310.6
 11
-164.997
 21
310.6
  0
LINE
  8
0
 10
-229.24
 20
149.355
 11
-229.705
 21
149.518
  0
LINE
  8
0
 10
-229.705
 20
149.518
 11
-230.122
 21
149.78
  0
LINE
  8
0
 10
-230.122
 20
149.78
 11
-230.47
 21
150.128
  0
LINE
  8
0
 10
-230.47
 20
150.128
 11
-230.732
 21
150.545
  0
LINE
  8
0
 10
-230.732
 20
150.545
 11
-230.895
 21
151.01
  0
LINE
  8
0
 10
-230.895
 20
151.01
 11
-230.95
 21
151.5
  0
LINE
  8
0
 10
-230.95
 20
151.5
 11
-230.895
 21
151.99
  0
LINE
  8
0
 10
-230.895
 20
151.99
 11
-230.732
 21
152.455
  0
LINE
  8
0
 10
-230.732
 20
152.455
 11
-230.47
 21
152.872
  0
LINE
  8
0
 10
-230.47
 20
152.872
 11
-230.122
 21
153.22
  0
LINE
  8
0
 10
-230.122
 20
153.22
 11
-229.705
 21
153.482
  0
LINE
  8
0
 10
-229.705
 20
153.482
 11
-229.24
 21
153.645
  0
LINE
  8
0
 10
-229.24
 20
153.645
 11
-228.75
 21
153.7
  0
LINE
  8
0
 10
-228.75
 20
153.7
 11
-228.26
 21
153.645
  0
LINE
  8
0
 10
-228.26
 20
153.645
 11
-227.795
 21
153.482
  0
LINE
  8
0
 10
-227.795
 20
153.482
 11
-227.378
 21
153.22
  0
LINE
  8
0
 10
-227.378
 20
153.22
 11
-227.03
 21
152.872
  0
LINE
  8
0
 10
-227.03
 20
152.872
 11
-226.768
 21
152.455
  0
LINE
  8
0
 10
-226.768
 20
152.455
 11
-226.605
 21
151.99
  0
LINE
  8
0
 10
-226.605
 20
151.99
 11
-226.55
 21
151.5
  0
LINE
  8
0
 10
-226.55
 20
151.5
 11
-226.605
 21
151.01
  0
LINE
  8
0
 10
-226.605
 20
151.01
 11
-226.768
 21
150.545
  0
LINE
  8
0
 10
-226.768
 20
150.545
 11
-227.03
 21
150.128
  0
LINE
  8
0
 10
-227.03
 20
150.128
 11
-227.378
 21
149.78
  0
LINE
  8
0
 10
-227.378
 20
149.78
 11
-227.795
 21
149.518
  0
LINE
  8
0
 10
-227.795
 20
149.518
 11
-228.26
 21
149.355
  0
LINE
  8
0
 10
-228.26
 20
149.355
 11
-228.75
 21
149.3
  0
LINE
  8
0
 10
-228.75
 20
149.3
 11
-229.24
 21
149.355
  0
LINE
  8
0
 10
-229.24
 20
107.955
 11
-229.705
 21
108.118
  0
LINE
  8
0
 10
-229.705
 20
108.118
 11
-230.122
 21
108.38
  0
LINE
  8
0
 10
-230.122
 20
108.38
 11
-230.47
 21
108.728
  0
LINE
  8
0
 10
-230.47
 20
108.728
 11
-230.732
 21
109.145
  0
LINE
  8
0
 10
-230.732
 20
109.145
 11
-230.895
 21
109.61
  0
LINE
  8
0
 10
-230.895
 20
109.61
 11
-230.95
 21
110.1
  0
LINE
  8
0
 10
-230.95
 20
110.1
 11
-230.895
 21
110.59
  0
LINE
  8
0
 10
-230.895
 20
110.59
 11
-230.732
 21
111.055
  0
LINE
  8
0
 10
-230.732
 20
111.055
 11
-230.47
 21
111.472
  0
LINE
  8
0
 10
-230.47
 20
111.472
 11
-230.122
 21
111.82
  0
LINE
  8
0
 10
-230.122
 20
111.82
 11
-229.705
 21
112.082
  0
LINE
  8
0
 10
-229.705
 20
112.082
 11
-229.24
 21
112.245
  0
LINE
  8
0
 10
-229.24
 20
112.245
 11
-228.75
 21
112.3
  0
LINE
  8
0
 10
-228.75
 20
112.3
 11
-228.26
 21
112.245
  0
LINE
  8
0
 10
-228.26
 20
112.245
 11
-227.795
 21
112.082
  0
LINE
  8
0
 10
-227.795
 20
112.082
 11
-227.378
 21
111.82
  0
LINE
  8
0
 10
-227.378
 20
111.82
 11
-227.03
 21
111.472
  0
LINE
  8
0
 10
-227.03
 20
111.472
 11
-226.768
 21
111.055
  0
LINE
  8
0
 10
-226.768
 20
111.055
 11
-226.605
 21
110.59
  0
LINE
  8
0
 10
-226.605
 20
110.59
 11
-226.55
 21
110.1
  0
LINE
  8
0
 10
-226.55
 20
110.1
 11
-226.605
 21
109.61
  0
LINE
  8
0
 10
-226.605
 20
109.61
 11
-226.768
 21
109.145
  0
LINE
  8
0
 10
-226.768
 20
109.145
 11
-227.03
 21
108.728
  0
LINE
  8
0
 10
-227.03
 20
108.728
 11
-227.378
 21
108.38
  0
LINE
  8
0
 10
-227.378
 20
108.38
 11
-227.795
 21
108.118
  0
LINE
  8
0
 10
-227.795
 20
108.118
 11
-228.26
 21
107.955
  0
LINE
  8
0
 10
-228.26
 20
107.955
 11
-228.75
 21
107.9
  0
LINE
  8
0
 10
-228.75
 20
107.9
 11
-229.24
 21
107.955
  0
LINE
  8
0
 10
-203.991
 20
71.0146
 11
-204.459
 21
71.13
  0
LINE
  8
0
 10
-204.459
 20
71.13
 11
-204.886
 21
71.354
  0
LINE
  8
0
 10
-204.886
 20
71.354
 11
-205.247
 21
71.6738
  0
LINE
  8
0
 10
-205.247
 20
71.6738
 11
-205.521
 21
72.0705
  0
LINE
  8
0
 10
-205.521
 20
72.0705
 11
-205.692
 21
72.5214
  0
LINE
  8
0
 10
-205.692
 20
72.5214
 11
-205.75
 21
73
  0
LINE
  8
0
 10
-205.75
 20
73
 11
-205.692
 21
73.4786
  0
LINE
  8
0
 10
-205.692
 20
73.4786
 11
-205.521
 21
73.9294
  0
LINE
  8
0
 10
-205.521
 20
73.9294
 11
-205.247
 21
74.3262
  0
LINE
  8
0
 10
-205.247
 20
74.3262
 11
-204.886
 21
74.646
  0
LINE
  8
0
 10
-204.886
 20
74.646
 11
-204.459
 21
74.87
  0
LINE
  8
0
 10
-204.459
 20
74.87
 11
-203.991
 21
74.9854
  0
LINE
  8
0
 10
-203.991
 20
74.9854
 11
-203.509
 21
74.9854
  0
LINE
  8
0
 10
-203.509
 20
74.9854
 11
-203.041
 21
74.87
  0
LINE
  8
0
 10
-203.041
 20
74.87
 11
-202.614
 21
74.646
  0
LINE
  8
0
 10
-202.614
 20
74.646
 11
-202.253
 21
74.3262
  0
LINE
  8
0
 10
-202.253
 20
74.3262
 11
-201.979
 21
73.9294
  0
LINE
  8
0
 10
-201.979
 20
73.9294
 11
-201.808
 21
73.4786
  0
LINE
  8
0
 10
-201.808
 20
73.4786
 11
-201.75
 21
73
  0
LINE
  8
0
 10
-201.75
 20
73
 11
-201.808
 21
72.5214
  0
LINE
  8
0
 10
-201.808
 20
72.5214
 11
-201.979
 21
72.0705
  0
LINE
  8
0
 10
-201.979
 20
72.0705
 11
-202.253
 21
71.6738
  0
LINE
  8
0
 10
-202.253
 20
71.6738
 11
-202.614
 21
71.354
  0
LINE
  8
0
 10
-202.614
 20
71.354
 11
-203.041
 21
71.13
  0
LINE
  8
0
 10
-203.041
 20
71.13
 11
-203.509
 21
71.0146
  0
LINE
  8
0
 10
-203.509
 20
71.0146
 11
-203.991
 21
71.0146
  0
LINE
  8
0
 10
-190.19
 20
54.3551
 11
-190.655
 21
54.5179
  0
LINE
  8
0
 10
-190.655
 20
54.5179
 11
-191.072
 21
54.78
  0
LINE
  8
0
 10
-191.072
 20
54.78
 11
-191.42
 21
55.1283
  0
LINE
  8
0
 10
-191.42
 20
55.1283
 11
-191.682
 21
55.5454
  0
LINE
  8
0
 10
-191.682
 20
55.5454
 11
-191.845
 21
56.0105
  0
LINE
  8
0
 10
-191.845
 20
56.0105
 11
-191.9
 21
56.5
  0
LINE
  8
0
 10
-191.9
 20
56.5
 11
-191.9
 21
65.5
  0
LINE
  8
0
 10
-191.9
 20
65.5
 11
-191.845
 21
65.9895
  0
LINE
  8
0
 10
-191.845
 20
65.9895
 11
-191.682
 21
66.4545
  0
LINE
  8
0
 10
-191.682
 20
66.4545
 11
-191.42
 21
66.8717
  0
LINE
  8
0
 10
-191.42
 20
66.8717
 11
-191.072
 21
67.22
  0
LINE
  8
0
 10
-191.072
 20
67.22
 11
-190.655
 21
67.4821
  0
LINE
  8
0
 10
-190.655
 20
67.4821
 11
-190.19
 21
67.6448
  0
LINE
  8
0
 10
-190.19
 20
67.6448
 11
-189.7
 21
67.7
  0
LINE
  8
0
 10
-189.7
 20
67.7
 11
-189.21
 21
67.6448
  0
LINE
  8
0
 10
-189.21
 20
67.6448
 11
-188.745
 21
67.4821
  0
LINE
  8
0
 10
-188.745
 20
67.4821
 11
-188.328
 21
67.22
  0
LINE
  8
0
 10
-188.328
 20
67.22
 11
-187.98
 21
66.8717
  0
LINE
  8
0
 10
-187.98
 20
66.8717
 11
-187.718
 21
66.4545
  0
LINE
  8
0
 10
-187.718
 20
66.4545
 11
-187.555
 21
65.9895
  0
LINE
  8
0
 10
-187.555
 20
65.9895
 11
-187.5
 21
65.5
  0
LINE
  8
0
 10
-187.5
 20
65.5
 11
-187.5
 21
56.5
  0
LINE
  8
0
 10
-187.5
 20
56.5
 11
-187.555
 21
56.0105
  0
LINE
  8
0
 10
-187.555
 20
56.0105
 11
-187.718
 21
55.5454
  0
LINE
  8
0
 10
-187.718
 20
55.5454
 11
-187.98
 21
55.1283
  0
LINE
  8
0
 10
-187.98
 20
55.1283
 11
-188.328
 21
54.78
  0
LINE
  8
0
 10
-188.328
 20
54.78
 11
-188.745
 21
54.5179
  0
LINE
  8
0
 10
-188.745
 20
54.5179
 11
-189.21
 21
54.3551
  0
LINE
  8
0
 10
-189.21
 20
54.3551
 11
-189.7
 21
54.3
  0
LINE
  8
0
 10
-189.7
 20
54.3
 11
-190.19
 21
54.3551
  0
LINE
  8
0
 10
-220.29
 20
54.3551
 11
-220.755
 21
54.5179
  0
LINE
  8
0
 10
-220.755
 20
54.5179
 11
-221.172
 21
54.78
  0
LINE
  8
0
 10
-221.172
 20
54.78
 11
-221.52
 21
55.1283
  0
LINE
  8
0
 10
-221.52
 20
55.1283
 11
-221.782
 21
55.5454
  0
LINE
  8
0
 10
-221.782
 20
55.5454
 11
-221.945
 21
56.0105
  0
LINE
  8
0
 10
-221.945
 20
56.0105
 11
-222
 21
56.5
  0
LINE
  8
0
 10
-222
 20
56.5
 11
-222
 21
65.5
  0
LINE
  8
0
 10
-222
 20
65.5
 11
-221.945
 21
65.9895
  0
LINE
  8
0
 10
-221.945
 20
65.9895
 11
-221.782
 21
66.4545
  0
LINE
  8
0
 10
-221.782
 20
66.4545
 11
-221.52
 21
66.8717
  0
LINE
  8
0
 10
-221.52
 20
66.8717
 11
-221.172
 21
67.22
  0
LINE
  8
0
 10
-221.172
 20
67.22
 11
-220.755
 21
67.4821
  0
LINE
  8
0
 10
-220.755
 20
67.4821
 11
-220.29
 21
67.6448
  0
LINE
  8
0
 10
-220.29
 20
67.6448
 11
-219.8
 21
67.7
  0
LINE
  8
0
 10
-219.8
 20
67.7
 11
-219.31
 21
67.6448
  0
LINE
  8
0
 10
-219.31
 20
67.6448
 11
-218.845
 21
67.4821
  0
LINE
  8
0
 10
-218.845
 20
67.4821
 11
-218.428
 21
67.22
  0
LINE
  8
0
 10
-218.428
 20
67.22
 11
-218.08
 21
66.8717
  0
LINE
  8
0
 10
-218.08
 20
66.8717
 11
-217.818
 21
66.4545
  0
LINE
  8
0
 10
-217.818
 20
66.4545
 11
-217.655
 21
65.9895
  0
LINE
  8
0
 10
-217.655
 20
65.9895
 11
-217.6
 21
65.5
  0
LINE
  8
0
 10
-217.6
 20
65.5
 11
-217.6
 21
56.5
  0
LINE
  8
0
 10
-217.6
 20
56.5
 11
-217.655
 21
56.0105
  0
LINE
  8
0
 10
-217.655
 20
56.0105
 11
-217.818
 21
55.5454
  0
LINE
  8
0
 10
-217.818
 20
55.5454
 11
-218.08
 21
55.1283
  0
LINE
  8
0
 10
-218.08
 20
55.1283
 11
-218.428
 21
54.78
  0
LINE
  8
0
 10
-218.428
 20
54.78
 11
-218.845
 21
54.5179
  0
LINE
  8
0
 10
-218.845
 20
54.5179
 11
-219.31
 21
54.3551
  0
LINE
  8
0
 10
-219.31
 20
54.3551
 11
-219.8
 21
54.3
  0
LINE
  8
0
 10
-219.8
 20
54.3
 11
-220.29
 21
54.3551
  0
LINE
  8
0
 10
174.81
 20
54.3551
 11
174.345
 21
54.5179
  0
LINE
  8
0
 10
174.345
 20
54.5179
 11
173.928
 21
54.78
  0
LINE
  8
0
 10
173.928
 20
54.78
 11
173.58
 21
55.1283
  0
LINE
  8
0
 10
173.58
 20
55.1283
 11
173.318
 21
55.5454
  0
LINE
  8
0
 10
173.318
 20
55.5454
 11
173.155
 21
56.0105
  0
LINE
  8
0
 10
173.155
 20
56.0105
 11
173.1
 21
56.5
  0
LINE
  8
0
 10
173.1
 20
56.5
 11
173.1
 21
65.5
  0
LINE
  8
0
 10
173.1
 20
65.5
 11
173.155
 21
65.9895
  0
LINE
  8
0
 10
173.155
 20
65.9895
 11
173.318
 21
66.4545
  0
LINE
  8
0
 10
173.318
 20
66.4545
 11
173.58
 21
66.8717
  0
LINE
  8
0
 10
173.58
 20
66.8717
 11
173.928
 21
67.22
  0
LINE
  8
0
 10
173.928
 20
67.22
 11
174.345
 21
67.4821
  0
LINE
  8
0
 10
174.345
 20
67.4821
 11
174.81
 21
67.6448
  0
LINE
  8
0
 10
174.81
 20
67.6448
 11
175.3
 21
67.7
  0
LINE
  8
0
 10
175.3
 20
67.7
 11
175.79
 21
67.6448
  0
LINE
  8
0
 10
175.79
 20
67.6448
 11
176.255
 21
67.4821
  0
LINE
  8
0
 10
176.255
 20
67.4821
 11
176.672
 21
67.22
  0
LINE
  8
0
 10
176.672
 20
67.22
 11
177.02
 21
66.8717
  0
LINE
  8
0
 10
177.02
 20
66.8717
 11
177.282
 21
66.4545
  0
LINE
  8
0
 10
177.282
 20
66.4545
 11
177.445
 21
65.9895
  0
LINE
  8
0
 10
177.445
 20
65.9895
 11
177.5
 21
65.5
  0
LINE
  8
0
 10
177.5
 20
65.5
 11
177.5
 21
56.5
  0
LINE
  8
0
 10
177.5
 20
56.5
 11
177.445
 21
56.0105
  0
LINE
  8
0
 10
177.445
 20
56.0105
 11
177.282
 21
55.5454
  0
LINE
  8
0
 10
177.282
 20
55.5454
 11
177.02
 21
55.1283
  0
LINE
  8
0
 10
177.02
 20
55.1283
 11
176.672
 21
54.78
  0
LINE
  8
0
 10
176.672
 20
54.78
 11
176.255
 21
54.5179
  0
LINE
  8
0
 10
176.255
 20
54.5179
 11
175.79
 21
54.3551
  0
LINE
  8
0
 10
175.79
 20
54.3551
 11
175.3
 21
54.3
  0
LINE
  8
0
 10
175.3
 20
54.3
 11
174.81
 21
54.3551
  0
LINE
  8
0
 10
144.71
 20
54.3551
 11
144.245
 21
54.5179
  0
LINE
  8
0
 10
144.245
 20
54.5179
 11
143.828
 21
54.78
  0
LINE
  8
0
 10
143.828
 20
54.78
 11
143.48
 21
55.1283
  0
LINE
  8
0
 10
143.48
 20
55.1283
 11
143.218
 21
55.5454
  0
LINE
  8
0
 10
143.218
 20
55.5454
 11
143.055
 21
56.0105
  0
LINE
  8
0
 10
143.055
 20
56.0105
 11
143
 21
56.5
  0
LINE
  8
0
 10
143
 20
56.5
 11
143
 21
65.5
  0
LINE
  8
0
 10
143
 20
65.5
 11
143.055
 21
65.9895
  0
LINE
  8
0
 10
143.055
 20
65.9895
 11
143.218
 21
66.4545
  0
LINE
  8
0
 10
143.218
 20
66.4545
 11
143.48
 21
66.8717
  0
LINE
  8
0
 10
143.48
 20
66.8717
 11
143.828
 21
67.22
  0
LINE
  8
0
 10
143.828
 20
67.22
 11
144.245
 21
67.4821
  0
LINE
  8
0
 10
144.245
 20
67.4821
 11
144.71
 21
67.6448
  0
LINE
  8
0
 10
144.71
 20
67.6448
 11
145.2
 21
67.7
  0
LINE
  8
0
 10
145.2
 20
67.7
 11
145.69
 21
67.6448
  0
LINE
  8
0
 10
145.69
 20
67.6448
 11
146.155
 21
67.4821
  0
LINE
  8
0
 10
146.155
 20
67.4821
 11
146.572
 21
67.22
  0
LINE
  8
0
 10
146.572
 20
67.22
 11
146.92
 21
66.8717
  0
LINE
  8
0
 10
146.92
 20
66.8717
 11
147.182
 21
66.4545
  0
LINE
  8
0
 10
147.182
 20
66.4545
 11
147.345
 21
65.9895
  0
LINE
  8
0
 10
147.345
 20
65.9895
 11
147.4
 21
65.5
  0
LINE
  8
0
 10
147.4
 20
65.5
 11
147.4
 21
56.5
  0
LINE
  8
0
 10
147.4
 20
56.5
 11
147.345
 21
56.0105
  0
LINE
  8
0
 10
147.345
 20
56.0105
 11
147.182
 21
55.5454
  0
LINE
  8
0
 10
147.182
 20
55.5454
 11
146.92
 21
55.1283
  0
LINE
  8
0
 10
146.92
 20
55.1283
 11
146.572
 21
54.78
  0
LINE
  8
0
 10
146.572
 20
54.78
 11
146.155
 21
54.5179
  0
LINE
  8
0
 10
146.155
 20
54.5179
 11
145.69
 21
54.3551
  0
LINE
  8
0
 10
145.69
 20
54.3551
 11
145.2
 21
54.3
  0
LINE
  8
0
 10
145.2
 20
54.3
 11
144.71
 21
54.3551
  0
LINE
  8
0
 10
-174.04
 20
31.5652
 11
-174.505
 21
31.7279
  0
LINE
  8
0
 10
-174.505
 20
31.7279
 11
-174.922
 21
31.99
  0
LINE
  8
0
 10
-174.922
 20
31.99
 11
-175.27
 21
32.3383
  0
LINE
  8
0
 10
-175.27
 20
32.3383
 11
-175.532
 21
32.7554
  0
LINE
  8
0
 10
-175.532
 20
32.7554
 11
-175.695
 21
33.2204
  0
LINE
  8
0
 10
-175.695
 20
33.2204
 11
-175.75
 21
33.71
  0
LINE
  8
0
 10
-175.75
 20
33.71
 11
-175.695
 21
34.1995
  0
LINE
  8
0
 10
-175.695
 20
34.1995
 11
-175.532
 21
34.6645
  0
LINE
  8
0
 10
-175.532
 20
34.6645
 11
-175.27
 21
35.0817
  0
LINE
  8
0
 10
-175.27
 20
35.0817
 11
-174.922
 21
35.43
  0
LINE
  8
0
 10
-174.922
 20
35.43
 11
-174.505
 21
35.6921
  0
LINE
  8
0
 10
-174.505
 20
35.6921
 11
-174.04
 21
35.8548
  0
LINE
  8
0
 10
-174.04
 20
35.8548
 11
-173.55
 21
35.91
  0
LINE
  8
0
 10
-173.55
 20
35.91
 11
-173.06
 21
35.8548
  0
LINE
  8
0
 10
-173.06
 20
35.8548
 11
-172.595
 21
35.6921
  0
LINE
  8
0
 10
-172.595
 20
35.6921
 11
-172.178
 21
35.43
  0
LINE
  8
0
 10
-172.178
 20
35.43
 11
-171.83
 21
35.0817
  0
LINE
  8
0
 10
-171.83
 20
35.0817
 11
-171.568
 21
34.6645
  0
LINE
  8
0
 10
-171.568
 20
34.6645
 11
-171.405
 21
34.1995
  0
LINE
  8
0
 10
-171.405
 20
34.1995
 11
-171.35
 21
33.71
  0
LINE
  8
0
 10
-171.35
 20
33.71
 11
-171.405
 21
33.2204
  0
LINE
  8
0
 10
-171.405
 20
33.2204
 11
-171.568
 21
32.7554
  0
LINE
  8
0
 10
-171.568
 20
32.7554
 11
-171.83
 21
32.3383
  0
LINE
  8
0
 10
-171.83
 20
32.3383
 11
-172.178
 21
31.99
  0
LINE
  8
0
 10
-172.178
 20
31.99
 11
-172.595
 21
31.7279
  0
LINE
  8
0
 10
-172.595
 20
31.7279
 11
-173.06
 21
31.5652
  0
LINE
  8
0
 10
-173.06
 20
31.5652
 11
-173.55
 21
31.51
  0
LINE
  8
0
 10
-173.55
 20
31.51
 11
-174.04
 21
31.5652
  0
LINE
  8
0
 10
129.01
 20
31.5652
 11
128.545
 21
31.7279
  0
LINE
  8
0
 10
128.545
 20
31.7279
 11
128.128
 21
31.99
  0
LINE
  8
0
 10
128.128
 20
31.99
 11
127.78
 21
32.3383
  0
LINE
  8
0
 10
127.78
 20
32.3383
 11
127.518
 21
32.7554
  0
LINE
  8
0
 10
127.518
 20
32.7554
 11
127.355
 21
33.2204
  0
LINE
  8
0
 10
127.355
 20
33.2204
 11
127.3
 21
33.71
  0
LINE
  8
0
 10
127.3
 20
33.71
 11
127.355
 21
34.1995
  0
LINE
  8
0
 10
127.355
 20
34.1995
 11
127.518
 21
34.6645
  0
LINE
  8
0
 10
127.518
 20
34.6645
 11
127.78
 21
35.0817
  0
LINE
  8
0
 10
127.78
 20
35.0817
 11
128.128
 21
35.43
  0
LINE
  8
0
 10
128.128
 20
35.43
 11
128.545
 21
35.6921
  0
LINE
  8
0
 10
128.545
 20
35.6921
 11
129.01
 21
35.8548
  0
LINE
  8
0
 10
129.01
 20
35.8548
 11
129.5
 21
35.91
  0
LINE
  8
0
 10
129.5
 20
35.91
 11
129.99
 21
35.8548
  0
LINE
  8
0
 10
129.99
 20
35.8548
 11
130.455
 21
35.6921
  0
LINE
  8
0
 10
130.455
 20
35.6921
 11
130.872
 21
35.43
  0
LINE
  8
0
 10
130.872
 20
35.43
 11
131.22
 21
35.0817
  0
LINE
  8
0
 10
131.22
 20
35.0817
 11
131.482
 21
34.6645
  0
LINE
  8
0
 10
131.482
 20
34.6645
 11
131.645
 21
34.1995
  0
LINE
  8
0
 10
131.645
 20
34.1995
 11
131.7
 21
33.71
  0
LINE
  8
0
 10
131.7
 20
33.71
 11
131.645
 21
33.2204
  0
LINE
  8
0
 10
131.645
 20
33.2204
 11
131.482
 21
32.7554
  0
LINE
  8
0
 10
131.482
 20
32.7554
 11
131.22
 21
32.3383
  0
LINE
  8
0
 10
131.22
 20
32.3383
 11
130.872
 21
31.99
  0
LINE
  8
0
 10
130.872
 20
31.99
 11
130.455
 21
31.7279
  0
LINE
  8
0
 10
130.455
 20
31.7279
 11
129.99
 21
31.5652
  0
LINE
  8
0
 10
129.99
 20
31.5652
 11
129.5
 21
31.51
  0
LINE
  8
0
 10
129.5
 20
31.51
 11
129.01
 21
31.5652
  0
LINE
  8
0
 10
221.16
 20
25.8051
 11
220.695
 21
25.9679
  0
LINE
  8
0
 10
220.695
 20
25.9679
 11
220.278
 21
26.23
  0
LINE
  8
0
 10
220.278
 20
26.23
 11
219.93
 21
26.5783
  0
LINE
  8
0
 10
219.93
 20
26.5783
 11
219.668
 21
26.9955
  0
LINE
  8
0
 10
219.668
 20
26.9955
 11
219.505
 21
27.4604
  0
LINE
  8
0
 10
219.505
 20
27.4604
 11
219.45
 21
27.95
  0
LINE
  8
0
 10
219.45
 20
27.95
 11
219.505
 21
28.4395
  0
LINE
  8
0
 10
219.505
 20
28.4395
 11
219.668
 21
28.9045
  0
LINE
  8
0
 10
219.668
 20
28.9045
 11
219.93
 21
29.3217
  0
LINE
  8
0
 10
219.93
 20
29.3217
 11
220.278
 21
29.67
  0
LINE
  8
0
 10
220.278
 20
29.67
 11
220.695
 21
29.9321
  0
LINE
  8
0
 10
220.695
 20
29.9321
 11
221.16
 21
30.0948
  0
LINE
  8
0
 10
221.16
 20
30.0948
 11
221.65
 21
30.15
  0
LINE
  8
0
 10
221.65
 20
30.15
 11
222.14
 21
30.0948
  0
LINE
  8
0
 10
222.14
 20
30.0948
 11
222.605
 21
29.9321
  0
LINE
  8
0
 10
222.605
 20
29.9321
 11
223.022
 21
29.67
  0
LINE
  8
0
 10
223.022
 20
29.67
 11
223.37
 21
29.3217
  0
LINE
  8
0
 10
223.37
 20
29.3217
 11
223.632
 21
28.9045
  0
LINE
  8
0
 10
223.632
 20
28.9045
 11
223.795
 21
28.4395
  0
LINE
  8
0
 10
223.795
 20
28.4395
 11
223.85
 21
27.95
  0
LINE
  8
0
 10
223.85
 20
27.95
 11
223.795
 21
27.4604
  0
LINE
  8
0
 10
223.795
 20
27.4604
 11
223.632
 21
26.9955
  0
LINE
  8
0
 10
223.632
 20
26.9955
 11
223.37
 21
26.5783
  0
LINE
  8
0
 10
223.37
 20
26.5783
 11
223.022
 21
26.23
  0
LINE
  8
0
 10
223.022
 20
26.23
 11
222.605
 21
25.9679
  0
LINE
  8
0
 10
222.605
 20
25.9679
 11
222.14
 21
25.8051
  0
LINE
  8
0
 10
222.14
 20
25.8051
 11
221.65
 21
25.75
  0
LINE
  8
0
 10
221.65
 20
25.75
 11
221.16
 21
25.8051
  0
LINE
  8
0
 10
158.882
 20
15.448
 11
158.413
 21
15.5903
  0
LINE
  8
0
 10
158.413
 20
15.5903
 11
157.981
 21
15.8213
  0
LINE
  8
0
 10
157.981
 20
15.8213
 11
157.602
 21
16.1322
  0
LINE
  8
0
 10
157.602
 20
16.1322
 11
157.291
 21
16.5111
  0
LINE
  8
0
 10
157.291
 20
16.5111
 11
157.06
 21
16.9433
  0
LINE
  8
0
 10
157.06
 20
16.9433
 11
156.918
 21
17.4123
  0
LINE
  8
0
 10
156.918
 20
17.4123
 11
156.87
 21
17.9
  0
LINE
  8
0
 10
156.87
 20
17.9
 11
156.918
 21
18.3877
  0
LINE
  8
0
 10
156.918
 20
18.3877
 11
157.06
 21
18.8567
  0
LINE
  8
0
 10
157.06
 20
18.8567
 11
157.291
 21
19.2889
  0
LINE
  8
0
 10
157.291
 20
19.2889
 11
157.602
 21
19.6678
  0
LINE
  8
0
 10
157.602
 20
19.6678
 11
157.981
 21
19.9787
  0
LINE
  8
0
 10
157.981
 20
19.9787
 11
158.413
 21
20.2097
  0
LINE
  8
0
 10
158.413
 20
20.2097
 11
158.882
 21
20.352
  0
LINE
  8
0
 10
158.882
 20
20.352
 11
159.37
 21
20.4
  0
LINE
  8
0
 10
159.37
 20
20.4
 11
159.858
 21
20.352
  0
LINE
  8
0
 10
159.858
 20
20.352
 11
160.327
 21
20.2097
  0
LINE
  8
0
 10
160.327
 20
20.2097
 11
160.759
 21
19.9787
  0
LINE
  8
0
 10
160.759
 20
19.9787
 11
161.138
 21
19.6678
  0
LINE
  8
0
 10
161.138
 20
19.6678
 11
161.449
 21
19.2889
  0
LINE
  8
0
 10
161.449
 20
19.2889
 11
161.68
 21
18.8567
  0
LINE
  8
0
 10
161.68
 20
18.8567
 11
161.822
 21
18.3877
  0
LINE
  8
0
 10
161.822
 20
18.3877
 11
161.87
 21
17.9
  0
LINE
  8
0
 10
161.87
 20
17.9
 11
161.822
 21
17.4123
  0
LINE
  8
0
 10
161.822
 20
17.4123
 11
161.68
 21
16.9433
  0
LINE
  8
0
 10
161.68
 20
16.9433
 11
161.449
 21
16.5111
  0
LINE
  8
0
 10
161.449
 20
16.5111
 11
161.138
 21
16.1322
  0
LINE
  8
0
 10
161.138
 20
16.1322
 11
160.759
 21
15.8213
  0
LINE
  8
0
 10
160.759
 20
15.8213
 11
160.327
 21
15.5903
  0
LINE
  8
0
 10
160.327
 20
15.5903
 11
159.858
 21
15.448
  0
LINE
  8
0
 10
159.858
 20
15.448
 11
159.37
 21
15.4
  0
LINE
  8
0
 10
159.37
 20
15.4
 11
158.882
 21
15.448
  0
LINE
  8
0
 10
-161.17
 20
4.99998
 11
-161.66
 21
5.05515
  0
LINE
  8
0
 10
-161.66
 20
5.05515
 11
-162.125
 21
5.21786
  0
LINE
  8
0
 10
-162.125
 20
5.21786
 11
-162.542
 21
5.47997
  0
LINE
  8
0
 10
-162.542
 20
5.47997
 11
-162.89
 21
5.82831
  0
LINE
  8
0
 10
-162.89
 20
5.82831
 11
-163.152
 21
6.24545
  0
LINE
  8
0
 10
-163.152
 20
6.24545
 11
-163.315
 21
6.71045
  0
LINE
  8
0
 10
-163.315
 20
6.71045
 11
-163.37
 21
7.2
  0
LINE
  8
0
 10
-163.37
 20
7.2
 11
-163.315
 21
7.68954
  0
LINE
  8
0
 10
-163.315
 20
7.68954
 11
-163.152
 21
8.15454
  0
LINE
  8
0
 10
-163.152
 20
8.15454
 11
-162.89
 21
8.57167
  0
LINE
  8
0
 10
-162.89
 20
8.57167
 11
-162.542
 21
8.92003
  0
LINE
  8
0
 10
-162.542
 20
8.92003
 11
-162.125
 21
9.18213
  0
LINE
  8
0
 10
-162.125
 20
9.18213
 11
-161.66
 21
9.34483
  0
LINE
  8
0
 10
-161.66
 20
9.34483
 11
-161.17
 21
9.39999
  0
LINE
  8
0
 10
-161.17
 20
9.39999
 11
-160.68
 21
9.34483
  0
LINE
  8
0
 10
-160.68
 20
9.34483
 11
-160.215
 21
9.18213
  0
LINE
  8
0
 10
-160.215
 20
9.18213
 11
-159.798
 21
8.92003
  0
LINE
  8
0
 10
-159.798
 20
8.92003
 11
-159.45
 21
8.57167
  0
LINE
  8
0
 10
-159.45
 20
8.57167
 11
-159.188
 21
8.15454
  0
LINE
  8
0
 10
-159.188
 20
8.15454
 11
-159.025
 21
7.68954
  0
LINE
  8
0
 10
-159.025
 20
7.68954
 11
-158.97
 21
7.2
  0
LINE
  8
0
 10
-158.97
 20
7.2
 11
-159.025
 21
6.71045
  0
LINE
  8
0
 10
-159.025
 20
6.71045
 11
-159.188
 21
6.24545
  0
LINE
  8
0
 10
-159.188
 20
6.24545
 11
-159.45
 21
5.82831
  0
LINE
  8
0
 10
-159.45
 20
5.82831
 11
-159.798
 21
5.47997
  0
LINE
  8
0
 10
-159.798
 20
5.47997
 11
-160.215
 21
5.21786
  0
LINE
  8
0
 10
-160.215
 20
5.21786
 11
-160.68
 21
5.05515
  0
LINE
  8
0
 10
-160.68
 20
5.05515
 11
-161.17
 21
4.99998
  0
LINE
  8
0
 10
-227.55
 20
4.99998
 11
-228.04
 21
5.05515
  0
LINE
  8
0
 10
-228.04
 20
5.05515
 11
-228.505
 21
5.21786
  0
LINE
  8
0
 10
-228.505
 20
5.21786
 11
-228.922
 21
5.47997
  0
LINE
  8
0
 10
-228.922
 20
5.47997
 11
-229.27
 21
5.82831
  0
LINE
  8
0
 10
-229.27
 20
5.82831
 11
-229.532
 21
6.24545
  0
LINE
  8
0
 10
-229.532
 20
6.24545
 11
-229.695
 21
6.71045
  0
LINE
  8
0
 10
-229.695
 20
6.71045
 11
-229.75
 21
7.2
  0
LINE
  8
0
 10
-229.75
 20
7.2
 11
-229.695
 21
7.68954
  0
LINE
  8
0
 10
-229.695
 20
7.68954
 11
-229.532
 21
8.15454
  0
LINE
  8
0
 10
-229.532
 20
8.15454
 11
-229.27
 21
8.57167
  0
LINE
  8
0
 10
-229.27
 20
8.57167
 11
-228.922
 21
8.92003
  0
LINE
  8
0
 10
-228.922
 20
8.92003
 11
-228.505
 21
9.18213
  0
LINE
  8
0
 10
-228.505
 20
9.18213
 11
-228.04
 21
9.34483
  0
LINE
  8
0
 10
-228.04
 20
9.34483
 11
-227.55
 21
9.39999
  0
LINE
  8
0
 10
-227.55
 20
9.39999
 11
-227.06
 21
9.34483
  0
LINE
  8
0
 10
-227.06
 20
9.34483
 11
-226.595
 21
9.18213
  0
LINE
  8
0
 10
-226.595
 20
9.18213
 11
-226.178
 21
8.92003
  0
LINE
  8
0
 10
-226.178
 20
8.92003
 11
-225.83
 21
8.57167
  0
LINE
  8
0
 10
-225.83
 20
8.57167
 11
-225.568
 21
8.15454
  0
LINE
  8
0
 10
-225.568
 20
8.15454
 11
-225.405
 21
7.68954
  0
LINE
  8
0
 10
-225.405
 20
7.68954
 11
-225.35
 21
7.2
  0
LINE
  8
0
 10
-225.35
 20
7.2
 11
-225.405
 21
6.71045
  0
LINE
  8
0
 10
-225.405
 20
6.71045
 11
-225.568
 21
6.24545
  0
LINE
  8
0
 10
-225.568
 20
6.24545
 11
-225.83
 21
5.82831
  0
LINE
  8
0
 10
-225.83
 20
5.82831
 11
-226.178
 21
5.47997
  0
LINE
  8
0
 10
-226.178
 20
5.47997
 11
-226.595
 21
5.21786
  0
LINE
  8
0
 10
-226.595
 20
5.21786
 11
-227.06
 21
5.05515
  0
LINE
  8
0
 10
-227.06
 20
5.05515
 11
-227.55
 21
4.99998
  0
LINE
  8
0
 10
227.55
 20
4.99998
 11
227.06
 21
5.05515
  0
LINE
  8
0
 10
227.06
 20
5.05515
 11
226.595
 21
5.21786
  0
LINE
  8
0
 10
226.595
 20
5.21786
 11
226.178
 21
5.47997
  0
LINE
  8
0
 10
226.178
 20
5.47997
 11
225.83
 21
5.82831
  0
LINE
  8
0
 10
225.83
 20
5.82831
 11
225.568
 21
6.24545
  0
LINE
  8
0
 10
225.568
 20
6.24545
 11
225.405
 21
6.71045
  0
LINE
  8
0
 10
225.405
 20
6.71045
 11
225.35
 21
7.2
  0
LINE
  8
0
 10
225.35
 20
7.2
 11
225.405
 21
7.68954
  0
LINE
  8
0
 10
225.405
 20
7.68954
 11
225.568
 21
8.15454
  0
LINE
  8
0
 10
225.568
 20
8.15454
 11
225.83
 21
8.57167
  0
LINE
  8
0
 10
225.83
 20
8.57167
 11
226.178
 21
8.92003
  0
LINE
  8
0
 10
226.178
 20
8.92003
 11
226.595
 21
9.18213
  0
LINE
  8
0
 10
226.595
 20
9.18213
 11
227.06
 21
9.34483
  0
LINE
  8
0
 10
227.06
 20
9.34483
 11
227.55
 21
9.39999
  0
LINE
  8
0
 10
227.55
 20
9.39999
 11
228.04
 21
9.34483
  0
LINE
  8
0
 10
228.04
 20
9.34483
 11
228.505
 21
9.18213
  0
LINE
  8
0
 10
228.505
 20
9.18213
 11
228.922
 21
8.92003
  0
LINE
  8
0
 10
228.922
 20
8.92003
 11
229.27
 21
8.57167
  0
LINE
  8
0
 10
229.27
 20
8.57167
 11
229.532
 21
8.15454
  0
LINE
  8
0
 10
229.532
 20
8.15454
 11
229.695
 21
7.68954
  0
LINE
  8
0
 10
229.695
 20
7.68954
 11
229.75
 21
7.2
  0
LINE
  8
0
 10
229.75
 20
7.2
 11
229.695
 21
6.71045
  0
LINE
  8
0
 10
229.695
 20
6.71045
 11
229.532
 21
6.24545
  0
LINE
  8
0
 10
229.532
 20
6.24545
 11
229.27
 21
5.82831
  0
LINE
  8
0
 10
229.27
 20
5.82831
 11
228.922
 21
5.47997
  0
LINE
  8
0
 10
228.922
 20
5.47997
 11
228.505
 21
5.21786
  0
LINE
  8
0
 10
228.505
 20
5.21786
 11
228.04
 21
5.05515
  0
LINE
  8
0
 10
228.04
 20
5.05515
 11
227.55
 21
4.99998
  0
LINE
  8
0
 10
206.33
 20
4.99998
 11
205.84
 21
5.05515
  0
LINE
  8
0
 10
205.84
 20
5.05515
 11
205.375
 21
5.21786
  0
LINE
  8
0
 10
205.375
 20
5.21786
 11
204.958
 21
5.47997
  0
LINE
  8
0
 10
204.958
 20
5.47997
 11
204.61
 21
5.82831
  0
LINE
  8
0
 10
204.61
 20
5.82831
 11
204.348
 21
6.24545
  0
LINE
  8
0
 10
204.348
 20
6.24545
 11
204.185
 21
6.71045
  0
LINE
  8
0
 10
204.185
 20
6.71045
 11
204.13
 21
7.2
  0
LINE
  8
0
 10
204.13
 20
7.2
 11
204.185
 21
7.68954
  0
LINE
  8
0
 10
204.185
 20
7.68954
 11
204.348
 21
8.15454
  0
LINE
  8
0
 10
204.348
 20
8.15454
 11
204.61
 21
8.57167
  0
LINE
  8
0
 10
204.61
 20
8.57167
 11
204.958
 21
8.92003
  0
LINE
  8
0
 10
204.958
 20
8.92003
 11
205.375
 21
9.18213
  0
LINE
  8
0
 10
205.375
 20
9.18213
 11
205.84
 21
9.34483
  0
LINE
  8
0
 10
205.84
 20
9.34483
 11
206.33
 21
9.39999
  0
LINE
  8
0
 10
206.33
 20
9.39999
 11
206.82
 21
9.34483
  0
LINE
  8
0
 10
206.82
 20
9.34483
 11
207.285
 21
9.18213
  0
LINE
  8
0
 10
207.285
 20
9.18213
 11
207.702
 21
8.92003
  0
LINE
  8
0
 10
207.702
 20
8.92003
 11
208.05
 21
8.57167
  0
LINE
  8
0
 10
208.05
 20
8.57167
 11
208.312
 21
8.15454
  0
LINE
  8
0
 10
208.312
 20
8.15454
 11
208.475
 21
7.68954
  0
LINE
  8
0
 10
208.475
 20
7.68954
 11
208.53
 21
7.2
  0
LINE
  8
0
 10
208.53
 20
7.2
 11
208.475
 21
6.71045
  0
LINE
  8
0
 10
208.475
 20
6.71045
 11
208.312
 21
6.24545
  0
LINE
  8
0
 10
208.312
 20
6.24545
 11
208.05
 21
5.82831
  0
LINE
  8
0
 10
208.05
 20
5.82831
 11
207.702
 21
5.47997
  0
LINE
  8
0
 10
207.702
 20
5.47997
 11
207.285
 21
5.21786
  0
LINE
  8
0
 10
207.285
 20
5.21786
 11
206.82
 21
5.05515
  0
LINE
  8
0
 10
206.82
 20
5.05515
 11
206.33
 21
4.99998
  0
LINE
  8
0
 10
-206.33
 20
4.99998
 11
-206.82
 21
5.05515
  0
LINE
  8
0
 10
-206.82
 20
5.05515
 11
-207.285
 21
5.21786
  0
LINE
  8
0
 10
-207.285
 20
5.21786
 11
-207.702
 21
5.47997
  0
LINE
  8
0
 10
-207.702
 20
5.47997
 11
-208.05
 21
5.82831
  0
LINE
  8
0
 10
-208.05
 20
5.82831
 11
-208.312
 21
6.24545
  0
LINE
  8
0
 10
-208.312
 20
6.24545
 11
-208.475
 21
6.71045
  0
LINE
  8
0
 10
-208.475
 20
6.71045
 11
-208.53
 21
7.2
  0
LINE
  8
0
 10
-208.53
 20
7.2
 11
-208.475
 21
7.68954
  0
LINE
  8
0
 10
-208.475
 20
7.68954
 11
-208.312
 21
8.15454
  0
LINE
  8
0
 10
-208.312
 20
8.15454
 11
-208.05
 21
8.57167
  0
LINE
  8
0
 10
-208.05
 20
8.57167
 11
-207.702
 21
8.92003
  0
LINE
  8
0
 10
-207.702
 20
8.92003
 11
-207.285
 21
9.18213
  0
LINE
  8
0
 10
-207.285
 20
9.18213
 11
-206.82
 21
9.34483
  0
LINE
  8
0
 10
-206.82
 20
9.34483
 11
-206.33
 21
9.39999
  0
LINE
  8
0
 10
-206.33
 20
9.39999
 11
-205.84
 21
9.34483
  0
LINE
  8
0
 10
-205.84
 20
9.34483
 11
-205.375
 21
9.18213
  0
LINE
  8
0
 10
-205.375
 20
9.18213
 11
-204.958
 21
8.92003
  0
LINE
  8
0
 10
-204.958
 20
8.92003
 11
-204.61
 21
8.57167
  0
LINE
  8
0
 10
-204.61
 20
8.57167
 11
-204.348
 21
8.15454
  0
LINE
  8
0
 10
-204.348
 20
8.15454
 11
-204.185
 21
7.68954
  0
LINE
  8
0
 10
-204.185
 20
7.68954
 11
-204.13
 21
7.2
  0
LINE
  8
0
 10
-204.13
 20
7.2
 11
-204.185
 21
6.71045
  0
LINE
  8
0
 10
-204.185
 20
6.71045
 11
-204.348
 21
6.24545
  0
LINE
  8
0
 10
-204.348
 20
6.24545
 11
-204.61
 21
5.82831
  0
LINE
  8
0
 10
-204.61
 20
5.82831
 11
-204.958
 21
5.47997
  0
LINE
  8
0
 10
-204.958
 20
5.47997
 11
-205.375
 21
5.21786
  0
LINE
  8
0
 10
-205.375
 20
5.21786
 11
-205.84
 21
5.05515
  0
LINE
  8
0
 10
-205.84
 20
5.05515
 11
-206.33
 21
4.99998
  0
LINE
  8
0
 10
169.62
 20
4.99998
 11
169.13
 21
5.05515
  0
LINE
  8
0
 10
169.13
 20
5.05515
 11
168.665
 21
5.21786
  0
LINE
  8
0
 10
168.665
 20
5.21786
 11
168.248
 21
5.47997
  0
LINE
  8
0
 10
168.248
 20
5.47997
 11
167.9
 21
5.82831
  0
LINE
  8
0
 10
167.9
 20
5.82831
 11
167.638
 21
6.24545
  0
LINE
  8
0
 10
167.638
 20
6.24545
 11
167.475
 21
6.71045
  0
LINE
  8
0
 10
167.475
 20
6.71045
 11
167.42
 21
7.2
  0
LINE
  8
0
 10
167.42
 20
7.2
 11
167.475
 21
7.68954
  0
LINE
  8
0
 10
167.475
 20
7.68954
 11
167.638
 21
8.15454
  0
LINE
  8
0
 10
167.638
 20
8.15454
 11
167.9
 21
8.57167
  0
LINE
  8
0
 10
167.9
 20
8.57167
 11
168.248
 21
8.92003
  0
LINE
  8
0
 10
168.248
 20
8.92003
 11
168.665
 21
9.18213
  0
LINE
  8
0
 10
168.665
 20
9.18213
 11
169.13
 21
9.34483
  0
LINE
  8
0
 10
169.13
 20
9.34483
 11
169.62
 21
9.39999
  0
LINE
  8
0
 10
169.62
 20
9.39999
 11
170.11
 21
9.34483
  0
LINE
  8
0
 10
170.11
 20
9.34483
 11
170.575
 21
9.18213
  0
LINE
  8
0
 10
170.575
 20
9.18213
 11
170.992
 21
8.92003
  0
LINE
  8
0
 10
170.992
 20
8.92003
 11
171.34
 21
8.57167
  0
LINE
  8
0
 10
171.34
 20
8.57167
 11
171.602
 21
8.15454
  0
LINE
  8
0
 10
171.602
 20
8.15454
 11
171.765
 21
7.68954
  0
LINE
  8
0
 10
171.765
 20
7.68954
 11
171.82
 21
7.2
  0
LINE
  8
0
 10
171.82
 20
7.2
 11
171.765
 21
6.71045
  0
LINE
  8
0
 10
171.765
 20
6.71045
 11
171.602
 21
6.24545
  0
LINE
  8
0
 10
171.602
 20
6.24545
 11
171.34
 21
5.82831
  0
LINE
  8
0
 10
171.34
 20
5.82831
 11
170.992
 21
5.47997
  0
LINE
  8
0
 10
170.992
 20
5.47997
 11
170.575
 21
5.21786
  0
LINE
  8
0
 10
170.575
 20
5.21786
 11
170.11
 21
5.05515
  0
LINE
  8
0
 10
170.11
 20
5.05515
 11
169.62
 21
4.99998
  0
LINE
  8
0
 10
148.4
 20
4.99998
 11
147.91
 21
5.05515
  0
LINE
  8
0
 10
147.91
 20
5.05515
 11
147.445
 21
5.21786
  0
LINE
  8
0
 10
147.445
 20
5.21786
 11
147.028
 21
5.47997
  0
LINE
  8
0
 10
147.028
 20
5.47997
 11
146.68
 21
5.82831
  0
LINE
  8
0
 10
146.68
 20
5.82831
 11
146.418
 21
6.24545
  0
LINE
  8
0
 10
146.418
 20
6.24545
 11
146.255
 21
6.71045
  0
LINE
  8
0
 10
146.255
 20
6.71045
 11
146.2
 21
7.2
  0
LINE
  8
0
 10
146.2
 20
7.2
 11
146.255
 21
7.68954
  0
LINE
  8
0
 10
146.255
 20
7.68954
 11
146.418
 21
8.15454
  0
LINE
  8
0
 10
146.418
 20
8.15454
 11
146.68
 21
8.57167
  0
LINE
  8
0
 10
146.68
 20
8.57167
 11
147.028
 21
8.92003
  0
LINE
  8
0
 10
147.028
 20
8.92003
 11
147.445
 21
9.18213
  0
LINE
  8
0
 10
147.445
 20
9.18213
 11
147.91
 21
9.34483
  0
LINE
  8
0
 10
147.91
 20
9.34483
 11
148.4
 21
9.39999
  0
LINE
  8
0
 10
148.4
 20
9.39999
 11
148.89
 21
9.34483
  0
LINE
  8
0
 10
148.89
 20
9.34483
 11
149.355
 21
9.18213
  0
LINE
  8
0
 10
149.355
 20
9.18213
 11
149.772
 21
8.92003
  0
LINE
  8
0
 10
149.772
 20
8.92003
 11
150.12
 21
8.57167
  0
LINE
  8
0
 10
150.12
 20
8.57167
 11
150.382
 21
8.15454
  0
LINE
  8
0
 10
150.382
 20
8.15454
 11
150.545
 21
7.68954
  0
LINE
  8
0
 10
150.545
 20
7.68954
 11
150.6
 21
7.2
  0
LINE
  8
0
 10
150.6
 20
7.2
 11
150.545
 21
6.71045
  0
LINE
  8
0
 10
150.545
 20
6.71045
 11
150.382
 21
6.24545
  0
LINE
  8
0
 10
150.382
 20
6.24545
 11
150.12
 21
5.82831
  0
LINE
  8
0
 10
150.12
 20
5.82831
 11
149.772
 21
5.47997
  0
LINE
  8
0
 10
149.772
 20
5.47997
 11
149.355
 21
5.21786
  0
LINE
  8
0
 10
149.355
 20
5.21786
 11
148.89
 21
5.05515
  0
LINE
  8
0
 10
148.89
 20
5.05515
 11
148.4
 21
4.99998
  0
LINE
  8
0
 10
-139.95
 20
4.99998
 11
-140.44
 21
5.05515
  0
LINE
  8
0
 10
-140.44
 20
5.05515
 11
-140.905
 21
5.21786
  0
LINE
  8
0
 10
-140.905
 20
5.21786
 11
-141.322
 21
5.47997
  0
LINE
  8
0
 10
-141.322
 20
5.47997
 11
-141.67
 21
5.82831
  0
LINE
  8
0
 10
-141.67
 20
5.82831
 11
-141.932
 21
6.24545
  0
LINE
  8
0
 10
-141.932
 20
6.24545
 11
-142.095
 21
6.71045
  0
LINE
  8
0
 10
-142.095
 20
6.71045
 11
-142.15
 21
7.2
  0
LINE
  8
0
 10
-142.15
 20
7.2
 11
-142.095
 21
7.68954
  0
LINE
  8
0
 10
-142.095
 20
7.68954
 11
-141.932
 21
8.15454
  0
LINE
  8
0
 10
-141.932
 20
8.15454
 11
-141.67
 21
8.57167
  0
LINE
  8
0
 10
-141.67
 20
8.57167
 11
-141.322
 21
8.92003
  0
LINE
  8
0
 10
-141.322
 20
8.92003
 11
-140.905
 21
9.18213
  0
LINE
  8
0
 10
-140.905
 20
9.18213
 11
-140.44
 21
9.34483
  0
LINE
  8
0
 10
-140.44
 20
9.34483
 11
-139.95
 21
9.39999
  0
LINE
  8
0
 10
-139.95
 20
9.39999
 11
-139.46
 21
9.34483
  0
LINE
  8
0
 10
-139.46
 20
9.34483
 11
-138.995
 21
9.18213
  0
LINE
  8
0
 10
-138.995
 20
9.18213
 11
-138.578
 21
8.92003
  0
LINE
  8
0
 10
-138.578
 20
8.92003
 11
-138.23
 21
8.57167
  0
LINE
  8
0
 10
-138.23
 20
8.57167
 11
-137.968
 21
8.15454
  0
LINE
  8
0
 10
-137.968
 20
8.15454
 11
-137.805
 21
7.68954
  0
LINE
  8
0
 10
-137.805
 20
7.68954
 11
-137.75
 21
7.2
  0
LINE
  8
0
 10
-137.75
 20
7.2
 11
-137.805
 21
6.71045
  0
LINE
  8
0
 10
-137.805
 20
6.71045
 11
-137.968
 21
6.24545
  0
LINE
  8
0
 10
-137.968
 20
6.24545
 11
-138.23
 21
5.82831
  0
LINE
  8
0
 10
-138.23
 20
5.82831
 11
-138.578
 21
5.47997
  0
LINE
  8
0
 10
-138.578
 20
5.47997
 11
-138.995
 21
5.21786
  0
LINE
  8
0
 10
-138.995
 20
5.21786
 11
-139.46
 21
5.05515
  0
LINE
  8
0
 10
-139.46
 20
5.05515
 11
-139.95
 21
4.99998
  0
LINE
  8
0
 10
98.9977
 20
0.0102386
 11
99.4865
 21
0.0917969
  0
LINE
  8
0
 10
99.4865
 20
0.0917969
 11
99.9551
 21
0.25267
  0
LINE
  8
0
 10
99.9551
 20
0.25267
 11
100.391
 21
0.488495
  0
LINE
  8
0
 10
100.391
 20
0.488495
 11
100.782
 21
0.792816
  0
LINE
  8
0
 10
100.782
 20
0.792816
 11
101.117
 21
1.15735
  0
LINE
  8
0
 10
101.117
 20
1.15735
 11
101.388
 21
1.57214
  0
LINE
  8
0
 10
101.388
 20
1.57214
 11
101.587
 21
2.02589
  0
LINE
  8
0
 10
101.587
 20
2.02589
 11
101.709
 21
2.50621
  0
LINE
  8
0
 10
101.709
 20
2.50621
 11
101.75
 21
3
  0
LINE
  8
0
 10
101.75
 20
3
 11
101.74
 21
214.248
  0
LINE
  8
0
 10
101.74
 20
214.248
 11
101.658
 21
214.736
  0
LINE
  8
0
 10
101.658
 20
214.736
 11
101.497
 21
215.205
  0
LINE
  8
0
 10
101.497
 20
215.205
 11
101.261
 21
215.641
  0
LINE
  8
0
 10
101.261
 20
215.641
 11
100.957
 21
216.032
  0
LINE
  8
0
 10
100.957
 20
216.032
 11
100.593
 21
216.367
  0
LINE
  8
0
 10
100.593
 20
216.367
 11
100.178
 21
216.638
  0
LINE
  8
0
 10
100.178
 20
216.638
 11
99.7241
 21
216.837
  0
LINE
  8
0
 10
99.7241
 20
216.837
 11
99.2438
 21
216.959
  0
LINE
  8
0
 10
99.2438
 20
216.959
 11
98.75
 21
217
  0
LINE
  8
0
 10
98.75
 20
217
 11
11.76
 21
216.996
  0
LINE
  8
0
 10
11.76
 20
216.996
 11
11.76
 21
212
  0
LINE
  8
0
 10
11.76
 20
212
 11
-25.26
 21
212
  0
LINE
  8
0
 10
-25.26
 20
212
 11
-25.26
 21
216.994
  0
LINE
  8
0
 10
-25.26
 20
216.994
 11
-112.498
 21
216.99
  0
LINE
  8
0
 10
-112.498
 20
216.99
 11
-112.986
 21
216.908
  0
LINE
  8
0
 10
-112.986
 20
216.908
 11
-113.455
 21
216.747
  0
LINE
  8
0
 10
-113.455
 20
216.747
 11
-113.891
 21
216.511
  0
LINE
  8
0
 10
-113.891
 20
216.511
 11
-114.282
 21
216.207
  0
LINE
  8
0
 10
-114.282
 20
216.207
 11
-114.617
 21
215.843
  0
LINE
  8
0
 10
-114.617
 20
215.843
 11
-114.888
 21
215.428
  0
LINE
  8
0
 10
-114.888
 20
215.428
 11
-115.087
 21
214.974
  0
LINE
  8
0
 10
-115.087
 20
214.974
 11
-115.209
 21
214.494
  0
LINE
  8
0
 10
-115.209
 20
214.494
 11
-115.25
 21
214
  0
LINE
  8
0
 10
-115.25
 20
214
 11
-115.24
 21
2.75226
  0
LINE
  8
0
 10
-115.24
 20
2.75226
 11
-115.158
 21
2.26353
  0
LINE
  8
0
 10
-115.158
 20
2.26353
 11
-114.997
 21
1.79491
  0
LINE
  8
0
 10
-114.997
 20
1.79491
 11
-114.761
 21
1.35915
  0
LINE
  8
0
 10
-114.761
 20
1.35915
 11
-114.457
 21
0.968155
  0
LINE
  8
0
 10
-114.457
 20
0.968155
 11
-114.093
 21
0.632568
  0
LINE
  8
0
 10
-114.093
 20
0.632568
 11
-113.678
 21
0.361572
  0
LINE
  8
0
 10
-113.678
 20
0.361572
 11
-113.224
 21
0.162537
  0
LINE
  8
0
 10
-113.224
 20
0.162537
 11
-112.744
 21
0.0409088
  0
LINE
  8
0
 10
-112.744
 20
0.0409088
 11
-112.25
 21
0
  0
LINE
  8
0
 10
-112.25
 20
0
 11
98.9977
 21
0.0102386
  0
LINE
  8
0
 10
-111.728
 20
211.845
 11
-112.134
 21
212.116
  0
LINE
  8
0
 10
-112.134
 20
212.116
 11
-112.405
 21
212.522
  0
LINE
  8
0
 10
-112.405
 20
212.522
 11
-112.5
 21
213
  0
LINE
  8
0
 10
-112.5
 20
213
 11
-112.405
 21
213.478
  0
LINE
  8
0
 10
-112.405
 20
213.478
 11
-112.134
 21
213.884
  0
LINE
  8
0
 10
-112.134
 20
213.884
 11
-111.728
 21
214.155
  0
LINE
  8
0
 10
-111.728
 20
214.155
 11
-111.25
 21
214.25
  0
LINE
  8
0
 10
-111.25
 20
214.25
 11
-110.772
 21
214.155
  0
LINE
  8
0
 10
-110.772
 20
214.155
 11
-110.366
 21
213.884
  0
LINE
  8
0
 10
-110.366
 20
213.884
 11
-110.095
 21
213.478
  0
LINE
  8
0
 10
-110.095
 20
213.478
 11
-110
 21
213
  0
LINE
  8
0
 10
-110
 20
213
 11
-110.095
 21
212.522
  0
LINE
  8
0
 10
-110.095
 20
212.522
 11
-110.366
 21
212.116
  0
LINE
  8
0
 10
-110.366
 20
212.116
 11
-110.772
 21
211.845
  0
LINE
  8
0
 10
-110.772
 20
211.845
 11
-111.25
 21
211.75
  0
LINE
  8
0
 10
-111.25
 20
211.75
 11
-111.728
 21
211.845
  0
LINE
  8
0
 10
97.2716
 20
211.845
 11
96.8661
 21
212.116
  0
LINE
  8
0
 10
96.8661
 20
212.116
 11
96.5951
 21
212.522
  0
LINE
  8
0
 10
96.5951
 20
212.522
 11
96.5
 21
213
  0
LINE
  8
0
 10
96.5
 20
213
 11
96.5951
 21
213.478
  0
LINE
  8
0
 10
96.5951
 20
213.478
 11
96.8661
 21
213.884
  0
LINE
  8
0
 10
96.8661
 20
213.884
 11
97.2716
 21
214.155
  0
LINE
  8
0
 10
97.2716
 20
214.155
 11
97.75
 21
214.25
  0
LINE
  8
0
 10
97.75
 20
214.25
 11
98.2283
 21
214.155
  0
LINE
  8
0
 10
98.2283
 20
214.155
 11
98.6339
 21
213.884
  0
LINE
  8
0
 10
98.6339
 20
213.884
 11
98.9048
 21
213.478
  0
LINE
  8
0
 10
98.9048
 20
213.478
 11
99
 21
213
  0
LINE
  8
0
 10
99
 20
213
 11
98.9048
 21
212.522
  0
LINE
  8
0
 10
98.9048
 20
212.522
 11
98.6339
 21
212.116
  0
LINE
  8
0
 10
98.6339
 20
212.116
 11
98.2283
 21
211.845
  0
LINE
  8
0
 10
98.2283
 20
211.845
 11
97.75
 21
211.75
  0
LINE
  8
0
 10
97.75
 20
211.75
 11
97.2716
 21
211.845
  0
LINE
  8
0
 10
-27.7771
 20
205.391
 11
-28.235
 21
205.571
  0
LINE
  8
0
 10
-28.235
 20
205.571
 11
-28.6195
 21
205.878
  0
LINE
  8
0
 10
-28.6195
 20
205.878
 11
-28.8966
 21
206.284
  0
LINE
  8
0
 10
-28.8966
 20
206.284
 11
-29.0416
 21
206.754
  0
LINE
  8
0
 10
-29.0416
 20
206.754
 11
-29.0416
 21
207.246
  0
LINE
  8
0
 10
-29.0416
 20
207.246
 11
-28.8966
 21
207.716
  0
LINE
  8
0
 10
-28.8966
 20
207.716
 11
-28.6195
 21
208.122
  0
LINE
  8
0
 10
-28.6195
 20
208.122
 11
-28.235
 21
208.429
  0
LINE
  8
0
 10
-28.235
 20
208.429
 11
-27.7771
 21
208.609
  0
LINE
  8
0
 10
-27.7771
 20
208.609
 11
-27.2867
 21
208.645
  0
LINE
  8
0
 10
-27.2867
 20
208.645
 11
-26.8072
 21
208.536
  0
LINE
  8
0
 10
-26.8072
 20
208.536
 11
-26.3812
 21
208.29
  0
LINE
  8
0
 10
-26.3812
 20
208.29
 11
-26.0467
 21
207.929
  0
LINE
  8
0
 10
-26.0467
 20
207.929
 11
-25.8333
 21
207.486
  0
LINE
  8
0
 10
-25.8333
 20
207.486
 11
-25.76
 21
207
  0
LINE
  8
0
 10
-25.76
 20
207
 11
-25.8333
 21
206.514
  0
LINE
  8
0
 10
-25.8333
 20
206.514
 11
-26.0467
 21
206.071
  0
LINE
  8
0
 10
-26.0467
 20
206.071
 11
-26.3812
 21
205.71
  0
LINE
  8
0
 10
-26.3812
 20
205.71
 11
-26.8072
 21
205.464
  0
LINE
  8
0
 10
-26.8072
 20
205.464
 11
-27.2867
 21
205.355
  0
LINE
  8
0
 10
-27.2867
 20
205.355
 11
-27.7771
 21
205.391
  0
LINE
  8
0
 10
13.5428
 20
205.391
 11
13.085
 21
205.571
  0
LINE
  8
0
 10
13.085
 20
205.571
 11
12.7005
 21
205.878
  0
LINE
  8
0
 10
12.7005
 20
205.878
 11
12.4234
 21
206.284
  0
LINE
  8
0
 10
12.4234
 20
206.284
 11
12.2784
 21
206.754
  0
LINE
  8
0
 10
12.2784
 20
206.754
 11
12.2784
 21
207.246
  0
LINE
  8
0
 10
12.2784
 20
207.246
 11
12.4234
 21
207.716
  0
LINE
  8
0
 10
12.4234
 20
207.716
 11
12.7005
 21
208.122
  0
LINE
  8
0
 10
12.7005
 20
208.122
 11
13.085
 21
208.429
  0
LINE
  8
0
 10
13.085
 20
208.429
 11
13.5428
 21
208.609
  0
LINE
  8
0
 10
13.5428
 20
208.609
 11
14.0333
 21
208.645
  0
LINE
  8
0
 10
14.0333
 20
208.645
 11
14.5128
 21
208.536
  0
LINE
  8
0
 10
14.5128
 20
208.536
 11
14.9388
 21
208.29
  0
LINE
  8
0
 10
14.9388
 20
208.29
 11
15.2733
 21
207.929
  0
LINE
  8
0
 10
15.2733
 20
207.929
 11
15.4867
 21
207.486
  0
LINE
  8
0
 10
15.4867
 20
207.486
 11
15.56
 21
207
  0
LINE
  8
0
 10
15.56
 20
207
 11
15.4867
 21
206.514
  0
LINE
  8
0
 10
15.4867
 20
206.514
 11
15.2733
 21
206.071
  0
LINE
  8
0
 10
15.2733
 20
206.071
 11
14.9388
 21
205.71
  0
LINE
  8
0
 10
14.9388
 20
205.71
 11
14.5128
 21
205.464
  0
LINE
  8
0
 10
14.5128
 20
205.464
 11
14.0333
 21
205.355
  0
LINE
  8
0
 10
14.0333
 20
205.355
 11
13.5428
 21
205.391
  0
LINE
  8
0
 10
-82.1528
 20
196.464
 11
-82.5788
 21
196.71
  0
LINE
  8
0
 10
-82.5788
 20
196.71
 11
-82.9133
 21
197.071
  0
LINE
  8
0
 10
-82.9133
 20
197.071
 11
-83.1267
 21
197.514
  0
LINE
  8
0
 10
-83.1267
 20
197.514
 11
-83.2
 21
198
  0
LINE
  8
0
 10
-83.2
 20
198
 11
-83.1267
 21
198.486
  0
LINE
  8
0
 10
-83.1267
 20
198.486
 11
-82.9133
 21
198.929
  0
LINE
  8
0
 10
-82.9133
 20
198.929
 11
-82.5788
 21
199.29
  0
LINE
  8
0
 10
-82.5788
 20
199.29
 11
-82.1528
 21
199.536
  0
LINE
  8
0
 10
-82.1528
 20
199.536
 11
-81.6733
 21
199.645
  0
LINE
  8
0
 10
-81.6733
 20
199.645
 11
-81.1828
 21
199.609
  0
LINE
  8
0
 10
-81.1828
 20
199.609
 11
-80.725
 21
199.429
  0
LINE
  8
0
 10
-80.725
 20
199.429
 11
-80.3405
 21
199.122
  0
LINE
  8
0
 10
-80.3405
 20
199.122
 11
-80.0634
 21
198.716
  0
LINE
  8
0
 10
-80.0634
 20
198.716
 11
-79.9184
 21
198.246
  0
LINE
  8
0
 10
-79.9184
 20
198.246
 11
-79.9184
 21
197.754
  0
LINE
  8
0
 10
-79.9184
 20
197.754
 11
-80.0634
 21
197.284
  0
LINE
  8
0
 10
-80.0634
 20
197.284
 11
-80.3405
 21
196.878
  0
LINE
  8
0
 10
-80.3405
 20
196.878
 11
-80.725
 21
196.571
  0
LINE
  8
0
 10
-80.725
 20
196.571
 11
-81.1828
 21
196.391
  0
LINE
  8
0
 10
-81.1828
 20
196.391
 11
-81.6733
 21
196.355
  0
LINE
  8
0
 10
-81.6733
 20
196.355
 11
-82.1528
 21
196.464
  0
LINE
  8
0
 10
-109.553
 20
176.464
 11
-109.979
 21
176.71
  0
LINE
  8
0
 10
-109.979
 20
176.71
 11
-110.313
 21
177.071
  0
LINE
  8
0
 10
-110.313
 20
177.071
 11
-110.527
 21
177.514
  0
LINE
  8
0
 10
-110.527
 20
177.514
 11
-110.6
 21
178
  0
LINE
  8
0
 10
-110.6
 20
178
 11
-110.527
 21
178.486
  0
LINE
  8
0
 10
-110.527
 20
178.486
 11
-110.313
 21
178.929
  0
LINE
  8
0
 10
-110.313
 20
178.929
 11
-109.979
 21
179.29
  0
LINE
  8
0
 10
-109.979
 20
179.29
 11
-109.553
 21
179.536
  0
LINE
  8
0
 10
-109.553
 20
179.536
 11
-109.073
 21
179.645
  0
LINE
  8
0
 10
-109.073
 20
179.645
 11
-108.583
 21
179.609
  0
LINE
  8
0
 10
-108.583
 20
179.609
 11
-108.125
 21
179.429
  0
LINE
  8
0
 10
-108.125
 20
179.429
 11
-107.74
 21
179.122
  0
LINE
  8
0
 10
-107.74
 20
179.122
 11
-107.463
 21
178.716
  0
LINE
  8
0
 10
-107.463
 20
178.716
 11
-107.318
 21
178.246
  0
LINE
  8
0
 10
-107.318
 20
178.246
 11
-107.318
 21
177.754
  0
LINE
  8
0
 10
-107.318
 20
177.754
 11
-107.463
 21
177.284
  0
LINE
  8
0
 10
-107.463
 20
177.284
 11
-107.74
 21
176.878
  0
LINE
  8
0
 10
-107.74
 20
176.878
 11
-108.125
 21
176.571
  0
LINE
  8
0
 10
-108.125
 20
176.571
 11
-108.583
 21
176.391
  0
LINE
  8
0
 10
-108.583
 20
176.391
 11
-109.073
 21
176.355
  0
LINE
  8
0
 10
-109.073
 20
176.355
 11
-109.553
 21
176.464
  0
LINE
  8
0
 10
-38.6272
 20
167.716
 11
-39.085
 21
167.896
  0
LINE
  8
0
 10
-39.085
 20
167.896
 11
-39.4695
 21
168.202
  0
LINE
  8
0
 10
-39.4695
 20
168.202
 11
-39.7466
 21
168.609
  0
LINE
  8
0
 10
-39.7466
 20
168.609
 11
-39.8916
 21
169.079
  0
LINE
  8
0
 10
-39.8916
 20
169.079
 11
-39.8916
 21
169.57
  0
LINE
  8
0
 10
-39.8916
 20
169.57
 11
-39.7466
 21
170.04
  0
LINE
  8
0
 10
-39.7466
 20
170.04
 11
-39.4695
 21
170.447
  0
LINE
  8
0
 10
-39.4695
 20
170.447
 11
-39.085
 21
170.754
  0
LINE
  8
0
 10
-39.085
 20
170.754
 11
-38.6272
 21
170.933
  0
LINE
  8
0
 10
-38.6272
 20
170.933
 11
-38.1367
 21
170.97
  0
LINE
  8
0
 10
-38.1367
 20
170.97
 11
-37.6572
 21
170.861
  0
LINE
  8
0
 10
-37.6572
 20
170.861
 11
-37.2312
 21
170.615
  0
LINE
  8
0
 10
-37.2312
 20
170.615
 11
-36.8967
 21
170.254
  0
LINE
  8
0
 10
-36.8967
 20
170.254
 11
-36.6833
 21
169.811
  0
LINE
  8
0
 10
-36.6833
 20
169.811
 11
-36.61
 21
169.325
  0
LINE
  8
0
 10
-36.61
 20
169.325
 11
-36.6833
 21
168.838
  0
LINE
  8
0
 10
-36.6833
 20
168.838
 11
-36.8967
 21
168.395
  0
LINE
  8
0
 10
-36.8967
 20
168.395
 11
-37.2312
 21
168.035
  0
LINE
  8
0
 10
-37.2312
 20
168.035
 11
-37.6572
 21
167.789
  0
LINE
  8
0
 10
-37.6572
 20
167.789
 11
-38.1367
 21
167.679
  0
LINE
  8
0
 10
-38.1367
 20
167.679
 11
-38.6272
 21
167.716
  0
LINE
  8
0
 10
-38.6272
 20
153.067
 11
-39.085
 21
153.246
  0
LINE
  8
0
 10
-39.085
 20
153.246
 11
-39.4695
 21
153.553
  0
LINE
  8
0
 10
-39.4695
 20
153.553
 11
-39.7466
 21
153.96
  0
LINE
  8
0
 10
-39.7466
 20
153.96
 11
-39.8916
 21
154.429
  0
LINE
  8
0
 10
-39.8916
 20
154.429
 11
-39.8916
 21
154.921
  0
LINE
  8
0
 10
-39.8916
 20
154.921
 11
-39.7466
 21
155.391
  0
LINE
  8
0
 10
-39.7466
 20
155.391
 11
-39.4695
 21
155.798
  0
LINE
  8
0
 10
-39.4695
 20
155.798
 11
-39.085
 21
156.104
  0
LINE
  8
0
 10
-39.085
 20
156.104
 11
-38.6272
 21
156.284
  0
LINE
  8
0
 10
-38.6272
 20
156.284
 11
-38.1367
 21
156.321
  0
LINE
  8
0
 10
-38.1367
 20
156.321
 11
-37.6572
 21
156.211
  0
LINE
  8
0
 10
-37.6572
 20
156.211
 11
-37.2312
 21
155.965
  0
LINE
  8
0
 10
-37.2312
 20
155.965
 11
-36.8967
 21
155.605
  0
LINE
  8
0
 10
-36.8967
 20
155.605
 11
-36.6833
 21
155.162
  0
LINE
  8
0
 10
-36.6833
 20
155.162
 11
-36.61
 21
154.675
  0
LINE
  8
0
 10
-36.61
 20
154.675
 11
-36.6833
 21
154.189
  0
LINE
  8
0
 10
-36.6833
 20
154.189
 11
-36.8967
 21
153.746
  0
LINE
  8
0
 10
-36.8967
 20
153.746
 11
-37.2312
 21
153.385
  0
LINE
  8
0
 10
-37.2312
 20
153.385
 11
-37.6572
 21
153.139
  0
LINE
  8
0
 10
-37.6572
 20
153.139
 11
-38.1367
 21
153.03
  0
LINE
  8
0
 10
-38.1367
 20
153.03
 11
-38.6272
 21
153.067
  0
LINE
  8
0
 10
94.8472
 20
116.964
 11
94.4212
 21
117.21
  0
LINE
  8
0
 10
94.4212
 20
117.21
 11
94.0867
 21
117.571
  0
LINE
  8
0
 10
94.0867
 20
117.571
 11
93.8733
 21
118.014
  0
LINE
  8
0
 10
93.8733
 20
118.014
 11
93.8
 21
118.5
  0
LINE
  8
0
 10
93.8
 20
118.5
 11
93.8733
 21
118.986
  0
LINE
  8
0
 10
93.8733
 20
118.986
 11
94.0867
 21
119.429
  0
LINE
  8
0
 10
94.0867
 20
119.429
 11
94.4212
 21
119.79
  0
LINE
  8
0
 10
94.4212
 20
119.79
 11
94.8472
 21
120.036
  0
LINE
  8
0
 10
94.8472
 20
120.036
 11
95.3267
 21
120.145
  0
LINE
  8
0
 10
95.3267
 20
120.145
 11
95.8172
 21
120.109
  0
LINE
  8
0
 10
95.8172
 20
120.109
 11
96.275
 21
119.929
  0
LINE
  8
0
 10
96.275
 20
119.929
 11
96.6595
 21
119.622
  0
LINE
  8
0
 10
96.6595
 20
119.622
 11
96.9366
 21
119.216
  0
LINE
  8
0
 10
96.9366
 20
119.216
 11
97.0816
 21
118.746
  0
LINE
  8
0
 10
97.0816
 20
118.746
 11
97.0816
 21
118.254
  0
LINE
  8
0
 10
97.0816
 20
118.254
 11
96.9366
 21
117.784
  0
LINE
  8
0
 10
96.9366
 20
117.784
 11
96.6595
 21
117.378
  0
LINE
  8
0
 10
96.6595
 20
117.378
 11
96.275
 21
117.071
  0
LINE
  8
0
 10
96.275
 20
117.071
 11
95.8172
 21
116.891
  0
LINE
  8
0
 10
95.8172
 20
116.891
 11
95.3267
 21
116.855
  0
LINE
  8
0
 10
95.3267
 20
116.855
 11
94.8472
 21
116.964
  0
LINE
  8
0
 10
67.4472
 20
96.9641
 11
67.0212
 21
97.21
  0
LINE
  8
0
 10
67.0212
 20
97.21
 11
66.6867
 21
97.5705
  0
LINE
  8
0
 10
66.6867
 20
97.5705
 11
66.4733
 21
98.0136
  0
LINE
  8
0
 10
66.4733
 20
98.0136
 11
66.4
 21
98.5
  0
LINE
  8
0
 10
66.4
 20
98.5
 11
66.4733
 21
98.9863
  0
LINE
  8
0
 10
66.4733
 20
98.9863
 11
66.6867
 21
99.4295
  0
LINE
  8
0
 10
66.6867
 20
99.4295
 11
67.0212
 21
99.79
  0
LINE
  8
0
 10
67.0212
 20
99.79
 11
67.4472
 21
100.036
  0
LINE
  8
0
 10
67.4472
 20
100.036
 11
67.9267
 21
100.145
  0
LINE
  8
0
 10
67.9267
 20
100.145
 11
68.4171
 21
100.109
  0
LINE
  8
0
 10
68.4171
 20
100.109
 11
68.875
 21
99.9289
  0
LINE
  8
0
 10
68.875
 20
99.9289
 11
69.2595
 21
99.6223
  0
LINE
  8
0
 10
69.2595
 20
99.6223
 11
69.5366
 21
99.2159
  0
LINE
  8
0
 10
69.5366
 20
99.2159
 11
69.6816
 21
98.7459
  0
LINE
  8
0
 10
69.6816
 20
98.7459
 11
69.6816
 21
98.2541
  0
LINE
  8
0
 10
69.6816
 20
98.2541
 11
69.5366
 21
97.7841
  0
LINE
  8
0
 10
69.5366
 20
97.7841
 11
69.2595
 21
97.3777
  0
LINE
  8
0
 10
69.2595
 20
97.3777
 11
68.875
 21
97.071
  0
LINE
  8
0
 10
68.875
 20
97.071
 11
68.4171
 21
96.8914
  0
LINE
  8
0
 10
68.4171
 20
96.8914
 11
67.9267
 21
96.8546
  0
LINE
  8
0
 10
67.9267
 20
96.8546
 11
67.4472
 21
96.9641
  0
LINE
  8
0
 10
-38.8628
 20
67.9386
 11
-39.2888
 21
68.1846
  0
LINE
  8
0
 10
-39.2888
 20
68.1846
 11
-39.6233
 21
68.5451
  0
LINE
  8
0
 10
-39.6233
 20
68.5451
 11
-39.8367
 21
68.9882
  0
LINE
  8
0
 10
-39.8367
 20
68.9882
 11
-39.91
 21
69.4746
  0
LINE
  8
0
 10
-39.91
 20
69.4746
 11
-39.8367
 21
69.9609
  0
LINE
  8
0
 10
-39.8367
 20
69.9609
 11
-39.6233
 21
70.4041
  0
LINE
  8
0
 10
-39.6233
 20
70.4041
 11
-39.2888
 21
70.7646
  0
LINE
  8
0
 10
-39.2888
 20
70.7646
 11
-38.8628
 21
71.0105
  0
LINE
  8
0
 10
-38.8628
 20
71.0105
 11
-38.3833
 21
71.12
  0
LINE
  8
0
 10
-38.3833
 20
71.12
 11
-37.8928
 21
71.0832
  0
LINE
  8
0
 10
-37.8928
 20
71.0832
 11
-37.435
 21
70.9035
  0
LINE
  8
0
 10
-37.435
 20
70.9035
 11
-37.0505
 21
70.5969
  0
LINE
  8
0
 10
-37.0505
 20
70.5969
 11
-36.7734
 21
70.1905
  0
LINE
  8
0
 10
-36.7734
 20
70.1905
 11
-36.6284
 21
69.7205
  0
LINE
  8
0
 10
-36.6284
 20
69.7205
 11
-36.6284
 21
69.2287
  0
LINE
  8
0
 10
-36.6284
 20
69.2287
 11
-36.7734
 21
68.7587
  0
LINE
  8
0
 10
-36.7734
 20
68.7587
 11
-37.0505
 21
68.3523
  0
LINE
  8
0
 10
-37.0505
 20
68.3523
 11
-37.435
 21
68.0456
  0
LINE
  8
0
 10
-37.435
 20
68.0456
 11
-37.8928
 21
67.8659
  0
LINE
  8
0
 10
-37.8928
 20
67.8659
 11
-38.3833
 21
67.8292
  0
LINE
  8
0
 10
-38.3833
 20
67.8292
 11
-38.8628
 21
67.9386
  0
LINE
  8
0
 10
-38.8628
 20
53.2895
 11
-39.2888
 21
53.5354
  0
LINE
  8
0
 10
-39.2888
 20
53.5354
 11
-39.6233
 21
53.8959
  0
LINE
  8
0
 10
-39.6233
 20
53.8959
 11
-39.8367
 21
54.3391
  0
LINE
  8
0
 10
-39.8367
 20
54.3391
 11
-39.91
 21
54.8254
  0
LINE
  8
0
 10
-39.91
 20
54.8254
 11
-39.8367
 21
55.3118
  0
LINE
  8
0
 10
-39.8367
 20
55.3118
 11
-39.6233
 21
55.7549
  0
LINE
  8
0
 10
-39.6233
 20
55.7549
 11
-39.2888
 21
56.1154
  0
LINE
  8
0
 10
-39.2888
 20
56.1154
 11
-38.8628
 21
56.3614
  0
LINE
  8
0
 10
-38.8628
 20
56.3614
 11
-38.3833
 21
56.4708
  0
LINE
  8
0
 10
-38.3833
 20
56.4708
 11
-37.8928
 21
56.434
  0
LINE
  8
0
 10
-37.8928
 20
56.434
 11
-37.435
 21
56.2543
  0
LINE
  8
0
 10
-37.435
 20
56.2543
 11
-37.0505
 21
55.9477
  0
LINE
  8
0
 10
-37.0505
 20
55.9477
 11
-36.7734
 21
55.5413
  0
LINE
  8
0
 10
-36.7734
 20
55.5413
 11
-36.6284
 21
55.0713
  0
LINE
  8
0
 10
-36.6284
 20
55.0713
 11
-36.6284
 21
54.5795
  0
LINE
  8
0
 10
-36.6284
 20
54.5795
 11
-36.7734
 21
54.1095
  0
LINE
  8
0
 10
-36.7734
 20
54.1095
 11
-37.0505
 21
53.7031
  0
LINE
  8
0
 10
-37.0505
 20
53.7031
 11
-37.435
 21
53.3965
  0
LINE
  8
0
 10
-37.435
 20
53.3965
 11
-37.8928
 21
53.2168
  0
LINE
  8
0
 10
-37.8928
 20
53.2168
 11
-38.3833
 21
53.18
  0
LINE
  8
0
 10
-38.3833
 20
53.18
 11
-38.8628
 21
53.2895
  0
LINE
  8
0
 10
-82.1528
 20
37.4641
 11
-82.5788
 21
37.71
  0
LINE
  8
0
 10
-82.5788
 20
37.71
 11
-82.9133
 21
38.0705
  0
LINE
  8
0
 10
-82.9133
 20
38.0705
 11
-83.1267
 21
38.5136
  0
LINE
  8
0
 10
-83.1267
 20
38.5136
 11
-83.2
 21
39
  0
LINE
  8
0
 10
-83.2
 20
39
 11
-83.1267
 21
39.4863
  0
LINE
  8
0
 10
-83.1267
 20
39.4863
 11
-82.9133
 21
39.9295
  0
LINE
  8
0
 10
-82.9133
 20
39.9295
 11
-82.5788
 21
40.29
  0
LINE
  8
0
 10
-82.5788
 20
40.29
 11
-82.1528
 21
40.5359
  0
LINE
  8
0
 10
-82.1528
 20
40.5359
 11
-81.6733
 21
40.6454
  0
LINE
  8
0
 10
-81.6733
 20
40.6454
 11
-81.1828
 21
40.6086
  0
LINE
  8
0
 10
-81.1828
 20
40.6086
 11
-80.725
 21
40.4289
  0
LINE
  8
0
 10
-80.725
 20
40.4289
 11
-80.3405
 21
40.1223
  0
LINE
  8
0
 10
-80.3405
 20
40.1223
 11
-80.0634
 21
39.7159
  0
LINE
  8
0
 10
-80.0634
 20
39.7159
 11
-79.9184
 21
39.2459
  0
LINE
  8
0
 10
-79.9184
 20
39.2459
 11
-79.9184
 21
38.7541
  0
LINE
  8
0
 10
-79.9184
 20
38.7541
 11
-80.0634
 21
38.2841
  0
LINE
  8
0
 10
-80.0634
 20
38.2841
 11
-80.3405
 21
37.8777
  0
LINE
  8
0
 10
-80.3405
 20
37.8777
 11
-80.725
 21
37.571
  0
LINE
  8
0
 10
-80.725
 20
37.571
 11
-81.1828
 21
37.3914
  0
LINE
  8
0
 10
-81.1828
 20
37.3914
 11
-81.6733
 21
37.3546
  0
LINE
  8
0
 10
-81.6733
 20
37.3546
 11
-82.1528
 21
37.4641
  0
LINE
  8
0
 10
-109.553
 20
17.4641
 11
-109.979
 21
17.71
  0
LINE
  8
0
 10
-109.979
 20
17.71
 11
-110.313
 21
18.0705
  0
LINE
  8
0
 10
-110.313
 20
18.0705
 11
-110.527
 21
18.5136
  0
LINE
  8
0
 10
-110.527
 20
18.5136
 11
-110.6
 21
19
  0
LINE
  8
0
 10
-110.6
 20
19
 11
-110.527
 21
19.4863
  0
LINE
  8
0
 10
-110.527
 20
19.4863
 11
-110.313
 21
19.9295
  0
LINE
  8
0
 10
-110.313
 20
19.9295
 11
-109.979
 21
20.29
  0
LINE
  8
0
 10
-109.979
 20
20.29
 11
-109.553
 21
20.5359
  0
LINE
  8
0
 10
-109.553
 20
20.5359
 11
-109.073
 21
20.6454
  0
LINE
  8
0
 10
-109.073
 20
20.6454
 11
-108.583
 21
20.6086
  0
LINE
  8
0
 10
-108.583
 20
20.6086
 11
-108.125
 21
20.4289
  0
LINE
  8
0
 10
-108.125
 20
20.4289
 11
-107.74
 21
20.1223
  0
LINE
  8
0
 10
-107.74
 20
20.1223
 11
-107.463
 21
19.7159
  0
LINE
  8
0
 10
-107.463
 20
19.7159
 11
-107.318
 21
19.2459
  0
LINE
  8
0
 10
-107.318
 20
19.2459
 11
-107.318
 21
18.7541
  0
LINE
  8
0
 10
-107.318
 20
18.7541
 11
-107.463
 21
18.2841
  0
LINE
  8
0
 10
-107.463
 20
18.2841
 11
-107.74
 21
17.8777
  0
LINE
  8
0
 10
-107.74
 20
17.8777
 11
-108.125
 21
17.571
  0
LINE
  8
0
 10
-108.125
 20
17.571
 11
-108.583
 21
17.3914
  0
LINE
  8
0
 10
-108.583
 20
17.3914
 11
-109.073
 21
17.3546
  0
LINE
  8
0
 10
-109.073
 20
17.3546
 11
-109.553
 21
17.4641
  0
LINE
  8
0
 10
-111.728
 20
2.84514
 11
-112.134
 21
3.1161
  0
LINE
  8
0
 10
-112.134
 20
3.1161
 11
-112.405
 21
3.52164
  0
LINE
  8
0
 10
-112.405
 20
3.52164
 11
-112.5
 21
4
  0
LINE
  8
0
 10
-112.5
 20
4
 11
-112.405
 21
4.47835
  0
LINE
  8
0
 10
-112.405
 20
4.47835
 11
-112.134
 21
4.88388
  0
LINE
  8
0
 10
-112.134
 20
4.88388
 11
-111.728
 21
5.15485
  0
LINE
  8
0
 10
-111.728
 20
5.15485
 11
-111.25
 21
5.25
  0
LINE
  8
0
 10
-111.25
 20
5.25
 11
-110.772
 21
5.15485
  0
LINE
  8
0
 10
-110.772
 20
5.15485
 11
-110.366
 21
4.88388
  0
LINE
  8
0
 10
-110.366
 20
4.88388
 11
-110.095
 21
4.47835
  0
LINE
  8
0
 10
-110.095
 20
4.47835
 11
-110
 21
4
  0
LINE
  8
0
 10
-110
 20
4
 11
-110.095
 21
3.52164
  0
LINE
  8
0
 10
-110.095
 20
3.52164
 11
-110.366
 21
3.1161
  0
LINE
  8
0
 10
-110.366
 20
3.1161
 11
-110.772
 21
2.84514
  0
LINE
  8
0
 10
-110.772
 20
2.84514
 11
-111.25
 21
2.75
  0
LINE
  8
0
 10
-111.25
 20
2.75
 11
-111.728
 21
2.84514
  0
LINE
  8
0
 10
97.2716
 20
2.84514
 11
96.8661
 21
3.1161
  0
LINE
  8
0
 10
96.8661
 20
3.1161
 11
96.5951
 21
3.52164
  0
LINE
  8
0
 10
96.5951
 20
3.52164
 11
96.5
 21
4
  0
LINE
  8
0
 10
96.5
 20
4
 11
96.5951
 21
4.47835
  0
LINE
  8
0
 10
96.5951
 20
4.47835
 11
96.8661
 21
4.88388
  0
LINE
  8
0
 10
96.8661
 20
4.88388
 11
97.2716
 21
5.15485
  0
LINE
  8
0
 10
97.2716
 20
5.15485
 11
97.75
 21
5.25
  0
LINE
  8
0
 10
97.75
 20
5.25
 11
98.2283
 21
5.15485
  0
LINE
  8
0
 10
98.2283
 20
5.15485
 11
98.6339
 21
4.88388
  0
LINE
  8
0
 10
98.6339
 20
4.88388
 11
98.9048
 21
4.47835
  0
LINE
  8
0
 10
98.9048
 20
4.47835
 11
99
 21
4
  0
LINE
  8
0
 10
99
 20
4
 11
98.9048
 21
3.52164
  0
LINE
  8
0
 10
98.9048
 20
3.52164
 11
98.6339
 21
3.1161
  0
LINE
  8
0
 10
98.6339
 20
3.1161
 11
98.2283
 21
2.84514
  0
LINE
  8
0
 10
98.2283
 20
2.84514
 11
97.75
 21
2.75
  0
LINE
  8
0
 10
97.75
 20
2.75
 11
97.2716
 21
2.84514
  0
ENDSEC
  0
SECTION
  2
OBJECTS
  0
DICTIONARY
  0
ENDSEC
  0
EOF
