  0
SECTION
  2
BLOCKS
  0
ENDSEC
  0
SECTION
  2
ENTITIES
  0
LINE
  8
0
 10
-236.25
 20
9.32587e-15
 11
-197.63
 21
9.32587e-15
  0
LINE
  8
0
 10
-197.63
 20
9.32587e-15
 11
-197.63
 21
2.5
  0
LINE
  8
0
 10
-197.63
 20
2.5
 11
-197.605
 21
2.75118
  0
LINE
  8
0
 10
-197.605
 20
2.75118
 11
-197.582
 21
2.98773
  0
LINE
  8
0
 10
-197.582
 20
2.98773
 11
-197.44
 21
3.45671
  0
LINE
  8
0
 10
-197.44
 20
3.45671
 11
-197.209
 21
3.88893
  0
LINE
  8
0
 10
-197.209
 20
3.88893
 11
-196.898
 21
4.26777
  0
LINE
  8
0
 10
-196.898
 20
4.26777
 11
-196.519
 21
4.57867
  0
LINE
  8
0
 10
-196.519
 20
4.57867
 11
-196.087
 21
4.8097
  0
LINE
  8
0
 10
-196.087
 20
4.8097
 11
-195.618
 21
4.95196
  0
LINE
  8
0
 10
-195.618
 20
4.95196
 11
-195.381
 21
4.97526
  0
LINE
  8
0
 10
-195.381
 20
4.97526
 11
-195.13
 21
5
  0
LINE
  8
0
 10
-195.13
 20
5
 11
-194.879
 21
4.97526
  0
LINE
  8
0
 10
-194.879
 20
4.97526
 11
-194.642
 21
4.95196
  0
LINE
  8
0
 10
-194.642
 20
4.95196
 11
-194.173
 21
4.8097
  0
LINE
  8
0
 10
-194.173
 20
4.8097
 11
-193.741
 21
4.57867
  0
LINE
  8
0
 10
-193.741
 20
4.57867
 11
-193.362
 21
4.26777
  0
LINE
  8
0
 10
-193.362
 20
4.26777
 11
-193.051
 21
3.88893
  0
LINE
  8
0
 10
-193.051
 20
3.88893
 11
-192.82
 21
3.45671
  0
LINE
  8
0
 10
-192.82
 20
3.45671
 11
-192.678
 21
2.98773
  0
LINE
  8
0
 10
-192.678
 20
2.98773
 11
-192.655
 21
2.75118
  0
LINE
  8
0
 10
-192.655
 20
2.75118
 11
-192.63
 21
2.5
  0
LINE
  8
0
 10
-192.63
 20
2.5
 11
-192.63
 21
9.32587e-15
  0
LINE
  8
0
 10
-192.63
 20
9.32587e-15
 11
-131.75
 21
9.32587e-15
  0
LINE
  8
0
 10
-131.75
 20
9.32587e-15
 11
-131.75
 21
278.1
  0
LINE
  8
0
 10
-131.75
 20
278.1
 11
-131.744
 21
278.1
  0
LINE
  8
0
 10
-131.744
 20
278.1
 11
-131.744
 21
278.349
  0
LINE
  8
0
 10
-131.744
 20
278.349
 11
-131.694
 21
278.845
  0
LINE
  8
0
 10
-131.694
 20
278.845
 11
-131.595
 21
279.334
  0
LINE
  8
0
 10
-131.595
 20
279.334
 11
-131.448
 21
279.81
  0
LINE
  8
0
 10
-131.448
 20
279.81
 11
-131.255
 21
280.269
  0
LINE
  8
0
 10
-131.255
 20
280.269
 11
-131.016
 21
280.707
  0
LINE
  8
0
 10
-131.016
 20
280.707
 11
-130.736
 21
281.119
  0
LINE
  8
0
 10
-130.736
 20
281.119
 11
-130.415
 21
281.501
  0
LINE
  8
0
 10
-130.415
 20
281.501
 11
-130.058
 21
281.849
  0
LINE
  8
0
 10
-130.058
 20
281.849
 11
-129.669
 21
282.16
  0
LINE
  8
0
 10
-129.669
 20
282.16
 11
-129.25
 21
282.43
  0
LINE
  8
0
 10
-129.25
 20
282.43
 11
-128.806
 21
282.658
  0
LINE
  8
0
 10
-128.806
 20
282.658
 11
-128.342
 21
282.84
  0
LINE
  8
0
 10
-128.342
 20
282.84
 11
-127.863
 21
282.975
  0
LINE
  8
0
 10
-127.863
 20
282.975
 11
-127.372
 21
283.061
  0
LINE
  8
0
 10
-127.372
 20
283.061
 11
-126.875
 21
283.098
  0
LINE
  8
0
 10
-126.875
 20
283.098
 11
-126.75
 21
283.095
  0
LINE
  8
0
 10
-126.75
 20
283.095
 11
-126.75
 21
283.1
  0
LINE
  8
0
 10
-126.75
 20
283.1
 11
113.25
 21
283.1
  0
LINE
  8
0
 10
113.25
 20
283.1
 11
113.25
 21
283.095
  0
LINE
  8
0
 10
113.25
 20
283.095
 11
113.624
 21
283.086
  0
LINE
  8
0
 10
113.624
 20
283.086
 11
114.118
 21
283.024
  0
LINE
  8
0
 10
114.118
 20
283.024
 11
114.604
 21
282.913
  0
LINE
  8
0
 10
114.604
 20
282.913
 11
115.077
 21
282.754
  0
LINE
  8
0
 10
115.077
 20
282.754
 11
115.531
 21
282.549
  0
LINE
  8
0
 10
115.531
 20
282.549
 11
115.963
 21
282.3
  0
LINE
  8
0
 10
115.963
 20
282.3
 11
116.367
 21
282.009
  0
LINE
  8
0
 10
116.367
 20
282.009
 11
116.741
 21
281.679
  0
LINE
  8
0
 10
116.741
 20
281.679
 11
117.08
 21
281.314
  0
LINE
  8
0
 10
117.08
 20
281.314
 11
117.381
 21
280.917
  0
LINE
  8
0
 10
117.381
 20
280.917
 11
117.641
 21
280.491
  0
LINE
  8
0
 10
117.641
 20
280.491
 11
117.857
 21
280.042
  0
LINE
  8
0
 10
117.857
 20
280.042
 11
118.028
 21
279.574
  0
LINE
  8
0
 10
118.028
 20
279.574
 11
118.151
 21
279.091
  0
LINE
  8
0
 10
118.151
 20
279.091
 11
118.225
 21
278.598
  0
LINE
  8
0
 10
118.225
 20
278.598
 11
118.25
 21
278.1
  0
LINE
  8
0
 10
118.25
 20
278.1
 11
118.25
 21
9.32587e-15
  0
LINE
  8
0
 10
118.25
 20
9.32587e-15
 11
236.25
 21
9.32587e-15
  0
LINE
  8
0
 10
236.25
 20
9.32587e-15
 11
236.25
 21
359
  0
LINE
  8
0
 10
236.25
 20
359
 11
236.155
 21
361.179
  0
LINE
  8
0
 10
236.155
 20
361.179
 11
235.87
 21
363.341
  0
LINE
  8
0
 10
235.87
 20
363.341
 11
235.398
 21
365.47
  0
LINE
  8
0
 10
235.398
 20
365.47
 11
234.742
 21
367.551
  0
LINE
  8
0
 10
234.742
 20
367.551
 11
233.908
 21
369.565
  0
LINE
  8
0
 10
233.908
 20
369.565
 11
232.901
 21
371.5
  0
LINE
  8
0
 10
232.901
 20
371.5
 11
231.729
 21
373.339
  0
LINE
  8
0
 10
231.729
 20
373.339
 11
230.401
 21
375.07
  0
LINE
  8
0
 10
230.401
 20
375.07
 11
228.928
 21
376.678
  0
LINE
  8
0
 10
228.928
 20
376.678
 11
227.32
 21
378.151
  0
LINE
  8
0
 10
227.32
 20
378.151
 11
225.589
 21
379.479
  0
LINE
  8
0
 10
225.589
 20
379.479
 11
223.75
 21
380.651
  0
LINE
  8
0
 10
223.75
 20
380.651
 11
221.815
 21
381.658
  0
LINE
  8
0
 10
221.815
 20
381.658
 11
219.801
 21
382.492
  0
LINE
  8
0
 10
219.801
 20
382.492
 11
217.72
 21
383.148
  0
LINE
  8
0
 10
217.72
 20
383.148
 11
215.591
 21
383.62
  0
LINE
  8
0
 10
215.591
 20
383.62
 11
213.429
 21
383.905
  0
LINE
  8
0
 10
213.429
 20
383.905
 11
211.25
 21
384
  0
LINE
  8
0
 10
211.25
 20
384
 11
-211.25
 21
384
  0
LINE
  8
0
 10
-211.25
 20
384
 11
-213.429
 21
383.905
  0
LINE
  8
0
 10
-213.429
 20
383.905
 11
-215.591
 21
383.62
  0
LINE
  8
0
 10
-215.591
 20
383.62
 11
-217.72
 21
383.148
  0
LINE
  8
0
 10
-217.72
 20
383.148
 11
-219.801
 21
382.492
  0
LINE
  8
0
 10
-219.801
 20
382.492
 11
-221.815
 21
381.658
  0
LINE
  8
0
 10
-221.815
 20
381.658
 11
-223.75
 21
380.651
  0
LINE
  8
0
 10
-223.75
 20
380.651
 11
-225.589
 21
379.479
  0
LINE
  8
0
 10
-225.589
 20
379.479
 11
-227.32
 21
378.151
  0
LINE
  8
0
 10
-227.32
 20
378.151
 11
-228.928
 21
376.678
  0
LINE
  8
0
 10
-228.928
 20
376.678
 11
-230.401
 21
375.07
  0
LINE
  8
0
 10
-230.401
 20
375.07
 11
-231.729
 21
373.339
  0
LINE
  8
0
 10
-231.729
 20
373.339
 11
-232.901
 21
371.5
  0
LINE
  8
0
 10
-232.901
 20
371.5
 11
-233.908
 21
369.565
  0
LINE
  8
0
 10
-233.908
 20
369.565
 11
-234.742
 21
367.551
  0
LINE
  8
0
 10
-234.742
 20
367.551
 11
-235.398
 21
365.47
  0
LINE
  8
0
 10
-235.398
 20
365.47
 11
-235.87
 21
363.341
  0
LINE
  8
0
 10
-235.87
 20
363.341
 11
-236.155
 21
361.179
  0
LINE
  8
0
 10
-236.155
 20
361.179
 11
-236.25
 21
359
  0
LINE
  8
0
 10
-236.25
 20
359
 11
-236.25
 21
9.32587e-15
  0
LINE
  8
0
 10
-230.95
 20
110.1
 11
-230.895
 21
110.59
  0
LINE
  8
0
 10
-230.895
 20
110.59
 11
-230.732
 21
111.055
  0
LINE
  8
0
 10
-230.732
 20
111.055
 11
-230.47
 21
111.472
  0
LINE
  8
0
 10
-230.47
 20
111.472
 11
-230.122
 21
111.82
  0
LINE
  8
0
 10
-230.122
 20
111.82
 11
-229.705
 21
112.082
  0
LINE
  8
0
 10
-229.705
 20
112.082
 11
-229.24
 21
112.245
  0
LINE
  8
0
 10
-229.24
 20
112.245
 11
-228.75
 21
112.3
  0
LINE
  8
0
 10
-228.75
 20
112.3
 11
-228.26
 21
112.245
  0
LINE
  8
0
 10
-228.26
 20
112.245
 11
-227.795
 21
112.082
  0
LINE
  8
0
 10
-227.795
 20
112.082
 11
-227.378
 21
111.82
  0
LINE
  8
0
 10
-227.378
 20
111.82
 11
-227.03
 21
111.472
  0
LINE
  8
0
 10
-227.03
 20
111.472
 11
-226.768
 21
111.055
  0
LINE
  8
0
 10
-226.768
 20
111.055
 11
-226.605
 21
110.59
  0
LINE
  8
0
 10
-226.605
 20
110.59
 11
-226.55
 21
110.1
  0
LINE
  8
0
 10
-226.55
 20
110.1
 11
-226.605
 21
109.61
  0
LINE
  8
0
 10
-226.605
 20
109.61
 11
-226.768
 21
109.145
  0
LINE
  8
0
 10
-226.768
 20
109.145
 11
-227.03
 21
108.728
  0
LINE
  8
0
 10
-227.03
 20
108.728
 11
-227.378
 21
108.38
  0
LINE
  8
0
 10
-227.378
 20
108.38
 11
-227.795
 21
108.118
  0
LINE
  8
0
 10
-227.795
 20
108.118
 11
-228.26
 21
107.955
  0
LINE
  8
0
 10
-228.26
 20
107.955
 11
-228.75
 21
107.9
  0
LINE
  8
0
 10
-228.75
 20
107.9
 11
-229.24
 21
107.955
  0
LINE
  8
0
 10
-229.24
 20
107.955
 11
-229.705
 21
108.118
  0
LINE
  8
0
 10
-229.705
 20
108.118
 11
-230.122
 21
108.38
  0
LINE
  8
0
 10
-230.122
 20
108.38
 11
-230.47
 21
108.728
  0
LINE
  8
0
 10
-230.47
 20
108.728
 11
-230.732
 21
109.145
  0
LINE
  8
0
 10
-230.732
 20
109.145
 11
-230.895
 21
109.61
  0
LINE
  8
0
 10
-230.895
 20
109.61
 11
-230.95
 21
110.1
  0
LINE
  8
0
 10
-230.95
 20
151.5
 11
-230.919
 21
151.777
  0
LINE
  8
0
 10
-230.919
 20
151.777
 11
-230.895
 21
151.99
  0
LINE
  8
0
 10
-230.895
 20
151.99
 11
-230.732
 21
152.455
  0
LINE
  8
0
 10
-230.732
 20
152.455
 11
-230.47
 21
152.872
  0
LINE
  8
0
 10
-230.47
 20
152.872
 11
-230.122
 21
153.22
  0
LINE
  8
0
 10
-230.122
 20
153.22
 11
-229.705
 21
153.482
  0
LINE
  8
0
 10
-229.705
 20
153.482
 11
-229.24
 21
153.645
  0
LINE
  8
0
 10
-229.24
 20
153.645
 11
-228.75
 21
153.7
  0
LINE
  8
0
 10
-228.75
 20
153.7
 11
-228.26
 21
153.645
  0
LINE
  8
0
 10
-228.26
 20
153.645
 11
-227.795
 21
153.482
  0
LINE
  8
0
 10
-227.795
 20
153.482
 11
-227.378
 21
153.22
  0
LINE
  8
0
 10
-227.378
 20
153.22
 11
-227.03
 21
152.872
  0
LINE
  8
0
 10
-227.03
 20
152.872
 11
-226.768
 21
152.455
  0
LINE
  8
0
 10
-226.768
 20
152.455
 11
-226.605
 21
151.99
  0
LINE
  8
0
 10
-226.605
 20
151.99
 11
-226.581
 21
151.777
  0
LINE
  8
0
 10
-226.581
 20
151.777
 11
-226.55
 21
151.5
  0
LINE
  8
0
 10
-226.55
 20
151.5
 11
-226.574
 21
151.287
  0
LINE
  8
0
 10
-226.574
 20
151.287
 11
-226.605
 21
151.01
  0
LINE
  8
0
 10
-226.605
 20
151.01
 11
-226.768
 21
150.545
  0
LINE
  8
0
 10
-226.768
 20
150.545
 11
-227.03
 21
150.128
  0
LINE
  8
0
 10
-227.03
 20
150.128
 11
-227.378
 21
149.78
  0
LINE
  8
0
 10
-227.378
 20
149.78
 11
-227.795
 21
149.518
  0
LINE
  8
0
 10
-227.795
 20
149.518
 11
-228.26
 21
149.355
  0
LINE
  8
0
 10
-228.26
 20
149.355
 11
-228.75
 21
149.3
  0
LINE
  8
0
 10
-228.75
 20
149.3
 11
-229.24
 21
149.355
  0
LINE
  8
0
 10
-229.24
 20
149.355
 11
-229.705
 21
149.518
  0
LINE
  8
0
 10
-229.705
 20
149.518
 11
-230.122
 21
149.78
  0
LINE
  8
0
 10
-230.122
 20
149.78
 11
-230.47
 21
150.128
  0
LINE
  8
0
 10
-230.47
 20
150.128
 11
-230.732
 21
150.545
  0
LINE
  8
0
 10
-230.732
 20
150.545
 11
-230.895
 21
151.01
  0
LINE
  8
0
 10
-230.895
 20
151.01
 11
-230.926
 21
151.287
  0
LINE
  8
0
 10
-230.926
 20
151.287
 11
-230.95
 21
151.5
  0
LINE
  8
0
 10
-229.75
 20
7.2
 11
-229.695
 21
7.68955
  0
LINE
  8
0
 10
-229.695
 20
7.68955
 11
-229.532
 21
8.15454
  0
LINE
  8
0
 10
-229.532
 20
8.15454
 11
-229.27
 21
8.57168
  0
LINE
  8
0
 10
-229.27
 20
8.57168
 11
-228.922
 21
8.92003
  0
LINE
  8
0
 10
-228.922
 20
8.92003
 11
-228.505
 21
9.18213
  0
LINE
  8
0
 10
-228.505
 20
9.18213
 11
-228.04
 21
9.34484
  0
LINE
  8
0
 10
-228.04
 20
9.34484
 11
-227.55
 21
9.4
  0
LINE
  8
0
 10
-227.55
 20
9.4
 11
-227.06
 21
9.34484
  0
LINE
  8
0
 10
-227.06
 20
9.34484
 11
-226.595
 21
9.18213
  0
LINE
  8
0
 10
-226.595
 20
9.18213
 11
-226.178
 21
8.92003
  0
LINE
  8
0
 10
-226.178
 20
8.92003
 11
-225.83
 21
8.57168
  0
LINE
  8
0
 10
-225.83
 20
8.57168
 11
-225.568
 21
8.15454
  0
LINE
  8
0
 10
-225.568
 20
8.15454
 11
-225.405
 21
7.68955
  0
LINE
  8
0
 10
-225.405
 20
7.68955
 11
-225.35
 21
7.2
  0
LINE
  8
0
 10
-225.35
 20
7.2
 11
-225.405
 21
6.71045
  0
LINE
  8
0
 10
-225.405
 20
6.71045
 11
-225.568
 21
6.24546
  0
LINE
  8
0
 10
-225.568
 20
6.24546
 11
-225.83
 21
5.82832
  0
LINE
  8
0
 10
-225.83
 20
5.82832
 11
-226.178
 21
5.47997
  0
LINE
  8
0
 10
-226.178
 20
5.47997
 11
-226.595
 21
5.21787
  0
LINE
  8
0
 10
-226.595
 20
5.21787
 11
-227.06
 21
5.05516
  0
LINE
  8
0
 10
-227.06
 20
5.05516
 11
-227.313
 21
5.02675
  0
LINE
  8
0
 10
-227.313
 20
5.02675
 11
-227.55
 21
5
  0
LINE
  8
0
 10
-227.55
 20
5
 11
-227.787
 21
5.02675
  0
LINE
  8
0
 10
-227.787
 20
5.02675
 11
-228.04
 21
5.05516
  0
LINE
  8
0
 10
-228.04
 20
5.05516
 11
-228.505
 21
5.21787
  0
LINE
  8
0
 10
-228.505
 20
5.21787
 11
-228.922
 21
5.47997
  0
LINE
  8
0
 10
-228.922
 20
5.47997
 11
-229.27
 21
5.82832
  0
LINE
  8
0
 10
-229.27
 20
5.82832
 11
-229.532
 21
6.24546
  0
LINE
  8
0
 10
-229.532
 20
6.24546
 11
-229.695
 21
6.71045
  0
LINE
  8
0
 10
-229.695
 20
6.71045
 11
-229.75
 21
7.2
  0
LINE
  8
0
 10
-222
 20
56.5
 11
-222
 21
65.5
  0
LINE
  8
0
 10
-222
 20
65.5
 11
-221.969
 21
65.779
  0
LINE
  8
0
 10
-221.969
 20
65.779
 11
-221.945
 21
65.9895
  0
LINE
  8
0
 10
-221.945
 20
65.9895
 11
-221.782
 21
66.4545
  0
LINE
  8
0
 10
-221.782
 20
66.4545
 11
-221.52
 21
66.8717
  0
LINE
  8
0
 10
-221.52
 20
66.8717
 11
-221.172
 21
67.22
  0
LINE
  8
0
 10
-221.172
 20
67.22
 11
-220.755
 21
67.4821
  0
LINE
  8
0
 10
-220.755
 20
67.4821
 11
-220.29
 21
67.6448
  0
LINE
  8
0
 10
-220.29
 20
67.6448
 11
-219.8
 21
67.7
  0
LINE
  8
0
 10
-219.8
 20
67.7
 11
-219.31
 21
67.6448
  0
LINE
  8
0
 10
-219.31
 20
67.6448
 11
-218.845
 21
67.4821
  0
LINE
  8
0
 10
-218.845
 20
67.4821
 11
-218.428
 21
67.22
  0
LINE
  8
0
 10
-218.428
 20
67.22
 11
-218.08
 21
66.8717
  0
LINE
  8
0
 10
-218.08
 20
66.8717
 11
-217.818
 21
66.4545
  0
LINE
  8
0
 10
-217.818
 20
66.4545
 11
-217.655
 21
65.9895
  0
LINE
  8
0
 10
-217.655
 20
65.9895
 11
-217.631
 21
65.779
  0
LINE
  8
0
 10
-217.631
 20
65.779
 11
-217.6
 21
65.5
  0
LINE
  8
0
 10
-217.6
 20
65.5
 11
-217.6
 21
56.5
  0
LINE
  8
0
 10
-217.6
 20
56.5
 11
-217.624
 21
56.2895
  0
LINE
  8
0
 10
-217.624
 20
56.2895
 11
-217.655
 21
56.0105
  0
LINE
  8
0
 10
-217.655
 20
56.0105
 11
-217.818
 21
55.5455
  0
LINE
  8
0
 10
-217.818
 20
55.5455
 11
-218.08
 21
55.1283
  0
LINE
  8
0
 10
-218.08
 20
55.1283
 11
-218.428
 21
54.78
  0
LINE
  8
0
 10
-218.428
 20
54.78
 11
-218.845
 21
54.5179
  0
LINE
  8
0
 10
-218.845
 20
54.5179
 11
-219.31
 21
54.3552
  0
LINE
  8
0
 10
-219.31
 20
54.3552
 11
-219.8
 21
54.3
  0
LINE
  8
0
 10
-219.8
 20
54.3
 11
-220.29
 21
54.3552
  0
LINE
  8
0
 10
-220.29
 20
54.3552
 11
-220.755
 21
54.5179
  0
LINE
  8
0
 10
-220.755
 20
54.5179
 11
-221.172
 21
54.78
  0
LINE
  8
0
 10
-221.172
 20
54.78
 11
-221.52
 21
55.1283
  0
LINE
  8
0
 10
-221.52
 20
55.1283
 11
-221.782
 21
55.5455
  0
LINE
  8
0
 10
-221.782
 20
55.5455
 11
-221.945
 21
56.0105
  0
LINE
  8
0
 10
-221.945
 20
56.0105
 11
-221.976
 21
56.2895
  0
LINE
  8
0
 10
-221.976
 20
56.2895
 11
-222
 21
56.5
  0
LINE
  8
0
 10
-208.53
 20
7.2
 11
-208.475
 21
7.68955
  0
LINE
  8
0
 10
-208.475
 20
7.68955
 11
-208.312
 21
8.15454
  0
LINE
  8
0
 10
-208.312
 20
8.15454
 11
-208.05
 21
8.57168
  0
LINE
  8
0
 10
-208.05
 20
8.57168
 11
-207.702
 21
8.92003
  0
LINE
  8
0
 10
-207.702
 20
8.92003
 11
-207.285
 21
9.18213
  0
LINE
  8
0
 10
-207.285
 20
9.18213
 11
-206.82
 21
9.34484
  0
LINE
  8
0
 10
-206.82
 20
9.34484
 11
-206.33
 21
9.4
  0
LINE
  8
0
 10
-206.33
 20
9.4
 11
-205.84
 21
9.34484
  0
LINE
  8
0
 10
-205.84
 20
9.34484
 11
-205.375
 21
9.18213
  0
LINE
  8
0
 10
-205.375
 20
9.18213
 11
-204.958
 21
8.92003
  0
LINE
  8
0
 10
-204.958
 20
8.92003
 11
-204.61
 21
8.57168
  0
LINE
  8
0
 10
-204.61
 20
8.57168
 11
-204.348
 21
8.15454
  0
LINE
  8
0
 10
-204.348
 20
8.15454
 11
-204.185
 21
7.68955
  0
LINE
  8
0
 10
-204.185
 20
7.68955
 11
-204.13
 21
7.2
  0
LINE
  8
0
 10
-204.13
 20
7.2
 11
-204.185
 21
6.71045
  0
LINE
  8
0
 10
-204.185
 20
6.71045
 11
-204.348
 21
6.24546
  0
LINE
  8
0
 10
-204.348
 20
6.24546
 11
-204.61
 21
5.82832
  0
LINE
  8
0
 10
-204.61
 20
5.82832
 11
-204.958
 21
5.47997
  0
LINE
  8
0
 10
-204.958
 20
5.47997
 11
-205.375
 21
5.21787
  0
LINE
  8
0
 10
-205.375
 20
5.21787
 11
-205.84
 21
5.05516
  0
LINE
  8
0
 10
-205.84
 20
5.05516
 11
-206.093
 21
5.02675
  0
LINE
  8
0
 10
-206.093
 20
5.02675
 11
-206.33
 21
5
  0
LINE
  8
0
 10
-206.33
 20
5
 11
-206.567
 21
5.02675
  0
LINE
  8
0
 10
-206.567
 20
5.02675
 11
-206.82
 21
5.05516
  0
LINE
  8
0
 10
-206.82
 20
5.05516
 11
-207.285
 21
5.21787
  0
LINE
  8
0
 10
-207.285
 20
5.21787
 11
-207.702
 21
5.47997
  0
LINE
  8
0
 10
-207.702
 20
5.47997
 11
-208.05
 21
5.82832
  0
LINE
  8
0
 10
-208.05
 20
5.82832
 11
-208.312
 21
6.24546
  0
LINE
  8
0
 10
-208.312
 20
6.24546
 11
-208.475
 21
6.71045
  0
LINE
  8
0
 10
-208.475
 20
6.71045
 11
-208.53
 21
7.2
  0
LINE
  8
0
 10
-205.75
 20
73
 11
-205.72
 21
73.2465
  0
LINE
  8
0
 10
-205.72
 20
73.2465
 11
-205.692
 21
73.4786
  0
LINE
  8
0
 10
-205.692
 20
73.4786
 11
-205.521
 21
73.9294
  0
LINE
  8
0
 10
-205.521
 20
73.9294
 11
-205.247
 21
74.3262
  0
LINE
  8
0
 10
-205.247
 20
74.3262
 11
-204.886
 21
74.646
  0
LINE
  8
0
 10
-204.886
 20
74.646
 11
-204.459
 21
74.87
  0
LINE
  8
0
 10
-204.459
 20
74.87
 11
-203.991
 21
74.9854
  0
LINE
  8
0
 10
-203.991
 20
74.9854
 11
-203.509
 21
74.9854
  0
LINE
  8
0
 10
-203.509
 20
74.9854
 11
-203.041
 21
74.87
  0
LINE
  8
0
 10
-203.041
 20
74.87
 11
-202.614
 21
74.646
  0
LINE
  8
0
 10
-202.614
 20
74.646
 11
-202.253
 21
74.3262
  0
LINE
  8
0
 10
-202.253
 20
74.3262
 11
-201.979
 21
73.9294
  0
LINE
  8
0
 10
-201.979
 20
73.9294
 11
-201.808
 21
73.4786
  0
LINE
  8
0
 10
-201.808
 20
73.4786
 11
-201.78
 21
73.2465
  0
LINE
  8
0
 10
-201.78
 20
73.2465
 11
-201.75
 21
73
  0
LINE
  8
0
 10
-201.75
 20
73
 11
-201.778
 21
72.7679
  0
LINE
  8
0
 10
-201.778
 20
72.7679
 11
-201.808
 21
72.5214
  0
LINE
  8
0
 10
-201.808
 20
72.5214
 11
-201.979
 21
72.0706
  0
LINE
  8
0
 10
-201.979
 20
72.0706
 11
-202.253
 21
71.6738
  0
LINE
  8
0
 10
-202.253
 20
71.6738
 11
-202.614
 21
71.354
  0
LINE
  8
0
 10
-202.614
 20
71.354
 11
-203.041
 21
71.13
  0
LINE
  8
0
 10
-203.041
 20
71.13
 11
-203.509
 21
71.0146
  0
LINE
  8
0
 10
-203.509
 20
71.0146
 11
-203.991
 21
71.0146
  0
LINE
  8
0
 10
-203.991
 20
71.0146
 11
-204.459
 21
71.13
  0
LINE
  8
0
 10
-204.459
 20
71.13
 11
-204.886
 21
71.354
  0
LINE
  8
0
 10
-204.886
 20
71.354
 11
-205.247
 21
71.6738
  0
LINE
  8
0
 10
-205.247
 20
71.6738
 11
-205.521
 21
72.0706
  0
LINE
  8
0
 10
-205.521
 20
72.0706
 11
-205.692
 21
72.5214
  0
LINE
  8
0
 10
-205.692
 20
72.5214
 11
-205.722
 21
72.7679
  0
LINE
  8
0
 10
-205.722
 20
72.7679
 11
-205.75
 21
73
  0
LINE
  8
0
 10
-199.75
 20
367
 11
-199.692
 21
367.479
  0
LINE
  8
0
 10
-199.692
 20
367.479
 11
-199.521
 21
367.929
  0
LINE
  8
0
 10
-199.521
 20
367.929
 11
-199.247
 21
368.326
  0
LINE
  8
0
 10
-199.247
 20
368.326
 11
-198.886
 21
368.646
  0
LINE
  8
0
 10
-198.886
 20
368.646
 11
-198.459
 21
368.87
  0
LINE
  8
0
 10
-198.459
 20
368.87
 11
-197.991
 21
368.985
  0
LINE
  8
0
 10
-197.991
 20
368.985
 11
-197.509
 21
368.985
  0
LINE
  8
0
 10
-197.509
 20
368.985
 11
-197.041
 21
368.87
  0
LINE
  8
0
 10
-197.041
 20
368.87
 11
-196.614
 21
368.646
  0
LINE
  8
0
 10
-196.614
 20
368.646
 11
-196.253
 21
368.326
  0
LINE
  8
0
 10
-196.253
 20
368.326
 11
-195.979
 21
367.929
  0
LINE
  8
0
 10
-195.979
 20
367.929
 11
-195.808
 21
367.479
  0
LINE
  8
0
 10
-195.808
 20
367.479
 11
-195.75
 21
367
  0
LINE
  8
0
 10
-195.75
 20
367
 11
-195.808
 21
366.521
  0
LINE
  8
0
 10
-195.808
 20
366.521
 11
-195.979
 21
366.071
  0
LINE
  8
0
 10
-195.979
 20
366.071
 11
-196.253
 21
365.674
  0
LINE
  8
0
 10
-196.253
 20
365.674
 11
-196.614
 21
365.354
  0
LINE
  8
0
 10
-196.614
 20
365.354
 11
-197.041
 21
365.13
  0
LINE
  8
0
 10
-197.041
 20
365.13
 11
-197.509
 21
365.015
  0
LINE
  8
0
 10
-197.509
 20
365.015
 11
-197.991
 21
365.015
  0
LINE
  8
0
 10
-197.991
 20
365.015
 11
-198.459
 21
365.13
  0
LINE
  8
0
 10
-198.459
 20
365.13
 11
-198.886
 21
365.354
  0
LINE
  8
0
 10
-198.886
 20
365.354
 11
-199.247
 21
365.674
  0
LINE
  8
0
 10
-199.247
 20
365.674
 11
-199.521
 21
366.071
  0
LINE
  8
0
 10
-199.521
 20
366.071
 11
-199.692
 21
366.521
  0
LINE
  8
0
 10
-199.692
 20
366.521
 11
-199.75
 21
367
  0
LINE
  8
0
 10
-198.5
 20
376.5
 11
-198.445
 21
376.99
  0
LINE
  8
0
 10
-198.445
 20
376.99
 11
-198.282
 21
377.455
  0
LINE
  8
0
 10
-198.282
 20
377.455
 11
-198.02
 21
377.872
  0
LINE
  8
0
 10
-198.02
 20
377.872
 11
-197.672
 21
378.22
  0
LINE
  8
0
 10
-197.672
 20
378.22
 11
-197.255
 21
378.482
  0
LINE
  8
0
 10
-197.255
 20
378.482
 11
-196.79
 21
378.645
  0
LINE
  8
0
 10
-196.79
 20
378.645
 11
-196.3
 21
378.7
  0
LINE
  8
0
 10
-196.3
 20
378.7
 11
-195.81
 21
378.645
  0
LINE
  8
0
 10
-195.81
 20
378.645
 11
-195.345
 21
378.482
  0
LINE
  8
0
 10
-195.345
 20
378.482
 11
-194.928
 21
378.22
  0
LINE
  8
0
 10
-194.928
 20
378.22
 11
-194.58
 21
377.872
  0
LINE
  8
0
 10
-194.58
 20
377.872
 11
-194.318
 21
377.455
  0
LINE
  8
0
 10
-194.318
 20
377.455
 11
-194.155
 21
376.99
  0
LINE
  8
0
 10
-194.155
 20
376.99
 11
-194.1
 21
376.5
  0
LINE
  8
0
 10
-194.1
 20
376.5
 11
-194.155
 21
376.01
  0
LINE
  8
0
 10
-194.155
 20
376.01
 11
-194.318
 21
375.545
  0
LINE
  8
0
 10
-194.318
 20
375.545
 11
-194.58
 21
375.128
  0
LINE
  8
0
 10
-194.58
 20
375.128
 11
-194.928
 21
374.78
  0
LINE
  8
0
 10
-194.928
 20
374.78
 11
-195.345
 21
374.518
  0
LINE
  8
0
 10
-195.345
 20
374.518
 11
-195.81
 21
374.355
  0
LINE
  8
0
 10
-195.81
 20
374.355
 11
-196.3
 21
374.3
  0
LINE
  8
0
 10
-196.3
 20
374.3
 11
-196.79
 21
374.355
  0
LINE
  8
0
 10
-196.79
 20
374.355
 11
-197.255
 21
374.518
  0
LINE
  8
0
 10
-197.255
 20
374.518
 11
-197.672
 21
374.78
  0
LINE
  8
0
 10
-197.672
 20
374.78
 11
-198.02
 21
375.128
  0
LINE
  8
0
 10
-198.02
 20
375.128
 11
-198.282
 21
375.545
  0
LINE
  8
0
 10
-198.282
 20
375.545
 11
-198.445
 21
376.01
  0
LINE
  8
0
 10
-198.445
 20
376.01
 11
-198.5
 21
376.5
  0
LINE
  8
0
 10
-191.9
 20
56.5
 11
-191.9
 21
65.5
  0
LINE
  8
0
 10
-191.9
 20
65.5
 11
-191.869
 21
65.779
  0
LINE
  8
0
 10
-191.869
 20
65.779
 11
-191.845
 21
65.9895
  0
LINE
  8
0
 10
-191.845
 20
65.9895
 11
-191.682
 21
66.4545
  0
LINE
  8
0
 10
-191.682
 20
66.4545
 11
-191.42
 21
66.8717
  0
LINE
  8
0
 10
-191.42
 20
66.8717
 11
-191.072
 21
67.22
  0
LINE
  8
0
 10
-191.072
 20
67.22
 11
-190.655
 21
67.4821
  0
LINE
  8
0
 10
-190.655
 20
67.4821
 11
-190.19
 21
67.6448
  0
LINE
  8
0
 10
-190.19
 20
67.6448
 11
-189.7
 21
67.7
  0
LINE
  8
0
 10
-189.7
 20
67.7
 11
-189.21
 21
67.6448
  0
LINE
  8
0
 10
-189.21
 20
67.6448
 11
-188.745
 21
67.4821
  0
LINE
  8
0
 10
-188.745
 20
67.4821
 11
-188.328
 21
67.22
  0
LINE
  8
0
 10
-188.328
 20
67.22
 11
-187.98
 21
66.8717
  0
LINE
  8
0
 10
-187.98
 20
66.8717
 11
-187.718
 21
66.4545
  0
LINE
  8
0
 10
-187.718
 20
66.4545
 11
-187.555
 21
65.9895
  0
LINE
  8
0
 10
-187.555
 20
65.9895
 11
-187.531
 21
65.779
  0
LINE
  8
0
 10
-187.531
 20
65.779
 11
-187.5
 21
65.5
  0
LINE
  8
0
 10
-187.5
 20
65.5
 11
-187.5
 21
56.5
  0
LINE
  8
0
 10
-187.5
 20
56.5
 11
-187.524
 21
56.2895
  0
LINE
  8
0
 10
-187.524
 20
56.2895
 11
-187.555
 21
56.0105
  0
LINE
  8
0
 10
-187.555
 20
56.0105
 11
-187.718
 21
55.5455
  0
LINE
  8
0
 10
-187.718
 20
55.5455
 11
-187.98
 21
55.1283
  0
LINE
  8
0
 10
-187.98
 20
55.1283
 11
-188.328
 21
54.78
  0
LINE
  8
0
 10
-188.328
 20
54.78
 11
-188.745
 21
54.5179
  0
LINE
  8
0
 10
-188.745
 20
54.5179
 11
-189.21
 21
54.3552
  0
LINE
  8
0
 10
-189.21
 20
54.3552
 11
-189.7
 21
54.3
  0
LINE
  8
0
 10
-189.7
 20
54.3
 11
-190.19
 21
54.3552
  0
LINE
  8
0
 10
-190.19
 20
54.3552
 11
-190.655
 21
54.5179
  0
LINE
  8
0
 10
-190.655
 20
54.5179
 11
-191.072
 21
54.78
  0
LINE
  8
0
 10
-191.072
 20
54.78
 11
-191.42
 21
55.1283
  0
LINE
  8
0
 10
-191.42
 20
55.1283
 11
-191.682
 21
55.5455
  0
LINE
  8
0
 10
-191.682
 20
55.5455
 11
-191.845
 21
56.0105
  0
LINE
  8
0
 10
-191.845
 20
56.0105
 11
-191.876
 21
56.2895
  0
LINE
  8
0
 10
-191.876
 20
56.2895
 11
-191.9
 21
56.5
  0
LINE
  8
0
 10
-175.75
 20
33.71
 11
-175.695
 21
34.1995
  0
LINE
  8
0
 10
-175.695
 20
34.1995
 11
-175.532
 21
34.6645
  0
LINE
  8
0
 10
-175.532
 20
34.6645
 11
-175.27
 21
35.0817
  0
LINE
  8
0
 10
-175.27
 20
35.0817
 11
-174.922
 21
35.43
  0
LINE
  8
0
 10
-174.922
 20
35.43
 11
-174.505
 21
35.6921
  0
LINE
  8
0
 10
-174.505
 20
35.6921
 11
-174.04
 21
35.8548
  0
LINE
  8
0
 10
-174.04
 20
35.8548
 11
-173.55
 21
35.91
  0
LINE
  8
0
 10
-173.55
 20
35.91
 11
-173.06
 21
35.8548
  0
LINE
  8
0
 10
-173.06
 20
35.8548
 11
-172.595
 21
35.6921
  0
LINE
  8
0
 10
-172.595
 20
35.6921
 11
-172.178
 21
35.43
  0
LINE
  8
0
 10
-172.178
 20
35.43
 11
-171.83
 21
35.0817
  0
LINE
  8
0
 10
-171.83
 20
35.0817
 11
-171.568
 21
34.6645
  0
LINE
  8
0
 10
-171.568
 20
34.6645
 11
-171.405
 21
34.1995
  0
LINE
  8
0
 10
-171.405
 20
34.1995
 11
-171.35
 21
33.71
  0
LINE
  8
0
 10
-171.35
 20
33.71
 11
-171.405
 21
33.2205
  0
LINE
  8
0
 10
-171.405
 20
33.2205
 11
-171.568
 21
32.7555
  0
LINE
  8
0
 10
-171.568
 20
32.7555
 11
-171.83
 21
32.3383
  0
LINE
  8
0
 10
-171.83
 20
32.3383
 11
-172.178
 21
31.99
  0
LINE
  8
0
 10
-172.178
 20
31.99
 11
-172.595
 21
31.7279
  0
LINE
  8
0
 10
-172.595
 20
31.7279
 11
-173.06
 21
31.5652
  0
LINE
  8
0
 10
-173.06
 20
31.5652
 11
-173.55
 21
31.51
  0
LINE
  8
0
 10
-173.55
 20
31.51
 11
-174.04
 21
31.5652
  0
LINE
  8
0
 10
-174.04
 20
31.5652
 11
-174.505
 21
31.7279
  0
LINE
  8
0
 10
-174.505
 20
31.7279
 11
-174.922
 21
31.99
  0
LINE
  8
0
 10
-174.922
 20
31.99
 11
-175.27
 21
32.3383
  0
LINE
  8
0
 10
-175.27
 20
32.3383
 11
-175.532
 21
32.7555
  0
LINE
  8
0
 10
-175.532
 20
32.7555
 11
-175.695
 21
33.2205
  0
LINE
  8
0
 10
-175.695
 20
33.2205
 11
-175.75
 21
33.71
  0
LINE
  8
0
 10
-175.75
 20
350.29
 11
-175.695
 21
350.78
  0
LINE
  8
0
 10
-175.695
 20
350.78
 11
-175.532
 21
351.245
  0
LINE
  8
0
 10
-175.532
 20
351.245
 11
-175.27
 21
351.662
  0
LINE
  8
0
 10
-175.27
 20
351.662
 11
-174.922
 21
352.01
  0
LINE
  8
0
 10
-174.922
 20
352.01
 11
-174.505
 21
352.272
  0
LINE
  8
0
 10
-174.505
 20
352.272
 11
-174.04
 21
352.435
  0
LINE
  8
0
 10
-174.04
 20
352.435
 11
-173.55
 21
352.49
  0
LINE
  8
0
 10
-173.55
 20
352.49
 11
-173.06
 21
352.435
  0
LINE
  8
0
 10
-173.06
 20
352.435
 11
-172.595
 21
352.272
  0
LINE
  8
0
 10
-172.595
 20
352.272
 11
-172.178
 21
352.01
  0
LINE
  8
0
 10
-172.178
 20
352.01
 11
-171.83
 21
351.662
  0
LINE
  8
0
 10
-171.83
 20
351.662
 11
-171.568
 21
351.245
  0
LINE
  8
0
 10
-171.568
 20
351.245
 11
-171.405
 21
350.78
  0
LINE
  8
0
 10
-171.405
 20
350.78
 11
-171.35
 21
350.29
  0
LINE
  8
0
 10
-171.35
 20
350.29
 11
-171.405
 21
349.8
  0
LINE
  8
0
 10
-171.405
 20
349.8
 11
-171.568
 21
349.335
  0
LINE
  8
0
 10
-171.568
 20
349.335
 11
-171.83
 21
348.918
  0
LINE
  8
0
 10
-171.83
 20
348.918
 11
-172.178
 21
348.57
  0
LINE
  8
0
 10
-172.178
 20
348.57
 11
-172.595
 21
348.308
  0
LINE
  8
0
 10
-172.595
 20
348.308
 11
-173.06
 21
348.145
  0
LINE
  8
0
 10
-173.06
 20
348.145
 11
-173.55
 21
348.09
  0
LINE
  8
0
 10
-173.55
 20
348.09
 11
-174.04
 21
348.145
  0
LINE
  8
0
 10
-174.04
 20
348.145
 11
-174.505
 21
348.308
  0
LINE
  8
0
 10
-174.505
 20
348.308
 11
-174.922
 21
348.57
  0
LINE
  8
0
 10
-174.922
 20
348.57
 11
-175.27
 21
348.918
  0
LINE
  8
0
 10
-175.27
 20
348.918
 11
-175.532
 21
349.335
  0
LINE
  8
0
 10
-175.532
 20
349.335
 11
-175.695
 21
349.8
  0
LINE
  8
0
 10
-175.695
 20
349.8
 11
-175.75
 21
350.29
  0
LINE
  8
0
 10
-171.245
 20
324.804
 11
-171.124
 21
325.283
  0
LINE
  8
0
 10
-171.124
 20
325.283
 11
-170.854
 21
325.696
  0
LINE
  8
0
 10
-170.854
 20
325.696
 11
-170.464
 21
325.999
  0
LINE
  8
0
 10
-170.464
 20
325.999
 11
-169.997
 21
326.16
  0
LINE
  8
0
 10
-169.997
 20
326.16
 11
-169.503
 21
326.16
  0
LINE
  8
0
 10
-169.503
 20
326.16
 11
-169.036
 21
325.999
  0
LINE
  8
0
 10
-169.036
 20
325.999
 11
-168.646
 21
325.696
  0
LINE
  8
0
 10
-168.646
 20
325.696
 11
-168.376
 21
325.283
  0
LINE
  8
0
 10
-168.376
 20
325.283
 11
-168.255
 21
324.804
  0
LINE
  8
0
 10
-168.255
 20
324.804
 11
-168.296
 21
324.312
  0
LINE
  8
0
 10
-168.296
 20
324.312
 11
-168.494
 21
323.86
  0
LINE
  8
0
 10
-168.494
 20
323.86
 11
-168.829
 21
323.496
  0
LINE
  8
0
 10
-168.829
 20
323.496
 11
-169.263
 21
323.261
  0
LINE
  8
0
 10
-169.263
 20
323.261
 11
-169.75
 21
323.18
  0
LINE
  8
0
 10
-169.75
 20
323.18
 11
-170.237
 21
323.261
  0
LINE
  8
0
 10
-170.237
 20
323.261
 11
-170.671
 21
323.496
  0
LINE
  8
0
 10
-170.671
 20
323.496
 11
-171.006
 21
323.86
  0
LINE
  8
0
 10
-171.006
 20
323.86
 11
-171.204
 21
324.312
  0
LINE
  8
0
 10
-171.204
 20
324.312
 11
-171.245
 21
324.804
  0
LINE
  8
0
 10
-171.245
 20
330.604
 11
-171.124
 21
331.083
  0
LINE
  8
0
 10
-171.124
 20
331.083
 11
-170.854
 21
331.496
  0
LINE
  8
0
 10
-170.854
 20
331.496
 11
-170.464
 21
331.799
  0
LINE
  8
0
 10
-170.464
 20
331.799
 11
-169.997
 21
331.96
  0
LINE
  8
0
 10
-169.997
 20
331.96
 11
-169.503
 21
331.96
  0
LINE
  8
0
 10
-169.503
 20
331.96
 11
-169.036
 21
331.799
  0
LINE
  8
0
 10
-169.036
 20
331.799
 11
-168.646
 21
331.496
  0
LINE
  8
0
 10
-168.646
 20
331.496
 11
-168.376
 21
331.083
  0
LINE
  8
0
 10
-168.376
 20
331.083
 11
-168.255
 21
330.604
  0
LINE
  8
0
 10
-168.255
 20
330.604
 11
-168.296
 21
330.112
  0
LINE
  8
0
 10
-168.296
 20
330.112
 11
-168.494
 21
329.66
  0
LINE
  8
0
 10
-168.494
 20
329.66
 11
-168.829
 21
329.296
  0
LINE
  8
0
 10
-168.829
 20
329.296
 11
-169.263
 21
329.061
  0
LINE
  8
0
 10
-169.263
 20
329.061
 11
-169.75
 21
328.98
  0
LINE
  8
0
 10
-169.75
 20
328.98
 11
-170.237
 21
329.061
  0
LINE
  8
0
 10
-170.237
 20
329.061
 11
-170.671
 21
329.296
  0
LINE
  8
0
 10
-170.671
 20
329.296
 11
-171.006
 21
329.66
  0
LINE
  8
0
 10
-171.006
 20
329.66
 11
-171.204
 21
330.112
  0
LINE
  8
0
 10
-171.204
 20
330.112
 11
-171.245
 21
330.604
  0
LINE
  8
0
 10
-166.4
 20
376.5
 11
-166.345
 21
376.99
  0
LINE
  8
0
 10
-166.345
 20
376.99
 11
-166.182
 21
377.455
  0
LINE
  8
0
 10
-166.182
 20
377.455
 11
-165.92
 21
377.872
  0
LINE
  8
0
 10
-165.92
 20
377.872
 11
-165.572
 21
378.22
  0
LINE
  8
0
 10
-165.572
 20
378.22
 11
-165.155
 21
378.482
  0
LINE
  8
0
 10
-165.155
 20
378.482
 11
-164.69
 21
378.645
  0
LINE
  8
0
 10
-164.69
 20
378.645
 11
-164.2
 21
378.7
  0
LINE
  8
0
 10
-164.2
 20
378.7
 11
-163.71
 21
378.645
  0
LINE
  8
0
 10
-163.71
 20
378.645
 11
-163.245
 21
378.482
  0
LINE
  8
0
 10
-163.245
 20
378.482
 11
-162.828
 21
378.22
  0
LINE
  8
0
 10
-162.828
 20
378.22
 11
-162.48
 21
377.872
  0
LINE
  8
0
 10
-162.48
 20
377.872
 11
-162.218
 21
377.455
  0
LINE
  8
0
 10
-162.218
 20
377.455
 11
-162.055
 21
376.99
  0
LINE
  8
0
 10
-162.055
 20
376.99
 11
-162
 21
376.5
  0
LINE
  8
0
 10
-162
 20
376.5
 11
-162.055
 21
376.01
  0
LINE
  8
0
 10
-162.055
 20
376.01
 11
-162.218
 21
375.545
  0
LINE
  8
0
 10
-162.218
 20
375.545
 11
-162.48
 21
375.128
  0
LINE
  8
0
 10
-162.48
 20
375.128
 11
-162.828
 21
374.78
  0
LINE
  8
0
 10
-162.828
 20
374.78
 11
-163.245
 21
374.518
  0
LINE
  8
0
 10
-163.245
 20
374.518
 11
-163.71
 21
374.355
  0
LINE
  8
0
 10
-163.71
 20
374.355
 11
-164.2
 21
374.3
  0
LINE
  8
0
 10
-164.2
 20
374.3
 11
-164.69
 21
374.355
  0
LINE
  8
0
 10
-164.69
 20
374.355
 11
-165.155
 21
374.518
  0
LINE
  8
0
 10
-165.155
 20
374.518
 11
-165.572
 21
374.78
  0
LINE
  8
0
 10
-165.572
 20
374.78
 11
-165.92
 21
375.128
  0
LINE
  8
0
 10
-165.92
 20
375.128
 11
-166.182
 21
375.545
  0
LINE
  8
0
 10
-166.182
 20
375.545
 11
-166.345
 21
376.01
  0
LINE
  8
0
 10
-166.345
 20
376.01
 11
-166.4
 21
376.5
  0
LINE
  8
0
 10
-166.245
 20
311.956
 11
-166.204
 21
312.448
  0
LINE
  8
0
 10
-166.204
 20
312.448
 11
-166.006
 21
312.9
  0
LINE
  8
0
 10
-166.006
 20
312.9
 11
-165.671
 21
313.264
  0
LINE
  8
0
 10
-165.671
 20
313.264
 11
-165.237
 21
313.499
  0
LINE
  8
0
 10
-165.237
 20
313.499
 11
-164.75
 21
313.58
  0
LINE
  8
0
 10
-164.75
 20
313.58
 11
-164.263
 21
313.499
  0
LINE
  8
0
 10
-164.263
 20
313.499
 11
-163.829
 21
313.264
  0
LINE
  8
0
 10
-163.829
 20
313.264
 11
-163.494
 21
312.9
  0
LINE
  8
0
 10
-163.494
 20
312.9
 11
-163.296
 21
312.448
  0
LINE
  8
0
 10
-163.296
 20
312.448
 11
-163.255
 21
311.956
  0
LINE
  8
0
 10
-163.255
 20
311.956
 11
-163.376
 21
311.477
  0
LINE
  8
0
 10
-163.376
 20
311.477
 11
-163.646
 21
311.064
  0
LINE
  8
0
 10
-163.646
 20
311.064
 11
-164.036
 21
310.761
  0
LINE
  8
0
 10
-164.036
 20
310.761
 11
-164.503
 21
310.6
  0
LINE
  8
0
 10
-164.503
 20
310.6
 11
-164.997
 21
310.6
  0
LINE
  8
0
 10
-164.997
 20
310.6
 11
-165.464
 21
310.761
  0
LINE
  8
0
 10
-165.464
 20
310.761
 11
-165.854
 21
311.064
  0
LINE
  8
0
 10
-165.854
 20
311.064
 11
-166.124
 21
311.477
  0
LINE
  8
0
 10
-166.124
 20
311.477
 11
-166.245
 21
311.956
  0
LINE
  8
0
 10
-166.245
 20
319.156
 11
-166.204
 21
319.648
  0
LINE
  8
0
 10
-166.204
 20
319.648
 11
-166.006
 21
320.1
  0
LINE
  8
0
 10
-166.006
 20
320.1
 11
-165.671
 21
320.464
  0
LINE
  8
0
 10
-165.671
 20
320.464
 11
-165.237
 21
320.699
  0
LINE
  8
0
 10
-165.237
 20
320.699
 11
-164.75
 21
320.78
  0
LINE
  8
0
 10
-164.75
 20
320.78
 11
-164.263
 21
320.699
  0
LINE
  8
0
 10
-164.263
 20
320.699
 11
-163.829
 21
320.464
  0
LINE
  8
0
 10
-163.829
 20
320.464
 11
-163.494
 21
320.1
  0
LINE
  8
0
 10
-163.494
 20
320.1
 11
-163.296
 21
319.648
  0
LINE
  8
0
 10
-163.296
 20
319.648
 11
-163.255
 21
319.156
  0
LINE
  8
0
 10
-163.255
 20
319.156
 11
-163.376
 21
318.677
  0
LINE
  8
0
 10
-163.376
 20
318.677
 11
-163.646
 21
318.264
  0
LINE
  8
0
 10
-163.646
 20
318.264
 11
-164.036
 21
317.961
  0
LINE
  8
0
 10
-164.036
 20
317.961
 11
-164.503
 21
317.8
  0
LINE
  8
0
 10
-164.503
 20
317.8
 11
-164.997
 21
317.8
  0
LINE
  8
0
 10
-164.997
 20
317.8
 11
-165.464
 21
317.961
  0
LINE
  8
0
 10
-165.464
 20
317.961
 11
-165.854
 21
318.264
  0
LINE
  8
0
 10
-165.854
 20
318.264
 11
-166.124
 21
318.677
  0
LINE
  8
0
 10
-166.124
 20
318.677
 11
-166.245
 21
319.156
  0
LINE
  8
0
 10
-163.37
 20
7.2
 11
-163.315
 21
7.68955
  0
LINE
  8
0
 10
-163.315
 20
7.68955
 11
-163.152
 21
8.15454
  0
LINE
  8
0
 10
-163.152
 20
8.15454
 11
-162.89
 21
8.57168
  0
LINE
  8
0
 10
-162.89
 20
8.57168
 11
-162.542
 21
8.92003
  0
LINE
  8
0
 10
-162.542
 20
8.92003
 11
-162.125
 21
9.18213
  0
LINE
  8
0
 10
-162.125
 20
9.18213
 11
-161.66
 21
9.34484
  0
LINE
  8
0
 10
-161.66
 20
9.34484
 11
-161.17
 21
9.4
  0
LINE
  8
0
 10
-161.17
 20
9.4
 11
-160.68
 21
9.34484
  0
LINE
  8
0
 10
-160.68
 20
9.34484
 11
-160.215
 21
9.18213
  0
LINE
  8
0
 10
-160.215
 20
9.18213
 11
-159.798
 21
8.92003
  0
LINE
  8
0
 10
-159.798
 20
8.92003
 11
-159.45
 21
8.57168
  0
LINE
  8
0
 10
-159.45
 20
8.57168
 11
-159.188
 21
8.15454
  0
LINE
  8
0
 10
-159.188
 20
8.15454
 11
-159.025
 21
7.68955
  0
LINE
  8
0
 10
-159.025
 20
7.68955
 11
-158.97
 21
7.2
  0
LINE
  8
0
 10
-158.97
 20
7.2
 11
-159.025
 21
6.71045
  0
LINE
  8
0
 10
-159.025
 20
6.71045
 11
-159.188
 21
6.24546
  0
LINE
  8
0
 10
-159.188
 20
6.24546
 11
-159.45
 21
5.82832
  0
LINE
  8
0
 10
-159.45
 20
5.82832
 11
-159.798
 21
5.47997
  0
LINE
  8
0
 10
-159.798
 20
5.47997
 11
-160.215
 21
5.21787
  0
LINE
  8
0
 10
-160.215
 20
5.21787
 11
-160.68
 21
5.05516
  0
LINE
  8
0
 10
-160.68
 20
5.05516
 11
-160.933
 21
5.02675
  0
LINE
  8
0
 10
-160.933
 20
5.02675
 11
-161.17
 21
5
  0
LINE
  8
0
 10
-161.17
 20
5
 11
-161.407
 21
5.02675
  0
LINE
  8
0
 10
-161.407
 20
5.02675
 11
-161.66
 21
5.05516
  0
LINE
  8
0
 10
-161.66
 20
5.05516
 11
-162.125
 21
5.21787
  0
LINE
  8
0
 10
-162.125
 20
5.21787
 11
-162.542
 21
5.47997
  0
LINE
  8
0
 10
-162.542
 20
5.47997
 11
-162.89
 21
5.82832
  0
LINE
  8
0
 10
-162.89
 20
5.82832
 11
-163.152
 21
6.24546
  0
LINE
  8
0
 10
-163.152
 20
6.24546
 11
-163.315
 21
6.71045
  0
LINE
  8
0
 10
-163.315
 20
6.71045
 11
-163.37
 21
7.2
  0
LINE
  8
0
 10
-142.15
 20
7.2
 11
-142.095
 21
7.68955
  0
LINE
  8
0
 10
-142.095
 20
7.68955
 11
-141.932
 21
8.15454
  0
LINE
  8
0
 10
-141.932
 20
8.15454
 11
-141.67
 21
8.57168
  0
LINE
  8
0
 10
-141.67
 20
8.57168
 11
-141.322
 21
8.92003
  0
LINE
  8
0
 10
-141.322
 20
8.92003
 11
-140.905
 21
9.18213
  0
LINE
  8
0
 10
-140.905
 20
9.18213
 11
-140.44
 21
9.34484
  0
LINE
  8
0
 10
-140.44
 20
9.34484
 11
-139.95
 21
9.4
  0
LINE
  8
0
 10
-139.95
 20
9.4
 11
-139.46
 21
9.34484
  0
LINE
  8
0
 10
-139.46
 20
9.34484
 11
-138.995
 21
9.18213
  0
LINE
  8
0
 10
-138.995
 20
9.18213
 11
-138.578
 21
8.92003
  0
LINE
  8
0
 10
-138.578
 20
8.92003
 11
-138.23
 21
8.57168
  0
LINE
  8
0
 10
-138.23
 20
8.57168
 11
-137.968
 21
8.15454
  0
LINE
  8
0
 10
-137.968
 20
8.15454
 11
-137.805
 21
7.68955
  0
LINE
  8
0
 10
-137.805
 20
7.68955
 11
-137.75
 21
7.2
  0
LINE
  8
0
 10
-137.75
 20
7.2
 11
-137.805
 21
6.71045
  0
LINE
  8
0
 10
-137.805
 20
6.71045
 11
-137.968
 21
6.24546
  0
LINE
  8
0
 10
-137.968
 20
6.24546
 11
-138.23
 21
5.82832
  0
LINE
  8
0
 10
-138.23
 20
5.82832
 11
-138.578
 21
5.47997
  0
LINE
  8
0
 10
-138.578
 20
5.47997
 11
-138.995
 21
5.21787
  0
LINE
  8
0
 10
-138.995
 20
5.21787
 11
-139.46
 21
5.05516
  0
LINE
  8
0
 10
-139.46
 20
5.05516
 11
-139.713
 21
5.02675
  0
LINE
  8
0
 10
-139.713
 20
5.02675
 11
-139.95
 21
5
  0
LINE
  8
0
 10
-139.95
 20
5
 11
-140.187
 21
5.02675
  0
LINE
  8
0
 10
-140.187
 20
5.02675
 11
-140.44
 21
5.05516
  0
LINE
  8
0
 10
-140.44
 20
5.05516
 11
-140.905
 21
5.21787
  0
LINE
  8
0
 10
-140.905
 20
5.21787
 11
-141.322
 21
5.47997
  0
LINE
  8
0
 10
-141.322
 20
5.47997
 11
-141.67
 21
5.82832
  0
LINE
  8
0
 10
-141.67
 20
5.82832
 11
-141.932
 21
6.24546
  0
LINE
  8
0
 10
-141.932
 20
6.24546
 11
-142.095
 21
6.71045
  0
LINE
  8
0
 10
-142.095
 20
6.71045
 11
-142.15
 21
7.2
  0
LINE
  8
0
 10
119.205
 20
324.804
 11
119.326
 21
325.283
  0
LINE
  8
0
 10
119.326
 20
325.283
 11
119.596
 21
325.696
  0
LINE
  8
0
 10
119.596
 20
325.696
 11
119.986
 21
325.999
  0
LINE
  8
0
 10
119.986
 20
325.999
 11
120.453
 21
326.16
  0
LINE
  8
0
 10
120.453
 20
326.16
 11
120.947
 21
326.16
  0
LINE
  8
0
 10
120.947
 20
326.16
 11
121.414
 21
325.999
  0
LINE
  8
0
 10
121.414
 20
325.999
 11
121.804
 21
325.696
  0
LINE
  8
0
 10
121.804
 20
325.696
 11
122.074
 21
325.283
  0
LINE
  8
0
 10
122.074
 20
325.283
 11
122.195
 21
324.804
  0
LINE
  8
0
 10
122.195
 20
324.804
 11
122.154
 21
324.312
  0
LINE
  8
0
 10
122.154
 20
324.312
 11
121.956
 21
323.86
  0
LINE
  8
0
 10
121.956
 20
323.86
 11
121.621
 21
323.496
  0
LINE
  8
0
 10
121.621
 20
323.496
 11
121.187
 21
323.261
  0
LINE
  8
0
 10
121.187
 20
323.261
 11
120.7
 21
323.18
  0
LINE
  8
0
 10
120.7
 20
323.18
 11
120.213
 21
323.261
  0
LINE
  8
0
 10
120.213
 20
323.261
 11
119.779
 21
323.496
  0
LINE
  8
0
 10
119.779
 20
323.496
 11
119.444
 21
323.86
  0
LINE
  8
0
 10
119.444
 20
323.86
 11
119.246
 21
324.312
  0
LINE
  8
0
 10
119.246
 20
324.312
 11
119.205
 21
324.804
  0
LINE
  8
0
 10
119.205
 20
330.604
 11
119.326
 21
331.083
  0
LINE
  8
0
 10
119.326
 20
331.083
 11
119.596
 21
331.496
  0
LINE
  8
0
 10
119.596
 20
331.496
 11
119.986
 21
331.799
  0
LINE
  8
0
 10
119.986
 20
331.799
 11
120.453
 21
331.96
  0
LINE
  8
0
 10
120.453
 20
331.96
 11
120.947
 21
331.96
  0
LINE
  8
0
 10
120.947
 20
331.96
 11
121.414
 21
331.799
  0
LINE
  8
0
 10
121.414
 20
331.799
 11
121.804
 21
331.496
  0
LINE
  8
0
 10
121.804
 20
331.496
 11
122.074
 21
331.083
  0
LINE
  8
0
 10
122.074
 20
331.083
 11
122.195
 21
330.604
  0
LINE
  8
0
 10
122.195
 20
330.604
 11
122.154
 21
330.112
  0
LINE
  8
0
 10
122.154
 20
330.112
 11
121.956
 21
329.66
  0
LINE
  8
0
 10
121.956
 20
329.66
 11
121.621
 21
329.296
  0
LINE
  8
0
 10
121.621
 20
329.296
 11
121.187
 21
329.061
  0
LINE
  8
0
 10
121.187
 20
329.061
 11
120.7
 21
328.98
  0
LINE
  8
0
 10
120.7
 20
328.98
 11
120.213
 21
329.061
  0
LINE
  8
0
 10
120.213
 20
329.061
 11
119.779
 21
329.296
  0
LINE
  8
0
 10
119.779
 20
329.296
 11
119.444
 21
329.66
  0
LINE
  8
0
 10
119.444
 20
329.66
 11
119.246
 21
330.112
  0
LINE
  8
0
 10
119.246
 20
330.112
 11
119.205
 21
330.604
  0
LINE
  8
0
 10
124.205
 20
311.956
 11
124.246
 21
312.448
  0
LINE
  8
0
 10
124.246
 20
312.448
 11
124.444
 21
312.9
  0
LINE
  8
0
 10
124.444
 20
312.9
 11
124.779
 21
313.264
  0
LINE
  8
0
 10
124.779
 20
313.264
 11
125.213
 21
313.499
  0
LINE
  8
0
 10
125.213
 20
313.499
 11
125.7
 21
313.58
  0
LINE
  8
0
 10
125.7
 20
313.58
 11
126.187
 21
313.499
  0
LINE
  8
0
 10
126.187
 20
313.499
 11
126.621
 21
313.264
  0
LINE
  8
0
 10
126.621
 20
313.264
 11
126.956
 21
312.9
  0
LINE
  8
0
 10
126.956
 20
312.9
 11
127.154
 21
312.448
  0
LINE
  8
0
 10
127.154
 20
312.448
 11
127.195
 21
311.956
  0
LINE
  8
0
 10
127.195
 20
311.956
 11
127.074
 21
311.477
  0
LINE
  8
0
 10
127.074
 20
311.477
 11
126.804
 21
311.064
  0
LINE
  8
0
 10
126.804
 20
311.064
 11
126.414
 21
310.761
  0
LINE
  8
0
 10
126.414
 20
310.761
 11
125.947
 21
310.6
  0
LINE
  8
0
 10
125.947
 20
310.6
 11
125.453
 21
310.6
  0
LINE
  8
0
 10
125.453
 20
310.6
 11
124.986
 21
310.761
  0
LINE
  8
0
 10
124.986
 20
310.761
 11
124.596
 21
311.064
  0
LINE
  8
0
 10
124.596
 20
311.064
 11
124.326
 21
311.477
  0
LINE
  8
0
 10
124.326
 20
311.477
 11
124.205
 21
311.956
  0
LINE
  8
0
 10
124.205
 20
319.156
 11
124.246
 21
319.648
  0
LINE
  8
0
 10
124.246
 20
319.648
 11
124.444
 21
320.1
  0
LINE
  8
0
 10
124.444
 20
320.1
 11
124.779
 21
320.464
  0
LINE
  8
0
 10
124.779
 20
320.464
 11
125.213
 21
320.699
  0
LINE
  8
0
 10
125.213
 20
320.699
 11
125.7
 21
320.78
  0
LINE
  8
0
 10
125.7
 20
320.78
 11
126.187
 21
320.699
  0
LINE
  8
0
 10
126.187
 20
320.699
 11
126.621
 21
320.464
  0
LINE
  8
0
 10
126.621
 20
320.464
 11
126.956
 21
320.1
  0
LINE
  8
0
 10
126.956
 20
320.1
 11
127.154
 21
319.648
  0
LINE
  8
0
 10
127.154
 20
319.648
 11
127.195
 21
319.156
  0
LINE
  8
0
 10
127.195
 20
319.156
 11
127.074
 21
318.677
  0
LINE
  8
0
 10
127.074
 20
318.677
 11
126.804
 21
318.264
  0
LINE
  8
0
 10
126.804
 20
318.264
 11
126.414
 21
317.961
  0
LINE
  8
0
 10
126.414
 20
317.961
 11
125.947
 21
317.8
  0
LINE
  8
0
 10
125.947
 20
317.8
 11
125.453
 21
317.8
  0
LINE
  8
0
 10
125.453
 20
317.8
 11
124.986
 21
317.961
  0
LINE
  8
0
 10
124.986
 20
317.961
 11
124.596
 21
318.264
  0
LINE
  8
0
 10
124.596
 20
318.264
 11
124.326
 21
318.677
  0
LINE
  8
0
 10
124.326
 20
318.677
 11
124.205
 21
319.156
  0
LINE
  8
0
 10
124.5
 20
376.5
 11
124.555
 21
376.99
  0
LINE
  8
0
 10
124.555
 20
376.99
 11
124.718
 21
377.455
  0
LINE
  8
0
 10
124.718
 20
377.455
 11
124.98
 21
377.872
  0
LINE
  8
0
 10
124.98
 20
377.872
 11
125.328
 21
378.22
  0
LINE
  8
0
 10
125.328
 20
378.22
 11
125.745
 21
378.482
  0
LINE
  8
0
 10
125.745
 20
378.482
 11
126.21
 21
378.645
  0
LINE
  8
0
 10
126.21
 20
378.645
 11
126.7
 21
378.7
  0
LINE
  8
0
 10
126.7
 20
378.7
 11
127.19
 21
378.645
  0
LINE
  8
0
 10
127.19
 20
378.645
 11
127.655
 21
378.482
  0
LINE
  8
0
 10
127.655
 20
378.482
 11
128.072
 21
378.22
  0
LINE
  8
0
 10
128.072
 20
378.22
 11
128.42
 21
377.872
  0
LINE
  8
0
 10
128.42
 20
377.872
 11
128.682
 21
377.455
  0
LINE
  8
0
 10
128.682
 20
377.455
 11
128.845
 21
376.99
  0
LINE
  8
0
 10
128.845
 20
376.99
 11
128.9
 21
376.5
  0
LINE
  8
0
 10
128.9
 20
376.5
 11
128.845
 21
376.01
  0
LINE
  8
0
 10
128.845
 20
376.01
 11
128.682
 21
375.545
  0
LINE
  8
0
 10
128.682
 20
375.545
 11
128.42
 21
375.128
  0
LINE
  8
0
 10
128.42
 20
375.128
 11
128.072
 21
374.78
  0
LINE
  8
0
 10
128.072
 20
374.78
 11
127.655
 21
374.518
  0
LINE
  8
0
 10
127.655
 20
374.518
 11
127.19
 21
374.355
  0
LINE
  8
0
 10
127.19
 20
374.355
 11
126.7
 21
374.3
  0
LINE
  8
0
 10
126.7
 20
374.3
 11
126.21
 21
374.355
  0
LINE
  8
0
 10
126.21
 20
374.355
 11
125.745
 21
374.518
  0
LINE
  8
0
 10
125.745
 20
374.518
 11
125.328
 21
374.78
  0
LINE
  8
0
 10
125.328
 20
374.78
 11
124.98
 21
375.128
  0
LINE
  8
0
 10
124.98
 20
375.128
 11
124.718
 21
375.545
  0
LINE
  8
0
 10
124.718
 20
375.545
 11
124.555
 21
376.01
  0
LINE
  8
0
 10
124.555
 20
376.01
 11
124.5
 21
376.5
  0
LINE
  8
0
 10
127.3
 20
33.71
 11
127.355
 21
34.1995
  0
LINE
  8
0
 10
127.355
 20
34.1995
 11
127.518
 21
34.6645
  0
LINE
  8
0
 10
127.518
 20
34.6645
 11
127.78
 21
35.0817
  0
LINE
  8
0
 10
127.78
 20
35.0817
 11
128.128
 21
35.43
  0
LINE
  8
0
 10
128.128
 20
35.43
 11
128.545
 21
35.6921
  0
LINE
  8
0
 10
128.545
 20
35.6921
 11
129.01
 21
35.8548
  0
LINE
  8
0
 10
129.01
 20
35.8548
 11
129.5
 21
35.91
  0
LINE
  8
0
 10
129.5
 20
35.91
 11
129.99
 21
35.8548
  0
LINE
  8
0
 10
129.99
 20
35.8548
 11
130.455
 21
35.6921
  0
LINE
  8
0
 10
130.455
 20
35.6921
 11
130.872
 21
35.43
  0
LINE
  8
0
 10
130.872
 20
35.43
 11
131.22
 21
35.0817
  0
LINE
  8
0
 10
131.22
 20
35.0817
 11
131.482
 21
34.6645
  0
LINE
  8
0
 10
131.482
 20
34.6645
 11
131.645
 21
34.1995
  0
LINE
  8
0
 10
131.645
 20
34.1995
 11
131.7
 21
33.71
  0
LINE
  8
0
 10
131.7
 20
33.71
 11
131.645
 21
33.2205
  0
LINE
  8
0
 10
131.645
 20
33.2205
 11
131.482
 21
32.7555
  0
LINE
  8
0
 10
131.482
 20
32.7555
 11
131.22
 21
32.3383
  0
LINE
  8
0
 10
131.22
 20
32.3383
 11
130.872
 21
31.99
  0
LINE
  8
0
 10
130.872
 20
31.99
 11
130.455
 21
31.7279
  0
LINE
  8
0
 10
130.455
 20
31.7279
 11
129.99
 21
31.5652
  0
LINE
  8
0
 10
129.99
 20
31.5652
 11
129.5
 21
31.51
  0
LINE
  8
0
 10
129.5
 20
31.51
 11
129.01
 21
31.5652
  0
LINE
  8
0
 10
129.01
 20
31.5652
 11
128.545
 21
31.7279
  0
LINE
  8
0
 10
128.545
 20
31.7279
 11
128.128
 21
31.99
  0
LINE
  8
0
 10
128.128
 20
31.99
 11
127.78
 21
32.3383
  0
LINE
  8
0
 10
127.78
 20
32.3383
 11
127.518
 21
32.7555
  0
LINE
  8
0
 10
127.518
 20
32.7555
 11
127.355
 21
33.2205
  0
LINE
  8
0
 10
127.355
 20
33.2205
 11
127.3
 21
33.71
  0
LINE
  8
0
 10
127.3
 20
350.29
 11
127.355
 21
350.78
  0
LINE
  8
0
 10
127.355
 20
350.78
 11
127.518
 21
351.245
  0
LINE
  8
0
 10
127.518
 20
351.245
 11
127.78
 21
351.662
  0
LINE
  8
0
 10
127.78
 20
351.662
 11
128.128
 21
352.01
  0
LINE
  8
0
 10
128.128
 20
352.01
 11
128.545
 21
352.272
  0
LINE
  8
0
 10
128.545
 20
352.272
 11
129.01
 21
352.435
  0
LINE
  8
0
 10
129.01
 20
352.435
 11
129.5
 21
352.49
  0
LINE
  8
0
 10
129.5
 20
352.49
 11
129.99
 21
352.435
  0
LINE
  8
0
 10
129.99
 20
352.435
 11
130.455
 21
352.272
  0
LINE
  8
0
 10
130.455
 20
352.272
 11
130.872
 21
352.01
  0
LINE
  8
0
 10
130.872
 20
352.01
 11
131.22
 21
351.662
  0
LINE
  8
0
 10
131.22
 20
351.662
 11
131.482
 21
351.245
  0
LINE
  8
0
 10
131.482
 20
351.245
 11
131.645
 21
350.78
  0
LINE
  8
0
 10
131.645
 20
350.78
 11
131.7
 21
350.29
  0
LINE
  8
0
 10
131.7
 20
350.29
 11
131.645
 21
349.8
  0
LINE
  8
0
 10
131.645
 20
349.8
 11
131.482
 21
349.335
  0
LINE
  8
0
 10
131.482
 20
349.335
 11
131.22
 21
348.918
  0
LINE
  8
0
 10
131.22
 20
348.918
 11
130.872
 21
348.57
  0
LINE
  8
0
 10
130.872
 20
348.57
 11
130.455
 21
348.308
  0
LINE
  8
0
 10
130.455
 20
348.308
 11
129.99
 21
348.145
  0
LINE
  8
0
 10
129.99
 20
348.145
 11
129.5
 21
348.09
  0
LINE
  8
0
 10
129.5
 20
348.09
 11
129.01
 21
348.145
  0
LINE
  8
0
 10
129.01
 20
348.145
 11
128.545
 21
348.308
  0
LINE
  8
0
 10
128.545
 20
348.308
 11
128.128
 21
348.57
  0
LINE
  8
0
 10
128.128
 20
348.57
 11
127.78
 21
348.918
  0
LINE
  8
0
 10
127.78
 20
348.918
 11
127.518
 21
349.335
  0
LINE
  8
0
 10
127.518
 20
349.335
 11
127.355
 21
349.8
  0
LINE
  8
0
 10
127.355
 20
349.8
 11
127.3
 21
350.29
  0
LINE
  8
0
 10
143
 20
56.5
 11
143
 21
65.5
  0
LINE
  8
0
 10
143
 20
65.5
 11
143.031
 21
65.779
  0
LINE
  8
0
 10
143.031
 20
65.779
 11
143.055
 21
65.9895
  0
LINE
  8
0
 10
143.055
 20
65.9895
 11
143.218
 21
66.4545
  0
LINE
  8
0
 10
143.218
 20
66.4545
 11
143.48
 21
66.8717
  0
LINE
  8
0
 10
143.48
 20
66.8717
 11
143.828
 21
67.22
  0
LINE
  8
0
 10
143.828
 20
67.22
 11
144.245
 21
67.4821
  0
LINE
  8
0
 10
144.245
 20
67.4821
 11
144.71
 21
67.6448
  0
LINE
  8
0
 10
144.71
 20
67.6448
 11
145.2
 21
67.7
  0
LINE
  8
0
 10
145.2
 20
67.7
 11
145.69
 21
67.6448
  0
LINE
  8
0
 10
145.69
 20
67.6448
 11
146.155
 21
67.4821
  0
LINE
  8
0
 10
146.155
 20
67.4821
 11
146.572
 21
67.22
  0
LINE
  8
0
 10
146.572
 20
67.22
 11
146.92
 21
66.8717
  0
LINE
  8
0
 10
146.92
 20
66.8717
 11
147.182
 21
66.4545
  0
LINE
  8
0
 10
147.182
 20
66.4545
 11
147.345
 21
65.9895
  0
LINE
  8
0
 10
147.345
 20
65.9895
 11
147.369
 21
65.779
  0
LINE
  8
0
 10
147.369
 20
65.779
 11
147.4
 21
65.5
  0
LINE
  8
0
 10
147.4
 20
65.5
 11
147.4
 21
56.5
  0
LINE
  8
0
 10
147.4
 20
56.5
 11
147.376
 21
56.2895
  0
LINE
  8
0
 10
147.376
 20
56.2895
 11
147.345
 21
56.0105
  0
LINE
  8
0
 10
147.345
 20
56.0105
 11
147.182
 21
55.5455
  0
LINE
  8
0
 10
147.182
 20
55.5455
 11
146.92
 21
55.1283
  0
LINE
  8
0
 10
146.92
 20
55.1283
 11
146.572
 21
54.78
  0
LINE
  8
0
 10
146.572
 20
54.78
 11
146.155
 21
54.5179
  0
LINE
  8
0
 10
146.155
 20
54.5179
 11
145.69
 21
54.3552
  0
LINE
  8
0
 10
145.69
 20
54.3552
 11
145.2
 21
54.3
  0
LINE
  8
0
 10
145.2
 20
54.3
 11
144.71
 21
54.3552
  0
LINE
  8
0
 10
144.71
 20
54.3552
 11
144.245
 21
54.5179
  0
LINE
  8
0
 10
144.245
 20
54.5179
 11
143.828
 21
54.78
  0
LINE
  8
0
 10
143.828
 20
54.78
 11
143.48
 21
55.1283
  0
LINE
  8
0
 10
143.48
 20
55.1283
 11
143.218
 21
55.5455
  0
LINE
  8
0
 10
143.218
 20
55.5455
 11
143.055
 21
56.0105
  0
LINE
  8
0
 10
143.055
 20
56.0105
 11
143.024
 21
56.2895
  0
LINE
  8
0
 10
143.024
 20
56.2895
 11
143
 21
56.5
  0
LINE
  8
0
 10
146.2
 20
7.2
 11
146.255
 21
7.68955
  0
LINE
  8
0
 10
146.255
 20
7.68955
 11
146.418
 21
8.15454
  0
LINE
  8
0
 10
146.418
 20
8.15454
 11
146.68
 21
8.57168
  0
LINE
  8
0
 10
146.68
 20
8.57168
 11
147.028
 21
8.92003
  0
LINE
  8
0
 10
147.028
 20
8.92003
 11
147.445
 21
9.18213
  0
LINE
  8
0
 10
147.445
 20
9.18213
 11
147.91
 21
9.34484
  0
LINE
  8
0
 10
147.91
 20
9.34484
 11
148.4
 21
9.4
  0
LINE
  8
0
 10
148.4
 20
9.4
 11
148.89
 21
9.34484
  0
LINE
  8
0
 10
148.89
 20
9.34484
 11
149.355
 21
9.18213
  0
LINE
  8
0
 10
149.355
 20
9.18213
 11
149.772
 21
8.92003
  0
LINE
  8
0
 10
149.772
 20
8.92003
 11
150.12
 21
8.57168
  0
LINE
  8
0
 10
150.12
 20
8.57168
 11
150.382
 21
8.15454
  0
LINE
  8
0
 10
150.382
 20
8.15454
 11
150.545
 21
7.68955
  0
LINE
  8
0
 10
150.545
 20
7.68955
 11
150.6
 21
7.2
  0
LINE
  8
0
 10
150.6
 20
7.2
 11
150.545
 21
6.71045
  0
LINE
  8
0
 10
150.545
 20
6.71045
 11
150.382
 21
6.24546
  0
LINE
  8
0
 10
150.382
 20
6.24546
 11
150.12
 21
5.82832
  0
LINE
  8
0
 10
150.12
 20
5.82832
 11
149.772
 21
5.47997
  0
LINE
  8
0
 10
149.772
 20
5.47997
 11
149.355
 21
5.21787
  0
LINE
  8
0
 10
149.355
 20
5.21787
 11
148.89
 21
5.05516
  0
LINE
  8
0
 10
148.89
 20
5.05516
 11
148.637
 21
5.02675
  0
LINE
  8
0
 10
148.637
 20
5.02675
 11
148.4
 21
5
  0
LINE
  8
0
 10
148.4
 20
5
 11
148.163
 21
5.02675
  0
LINE
  8
0
 10
148.163
 20
5.02675
 11
147.91
 21
5.05516
  0
LINE
  8
0
 10
147.91
 20
5.05516
 11
147.445
 21
5.21787
  0
LINE
  8
0
 10
147.445
 20
5.21787
 11
147.028
 21
5.47997
  0
LINE
  8
0
 10
147.028
 20
5.47997
 11
146.68
 21
5.82832
  0
LINE
  8
0
 10
146.68
 20
5.82832
 11
146.418
 21
6.24546
  0
LINE
  8
0
 10
146.418
 20
6.24546
 11
146.255
 21
6.71045
  0
LINE
  8
0
 10
146.255
 20
6.71045
 11
146.2
 21
7.2
  0
LINE
  8
0
 10
156.6
 20
376.5
 11
156.655
 21
376.99
  0
LINE
  8
0
 10
156.655
 20
376.99
 11
156.818
 21
377.455
  0
LINE
  8
0
 10
156.818
 20
377.455
 11
157.08
 21
377.872
  0
LINE
  8
0
 10
157.08
 20
377.872
 11
157.428
 21
378.22
  0
LINE
  8
0
 10
157.428
 20
378.22
 11
157.845
 21
378.482
  0
LINE
  8
0
 10
157.845
 20
378.482
 11
158.31
 21
378.645
  0
LINE
  8
0
 10
158.31
 20
378.645
 11
158.8
 21
378.7
  0
LINE
  8
0
 10
158.8
 20
378.7
 11
159.29
 21
378.645
  0
LINE
  8
0
 10
159.29
 20
378.645
 11
159.755
 21
378.482
  0
LINE
  8
0
 10
159.755
 20
378.482
 11
160.172
 21
378.22
  0
LINE
  8
0
 10
160.172
 20
378.22
 11
160.52
 21
377.872
  0
LINE
  8
0
 10
160.52
 20
377.872
 11
160.782
 21
377.455
  0
LINE
  8
0
 10
160.782
 20
377.455
 11
160.945
 21
376.99
  0
LINE
  8
0
 10
160.945
 20
376.99
 11
161
 21
376.5
  0
LINE
  8
0
 10
161
 20
376.5
 11
160.945
 21
376.01
  0
LINE
  8
0
 10
160.945
 20
376.01
 11
160.782
 21
375.545
  0
LINE
  8
0
 10
160.782
 20
375.545
 11
160.52
 21
375.128
  0
LINE
  8
0
 10
160.52
 20
375.128
 11
160.172
 21
374.78
  0
LINE
  8
0
 10
160.172
 20
374.78
 11
159.755
 21
374.518
  0
LINE
  8
0
 10
159.755
 20
374.518
 11
159.29
 21
374.355
  0
LINE
  8
0
 10
159.29
 20
374.355
 11
158.8
 21
374.3
  0
LINE
  8
0
 10
158.8
 20
374.3
 11
158.31
 21
374.355
  0
LINE
  8
0
 10
158.31
 20
374.355
 11
157.845
 21
374.518
  0
LINE
  8
0
 10
157.845
 20
374.518
 11
157.428
 21
374.78
  0
LINE
  8
0
 10
157.428
 20
374.78
 11
157.08
 21
375.128
  0
LINE
  8
0
 10
157.08
 20
375.128
 11
156.818
 21
375.545
  0
LINE
  8
0
 10
156.818
 20
375.545
 11
156.655
 21
376.01
  0
LINE
  8
0
 10
156.655
 20
376.01
 11
156.6
 21
376.5
  0
LINE
  8
0
 10
156.87
 20
17.9
 11
156.918
 21
18.3877
  0
LINE
  8
0
 10
156.918
 20
18.3877
 11
157.06
 21
18.8567
  0
LINE
  8
0
 10
157.06
 20
18.8567
 11
157.291
 21
19.2889
  0
LINE
  8
0
 10
157.291
 20
19.2889
 11
157.602
 21
19.6678
  0
LINE
  8
0
 10
157.602
 20
19.6678
 11
157.981
 21
19.9787
  0
LINE
  8
0
 10
157.981
 20
19.9787
 11
158.413
 21
20.2097
  0
LINE
  8
0
 10
158.413
 20
20.2097
 11
158.882
 21
20.352
  0
LINE
  8
0
 10
158.882
 20
20.352
 11
159.37
 21
20.4
  0
LINE
  8
0
 10
159.37
 20
20.4
 11
159.858
 21
20.352
  0
LINE
  8
0
 10
159.858
 20
20.352
 11
160.327
 21
20.2097
  0
LINE
  8
0
 10
160.327
 20
20.2097
 11
160.759
 21
19.9787
  0
LINE
  8
0
 10
160.759
 20
19.9787
 11
161.138
 21
19.6678
  0
LINE
  8
0
 10
161.138
 20
19.6678
 11
161.449
 21
19.2889
  0
LINE
  8
0
 10
161.449
 20
19.2889
 11
161.68
 21
18.8567
  0
LINE
  8
0
 10
161.68
 20
18.8567
 11
161.822
 21
18.3877
  0
LINE
  8
0
 10
161.822
 20
18.3877
 11
161.87
 21
17.9
  0
LINE
  8
0
 10
161.87
 20
17.9
 11
161.822
 21
17.4123
  0
LINE
  8
0
 10
161.822
 20
17.4123
 11
161.68
 21
16.9433
  0
LINE
  8
0
 10
161.68
 20
16.9433
 11
161.449
 21
16.5111
  0
LINE
  8
0
 10
161.449
 20
16.5111
 11
161.138
 21
16.1322
  0
LINE
  8
0
 10
161.138
 20
16.1322
 11
160.759
 21
15.8213
  0
LINE
  8
0
 10
160.759
 20
15.8213
 11
160.327
 21
15.5903
  0
LINE
  8
0
 10
160.327
 20
15.5903
 11
159.858
 21
15.448
  0
LINE
  8
0
 10
159.858
 20
15.448
 11
159.37
 21
15.4
  0
LINE
  8
0
 10
159.37
 20
15.4
 11
158.882
 21
15.448
  0
LINE
  8
0
 10
158.882
 20
15.448
 11
158.413
 21
15.5903
  0
LINE
  8
0
 10
158.413
 20
15.5903
 11
157.981
 21
15.8213
  0
LINE
  8
0
 10
157.981
 20
15.8213
 11
157.602
 21
16.1322
  0
LINE
  8
0
 10
157.602
 20
16.1322
 11
157.291
 21
16.5111
  0
LINE
  8
0
 10
157.291
 20
16.5111
 11
157.06
 21
16.9433
  0
LINE
  8
0
 10
157.06
 20
16.9433
 11
156.918
 21
17.4123
  0
LINE
  8
0
 10
156.918
 20
17.4123
 11
156.87
 21
17.9
  0
LINE
  8
0
 10
167.42
 20
7.2
 11
167.475
 21
7.68955
  0
LINE
  8
0
 10
167.475
 20
7.68955
 11
167.638
 21
8.15454
  0
LINE
  8
0
 10
167.638
 20
8.15454
 11
167.9
 21
8.57168
  0
LINE
  8
0
 10
167.9
 20
8.57168
 11
168.248
 21
8.92003
  0
LINE
  8
0
 10
168.248
 20
8.92003
 11
168.665
 21
9.18213
  0
LINE
  8
0
 10
168.665
 20
9.18213
 11
169.13
 21
9.34484
  0
LINE
  8
0
 10
169.13
 20
9.34484
 11
169.62
 21
9.4
  0
LINE
  8
0
 10
169.62
 20
9.4
 11
170.11
 21
9.34484
  0
LINE
  8
0
 10
170.11
 20
9.34484
 11
170.575
 21
9.18213
  0
LINE
  8
0
 10
170.575
 20
9.18213
 11
170.992
 21
8.92003
  0
LINE
  8
0
 10
170.992
 20
8.92003
 11
171.34
 21
8.57168
  0
LINE
  8
0
 10
171.34
 20
8.57168
 11
171.602
 21
8.15454
  0
LINE
  8
0
 10
171.602
 20
8.15454
 11
171.765
 21
7.68955
  0
LINE
  8
0
 10
171.765
 20
7.68955
 11
171.82
 21
7.2
  0
LINE
  8
0
 10
171.82
 20
7.2
 11
171.765
 21
6.71045
  0
LINE
  8
0
 10
171.765
 20
6.71045
 11
171.602
 21
6.24546
  0
LINE
  8
0
 10
171.602
 20
6.24546
 11
171.34
 21
5.82832
  0
LINE
  8
0
 10
171.34
 20
5.82832
 11
170.992
 21
5.47997
  0
LINE
  8
0
 10
170.992
 20
5.47997
 11
170.575
 21
5.21787
  0
LINE
  8
0
 10
170.575
 20
5.21787
 11
170.11
 21
5.05516
  0
LINE
  8
0
 10
170.11
 20
5.05516
 11
169.857
 21
5.02675
  0
LINE
  8
0
 10
169.857
 20
5.02675
 11
169.62
 21
5
  0
LINE
  8
0
 10
169.62
 20
5
 11
169.383
 21
5.02675
  0
LINE
  8
0
 10
169.383
 20
5.02675
 11
169.13
 21
5.05516
  0
LINE
  8
0
 10
169.13
 20
5.05516
 11
168.665
 21
5.21787
  0
LINE
  8
0
 10
168.665
 20
5.21787
 11
168.248
 21
5.47997
  0
LINE
  8
0
 10
168.248
 20
5.47997
 11
167.9
 21
5.82832
  0
LINE
  8
0
 10
167.9
 20
5.82832
 11
167.638
 21
6.24546
  0
LINE
  8
0
 10
167.638
 20
6.24546
 11
167.475
 21
6.71045
  0
LINE
  8
0
 10
167.475
 20
6.71045
 11
167.42
 21
7.2
  0
LINE
  8
0
 10
173.1
 20
56.5
 11
173.1
 21
65.5
  0
LINE
  8
0
 10
173.1
 20
65.5
 11
173.131
 21
65.779
  0
LINE
  8
0
 10
173.131
 20
65.779
 11
173.155
 21
65.9895
  0
LINE
  8
0
 10
173.155
 20
65.9895
 11
173.318
 21
66.4545
  0
LINE
  8
0
 10
173.318
 20
66.4545
 11
173.58
 21
66.8717
  0
LINE
  8
0
 10
173.58
 20
66.8717
 11
173.928
 21
67.22
  0
LINE
  8
0
 10
173.928
 20
67.22
 11
174.345
 21
67.4821
  0
LINE
  8
0
 10
174.345
 20
67.4821
 11
174.81
 21
67.6448
  0
LINE
  8
0
 10
174.81
 20
67.6448
 11
175.3
 21
67.7
  0
LINE
  8
0
 10
175.3
 20
67.7
 11
175.79
 21
67.6448
  0
LINE
  8
0
 10
175.79
 20
67.6448
 11
176.255
 21
67.4821
  0
LINE
  8
0
 10
176.255
 20
67.4821
 11
176.672
 21
67.22
  0
LINE
  8
0
 10
176.672
 20
67.22
 11
177.02
 21
66.8717
  0
LINE
  8
0
 10
177.02
 20
66.8717
 11
177.282
 21
66.4545
  0
LINE
  8
0
 10
177.282
 20
66.4545
 11
177.445
 21
65.9895
  0
LINE
  8
0
 10
177.445
 20
65.9895
 11
177.469
 21
65.779
  0
LINE
  8
0
 10
177.469
 20
65.779
 11
177.5
 21
65.5
  0
LINE
  8
0
 10
177.5
 20
65.5
 11
177.5
 21
56.5
  0
LINE
  8
0
 10
177.5
 20
56.5
 11
177.476
 21
56.2895
  0
LINE
  8
0
 10
177.476
 20
56.2895
 11
177.445
 21
56.0105
  0
LINE
  8
0
 10
177.445
 20
56.0105
 11
177.282
 21
55.5455
  0
LINE
  8
0
 10
177.282
 20
55.5455
 11
177.02
 21
55.1283
  0
LINE
  8
0
 10
177.02
 20
55.1283
 11
176.672
 21
54.78
  0
LINE
  8
0
 10
176.672
 20
54.78
 11
176.255
 21
54.5179
  0
LINE
  8
0
 10
176.255
 20
54.5179
 11
175.79
 21
54.3552
  0
LINE
  8
0
 10
175.79
 20
54.3552
 11
175.3
 21
54.3
  0
LINE
  8
0
 10
175.3
 20
54.3
 11
174.81
 21
54.3552
  0
LINE
  8
0
 10
174.81
 20
54.3552
 11
174.345
 21
54.5179
  0
LINE
  8
0
 10
174.345
 20
54.5179
 11
173.928
 21
54.78
  0
LINE
  8
0
 10
173.928
 20
54.78
 11
173.58
 21
55.1283
  0
LINE
  8
0
 10
173.58
 20
55.1283
 11
173.318
 21
55.5455
  0
LINE
  8
0
 10
173.318
 20
55.5455
 11
173.155
 21
56.0105
  0
LINE
  8
0
 10
173.155
 20
56.0105
 11
173.124
 21
56.2895
  0
LINE
  8
0
 10
173.124
 20
56.2895
 11
173.1
 21
56.5
  0
LINE
  8
0
 10
184.15
 20
353.15
 11
184.205
 21
353.64
  0
LINE
  8
0
 10
184.205
 20
353.64
 11
184.368
 21
354.105
  0
LINE
  8
0
 10
184.368
 20
354.105
 11
184.63
 21
354.522
  0
LINE
  8
0
 10
184.63
 20
354.522
 11
184.978
 21
354.87
  0
LINE
  8
0
 10
184.978
 20
354.87
 11
185.395
 21
355.132
  0
LINE
  8
0
 10
185.395
 20
355.132
 11
185.86
 21
355.295
  0
LINE
  8
0
 10
185.86
 20
355.295
 11
186.35
 21
355.35
  0
LINE
  8
0
 10
186.35
 20
355.35
 11
186.84
 21
355.295
  0
LINE
  8
0
 10
186.84
 20
355.295
 11
187.305
 21
355.132
  0
LINE
  8
0
 10
187.305
 20
355.132
 11
187.722
 21
354.87
  0
LINE
  8
0
 10
187.722
 20
354.87
 11
188.07
 21
354.522
  0
LINE
  8
0
 10
188.07
 20
354.522
 11
188.332
 21
354.105
  0
LINE
  8
0
 10
188.332
 20
354.105
 11
188.495
 21
353.64
  0
LINE
  8
0
 10
188.495
 20
353.64
 11
188.55
 21
353.15
  0
LINE
  8
0
 10
188.55
 20
353.15
 11
188.495
 21
352.66
  0
LINE
  8
0
 10
188.495
 20
352.66
 11
188.332
 21
352.195
  0
LINE
  8
0
 10
188.332
 20
352.195
 11
188.07
 21
351.778
  0
LINE
  8
0
 10
188.07
 20
351.778
 11
187.722
 21
351.43
  0
LINE
  8
0
 10
187.722
 20
351.43
 11
187.305
 21
351.168
  0
LINE
  8
0
 10
187.305
 20
351.168
 11
186.84
 21
351.005
  0
LINE
  8
0
 10
186.84
 20
351.005
 11
186.35
 21
350.95
  0
LINE
  8
0
 10
186.35
 20
350.95
 11
185.86
 21
351.005
  0
LINE
  8
0
 10
185.86
 20
351.005
 11
185.395
 21
351.168
  0
LINE
  8
0
 10
185.395
 20
351.168
 11
184.978
 21
351.43
  0
LINE
  8
0
 10
184.978
 20
351.43
 11
184.63
 21
351.778
  0
LINE
  8
0
 10
184.63
 20
351.778
 11
184.368
 21
352.195
  0
LINE
  8
0
 10
184.368
 20
352.195
 11
184.205
 21
352.66
  0
LINE
  8
0
 10
184.205
 20
352.66
 11
184.15
 21
353.15
  0
LINE
  8
0
 10
188.8
 20
364
 11
188.895
 21
364.478
  0
LINE
  8
0
 10
188.895
 20
364.478
 11
189.166
 21
364.884
  0
LINE
  8
0
 10
189.166
 20
364.884
 11
189.572
 21
365.155
  0
LINE
  8
0
 10
189.572
 20
365.155
 11
190.05
 21
365.25
  0
LINE
  8
0
 10
190.05
 20
365.25
 11
217.45
 21
365.25
  0
LINE
  8
0
 10
217.45
 20
365.25
 11
217.928
 21
365.155
  0
LINE
  8
0
 10
217.928
 20
365.155
 11
218.334
 21
364.884
  0
LINE
  8
0
 10
218.334
 20
364.884
 11
218.605
 21
364.478
  0
LINE
  8
0
 10
218.605
 20
364.478
 11
218.7
 21
364
  0
LINE
  8
0
 10
218.7
 20
364
 11
218.605
 21
363.522
  0
LINE
  8
0
 10
218.605
 20
363.522
 11
218.334
 21
363.116
  0
LINE
  8
0
 10
218.334
 20
363.116
 11
217.928
 21
362.845
  0
LINE
  8
0
 10
217.928
 20
362.845
 11
217.45
 21
362.75
  0
LINE
  8
0
 10
217.45
 20
362.75
 11
190.05
 21
362.75
  0
LINE
  8
0
 10
190.05
 20
362.75
 11
189.572
 21
362.845
  0
LINE
  8
0
 10
189.572
 20
362.845
 11
189.166
 21
363.116
  0
LINE
  8
0
 10
189.166
 20
363.116
 11
188.895
 21
363.522
  0
LINE
  8
0
 10
188.895
 20
363.522
 11
188.8
 21
364
  0
LINE
  8
0
 10
204.13
 20
7.2
 11
204.185
 21
7.68955
  0
LINE
  8
0
 10
204.185
 20
7.68955
 11
204.348
 21
8.15454
  0
LINE
  8
0
 10
204.348
 20
8.15454
 11
204.61
 21
8.57168
  0
LINE
  8
0
 10
204.61
 20
8.57168
 11
204.958
 21
8.92003
  0
LINE
  8
0
 10
204.958
 20
8.92003
 11
205.375
 21
9.18213
  0
LINE
  8
0
 10
205.375
 20
9.18213
 11
205.84
 21
9.34484
  0
LINE
  8
0
 10
205.84
 20
9.34484
 11
206.33
 21
9.4
  0
LINE
  8
0
 10
206.33
 20
9.4
 11
206.82
 21
9.34484
  0
LINE
  8
0
 10
206.82
 20
9.34484
 11
207.285
 21
9.18213
  0
LINE
  8
0
 10
207.285
 20
9.18213
 11
207.702
 21
8.92003
  0
LINE
  8
0
 10
207.702
 20
8.92003
 11
208.05
 21
8.57168
  0
LINE
  8
0
 10
208.05
 20
8.57168
 11
208.312
 21
8.15454
  0
LINE
  8
0
 10
208.312
 20
8.15454
 11
208.475
 21
7.68955
  0
LINE
  8
0
 10
208.475
 20
7.68955
 11
208.53
 21
7.2
  0
LINE
  8
0
 10
208.53
 20
7.2
 11
208.475
 21
6.71045
  0
LINE
  8
0
 10
208.475
 20
6.71045
 11
208.312
 21
6.24546
  0
LINE
  8
0
 10
208.312
 20
6.24546
 11
208.05
 21
5.82832
  0
LINE
  8
0
 10
208.05
 20
5.82832
 11
207.702
 21
5.47997
  0
LINE
  8
0
 10
207.702
 20
5.47997
 11
207.285
 21
5.21787
  0
LINE
  8
0
 10
207.285
 20
5.21787
 11
206.82
 21
5.05516
  0
LINE
  8
0
 10
206.82
 20
5.05516
 11
206.567
 21
5.02675
  0
LINE
  8
0
 10
206.567
 20
5.02675
 11
206.33
 21
5
  0
LINE
  8
0
 10
206.33
 20
5
 11
206.093
 21
5.02675
  0
LINE
  8
0
 10
206.093
 20
5.02675
 11
205.84
 21
5.05516
  0
LINE
  8
0
 10
205.84
 20
5.05516
 11
205.375
 21
5.21787
  0
LINE
  8
0
 10
205.375
 20
5.21787
 11
204.958
 21
5.47997
  0
LINE
  8
0
 10
204.958
 20
5.47997
 11
204.61
 21
5.82832
  0
LINE
  8
0
 10
204.61
 20
5.82832
 11
204.348
 21
6.24546
  0
LINE
  8
0
 10
204.348
 20
6.24546
 11
204.185
 21
6.71045
  0
LINE
  8
0
 10
204.185
 20
6.71045
 11
204.13
 21
7.2
  0
LINE
  8
0
 10
218.95
 20
353.15
 11
219.005
 21
353.64
  0
LINE
  8
0
 10
219.005
 20
353.64
 11
219.168
 21
354.105
  0
LINE
  8
0
 10
219.168
 20
354.105
 11
219.43
 21
354.522
  0
LINE
  8
0
 10
219.43
 20
354.522
 11
219.778
 21
354.87
  0
LINE
  8
0
 10
219.778
 20
354.87
 11
220.195
 21
355.132
  0
LINE
  8
0
 10
220.195
 20
355.132
 11
220.66
 21
355.295
  0
LINE
  8
0
 10
220.66
 20
355.295
 11
221.15
 21
355.35
  0
LINE
  8
0
 10
221.15
 20
355.35
 11
221.64
 21
355.295
  0
LINE
  8
0
 10
221.64
 20
355.295
 11
222.105
 21
355.132
  0
LINE
  8
0
 10
222.105
 20
355.132
 11
222.522
 21
354.87
  0
LINE
  8
0
 10
222.522
 20
354.87
 11
222.87
 21
354.522
  0
LINE
  8
0
 10
222.87
 20
354.522
 11
223.132
 21
354.105
  0
LINE
  8
0
 10
223.132
 20
354.105
 11
223.295
 21
353.64
  0
LINE
  8
0
 10
223.295
 20
353.64
 11
223.35
 21
353.15
  0
LINE
  8
0
 10
223.35
 20
353.15
 11
223.295
 21
352.66
  0
LINE
  8
0
 10
223.295
 20
352.66
 11
223.132
 21
352.195
  0
LINE
  8
0
 10
223.132
 20
352.195
 11
222.87
 21
351.778
  0
LINE
  8
0
 10
222.87
 20
351.778
 11
222.522
 21
351.43
  0
LINE
  8
0
 10
222.522
 20
351.43
 11
222.105
 21
351.168
  0
LINE
  8
0
 10
222.105
 20
351.168
 11
221.64
 21
351.005
  0
LINE
  8
0
 10
221.64
 20
351.005
 11
221.15
 21
350.95
  0
LINE
  8
0
 10
221.15
 20
350.95
 11
220.66
 21
351.005
  0
LINE
  8
0
 10
220.66
 20
351.005
 11
220.195
 21
351.168
  0
LINE
  8
0
 10
220.195
 20
351.168
 11
219.778
 21
351.43
  0
LINE
  8
0
 10
219.778
 20
351.43
 11
219.43
 21
351.778
  0
LINE
  8
0
 10
219.43
 20
351.778
 11
219.168
 21
352.195
  0
LINE
  8
0
 10
219.168
 20
352.195
 11
219.005
 21
352.66
  0
LINE
  8
0
 10
219.005
 20
352.66
 11
218.95
 21
353.15
  0
LINE
  8
0
 10
219.45
 20
27.95
 11
219.474
 21
28.163
  0
LINE
  8
0
 10
219.474
 20
28.163
 11
219.505
 21
28.4395
  0
LINE
  8
0
 10
219.505
 20
28.4395
 11
219.668
 21
28.9045
  0
LINE
  8
0
 10
219.668
 20
28.9045
 11
219.93
 21
29.3217
  0
LINE
  8
0
 10
219.93
 20
29.3217
 11
220.278
 21
29.67
  0
LINE
  8
0
 10
220.278
 20
29.67
 11
220.695
 21
29.9321
  0
LINE
  8
0
 10
220.695
 20
29.9321
 11
221.16
 21
30.0948
  0
LINE
  8
0
 10
221.16
 20
30.0948
 11
221.65
 21
30.15
  0
LINE
  8
0
 10
221.65
 20
30.15
 11
222.14
 21
30.0948
  0
LINE
  8
0
 10
222.14
 20
30.0948
 11
222.605
 21
29.9321
  0
LINE
  8
0
 10
222.605
 20
29.9321
 11
223.022
 21
29.67
  0
LINE
  8
0
 10
223.022
 20
29.67
 11
223.37
 21
29.3217
  0
LINE
  8
0
 10
223.37
 20
29.3217
 11
223.632
 21
28.9045
  0
LINE
  8
0
 10
223.632
 20
28.9045
 11
223.795
 21
28.4395
  0
LINE
  8
0
 10
223.795
 20
28.4395
 11
223.85
 21
27.95
  0
LINE
  8
0
 10
223.85
 20
27.95
 11
223.795
 21
27.4605
  0
LINE
  8
0
 10
223.795
 20
27.4605
 11
223.632
 21
26.9955
  0
LINE
  8
0
 10
223.632
 20
26.9955
 11
223.37
 21
26.5783
  0
LINE
  8
0
 10
223.37
 20
26.5783
 11
223.022
 21
26.23
  0
LINE
  8
0
 10
223.022
 20
26.23
 11
222.605
 21
25.9679
  0
LINE
  8
0
 10
222.605
 20
25.9679
 11
222.14
 21
25.8052
  0
LINE
  8
0
 10
222.14
 20
25.8052
 11
221.65
 21
25.75
  0
LINE
  8
0
 10
221.65
 20
25.75
 11
221.16
 21
25.8052
  0
LINE
  8
0
 10
221.16
 20
25.8052
 11
220.695
 21
25.9679
  0
LINE
  8
0
 10
220.695
 20
25.9679
 11
220.278
 21
26.23
  0
LINE
  8
0
 10
220.278
 20
26.23
 11
219.93
 21
26.5783
  0
LINE
  8
0
 10
219.93
 20
26.5783
 11
219.668
 21
26.9955
  0
LINE
  8
0
 10
219.668
 20
26.9955
 11
219.505
 21
27.4605
  0
LINE
  8
0
 10
219.505
 20
27.4605
 11
219.474
 21
27.737
  0
LINE
  8
0
 10
219.474
 20
27.737
 11
219.45
 21
27.95
  0
LINE
  8
0
 10
225.35
 20
7.2
 11
225.405
 21
7.68955
  0
LINE
  8
0
 10
225.405
 20
7.68955
 11
225.568
 21
8.15454
  0
LINE
  8
0
 10
225.568
 20
8.15454
 11
225.83
 21
8.57168
  0
LINE
  8
0
 10
225.83
 20
8.57168
 11
226.178
 21
8.92003
  0
LINE
  8
0
 10
226.178
 20
8.92003
 11
226.595
 21
9.18213
  0
LINE
  8
0
 10
226.595
 20
9.18213
 11
227.06
 21
9.34484
  0
LINE
  8
0
 10
227.06
 20
9.34484
 11
227.55
 21
9.4
  0
LINE
  8
0
 10
227.55
 20
9.4
 11
228.04
 21
9.34484
  0
LINE
  8
0
 10
228.04
 20
9.34484
 11
228.505
 21
9.18213
  0
LINE
  8
0
 10
228.505
 20
9.18213
 11
228.922
 21
8.92003
  0
LINE
  8
0
 10
228.922
 20
8.92003
 11
229.27
 21
8.57168
  0
LINE
  8
0
 10
229.27
 20
8.57168
 11
229.532
 21
8.15454
  0
LINE
  8
0
 10
229.532
 20
8.15454
 11
229.695
 21
7.68955
  0
LINE
  8
0
 10
229.695
 20
7.68955
 11
229.75
 21
7.2
  0
LINE
  8
0
 10
229.75
 20
7.2
 11
229.695
 21
6.71045
  0
LINE
  8
0
 10
229.695
 20
6.71045
 11
229.532
 21
6.24546
  0
LINE
  8
0
 10
229.532
 20
6.24546
 11
229.27
 21
5.82832
  0
LINE
  8
0
 10
229.27
 20
5.82832
 11
228.922
 21
5.47997
  0
LINE
  8
0
 10
228.922
 20
5.47997
 11
228.505
 21
5.21787
  0
LINE
  8
0
 10
228.505
 20
5.21787
 11
228.04
 21
5.05516
  0
LINE
  8
0
 10
228.04
 20
5.05516
 11
227.787
 21
5.02675
  0
LINE
  8
0
 10
227.787
 20
5.02675
 11
227.55
 21
5
  0
LINE
  8
0
 10
227.55
 20
5
 11
227.313
 21
5.02675
  0
LINE
  8
0
 10
227.313
 20
5.02675
 11
227.06
 21
5.05516
  0
LINE
  8
0
 10
227.06
 20
5.05516
 11
226.595
 21
5.21787
  0
LINE
  8
0
 10
226.595
 20
5.21787
 11
226.178
 21
5.47997
  0
LINE
  8
0
 10
226.178
 20
5.47997
 11
225.83
 21
5.82832
  0
LINE
  8
0
 10
225.83
 20
5.82832
 11
225.568
 21
6.24546
  0
LINE
  8
0
 10
225.568
 20
6.24546
 11
225.405
 21
6.71045
  0
LINE
  8
0
 10
225.405
 20
6.71045
 11
225.35
 21
7.2
  0
ENDSEC
  0
SECTION
  2
OBJECTS
  0
DICTIONARY
  0
ENDSEC
  0
EOF
