<?xml version="1.0"?>
<svg xmlns="http://www.w3.org/2000/svg" version="1.1" height="167mm" width="412mm" >
 <g style="fill-opacity:1.0; stroke:black; stroke-width:1;">
  <line x1="0.000000mm" y1="0.000000mm" x2="0.000000mm" y2="0.000000mm" />
  <line x1="0.000000mm" y1="0.000000mm" x2="0.000000mm" y2="156.500000mm" />
  <line x1="0.000000mm" y1="156.500000mm" x2="401.000000mm" y2="156.500000mm" />
  <line x1="401.000000mm" y1="156.500000mm" x2="401.000000mm" y2="15.000000mm" />
  <line x1="401.000000mm" y1="15.000000mm" x2="400.943000mm" y2="13.693000mm" />
  <line x1="400.943000mm" y1="13.693000mm" x2="400.772000mm" y2="12.395000mm" />
  <line x1="400.772000mm" y1="12.395000mm" x2="400.489000mm" y2="11.118000mm" />
  <line x1="400.489000mm" y1="11.118000mm" x2="400.095000mm" y2="9.870000mm" />
  <line x1="400.095000mm" y1="9.870000mm" x2="399.595000mm" y2="8.661000mm" />
  <line x1="399.595000mm" y1="8.661000mm" x2="398.990000mm" y2="7.500000mm" />
  <line x1="398.990000mm" y1="7.500000mm" x2="398.287000mm" y2="6.396000mm" />
  <line x1="398.287000mm" y1="6.396000mm" x2="397.491000mm" y2="5.358000mm" />
  <line x1="397.491000mm" y1="5.358000mm" x2="396.607000mm" y2="4.393000mm" />
  <line x1="396.607000mm" y1="4.393000mm" x2="395.642000mm" y2="3.509000mm" />
  <line x1="395.642000mm" y1="3.509000mm" x2="394.604000mm" y2="2.713000mm" />
  <line x1="394.604000mm" y1="2.713000mm" x2="393.500000mm" y2="2.010000mm" />
  <line x1="393.500000mm" y1="2.010000mm" x2="392.339000mm" y2="1.405000mm" />
  <line x1="392.339000mm" y1="1.405000mm" x2="391.130000mm" y2="0.905000mm" />
  <line x1="391.130000mm" y1="0.905000mm" x2="389.882000mm" y2="0.511000mm" />
  <line x1="389.882000mm" y1="0.511000mm" x2="388.605000mm" y2="0.228000mm" />
  <line x1="388.605000mm" y1="0.228000mm" x2="387.307000mm" y2="0.057000mm" />
  <line x1="387.307000mm" y1="0.057000mm" x2="386.000000mm" y2="0.000000mm" />
  <line x1="386.000000mm" y1="0.000000mm" x2="0.000000mm" y2="0.000000mm" />
  <circle cx="8.200096mm" cy="30.520172mm" r="1.000172mm" fill="none"/>
  <line x1="10.200440mm" y1="30.520172mm" x2="6.199751mm" y2="30.520172mm" />
  <line x1="8.200096mm" y1="28.519828mm" x2="8.200096mm" y2="32.520516mm" />
  <text x="9mm" y="29mm" font-size="24">
   2.0
  </text>
  <circle cx="8.200096mm" cy="9.700172mm" r="1.000172mm" fill="none"/>
  <line x1="10.200440mm" y1="9.700172mm" x2="6.199751mm" y2="9.700172mm" />
  <line x1="8.200096mm" y1="7.699828mm" x2="8.200096mm" y2="11.700516mm" />
  <text x="9mm" y="8mm" font-size="24">
   2.0
  </text>
  <circle cx="26.099970mm" cy="148.300012mm" r="1.000005mm" fill="none"/>
  <line x1="28.099980mm" y1="148.300012mm" x2="24.099960mm" y2="148.300012mm" />
  <line x1="26.099970mm" y1="146.300002mm" x2="26.099970mm" y2="150.300022mm" />
  <text x="27mm" y="147mm" font-size="24">
   2.0
  </text>
  <circle cx="46.919970mm" cy="148.300012mm" r="1.000005mm" fill="none"/>
  <line x1="48.919980mm" y1="148.300012mm" x2="44.919960mm" y2="148.300012mm" />
  <line x1="46.919970mm" y1="146.300002mm" x2="46.919970mm" y2="150.300022mm" />
  <text x="47mm" y="147mm" font-size="24">
   2.0
  </text>
  <circle cx="55.250019mm" cy="133.850019mm" r="2.199964mm" fill="none"/>
  <line x1="59.649947mm" y1="133.850019mm" x2="50.850091mm" y2="133.850019mm" />
  <line x1="55.250019mm" y1="129.450091mm" x2="55.250019mm" y2="138.249947mm" />
  <text x="57mm" y="131mm" font-size="24">
   4.4
  </text>
  <circle cx="55.250019mm" cy="62.350019mm" r="2.199964mm" fill="none"/>
  <line x1="59.649947mm" y1="62.350019mm" x2="50.850091mm" y2="62.350019mm" />
  <line x1="55.250019mm" y1="57.950091mm" x2="55.250019mm" y2="66.749947mm" />
  <text x="57mm" y="60mm" font-size="24">
   4.4
  </text>
  <circle cx="90.999944mm" cy="98.100033mm" r="37.499937mm" fill="none"/>
  <line x1="165.999818mm" y1="98.100033mm" x2="16.000070mm" y2="98.100033mm" />
  <line x1="90.999944mm" y1="23.100159mm" x2="90.999944mm" y2="173.099907mm" />
  <text x="128mm" y="60mm" font-size="24">
   75.0
  </text>
  <circle cx="126.749998mm" cy="133.850067mm" r="2.200127mm" fill="none"/>
  <line x1="131.150252mm" y1="133.850067mm" x2="122.349744mm" y2="133.850067mm" />
  <line x1="126.749998mm" y1="129.449813mm" x2="126.749998mm" y2="138.250321mm" />
  <text x="128mm" y="131mm" font-size="24">
   4.4
  </text>
  <circle cx="126.749998mm" cy="62.350067mm" r="2.200127mm" fill="none"/>
  <line x1="131.150252mm" y1="62.350067mm" x2="122.349744mm" y2="62.350067mm" />
  <line x1="126.749998mm" y1="57.949813mm" x2="126.749998mm" y2="66.750321mm" />
  <text x="128mm" y="60mm" font-size="24">
   4.4
  </text>
  <circle cx="284.511467mm" cy="67.600011mm" r="0.999994mm" fill="none"/>
  <line x1="286.511455mm" y1="67.600011mm" x2="282.511479mm" y2="67.600011mm" />
  <line x1="284.511467mm" y1="65.600023mm" x2="284.511467mm" y2="69.599999mm" />
  <text x="285mm" y="66mm" font-size="24">
   2.0
  </text>
  <circle cx="329.480078mm" cy="148.500073mm" r="2.999982mm" fill="none"/>
  <line x1="335.480042mm" y1="148.500073mm" x2="323.480114mm" y2="148.500073mm" />
  <line x1="329.480078mm" y1="142.500109mm" x2="329.480078mm" y2="154.500036mm" />
  <text x="332mm" y="145mm" font-size="24">
   6.0
  </text>
  <circle cx="340.979873mm" cy="149.500018mm" r="1.999985mm" fill="none"/>
  <line x1="344.979844mm" y1="149.500018mm" x2="336.979903mm" y2="149.500018mm" />
  <line x1="340.979873mm" y1="145.500048mm" x2="340.979873mm" y2="153.499989mm" />
  <text x="342mm" y="147mm" font-size="24">
   4.0
  </text>
  <circle cx="354.080479mm" cy="148.299934mm" r="1.000050mm" fill="none"/>
  <line x1="356.080578mm" y1="148.299934mm" x2="352.080380mm" y2="148.299934mm" />
  <line x1="354.080479mm" y1="146.299835mm" x2="354.080479mm" y2="150.300033mm" />
  <text x="355mm" y="147mm" font-size="24">
   2.0
  </text>
  <circle cx="374.900479mm" cy="148.299934mm" r="1.000050mm" fill="none"/>
  <line x1="376.900578mm" y1="148.299934mm" x2="372.900380mm" y2="148.299934mm" />
  <line x1="374.900479mm" y1="146.299835mm" x2="374.900479mm" y2="150.300033mm" />
  <text x="375mm" y="147mm" font-size="24">
   2.0
  </text>
 </g>
</svg>
