<?xml version="1.0"?>
<svg xmlns="http://www.w3.org/2000/svg" version="1.1" height="432mm" width="485mm" >
 <g style="fill-opacity:1.0; stroke:black; stroke-width:1;">
  <line x1="0.000000mm" y1="15.000000mm" x2="0.000000mm" y2="15.000000mm" />
  <line x1="0.000000mm" y1="15.000000mm" x2="0.000000mm" y2="407.000000mm" />
  <line x1="0.000000mm" y1="407.000000mm" x2="0.057000mm" y2="408.307000mm" />
  <line x1="0.057000mm" y1="408.307000mm" x2="0.228000mm" y2="409.605000mm" />
  <line x1="0.228000mm" y1="409.605000mm" x2="0.511000mm" y2="410.882000mm" />
  <line x1="0.511000mm" y1="410.882000mm" x2="0.905000mm" y2="412.130000mm" />
  <line x1="0.905000mm" y1="412.130000mm" x2="1.405000mm" y2="413.339000mm" />
  <line x1="1.405000mm" y1="413.339000mm" x2="2.010000mm" y2="414.500000mm" />
  <line x1="2.010000mm" y1="414.500000mm" x2="2.713000mm" y2="415.604000mm" />
  <line x1="2.713000mm" y1="415.604000mm" x2="3.509000mm" y2="416.642000mm" />
  <line x1="3.509000mm" y1="416.642000mm" x2="4.393000mm" y2="417.607000mm" />
  <line x1="4.393000mm" y1="417.607000mm" x2="5.358000mm" y2="418.491000mm" />
  <line x1="5.358000mm" y1="418.491000mm" x2="6.396000mm" y2="419.287000mm" />
  <line x1="6.396000mm" y1="419.287000mm" x2="7.500000mm" y2="419.990000mm" />
  <line x1="7.500000mm" y1="419.990000mm" x2="8.661000mm" y2="420.595000mm" />
  <line x1="8.661000mm" y1="420.595000mm" x2="9.870000mm" y2="421.095000mm" />
  <line x1="9.870000mm" y1="421.095000mm" x2="11.118000mm" y2="421.489000mm" />
  <line x1="11.118000mm" y1="421.489000mm" x2="12.395000mm" y2="421.772000mm" />
  <line x1="12.395000mm" y1="421.772000mm" x2="13.693000mm" y2="421.943000mm" />
  <line x1="13.693000mm" y1="421.943000mm" x2="15.000000mm" y2="422.000000mm" />
  <line x1="15.000000mm" y1="422.000000mm" x2="459.500000mm" y2="422.000000mm" />
  <line x1="459.500000mm" y1="422.000000mm" x2="460.807000mm" y2="421.943000mm" />
  <line x1="460.807000mm" y1="421.943000mm" x2="462.105000mm" y2="421.772000mm" />
  <line x1="462.105000mm" y1="421.772000mm" x2="463.382000mm" y2="421.489000mm" />
  <line x1="463.382000mm" y1="421.489000mm" x2="464.630000mm" y2="421.095000mm" />
  <line x1="464.630000mm" y1="421.095000mm" x2="465.839000mm" y2="420.595000mm" />
  <line x1="465.839000mm" y1="420.595000mm" x2="467.000000mm" y2="419.990000mm" />
  <line x1="467.000000mm" y1="419.990000mm" x2="468.104000mm" y2="419.287000mm" />
  <line x1="468.104000mm" y1="419.287000mm" x2="469.142000mm" y2="418.491000mm" />
  <line x1="469.142000mm" y1="418.491000mm" x2="470.107000mm" y2="417.607000mm" />
  <line x1="470.107000mm" y1="417.607000mm" x2="470.991000mm" y2="416.642000mm" />
  <line x1="470.991000mm" y1="416.642000mm" x2="471.787000mm" y2="415.604000mm" />
  <line x1="471.787000mm" y1="415.604000mm" x2="472.490000mm" y2="414.500000mm" />
  <line x1="472.490000mm" y1="414.500000mm" x2="473.095000mm" y2="413.339000mm" />
  <line x1="473.095000mm" y1="413.339000mm" x2="473.595000mm" y2="412.130000mm" />
  <line x1="473.595000mm" y1="412.130000mm" x2="473.989000mm" y2="410.882000mm" />
  <line x1="473.989000mm" y1="410.882000mm" x2="474.272000mm" y2="409.605000mm" />
  <line x1="474.272000mm" y1="409.605000mm" x2="474.443000mm" y2="408.307000mm" />
  <line x1="474.443000mm" y1="408.307000mm" x2="474.500000mm" y2="407.000000mm" />
  <line x1="474.500000mm" y1="407.000000mm" x2="474.500000mm" y2="15.000000mm" />
  <line x1="474.500000mm" y1="15.000000mm" x2="474.443000mm" y2="13.693000mm" />
  <line x1="474.443000mm" y1="13.693000mm" x2="474.272000mm" y2="12.395000mm" />
  <line x1="474.272000mm" y1="12.395000mm" x2="473.989000mm" y2="11.118000mm" />
  <line x1="473.989000mm" y1="11.118000mm" x2="473.595000mm" y2="9.870000mm" />
  <line x1="473.595000mm" y1="9.870000mm" x2="473.095000mm" y2="8.661000mm" />
  <line x1="473.095000mm" y1="8.661000mm" x2="472.490000mm" y2="7.500000mm" />
  <line x1="472.490000mm" y1="7.500000mm" x2="471.787000mm" y2="6.396000mm" />
  <line x1="471.787000mm" y1="6.396000mm" x2="470.991000mm" y2="5.358000mm" />
  <line x1="470.991000mm" y1="5.358000mm" x2="470.107000mm" y2="4.393000mm" />
  <line x1="470.107000mm" y1="4.393000mm" x2="469.142000mm" y2="3.509000mm" />
  <line x1="469.142000mm" y1="3.509000mm" x2="468.104000mm" y2="2.713000mm" />
  <line x1="468.104000mm" y1="2.713000mm" x2="467.000000mm" y2="2.010000mm" />
  <line x1="467.000000mm" y1="2.010000mm" x2="465.839000mm" y2="1.405000mm" />
  <line x1="465.839000mm" y1="1.405000mm" x2="464.630000mm" y2="0.905000mm" />
  <line x1="464.630000mm" y1="0.905000mm" x2="463.382000mm" y2="0.511000mm" />
  <line x1="463.382000mm" y1="0.511000mm" x2="462.105000mm" y2="0.228000mm" />
  <line x1="462.105000mm" y1="0.228000mm" x2="460.807000mm" y2="0.057000mm" />
  <line x1="460.807000mm" y1="0.057000mm" x2="459.500000mm" y2="0.000000mm" />
  <line x1="459.500000mm" y1="0.000000mm" x2="15.000000mm" y2="0.000000mm" />
  <line x1="15.000000mm" y1="0.000000mm" x2="13.693000mm" y2="0.057000mm" />
  <line x1="13.693000mm" y1="0.057000mm" x2="12.395000mm" y2="0.228000mm" />
  <line x1="12.395000mm" y1="0.228000mm" x2="11.118000mm" y2="0.511000mm" />
  <line x1="11.118000mm" y1="0.511000mm" x2="9.870000mm" y2="0.905000mm" />
  <line x1="9.870000mm" y1="0.905000mm" x2="8.661000mm" y2="1.405000mm" />
  <line x1="8.661000mm" y1="1.405000mm" x2="7.500000mm" y2="2.010000mm" />
  <line x1="7.500000mm" y1="2.010000mm" x2="6.396000mm" y2="2.713000mm" />
  <line x1="6.396000mm" y1="2.713000mm" x2="5.358000mm" y2="3.509000mm" />
  <line x1="5.358000mm" y1="3.509000mm" x2="4.393000mm" y2="4.393000mm" />
  <line x1="4.393000mm" y1="4.393000mm" x2="3.509000mm" y2="5.358000mm" />
  <line x1="3.509000mm" y1="5.358000mm" x2="2.713000mm" y2="6.396000mm" />
  <line x1="2.713000mm" y1="6.396000mm" x2="2.010000mm" y2="7.500000mm" />
  <line x1="2.010000mm" y1="7.500000mm" x2="1.405000mm" y2="8.661000mm" />
  <line x1="1.405000mm" y1="8.661000mm" x2="0.905000mm" y2="9.870000mm" />
  <line x1="0.905000mm" y1="9.870000mm" x2="0.511000mm" y2="11.118000mm" />
  <line x1="0.511000mm" y1="11.118000mm" x2="0.228000mm" y2="12.395000mm" />
  <line x1="0.228000mm" y1="12.395000mm" x2="0.057000mm" y2="13.693000mm" />
  <line x1="0.057000mm" y1="13.693000mm" x2="0.000000mm" y2="15.000000mm" />
  <circle cx="20.109535mm" cy="146.300027mm" r="0.999985mm" fill="none"/>
  <line x1="22.109505mm" y1="146.300027mm" x2="18.109565mm" y2="146.300027mm" />
  <line x1="20.109535mm" y1="144.300057mm" x2="20.109535mm" y2="148.299997mm" />
  <text x="21mm" y="145mm" font-size="24">
   2.0
  </text>
  <circle cx="32.499767mm" cy="210.999943mm" r="3.999887mm" fill="none"/>
  <line x1="40.499541mm" y1="210.999943mm" x2="24.499993mm" y2="210.999943mm" />
  <line x1="32.499767mm" y1="203.000170mm" x2="32.499767mm" y2="218.999717mm" />
  <text x="36mm" y="207mm" font-size="24">
   8.0
  </text>
  <circle cx="74.200000mm" cy="20.109997mm" r="0.999978mm" fill="none"/>
  <line x1="76.199956mm" y1="20.109997mm" x2="72.200044mm" y2="20.109997mm" />
  <line x1="74.200000mm" y1="18.110041mm" x2="74.200000mm" y2="22.109953mm" />
  <text x="75mm" y="19mm" font-size="24">
   2.0
  </text>
  <circle cx="85.889535mm" cy="146.300027mm" r="0.999985mm" fill="none"/>
  <line x1="87.889505mm" y1="146.300027mm" x2="83.889565mm" y2="146.300027mm" />
  <line x1="85.889535mm" y1="144.300057mm" x2="85.889535mm" y2="148.299997mm" />
  <text x="86mm" y="145mm" font-size="24">
   2.0
  </text>
  <circle cx="131.000066mm" cy="413.500138mm" r="1.000138mm" fill="none"/>
  <line x1="133.000342mm" y1="413.500138mm" x2="128.999790mm" y2="413.500138mm" />
  <line x1="131.000066mm" y1="411.499862mm" x2="131.000066mm" y2="415.500414mm" />
  <text x="132mm" y="412mm" font-size="24">
   2.0
  </text>
  <circle cx="131.000066mm" cy="8.500138mm" r="1.000138mm" fill="none"/>
  <line x1="133.000342mm" y1="8.500138mm" x2="128.999790mm" y2="8.500138mm" />
  <line x1="131.000066mm" y1="6.499862mm" x2="131.000066mm" y2="10.500414mm" />
  <text x="132mm" y="7mm" font-size="24">
   2.0
  </text>
  <circle cx="166.000102mm" cy="413.500162mm" r="1.000162mm" fill="none"/>
  <line x1="168.000426mm" y1="413.500162mm" x2="163.999777mm" y2="413.500162mm" />
  <line x1="166.000102mm" y1="411.499838mm" x2="166.000102mm" y2="415.500487mm" />
  <text x="167mm" y="412mm" font-size="24">
   2.0
  </text>
  <circle cx="166.000102mm" cy="8.500162mm" r="1.000162mm" fill="none"/>
  <line x1="168.000426mm" y1="8.500162mm" x2="163.999777mm" y2="8.500162mm" />
  <line x1="166.000102mm" y1="6.499838mm" x2="166.000102mm" y2="10.500487mm" />
  <text x="167mm" y="7mm" font-size="24">
   2.0
  </text>
  <circle cx="198.990156mm" cy="22.499993mm" r="1.000032mm" fill="none"/>
  <line x1="200.990221mm" y1="22.499993mm" x2="196.990092mm" y2="22.499993mm" />
  <line x1="198.990156mm" y1="20.499929mm" x2="198.990156mm" y2="24.500058mm" />
  <text x="199mm" y="21mm" font-size="24">
   2.0
  </text>
  <circle cx="209.490032mm" cy="111.900004mm" r="0.999998mm" fill="none"/>
  <line x1="211.490028mm" y1="111.900004mm" x2="207.490036mm" y2="111.900004mm" />
  <line x1="209.490032mm" y1="109.900008mm" x2="209.490032mm" y2="113.900000mm" />
  <text x="210mm" y="110mm" font-size="24">
   2.0
  </text>
  <circle cx="217.489751mm" cy="351.499779mm" r="0.999897mm" fill="none"/>
  <line x1="219.489546mm" y1="351.499779mm" x2="215.489956mm" y2="351.499779mm" />
  <line x1="217.489751mm" y1="349.499984mm" x2="217.489751mm" y2="353.499573mm" />
  <text x="218mm" y="350mm" font-size="24">
   2.0
  </text>
  <circle cx="217.489751mm" cy="414.499779mm" r="0.999897mm" fill="none"/>
  <line x1="219.489546mm" y1="414.499779mm" x2="215.489956mm" y2="414.499779mm" />
  <line x1="217.489751mm" y1="412.499984mm" x2="217.489751mm" y2="416.499573mm" />
  <text x="218mm" y="413mm" font-size="24">
   2.0
  </text>
  <circle cx="247.489764mm" cy="351.499777mm" r="0.999893mm" fill="none"/>
  <line x1="249.489549mm" y1="351.499777mm" x2="245.489979mm" y2="351.499777mm" />
  <line x1="247.489764mm" y1="349.499992mm" x2="247.489764mm" y2="353.499562mm" />
  <text x="248mm" y="350mm" font-size="24">
   2.0
  </text>
  <circle cx="247.489764mm" cy="414.499777mm" r="0.999893mm" fill="none"/>
  <line x1="249.489549mm" y1="414.499777mm" x2="245.489979mm" y2="414.499777mm" />
  <line x1="247.489764mm" y1="412.499992mm" x2="247.489764mm" y2="416.499562mm" />
  <text x="248mm" y="413mm" font-size="24">
   2.0
  </text>
  <circle cx="251.510032mm" cy="111.900004mm" r="0.999998mm" fill="none"/>
  <line x1="253.510028mm" y1="111.900004mm" x2="249.510036mm" y2="111.900004mm" />
  <line x1="251.510032mm" y1="109.900008mm" x2="251.510032mm" y2="113.900000mm" />
  <text x="252mm" y="110mm" font-size="24">
   2.0
  </text>
  <circle cx="257.250000mm" cy="68.699950mm" r="1.000005mm" fill="none"/>
  <line x1="259.250009mm" y1="68.699950mm" x2="255.249991mm" y2="68.699950mm" />
  <line x1="257.250000mm" y1="66.699941mm" x2="257.250000mm" y2="70.699960mm" />
  <text x="258mm" y="67mm" font-size="24">
   2.0
  </text>
  <circle cx="295.000000mm" cy="347.499950mm" r="1.000005mm" fill="none"/>
  <line x1="297.000009mm" y1="347.499950mm" x2="292.999991mm" y2="347.499950mm" />
  <line x1="295.000000mm" y1="345.499941mm" x2="295.000000mm" y2="349.499960mm" />
  <text x="296mm" y="346mm" font-size="24">
   2.0
  </text>
  <circle cx="295.000000mm" cy="84.499950mm" r="1.000005mm" fill="none"/>
  <line x1="297.000009mm" y1="84.499950mm" x2="292.999991mm" y2="84.499950mm" />
  <line x1="295.000000mm" y1="82.499941mm" x2="295.000000mm" y2="86.499960mm" />
  <text x="296mm" y="83mm" font-size="24">
   2.0
  </text>
  <circle cx="330.000000mm" cy="347.499950mm" r="1.000005mm" fill="none"/>
  <line x1="332.000009mm" y1="347.499950mm" x2="327.999991mm" y2="347.499950mm" />
  <line x1="330.000000mm" y1="345.499941mm" x2="330.000000mm" y2="349.499960mm" />
  <text x="331mm" y="346mm" font-size="24">
   2.0
  </text>
  <circle cx="330.000000mm" cy="84.499950mm" r="1.000005mm" fill="none"/>
  <line x1="332.000009mm" y1="84.499950mm" x2="327.999991mm" y2="84.499950mm" />
  <line x1="330.000000mm" y1="82.499941mm" x2="330.000000mm" y2="86.499960mm" />
  <text x="331mm" y="83mm" font-size="24">
   2.0
  </text>
  <circle cx="346.699659mm" cy="329.000016mm" r="1.000019mm" fill="none"/>
  <line x1="348.699698mm" y1="329.000016mm" x2="344.699621mm" y2="329.000016mm" />
  <line x1="346.699659mm" y1="326.999978mm" x2="346.699659mm" y2="331.000054mm" />
  <text x="347mm" y="327mm" font-size="24">
   2.0
  </text>
  <circle cx="346.699535mm" cy="143.100027mm" r="0.999985mm" fill="none"/>
  <line x1="348.699505mm" y1="143.100027mm" x2="344.699565mm" y2="143.100027mm" />
  <line x1="346.699535mm" y1="141.100057mm" x2="346.699535mm" y2="145.099997mm" />
  <text x="347mm" y="142mm" font-size="24">
   2.0
  </text>
  <circle cx="365.700066mm" cy="20.110138mm" r="1.000138mm" fill="none"/>
  <line x1="367.700342mm" y1="20.110138mm" x2="363.699790mm" y2="20.110138mm" />
  <line x1="365.700066mm" y1="18.109862mm" x2="365.700066mm" y2="22.110414mm" />
  <text x="366mm" y="19mm" font-size="24">
   2.0
  </text>
  <circle cx="397.499767mm" cy="210.999943mm" r="3.999887mm" fill="none"/>
  <line x1="405.499541mm" y1="210.999943mm" x2="389.499993mm" y2="210.999943mm" />
  <line x1="397.499767mm" y1="203.000170mm" x2="397.499767mm" y2="218.999717mm" />
  <text x="401mm" y="207mm" font-size="24">
   8.0
  </text>
  <circle cx="406.009535mm" cy="146.300027mm" r="0.999985mm" fill="none"/>
  <line x1="408.009505mm" y1="146.300027mm" x2="404.009565mm" y2="146.300027mm" />
  <line x1="406.009535mm" y1="144.300057mm" x2="406.009535mm" y2="148.299997mm" />
  <text x="407mm" y="145mm" font-size="24">
   2.0
  </text>
  <circle cx="454.389535mm" cy="146.300027mm" r="0.999985mm" fill="none"/>
  <line x1="456.389505mm" y1="146.300027mm" x2="452.389565mm" y2="146.300027mm" />
  <line x1="454.389535mm" y1="144.300057mm" x2="454.389535mm" y2="148.299997mm" />
  <text x="455mm" y="145mm" font-size="24">
   2.0
  </text>
  <circle cx="467.700000mm" cy="127.100097mm" r="0.999978mm" fill="none"/>
  <line x1="469.699956mm" y1="127.100097mm" x2="465.700044mm" y2="127.100097mm" />
  <line x1="467.700000mm" y1="125.100141mm" x2="467.700000mm" y2="129.100053mm" />
  <text x="468mm" y="126mm" font-size="24">
   2.0
  </text>
 </g>
</svg>
