  0
SECTION
  2
BLOCKS
  0
ENDSEC
  0
SECTION
  2
ENTITIES
  0
LINE
  8
0
 10
3.16747e-14
 20
-154.5
 11
388
 21
-154.5
  0
LINE
  8
0
 10
388
 20
-154.5
 11
389.307
 21
-154.443
  0
LINE
  8
0
 10
389.307
 20
-154.443
 11
390.605
 21
-154.272
  0
LINE
  8
0
 10
390.605
 20
-154.272
 11
391.882
 21
-153.989
  0
LINE
  8
0
 10
391.882
 20
-153.989
 11
393.13
 21
-153.595
  0
LINE
  8
0
 10
393.13
 20
-153.595
 11
394.339
 21
-153.095
  0
LINE
  8
0
 10
394.339
 20
-153.095
 11
395.5
 21
-152.49
  0
LINE
  8
0
 10
395.5
 20
-152.49
 11
396.604
 21
-151.787
  0
LINE
  8
0
 10
396.604
 20
-151.787
 11
397.642
 21
-150.991
  0
LINE
  8
0
 10
397.642
 20
-150.991
 11
398.607
 21
-150.107
  0
LINE
  8
0
 10
398.607
 20
-150.107
 11
399.491
 21
-149.142
  0
LINE
  8
0
 10
399.491
 20
-149.142
 11
400.287
 21
-148.104
  0
LINE
  8
0
 10
400.287
 20
-148.104
 11
400.99
 21
-147
  0
LINE
  8
0
 10
400.99
 20
-147
 11
401.595
 21
-145.839
  0
LINE
  8
0
 10
401.595
 20
-145.839
 11
402.095
 21
-144.63
  0
LINE
  8
0
 10
402.095
 20
-144.63
 11
402.489
 21
-143.382
  0
LINE
  8
0
 10
402.489
 20
-143.382
 11
402.772
 21
-142.105
  0
LINE
  8
0
 10
402.772
 20
-142.105
 11
402.943
 21
-140.807
  0
LINE
  8
0
 10
402.943
 20
-140.807
 11
403
 21
-139.5
  0
LINE
  8
0
 10
403
 20
-139.5
 11
403
 21
0
  0
LINE
  8
0
 10
403
 20
0
 11
3.16747e-14
 21
0
  0
LINE
  8
0
 10
3.16747e-14
 20
0
 11
3.16747e-14
 21
-154.5
  0
LINE
  8
0
 10
5
 20
-18.9
 11
5.02402
 21
-18.6561
  0
LINE
  8
0
 10
5.02402
 20
-18.6561
 11
5.04804
 21
-18.4123
  0
LINE
  8
0
 10
5.04804
 20
-18.4123
 11
5.1903
 21
-17.9433
  0
LINE
  8
0
 10
5.1903
 20
-17.9433
 11
5.42133
 21
-17.5111
  0
LINE
  8
0
 10
5.42133
 20
-17.5111
 11
5.73223
 21
-17.1322
  0
LINE
  8
0
 10
5.73223
 20
-17.1322
 11
6.11107
 21
-16.8213
  0
LINE
  8
0
 10
6.11107
 20
-16.8213
 11
6.54329
 21
-16.5903
  0
LINE
  8
0
 10
6.54329
 20
-16.5903
 11
7.01227
 21
-16.448
  0
LINE
  8
0
 10
7.01227
 20
-16.448
 11
7.25614
 21
-16.424
  0
LINE
  8
0
 10
7.25614
 20
-16.424
 11
7.5
 21
-16.4
  0
LINE
  8
0
 10
7.5
 20
-16.4
 11
7.74386
 21
-16.424
  0
LINE
  8
0
 10
7.74386
 20
-16.424
 11
7.98773
 21
-16.448
  0
LINE
  8
0
 10
7.98773
 20
-16.448
 11
8.45671
 21
-16.5903
  0
LINE
  8
0
 10
8.45671
 20
-16.5903
 11
8.88893
 21
-16.8213
  0
LINE
  8
0
 10
8.88893
 20
-16.8213
 11
9.26777
 21
-17.1322
  0
LINE
  8
0
 10
9.26777
 20
-17.1322
 11
9.57867
 21
-17.5111
  0
LINE
  8
0
 10
9.57867
 20
-17.5111
 11
9.8097
 21
-17.9433
  0
LINE
  8
0
 10
9.8097
 20
-17.9433
 11
9.95196
 21
-18.4123
  0
LINE
  8
0
 10
9.95196
 20
-18.4123
 11
9.97598
 21
-18.6561
  0
LINE
  8
0
 10
9.97598
 20
-18.6561
 11
10
 21
-18.9
  0
LINE
  8
0
 10
10
 20
-18.9
 11
9.97598
 21
-19.1439
  0
LINE
  8
0
 10
9.97598
 20
-19.1439
 11
9.95196
 21
-19.3877
  0
LINE
  8
0
 10
9.95196
 20
-19.3877
 11
9.8097
 21
-19.8567
  0
LINE
  8
0
 10
9.8097
 20
-19.8567
 11
9.57867
 21
-20.2889
  0
LINE
  8
0
 10
9.57867
 20
-20.2889
 11
9.26777
 21
-20.6678
  0
LINE
  8
0
 10
9.26777
 20
-20.6678
 11
8.88893
 21
-20.9787
  0
LINE
  8
0
 10
8.88893
 20
-20.9787
 11
8.45671
 21
-21.2097
  0
LINE
  8
0
 10
8.45671
 20
-21.2097
 11
7.98773
 21
-21.352
  0
LINE
  8
0
 10
7.98773
 20
-21.352
 11
7.74386
 21
-21.376
  0
LINE
  8
0
 10
7.74386
 20
-21.376
 11
7.5
 21
-21.4
  0
LINE
  8
0
 10
7.5
 20
-21.4
 11
7.25614
 21
-21.376
  0
LINE
  8
0
 10
7.25614
 20
-21.376
 11
7.01227
 21
-21.352
  0
LINE
  8
0
 10
7.01227
 20
-21.352
 11
6.54329
 21
-21.2097
  0
LINE
  8
0
 10
6.54329
 20
-21.2097
 11
6.11107
 21
-20.9787
  0
LINE
  8
0
 10
6.11107
 20
-20.9787
 11
5.73223
 21
-20.6678
  0
LINE
  8
0
 10
5.73223
 20
-20.6678
 11
5.42133
 21
-20.2889
  0
LINE
  8
0
 10
5.42133
 20
-20.2889
 11
5.1903
 21
-19.8567
  0
LINE
  8
0
 10
5.1903
 20
-19.8567
 11
5.04804
 21
-19.3877
  0
LINE
  8
0
 10
5.04804
 20
-19.3877
 11
5.02402
 21
-19.1439
  0
LINE
  8
0
 10
5.02402
 20
-19.1439
 11
5
 21
-18.9
  0
LINE
  8
0
 10
5
 20
-92.6
 11
5.01781
 21
-92.3509
  0
LINE
  8
0
 10
5.01781
 20
-92.3509
 11
5.03562
 21
-92.1019
  0
LINE
  8
0
 10
5.03562
 20
-92.1019
 11
5.14177
 21
-91.6139
  0
LINE
  8
0
 10
5.14177
 20
-91.6139
 11
5.31629
 21
-91.146
  0
LINE
  8
0
 10
5.31629
 20
-91.146
 11
5.55561
 21
-90.7078
  0
LINE
  8
0
 10
5.55561
 20
-90.7078
 11
5.85488
 21
-90.308
  0
LINE
  8
0
 10
5.85488
 20
-90.308
 11
6.20799
 21
-89.9549
  0
LINE
  8
0
 10
6.20799
 20
-89.9549
 11
6.60776
 21
-89.6556
  0
LINE
  8
0
 10
6.60776
 20
-89.6556
 11
7.04605
 21
-89.4163
  0
LINE
  8
0
 10
7.04605
 20
-89.4163
 11
7.51394
 21
-89.2418
  0
LINE
  8
0
 10
7.51394
 20
-89.2418
 11
8.0019
 21
-89.1356
  0
LINE
  8
0
 10
8.0019
 20
-89.1356
 11
8.25095
 21
-89.1178
  0
LINE
  8
0
 10
8.25095
 20
-89.1178
 11
8.5
 21
-89.1
  0
LINE
  8
0
 10
8.5
 20
-89.1
 11
8.74905
 21
-89.1178
  0
LINE
  8
0
 10
8.74905
 20
-89.1178
 11
8.9981
 21
-89.1356
  0
LINE
  8
0
 10
8.9981
 20
-89.1356
 11
9.48606
 21
-89.2418
  0
LINE
  8
0
 10
9.48606
 20
-89.2418
 11
9.95395
 21
-89.4163
  0
LINE
  8
0
 10
9.95395
 20
-89.4163
 11
10.3922
 21
-89.6556
  0
LINE
  8
0
 10
10.3922
 20
-89.6556
 11
10.792
 21
-89.9549
  0
LINE
  8
0
 10
10.792
 20
-89.9549
 11
11.1451
 21
-90.308
  0
LINE
  8
0
 10
11.1451
 20
-90.308
 11
11.4444
 21
-90.7078
  0
LINE
  8
0
 10
11.4444
 20
-90.7078
 11
11.6837
 21
-91.146
  0
LINE
  8
0
 10
11.6837
 20
-91.146
 11
11.8582
 21
-91.6139
  0
LINE
  8
0
 10
11.8582
 20
-91.6139
 11
11.9644
 21
-92.1019
  0
LINE
  8
0
 10
11.9644
 20
-92.1019
 11
11.9822
 21
-92.3509
  0
LINE
  8
0
 10
11.9822
 20
-92.3509
 11
12
 21
-92.6
  0
LINE
  8
0
 10
12
 20
-92.6
 11
11.9822
 21
-92.8491
  0
LINE
  8
0
 10
11.9822
 20
-92.8491
 11
11.9644
 21
-93.0981
  0
LINE
  8
0
 10
11.9644
 20
-93.0981
 11
11.8582
 21
-93.5861
  0
LINE
  8
0
 10
11.8582
 20
-93.5861
 11
11.6837
 21
-94.054
  0
LINE
  8
0
 10
11.6837
 20
-94.054
 11
11.4444
 21
-94.4922
  0
LINE
  8
0
 10
11.4444
 20
-94.4922
 11
11.1451
 21
-94.892
  0
LINE
  8
0
 10
11.1451
 20
-94.892
 11
10.792
 21
-95.2451
  0
LINE
  8
0
 10
10.792
 20
-95.2451
 11
10.3922
 21
-95.5444
  0
LINE
  8
0
 10
10.3922
 20
-95.5444
 11
9.95395
 21
-95.7837
  0
LINE
  8
0
 10
9.95395
 20
-95.7837
 11
9.48606
 21
-95.9582
  0
LINE
  8
0
 10
9.48606
 20
-95.9582
 11
8.9981
 21
-96.0644
  0
LINE
  8
0
 10
8.9981
 20
-96.0644
 11
8.74905
 21
-96.0822
  0
LINE
  8
0
 10
8.74905
 20
-96.0822
 11
8.5
 21
-96.1
  0
LINE
  8
0
 10
8.5
 20
-96.1
 11
8.25095
 21
-96.0822
  0
LINE
  8
0
 10
8.25095
 20
-96.0822
 11
8.0019
 21
-96.0644
  0
LINE
  8
0
 10
8.0019
 20
-96.0644
 11
7.51394
 21
-95.9582
  0
LINE
  8
0
 10
7.51394
 20
-95.9582
 11
7.04605
 21
-95.7837
  0
LINE
  8
0
 10
7.04605
 20
-95.7837
 11
6.60776
 21
-95.5444
  0
LINE
  8
0
 10
6.60776
 20
-95.5444
 11
6.20799
 21
-95.2451
  0
LINE
  8
0
 10
6.20799
 20
-95.2451
 11
5.85488
 21
-94.892
  0
LINE
  8
0
 10
5.85488
 20
-94.892
 11
5.55561
 21
-94.4922
  0
LINE
  8
0
 10
5.55561
 20
-94.4922
 11
5.31629
 21
-94.054
  0
LINE
  8
0
 10
5.31629
 20
-94.054
 11
5.14177
 21
-93.5861
  0
LINE
  8
0
 10
5.14177
 20
-93.5861
 11
5.03562
 21
-93.0981
  0
LINE
  8
0
 10
5.03562
 20
-93.0981
 11
5.01781
 21
-92.8491
  0
LINE
  8
0
 10
5.01781
 20
-92.8491
 11
5
 21
-92.6
  0
LINE
  8
0
 10
5.01458
 20
-80.6411
 11
5.01458
 21
-80.1589
  0
LINE
  8
0
 10
5.01458
 20
-80.1589
 11
5.12997
 21
-79.6908
  0
LINE
  8
0
 10
5.12997
 20
-79.6908
 11
5.35403
 21
-79.2639
  0
LINE
  8
0
 10
5.35403
 20
-79.2639
 11
5.67375
 21
-78.903
  0
LINE
  8
0
 10
5.67375
 20
-78.903
 11
6.07055
 21
-78.6291
  0
LINE
  8
0
 10
6.07055
 20
-78.6291
 11
6.52137
 21
-78.4581
  0
LINE
  8
0
 10
6.52137
 20
-78.4581
 11
6.76068
 21
-78.4291
  0
LINE
  8
0
 10
6.76068
 20
-78.4291
 11
7
 21
-78.4
  0
LINE
  8
0
 10
7
 20
-78.4
 11
7.23932
 21
-78.4291
  0
LINE
  8
0
 10
7.23932
 20
-78.4291
 11
7.47863
 21
-78.4581
  0
LINE
  8
0
 10
7.47863
 20
-78.4581
 11
7.92945
 21
-78.6291
  0
LINE
  8
0
 10
7.92945
 20
-78.6291
 11
8.32625
 21
-78.903
  0
LINE
  8
0
 10
8.32625
 20
-78.903
 11
8.64597
 21
-79.2639
  0
LINE
  8
0
 10
8.64597
 20
-79.2639
 11
8.87003
 21
-79.6908
  0
LINE
  8
0
 10
8.87003
 20
-79.6908
 11
8.98542
 21
-80.1589
  0
LINE
  8
0
 10
8.98542
 20
-80.1589
 11
8.98542
 21
-80.6411
  0
LINE
  8
0
 10
8.98542
 20
-80.6411
 11
8.87003
 21
-81.1092
  0
LINE
  8
0
 10
8.87003
 20
-81.1092
 11
8.64597
 21
-81.5361
  0
LINE
  8
0
 10
8.64597
 20
-81.5361
 11
8.32625
 21
-81.897
  0
LINE
  8
0
 10
8.32625
 20
-81.897
 11
7.92945
 21
-82.1709
  0
LINE
  8
0
 10
7.92945
 20
-82.1709
 11
7.47863
 21
-82.3419
  0
LINE
  8
0
 10
7.47863
 20
-82.3419
 11
7.23932
 21
-82.3709
  0
LINE
  8
0
 10
7.23932
 20
-82.3709
 11
7
 21
-82.4
  0
LINE
  8
0
 10
7
 20
-82.4
 11
6.76068
 21
-82.3709
  0
LINE
  8
0
 10
6.76068
 20
-82.3709
 11
6.52137
 21
-82.3419
  0
LINE
  8
0
 10
6.52137
 20
-82.3419
 11
6.07055
 21
-82.1709
  0
LINE
  8
0
 10
6.07055
 20
-82.1709
 11
5.67375
 21
-81.897
  0
LINE
  8
0
 10
5.67375
 20
-81.897
 11
5.35403
 21
-81.5361
  0
LINE
  8
0
 10
5.35403
 20
-81.5361
 11
5.12997
 21
-81.1092
  0
LINE
  8
0
 10
5.12997
 20
-81.1092
 11
5.01458
 21
-80.6411
  0
LINE
  8
0
 10
5.01458
 20
-28.6411
 11
5.01458
 21
-28.1589
  0
LINE
  8
0
 10
5.01458
 20
-28.1589
 11
5.12997
 21
-27.6908
  0
LINE
  8
0
 10
5.12997
 20
-27.6908
 11
5.35403
 21
-27.2639
  0
LINE
  8
0
 10
5.35403
 20
-27.2639
 11
5.67375
 21
-26.903
  0
LINE
  8
0
 10
5.67375
 20
-26.903
 11
6.07055
 21
-26.6291
  0
LINE
  8
0
 10
6.07055
 20
-26.6291
 11
6.52137
 21
-26.4581
  0
LINE
  8
0
 10
6.52137
 20
-26.4581
 11
6.76068
 21
-26.4291
  0
LINE
  8
0
 10
6.76068
 20
-26.4291
 11
7
 21
-26.4
  0
LINE
  8
0
 10
7
 20
-26.4
 11
7.23932
 21
-26.4291
  0
LINE
  8
0
 10
7.23932
 20
-26.4291
 11
7.47863
 21
-26.4581
  0
LINE
  8
0
 10
7.47863
 20
-26.4581
 11
7.92945
 21
-26.6291
  0
LINE
  8
0
 10
7.92945
 20
-26.6291
 11
8.32625
 21
-26.903
  0
LINE
  8
0
 10
8.32625
 20
-26.903
 11
8.64597
 21
-27.2639
  0
LINE
  8
0
 10
8.64597
 20
-27.2639
 11
8.87003
 21
-27.6908
  0
LINE
  8
0
 10
8.87003
 20
-27.6908
 11
8.98542
 21
-28.1589
  0
LINE
  8
0
 10
8.98542
 20
-28.1589
 11
8.98542
 21
-28.6411
  0
LINE
  8
0
 10
8.98542
 20
-28.6411
 11
8.87003
 21
-29.1092
  0
LINE
  8
0
 10
8.87003
 20
-29.1092
 11
8.64597
 21
-29.5361
  0
LINE
  8
0
 10
8.64597
 20
-29.5361
 11
8.32625
 21
-29.897
  0
LINE
  8
0
 10
8.32625
 20
-29.897
 11
7.92945
 21
-30.1709
  0
LINE
  8
0
 10
7.92945
 20
-30.1709
 11
7.47863
 21
-30.3419
  0
LINE
  8
0
 10
7.47863
 20
-30.3419
 11
7.23932
 21
-30.3709
  0
LINE
  8
0
 10
7.23932
 20
-30.3709
 11
7
 21
-30.4
  0
LINE
  8
0
 10
7
 20
-30.4
 11
6.76068
 21
-30.3709
  0
LINE
  8
0
 10
6.76068
 20
-30.3709
 11
6.52137
 21
-30.3419
  0
LINE
  8
0
 10
6.52137
 20
-30.3419
 11
6.07055
 21
-30.1709
  0
LINE
  8
0
 10
6.07055
 20
-30.1709
 11
5.67375
 21
-29.897
  0
LINE
  8
0
 10
5.67375
 20
-29.897
 11
5.35403
 21
-29.5361
  0
LINE
  8
0
 10
5.35403
 20
-29.5361
 11
5.12997
 21
-29.1092
  0
LINE
  8
0
 10
5.12997
 20
-29.1092
 11
5.01458
 21
-28.6411
  0
LINE
  8
0
 10
7.20729
 20
-144.679
 11
7.37702
 21
-144.232
  0
LINE
  8
0
 10
7.37702
 20
-144.232
 11
7.73528
 21
-143.915
  0
LINE
  8
0
 10
7.73528
 20
-143.915
 11
8.2
 21
-143.8
  0
LINE
  8
0
 10
8.2
 20
-143.8
 11
8.66472
 21
-143.915
  0
LINE
  8
0
 10
8.66472
 20
-143.915
 11
9.02298
 21
-144.232
  0
LINE
  8
0
 10
9.02298
 20
-144.232
 11
9.19271
 21
-144.679
  0
LINE
  8
0
 10
9.19271
 20
-144.679
 11
9.13502
 21
-145.155
  0
LINE
  8
0
 10
9.13502
 20
-145.155
 11
8.86312
 21
-145.549
  0
LINE
  8
0
 10
8.86312
 20
-145.549
 11
8.43931
 21
-145.771
  0
LINE
  8
0
 10
8.43931
 20
-145.771
 11
7.96068
 21
-145.771
  0
LINE
  8
0
 10
7.96068
 20
-145.771
 11
7.53688
 21
-145.549
  0
LINE
  8
0
 10
7.53688
 20
-145.549
 11
7.26498
 21
-145.155
  0
LINE
  8
0
 10
7.26498
 20
-145.155
 11
7.20729
 21
-144.679
  0
LINE
  8
0
 10
7.20729
 20
-123.859
 11
7.37702
 21
-123.412
  0
LINE
  8
0
 10
7.37702
 20
-123.412
 11
7.73528
 21
-123.095
  0
LINE
  8
0
 10
7.73528
 20
-123.095
 11
8.2
 21
-122.98
  0
LINE
  8
0
 10
8.2
 20
-122.98
 11
8.66472
 21
-123.095
  0
LINE
  8
0
 10
8.66472
 20
-123.095
 11
9.02298
 21
-123.412
  0
LINE
  8
0
 10
9.02298
 20
-123.412
 11
9.19271
 21
-123.859
  0
LINE
  8
0
 10
9.19271
 20
-123.859
 11
9.13502
 21
-124.335
  0
LINE
  8
0
 10
9.13502
 20
-124.335
 11
8.86312
 21
-124.729
  0
LINE
  8
0
 10
8.86312
 20
-124.729
 11
8.43931
 21
-124.951
  0
LINE
  8
0
 10
8.43931
 20
-124.951
 11
7.96068
 21
-124.951
  0
LINE
  8
0
 10
7.96068
 20
-124.951
 11
7.53688
 21
-124.729
  0
LINE
  8
0
 10
7.53688
 20
-124.729
 11
7.26498
 21
-124.335
  0
LINE
  8
0
 10
7.26498
 20
-124.335
 11
7.20729
 21
-123.859
  0
LINE
  8
0
 10
25.1291
 20
-8.43931
 11
25.1291
 21
-7.96068
  0
LINE
  8
0
 10
25.1291
 20
-7.96068
 11
25.3515
 21
-7.53688
  0
LINE
  8
0
 10
25.3515
 20
-7.53688
 11
25.7454
 21
-7.26498
  0
LINE
  8
0
 10
25.7454
 20
-7.26498
 11
26.2205
 21
-7.20729
  0
LINE
  8
0
 10
26.2205
 20
-7.20729
 11
26.6681
 21
-7.37702
  0
LINE
  8
0
 10
26.6681
 20
-7.37702
 11
26.9855
 21
-7.73528
  0
LINE
  8
0
 10
26.9855
 20
-7.73528
 11
27.1
 21
-8.2
  0
LINE
  8
0
 10
27.1
 20
-8.2
 11
26.9855
 21
-8.66472
  0
LINE
  8
0
 10
26.9855
 20
-8.66472
 11
26.6681
 21
-9.02298
  0
LINE
  8
0
 10
26.6681
 20
-9.02298
 11
26.2205
 21
-9.19271
  0
LINE
  8
0
 10
26.2205
 20
-9.19271
 11
25.7454
 21
-9.13502
  0
LINE
  8
0
 10
25.7454
 20
-9.13502
 11
25.3515
 21
-8.86312
  0
LINE
  8
0
 10
25.3515
 20
-8.86312
 11
25.1291
 21
-8.43931
  0
LINE
  8
0
 10
31.9291
 20
-147.739
 11
31.9291
 21
-147.261
  0
LINE
  8
0
 10
31.9291
 20
-147.261
 11
32.1515
 21
-146.837
  0
LINE
  8
0
 10
32.1515
 20
-146.837
 11
32.5454
 21
-146.565
  0
LINE
  8
0
 10
32.5454
 20
-146.565
 11
33.0205
 21
-146.507
  0
LINE
  8
0
 10
33.0205
 20
-146.507
 11
33.4681
 21
-146.677
  0
LINE
  8
0
 10
33.4681
 20
-146.677
 11
33.7855
 21
-147.035
  0
LINE
  8
0
 10
33.7855
 20
-147.035
 11
33.9
 21
-147.5
  0
LINE
  8
0
 10
33.9
 20
-147.5
 11
33.7855
 21
-147.965
  0
LINE
  8
0
 10
33.7855
 20
-147.965
 11
33.4681
 21
-148.323
  0
LINE
  8
0
 10
33.4681
 20
-148.323
 11
33.0205
 21
-148.493
  0
LINE
  8
0
 10
33.0205
 20
-148.493
 11
32.5454
 21
-148.435
  0
LINE
  8
0
 10
32.5454
 20
-148.435
 11
32.1515
 21
-148.163
  0
LINE
  8
0
 10
32.1515
 20
-148.163
 11
31.9291
 21
-147.739
  0
LINE
  8
0
 10
45.9491
 20
-8.43931
 11
45.9491
 21
-7.96068
  0
LINE
  8
0
 10
45.9491
 20
-7.96068
 11
46.1715
 21
-7.53688
  0
LINE
  8
0
 10
46.1715
 20
-7.53688
 11
46.5654
 21
-7.26498
  0
LINE
  8
0
 10
46.5654
 20
-7.26498
 11
47.0405
 21
-7.20729
  0
LINE
  8
0
 10
47.0405
 20
-7.20729
 11
47.4881
 21
-7.37702
  0
LINE
  8
0
 10
47.4881
 20
-7.37702
 11
47.8055
 21
-7.73528
  0
LINE
  8
0
 10
47.8055
 20
-7.73528
 11
47.92
 21
-8.2
  0
LINE
  8
0
 10
47.92
 20
-8.2
 11
47.8055
 21
-8.66472
  0
LINE
  8
0
 10
47.8055
 20
-8.66472
 11
47.4881
 21
-9.02298
  0
LINE
  8
0
 10
47.4881
 20
-9.02298
 11
47.0405
 21
-9.19271
  0
LINE
  8
0
 10
47.0405
 20
-9.19271
 11
46.5654
 21
-9.13502
  0
LINE
  8
0
 10
46.5654
 20
-9.13502
 11
46.1715
 21
-8.86312
  0
LINE
  8
0
 10
46.1715
 20
-8.86312
 11
45.9491
 21
-8.43931
  0
LINE
  8
0
 10
148.929
 20
-147.739
 11
148.929
 21
-147.261
  0
LINE
  8
0
 10
148.929
 20
-147.261
 11
149.151
 21
-146.837
  0
LINE
  8
0
 10
149.151
 20
-146.837
 11
149.545
 21
-146.565
  0
LINE
  8
0
 10
149.545
 20
-146.565
 11
150.021
 21
-146.507
  0
LINE
  8
0
 10
150.021
 20
-146.507
 11
150.468
 21
-146.677
  0
LINE
  8
0
 10
150.468
 20
-146.677
 11
150.785
 21
-147.035
  0
LINE
  8
0
 10
150.785
 20
-147.035
 11
150.9
 21
-147.5
  0
LINE
  8
0
 10
150.9
 20
-147.5
 11
150.785
 21
-147.965
  0
LINE
  8
0
 10
150.785
 20
-147.965
 11
150.468
 21
-148.323
  0
LINE
  8
0
 10
150.468
 20
-148.323
 11
150.021
 21
-148.493
  0
LINE
  8
0
 10
150.021
 20
-148.493
 11
149.545
 21
-148.435
  0
LINE
  8
0
 10
149.545
 20
-148.435
 11
149.151
 21
-148.163
  0
LINE
  8
0
 10
149.151
 20
-148.163
 11
148.929
 21
-147.739
  0
LINE
  8
0
 10
191.234
 20
-140.189
 11
191.234
 21
-139.711
  0
LINE
  8
0
 10
191.234
 20
-139.711
 11
191.493
 21
-139.308
  0
LINE
  8
0
 10
191.493
 20
-139.308
 11
191.929
 21
-139.109
  0
LINE
  8
0
 10
191.929
 20
-139.109
 11
192.403
 21
-139.177
  0
LINE
  8
0
 10
192.403
 20
-139.177
 11
192.765
 21
-139.49
  0
LINE
  8
0
 10
192.765
 20
-139.49
 11
192.9
 21
-139.95
  0
LINE
  8
0
 10
192.9
 20
-139.95
 11
192.765
 21
-140.41
  0
LINE
  8
0
 10
192.765
 20
-140.41
 11
192.403
 21
-140.723
  0
LINE
  8
0
 10
192.403
 20
-140.723
 11
191.929
 21
-140.791
  0
LINE
  8
0
 10
191.929
 20
-140.791
 11
191.493
 21
-140.592
  0
LINE
  8
0
 10
191.493
 20
-140.592
 11
191.234
 21
-140.189
  0
LINE
  8
0
 10
191.234
 20
-108.689
 11
191.234
 21
-108.211
  0
LINE
  8
0
 10
191.234
 20
-108.211
 11
191.493
 21
-107.808
  0
LINE
  8
0
 10
191.493
 20
-107.808
 11
191.929
 21
-107.609
  0
LINE
  8
0
 10
191.929
 20
-107.609
 11
192.403
 21
-107.677
  0
LINE
  8
0
 10
192.403
 20
-107.677
 11
192.765
 21
-107.99
  0
LINE
  8
0
 10
192.765
 20
-107.99
 11
192.9
 21
-108.45
  0
LINE
  8
0
 10
192.9
 20
-108.45
 11
192.765
 21
-108.91
  0
LINE
  8
0
 10
192.765
 20
-108.91
 11
192.403
 21
-109.223
  0
LINE
  8
0
 10
192.403
 20
-109.223
 11
191.929
 21
-109.291
  0
LINE
  8
0
 10
191.929
 20
-109.291
 11
191.493
 21
-109.092
  0
LINE
  8
0
 10
191.493
 20
-109.092
 11
191.234
 21
-108.689
  0
LINE
  8
0
 10
205.534
 20
-124.289
 11
205.534
 21
-123.811
  0
LINE
  8
0
 10
205.534
 20
-123.811
 11
205.793
 21
-123.408
  0
LINE
  8
0
 10
205.793
 20
-123.408
 11
206.229
 21
-123.209
  0
LINE
  8
0
 10
206.229
 20
-123.209
 11
206.703
 21
-123.277
  0
LINE
  8
0
 10
206.703
 20
-123.277
 11
207.065
 21
-123.59
  0
LINE
  8
0
 10
207.065
 20
-123.59
 11
207.2
 21
-124.05
  0
LINE
  8
0
 10
207.2
 20
-124.05
 11
207.065
 21
-124.51
  0
LINE
  8
0
 10
207.065
 20
-124.51
 11
206.703
 21
-124.823
  0
LINE
  8
0
 10
206.703
 20
-124.823
 11
206.229
 21
-124.891
  0
LINE
  8
0
 10
206.229
 20
-124.891
 11
205.793
 21
-124.692
  0
LINE
  8
0
 10
205.793
 20
-124.692
 11
205.534
 21
-124.289
  0
LINE
  8
0
 10
205.534
 20
-92.7895
 11
205.534
 21
-92.3105
  0
LINE
  8
0
 10
205.534
 20
-92.3105
 11
205.793
 21
-91.9076
  0
LINE
  8
0
 10
205.793
 20
-91.9076
 11
206.229
 21
-91.7087
  0
LINE
  8
0
 10
206.229
 20
-91.7087
 11
206.703
 21
-91.7768
  0
LINE
  8
0
 10
206.703
 20
-91.7768
 11
207.065
 21
-92.0905
  0
LINE
  8
0
 10
207.065
 20
-92.0905
 11
207.2
 21
-92.55
  0
LINE
  8
0
 10
207.2
 20
-92.55
 11
207.065
 21
-93.0095
  0
LINE
  8
0
 10
207.065
 20
-93.0095
 11
206.703
 21
-93.3232
  0
LINE
  8
0
 10
206.703
 20
-93.3232
 11
206.229
 21
-93.3913
  0
LINE
  8
0
 10
206.229
 20
-93.3913
 11
205.793
 21
-93.1924
  0
LINE
  8
0
 10
205.793
 20
-93.1924
 11
205.534
 21
-92.7895
  0
LINE
  8
0
 10
237.75
 20
-53.1
 11
237.845
 21
-52.6216
  0
LINE
  8
0
 10
237.845
 20
-52.6216
 11
238.116
 21
-52.2161
  0
LINE
  8
0
 10
238.116
 20
-52.2161
 11
238.522
 21
-51.9451
  0
LINE
  8
0
 10
238.522
 20
-51.9451
 11
239
 21
-51.85
  0
LINE
  8
0
 10
239
 20
-51.85
 11
239.478
 21
-51.9451
  0
LINE
  8
0
 10
239.478
 20
-51.9451
 11
239.884
 21
-52.2161
  0
LINE
  8
0
 10
239.884
 20
-52.2161
 11
240.155
 21
-52.6216
  0
LINE
  8
0
 10
240.155
 20
-52.6216
 11
240.25
 21
-53.1
  0
LINE
  8
0
 10
240.25
 20
-53.1
 11
240.155
 21
-53.5784
  0
LINE
  8
0
 10
240.155
 20
-53.5784
 11
239.884
 21
-53.9839
  0
LINE
  8
0
 10
239.884
 20
-53.9839
 11
239.478
 21
-54.2548
  0
LINE
  8
0
 10
239.478
 20
-54.2548
 11
239
 21
-54.35
  0
LINE
  8
0
 10
239
 20
-54.35
 11
238.522
 21
-54.2548
  0
LINE
  8
0
 10
238.522
 20
-54.2548
 11
238.116
 21
-53.9839
  0
LINE
  8
0
 10
238.116
 20
-53.9839
 11
237.845
 21
-53.5784
  0
LINE
  8
0
 10
237.845
 20
-53.5784
 11
237.75
 21
-53.1
  0
LINE
  8
0
 10
244.05
 20
-101.4
 11
244.145
 21
-100.922
  0
LINE
  8
0
 10
244.145
 20
-100.922
 11
244.416
 21
-100.516
  0
LINE
  8
0
 10
244.416
 20
-100.516
 11
244.822
 21
-100.245
  0
LINE
  8
0
 10
244.822
 20
-100.245
 11
245.3
 21
-100.15
  0
LINE
  8
0
 10
245.3
 20
-100.15
 11
245.778
 21
-100.245
  0
LINE
  8
0
 10
245.778
 20
-100.245
 11
246.184
 21
-100.516
  0
LINE
  8
0
 10
246.184
 20
-100.516
 11
246.455
 21
-100.922
  0
LINE
  8
0
 10
246.455
 20
-100.922
 11
246.55
 21
-101.4
  0
LINE
  8
0
 10
246.55
 20
-101.4
 11
246.455
 21
-101.878
  0
LINE
  8
0
 10
246.455
 20
-101.878
 11
246.184
 21
-102.284
  0
LINE
  8
0
 10
246.184
 20
-102.284
 11
245.778
 21
-102.555
  0
LINE
  8
0
 10
245.778
 20
-102.555
 11
245.3
 21
-102.65
  0
LINE
  8
0
 10
245.3
 20
-102.65
 11
244.822
 21
-102.555
  0
LINE
  8
0
 10
244.822
 20
-102.555
 11
244.416
 21
-102.284
  0
LINE
  8
0
 10
244.416
 20
-102.284
 11
244.145
 21
-101.878
  0
LINE
  8
0
 10
244.145
 20
-101.878
 11
244.05
 21
-101.4
  0
LINE
  8
0
 10
285.512
 20
-32.1
 11
285.626
 21
-31.6353
  0
LINE
  8
0
 10
285.626
 20
-31.6353
 11
285.944
 21
-31.277
  0
LINE
  8
0
 10
285.944
 20
-31.277
 11
286.391
 21
-31.1073
  0
LINE
  8
0
 10
286.391
 20
-31.1073
 11
286.866
 21
-31.165
  0
LINE
  8
0
 10
286.866
 20
-31.165
 11
287.26
 21
-31.4369
  0
LINE
  8
0
 10
287.26
 20
-31.4369
 11
287.483
 21
-31.8607
  0
LINE
  8
0
 10
287.483
 20
-31.8607
 11
287.483
 21
-32.3393
  0
LINE
  8
0
 10
287.483
 20
-32.3393
 11
287.26
 21
-32.7631
  0
LINE
  8
0
 10
287.26
 20
-32.7631
 11
286.866
 21
-33.035
  0
LINE
  8
0
 10
286.866
 20
-33.035
 11
286.391
 21
-33.0927
  0
LINE
  8
0
 10
286.391
 20
-33.0927
 11
285.944
 21
-32.923
  0
LINE
  8
0
 10
285.944
 20
-32.923
 11
285.626
 21
-32.5647
  0
LINE
  8
0
 10
285.626
 20
-32.5647
 11
285.512
 21
-32.1
  0
LINE
  8
0
 10
318.95
 20
-101.4
 11
319.045
 21
-100.922
  0
LINE
  8
0
 10
319.045
 20
-100.922
 11
319.316
 21
-100.516
  0
LINE
  8
0
 10
319.316
 20
-100.516
 11
319.722
 21
-100.245
  0
LINE
  8
0
 10
319.722
 20
-100.245
 11
320.2
 21
-100.15
  0
LINE
  8
0
 10
320.2
 20
-100.15
 11
320.678
 21
-100.245
  0
LINE
  8
0
 10
320.678
 20
-100.245
 11
321.084
 21
-100.516
  0
LINE
  8
0
 10
321.084
 20
-100.516
 11
321.355
 21
-100.922
  0
LINE
  8
0
 10
321.355
 20
-100.922
 11
321.45
 21
-101.4
  0
LINE
  8
0
 10
321.45
 20
-101.4
 11
321.355
 21
-101.878
  0
LINE
  8
0
 10
321.355
 20
-101.878
 11
321.084
 21
-102.284
  0
LINE
  8
0
 10
321.084
 20
-102.284
 11
320.678
 21
-102.555
  0
LINE
  8
0
 10
320.678
 20
-102.555
 11
320.2
 21
-102.65
  0
LINE
  8
0
 10
320.2
 20
-102.65
 11
319.722
 21
-102.555
  0
LINE
  8
0
 10
319.722
 20
-102.555
 11
319.316
 21
-102.284
  0
LINE
  8
0
 10
319.316
 20
-102.284
 11
319.045
 21
-101.878
  0
LINE
  8
0
 10
319.045
 20
-101.878
 11
318.95
 21
-101.4
  0
LINE
  8
0
 10
320.25
 20
-53.1
 11
320.345
 21
-52.6216
  0
LINE
  8
0
 10
320.345
 20
-52.6216
 11
320.616
 21
-52.2161
  0
LINE
  8
0
 10
320.616
 20
-52.2161
 11
321.022
 21
-51.9451
  0
LINE
  8
0
 10
321.022
 20
-51.9451
 11
321.5
 21
-51.85
  0
LINE
  8
0
 10
321.5
 20
-51.85
 11
321.978
 21
-51.9451
  0
LINE
  8
0
 10
321.978
 20
-51.9451
 11
322.384
 21
-52.2161
  0
LINE
  8
0
 10
322.384
 20
-52.2161
 11
322.655
 21
-52.6216
  0
LINE
  8
0
 10
322.655
 20
-52.6216
 11
322.75
 21
-53.1
  0
LINE
  8
0
 10
322.75
 20
-53.1
 11
322.655
 21
-53.5784
  0
LINE
  8
0
 10
322.655
 20
-53.5784
 11
322.384
 21
-53.9839
  0
LINE
  8
0
 10
322.384
 20
-53.9839
 11
321.978
 21
-54.2548
  0
LINE
  8
0
 10
321.978
 20
-54.2548
 11
321.5
 21
-54.35
  0
LINE
  8
0
 10
321.5
 20
-54.35
 11
321.022
 21
-54.2548
  0
LINE
  8
0
 10
321.022
 20
-54.2548
 11
320.616
 21
-53.9839
  0
LINE
  8
0
 10
320.616
 20
-53.9839
 11
320.345
 21
-53.5784
  0
LINE
  8
0
 10
320.345
 20
-53.5784
 11
320.25
 21
-53.1
  0
LINE
  8
0
 10
328.48
 20
-8
 11
328.521
 21
-7.50622
  0
LINE
  8
0
 10
328.521
 20
-7.50622
 11
328.643
 21
-7.0259
  0
LINE
  8
0
 10
328.643
 20
-7.0259
 11
328.842
 21
-6.57216
  0
LINE
  8
0
 10
328.842
 20
-6.57216
 11
329.113
 21
-6.15736
  0
LINE
  8
0
 10
329.113
 20
-6.15736
 11
329.448
 21
-5.79283
  0
LINE
  8
0
 10
329.448
 20
-5.79283
 11
329.839
 21
-5.4885
  0
LINE
  8
0
 10
329.839
 20
-5.4885
 11
330.275
 21
-5.25268
  0
LINE
  8
0
 10
330.275
 20
-5.25268
 11
330.744
 21
-5.0918
  0
LINE
  8
0
 10
330.744
 20
-5.0918
 11
331.232
 21
-5.01025
  0
LINE
  8
0
 10
331.232
 20
-5.01025
 11
331.728
 21
-5.01025
  0
LINE
  8
0
 10
331.728
 20
-5.01025
 11
332.216
 21
-5.0918
  0
LINE
  8
0
 10
332.216
 20
-5.0918
 11
332.685
 21
-5.25268
  0
LINE
  8
0
 10
332.685
 20
-5.25268
 11
333.121
 21
-5.4885
  0
LINE
  8
0
 10
333.121
 20
-5.4885
 11
333.512
 21
-5.79283
  0
LINE
  8
0
 10
333.512
 20
-5.79283
 11
333.847
 21
-6.15736
  0
LINE
  8
0
 10
333.847
 20
-6.15736
 11
334.118
 21
-6.57216
  0
LINE
  8
0
 10
334.118
 20
-6.57216
 11
334.317
 21
-7.0259
  0
LINE
  8
0
 10
334.317
 20
-7.0259
 11
334.439
 21
-7.50622
  0
LINE
  8
0
 10
334.439
 20
-7.50622
 11
334.48
 21
-8
  0
LINE
  8
0
 10
334.48
 20
-8
 11
334.439
 21
-8.49378
  0
LINE
  8
0
 10
334.439
 20
-8.49378
 11
334.317
 21
-8.9741
  0
LINE
  8
0
 10
334.317
 20
-8.9741
 11
334.118
 21
-9.42784
  0
LINE
  8
0
 10
334.118
 20
-9.42784
 11
333.847
 21
-9.84264
  0
LINE
  8
0
 10
333.847
 20
-9.84264
 11
333.512
 21
-10.2072
  0
LINE
  8
0
 10
333.512
 20
-10.2072
 11
333.121
 21
-10.5115
  0
LINE
  8
0
 10
333.121
 20
-10.5115
 11
332.685
 21
-10.7473
  0
LINE
  8
0
 10
332.685
 20
-10.7473
 11
332.216
 21
-10.9082
  0
LINE
  8
0
 10
332.216
 20
-10.9082
 11
331.728
 21
-10.9898
  0
LINE
  8
0
 10
331.728
 20
-10.9898
 11
331.232
 21
-10.9898
  0
LINE
  8
0
 10
331.232
 20
-10.9898
 11
330.744
 21
-10.9082
  0
LINE
  8
0
 10
330.744
 20
-10.9082
 11
330.275
 21
-10.7473
  0
LINE
  8
0
 10
330.275
 20
-10.7473
 11
329.839
 21
-10.5115
  0
LINE
  8
0
 10
329.839
 20
-10.5115
 11
329.448
 21
-10.2072
  0
LINE
  8
0
 10
329.448
 20
-10.2072
 11
329.113
 21
-9.84264
  0
LINE
  8
0
 10
329.113
 20
-9.84264
 11
328.842
 21
-9.42784
  0
LINE
  8
0
 10
328.842
 20
-9.42784
 11
328.643
 21
-8.9741
  0
LINE
  8
0
 10
328.643
 20
-8.9741
 11
328.521
 21
-8.49378
  0
LINE
  8
0
 10
328.521
 20
-8.49378
 11
328.48
 21
-8
  0
LINE
  8
0
 10
340.98
 20
-7
 11
341.038
 21
-6.52137
  0
LINE
  8
0
 10
341.038
 20
-6.52137
 11
341.209
 21
-6.07055
  0
LINE
  8
0
 10
341.209
 20
-6.07055
 11
341.483
 21
-5.67375
  0
LINE
  8
0
 10
341.483
 20
-5.67375
 11
341.844
 21
-5.35403
  0
LINE
  8
0
 10
341.844
 20
-5.35403
 11
342.271
 21
-5.12997
  0
LINE
  8
0
 10
342.271
 20
-5.12997
 11
342.739
 21
-5.01458
  0
LINE
  8
0
 10
342.739
 20
-5.01458
 11
343.221
 21
-5.01458
  0
LINE
  8
0
 10
343.221
 20
-5.01458
 11
343.689
 21
-5.12997
  0
LINE
  8
0
 10
343.689
 20
-5.12997
 11
344.116
 21
-5.35403
  0
LINE
  8
0
 10
344.116
 20
-5.35403
 11
344.477
 21
-5.67375
  0
LINE
  8
0
 10
344.477
 20
-5.67375
 11
344.751
 21
-6.07055
  0
LINE
  8
0
 10
344.751
 20
-6.07055
 11
344.922
 21
-6.52137
  0
LINE
  8
0
 10
344.922
 20
-6.52137
 11
344.98
 21
-7
  0
LINE
  8
0
 10
344.98
 20
-7
 11
344.922
 21
-7.47863
  0
LINE
  8
0
 10
344.922
 20
-7.47863
 11
344.751
 21
-7.92945
  0
LINE
  8
0
 10
344.751
 20
-7.92945
 11
344.477
 21
-8.32625
  0
LINE
  8
0
 10
344.477
 20
-8.32625
 11
344.116
 21
-8.64597
  0
LINE
  8
0
 10
344.116
 20
-8.64597
 11
343.689
 21
-8.87003
  0
LINE
  8
0
 10
343.689
 20
-8.87003
 11
343.221
 21
-8.98542
  0
LINE
  8
0
 10
343.221
 20
-8.98542
 11
342.739
 21
-8.98542
  0
LINE
  8
0
 10
342.739
 20
-8.98542
 11
342.271
 21
-8.87003
  0
LINE
  8
0
 10
342.271
 20
-8.87003
 11
341.844
 21
-8.64597
  0
LINE
  8
0
 10
341.844
 20
-8.64597
 11
341.483
 21
-8.32625
  0
LINE
  8
0
 10
341.483
 20
-8.32625
 11
341.209
 21
-7.92945
  0
LINE
  8
0
 10
341.209
 20
-7.92945
 11
341.038
 21
-7.47863
  0
LINE
  8
0
 10
341.038
 20
-7.47863
 11
340.98
 21
-7
  0
LINE
  8
0
 10
355.109
 20
-8.43931
 11
355.109
 21
-7.96068
  0
LINE
  8
0
 10
355.109
 20
-7.96068
 11
355.331
 21
-7.53688
  0
LINE
  8
0
 10
355.331
 20
-7.53688
 11
355.725
 21
-7.26498
  0
LINE
  8
0
 10
355.725
 20
-7.26498
 11
356.201
 21
-7.20729
  0
LINE
  8
0
 10
356.201
 20
-7.20729
 11
356.648
 21
-7.37702
  0
LINE
  8
0
 10
356.648
 20
-7.37702
 11
356.965
 21
-7.73528
  0
LINE
  8
0
 10
356.965
 20
-7.73528
 11
357.08
 21
-8.2
  0
LINE
  8
0
 10
357.08
 20
-8.2
 11
356.965
 21
-8.66472
  0
LINE
  8
0
 10
356.965
 20
-8.66472
 11
356.648
 21
-9.02298
  0
LINE
  8
0
 10
356.648
 20
-9.02298
 11
356.201
 21
-9.19271
  0
LINE
  8
0
 10
356.201
 20
-9.19271
 11
355.725
 21
-9.13502
  0
LINE
  8
0
 10
355.725
 20
-9.13502
 11
355.331
 21
-8.86312
  0
LINE
  8
0
 10
355.331
 20
-8.86312
 11
355.109
 21
-8.43931
  0
LINE
  8
0
 10
375.929
 20
-8.43931
 11
375.929
 21
-7.96068
  0
LINE
  8
0
 10
375.929
 20
-7.96068
 11
376.151
 21
-7.53688
  0
LINE
  8
0
 10
376.151
 20
-7.53688
 11
376.545
 21
-7.26498
  0
LINE
  8
0
 10
376.545
 20
-7.26498
 11
377.021
 21
-7.20729
  0
LINE
  8
0
 10
377.021
 20
-7.20729
 11
377.468
 21
-7.37702
  0
LINE
  8
0
 10
377.468
 20
-7.37702
 11
377.785
 21
-7.73528
  0
LINE
  8
0
 10
377.785
 20
-7.73528
 11
377.9
 21
-8.2
  0
LINE
  8
0
 10
377.9
 20
-8.2
 11
377.785
 21
-8.66472
  0
LINE
  8
0
 10
377.785
 20
-8.66472
 11
377.468
 21
-9.02298
  0
LINE
  8
0
 10
377.468
 20
-9.02298
 11
377.021
 21
-9.19271
  0
LINE
  8
0
 10
377.021
 20
-9.19271
 11
376.545
 21
-9.13502
  0
LINE
  8
0
 10
376.545
 20
-9.13502
 11
376.151
 21
-8.86312
  0
LINE
  8
0
 10
376.151
 20
-8.86312
 11
375.929
 21
-8.43931
  0
ENDSEC
  0
SECTION
  2
OBJECTS
  0
DICTIONARY
  0
ENDSEC
  0
EOF
