  0
SECTION
  2
BLOCKS
  0
ENDSEC
  0
SECTION
  2
ENTITIES
  0
LINE
  8
0
 10
-4.04676e-14
 20
0
 11
320.69
 21
0
  0
LINE
  8
0
 10
320.69
 20
0
 11
320.69
 21
3.24774
  0
LINE
  8
0
 10
320.69
 20
3.24774
 11
320.772
 21
3.73646
  0
LINE
  8
0
 10
320.772
 20
3.73646
 11
320.933
 21
4.20509
  0
LINE
  8
0
 10
320.933
 20
4.20509
 11
321.169
 21
4.64084
  0
LINE
  8
0
 10
321.169
 20
4.64084
 11
321.473
 21
5.03184
  0
LINE
  8
0
 10
321.473
 20
5.03184
 11
321.837
 21
5.36742
  0
LINE
  8
0
 10
321.837
 20
5.36742
 11
322.252
 21
5.63842
  0
LINE
  8
0
 10
322.252
 20
5.63842
 11
322.706
 21
5.83745
  0
LINE
  8
0
 10
322.706
 20
5.83745
 11
323.186
 21
5.95908
  0
LINE
  8
0
 10
323.186
 20
5.95908
 11
323.68
 21
6
  0
LINE
  8
0
 10
323.68
 20
6
 11
324.174
 21
5.95908
  0
LINE
  8
0
 10
324.174
 20
5.95908
 11
324.654
 21
5.83745
  0
LINE
  8
0
 10
324.654
 20
5.83745
 11
325.108
 21
5.63842
  0
LINE
  8
0
 10
325.108
 20
5.63842
 11
325.523
 21
5.36742
  0
LINE
  8
0
 10
325.523
 20
5.36742
 11
325.887
 21
5.03184
  0
LINE
  8
0
 10
325.887
 20
5.03184
 11
326.192
 21
4.64084
  0
LINE
  8
0
 10
326.192
 20
4.64084
 11
326.427
 21
4.20509
  0
LINE
  8
0
 10
326.427
 20
4.20509
 11
326.588
 21
3.73646
  0
LINE
  8
0
 10
326.588
 20
3.73646
 11
326.67
 21
3.24774
  0
LINE
  8
0
 10
326.67
 20
3.24774
 11
326.67
 21
0
  0
LINE
  8
0
 10
326.67
 20
0
 11
333.595
 21
0
  0
LINE
  8
0
 10
333.595
 20
0
 11
333.595
 21
2.24107
  0
LINE
  8
0
 10
333.595
 20
2.24107
 11
333.71
 21
2.70921
  0
LINE
  8
0
 10
333.71
 20
2.70921
 11
333.934
 21
3.13613
  0
LINE
  8
0
 10
333.934
 20
3.13613
 11
334.254
 21
3.49702
  0
LINE
  8
0
 10
334.254
 20
3.49702
 11
334.651
 21
3.77091
  0
LINE
  8
0
 10
334.651
 20
3.77091
 11
335.101
 21
3.94188
  0
LINE
  8
0
 10
335.101
 20
3.94188
 11
335.58
 21
4
  0
LINE
  8
0
 10
335.58
 20
4
 11
336.059
 21
3.94188
  0
LINE
  8
0
 10
336.059
 20
3.94188
 11
336.509
 21
3.77091
  0
LINE
  8
0
 10
336.509
 20
3.77091
 11
336.906
 21
3.49702
  0
LINE
  8
0
 10
336.906
 20
3.49702
 11
337.226
 21
3.13613
  0
LINE
  8
0
 10
337.226
 20
3.13613
 11
337.45
 21
2.70921
  0
LINE
  8
0
 10
337.45
 20
2.70921
 11
337.565
 21
2.24107
  0
LINE
  8
0
 10
337.565
 20
2.24107
 11
337.565
 21
0
  0
LINE
  8
0
 10
337.565
 20
0
 11
392
 21
0
  0
LINE
  8
0
 10
392
 20
0
 11
392
 21
141.5
  0
LINE
  8
0
 10
392
 20
141.5
 11
391.905
 21
143.679
  0
LINE
  8
0
 10
391.905
 20
143.679
 11
391.62
 21
145.841
  0
LINE
  8
0
 10
391.62
 20
145.841
 11
391.148
 21
147.97
  0
LINE
  8
0
 10
391.148
 20
147.97
 11
390.492
 21
150.051
  0
LINE
  8
0
 10
390.492
 20
150.051
 11
389.658
 21
152.065
  0
LINE
  8
0
 10
389.658
 20
152.065
 11
388.651
 21
154
  0
LINE
  8
0
 10
388.651
 20
154
 11
387.479
 21
155.839
  0
LINE
  8
0
 10
387.479
 20
155.839
 11
386.151
 21
157.57
  0
LINE
  8
0
 10
386.151
 20
157.57
 11
384.678
 21
159.178
  0
LINE
  8
0
 10
384.678
 20
159.178
 11
383.07
 21
160.651
  0
LINE
  8
0
 10
383.07
 20
160.651
 11
381.339
 21
161.979
  0
LINE
  8
0
 10
381.339
 20
161.979
 11
379.5
 21
163.151
  0
LINE
  8
0
 10
379.5
 20
163.151
 11
377.565
 21
164.158
  0
LINE
  8
0
 10
377.565
 20
164.158
 11
375.551
 21
164.992
  0
LINE
  8
0
 10
375.551
 20
164.992
 11
373.47
 21
165.648
  0
LINE
  8
0
 10
373.47
 20
165.648
 11
371.341
 21
166.12
  0
LINE
  8
0
 10
371.341
 20
166.12
 11
369.179
 21
166.405
  0
LINE
  8
0
 10
369.179
 20
166.405
 11
367
 21
166.5
  0
LINE
  8
0
 10
367
 20
166.5
 11
-4.04676e-14
 21
166.5
  0
LINE
  8
0
 10
-4.04676e-14
 20
166.5
 11
-4.04676e-14
 21
0
  0
LINE
  8
0
 10
5
 20
136.58
 11
5.02675
 21
136.817
  0
LINE
  8
0
 10
5.02675
 20
136.817
 11
5.05516
 21
137.07
  0
LINE
  8
0
 10
5.05516
 20
137.07
 11
5.21787
 21
137.535
  0
LINE
  8
0
 10
5.21787
 20
137.535
 11
5.47997
 21
137.952
  0
LINE
  8
0
 10
5.47997
 20
137.952
 11
5.82832
 21
138.3
  0
LINE
  8
0
 10
5.82832
 20
138.3
 11
6.24546
 21
138.562
  0
LINE
  8
0
 10
6.24546
 20
138.562
 11
6.71045
 21
138.725
  0
LINE
  8
0
 10
6.71045
 20
138.725
 11
7.2
 21
138.78
  0
LINE
  8
0
 10
7.2
 20
138.78
 11
7.68955
 21
138.725
  0
LINE
  8
0
 10
7.68955
 20
138.725
 11
8.15454
 21
138.562
  0
LINE
  8
0
 10
8.15454
 20
138.562
 11
8.57168
 21
138.3
  0
LINE
  8
0
 10
8.57168
 20
138.3
 11
8.92003
 21
137.952
  0
LINE
  8
0
 10
8.92003
 20
137.952
 11
9.18213
 21
137.535
  0
LINE
  8
0
 10
9.18213
 20
137.535
 11
9.34484
 21
137.07
  0
LINE
  8
0
 10
9.34484
 20
137.07
 11
9.4
 21
136.58
  0
LINE
  8
0
 10
9.4
 20
136.58
 11
9.34484
 21
136.09
  0
LINE
  8
0
 10
9.34484
 20
136.09
 11
9.18213
 21
135.625
  0
LINE
  8
0
 10
9.18213
 20
135.625
 11
8.92003
 21
135.208
  0
LINE
  8
0
 10
8.92003
 20
135.208
 11
8.57168
 21
134.86
  0
LINE
  8
0
 10
8.57168
 20
134.86
 11
8.15454
 21
134.598
  0
LINE
  8
0
 10
8.15454
 20
134.598
 11
7.68955
 21
134.435
  0
LINE
  8
0
 10
7.68955
 20
134.435
 11
7.2
 21
134.38
  0
LINE
  8
0
 10
7.2
 20
134.38
 11
6.71045
 21
134.435
  0
LINE
  8
0
 10
6.71045
 20
134.435
 11
6.24546
 21
134.598
  0
LINE
  8
0
 10
6.24546
 20
134.598
 11
5.82832
 21
134.86
  0
LINE
  8
0
 10
5.82832
 20
134.86
 11
5.47997
 21
135.208
  0
LINE
  8
0
 10
5.47997
 20
135.208
 11
5.21787
 21
135.625
  0
LINE
  8
0
 10
5.21787
 20
135.625
 11
5.05516
 21
136.09
  0
LINE
  8
0
 10
5.05516
 20
136.09
 11
5.02675
 21
136.343
  0
LINE
  8
0
 10
5.02675
 20
136.343
 11
5
 21
136.58
  0
LINE
  8
0
 10
5
 20
157.8
 11
5.02675
 21
158.037
  0
LINE
  8
0
 10
5.02675
 20
158.037
 11
5.05516
 21
158.29
  0
LINE
  8
0
 10
5.05516
 20
158.29
 11
5.21787
 21
158.755
  0
LINE
  8
0
 10
5.21787
 20
158.755
 11
5.47997
 21
159.172
  0
LINE
  8
0
 10
5.47997
 20
159.172
 11
5.82832
 21
159.52
  0
LINE
  8
0
 10
5.82832
 20
159.52
 11
6.24546
 21
159.782
  0
LINE
  8
0
 10
6.24546
 20
159.782
 11
6.71045
 21
159.945
  0
LINE
  8
0
 10
6.71045
 20
159.945
 11
7.2
 21
160
  0
LINE
  8
0
 10
7.2
 20
160
 11
7.68955
 21
159.945
  0
LINE
  8
0
 10
7.68955
 20
159.945
 11
8.15454
 21
159.782
  0
LINE
  8
0
 10
8.15454
 20
159.782
 11
8.57168
 21
159.52
  0
LINE
  8
0
 10
8.57168
 20
159.52
 11
8.92003
 21
159.172
  0
LINE
  8
0
 10
8.92003
 20
159.172
 11
9.18213
 21
158.755
  0
LINE
  8
0
 10
9.18213
 20
158.755
 11
9.34484
 21
158.29
  0
LINE
  8
0
 10
9.34484
 20
158.29
 11
9.4
 21
157.8
  0
LINE
  8
0
 10
9.4
 20
157.8
 11
9.34484
 21
157.31
  0
LINE
  8
0
 10
9.34484
 20
157.31
 11
9.18213
 21
156.845
  0
LINE
  8
0
 10
9.18213
 20
156.845
 11
8.92003
 21
156.428
  0
LINE
  8
0
 10
8.92003
 20
156.428
 11
8.57168
 21
156.08
  0
LINE
  8
0
 10
8.57168
 20
156.08
 11
8.15454
 21
155.818
  0
LINE
  8
0
 10
8.15454
 20
155.818
 11
7.68955
 21
155.655
  0
LINE
  8
0
 10
7.68955
 20
155.655
 11
7.2
 21
155.6
  0
LINE
  8
0
 10
7.2
 20
155.6
 11
6.71045
 21
155.655
  0
LINE
  8
0
 10
6.71045
 20
155.655
 11
6.24546
 21
155.818
  0
LINE
  8
0
 10
6.24546
 20
155.818
 11
5.82832
 21
156.08
  0
LINE
  8
0
 10
5.82832
 20
156.08
 11
5.47997
 21
156.428
  0
LINE
  8
0
 10
5.47997
 20
156.428
 11
5.21787
 21
156.845
  0
LINE
  8
0
 10
5.21787
 20
156.845
 11
5.05516
 21
157.31
  0
LINE
  8
0
 10
5.05516
 20
157.31
 11
5.02675
 21
157.563
  0
LINE
  8
0
 10
5.02675
 20
157.563
 11
5
 21
157.8
  0
LINE
  8
0
 10
20.9
 20
7.2
 11
20.9552
 21
7.68955
  0
LINE
  8
0
 10
20.9552
 20
7.68955
 11
21.1179
 21
8.15454
  0
LINE
  8
0
 10
21.1179
 20
8.15454
 11
21.38
 21
8.57168
  0
LINE
  8
0
 10
21.38
 20
8.57168
 11
21.7283
 21
8.92003
  0
LINE
  8
0
 10
21.7283
 20
8.92003
 11
22.1455
 21
9.18213
  0
LINE
  8
0
 10
22.1455
 20
9.18213
 11
22.6105
 21
9.34484
  0
LINE
  8
0
 10
22.6105
 20
9.34484
 11
23.1
 21
9.4
  0
LINE
  8
0
 10
23.1
 20
9.4
 11
23.5895
 21
9.34484
  0
LINE
  8
0
 10
23.5895
 20
9.34484
 11
24.0545
 21
9.18213
  0
LINE
  8
0
 10
24.0545
 20
9.18213
 11
24.4717
 21
8.92003
  0
LINE
  8
0
 10
24.4717
 20
8.92003
 11
24.82
 21
8.57168
  0
LINE
  8
0
 10
24.82
 20
8.57168
 11
25.0821
 21
8.15454
  0
LINE
  8
0
 10
25.0821
 20
8.15454
 11
25.2448
 21
7.68955
  0
LINE
  8
0
 10
25.2448
 20
7.68955
 11
25.3
 21
7.2
  0
LINE
  8
0
 10
25.3
 20
7.2
 11
25.2448
 21
6.71045
  0
LINE
  8
0
 10
25.2448
 20
6.71045
 11
25.0821
 21
6.24546
  0
LINE
  8
0
 10
25.0821
 20
6.24546
 11
24.82
 21
5.82832
  0
LINE
  8
0
 10
24.82
 20
5.82832
 11
24.4717
 21
5.47997
  0
LINE
  8
0
 10
24.4717
 20
5.47997
 11
24.0545
 21
5.21787
  0
LINE
  8
0
 10
24.0545
 20
5.21787
 11
23.5895
 21
5.05516
  0
LINE
  8
0
 10
23.5895
 20
5.05516
 11
23.3374
 21
5.02675
  0
LINE
  8
0
 10
23.3374
 20
5.02675
 11
23.1
 21
5
  0
LINE
  8
0
 10
23.1
 20
5
 11
22.8626
 21
5.02675
  0
LINE
  8
0
 10
22.8626
 20
5.02675
 11
22.6105
 21
5.05516
  0
LINE
  8
0
 10
22.6105
 20
5.05516
 11
22.1455
 21
5.21787
  0
LINE
  8
0
 10
22.1455
 20
5.21787
 11
21.7283
 21
5.47997
  0
LINE
  8
0
 10
21.7283
 20
5.47997
 11
21.38
 21
5.82832
  0
LINE
  8
0
 10
21.38
 20
5.82832
 11
21.1179
 21
6.24546
  0
LINE
  8
0
 10
21.1179
 20
6.24546
 11
20.9552
 21
6.71045
  0
LINE
  8
0
 10
20.9552
 20
6.71045
 11
20.9
 21
7.2
  0
LINE
  8
0
 10
42.12
 20
7.2
 11
42.1752
 21
7.68955
  0
LINE
  8
0
 10
42.1752
 20
7.68955
 11
42.3379
 21
8.15454
  0
LINE
  8
0
 10
42.3379
 20
8.15454
 11
42.6
 21
8.57168
  0
LINE
  8
0
 10
42.6
 20
8.57168
 11
42.9483
 21
8.92003
  0
LINE
  8
0
 10
42.9483
 20
8.92003
 11
43.3655
 21
9.18213
  0
LINE
  8
0
 10
43.3655
 20
9.18213
 11
43.8305
 21
9.34484
  0
LINE
  8
0
 10
43.8305
 20
9.34484
 11
44.32
 21
9.4
  0
LINE
  8
0
 10
44.32
 20
9.4
 11
44.8095
 21
9.34484
  0
LINE
  8
0
 10
44.8095
 20
9.34484
 11
45.2745
 21
9.18213
  0
LINE
  8
0
 10
45.2745
 20
9.18213
 11
45.6917
 21
8.92003
  0
LINE
  8
0
 10
45.6917
 20
8.92003
 11
46.04
 21
8.57168
  0
LINE
  8
0
 10
46.04
 20
8.57168
 11
46.3021
 21
8.15454
  0
LINE
  8
0
 10
46.3021
 20
8.15454
 11
46.4648
 21
7.68955
  0
LINE
  8
0
 10
46.4648
 20
7.68955
 11
46.52
 21
7.2
  0
LINE
  8
0
 10
46.52
 20
7.2
 11
46.4648
 21
6.71045
  0
LINE
  8
0
 10
46.4648
 20
6.71045
 11
46.3021
 21
6.24546
  0
LINE
  8
0
 10
46.3021
 20
6.24546
 11
46.04
 21
5.82832
  0
LINE
  8
0
 10
46.04
 20
5.82832
 11
45.6917
 21
5.47997
  0
LINE
  8
0
 10
45.6917
 20
5.47997
 11
45.2745
 21
5.21787
  0
LINE
  8
0
 10
45.2745
 20
5.21787
 11
44.8095
 21
5.05516
  0
LINE
  8
0
 10
44.8095
 20
5.05516
 11
44.5574
 21
5.02675
  0
LINE
  8
0
 10
44.5574
 20
5.02675
 11
44.32
 21
5
  0
LINE
  8
0
 10
44.32
 20
5
 11
44.0826
 21
5.02675
  0
LINE
  8
0
 10
44.0826
 20
5.02675
 11
43.8305
 21
5.05516
  0
LINE
  8
0
 10
43.8305
 20
5.05516
 11
43.3655
 21
5.21787
  0
LINE
  8
0
 10
43.3655
 20
5.21787
 11
42.9483
 21
5.47997
  0
LINE
  8
0
 10
42.9483
 20
5.47997
 11
42.6
 21
5.82832
  0
LINE
  8
0
 10
42.6
 20
5.82832
 11
42.3379
 21
6.24546
  0
LINE
  8
0
 10
42.3379
 20
6.24546
 11
42.1752
 21
6.71045
  0
LINE
  8
0
 10
42.1752
 20
6.71045
 11
42.12
 21
7.2
  0
LINE
  8
0
 10
49.55
 20
19.65
 11
49.6052
 21
20.1395
  0
LINE
  8
0
 10
49.6052
 20
20.1395
 11
49.7679
 21
20.6045
  0
LINE
  8
0
 10
49.7679
 20
20.6045
 11
50.03
 21
21.0217
  0
LINE
  8
0
 10
50.03
 20
21.0217
 11
50.3783
 21
21.37
  0
LINE
  8
0
 10
50.3783
 20
21.37
 11
50.7955
 21
21.6321
  0
LINE
  8
0
 10
50.7955
 20
21.6321
 11
51.2605
 21
21.7948
  0
LINE
  8
0
 10
51.2605
 20
21.7948
 11
51.75
 21
21.85
  0
LINE
  8
0
 10
51.75
 20
21.85
 11
52.2395
 21
21.7948
  0
LINE
  8
0
 10
52.2395
 20
21.7948
 11
52.7045
 21
21.6321
  0
LINE
  8
0
 10
52.7045
 20
21.6321
 11
53.1217
 21
21.37
  0
LINE
  8
0
 10
53.1217
 20
21.37
 11
53.47
 21
21.0217
  0
LINE
  8
0
 10
53.47
 20
21.0217
 11
53.7321
 21
20.6045
  0
LINE
  8
0
 10
53.7321
 20
20.6045
 11
53.8948
 21
20.1395
  0
LINE
  8
0
 10
53.8948
 20
20.1395
 11
53.95
 21
19.65
  0
LINE
  8
0
 10
53.95
 20
19.65
 11
53.8948
 21
19.1605
  0
LINE
  8
0
 10
53.8948
 20
19.1605
 11
53.7321
 21
18.6955
  0
LINE
  8
0
 10
53.7321
 20
18.6955
 11
53.47
 21
18.2783
  0
LINE
  8
0
 10
53.47
 20
18.2783
 11
53.1217
 21
17.93
  0
LINE
  8
0
 10
53.1217
 20
17.93
 11
52.7045
 21
17.6679
  0
LINE
  8
0
 10
52.7045
 20
17.6679
 11
52.2395
 21
17.5052
  0
LINE
  8
0
 10
52.2395
 20
17.5052
 11
51.75
 21
17.45
  0
LINE
  8
0
 10
51.75
 20
17.45
 11
51.2605
 21
17.5052
  0
LINE
  8
0
 10
51.2605
 20
17.5052
 11
50.7955
 21
17.6679
  0
LINE
  8
0
 10
50.7955
 20
17.6679
 11
50.3783
 21
17.93
  0
LINE
  8
0
 10
50.3783
 20
17.93
 11
50.03
 21
18.2783
  0
LINE
  8
0
 10
50.03
 20
18.2783
 11
49.7679
 21
18.6955
  0
LINE
  8
0
 10
49.7679
 20
18.6955
 11
49.6052
 21
19.1605
  0
LINE
  8
0
 10
49.6052
 20
19.1605
 11
49.55
 21
19.65
  0
LINE
  8
0
 10
49.55
 20
91.15
 11
49.6052
 21
91.6395
  0
LINE
  8
0
 10
49.6052
 20
91.6395
 11
49.7679
 21
92.1045
  0
LINE
  8
0
 10
49.7679
 20
92.1045
 11
50.03
 21
92.5217
  0
LINE
  8
0
 10
50.03
 20
92.5217
 11
50.3783
 21
92.87
  0
LINE
  8
0
 10
50.3783
 20
92.87
 11
50.7955
 21
93.1321
  0
LINE
  8
0
 10
50.7955
 20
93.1321
 11
51.2605
 21
93.2948
  0
LINE
  8
0
 10
51.2605
 20
93.2948
 11
51.75
 21
93.35
  0
LINE
  8
0
 10
51.75
 20
93.35
 11
52.2395
 21
93.2948
  0
LINE
  8
0
 10
52.2395
 20
93.2948
 11
52.7045
 21
93.1321
  0
LINE
  8
0
 10
52.7045
 20
93.1321
 11
53.1217
 21
92.87
  0
LINE
  8
0
 10
53.1217
 20
92.87
 11
53.47
 21
92.5217
  0
LINE
  8
0
 10
53.47
 20
92.5217
 11
53.7321
 21
92.1045
  0
LINE
  8
0
 10
53.7321
 20
92.1045
 11
53.8948
 21
91.6395
  0
LINE
  8
0
 10
53.8948
 20
91.6395
 11
53.95
 21
91.15
  0
LINE
  8
0
 10
53.95
 20
91.15
 11
53.8948
 21
90.6605
  0
LINE
  8
0
 10
53.8948
 20
90.6605
 11
53.7321
 21
90.1955
  0
LINE
  8
0
 10
53.7321
 20
90.1955
 11
53.47
 21
89.7783
  0
LINE
  8
0
 10
53.47
 20
89.7783
 11
53.1217
 21
89.43
  0
LINE
  8
0
 10
53.1217
 20
89.43
 11
52.7045
 21
89.1679
  0
LINE
  8
0
 10
52.7045
 20
89.1679
 11
52.2395
 21
89.0052
  0
LINE
  8
0
 10
52.2395
 20
89.0052
 11
51.75
 21
88.95
  0
LINE
  8
0
 10
51.75
 20
88.95
 11
51.2605
 21
89.0052
  0
LINE
  8
0
 10
51.2605
 20
89.0052
 11
50.7955
 21
89.1679
  0
LINE
  8
0
 10
50.7955
 20
89.1679
 11
50.3783
 21
89.43
  0
LINE
  8
0
 10
50.3783
 20
89.43
 11
50.03
 21
89.7783
  0
LINE
  8
0
 10
50.03
 20
89.7783
 11
49.7679
 21
90.1955
  0
LINE
  8
0
 10
49.7679
 20
90.1955
 11
49.6052
 21
90.6605
  0
LINE
  8
0
 10
49.6052
 20
90.6605
 11
49.55
 21
91.15
  0
LINE
  8
0
 10
50
 20
55.4
 11
50.1427
 21
58.6683
  0
LINE
  8
0
 10
50.1427
 20
58.6683
 11
50.5697
 21
61.9118
  0
LINE
  8
0
 10
50.5697
 20
61.9118
 11
51.2778
 21
65.1057
  0
LINE
  8
0
 10
51.2778
 20
65.1057
 11
52.2615
 21
68.2258
  0
LINE
  8
0
 10
52.2615
 20
68.2258
 11
53.5135
 21
71.2482
  0
LINE
  8
0
 10
53.5135
 20
71.2482
 11
55.024
 21
74.15
  0
LINE
  8
0
 10
55.024
 20
74.15
 11
56.7818
 21
76.9091
  0
LINE
  8
0
 10
56.7818
 20
76.9091
 11
58.7733
 21
79.5045
  0
LINE
  8
0
 10
58.7733
 20
79.5045
 11
60.9835
 21
81.9165
  0
LINE
  8
0
 10
60.9835
 20
81.9165
 11
63.3955
 21
84.1267
  0
LINE
  8
0
 10
63.3955
 20
84.1267
 11
65.9909
 21
86.1182
  0
LINE
  8
0
 10
65.9909
 20
86.1182
 11
68.75
 21
87.876
  0
LINE
  8
0
 10
68.75
 20
87.876
 11
71.6518
 21
89.3865
  0
LINE
  8
0
 10
71.6518
 20
89.3865
 11
74.6742
 21
90.6385
  0
LINE
  8
0
 10
74.6742
 20
90.6385
 11
77.7943
 21
91.6222
  0
LINE
  8
0
 10
77.7943
 20
91.6222
 11
80.9882
 21
92.3303
  0
LINE
  8
0
 10
80.9882
 20
92.3303
 11
84.2317
 21
92.7573
  0
LINE
  8
0
 10
84.2317
 20
92.7573
 11
87.5
 21
92.9
  0
LINE
  8
0
 10
87.5
 20
92.9
 11
90.7683
 21
92.7573
  0
LINE
  8
0
 10
90.7683
 20
92.7573
 11
94.0118
 21
92.3303
  0
LINE
  8
0
 10
94.0118
 20
92.3303
 11
97.2057
 21
91.6222
  0
LINE
  8
0
 10
97.2057
 20
91.6222
 11
100.326
 21
90.6385
  0
LINE
  8
0
 10
100.326
 20
90.6385
 11
103.348
 21
89.3865
  0
LINE
  8
0
 10
103.348
 20
89.3865
 11
106.25
 21
87.876
  0
LINE
  8
0
 10
106.25
 20
87.876
 11
109.009
 21
86.1182
  0
LINE
  8
0
 10
109.009
 20
86.1182
 11
111.605
 21
84.1267
  0
LINE
  8
0
 10
111.605
 20
84.1267
 11
114.017
 21
81.9165
  0
LINE
  8
0
 10
114.017
 20
81.9165
 11
116.227
 21
79.5045
  0
LINE
  8
0
 10
116.227
 20
79.5045
 11
118.218
 21
76.9091
  0
LINE
  8
0
 10
118.218
 20
76.9091
 11
119.976
 21
74.15
  0
LINE
  8
0
 10
119.976
 20
74.15
 11
121.487
 21
71.2482
  0
LINE
  8
0
 10
121.487
 20
71.2482
 11
122.738
 21
68.2258
  0
LINE
  8
0
 10
122.738
 20
68.2258
 11
123.722
 21
65.1057
  0
LINE
  8
0
 10
123.722
 20
65.1057
 11
124.43
 21
61.9118
  0
LINE
  8
0
 10
124.43
 20
61.9118
 11
124.857
 21
58.6683
  0
LINE
  8
0
 10
124.857
 20
58.6683
 11
125
 21
55.4
  0
LINE
  8
0
 10
125
 20
55.4
 11
124.857
 21
52.1317
  0
LINE
  8
0
 10
124.857
 20
52.1317
 11
124.43
 21
48.8882
  0
LINE
  8
0
 10
124.43
 20
48.8882
 11
123.722
 21
45.6943
  0
LINE
  8
0
 10
123.722
 20
45.6943
 11
122.738
 21
42.5742
  0
LINE
  8
0
 10
122.738
 20
42.5742
 11
121.487
 21
39.5518
  0
LINE
  8
0
 10
121.487
 20
39.5518
 11
119.976
 21
36.65
  0
LINE
  8
0
 10
119.976
 20
36.65
 11
118.218
 21
33.8909
  0
LINE
  8
0
 10
118.218
 20
33.8909
 11
116.227
 21
31.2955
  0
LINE
  8
0
 10
116.227
 20
31.2955
 11
114.017
 21
28.8835
  0
LINE
  8
0
 10
114.017
 20
28.8835
 11
111.605
 21
26.6733
  0
LINE
  8
0
 10
111.605
 20
26.6733
 11
109.009
 21
24.6818
  0
LINE
  8
0
 10
109.009
 20
24.6818
 11
106.25
 21
22.924
  0
LINE
  8
0
 10
106.25
 20
22.924
 11
103.348
 21
21.4135
  0
LINE
  8
0
 10
103.348
 20
21.4135
 11
100.326
 21
20.1615
  0
LINE
  8
0
 10
100.326
 20
20.1615
 11
97.2057
 21
19.1778
  0
LINE
  8
0
 10
97.2057
 20
19.1778
 11
94.0118
 21
18.4697
  0
LINE
  8
0
 10
94.0118
 20
18.4697
 11
90.7683
 21
18.0427
  0
LINE
  8
0
 10
90.7683
 20
18.0427
 11
87.5
 21
17.9
  0
LINE
  8
0
 10
87.5
 20
17.9
 11
84.2317
 21
18.0427
  0
LINE
  8
0
 10
84.2317
 20
18.0427
 11
80.9882
 21
18.4697
  0
LINE
  8
0
 10
80.9882
 20
18.4697
 11
77.7943
 21
19.1778
  0
LINE
  8
0
 10
77.7943
 20
19.1778
 11
74.6742
 21
20.1615
  0
LINE
  8
0
 10
74.6742
 20
20.1615
 11
71.6518
 21
21.4135
  0
LINE
  8
0
 10
71.6518
 20
21.4135
 11
68.75
 21
22.924
  0
LINE
  8
0
 10
68.75
 20
22.924
 11
65.9909
 21
24.6818
  0
LINE
  8
0
 10
65.9909
 20
24.6818
 11
63.3955
 21
26.6733
  0
LINE
  8
0
 10
63.3955
 20
26.6733
 11
60.9835
 21
28.8835
  0
LINE
  8
0
 10
60.9835
 20
28.8835
 11
58.7733
 21
31.2955
  0
LINE
  8
0
 10
58.7733
 20
31.2955
 11
56.7818
 21
33.8909
  0
LINE
  8
0
 10
56.7818
 20
33.8909
 11
55.024
 21
36.65
  0
LINE
  8
0
 10
55.024
 20
36.65
 11
53.5135
 21
39.5518
  0
LINE
  8
0
 10
53.5135
 20
39.5518
 11
52.2615
 21
42.5742
  0
LINE
  8
0
 10
52.2615
 20
42.5742
 11
51.2778
 21
45.6943
  0
LINE
  8
0
 10
51.2778
 20
45.6943
 11
50.5697
 21
48.8882
  0
LINE
  8
0
 10
50.5697
 20
48.8882
 11
50.1427
 21
52.1317
  0
LINE
  8
0
 10
50.1427
 20
52.1317
 11
50
 21
55.4
  0
LINE
  8
0
 10
121.05
 20
19.65
 11
121.105
 21
20.1395
  0
LINE
  8
0
 10
121.105
 20
20.1395
 11
121.268
 21
20.6045
  0
LINE
  8
0
 10
121.268
 20
20.6045
 11
121.53
 21
21.0217
  0
LINE
  8
0
 10
121.53
 20
21.0217
 11
121.878
 21
21.37
  0
LINE
  8
0
 10
121.878
 20
21.37
 11
122.295
 21
21.6321
  0
LINE
  8
0
 10
122.295
 20
21.6321
 11
122.76
 21
21.7948
  0
LINE
  8
0
 10
122.76
 20
21.7948
 11
123.25
 21
21.85
  0
LINE
  8
0
 10
123.25
 20
21.85
 11
123.74
 21
21.7948
  0
LINE
  8
0
 10
123.74
 20
21.7948
 11
124.205
 21
21.6321
  0
LINE
  8
0
 10
124.205
 20
21.6321
 11
124.622
 21
21.37
  0
LINE
  8
0
 10
124.622
 20
21.37
 11
124.97
 21
21.0217
  0
LINE
  8
0
 10
124.97
 20
21.0217
 11
125.232
 21
20.6045
  0
LINE
  8
0
 10
125.232
 20
20.6045
 11
125.395
 21
20.1395
  0
LINE
  8
0
 10
125.395
 20
20.1395
 11
125.45
 21
19.65
  0
LINE
  8
0
 10
125.45
 20
19.65
 11
125.395
 21
19.1605
  0
LINE
  8
0
 10
125.395
 20
19.1605
 11
125.232
 21
18.6955
  0
LINE
  8
0
 10
125.232
 20
18.6955
 11
124.97
 21
18.2783
  0
LINE
  8
0
 10
124.97
 20
18.2783
 11
124.622
 21
17.93
  0
LINE
  8
0
 10
124.622
 20
17.93
 11
124.205
 21
17.6679
  0
LINE
  8
0
 10
124.205
 20
17.6679
 11
123.74
 21
17.5052
  0
LINE
  8
0
 10
123.74
 20
17.5052
 11
123.25
 21
17.45
  0
LINE
  8
0
 10
123.25
 20
17.45
 11
122.76
 21
17.5052
  0
LINE
  8
0
 10
122.76
 20
17.5052
 11
122.295
 21
17.6679
  0
LINE
  8
0
 10
122.295
 20
17.6679
 11
121.878
 21
17.93
  0
LINE
  8
0
 10
121.878
 20
17.93
 11
121.53
 21
18.2783
  0
LINE
  8
0
 10
121.53
 20
18.2783
 11
121.268
 21
18.6955
  0
LINE
  8
0
 10
121.268
 20
18.6955
 11
121.105
 21
19.1605
  0
LINE
  8
0
 10
121.105
 20
19.1605
 11
121.05
 21
19.65
  0
LINE
  8
0
 10
121.05
 20
91.15
 11
121.105
 21
91.6395
  0
LINE
  8
0
 10
121.105
 20
91.6395
 11
121.268
 21
92.1045
  0
LINE
  8
0
 10
121.268
 20
92.1045
 11
121.53
 21
92.5217
  0
LINE
  8
0
 10
121.53
 20
92.5217
 11
121.878
 21
92.87
  0
LINE
  8
0
 10
121.878
 20
92.87
 11
122.295
 21
93.1321
  0
LINE
  8
0
 10
122.295
 20
93.1321
 11
122.76
 21
93.2948
  0
LINE
  8
0
 10
122.76
 20
93.2948
 11
123.25
 21
93.35
  0
LINE
  8
0
 10
123.25
 20
93.35
 11
123.74
 21
93.2948
  0
LINE
  8
0
 10
123.74
 20
93.2948
 11
124.205
 21
93.1321
  0
LINE
  8
0
 10
124.205
 20
93.1321
 11
124.622
 21
92.87
  0
LINE
  8
0
 10
124.622
 20
92.87
 11
124.97
 21
92.5217
  0
LINE
  8
0
 10
124.97
 20
92.5217
 11
125.232
 21
92.1045
  0
LINE
  8
0
 10
125.232
 20
92.1045
 11
125.395
 21
91.6395
  0
LINE
  8
0
 10
125.395
 20
91.6395
 11
125.45
 21
91.15
  0
LINE
  8
0
 10
125.45
 20
91.15
 11
125.395
 21
90.6605
  0
LINE
  8
0
 10
125.395
 20
90.6605
 11
125.232
 21
90.1955
  0
LINE
  8
0
 10
125.232
 20
90.1955
 11
124.97
 21
89.7783
  0
LINE
  8
0
 10
124.97
 20
89.7783
 11
124.622
 21
89.43
  0
LINE
  8
0
 10
124.622
 20
89.43
 11
124.205
 21
89.1679
  0
LINE
  8
0
 10
124.205
 20
89.1679
 11
123.74
 21
89.0052
  0
LINE
  8
0
 10
123.74
 20
89.0052
 11
123.25
 21
88.95
  0
LINE
  8
0
 10
123.25
 20
88.95
 11
122.76
 21
89.0052
  0
LINE
  8
0
 10
122.76
 20
89.0052
 11
122.295
 21
89.1679
  0
LINE
  8
0
 10
122.295
 20
89.1679
 11
121.878
 21
89.43
  0
LINE
  8
0
 10
121.878
 20
89.43
 11
121.53
 21
89.7783
  0
LINE
  8
0
 10
121.53
 20
89.7783
 11
121.268
 21
90.1955
  0
LINE
  8
0
 10
121.268
 20
90.1955
 11
121.105
 21
90.6605
  0
LINE
  8
0
 10
121.105
 20
90.6605
 11
121.05
 21
91.15
  0
LINE
  8
0
 10
276.862
 20
89.35
 11
276.917
 21
89.8395
  0
LINE
  8
0
 10
276.917
 20
89.8395
 11
277.079
 21
90.3045
  0
LINE
  8
0
 10
277.079
 20
90.3045
 11
277.342
 21
90.7217
  0
LINE
  8
0
 10
277.342
 20
90.7217
 11
277.69
 21
91.07
  0
LINE
  8
0
 10
277.69
 20
91.07
 11
278.107
 21
91.3321
  0
LINE
  8
0
 10
278.107
 20
91.3321
 11
278.572
 21
91.4948
  0
LINE
  8
0
 10
278.572
 20
91.4948
 11
279.062
 21
91.55
  0
LINE
  8
0
 10
279.062
 20
91.55
 11
279.551
 21
91.4948
  0
LINE
  8
0
 10
279.551
 20
91.4948
 11
280.016
 21
91.3321
  0
LINE
  8
0
 10
280.016
 20
91.3321
 11
280.433
 21
91.07
  0
LINE
  8
0
 10
280.433
 20
91.07
 11
280.782
 21
90.7217
  0
LINE
  8
0
 10
280.782
 20
90.7217
 11
281.044
 21
90.3045
  0
LINE
  8
0
 10
281.044
 20
90.3045
 11
281.206
 21
89.8395
  0
LINE
  8
0
 10
281.206
 20
89.8395
 11
281.262
 21
89.35
  0
LINE
  8
0
 10
281.262
 20
89.35
 11
281.206
 21
88.8605
  0
LINE
  8
0
 10
281.206
 20
88.8605
 11
281.044
 21
88.3955
  0
LINE
  8
0
 10
281.044
 20
88.3955
 11
280.782
 21
87.9783
  0
LINE
  8
0
 10
280.782
 20
87.9783
 11
280.433
 21
87.63
  0
LINE
  8
0
 10
280.433
 20
87.63
 11
280.016
 21
87.3679
  0
LINE
  8
0
 10
280.016
 20
87.3679
 11
279.551
 21
87.2052
  0
LINE
  8
0
 10
279.551
 20
87.2052
 11
279.062
 21
87.15
  0
LINE
  8
0
 10
279.062
 20
87.15
 11
278.572
 21
87.2052
  0
LINE
  8
0
 10
278.572
 20
87.2052
 11
278.107
 21
87.3679
  0
LINE
  8
0
 10
278.107
 20
87.3679
 11
277.69
 21
87.63
  0
LINE
  8
0
 10
277.69
 20
87.63
 11
277.342
 21
87.9783
  0
LINE
  8
0
 10
277.342
 20
87.9783
 11
277.079
 21
88.3955
  0
LINE
  8
0
 10
277.079
 20
88.3955
 11
276.917
 21
88.8605
  0
LINE
  8
0
 10
276.917
 20
88.8605
 11
276.862
 21
89.35
  0
LINE
  8
0
 10
345.48
 20
7.2
 11
345.535
 21
7.68955
  0
LINE
  8
0
 10
345.535
 20
7.68955
 11
345.698
 21
8.15454
  0
LINE
  8
0
 10
345.698
 20
8.15454
 11
345.96
 21
8.57168
  0
LINE
  8
0
 10
345.96
 20
8.57168
 11
346.308
 21
8.92003
  0
LINE
  8
0
 10
346.308
 20
8.92003
 11
346.725
 21
9.18213
  0
LINE
  8
0
 10
346.725
 20
9.18213
 11
347.19
 21
9.34484
  0
LINE
  8
0
 10
347.19
 20
9.34484
 11
347.68
 21
9.4
  0
LINE
  8
0
 10
347.68
 20
9.4
 11
348.17
 21
9.34484
  0
LINE
  8
0
 10
348.17
 20
9.34484
 11
348.635
 21
9.18213
  0
LINE
  8
0
 10
348.635
 20
9.18213
 11
349.052
 21
8.92003
  0
LINE
  8
0
 10
349.052
 20
8.92003
 11
349.4
 21
8.57168
  0
LINE
  8
0
 10
349.4
 20
8.57168
 11
349.662
 21
8.15454
  0
LINE
  8
0
 10
349.662
 20
8.15454
 11
349.825
 21
7.68955
  0
LINE
  8
0
 10
349.825
 20
7.68955
 11
349.88
 21
7.2
  0
LINE
  8
0
 10
349.88
 20
7.2
 11
349.825
 21
6.71045
  0
LINE
  8
0
 10
349.825
 20
6.71045
 11
349.662
 21
6.24546
  0
LINE
  8
0
 10
349.662
 20
6.24546
 11
349.4
 21
5.82832
  0
LINE
  8
0
 10
349.4
 20
5.82832
 11
349.052
 21
5.47997
  0
LINE
  8
0
 10
349.052
 20
5.47997
 11
348.635
 21
5.21787
  0
LINE
  8
0
 10
348.635
 20
5.21787
 11
348.17
 21
5.05516
  0
LINE
  8
0
 10
348.17
 20
5.05516
 11
347.917
 21
5.02675
  0
LINE
  8
0
 10
347.917
 20
5.02675
 11
347.68
 21
5
  0
LINE
  8
0
 10
347.68
 20
5
 11
347.443
 21
5.02675
  0
LINE
  8
0
 10
347.443
 20
5.02675
 11
347.19
 21
5.05516
  0
LINE
  8
0
 10
347.19
 20
5.05516
 11
346.725
 21
5.21787
  0
LINE
  8
0
 10
346.725
 20
5.21787
 11
346.308
 21
5.47997
  0
LINE
  8
0
 10
346.308
 20
5.47997
 11
345.96
 21
5.82832
  0
LINE
  8
0
 10
345.96
 20
5.82832
 11
345.698
 21
6.24546
  0
LINE
  8
0
 10
345.698
 20
6.24546
 11
345.535
 21
6.71045
  0
LINE
  8
0
 10
345.535
 20
6.71045
 11
345.48
 21
7.2
  0
LINE
  8
0
 10
366.7
 20
7.2
 11
366.755
 21
7.68955
  0
LINE
  8
0
 10
366.755
 20
7.68955
 11
366.918
 21
8.15454
  0
LINE
  8
0
 10
366.918
 20
8.15454
 11
367.18
 21
8.57168
  0
LINE
  8
0
 10
367.18
 20
8.57168
 11
367.528
 21
8.92003
  0
LINE
  8
0
 10
367.528
 20
8.92003
 11
367.945
 21
9.18213
  0
LINE
  8
0
 10
367.945
 20
9.18213
 11
368.41
 21
9.34484
  0
LINE
  8
0
 10
368.41
 20
9.34484
 11
368.9
 21
9.4
  0
LINE
  8
0
 10
368.9
 20
9.4
 11
369.39
 21
9.34484
  0
LINE
  8
0
 10
369.39
 20
9.34484
 11
369.855
 21
9.18213
  0
LINE
  8
0
 10
369.855
 20
9.18213
 11
370.272
 21
8.92003
  0
LINE
  8
0
 10
370.272
 20
8.92003
 11
370.62
 21
8.57168
  0
LINE
  8
0
 10
370.62
 20
8.57168
 11
370.882
 21
8.15454
  0
LINE
  8
0
 10
370.882
 20
8.15454
 11
371.045
 21
7.68955
  0
LINE
  8
0
 10
371.045
 20
7.68955
 11
371.1
 21
7.2
  0
LINE
  8
0
 10
371.1
 20
7.2
 11
371.045
 21
6.71045
  0
LINE
  8
0
 10
371.045
 20
6.71045
 11
370.882
 21
6.24546
  0
LINE
  8
0
 10
370.882
 20
6.24546
 11
370.62
 21
5.82832
  0
LINE
  8
0
 10
370.62
 20
5.82832
 11
370.272
 21
5.47997
  0
LINE
  8
0
 10
370.272
 20
5.47997
 11
369.855
 21
5.21787
  0
LINE
  8
0
 10
369.855
 20
5.21787
 11
369.39
 21
5.05516
  0
LINE
  8
0
 10
369.39
 20
5.05516
 11
369.137
 21
5.02675
  0
LINE
  8
0
 10
369.137
 20
5.02675
 11
368.9
 21
5
  0
LINE
  8
0
 10
368.9
 20
5
 11
368.663
 21
5.02675
  0
LINE
  8
0
 10
368.663
 20
5.02675
 11
368.41
 21
5.05516
  0
LINE
  8
0
 10
368.41
 20
5.05516
 11
367.945
 21
5.21787
  0
LINE
  8
0
 10
367.945
 20
5.21787
 11
367.528
 21
5.47997
  0
LINE
  8
0
 10
367.528
 20
5.47997
 11
367.18
 21
5.82832
  0
LINE
  8
0
 10
367.18
 20
5.82832
 11
366.918
 21
6.24546
  0
LINE
  8
0
 10
366.918
 20
6.24546
 11
366.755
 21
6.71045
  0
LINE
  8
0
 10
366.755
 20
6.71045
 11
366.7
 21
7.2
  0
ENDSEC
  0
SECTION
  2
OBJECTS
  0
DICTIONARY
  0
ENDSEC
  0
EOF
