  0
SECTION
  2
BLOCKS
  0
ENDSEC
  0
SECTION
  2
ENTITIES
  0
LINE
  8
0
 10
-3.95795e-14
 20
0
 11
401
 21
0
  0
LINE
  8
0
 10
401
 20
0
 11
401
 21
141.5
  0
LINE
  8
0
 10
401
 20
141.5
 11
400.943
 21
142.807
  0
LINE
  8
0
 10
400.943
 20
142.807
 11
400.772
 21
144.105
  0
LINE
  8
0
 10
400.772
 20
144.105
 11
400.489
 21
145.382
  0
LINE
  8
0
 10
400.489
 20
145.382
 11
400.095
 21
146.63
  0
LINE
  8
0
 10
400.095
 20
146.63
 11
399.595
 21
147.839
  0
LINE
  8
0
 10
399.595
 20
147.839
 11
398.99
 21
149
  0
LINE
  8
0
 10
398.99
 20
149
 11
398.287
 21
150.104
  0
LINE
  8
0
 10
398.287
 20
150.104
 11
397.491
 21
151.142
  0
LINE
  8
0
 10
397.491
 20
151.142
 11
396.607
 21
152.107
  0
LINE
  8
0
 10
396.607
 20
152.107
 11
395.642
 21
152.991
  0
LINE
  8
0
 10
395.642
 20
152.991
 11
394.604
 21
153.787
  0
LINE
  8
0
 10
394.604
 20
153.787
 11
393.5
 21
154.49
  0
LINE
  8
0
 10
393.5
 20
154.49
 11
392.339
 21
155.095
  0
LINE
  8
0
 10
392.339
 20
155.095
 11
391.13
 21
155.595
  0
LINE
  8
0
 10
391.13
 20
155.595
 11
389.882
 21
155.989
  0
LINE
  8
0
 10
389.882
 20
155.989
 11
388.605
 21
156.272
  0
LINE
  8
0
 10
388.605
 20
156.272
 11
387.307
 21
156.443
  0
LINE
  8
0
 10
387.307
 20
156.443
 11
386
 21
156.5
  0
LINE
  8
0
 10
386
 20
156.5
 11
-3.95795e-14
 21
156.5
  0
LINE
  8
0
 10
-3.95795e-14
 20
156.5
 11
-3.95795e-14
 21
0
  0
LINE
  8
0
 10
7.20729
 20
126.101
 11
7.37702
 21
126.548
  0
LINE
  8
0
 10
7.37702
 20
126.548
 11
7.73528
 21
126.865
  0
LINE
  8
0
 10
7.73528
 20
126.865
 11
8.2
 21
126.98
  0
LINE
  8
0
 10
8.2
 20
126.98
 11
8.66472
 21
126.865
  0
LINE
  8
0
 10
8.66472
 20
126.865
 11
9.02298
 21
126.548
  0
LINE
  8
0
 10
9.02298
 20
126.548
 11
9.19271
 21
126.101
  0
LINE
  8
0
 10
9.19271
 20
126.101
 11
9.13502
 21
125.625
  0
LINE
  8
0
 10
9.13502
 20
125.625
 11
8.86312
 21
125.231
  0
LINE
  8
0
 10
8.86312
 20
125.231
 11
8.43931
 21
125.009
  0
LINE
  8
0
 10
8.43931
 20
125.009
 11
7.96068
 21
125.009
  0
LINE
  8
0
 10
7.96068
 20
125.009
 11
7.53688
 21
125.231
  0
LINE
  8
0
 10
7.53688
 20
125.231
 11
7.26498
 21
125.625
  0
LINE
  8
0
 10
7.26498
 20
125.625
 11
7.20729
 21
126.101
  0
LINE
  8
0
 10
7.20729
 20
146.921
 11
7.37702
 21
147.368
  0
LINE
  8
0
 10
7.37702
 20
147.368
 11
7.73528
 21
147.685
  0
LINE
  8
0
 10
7.73528
 20
147.685
 11
8.2
 21
147.8
  0
LINE
  8
0
 10
8.2
 20
147.8
 11
8.66472
 21
147.685
  0
LINE
  8
0
 10
8.66472
 20
147.685
 11
9.02298
 21
147.368
  0
LINE
  8
0
 10
9.02298
 20
147.368
 11
9.19271
 21
146.921
  0
LINE
  8
0
 10
9.19271
 20
146.921
 11
9.13502
 21
146.445
  0
LINE
  8
0
 10
9.13502
 20
146.445
 11
8.86312
 21
146.051
  0
LINE
  8
0
 10
8.86312
 20
146.051
 11
8.43931
 21
145.829
  0
LINE
  8
0
 10
8.43931
 20
145.829
 11
7.96068
 21
145.829
  0
LINE
  8
0
 10
7.96068
 20
145.829
 11
7.53688
 21
146.051
  0
LINE
  8
0
 10
7.53688
 20
146.051
 11
7.26498
 21
146.445
  0
LINE
  8
0
 10
7.26498
 20
146.445
 11
7.20729
 21
146.921
  0
LINE
  8
0
 10
25.1
 20
8.2
 11
25.2145
 21
8.66472
  0
LINE
  8
0
 10
25.2145
 20
8.66472
 11
25.5319
 21
9.02298
  0
LINE
  8
0
 10
25.5319
 20
9.02298
 11
25.9795
 21
9.19271
  0
LINE
  8
0
 10
25.9795
 20
9.19271
 11
26.4546
 21
9.13502
  0
LINE
  8
0
 10
26.4546
 20
9.13502
 11
26.8485
 21
8.86312
  0
LINE
  8
0
 10
26.8485
 20
8.86312
 11
27.0709
 21
8.43931
  0
LINE
  8
0
 10
27.0709
 20
8.43931
 11
27.0709
 21
7.96068
  0
LINE
  8
0
 10
27.0709
 20
7.96068
 11
26.8485
 21
7.53688
  0
LINE
  8
0
 10
26.8485
 20
7.53688
 11
26.4546
 21
7.26498
  0
LINE
  8
0
 10
26.4546
 20
7.26498
 11
25.9795
 21
7.20729
  0
LINE
  8
0
 10
25.9795
 20
7.20729
 11
25.5319
 21
7.37702
  0
LINE
  8
0
 10
25.5319
 20
7.37702
 11
25.2145
 21
7.73528
  0
LINE
  8
0
 10
25.2145
 20
7.73528
 11
25.1
 21
8.2
  0
LINE
  8
0
 10
45.92
 20
8.2
 11
46.0345
 21
8.66472
  0
LINE
  8
0
 10
46.0345
 20
8.66472
 11
46.3519
 21
9.02298
  0
LINE
  8
0
 10
46.3519
 20
9.02298
 11
46.7995
 21
9.19271
  0
LINE
  8
0
 10
46.7995
 20
9.19271
 11
47.2746
 21
9.13502
  0
LINE
  8
0
 10
47.2746
 20
9.13502
 11
47.6685
 21
8.86312
  0
LINE
  8
0
 10
47.6685
 20
8.86312
 11
47.8909
 21
8.43931
  0
LINE
  8
0
 10
47.8909
 20
8.43931
 11
47.8909
 21
7.96068
  0
LINE
  8
0
 10
47.8909
 20
7.96068
 11
47.6685
 21
7.53688
  0
LINE
  8
0
 10
47.6685
 20
7.53688
 11
47.2746
 21
7.26498
  0
LINE
  8
0
 10
47.2746
 20
7.26498
 11
46.7995
 21
7.20729
  0
LINE
  8
0
 10
46.7995
 20
7.20729
 11
46.3519
 21
7.37702
  0
LINE
  8
0
 10
46.3519
 20
7.37702
 11
46.0345
 21
7.73528
  0
LINE
  8
0
 10
46.0345
 20
7.73528
 11
45.92
 21
8.2
  0
LINE
  8
0
 10
53.05
 20
22.65
 11
53.1052
 21
23.1395
  0
LINE
  8
0
 10
53.1052
 20
23.1395
 11
53.2679
 21
23.6045
  0
LINE
  8
0
 10
53.2679
 20
23.6045
 11
53.53
 21
24.0217
  0
LINE
  8
0
 10
53.53
 20
24.0217
 11
53.8783
 21
24.37
  0
LINE
  8
0
 10
53.8783
 20
24.37
 11
54.2955
 21
24.6321
  0
LINE
  8
0
 10
54.2955
 20
24.6321
 11
54.7605
 21
24.7948
  0
LINE
  8
0
 10
54.7605
 20
24.7948
 11
55.25
 21
24.85
  0
LINE
  8
0
 10
55.25
 20
24.85
 11
55.7395
 21
24.7948
  0
LINE
  8
0
 10
55.7395
 20
24.7948
 11
56.2045
 21
24.6321
  0
LINE
  8
0
 10
56.2045
 20
24.6321
 11
56.6217
 21
24.37
  0
LINE
  8
0
 10
56.6217
 20
24.37
 11
56.97
 21
24.0217
  0
LINE
  8
0
 10
56.97
 20
24.0217
 11
57.2321
 21
23.6045
  0
LINE
  8
0
 10
57.2321
 20
23.6045
 11
57.3948
 21
23.1395
  0
LINE
  8
0
 10
57.3948
 20
23.1395
 11
57.45
 21
22.65
  0
LINE
  8
0
 10
57.45
 20
22.65
 11
57.3948
 21
22.1605
  0
LINE
  8
0
 10
57.3948
 20
22.1605
 11
57.2321
 21
21.6955
  0
LINE
  8
0
 10
57.2321
 20
21.6955
 11
56.97
 21
21.2783
  0
LINE
  8
0
 10
56.97
 20
21.2783
 11
56.6217
 21
20.93
  0
LINE
  8
0
 10
56.6217
 20
20.93
 11
56.2045
 21
20.6679
  0
LINE
  8
0
 10
56.2045
 20
20.6679
 11
55.7395
 21
20.5052
  0
LINE
  8
0
 10
55.7395
 20
20.5052
 11
55.25
 21
20.45
  0
LINE
  8
0
 10
55.25
 20
20.45
 11
54.7605
 21
20.5052
  0
LINE
  8
0
 10
54.7605
 20
20.5052
 11
54.2955
 21
20.6679
  0
LINE
  8
0
 10
54.2955
 20
20.6679
 11
53.8783
 21
20.93
  0
LINE
  8
0
 10
53.8783
 20
20.93
 11
53.53
 21
21.2783
  0
LINE
  8
0
 10
53.53
 20
21.2783
 11
53.2679
 21
21.6955
  0
LINE
  8
0
 10
53.2679
 20
21.6955
 11
53.1052
 21
22.1605
  0
LINE
  8
0
 10
53.1052
 20
22.1605
 11
53.05
 21
22.65
  0
LINE
  8
0
 10
53.05
 20
94.15
 11
53.1052
 21
94.6395
  0
LINE
  8
0
 10
53.1052
 20
94.6395
 11
53.2679
 21
95.1045
  0
LINE
  8
0
 10
53.2679
 20
95.1045
 11
53.53
 21
95.5217
  0
LINE
  8
0
 10
53.53
 20
95.5217
 11
53.8783
 21
95.87
  0
LINE
  8
0
 10
53.8783
 20
95.87
 11
54.2955
 21
96.1321
  0
LINE
  8
0
 10
54.2955
 20
96.1321
 11
54.7605
 21
96.2948
  0
LINE
  8
0
 10
54.7605
 20
96.2948
 11
55.25
 21
96.35
  0
LINE
  8
0
 10
55.25
 20
96.35
 11
55.7395
 21
96.2948
  0
LINE
  8
0
 10
55.7395
 20
96.2948
 11
56.2045
 21
96.1321
  0
LINE
  8
0
 10
56.2045
 20
96.1321
 11
56.6217
 21
95.87
  0
LINE
  8
0
 10
56.6217
 20
95.87
 11
56.97
 21
95.5217
  0
LINE
  8
0
 10
56.97
 20
95.5217
 11
57.2321
 21
95.1045
  0
LINE
  8
0
 10
57.2321
 20
95.1045
 11
57.3948
 21
94.6395
  0
LINE
  8
0
 10
57.3948
 20
94.6395
 11
57.45
 21
94.15
  0
LINE
  8
0
 10
57.45
 20
94.15
 11
57.3948
 21
93.6605
  0
LINE
  8
0
 10
57.3948
 20
93.6605
 11
57.2321
 21
93.1955
  0
LINE
  8
0
 10
57.2321
 20
93.1955
 11
56.97
 21
92.7783
  0
LINE
  8
0
 10
56.97
 20
92.7783
 11
56.6217
 21
92.43
  0
LINE
  8
0
 10
56.6217
 20
92.43
 11
56.2045
 21
92.1679
  0
LINE
  8
0
 10
56.2045
 20
92.1679
 11
55.7395
 21
92.0052
  0
LINE
  8
0
 10
55.7395
 20
92.0052
 11
55.25
 21
91.95
  0
LINE
  8
0
 10
55.25
 20
91.95
 11
54.7605
 21
92.0052
  0
LINE
  8
0
 10
54.7605
 20
92.0052
 11
54.2955
 21
92.1679
  0
LINE
  8
0
 10
54.2955
 20
92.1679
 11
53.8783
 21
92.43
  0
LINE
  8
0
 10
53.8783
 20
92.43
 11
53.53
 21
92.7783
  0
LINE
  8
0
 10
53.53
 20
92.7783
 11
53.2679
 21
93.1955
  0
LINE
  8
0
 10
53.2679
 20
93.1955
 11
53.1052
 21
93.6605
  0
LINE
  8
0
 10
53.1052
 20
93.6605
 11
53.05
 21
94.15
  0
LINE
  8
0
 10
53.5
 20
58.4
 11
53.6427
 21
61.6683
  0
LINE
  8
0
 10
53.6427
 20
61.6683
 11
54.0697
 21
64.9118
  0
LINE
  8
0
 10
54.0697
 20
64.9118
 11
54.7778
 21
68.1057
  0
LINE
  8
0
 10
54.7778
 20
68.1057
 11
55.7615
 21
71.2258
  0
LINE
  8
0
 10
55.7615
 20
71.2258
 11
57.0135
 21
74.2482
  0
LINE
  8
0
 10
57.0135
 20
74.2482
 11
58.524
 21
77.15
  0
LINE
  8
0
 10
58.524
 20
77.15
 11
60.2818
 21
79.9091
  0
LINE
  8
0
 10
60.2818
 20
79.9091
 11
62.2733
 21
82.5045
  0
LINE
  8
0
 10
62.2733
 20
82.5045
 11
64.4835
 21
84.9165
  0
LINE
  8
0
 10
64.4835
 20
84.9165
 11
66.8955
 21
87.1267
  0
LINE
  8
0
 10
66.8955
 20
87.1267
 11
69.4909
 21
89.1182
  0
LINE
  8
0
 10
69.4909
 20
89.1182
 11
72.25
 21
90.876
  0
LINE
  8
0
 10
72.25
 20
90.876
 11
75.1518
 21
92.3865
  0
LINE
  8
0
 10
75.1518
 20
92.3865
 11
78.1742
 21
93.6385
  0
LINE
  8
0
 10
78.1742
 20
93.6385
 11
81.2943
 21
94.6222
  0
LINE
  8
0
 10
81.2943
 20
94.6222
 11
84.4882
 21
95.3303
  0
LINE
  8
0
 10
84.4882
 20
95.3303
 11
87.7317
 21
95.7573
  0
LINE
  8
0
 10
87.7317
 20
95.7573
 11
91
 21
95.9
  0
LINE
  8
0
 10
91
 20
95.9
 11
94.2683
 21
95.7573
  0
LINE
  8
0
 10
94.2683
 20
95.7573
 11
97.5118
 21
95.3303
  0
LINE
  8
0
 10
97.5118
 20
95.3303
 11
100.706
 21
94.6222
  0
LINE
  8
0
 10
100.706
 20
94.6222
 11
103.826
 21
93.6385
  0
LINE
  8
0
 10
103.826
 20
93.6385
 11
106.848
 21
92.3865
  0
LINE
  8
0
 10
106.848
 20
92.3865
 11
109.75
 21
90.876
  0
LINE
  8
0
 10
109.75
 20
90.876
 11
112.509
 21
89.1182
  0
LINE
  8
0
 10
112.509
 20
89.1182
 11
115.105
 21
87.1267
  0
LINE
  8
0
 10
115.105
 20
87.1267
 11
117.517
 21
84.9165
  0
LINE
  8
0
 10
117.517
 20
84.9165
 11
119.727
 21
82.5045
  0
LINE
  8
0
 10
119.727
 20
82.5045
 11
121.718
 21
79.9091
  0
LINE
  8
0
 10
121.718
 20
79.9091
 11
123.476
 21
77.15
  0
LINE
  8
0
 10
123.476
 20
77.15
 11
124.987
 21
74.2482
  0
LINE
  8
0
 10
124.987
 20
74.2482
 11
126.238
 21
71.2258
  0
LINE
  8
0
 10
126.238
 20
71.2258
 11
127.222
 21
68.1057
  0
LINE
  8
0
 10
127.222
 20
68.1057
 11
127.93
 21
64.9118
  0
LINE
  8
0
 10
127.93
 20
64.9118
 11
128.357
 21
61.6683
  0
LINE
  8
0
 10
128.357
 20
61.6683
 11
128.5
 21
58.4
  0
LINE
  8
0
 10
128.5
 20
58.4
 11
128.357
 21
55.1317
  0
LINE
  8
0
 10
128.357
 20
55.1317
 11
127.93
 21
51.8882
  0
LINE
  8
0
 10
127.93
 20
51.8882
 11
127.222
 21
48.6943
  0
LINE
  8
0
 10
127.222
 20
48.6943
 11
126.238
 21
45.5742
  0
LINE
  8
0
 10
126.238
 20
45.5742
 11
124.987
 21
42.5518
  0
LINE
  8
0
 10
124.987
 20
42.5518
 11
123.476
 21
39.65
  0
LINE
  8
0
 10
123.476
 20
39.65
 11
121.718
 21
36.8909
  0
LINE
  8
0
 10
121.718
 20
36.8909
 11
119.727
 21
34.2955
  0
LINE
  8
0
 10
119.727
 20
34.2955
 11
117.517
 21
31.8835
  0
LINE
  8
0
 10
117.517
 20
31.8835
 11
115.105
 21
29.6733
  0
LINE
  8
0
 10
115.105
 20
29.6733
 11
112.509
 21
27.6818
  0
LINE
  8
0
 10
112.509
 20
27.6818
 11
109.75
 21
25.924
  0
LINE
  8
0
 10
109.75
 20
25.924
 11
106.848
 21
24.4135
  0
LINE
  8
0
 10
106.848
 20
24.4135
 11
103.826
 21
23.1615
  0
LINE
  8
0
 10
103.826
 20
23.1615
 11
100.706
 21
22.1778
  0
LINE
  8
0
 10
100.706
 20
22.1778
 11
97.5118
 21
21.4697
  0
LINE
  8
0
 10
97.5118
 20
21.4697
 11
94.2683
 21
21.0427
  0
LINE
  8
0
 10
94.2683
 20
21.0427
 11
91
 21
20.9
  0
LINE
  8
0
 10
91
 20
20.9
 11
87.7317
 21
21.0427
  0
LINE
  8
0
 10
87.7317
 20
21.0427
 11
84.4882
 21
21.4697
  0
LINE
  8
0
 10
84.4882
 20
21.4697
 11
81.2943
 21
22.1778
  0
LINE
  8
0
 10
81.2943
 20
22.1778
 11
78.1742
 21
23.1615
  0
LINE
  8
0
 10
78.1742
 20
23.1615
 11
75.1518
 21
24.4135
  0
LINE
  8
0
 10
75.1518
 20
24.4135
 11
72.25
 21
25.924
  0
LINE
  8
0
 10
72.25
 20
25.924
 11
69.4909
 21
27.6818
  0
LINE
  8
0
 10
69.4909
 20
27.6818
 11
66.8955
 21
29.6733
  0
LINE
  8
0
 10
66.8955
 20
29.6733
 11
64.4835
 21
31.8835
  0
LINE
  8
0
 10
64.4835
 20
31.8835
 11
62.2733
 21
34.2955
  0
LINE
  8
0
 10
62.2733
 20
34.2955
 11
60.2818
 21
36.8909
  0
LINE
  8
0
 10
60.2818
 20
36.8909
 11
58.524
 21
39.65
  0
LINE
  8
0
 10
58.524
 20
39.65
 11
57.0135
 21
42.5518
  0
LINE
  8
0
 10
57.0135
 20
42.5518
 11
55.7615
 21
45.5742
  0
LINE
  8
0
 10
55.7615
 20
45.5742
 11
54.7778
 21
48.6943
  0
LINE
  8
0
 10
54.7778
 20
48.6943
 11
54.0697
 21
51.8882
  0
LINE
  8
0
 10
54.0697
 20
51.8882
 11
53.6427
 21
55.1317
  0
LINE
  8
0
 10
53.6427
 20
55.1317
 11
53.5
 21
58.4
  0
LINE
  8
0
 10
124.55
 20
22.65
 11
124.605
 21
23.1395
  0
LINE
  8
0
 10
124.605
 20
23.1395
 11
124.768
 21
23.6045
  0
LINE
  8
0
 10
124.768
 20
23.6045
 11
125.03
 21
24.0217
  0
LINE
  8
0
 10
125.03
 20
24.0217
 11
125.378
 21
24.37
  0
LINE
  8
0
 10
125.378
 20
24.37
 11
125.795
 21
24.6321
  0
LINE
  8
0
 10
125.795
 20
24.6321
 11
126.26
 21
24.7948
  0
LINE
  8
0
 10
126.26
 20
24.7948
 11
126.75
 21
24.85
  0
LINE
  8
0
 10
126.75
 20
24.85
 11
127.24
 21
24.7948
  0
LINE
  8
0
 10
127.24
 20
24.7948
 11
127.705
 21
24.6321
  0
LINE
  8
0
 10
127.705
 20
24.6321
 11
128.122
 21
24.37
  0
LINE
  8
0
 10
128.122
 20
24.37
 11
128.47
 21
24.0217
  0
LINE
  8
0
 10
128.47
 20
24.0217
 11
128.732
 21
23.6045
  0
LINE
  8
0
 10
128.732
 20
23.6045
 11
128.895
 21
23.1395
  0
LINE
  8
0
 10
128.895
 20
23.1395
 11
128.95
 21
22.65
  0
LINE
  8
0
 10
128.95
 20
22.65
 11
128.895
 21
22.1605
  0
LINE
  8
0
 10
128.895
 20
22.1605
 11
128.732
 21
21.6955
  0
LINE
  8
0
 10
128.732
 20
21.6955
 11
128.47
 21
21.2783
  0
LINE
  8
0
 10
128.47
 20
21.2783
 11
128.122
 21
20.93
  0
LINE
  8
0
 10
128.122
 20
20.93
 11
127.705
 21
20.6679
  0
LINE
  8
0
 10
127.705
 20
20.6679
 11
127.24
 21
20.5052
  0
LINE
  8
0
 10
127.24
 20
20.5052
 11
126.75
 21
20.45
  0
LINE
  8
0
 10
126.75
 20
20.45
 11
126.26
 21
20.5052
  0
LINE
  8
0
 10
126.26
 20
20.5052
 11
125.795
 21
20.6679
  0
LINE
  8
0
 10
125.795
 20
20.6679
 11
125.378
 21
20.93
  0
LINE
  8
0
 10
125.378
 20
20.93
 11
125.03
 21
21.2783
  0
LINE
  8
0
 10
125.03
 20
21.2783
 11
124.768
 21
21.6955
  0
LINE
  8
0
 10
124.768
 20
21.6955
 11
124.605
 21
22.1605
  0
LINE
  8
0
 10
124.605
 20
22.1605
 11
124.55
 21
22.65
  0
LINE
  8
0
 10
124.55
 20
94.15
 11
124.605
 21
94.6395
  0
LINE
  8
0
 10
124.605
 20
94.6395
 11
124.768
 21
95.1045
  0
LINE
  8
0
 10
124.768
 20
95.1045
 11
125.03
 21
95.5217
  0
LINE
  8
0
 10
125.03
 20
95.5217
 11
125.378
 21
95.87
  0
LINE
  8
0
 10
125.378
 20
95.87
 11
125.795
 21
96.1321
  0
LINE
  8
0
 10
125.795
 20
96.1321
 11
126.26
 21
96.2948
  0
LINE
  8
0
 10
126.26
 20
96.2948
 11
126.75
 21
96.35
  0
LINE
  8
0
 10
126.75
 20
96.35
 11
127.24
 21
96.2948
  0
LINE
  8
0
 10
127.24
 20
96.2948
 11
127.705
 21
96.1321
  0
LINE
  8
0
 10
127.705
 20
96.1321
 11
128.122
 21
95.87
  0
LINE
  8
0
 10
128.122
 20
95.87
 11
128.47
 21
95.5217
  0
LINE
  8
0
 10
128.47
 20
95.5217
 11
128.732
 21
95.1045
  0
LINE
  8
0
 10
128.732
 20
95.1045
 11
128.895
 21
94.6395
  0
LINE
  8
0
 10
128.895
 20
94.6395
 11
128.95
 21
94.15
  0
LINE
  8
0
 10
128.95
 20
94.15
 11
128.895
 21
93.6605
  0
LINE
  8
0
 10
128.895
 20
93.6605
 11
128.732
 21
93.1955
  0
LINE
  8
0
 10
128.732
 20
93.1955
 11
128.47
 21
92.7783
  0
LINE
  8
0
 10
128.47
 20
92.7783
 11
128.122
 21
92.43
  0
LINE
  8
0
 10
128.122
 20
92.43
 11
127.705
 21
92.1679
  0
LINE
  8
0
 10
127.705
 20
92.1679
 11
127.24
 21
92.0052
  0
LINE
  8
0
 10
127.24
 20
92.0052
 11
126.75
 21
91.95
  0
LINE
  8
0
 10
126.75
 20
91.95
 11
126.26
 21
92.0052
  0
LINE
  8
0
 10
126.26
 20
92.0052
 11
125.795
 21
92.1679
  0
LINE
  8
0
 10
125.795
 20
92.1679
 11
125.378
 21
92.43
  0
LINE
  8
0
 10
125.378
 20
92.43
 11
125.03
 21
92.7783
  0
LINE
  8
0
 10
125.03
 20
92.7783
 11
124.768
 21
93.1955
  0
LINE
  8
0
 10
124.768
 20
93.1955
 11
124.605
 21
93.6605
  0
LINE
  8
0
 10
124.605
 20
93.6605
 11
124.55
 21
94.15
  0
LINE
  8
0
 10
283.512
 20
88.9
 11
283.626
 21
89.3647
  0
LINE
  8
0
 10
283.626
 20
89.3647
 11
283.944
 21
89.723
  0
LINE
  8
0
 10
283.944
 20
89.723
 11
284.391
 21
89.8927
  0
LINE
  8
0
 10
284.391
 20
89.8927
 11
284.866
 21
89.835
  0
LINE
  8
0
 10
284.866
 20
89.835
 11
285.26
 21
89.5631
  0
LINE
  8
0
 10
285.26
 20
89.5631
 11
285.483
 21
89.1393
  0
LINE
  8
0
 10
285.483
 20
89.1393
 11
285.483
 21
88.6607
  0
LINE
  8
0
 10
285.483
 20
88.6607
 11
285.26
 21
88.2369
  0
LINE
  8
0
 10
285.26
 20
88.2369
 11
284.866
 21
87.965
  0
LINE
  8
0
 10
284.866
 20
87.965
 11
284.391
 21
87.9073
  0
LINE
  8
0
 10
284.391
 20
87.9073
 11
283.944
 21
88.077
  0
LINE
  8
0
 10
283.944
 20
88.077
 11
283.626
 21
88.4353
  0
LINE
  8
0
 10
283.626
 20
88.4353
 11
283.512
 21
88.9
  0
LINE
  8
0
 10
326.48
 20
8
 11
326.521
 21
8.49378
  0
LINE
  8
0
 10
326.521
 20
8.49378
 11
326.643
 21
8.9741
  0
LINE
  8
0
 10
326.643
 20
8.9741
 11
326.842
 21
9.42784
  0
LINE
  8
0
 10
326.842
 20
9.42784
 11
327.113
 21
9.84264
  0
LINE
  8
0
 10
327.113
 20
9.84264
 11
327.448
 21
10.2072
  0
LINE
  8
0
 10
327.448
 20
10.2072
 11
327.839
 21
10.5115
  0
LINE
  8
0
 10
327.839
 20
10.5115
 11
328.275
 21
10.7473
  0
LINE
  8
0
 10
328.275
 20
10.7473
 11
328.744
 21
10.9082
  0
LINE
  8
0
 10
328.744
 20
10.9082
 11
329.232
 21
10.9898
  0
LINE
  8
0
 10
329.232
 20
10.9898
 11
329.728
 21
10.9898
  0
LINE
  8
0
 10
329.728
 20
10.9898
 11
330.216
 21
10.9082
  0
LINE
  8
0
 10
330.216
 20
10.9082
 11
330.685
 21
10.7473
  0
LINE
  8
0
 10
330.685
 20
10.7473
 11
331.121
 21
10.5115
  0
LINE
  8
0
 10
331.121
 20
10.5115
 11
331.512
 21
10.2072
  0
LINE
  8
0
 10
331.512
 20
10.2072
 11
331.847
 21
9.84264
  0
LINE
  8
0
 10
331.847
 20
9.84264
 11
332.118
 21
9.42784
  0
LINE
  8
0
 10
332.118
 20
9.42784
 11
332.317
 21
8.9741
  0
LINE
  8
0
 10
332.317
 20
8.9741
 11
332.439
 21
8.49378
  0
LINE
  8
0
 10
332.439
 20
8.49378
 11
332.48
 21
8
  0
LINE
  8
0
 10
332.48
 20
8
 11
332.439
 21
7.50622
  0
LINE
  8
0
 10
332.439
 20
7.50622
 11
332.317
 21
7.0259
  0
LINE
  8
0
 10
332.317
 20
7.0259
 11
332.118
 21
6.57216
  0
LINE
  8
0
 10
332.118
 20
6.57216
 11
331.847
 21
6.15736
  0
LINE
  8
0
 10
331.847
 20
6.15736
 11
331.512
 21
5.79283
  0
LINE
  8
0
 10
331.512
 20
5.79283
 11
331.121
 21
5.4885
  0
LINE
  8
0
 10
331.121
 20
5.4885
 11
330.685
 21
5.25268
  0
LINE
  8
0
 10
330.685
 20
5.25268
 11
330.216
 21
5.0918
  0
LINE
  8
0
 10
330.216
 20
5.0918
 11
329.728
 21
5.01025
  0
LINE
  8
0
 10
329.728
 20
5.01025
 11
329.232
 21
5.01025
  0
LINE
  8
0
 10
329.232
 20
5.01025
 11
328.744
 21
5.0918
  0
LINE
  8
0
 10
328.744
 20
5.0918
 11
328.275
 21
5.25268
  0
LINE
  8
0
 10
328.275
 20
5.25268
 11
327.839
 21
5.4885
  0
LINE
  8
0
 10
327.839
 20
5.4885
 11
327.448
 21
5.79283
  0
LINE
  8
0
 10
327.448
 20
5.79283
 11
327.113
 21
6.15736
  0
LINE
  8
0
 10
327.113
 20
6.15736
 11
326.842
 21
6.57216
  0
LINE
  8
0
 10
326.842
 20
6.57216
 11
326.643
 21
7.0259
  0
LINE
  8
0
 10
326.643
 20
7.0259
 11
326.521
 21
7.50622
  0
LINE
  8
0
 10
326.521
 20
7.50622
 11
326.48
 21
8
  0
LINE
  8
0
 10
338.98
 20
7
 11
339.038
 21
7.47863
  0
LINE
  8
0
 10
339.038
 20
7.47863
 11
339.209
 21
7.92945
  0
LINE
  8
0
 10
339.209
 20
7.92945
 11
339.483
 21
8.32625
  0
LINE
  8
0
 10
339.483
 20
8.32625
 11
339.844
 21
8.64597
  0
LINE
  8
0
 10
339.844
 20
8.64597
 11
340.271
 21
8.87003
  0
LINE
  8
0
 10
340.271
 20
8.87003
 11
340.739
 21
8.98542
  0
LINE
  8
0
 10
340.739
 20
8.98542
 11
341.221
 21
8.98542
  0
LINE
  8
0
 10
341.221
 20
8.98542
 11
341.689
 21
8.87003
  0
LINE
  8
0
 10
341.689
 20
8.87003
 11
342.116
 21
8.64597
  0
LINE
  8
0
 10
342.116
 20
8.64597
 11
342.477
 21
8.32625
  0
LINE
  8
0
 10
342.477
 20
8.32625
 11
342.751
 21
7.92945
  0
LINE
  8
0
 10
342.751
 20
7.92945
 11
342.922
 21
7.47863
  0
LINE
  8
0
 10
342.922
 20
7.47863
 11
342.98
 21
7
  0
LINE
  8
0
 10
342.98
 20
7
 11
342.922
 21
6.52137
  0
LINE
  8
0
 10
342.922
 20
6.52137
 11
342.751
 21
6.07055
  0
LINE
  8
0
 10
342.751
 20
6.07055
 11
342.477
 21
5.67375
  0
LINE
  8
0
 10
342.477
 20
5.67375
 11
342.116
 21
5.35403
  0
LINE
  8
0
 10
342.116
 20
5.35403
 11
341.689
 21
5.12997
  0
LINE
  8
0
 10
341.689
 20
5.12997
 11
341.221
 21
5.01458
  0
LINE
  8
0
 10
341.221
 20
5.01458
 11
340.739
 21
5.01458
  0
LINE
  8
0
 10
340.739
 20
5.01458
 11
340.271
 21
5.12997
  0
LINE
  8
0
 10
340.271
 20
5.12997
 11
339.844
 21
5.35403
  0
LINE
  8
0
 10
339.844
 20
5.35403
 11
339.483
 21
5.67375
  0
LINE
  8
0
 10
339.483
 20
5.67375
 11
339.209
 21
6.07055
  0
LINE
  8
0
 10
339.209
 20
6.07055
 11
339.038
 21
6.52137
  0
LINE
  8
0
 10
339.038
 20
6.52137
 11
338.98
 21
7
  0
LINE
  8
0
 10
353.08
 20
8.2
 11
353.195
 21
8.66472
  0
LINE
  8
0
 10
353.195
 20
8.66472
 11
353.512
 21
9.02298
  0
LINE
  8
0
 10
353.512
 20
9.02298
 11
353.959
 21
9.19271
  0
LINE
  8
0
 10
353.959
 20
9.19271
 11
354.435
 21
9.13502
  0
LINE
  8
0
 10
354.435
 20
9.13502
 11
354.829
 21
8.86312
  0
LINE
  8
0
 10
354.829
 20
8.86312
 11
355.051
 21
8.43931
  0
LINE
  8
0
 10
355.051
 20
8.43931
 11
355.051
 21
7.96068
  0
LINE
  8
0
 10
355.051
 20
7.96068
 11
354.829
 21
7.53688
  0
LINE
  8
0
 10
354.829
 20
7.53688
 11
354.435
 21
7.26498
  0
LINE
  8
0
 10
354.435
 20
7.26498
 11
353.959
 21
7.20729
  0
LINE
  8
0
 10
353.959
 20
7.20729
 11
353.512
 21
7.37702
  0
LINE
  8
0
 10
353.512
 20
7.37702
 11
353.195
 21
7.73528
  0
LINE
  8
0
 10
353.195
 20
7.73528
 11
353.08
 21
8.2
  0
LINE
  8
0
 10
373.9
 20
8.2
 11
374.015
 21
8.66472
  0
LINE
  8
0
 10
374.015
 20
8.66472
 11
374.332
 21
9.02298
  0
LINE
  8
0
 10
374.332
 20
9.02298
 11
374.779
 21
9.19271
  0
LINE
  8
0
 10
374.779
 20
9.19271
 11
375.255
 21
9.13502
  0
LINE
  8
0
 10
375.255
 20
9.13502
 11
375.649
 21
8.86312
  0
LINE
  8
0
 10
375.649
 20
8.86312
 11
375.871
 21
8.43931
  0
LINE
  8
0
 10
375.871
 20
8.43931
 11
375.871
 21
7.96068
  0
LINE
  8
0
 10
375.871
 20
7.96068
 11
375.649
 21
7.53688
  0
LINE
  8
0
 10
375.649
 20
7.53688
 11
375.255
 21
7.26498
  0
LINE
  8
0
 10
375.255
 20
7.26498
 11
374.779
 21
7.20729
  0
LINE
  8
0
 10
374.779
 20
7.20729
 11
374.332
 21
7.37702
  0
LINE
  8
0
 10
374.332
 20
7.37702
 11
374.015
 21
7.73528
  0
LINE
  8
0
 10
374.015
 20
7.73528
 11
373.9
 21
8.2
  0
ENDSEC
  0
SECTION
  2
OBJECTS
  0
DICTIONARY
  0
ENDSEC
  0
EOF
