  0
SECTION
  2
BLOCKS
  0
ENDSEC
  0
SECTION
  2
ENTITIES
  0
LINE
  8
0
 10
-3.93574e-14
 20
0
 11
403
 21
0
  0
LINE
  8
0
 10
403
 20
0
 11
403
 21
139.5
  0
LINE
  8
0
 10
403
 20
139.5
 11
402.943
 21
140.807
  0
LINE
  8
0
 10
402.943
 20
140.807
 11
402.772
 21
142.105
  0
LINE
  8
0
 10
402.772
 20
142.105
 11
402.489
 21
143.382
  0
LINE
  8
0
 10
402.489
 20
143.382
 11
402.095
 21
144.63
  0
LINE
  8
0
 10
402.095
 20
144.63
 11
401.595
 21
145.839
  0
LINE
  8
0
 10
401.595
 20
145.839
 11
400.99
 21
147
  0
LINE
  8
0
 10
400.99
 20
147
 11
400.287
 21
148.104
  0
LINE
  8
0
 10
400.287
 20
148.104
 11
399.491
 21
149.142
  0
LINE
  8
0
 10
399.491
 20
149.142
 11
398.607
 21
150.107
  0
LINE
  8
0
 10
398.607
 20
150.107
 11
397.642
 21
150.991
  0
LINE
  8
0
 10
397.642
 20
150.991
 11
396.604
 21
151.787
  0
LINE
  8
0
 10
396.604
 20
151.787
 11
395.5
 21
152.49
  0
LINE
  8
0
 10
395.5
 20
152.49
 11
394.339
 21
153.095
  0
LINE
  8
0
 10
394.339
 20
153.095
 11
393.13
 21
153.595
  0
LINE
  8
0
 10
393.13
 20
153.595
 11
391.882
 21
153.989
  0
LINE
  8
0
 10
391.882
 20
153.989
 11
390.605
 21
154.272
  0
LINE
  8
0
 10
390.605
 20
154.272
 11
389.307
 21
154.443
  0
LINE
  8
0
 10
389.307
 20
154.443
 11
388
 21
154.5
  0
LINE
  8
0
 10
388
 20
154.5
 11
-3.93574e-14
 21
154.5
  0
LINE
  8
0
 10
-3.93574e-14
 20
154.5
 11
-3.93574e-14
 21
0
  0
LINE
  8
0
 10
7.20729
 20
124.101
 11
7.37702
 21
124.548
  0
LINE
  8
0
 10
7.37702
 20
124.548
 11
7.73528
 21
124.865
  0
LINE
  8
0
 10
7.73528
 20
124.865
 11
8.2
 21
124.98
  0
LINE
  8
0
 10
8.2
 20
124.98
 11
8.66472
 21
124.865
  0
LINE
  8
0
 10
8.66472
 20
124.865
 11
9.02298
 21
124.548
  0
LINE
  8
0
 10
9.02298
 20
124.548
 11
9.19271
 21
124.101
  0
LINE
  8
0
 10
9.19271
 20
124.101
 11
9.13502
 21
123.625
  0
LINE
  8
0
 10
9.13502
 20
123.625
 11
8.86312
 21
123.231
  0
LINE
  8
0
 10
8.86312
 20
123.231
 11
8.43931
 21
123.009
  0
LINE
  8
0
 10
8.43931
 20
123.009
 11
7.96068
 21
123.009
  0
LINE
  8
0
 10
7.96068
 20
123.009
 11
7.53688
 21
123.231
  0
LINE
  8
0
 10
7.53688
 20
123.231
 11
7.26498
 21
123.625
  0
LINE
  8
0
 10
7.26498
 20
123.625
 11
7.20729
 21
124.101
  0
LINE
  8
0
 10
7.20729
 20
144.921
 11
7.37702
 21
145.368
  0
LINE
  8
0
 10
7.37702
 20
145.368
 11
7.73528
 21
145.685
  0
LINE
  8
0
 10
7.73528
 20
145.685
 11
8.2
 21
145.8
  0
LINE
  8
0
 10
8.2
 20
145.8
 11
8.66472
 21
145.685
  0
LINE
  8
0
 10
8.66472
 20
145.685
 11
9.02298
 21
145.368
  0
LINE
  8
0
 10
9.02298
 20
145.368
 11
9.19271
 21
144.921
  0
LINE
  8
0
 10
9.19271
 20
144.921
 11
9.13502
 21
144.445
  0
LINE
  8
0
 10
9.13502
 20
144.445
 11
8.86312
 21
144.051
  0
LINE
  8
0
 10
8.86312
 20
144.051
 11
8.43931
 21
143.829
  0
LINE
  8
0
 10
8.43931
 20
143.829
 11
7.96068
 21
143.829
  0
LINE
  8
0
 10
7.96068
 20
143.829
 11
7.53688
 21
144.051
  0
LINE
  8
0
 10
7.53688
 20
144.051
 11
7.26498
 21
144.445
  0
LINE
  8
0
 10
7.26498
 20
144.445
 11
7.20729
 21
144.921
  0
LINE
  8
0
 10
25.1
 20
8.2
 11
25.2145
 21
8.66472
  0
LINE
  8
0
 10
25.2145
 20
8.66472
 11
25.5319
 21
9.02298
  0
LINE
  8
0
 10
25.5319
 20
9.02298
 11
25.9795
 21
9.19271
  0
LINE
  8
0
 10
25.9795
 20
9.19271
 11
26.4546
 21
9.13502
  0
LINE
  8
0
 10
26.4546
 20
9.13502
 11
26.8485
 21
8.86312
  0
LINE
  8
0
 10
26.8485
 20
8.86312
 11
27.0709
 21
8.43931
  0
LINE
  8
0
 10
27.0709
 20
8.43931
 11
27.0709
 21
7.96068
  0
LINE
  8
0
 10
27.0709
 20
7.96068
 11
26.8485
 21
7.53688
  0
LINE
  8
0
 10
26.8485
 20
7.53688
 11
26.4546
 21
7.26498
  0
LINE
  8
0
 10
26.4546
 20
7.26498
 11
25.9795
 21
7.20729
  0
LINE
  8
0
 10
25.9795
 20
7.20729
 11
25.5319
 21
7.37702
  0
LINE
  8
0
 10
25.5319
 20
7.37702
 11
25.2145
 21
7.73528
  0
LINE
  8
0
 10
25.2145
 20
7.73528
 11
25.1
 21
8.2
  0
LINE
  8
0
 10
45.92
 20
8.2
 11
46.0345
 21
8.66472
  0
LINE
  8
0
 10
46.0345
 20
8.66472
 11
46.3519
 21
9.02298
  0
LINE
  8
0
 10
46.3519
 20
9.02298
 11
46.7995
 21
9.19271
  0
LINE
  8
0
 10
46.7995
 20
9.19271
 11
47.2746
 21
9.13502
  0
LINE
  8
0
 10
47.2746
 20
9.13502
 11
47.6685
 21
8.86312
  0
LINE
  8
0
 10
47.6685
 20
8.86312
 11
47.8909
 21
8.43931
  0
LINE
  8
0
 10
47.8909
 20
8.43931
 11
47.8909
 21
7.96068
  0
LINE
  8
0
 10
47.8909
 20
7.96068
 11
47.6685
 21
7.53688
  0
LINE
  8
0
 10
47.6685
 20
7.53688
 11
47.2746
 21
7.26498
  0
LINE
  8
0
 10
47.2746
 20
7.26498
 11
46.7995
 21
7.20729
  0
LINE
  8
0
 10
46.7995
 20
7.20729
 11
46.3519
 21
7.37702
  0
LINE
  8
0
 10
46.3519
 20
7.37702
 11
46.0345
 21
7.73528
  0
LINE
  8
0
 10
46.0345
 20
7.73528
 11
45.92
 21
8.2
  0
LINE
  8
0
 10
54.05
 20
22.65
 11
54.1052
 21
23.1395
  0
LINE
  8
0
 10
54.1052
 20
23.1395
 11
54.2679
 21
23.6045
  0
LINE
  8
0
 10
54.2679
 20
23.6045
 11
54.53
 21
24.0217
  0
LINE
  8
0
 10
54.53
 20
24.0217
 11
54.8783
 21
24.37
  0
LINE
  8
0
 10
54.8783
 20
24.37
 11
55.2955
 21
24.6321
  0
LINE
  8
0
 10
55.2955
 20
24.6321
 11
55.7605
 21
24.7948
  0
LINE
  8
0
 10
55.7605
 20
24.7948
 11
56.25
 21
24.85
  0
LINE
  8
0
 10
56.25
 20
24.85
 11
56.7395
 21
24.7948
  0
LINE
  8
0
 10
56.7395
 20
24.7948
 11
57.2045
 21
24.6321
  0
LINE
  8
0
 10
57.2045
 20
24.6321
 11
57.6217
 21
24.37
  0
LINE
  8
0
 10
57.6217
 20
24.37
 11
57.97
 21
24.0217
  0
LINE
  8
0
 10
57.97
 20
24.0217
 11
58.2321
 21
23.6045
  0
LINE
  8
0
 10
58.2321
 20
23.6045
 11
58.3948
 21
23.1395
  0
LINE
  8
0
 10
58.3948
 20
23.1395
 11
58.45
 21
22.65
  0
LINE
  8
0
 10
58.45
 20
22.65
 11
58.3948
 21
22.1605
  0
LINE
  8
0
 10
58.3948
 20
22.1605
 11
58.2321
 21
21.6955
  0
LINE
  8
0
 10
58.2321
 20
21.6955
 11
57.97
 21
21.2783
  0
LINE
  8
0
 10
57.97
 20
21.2783
 11
57.6217
 21
20.93
  0
LINE
  8
0
 10
57.6217
 20
20.93
 11
57.2045
 21
20.6679
  0
LINE
  8
0
 10
57.2045
 20
20.6679
 11
56.7395
 21
20.5052
  0
LINE
  8
0
 10
56.7395
 20
20.5052
 11
56.25
 21
20.45
  0
LINE
  8
0
 10
56.25
 20
20.45
 11
55.7605
 21
20.5052
  0
LINE
  8
0
 10
55.7605
 20
20.5052
 11
55.2955
 21
20.6679
  0
LINE
  8
0
 10
55.2955
 20
20.6679
 11
54.8783
 21
20.93
  0
LINE
  8
0
 10
54.8783
 20
20.93
 11
54.53
 21
21.2783
  0
LINE
  8
0
 10
54.53
 20
21.2783
 11
54.2679
 21
21.6955
  0
LINE
  8
0
 10
54.2679
 20
21.6955
 11
54.1052
 21
22.1605
  0
LINE
  8
0
 10
54.1052
 20
22.1605
 11
54.05
 21
22.65
  0
LINE
  8
0
 10
54.05
 20
94.15
 11
54.1052
 21
94.6395
  0
LINE
  8
0
 10
54.1052
 20
94.6395
 11
54.2679
 21
95.1045
  0
LINE
  8
0
 10
54.2679
 20
95.1045
 11
54.53
 21
95.5217
  0
LINE
  8
0
 10
54.53
 20
95.5217
 11
54.8783
 21
95.87
  0
LINE
  8
0
 10
54.8783
 20
95.87
 11
55.2955
 21
96.1321
  0
LINE
  8
0
 10
55.2955
 20
96.1321
 11
55.7605
 21
96.2948
  0
LINE
  8
0
 10
55.7605
 20
96.2948
 11
56.25
 21
96.35
  0
LINE
  8
0
 10
56.25
 20
96.35
 11
56.7395
 21
96.2948
  0
LINE
  8
0
 10
56.7395
 20
96.2948
 11
57.2045
 21
96.1321
  0
LINE
  8
0
 10
57.2045
 20
96.1321
 11
57.6217
 21
95.87
  0
LINE
  8
0
 10
57.6217
 20
95.87
 11
57.97
 21
95.5217
  0
LINE
  8
0
 10
57.97
 20
95.5217
 11
58.2321
 21
95.1045
  0
LINE
  8
0
 10
58.2321
 20
95.1045
 11
58.3948
 21
94.6395
  0
LINE
  8
0
 10
58.3948
 20
94.6395
 11
58.45
 21
94.15
  0
LINE
  8
0
 10
58.45
 20
94.15
 11
58.3948
 21
93.6605
  0
LINE
  8
0
 10
58.3948
 20
93.6605
 11
58.2321
 21
93.1955
  0
LINE
  8
0
 10
58.2321
 20
93.1955
 11
57.97
 21
92.7783
  0
LINE
  8
0
 10
57.97
 20
92.7783
 11
57.6217
 21
92.43
  0
LINE
  8
0
 10
57.6217
 20
92.43
 11
57.2045
 21
92.1679
  0
LINE
  8
0
 10
57.2045
 20
92.1679
 11
56.7395
 21
92.0052
  0
LINE
  8
0
 10
56.7395
 20
92.0052
 11
56.25
 21
91.95
  0
LINE
  8
0
 10
56.25
 20
91.95
 11
55.7605
 21
92.0052
  0
LINE
  8
0
 10
55.7605
 20
92.0052
 11
55.2955
 21
92.1679
  0
LINE
  8
0
 10
55.2955
 20
92.1679
 11
54.8783
 21
92.43
  0
LINE
  8
0
 10
54.8783
 20
92.43
 11
54.53
 21
92.7783
  0
LINE
  8
0
 10
54.53
 20
92.7783
 11
54.2679
 21
93.1955
  0
LINE
  8
0
 10
54.2679
 20
93.1955
 11
54.1052
 21
93.6605
  0
LINE
  8
0
 10
54.1052
 20
93.6605
 11
54.05
 21
94.15
  0
LINE
  8
0
 10
54.5
 20
58.4
 11
54.6427
 21
61.6683
  0
LINE
  8
0
 10
54.6427
 20
61.6683
 11
55.0697
 21
64.9118
  0
LINE
  8
0
 10
55.0697
 20
64.9118
 11
55.7778
 21
68.1057
  0
LINE
  8
0
 10
55.7778
 20
68.1057
 11
56.7615
 21
71.2258
  0
LINE
  8
0
 10
56.7615
 20
71.2258
 11
58.0135
 21
74.2482
  0
LINE
  8
0
 10
58.0135
 20
74.2482
 11
59.524
 21
77.15
  0
LINE
  8
0
 10
59.524
 20
77.15
 11
61.2818
 21
79.9091
  0
LINE
  8
0
 10
61.2818
 20
79.9091
 11
63.2733
 21
82.5045
  0
LINE
  8
0
 10
63.2733
 20
82.5045
 11
65.4835
 21
84.9165
  0
LINE
  8
0
 10
65.4835
 20
84.9165
 11
67.8955
 21
87.1267
  0
LINE
  8
0
 10
67.8955
 20
87.1267
 11
70.4909
 21
89.1182
  0
LINE
  8
0
 10
70.4909
 20
89.1182
 11
73.25
 21
90.876
  0
LINE
  8
0
 10
73.25
 20
90.876
 11
76.1518
 21
92.3865
  0
LINE
  8
0
 10
76.1518
 20
92.3865
 11
79.1742
 21
93.6385
  0
LINE
  8
0
 10
79.1742
 20
93.6385
 11
82.2943
 21
94.6222
  0
LINE
  8
0
 10
82.2943
 20
94.6222
 11
85.4882
 21
95.3303
  0
LINE
  8
0
 10
85.4882
 20
95.3303
 11
88.7317
 21
95.7573
  0
LINE
  8
0
 10
88.7317
 20
95.7573
 11
92
 21
95.9
  0
LINE
  8
0
 10
92
 20
95.9
 11
95.2683
 21
95.7573
  0
LINE
  8
0
 10
95.2683
 20
95.7573
 11
98.5118
 21
95.3303
  0
LINE
  8
0
 10
98.5118
 20
95.3303
 11
101.706
 21
94.6222
  0
LINE
  8
0
 10
101.706
 20
94.6222
 11
104.826
 21
93.6385
  0
LINE
  8
0
 10
104.826
 20
93.6385
 11
107.848
 21
92.3865
  0
LINE
  8
0
 10
107.848
 20
92.3865
 11
110.75
 21
90.876
  0
LINE
  8
0
 10
110.75
 20
90.876
 11
113.509
 21
89.1182
  0
LINE
  8
0
 10
113.509
 20
89.1182
 11
116.105
 21
87.1267
  0
LINE
  8
0
 10
116.105
 20
87.1267
 11
118.517
 21
84.9165
  0
LINE
  8
0
 10
118.517
 20
84.9165
 11
120.727
 21
82.5045
  0
LINE
  8
0
 10
120.727
 20
82.5045
 11
122.718
 21
79.9091
  0
LINE
  8
0
 10
122.718
 20
79.9091
 11
124.476
 21
77.15
  0
LINE
  8
0
 10
124.476
 20
77.15
 11
125.987
 21
74.2482
  0
LINE
  8
0
 10
125.987
 20
74.2482
 11
127.238
 21
71.2258
  0
LINE
  8
0
 10
127.238
 20
71.2258
 11
128.222
 21
68.1057
  0
LINE
  8
0
 10
128.222
 20
68.1057
 11
128.93
 21
64.9118
  0
LINE
  8
0
 10
128.93
 20
64.9118
 11
129.357
 21
61.6683
  0
LINE
  8
0
 10
129.357
 20
61.6683
 11
129.5
 21
58.4
  0
LINE
  8
0
 10
129.5
 20
58.4
 11
129.357
 21
55.1317
  0
LINE
  8
0
 10
129.357
 20
55.1317
 11
128.93
 21
51.8882
  0
LINE
  8
0
 10
128.93
 20
51.8882
 11
128.222
 21
48.6943
  0
LINE
  8
0
 10
128.222
 20
48.6943
 11
127.238
 21
45.5742
  0
LINE
  8
0
 10
127.238
 20
45.5742
 11
125.987
 21
42.5518
  0
LINE
  8
0
 10
125.987
 20
42.5518
 11
124.476
 21
39.65
  0
LINE
  8
0
 10
124.476
 20
39.65
 11
122.718
 21
36.8909
  0
LINE
  8
0
 10
122.718
 20
36.8909
 11
120.727
 21
34.2955
  0
LINE
  8
0
 10
120.727
 20
34.2955
 11
118.517
 21
31.8835
  0
LINE
  8
0
 10
118.517
 20
31.8835
 11
116.105
 21
29.6733
  0
LINE
  8
0
 10
116.105
 20
29.6733
 11
113.509
 21
27.6818
  0
LINE
  8
0
 10
113.509
 20
27.6818
 11
110.75
 21
25.924
  0
LINE
  8
0
 10
110.75
 20
25.924
 11
107.848
 21
24.4135
  0
LINE
  8
0
 10
107.848
 20
24.4135
 11
104.826
 21
23.1615
  0
LINE
  8
0
 10
104.826
 20
23.1615
 11
101.706
 21
22.1778
  0
LINE
  8
0
 10
101.706
 20
22.1778
 11
98.5118
 21
21.4697
  0
LINE
  8
0
 10
98.5118
 20
21.4697
 11
95.2683
 21
21.0427
  0
LINE
  8
0
 10
95.2683
 20
21.0427
 11
92
 21
20.9
  0
LINE
  8
0
 10
92
 20
20.9
 11
88.7317
 21
21.0427
  0
LINE
  8
0
 10
88.7317
 20
21.0427
 11
85.4882
 21
21.4697
  0
LINE
  8
0
 10
85.4882
 20
21.4697
 11
82.2943
 21
22.1778
  0
LINE
  8
0
 10
82.2943
 20
22.1778
 11
79.1742
 21
23.1615
  0
LINE
  8
0
 10
79.1742
 20
23.1615
 11
76.1518
 21
24.4135
  0
LINE
  8
0
 10
76.1518
 20
24.4135
 11
73.25
 21
25.924
  0
LINE
  8
0
 10
73.25
 20
25.924
 11
70.4909
 21
27.6818
  0
LINE
  8
0
 10
70.4909
 20
27.6818
 11
67.8955
 21
29.6733
  0
LINE
  8
0
 10
67.8955
 20
29.6733
 11
65.4835
 21
31.8835
  0
LINE
  8
0
 10
65.4835
 20
31.8835
 11
63.2733
 21
34.2955
  0
LINE
  8
0
 10
63.2733
 20
34.2955
 11
61.2818
 21
36.8909
  0
LINE
  8
0
 10
61.2818
 20
36.8909
 11
59.524
 21
39.65
  0
LINE
  8
0
 10
59.524
 20
39.65
 11
58.0135
 21
42.5518
  0
LINE
  8
0
 10
58.0135
 20
42.5518
 11
56.7615
 21
45.5742
  0
LINE
  8
0
 10
56.7615
 20
45.5742
 11
55.7778
 21
48.6943
  0
LINE
  8
0
 10
55.7778
 20
48.6943
 11
55.0697
 21
51.8882
  0
LINE
  8
0
 10
55.0697
 20
51.8882
 11
54.6427
 21
55.1317
  0
LINE
  8
0
 10
54.6427
 20
55.1317
 11
54.5
 21
58.4
  0
LINE
  8
0
 10
125.55
 20
22.65
 11
125.605
 21
23.1395
  0
LINE
  8
0
 10
125.605
 20
23.1395
 11
125.768
 21
23.6045
  0
LINE
  8
0
 10
125.768
 20
23.6045
 11
126.03
 21
24.0217
  0
LINE
  8
0
 10
126.03
 20
24.0217
 11
126.378
 21
24.37
  0
LINE
  8
0
 10
126.378
 20
24.37
 11
126.795
 21
24.6321
  0
LINE
  8
0
 10
126.795
 20
24.6321
 11
127.26
 21
24.7948
  0
LINE
  8
0
 10
127.26
 20
24.7948
 11
127.75
 21
24.85
  0
LINE
  8
0
 10
127.75
 20
24.85
 11
128.24
 21
24.7948
  0
LINE
  8
0
 10
128.24
 20
24.7948
 11
128.705
 21
24.6321
  0
LINE
  8
0
 10
128.705
 20
24.6321
 11
129.122
 21
24.37
  0
LINE
  8
0
 10
129.122
 20
24.37
 11
129.47
 21
24.0217
  0
LINE
  8
0
 10
129.47
 20
24.0217
 11
129.732
 21
23.6045
  0
LINE
  8
0
 10
129.732
 20
23.6045
 11
129.895
 21
23.1395
  0
LINE
  8
0
 10
129.895
 20
23.1395
 11
129.95
 21
22.65
  0
LINE
  8
0
 10
129.95
 20
22.65
 11
129.895
 21
22.1605
  0
LINE
  8
0
 10
129.895
 20
22.1605
 11
129.732
 21
21.6955
  0
LINE
  8
0
 10
129.732
 20
21.6955
 11
129.47
 21
21.2783
  0
LINE
  8
0
 10
129.47
 20
21.2783
 11
129.122
 21
20.93
  0
LINE
  8
0
 10
129.122
 20
20.93
 11
128.705
 21
20.6679
  0
LINE
  8
0
 10
128.705
 20
20.6679
 11
128.24
 21
20.5052
  0
LINE
  8
0
 10
128.24
 20
20.5052
 11
127.75
 21
20.45
  0
LINE
  8
0
 10
127.75
 20
20.45
 11
127.26
 21
20.5052
  0
LINE
  8
0
 10
127.26
 20
20.5052
 11
126.795
 21
20.6679
  0
LINE
  8
0
 10
126.795
 20
20.6679
 11
126.378
 21
20.93
  0
LINE
  8
0
 10
126.378
 20
20.93
 11
126.03
 21
21.2783
  0
LINE
  8
0
 10
126.03
 20
21.2783
 11
125.768
 21
21.6955
  0
LINE
  8
0
 10
125.768
 20
21.6955
 11
125.605
 21
22.1605
  0
LINE
  8
0
 10
125.605
 20
22.1605
 11
125.55
 21
22.65
  0
LINE
  8
0
 10
125.55
 20
94.15
 11
125.605
 21
94.6395
  0
LINE
  8
0
 10
125.605
 20
94.6395
 11
125.768
 21
95.1045
  0
LINE
  8
0
 10
125.768
 20
95.1045
 11
126.03
 21
95.5217
  0
LINE
  8
0
 10
126.03
 20
95.5217
 11
126.378
 21
95.87
  0
LINE
  8
0
 10
126.378
 20
95.87
 11
126.795
 21
96.1321
  0
LINE
  8
0
 10
126.795
 20
96.1321
 11
127.26
 21
96.2948
  0
LINE
  8
0
 10
127.26
 20
96.2948
 11
127.75
 21
96.35
  0
LINE
  8
0
 10
127.75
 20
96.35
 11
128.24
 21
96.2948
  0
LINE
  8
0
 10
128.24
 20
96.2948
 11
128.705
 21
96.1321
  0
LINE
  8
0
 10
128.705
 20
96.1321
 11
129.122
 21
95.87
  0
LINE
  8
0
 10
129.122
 20
95.87
 11
129.47
 21
95.5217
  0
LINE
  8
0
 10
129.47
 20
95.5217
 11
129.732
 21
95.1045
  0
LINE
  8
0
 10
129.732
 20
95.1045
 11
129.895
 21
94.6395
  0
LINE
  8
0
 10
129.895
 20
94.6395
 11
129.95
 21
94.15
  0
LINE
  8
0
 10
129.95
 20
94.15
 11
129.895
 21
93.6605
  0
LINE
  8
0
 10
129.895
 20
93.6605
 11
129.732
 21
93.1955
  0
LINE
  8
0
 10
129.732
 20
93.1955
 11
129.47
 21
92.7783
  0
LINE
  8
0
 10
129.47
 20
92.7783
 11
129.122
 21
92.43
  0
LINE
  8
0
 10
129.122
 20
92.43
 11
128.705
 21
92.1679
  0
LINE
  8
0
 10
128.705
 20
92.1679
 11
128.24
 21
92.0052
  0
LINE
  8
0
 10
128.24
 20
92.0052
 11
127.75
 21
91.95
  0
LINE
  8
0
 10
127.75
 20
91.95
 11
127.26
 21
92.0052
  0
LINE
  8
0
 10
127.26
 20
92.0052
 11
126.795
 21
92.1679
  0
LINE
  8
0
 10
126.795
 20
92.1679
 11
126.378
 21
92.43
  0
LINE
  8
0
 10
126.378
 20
92.43
 11
126.03
 21
92.7783
  0
LINE
  8
0
 10
126.03
 20
92.7783
 11
125.768
 21
93.1955
  0
LINE
  8
0
 10
125.768
 20
93.1955
 11
125.605
 21
93.6605
  0
LINE
  8
0
 10
125.605
 20
93.6605
 11
125.55
 21
94.15
  0
LINE
  8
0
 10
285.512
 20
88.9
 11
285.626
 21
89.3647
  0
LINE
  8
0
 10
285.626
 20
89.3647
 11
285.944
 21
89.723
  0
LINE
  8
0
 10
285.944
 20
89.723
 11
286.391
 21
89.8927
  0
LINE
  8
0
 10
286.391
 20
89.8927
 11
286.866
 21
89.835
  0
LINE
  8
0
 10
286.866
 20
89.835
 11
287.26
 21
89.5631
  0
LINE
  8
0
 10
287.26
 20
89.5631
 11
287.483
 21
89.1393
  0
LINE
  8
0
 10
287.483
 20
89.1393
 11
287.483
 21
88.6607
  0
LINE
  8
0
 10
287.483
 20
88.6607
 11
287.26
 21
88.2369
  0
LINE
  8
0
 10
287.26
 20
88.2369
 11
286.866
 21
87.965
  0
LINE
  8
0
 10
286.866
 20
87.965
 11
286.391
 21
87.9073
  0
LINE
  8
0
 10
286.391
 20
87.9073
 11
285.944
 21
88.077
  0
LINE
  8
0
 10
285.944
 20
88.077
 11
285.626
 21
88.4353
  0
LINE
  8
0
 10
285.626
 20
88.4353
 11
285.512
 21
88.9
  0
LINE
  8
0
 10
328.48
 20
8
 11
328.521
 21
8.49378
  0
LINE
  8
0
 10
328.521
 20
8.49378
 11
328.643
 21
8.9741
  0
LINE
  8
0
 10
328.643
 20
8.9741
 11
328.842
 21
9.42784
  0
LINE
  8
0
 10
328.842
 20
9.42784
 11
329.113
 21
9.84264
  0
LINE
  8
0
 10
329.113
 20
9.84264
 11
329.448
 21
10.2072
  0
LINE
  8
0
 10
329.448
 20
10.2072
 11
329.839
 21
10.5115
  0
LINE
  8
0
 10
329.839
 20
10.5115
 11
330.275
 21
10.7473
  0
LINE
  8
0
 10
330.275
 20
10.7473
 11
330.744
 21
10.9082
  0
LINE
  8
0
 10
330.744
 20
10.9082
 11
331.232
 21
10.9898
  0
LINE
  8
0
 10
331.232
 20
10.9898
 11
331.728
 21
10.9898
  0
LINE
  8
0
 10
331.728
 20
10.9898
 11
332.216
 21
10.9082
  0
LINE
  8
0
 10
332.216
 20
10.9082
 11
332.685
 21
10.7473
  0
LINE
  8
0
 10
332.685
 20
10.7473
 11
333.121
 21
10.5115
  0
LINE
  8
0
 10
333.121
 20
10.5115
 11
333.512
 21
10.2072
  0
LINE
  8
0
 10
333.512
 20
10.2072
 11
333.847
 21
9.84264
  0
LINE
  8
0
 10
333.847
 20
9.84264
 11
334.118
 21
9.42784
  0
LINE
  8
0
 10
334.118
 20
9.42784
 11
334.317
 21
8.9741
  0
LINE
  8
0
 10
334.317
 20
8.9741
 11
334.439
 21
8.49378
  0
LINE
  8
0
 10
334.439
 20
8.49378
 11
334.48
 21
8
  0
LINE
  8
0
 10
334.48
 20
8
 11
334.439
 21
7.50622
  0
LINE
  8
0
 10
334.439
 20
7.50622
 11
334.317
 21
7.0259
  0
LINE
  8
0
 10
334.317
 20
7.0259
 11
334.118
 21
6.57216
  0
LINE
  8
0
 10
334.118
 20
6.57216
 11
333.847
 21
6.15736
  0
LINE
  8
0
 10
333.847
 20
6.15736
 11
333.512
 21
5.79283
  0
LINE
  8
0
 10
333.512
 20
5.79283
 11
333.121
 21
5.4885
  0
LINE
  8
0
 10
333.121
 20
5.4885
 11
332.685
 21
5.25268
  0
LINE
  8
0
 10
332.685
 20
5.25268
 11
332.216
 21
5.0918
  0
LINE
  8
0
 10
332.216
 20
5.0918
 11
331.728
 21
5.01025
  0
LINE
  8
0
 10
331.728
 20
5.01025
 11
331.232
 21
5.01025
  0
LINE
  8
0
 10
331.232
 20
5.01025
 11
330.744
 21
5.0918
  0
LINE
  8
0
 10
330.744
 20
5.0918
 11
330.275
 21
5.25268
  0
LINE
  8
0
 10
330.275
 20
5.25268
 11
329.839
 21
5.4885
  0
LINE
  8
0
 10
329.839
 20
5.4885
 11
329.448
 21
5.79283
  0
LINE
  8
0
 10
329.448
 20
5.79283
 11
329.113
 21
6.15736
  0
LINE
  8
0
 10
329.113
 20
6.15736
 11
328.842
 21
6.57216
  0
LINE
  8
0
 10
328.842
 20
6.57216
 11
328.643
 21
7.0259
  0
LINE
  8
0
 10
328.643
 20
7.0259
 11
328.521
 21
7.50622
  0
LINE
  8
0
 10
328.521
 20
7.50622
 11
328.48
 21
8
  0
LINE
  8
0
 10
340.98
 20
7
 11
341.038
 21
7.47863
  0
LINE
  8
0
 10
341.038
 20
7.47863
 11
341.209
 21
7.92945
  0
LINE
  8
0
 10
341.209
 20
7.92945
 11
341.483
 21
8.32625
  0
LINE
  8
0
 10
341.483
 20
8.32625
 11
341.844
 21
8.64597
  0
LINE
  8
0
 10
341.844
 20
8.64597
 11
342.271
 21
8.87003
  0
LINE
  8
0
 10
342.271
 20
8.87003
 11
342.739
 21
8.98542
  0
LINE
  8
0
 10
342.739
 20
8.98542
 11
343.221
 21
8.98542
  0
LINE
  8
0
 10
343.221
 20
8.98542
 11
343.689
 21
8.87003
  0
LINE
  8
0
 10
343.689
 20
8.87003
 11
344.116
 21
8.64597
  0
LINE
  8
0
 10
344.116
 20
8.64597
 11
344.477
 21
8.32625
  0
LINE
  8
0
 10
344.477
 20
8.32625
 11
344.751
 21
7.92945
  0
LINE
  8
0
 10
344.751
 20
7.92945
 11
344.922
 21
7.47863
  0
LINE
  8
0
 10
344.922
 20
7.47863
 11
344.98
 21
7
  0
LINE
  8
0
 10
344.98
 20
7
 11
344.922
 21
6.52137
  0
LINE
  8
0
 10
344.922
 20
6.52137
 11
344.751
 21
6.07055
  0
LINE
  8
0
 10
344.751
 20
6.07055
 11
344.477
 21
5.67375
  0
LINE
  8
0
 10
344.477
 20
5.67375
 11
344.116
 21
5.35403
  0
LINE
  8
0
 10
344.116
 20
5.35403
 11
343.689
 21
5.12997
  0
LINE
  8
0
 10
343.689
 20
5.12997
 11
343.221
 21
5.01458
  0
LINE
  8
0
 10
343.221
 20
5.01458
 11
342.739
 21
5.01458
  0
LINE
  8
0
 10
342.739
 20
5.01458
 11
342.271
 21
5.12997
  0
LINE
  8
0
 10
342.271
 20
5.12997
 11
341.844
 21
5.35403
  0
LINE
  8
0
 10
341.844
 20
5.35403
 11
341.483
 21
5.67375
  0
LINE
  8
0
 10
341.483
 20
5.67375
 11
341.209
 21
6.07055
  0
LINE
  8
0
 10
341.209
 20
6.07055
 11
341.038
 21
6.52137
  0
LINE
  8
0
 10
341.038
 20
6.52137
 11
340.98
 21
7
  0
LINE
  8
0
 10
355.08
 20
8.2
 11
355.195
 21
8.66472
  0
LINE
  8
0
 10
355.195
 20
8.66472
 11
355.512
 21
9.02298
  0
LINE
  8
0
 10
355.512
 20
9.02298
 11
355.959
 21
9.19271
  0
LINE
  8
0
 10
355.959
 20
9.19271
 11
356.435
 21
9.13502
  0
LINE
  8
0
 10
356.435
 20
9.13502
 11
356.829
 21
8.86312
  0
LINE
  8
0
 10
356.829
 20
8.86312
 11
357.051
 21
8.43931
  0
LINE
  8
0
 10
357.051
 20
8.43931
 11
357.051
 21
7.96068
  0
LINE
  8
0
 10
357.051
 20
7.96068
 11
356.829
 21
7.53688
  0
LINE
  8
0
 10
356.829
 20
7.53688
 11
356.435
 21
7.26498
  0
LINE
  8
0
 10
356.435
 20
7.26498
 11
355.959
 21
7.20729
  0
LINE
  8
0
 10
355.959
 20
7.20729
 11
355.512
 21
7.37702
  0
LINE
  8
0
 10
355.512
 20
7.37702
 11
355.195
 21
7.73528
  0
LINE
  8
0
 10
355.195
 20
7.73528
 11
355.08
 21
8.2
  0
LINE
  8
0
 10
375.9
 20
8.2
 11
376.015
 21
8.66472
  0
LINE
  8
0
 10
376.015
 20
8.66472
 11
376.332
 21
9.02298
  0
LINE
  8
0
 10
376.332
 20
9.02298
 11
376.779
 21
9.19271
  0
LINE
  8
0
 10
376.779
 20
9.19271
 11
377.255
 21
9.13502
  0
LINE
  8
0
 10
377.255
 20
9.13502
 11
377.649
 21
8.86312
  0
LINE
  8
0
 10
377.649
 20
8.86312
 11
377.871
 21
8.43931
  0
LINE
  8
0
 10
377.871
 20
8.43931
 11
377.871
 21
7.96068
  0
LINE
  8
0
 10
377.871
 20
7.96068
 11
377.649
 21
7.53688
  0
LINE
  8
0
 10
377.649
 20
7.53688
 11
377.255
 21
7.26498
  0
LINE
  8
0
 10
377.255
 20
7.26498
 11
376.779
 21
7.20729
  0
LINE
  8
0
 10
376.779
 20
7.20729
 11
376.332
 21
7.37702
  0
LINE
  8
0
 10
376.332
 20
7.37702
 11
376.015
 21
7.73528
  0
LINE
  8
0
 10
376.015
 20
7.73528
 11
375.9
 21
8.2
  0
ENDSEC
  0
SECTION
  2
OBJECTS
  0
DICTIONARY
  0
ENDSEC
  0
EOF
