  0
SECTION
  2
BLOCKS
  0
ENDSEC
  0
SECTION
  2
ENTITIES
  0
LINE
  8
0
 10
401
 20
141.5
 11
400.943
 21
142.807
  0
LINE
  8
0
 10
400.943
 20
142.807
 11
400.772
 21
144.105
  0
LINE
  8
0
 10
400.772
 20
144.105
 11
400.489
 21
145.382
  0
LINE
  8
0
 10
400.489
 20
145.382
 11
400.095
 21
146.63
  0
LINE
  8
0
 10
400.095
 20
146.63
 11
399.595
 21
147.839
  0
LINE
  8
0
 10
399.595
 20
147.839
 11
398.99
 21
149
  0
LINE
  8
0
 10
398.99
 20
149
 11
398.287
 21
150.104
  0
LINE
  8
0
 10
398.287
 20
150.104
 11
397.491
 21
151.142
  0
LINE
  8
0
 10
397.491
 20
151.142
 11
396.607
 21
152.107
  0
LINE
  8
0
 10
396.607
 20
152.107
 11
395.642
 21
152.991
  0
LINE
  8
0
 10
395.642
 20
152.991
 11
394.604
 21
153.787
  0
LINE
  8
0
 10
394.604
 20
153.787
 11
393.5
 21
154.49
  0
LINE
  8
0
 10
393.5
 20
154.49
 11
392.339
 21
155.095
  0
LINE
  8
0
 10
392.339
 20
155.095
 11
391.13
 21
155.595
  0
LINE
  8
0
 10
391.13
 20
155.595
 11
389.882
 21
155.989
  0
LINE
  8
0
 10
389.882
 20
155.989
 11
388.605
 21
156.272
  0
LINE
  8
0
 10
388.605
 20
156.272
 11
387.307
 21
156.443
  0
LINE
  8
0
 10
387.307
 20
156.443
 11
386
 21
156.5
  0
LINE
  8
0
 10
386
 20
156.5
 11
0
 21
156.5
  0
LINE
  8
0
 10
0
 20
156.5
 11
0
 21
0
  0
LINE
  8
0
 10
0
 20
0
 11
401
 21
0
  0
LINE
  8
0
 10
401
 20
0
 11
401
 21
141.5
  0
LINE
  8
0
 10
7.96068
 20
145.829
 11
7.53687
 21
146.051
  0
LINE
  8
0
 10
7.53687
 20
146.051
 11
7.26497
 21
146.445
  0
LINE
  8
0
 10
7.26497
 20
146.445
 11
7.20728
 21
146.921
  0
LINE
  8
0
 10
7.20728
 20
146.921
 11
7.37701
 21
147.368
  0
LINE
  8
0
 10
7.37701
 20
147.368
 11
7.73528
 21
147.685
  0
LINE
  8
0
 10
7.73528
 20
147.685
 11
8.2
 21
147.8
  0
LINE
  8
0
 10
8.2
 20
147.8
 11
8.66472
 21
147.685
  0
LINE
  8
0
 10
8.66472
 20
147.685
 11
9.02298
 21
147.368
  0
LINE
  8
0
 10
9.02298
 20
147.368
 11
9.1927
 21
146.921
  0
LINE
  8
0
 10
9.1927
 20
146.921
 11
9.13501
 21
146.445
  0
LINE
  8
0
 10
9.13501
 20
146.445
 11
8.86311
 21
146.051
  0
LINE
  8
0
 10
8.86311
 20
146.051
 11
8.4393
 21
145.829
  0
LINE
  8
0
 10
8.4393
 20
145.829
 11
7.96068
 21
145.829
  0
LINE
  8
0
 10
7.96068
 20
125.009
 11
7.53687
 21
125.231
  0
LINE
  8
0
 10
7.53687
 20
125.231
 11
7.26497
 21
125.625
  0
LINE
  8
0
 10
7.26497
 20
125.625
 11
7.20728
 21
126.101
  0
LINE
  8
0
 10
7.20728
 20
126.101
 11
7.37701
 21
126.548
  0
LINE
  8
0
 10
7.37701
 20
126.548
 11
7.73528
 21
126.865
  0
LINE
  8
0
 10
7.73528
 20
126.865
 11
8.2
 21
126.98
  0
LINE
  8
0
 10
8.2
 20
126.98
 11
8.66472
 21
126.865
  0
LINE
  8
0
 10
8.66472
 20
126.865
 11
9.02298
 21
126.548
  0
LINE
  8
0
 10
9.02298
 20
126.548
 11
9.1927
 21
126.101
  0
LINE
  8
0
 10
9.1927
 20
126.101
 11
9.13501
 21
125.625
  0
LINE
  8
0
 10
9.13501
 20
125.625
 11
8.86311
 21
125.231
  0
LINE
  8
0
 10
8.86311
 20
125.231
 11
8.4393
 21
125.009
  0
LINE
  8
0
 10
8.4393
 20
125.009
 11
7.96068
 21
125.009
  0
LINE
  8
0
 10
126.26
 20
92.0052
 11
125.795
 21
92.1679
  0
LINE
  8
0
 10
125.795
 20
92.1679
 11
125.378
 21
92.43
  0
LINE
  8
0
 10
125.378
 20
92.43
 11
125.03
 21
92.7783
  0
LINE
  8
0
 10
125.03
 20
92.7783
 11
124.768
 21
93.1954
  0
LINE
  8
0
 10
124.768
 20
93.1954
 11
124.605
 21
93.6604
  0
LINE
  8
0
 10
124.605
 20
93.6604
 11
124.55
 21
94.15
  0
LINE
  8
0
 10
124.55
 20
94.15
 11
124.605
 21
94.6395
  0
LINE
  8
0
 10
124.605
 20
94.6395
 11
124.768
 21
95.1045
  0
LINE
  8
0
 10
124.768
 20
95.1045
 11
125.03
 21
95.5217
  0
LINE
  8
0
 10
125.03
 20
95.5217
 11
125.378
 21
95.87
  0
LINE
  8
0
 10
125.378
 20
95.87
 11
125.795
 21
96.1321
  0
LINE
  8
0
 10
125.795
 20
96.1321
 11
126.26
 21
96.2948
  0
LINE
  8
0
 10
126.26
 20
96.2948
 11
126.75
 21
96.35
  0
LINE
  8
0
 10
126.75
 20
96.35
 11
127.24
 21
96.2948
  0
LINE
  8
0
 10
127.24
 20
96.2948
 11
127.705
 21
96.1321
  0
LINE
  8
0
 10
127.705
 20
96.1321
 11
128.122
 21
95.87
  0
LINE
  8
0
 10
128.122
 20
95.87
 11
128.47
 21
95.5217
  0
LINE
  8
0
 10
128.47
 20
95.5217
 11
128.732
 21
95.1045
  0
LINE
  8
0
 10
128.732
 20
95.1045
 11
128.895
 21
94.6395
  0
LINE
  8
0
 10
128.895
 20
94.6395
 11
128.95
 21
94.15
  0
LINE
  8
0
 10
128.95
 20
94.15
 11
128.895
 21
93.6604
  0
LINE
  8
0
 10
128.895
 20
93.6604
 11
128.732
 21
93.1954
  0
LINE
  8
0
 10
128.732
 20
93.1954
 11
128.47
 21
92.7783
  0
LINE
  8
0
 10
128.47
 20
92.7783
 11
128.122
 21
92.43
  0
LINE
  8
0
 10
128.122
 20
92.43
 11
127.705
 21
92.1679
  0
LINE
  8
0
 10
127.705
 20
92.1679
 11
127.24
 21
92.0052
  0
LINE
  8
0
 10
127.24
 20
92.0052
 11
126.75
 21
91.95
  0
LINE
  8
0
 10
126.75
 20
91.95
 11
126.26
 21
92.0052
  0
LINE
  8
0
 10
54.7605
 20
92.0052
 11
54.2954
 21
92.1679
  0
LINE
  8
0
 10
54.2954
 20
92.1679
 11
53.8783
 21
92.43
  0
LINE
  8
0
 10
53.8783
 20
92.43
 11
53.53
 21
92.7783
  0
LINE
  8
0
 10
53.53
 20
92.7783
 11
53.2679
 21
93.1954
  0
LINE
  8
0
 10
53.2679
 20
93.1954
 11
53.1051
 21
93.6604
  0
LINE
  8
0
 10
53.1051
 20
93.6604
 11
53.05
 21
94.15
  0
LINE
  8
0
 10
53.05
 20
94.15
 11
53.1051
 21
94.6395
  0
LINE
  8
0
 10
53.1051
 20
94.6395
 11
53.2679
 21
95.1045
  0
LINE
  8
0
 10
53.2679
 20
95.1045
 11
53.53
 21
95.5217
  0
LINE
  8
0
 10
53.53
 20
95.5217
 11
53.8783
 21
95.87
  0
LINE
  8
0
 10
53.8783
 20
95.87
 11
54.2954
 21
96.1321
  0
LINE
  8
0
 10
54.2954
 20
96.1321
 11
54.7605
 21
96.2948
  0
LINE
  8
0
 10
54.7605
 20
96.2948
 11
55.25
 21
96.35
  0
LINE
  8
0
 10
55.25
 20
96.35
 11
55.7395
 21
96.2948
  0
LINE
  8
0
 10
55.7395
 20
96.2948
 11
56.2045
 21
96.1321
  0
LINE
  8
0
 10
56.2045
 20
96.1321
 11
56.6217
 21
95.87
  0
LINE
  8
0
 10
56.6217
 20
95.87
 11
56.97
 21
95.5217
  0
LINE
  8
0
 10
56.97
 20
95.5217
 11
57.2321
 21
95.1045
  0
LINE
  8
0
 10
57.2321
 20
95.1045
 11
57.3948
 21
94.6395
  0
LINE
  8
0
 10
57.3948
 20
94.6395
 11
57.45
 21
94.15
  0
LINE
  8
0
 10
57.45
 20
94.15
 11
57.3948
 21
93.6604
  0
LINE
  8
0
 10
57.3948
 20
93.6604
 11
57.2321
 21
93.1954
  0
LINE
  8
0
 10
57.2321
 20
93.1954
 11
56.97
 21
92.7783
  0
LINE
  8
0
 10
56.97
 20
92.7783
 11
56.6217
 21
92.43
  0
LINE
  8
0
 10
56.6217
 20
92.43
 11
56.2045
 21
92.1679
  0
LINE
  8
0
 10
56.2045
 20
92.1679
 11
55.7395
 21
92.0052
  0
LINE
  8
0
 10
55.7395
 20
92.0052
 11
55.25
 21
91.95
  0
LINE
  8
0
 10
55.25
 20
91.95
 11
54.7605
 21
92.0052
  0
LINE
  8
0
 10
87.7317
 20
21.0427
 11
84.4882
 21
21.4697
  0
LINE
  8
0
 10
84.4882
 20
21.4697
 11
81.2943
 21
22.1778
  0
LINE
  8
0
 10
81.2943
 20
22.1778
 11
78.1742
 21
23.1615
  0
LINE
  8
0
 10
78.1742
 20
23.1615
 11
75.1518
 21
24.4135
  0
LINE
  8
0
 10
75.1518
 20
24.4135
 11
72.25
 21
25.924
  0
LINE
  8
0
 10
72.25
 20
25.924
 11
69.4909
 21
27.6818
  0
LINE
  8
0
 10
69.4909
 20
27.6818
 11
66.8955
 21
29.6733
  0
LINE
  8
0
 10
66.8955
 20
29.6733
 11
64.4835
 21
31.8835
  0
LINE
  8
0
 10
64.4835
 20
31.8835
 11
62.2733
 21
34.2955
  0
LINE
  8
0
 10
62.2733
 20
34.2955
 11
60.2818
 21
36.8909
  0
LINE
  8
0
 10
60.2818
 20
36.8909
 11
58.524
 21
39.65
  0
LINE
  8
0
 10
58.524
 20
39.65
 11
57.0134
 21
42.5518
  0
LINE
  8
0
 10
57.0134
 20
42.5518
 11
55.7615
 21
45.5742
  0
LINE
  8
0
 10
55.7615
 20
45.5742
 11
54.7778
 21
48.6943
  0
LINE
  8
0
 10
54.7778
 20
48.6943
 11
54.0697
 21
51.8882
  0
LINE
  8
0
 10
54.0697
 20
51.8882
 11
53.6427
 21
55.1317
  0
LINE
  8
0
 10
53.6427
 20
55.1317
 11
53.5
 21
58.4
  0
LINE
  8
0
 10
53.5
 20
58.4
 11
53.6427
 21
61.6683
  0
LINE
  8
0
 10
53.6427
 20
61.6683
 11
54.0697
 21
64.9118
  0
LINE
  8
0
 10
54.0697
 20
64.9118
 11
54.7778
 21
68.1057
  0
LINE
  8
0
 10
54.7778
 20
68.1057
 11
55.7615
 21
71.2258
  0
LINE
  8
0
 10
55.7615
 20
71.2258
 11
57.0134
 21
74.2482
  0
LINE
  8
0
 10
57.0134
 20
74.2482
 11
58.524
 21
77.15
  0
LINE
  8
0
 10
58.524
 20
77.15
 11
60.2818
 21
79.9091
  0
LINE
  8
0
 10
60.2818
 20
79.9091
 11
62.2733
 21
82.5045
  0
LINE
  8
0
 10
62.2733
 20
82.5045
 11
64.4835
 21
84.9165
  0
LINE
  8
0
 10
64.4835
 20
84.9165
 11
66.8955
 21
87.1267
  0
LINE
  8
0
 10
66.8955
 20
87.1267
 11
69.4909
 21
89.1182
  0
LINE
  8
0
 10
69.4909
 20
89.1182
 11
72.25
 21
90.8759
  0
LINE
  8
0
 10
72.25
 20
90.8759
 11
75.1518
 21
92.3865
  0
LINE
  8
0
 10
75.1518
 20
92.3865
 11
78.1742
 21
93.6385
  0
LINE
  8
0
 10
78.1742
 20
93.6385
 11
81.2943
 21
94.6222
  0
LINE
  8
0
 10
81.2943
 20
94.6222
 11
84.4882
 21
95.3303
  0
LINE
  8
0
 10
84.4882
 20
95.3303
 11
87.7317
 21
95.7573
  0
LINE
  8
0
 10
87.7317
 20
95.7573
 11
91
 21
95.9
  0
LINE
  8
0
 10
91
 20
95.9
 11
94.2683
 21
95.7573
  0
LINE
  8
0
 10
94.2683
 20
95.7573
 11
97.5118
 21
95.3303
  0
LINE
  8
0
 10
97.5118
 20
95.3303
 11
100.706
 21
94.6222
  0
LINE
  8
0
 10
100.706
 20
94.6222
 11
103.826
 21
93.6385
  0
LINE
  8
0
 10
103.826
 20
93.6385
 11
106.848
 21
92.3865
  0
LINE
  8
0
 10
106.848
 20
92.3865
 11
109.75
 21
90.8759
  0
LINE
  8
0
 10
109.75
 20
90.8759
 11
112.509
 21
89.1182
  0
LINE
  8
0
 10
112.509
 20
89.1182
 11
115.105
 21
87.1267
  0
LINE
  8
0
 10
115.105
 20
87.1267
 11
117.516
 21
84.9165
  0
LINE
  8
0
 10
117.516
 20
84.9165
 11
119.727
 21
82.5045
  0
LINE
  8
0
 10
119.727
 20
82.5045
 11
121.718
 21
79.9091
  0
LINE
  8
0
 10
121.718
 20
79.9091
 11
123.476
 21
77.15
  0
LINE
  8
0
 10
123.476
 20
77.15
 11
124.987
 21
74.2482
  0
LINE
  8
0
 10
124.987
 20
74.2482
 11
126.238
 21
71.2258
  0
LINE
  8
0
 10
126.238
 20
71.2258
 11
127.222
 21
68.1057
  0
LINE
  8
0
 10
127.222
 20
68.1057
 11
127.93
 21
64.9118
  0
LINE
  8
0
 10
127.93
 20
64.9118
 11
128.357
 21
61.6683
  0
LINE
  8
0
 10
128.357
 20
61.6683
 11
128.5
 21
58.4
  0
LINE
  8
0
 10
128.5
 20
58.4
 11
128.357
 21
55.1317
  0
LINE
  8
0
 10
128.357
 20
55.1317
 11
127.93
 21
51.8882
  0
LINE
  8
0
 10
127.93
 20
51.8882
 11
127.222
 21
48.6943
  0
LINE
  8
0
 10
127.222
 20
48.6943
 11
126.238
 21
45.5742
  0
LINE
  8
0
 10
126.238
 20
45.5742
 11
124.987
 21
42.5518
  0
LINE
  8
0
 10
124.987
 20
42.5518
 11
123.476
 21
39.65
  0
LINE
  8
0
 10
123.476
 20
39.65
 11
121.718
 21
36.8909
  0
LINE
  8
0
 10
121.718
 20
36.8909
 11
119.727
 21
34.2955
  0
LINE
  8
0
 10
119.727
 20
34.2955
 11
117.516
 21
31.8835
  0
LINE
  8
0
 10
117.516
 20
31.8835
 11
115.105
 21
29.6733
  0
LINE
  8
0
 10
115.105
 20
29.6733
 11
112.509
 21
27.6818
  0
LINE
  8
0
 10
112.509
 20
27.6818
 11
109.75
 21
25.924
  0
LINE
  8
0
 10
109.75
 20
25.924
 11
106.848
 21
24.4135
  0
LINE
  8
0
 10
106.848
 20
24.4135
 11
103.826
 21
23.1615
  0
LINE
  8
0
 10
103.826
 20
23.1615
 11
100.706
 21
22.1778
  0
LINE
  8
0
 10
100.706
 20
22.1778
 11
97.5118
 21
21.4697
  0
LINE
  8
0
 10
97.5118
 20
21.4697
 11
94.2683
 21
21.0427
  0
LINE
  8
0
 10
94.2683
 20
21.0427
 11
91
 21
20.9
  0
LINE
  8
0
 10
91
 20
20.9
 11
87.7317
 21
21.0427
  0
LINE
  8
0
 10
283.944
 20
88.077
 11
283.626
 21
88.4353
  0
LINE
  8
0
 10
283.626
 20
88.4353
 11
283.512
 21
88.9
  0
LINE
  8
0
 10
283.512
 20
88.9
 11
283.626
 21
89.3647
  0
LINE
  8
0
 10
283.626
 20
89.3647
 11
283.944
 21
89.723
  0
LINE
  8
0
 10
283.944
 20
89.723
 11
284.391
 21
89.8927
  0
LINE
  8
0
 10
284.391
 20
89.8927
 11
284.866
 21
89.835
  0
LINE
  8
0
 10
284.866
 20
89.835
 11
285.26
 21
89.5631
  0
LINE
  8
0
 10
285.26
 20
89.5631
 11
285.483
 21
89.1393
  0
LINE
  8
0
 10
285.483
 20
89.1393
 11
285.483
 21
88.6607
  0
LINE
  8
0
 10
285.483
 20
88.6607
 11
285.26
 21
88.2369
  0
LINE
  8
0
 10
285.26
 20
88.2369
 11
284.866
 21
87.965
  0
LINE
  8
0
 10
284.866
 20
87.965
 11
284.391
 21
87.9073
  0
LINE
  8
0
 10
284.391
 20
87.9073
 11
283.944
 21
88.077
  0
LINE
  8
0
 10
54.7605
 20
20.5052
 11
54.2954
 21
20.6679
  0
LINE
  8
0
 10
54.2954
 20
20.6679
 11
53.8783
 21
20.93
  0
LINE
  8
0
 10
53.8783
 20
20.93
 11
53.53
 21
21.2783
  0
LINE
  8
0
 10
53.53
 20
21.2783
 11
53.2679
 21
21.6954
  0
LINE
  8
0
 10
53.2679
 20
21.6954
 11
53.1051
 21
22.1604
  0
LINE
  8
0
 10
53.1051
 20
22.1604
 11
53.05
 21
22.65
  0
LINE
  8
0
 10
53.05
 20
22.65
 11
53.1051
 21
23.1395
  0
LINE
  8
0
 10
53.1051
 20
23.1395
 11
53.2679
 21
23.6045
  0
LINE
  8
0
 10
53.2679
 20
23.6045
 11
53.53
 21
24.0217
  0
LINE
  8
0
 10
53.53
 20
24.0217
 11
53.8783
 21
24.37
  0
LINE
  8
0
 10
53.8783
 20
24.37
 11
54.2954
 21
24.6321
  0
LINE
  8
0
 10
54.2954
 20
24.6321
 11
54.7605
 21
24.7948
  0
LINE
  8
0
 10
54.7605
 20
24.7948
 11
55.25
 21
24.85
  0
LINE
  8
0
 10
55.25
 20
24.85
 11
55.7395
 21
24.7948
  0
LINE
  8
0
 10
55.7395
 20
24.7948
 11
56.2045
 21
24.6321
  0
LINE
  8
0
 10
56.2045
 20
24.6321
 11
56.6217
 21
24.37
  0
LINE
  8
0
 10
56.6217
 20
24.37
 11
56.97
 21
24.0217
  0
LINE
  8
0
 10
56.97
 20
24.0217
 11
57.2321
 21
23.6045
  0
LINE
  8
0
 10
57.2321
 20
23.6045
 11
57.3948
 21
23.1395
  0
LINE
  8
0
 10
57.3948
 20
23.1395
 11
57.45
 21
22.65
  0
LINE
  8
0
 10
57.45
 20
22.65
 11
57.3948
 21
22.1604
  0
LINE
  8
0
 10
57.3948
 20
22.1604
 11
57.2321
 21
21.6954
  0
LINE
  8
0
 10
57.2321
 20
21.6954
 11
56.97
 21
21.2783
  0
LINE
  8
0
 10
56.97
 20
21.2783
 11
56.6217
 21
20.93
  0
LINE
  8
0
 10
56.6217
 20
20.93
 11
56.2045
 21
20.6679
  0
LINE
  8
0
 10
56.2045
 20
20.6679
 11
55.7395
 21
20.5052
  0
LINE
  8
0
 10
55.7395
 20
20.5052
 11
55.25
 21
20.45
  0
LINE
  8
0
 10
55.25
 20
20.45
 11
54.7605
 21
20.5052
  0
LINE
  8
0
 10
126.26
 20
20.5052
 11
125.795
 21
20.6679
  0
LINE
  8
0
 10
125.795
 20
20.6679
 11
125.378
 21
20.93
  0
LINE
  8
0
 10
125.378
 20
20.93
 11
125.03
 21
21.2783
  0
LINE
  8
0
 10
125.03
 20
21.2783
 11
124.768
 21
21.6954
  0
LINE
  8
0
 10
124.768
 20
21.6954
 11
124.605
 21
22.1604
  0
LINE
  8
0
 10
124.605
 20
22.1604
 11
124.55
 21
22.65
  0
LINE
  8
0
 10
124.55
 20
22.65
 11
124.605
 21
23.1395
  0
LINE
  8
0
 10
124.605
 20
23.1395
 11
124.768
 21
23.6045
  0
LINE
  8
0
 10
124.768
 20
23.6045
 11
125.03
 21
24.0217
  0
LINE
  8
0
 10
125.03
 20
24.0217
 11
125.378
 21
24.37
  0
LINE
  8
0
 10
125.378
 20
24.37
 11
125.795
 21
24.6321
  0
LINE
  8
0
 10
125.795
 20
24.6321
 11
126.26
 21
24.7948
  0
LINE
  8
0
 10
126.26
 20
24.7948
 11
126.75
 21
24.85
  0
LINE
  8
0
 10
126.75
 20
24.85
 11
127.24
 21
24.7948
  0
LINE
  8
0
 10
127.24
 20
24.7948
 11
127.705
 21
24.6321
  0
LINE
  8
0
 10
127.705
 20
24.6321
 11
128.122
 21
24.37
  0
LINE
  8
0
 10
128.122
 20
24.37
 11
128.47
 21
24.0217
  0
LINE
  8
0
 10
128.47
 20
24.0217
 11
128.732
 21
23.6045
  0
LINE
  8
0
 10
128.732
 20
23.6045
 11
128.895
 21
23.1395
  0
LINE
  8
0
 10
128.895
 20
23.1395
 11
128.95
 21
22.65
  0
LINE
  8
0
 10
128.95
 20
22.65
 11
128.895
 21
22.1604
  0
LINE
  8
0
 10
128.895
 20
22.1604
 11
128.732
 21
21.6954
  0
LINE
  8
0
 10
128.732
 20
21.6954
 11
128.47
 21
21.2783
  0
LINE
  8
0
 10
128.47
 20
21.2783
 11
128.122
 21
20.93
  0
LINE
  8
0
 10
128.122
 20
20.93
 11
127.705
 21
20.6679
  0
LINE
  8
0
 10
127.705
 20
20.6679
 11
127.24
 21
20.5052
  0
LINE
  8
0
 10
127.24
 20
20.5052
 11
126.75
 21
20.45
  0
LINE
  8
0
 10
126.75
 20
20.45
 11
126.26
 21
20.5052
  0
LINE
  8
0
 10
329.232
 20
5.01024
 11
328.744
 21
5.0918
  0
LINE
  8
0
 10
328.744
 20
5.0918
 11
328.275
 21
5.25267
  0
LINE
  8
0
 10
328.275
 20
5.25267
 11
327.839
 21
5.48849
  0
LINE
  8
0
 10
327.839
 20
5.48849
 11
327.448
 21
5.79282
  0
LINE
  8
0
 10
327.448
 20
5.79282
 11
327.113
 21
6.15735
  0
LINE
  8
0
 10
327.113
 20
6.15735
 11
326.842
 21
6.57214
  0
LINE
  8
0
 10
326.842
 20
6.57214
 11
326.643
 21
7.02589
  0
LINE
  8
0
 10
326.643
 20
7.02589
 11
326.521
 21
7.50621
  0
LINE
  8
0
 10
326.521
 20
7.50621
 11
326.48
 21
8
  0
LINE
  8
0
 10
326.48
 20
8
 11
326.521
 21
8.49377
  0
LINE
  8
0
 10
326.521
 20
8.49377
 11
326.643
 21
8.97409
  0
LINE
  8
0
 10
326.643
 20
8.97409
 11
326.842
 21
9.42784
  0
LINE
  8
0
 10
326.842
 20
9.42784
 11
327.113
 21
9.84264
  0
LINE
  8
0
 10
327.113
 20
9.84264
 11
327.448
 21
10.2072
  0
LINE
  8
0
 10
327.448
 20
10.2072
 11
327.839
 21
10.5115
  0
LINE
  8
0
 10
327.839
 20
10.5115
 11
328.275
 21
10.7473
  0
LINE
  8
0
 10
328.275
 20
10.7473
 11
328.744
 21
10.9082
  0
LINE
  8
0
 10
328.744
 20
10.9082
 11
329.232
 21
10.9897
  0
LINE
  8
0
 10
329.232
 20
10.9897
 11
329.728
 21
10.9897
  0
LINE
  8
0
 10
329.728
 20
10.9897
 11
330.216
 21
10.9082
  0
LINE
  8
0
 10
330.216
 20
10.9082
 11
330.685
 21
10.7473
  0
LINE
  8
0
 10
330.685
 20
10.7473
 11
331.121
 21
10.5115
  0
LINE
  8
0
 10
331.121
 20
10.5115
 11
331.512
 21
10.2072
  0
LINE
  8
0
 10
331.512
 20
10.2072
 11
331.847
 21
9.84264
  0
LINE
  8
0
 10
331.847
 20
9.84264
 11
332.118
 21
9.42784
  0
LINE
  8
0
 10
332.118
 20
9.42784
 11
332.317
 21
8.97409
  0
LINE
  8
0
 10
332.317
 20
8.97409
 11
332.439
 21
8.49377
  0
LINE
  8
0
 10
332.439
 20
8.49377
 11
332.48
 21
8
  0
LINE
  8
0
 10
332.48
 20
8
 11
332.439
 21
7.50621
  0
LINE
  8
0
 10
332.439
 20
7.50621
 11
332.317
 21
7.02589
  0
LINE
  8
0
 10
332.317
 20
7.02589
 11
332.118
 21
6.57214
  0
LINE
  8
0
 10
332.118
 20
6.57214
 11
331.847
 21
6.15735
  0
LINE
  8
0
 10
331.847
 20
6.15735
 11
331.512
 21
5.79282
  0
LINE
  8
0
 10
331.512
 20
5.79282
 11
331.121
 21
5.48849
  0
LINE
  8
0
 10
331.121
 20
5.48849
 11
330.685
 21
5.25267
  0
LINE
  8
0
 10
330.685
 20
5.25267
 11
330.216
 21
5.0918
  0
LINE
  8
0
 10
330.216
 20
5.0918
 11
329.728
 21
5.01024
  0
LINE
  8
0
 10
329.728
 20
5.01024
 11
329.232
 21
5.01024
  0
LINE
  8
0
 10
46.3519
 20
7.37701
 11
46.0345
 21
7.73528
  0
LINE
  8
0
 10
46.0345
 20
7.73528
 11
45.92
 21
8.2
  0
LINE
  8
0
 10
45.92
 20
8.2
 11
46.0345
 21
8.66472
  0
LINE
  8
0
 10
46.0345
 20
8.66472
 11
46.3519
 21
9.02298
  0
LINE
  8
0
 10
46.3519
 20
9.02298
 11
46.7995
 21
9.1927
  0
LINE
  8
0
 10
46.7995
 20
9.1927
 11
47.2746
 21
9.13501
  0
LINE
  8
0
 10
47.2746
 20
9.13501
 11
47.6685
 21
8.86311
  0
LINE
  8
0
 10
47.6685
 20
8.86311
 11
47.8909
 21
8.4393
  0
LINE
  8
0
 10
47.8909
 20
8.4393
 11
47.8909
 21
7.96068
  0
LINE
  8
0
 10
47.8909
 20
7.96068
 11
47.6685
 21
7.53687
  0
LINE
  8
0
 10
47.6685
 20
7.53687
 11
47.2746
 21
7.26497
  0
LINE
  8
0
 10
47.2746
 20
7.26497
 11
46.7995
 21
7.20728
  0
LINE
  8
0
 10
46.7995
 20
7.20728
 11
46.3519
 21
7.37701
  0
LINE
  8
0
 10
353.512
 20
7.37701
 11
353.195
 21
7.73528
  0
LINE
  8
0
 10
353.195
 20
7.73528
 11
353.08
 21
8.2
  0
LINE
  8
0
 10
353.08
 20
8.2
 11
353.195
 21
8.66472
  0
LINE
  8
0
 10
353.195
 20
8.66472
 11
353.512
 21
9.02298
  0
LINE
  8
0
 10
353.512
 20
9.02298
 11
353.959
 21
9.1927
  0
LINE
  8
0
 10
353.959
 20
9.1927
 11
354.435
 21
9.13501
  0
LINE
  8
0
 10
354.435
 20
9.13501
 11
354.829
 21
8.86311
  0
LINE
  8
0
 10
354.829
 20
8.86311
 11
355.051
 21
8.4393
  0
LINE
  8
0
 10
355.051
 20
8.4393
 11
355.051
 21
7.96068
  0
LINE
  8
0
 10
355.051
 20
7.96068
 11
354.829
 21
7.53687
  0
LINE
  8
0
 10
354.829
 20
7.53687
 11
354.435
 21
7.26497
  0
LINE
  8
0
 10
354.435
 20
7.26497
 11
353.959
 21
7.20729
  0
LINE
  8
0
 10
353.959
 20
7.20729
 11
353.512
 21
7.37701
  0
LINE
  8
0
 10
374.332
 20
7.37701
 11
374.015
 21
7.73528
  0
LINE
  8
0
 10
374.015
 20
7.73528
 11
373.9
 21
8.2
  0
LINE
  8
0
 10
373.9
 20
8.2
 11
374.015
 21
8.66472
  0
LINE
  8
0
 10
374.015
 20
8.66472
 11
374.332
 21
9.02298
  0
LINE
  8
0
 10
374.332
 20
9.02298
 11
374.779
 21
9.1927
  0
LINE
  8
0
 10
374.779
 20
9.1927
 11
375.255
 21
9.13501
  0
LINE
  8
0
 10
375.255
 20
9.13501
 11
375.648
 21
8.86311
  0
LINE
  8
0
 10
375.648
 20
8.86311
 11
375.871
 21
8.4393
  0
LINE
  8
0
 10
375.871
 20
8.4393
 11
375.871
 21
7.96068
  0
LINE
  8
0
 10
375.871
 20
7.96068
 11
375.648
 21
7.53687
  0
LINE
  8
0
 10
375.648
 20
7.53687
 11
375.255
 21
7.26497
  0
LINE
  8
0
 10
375.255
 20
7.26497
 11
374.779
 21
7.20728
  0
LINE
  8
0
 10
374.779
 20
7.20728
 11
374.332
 21
7.37701
  0
LINE
  8
0
 10
25.5319
 20
7.37701
 11
25.2145
 21
7.73528
  0
LINE
  8
0
 10
25.2145
 20
7.73528
 11
25.1
 21
8.2
  0
LINE
  8
0
 10
25.1
 20
8.2
 11
25.2145
 21
8.66472
  0
LINE
  8
0
 10
25.2145
 20
8.66472
 11
25.5319
 21
9.02298
  0
LINE
  8
0
 10
25.5319
 20
9.02298
 11
25.9795
 21
9.1927
  0
LINE
  8
0
 10
25.9795
 20
9.1927
 11
26.4546
 21
9.13501
  0
LINE
  8
0
 10
26.4546
 20
9.13501
 11
26.8485
 21
8.86311
  0
LINE
  8
0
 10
26.8485
 20
8.86311
 11
27.0709
 21
8.4393
  0
LINE
  8
0
 10
27.0709
 20
8.4393
 11
27.0709
 21
7.96068
  0
LINE
  8
0
 10
27.0709
 20
7.96068
 11
26.8485
 21
7.53687
  0
LINE
  8
0
 10
26.8485
 20
7.53687
 11
26.4546
 21
7.26497
  0
LINE
  8
0
 10
26.4546
 20
7.26497
 11
25.9795
 21
7.20729
  0
LINE
  8
0
 10
25.9795
 20
7.20729
 11
25.5319
 21
7.37701
  0
LINE
  8
0
 10
340.739
 20
5.01457
 11
340.271
 21
5.12996
  0
LINE
  8
0
 10
340.271
 20
5.12996
 11
339.844
 21
5.35402
  0
LINE
  8
0
 10
339.844
 20
5.35402
 11
339.483
 21
5.67375
  0
LINE
  8
0
 10
339.483
 20
5.67375
 11
339.209
 21
6.07054
  0
LINE
  8
0
 10
339.209
 20
6.07054
 11
339.038
 21
6.52136
  0
LINE
  8
0
 10
339.038
 20
6.52136
 11
338.98
 21
7
  0
LINE
  8
0
 10
338.98
 20
7
 11
339.038
 21
7.47862
  0
LINE
  8
0
 10
339.038
 20
7.47862
 11
339.209
 21
7.92944
  0
LINE
  8
0
 10
339.209
 20
7.92944
 11
339.483
 21
8.32623
  0
LINE
  8
0
 10
339.483
 20
8.32623
 11
339.844
 21
8.64597
  0
LINE
  8
0
 10
339.844
 20
8.64597
 11
340.271
 21
8.87003
  0
LINE
  8
0
 10
340.271
 20
8.87003
 11
340.739
 21
8.98541
  0
LINE
  8
0
 10
340.739
 20
8.98541
 11
341.221
 21
8.98541
  0
LINE
  8
0
 10
341.221
 20
8.98541
 11
341.689
 21
8.87003
  0
LINE
  8
0
 10
341.689
 20
8.87003
 11
342.116
 21
8.64597
  0
LINE
  8
0
 10
342.116
 20
8.64597
 11
342.477
 21
8.32623
  0
LINE
  8
0
 10
342.477
 20
8.32623
 11
342.751
 21
7.92944
  0
LINE
  8
0
 10
342.751
 20
7.92944
 11
342.922
 21
7.47862
  0
LINE
  8
0
 10
342.922
 20
7.47862
 11
342.98
 21
6.99998
  0
LINE
  8
0
 10
342.98
 20
6.99998
 11
342.922
 21
6.52136
  0
LINE
  8
0
 10
342.922
 20
6.52136
 11
342.751
 21
6.07054
  0
LINE
  8
0
 10
342.751
 20
6.07054
 11
342.477
 21
5.67375
  0
LINE
  8
0
 10
342.477
 20
5.67375
 11
342.116
 21
5.35402
  0
LINE
  8
0
 10
342.116
 20
5.35402
 11
341.689
 21
5.12996
  0
LINE
  8
0
 10
341.689
 20
5.12996
 11
341.221
 21
5.01457
  0
LINE
  8
0
 10
341.221
 20
5.01457
 11
340.739
 21
5.01457
  0
LINE
  8
0
 10
387.307
 20
-160.443
 11
388.605
 21
-160.272
  0
LINE
  8
0
 10
388.605
 20
-160.272
 11
389.882
 21
-159.989
  0
LINE
  8
0
 10
389.882
 20
-159.989
 11
391.13
 21
-159.595
  0
LINE
  8
0
 10
391.13
 20
-159.595
 11
392.339
 21
-159.095
  0
LINE
  8
0
 10
392.339
 20
-159.095
 11
393.5
 21
-158.49
  0
LINE
  8
0
 10
393.5
 20
-158.49
 11
394.604
 21
-157.787
  0
LINE
  8
0
 10
394.604
 20
-157.787
 11
395.642
 21
-156.991
  0
LINE
  8
0
 10
395.642
 20
-156.991
 11
396.607
 21
-156.107
  0
LINE
  8
0
 10
396.607
 20
-156.107
 11
397.491
 21
-155.142
  0
LINE
  8
0
 10
397.491
 20
-155.142
 11
398.287
 21
-154.104
  0
LINE
  8
0
 10
398.287
 20
-154.104
 11
398.99
 21
-153
  0
LINE
  8
0
 10
398.99
 20
-153
 11
399.595
 21
-151.839
  0
LINE
  8
0
 10
399.595
 20
-151.839
 11
400.095
 21
-150.63
  0
LINE
  8
0
 10
400.095
 20
-150.63
 11
400.489
 21
-149.382
  0
LINE
  8
0
 10
400.489
 20
-149.382
 11
400.772
 21
-148.105
  0
LINE
  8
0
 10
400.772
 20
-148.105
 11
400.943
 21
-146.807
  0
LINE
  8
0
 10
400.943
 20
-146.807
 11
401
 21
-145.5
  0
LINE
  8
0
 10
401
 20
-145.5
 11
401
 21
-4
  0
LINE
  8
0
 10
401
 20
-4
 11
0
 21
-4
  0
LINE
  8
0
 10
0
 20
-4
 11
0
 21
-160.5
  0
LINE
  8
0
 10
0
 20
-160.5
 11
386
 21
-160.5
  0
LINE
  8
0
 10
386
 20
-160.5
 11
387.307
 21
-160.443
  0
LINE
  8
0
 10
329.232
 20
-14.9897
 11
328.744
 21
-14.9082
  0
LINE
  8
0
 10
328.744
 20
-14.9082
 11
328.275
 21
-14.7473
  0
LINE
  8
0
 10
328.275
 20
-14.7473
 11
327.839
 21
-14.5115
  0
LINE
  8
0
 10
327.839
 20
-14.5115
 11
327.448
 21
-14.2072
  0
LINE
  8
0
 10
327.448
 20
-14.2072
 11
327.113
 21
-13.8426
  0
LINE
  8
0
 10
327.113
 20
-13.8426
 11
326.842
 21
-13.4278
  0
LINE
  8
0
 10
326.842
 20
-13.4278
 11
326.643
 21
-12.9741
  0
LINE
  8
0
 10
326.643
 20
-12.9741
 11
326.521
 21
-12.4938
  0
LINE
  8
0
 10
326.521
 20
-12.4938
 11
326.48
 21
-12
  0
LINE
  8
0
 10
326.48
 20
-12
 11
326.521
 21
-11.5062
  0
LINE
  8
0
 10
326.521
 20
-11.5062
 11
326.643
 21
-11.0259
  0
LINE
  8
0
 10
326.643
 20
-11.0259
 11
326.842
 21
-10.5721
  0
LINE
  8
0
 10
326.842
 20
-10.5721
 11
327.113
 21
-10.1573
  0
LINE
  8
0
 10
327.113
 20
-10.1573
 11
327.448
 21
-9.79282
  0
LINE
  8
0
 10
327.448
 20
-9.79282
 11
327.839
 21
-9.48849
  0
LINE
  8
0
 10
327.839
 20
-9.48849
 11
328.275
 21
-9.25267
  0
LINE
  8
0
 10
328.275
 20
-9.25267
 11
328.744
 21
-9.0918
  0
LINE
  8
0
 10
328.744
 20
-9.0918
 11
329.232
 21
-9.01024
  0
LINE
  8
0
 10
329.232
 20
-9.01024
 11
329.728
 21
-9.01024
  0
LINE
  8
0
 10
329.728
 20
-9.01024
 11
330.216
 21
-9.0918
  0
LINE
  8
0
 10
330.216
 20
-9.0918
 11
330.685
 21
-9.25267
  0
LINE
  8
0
 10
330.685
 20
-9.25267
 11
331.121
 21
-9.48849
  0
LINE
  8
0
 10
331.121
 20
-9.48849
 11
331.512
 21
-9.79282
  0
LINE
  8
0
 10
331.512
 20
-9.79282
 11
331.847
 21
-10.1573
  0
LINE
  8
0
 10
331.847
 20
-10.1573
 11
332.118
 21
-10.5721
  0
LINE
  8
0
 10
332.118
 20
-10.5721
 11
332.317
 21
-11.0259
  0
LINE
  8
0
 10
332.317
 20
-11.0259
 11
332.439
 21
-11.5062
  0
LINE
  8
0
 10
332.439
 20
-11.5062
 11
332.48
 21
-12
  0
LINE
  8
0
 10
332.48
 20
-12
 11
332.439
 21
-12.4938
  0
LINE
  8
0
 10
332.439
 20
-12.4938
 11
332.317
 21
-12.9741
  0
LINE
  8
0
 10
332.317
 20
-12.9741
 11
332.118
 21
-13.4278
  0
LINE
  8
0
 10
332.118
 20
-13.4278
 11
331.847
 21
-13.8426
  0
LINE
  8
0
 10
331.847
 20
-13.8426
 11
331.512
 21
-14.2072
  0
LINE
  8
0
 10
331.512
 20
-14.2072
 11
331.121
 21
-14.5115
  0
LINE
  8
0
 10
331.121
 20
-14.5115
 11
330.685
 21
-14.7473
  0
LINE
  8
0
 10
330.685
 20
-14.7473
 11
330.216
 21
-14.9082
  0
LINE
  8
0
 10
330.216
 20
-14.9082
 11
329.728
 21
-14.9897
  0
LINE
  8
0
 10
329.728
 20
-14.9897
 11
329.232
 21
-14.9897
  0
LINE
  8
0
 10
340.739
 20
-12.9854
 11
340.271
 21
-12.87
  0
LINE
  8
0
 10
340.271
 20
-12.87
 11
339.844
 21
-12.646
  0
LINE
  8
0
 10
339.844
 20
-12.646
 11
339.483
 21
-12.3262
  0
LINE
  8
0
 10
339.483
 20
-12.3262
 11
339.209
 21
-11.9294
  0
LINE
  8
0
 10
339.209
 20
-11.9294
 11
339.038
 21
-11.4786
  0
LINE
  8
0
 10
339.038
 20
-11.4786
 11
338.98
 21
-11
  0
LINE
  8
0
 10
338.98
 20
-11
 11
339.038
 21
-10.5214
  0
LINE
  8
0
 10
339.038
 20
-10.5214
 11
339.209
 21
-10.0705
  0
LINE
  8
0
 10
339.209
 20
-10.0705
 11
339.483
 21
-9.67375
  0
LINE
  8
0
 10
339.483
 20
-9.67375
 11
339.844
 21
-9.35402
  0
LINE
  8
0
 10
339.844
 20
-9.35402
 11
340.271
 21
-9.12996
  0
LINE
  8
0
 10
340.271
 20
-9.12996
 11
340.739
 21
-9.01457
  0
LINE
  8
0
 10
340.739
 20
-9.01457
 11
341.221
 21
-9.01457
  0
LINE
  8
0
 10
341.221
 20
-9.01457
 11
341.689
 21
-9.12996
  0
LINE
  8
0
 10
341.689
 20
-9.12996
 11
342.116
 21
-9.35402
  0
LINE
  8
0
 10
342.116
 20
-9.35402
 11
342.477
 21
-9.67375
  0
LINE
  8
0
 10
342.477
 20
-9.67375
 11
342.751
 21
-10.0705
  0
LINE
  8
0
 10
342.751
 20
-10.0705
 11
342.922
 21
-10.5214
  0
LINE
  8
0
 10
342.922
 20
-10.5214
 11
342.98
 21
-11
  0
LINE
  8
0
 10
342.98
 20
-11
 11
342.922
 21
-11.4786
  0
LINE
  8
0
 10
342.922
 20
-11.4786
 11
342.751
 21
-11.9294
  0
LINE
  8
0
 10
342.751
 20
-11.9294
 11
342.477
 21
-12.3262
  0
LINE
  8
0
 10
342.477
 20
-12.3262
 11
342.116
 21
-12.646
  0
LINE
  8
0
 10
342.116
 20
-12.646
 11
341.689
 21
-12.87
  0
LINE
  8
0
 10
341.689
 20
-12.87
 11
341.221
 21
-12.9854
  0
LINE
  8
0
 10
341.221
 20
-12.9854
 11
340.739
 21
-12.9854
  0
LINE
  8
0
 10
374.545
 20
-13.135
 11
374.151
 21
-12.8631
  0
LINE
  8
0
 10
374.151
 20
-12.8631
 11
373.929
 21
-12.4393
  0
LINE
  8
0
 10
373.929
 20
-12.4393
 11
373.929
 21
-11.9607
  0
LINE
  8
0
 10
373.929
 20
-11.9607
 11
374.151
 21
-11.5369
  0
LINE
  8
0
 10
374.151
 20
-11.5369
 11
374.545
 21
-11.265
  0
LINE
  8
0
 10
374.545
 20
-11.265
 11
375.021
 21
-11.2073
  0
LINE
  8
0
 10
375.021
 20
-11.2073
 11
375.468
 21
-11.377
  0
LINE
  8
0
 10
375.468
 20
-11.377
 11
375.785
 21
-11.7353
  0
LINE
  8
0
 10
375.785
 20
-11.7353
 11
375.9
 21
-12.2
  0
LINE
  8
0
 10
375.9
 20
-12.2
 11
375.785
 21
-12.6647
  0
LINE
  8
0
 10
375.785
 20
-12.6647
 11
375.468
 21
-13.023
  0
LINE
  8
0
 10
375.468
 20
-13.023
 11
375.021
 21
-13.1927
  0
LINE
  8
0
 10
375.021
 20
-13.1927
 11
374.545
 21
-13.135
  0
LINE
  8
0
 10
46.5654
 20
-13.135
 11
46.1715
 21
-12.8631
  0
LINE
  8
0
 10
46.1715
 20
-12.8631
 11
45.9491
 21
-12.4393
  0
LINE
  8
0
 10
45.9491
 20
-12.4393
 11
45.9491
 21
-11.9607
  0
LINE
  8
0
 10
45.9491
 20
-11.9607
 11
46.1715
 21
-11.5369
  0
LINE
  8
0
 10
46.1715
 20
-11.5369
 11
46.5654
 21
-11.265
  0
LINE
  8
0
 10
46.5654
 20
-11.265
 11
47.0405
 21
-11.2073
  0
LINE
  8
0
 10
47.0405
 20
-11.2073
 11
47.4881
 21
-11.377
  0
LINE
  8
0
 10
47.4881
 20
-11.377
 11
47.8055
 21
-11.7353
  0
LINE
  8
0
 10
47.8055
 20
-11.7353
 11
47.92
 21
-12.2
  0
LINE
  8
0
 10
47.92
 20
-12.2
 11
47.8055
 21
-12.6647
  0
LINE
  8
0
 10
47.8055
 20
-12.6647
 11
47.4881
 21
-13.023
  0
LINE
  8
0
 10
47.4881
 20
-13.023
 11
47.0405
 21
-13.1927
  0
LINE
  8
0
 10
47.0405
 20
-13.1927
 11
46.5654
 21
-13.135
  0
LINE
  8
0
 10
25.7454
 20
-13.135
 11
25.3515
 21
-12.8631
  0
LINE
  8
0
 10
25.3515
 20
-12.8631
 11
25.129
 21
-12.4393
  0
LINE
  8
0
 10
25.129
 20
-12.4393
 11
25.129
 21
-11.9607
  0
LINE
  8
0
 10
25.129
 20
-11.9607
 11
25.3515
 21
-11.5369
  0
LINE
  8
0
 10
25.3515
 20
-11.5369
 11
25.7454
 21
-11.265
  0
LINE
  8
0
 10
25.7454
 20
-11.265
 11
26.2205
 21
-11.2073
  0
LINE
  8
0
 10
26.2205
 20
-11.2073
 11
26.6681
 21
-11.377
  0
LINE
  8
0
 10
26.6681
 20
-11.377
 11
26.9854
 21
-11.7353
  0
LINE
  8
0
 10
26.9854
 20
-11.7353
 11
27.1
 21
-12.2
  0
LINE
  8
0
 10
27.1
 20
-12.2
 11
26.9854
 21
-12.6647
  0
LINE
  8
0
 10
26.9854
 20
-12.6647
 11
26.6681
 21
-13.023
  0
LINE
  8
0
 10
26.6681
 20
-13.023
 11
26.2205
 21
-13.1927
  0
LINE
  8
0
 10
26.2205
 20
-13.1927
 11
25.7454
 21
-13.135
  0
LINE
  8
0
 10
353.725
 20
-13.135
 11
353.331
 21
-12.8631
  0
LINE
  8
0
 10
353.331
 20
-12.8631
 11
353.109
 21
-12.4393
  0
LINE
  8
0
 10
353.109
 20
-12.4393
 11
353.109
 21
-11.9607
  0
LINE
  8
0
 10
353.109
 20
-11.9607
 11
353.331
 21
-11.5369
  0
LINE
  8
0
 10
353.331
 20
-11.5369
 11
353.725
 21
-11.265
  0
LINE
  8
0
 10
353.725
 20
-11.265
 11
354.201
 21
-11.2073
  0
LINE
  8
0
 10
354.201
 20
-11.2073
 11
354.648
 21
-11.377
  0
LINE
  8
0
 10
354.648
 20
-11.377
 11
354.965
 21
-11.7353
  0
LINE
  8
0
 10
354.965
 20
-11.7353
 11
355.08
 21
-12.2
  0
LINE
  8
0
 10
355.08
 20
-12.2
 11
354.965
 21
-12.6647
  0
LINE
  8
0
 10
354.965
 20
-12.6647
 11
354.648
 21
-13.023
  0
LINE
  8
0
 10
354.648
 20
-13.023
 11
354.201
 21
-13.1927
  0
LINE
  8
0
 10
354.201
 20
-13.1927
 11
353.725
 21
-13.135
  0
LINE
  8
0
 10
7.49998
 20
-25.4
 11
7.01227
 21
-25.352
  0
LINE
  8
0
 10
7.01227
 20
-25.352
 11
6.54329
 21
-25.2097
  0
LINE
  8
0
 10
6.54329
 20
-25.2097
 11
6.11107
 21
-24.9787
  0
LINE
  8
0
 10
6.11107
 20
-24.9787
 11
5.73222
 21
-24.6678
  0
LINE
  8
0
 10
5.73222
 20
-24.6678
 11
5.42133
 21
-24.2889
  0
LINE
  8
0
 10
5.42133
 20
-24.2889
 11
5.19029
 21
-23.8567
  0
LINE
  8
0
 10
5.19029
 20
-23.8567
 11
5.04803
 21
-23.3877
  0
LINE
  8
0
 10
5.04803
 20
-23.3877
 11
4.99998
 21
-22.9
  0
LINE
  8
0
 10
4.99998
 20
-22.9
 11
5.04803
 21
-22.4123
  0
LINE
  8
0
 10
5.04803
 20
-22.4123
 11
5.19029
 21
-21.9433
  0
LINE
  8
0
 10
5.19029
 20
-21.9433
 11
5.42133
 21
-21.5111
  0
LINE
  8
0
 10
5.42133
 20
-21.5111
 11
5.73222
 21
-21.1322
  0
LINE
  8
0
 10
5.73222
 20
-21.1322
 11
6.11107
 21
-20.8213
  0
LINE
  8
0
 10
6.11107
 20
-20.8213
 11
6.54329
 21
-20.5903
  0
LINE
  8
0
 10
6.54329
 20
-20.5903
 11
7.01227
 21
-20.448
  0
LINE
  8
0
 10
7.01227
 20
-20.448
 11
7.49998
 21
-20.4
  0
LINE
  8
0
 10
7.49998
 20
-20.4
 11
7.98772
 21
-20.448
  0
LINE
  8
0
 10
7.98772
 20
-20.448
 11
8.4567
 21
-20.5903
  0
LINE
  8
0
 10
8.4567
 20
-20.5903
 11
8.88892
 21
-20.8213
  0
LINE
  8
0
 10
8.88892
 20
-20.8213
 11
9.26776
 21
-21.1322
  0
LINE
  8
0
 10
9.26776
 20
-21.1322
 11
9.57866
 21
-21.5111
  0
LINE
  8
0
 10
9.57866
 20
-21.5111
 11
9.80969
 21
-21.9433
  0
LINE
  8
0
 10
9.80969
 20
-21.9433
 11
9.95195
 21
-22.4123
  0
LINE
  8
0
 10
9.95195
 20
-22.4123
 11
9.99998
 21
-22.9
  0
LINE
  8
0
 10
9.99998
 20
-22.9
 11
9.95195
 21
-23.3877
  0
LINE
  8
0
 10
9.95195
 20
-23.3877
 11
9.80969
 21
-23.8567
  0
LINE
  8
0
 10
9.80969
 20
-23.8567
 11
9.57866
 21
-24.2889
  0
LINE
  8
0
 10
9.57866
 20
-24.2889
 11
9.26776
 21
-24.6678
  0
LINE
  8
0
 10
9.26776
 20
-24.6678
 11
8.88892
 21
-24.9787
  0
LINE
  8
0
 10
8.88892
 20
-24.9787
 11
8.4567
 21
-25.2097
  0
LINE
  8
0
 10
8.4567
 20
-25.2097
 11
7.98772
 21
-25.352
  0
LINE
  8
0
 10
7.98772
 20
-25.352
 11
7.49998
 21
-25.4
  0
LINE
  8
0
 10
6.99998
 20
-34.4
 11
6.52136
 21
-34.3419
  0
LINE
  8
0
 10
6.52136
 20
-34.3419
 11
6.07054
 21
-34.1709
  0
LINE
  8
0
 10
6.07054
 20
-34.1709
 11
5.67375
 21
-33.897
  0
LINE
  8
0
 10
5.67375
 20
-33.897
 11
5.35402
 21
-33.5361
  0
LINE
  8
0
 10
5.35402
 20
-33.5361
 11
5.12996
 21
-33.1092
  0
LINE
  8
0
 10
5.12996
 20
-33.1092
 11
5.01457
 21
-32.6411
  0
LINE
  8
0
 10
5.01457
 20
-32.6411
 11
5.01457
 21
-32.1589
  0
LINE
  8
0
 10
5.01457
 20
-32.1589
 11
5.12996
 21
-31.6908
  0
LINE
  8
0
 10
5.12996
 20
-31.6908
 11
5.35402
 21
-31.2639
  0
LINE
  8
0
 10
5.35402
 20
-31.2639
 11
5.67375
 21
-30.903
  0
LINE
  8
0
 10
5.67375
 20
-30.903
 11
6.07054
 21
-30.6291
  0
LINE
  8
0
 10
6.07054
 20
-30.6291
 11
6.52136
 21
-30.4581
  0
LINE
  8
0
 10
6.52136
 20
-30.4581
 11
6.99998
 21
-30.4
  0
LINE
  8
0
 10
6.99998
 20
-30.4
 11
7.47862
 21
-30.4581
  0
LINE
  8
0
 10
7.47862
 20
-30.4581
 11
7.92944
 21
-30.6291
  0
LINE
  8
0
 10
7.92944
 20
-30.6291
 11
8.32623
 21
-30.903
  0
LINE
  8
0
 10
8.32623
 20
-30.903
 11
8.64597
 21
-31.2639
  0
LINE
  8
0
 10
8.64597
 20
-31.2639
 11
8.87003
 21
-31.6908
  0
LINE
  8
0
 10
8.87003
 20
-31.6908
 11
8.98541
 21
-32.1589
  0
LINE
  8
0
 10
8.98541
 20
-32.1589
 11
8.98541
 21
-32.6411
  0
LINE
  8
0
 10
8.98541
 20
-32.6411
 11
8.87003
 21
-33.1092
  0
LINE
  8
0
 10
8.87003
 20
-33.1092
 11
8.64597
 21
-33.5361
  0
LINE
  8
0
 10
8.64597
 20
-33.5361
 11
8.32623
 21
-33.897
  0
LINE
  8
0
 10
8.32623
 20
-33.897
 11
7.92944
 21
-34.1709
  0
LINE
  8
0
 10
7.92944
 20
-34.1709
 11
7.47862
 21
-34.3419
  0
LINE
  8
0
 10
7.47862
 20
-34.3419
 11
6.99998
 21
-34.4
  0
LINE
  8
0
 10
283.944
 20
-36.923
 11
283.626
 21
-36.5647
  0
LINE
  8
0
 10
283.626
 20
-36.5647
 11
283.512
 21
-36.1
  0
LINE
  8
0
 10
283.512
 20
-36.1
 11
283.626
 21
-35.6353
  0
LINE
  8
0
 10
283.626
 20
-35.6353
 11
283.944
 21
-35.277
  0
LINE
  8
0
 10
283.944
 20
-35.277
 11
284.391
 21
-35.1073
  0
LINE
  8
0
 10
284.391
 20
-35.1073
 11
284.866
 21
-35.165
  0
LINE
  8
0
 10
284.866
 20
-35.165
 11
285.26
 21
-35.4369
  0
LINE
  8
0
 10
285.26
 20
-35.4369
 11
285.483
 21
-35.8607
  0
LINE
  8
0
 10
285.483
 20
-35.8607
 11
285.483
 21
-36.3393
  0
LINE
  8
0
 10
285.483
 20
-36.3393
 11
285.26
 21
-36.7631
  0
LINE
  8
0
 10
285.26
 20
-36.7631
 11
284.866
 21
-37.035
  0
LINE
  8
0
 10
284.866
 20
-37.035
 11
284.391
 21
-37.0927
  0
LINE
  8
0
 10
284.391
 20
-37.0927
 11
283.944
 21
-36.923
  0
LINE
  8
0
 10
320.022
 20
-59.2548
 11
319.616
 21
-58.9839
  0
LINE
  8
0
 10
319.616
 20
-58.9839
 11
319.345
 21
-58.5783
  0
LINE
  8
0
 10
319.345
 20
-58.5783
 11
319.25
 21
-58.1
  0
LINE
  8
0
 10
319.25
 20
-58.1
 11
319.345
 21
-57.6216
  0
LINE
  8
0
 10
319.345
 20
-57.6216
 11
319.616
 21
-57.2161
  0
LINE
  8
0
 10
319.616
 20
-57.2161
 11
320.022
 21
-56.9451
  0
LINE
  8
0
 10
320.022
 20
-56.9451
 11
320.5
 21
-56.85
  0
LINE
  8
0
 10
320.5
 20
-56.85
 11
320.978
 21
-56.9451
  0
LINE
  8
0
 10
320.978
 20
-56.9451
 11
321.384
 21
-57.2161
  0
LINE
  8
0
 10
321.384
 20
-57.2161
 11
321.655
 21
-57.6216
  0
LINE
  8
0
 10
321.655
 20
-57.6216
 11
321.75
 21
-58.1
  0
LINE
  8
0
 10
321.75
 20
-58.1
 11
321.655
 21
-58.5783
  0
LINE
  8
0
 10
321.655
 20
-58.5783
 11
321.384
 21
-58.9839
  0
LINE
  8
0
 10
321.384
 20
-58.9839
 11
320.978
 21
-59.2548
  0
LINE
  8
0
 10
320.978
 20
-59.2548
 11
320.5
 21
-59.35
  0
LINE
  8
0
 10
320.5
 20
-59.35
 11
320.022
 21
-59.2548
  0
LINE
  8
0
 10
237.522
 20
-59.2548
 11
237.116
 21
-58.9839
  0
LINE
  8
0
 10
237.116
 20
-58.9839
 11
236.845
 21
-58.5783
  0
LINE
  8
0
 10
236.845
 20
-58.5783
 11
236.75
 21
-58.1
  0
LINE
  8
0
 10
236.75
 20
-58.1
 11
236.845
 21
-57.6216
  0
LINE
  8
0
 10
236.845
 20
-57.6216
 11
237.116
 21
-57.2161
  0
LINE
  8
0
 10
237.116
 20
-57.2161
 11
237.522
 21
-56.9451
  0
LINE
  8
0
 10
237.522
 20
-56.9451
 11
238
 21
-56.85
  0
LINE
  8
0
 10
238
 20
-56.85
 11
238.478
 21
-56.9451
  0
LINE
  8
0
 10
238.478
 20
-56.9451
 11
238.884
 21
-57.2161
  0
LINE
  8
0
 10
238.884
 20
-57.2161
 11
239.155
 21
-57.6216
  0
LINE
  8
0
 10
239.155
 20
-57.6216
 11
239.25
 21
-58.1
  0
LINE
  8
0
 10
239.25
 20
-58.1
 11
239.155
 21
-58.5783
  0
LINE
  8
0
 10
239.155
 20
-58.5783
 11
238.884
 21
-58.9839
  0
LINE
  8
0
 10
238.884
 20
-58.9839
 11
238.478
 21
-59.2548
  0
LINE
  8
0
 10
238.478
 20
-59.2548
 11
238
 21
-59.35
  0
LINE
  8
0
 10
238
 20
-59.35
 11
237.522
 21
-59.2548
  0
LINE
  8
0
 10
6.99998
 20
-88.4
 11
6.52136
 21
-88.3419
  0
LINE
  8
0
 10
6.52136
 20
-88.3419
 11
6.07054
 21
-88.1709
  0
LINE
  8
0
 10
6.07054
 20
-88.1709
 11
5.67375
 21
-87.897
  0
LINE
  8
0
 10
5.67375
 20
-87.897
 11
5.35402
 21
-87.5361
  0
LINE
  8
0
 10
5.35402
 20
-87.5361
 11
5.12996
 21
-87.1092
  0
LINE
  8
0
 10
5.12996
 20
-87.1092
 11
5.01457
 21
-86.6411
  0
LINE
  8
0
 10
5.01457
 20
-86.6411
 11
5.01457
 21
-86.1589
  0
LINE
  8
0
 10
5.01457
 20
-86.1589
 11
5.12996
 21
-85.6908
  0
LINE
  8
0
 10
5.12996
 20
-85.6908
 11
5.35402
 21
-85.2639
  0
LINE
  8
0
 10
5.35402
 20
-85.2639
 11
5.67375
 21
-84.903
  0
LINE
  8
0
 10
5.67375
 20
-84.903
 11
6.07054
 21
-84.6291
  0
LINE
  8
0
 10
6.07054
 20
-84.6291
 11
6.52136
 21
-84.4581
  0
LINE
  8
0
 10
6.52136
 20
-84.4581
 11
6.99998
 21
-84.4
  0
LINE
  8
0
 10
6.99998
 20
-84.4
 11
7.47862
 21
-84.4581
  0
LINE
  8
0
 10
7.47862
 20
-84.4581
 11
7.92944
 21
-84.6291
  0
LINE
  8
0
 10
7.92944
 20
-84.6291
 11
8.32623
 21
-84.903
  0
LINE
  8
0
 10
8.32623
 20
-84.903
 11
8.64597
 21
-85.2639
  0
LINE
  8
0
 10
8.64597
 20
-85.2639
 11
8.87003
 21
-85.6908
  0
LINE
  8
0
 10
8.87003
 20
-85.6908
 11
8.98541
 21
-86.1589
  0
LINE
  8
0
 10
8.98541
 20
-86.1589
 11
8.98541
 21
-86.6411
  0
LINE
  8
0
 10
8.98541
 20
-86.6411
 11
8.87003
 21
-87.1092
  0
LINE
  8
0
 10
8.87003
 20
-87.1092
 11
8.64597
 21
-87.5361
  0
LINE
  8
0
 10
8.64597
 20
-87.5361
 11
8.32623
 21
-87.897
  0
LINE
  8
0
 10
8.32623
 20
-87.897
 11
7.92944
 21
-88.1709
  0
LINE
  8
0
 10
7.92944
 20
-88.1709
 11
7.47862
 21
-88.3419
  0
LINE
  8
0
 10
7.47862
 20
-88.3419
 11
6.99998
 21
-88.4
  0
LINE
  8
0
 10
8.49998
 20
-102.1
 11
8.00189
 21
-102.064
  0
LINE
  8
0
 10
8.00189
 20
-102.064
 11
7.51393
 21
-101.958
  0
LINE
  8
0
 10
7.51393
 20
-101.958
 11
7.04604
 21
-101.784
  0
LINE
  8
0
 10
7.04604
 20
-101.784
 11
6.60774
 21
-101.544
  0
LINE
  8
0
 10
6.60774
 20
-101.544
 11
6.20798
 21
-101.245
  0
LINE
  8
0
 10
6.20798
 20
-101.245
 11
5.85487
 21
-100.892
  0
LINE
  8
0
 10
5.85487
 20
-100.892
 11
5.5556
 21
-100.492
  0
LINE
  8
0
 10
5.5556
 20
-100.492
 11
5.31628
 21
-100.054
  0
LINE
  8
0
 10
5.31628
 20
-100.054
 11
5.14177
 21
-99.5861
  0
LINE
  8
0
 10
5.14177
 20
-99.5861
 11
5.03561
 21
-99.0981
  0
LINE
  8
0
 10
5.03561
 20
-99.0981
 11
4.99998
 21
-98.6
  0
LINE
  8
0
 10
4.99998
 20
-98.6
 11
5.03561
 21
-98.1019
  0
LINE
  8
0
 10
5.03561
 20
-98.1019
 11
5.14177
 21
-97.6139
  0
LINE
  8
0
 10
5.14177
 20
-97.6139
 11
5.31628
 21
-97.146
  0
LINE
  8
0
 10
5.31628
 20
-97.146
 11
5.5556
 21
-96.7077
  0
LINE
  8
0
 10
5.5556
 20
-96.7077
 11
5.85487
 21
-96.308
  0
LINE
  8
0
 10
5.85487
 20
-96.308
 11
6.20798
 21
-95.9549
  0
LINE
  8
0
 10
6.20798
 20
-95.9549
 11
6.60774
 21
-95.6556
  0
LINE
  8
0
 10
6.60774
 20
-95.6556
 11
7.04604
 21
-95.4163
  0
LINE
  8
0
 10
7.04604
 20
-95.4163
 11
7.51393
 21
-95.2418
  0
LINE
  8
0
 10
7.51393
 20
-95.2418
 11
8.00189
 21
-95.1356
  0
LINE
  8
0
 10
8.00189
 20
-95.1356
 11
8.49998
 21
-95.1
  0
LINE
  8
0
 10
8.49998
 20
-95.1
 11
8.99809
 21
-95.1356
  0
LINE
  8
0
 10
8.99809
 20
-95.1356
 11
9.48605
 21
-95.2418
  0
LINE
  8
0
 10
9.48605
 20
-95.2418
 11
9.95395
 21
-95.4163
  0
LINE
  8
0
 10
9.95395
 20
-95.4163
 11
10.3922
 21
-95.6556
  0
LINE
  8
0
 10
10.3922
 20
-95.6556
 11
10.792
 21
-95.9549
  0
LINE
  8
0
 10
10.792
 20
-95.9549
 11
11.1451
 21
-96.308
  0
LINE
  8
0
 10
11.1451
 20
-96.308
 11
11.4444
 21
-96.7077
  0
LINE
  8
0
 10
11.4444
 20
-96.7077
 11
11.6837
 21
-97.146
  0
LINE
  8
0
 10
11.6837
 20
-97.146
 11
11.8582
 21
-97.6139
  0
LINE
  8
0
 10
11.8582
 20
-97.6139
 11
11.9644
 21
-98.1019
  0
LINE
  8
0
 10
11.9644
 20
-98.1019
 11
12
 21
-98.6
  0
LINE
  8
0
 10
12
 20
-98.6
 11
11.9644
 21
-99.0981
  0
LINE
  8
0
 10
11.9644
 20
-99.0981
 11
11.8582
 21
-99.5861
  0
LINE
  8
0
 10
11.8582
 20
-99.5861
 11
11.6837
 21
-100.054
  0
LINE
  8
0
 10
11.6837
 20
-100.054
 11
11.4444
 21
-100.492
  0
LINE
  8
0
 10
11.4444
 20
-100.492
 11
11.1451
 21
-100.892
  0
LINE
  8
0
 10
11.1451
 20
-100.892
 11
10.792
 21
-101.245
  0
LINE
  8
0
 10
10.792
 20
-101.245
 11
10.3922
 21
-101.544
  0
LINE
  8
0
 10
10.3922
 20
-101.544
 11
9.95395
 21
-101.784
  0
LINE
  8
0
 10
9.95395
 20
-101.784
 11
9.48605
 21
-101.958
  0
LINE
  8
0
 10
9.48605
 20
-101.958
 11
8.99809
 21
-102.064
  0
LINE
  8
0
 10
8.99809
 20
-102.064
 11
8.49998
 21
-102.1
  0
LINE
  8
0
 10
205.793
 20
-99.1924
 11
205.534
 21
-98.7895
  0
LINE
  8
0
 10
205.534
 20
-98.7895
 11
205.534
 21
-98.3105
  0
LINE
  8
0
 10
205.534
 20
-98.3105
 11
205.793
 21
-97.9076
  0
LINE
  8
0
 10
205.793
 20
-97.9076
 11
206.229
 21
-97.7086
  0
LINE
  8
0
 10
206.229
 20
-97.7086
 11
206.703
 21
-97.7768
  0
LINE
  8
0
 10
206.703
 20
-97.7768
 11
207.065
 21
-98.0905
  0
LINE
  8
0
 10
207.065
 20
-98.0905
 11
207.2
 21
-98.55
  0
LINE
  8
0
 10
207.2
 20
-98.55
 11
207.065
 21
-99.0095
  0
LINE
  8
0
 10
207.065
 20
-99.0095
 11
206.703
 21
-99.3232
  0
LINE
  8
0
 10
206.703
 20
-99.3232
 11
206.229
 21
-99.3913
  0
LINE
  8
0
 10
206.229
 20
-99.3913
 11
205.793
 21
-99.1924
  0
LINE
  8
0
 10
243.822
 20
-107.555
 11
243.416
 21
-107.284
  0
LINE
  8
0
 10
243.416
 20
-107.284
 11
243.145
 21
-106.878
  0
LINE
  8
0
 10
243.145
 20
-106.878
 11
243.05
 21
-106.4
  0
LINE
  8
0
 10
243.05
 20
-106.4
 11
243.145
 21
-105.922
  0
LINE
  8
0
 10
243.145
 20
-105.922
 11
243.416
 21
-105.516
  0
LINE
  8
0
 10
243.416
 20
-105.516
 11
243.822
 21
-105.245
  0
LINE
  8
0
 10
243.822
 20
-105.245
 11
244.3
 21
-105.15
  0
LINE
  8
0
 10
244.3
 20
-105.15
 11
244.778
 21
-105.245
  0
LINE
  8
0
 10
244.778
 20
-105.245
 11
245.184
 21
-105.516
  0
LINE
  8
0
 10
245.184
 20
-105.516
 11
245.455
 21
-105.922
  0
LINE
  8
0
 10
245.455
 20
-105.922
 11
245.55
 21
-106.4
  0
LINE
  8
0
 10
245.55
 20
-106.4
 11
245.455
 21
-106.878
  0
LINE
  8
0
 10
245.455
 20
-106.878
 11
245.184
 21
-107.284
  0
LINE
  8
0
 10
245.184
 20
-107.284
 11
244.778
 21
-107.555
  0
LINE
  8
0
 10
244.778
 20
-107.555
 11
244.3
 21
-107.65
  0
LINE
  8
0
 10
244.3
 20
-107.65
 11
243.822
 21
-107.555
  0
LINE
  8
0
 10
318.722
 20
-107.555
 11
318.316
 21
-107.284
  0
LINE
  8
0
 10
318.316
 20
-107.284
 11
318.045
 21
-106.878
  0
LINE
  8
0
 10
318.045
 20
-106.878
 11
317.95
 21
-106.4
  0
LINE
  8
0
 10
317.95
 20
-106.4
 11
318.045
 21
-105.922
  0
LINE
  8
0
 10
318.045
 20
-105.922
 11
318.316
 21
-105.516
  0
LINE
  8
0
 10
318.316
 20
-105.516
 11
318.722
 21
-105.245
  0
LINE
  8
0
 10
318.722
 20
-105.245
 11
319.2
 21
-105.15
  0
LINE
  8
0
 10
319.2
 20
-105.15
 11
319.678
 21
-105.245
  0
LINE
  8
0
 10
319.678
 20
-105.245
 11
320.084
 21
-105.516
  0
LINE
  8
0
 10
320.084
 20
-105.516
 11
320.355
 21
-105.922
  0
LINE
  8
0
 10
320.355
 20
-105.922
 11
320.45
 21
-106.4
  0
LINE
  8
0
 10
320.45
 20
-106.4
 11
320.355
 21
-106.878
  0
LINE
  8
0
 10
320.355
 20
-106.878
 11
320.084
 21
-107.284
  0
LINE
  8
0
 10
320.084
 20
-107.284
 11
319.678
 21
-107.555
  0
LINE
  8
0
 10
319.678
 20
-107.555
 11
319.2
 21
-107.65
  0
LINE
  8
0
 10
319.2
 20
-107.65
 11
318.722
 21
-107.555
  0
LINE
  8
0
 10
191.493
 20
-115.092
 11
191.234
 21
-114.689
  0
LINE
  8
0
 10
191.234
 20
-114.689
 11
191.234
 21
-114.211
  0
LINE
  8
0
 10
191.234
 20
-114.211
 11
191.493
 21
-113.808
  0
LINE
  8
0
 10
191.493
 20
-113.808
 11
191.929
 21
-113.609
  0
LINE
  8
0
 10
191.929
 20
-113.609
 11
192.403
 21
-113.677
  0
LINE
  8
0
 10
192.403
 20
-113.677
 11
192.765
 21
-113.99
  0
LINE
  8
0
 10
192.765
 20
-113.99
 11
192.9
 21
-114.45
  0
LINE
  8
0
 10
192.9
 20
-114.45
 11
192.765
 21
-114.91
  0
LINE
  8
0
 10
192.765
 20
-114.91
 11
192.403
 21
-115.223
  0
LINE
  8
0
 10
192.403
 20
-115.223
 11
191.929
 21
-115.291
  0
LINE
  8
0
 10
191.929
 20
-115.291
 11
191.493
 21
-115.092
  0
LINE
  8
0
 10
7.96068
 20
-130.951
 11
7.53687
 21
-130.729
  0
LINE
  8
0
 10
7.53687
 20
-130.729
 11
7.26497
 21
-130.335
  0
LINE
  8
0
 10
7.26497
 20
-130.335
 11
7.20729
 21
-129.859
  0
LINE
  8
0
 10
7.20729
 20
-129.859
 11
7.37701
 21
-129.412
  0
LINE
  8
0
 10
7.37701
 20
-129.412
 11
7.73528
 21
-129.095
  0
LINE
  8
0
 10
7.73528
 20
-129.095
 11
8.2
 21
-128.98
  0
LINE
  8
0
 10
8.2
 20
-128.98
 11
8.66472
 21
-129.095
  0
LINE
  8
0
 10
8.66472
 20
-129.095
 11
9.02298
 21
-129.412
  0
LINE
  8
0
 10
9.02298
 20
-129.412
 11
9.1927
 21
-129.859
  0
LINE
  8
0
 10
9.1927
 20
-129.859
 11
9.13501
 21
-130.335
  0
LINE
  8
0
 10
9.13501
 20
-130.335
 11
8.86311
 21
-130.729
  0
LINE
  8
0
 10
8.86311
 20
-130.729
 11
8.4393
 21
-130.951
  0
LINE
  8
0
 10
8.4393
 20
-130.951
 11
7.96068
 21
-130.951
  0
LINE
  8
0
 10
205.793
 20
-130.692
 11
205.534
 21
-130.289
  0
LINE
  8
0
 10
205.534
 20
-130.289
 11
205.534
 21
-129.811
  0
LINE
  8
0
 10
205.534
 20
-129.811
 11
205.793
 21
-129.408
  0
LINE
  8
0
 10
205.793
 20
-129.408
 11
206.229
 21
-129.209
  0
LINE
  8
0
 10
206.229
 20
-129.209
 11
206.703
 21
-129.277
  0
LINE
  8
0
 10
206.703
 20
-129.277
 11
207.065
 21
-129.59
  0
LINE
  8
0
 10
207.065
 20
-129.59
 11
207.2
 21
-130.05
  0
LINE
  8
0
 10
207.2
 20
-130.05
 11
207.065
 21
-130.51
  0
LINE
  8
0
 10
207.065
 20
-130.51
 11
206.703
 21
-130.823
  0
LINE
  8
0
 10
206.703
 20
-130.823
 11
206.229
 21
-130.891
  0
LINE
  8
0
 10
206.229
 20
-130.891
 11
205.793
 21
-130.692
  0
LINE
  8
0
 10
191.493
 20
-146.592
 11
191.234
 21
-146.189
  0
LINE
  8
0
 10
191.234
 20
-146.189
 11
191.234
 21
-145.711
  0
LINE
  8
0
 10
191.234
 20
-145.711
 11
191.493
 21
-145.308
  0
LINE
  8
0
 10
191.493
 20
-145.308
 11
191.929
 21
-145.109
  0
LINE
  8
0
 10
191.929
 20
-145.109
 11
192.403
 21
-145.177
  0
LINE
  8
0
 10
192.403
 20
-145.177
 11
192.765
 21
-145.49
  0
LINE
  8
0
 10
192.765
 20
-145.49
 11
192.9
 21
-145.95
  0
LINE
  8
0
 10
192.9
 20
-145.95
 11
192.765
 21
-146.41
  0
LINE
  8
0
 10
192.765
 20
-146.41
 11
192.403
 21
-146.723
  0
LINE
  8
0
 10
192.403
 20
-146.723
 11
191.929
 21
-146.791
  0
LINE
  8
0
 10
191.929
 20
-146.791
 11
191.493
 21
-146.592
  0
LINE
  8
0
 10
7.96068
 20
-151.771
 11
7.53687
 21
-151.549
  0
LINE
  8
0
 10
7.53687
 20
-151.549
 11
7.26497
 21
-151.155
  0
LINE
  8
0
 10
7.26497
 20
-151.155
 11
7.20729
 21
-150.679
  0
LINE
  8
0
 10
7.20729
 20
-150.679
 11
7.37701
 21
-150.232
  0
LINE
  8
0
 10
7.37701
 20
-150.232
 11
7.73528
 21
-149.915
  0
LINE
  8
0
 10
7.73528
 20
-149.915
 11
8.2
 21
-149.8
  0
LINE
  8
0
 10
8.2
 20
-149.8
 11
8.66472
 21
-149.915
  0
LINE
  8
0
 10
8.66472
 20
-149.915
 11
9.02298
 21
-150.232
  0
LINE
  8
0
 10
9.02298
 20
-150.232
 11
9.1927
 21
-150.679
  0
LINE
  8
0
 10
9.1927
 20
-150.679
 11
9.13501
 21
-151.155
  0
LINE
  8
0
 10
9.13501
 20
-151.155
 11
8.86311
 21
-151.549
  0
LINE
  8
0
 10
8.86311
 20
-151.549
 11
8.4393
 21
-151.771
  0
LINE
  8
0
 10
8.4393
 20
-151.771
 11
7.96068
 21
-151.771
  0
LINE
  8
0
 10
149.545
 20
-154.435
 11
149.151
 21
-154.163
  0
LINE
  8
0
 10
149.151
 20
-154.163
 11
148.929
 21
-153.739
  0
LINE
  8
0
 10
148.929
 20
-153.739
 11
148.929
 21
-153.261
  0
LINE
  8
0
 10
148.929
 20
-153.261
 11
149.151
 21
-152.837
  0
LINE
  8
0
 10
149.151
 20
-152.837
 11
149.545
 21
-152.565
  0
LINE
  8
0
 10
149.545
 20
-152.565
 11
150.021
 21
-152.507
  0
LINE
  8
0
 10
150.021
 20
-152.507
 11
150.468
 21
-152.677
  0
LINE
  8
0
 10
150.468
 20
-152.677
 11
150.785
 21
-153.035
  0
LINE
  8
0
 10
150.785
 20
-153.035
 11
150.9
 21
-153.5
  0
LINE
  8
0
 10
150.9
 20
-153.5
 11
150.785
 21
-153.965
  0
LINE
  8
0
 10
150.785
 20
-153.965
 11
150.468
 21
-154.323
  0
LINE
  8
0
 10
150.468
 20
-154.323
 11
150.021
 21
-154.493
  0
LINE
  8
0
 10
150.021
 20
-154.493
 11
149.545
 21
-154.435
  0
LINE
  8
0
 10
32.5454
 20
-154.435
 11
32.1515
 21
-154.163
  0
LINE
  8
0
 10
32.1515
 20
-154.163
 11
31.929
 21
-153.739
  0
LINE
  8
0
 10
31.929
 20
-153.739
 11
31.929
 21
-153.261
  0
LINE
  8
0
 10
31.929
 20
-153.261
 11
32.1515
 21
-152.837
  0
LINE
  8
0
 10
32.1515
 20
-152.837
 11
32.5454
 21
-152.565
  0
LINE
  8
0
 10
32.5454
 20
-152.565
 11
33.0205
 21
-152.507
  0
LINE
  8
0
 10
33.0205
 20
-152.507
 11
33.4681
 21
-152.677
  0
LINE
  8
0
 10
33.4681
 20
-152.677
 11
33.7854
 21
-153.035
  0
LINE
  8
0
 10
33.7854
 20
-153.035
 11
33.9
 21
-153.5
  0
LINE
  8
0
 10
33.9
 20
-153.5
 11
33.7854
 21
-153.965
  0
LINE
  8
0
 10
33.7854
 20
-153.965
 11
33.4681
 21
-154.323
  0
LINE
  8
0
 10
33.4681
 20
-154.323
 11
33.0205
 21
-154.493
  0
LINE
  8
0
 10
33.0205
 20
-154.493
 11
32.5454
 21
-154.435
  0
ENDSEC
  0
SECTION
  2
OBJECTS
  0
DICTIONARY
  0
ENDSEC
  0
EOF
