  0
SECTION
  2
BLOCKS
  0
ENDSEC
  0
SECTION
  2
ENTITIES
  0
LINE
  8
0
 10
320.69
 20
3.24773
 11
320.772
 21
3.73645
  0
LINE
  8
0
 10
320.772
 20
3.73645
 11
320.933
 21
4.20508
  0
LINE
  8
0
 10
320.933
 20
4.20508
 11
321.168
 21
4.64084
  0
LINE
  8
0
 10
321.168
 20
4.64084
 11
321.473
 21
5.03183
  0
LINE
  8
0
 10
321.473
 20
5.03183
 11
321.837
 21
5.36742
  0
LINE
  8
0
 10
321.837
 20
5.36742
 11
322.252
 21
5.63841
  0
LINE
  8
0
 10
322.252
 20
5.63841
 11
322.706
 21
5.83745
  0
LINE
  8
0
 10
322.706
 20
5.83745
 11
323.186
 21
5.95908
  0
LINE
  8
0
 10
323.186
 20
5.95908
 11
323.68
 21
6
  0
LINE
  8
0
 10
323.68
 20
6
 11
324.174
 21
5.95908
  0
LINE
  8
0
 10
324.174
 20
5.95908
 11
324.654
 21
5.83745
  0
LINE
  8
0
 10
324.654
 20
5.83745
 11
325.108
 21
5.63841
  0
LINE
  8
0
 10
325.108
 20
5.63841
 11
325.523
 21
5.36742
  0
LINE
  8
0
 10
325.523
 20
5.36742
 11
325.887
 21
5.03183
  0
LINE
  8
0
 10
325.887
 20
5.03183
 11
326.191
 21
4.64084
  0
LINE
  8
0
 10
326.191
 20
4.64084
 11
326.427
 21
4.20508
  0
LINE
  8
0
 10
326.427
 20
4.20508
 11
326.588
 21
3.73645
  0
LINE
  8
0
 10
326.588
 20
3.73645
 11
326.67
 21
3.24773
  0
LINE
  8
0
 10
326.67
 20
3.24773
 11
326.67
 21
0
  0
LINE
  8
0
 10
326.67
 20
0
 11
333.595
 21
0
  0
LINE
  8
0
 10
333.595
 20
0
 11
333.595
 21
2.24106
  0
LINE
  8
0
 10
333.595
 20
2.24106
 11
333.71
 21
2.7092
  0
LINE
  8
0
 10
333.71
 20
2.7092
 11
333.934
 21
3.13612
  0
LINE
  8
0
 10
333.934
 20
3.13612
 11
334.254
 21
3.49701
  0
LINE
  8
0
 10
334.254
 20
3.49701
 11
334.651
 21
3.7709
  0
LINE
  8
0
 10
334.651
 20
3.7709
 11
335.101
 21
3.94188
  0
LINE
  8
0
 10
335.101
 20
3.94188
 11
335.58
 21
4
  0
LINE
  8
0
 10
335.58
 20
4
 11
336.059
 21
3.94188
  0
LINE
  8
0
 10
336.059
 20
3.94188
 11
336.509
 21
3.7709
  0
LINE
  8
0
 10
336.509
 20
3.7709
 11
336.906
 21
3.49701
  0
LINE
  8
0
 10
336.906
 20
3.49701
 11
337.226
 21
3.13612
  0
LINE
  8
0
 10
337.226
 20
3.13612
 11
337.45
 21
2.7092
  0
LINE
  8
0
 10
337.45
 20
2.7092
 11
337.565
 21
2.24106
  0
LINE
  8
0
 10
337.565
 20
2.24106
 11
337.565
 21
0
  0
LINE
  8
0
 10
337.565
 20
0
 11
392
 21
0
  0
LINE
  8
0
 10
392
 20
0
 11
392
 21
141.5
  0
LINE
  8
0
 10
392
 20
141.5
 11
391.905
 21
143.679
  0
LINE
  8
0
 10
391.905
 20
143.679
 11
391.62
 21
145.841
  0
LINE
  8
0
 10
391.62
 20
145.841
 11
391.148
 21
147.97
  0
LINE
  8
0
 10
391.148
 20
147.97
 11
390.492
 21
150.05
  0
LINE
  8
0
 10
390.492
 20
150.05
 11
389.658
 21
152.065
  0
LINE
  8
0
 10
389.658
 20
152.065
 11
388.651
 21
154
  0
LINE
  8
0
 10
388.651
 20
154
 11
387.479
 21
155.839
  0
LINE
  8
0
 10
387.479
 20
155.839
 11
386.151
 21
157.57
  0
LINE
  8
0
 10
386.151
 20
157.57
 11
384.678
 21
159.178
  0
LINE
  8
0
 10
384.678
 20
159.178
 11
383.07
 21
160.651
  0
LINE
  8
0
 10
383.07
 20
160.651
 11
381.339
 21
161.979
  0
LINE
  8
0
 10
381.339
 20
161.979
 11
379.5
 21
163.151
  0
LINE
  8
0
 10
379.5
 20
163.151
 11
377.565
 21
164.158
  0
LINE
  8
0
 10
377.565
 20
164.158
 11
375.55
 21
164.992
  0
LINE
  8
0
 10
375.55
 20
164.992
 11
373.47
 21
165.648
  0
LINE
  8
0
 10
373.47
 20
165.648
 11
371.341
 21
166.12
  0
LINE
  8
0
 10
371.341
 20
166.12
 11
369.179
 21
166.405
  0
LINE
  8
0
 10
369.179
 20
166.405
 11
367
 21
166.5
  0
LINE
  8
0
 10
367
 20
166.5
 11
0
 21
166.5
  0
LINE
  8
0
 10
0
 20
166.5
 11
0
 21
0
  0
LINE
  8
0
 10
0
 20
0
 11
320.69
 21
0
  0
LINE
  8
0
 10
320.69
 20
0
 11
320.69
 21
3.24773
  0
LINE
  8
0
 10
6.71045
 20
155.655
 11
6.24545
 21
155.818
  0
LINE
  8
0
 10
6.24545
 20
155.818
 11
5.82831
 21
156.08
  0
LINE
  8
0
 10
5.82831
 20
156.08
 11
5.47997
 21
156.428
  0
LINE
  8
0
 10
5.47997
 20
156.428
 11
5.21786
 21
156.845
  0
LINE
  8
0
 10
5.21786
 20
156.845
 11
5.05515
 21
157.31
  0
LINE
  8
0
 10
5.05515
 20
157.31
 11
4.99998
 21
157.8
  0
LINE
  8
0
 10
4.99998
 20
157.8
 11
5.05515
 21
158.29
  0
LINE
  8
0
 10
5.05515
 20
158.29
 11
5.21786
 21
158.755
  0
LINE
  8
0
 10
5.21786
 20
158.755
 11
5.47997
 21
159.172
  0
LINE
  8
0
 10
5.47997
 20
159.172
 11
5.82831
 21
159.52
  0
LINE
  8
0
 10
5.82831
 20
159.52
 11
6.24545
 21
159.782
  0
LINE
  8
0
 10
6.24545
 20
159.782
 11
6.71045
 21
159.945
  0
LINE
  8
0
 10
6.71045
 20
159.945
 11
7.2
 21
160
  0
LINE
  8
0
 10
7.2
 20
160
 11
7.68954
 21
159.945
  0
LINE
  8
0
 10
7.68954
 20
159.945
 11
8.15454
 21
159.782
  0
LINE
  8
0
 10
8.15454
 20
159.782
 11
8.57167
 21
159.52
  0
LINE
  8
0
 10
8.57167
 20
159.52
 11
8.92001
 21
159.172
  0
LINE
  8
0
 10
8.92001
 20
159.172
 11
9.18213
 21
158.755
  0
LINE
  8
0
 10
9.18213
 20
158.755
 11
9.34483
 21
158.29
  0
LINE
  8
0
 10
9.34483
 20
158.29
 11
9.39999
 21
157.8
  0
LINE
  8
0
 10
9.39999
 20
157.8
 11
9.34483
 21
157.31
  0
LINE
  8
0
 10
9.34483
 20
157.31
 11
9.18213
 21
156.845
  0
LINE
  8
0
 10
9.18213
 20
156.845
 11
8.92001
 21
156.428
  0
LINE
  8
0
 10
8.92001
 20
156.428
 11
8.57167
 21
156.08
  0
LINE
  8
0
 10
8.57167
 20
156.08
 11
8.15454
 21
155.818
  0
LINE
  8
0
 10
8.15454
 20
155.818
 11
7.68954
 21
155.655
  0
LINE
  8
0
 10
7.68954
 20
155.655
 11
7.2
 21
155.6
  0
LINE
  8
0
 10
7.2
 20
155.6
 11
6.71045
 21
155.655
  0
LINE
  8
0
 10
6.71045
 20
134.435
 11
6.24545
 21
134.598
  0
LINE
  8
0
 10
6.24545
 20
134.598
 11
5.82831
 21
134.86
  0
LINE
  8
0
 10
5.82831
 20
134.86
 11
5.47997
 21
135.208
  0
LINE
  8
0
 10
5.47997
 20
135.208
 11
5.21786
 21
135.625
  0
LINE
  8
0
 10
5.21786
 20
135.625
 11
5.05515
 21
136.09
  0
LINE
  8
0
 10
5.05515
 20
136.09
 11
4.99998
 21
136.58
  0
LINE
  8
0
 10
4.99998
 20
136.58
 11
5.05515
 21
137.07
  0
LINE
  8
0
 10
5.05515
 20
137.07
 11
5.21786
 21
137.535
  0
LINE
  8
0
 10
5.21786
 20
137.535
 11
5.47997
 21
137.952
  0
LINE
  8
0
 10
5.47997
 20
137.952
 11
5.82831
 21
138.3
  0
LINE
  8
0
 10
5.82831
 20
138.3
 11
6.24545
 21
138.562
  0
LINE
  8
0
 10
6.24545
 20
138.562
 11
6.71045
 21
138.725
  0
LINE
  8
0
 10
6.71045
 20
138.725
 11
7.2
 21
138.78
  0
LINE
  8
0
 10
7.2
 20
138.78
 11
7.68954
 21
138.725
  0
LINE
  8
0
 10
7.68954
 20
138.725
 11
8.15454
 21
138.562
  0
LINE
  8
0
 10
8.15454
 20
138.562
 11
8.57167
 21
138.3
  0
LINE
  8
0
 10
8.57167
 20
138.3
 11
8.92001
 21
137.952
  0
LINE
  8
0
 10
8.92001
 20
137.952
 11
9.18213
 21
137.535
  0
LINE
  8
0
 10
9.18213
 20
137.535
 11
9.34483
 21
137.07
  0
LINE
  8
0
 10
9.34483
 20
137.07
 11
9.39999
 21
136.58
  0
LINE
  8
0
 10
9.39999
 20
136.58
 11
9.34483
 21
136.09
  0
LINE
  8
0
 10
9.34483
 20
136.09
 11
9.18213
 21
135.625
  0
LINE
  8
0
 10
9.18213
 20
135.625
 11
8.92001
 21
135.208
  0
LINE
  8
0
 10
8.92001
 20
135.208
 11
8.57167
 21
134.86
  0
LINE
  8
0
 10
8.57167
 20
134.86
 11
8.15454
 21
134.598
  0
LINE
  8
0
 10
8.15454
 20
134.598
 11
7.68954
 21
134.435
  0
LINE
  8
0
 10
7.68954
 20
134.435
 11
7.2
 21
134.38
  0
LINE
  8
0
 10
7.2
 20
134.38
 11
6.71045
 21
134.435
  0
LINE
  8
0
 10
51.2605
 20
89.0052
 11
50.7954
 21
89.1679
  0
LINE
  8
0
 10
50.7954
 20
89.1679
 11
50.3783
 21
89.43
  0
LINE
  8
0
 10
50.3783
 20
89.43
 11
50.03
 21
89.7783
  0
LINE
  8
0
 10
50.03
 20
89.7783
 11
49.7679
 21
90.1954
  0
LINE
  8
0
 10
49.7679
 20
90.1954
 11
49.6051
 21
90.6604
  0
LINE
  8
0
 10
49.6051
 20
90.6604
 11
49.55
 21
91.15
  0
LINE
  8
0
 10
49.55
 20
91.15
 11
49.6051
 21
91.6395
  0
LINE
  8
0
 10
49.6051
 20
91.6395
 11
49.7679
 21
92.1045
  0
LINE
  8
0
 10
49.7679
 20
92.1045
 11
50.03
 21
92.5217
  0
LINE
  8
0
 10
50.03
 20
92.5217
 11
50.3783
 21
92.87
  0
LINE
  8
0
 10
50.3783
 20
92.87
 11
50.7954
 21
93.1321
  0
LINE
  8
0
 10
50.7954
 20
93.1321
 11
51.2605
 21
93.2948
  0
LINE
  8
0
 10
51.2605
 20
93.2948
 11
51.75
 21
93.35
  0
LINE
  8
0
 10
51.75
 20
93.35
 11
52.2395
 21
93.2948
  0
LINE
  8
0
 10
52.2395
 20
93.2948
 11
52.7045
 21
93.1321
  0
LINE
  8
0
 10
52.7045
 20
93.1321
 11
53.1217
 21
92.87
  0
LINE
  8
0
 10
53.1217
 20
92.87
 11
53.47
 21
92.5217
  0
LINE
  8
0
 10
53.47
 20
92.5217
 11
53.7321
 21
92.1045
  0
LINE
  8
0
 10
53.7321
 20
92.1045
 11
53.8948
 21
91.6395
  0
LINE
  8
0
 10
53.8948
 20
91.6395
 11
53.95
 21
91.15
  0
LINE
  8
0
 10
53.95
 20
91.15
 11
53.8948
 21
90.6604
  0
LINE
  8
0
 10
53.8948
 20
90.6604
 11
53.7321
 21
90.1954
  0
LINE
  8
0
 10
53.7321
 20
90.1954
 11
53.47
 21
89.7783
  0
LINE
  8
0
 10
53.47
 20
89.7783
 11
53.1217
 21
89.43
  0
LINE
  8
0
 10
53.1217
 20
89.43
 11
52.7045
 21
89.1679
  0
LINE
  8
0
 10
52.7045
 20
89.1679
 11
52.2395
 21
89.0052
  0
LINE
  8
0
 10
52.2395
 20
89.0052
 11
51.75
 21
88.95
  0
LINE
  8
0
 10
51.75
 20
88.95
 11
51.2605
 21
89.0052
  0
LINE
  8
0
 10
122.76
 20
89.0052
 11
122.295
 21
89.1679
  0
LINE
  8
0
 10
122.295
 20
89.1679
 11
121.878
 21
89.43
  0
LINE
  8
0
 10
121.878
 20
89.43
 11
121.53
 21
89.7783
  0
LINE
  8
0
 10
121.53
 20
89.7783
 11
121.268
 21
90.1954
  0
LINE
  8
0
 10
121.268
 20
90.1954
 11
121.105
 21
90.6604
  0
LINE
  8
0
 10
121.105
 20
90.6604
 11
121.05
 21
91.15
  0
LINE
  8
0
 10
121.05
 20
91.15
 11
121.105
 21
91.6395
  0
LINE
  8
0
 10
121.105
 20
91.6395
 11
121.268
 21
92.1045
  0
LINE
  8
0
 10
121.268
 20
92.1045
 11
121.53
 21
92.5217
  0
LINE
  8
0
 10
121.53
 20
92.5217
 11
121.878
 21
92.87
  0
LINE
  8
0
 10
121.878
 20
92.87
 11
122.295
 21
93.1321
  0
LINE
  8
0
 10
122.295
 20
93.1321
 11
122.76
 21
93.2948
  0
LINE
  8
0
 10
122.76
 20
93.2948
 11
123.25
 21
93.35
  0
LINE
  8
0
 10
123.25
 20
93.35
 11
123.74
 21
93.2948
  0
LINE
  8
0
 10
123.74
 20
93.2948
 11
124.205
 21
93.1321
  0
LINE
  8
0
 10
124.205
 20
93.1321
 11
124.622
 21
92.87
  0
LINE
  8
0
 10
124.622
 20
92.87
 11
124.97
 21
92.5217
  0
LINE
  8
0
 10
124.97
 20
92.5217
 11
125.232
 21
92.1045
  0
LINE
  8
0
 10
125.232
 20
92.1045
 11
125.395
 21
91.6395
  0
LINE
  8
0
 10
125.395
 20
91.6395
 11
125.45
 21
91.15
  0
LINE
  8
0
 10
125.45
 20
91.15
 11
125.395
 21
90.6604
  0
LINE
  8
0
 10
125.395
 20
90.6604
 11
125.232
 21
90.1954
  0
LINE
  8
0
 10
125.232
 20
90.1954
 11
124.97
 21
89.7783
  0
LINE
  8
0
 10
124.97
 20
89.7783
 11
124.622
 21
89.43
  0
LINE
  8
0
 10
124.622
 20
89.43
 11
124.205
 21
89.1679
  0
LINE
  8
0
 10
124.205
 20
89.1679
 11
123.74
 21
89.0052
  0
LINE
  8
0
 10
123.74
 20
89.0052
 11
123.25
 21
88.95
  0
LINE
  8
0
 10
123.25
 20
88.95
 11
122.76
 21
89.0052
  0
LINE
  8
0
 10
84.2317
 20
18.0427
 11
80.9882
 21
18.4697
  0
LINE
  8
0
 10
80.9882
 20
18.4697
 11
77.7943
 21
19.1778
  0
LINE
  8
0
 10
77.7943
 20
19.1778
 11
74.6742
 21
20.1615
  0
LINE
  8
0
 10
74.6742
 20
20.1615
 11
71.6518
 21
21.4135
  0
LINE
  8
0
 10
71.6518
 20
21.4135
 11
68.75
 21
22.924
  0
LINE
  8
0
 10
68.75
 20
22.924
 11
65.9909
 21
24.6818
  0
LINE
  8
0
 10
65.9909
 20
24.6818
 11
63.3955
 21
26.6733
  0
LINE
  8
0
 10
63.3955
 20
26.6733
 11
60.9835
 21
28.8835
  0
LINE
  8
0
 10
60.9835
 20
28.8835
 11
58.7733
 21
31.2955
  0
LINE
  8
0
 10
58.7733
 20
31.2955
 11
56.7818
 21
33.8909
  0
LINE
  8
0
 10
56.7818
 20
33.8909
 11
55.024
 21
36.65
  0
LINE
  8
0
 10
55.024
 20
36.65
 11
53.5134
 21
39.5518
  0
LINE
  8
0
 10
53.5134
 20
39.5518
 11
52.2615
 21
42.5742
  0
LINE
  8
0
 10
52.2615
 20
42.5742
 11
51.2778
 21
45.6943
  0
LINE
  8
0
 10
51.2778
 20
45.6943
 11
50.5697
 21
48.8882
  0
LINE
  8
0
 10
50.5697
 20
48.8882
 11
50.1427
 21
52.1317
  0
LINE
  8
0
 10
50.1427
 20
52.1317
 11
50
 21
55.4
  0
LINE
  8
0
 10
50
 20
55.4
 11
50.1427
 21
58.6683
  0
LINE
  8
0
 10
50.1427
 20
58.6683
 11
50.5697
 21
61.9118
  0
LINE
  8
0
 10
50.5697
 20
61.9118
 11
51.2778
 21
65.1057
  0
LINE
  8
0
 10
51.2778
 20
65.1057
 11
52.2615
 21
68.2258
  0
LINE
  8
0
 10
52.2615
 20
68.2258
 11
53.5134
 21
71.2482
  0
LINE
  8
0
 10
53.5134
 20
71.2482
 11
55.024
 21
74.15
  0
LINE
  8
0
 10
55.024
 20
74.15
 11
56.7818
 21
76.9091
  0
LINE
  8
0
 10
56.7818
 20
76.9091
 11
58.7733
 21
79.5045
  0
LINE
  8
0
 10
58.7733
 20
79.5045
 11
60.9835
 21
81.9165
  0
LINE
  8
0
 10
60.9835
 20
81.9165
 11
63.3955
 21
84.1267
  0
LINE
  8
0
 10
63.3955
 20
84.1267
 11
65.9909
 21
86.1182
  0
LINE
  8
0
 10
65.9909
 20
86.1182
 11
68.75
 21
87.8759
  0
LINE
  8
0
 10
68.75
 20
87.8759
 11
71.6518
 21
89.3865
  0
LINE
  8
0
 10
71.6518
 20
89.3865
 11
74.6742
 21
90.6385
  0
LINE
  8
0
 10
74.6742
 20
90.6385
 11
77.7943
 21
91.6222
  0
LINE
  8
0
 10
77.7943
 20
91.6222
 11
80.9882
 21
92.3303
  0
LINE
  8
0
 10
80.9882
 20
92.3303
 11
84.2317
 21
92.7573
  0
LINE
  8
0
 10
84.2317
 20
92.7573
 11
87.5
 21
92.9
  0
LINE
  8
0
 10
87.5
 20
92.9
 11
90.7683
 21
92.7573
  0
LINE
  8
0
 10
90.7683
 20
92.7573
 11
94.0118
 21
92.3303
  0
LINE
  8
0
 10
94.0118
 20
92.3303
 11
97.2057
 21
91.6222
  0
LINE
  8
0
 10
97.2057
 20
91.6222
 11
100.326
 21
90.6385
  0
LINE
  8
0
 10
100.326
 20
90.6385
 11
103.348
 21
89.3865
  0
LINE
  8
0
 10
103.348
 20
89.3865
 11
106.25
 21
87.8759
  0
LINE
  8
0
 10
106.25
 20
87.8759
 11
109.009
 21
86.1182
  0
LINE
  8
0
 10
109.009
 20
86.1182
 11
111.605
 21
84.1267
  0
LINE
  8
0
 10
111.605
 20
84.1267
 11
114.016
 21
81.9165
  0
LINE
  8
0
 10
114.016
 20
81.9165
 11
116.227
 21
79.5045
  0
LINE
  8
0
 10
116.227
 20
79.5045
 11
118.218
 21
76.9091
  0
LINE
  8
0
 10
118.218
 20
76.9091
 11
119.976
 21
74.15
  0
LINE
  8
0
 10
119.976
 20
74.15
 11
121.487
 21
71.2482
  0
LINE
  8
0
 10
121.487
 20
71.2482
 11
122.738
 21
68.2258
  0
LINE
  8
0
 10
122.738
 20
68.2258
 11
123.722
 21
65.1057
  0
LINE
  8
0
 10
123.722
 20
65.1057
 11
124.43
 21
61.9118
  0
LINE
  8
0
 10
124.43
 20
61.9118
 11
124.857
 21
58.6683
  0
LINE
  8
0
 10
124.857
 20
58.6683
 11
125
 21
55.4
  0
LINE
  8
0
 10
125
 20
55.4
 11
124.857
 21
52.1317
  0
LINE
  8
0
 10
124.857
 20
52.1317
 11
124.43
 21
48.8882
  0
LINE
  8
0
 10
124.43
 20
48.8882
 11
123.722
 21
45.6943
  0
LINE
  8
0
 10
123.722
 20
45.6943
 11
122.738
 21
42.5742
  0
LINE
  8
0
 10
122.738
 20
42.5742
 11
121.487
 21
39.5518
  0
LINE
  8
0
 10
121.487
 20
39.5518
 11
119.976
 21
36.65
  0
LINE
  8
0
 10
119.976
 20
36.65
 11
118.218
 21
33.8909
  0
LINE
  8
0
 10
118.218
 20
33.8909
 11
116.227
 21
31.2955
  0
LINE
  8
0
 10
116.227
 20
31.2955
 11
114.016
 21
28.8835
  0
LINE
  8
0
 10
114.016
 20
28.8835
 11
111.605
 21
26.6733
  0
LINE
  8
0
 10
111.605
 20
26.6733
 11
109.009
 21
24.6818
  0
LINE
  8
0
 10
109.009
 20
24.6818
 11
106.25
 21
22.924
  0
LINE
  8
0
 10
106.25
 20
22.924
 11
103.348
 21
21.4135
  0
LINE
  8
0
 10
103.348
 20
21.4135
 11
100.326
 21
20.1615
  0
LINE
  8
0
 10
100.326
 20
20.1615
 11
97.2057
 21
19.1778
  0
LINE
  8
0
 10
97.2057
 20
19.1778
 11
94.0118
 21
18.4697
  0
LINE
  8
0
 10
94.0118
 20
18.4697
 11
90.7683
 21
18.0427
  0
LINE
  8
0
 10
90.7683
 20
18.0427
 11
87.5
 21
17.9
  0
LINE
  8
0
 10
87.5
 20
17.9
 11
84.2317
 21
18.0427
  0
LINE
  8
0
 10
278.572
 20
87.2052
 11
278.107
 21
87.3679
  0
LINE
  8
0
 10
278.107
 20
87.3679
 11
277.69
 21
87.63
  0
LINE
  8
0
 10
277.69
 20
87.63
 11
277.342
 21
87.9783
  0
LINE
  8
0
 10
277.342
 20
87.9783
 11
277.079
 21
88.3954
  0
LINE
  8
0
 10
277.079
 20
88.3954
 11
276.917
 21
88.8604
  0
LINE
  8
0
 10
276.917
 20
88.8604
 11
276.862
 21
89.35
  0
LINE
  8
0
 10
276.862
 20
89.35
 11
276.917
 21
89.8395
  0
LINE
  8
0
 10
276.917
 20
89.8395
 11
277.079
 21
90.3045
  0
LINE
  8
0
 10
277.079
 20
90.3045
 11
277.342
 21
90.7217
  0
LINE
  8
0
 10
277.342
 20
90.7217
 11
277.69
 21
91.07
  0
LINE
  8
0
 10
277.69
 20
91.07
 11
278.107
 21
91.3321
  0
LINE
  8
0
 10
278.107
 20
91.3321
 11
278.572
 21
91.4948
  0
LINE
  8
0
 10
278.572
 20
91.4948
 11
279.062
 21
91.55
  0
LINE
  8
0
 10
279.062
 20
91.55
 11
279.551
 21
91.4948
  0
LINE
  8
0
 10
279.551
 20
91.4948
 11
280.016
 21
91.3321
  0
LINE
  8
0
 10
280.016
 20
91.3321
 11
280.433
 21
91.07
  0
LINE
  8
0
 10
280.433
 20
91.07
 11
280.782
 21
90.7217
  0
LINE
  8
0
 10
280.782
 20
90.7217
 11
281.044
 21
90.3045
  0
LINE
  8
0
 10
281.044
 20
90.3045
 11
281.206
 21
89.8395
  0
LINE
  8
0
 10
281.206
 20
89.8395
 11
281.262
 21
89.35
  0
LINE
  8
0
 10
281.262
 20
89.35
 11
281.206
 21
88.8604
  0
LINE
  8
0
 10
281.206
 20
88.8604
 11
281.044
 21
88.3954
  0
LINE
  8
0
 10
281.044
 20
88.3954
 11
280.782
 21
87.9783
  0
LINE
  8
0
 10
280.782
 20
87.9783
 11
280.433
 21
87.63
  0
LINE
  8
0
 10
280.433
 20
87.63
 11
280.016
 21
87.3679
  0
LINE
  8
0
 10
280.016
 20
87.3679
 11
279.551
 21
87.2052
  0
LINE
  8
0
 10
279.551
 20
87.2052
 11
279.062
 21
87.15
  0
LINE
  8
0
 10
279.062
 20
87.15
 11
278.572
 21
87.2052
  0
LINE
  8
0
 10
51.2605
 20
17.5052
 11
50.7954
 21
17.6679
  0
LINE
  8
0
 10
50.7954
 20
17.6679
 11
50.3783
 21
17.93
  0
LINE
  8
0
 10
50.3783
 20
17.93
 11
50.03
 21
18.2783
  0
LINE
  8
0
 10
50.03
 20
18.2783
 11
49.7679
 21
18.6954
  0
LINE
  8
0
 10
49.7679
 20
18.6954
 11
49.6051
 21
19.1604
  0
LINE
  8
0
 10
49.6051
 20
19.1604
 11
49.55
 21
19.65
  0
LINE
  8
0
 10
49.55
 20
19.65
 11
49.6051
 21
20.1395
  0
LINE
  8
0
 10
49.6051
 20
20.1395
 11
49.7679
 21
20.6045
  0
LINE
  8
0
 10
49.7679
 20
20.6045
 11
50.03
 21
21.0217
  0
LINE
  8
0
 10
50.03
 20
21.0217
 11
50.3783
 21
21.37
  0
LINE
  8
0
 10
50.3783
 20
21.37
 11
50.7954
 21
21.6321
  0
LINE
  8
0
 10
50.7954
 20
21.6321
 11
51.2605
 21
21.7948
  0
LINE
  8
0
 10
51.2605
 20
21.7948
 11
51.75
 21
21.85
  0
LINE
  8
0
 10
51.75
 20
21.85
 11
52.2395
 21
21.7948
  0
LINE
  8
0
 10
52.2395
 20
21.7948
 11
52.7045
 21
21.6321
  0
LINE
  8
0
 10
52.7045
 20
21.6321
 11
53.1217
 21
21.37
  0
LINE
  8
0
 10
53.1217
 20
21.37
 11
53.47
 21
21.0217
  0
LINE
  8
0
 10
53.47
 20
21.0217
 11
53.7321
 21
20.6045
  0
LINE
  8
0
 10
53.7321
 20
20.6045
 11
53.8948
 21
20.1395
  0
LINE
  8
0
 10
53.8948
 20
20.1395
 11
53.95
 21
19.65
  0
LINE
  8
0
 10
53.95
 20
19.65
 11
53.8948
 21
19.1604
  0
LINE
  8
0
 10
53.8948
 20
19.1604
 11
53.7321
 21
18.6954
  0
LINE
  8
0
 10
53.7321
 20
18.6954
 11
53.47
 21
18.2783
  0
LINE
  8
0
 10
53.47
 20
18.2783
 11
53.1217
 21
17.93
  0
LINE
  8
0
 10
53.1217
 20
17.93
 11
52.7045
 21
17.6679
  0
LINE
  8
0
 10
52.7045
 20
17.6679
 11
52.2395
 21
17.5052
  0
LINE
  8
0
 10
52.2395
 20
17.5052
 11
51.75
 21
17.45
  0
LINE
  8
0
 10
51.75
 20
17.45
 11
51.2605
 21
17.5052
  0
LINE
  8
0
 10
122.76
 20
17.5052
 11
122.295
 21
17.6679
  0
LINE
  8
0
 10
122.295
 20
17.6679
 11
121.878
 21
17.93
  0
LINE
  8
0
 10
121.878
 20
17.93
 11
121.53
 21
18.2783
  0
LINE
  8
0
 10
121.53
 20
18.2783
 11
121.268
 21
18.6954
  0
LINE
  8
0
 10
121.268
 20
18.6954
 11
121.105
 21
19.1604
  0
LINE
  8
0
 10
121.105
 20
19.1604
 11
121.05
 21
19.65
  0
LINE
  8
0
 10
121.05
 20
19.65
 11
121.105
 21
20.1395
  0
LINE
  8
0
 10
121.105
 20
20.1395
 11
121.268
 21
20.6045
  0
LINE
  8
0
 10
121.268
 20
20.6045
 11
121.53
 21
21.0217
  0
LINE
  8
0
 10
121.53
 20
21.0217
 11
121.878
 21
21.37
  0
LINE
  8
0
 10
121.878
 20
21.37
 11
122.295
 21
21.6321
  0
LINE
  8
0
 10
122.295
 20
21.6321
 11
122.76
 21
21.7948
  0
LINE
  8
0
 10
122.76
 20
21.7948
 11
123.25
 21
21.85
  0
LINE
  8
0
 10
123.25
 20
21.85
 11
123.74
 21
21.7948
  0
LINE
  8
0
 10
123.74
 20
21.7948
 11
124.205
 21
21.6321
  0
LINE
  8
0
 10
124.205
 20
21.6321
 11
124.622
 21
21.37
  0
LINE
  8
0
 10
124.622
 20
21.37
 11
124.97
 21
21.0217
  0
LINE
  8
0
 10
124.97
 20
21.0217
 11
125.232
 21
20.6045
  0
LINE
  8
0
 10
125.232
 20
20.6045
 11
125.395
 21
20.1395
  0
LINE
  8
0
 10
125.395
 20
20.1395
 11
125.45
 21
19.65
  0
LINE
  8
0
 10
125.45
 20
19.65
 11
125.395
 21
19.1604
  0
LINE
  8
0
 10
125.395
 20
19.1604
 11
125.232
 21
18.6954
  0
LINE
  8
0
 10
125.232
 20
18.6954
 11
124.97
 21
18.2783
  0
LINE
  8
0
 10
124.97
 20
18.2783
 11
124.622
 21
17.93
  0
LINE
  8
0
 10
124.622
 20
17.93
 11
124.205
 21
17.6679
  0
LINE
  8
0
 10
124.205
 20
17.6679
 11
123.74
 21
17.5052
  0
LINE
  8
0
 10
123.74
 20
17.5052
 11
123.25
 21
17.45
  0
LINE
  8
0
 10
123.25
 20
17.45
 11
122.76
 21
17.5052
  0
LINE
  8
0
 10
23.1
 20
4.99998
 11
22.6104
 21
5.05515
  0
LINE
  8
0
 10
22.6104
 20
5.05515
 11
22.1454
 21
5.21786
  0
LINE
  8
0
 10
22.1454
 20
5.21786
 11
21.7283
 21
5.47997
  0
LINE
  8
0
 10
21.7283
 20
5.47997
 11
21.38
 21
5.82831
  0
LINE
  8
0
 10
21.38
 20
5.82831
 11
21.1179
 21
6.24545
  0
LINE
  8
0
 10
21.1179
 20
6.24545
 11
20.9552
 21
6.71045
  0
LINE
  8
0
 10
20.9552
 20
6.71045
 11
20.9
 21
7.2
  0
LINE
  8
0
 10
20.9
 20
7.2
 11
20.9552
 21
7.68954
  0
LINE
  8
0
 10
20.9552
 20
7.68954
 11
21.1179
 21
8.15454
  0
LINE
  8
0
 10
21.1179
 20
8.15454
 11
21.38
 21
8.57167
  0
LINE
  8
0
 10
21.38
 20
8.57167
 11
21.7283
 21
8.92003
  0
LINE
  8
0
 10
21.7283
 20
8.92003
 11
22.1454
 21
9.18213
  0
LINE
  8
0
 10
22.1454
 20
9.18213
 11
22.6104
 21
9.34483
  0
LINE
  8
0
 10
22.6104
 20
9.34483
 11
23.1
 21
9.39999
  0
LINE
  8
0
 10
23.1
 20
9.39999
 11
23.5895
 21
9.34483
  0
LINE
  8
0
 10
23.5895
 20
9.34483
 11
24.0545
 21
9.18213
  0
LINE
  8
0
 10
24.0545
 20
9.18213
 11
24.4717
 21
8.92003
  0
LINE
  8
0
 10
24.4717
 20
8.92003
 11
24.82
 21
8.57167
  0
LINE
  8
0
 10
24.82
 20
8.57167
 11
25.0821
 21
8.15454
  0
LINE
  8
0
 10
25.0821
 20
8.15454
 11
25.2448
 21
7.68954
  0
LINE
  8
0
 10
25.2448
 20
7.68954
 11
25.3
 21
7.2
  0
LINE
  8
0
 10
25.3
 20
7.2
 11
25.2448
 21
6.71045
  0
LINE
  8
0
 10
25.2448
 20
6.71045
 11
25.0821
 21
6.24545
  0
LINE
  8
0
 10
25.0821
 20
6.24545
 11
24.82
 21
5.82831
  0
LINE
  8
0
 10
24.82
 20
5.82831
 11
24.4717
 21
5.47997
  0
LINE
  8
0
 10
24.4717
 20
5.47997
 11
24.0545
 21
5.21786
  0
LINE
  8
0
 10
24.0545
 20
5.21786
 11
23.5895
 21
5.05515
  0
LINE
  8
0
 10
23.5895
 20
5.05515
 11
23.1
 21
4.99998
  0
LINE
  8
0
 10
44.32
 20
4.99998
 11
43.8304
 21
5.05515
  0
LINE
  8
0
 10
43.8304
 20
5.05515
 11
43.3654
 21
5.21786
  0
LINE
  8
0
 10
43.3654
 20
5.21786
 11
42.9483
 21
5.47997
  0
LINE
  8
0
 10
42.9483
 20
5.47997
 11
42.6
 21
5.82831
  0
LINE
  8
0
 10
42.6
 20
5.82831
 11
42.3379
 21
6.24545
  0
LINE
  8
0
 10
42.3379
 20
6.24545
 11
42.1752
 21
6.71045
  0
LINE
  8
0
 10
42.1752
 20
6.71045
 11
42.12
 21
7.2
  0
LINE
  8
0
 10
42.12
 20
7.2
 11
42.1752
 21
7.68954
  0
LINE
  8
0
 10
42.1752
 20
7.68954
 11
42.3379
 21
8.15454
  0
LINE
  8
0
 10
42.3379
 20
8.15454
 11
42.6
 21
8.57167
  0
LINE
  8
0
 10
42.6
 20
8.57167
 11
42.9483
 21
8.92001
  0
LINE
  8
0
 10
42.9483
 20
8.92001
 11
43.3654
 21
9.18213
  0
LINE
  8
0
 10
43.3654
 20
9.18213
 11
43.8304
 21
9.34483
  0
LINE
  8
0
 10
43.8304
 20
9.34483
 11
44.32
 21
9.39999
  0
LINE
  8
0
 10
44.32
 20
9.39999
 11
44.8095
 21
9.34483
  0
LINE
  8
0
 10
44.8095
 20
9.34483
 11
45.2745
 21
9.18213
  0
LINE
  8
0
 10
45.2745
 20
9.18213
 11
45.6917
 21
8.92001
  0
LINE
  8
0
 10
45.6917
 20
8.92001
 11
46.04
 21
8.57167
  0
LINE
  8
0
 10
46.04
 20
8.57167
 11
46.3021
 21
8.15454
  0
LINE
  8
0
 10
46.3021
 20
8.15454
 11
46.4648
 21
7.68954
  0
LINE
  8
0
 10
46.4648
 20
7.68954
 11
46.52
 21
7.2
  0
LINE
  8
0
 10
46.52
 20
7.2
 11
46.4648
 21
6.71045
  0
LINE
  8
0
 10
46.4648
 20
6.71045
 11
46.3021
 21
6.24545
  0
LINE
  8
0
 10
46.3021
 20
6.24545
 11
46.04
 21
5.82831
  0
LINE
  8
0
 10
46.04
 20
5.82831
 11
45.6917
 21
5.47997
  0
LINE
  8
0
 10
45.6917
 20
5.47997
 11
45.2745
 21
5.21786
  0
LINE
  8
0
 10
45.2745
 20
5.21786
 11
44.8095
 21
5.05515
  0
LINE
  8
0
 10
44.8095
 20
5.05515
 11
44.32
 21
4.99998
  0
LINE
  8
0
 10
347.68
 20
4.99998
 11
347.19
 21
5.05515
  0
LINE
  8
0
 10
347.19
 20
5.05515
 11
346.725
 21
5.21786
  0
LINE
  8
0
 10
346.725
 20
5.21786
 11
346.308
 21
5.47997
  0
LINE
  8
0
 10
346.308
 20
5.47997
 11
345.96
 21
5.82831
  0
LINE
  8
0
 10
345.96
 20
5.82831
 11
345.698
 21
6.24545
  0
LINE
  8
0
 10
345.698
 20
6.24545
 11
345.535
 21
6.71045
  0
LINE
  8
0
 10
345.535
 20
6.71045
 11
345.48
 21
7.2
  0
LINE
  8
0
 10
345.48
 20
7.2
 11
345.535
 21
7.68954
  0
LINE
  8
0
 10
345.535
 20
7.68954
 11
345.698
 21
8.15454
  0
LINE
  8
0
 10
345.698
 20
8.15454
 11
345.96
 21
8.57167
  0
LINE
  8
0
 10
345.96
 20
8.57167
 11
346.308
 21
8.92003
  0
LINE
  8
0
 10
346.308
 20
8.92003
 11
346.725
 21
9.18213
  0
LINE
  8
0
 10
346.725
 20
9.18213
 11
347.19
 21
9.34483
  0
LINE
  8
0
 10
347.19
 20
9.34483
 11
347.68
 21
9.39999
  0
LINE
  8
0
 10
347.68
 20
9.39999
 11
348.17
 21
9.34483
  0
LINE
  8
0
 10
348.17
 20
9.34483
 11
348.635
 21
9.18213
  0
LINE
  8
0
 10
348.635
 20
9.18213
 11
349.052
 21
8.92003
  0
LINE
  8
0
 10
349.052
 20
8.92003
 11
349.4
 21
8.57167
  0
LINE
  8
0
 10
349.4
 20
8.57167
 11
349.662
 21
8.15454
  0
LINE
  8
0
 10
349.662
 20
8.15454
 11
349.825
 21
7.68954
  0
LINE
  8
0
 10
349.825
 20
7.68954
 11
349.88
 21
7.2
  0
LINE
  8
0
 10
349.88
 20
7.2
 11
349.825
 21
6.71045
  0
LINE
  8
0
 10
349.825
 20
6.71045
 11
349.662
 21
6.24545
  0
LINE
  8
0
 10
349.662
 20
6.24545
 11
349.4
 21
5.82831
  0
LINE
  8
0
 10
349.4
 20
5.82831
 11
349.052
 21
5.47997
  0
LINE
  8
0
 10
349.052
 20
5.47997
 11
348.635
 21
5.21786
  0
LINE
  8
0
 10
348.635
 20
5.21786
 11
348.17
 21
5.05515
  0
LINE
  8
0
 10
348.17
 20
5.05515
 11
347.68
 21
4.99998
  0
LINE
  8
0
 10
368.9
 20
4.99998
 11
368.41
 21
5.05515
  0
LINE
  8
0
 10
368.41
 20
5.05515
 11
367.945
 21
5.21786
  0
LINE
  8
0
 10
367.945
 20
5.21786
 11
367.528
 21
5.47997
  0
LINE
  8
0
 10
367.528
 20
5.47997
 11
367.18
 21
5.82831
  0
LINE
  8
0
 10
367.18
 20
5.82831
 11
366.918
 21
6.24545
  0
LINE
  8
0
 10
366.918
 20
6.24545
 11
366.755
 21
6.71045
  0
LINE
  8
0
 10
366.755
 20
6.71045
 11
366.7
 21
7.2
  0
LINE
  8
0
 10
366.7
 20
7.2
 11
366.755
 21
7.68954
  0
LINE
  8
0
 10
366.755
 20
7.68954
 11
366.918
 21
8.15454
  0
LINE
  8
0
 10
366.918
 20
8.15454
 11
367.18
 21
8.57167
  0
LINE
  8
0
 10
367.18
 20
8.57167
 11
367.528
 21
8.92001
  0
LINE
  8
0
 10
367.528
 20
8.92001
 11
367.945
 21
9.18213
  0
LINE
  8
0
 10
367.945
 20
9.18213
 11
368.41
 21
9.34483
  0
LINE
  8
0
 10
368.41
 20
9.34483
 11
368.9
 21
9.39999
  0
LINE
  8
0
 10
368.9
 20
9.39999
 11
369.39
 21
9.34483
  0
LINE
  8
0
 10
369.39
 20
9.34483
 11
369.855
 21
9.18213
  0
LINE
  8
0
 10
369.855
 20
9.18213
 11
370.272
 21
8.92001
  0
LINE
  8
0
 10
370.272
 20
8.92001
 11
370.62
 21
8.57167
  0
LINE
  8
0
 10
370.62
 20
8.57167
 11
370.882
 21
8.15454
  0
LINE
  8
0
 10
370.882
 20
8.15454
 11
371.045
 21
7.68954
  0
LINE
  8
0
 10
371.045
 20
7.68954
 11
371.1
 21
7.2
  0
LINE
  8
0
 10
371.1
 20
7.2
 11
371.045
 21
6.71045
  0
LINE
  8
0
 10
371.045
 20
6.71045
 11
370.882
 21
6.24545
  0
LINE
  8
0
 10
370.882
 20
6.24545
 11
370.62
 21
5.82831
  0
LINE
  8
0
 10
370.62
 20
5.82831
 11
370.272
 21
5.47997
  0
LINE
  8
0
 10
370.272
 20
5.47997
 11
369.855
 21
5.21786
  0
LINE
  8
0
 10
369.855
 20
5.21786
 11
369.39
 21
5.05515
  0
LINE
  8
0
 10
369.39
 20
5.05515
 11
368.9
 21
4.99998
  0
LINE
  8
0
 10
369.179
 20
-170.405
 11
371.341
 21
-170.12
  0
LINE
  8
0
 10
371.341
 20
-170.12
 11
373.47
 21
-169.648
  0
LINE
  8
0
 10
373.47
 20
-169.648
 11
375.55
 21
-168.992
  0
LINE
  8
0
 10
375.55
 20
-168.992
 11
377.565
 21
-168.158
  0
LINE
  8
0
 10
377.565
 20
-168.158
 11
379.5
 21
-167.151
  0
LINE
  8
0
 10
379.5
 20
-167.151
 11
381.339
 21
-165.979
  0
LINE
  8
0
 10
381.339
 20
-165.979
 11
383.07
 21
-164.651
  0
LINE
  8
0
 10
383.07
 20
-164.651
 11
384.678
 21
-163.178
  0
LINE
  8
0
 10
384.678
 20
-163.178
 11
386.151
 21
-161.57
  0
LINE
  8
0
 10
386.151
 20
-161.57
 11
387.479
 21
-159.839
  0
LINE
  8
0
 10
387.479
 20
-159.839
 11
388.651
 21
-158
  0
LINE
  8
0
 10
388.651
 20
-158
 11
389.658
 21
-156.065
  0
LINE
  8
0
 10
389.658
 20
-156.065
 11
390.492
 21
-154.05
  0
LINE
  8
0
 10
390.492
 20
-154.05
 11
391.148
 21
-151.97
  0
LINE
  8
0
 10
391.148
 20
-151.97
 11
391.62
 21
-149.841
  0
LINE
  8
0
 10
391.62
 20
-149.841
 11
391.905
 21
-147.679
  0
LINE
  8
0
 10
391.905
 20
-147.679
 11
392
 21
-145.5
  0
LINE
  8
0
 10
392
 20
-145.5
 11
392
 21
-4
  0
LINE
  8
0
 10
392
 20
-4
 11
337.565
 21
-4
  0
LINE
  8
0
 10
337.565
 20
-4
 11
337.565
 21
-6.24106
  0
LINE
  8
0
 10
337.565
 20
-6.24106
 11
337.45
 21
-6.7092
  0
LINE
  8
0
 10
337.45
 20
-6.7092
 11
337.226
 21
-7.13612
  0
LINE
  8
0
 10
337.226
 20
-7.13612
 11
336.906
 21
-7.49701
  0
LINE
  8
0
 10
336.906
 20
-7.49701
 11
336.509
 21
-7.7709
  0
LINE
  8
0
 10
336.509
 20
-7.7709
 11
336.059
 21
-7.94188
  0
LINE
  8
0
 10
336.059
 20
-7.94188
 11
335.58
 21
-8
  0
LINE
  8
0
 10
335.58
 20
-8
 11
335.101
 21
-7.94188
  0
LINE
  8
0
 10
335.101
 20
-7.94188
 11
334.651
 21
-7.7709
  0
LINE
  8
0
 10
334.651
 20
-7.7709
 11
334.254
 21
-7.49701
  0
LINE
  8
0
 10
334.254
 20
-7.49701
 11
333.934
 21
-7.13612
  0
LINE
  8
0
 10
333.934
 20
-7.13612
 11
333.71
 21
-6.7092
  0
LINE
  8
0
 10
333.71
 20
-6.7092
 11
333.595
 21
-6.24106
  0
LINE
  8
0
 10
333.595
 20
-6.24106
 11
333.595
 21
-4
  0
LINE
  8
0
 10
333.595
 20
-4
 11
326.67
 21
-4
  0
LINE
  8
0
 10
326.67
 20
-4
 11
326.67
 21
-7.24773
  0
LINE
  8
0
 10
326.67
 20
-7.24773
 11
326.588
 21
-7.73645
  0
LINE
  8
0
 10
326.588
 20
-7.73645
 11
326.427
 21
-8.20508
  0
LINE
  8
0
 10
326.427
 20
-8.20508
 11
326.191
 21
-8.64084
  0
LINE
  8
0
 10
326.191
 20
-8.64084
 11
325.887
 21
-9.03183
  0
LINE
  8
0
 10
325.887
 20
-9.03183
 11
325.523
 21
-9.36742
  0
LINE
  8
0
 10
325.523
 20
-9.36742
 11
325.108
 21
-9.63841
  0
LINE
  8
0
 10
325.108
 20
-9.63841
 11
324.654
 21
-9.83745
  0
LINE
  8
0
 10
324.654
 20
-9.83745
 11
324.174
 21
-9.95908
  0
LINE
  8
0
 10
324.174
 20
-9.95908
 11
323.68
 21
-10
  0
LINE
  8
0
 10
323.68
 20
-10
 11
323.186
 21
-9.95908
  0
LINE
  8
0
 10
323.186
 20
-9.95908
 11
322.706
 21
-9.83745
  0
LINE
  8
0
 10
322.706
 20
-9.83745
 11
322.252
 21
-9.63841
  0
LINE
  8
0
 10
322.252
 20
-9.63841
 11
321.837
 21
-9.36742
  0
LINE
  8
0
 10
321.837
 20
-9.36742
 11
321.473
 21
-9.03183
  0
LINE
  8
0
 10
321.473
 20
-9.03183
 11
321.168
 21
-8.64084
  0
LINE
  8
0
 10
321.168
 20
-8.64084
 11
320.933
 21
-8.20508
  0
LINE
  8
0
 10
320.933
 20
-8.20508
 11
320.772
 21
-7.73645
  0
LINE
  8
0
 10
320.772
 20
-7.73645
 11
320.69
 21
-7.24773
  0
LINE
  8
0
 10
320.69
 20
-7.24773
 11
320.69
 21
-4
  0
LINE
  8
0
 10
320.69
 20
-4
 11
0
 21
-4
  0
LINE
  8
0
 10
0
 20
-4
 11
0
 21
-18.4
  0
LINE
  8
0
 10
0
 20
-18.4
 11
2.49998
 21
-18.4
  0
LINE
  8
0
 10
2.49998
 20
-18.4
 11
2.98772
 21
-18.448
  0
LINE
  8
0
 10
2.98772
 20
-18.448
 11
3.4567
 21
-18.5903
  0
LINE
  8
0
 10
3.4567
 20
-18.5903
 11
3.88892
 21
-18.8213
  0
LINE
  8
0
 10
3.88892
 20
-18.8213
 11
4.26776
 21
-19.1322
  0
LINE
  8
0
 10
4.26776
 20
-19.1322
 11
4.57866
 21
-19.5111
  0
LINE
  8
0
 10
4.57866
 20
-19.5111
 11
4.80969
 21
-19.9433
  0
LINE
  8
0
 10
4.80969
 20
-19.9433
 11
4.95195
 21
-20.4123
  0
LINE
  8
0
 10
4.95195
 20
-20.4123
 11
4.99998
 21
-20.9
  0
LINE
  8
0
 10
4.99998
 20
-20.9
 11
4.95195
 21
-21.3877
  0
LINE
  8
0
 10
4.95195
 20
-21.3877
 11
4.80969
 21
-21.8567
  0
LINE
  8
0
 10
4.80969
 20
-21.8567
 11
4.57866
 21
-22.2889
  0
LINE
  8
0
 10
4.57866
 20
-22.2889
 11
4.26776
 21
-22.6678
  0
LINE
  8
0
 10
4.26776
 20
-22.6678
 11
3.88892
 21
-22.9787
  0
LINE
  8
0
 10
3.88892
 20
-22.9787
 11
3.4567
 21
-23.2097
  0
LINE
  8
0
 10
3.4567
 20
-23.2097
 11
2.98772
 21
-23.352
  0
LINE
  8
0
 10
2.98772
 20
-23.352
 11
2.49998
 21
-23.4
  0
LINE
  8
0
 10
2.49998
 20
-23.4
 11
0
 21
-23.4
  0
LINE
  8
0
 10
0
 20
-23.4
 11
0
 21
-28.4146
  0
LINE
  8
0
 10
0
 20
-28.4146
 11
2.24106
 21
-28.4146
  0
LINE
  8
0
 10
2.24106
 20
-28.4146
 11
2.7092
 21
-28.53
  0
LINE
  8
0
 10
2.7092
 20
-28.53
 11
3.13612
 21
-28.754
  0
LINE
  8
0
 10
3.13612
 20
-28.754
 11
3.49701
 21
-29.0737
  0
LINE
  8
0
 10
3.49701
 20
-29.0737
 11
3.7709
 21
-29.4706
  0
LINE
  8
0
 10
3.7709
 20
-29.4706
 11
3.94188
 21
-29.9214
  0
LINE
  8
0
 10
3.94188
 20
-29.9214
 11
3.99998
 21
-30.4
  0
LINE
  8
0
 10
3.99998
 20
-30.4
 11
3.94188
 21
-30.8786
  0
LINE
  8
0
 10
3.94188
 20
-30.8786
 11
3.7709
 21
-31.3294
  0
LINE
  8
0
 10
3.7709
 20
-31.3294
 11
3.49701
 21
-31.7262
  0
LINE
  8
0
 10
3.49701
 20
-31.7262
 11
3.13612
 21
-32.046
  0
LINE
  8
0
 10
3.13612
 20
-32.046
 11
2.7092
 21
-32.27
  0
LINE
  8
0
 10
2.7092
 20
-32.27
 11
2.24106
 21
-32.3854
  0
LINE
  8
0
 10
2.24106
 20
-32.3854
 11
0
 21
-32.3854
  0
LINE
  8
0
 10
0
 20
-32.3854
 11
0
 21
-91.9146
  0
LINE
  8
0
 10
0
 20
-91.9146
 11
2.24106
 21
-91.9146
  0
LINE
  8
0
 10
2.24106
 20
-91.9146
 11
2.7092
 21
-92.03
  0
LINE
  8
0
 10
2.7092
 20
-92.03
 11
3.13612
 21
-92.254
  0
LINE
  8
0
 10
3.13612
 20
-92.254
 11
3.49701
 21
-92.5737
  0
LINE
  8
0
 10
3.49701
 20
-92.5737
 11
3.7709
 21
-92.9706
  0
LINE
  8
0
 10
3.7709
 20
-92.9706
 11
3.94188
 21
-93.4214
  0
LINE
  8
0
 10
3.94188
 20
-93.4214
 11
3.99998
 21
-93.9
  0
LINE
  8
0
 10
3.99998
 20
-93.9
 11
3.94188
 21
-94.3786
  0
LINE
  8
0
 10
3.94188
 20
-94.3786
 11
3.7709
 21
-94.8294
  0
LINE
  8
0
 10
3.7709
 20
-94.8294
 11
3.49701
 21
-95.2262
  0
LINE
  8
0
 10
3.49701
 20
-95.2262
 11
3.13612
 21
-95.546
  0
LINE
  8
0
 10
3.13612
 20
-95.546
 11
2.7092
 21
-95.77
  0
LINE
  8
0
 10
2.7092
 20
-95.77
 11
2.24106
 21
-95.8854
  0
LINE
  8
0
 10
2.24106
 20
-95.8854
 11
0
 21
-95.8854
  0
LINE
  8
0
 10
0
 20
-95.8854
 11
0
 21
-103
  0
LINE
  8
0
 10
0
 20
-103
 11
3.49998
 21
-103
  0
LINE
  8
0
 10
3.49998
 20
-103
 11
3.99809
 21
-103.036
  0
LINE
  8
0
 10
3.99809
 20
-103.036
 11
4.48605
 21
-103.142
  0
LINE
  8
0
 10
4.48605
 20
-103.142
 11
4.95395
 21
-103.316
  0
LINE
  8
0
 10
4.95395
 20
-103.316
 11
5.39224
 21
-103.556
  0
LINE
  8
0
 10
5.39224
 20
-103.556
 11
5.79201
 21
-103.855
  0
LINE
  8
0
 10
5.79201
 20
-103.855
 11
6.14511
 21
-104.208
  0
LINE
  8
0
 10
6.14511
 20
-104.208
 11
6.44438
 21
-104.608
  0
LINE
  8
0
 10
6.44438
 20
-104.608
 11
6.6837
 21
-105.046
  0
LINE
  8
0
 10
6.6837
 20
-105.046
 11
6.85822
 21
-105.514
  0
LINE
  8
0
 10
6.85822
 20
-105.514
 11
6.96437
 21
-106.002
  0
LINE
  8
0
 10
6.96437
 20
-106.002
 11
6.99998
 21
-106.5
  0
LINE
  8
0
 10
6.99998
 20
-106.5
 11
6.96437
 21
-106.998
  0
LINE
  8
0
 10
6.96437
 20
-106.998
 11
6.85822
 21
-107.486
  0
LINE
  8
0
 10
6.85822
 20
-107.486
 11
6.6837
 21
-107.954
  0
LINE
  8
0
 10
6.6837
 20
-107.954
 11
6.44438
 21
-108.392
  0
LINE
  8
0
 10
6.44438
 20
-108.392
 11
6.14511
 21
-108.792
  0
LINE
  8
0
 10
6.14511
 20
-108.792
 11
5.79201
 21
-109.145
  0
LINE
  8
0
 10
5.79201
 20
-109.145
 11
5.39224
 21
-109.444
  0
LINE
  8
0
 10
5.39224
 20
-109.444
 11
4.95395
 21
-109.684
  0
LINE
  8
0
 10
4.95395
 20
-109.684
 11
4.48605
 21
-109.858
  0
LINE
  8
0
 10
4.48605
 20
-109.858
 11
3.99809
 21
-109.964
  0
LINE
  8
0
 10
3.99809
 20
-109.964
 11
3.49998
 21
-110
  0
LINE
  8
0
 10
3.49998
 20
-110
 11
0
 21
-110
  0
LINE
  8
0
 10
0
 20
-110
 11
0
 21
-170.5
  0
LINE
  8
0
 10
0
 20
-170.5
 11
367
 21
-170.5
  0
LINE
  8
0
 10
367
 20
-170.5
 11
369.179
 21
-170.405
  0
LINE
  8
0
 10
368.41
 20
-13.3448
 11
367.945
 21
-13.1821
  0
LINE
  8
0
 10
367.945
 20
-13.1821
 11
367.528
 21
-12.92
  0
LINE
  8
0
 10
367.528
 20
-12.92
 11
367.18
 21
-12.5717
  0
LINE
  8
0
 10
367.18
 20
-12.5717
 11
366.918
 21
-12.1545
  0
LINE
  8
0
 10
366.918
 20
-12.1545
 11
366.755
 21
-11.6895
  0
LINE
  8
0
 10
366.755
 20
-11.6895
 11
366.7
 21
-11.2
  0
LINE
  8
0
 10
366.7
 20
-11.2
 11
366.755
 21
-10.7104
  0
LINE
  8
0
 10
366.755
 20
-10.7104
 11
366.918
 21
-10.2455
  0
LINE
  8
0
 10
366.918
 20
-10.2455
 11
367.18
 21
-9.82831
  0
LINE
  8
0
 10
367.18
 20
-9.82831
 11
367.528
 21
-9.47997
  0
LINE
  8
0
 10
367.528
 20
-9.47997
 11
367.945
 21
-9.21786
  0
LINE
  8
0
 10
367.945
 20
-9.21786
 11
368.41
 21
-9.05515
  0
LINE
  8
0
 10
368.41
 20
-9.05515
 11
368.9
 21
-8.99998
  0
LINE
  8
0
 10
368.9
 20
-8.99998
 11
369.39
 21
-9.05515
  0
LINE
  8
0
 10
369.39
 20
-9.05515
 11
369.855
 21
-9.21786
  0
LINE
  8
0
 10
369.855
 20
-9.21786
 11
370.272
 21
-9.47997
  0
LINE
  8
0
 10
370.272
 20
-9.47997
 11
370.62
 21
-9.82831
  0
LINE
  8
0
 10
370.62
 20
-9.82831
 11
370.882
 21
-10.2455
  0
LINE
  8
0
 10
370.882
 20
-10.2455
 11
371.045
 21
-10.7104
  0
LINE
  8
0
 10
371.045
 20
-10.7104
 11
371.1
 21
-11.2
  0
LINE
  8
0
 10
371.1
 20
-11.2
 11
371.045
 21
-11.6895
  0
LINE
  8
0
 10
371.045
 20
-11.6895
 11
370.882
 21
-12.1545
  0
LINE
  8
0
 10
370.882
 20
-12.1545
 11
370.62
 21
-12.5717
  0
LINE
  8
0
 10
370.62
 20
-12.5717
 11
370.272
 21
-12.92
  0
LINE
  8
0
 10
370.272
 20
-12.92
 11
369.855
 21
-13.1821
  0
LINE
  8
0
 10
369.855
 20
-13.1821
 11
369.39
 21
-13.3448
  0
LINE
  8
0
 10
369.39
 20
-13.3448
 11
368.9
 21
-13.4
  0
LINE
  8
0
 10
368.9
 20
-13.4
 11
368.41
 21
-13.3448
  0
LINE
  8
0
 10
347.19
 20
-13.3448
 11
346.725
 21
-13.1821
  0
LINE
  8
0
 10
346.725
 20
-13.1821
 11
346.308
 21
-12.92
  0
LINE
  8
0
 10
346.308
 20
-12.92
 11
345.96
 21
-12.5717
  0
LINE
  8
0
 10
345.96
 20
-12.5717
 11
345.698
 21
-12.1545
  0
LINE
  8
0
 10
345.698
 20
-12.1545
 11
345.535
 21
-11.6895
  0
LINE
  8
0
 10
345.535
 20
-11.6895
 11
345.48
 21
-11.2
  0
LINE
  8
0
 10
345.48
 20
-11.2
 11
345.535
 21
-10.7104
  0
LINE
  8
0
 10
345.535
 20
-10.7104
 11
345.698
 21
-10.2455
  0
LINE
  8
0
 10
345.698
 20
-10.2455
 11
345.96
 21
-9.82831
  0
LINE
  8
0
 10
345.96
 20
-9.82831
 11
346.308
 21
-9.47997
  0
LINE
  8
0
 10
346.308
 20
-9.47997
 11
346.725
 21
-9.21786
  0
LINE
  8
0
 10
346.725
 20
-9.21786
 11
347.19
 21
-9.05515
  0
LINE
  8
0
 10
347.19
 20
-9.05515
 11
347.68
 21
-8.99998
  0
LINE
  8
0
 10
347.68
 20
-8.99998
 11
348.17
 21
-9.05515
  0
LINE
  8
0
 10
348.17
 20
-9.05515
 11
348.635
 21
-9.21786
  0
LINE
  8
0
 10
348.635
 20
-9.21786
 11
349.052
 21
-9.47997
  0
LINE
  8
0
 10
349.052
 20
-9.47997
 11
349.4
 21
-9.82831
  0
LINE
  8
0
 10
349.4
 20
-9.82831
 11
349.662
 21
-10.2455
  0
LINE
  8
0
 10
349.662
 20
-10.2455
 11
349.825
 21
-10.7104
  0
LINE
  8
0
 10
349.825
 20
-10.7104
 11
349.88
 21
-11.2
  0
LINE
  8
0
 10
349.88
 20
-11.2
 11
349.825
 21
-11.6895
  0
LINE
  8
0
 10
349.825
 20
-11.6895
 11
349.662
 21
-12.1545
  0
LINE
  8
0
 10
349.662
 20
-12.1545
 11
349.4
 21
-12.5717
  0
LINE
  8
0
 10
349.4
 20
-12.5717
 11
349.052
 21
-12.92
  0
LINE
  8
0
 10
349.052
 20
-12.92
 11
348.635
 21
-13.1821
  0
LINE
  8
0
 10
348.635
 20
-13.1821
 11
348.17
 21
-13.3448
  0
LINE
  8
0
 10
348.17
 20
-13.3448
 11
347.68
 21
-13.4
  0
LINE
  8
0
 10
347.68
 20
-13.4
 11
347.19
 21
-13.3448
  0
LINE
  8
0
 10
43.8304
 20
-13.3448
 11
43.3654
 21
-13.1821
  0
LINE
  8
0
 10
43.3654
 20
-13.1821
 11
42.9483
 21
-12.92
  0
LINE
  8
0
 10
42.9483
 20
-12.92
 11
42.6
 21
-12.5717
  0
LINE
  8
0
 10
42.6
 20
-12.5717
 11
42.3379
 21
-12.1545
  0
LINE
  8
0
 10
42.3379
 20
-12.1545
 11
42.1752
 21
-11.6895
  0
LINE
  8
0
 10
42.1752
 20
-11.6895
 11
42.12
 21
-11.2
  0
LINE
  8
0
 10
42.12
 20
-11.2
 11
42.1752
 21
-10.7104
  0
LINE
  8
0
 10
42.1752
 20
-10.7104
 11
42.3379
 21
-10.2455
  0
LINE
  8
0
 10
42.3379
 20
-10.2455
 11
42.6
 21
-9.82831
  0
LINE
  8
0
 10
42.6
 20
-9.82831
 11
42.9483
 21
-9.47997
  0
LINE
  8
0
 10
42.9483
 20
-9.47997
 11
43.3654
 21
-9.21786
  0
LINE
  8
0
 10
43.3654
 20
-9.21786
 11
43.8304
 21
-9.05515
  0
LINE
  8
0
 10
43.8304
 20
-9.05515
 11
44.32
 21
-8.99998
  0
LINE
  8
0
 10
44.32
 20
-8.99998
 11
44.8095
 21
-9.05515
  0
LINE
  8
0
 10
44.8095
 20
-9.05515
 11
45.2745
 21
-9.21786
  0
LINE
  8
0
 10
45.2745
 20
-9.21786
 11
45.6917
 21
-9.47997
  0
LINE
  8
0
 10
45.6917
 20
-9.47997
 11
46.04
 21
-9.82831
  0
LINE
  8
0
 10
46.04
 20
-9.82831
 11
46.3021
 21
-10.2455
  0
LINE
  8
0
 10
46.3021
 20
-10.2455
 11
46.4648
 21
-10.7104
  0
LINE
  8
0
 10
46.4648
 20
-10.7104
 11
46.52
 21
-11.2
  0
LINE
  8
0
 10
46.52
 20
-11.2
 11
46.4648
 21
-11.6895
  0
LINE
  8
0
 10
46.4648
 20
-11.6895
 11
46.3021
 21
-12.1545
  0
LINE
  8
0
 10
46.3021
 20
-12.1545
 11
46.04
 21
-12.5717
  0
LINE
  8
0
 10
46.04
 20
-12.5717
 11
45.6917
 21
-12.92
  0
LINE
  8
0
 10
45.6917
 20
-12.92
 11
45.2745
 21
-13.1821
  0
LINE
  8
0
 10
45.2745
 20
-13.1821
 11
44.8095
 21
-13.3448
  0
LINE
  8
0
 10
44.8095
 20
-13.3448
 11
44.32
 21
-13.4
  0
LINE
  8
0
 10
44.32
 20
-13.4
 11
43.8304
 21
-13.3448
  0
LINE
  8
0
 10
22.6104
 20
-13.3448
 11
22.1454
 21
-13.1821
  0
LINE
  8
0
 10
22.1454
 20
-13.1821
 11
21.7283
 21
-12.92
  0
LINE
  8
0
 10
21.7283
 20
-12.92
 11
21.38
 21
-12.5717
  0
LINE
  8
0
 10
21.38
 20
-12.5717
 11
21.1179
 21
-12.1545
  0
LINE
  8
0
 10
21.1179
 20
-12.1545
 11
20.9552
 21
-11.6895
  0
LINE
  8
0
 10
20.9552
 20
-11.6895
 11
20.9
 21
-11.2
  0
LINE
  8
0
 10
20.9
 20
-11.2
 11
20.9552
 21
-10.7104
  0
LINE
  8
0
 10
20.9552
 20
-10.7104
 11
21.1179
 21
-10.2455
  0
LINE
  8
0
 10
21.1179
 20
-10.2455
 11
21.38
 21
-9.82831
  0
LINE
  8
0
 10
21.38
 20
-9.82831
 11
21.7283
 21
-9.47997
  0
LINE
  8
0
 10
21.7283
 20
-9.47997
 11
22.1454
 21
-9.21786
  0
LINE
  8
0
 10
22.1454
 20
-9.21786
 11
22.6104
 21
-9.05515
  0
LINE
  8
0
 10
22.6104
 20
-9.05515
 11
23.1
 21
-8.99998
  0
LINE
  8
0
 10
23.1
 20
-8.99998
 11
23.5895
 21
-9.05515
  0
LINE
  8
0
 10
23.5895
 20
-9.05515
 11
24.0545
 21
-9.21786
  0
LINE
  8
0
 10
24.0545
 20
-9.21786
 11
24.4717
 21
-9.47997
  0
LINE
  8
0
 10
24.4717
 20
-9.47997
 11
24.82
 21
-9.82831
  0
LINE
  8
0
 10
24.82
 20
-9.82831
 11
25.0821
 21
-10.2455
  0
LINE
  8
0
 10
25.0821
 20
-10.2455
 11
25.2448
 21
-10.7104
  0
LINE
  8
0
 10
25.2448
 20
-10.7104
 11
25.3
 21
-11.2
  0
LINE
  8
0
 10
25.3
 20
-11.2
 11
25.2448
 21
-11.6895
  0
LINE
  8
0
 10
25.2448
 20
-11.6895
 11
25.0821
 21
-12.1545
  0
LINE
  8
0
 10
25.0821
 20
-12.1545
 11
24.82
 21
-12.5717
  0
LINE
  8
0
 10
24.82
 20
-12.5717
 11
24.4717
 21
-12.92
  0
LINE
  8
0
 10
24.4717
 20
-12.92
 11
24.0545
 21
-13.1821
  0
LINE
  8
0
 10
24.0545
 20
-13.1821
 11
23.5895
 21
-13.3448
  0
LINE
  8
0
 10
23.5895
 20
-13.3448
 11
23.1
 21
-13.4
  0
LINE
  8
0
 10
23.1
 20
-13.4
 11
22.6104
 21
-13.3448
  0
LINE
  8
0
 10
278.572
 20
-37.7948
 11
278.107
 21
-37.6321
  0
LINE
  8
0
 10
278.107
 20
-37.6321
 11
277.69
 21
-37.37
  0
LINE
  8
0
 10
277.69
 20
-37.37
 11
277.342
 21
-37.0217
  0
LINE
  8
0
 10
277.342
 20
-37.0217
 11
277.079
 21
-36.6045
  0
LINE
  8
0
 10
277.079
 20
-36.6045
 11
276.917
 21
-36.1395
  0
LINE
  8
0
 10
276.917
 20
-36.1395
 11
276.862
 21
-35.65
  0
LINE
  8
0
 10
276.862
 20
-35.65
 11
276.917
 21
-35.1604
  0
LINE
  8
0
 10
276.917
 20
-35.1604
 11
277.079
 21
-34.6954
  0
LINE
  8
0
 10
277.079
 20
-34.6954
 11
277.342
 21
-34.2783
  0
LINE
  8
0
 10
277.342
 20
-34.2783
 11
277.69
 21
-33.93
  0
LINE
  8
0
 10
277.69
 20
-33.93
 11
278.107
 21
-33.6679
  0
LINE
  8
0
 10
278.107
 20
-33.6679
 11
278.572
 21
-33.5052
  0
LINE
  8
0
 10
278.572
 20
-33.5052
 11
279.062
 21
-33.45
  0
LINE
  8
0
 10
279.062
 20
-33.45
 11
279.551
 21
-33.5052
  0
LINE
  8
0
 10
279.551
 20
-33.5052
 11
280.016
 21
-33.6679
  0
LINE
  8
0
 10
280.016
 20
-33.6679
 11
280.433
 21
-33.93
  0
LINE
  8
0
 10
280.433
 20
-33.93
 11
280.782
 21
-34.2783
  0
LINE
  8
0
 10
280.782
 20
-34.2783
 11
281.044
 21
-34.6954
  0
LINE
  8
0
 10
281.044
 20
-34.6954
 11
281.206
 21
-35.1604
  0
LINE
  8
0
 10
281.206
 20
-35.1604
 11
281.262
 21
-35.65
  0
LINE
  8
0
 10
281.262
 20
-35.65
 11
281.206
 21
-36.1395
  0
LINE
  8
0
 10
281.206
 20
-36.1395
 11
281.044
 21
-36.6045
  0
LINE
  8
0
 10
281.044
 20
-36.6045
 11
280.782
 21
-37.0217
  0
LINE
  8
0
 10
280.782
 20
-37.0217
 11
280.433
 21
-37.37
  0
LINE
  8
0
 10
280.433
 20
-37.37
 11
280.016
 21
-37.6321
  0
LINE
  8
0
 10
280.016
 20
-37.6321
 11
279.551
 21
-37.7948
  0
LINE
  8
0
 10
279.551
 20
-37.7948
 11
279.062
 21
-37.85
  0
LINE
  8
0
 10
279.062
 20
-37.85
 11
278.572
 21
-37.7948
  0
LINE
  8
0
 10
238.314
 20
-64.6767
 11
237.871
 21
-64.4633
  0
LINE
  8
0
 10
237.871
 20
-64.4633
 11
237.51
 21
-64.1288
  0
LINE
  8
0
 10
237.51
 20
-64.1288
 11
237.264
 21
-63.7028
  0
LINE
  8
0
 10
237.264
 20
-63.7028
 11
237.155
 21
-63.2233
  0
LINE
  8
0
 10
237.155
 20
-63.2233
 11
237.191
 21
-62.7328
  0
LINE
  8
0
 10
237.191
 20
-62.7328
 11
237.371
 21
-62.275
  0
LINE
  8
0
 10
237.371
 20
-62.275
 11
237.678
 21
-61.8905
  0
LINE
  8
0
 10
237.678
 20
-61.8905
 11
238.084
 21
-61.6134
  0
LINE
  8
0
 10
238.084
 20
-61.6134
 11
238.554
 21
-61.4684
  0
LINE
  8
0
 10
238.554
 20
-61.4684
 11
239.046
 21
-61.4684
  0
LINE
  8
0
 10
239.046
 20
-61.4684
 11
239.516
 21
-61.6134
  0
LINE
  8
0
 10
239.516
 20
-61.6134
 11
239.922
 21
-61.8905
  0
LINE
  8
0
 10
239.922
 20
-61.8905
 11
240.229
 21
-62.275
  0
LINE
  8
0
 10
240.229
 20
-62.275
 11
240.409
 21
-62.7328
  0
LINE
  8
0
 10
240.409
 20
-62.7328
 11
240.445
 21
-63.2233
  0
LINE
  8
0
 10
240.445
 20
-63.2233
 11
240.336
 21
-63.7028
  0
LINE
  8
0
 10
240.336
 20
-63.7028
 11
240.09
 21
-64.1288
  0
LINE
  8
0
 10
240.09
 20
-64.1288
 11
239.729
 21
-64.4633
  0
LINE
  8
0
 10
239.729
 20
-64.4633
 11
239.286
 21
-64.6767
  0
LINE
  8
0
 10
239.286
 20
-64.6767
 11
238.8
 21
-64.75
  0
LINE
  8
0
 10
238.8
 20
-64.75
 11
238.314
 21
-64.6767
  0
LINE
  8
0
 10
313.214
 20
-64.6767
 11
312.771
 21
-64.4633
  0
LINE
  8
0
 10
312.771
 20
-64.4633
 11
312.41
 21
-64.1288
  0
LINE
  8
0
 10
312.41
 20
-64.1288
 11
312.164
 21
-63.7028
  0
LINE
  8
0
 10
312.164
 20
-63.7028
 11
312.055
 21
-63.2233
  0
LINE
  8
0
 10
312.055
 20
-63.2233
 11
312.091
 21
-62.7328
  0
LINE
  8
0
 10
312.091
 20
-62.7328
 11
312.271
 21
-62.275
  0
LINE
  8
0
 10
312.271
 20
-62.275
 11
312.578
 21
-61.8905
  0
LINE
  8
0
 10
312.578
 20
-61.8905
 11
312.984
 21
-61.6134
  0
LINE
  8
0
 10
312.984
 20
-61.6134
 11
313.454
 21
-61.4684
  0
LINE
  8
0
 10
313.454
 20
-61.4684
 11
313.946
 21
-61.4684
  0
LINE
  8
0
 10
313.946
 20
-61.4684
 11
314.416
 21
-61.6134
  0
LINE
  8
0
 10
314.416
 20
-61.6134
 11
314.822
 21
-61.8905
  0
LINE
  8
0
 10
314.822
 20
-61.8905
 11
315.129
 21
-62.275
  0
LINE
  8
0
 10
315.129
 20
-62.275
 11
315.309
 21
-62.7328
  0
LINE
  8
0
 10
315.309
 20
-62.7328
 11
315.345
 21
-63.2233
  0
LINE
  8
0
 10
315.345
 20
-63.2233
 11
315.236
 21
-63.7028
  0
LINE
  8
0
 10
315.236
 20
-63.7028
 11
314.99
 21
-64.1288
  0
LINE
  8
0
 10
314.99
 20
-64.1288
 11
314.629
 21
-64.4633
  0
LINE
  8
0
 10
314.629
 20
-64.4633
 11
314.186
 21
-64.6767
  0
LINE
  8
0
 10
314.186
 20
-64.6767
 11
313.7
 21
-64.75
  0
LINE
  8
0
 10
313.7
 20
-64.75
 11
313.214
 21
-64.6767
  0
LINE
  8
0
 10
204.107
 20
-109.229
 11
203.65
 21
-109.062
  0
LINE
  8
0
 10
203.65
 20
-109.062
 11
203.278
 21
-108.75
  0
LINE
  8
0
 10
203.278
 20
-108.75
 11
203.034
 21
-108.329
  0
LINE
  8
0
 10
203.034
 20
-108.329
 11
202.95
 21
-107.85
  0
LINE
  8
0
 10
202.95
 20
-107.85
 11
203.034
 21
-107.371
  0
LINE
  8
0
 10
203.034
 20
-107.371
 11
203.278
 21
-106.95
  0
LINE
  8
0
 10
203.278
 20
-106.95
 11
203.65
 21
-106.638
  0
LINE
  8
0
 10
203.65
 20
-106.638
 11
204.107
 21
-106.471
  0
LINE
  8
0
 10
204.107
 20
-106.471
 11
204.593
 21
-106.471
  0
LINE
  8
0
 10
204.593
 20
-106.471
 11
205.05
 21
-106.638
  0
LINE
  8
0
 10
205.05
 20
-106.638
 11
205.422
 21
-106.95
  0
LINE
  8
0
 10
205.422
 20
-106.95
 11
205.666
 21
-107.371
  0
LINE
  8
0
 10
205.666
 20
-107.371
 11
205.75
 21
-107.85
  0
LINE
  8
0
 10
205.75
 20
-107.85
 11
205.666
 21
-108.329
  0
LINE
  8
0
 10
205.666
 20
-108.329
 11
205.422
 21
-108.75
  0
LINE
  8
0
 10
205.422
 20
-108.75
 11
205.05
 21
-109.062
  0
LINE
  8
0
 10
205.05
 20
-109.062
 11
204.593
 21
-109.229
  0
LINE
  8
0
 10
204.593
 20
-109.229
 11
204.107
 21
-109.229
  0
LINE
  8
0
 10
232.014
 20
-112.977
 11
231.571
 21
-112.763
  0
LINE
  8
0
 10
231.571
 20
-112.763
 11
231.21
 21
-112.429
  0
LINE
  8
0
 10
231.21
 20
-112.429
 11
230.964
 21
-112.003
  0
LINE
  8
0
 10
230.964
 20
-112.003
 11
230.855
 21
-111.523
  0
LINE
  8
0
 10
230.855
 20
-111.523
 11
230.891
 21
-111.033
  0
LINE
  8
0
 10
230.891
 20
-111.033
 11
231.071
 21
-110.575
  0
LINE
  8
0
 10
231.071
 20
-110.575
 11
231.378
 21
-110.19
  0
LINE
  8
0
 10
231.378
 20
-110.19
 11
231.784
 21
-109.913
  0
LINE
  8
0
 10
231.784
 20
-109.913
 11
232.254
 21
-109.768
  0
LINE
  8
0
 10
232.254
 20
-109.768
 11
232.746
 21
-109.768
  0
LINE
  8
0
 10
232.746
 20
-109.768
 11
233.216
 21
-109.913
  0
LINE
  8
0
 10
233.216
 20
-109.913
 11
233.622
 21
-110.19
  0
LINE
  8
0
 10
233.622
 20
-110.19
 11
233.929
 21
-110.575
  0
LINE
  8
0
 10
233.929
 20
-110.575
 11
234.109
 21
-111.033
  0
LINE
  8
0
 10
234.109
 20
-111.033
 11
234.145
 21
-111.523
  0
LINE
  8
0
 10
234.145
 20
-111.523
 11
234.036
 21
-112.003
  0
LINE
  8
0
 10
234.036
 20
-112.003
 11
233.79
 21
-112.429
  0
LINE
  8
0
 10
233.79
 20
-112.429
 11
233.429
 21
-112.763
  0
LINE
  8
0
 10
233.429
 20
-112.763
 11
232.986
 21
-112.977
  0
LINE
  8
0
 10
232.986
 20
-112.977
 11
232.5
 21
-113.05
  0
LINE
  8
0
 10
232.5
 20
-113.05
 11
232.014
 21
-112.977
  0
LINE
  8
0
 10
314.514
 20
-112.977
 11
314.071
 21
-112.763
  0
LINE
  8
0
 10
314.071
 20
-112.763
 11
313.71
 21
-112.429
  0
LINE
  8
0
 10
313.71
 20
-112.429
 11
313.464
 21
-112.003
  0
LINE
  8
0
 10
313.464
 20
-112.003
 11
313.355
 21
-111.523
  0
LINE
  8
0
 10
313.355
 20
-111.523
 11
313.391
 21
-111.033
  0
LINE
  8
0
 10
313.391
 20
-111.033
 11
313.571
 21
-110.575
  0
LINE
  8
0
 10
313.571
 20
-110.575
 11
313.878
 21
-110.19
  0
LINE
  8
0
 10
313.878
 20
-110.19
 11
314.284
 21
-109.913
  0
LINE
  8
0
 10
314.284
 20
-109.913
 11
314.754
 21
-109.768
  0
LINE
  8
0
 10
314.754
 20
-109.768
 11
315.246
 21
-109.768
  0
LINE
  8
0
 10
315.246
 20
-109.768
 11
315.716
 21
-109.913
  0
LINE
  8
0
 10
315.716
 20
-109.913
 11
316.122
 21
-110.19
  0
LINE
  8
0
 10
316.122
 20
-110.19
 11
316.429
 21
-110.575
  0
LINE
  8
0
 10
316.429
 20
-110.575
 11
316.609
 21
-111.033
  0
LINE
  8
0
 10
316.609
 20
-111.033
 11
316.645
 21
-111.523
  0
LINE
  8
0
 10
316.645
 20
-111.523
 11
316.536
 21
-112.003
  0
LINE
  8
0
 10
316.536
 20
-112.003
 11
316.29
 21
-112.429
  0
LINE
  8
0
 10
316.29
 20
-112.429
 11
315.929
 21
-112.763
  0
LINE
  8
0
 10
315.929
 20
-112.763
 11
315.486
 21
-112.977
  0
LINE
  8
0
 10
315.486
 20
-112.977
 11
315
 21
-113.05
  0
LINE
  8
0
 10
315
 20
-113.05
 11
314.514
 21
-112.977
  0
LINE
  8
0
 10
189.807
 20
-125.129
 11
189.35
 21
-124.962
  0
LINE
  8
0
 10
189.35
 20
-124.962
 11
188.978
 21
-124.65
  0
LINE
  8
0
 10
188.978
 20
-124.65
 11
188.734
 21
-124.229
  0
LINE
  8
0
 10
188.734
 20
-124.229
 11
188.65
 21
-123.75
  0
LINE
  8
0
 10
188.65
 20
-123.75
 11
188.734
 21
-123.271
  0
LINE
  8
0
 10
188.734
 20
-123.271
 11
188.978
 21
-122.85
  0
LINE
  8
0
 10
188.978
 20
-122.85
 11
189.35
 21
-122.538
  0
LINE
  8
0
 10
189.35
 20
-122.538
 11
189.807
 21
-122.371
  0
LINE
  8
0
 10
189.807
 20
-122.371
 11
190.293
 21
-122.371
  0
LINE
  8
0
 10
190.293
 20
-122.371
 11
190.75
 21
-122.538
  0
LINE
  8
0
 10
190.75
 20
-122.538
 11
191.122
 21
-122.85
  0
LINE
  8
0
 10
191.122
 20
-122.85
 11
191.366
 21
-123.271
  0
LINE
  8
0
 10
191.366
 20
-123.271
 11
191.45
 21
-123.75
  0
LINE
  8
0
 10
191.45
 20
-123.75
 11
191.366
 21
-124.229
  0
LINE
  8
0
 10
191.366
 20
-124.229
 11
191.122
 21
-124.65
  0
LINE
  8
0
 10
191.122
 20
-124.65
 11
190.75
 21
-124.962
  0
LINE
  8
0
 10
190.75
 20
-124.962
 11
190.293
 21
-125.129
  0
LINE
  8
0
 10
190.293
 20
-125.129
 11
189.807
 21
-125.129
  0
LINE
  8
0
 10
204.107
 20
-140.729
 11
203.65
 21
-140.562
  0
LINE
  8
0
 10
203.65
 20
-140.562
 11
203.278
 21
-140.25
  0
LINE
  8
0
 10
203.278
 20
-140.25
 11
203.034
 21
-139.829
  0
LINE
  8
0
 10
203.034
 20
-139.829
 11
202.95
 21
-139.35
  0
LINE
  8
0
 10
202.95
 20
-139.35
 11
203.034
 21
-138.871
  0
LINE
  8
0
 10
203.034
 20
-138.871
 11
203.278
 21
-138.45
  0
LINE
  8
0
 10
203.278
 20
-138.45
 11
203.65
 21
-138.138
  0
LINE
  8
0
 10
203.65
 20
-138.138
 11
204.107
 21
-137.971
  0
LINE
  8
0
 10
204.107
 20
-137.971
 11
204.593
 21
-137.971
  0
LINE
  8
0
 10
204.593
 20
-137.971
 11
205.05
 21
-138.138
  0
LINE
  8
0
 10
205.05
 20
-138.138
 11
205.422
 21
-138.45
  0
LINE
  8
0
 10
205.422
 20
-138.45
 11
205.666
 21
-138.871
  0
LINE
  8
0
 10
205.666
 20
-138.871
 11
205.75
 21
-139.35
  0
LINE
  8
0
 10
205.75
 20
-139.35
 11
205.666
 21
-139.829
  0
LINE
  8
0
 10
205.666
 20
-139.829
 11
205.422
 21
-140.25
  0
LINE
  8
0
 10
205.422
 20
-140.25
 11
205.05
 21
-140.562
  0
LINE
  8
0
 10
205.05
 20
-140.562
 11
204.593
 21
-140.729
  0
LINE
  8
0
 10
204.593
 20
-140.729
 11
204.107
 21
-140.729
  0
LINE
  8
0
 10
6.71045
 20
-142.725
 11
6.24545
 21
-142.562
  0
LINE
  8
0
 10
6.24545
 20
-142.562
 11
5.82831
 21
-142.3
  0
LINE
  8
0
 10
5.82831
 20
-142.3
 11
5.47997
 21
-141.952
  0
LINE
  8
0
 10
5.47997
 20
-141.952
 11
5.21786
 21
-141.535
  0
LINE
  8
0
 10
5.21786
 20
-141.535
 11
5.05515
 21
-141.07
  0
LINE
  8
0
 10
5.05515
 20
-141.07
 11
4.99998
 21
-140.58
  0
LINE
  8
0
 10
4.99998
 20
-140.58
 11
5.05515
 21
-140.09
  0
LINE
  8
0
 10
5.05515
 20
-140.09
 11
5.21786
 21
-139.625
  0
LINE
  8
0
 10
5.21786
 20
-139.625
 11
5.47997
 21
-139.208
  0
LINE
  8
0
 10
5.47997
 20
-139.208
 11
5.82831
 21
-138.86
  0
LINE
  8
0
 10
5.82831
 20
-138.86
 11
6.24545
 21
-138.598
  0
LINE
  8
0
 10
6.24545
 20
-138.598
 11
6.71045
 21
-138.435
  0
LINE
  8
0
 10
6.71045
 20
-138.435
 11
7.2
 21
-138.38
  0
LINE
  8
0
 10
7.2
 20
-138.38
 11
7.68954
 21
-138.435
  0
LINE
  8
0
 10
7.68954
 20
-138.435
 11
8.15454
 21
-138.598
  0
LINE
  8
0
 10
8.15454
 20
-138.598
 11
8.57167
 21
-138.86
  0
LINE
  8
0
 10
8.57167
 20
-138.86
 11
8.92003
 21
-139.208
  0
LINE
  8
0
 10
8.92003
 20
-139.208
 11
9.18213
 21
-139.625
  0
LINE
  8
0
 10
9.18213
 20
-139.625
 11
9.34483
 21
-140.09
  0
LINE
  8
0
 10
9.34483
 20
-140.09
 11
9.39999
 21
-140.58
  0
LINE
  8
0
 10
9.39999
 20
-140.58
 11
9.34483
 21
-141.07
  0
LINE
  8
0
 10
9.34483
 20
-141.07
 11
9.18213
 21
-141.535
  0
LINE
  8
0
 10
9.18213
 20
-141.535
 11
8.92003
 21
-141.952
  0
LINE
  8
0
 10
8.92003
 20
-141.952
 11
8.57167
 21
-142.3
  0
LINE
  8
0
 10
8.57167
 20
-142.3
 11
8.15454
 21
-142.562
  0
LINE
  8
0
 10
8.15454
 20
-142.562
 11
7.68954
 21
-142.725
  0
LINE
  8
0
 10
7.68954
 20
-142.725
 11
7.2
 21
-142.78
  0
LINE
  8
0
 10
7.2
 20
-142.78
 11
6.71045
 21
-142.725
  0
LINE
  8
0
 10
189.807
 20
-156.629
 11
189.35
 21
-156.462
  0
LINE
  8
0
 10
189.35
 20
-156.462
 11
188.978
 21
-156.15
  0
LINE
  8
0
 10
188.978
 20
-156.15
 11
188.734
 21
-155.729
  0
LINE
  8
0
 10
188.734
 20
-155.729
 11
188.65
 21
-155.25
  0
LINE
  8
0
 10
188.65
 20
-155.25
 11
188.734
 21
-154.771
  0
LINE
  8
0
 10
188.734
 20
-154.771
 11
188.978
 21
-154.35
  0
LINE
  8
0
 10
188.978
 20
-154.35
 11
189.35
 21
-154.038
  0
LINE
  8
0
 10
189.35
 20
-154.038
 11
189.807
 21
-153.871
  0
LINE
  8
0
 10
189.807
 20
-153.871
 11
190.293
 21
-153.871
  0
LINE
  8
0
 10
190.293
 20
-153.871
 11
190.75
 21
-154.038
  0
LINE
  8
0
 10
190.75
 20
-154.038
 11
191.122
 21
-154.35
  0
LINE
  8
0
 10
191.122
 20
-154.35
 11
191.366
 21
-154.771
  0
LINE
  8
0
 10
191.366
 20
-154.771
 11
191.45
 21
-155.25
  0
LINE
  8
0
 10
191.45
 20
-155.25
 11
191.366
 21
-155.729
  0
LINE
  8
0
 10
191.366
 20
-155.729
 11
191.122
 21
-156.15
  0
LINE
  8
0
 10
191.122
 20
-156.15
 11
190.75
 21
-156.462
  0
LINE
  8
0
 10
190.75
 20
-156.462
 11
190.293
 21
-156.629
  0
LINE
  8
0
 10
190.293
 20
-156.629
 11
189.807
 21
-156.629
  0
LINE
  8
0
 10
6.71045
 20
-163.945
 11
6.24545
 21
-163.782
  0
LINE
  8
0
 10
6.24545
 20
-163.782
 11
5.82831
 21
-163.52
  0
LINE
  8
0
 10
5.82831
 20
-163.52
 11
5.47997
 21
-163.172
  0
LINE
  8
0
 10
5.47997
 20
-163.172
 11
5.21786
 21
-162.755
  0
LINE
  8
0
 10
5.21786
 20
-162.755
 11
5.05515
 21
-162.29
  0
LINE
  8
0
 10
5.05515
 20
-162.29
 11
4.99998
 21
-161.8
  0
LINE
  8
0
 10
4.99998
 20
-161.8
 11
5.05515
 21
-161.31
  0
LINE
  8
0
 10
5.05515
 20
-161.31
 11
5.21786
 21
-160.845
  0
LINE
  8
0
 10
5.21786
 20
-160.845
 11
5.47997
 21
-160.428
  0
LINE
  8
0
 10
5.47997
 20
-160.428
 11
5.82831
 21
-160.08
  0
LINE
  8
0
 10
5.82831
 20
-160.08
 11
6.24545
 21
-159.818
  0
LINE
  8
0
 10
6.24545
 20
-159.818
 11
6.71045
 21
-159.655
  0
LINE
  8
0
 10
6.71045
 20
-159.655
 11
7.2
 21
-159.6
  0
LINE
  8
0
 10
7.2
 20
-159.6
 11
7.68954
 21
-159.655
  0
LINE
  8
0
 10
7.68954
 20
-159.655
 11
8.15454
 21
-159.818
  0
LINE
  8
0
 10
8.15454
 20
-159.818
 11
8.57167
 21
-160.08
  0
LINE
  8
0
 10
8.57167
 20
-160.08
 11
8.92003
 21
-160.428
  0
LINE
  8
0
 10
8.92003
 20
-160.428
 11
9.18213
 21
-160.845
  0
LINE
  8
0
 10
9.18213
 20
-160.845
 11
9.34483
 21
-161.31
  0
LINE
  8
0
 10
9.34483
 20
-161.31
 11
9.39999
 21
-161.8
  0
LINE
  8
0
 10
9.39999
 20
-161.8
 11
9.34483
 21
-162.29
  0
LINE
  8
0
 10
9.34483
 20
-162.29
 11
9.18213
 21
-162.755
  0
LINE
  8
0
 10
9.18213
 20
-162.755
 11
8.92003
 21
-163.172
  0
LINE
  8
0
 10
8.92003
 20
-163.172
 11
8.57167
 21
-163.52
  0
LINE
  8
0
 10
8.57167
 20
-163.52
 11
8.15454
 21
-163.782
  0
LINE
  8
0
 10
8.15454
 20
-163.782
 11
7.68954
 21
-163.945
  0
LINE
  8
0
 10
7.68954
 20
-163.945
 11
7.2
 21
-164
  0
LINE
  8
0
 10
7.2
 20
-164
 11
6.71045
 21
-163.945
  0
LINE
  8
0
 10
31.2605
 20
-165.795
 11
30.7955
 21
-165.632
  0
LINE
  8
0
 10
30.7955
 20
-165.632
 11
30.3783
 21
-165.37
  0
LINE
  8
0
 10
30.3783
 20
-165.37
 11
30.03
 21
-165.022
  0
LINE
  8
0
 10
30.03
 20
-165.022
 11
29.7679
 21
-164.605
  0
LINE
  8
0
 10
29.7679
 20
-164.605
 11
29.6051
 21
-164.14
  0
LINE
  8
0
 10
29.6051
 20
-164.14
 11
29.55
 21
-163.65
  0
LINE
  8
0
 10
29.55
 20
-163.65
 11
29.6051
 21
-163.16
  0
LINE
  8
0
 10
29.6051
 20
-163.16
 11
29.7679
 21
-162.695
  0
LINE
  8
0
 10
29.7679
 20
-162.695
 11
30.03
 21
-162.278
  0
LINE
  8
0
 10
30.03
 20
-162.278
 11
30.3783
 21
-161.93
  0
LINE
  8
0
 10
30.3783
 20
-161.93
 11
30.7955
 21
-161.668
  0
LINE
  8
0
 10
30.7955
 20
-161.668
 11
31.2605
 21
-161.505
  0
LINE
  8
0
 10
31.2605
 20
-161.505
 11
31.75
 21
-161.45
  0
LINE
  8
0
 10
31.75
 20
-161.45
 11
32.2395
 21
-161.505
  0
LINE
  8
0
 10
32.2395
 20
-161.505
 11
32.7045
 21
-161.668
  0
LINE
  8
0
 10
32.7045
 20
-161.668
 11
33.1217
 21
-161.93
  0
LINE
  8
0
 10
33.1217
 20
-161.93
 11
33.47
 21
-162.278
  0
LINE
  8
0
 10
33.47
 20
-162.278
 11
33.7321
 21
-162.695
  0
LINE
  8
0
 10
33.7321
 20
-162.695
 11
33.8948
 21
-163.16
  0
LINE
  8
0
 10
33.8948
 20
-163.16
 11
33.95
 21
-163.65
  0
LINE
  8
0
 10
33.95
 20
-163.65
 11
33.8948
 21
-164.14
  0
LINE
  8
0
 10
33.8948
 20
-164.14
 11
33.7321
 21
-164.605
  0
LINE
  8
0
 10
33.7321
 20
-164.605
 11
33.47
 21
-165.022
  0
LINE
  8
0
 10
33.47
 20
-165.022
 11
33.1217
 21
-165.37
  0
LINE
  8
0
 10
33.1217
 20
-165.37
 11
32.7045
 21
-165.632
  0
LINE
  8
0
 10
32.7045
 20
-165.632
 11
32.2395
 21
-165.795
  0
LINE
  8
0
 10
32.2395
 20
-165.795
 11
31.75
 21
-165.85
  0
LINE
  8
0
 10
31.75
 20
-165.85
 11
31.2605
 21
-165.795
  0
LINE
  8
0
 10
146.56
 20
-165.795
 11
146.095
 21
-165.632
  0
LINE
  8
0
 10
146.095
 20
-165.632
 11
145.678
 21
-165.37
  0
LINE
  8
0
 10
145.678
 20
-165.37
 11
145.33
 21
-165.022
  0
LINE
  8
0
 10
145.33
 20
-165.022
 11
145.068
 21
-164.605
  0
LINE
  8
0
 10
145.068
 20
-164.605
 11
144.905
 21
-164.14
  0
LINE
  8
0
 10
144.905
 20
-164.14
 11
144.85
 21
-163.65
  0
LINE
  8
0
 10
144.85
 20
-163.65
 11
144.905
 21
-163.16
  0
LINE
  8
0
 10
144.905
 20
-163.16
 11
145.068
 21
-162.695
  0
LINE
  8
0
 10
145.068
 20
-162.695
 11
145.33
 21
-162.278
  0
LINE
  8
0
 10
145.33
 20
-162.278
 11
145.678
 21
-161.93
  0
LINE
  8
0
 10
145.678
 20
-161.93
 11
146.095
 21
-161.668
  0
LINE
  8
0
 10
146.095
 20
-161.668
 11
146.56
 21
-161.505
  0
LINE
  8
0
 10
146.56
 20
-161.505
 11
147.05
 21
-161.45
  0
LINE
  8
0
 10
147.05
 20
-161.45
 11
147.54
 21
-161.505
  0
LINE
  8
0
 10
147.54
 20
-161.505
 11
148.005
 21
-161.668
  0
LINE
  8
0
 10
148.005
 20
-161.668
 11
148.422
 21
-161.93
  0
LINE
  8
0
 10
148.422
 20
-161.93
 11
148.77
 21
-162.278
  0
LINE
  8
0
 10
148.77
 20
-162.278
 11
149.032
 21
-162.695
  0
LINE
  8
0
 10
149.032
 20
-162.695
 11
149.195
 21
-163.16
  0
LINE
  8
0
 10
149.195
 20
-163.16
 11
149.25
 21
-163.65
  0
LINE
  8
0
 10
149.25
 20
-163.65
 11
149.195
 21
-164.14
  0
LINE
  8
0
 10
149.195
 20
-164.14
 11
149.032
 21
-164.605
  0
LINE
  8
0
 10
149.032
 20
-164.605
 11
148.77
 21
-165.022
  0
LINE
  8
0
 10
148.77
 20
-165.022
 11
148.422
 21
-165.37
  0
LINE
  8
0
 10
148.422
 20
-165.37
 11
148.005
 21
-165.632
  0
LINE
  8
0
 10
148.005
 20
-165.632
 11
147.54
 21
-165.795
  0
LINE
  8
0
 10
147.54
 20
-165.795
 11
147.05
 21
-165.85
  0
LINE
  8
0
 10
147.05
 20
-165.85
 11
146.56
 21
-165.795
  0
ENDSEC
  0
SECTION
  2
OBJECTS
  0
DICTIONARY
  0
ENDSEC
  0
EOF
