<?xml version="1.0"?>
<svg xmlns="http://www.w3.org/2000/svg" version="1.1" height="394mm" width="483mm" >
 <g style="fill-opacity:1.0; stroke:black; stroke-width:1;">
  <line x1="0.000000mm" y1="25.000000mm" x2="0.000000mm" y2="25.000000mm" />
  <line x1="0.000000mm" y1="25.000000mm" x2="0.000000mm" y2="384.000000mm" />
  <line x1="0.000000mm" y1="384.000000mm" x2="38.620000mm" y2="384.000000mm" />
  <line x1="38.620000mm" y1="384.000000mm" x2="38.620000mm" y2="381.500000mm" />
  <line x1="38.620000mm" y1="381.500000mm" x2="38.645000mm" y2="381.248820mm" />
  <line x1="38.645000mm" y1="381.248820mm" x2="38.668000mm" y2="381.012270mm" />
  <line x1="38.668000mm" y1="381.012270mm" x2="38.810000mm" y2="380.543290mm" />
  <line x1="38.810000mm" y1="380.543290mm" x2="39.041000mm" y2="380.111070mm" />
  <line x1="39.041000mm" y1="380.111070mm" x2="39.352000mm" y2="379.732230mm" />
  <line x1="39.352000mm" y1="379.732230mm" x2="39.731000mm" y2="379.421330mm" />
  <line x1="39.731000mm" y1="379.421330mm" x2="40.163000mm" y2="379.190300mm" />
  <line x1="40.163000mm" y1="379.190300mm" x2="40.632000mm" y2="379.048040mm" />
  <line x1="40.632000mm" y1="379.048040mm" x2="40.869000mm" y2="379.024740mm" />
  <line x1="40.869000mm" y1="379.024740mm" x2="41.120000mm" y2="379.000000mm" />
  <line x1="41.120000mm" y1="379.000000mm" x2="41.371000mm" y2="379.024740mm" />
  <line x1="41.371000mm" y1="379.024740mm" x2="41.608000mm" y2="379.048040mm" />
  <line x1="41.608000mm" y1="379.048040mm" x2="42.077000mm" y2="379.190300mm" />
  <line x1="42.077000mm" y1="379.190300mm" x2="42.509000mm" y2="379.421330mm" />
  <line x1="42.509000mm" y1="379.421330mm" x2="42.888000mm" y2="379.732230mm" />
  <line x1="42.888000mm" y1="379.732230mm" x2="43.199000mm" y2="380.111070mm" />
  <line x1="43.199000mm" y1="380.111070mm" x2="43.430000mm" y2="380.543290mm" />
  <line x1="43.430000mm" y1="380.543290mm" x2="43.572000mm" y2="381.012270mm" />
  <line x1="43.572000mm" y1="381.012270mm" x2="43.595000mm" y2="381.248820mm" />
  <line x1="43.595000mm" y1="381.248820mm" x2="43.620000mm" y2="381.500000mm" />
  <line x1="43.620000mm" y1="381.500000mm" x2="43.620000mm" y2="384.000000mm" />
  <line x1="43.620000mm" y1="384.000000mm" x2="104.500000mm" y2="384.000000mm" />
  <line x1="104.500000mm" y1="384.000000mm" x2="104.500000mm" y2="105.900000mm" />
  <line x1="104.500000mm" y1="105.900000mm" x2="104.506000mm" y2="105.900000mm" />
  <line x1="104.506000mm" y1="105.900000mm" x2="104.506000mm" y2="105.651000mm" />
  <line x1="104.506000mm" y1="105.651000mm" x2="104.556000mm" y2="105.155000mm" />
  <line x1="104.556000mm" y1="105.155000mm" x2="104.655000mm" y2="104.666000mm" />
  <line x1="104.655000mm" y1="104.666000mm" x2="104.802000mm" y2="104.190000mm" />
  <line x1="104.802000mm" y1="104.190000mm" x2="104.995000mm" y2="103.731000mm" />
  <line x1="104.995000mm" y1="103.731000mm" x2="105.234000mm" y2="103.293000mm" />
  <line x1="105.234000mm" y1="103.293000mm" x2="105.514000mm" y2="102.881000mm" />
  <line x1="105.514000mm" y1="102.881000mm" x2="105.835000mm" y2="102.499000mm" />
  <line x1="105.835000mm" y1="102.499000mm" x2="106.192000mm" y2="102.151000mm" />
  <line x1="106.192000mm" y1="102.151000mm" x2="106.581000mm" y2="101.840000mm" />
  <line x1="106.581000mm" y1="101.840000mm" x2="107.000000mm" y2="101.570000mm" />
  <line x1="107.000000mm" y1="101.570000mm" x2="107.444000mm" y2="101.342000mm" />
  <line x1="107.444000mm" y1="101.342000mm" x2="107.908000mm" y2="101.160000mm" />
  <line x1="107.908000mm" y1="101.160000mm" x2="108.387000mm" y2="101.025000mm" />
  <line x1="108.387000mm" y1="101.025000mm" x2="108.878000mm" y2="100.939000mm" />
  <line x1="108.878000mm" y1="100.939000mm" x2="109.375000mm" y2="100.902000mm" />
  <line x1="109.375000mm" y1="100.902000mm" x2="109.500000mm" y2="100.905000mm" />
  <line x1="109.500000mm" y1="100.905000mm" x2="109.500000mm" y2="100.900000mm" />
  <line x1="109.500000mm" y1="100.900000mm" x2="349.500000mm" y2="100.900000mm" />
  <line x1="349.500000mm" y1="100.900000mm" x2="349.500000mm" y2="100.905000mm" />
  <line x1="349.500000mm" y1="100.905000mm" x2="349.874000mm" y2="100.914000mm" />
  <line x1="349.874000mm" y1="100.914000mm" x2="350.368000mm" y2="100.976000mm" />
  <line x1="350.368000mm" y1="100.976000mm" x2="350.854000mm" y2="101.087000mm" />
  <line x1="350.854000mm" y1="101.087000mm" x2="351.327000mm" y2="101.246000mm" />
  <line x1="351.327000mm" y1="101.246000mm" x2="351.781000mm" y2="101.451000mm" />
  <line x1="351.781000mm" y1="101.451000mm" x2="352.213000mm" y2="101.700000mm" />
  <line x1="352.213000mm" y1="101.700000mm" x2="352.617000mm" y2="101.991000mm" />
  <line x1="352.617000mm" y1="101.991000mm" x2="352.991000mm" y2="102.321000mm" />
  <line x1="352.991000mm" y1="102.321000mm" x2="353.330000mm" y2="102.686000mm" />
  <line x1="353.330000mm" y1="102.686000mm" x2="353.631000mm" y2="103.083000mm" />
  <line x1="353.631000mm" y1="103.083000mm" x2="353.891000mm" y2="103.509000mm" />
  <line x1="353.891000mm" y1="103.509000mm" x2="354.107000mm" y2="103.958000mm" />
  <line x1="354.107000mm" y1="103.958000mm" x2="354.278000mm" y2="104.426000mm" />
  <line x1="354.278000mm" y1="104.426000mm" x2="354.401000mm" y2="104.909000mm" />
  <line x1="354.401000mm" y1="104.909000mm" x2="354.475000mm" y2="105.402000mm" />
  <line x1="354.475000mm" y1="105.402000mm" x2="354.500000mm" y2="105.900000mm" />
  <line x1="354.500000mm" y1="105.900000mm" x2="354.500000mm" y2="384.000000mm" />
  <line x1="354.500000mm" y1="384.000000mm" x2="472.500000mm" y2="384.000000mm" />
  <line x1="472.500000mm" y1="384.000000mm" x2="472.500000mm" y2="25.000000mm" />
  <line x1="472.500000mm" y1="25.000000mm" x2="472.405000mm" y2="22.821000mm" />
  <line x1="472.405000mm" y1="22.821000mm" x2="472.120000mm" y2="20.659000mm" />
  <line x1="472.120000mm" y1="20.659000mm" x2="471.648000mm" y2="18.530000mm" />
  <line x1="471.648000mm" y1="18.530000mm" x2="470.992000mm" y2="16.449000mm" />
  <line x1="470.992000mm" y1="16.449000mm" x2="470.158000mm" y2="14.435000mm" />
  <line x1="470.158000mm" y1="14.435000mm" x2="469.151000mm" y2="12.500000mm" />
  <line x1="469.151000mm" y1="12.500000mm" x2="467.979000mm" y2="10.661000mm" />
  <line x1="467.979000mm" y1="10.661000mm" x2="466.651000mm" y2="8.930000mm" />
  <line x1="466.651000mm" y1="8.930000mm" x2="465.178000mm" y2="7.322000mm" />
  <line x1="465.178000mm" y1="7.322000mm" x2="463.570000mm" y2="5.849000mm" />
  <line x1="463.570000mm" y1="5.849000mm" x2="461.839000mm" y2="4.521000mm" />
  <line x1="461.839000mm" y1="4.521000mm" x2="460.000000mm" y2="3.349000mm" />
  <line x1="460.000000mm" y1="3.349000mm" x2="458.065000mm" y2="2.342000mm" />
  <line x1="458.065000mm" y1="2.342000mm" x2="456.051000mm" y2="1.508000mm" />
  <line x1="456.051000mm" y1="1.508000mm" x2="453.970000mm" y2="0.852000mm" />
  <line x1="453.970000mm" y1="0.852000mm" x2="451.841000mm" y2="0.380000mm" />
  <line x1="451.841000mm" y1="0.380000mm" x2="449.679000mm" y2="0.095000mm" />
  <line x1="449.679000mm" y1="0.095000mm" x2="447.500000mm" y2="0.000000mm" />
  <line x1="447.500000mm" y1="0.000000mm" x2="25.000000mm" y2="0.000000mm" />
  <line x1="25.000000mm" y1="0.000000mm" x2="22.821000mm" y2="0.095000mm" />
  <line x1="22.821000mm" y1="0.095000mm" x2="20.659000mm" y2="0.380000mm" />
  <line x1="20.659000mm" y1="0.380000mm" x2="18.530000mm" y2="0.852000mm" />
  <line x1="18.530000mm" y1="0.852000mm" x2="16.449000mm" y2="1.508000mm" />
  <line x1="16.449000mm" y1="1.508000mm" x2="14.435000mm" y2="2.342000mm" />
  <line x1="14.435000mm" y1="2.342000mm" x2="12.500000mm" y2="3.349000mm" />
  <line x1="12.500000mm" y1="3.349000mm" x2="10.661000mm" y2="4.521000mm" />
  <line x1="10.661000mm" y1="4.521000mm" x2="8.930000mm" y2="5.849000mm" />
  <line x1="8.930000mm" y1="5.849000mm" x2="7.322000mm" y2="7.322000mm" />
  <line x1="7.322000mm" y1="7.322000mm" x2="5.849000mm" y2="8.930000mm" />
  <line x1="5.849000mm" y1="8.930000mm" x2="4.521000mm" y2="10.661000mm" />
  <line x1="4.521000mm" y1="10.661000mm" x2="3.349000mm" y2="12.500000mm" />
  <line x1="3.349000mm" y1="12.500000mm" x2="2.342000mm" y2="14.435000mm" />
  <line x1="2.342000mm" y1="14.435000mm" x2="1.508000mm" y2="16.449000mm" />
  <line x1="1.508000mm" y1="16.449000mm" x2="0.852000mm" y2="18.530000mm" />
  <line x1="0.852000mm" y1="18.530000mm" x2="0.380000mm" y2="20.659000mm" />
  <line x1="0.380000mm" y1="20.659000mm" x2="0.095000mm" y2="22.821000mm" />
  <line x1="0.095000mm" y1="22.821000mm" x2="0.000000mm" y2="25.000000mm" />
  <circle cx="7.499964mm" cy="273.899964mm" r="2.200229mm" fill="none"/>
  <line x1="11.900421mm" y1="273.899964mm" x2="3.099507mm" y2="273.899964mm" />
  <line x1="7.499964mm" y1="269.499507mm" x2="7.499964mm" y2="278.300421mm" />
  <text x="9mm" y="271mm" font-size="24">
   4.4
  </text>
  <circle cx="7.508919mm" cy="232.499054mm" r="2.195369mm" fill="none"/>
  <line x1="11.899657mm" y1="232.499054mm" x2="3.118181mm" y2="232.499054mm" />
  <line x1="7.508919mm" y1="228.108316mm" x2="7.508919mm" y2="236.889792mm" />
  <text x="9mm" y="230mm" font-size="24">
   4.4
  </text>
  <circle cx="8.700108mm" cy="376.799967mm" r="2.200108mm" fill="none"/>
  <line x1="13.100324mm" y1="376.799967mm" x2="4.299892mm" y2="376.799967mm" />
  <line x1="8.700108mm" y1="372.399750mm" x2="8.700108mm" y2="381.200183mm" />
  <text x="10mm" y="374mm" font-size="24">
   4.4
  </text>
  <line x1="14.274000mm" y1="327.710500mm" x2="14.274000mm" y2="327.710500mm" />
  <line x1="14.274000mm" y1="327.710500mm" x2="14.250000mm" y2="327.500000mm" />
  <line x1="14.250000mm" y1="327.500000mm" x2="14.250000mm" y2="318.500000mm" />
  <line x1="14.250000mm" y1="318.500000mm" x2="14.281000mm" y2="318.221000mm" />
  <line x1="14.281000mm" y1="318.221000mm" x2="14.305000mm" y2="318.010500mm" />
  <line x1="14.305000mm" y1="318.010500mm" x2="14.468000mm" y2="317.545500mm" />
  <line x1="14.468000mm" y1="317.545500mm" x2="14.730000mm" y2="317.128300mm" />
  <line x1="14.730000mm" y1="317.128300mm" x2="15.078000mm" y2="316.780000mm" />
  <line x1="15.078000mm" y1="316.780000mm" x2="15.495000mm" y2="316.517900mm" />
  <line x1="15.495000mm" y1="316.517900mm" x2="15.960000mm" y2="316.355200mm" />
  <line x1="15.960000mm" y1="316.355200mm" x2="16.450000mm" y2="316.300000mm" />
  <line x1="16.450000mm" y1="316.300000mm" x2="16.940000mm" y2="316.355200mm" />
  <line x1="16.940000mm" y1="316.355200mm" x2="17.405000mm" y2="316.517900mm" />
  <line x1="17.405000mm" y1="316.517900mm" x2="17.822000mm" y2="316.780000mm" />
  <line x1="17.822000mm" y1="316.780000mm" x2="18.170000mm" y2="317.128300mm" />
  <line x1="18.170000mm" y1="317.128300mm" x2="18.432000mm" y2="317.545500mm" />
  <line x1="18.432000mm" y1="317.545500mm" x2="18.595000mm" y2="318.010500mm" />
  <line x1="18.595000mm" y1="318.010500mm" x2="18.619000mm" y2="318.221000mm" />
  <line x1="18.619000mm" y1="318.221000mm" x2="18.650000mm" y2="318.500000mm" />
  <line x1="18.650000mm" y1="318.500000mm" x2="18.650000mm" y2="327.500000mm" />
  <line x1="18.650000mm" y1="327.500000mm" x2="18.626000mm" y2="327.710500mm" />
  <line x1="18.626000mm" y1="327.710500mm" x2="18.595000mm" y2="327.989500mm" />
  <line x1="18.595000mm" y1="327.989500mm" x2="18.432000mm" y2="328.454500mm" />
  <line x1="18.432000mm" y1="328.454500mm" x2="18.170000mm" y2="328.871700mm" />
  <line x1="18.170000mm" y1="328.871700mm" x2="17.822000mm" y2="329.220000mm" />
  <line x1="17.822000mm" y1="329.220000mm" x2="17.405000mm" y2="329.482100mm" />
  <line x1="17.405000mm" y1="329.482100mm" x2="16.940000mm" y2="329.644800mm" />
  <line x1="16.940000mm" y1="329.644800mm" x2="16.450000mm" y2="329.700000mm" />
  <line x1="16.450000mm" y1="329.700000mm" x2="15.960000mm" y2="329.644800mm" />
  <line x1="15.960000mm" y1="329.644800mm" x2="15.495000mm" y2="329.482100mm" />
  <line x1="15.495000mm" y1="329.482100mm" x2="15.078000mm" y2="329.220000mm" />
  <line x1="15.078000mm" y1="329.220000mm" x2="14.730000mm" y2="328.871700mm" />
  <line x1="14.730000mm" y1="328.871700mm" x2="14.468000mm" y2="328.454500mm" />
  <line x1="14.468000mm" y1="328.454500mm" x2="14.305000mm" y2="327.989500mm" />
  <line x1="14.305000mm" y1="327.989500mm" x2="14.274000mm" y2="327.710500mm" />
  <circle cx="29.920108mm" cy="376.799967mm" r="2.200108mm" fill="none"/>
  <line x1="34.320324mm" y1="376.799967mm" x2="25.519892mm" y2="376.799967mm" />
  <line x1="29.920108mm" y1="372.399750mm" x2="29.920108mm" y2="381.200183mm" />
  <text x="32mm" y="374mm" font-size="24">
   4.4
  </text>
  <circle cx="32.508921mm" cy="310.997837mm" r="1.994725mm" fill="none"/>
  <line x1="36.498370mm" y1="310.997837mm" x2="28.519471mm" y2="310.997837mm" />
  <line x1="32.508921mm" y1="307.008388mm" x2="32.508921mm" y2="314.987287mm" />
  <text x="34mm" y="309mm" font-size="24">
   4.0
  </text>
  <circle cx="38.499818mm" cy="17.000055mm" r="2.000011mm" fill="none"/>
  <line x1="42.499840mm" y1="17.000055mm" x2="34.499795mm" y2="17.000055mm" />
  <line x1="38.499818mm" y1="13.000033mm" x2="38.499818mm" y2="21.000077mm" />
  <text x="40mm" y="15mm" font-size="24">
   4.0
  </text>
  <circle cx="39.949964mm" cy="7.499964mm" r="2.200229mm" fill="none"/>
  <line x1="44.350421mm" y1="7.499964mm" x2="35.549507mm" y2="7.499964mm" />
  <line x1="39.949964mm" y1="3.099507mm" x2="39.949964mm" y2="11.900421mm" />
  <text x="42mm" y="5mm" font-size="24">
   4.4
  </text>
  <line x1="44.374000mm" y1="327.710500mm" x2="44.374000mm" y2="327.710500mm" />
  <line x1="44.374000mm" y1="327.710500mm" x2="44.350000mm" y2="327.500000mm" />
  <line x1="44.350000mm" y1="327.500000mm" x2="44.350000mm" y2="318.500000mm" />
  <line x1="44.350000mm" y1="318.500000mm" x2="44.381000mm" y2="318.221000mm" />
  <line x1="44.381000mm" y1="318.221000mm" x2="44.405000mm" y2="318.010500mm" />
  <line x1="44.405000mm" y1="318.010500mm" x2="44.568000mm" y2="317.545500mm" />
  <line x1="44.568000mm" y1="317.545500mm" x2="44.830000mm" y2="317.128300mm" />
  <line x1="44.830000mm" y1="317.128300mm" x2="45.178000mm" y2="316.780000mm" />
  <line x1="45.178000mm" y1="316.780000mm" x2="45.595000mm" y2="316.517900mm" />
  <line x1="45.595000mm" y1="316.517900mm" x2="46.060000mm" y2="316.355200mm" />
  <line x1="46.060000mm" y1="316.355200mm" x2="46.550000mm" y2="316.300000mm" />
  <line x1="46.550000mm" y1="316.300000mm" x2="47.040000mm" y2="316.355200mm" />
  <line x1="47.040000mm" y1="316.355200mm" x2="47.505000mm" y2="316.517900mm" />
  <line x1="47.505000mm" y1="316.517900mm" x2="47.922000mm" y2="316.780000mm" />
  <line x1="47.922000mm" y1="316.780000mm" x2="48.270000mm" y2="317.128300mm" />
  <line x1="48.270000mm" y1="317.128300mm" x2="48.532000mm" y2="317.545500mm" />
  <line x1="48.532000mm" y1="317.545500mm" x2="48.695000mm" y2="318.010500mm" />
  <line x1="48.695000mm" y1="318.010500mm" x2="48.719000mm" y2="318.221000mm" />
  <line x1="48.719000mm" y1="318.221000mm" x2="48.750000mm" y2="318.500000mm" />
  <line x1="48.750000mm" y1="318.500000mm" x2="48.750000mm" y2="327.500000mm" />
  <line x1="48.750000mm" y1="327.500000mm" x2="48.726000mm" y2="327.710500mm" />
  <line x1="48.726000mm" y1="327.710500mm" x2="48.695000mm" y2="327.989500mm" />
  <line x1="48.695000mm" y1="327.989500mm" x2="48.532000mm" y2="328.454500mm" />
  <line x1="48.532000mm" y1="328.454500mm" x2="48.270000mm" y2="328.871700mm" />
  <line x1="48.270000mm" y1="328.871700mm" x2="47.922000mm" y2="329.220000mm" />
  <line x1="47.922000mm" y1="329.220000mm" x2="47.505000mm" y2="329.482100mm" />
  <line x1="47.505000mm" y1="329.482100mm" x2="47.040000mm" y2="329.644800mm" />
  <line x1="47.040000mm" y1="329.644800mm" x2="46.550000mm" y2="329.700000mm" />
  <line x1="46.550000mm" y1="329.700000mm" x2="46.060000mm" y2="329.644800mm" />
  <line x1="46.060000mm" y1="329.644800mm" x2="45.595000mm" y2="329.482100mm" />
  <line x1="45.595000mm" y1="329.482100mm" x2="45.178000mm" y2="329.220000mm" />
  <line x1="45.178000mm" y1="329.220000mm" x2="44.830000mm" y2="328.871700mm" />
  <line x1="44.830000mm" y1="328.871700mm" x2="44.568000mm" y2="328.454500mm" />
  <line x1="44.568000mm" y1="328.454500mm" x2="44.405000mm" y2="327.989500mm" />
  <line x1="44.405000mm" y1="327.989500mm" x2="44.374000mm" y2="327.710500mm" />
  <circle cx="62.699998mm" cy="350.290067mm" r="2.200127mm" fill="none"/>
  <line x1="67.100252mm" y1="350.290067mm" x2="58.299744mm" y2="350.290067mm" />
  <line x1="62.699998mm" y1="345.889813mm" x2="62.699998mm" y2="354.690321mm" />
  <text x="64mm" y="348mm" font-size="24">
   4.4
  </text>
  <circle cx="62.699964mm" cy="33.709964mm" r="2.200229mm" fill="none"/>
  <line x1="67.100421mm" y1="33.709964mm" x2="58.299507mm" y2="33.709964mm" />
  <line x1="62.699964mm" y1="29.309507mm" x2="62.699964mm" y2="38.110421mm" />
  <text x="64mm" y="31mm" font-size="24">
   4.4
  </text>
  <circle cx="66.500221mm" cy="59.319698mm" r="1.500135mm" fill="none"/>
  <line x1="69.500491mm" y1="59.319698mm" x2="63.499951mm" y2="59.319698mm" />
  <line x1="66.500221mm" y1="56.319428mm" x2="66.500221mm" y2="62.319968mm" />
  <text x="68mm" y="57mm" font-size="24">
   3.0
  </text>
  <circle cx="66.500221mm" cy="53.519698mm" r="1.500135mm" fill="none"/>
  <line x1="69.500491mm" y1="53.519698mm" x2="63.499951mm" y2="53.519698mm" />
  <line x1="66.500221mm" y1="50.519428mm" x2="66.500221mm" y2="56.519968mm" />
  <text x="68mm" y="52mm" font-size="24">
   3.0
  </text>
  <circle cx="72.049964mm" cy="7.499964mm" r="2.200229mm" fill="none"/>
  <line x1="76.450421mm" y1="7.499964mm" x2="67.649507mm" y2="7.499964mm" />
  <line x1="72.049964mm" y1="3.099507mm" x2="72.049964mm" y2="11.900421mm" />
  <text x="74mm" y="5mm" font-size="24">
   4.4
  </text>
  <circle cx="71.499872mm" cy="71.920269mm" r="1.500269mm" fill="none"/>
  <line x1="74.500410mm" y1="71.920269mm" x2="68.499333mm" y2="71.920269mm" />
  <line x1="71.499872mm" y1="68.919731mm" x2="71.499872mm" y2="74.920808mm" />
  <text x="73mm" y="70mm" font-size="24">
   3.0
  </text>
  <circle cx="71.499872mm" cy="64.720269mm" r="1.500269mm" fill="none"/>
  <line x1="74.500410mm" y1="64.720269mm" x2="68.499333mm" y2="64.720269mm" />
  <line x1="71.499872mm" y1="61.719731mm" x2="71.499872mm" y2="67.720808mm" />
  <text x="73mm" y="63mm" font-size="24">
   3.0
  </text>
  <circle cx="75.080108mm" cy="376.799967mm" r="2.200108mm" fill="none"/>
  <line x1="79.480324mm" y1="376.799967mm" x2="70.679892mm" y2="376.799967mm" />
  <line x1="75.080108mm" y1="372.399750mm" x2="75.080108mm" y2="381.200183mm" />
  <text x="77mm" y="374mm" font-size="24">
   4.4
  </text>
  <circle cx="96.300108mm" cy="376.799967mm" r="2.200108mm" fill="none"/>
  <line x1="100.700324mm" y1="376.799967mm" x2="91.899892mm" y2="376.799967mm" />
  <line x1="96.300108mm" y1="372.399750mm" x2="96.300108mm" y2="381.200183mm" />
  <text x="98mm" y="374mm" font-size="24">
   4.4
  </text>
  <circle cx="356.950221mm" cy="59.319698mm" r="1.500135mm" fill="none"/>
  <line x1="359.950491mm" y1="59.319698mm" x2="353.949951mm" y2="59.319698mm" />
  <line x1="356.950221mm" y1="56.319428mm" x2="356.950221mm" y2="62.319968mm" />
  <text x="358mm" y="57mm" font-size="24">
   3.0
  </text>
  <circle cx="356.950221mm" cy="53.519698mm" r="1.500135mm" fill="none"/>
  <line x1="359.950491mm" y1="53.519698mm" x2="353.949951mm" y2="53.519698mm" />
  <line x1="356.950221mm" y1="50.519428mm" x2="356.950221mm" y2="56.519968mm" />
  <text x="358mm" y="52mm" font-size="24">
   3.0
  </text>
  <circle cx="361.949872mm" cy="71.920269mm" r="1.500269mm" fill="none"/>
  <line x1="364.950410mm" y1="71.920269mm" x2="358.949333mm" y2="71.920269mm" />
  <line x1="361.949872mm" y1="68.919731mm" x2="361.949872mm" y2="74.920808mm" />
  <text x="363mm" y="70mm" font-size="24">
   3.0
  </text>
  <circle cx="361.949872mm" cy="64.720269mm" r="1.500269mm" fill="none"/>
  <line x1="364.950410mm" y1="64.720269mm" x2="358.949333mm" y2="64.720269mm" />
  <line x1="361.949872mm" y1="61.719731mm" x2="361.949872mm" y2="67.720808mm" />
  <text x="363mm" y="63mm" font-size="24">
   3.0
  </text>
  <circle cx="362.949964mm" cy="7.499964mm" r="2.200229mm" fill="none"/>
  <line x1="367.350421mm" y1="7.499964mm" x2="358.549507mm" y2="7.499964mm" />
  <line x1="362.949964mm" y1="3.099507mm" x2="362.949964mm" y2="11.900421mm" />
  <text x="365mm" y="5mm" font-size="24">
   4.4
  </text>
  <circle cx="365.749998mm" cy="350.290067mm" r="2.200127mm" fill="none"/>
  <line x1="370.150252mm" y1="350.290067mm" x2="361.349744mm" y2="350.290067mm" />
  <line x1="365.749998mm" y1="345.889813mm" x2="365.749998mm" y2="354.690321mm" />
  <text x="367mm" y="348mm" font-size="24">
   4.4
  </text>
  <circle cx="365.749964mm" cy="33.709964mm" r="2.200229mm" fill="none"/>
  <line x1="370.150421mm" y1="33.709964mm" x2="361.349507mm" y2="33.709964mm" />
  <line x1="365.749964mm" y1="29.309507mm" x2="365.749964mm" y2="38.110421mm" />
  <text x="367mm" y="31mm" font-size="24">
   4.4
  </text>
  <line x1="379.274000mm" y1="327.710500mm" x2="379.274000mm" y2="327.710500mm" />
  <line x1="379.274000mm" y1="327.710500mm" x2="379.250000mm" y2="327.500000mm" />
  <line x1="379.250000mm" y1="327.500000mm" x2="379.250000mm" y2="318.500000mm" />
  <line x1="379.250000mm" y1="318.500000mm" x2="379.281000mm" y2="318.221000mm" />
  <line x1="379.281000mm" y1="318.221000mm" x2="379.305000mm" y2="318.010500mm" />
  <line x1="379.305000mm" y1="318.010500mm" x2="379.468000mm" y2="317.545500mm" />
  <line x1="379.468000mm" y1="317.545500mm" x2="379.730000mm" y2="317.128300mm" />
  <line x1="379.730000mm" y1="317.128300mm" x2="380.078000mm" y2="316.780000mm" />
  <line x1="380.078000mm" y1="316.780000mm" x2="380.495000mm" y2="316.517900mm" />
  <line x1="380.495000mm" y1="316.517900mm" x2="380.960000mm" y2="316.355200mm" />
  <line x1="380.960000mm" y1="316.355200mm" x2="381.450000mm" y2="316.300000mm" />
  <line x1="381.450000mm" y1="316.300000mm" x2="381.940000mm" y2="316.355200mm" />
  <line x1="381.940000mm" y1="316.355200mm" x2="382.405000mm" y2="316.517900mm" />
  <line x1="382.405000mm" y1="316.517900mm" x2="382.822000mm" y2="316.780000mm" />
  <line x1="382.822000mm" y1="316.780000mm" x2="383.170000mm" y2="317.128300mm" />
  <line x1="383.170000mm" y1="317.128300mm" x2="383.432000mm" y2="317.545500mm" />
  <line x1="383.432000mm" y1="317.545500mm" x2="383.595000mm" y2="318.010500mm" />
  <line x1="383.595000mm" y1="318.010500mm" x2="383.619000mm" y2="318.221000mm" />
  <line x1="383.619000mm" y1="318.221000mm" x2="383.650000mm" y2="318.500000mm" />
  <line x1="383.650000mm" y1="318.500000mm" x2="383.650000mm" y2="327.500000mm" />
  <line x1="383.650000mm" y1="327.500000mm" x2="383.626000mm" y2="327.710500mm" />
  <line x1="383.626000mm" y1="327.710500mm" x2="383.595000mm" y2="327.989500mm" />
  <line x1="383.595000mm" y1="327.989500mm" x2="383.432000mm" y2="328.454500mm" />
  <line x1="383.432000mm" y1="328.454500mm" x2="383.170000mm" y2="328.871700mm" />
  <line x1="383.170000mm" y1="328.871700mm" x2="382.822000mm" y2="329.220000mm" />
  <line x1="382.822000mm" y1="329.220000mm" x2="382.405000mm" y2="329.482100mm" />
  <line x1="382.405000mm" y1="329.482100mm" x2="381.940000mm" y2="329.644800mm" />
  <line x1="381.940000mm" y1="329.644800mm" x2="381.450000mm" y2="329.700000mm" />
  <line x1="381.450000mm" y1="329.700000mm" x2="380.960000mm" y2="329.644800mm" />
  <line x1="380.960000mm" y1="329.644800mm" x2="380.495000mm" y2="329.482100mm" />
  <line x1="380.495000mm" y1="329.482100mm" x2="380.078000mm" y2="329.220000mm" />
  <line x1="380.078000mm" y1="329.220000mm" x2="379.730000mm" y2="328.871700mm" />
  <line x1="379.730000mm" y1="328.871700mm" x2="379.468000mm" y2="328.454500mm" />
  <line x1="379.468000mm" y1="328.454500mm" x2="379.305000mm" y2="327.989500mm" />
  <line x1="379.305000mm" y1="327.989500mm" x2="379.274000mm" y2="327.710500mm" />
  <circle cx="384.650108mm" cy="376.799967mm" r="2.200108mm" fill="none"/>
  <line x1="389.050324mm" y1="376.799967mm" x2="380.249892mm" y2="376.799967mm" />
  <line x1="384.650108mm" y1="372.399750mm" x2="384.650108mm" y2="381.200183mm" />
  <text x="386mm" y="374mm" font-size="24">
   4.4
  </text>
  <circle cx="395.049964mm" cy="7.499964mm" r="2.200229mm" fill="none"/>
  <line x1="399.450421mm" y1="7.499964mm" x2="390.649507mm" y2="7.499964mm" />
  <line x1="395.049964mm" y1="3.099507mm" x2="395.049964mm" y2="11.900421mm" />
  <text x="397mm" y="5mm" font-size="24">
   4.4
  </text>
  <circle cx="395.620034mm" cy="366.099968mm" r="2.500070mm" fill="none"/>
  <line x1="400.620175mm" y1="366.099968mm" x2="390.619893mm" y2="366.099968mm" />
  <line x1="395.620034mm" y1="361.099828mm" x2="395.620034mm" y2="371.100109mm" />
  <text x="398mm" y="363mm" font-size="24">
   5.0
  </text>
  <circle cx="405.870108mm" cy="376.799967mm" r="2.200108mm" fill="none"/>
  <line x1="410.270324mm" y1="376.799967mm" x2="401.469892mm" y2="376.799967mm" />
  <line x1="405.870108mm" y1="372.399750mm" x2="405.870108mm" y2="381.200183mm" />
  <text x="408mm" y="374mm" font-size="24">
   4.4
  </text>
  <line x1="409.374000mm" y1="327.710500mm" x2="409.374000mm" y2="327.710500mm" />
  <line x1="409.374000mm" y1="327.710500mm" x2="409.350000mm" y2="327.500000mm" />
  <line x1="409.350000mm" y1="327.500000mm" x2="409.350000mm" y2="318.500000mm" />
  <line x1="409.350000mm" y1="318.500000mm" x2="409.381000mm" y2="318.221000mm" />
  <line x1="409.381000mm" y1="318.221000mm" x2="409.405000mm" y2="318.010500mm" />
  <line x1="409.405000mm" y1="318.010500mm" x2="409.568000mm" y2="317.545500mm" />
  <line x1="409.568000mm" y1="317.545500mm" x2="409.830000mm" y2="317.128300mm" />
  <line x1="409.830000mm" y1="317.128300mm" x2="410.178000mm" y2="316.780000mm" />
  <line x1="410.178000mm" y1="316.780000mm" x2="410.595000mm" y2="316.517900mm" />
  <line x1="410.595000mm" y1="316.517900mm" x2="411.060000mm" y2="316.355200mm" />
  <line x1="411.060000mm" y1="316.355200mm" x2="411.550000mm" y2="316.300000mm" />
  <line x1="411.550000mm" y1="316.300000mm" x2="412.040000mm" y2="316.355200mm" />
  <line x1="412.040000mm" y1="316.355200mm" x2="412.505000mm" y2="316.517900mm" />
  <line x1="412.505000mm" y1="316.517900mm" x2="412.922000mm" y2="316.780000mm" />
  <line x1="412.922000mm" y1="316.780000mm" x2="413.270000mm" y2="317.128300mm" />
  <line x1="413.270000mm" y1="317.128300mm" x2="413.532000mm" y2="317.545500mm" />
  <line x1="413.532000mm" y1="317.545500mm" x2="413.695000mm" y2="318.010500mm" />
  <line x1="413.695000mm" y1="318.010500mm" x2="413.719000mm" y2="318.221000mm" />
  <line x1="413.719000mm" y1="318.221000mm" x2="413.750000mm" y2="318.500000mm" />
  <line x1="413.750000mm" y1="318.500000mm" x2="413.750000mm" y2="327.500000mm" />
  <line x1="413.750000mm" y1="327.500000mm" x2="413.726000mm" y2="327.710500mm" />
  <line x1="413.726000mm" y1="327.710500mm" x2="413.695000mm" y2="327.989500mm" />
  <line x1="413.695000mm" y1="327.989500mm" x2="413.532000mm" y2="328.454500mm" />
  <line x1="413.532000mm" y1="328.454500mm" x2="413.270000mm" y2="328.871700mm" />
  <line x1="413.270000mm" y1="328.871700mm" x2="412.922000mm" y2="329.220000mm" />
  <line x1="412.922000mm" y1="329.220000mm" x2="412.505000mm" y2="329.482100mm" />
  <line x1="412.505000mm" y1="329.482100mm" x2="412.040000mm" y2="329.644800mm" />
  <line x1="412.040000mm" y1="329.644800mm" x2="411.550000mm" y2="329.700000mm" />
  <line x1="411.550000mm" y1="329.700000mm" x2="411.060000mm" y2="329.644800mm" />
  <line x1="411.060000mm" y1="329.644800mm" x2="410.595000mm" y2="329.482100mm" />
  <line x1="410.595000mm" y1="329.482100mm" x2="410.178000mm" y2="329.220000mm" />
  <line x1="410.178000mm" y1="329.220000mm" x2="409.830000mm" y2="328.871700mm" />
  <line x1="409.830000mm" y1="328.871700mm" x2="409.568000mm" y2="328.454500mm" />
  <line x1="409.568000mm" y1="328.454500mm" x2="409.405000mm" y2="327.989500mm" />
  <line x1="409.405000mm" y1="327.989500mm" x2="409.374000mm" y2="327.710500mm" />
  <circle cx="422.599964mm" cy="30.849964mm" r="2.200229mm" fill="none"/>
  <line x1="427.000421mm" y1="30.849964mm" x2="418.199507mm" y2="30.849964mm" />
  <line x1="422.599964mm" y1="26.449507mm" x2="422.599964mm" y2="35.250421mm" />
  <text x="424mm" y="28mm" font-size="24">
   4.4
  </text>
  <line x1="425.145000mm" y1="20.478000mm" x2="425.145000mm" y2="20.478000mm" />
  <line x1="425.145000mm" y1="20.478000mm" x2="425.050000mm" y2="20.000000mm" />
  <line x1="425.050000mm" y1="20.000000mm" x2="425.145000mm" y2="19.522000mm" />
  <line x1="425.145000mm" y1="19.522000mm" x2="425.416000mm" y2="19.116000mm" />
  <line x1="425.416000mm" y1="19.116000mm" x2="425.822000mm" y2="18.845000mm" />
  <line x1="425.822000mm" y1="18.845000mm" x2="426.300000mm" y2="18.750000mm" />
  <line x1="426.300000mm" y1="18.750000mm" x2="453.700000mm" y2="18.750000mm" />
  <line x1="453.700000mm" y1="18.750000mm" x2="454.178000mm" y2="18.845000mm" />
  <line x1="454.178000mm" y1="18.845000mm" x2="454.584000mm" y2="19.116000mm" />
  <line x1="454.584000mm" y1="19.116000mm" x2="454.855000mm" y2="19.522000mm" />
  <line x1="454.855000mm" y1="19.522000mm" x2="454.950000mm" y2="20.000000mm" />
  <line x1="454.950000mm" y1="20.000000mm" x2="454.855000mm" y2="20.478000mm" />
  <line x1="454.855000mm" y1="20.478000mm" x2="454.584000mm" y2="20.884000mm" />
  <line x1="454.584000mm" y1="20.884000mm" x2="454.178000mm" y2="21.155000mm" />
  <line x1="454.178000mm" y1="21.155000mm" x2="453.700000mm" y2="21.250000mm" />
  <line x1="453.700000mm" y1="21.250000mm" x2="426.300000mm" y2="21.250000mm" />
  <line x1="426.300000mm" y1="21.250000mm" x2="425.822000mm" y2="21.155000mm" />
  <line x1="425.822000mm" y1="21.155000mm" x2="425.416000mm" y2="20.884000mm" />
  <line x1="425.416000mm" y1="20.884000mm" x2="425.145000mm" y2="20.478000mm" />
  <circle cx="442.580108mm" cy="376.799967mm" r="2.200108mm" fill="none"/>
  <line x1="446.980324mm" y1="376.799967mm" x2="438.179892mm" y2="376.799967mm" />
  <line x1="442.580108mm" y1="372.399750mm" x2="442.580108mm" y2="381.200183mm" />
  <text x="444mm" y="374mm" font-size="24">
   4.4
  </text>
  <circle cx="457.399964mm" cy="30.849964mm" r="2.200229mm" fill="none"/>
  <line x1="461.800421mm" y1="30.849964mm" x2="452.999507mm" y2="30.849964mm" />
  <line x1="457.399964mm" y1="26.449507mm" x2="457.399964mm" y2="35.250421mm" />
  <text x="459mm" y="28mm" font-size="24">
   4.4
  </text>
  <circle cx="457.909400mm" cy="356.047922mm" r="2.195958mm" fill="none"/>
  <line x1="462.301316mm" y1="356.047922mm" x2="453.517484mm" y2="356.047922mm" />
  <line x1="457.909400mm" y1="351.656005mm" x2="457.909400mm" y2="360.439838mm" />
  <text x="460mm" y="353mm" font-size="24">
   4.4
  </text>
  <circle cx="463.800108mm" cy="376.799967mm" r="2.200108mm" fill="none"/>
  <line x1="468.200324mm" y1="376.799967mm" x2="459.399892mm" y2="376.799967mm" />
  <line x1="463.800108mm" y1="372.399750mm" x2="463.800108mm" y2="381.200183mm" />
  <text x="466mm" y="374mm" font-size="24">
   4.4
  </text>
 </g>
</svg>
