<?xml version="1.0"?>
<svg xmlns="http://www.w3.org/2000/svg" version="1.1" height="323mm" width="413mm" >
 <g style="fill-opacity:1.0; stroke:black; stroke-width:1;">
  <line x1="403.000000mm" y1="154.500000mm" x2="403.000000mm" y2="154.500000mm" />
  <line x1="403.000000mm" y1="154.500000mm" x2="403.000000mm" y2="15.000000mm" />
  <line x1="403.000000mm" y1="15.000000mm" x2="402.943000mm" y2="13.693000mm" />
  <line x1="402.943000mm" y1="13.693000mm" x2="402.772000mm" y2="12.395000mm" />
  <line x1="402.772000mm" y1="12.395000mm" x2="402.489000mm" y2="11.118000mm" />
  <line x1="402.489000mm" y1="11.118000mm" x2="402.095000mm" y2="9.870000mm" />
  <line x1="402.095000mm" y1="9.870000mm" x2="401.595000mm" y2="8.661000mm" />
  <line x1="401.595000mm" y1="8.661000mm" x2="400.990000mm" y2="7.500000mm" />
  <line x1="400.990000mm" y1="7.500000mm" x2="400.287000mm" y2="6.396000mm" />
  <line x1="400.287000mm" y1="6.396000mm" x2="399.491000mm" y2="5.358000mm" />
  <line x1="399.491000mm" y1="5.358000mm" x2="398.607000mm" y2="4.393000mm" />
  <line x1="398.607000mm" y1="4.393000mm" x2="397.642000mm" y2="3.509000mm" />
  <line x1="397.642000mm" y1="3.509000mm" x2="396.604000mm" y2="2.713000mm" />
  <line x1="396.604000mm" y1="2.713000mm" x2="395.500000mm" y2="2.010000mm" />
  <line x1="395.500000mm" y1="2.010000mm" x2="394.339000mm" y2="1.405000mm" />
  <line x1="394.339000mm" y1="1.405000mm" x2="393.130000mm" y2="0.905000mm" />
  <line x1="393.130000mm" y1="0.905000mm" x2="391.882000mm" y2="0.511000mm" />
  <line x1="391.882000mm" y1="0.511000mm" x2="390.605000mm" y2="0.228000mm" />
  <line x1="390.605000mm" y1="0.228000mm" x2="389.307000mm" y2="0.057000mm" />
  <line x1="389.307000mm" y1="0.057000mm" x2="388.000000mm" y2="0.000000mm" />
  <line x1="388.000000mm" y1="0.000000mm" x2="0.000000mm" y2="0.000000mm" />
  <line x1="0.000000mm" y1="0.000000mm" x2="0.000000mm" y2="154.500000mm" />
  <line x1="0.000000mm" y1="154.500000mm" x2="403.000000mm" y2="154.500000mm" />
  <circle cx="8.199951mm" cy="9.700042mm" r="1.000024mm" fill="none"/>
  <line x1="10.199999mm" y1="9.700042mm" x2="6.199904mm" y2="9.700042mm" />
  <line x1="8.199951mm" y1="7.699994mm" x2="8.199951mm" y2="11.700089mm" />
  <text x="9mm" y="8mm" font-size="24">
   2.0
  </text>
  <circle cx="8.199951mm" cy="30.520042mm" r="1.000024mm" fill="none"/>
  <line x1="10.199999mm" y1="30.520042mm" x2="6.199904mm" y2="30.520042mm" />
  <line x1="8.199951mm" y1="28.519994mm" x2="8.199951mm" y2="32.520089mm" />
  <text x="9mm" y="29mm" font-size="24">
   2.0
  </text>
  <circle cx="127.750000mm" cy="60.350096mm" r="2.199904mm" fill="none"/>
  <line x1="132.149808mm" y1="60.350096mm" x2="123.350192mm" y2="60.350096mm" />
  <line x1="127.750000mm" y1="55.950288mm" x2="127.750000mm" y2="64.749904mm" />
  <text x="129mm" y="58mm" font-size="24">
   4.4
  </text>
  <circle cx="56.250000mm" cy="60.350033mm" r="2.199967mm" fill="none"/>
  <line x1="60.649934mm" y1="60.350033mm" x2="51.850066mm" y2="60.350033mm" />
  <line x1="56.250000mm" y1="55.950100mm" x2="56.250000mm" y2="64.749967mm" />
  <text x="58mm" y="58mm" font-size="24">
   4.4
  </text>
  <circle cx="92.000000mm" cy="96.099973mm" r="37.500027mm" fill="none"/>
  <line x1="167.000055mm" y1="96.099973mm" x2="16.999945mm" y2="96.099973mm" />
  <line x1="92.000000mm" y1="21.099918mm" x2="92.000000mm" y2="171.100027mm" />
  <text x="129mm" y="58mm" font-size="24">
   75.0
  </text>
  <circle cx="286.511797mm" cy="65.599816mm" r="1.000206mm" fill="none"/>
  <line x1="288.512208mm" y1="65.599816mm" x2="284.511386mm" y2="65.599816mm" />
  <line x1="286.511797mm" y1="63.599404mm" x2="286.511797mm" y2="67.600227mm" />
  <text x="287mm" y="64mm" font-size="24">
   2.0
  </text>
  <circle cx="56.250000mm" cy="131.850033mm" r="2.199967mm" fill="none"/>
  <line x1="60.649934mm" y1="131.850033mm" x2="51.850066mm" y2="131.850033mm" />
  <line x1="56.250000mm" y1="127.450100mm" x2="56.250000mm" y2="136.249967mm" />
  <text x="58mm" y="129mm" font-size="24">
   4.4
  </text>
  <circle cx="127.750000mm" cy="131.850096mm" r="2.199904mm" fill="none"/>
  <line x1="132.149808mm" y1="131.850096mm" x2="123.350192mm" y2="131.850096mm" />
  <line x1="127.750000mm" y1="127.450288mm" x2="127.750000mm" y2="136.249904mm" />
  <text x="129mm" y="129mm" font-size="24">
   4.4
  </text>
  <circle cx="331.480000mm" cy="146.500271mm" r="2.999758mm" fill="none"/>
  <line x1="337.479515mm" y1="146.500271mm" x2="325.480485mm" y2="146.500271mm" />
  <line x1="331.480000mm" y1="140.500756mm" x2="331.480000mm" y2="152.499787mm" />
  <text x="334mm" y="143mm" font-size="24">
   6.0
  </text>
  <circle cx="46.919956mm" cy="146.300002mm" r="0.999999mm" fill="none"/>
  <line x1="48.919954mm" y1="146.300002mm" x2="44.919957mm" y2="146.300002mm" />
  <line x1="46.919956mm" y1="144.300004mm" x2="46.919956mm" y2="148.300000mm" />
  <text x="47mm" y="145mm" font-size="24">
   2.0
  </text>
  <circle cx="356.080222mm" cy="146.300201mm" r="0.999885mm" fill="none"/>
  <line x1="358.079992mm" y1="146.300201mm" x2="354.080453mm" y2="146.300201mm" />
  <line x1="356.080222mm" y1="144.300431mm" x2="356.080222mm" y2="148.299970mm" />
  <text x="357mm" y="145mm" font-size="24">
   2.0
  </text>
  <circle cx="376.900221mm" cy="146.300208mm" r="0.999887mm" fill="none"/>
  <line x1="378.899996mm" y1="146.300208mm" x2="374.900447mm" y2="146.300208mm" />
  <line x1="376.900221mm" y1="144.300433mm" x2="376.900221mm" y2="148.299983mm" />
  <text x="377mm" y="145mm" font-size="24">
   2.0
  </text>
  <circle cx="26.099957mm" cy="146.299995mm" r="0.999997mm" fill="none"/>
  <line x1="28.099950mm" y1="146.299995mm" x2="24.099963mm" y2="146.299995mm" />
  <line x1="26.099957mm" y1="144.300002mm" x2="26.099957mm" y2="148.299988mm" />
  <text x="27mm" y="145mm" font-size="24">
   2.0
  </text>
  <circle cx="342.980000mm" cy="147.499951mm" r="2.000052mm" fill="none"/>
  <line x1="346.980104mm" y1="147.499951mm" x2="338.979896mm" y2="147.499951mm" />
  <line x1="342.980000mm" y1="143.499847mm" x2="342.980000mm" y2="151.500055mm" />
  <text x="344mm" y="145mm" font-size="24">
   4.0
  </text>
  <line x1="388.000000mm" y1="313.000000mm" x2="388.000000mm" y2="313.000000mm" />
  <line x1="388.000000mm" y1="313.000000mm" x2="389.307000mm" y2="312.943000mm" />
  <line x1="389.307000mm" y1="312.943000mm" x2="390.605000mm" y2="312.772000mm" />
  <line x1="390.605000mm" y1="312.772000mm" x2="391.882000mm" y2="312.489000mm" />
  <line x1="391.882000mm" y1="312.489000mm" x2="393.130000mm" y2="312.095000mm" />
  <line x1="393.130000mm" y1="312.095000mm" x2="394.339000mm" y2="311.595000mm" />
  <line x1="394.339000mm" y1="311.595000mm" x2="395.500000mm" y2="310.990000mm" />
  <line x1="395.500000mm" y1="310.990000mm" x2="396.604000mm" y2="310.287000mm" />
  <line x1="396.604000mm" y1="310.287000mm" x2="397.642000mm" y2="309.491000mm" />
  <line x1="397.642000mm" y1="309.491000mm" x2="398.607000mm" y2="308.607000mm" />
  <line x1="398.607000mm" y1="308.607000mm" x2="399.491000mm" y2="307.642000mm" />
  <line x1="399.491000mm" y1="307.642000mm" x2="400.287000mm" y2="306.604000mm" />
  <line x1="400.287000mm" y1="306.604000mm" x2="400.990000mm" y2="305.500000mm" />
  <line x1="400.990000mm" y1="305.500000mm" x2="401.595000mm" y2="304.339000mm" />
  <line x1="401.595000mm" y1="304.339000mm" x2="402.095000mm" y2="303.130000mm" />
  <line x1="402.095000mm" y1="303.130000mm" x2="402.489000mm" y2="301.882000mm" />
  <line x1="402.489000mm" y1="301.882000mm" x2="402.772000mm" y2="300.605000mm" />
  <line x1="402.772000mm" y1="300.605000mm" x2="402.943000mm" y2="299.307000mm" />
  <line x1="402.943000mm" y1="299.307000mm" x2="403.000000mm" y2="298.000000mm" />
  <line x1="403.000000mm" y1="298.000000mm" x2="403.000000mm" y2="158.500000mm" />
  <line x1="403.000000mm" y1="158.500000mm" x2="0.000000mm" y2="158.500000mm" />
  <line x1="0.000000mm" y1="158.500000mm" x2="0.000000mm" y2="313.000000mm" />
  <line x1="0.000000mm" y1="313.000000mm" x2="388.000000mm" y2="313.000000mm" />
  <circle cx="331.480000mm" cy="166.500211mm" r="2.999758mm" fill="none"/>
  <line x1="337.479515mm" y1="166.500211mm" x2="325.480485mm" y2="166.500211mm" />
  <line x1="331.480000mm" y1="160.500696mm" x2="331.480000mm" y2="172.499727mm" />
  <text x="334mm" y="163mm" font-size="24">
   6.0
  </text>
  <circle cx="342.980000mm" cy="165.499911mm" r="2.000062mm" fill="none"/>
  <line x1="346.980123mm" y1="165.499911mm" x2="338.979877mm" y2="165.499911mm" />
  <line x1="342.980000mm" y1="161.499788mm" x2="342.980000mm" y2="169.500034mm" />
  <text x="344mm" y="163mm" font-size="24">
   4.0
  </text>
  <circle cx="376.899772mm" cy="166.700197mm" r="0.999879mm" fill="none"/>
  <line x1="378.899530mm" y1="166.700197mm" x2="374.900015mm" y2="166.700197mm" />
  <line x1="376.899772mm" y1="164.700440mm" x2="376.899772mm" y2="168.699955mm" />
  <text x="377mm" y="165mm" font-size="24">
   2.0
  </text>
  <circle cx="46.920038mm" cy="166.699992mm" r="0.999991mm" fill="none"/>
  <line x1="48.920019mm" y1="166.699992mm" x2="44.920057mm" y2="166.699992mm" />
  <line x1="46.920038mm" y1="164.700010mm" x2="46.920038mm" y2="168.699973mm" />
  <text x="47mm" y="165mm" font-size="24">
   2.0
  </text>
  <circle cx="26.099939mm" cy="166.700000mm" r="0.999994mm" fill="none"/>
  <line x1="28.099927mm" y1="166.700000mm" x2="24.099952mm" y2="166.700000mm" />
  <line x1="26.099939mm" y1="164.700013mm" x2="26.099939mm" y2="168.699988mm" />
  <text x="27mm" y="165mm" font-size="24">
   2.0
  </text>
  <circle cx="356.079772mm" cy="166.700197mm" r="0.999879mm" fill="none"/>
  <line x1="358.079530mm" y1="166.700197mm" x2="354.080015mm" y2="166.700197mm" />
  <line x1="356.079772mm" y1="164.700440mm" x2="356.079772mm" y2="168.699955mm" />
  <text x="357mm" y="165mm" font-size="24">
   2.0
  </text>
  <circle cx="7.499985mm" cy="177.400033mm" r="2.500005mm" fill="none"/>
  <line x1="12.499995mm" y1="177.400033mm" x2="2.499974mm" y2="177.400033mm" />
  <line x1="7.499985mm" y1="172.400022mm" x2="7.499985mm" y2="182.400044mm" />
  <text x="9mm" y="174mm" font-size="24">
   5.0
  </text>
  <circle cx="6.999991mm" cy="186.900015mm" r="2.000001mm" fill="none"/>
  <line x1="10.999993mm" y1="186.900015mm" x2="2.999990mm" y2="186.900015mm" />
  <line x1="6.999991mm" y1="182.900013mm" x2="6.999991mm" y2="190.900016mm" />
  <text x="8mm" y="184mm" font-size="24">
   4.0
  </text>
  <circle cx="286.511797mm" cy="190.599816mm" r="1.000206mm" fill="none"/>
  <line x1="288.512208mm" y1="190.599816mm" x2="284.511386mm" y2="190.599816mm" />
  <line x1="286.511797mm" y1="188.599404mm" x2="286.511797mm" y2="192.600227mm" />
  <text x="287mm" y="189mm" font-size="24">
   2.0
  </text>
  <circle cx="321.500000mm" cy="211.599887mm" r="1.250113mm" fill="none"/>
  <line x1="324.000227mm" y1="211.599887mm" x2="318.999773mm" y2="211.599887mm" />
  <line x1="321.500000mm" y1="209.099660mm" x2="321.500000mm" y2="214.100113mm" />
  <text x="322mm" y="210mm" font-size="24">
   2.5
  </text>
  <circle cx="239.000000mm" cy="211.599887mm" r="1.250113mm" fill="none"/>
  <line x1="241.500227mm" y1="211.599887mm" x2="236.499773mm" y2="211.599887mm" />
  <line x1="239.000000mm" y1="209.099660mm" x2="239.000000mm" y2="214.100113mm" />
  <text x="240mm" y="210mm" font-size="24">
   2.5
  </text>
  <circle cx="6.999991mm" cy="238.900015mm" r="2.000001mm" fill="none"/>
  <line x1="10.999993mm" y1="238.900015mm" x2="2.999990mm" y2="238.900015mm" />
  <line x1="6.999991mm" y1="234.900013mm" x2="6.999991mm" y2="242.900016mm" />
  <text x="8mm" y="236mm" font-size="24">
   4.0
  </text>
  <circle cx="8.499989mm" cy="251.099724mm" r="3.499902mm" fill="none"/>
  <line x1="15.499792mm" y1="251.099724mm" x2="1.500185mm" y2="251.099724mm" />
  <line x1="8.499989mm" y1="244.099920mm" x2="8.499989mm" y2="258.099528mm" />
  <text x="11mm" y="247mm" font-size="24">
   7.0
  </text>
  <circle cx="206.349914mm" cy="251.049857mm" r="0.850086mm" fill="none"/>
  <line x1="208.050086mm" y1="251.049857mm" x2="204.649741mm" y2="251.049857mm" />
  <line x1="206.349914mm" y1="249.349684mm" x2="206.349914mm" y2="252.750029mm" />
  <text x="207mm" y="250mm" font-size="24">
   1.7
  </text>
  <circle cx="245.300000mm" cy="259.899997mm" r="1.250003mm" fill="none"/>
  <line x1="247.800005mm" y1="259.899997mm" x2="242.799995mm" y2="259.899997mm" />
  <line x1="245.300000mm" y1="257.399992mm" x2="245.300000mm" y2="262.400003mm" />
  <text x="246mm" y="258mm" font-size="24">
   2.5
  </text>
  <circle cx="320.200000mm" cy="259.899997mm" r="1.250003mm" fill="none"/>
  <line x1="322.700005mm" y1="259.899997mm" x2="317.699995mm" y2="259.899997mm" />
  <line x1="320.200000mm" y1="257.399992mm" x2="320.200000mm" y2="262.400003mm" />
  <text x="321mm" y="258mm" font-size="24">
   2.5
  </text>
  <circle cx="192.050123mm" cy="266.949798mm" r="0.849877mm" fill="none"/>
  <line x1="193.749877mm" y1="266.949798mm" x2="190.350369mm" y2="266.949798mm" />
  <line x1="192.050123mm" y1="265.250044mm" x2="192.050123mm" y2="268.649552mm" />
  <text x="192mm" y="266mm" font-size="24">
   1.7
  </text>
  <circle cx="8.199957mm" cy="282.480044mm" r="1.000020mm" fill="none"/>
  <line x1="10.199998mm" y1="282.480044mm" x2="6.199917mm" y2="282.480044mm" />
  <line x1="8.199957mm" y1="280.480004mm" x2="8.199957mm" y2="284.480084mm" />
  <text x="9mm" y="281mm" font-size="24">
   2.0
  </text>
  <circle cx="206.350123mm" cy="282.549798mm" r="0.849877mm" fill="none"/>
  <line x1="208.049877mm" y1="282.549798mm" x2="204.650369mm" y2="282.549798mm" />
  <line x1="206.350123mm" y1="280.850044mm" x2="206.350123mm" y2="284.249552mm" />
  <text x="207mm" y="281mm" font-size="24">
   1.7
  </text>
  <circle cx="192.050123mm" cy="298.449798mm" r="0.849877mm" fill="none"/>
  <line x1="193.749877mm" y1="298.449798mm" x2="190.350369mm" y2="298.449798mm" />
  <line x1="192.050123mm" y1="296.750044mm" x2="192.050123mm" y2="300.149552mm" />
  <text x="192mm" y="297mm" font-size="24">
   1.7
  </text>
  <circle cx="8.199957mm" cy="303.300044mm" r="1.000020mm" fill="none"/>
  <line x1="10.199998mm" y1="303.300044mm" x2="6.199917mm" y2="303.300044mm" />
  <line x1="8.199957mm" y1="301.300004mm" x2="8.199957mm" y2="305.300084mm" />
  <text x="9mm" y="302mm" font-size="24">
   2.0
  </text>
  <circle cx="149.899908mm" cy="306.000377mm" r="0.999982mm" fill="none"/>
  <line x1="151.899872mm" y1="306.000377mm" x2="147.899944mm" y2="306.000377mm" />
  <line x1="149.899908mm" y1="304.000413mm" x2="149.899908mm" y2="308.000341mm" />
  <text x="150mm" y="305mm" font-size="24">
   2.0
  </text>
  <circle cx="32.900075mm" cy="306.000180mm" r="1.000097mm" fill="none"/>
  <line x1="34.900268mm" y1="306.000180mm" x2="30.899881mm" y2="306.000180mm" />
  <line x1="32.900075mm" y1="303.999987mm" x2="32.900075mm" y2="308.000374mm" />
  <text x="33mm" y="305mm" font-size="24">
   2.0
  </text>
 </g>
</svg>
