<?xml version="1.0"?>
<svg xmlns="http://www.w3.org/2000/svg" version="1.1" height="167mm" width="411mm" >
 <g style="fill-opacity:1.0; stroke:black; stroke-width:1;">
  <line x1="0.000000mm" y1="0.000000mm" x2="0.000000mm" y2="0.000000mm" />
  <line x1="0.000000mm" y1="0.000000mm" x2="0.000000mm" y2="156.500000mm" />
  <line x1="0.000000mm" y1="156.500000mm" x2="386.000000mm" y2="156.500000mm" />
  <line x1="386.000000mm" y1="156.500000mm" x2="387.307000mm" y2="156.443000mm" />
  <line x1="387.307000mm" y1="156.443000mm" x2="388.605000mm" y2="156.272000mm" />
  <line x1="388.605000mm" y1="156.272000mm" x2="389.882000mm" y2="155.989000mm" />
  <line x1="389.882000mm" y1="155.989000mm" x2="391.130000mm" y2="155.595000mm" />
  <line x1="391.130000mm" y1="155.595000mm" x2="392.339000mm" y2="155.095000mm" />
  <line x1="392.339000mm" y1="155.095000mm" x2="393.500000mm" y2="154.490000mm" />
  <line x1="393.500000mm" y1="154.490000mm" x2="394.604000mm" y2="153.787000mm" />
  <line x1="394.604000mm" y1="153.787000mm" x2="395.642000mm" y2="152.991000mm" />
  <line x1="395.642000mm" y1="152.991000mm" x2="396.607000mm" y2="152.107000mm" />
  <line x1="396.607000mm" y1="152.107000mm" x2="397.491000mm" y2="151.142000mm" />
  <line x1="397.491000mm" y1="151.142000mm" x2="398.287000mm" y2="150.104000mm" />
  <line x1="398.287000mm" y1="150.104000mm" x2="398.990000mm" y2="149.000000mm" />
  <line x1="398.990000mm" y1="149.000000mm" x2="399.595000mm" y2="147.839000mm" />
  <line x1="399.595000mm" y1="147.839000mm" x2="400.095000mm" y2="146.630000mm" />
  <line x1="400.095000mm" y1="146.630000mm" x2="400.489000mm" y2="145.382000mm" />
  <line x1="400.489000mm" y1="145.382000mm" x2="400.772000mm" y2="144.105000mm" />
  <line x1="400.772000mm" y1="144.105000mm" x2="400.943000mm" y2="142.807000mm" />
  <line x1="400.943000mm" y1="142.807000mm" x2="401.000000mm" y2="141.500000mm" />
  <line x1="401.000000mm" y1="141.500000mm" x2="401.000000mm" y2="0.000000mm" />
  <line x1="401.000000mm" y1="0.000000mm" x2="0.000000mm" y2="0.000000mm" />
  <circle cx="7.508598mm" cy="18.898283mm" r="2.496689mm" fill="none"/>
  <line x1="12.501975mm" y1="18.898283mm" x2="2.515221mm" y2="18.898283mm" />
  <line x1="7.508598mm" y1="13.904906mm" x2="7.508598mm" y2="23.891660mm" />
  <text x="10mm" y="16mm" font-size="24">
   5.0
  </text>
  <circle cx="8.506234mm" cy="94.599111mm" r="3.497370mm" fill="none"/>
  <line x1="15.500974mm" y1="94.599111mm" x2="1.511494mm" y2="94.599111mm" />
  <line x1="8.506234mm" y1="87.604371mm" x2="8.506234mm" y2="101.593851mm" />
  <text x="12mm" y="91mm" font-size="24">
   7.0
  </text>
  <circle cx="6.997753mm" cy="82.409100mm" r="1.994681mm" fill="none"/>
  <line x1="10.987115mm" y1="82.409100mm" x2="3.008390mm" y2="82.409100mm" />
  <line x1="6.997753mm" y1="78.419737mm" x2="6.997753mm" y2="86.398462mm" />
  <text x="8mm" y="80mm" font-size="24">
   4.0
  </text>
  <circle cx="6.997753mm" cy="28.409100mm" r="1.994681mm" fill="none"/>
  <line x1="10.987115mm" y1="28.409100mm" x2="3.008390mm" y2="28.409100mm" />
  <line x1="6.997753mm" y1="24.419737mm" x2="6.997753mm" y2="32.398462mm" />
  <text x="8mm" y="26mm" font-size="24">
   4.0
  </text>
  <circle cx="8.200096mm" cy="146.800172mm" r="1.000172mm" fill="none"/>
  <line x1="10.200440mm" y1="146.800172mm" x2="6.199751mm" y2="146.800172mm" />
  <line x1="8.200096mm" y1="144.799828mm" x2="8.200096mm" y2="148.800516mm" />
  <text x="9mm" y="145mm" font-size="24">
   2.0
  </text>
  <circle cx="8.200096mm" cy="125.980172mm" r="1.000172mm" fill="none"/>
  <line x1="10.200440mm" y1="125.980172mm" x2="6.199751mm" y2="125.980172mm" />
  <line x1="8.200096mm" y1="123.979828mm" x2="8.200096mm" y2="127.980516mm" />
  <text x="9mm" y="124mm" font-size="24">
   2.0
  </text>
  <circle cx="26.100029mm" cy="8.200000mm" r="1.000012mm" fill="none"/>
  <line x1="28.100053mm" y1="8.200000mm" x2="24.100005mm" y2="8.200000mm" />
  <line x1="26.100029mm" y1="6.199976mm" x2="26.100029mm" y2="10.200024mm" />
  <text x="27mm" y="7mm" font-size="24">
   2.0
  </text>
  <circle cx="32.900156mm" cy="149.499993mm" r="1.000032mm" fill="none"/>
  <line x1="34.900221mm" y1="149.499993mm" x2="30.900092mm" y2="149.499993mm" />
  <line x1="32.900156mm" y1="147.499929mm" x2="32.900156mm" y2="151.500058mm" />
  <text x="33mm" y="148mm" font-size="24">
   2.0
  </text>
  <circle cx="46.920029mm" cy="8.200000mm" r="1.000012mm" fill="none"/>
  <line x1="48.920053mm" y1="8.200000mm" x2="44.920005mm" y2="8.200000mm" />
  <line x1="46.920029mm" y1="6.199976mm" x2="46.920029mm" y2="10.200024mm" />
  <text x="47mm" y="7mm" font-size="24">
   2.0
  </text>
  <circle cx="149.899659mm" cy="149.500016mm" r="1.000019mm" fill="none"/>
  <line x1="151.899698mm" y1="149.500016mm" x2="147.899621mm" y2="149.500016mm" />
  <line x1="149.899659mm" y1="147.499978mm" x2="149.899659mm" y2="151.500054mm" />
  <text x="150mm" y="148mm" font-size="24">
   2.0
  </text>
  <circle cx="192.050194mm" cy="141.950223mm" r="0.849908mm" fill="none"/>
  <line x1="193.750009mm" y1="141.950223mm" x2="190.350378mm" y2="141.950223mm" />
  <line x1="192.050194mm" y1="140.250407mm" x2="192.050194mm" y2="143.650038mm" />
  <text x="192mm" y="141mm" font-size="24">
   1.7
  </text>
  <circle cx="192.050194mm" cy="110.450223mm" r="0.849908mm" fill="none"/>
  <line x1="193.750009mm" y1="110.450223mm" x2="190.350378mm" y2="110.450223mm" />
  <line x1="192.050194mm" y1="108.750407mm" x2="192.050194mm" y2="112.150038mm" />
  <text x="192mm" y="109mm" font-size="24">
   1.7
  </text>
  <circle cx="206.350194mm" cy="126.050223mm" r="0.849908mm" fill="none"/>
  <line x1="208.050009mm" y1="126.050223mm" x2="204.650378mm" y2="126.050223mm" />
  <line x1="206.350194mm" y1="124.350407mm" x2="206.350194mm" y2="127.750038mm" />
  <text x="207mm" y="125mm" font-size="24">
   1.7
  </text>
  <circle cx="206.349795mm" cy="94.550108mm" r="0.850035mm" fill="none"/>
  <line x1="208.049865mm" y1="94.550108mm" x2="204.649725mm" y2="94.550108mm" />
  <line x1="206.349795mm" y1="92.850039mm" x2="206.349795mm" y2="96.250178mm" />
  <text x="207mm" y="93mm" font-size="24">
   1.7
  </text>
  <circle cx="237.999946mm" cy="54.100077mm" r="1.250077mm" fill="none"/>
  <line x1="240.500101mm" y1="54.100077mm" x2="235.499792mm" y2="54.100077mm" />
  <line x1="237.999946mm" y1="51.599923mm" x2="237.999946mm" y2="56.600232mm" />
  <text x="239mm" y="52mm" font-size="24">
   2.5
  </text>
  <circle cx="244.300087mm" cy="102.400061mm" r="1.250061mm" fill="none"/>
  <line x1="246.800208mm" y1="102.400061mm" x2="241.799966mm" y2="102.400061mm" />
  <line x1="244.300087mm" y1="99.899939mm" x2="244.300087mm" y2="104.900182mm" />
  <text x="245mm" y="101mm" font-size="24">
   2.5
  </text>
  <circle cx="284.511467mm" cy="32.100011mm" r="0.999994mm" fill="none"/>
  <line x1="286.511455mm" y1="32.100011mm" x2="282.511479mm" y2="32.100011mm" />
  <line x1="284.511467mm" y1="30.100023mm" x2="284.511467mm" y2="34.099999mm" />
  <text x="285mm" y="31mm" font-size="24">
   2.0
  </text>
  <circle cx="319.200087mm" cy="102.400061mm" r="1.250061mm" fill="none"/>
  <line x1="321.700208mm" y1="102.400061mm" x2="316.699966mm" y2="102.400061mm" />
  <line x1="319.200087mm" y1="99.899939mm" x2="319.200087mm" y2="104.900182mm" />
  <text x="320mm" y="101mm" font-size="24">
   2.5
  </text>
  <circle cx="320.499946mm" cy="54.100077mm" r="1.250077mm" fill="none"/>
  <line x1="323.000101mm" y1="54.100077mm" x2="317.999792mm" y2="54.100077mm" />
  <line x1="320.499946mm" y1="51.599923mm" x2="320.499946mm" y2="56.600232mm" />
  <text x="321mm" y="52mm" font-size="24">
   2.5
  </text>
  <circle cx="329.480083mm" cy="8.000062mm" r="2.999988mm" fill="none"/>
  <line x1="335.480060mm" y1="8.000062mm" x2="323.480106mm" y2="8.000062mm" />
  <line x1="329.480083mm" y1="2.000085mm" x2="329.480083mm" y2="14.000039mm" />
  <text x="332mm" y="5mm" font-size="24">
   6.0
  </text>
  <circle cx="340.979873mm" cy="7.000018mm" r="1.999985mm" fill="none"/>
  <line x1="344.979844mm" y1="7.000018mm" x2="336.979903mm" y2="7.000018mm" />
  <line x1="340.979873mm" y1="3.000048mm" x2="340.979873mm" y2="10.999989mm" />
  <text x="342mm" y="5mm" font-size="24">
   4.0
  </text>
  <circle cx="354.079532mm" cy="8.200023mm" r="0.999999mm" fill="none"/>
  <line x1="356.079529mm" y1="8.200023mm" x2="352.079534mm" y2="8.200023mm" />
  <line x1="354.079532mm" y1="6.200025mm" x2="354.079532mm" y2="10.200020mm" />
  <text x="355mm" y="7mm" font-size="24">
   2.0
  </text>
  <circle cx="374.899532mm" cy="8.200023mm" r="0.999999mm" fill="none"/>
  <line x1="376.899529mm" y1="8.200023mm" x2="372.899534mm" y2="8.200023mm" />
  <line x1="374.899532mm" y1="6.200025mm" x2="374.899532mm" y2="10.200020mm" />
  <text x="375mm" y="7mm" font-size="24">
   2.0
  </text>
 </g>
</svg>
