  0
SECTION
  2
BLOCKS
  0
ENDSEC
  0
SECTION
  2
ENTITIES
  0
LINE
  8
0
 10
-108.5
 20
105.5
 11
-108.49
 21
-105.748
  0
LINE
  8
0
 10
-108.49
 20
-105.748
 11
-108.408
 21
-106.236
  0
LINE
  8
0
 10
-108.408
 20
-106.236
 11
-108.247
 21
-106.705
  0
LINE
  8
0
 10
-108.247
 20
-106.705
 11
-108.011
 21
-107.141
  0
LINE
  8
0
 10
-108.011
 20
-107.141
 11
-107.707
 21
-107.532
  0
LINE
  8
0
 10
-107.707
 20
-107.532
 11
-107.343
 21
-107.867
  0
LINE
  8
0
 10
-107.343
 20
-107.867
 11
-106.928
 21
-108.138
  0
LINE
  8
0
 10
-106.928
 20
-108.138
 11
-106.474
 21
-108.337
  0
LINE
  8
0
 10
-106.474
 20
-108.337
 11
-105.994
 21
-108.459
  0
LINE
  8
0
 10
-105.994
 20
-108.459
 11
-105.5
 21
-108.5
  0
LINE
  8
0
 10
-105.5
 20
-108.5
 11
105.748
 21
-108.49
  0
LINE
  8
0
 10
105.748
 20
-108.49
 11
106.236
 21
-108.408
  0
LINE
  8
0
 10
106.236
 20
-108.408
 11
106.705
 21
-108.247
  0
LINE
  8
0
 10
106.705
 20
-108.247
 11
107.141
 21
-108.011
  0
LINE
  8
0
 10
107.141
 20
-108.011
 11
107.532
 21
-107.707
  0
LINE
  8
0
 10
107.532
 20
-107.707
 11
107.867
 21
-107.343
  0
LINE
  8
0
 10
107.867
 20
-107.343
 11
108.138
 21
-106.928
  0
LINE
  8
0
 10
108.138
 20
-106.928
 11
108.337
 21
-106.474
  0
LINE
  8
0
 10
108.337
 20
-106.474
 11
108.459
 21
-105.994
  0
LINE
  8
0
 10
108.459
 20
-105.994
 11
108.5
 21
-105.5
  0
LINE
  8
0
 10
108.5
 20
-105.5
 11
108.49
 21
105.748
  0
LINE
  8
0
 10
108.49
 20
105.748
 11
108.408
 21
106.236
  0
LINE
  8
0
 10
108.408
 20
106.236
 11
108.247
 21
106.705
  0
LINE
  8
0
 10
108.247
 20
106.705
 11
108.011
 21
107.141
  0
LINE
  8
0
 10
108.011
 20
107.141
 11
107.707
 21
107.532
  0
LINE
  8
0
 10
107.707
 20
107.532
 11
107.343
 21
107.867
  0
LINE
  8
0
 10
107.343
 20
107.867
 11
106.928
 21
108.138
  0
LINE
  8
0
 10
106.928
 20
108.138
 11
106.474
 21
108.337
  0
LINE
  8
0
 10
106.474
 20
108.337
 11
105.994
 21
108.459
  0
LINE
  8
0
 10
105.994
 20
108.459
 11
105.5
 21
108.5
  0
LINE
  8
0
 10
105.5
 20
108.5
 11
18.51
 21
108.496
  0
LINE
  8
0
 10
18.51
 20
108.496
 11
18.51
 21
103.5
  0
LINE
  8
0
 10
18.51
 20
103.5
 11
-18.51
 21
103.5
  0
LINE
  8
0
 10
-18.51
 20
103.5
 11
-18.51
 21
108.494
  0
LINE
  8
0
 10
-18.51
 20
108.494
 11
-105.748
 21
108.49
  0
LINE
  8
0
 10
-105.748
 20
108.49
 11
-106.236
 21
108.408
  0
LINE
  8
0
 10
-106.236
 20
108.408
 11
-106.705
 21
108.247
  0
LINE
  8
0
 10
-106.705
 20
108.247
 11
-107.141
 21
108.011
  0
LINE
  8
0
 10
-107.141
 20
108.011
 11
-107.532
 21
107.707
  0
LINE
  8
0
 10
-107.532
 20
107.707
 11
-107.867
 21
107.343
  0
LINE
  8
0
 10
-107.867
 20
107.343
 11
-108.138
 21
106.928
  0
LINE
  8
0
 10
-108.138
 20
106.928
 11
-108.337
 21
106.474
  0
LINE
  8
0
 10
-108.337
 20
106.474
 11
-108.459
 21
105.994
  0
LINE
  8
0
 10
-108.459
 20
105.994
 11
-108.5
 21
105.5
  0
LINE
  8
0
 10
-105.75
 20
-104.5
 11
-105.655
 21
-104.022
  0
LINE
  8
0
 10
-105.655
 20
-104.022
 11
-105.384
 21
-103.616
  0
LINE
  8
0
 10
-105.384
 20
-103.616
 11
-104.978
 21
-103.345
  0
LINE
  8
0
 10
-104.978
 20
-103.345
 11
-104.5
 21
-103.25
  0
LINE
  8
0
 10
-104.5
 20
-103.25
 11
-104.022
 21
-103.345
  0
LINE
  8
0
 10
-104.022
 20
-103.345
 11
-103.616
 21
-103.616
  0
LINE
  8
0
 10
-103.616
 20
-103.616
 11
-103.345
 21
-104.022
  0
LINE
  8
0
 10
-103.345
 20
-104.022
 11
-103.25
 21
-104.5
  0
LINE
  8
0
 10
-103.25
 20
-104.5
 11
-103.345
 21
-104.978
  0
LINE
  8
0
 10
-103.345
 20
-104.978
 11
-103.616
 21
-105.384
  0
LINE
  8
0
 10
-103.616
 20
-105.384
 11
-104.022
 21
-105.655
  0
LINE
  8
0
 10
-104.022
 20
-105.655
 11
-104.5
 21
-105.75
  0
LINE
  8
0
 10
-104.5
 20
-105.75
 11
-104.978
 21
-105.655
  0
LINE
  8
0
 10
-104.978
 20
-105.655
 11
-105.384
 21
-105.384
  0
LINE
  8
0
 10
-105.384
 20
-105.384
 11
-105.655
 21
-104.978
  0
LINE
  8
0
 10
-105.655
 20
-104.978
 11
-105.75
 21
-104.5
  0
LINE
  8
0
 10
-105.75
 20
104.5
 11
-105.655
 21
104.978
  0
LINE
  8
0
 10
-105.655
 20
104.978
 11
-105.384
 21
105.384
  0
LINE
  8
0
 10
-105.384
 20
105.384
 11
-104.978
 21
105.655
  0
LINE
  8
0
 10
-104.978
 20
105.655
 11
-104.5
 21
105.75
  0
LINE
  8
0
 10
-104.5
 20
105.75
 11
-104.022
 21
105.655
  0
LINE
  8
0
 10
-104.022
 20
105.655
 11
-103.616
 21
105.384
  0
LINE
  8
0
 10
-103.616
 20
105.384
 11
-103.345
 21
104.978
  0
LINE
  8
0
 10
-103.345
 20
104.978
 11
-103.25
 21
104.5
  0
LINE
  8
0
 10
-103.25
 20
104.5
 11
-103.345
 21
104.022
  0
LINE
  8
0
 10
-103.345
 20
104.022
 11
-103.616
 21
103.616
  0
LINE
  8
0
 10
-103.616
 20
103.616
 11
-104.022
 21
103.345
  0
LINE
  8
0
 10
-104.022
 20
103.345
 11
-104.5
 21
103.25
  0
LINE
  8
0
 10
-104.5
 20
103.25
 11
-104.978
 21
103.345
  0
LINE
  8
0
 10
-104.978
 20
103.345
 11
-105.384
 21
103.616
  0
LINE
  8
0
 10
-105.384
 20
103.616
 11
-105.655
 21
104.022
  0
LINE
  8
0
 10
-105.655
 20
104.022
 11
-105.75
 21
104.5
  0
LINE
  8
0
 10
-103.85
 20
-89.5
 11
-103.777
 21
-89.0137
  0
LINE
  8
0
 10
-103.777
 20
-89.0137
 11
-103.563
 21
-88.5705
  0
LINE
  8
0
 10
-103.563
 20
-88.5705
 11
-103.229
 21
-88.21
  0
LINE
  8
0
 10
-103.229
 20
-88.21
 11
-102.803
 21
-87.9641
  0
LINE
  8
0
 10
-102.803
 20
-87.9641
 11
-102.323
 21
-87.8546
  0
LINE
  8
0
 10
-102.323
 20
-87.8546
 11
-101.833
 21
-87.8914
  0
LINE
  8
0
 10
-101.833
 20
-87.8914
 11
-101.375
 21
-88.0711
  0
LINE
  8
0
 10
-101.375
 20
-88.0711
 11
-100.99
 21
-88.3777
  0
LINE
  8
0
 10
-100.99
 20
-88.3777
 11
-100.713
 21
-88.7841
  0
LINE
  8
0
 10
-100.713
 20
-88.7841
 11
-100.568
 21
-89.2541
  0
LINE
  8
0
 10
-100.568
 20
-89.2541
 11
-100.568
 21
-89.7459
  0
LINE
  8
0
 10
-100.568
 20
-89.7459
 11
-100.713
 21
-90.2159
  0
LINE
  8
0
 10
-100.713
 20
-90.2159
 11
-100.99
 21
-90.6223
  0
LINE
  8
0
 10
-100.99
 20
-90.6223
 11
-101.375
 21
-90.9289
  0
LINE
  8
0
 10
-101.375
 20
-90.9289
 11
-101.833
 21
-91.1086
  0
LINE
  8
0
 10
-101.833
 20
-91.1086
 11
-102.323
 21
-91.1454
  0
LINE
  8
0
 10
-102.323
 20
-91.1454
 11
-102.803
 21
-91.0359
  0
LINE
  8
0
 10
-102.803
 20
-91.0359
 11
-103.229
 21
-90.79
  0
LINE
  8
0
 10
-103.229
 20
-90.79
 11
-103.563
 21
-90.4295
  0
LINE
  8
0
 10
-103.563
 20
-90.4295
 11
-103.777
 21
-89.9863
  0
LINE
  8
0
 10
-103.777
 20
-89.9863
 11
-103.85
 21
-89.5
  0
LINE
  8
0
 10
-103.85
 20
69.5
 11
-103.777
 21
69.9863
  0
LINE
  8
0
 10
-103.777
 20
69.9863
 11
-103.563
 21
70.4295
  0
LINE
  8
0
 10
-103.563
 20
70.4295
 11
-103.229
 21
70.79
  0
LINE
  8
0
 10
-103.229
 20
70.79
 11
-102.803
 21
71.0359
  0
LINE
  8
0
 10
-102.803
 20
71.0359
 11
-102.323
 21
71.1454
  0
LINE
  8
0
 10
-102.323
 20
71.1454
 11
-101.833
 21
71.1086
  0
LINE
  8
0
 10
-101.833
 20
71.1086
 11
-101.375
 21
70.9289
  0
LINE
  8
0
 10
-101.375
 20
70.9289
 11
-100.99
 21
70.6223
  0
LINE
  8
0
 10
-100.99
 20
70.6223
 11
-100.713
 21
70.2159
  0
LINE
  8
0
 10
-100.713
 20
70.2159
 11
-100.568
 21
69.7459
  0
LINE
  8
0
 10
-100.568
 20
69.7459
 11
-100.568
 21
69.2541
  0
LINE
  8
0
 10
-100.568
 20
69.2541
 11
-100.713
 21
68.7841
  0
LINE
  8
0
 10
-100.713
 20
68.7841
 11
-100.99
 21
68.3777
  0
LINE
  8
0
 10
-100.99
 20
68.3777
 11
-101.375
 21
68.0711
  0
LINE
  8
0
 10
-101.375
 20
68.0711
 11
-101.833
 21
67.8914
  0
LINE
  8
0
 10
-101.833
 20
67.8914
 11
-102.323
 21
67.8546
  0
LINE
  8
0
 10
-102.323
 20
67.8546
 11
-102.803
 21
67.9641
  0
LINE
  8
0
 10
-102.803
 20
67.9641
 11
-103.229
 21
68.21
  0
LINE
  8
0
 10
-103.229
 20
68.21
 11
-103.563
 21
68.5705
  0
LINE
  8
0
 10
-103.563
 20
68.5705
 11
-103.777
 21
69.0137
  0
LINE
  8
0
 10
-103.777
 20
69.0137
 11
-103.85
 21
69.5
  0
LINE
  8
0
 10
-76.45
 20
-69.5
 11
-76.3767
 21
-69.0137
  0
LINE
  8
0
 10
-76.3767
 20
-69.0137
 11
-76.1633
 21
-68.5705
  0
LINE
  8
0
 10
-76.1633
 20
-68.5705
 11
-75.8288
 21
-68.21
  0
LINE
  8
0
 10
-75.8288
 20
-68.21
 11
-75.4028
 21
-67.9641
  0
LINE
  8
0
 10
-75.4028
 20
-67.9641
 11
-74.9233
 21
-67.8546
  0
LINE
  8
0
 10
-74.9233
 20
-67.8546
 11
-74.4328
 21
-67.8914
  0
LINE
  8
0
 10
-74.4328
 20
-67.8914
 11
-73.975
 21
-68.0711
  0
LINE
  8
0
 10
-73.975
 20
-68.0711
 11
-73.5905
 21
-68.3777
  0
LINE
  8
0
 10
-73.5905
 20
-68.3777
 11
-73.3134
 21
-68.7841
  0
LINE
  8
0
 10
-73.3134
 20
-68.7841
 11
-73.1684
 21
-69.2541
  0
LINE
  8
0
 10
-73.1684
 20
-69.2541
 11
-73.1684
 21
-69.7459
  0
LINE
  8
0
 10
-73.1684
 20
-69.7459
 11
-73.3134
 21
-70.2159
  0
LINE
  8
0
 10
-73.3134
 20
-70.2159
 11
-73.5905
 21
-70.6223
  0
LINE
  8
0
 10
-73.5905
 20
-70.6223
 11
-73.975
 21
-70.9289
  0
LINE
  8
0
 10
-73.975
 20
-70.9289
 11
-74.4328
 21
-71.1086
  0
LINE
  8
0
 10
-74.4328
 20
-71.1086
 11
-74.9233
 21
-71.1454
  0
LINE
  8
0
 10
-74.9233
 20
-71.1454
 11
-75.4028
 21
-71.0359
  0
LINE
  8
0
 10
-75.4028
 20
-71.0359
 11
-75.8288
 21
-70.79
  0
LINE
  8
0
 10
-75.8288
 20
-70.79
 11
-76.1633
 21
-70.4295
  0
LINE
  8
0
 10
-76.1633
 20
-70.4295
 11
-76.3767
 21
-69.9863
  0
LINE
  8
0
 10
-76.3767
 20
-69.9863
 11
-76.45
 21
-69.5
  0
LINE
  8
0
 10
-76.45
 20
89.5
 11
-76.3767
 21
89.9863
  0
LINE
  8
0
 10
-76.3767
 20
89.9863
 11
-76.1633
 21
90.4295
  0
LINE
  8
0
 10
-76.1633
 20
90.4295
 11
-75.8288
 21
90.79
  0
LINE
  8
0
 10
-75.8288
 20
90.79
 11
-75.4028
 21
91.0359
  0
LINE
  8
0
 10
-75.4028
 20
91.0359
 11
-74.9233
 21
91.1454
  0
LINE
  8
0
 10
-74.9233
 20
91.1454
 11
-74.4328
 21
91.1086
  0
LINE
  8
0
 10
-74.4328
 20
91.1086
 11
-73.975
 21
90.9289
  0
LINE
  8
0
 10
-73.975
 20
90.9289
 11
-73.5905
 21
90.6223
  0
LINE
  8
0
 10
-73.5905
 20
90.6223
 11
-73.3134
 21
90.2159
  0
LINE
  8
0
 10
-73.3134
 20
90.2159
 11
-73.1684
 21
89.7459
  0
LINE
  8
0
 10
-73.1684
 20
89.7459
 11
-73.1684
 21
89.2541
  0
LINE
  8
0
 10
-73.1684
 20
89.2541
 11
-73.3134
 21
88.7841
  0
LINE
  8
0
 10
-73.3134
 20
88.7841
 11
-73.5905
 21
88.3777
  0
LINE
  8
0
 10
-73.5905
 20
88.3777
 11
-73.975
 21
88.0711
  0
LINE
  8
0
 10
-73.975
 20
88.0711
 11
-74.4328
 21
87.8914
  0
LINE
  8
0
 10
-74.4328
 20
87.8914
 11
-74.9233
 21
87.8546
  0
LINE
  8
0
 10
-74.9233
 20
87.8546
 11
-75.4028
 21
87.9641
  0
LINE
  8
0
 10
-75.4028
 20
87.9641
 11
-75.8288
 21
88.21
  0
LINE
  8
0
 10
-75.8288
 20
88.21
 11
-76.1633
 21
88.5705
  0
LINE
  8
0
 10
-76.1633
 20
88.5705
 11
-76.3767
 21
89.0137
  0
LINE
  8
0
 10
-76.3767
 20
89.0137
 11
-76.45
 21
89.5
  0
LINE
  8
0
 10
-33.16
 20
-53.6746
 11
-33.0867
 21
-53.1882
  0
LINE
  8
0
 10
-33.0867
 20
-53.1882
 11
-32.8733
 21
-52.7451
  0
LINE
  8
0
 10
-32.8733
 20
-52.7451
 11
-32.5388
 21
-52.3846
  0
LINE
  8
0
 10
-32.5388
 20
-52.3846
 11
-32.1128
 21
-52.1386
  0
LINE
  8
0
 10
-32.1128
 20
-52.1386
 11
-31.6333
 21
-52.0292
  0
LINE
  8
0
 10
-31.6333
 20
-52.0292
 11
-31.1428
 21
-52.066
  0
LINE
  8
0
 10
-31.1428
 20
-52.066
 11
-30.685
 21
-52.2456
  0
LINE
  8
0
 10
-30.685
 20
-52.2456
 11
-30.3005
 21
-52.5523
  0
LINE
  8
0
 10
-30.3005
 20
-52.5523
 11
-30.0234
 21
-52.9587
  0
LINE
  8
0
 10
-30.0234
 20
-52.9587
 11
-29.8784
 21
-53.4287
  0
LINE
  8
0
 10
-29.8784
 20
-53.4287
 11
-29.8784
 21
-53.9205
  0
LINE
  8
0
 10
-29.8784
 20
-53.9205
 11
-30.0234
 21
-54.3905
  0
LINE
  8
0
 10
-30.0234
 20
-54.3905
 11
-30.3005
 21
-54.7969
  0
LINE
  8
0
 10
-30.3005
 20
-54.7969
 11
-30.685
 21
-55.1035
  0
LINE
  8
0
 10
-30.685
 20
-55.1035
 11
-31.1428
 21
-55.2832
  0
LINE
  8
0
 10
-31.1428
 20
-55.2832
 11
-31.6333
 21
-55.32
  0
LINE
  8
0
 10
-31.6333
 20
-55.32
 11
-32.1128
 21
-55.2105
  0
LINE
  8
0
 10
-32.1128
 20
-55.2105
 11
-32.5388
 21
-54.9646
  0
LINE
  8
0
 10
-32.5388
 20
-54.9646
 11
-32.8733
 21
-54.6041
  0
LINE
  8
0
 10
-32.8733
 20
-54.6041
 11
-33.0867
 21
-54.1609
  0
LINE
  8
0
 10
-33.0867
 20
-54.1609
 11
-33.16
 21
-53.6746
  0
LINE
  8
0
 10
-33.16
 20
-39.0254
 11
-33.0867
 21
-38.5391
  0
LINE
  8
0
 10
-33.0867
 20
-38.5391
 11
-32.8733
 21
-38.0959
  0
LINE
  8
0
 10
-32.8733
 20
-38.0959
 11
-32.5388
 21
-37.7354
  0
LINE
  8
0
 10
-32.5388
 20
-37.7354
 11
-32.1128
 21
-37.4895
  0
LINE
  8
0
 10
-32.1128
 20
-37.4895
 11
-31.6333
 21
-37.38
  0
LINE
  8
0
 10
-31.6333
 20
-37.38
 11
-31.1428
 21
-37.4168
  0
LINE
  8
0
 10
-31.1428
 20
-37.4168
 11
-30.685
 21
-37.5965
  0
LINE
  8
0
 10
-30.685
 20
-37.5965
 11
-30.3005
 21
-37.9031
  0
LINE
  8
0
 10
-30.3005
 20
-37.9031
 11
-30.0234
 21
-38.3095
  0
LINE
  8
0
 10
-30.0234
 20
-38.3095
 11
-29.8784
 21
-38.7795
  0
LINE
  8
0
 10
-29.8784
 20
-38.7795
 11
-29.8784
 21
-39.2713
  0
LINE
  8
0
 10
-29.8784
 20
-39.2713
 11
-30.0234
 21
-39.7413
  0
LINE
  8
0
 10
-30.0234
 20
-39.7413
 11
-30.3005
 21
-40.1477
  0
LINE
  8
0
 10
-30.3005
 20
-40.1477
 11
-30.685
 21
-40.4544
  0
LINE
  8
0
 10
-30.685
 20
-40.4544
 11
-31.1428
 21
-40.634
  0
LINE
  8
0
 10
-31.1428
 20
-40.634
 11
-31.6333
 21
-40.6708
  0
LINE
  8
0
 10
-31.6333
 20
-40.6708
 11
-32.1128
 21
-40.5614
  0
LINE
  8
0
 10
-32.1128
 20
-40.5614
 11
-32.5388
 21
-40.3154
  0
LINE
  8
0
 10
-32.5388
 20
-40.3154
 11
-32.8733
 21
-39.9549
  0
LINE
  8
0
 10
-32.8733
 20
-39.9549
 11
-33.0867
 21
-39.5118
  0
LINE
  8
0
 10
-33.0867
 20
-39.5118
 11
-33.16
 21
-39.0254
  0
LINE
  8
0
 10
-33.1416
 20
45.9295
 11
-33.1416
 21
46.4213
  0
LINE
  8
0
 10
-33.1416
 20
46.4213
 11
-32.9966
 21
46.8913
  0
LINE
  8
0
 10
-32.9966
 20
46.8913
 11
-32.7195
 21
47.2977
  0
LINE
  8
0
 10
-32.7195
 20
47.2977
 11
-32.335
 21
47.6044
  0
LINE
  8
0
 10
-32.335
 20
47.6044
 11
-31.8772
 21
47.784
  0
LINE
  8
0
 10
-31.8772
 20
47.784
 11
-31.3867
 21
47.8208
  0
LINE
  8
0
 10
-31.3867
 20
47.8208
 11
-30.9072
 21
47.7114
  0
LINE
  8
0
 10
-30.9072
 20
47.7114
 11
-30.4812
 21
47.4654
  0
LINE
  8
0
 10
-30.4812
 20
47.4654
 11
-30.1467
 21
47.1049
  0
LINE
  8
0
 10
-30.1467
 20
47.1049
 11
-29.9333
 21
46.6618
  0
LINE
  8
0
 10
-29.9333
 20
46.6618
 11
-29.86
 21
46.1754
  0
LINE
  8
0
 10
-29.86
 20
46.1754
 11
-29.9333
 21
45.6891
  0
LINE
  8
0
 10
-29.9333
 20
45.6891
 11
-30.1467
 21
45.2459
  0
LINE
  8
0
 10
-30.1467
 20
45.2459
 11
-30.4812
 21
44.8854
  0
LINE
  8
0
 10
-30.4812
 20
44.8854
 11
-30.9072
 21
44.6395
  0
LINE
  8
0
 10
-30.9072
 20
44.6395
 11
-31.3867
 21
44.53
  0
LINE
  8
0
 10
-31.3867
 20
44.53
 11
-31.8772
 21
44.5668
  0
LINE
  8
0
 10
-31.8772
 20
44.5668
 11
-32.335
 21
44.7465
  0
LINE
  8
0
 10
-32.335
 20
44.7465
 11
-32.7195
 21
45.0531
  0
LINE
  8
0
 10
-32.7195
 20
45.0531
 11
-32.9966
 21
45.4595
  0
LINE
  8
0
 10
-32.9966
 20
45.4595
 11
-33.1416
 21
45.9295
  0
LINE
  8
0
 10
-33.1416
 20
60.5787
 11
-33.1416
 21
61.0705
  0
LINE
  8
0
 10
-33.1416
 20
61.0705
 11
-32.9966
 21
61.5405
  0
LINE
  8
0
 10
-32.9966
 20
61.5405
 11
-32.7195
 21
61.9469
  0
LINE
  8
0
 10
-32.7195
 20
61.9469
 11
-32.335
 21
62.2535
  0
LINE
  8
0
 10
-32.335
 20
62.2535
 11
-31.8772
 21
62.4332
  0
LINE
  8
0
 10
-31.8772
 20
62.4332
 11
-31.3867
 21
62.47
  0
LINE
  8
0
 10
-31.3867
 20
62.47
 11
-30.9072
 21
62.3605
  0
LINE
  8
0
 10
-30.9072
 20
62.3605
 11
-30.4812
 21
62.1146
  0
LINE
  8
0
 10
-30.4812
 20
62.1146
 11
-30.1467
 21
61.7541
  0
LINE
  8
0
 10
-30.1467
 20
61.7541
 11
-29.9333
 21
61.3109
  0
LINE
  8
0
 10
-29.9333
 20
61.3109
 11
-29.86
 21
60.8246
  0
LINE
  8
0
 10
-29.86
 20
60.8246
 11
-29.9333
 21
60.3382
  0
LINE
  8
0
 10
-29.9333
 20
60.3382
 11
-30.1467
 21
59.8951
  0
LINE
  8
0
 10
-30.1467
 20
59.8951
 11
-30.4812
 21
59.5346
  0
LINE
  8
0
 10
-30.4812
 20
59.5346
 11
-30.9072
 21
59.2886
  0
LINE
  8
0
 10
-30.9072
 20
59.2886
 11
-31.3867
 21
59.1792
  0
LINE
  8
0
 10
-31.3867
 20
59.1792
 11
-31.8772
 21
59.216
  0
LINE
  8
0
 10
-31.8772
 20
59.216
 11
-32.335
 21
59.3956
  0
LINE
  8
0
 10
-32.335
 20
59.3956
 11
-32.7195
 21
59.7023
  0
LINE
  8
0
 10
-32.7195
 20
59.7023
 11
-32.9966
 21
60.1087
  0
LINE
  8
0
 10
-32.9966
 20
60.1087
 11
-33.1416
 21
60.5787
  0
LINE
  8
0
 10
-22.2916
 20
98.2541
 11
-22.2916
 21
98.7459
  0
LINE
  8
0
 10
-22.2916
 20
98.7459
 11
-22.1466
 21
99.2159
  0
LINE
  8
0
 10
-22.1466
 20
99.2159
 11
-21.8695
 21
99.6223
  0
LINE
  8
0
 10
-21.8695
 20
99.6223
 11
-21.485
 21
99.9289
  0
LINE
  8
0
 10
-21.485
 20
99.9289
 11
-21.0272
 21
100.109
  0
LINE
  8
0
 10
-21.0272
 20
100.109
 11
-20.5367
 21
100.145
  0
LINE
  8
0
 10
-20.5367
 20
100.145
 11
-20.0572
 21
100.036
  0
LINE
  8
0
 10
-20.0572
 20
100.036
 11
-19.6312
 21
99.79
  0
LINE
  8
0
 10
-19.6312
 20
99.79
 11
-19.2967
 21
99.4295
  0
LINE
  8
0
 10
-19.2967
 20
99.4295
 11
-19.0833
 21
98.9863
  0
LINE
  8
0
 10
-19.0833
 20
98.9863
 11
-19.01
 21
98.5
  0
LINE
  8
0
 10
-19.01
 20
98.5
 11
-19.0833
 21
98.0137
  0
LINE
  8
0
 10
-19.0833
 20
98.0137
 11
-19.2967
 21
97.5705
  0
LINE
  8
0
 10
-19.2967
 20
97.5705
 11
-19.6312
 21
97.21
  0
LINE
  8
0
 10
-19.6312
 20
97.21
 11
-20.0572
 21
96.9641
  0
LINE
  8
0
 10
-20.0572
 20
96.9641
 11
-20.5367
 21
96.8546
  0
LINE
  8
0
 10
-20.5367
 20
96.8546
 11
-21.0272
 21
96.8914
  0
LINE
  8
0
 10
-21.0272
 20
96.8914
 11
-21.485
 21
97.0711
  0
LINE
  8
0
 10
-21.485
 20
97.0711
 11
-21.8695
 21
97.3777
  0
LINE
  8
0
 10
-21.8695
 20
97.3777
 11
-22.1466
 21
97.7841
  0
LINE
  8
0
 10
-22.1466
 20
97.7841
 11
-22.2916
 21
98.2541
  0
LINE
  8
0
 10
19.0284
 20
98.2541
 11
19.0284
 21
98.7459
  0
LINE
  8
0
 10
19.0284
 20
98.7459
 11
19.1734
 21
99.2159
  0
LINE
  8
0
 10
19.1734
 20
99.2159
 11
19.4505
 21
99.6223
  0
LINE
  8
0
 10
19.4505
 20
99.6223
 11
19.835
 21
99.9289
  0
LINE
  8
0
 10
19.835
 20
99.9289
 11
20.2928
 21
100.109
  0
LINE
  8
0
 10
20.2928
 20
100.109
 11
20.7833
 21
100.145
  0
LINE
  8
0
 10
20.7833
 20
100.145
 11
21.2628
 21
100.036
  0
LINE
  8
0
 10
21.2628
 20
100.036
 11
21.6888
 21
99.79
  0
LINE
  8
0
 10
21.6888
 20
99.79
 11
22.0233
 21
99.4295
  0
LINE
  8
0
 10
22.0233
 20
99.4295
 11
22.2367
 21
98.9863
  0
LINE
  8
0
 10
22.2367
 20
98.9863
 11
22.31
 21
98.5
  0
LINE
  8
0
 10
22.31
 20
98.5
 11
22.2367
 21
98.0137
  0
LINE
  8
0
 10
22.2367
 20
98.0137
 11
22.0233
 21
97.5705
  0
LINE
  8
0
 10
22.0233
 20
97.5705
 11
21.6888
 21
97.21
  0
LINE
  8
0
 10
21.6888
 20
97.21
 11
21.2628
 21
96.9641
  0
LINE
  8
0
 10
21.2628
 20
96.9641
 11
20.7833
 21
96.8546
  0
LINE
  8
0
 10
20.7833
 20
96.8546
 11
20.2928
 21
96.8914
  0
LINE
  8
0
 10
20.2928
 20
96.8914
 11
19.835
 21
97.0711
  0
LINE
  8
0
 10
19.835
 20
97.0711
 11
19.4505
 21
97.3777
  0
LINE
  8
0
 10
19.4505
 20
97.3777
 11
19.1734
 21
97.7841
  0
LINE
  8
0
 10
19.1734
 20
97.7841
 11
19.0284
 21
98.2541
  0
LINE
  8
0
 10
73.15
 20
-10
 11
73.2233
 21
-9.51365
  0
LINE
  8
0
 10
73.2233
 20
-9.51365
 11
73.4367
 21
-9.07052
  0
LINE
  8
0
 10
73.4367
 20
-9.07052
 11
73.7712
 21
-8.70998
  0
LINE
  8
0
 10
73.7712
 20
-8.70998
 11
74.1972
 21
-8.46406
  0
LINE
  8
0
 10
74.1972
 20
-8.46406
 11
74.6767
 21
-8.35461
  0
LINE
  8
0
 10
74.6767
 20
-8.35461
 11
75.1672
 21
-8.39137
  0
LINE
  8
0
 10
75.1672
 20
-8.39137
 11
75.625
 21
-8.57106
  0
LINE
  8
0
 10
75.625
 20
-8.57106
 11
76.0095
 21
-8.87771
  0
LINE
  8
0
 10
76.0095
 20
-8.87771
 11
76.2866
 21
-9.28409
  0
LINE
  8
0
 10
76.2866
 20
-9.28409
 11
76.4316
 21
-9.75408
  0
LINE
  8
0
 10
76.4316
 20
-9.75408
 11
76.4316
 21
-10.2459
  0
LINE
  8
0
 10
76.4316
 20
-10.2459
 11
76.2866
 21
-10.7159
  0
LINE
  8
0
 10
76.2866
 20
-10.7159
 11
76.0095
 21
-11.1223
  0
LINE
  8
0
 10
76.0095
 20
-11.1223
 11
75.625
 21
-11.4289
  0
LINE
  8
0
 10
75.625
 20
-11.4289
 11
75.1672
 21
-11.6086
  0
LINE
  8
0
 10
75.1672
 20
-11.6086
 11
74.6767
 21
-11.6454
  0
LINE
  8
0
 10
74.6767
 20
-11.6454
 11
74.1972
 21
-11.5359
  0
LINE
  8
0
 10
74.1972
 20
-11.5359
 11
73.7712
 21
-11.29
  0
LINE
  8
0
 10
73.7712
 20
-11.29
 11
73.4367
 21
-10.9295
  0
LINE
  8
0
 10
73.4367
 20
-10.9295
 11
73.2233
 21
-10.4863
  0
LINE
  8
0
 10
73.2233
 20
-10.4863
 11
73.15
 21
-10
  0
LINE
  8
0
 10
100.55
 20
10
 11
100.623
 21
10.4863
  0
LINE
  8
0
 10
100.623
 20
10.4863
 11
100.837
 21
10.9295
  0
LINE
  8
0
 10
100.837
 20
10.9295
 11
101.171
 21
11.29
  0
LINE
  8
0
 10
101.171
 20
11.29
 11
101.597
 21
11.5359
  0
LINE
  8
0
 10
101.597
 20
11.5359
 11
102.077
 21
11.6454
  0
LINE
  8
0
 10
102.077
 20
11.6454
 11
102.567
 21
11.6086
  0
LINE
  8
0
 10
102.567
 20
11.6086
 11
103.025
 21
11.4289
  0
LINE
  8
0
 10
103.025
 20
11.4289
 11
103.41
 21
11.1223
  0
LINE
  8
0
 10
103.41
 20
11.1223
 11
103.687
 21
10.7159
  0
LINE
  8
0
 10
103.687
 20
10.7159
 11
103.832
 21
10.2459
  0
LINE
  8
0
 10
103.832
 20
10.2459
 11
103.832
 21
9.75408
  0
LINE
  8
0
 10
103.832
 20
9.75408
 11
103.687
 21
9.28409
  0
LINE
  8
0
 10
103.687
 20
9.28409
 11
103.41
 21
8.87771
  0
LINE
  8
0
 10
103.41
 20
8.87771
 11
103.025
 21
8.57106
  0
LINE
  8
0
 10
103.025
 20
8.57106
 11
102.567
 21
8.39137
  0
LINE
  8
0
 10
102.567
 20
8.39137
 11
102.077
 21
8.35461
  0
LINE
  8
0
 10
102.077
 20
8.35461
 11
101.597
 21
8.46406
  0
LINE
  8
0
 10
101.597
 20
8.46406
 11
101.171
 21
8.70998
  0
LINE
  8
0
 10
101.171
 20
8.70998
 11
100.837
 21
9.07052
  0
LINE
  8
0
 10
100.837
 20
9.07052
 11
100.623
 21
9.51365
  0
LINE
  8
0
 10
100.623
 20
9.51365
 11
100.55
 21
10
  0
LINE
  8
0
 10
103.25
 20
-104.5
 11
103.345
 21
-104.022
  0
LINE
  8
0
 10
103.345
 20
-104.022
 11
103.616
 21
-103.616
  0
LINE
  8
0
 10
103.616
 20
-103.616
 11
104.022
 21
-103.345
  0
LINE
  8
0
 10
104.022
 20
-103.345
 11
104.5
 21
-103.25
  0
LINE
  8
0
 10
104.5
 20
-103.25
 11
104.978
 21
-103.345
  0
LINE
  8
0
 10
104.978
 20
-103.345
 11
105.384
 21
-103.616
  0
LINE
  8
0
 10
105.384
 20
-103.616
 11
105.655
 21
-104.022
  0
LINE
  8
0
 10
105.655
 20
-104.022
 11
105.75
 21
-104.5
  0
LINE
  8
0
 10
105.75
 20
-104.5
 11
105.655
 21
-104.978
  0
LINE
  8
0
 10
105.655
 20
-104.978
 11
105.384
 21
-105.384
  0
LINE
  8
0
 10
105.384
 20
-105.384
 11
104.978
 21
-105.655
  0
LINE
  8
0
 10
104.978
 20
-105.655
 11
104.5
 21
-105.75
  0
LINE
  8
0
 10
104.5
 20
-105.75
 11
104.022
 21
-105.655
  0
LINE
  8
0
 10
104.022
 20
-105.655
 11
103.616
 21
-105.384
  0
LINE
  8
0
 10
103.616
 20
-105.384
 11
103.345
 21
-104.978
  0
LINE
  8
0
 10
103.345
 20
-104.978
 11
103.25
 21
-104.5
  0
LINE
  8
0
 10
103.25
 20
104.5
 11
103.345
 21
104.978
  0
LINE
  8
0
 10
103.345
 20
104.978
 11
103.616
 21
105.384
  0
LINE
  8
0
 10
103.616
 20
105.384
 11
104.022
 21
105.655
  0
LINE
  8
0
 10
104.022
 20
105.655
 11
104.5
 21
105.75
  0
LINE
  8
0
 10
104.5
 20
105.75
 11
104.978
 21
105.655
  0
LINE
  8
0
 10
104.978
 20
105.655
 11
105.384
 21
105.384
  0
LINE
  8
0
 10
105.384
 20
105.384
 11
105.655
 21
104.978
  0
LINE
  8
0
 10
105.655
 20
104.978
 11
105.75
 21
104.5
  0
LINE
  8
0
 10
105.75
 20
104.5
 11
105.655
 21
104.022
  0
LINE
  8
0
 10
105.655
 20
104.022
 11
105.384
 21
103.616
  0
LINE
  8
0
 10
105.384
 20
103.616
 11
104.978
 21
103.345
  0
LINE
  8
0
 10
104.978
 20
103.345
 11
104.5
 21
103.25
  0
LINE
  8
0
 10
104.5
 20
103.25
 11
104.022
 21
103.345
  0
LINE
  8
0
 10
104.022
 20
103.345
 11
103.616
 21
103.616
  0
LINE
  8
0
 10
103.616
 20
103.616
 11
103.345
 21
104.022
  0
LINE
  8
0
 10
103.345
 20
104.022
 11
103.25
 21
104.5
  0
ENDSEC
  0
SECTION
  2
OBJECTS
  0
DICTIONARY
  0
ENDSEC
  0
EOF
