<?xml version="1.0"?>
<svg xmlns="http://www.w3.org/2000/svg" version="1.1" height="227mm" width="227mm" >
 <g style="fill-opacity:1.0; stroke:black; stroke-width:1;">
  <line x1="0.041000mm" y1="2.506000mm" x2="0.041000mm" y2="2.506000mm" />
  <line x1="0.041000mm" y1="2.506000mm" x2="0.000000mm" y2="3.000000mm" />
  <line x1="0.000000mm" y1="3.000000mm" x2="0.010000mm" y2="214.248000mm" />
  <line x1="0.010000mm" y1="214.248000mm" x2="0.092000mm" y2="214.736000mm" />
  <line x1="0.092000mm" y1="214.736000mm" x2="0.253000mm" y2="215.205000mm" />
  <line x1="0.253000mm" y1="215.205000mm" x2="0.489000mm" y2="215.641000mm" />
  <line x1="0.489000mm" y1="215.641000mm" x2="0.793000mm" y2="216.032000mm" />
  <line x1="0.793000mm" y1="216.032000mm" x2="1.157000mm" y2="216.367000mm" />
  <line x1="1.157000mm" y1="216.367000mm" x2="1.572000mm" y2="216.638000mm" />
  <line x1="1.572000mm" y1="216.638000mm" x2="2.026000mm" y2="216.837000mm" />
  <line x1="2.026000mm" y1="216.837000mm" x2="2.506000mm" y2="216.959000mm" />
  <line x1="2.506000mm" y1="216.959000mm" x2="3.000000mm" y2="217.000000mm" />
  <line x1="3.000000mm" y1="217.000000mm" x2="214.248000mm" y2="216.990000mm" />
  <line x1="214.248000mm" y1="216.990000mm" x2="214.736000mm" y2="216.908000mm" />
  <line x1="214.736000mm" y1="216.908000mm" x2="215.205000mm" y2="216.747000mm" />
  <line x1="215.205000mm" y1="216.747000mm" x2="215.641000mm" y2="216.511000mm" />
  <line x1="215.641000mm" y1="216.511000mm" x2="216.032000mm" y2="216.207000mm" />
  <line x1="216.032000mm" y1="216.207000mm" x2="216.367000mm" y2="215.843000mm" />
  <line x1="216.367000mm" y1="215.843000mm" x2="216.638000mm" y2="215.428000mm" />
  <line x1="216.638000mm" y1="215.428000mm" x2="216.837000mm" y2="214.974000mm" />
  <line x1="216.837000mm" y1="214.974000mm" x2="216.959000mm" y2="214.494000mm" />
  <line x1="216.959000mm" y1="214.494000mm" x2="217.000000mm" y2="214.000000mm" />
  <line x1="217.000000mm" y1="214.000000mm" x2="216.990000mm" y2="2.752000mm" />
  <line x1="216.990000mm" y1="2.752000mm" x2="216.908000mm" y2="2.264000mm" />
  <line x1="216.908000mm" y1="2.264000mm" x2="216.747000mm" y2="1.795000mm" />
  <line x1="216.747000mm" y1="1.795000mm" x2="216.511000mm" y2="1.359000mm" />
  <line x1="216.511000mm" y1="1.359000mm" x2="216.207000mm" y2="0.968000mm" />
  <line x1="216.207000mm" y1="0.968000mm" x2="215.843000mm" y2="0.633000mm" />
  <line x1="215.843000mm" y1="0.633000mm" x2="215.428000mm" y2="0.362000mm" />
  <line x1="215.428000mm" y1="0.362000mm" x2="214.974000mm" y2="0.163000mm" />
  <line x1="214.974000mm" y1="0.163000mm" x2="214.494000mm" y2="0.041000mm" />
  <line x1="214.494000mm" y1="0.041000mm" x2="214.000000mm" y2="0.000000mm" />
  <line x1="214.000000mm" y1="0.000000mm" x2="127.010000mm" y2="0.004000mm" />
  <line x1="127.010000mm" y1="0.004000mm" x2="127.010000mm" y2="5.000000mm" />
  <line x1="127.010000mm" y1="5.000000mm" x2="89.990000mm" y2="5.000000mm" />
  <line x1="89.990000mm" y1="5.000000mm" x2="89.990000mm" y2="0.006000mm" />
  <line x1="89.990000mm" y1="0.006000mm" x2="2.752000mm" y2="0.010000mm" />
  <line x1="2.752000mm" y1="0.010000mm" x2="2.264000mm" y2="0.092000mm" />
  <line x1="2.264000mm" y1="0.092000mm" x2="1.795000mm" y2="0.253000mm" />
  <line x1="1.795000mm" y1="0.253000mm" x2="1.359000mm" y2="0.489000mm" />
  <line x1="1.359000mm" y1="0.489000mm" x2="0.968000mm" y2="0.793000mm" />
  <line x1="0.968000mm" y1="0.793000mm" x2="0.633000mm" y2="1.157000mm" />
  <line x1="0.633000mm" y1="1.157000mm" x2="0.362000mm" y2="1.572000mm" />
  <line x1="0.362000mm" y1="1.572000mm" x2="0.163000mm" y2="2.026000mm" />
  <line x1="0.163000mm" y1="2.026000mm" x2="0.041000mm" y2="2.506000mm" />
  <circle cx="4.000087mm" cy="213.000061mm" r="1.250061mm" fill="none"/>
  <line x1="6.500208mm" y1="213.000061mm" x2="1.499966mm" y2="213.000061mm" />
  <line x1="4.000087mm" y1="210.499939mm" x2="4.000087mm" y2="215.500182mm" />
  <text x="5mm" y="211mm" font-size="24">
   2.5
  </text>
  <circle cx="4.000087mm" cy="4.000061mm" r="1.250061mm" fill="none"/>
  <line x1="6.500208mm" y1="4.000061mm" x2="1.499966mm" y2="4.000061mm" />
  <line x1="4.000087mm" y1="1.499939mm" x2="4.000087mm" y2="6.500182mm" />
  <text x="5mm" y="2mm" font-size="24">
   2.5
  </text>
  <circle cx="6.299985mm" cy="198.000256mm" r="1.650188mm" fill="none"/>
  <line x1="9.600360mm" y1="198.000256mm" x2="2.999610mm" y2="198.000256mm" />
  <line x1="6.299985mm" y1="194.699881mm" x2="6.299985mm" y2="201.300632mm" />
  <text x="7mm" y="196mm" font-size="24">
   3.3
  </text>
  <circle cx="6.299985mm" cy="39.000256mm" r="1.650188mm" fill="none"/>
  <line x1="9.600360mm" y1="39.000256mm" x2="2.999610mm" y2="39.000256mm" />
  <line x1="6.299985mm" y1="35.699881mm" x2="6.299985mm" y2="42.300632mm" />
  <text x="7mm" y="37mm" font-size="24">
   3.3
  </text>
  <circle cx="33.699995mm" cy="178.000005mm" r="1.649985mm" fill="none"/>
  <line x1="36.999964mm" y1="178.000005mm" x2="30.400025mm" y2="178.000005mm" />
  <line x1="33.699995mm" y1="174.700036mm" x2="33.699995mm" y2="181.299974mm" />
  <text x="35mm" y="176mm" font-size="24">
   3.3
  </text>
  <circle cx="33.699995mm" cy="19.000005mm" r="1.649985mm" fill="none"/>
  <line x1="36.999964mm" y1="19.000005mm" x2="30.400025mm" y2="19.000005mm" />
  <line x1="33.699995mm" y1="15.700036mm" x2="33.699995mm" y2="22.299974mm" />
  <text x="35mm" y="17mm" font-size="24">
   3.3
  </text>
  <circle cx="76.989995mm" cy="162.174605mm" r="1.649985mm" fill="none"/>
  <line x1="80.289964mm" y1="162.174605mm" x2="73.690025mm" y2="162.174605mm" />
  <line x1="76.989995mm" y1="158.874636mm" x2="76.989995mm" y2="165.474574mm" />
  <text x="78mm" y="160mm" font-size="24">
   3.3
  </text>
  <circle cx="76.989976mm" cy="147.525411mm" r="1.649994mm" fill="none"/>
  <line x1="80.289965mm" y1="147.525411mm" x2="73.689987mm" y2="147.525411mm" />
  <line x1="76.989976mm" y1="144.225422mm" x2="76.989976mm" y2="150.825400mm" />
  <text x="78mm" y="145mm" font-size="24">
   3.3
  </text>
  <circle cx="76.990012mm" cy="62.324597mm" r="1.650009mm" fill="none"/>
  <line x1="80.290030mm" y1="62.324597mm" x2="73.689993mm" y2="62.324597mm" />
  <line x1="76.990012mm" y1="59.024578mm" x2="76.990012mm" y2="65.624616mm" />
  <text x="78mm" y="60mm" font-size="24">
   3.3
  </text>
  <circle cx="76.990012mm" cy="47.675397mm" r="1.650009mm" fill="none"/>
  <line x1="80.290030mm" y1="47.675397mm" x2="73.689993mm" y2="47.675397mm" />
  <line x1="76.990012mm" y1="44.375378mm" x2="76.990012mm" y2="50.975416mm" />
  <text x="78mm" y="46mm" font-size="24">
   3.3
  </text>
  <circle cx="87.839992mm" cy="10.000262mm" r="1.649877mm" fill="none"/>
  <line x1="91.139745mm" y1="10.000262mm" x2="84.540239mm" y2="10.000262mm" />
  <line x1="87.839992mm" y1="6.700509mm" x2="87.839992mm" y2="13.300015mm" />
  <text x="89mm" y="8mm" font-size="24">
   3.3
  </text>
  <circle cx="129.159992mm" cy="10.000262mm" r="1.649877mm" fill="none"/>
  <line x1="132.459745mm" y1="10.000262mm" x2="125.860239mm" y2="10.000262mm" />
  <line x1="129.159992mm" y1="6.700509mm" x2="129.159992mm" y2="13.300015mm" />
  <text x="130mm" y="8mm" font-size="24">
   3.3
  </text>
  <circle cx="183.299999mm" cy="118.499986mm" r="1.649994mm" fill="none"/>
  <line x1="186.599988mm" y1="118.499986mm" x2="180.000010mm" y2="118.499986mm" />
  <line x1="183.299999mm" y1="115.199997mm" x2="183.299999mm" y2="121.799975mm" />
  <text x="184mm" y="116mm" font-size="24">
   3.3
  </text>
  <circle cx="210.699972mm" cy="98.500256mm" r="1.650190mm" fill="none"/>
  <line x1="214.000352mm" y1="98.500256mm" x2="207.399592mm" y2="98.500256mm" />
  <line x1="210.699972mm" y1="95.199876mm" x2="210.699972mm" y2="101.800637mm" />
  <text x="212mm" y="96mm" font-size="24">
   3.3
  </text>
  <circle cx="213.000087mm" cy="213.000061mm" r="1.250061mm" fill="none"/>
  <line x1="215.500208mm" y1="213.000061mm" x2="210.499966mm" y2="213.000061mm" />
  <line x1="213.000087mm" y1="210.499939mm" x2="213.000087mm" y2="215.500182mm" />
  <text x="214mm" y="211mm" font-size="24">
   2.5
  </text>
  <circle cx="213.000087mm" cy="4.000061mm" r="1.250061mm" fill="none"/>
  <line x1="215.500208mm" y1="4.000061mm" x2="210.499966mm" y2="4.000061mm" />
  <line x1="213.000087mm" y1="1.499939mm" x2="213.000087mm" y2="6.500182mm" />
  <text x="214mm" y="2mm" font-size="24">
   2.5
  </text>
 </g>
</svg>
