<?xml version="1.0"?>
<svg xmlns="http://www.w3.org/2000/svg" version="1.1" height="227mm" width="227mm" >
 <g style="fill-opacity:1.0; stroke:black; stroke-width:1;">
  <line x1="0.041000mm" y1="2.506000mm" x2="0.041000mm" y2="2.506000mm" />
  <line x1="0.041000mm" y1="2.506000mm" x2="0.000000mm" y2="3.000000mm" />
  <line x1="0.000000mm" y1="3.000000mm" x2="0.010000mm" y2="214.248000mm" />
  <line x1="0.010000mm" y1="214.248000mm" x2="0.092000mm" y2="214.736000mm" />
  <line x1="0.092000mm" y1="214.736000mm" x2="0.253000mm" y2="215.205000mm" />
  <line x1="0.253000mm" y1="215.205000mm" x2="0.489000mm" y2="215.641000mm" />
  <line x1="0.489000mm" y1="215.641000mm" x2="0.793000mm" y2="216.032000mm" />
  <line x1="0.793000mm" y1="216.032000mm" x2="1.157000mm" y2="216.367000mm" />
  <line x1="1.157000mm" y1="216.367000mm" x2="1.572000mm" y2="216.638000mm" />
  <line x1="1.572000mm" y1="216.638000mm" x2="2.026000mm" y2="216.837000mm" />
  <line x1="2.026000mm" y1="216.837000mm" x2="2.506000mm" y2="216.959000mm" />
  <line x1="2.506000mm" y1="216.959000mm" x2="3.000000mm" y2="217.000000mm" />
  <line x1="3.000000mm" y1="217.000000mm" x2="214.248000mm" y2="216.990000mm" />
  <line x1="214.248000mm" y1="216.990000mm" x2="214.736000mm" y2="216.908000mm" />
  <line x1="214.736000mm" y1="216.908000mm" x2="215.205000mm" y2="216.747000mm" />
  <line x1="215.205000mm" y1="216.747000mm" x2="215.641000mm" y2="216.511000mm" />
  <line x1="215.641000mm" y1="216.511000mm" x2="216.032000mm" y2="216.207000mm" />
  <line x1="216.032000mm" y1="216.207000mm" x2="216.367000mm" y2="215.843000mm" />
  <line x1="216.367000mm" y1="215.843000mm" x2="216.638000mm" y2="215.428000mm" />
  <line x1="216.638000mm" y1="215.428000mm" x2="216.837000mm" y2="214.974000mm" />
  <line x1="216.837000mm" y1="214.974000mm" x2="216.959000mm" y2="214.494000mm" />
  <line x1="216.959000mm" y1="214.494000mm" x2="217.000000mm" y2="214.000000mm" />
  <line x1="217.000000mm" y1="214.000000mm" x2="216.990000mm" y2="2.752000mm" />
  <line x1="216.990000mm" y1="2.752000mm" x2="216.908000mm" y2="2.264000mm" />
  <line x1="216.908000mm" y1="2.264000mm" x2="216.747000mm" y2="1.795000mm" />
  <line x1="216.747000mm" y1="1.795000mm" x2="216.511000mm" y2="1.359000mm" />
  <line x1="216.511000mm" y1="1.359000mm" x2="216.207000mm" y2="0.968000mm" />
  <line x1="216.207000mm" y1="0.968000mm" x2="215.843000mm" y2="0.633000mm" />
  <line x1="215.843000mm" y1="0.633000mm" x2="215.428000mm" y2="0.362000mm" />
  <line x1="215.428000mm" y1="0.362000mm" x2="214.974000mm" y2="0.163000mm" />
  <line x1="214.974000mm" y1="0.163000mm" x2="214.494000mm" y2="0.041000mm" />
  <line x1="214.494000mm" y1="0.041000mm" x2="214.000000mm" y2="0.000000mm" />
  <line x1="214.000000mm" y1="0.000000mm" x2="127.010000mm" y2="0.004000mm" />
  <line x1="127.010000mm" y1="0.004000mm" x2="127.010000mm" y2="4.700000mm" />
  <line x1="127.010000mm" y1="4.700000mm" x2="89.990000mm" y2="4.700000mm" />
  <line x1="89.990000mm" y1="4.700000mm" x2="89.990000mm" y2="0.006000mm" />
  <line x1="89.990000mm" y1="0.006000mm" x2="2.752000mm" y2="0.010000mm" />
  <line x1="2.752000mm" y1="0.010000mm" x2="2.264000mm" y2="0.092000mm" />
  <line x1="2.264000mm" y1="0.092000mm" x2="1.795000mm" y2="0.253000mm" />
  <line x1="1.795000mm" y1="0.253000mm" x2="1.359000mm" y2="0.489000mm" />
  <line x1="1.359000mm" y1="0.489000mm" x2="0.968000mm" y2="0.793000mm" />
  <line x1="0.968000mm" y1="0.793000mm" x2="0.633000mm" y2="1.157000mm" />
  <line x1="0.633000mm" y1="1.157000mm" x2="0.362000mm" y2="1.572000mm" />
  <line x1="0.362000mm" y1="1.572000mm" x2="0.163000mm" y2="2.026000mm" />
  <line x1="0.163000mm" y1="2.026000mm" x2="0.041000mm" y2="2.506000mm" />
  <circle cx="4.000087mm" cy="213.000061mm" r="1.250061mm" fill="none"/>
  <line x1="6.500208mm" y1="213.000061mm" x2="1.499966mm" y2="213.000061mm" />
  <line x1="4.000087mm" y1="210.499939mm" x2="4.000087mm" y2="215.500182mm" />
  <text x="5mm" y="211mm" font-size="24">
   2.5
  </text>
  <circle cx="4.000087mm" cy="4.000061mm" r="1.250061mm" fill="none"/>
  <line x1="6.500208mm" y1="4.000061mm" x2="1.499966mm" y2="4.000061mm" />
  <line x1="4.000087mm" y1="1.499939mm" x2="4.000087mm" y2="6.500182mm" />
  <text x="5mm" y="2mm" font-size="24">
   2.5
  </text>
  <circle cx="5.499985mm" cy="197.500256mm" r="1.650188mm" fill="none"/>
  <line x1="8.800360mm" y1="197.500256mm" x2="2.199610mm" y2="197.500256mm" />
  <line x1="5.499985mm" y1="194.199881mm" x2="5.499985mm" y2="200.800632mm" />
  <text x="7mm" y="195mm" font-size="24">
   3.3
  </text>
  <circle cx="5.499985mm" cy="45.500256mm" r="1.650188mm" fill="none"/>
  <line x1="8.800360mm" y1="45.500256mm" x2="2.199610mm" y2="45.500256mm" />
  <line x1="5.499985mm" y1="42.199881mm" x2="5.499985mm" y2="48.800632mm" />
  <text x="7mm" y="43mm" font-size="24">
   3.3
  </text>
  <circle cx="40.499995mm" cy="171.500005mm" r="1.649985mm" fill="none"/>
  <line x1="43.799964mm" y1="171.500005mm" x2="37.200025mm" y2="171.500005mm" />
  <line x1="40.499995mm" y1="168.200036mm" x2="40.499995mm" y2="174.799974mm" />
  <text x="42mm" y="169mm" font-size="24">
   3.3
  </text>
  <circle cx="40.499995mm" cy="19.500005mm" r="1.649985mm" fill="none"/>
  <line x1="43.799964mm" y1="19.500005mm" x2="37.200025mm" y2="19.500005mm" />
  <line x1="40.499995mm" y1="16.200036mm" x2="40.499995mm" y2="22.799974mm" />
  <text x="42mm" y="17mm" font-size="24">
   3.3
  </text>
  <circle cx="76.989995mm" cy="162.174605mm" r="1.649985mm" fill="none"/>
  <line x1="80.289964mm" y1="162.174605mm" x2="73.690025mm" y2="162.174605mm" />
  <line x1="76.989995mm" y1="158.874636mm" x2="76.989995mm" y2="165.474574mm" />
  <text x="78mm" y="160mm" font-size="24">
   3.3
  </text>
  <circle cx="76.989976mm" cy="147.525411mm" r="1.649994mm" fill="none"/>
  <line x1="80.289965mm" y1="147.525411mm" x2="73.689987mm" y2="147.525411mm" />
  <line x1="76.989976mm" y1="144.225422mm" x2="76.989976mm" y2="150.825400mm" />
  <text x="78mm" y="145mm" font-size="24">
   3.3
  </text>
  <circle cx="76.990012mm" cy="72.324597mm" r="1.650009mm" fill="none"/>
  <line x1="80.290030mm" y1="72.324597mm" x2="73.689993mm" y2="72.324597mm" />
  <line x1="76.990012mm" y1="69.024578mm" x2="76.990012mm" y2="75.624616mm" />
  <text x="78mm" y="70mm" font-size="24">
   3.3
  </text>
  <circle cx="76.990012mm" cy="57.675397mm" r="1.650009mm" fill="none"/>
  <line x1="80.290030mm" y1="57.675397mm" x2="73.689993mm" y2="57.675397mm" />
  <line x1="76.990012mm" y1="54.375378mm" x2="76.990012mm" y2="60.975416mm" />
  <text x="78mm" y="56mm" font-size="24">
   3.3
  </text>
  <circle cx="87.839992mm" cy="9.400262mm" r="1.649877mm" fill="none"/>
  <line x1="91.139745mm" y1="9.400262mm" x2="84.540239mm" y2="9.400262mm" />
  <line x1="87.839992mm" y1="6.100509mm" x2="87.839992mm" y2="12.700015mm" />
  <text x="89mm" y="7mm" font-size="24">
   3.3
  </text>
  <circle cx="129.159992mm" cy="9.400262mm" r="1.649877mm" fill="none"/>
  <line x1="132.459745mm" y1="9.400262mm" x2="125.860239mm" y2="9.400262mm" />
  <line x1="129.159992mm" y1="6.100509mm" x2="129.159992mm" y2="12.700015mm" />
  <text x="130mm" y="7mm" font-size="24">
   3.3
  </text>
  <circle cx="176.499995mm" cy="121.500005mm" r="1.649985mm" fill="none"/>
  <line x1="179.799964mm" y1="121.500005mm" x2="173.200025mm" y2="121.500005mm" />
  <line x1="176.499995mm" y1="118.200036mm" x2="176.499995mm" y2="124.799974mm" />
  <text x="178mm" y="119mm" font-size="24">
   3.3
  </text>
  <circle cx="211.499985mm" cy="95.500256mm" r="1.650188mm" fill="none"/>
  <line x1="214.800360mm" y1="95.500256mm" x2="208.199610mm" y2="95.500256mm" />
  <line x1="211.499985mm" y1="92.199881mm" x2="211.499985mm" y2="98.800632mm" />
  <text x="213mm" y="93mm" font-size="24">
   3.3
  </text>
  <circle cx="213.000087mm" cy="213.000061mm" r="1.250061mm" fill="none"/>
  <line x1="215.500208mm" y1="213.000061mm" x2="210.499966mm" y2="213.000061mm" />
  <line x1="213.000087mm" y1="210.499939mm" x2="213.000087mm" y2="215.500182mm" />
  <text x="214mm" y="211mm" font-size="24">
   2.5
  </text>
  <circle cx="213.000087mm" cy="4.000061mm" r="1.250061mm" fill="none"/>
  <line x1="215.500208mm" y1="4.000061mm" x2="210.499966mm" y2="4.000061mm" />
  <line x1="213.000087mm" y1="1.499939mm" x2="213.000087mm" y2="6.500182mm" />
  <text x="214mm" y="2mm" font-size="24">
   2.5
  </text>
 </g>
</svg>
