<?xml version="1.0"?>
<svg xmlns="http://www.w3.org/2000/svg" version="1.1" height="227mm" width="203mm" >
 <g style="fill-opacity:1.0; stroke:black; stroke-width:1;">
  <line x1="0.000000mm" y1="0.000000mm" x2="0.000000mm" y2="0.000000mm" />
  <line x1="0.000000mm" y1="0.000000mm" x2="0.000000mm" y2="217.000000mm" />
  <line x1="0.000000mm" y1="217.000000mm" x2="193.000000mm" y2="217.000000mm" />
  <line x1="193.000000mm" y1="217.000000mm" x2="193.000000mm" y2="0.000000mm" />
  <line x1="193.000000mm" y1="0.000000mm" x2="124.660000mm" y2="0.000000mm" />
  <line x1="124.660000mm" y1="0.000000mm" x2="124.660000mm" y2="35.000000mm" />
  <line x1="124.660000mm" y1="35.000000mm" x2="68.340000mm" y2="35.000000mm" />
  <line x1="68.340000mm" y1="35.000000mm" x2="68.340000mm" y2="0.000000mm" />
  <line x1="68.340000mm" y1="0.000000mm" x2="0.000000mm" y2="0.000000mm" />
  <line x1="26.700000mm" y1="183.000000mm" x2="26.700000mm" y2="183.000000mm" />
  <line x1="26.700000mm" y1="183.000000mm" x2="16.700000mm" y2="183.000000mm" />
  <line x1="16.700000mm" y1="183.000000mm" x2="16.700000mm" y2="173.000000mm" />
  <line x1="16.700000mm" y1="173.000000mm" x2="26.700000mm" y2="173.000000mm" />
  <line x1="26.700000mm" y1="173.000000mm" x2="26.700000mm" y2="183.000000mm" />
  <line x1="26.700000mm" y1="24.000000mm" x2="26.700000mm" y2="24.000000mm" />
  <line x1="26.700000mm" y1="24.000000mm" x2="16.700000mm" y2="24.000000mm" />
  <line x1="16.700000mm" y1="24.000000mm" x2="16.700000mm" y2="14.000000mm" />
  <line x1="16.700000mm" y1="14.000000mm" x2="26.700000mm" y2="14.000000mm" />
  <line x1="26.700000mm" y1="14.000000mm" x2="26.700000mm" y2="24.000000mm" />
  <line x1="69.990000mm" y1="167.174600mm" x2="69.990000mm" y2="167.174600mm" />
  <line x1="69.990000mm" y1="167.174600mm" x2="59.990000mm" y2="167.174600mm" />
  <line x1="59.990000mm" y1="167.174600mm" x2="59.990000mm" y2="142.525400mm" />
  <line x1="59.990000mm" y1="142.525400mm" x2="69.990000mm" y2="142.525400mm" />
  <line x1="69.990000mm" y1="142.525400mm" x2="69.990000mm" y2="167.174600mm" />
  <line x1="69.990000mm" y1="67.324600mm" x2="69.990000mm" y2="67.324600mm" />
  <line x1="69.990000mm" y1="67.324600mm" x2="59.990000mm" y2="67.324600mm" />
  <line x1="59.990000mm" y1="67.324600mm" x2="59.990000mm" y2="42.675400mm" />
  <line x1="59.990000mm" y1="42.675400mm" x2="69.990000mm" y2="42.675400mm" />
  <line x1="69.990000mm" y1="42.675400mm" x2="69.990000mm" y2="67.324600mm" />
  <line x1="176.300000mm" y1="123.500000mm" x2="176.300000mm" y2="123.500000mm" />
  <line x1="176.300000mm" y1="123.500000mm" x2="166.300000mm" y2="123.500000mm" />
  <line x1="166.300000mm" y1="123.500000mm" x2="166.300000mm" y2="113.500000mm" />
  <line x1="166.300000mm" y1="113.500000mm" x2="176.300000mm" y2="113.500000mm" />
  <line x1="176.300000mm" y1="113.500000mm" x2="176.300000mm" y2="123.500000mm" />
 </g>
</svg>
