<?xml version="1.0"?>
<svg xmlns="http://www.w3.org/2000/svg" version="1.1" height="227mm" width="203mm" >
 <g style="fill-opacity:1.0; stroke:black; stroke-width:1;">
  <line x1="0.000000mm" y1="0.000000mm" x2="0.000000mm" y2="0.000000mm" />
  <line x1="0.000000mm" y1="0.000000mm" x2="0.000000mm" y2="217.000000mm" />
  <line x1="0.000000mm" y1="217.000000mm" x2="193.000000mm" y2="217.000000mm" />
  <line x1="193.000000mm" y1="217.000000mm" x2="193.000000mm" y2="0.000000mm" />
  <line x1="193.000000mm" y1="0.000000mm" x2="124.360000mm" y2="0.000000mm" />
  <line x1="124.360000mm" y1="0.000000mm" x2="124.360000mm" y2="35.000000mm" />
  <line x1="124.360000mm" y1="35.000000mm" x2="68.640000mm" y2="35.000000mm" />
  <line x1="68.640000mm" y1="35.000000mm" x2="68.640000mm" y2="0.000000mm" />
  <line x1="68.640000mm" y1="0.000000mm" x2="0.000000mm" y2="0.000000mm" />
  <line x1="33.500000mm" y1="176.500000mm" x2="33.500000mm" y2="176.500000mm" />
  <line x1="33.500000mm" y1="176.500000mm" x2="23.500000mm" y2="176.500000mm" />
  <line x1="23.500000mm" y1="176.500000mm" x2="23.500000mm" y2="166.500000mm" />
  <line x1="23.500000mm" y1="166.500000mm" x2="33.500000mm" y2="166.500000mm" />
  <line x1="33.500000mm" y1="166.500000mm" x2="33.500000mm" y2="176.500000mm" />
  <line x1="33.500000mm" y1="24.500000mm" x2="33.500000mm" y2="24.500000mm" />
  <line x1="33.500000mm" y1="24.500000mm" x2="23.500000mm" y2="24.500000mm" />
  <line x1="23.500000mm" y1="24.500000mm" x2="23.500000mm" y2="14.500000mm" />
  <line x1="23.500000mm" y1="14.500000mm" x2="33.500000mm" y2="14.500000mm" />
  <line x1="33.500000mm" y1="14.500000mm" x2="33.500000mm" y2="24.500000mm" />
  <line x1="69.990000mm" y1="167.174600mm" x2="69.990000mm" y2="167.174600mm" />
  <line x1="69.990000mm" y1="167.174600mm" x2="59.990000mm" y2="167.174600mm" />
  <line x1="59.990000mm" y1="167.174600mm" x2="59.990000mm" y2="142.525400mm" />
  <line x1="59.990000mm" y1="142.525400mm" x2="69.990000mm" y2="142.525400mm" />
  <line x1="69.990000mm" y1="142.525400mm" x2="69.990000mm" y2="167.174600mm" />
  <line x1="69.990000mm" y1="77.324600mm" x2="69.990000mm" y2="77.324600mm" />
  <line x1="69.990000mm" y1="77.324600mm" x2="59.990000mm" y2="77.324600mm" />
  <line x1="59.990000mm" y1="77.324600mm" x2="59.990000mm" y2="52.675400mm" />
  <line x1="59.990000mm" y1="52.675400mm" x2="69.990000mm" y2="52.675400mm" />
  <line x1="69.990000mm" y1="52.675400mm" x2="69.990000mm" y2="77.324600mm" />
  <line x1="169.500000mm" y1="126.500000mm" x2="169.500000mm" y2="126.500000mm" />
  <line x1="169.500000mm" y1="126.500000mm" x2="159.500000mm" y2="126.500000mm" />
  <line x1="159.500000mm" y1="126.500000mm" x2="159.500000mm" y2="116.500000mm" />
  <line x1="159.500000mm" y1="116.500000mm" x2="169.500000mm" y2="116.500000mm" />
  <line x1="169.500000mm" y1="116.500000mm" x2="169.500000mm" y2="126.500000mm" />
 </g>
</svg>
