solid OpenSCAD_Model
  facet normal 0 1 0
    outer loop
      vertex -10.7477 9.63975 0
      vertex -10.7477 9.63975 7.6
      vertex 10.7477 9.63975 0
    endloop
  endfacet
  facet normal 0 0 -1
    outer loop
      vertex -10.7477 9.63975 0
      vertex -6.64581 7.16 0
      vertex -8.27977 7.53294 0
    endloop
  endfacet
  facet normal 0 0 -1
    outer loop
      vertex -10.7477 9.63975 0
      vertex -8.27977 7.53294 0
      vertex -9.5901 6.48799 0
    endloop
  endfacet
  facet normal 0 0 -1
    outer loop
      vertex -10.7477 9.63975 0
      vertex 10.7477 9.63975 0
      vertex -6.64581 7.16 0
    endloop
  endfacet
  facet normal -0 0 1
    outer loop
      vertex -10.7477 9.63975 7.6
      vertex -6.64581 7.16 7.6
      vertex 10.7477 9.63975 7.6
    endloop
  endfacet
  facet normal 0 0 1
    outer loop
      vertex -10.7477 9.63975 7.6
      vertex -8.27977 7.53294 7.6
      vertex -6.64581 7.16 7.6
    endloop
  endfacet
  facet normal 0 0 1
    outer loop
      vertex -10.7477 9.63975 7.6
      vertex -9.5901 6.48799 7.6
      vertex -8.27977 7.53294 7.6
    endloop
  endfacet
  facet normal 0 1 -0
    outer loop
      vertex -10.7477 9.63975 7.6
      vertex 10.7477 9.63975 7.6
      vertex 10.7477 9.63975 0
    endloop
  endfacet
  facet normal 0 0 -1
    outer loop
      vertex -11.2365 9.5582 0
      vertex -10.7477 9.63975 0
      vertex -9.5901 6.48799 0
    endloop
  endfacet
  facet normal -0.164596 0.986361 0
    outer loop
      vertex -11.2365 9.5582 0
      vertex -11.2365 9.5582 7.6
      vertex -10.7477 9.63975 0
    endloop
  endfacet
  facet normal -0.164596 0.986361 0
    outer loop
      vertex -11.2365 9.5582 7.6
      vertex -10.7477 9.63975 7.6
      vertex -10.7477 9.63975 0
    endloop
  endfacet
  facet normal -0 0 1
    outer loop
      vertex -11.2365 9.5582 7.6
      vertex -9.5901 6.48799 7.6
      vertex -10.7477 9.63975 7.6
    endloop
  endfacet
  facet normal 0 0 -1
    outer loop
      vertex -11.7051 9.39732 0
      vertex -11.2365 9.5582 0
      vertex -9.5901 6.48799 0
    endloop
  endfacet
  facet normal -0.324698 0.945818 0
    outer loop
      vertex -11.7051 9.39732 0
      vertex -11.7051 9.39732 7.6
      vertex -11.2365 9.5582 0
    endloop
  endfacet
  facet normal -0.324698 0.945818 0
    outer loop
      vertex -11.7051 9.39732 7.6
      vertex -11.2365 9.5582 7.6
      vertex -11.2365 9.5582 0
    endloop
  endfacet
  facet normal -0 0 1
    outer loop
      vertex -11.7051 9.39732 7.6
      vertex -9.5901 6.48799 7.6
      vertex -11.2365 9.5582 7.6
    endloop
  endfacet
  facet normal 0 0 -1
    outer loop
      vertex -12.1408 9.1615 0
      vertex -11.7051 9.39732 0
      vertex -9.5901 6.48799 0
    endloop
  endfacet
  facet normal -0.475947 0.879474 0
    outer loop
      vertex -12.1408 9.1615 0
      vertex -12.1408 9.1615 7.6
      vertex -11.7051 9.39732 0
    endloop
  endfacet
  facet normal -0.475947 0.879474 0
    outer loop
      vertex -12.1408 9.1615 7.6
      vertex -11.7051 9.39732 7.6
      vertex -11.7051 9.39732 0
    endloop
  endfacet
  facet normal -0 0 1
    outer loop
      vertex -12.1408 9.1615 7.6
      vertex -9.5901 6.48799 7.6
      vertex -11.7051 9.39732 7.6
    endloop
  endfacet
  facet normal 0 0 -1
    outer loop
      vertex -12.5318 8.85717 0
      vertex -12.1408 9.1615 0
      vertex -9.5901 6.48799 0
    endloop
  endfacet
  facet normal -0.614213 0.78914 0
    outer loop
      vertex -12.5318 8.85717 0
      vertex -12.5318 8.85717 7.6
      vertex -12.1408 9.1615 0
    endloop
  endfacet
  facet normal -0.614213 0.78914 0
    outer loop
      vertex -12.5318 8.85717 7.6
      vertex -12.1408 9.1615 7.6
      vertex -12.1408 9.1615 0
    endloop
  endfacet
  facet normal -0 0 1
    outer loop
      vertex -12.5318 8.85717 7.6
      vertex -9.5901 6.48799 7.6
      vertex -12.1408 9.1615 7.6
    endloop
  endfacet
  facet normal 0 0 -1
    outer loop
      vertex -12.8674 8.49264 0
      vertex -12.5318 8.85717 0
      vertex -9.5901 6.48799 0
    endloop
  endfacet
  facet normal -0.735724 0.677282 0
    outer loop
      vertex -12.8674 8.49264 0
      vertex -12.5318 8.85717 7.6
      vertex -12.5318 8.85717 0
    endloop
  endfacet
  facet normal -0.735724 0.677282 0
    outer loop
      vertex -12.8674 8.49264 0
      vertex -12.8674 8.49264 7.6
      vertex -12.5318 8.85717 7.6
    endloop
  endfacet
  facet normal -0 0 1
    outer loop
      vertex -12.8674 8.49264 7.6
      vertex -9.5901 6.48799 7.6
      vertex -12.5318 8.85717 7.6
    endloop
  endfacet
  facet normal 0 0 -1
    outer loop
      vertex -13.1384 8.07784 0
      vertex -12.8674 8.49264 0
      vertex -9.5901 6.48799 0
    endloop
  endfacet
  facet normal -0.837166 0.546948 0
    outer loop
      vertex -13.1384 8.07784 0
      vertex -12.8674 8.49264 7.6
      vertex -12.8674 8.49264 0
    endloop
  endfacet
  facet normal -0.837166 0.546948 0
    outer loop
      vertex -13.1384 8.07784 0
      vertex -13.1384 8.07784 7.6
      vertex -12.8674 8.49264 7.6
    endloop
  endfacet
  facet normal -0 0 1
    outer loop
      vertex -13.1384 8.07784 7.6
      vertex -9.5901 6.48799 7.6
      vertex -12.8674 8.49264 7.6
    endloop
  endfacet
  facet normal 0 0 -1
    outer loop
      vertex -13.3375 7.6241 0
      vertex -13.1384 8.07784 0
      vertex -9.5901 6.48799 0
    endloop
  endfacet
  facet normal -0.915774 0.401694 0
    outer loop
      vertex -13.3375 7.6241 0
      vertex -13.1384 8.07784 7.6
      vertex -13.1384 8.07784 0
    endloop
  endfacet
  facet normal -0.915774 0.401694 0
    outer loop
      vertex -13.3375 7.6241 0
      vertex -13.3375 7.6241 7.6
      vertex -13.1384 8.07784 7.6
    endloop
  endfacet
  facet normal -0 0 1
    outer loop
      vertex -13.3375 7.6241 7.6
      vertex -9.5901 6.48799 7.6
      vertex -13.1384 8.07784 7.6
    endloop
  endfacet
  facet normal 0 0 -1
    outer loop
      vertex -13.4591 7.14378 0
      vertex -13.3375 7.6241 0
      vertex -9.5901 6.48799 0
    endloop
  endfacet
  facet normal -0.9694 0.245486 0
    outer loop
      vertex -13.4591 7.14378 0
      vertex -13.3375 7.6241 7.6
      vertex -13.3375 7.6241 0
    endloop
  endfacet
  facet normal -0.9694 0.245486 0
    outer loop
      vertex -13.4591 7.14378 0
      vertex -13.4591 7.14378 7.6
      vertex -13.3375 7.6241 7.6
    endloop
  endfacet
  facet normal -0 0 1
    outer loop
      vertex -13.4591 7.14378 7.6
      vertex -9.5901 6.48799 7.6
      vertex -13.3375 7.6241 7.6
    endloop
  endfacet
  facet normal -1 0 0
    outer loop
      vertex -13.5 -0.00882474 3.90054
      vertex -13.5 0 3.90001
      vertex -13.5 6.65 0
    endloop
  endfacet
  facet normal -3.39379e-08 0.0603768 0.998176
    outer loop
      vertex -13.5 -0.00882474 3.90054
      vertex 13.5 -0.485362 3.92937
      vertex 13.5 0 3.90001
    endloop
  endfacet
  facet normal -3.52568e-08 0.0603808 0.998175
    outer loop
      vertex -13.5 -0.00882474 3.90054
      vertex 13.5 0 3.90001
      vertex -13.5 0 3.90001
    endloop
  endfacet
  facet normal -1 0 0
    outer loop
      vertex -13.5 -0.494185 3.9299
      vertex -13.5 -0.00882474 3.90054
      vertex -13.5 6.65 0
    endloop
  endfacet
  facet normal -3.19647e-08 0.0603769 0.998176
    outer loop
      vertex -13.5 -0.494185 3.9299
      vertex 13.5 -0.485362 3.92937
      vertex -13.5 -0.00882474 3.90054
    endloop
  endfacet
  facet normal -3.32574e-08 0.0603809 0.998175
    outer loop
      vertex -13.5 -0.494185 3.9299
      vertex 13.5 -0.494186 3.9299
      vertex 13.5 -0.485362 3.92937
    endloop
  endfacet
  facet normal -2.87736e-08 0.18026 0.983619
    outer loop
      vertex -13.5 -0.494185 3.9299
      vertex 13.5 -0.981186 4.01915
      vertex 13.5 -0.494186 3.9299
    endloop
  endfacet
  facet normal -2.83756e-08 0.18026 0.983619
    outer loop
      vertex -13.5 -0.981185 4.01915
      vertex 13.5 -0.981186 4.01915
      vertex -13.5 -0.494185 3.9299
    endloop
  endfacet
  facet normal -2.32139e-08 0.297499 0.954722
    outer loop
      vertex -13.5 -0.981185 4.01915
      vertex 13.5 -1.45387 4.16644
      vertex 13.5 -0.981186 4.01915
    endloop
  endfacet
  facet normal -2.32139e-08 0.297499 0.954722
    outer loop
      vertex -13.5 -1.45387 4.16644
      vertex 13.5 -1.45387 4.16644
      vertex -13.5 -0.981185 4.01915
    endloop
  endfacet
  facet normal -1.77131e-08 0.410415 0.911899
    outer loop
      vertex -13.5 -1.45387 4.16644
      vertex 13.5 -1.90536 4.36964
      vertex 13.5 -1.45387 4.16644
    endloop
  endfacet
  facet normal -1.77131e-08 0.410415 0.911899
    outer loop
      vertex -13.5 -1.90536 4.36964
      vertex 13.5 -1.90536 4.36964
      vertex -13.5 -1.45387 4.16644
    endloop
  endfacet
  facet normal -1.19539e-08 0.517344 0.855778
    outer loop
      vertex -13.5 -1.90536 4.36964
      vertex 13.5 -2.32906 4.62578
      vertex 13.5 -1.90536 4.36964
    endloop
  endfacet
  facet normal -6.02207e-09 0.616702 0.787197
    outer loop
      vertex -13.5 -2.32905 4.62578
      vertex -6.205 -2.55144 4.8
      vertex 13.5 -2.32906 4.62578
    endloop
  endfacet
  facet normal 0 0.616702 0.787196
    outer loop
      vertex -13.5 -2.32905 4.62578
      vertex -9.495 -2.55144 4.8
      vertex -6.205 -2.55144 4.8
    endloop
  endfacet
  facet normal -1.19539e-08 0.517344 0.855778
    outer loop
      vertex -13.5 -2.32905 4.62578
      vertex 13.5 -2.32906 4.62578
      vertex -13.5 -1.90536 4.36964
    endloop
  endfacet
  facet normal -2.47135e-08 0.616702 0.787197
    outer loop
      vertex -13.5 -2.71879 4.93111
      vertex -9.495 -2.55144 4.8
      vertex -13.5 -2.32905 4.62578
    endloop
  endfacet
  facet normal 3.67124e-08 0.616701 0.787197
    outer loop
      vertex -13.5 -2.71879 4.93111
      vertex -9.495 -2.7188 4.93111
      vertex -9.495 -2.55144 4.8
    endloop
  endfacet
  facet normal 4.20942e-08 0.707107 0.707107
    outer loop
      vertex -13.5 -2.71879 4.93111
      vertex -9.495 -3.06889 5.2812
      vertex -9.495 -2.7188 4.93111
    endloop
  endfacet
  facet normal 4.20942e-08 0.707107 0.707107
    outer loop
      vertex -13.5 -3.06889 5.2812
      vertex -9.495 -3.06889 5.2812
      vertex -13.5 -2.71879 4.93111
    endloop
  endfacet
  facet normal 4.6862e-08 0.787197 0.616702
    outer loop
      vertex -13.5 -3.37422 5.67094
      vertex -9.495 -3.06889 5.2812
      vertex -13.5 -3.06889 5.2812
    endloop
  endfacet
  facet normal 4.6862e-08 0.787197 0.616702
    outer loop
      vertex -13.5 -3.37422 5.67094
      vertex -9.495 -3.37422 5.67094
      vertex -9.495 -3.06889 5.2812
    endloop
  endfacet
  facet normal 5.09446e-08 0.855778 0.517344
    outer loop
      vertex -13.5 -3.63035 6.09463
      vertex -9.495 -3.37422 5.67094
      vertex -13.5 -3.37422 5.67094
    endloop
  endfacet
  facet normal 5.09446e-08 0.855778 0.517344
    outer loop
      vertex -13.5 -3.63035 6.09463
      vertex -9.495 -3.63036 6.09463
      vertex -9.495 -3.37422 5.67094
    endloop
  endfacet
  facet normal 5.42856e-08 0.911899 0.410415
    outer loop
      vertex -13.5 -3.83356 6.54613
      vertex -9.495 -3.63036 6.09463
      vertex -13.5 -3.63035 6.09463
    endloop
  endfacet
  facet normal 5.42856e-08 0.911899 0.410415
    outer loop
      vertex -13.5 -3.83356 6.54613
      vertex -9.495 -3.83356 6.54613
      vertex -9.495 -3.63036 6.09463
    endloop
  endfacet
  facet normal 5.68348e-08 0.954722 0.297499
    outer loop
      vertex -13.5 -3.98085 7.01881
      vertex -9.495 -3.83356 6.54613
      vertex -13.5 -3.83356 6.54613
    endloop
  endfacet
  facet normal 5.68348e-08 0.954722 0.297499
    outer loop
      vertex -13.5 -3.98085 7.01881
      vertex -9.495 -3.98085 7.01881
      vertex -9.495 -3.83356 6.54613
    endloop
  endfacet
  facet normal 5.85551e-08 0.983619 0.18026
    outer loop
      vertex -13.5 -4.0701 7.50581
      vertex -9.495 -3.98085 7.01881
      vertex -13.5 -3.98085 7.01881
    endloop
  endfacet
  facet normal 0 0.983619 0.18026
    outer loop
      vertex -13.5 -4.0701 7.50581
      vertex -9.495 -4.0701 7.50581
      vertex -9.495 -3.98085 7.01881
    endloop
  endfacet
  facet normal 0 0.998177 0.0603534
    outer loop
      vertex -13.5 -4.07063 7.51464
      vertex -9.495 -4.0701 7.50581
      vertex -13.5 -4.0701 7.50581
    endloop
  endfacet
  facet normal 5.11082e-08 0.998176 0.0603765
    outer loop
      vertex -13.5 -4.07063 7.51464
      vertex -9.495 -4.07491 7.58532
      vertex -9.495 -4.0701 7.50581
    endloop
  endfacet
  facet normal -3.02198e-08 0.998175 0.0603811
    outer loop
      vertex -13.5 -4.0758 7.6
      vertex -9.495 -4.07491 7.58532
      vertex -13.5 -4.07063 7.51464
    endloop
  endfacet
  facet normal 0 0.998175 0.0603893
    outer loop
      vertex -13.5 -4.0758 7.6
      vertex -9.495 -4.0758 7.6
      vertex -9.495 -4.07491 7.58532
    endloop
  endfacet
  facet normal -0 0 1
    outer loop
      vertex -13.5 -4.0758 7.6
      vertex -9.5901 -4.81201 7.6
      vertex -9.495 -4.0758 7.6
    endloop
  endfacet
  facet normal 0 0 1
    outer loop
      vertex -13.5 -4.0758 7.6
      vertex -9.5901 -6.48799 7.6
      vertex -9.5901 -4.81201 7.6
    endloop
  endfacet
  facet normal -1 0 0
    outer loop
      vertex -13.5 -9.65 0
      vertex -13.5 -0.494185 3.9299
      vertex -13.5 6.65 0
    endloop
  endfacet
  facet normal -1 -0 0
    outer loop
      vertex -13.5 -9.65 0
      vertex -13.5 -0.981185 4.01915
      vertex -13.5 -0.494185 3.9299
    endloop
  endfacet
  facet normal -1 -0 0
    outer loop
      vertex -13.5 -9.65 0
      vertex -13.5 -1.45387 4.16644
      vertex -13.5 -0.981185 4.01915
    endloop
  endfacet
  facet normal -1 -0 0
    outer loop
      vertex -13.5 -9.65 0
      vertex -13.5 -1.90536 4.36964
      vertex -13.5 -1.45387 4.16644
    endloop
  endfacet
  facet normal -1 0 0
    outer loop
      vertex -13.5 -9.65 0
      vertex -13.5 -2.32905 4.62578
      vertex -13.5 -1.90536 4.36964
    endloop
  endfacet
  facet normal -1 0 0
    outer loop
      vertex -13.5 -9.65 0
      vertex -13.5 -2.71879 4.93111
      vertex -13.5 -2.32905 4.62578
    endloop
  endfacet
  facet normal -1 0 0
    outer loop
      vertex -13.5 -9.65 0
      vertex -13.5 -3.06889 5.2812
      vertex -13.5 -2.71879 4.93111
    endloop
  endfacet
  facet normal -1 0 0
    outer loop
      vertex -13.5 -9.65 0
      vertex -13.5 -3.37422 5.67094
      vertex -13.5 -3.06889 5.2812
    endloop
  endfacet
  facet normal -1 0 0
    outer loop
      vertex -13.5 -9.65 0
      vertex -13.5 -3.63035 6.09463
      vertex -13.5 -3.37422 5.67094
    endloop
  endfacet
  facet normal -1 0 0
    outer loop
      vertex -13.5 -9.65 0
      vertex -13.5 -9.65 7.6
      vertex -13.5 -3.63035 6.09463
    endloop
  endfacet
  facet normal -0 0 -1
    outer loop
      vertex -13.5 -9.65 0
      vertex -13.5 6.65 0
      vertex -9.5901 -4.81201 0
    endloop
  endfacet
  facet normal -0 0 -1
    outer loop
      vertex -13.5 -9.65 0
      vertex -6.64581 -7.16 0
      vertex 7.42023 -7.53294 0
    endloop
  endfacet
  facet normal 0 0 -1
    outer loop
      vertex -13.5 -9.65 0
      vertex -8.27977 -7.53294 0
      vertex -6.64581 -7.16 0
    endloop
  endfacet
  facet normal 0 0 -1
    outer loop
      vertex -13.5 -9.65 0
      vertex -9.5901 -4.81201 0
      vertex -9.5901 -6.48799 0
    endloop
  endfacet
  facet normal 0 0 -1
    outer loop
      vertex -13.5 -9.65 0
      vertex -9.5901 -6.48799 0
      vertex -8.27977 -7.53294 0
    endloop
  endfacet
  facet normal 0 -1 -0
    outer loop
      vertex -13.5 -9.65 0
      vertex 13.5 -9.65 0
      vertex 13.5 -9.65 7.6
    endloop
  endfacet
  facet normal 0 -1 0
    outer loop
      vertex -13.5 -9.65 0
      vertex 13.5 -9.65 7.6
      vertex -13.5 -9.65 7.6
    endloop
  endfacet
  facet normal 0 0 -1
    outer loop
      vertex -13.5 -9.65 0
      vertex 7.42023 -7.53294 0
      vertex 13.5 -9.65 0
    endloop
  endfacet
  facet normal -1 0 0
    outer loop
      vertex -13.5 -9.65 7.6
      vertex -13.5 -3.83356 6.54613
      vertex -13.5 -3.63035 6.09463
    endloop
  endfacet
  facet normal -1 0 0
    outer loop
      vertex -13.5 -9.65 7.6
      vertex -13.5 -3.98085 7.01881
      vertex -13.5 -3.83356 6.54613
    endloop
  endfacet
  facet normal -1 0 0
    outer loop
      vertex -13.5 -9.65 7.6
      vertex -13.5 -4.0701 7.50581
      vertex -13.5 -3.98085 7.01881
    endloop
  endfacet
  facet normal -1 0 0
    outer loop
      vertex -13.5 -9.65 7.6
      vertex -13.5 -4.07063 7.51464
      vertex -13.5 -4.0701 7.50581
    endloop
  endfacet
  facet normal -1 0 0
    outer loop
      vertex -13.5 -9.65 7.6
      vertex -13.5 -4.0758 7.6
      vertex -13.5 -4.07063 7.51464
    endloop
  endfacet
  facet normal 0 0 1
    outer loop
      vertex -13.5 -9.65 7.6
      vertex -6.64581 -7.16 7.6
      vertex -8.27977 -7.53294 7.6
    endloop
  endfacet
  facet normal 0 0 1
    outer loop
      vertex -13.5 -9.65 7.6
      vertex -8.27977 -7.53294 7.6
      vertex -9.5901 -6.48799 7.6
    endloop
  endfacet
  facet normal 0 0 1
    outer loop
      vertex -13.5 -9.65 7.6
      vertex -9.5901 -6.48799 7.6
      vertex -13.5 -4.0758 7.6
    endloop
  endfacet
  facet normal 0 0 1
    outer loop
      vertex -13.5 -9.65 7.6
      vertex 13.5 -9.65 7.6
      vertex 7.42023 -7.53294 7.6
    endloop
  endfacet
  facet normal 0 0 1
    outer loop
      vertex -13.5 -9.65 7.6
      vertex 7.42023 -7.53294 7.6
      vertex -6.64581 -7.16 7.6
    endloop
  endfacet
  facet normal -1 0 0
    outer loop
      vertex -13.5 0 3.90001
      vertex -13.5 0.485362 3.92937
      vertex -13.5 6.65 0
    endloop
  endfacet
  facet normal -3.52568e-08 -0.0603807 0.998175
    outer loop
      vertex -13.5 0 3.90001
      vertex 13.5 0 3.90001
      vertex 13.5 0.00882476 3.90054
    endloop
  endfacet
  facet normal -3.65395e-08 -0.0603768 0.998176
    outer loop
      vertex -13.5 0 3.90001
      vertex 13.5 0.00882476 3.90054
      vertex -13.5 0.485362 3.92937
    endloop
  endfacet
  facet normal -1 0 0
    outer loop
      vertex -13.5 0.485362 3.92937
      vertex -13.5 0.494186 3.9299
      vertex -13.5 6.65 0
    endloop
  endfacet
  facet normal -3.86149e-08 -0.0603769 0.998176
    outer loop
      vertex -13.5 0.485362 3.92937
      vertex 13.5 0.00882476 3.90054
      vertex 13.5 0.494185 3.9299
    endloop
  endfacet
  facet normal -3.72563e-08 -0.0603811 0.998175
    outer loop
      vertex -13.5 0.485362 3.92937
      vertex 13.5 0.494185 3.9299
      vertex -13.5 0.494186 3.9299
    endloop
  endfacet
  facet normal -1 0 0
    outer loop
      vertex -13.5 0.494186 3.9299
      vertex -13.5 0.981186 4.01915
      vertex -13.5 6.65 0
    endloop
  endfacet
  facet normal -4.07118e-08 -0.18026 0.983619
    outer loop
      vertex -13.5 0.494186 3.9299
      vertex 13.5 0.494185 3.9299
      vertex -13.5 0.981186 4.01915
    endloop
  endfacet
  facet normal -1 0 0
    outer loop
      vertex -13.5 0.981186 4.01915
      vertex -13.5 1.45387 4.16644
      vertex -13.5 6.65 0
    endloop
  endfacet
  facet normal -4.11097e-08 -0.18026 0.983619
    outer loop
      vertex -13.5 0.981186 4.01915
      vertex 13.5 0.494185 3.9299
      vertex 13.5 0.981185 4.01915
    endloop
  endfacet
  facet normal -4.423e-08 -0.297499 0.954722
    outer loop
      vertex -13.5 0.981186 4.01915
      vertex 13.5 0.981185 4.01915
      vertex -13.5 1.45387 4.16644
    endloop
  endfacet
  facet normal -1 0 0
    outer loop
      vertex -13.5 1.45387 4.16644
      vertex -13.5 1.90536 4.36964
      vertex -13.5 6.65 0
    endloop
  endfacet
  facet normal -4.423e-08 -0.297499 0.954722
    outer loop
      vertex -13.5 1.45387 4.16644
      vertex 13.5 0.981185 4.01915
      vertex 13.5 1.45387 4.16644
    endloop
  endfacet
  facet normal -4.67058e-08 -0.410415 0.911899
    outer loop
      vertex -13.5 1.45387 4.16644
      vertex 13.5 1.45387 4.16644
      vertex -13.5 1.90536 4.36964
    endloop
  endfacet
  facet normal -1 0 0
    outer loop
      vertex -13.5 1.90536 4.36964
      vertex -13.5 2.32906 4.62578
      vertex -13.5 6.65 0
    endloop
  endfacet
  facet normal -4.67058e-08 -0.410415 0.911899
    outer loop
      vertex -13.5 1.90536 4.36964
      vertex 13.5 1.45387 4.16644
      vertex 13.5 1.90536 4.36964
    endloop
  endfacet
  facet normal -4.85004e-08 -0.517344 0.855778
    outer loop
      vertex -13.5 1.90536 4.36964
      vertex 13.5 1.90536 4.36964
      vertex -13.5 2.32906 4.62578
    endloop
  endfacet
  facet normal -1 0 0
    outer loop
      vertex -13.5 2.32906 4.62578
      vertex -13.5 2.7188 4.93111
      vertex -13.5 6.65 0
    endloop
  endfacet
  facet normal -4.4691e-08 -0.616702 0.787196
    outer loop
      vertex -13.5 2.32906 4.62578
      vertex -6.205 2.55144 4.8
      vertex -9.495 2.55144 4.8
    endloop
  endfacet
  facet normal -6.14259e-08 -0.616702 0.787197
    outer loop
      vertex -13.5 2.32906 4.62578
      vertex -9.495 2.55144 4.8
      vertex -13.5 2.7188 4.93111
    endloop
  endfacet
  facet normal -4.85004e-08 -0.517344 0.855778
    outer loop
      vertex -13.5 2.32906 4.62578
      vertex 13.5 1.90536 4.36964
      vertex 13.5 2.32905 4.62578
    endloop
  endfacet
  facet normal -4.95875e-08 -0.616702 0.787197
    outer loop
      vertex -13.5 2.32906 4.62578
      vertex 13.5 2.32905 4.62578
      vertex -6.205 2.55144 4.8
    endloop
  endfacet
  facet normal -1 0 0
    outer loop
      vertex -13.5 2.7188 4.93111
      vertex -13.5 3.06889 5.2812
      vertex -13.5 6.65 0
    endloop
  endfacet
  facet normal -3.67124e-08 -0.616702 0.787197
    outer loop
      vertex -13.5 2.7188 4.93111
      vertex -9.495 2.55144 4.8
      vertex -9.495 2.7188 4.93111
    endloop
  endfacet
  facet normal -4.20942e-08 -0.707107 0.707107
    outer loop
      vertex -13.5 2.7188 4.93111
      vertex -9.495 2.7188 4.93111
      vertex -13.5 3.06889 5.2812
    endloop
  endfacet
  facet normal -1 0 0
    outer loop
      vertex -13.5 3.06889 5.2812
      vertex -13.5 3.37422 5.67094
      vertex -13.5 6.65 0
    endloop
  endfacet
  facet normal -4.20942e-08 -0.707107 0.707107
    outer loop
      vertex -13.5 3.06889 5.2812
      vertex -9.495 2.7188 4.93111
      vertex -9.495 3.06889 5.2812
    endloop
  endfacet
  facet normal -4.6862e-08 -0.787197 0.616702
    outer loop
      vertex -13.5 3.06889 5.2812
      vertex -9.495 3.06889 5.2812
      vertex -9.495 3.37422 5.67094
    endloop
  endfacet
  facet normal -4.6862e-08 -0.787197 0.616702
    outer loop
      vertex -13.5 3.06889 5.2812
      vertex -9.495 3.37422 5.67094
      vertex -13.5 3.37422 5.67094
    endloop
  endfacet
  facet normal -1 0 0
    outer loop
      vertex -13.5 3.37422 5.67094
      vertex -13.5 3.63036 6.09463
      vertex -13.5 6.65 7.6
    endloop
  endfacet
  facet normal -1 0 0
    outer loop
      vertex -13.5 3.37422 5.67094
      vertex -13.5 6.65 7.6
      vertex -13.5 6.65 0
    endloop
  endfacet
  facet normal -5.09446e-08 -0.855778 0.517344
    outer loop
      vertex -13.5 3.37422 5.67094
      vertex -9.495 3.37422 5.67094
      vertex -9.495 3.63036 6.09463
    endloop
  endfacet
  facet normal -5.09446e-08 -0.855778 0.517344
    outer loop
      vertex -13.5 3.37422 5.67094
      vertex -9.495 3.63036 6.09463
      vertex -13.5 3.63036 6.09463
    endloop
  endfacet
  facet normal -1 0 0
    outer loop
      vertex -13.5 3.63036 6.09463
      vertex -13.5 3.83356 6.54613
      vertex -13.5 6.65 7.6
    endloop
  endfacet
  facet normal -5.42856e-08 -0.911899 0.410415
    outer loop
      vertex -13.5 3.63036 6.09463
      vertex -9.495 3.63036 6.09463
      vertex -9.495 3.83356 6.54613
    endloop
  endfacet
  facet normal -5.42856e-08 -0.911899 0.410415
    outer loop
      vertex -13.5 3.63036 6.09463
      vertex -9.495 3.83356 6.54613
      vertex -13.5 3.83356 6.54613
    endloop
  endfacet
  facet normal -1 0 0
    outer loop
      vertex -13.5 3.83356 6.54613
      vertex -13.5 3.98085 7.01881
      vertex -13.5 6.65 7.6
    endloop
  endfacet
  facet normal -5.68348e-08 -0.954722 0.297499
    outer loop
      vertex -13.5 3.83356 6.54613
      vertex -9.495 3.83356 6.54613
      vertex -9.495 3.98085 7.01881
    endloop
  endfacet
  facet normal -5.68348e-08 -0.954722 0.297499
    outer loop
      vertex -13.5 3.83356 6.54613
      vertex -9.495 3.98085 7.01881
      vertex -13.5 3.98085 7.01881
    endloop
  endfacet
  facet normal -1 0 0
    outer loop
      vertex -13.5 3.98085 7.01881
      vertex -13.5 4.0701 7.50581
      vertex -13.5 6.65 7.6
    endloop
  endfacet
  facet normal -5.85551e-08 -0.983619 0.180261
    outer loop
      vertex -13.5 3.98085 7.01881
      vertex -9.495 3.98085 7.01881
      vertex -9.495 4.0701 7.50581
    endloop
  endfacet
  facet normal 0 -0.983619 0.18026
    outer loop
      vertex -13.5 3.98085 7.01881
      vertex -9.495 4.0701 7.50581
      vertex -13.5 4.0701 7.50581
    endloop
  endfacet
  facet normal -1 -0 0
    outer loop
      vertex -13.5 4.0701 7.50581
      vertex -13.5 4.0758 7.6
      vertex -13.5 6.65 7.6
    endloop
  endfacet
  facet normal 0 -0.998176 0.0603735
    outer loop
      vertex -13.5 4.0701 7.50581
      vertex -9.495 4.0701 7.50581
      vertex -9.495 4.0758 7.6
    endloop
  endfacet
  facet normal -1.18843e-07 -0.998176 0.0603785
    outer loop
      vertex -13.5 4.0701 7.50581
      vertex -9.495 4.0758 7.6
      vertex -13.5 4.0758 7.6
    endloop
  endfacet
  facet normal 0 0 1
    outer loop
      vertex -13.5 4.0758 7.6
      vertex -9.495 4.0758 7.6
      vertex -9.5901 4.81201 7.6
    endloop
  endfacet
  facet normal 0 0 1
    outer loop
      vertex -13.5 4.0758 7.6
      vertex -9.5901 4.81201 7.6
      vertex -13.5 6.65 7.6
    endloop
  endfacet
  facet normal 0 -0 -1
    outer loop
      vertex -13.5 6.65 0
      vertex -13.4591 7.14378 0
      vertex -9.5901 6.48799 0
    endloop
  endfacet
  facet normal -0.996584 0.08258 0
    outer loop
      vertex -13.5 6.65 0
      vertex -13.4591 7.14378 7.6
      vertex -13.4591 7.14378 0
    endloop
  endfacet
  facet normal -0.996584 0.08258 0
    outer loop
      vertex -13.5 6.65 0
      vertex -13.5 6.65 7.6
      vertex -13.4591 7.14378 7.6
    endloop
  endfacet
  facet normal 0 0 -1
    outer loop
      vertex -13.5 6.65 0
      vertex -9.5901 4.81201 0
      vertex -9.5901 -4.81201 0
    endloop
  endfacet
  facet normal 0 0 -1
    outer loop
      vertex -13.5 6.65 0
      vertex -9.5901 6.48799 0
      vertex -9.5901 4.81201 0
    endloop
  endfacet
  facet normal 0 0 1
    outer loop
      vertex -13.5 6.65 7.6
      vertex -9.5901 4.81201 7.6
      vertex -9.5901 6.48799 7.6
    endloop
  endfacet
  facet normal -0 0 1
    outer loop
      vertex -13.5 6.65 7.6
      vertex -9.5901 6.48799 7.6
      vertex -13.4591 7.14378 7.6
    endloop
  endfacet
  facet normal 0 0 -1
    outer loop
      vertex -5.91864 -5.65 0
      vertex 6.1099 -4.81201 0
      vertex 6.1099 -6.48799 0
    endloop
  endfacet
  facet normal 0 0 1
    outer loop
      vertex -5.91864 -5.65 7.6
      vertex 6.1099 -6.48799 7.6
      vertex 6.1099 -4.81201 7.6
    endloop
  endfacet
  facet normal 0 0 -1
    outer loop
      vertex -5.91864 5.65 0
      vertex 6.1099 6.48799 0
      vertex 6.1099 4.81201 0
    endloop
  endfacet
  facet normal 0 0 1
    outer loop
      vertex -5.91864 5.65 7.6
      vertex 6.1099 4.81201 7.6
      vertex 6.1099 6.48799 7.6
    endloop
  endfacet
  facet normal 0 0.616702 0.787197
    outer loop
      vertex -6.205 -2.55144 4.8
      vertex 6.205 -2.55144 4.8
      vertex 13.5 -2.32906 4.62578
    endloop
  endfacet
  facet normal 0 0.616701 0.787197
    outer loop
      vertex -6.205 -2.55144 4.8
      vertex 6.205 -2.7188 4.93111
      vertex 6.205 -2.55144 4.8
    endloop
  endfacet
  facet normal 2.36959e-08 0.616703 0.787196
    outer loop
      vertex -6.205 -2.7188 4.93111
      vertex 6.205 -2.7188 4.93111
      vertex -6.205 -2.55144 4.8
    endloop
  endfacet
  facet normal 2.71696e-08 0.707107 0.707107
    outer loop
      vertex -6.205 -2.7188 4.93111
      vertex 6.205 -3.06889 5.2812
      vertex 6.205 -2.7188 4.93111
    endloop
  endfacet
  facet normal 2.71696e-08 0.707107 0.707107
    outer loop
      vertex -6.205 -3.06889 5.2812
      vertex 6.205 -3.06889 5.2812
      vertex -6.205 -2.7188 4.93111
    endloop
  endfacet
  facet normal 3.02469e-08 0.787197 0.616702
    outer loop
      vertex -6.205 -3.37422 5.67094
      vertex 6.205 -3.06889 5.2812
      vertex -6.205 -3.06889 5.2812
    endloop
  endfacet
  facet normal 3.02469e-08 0.787197 0.616702
    outer loop
      vertex -6.205 -3.37422 5.67094
      vertex 6.205 -3.37422 5.67094
      vertex 6.205 -3.06889 5.2812
    endloop
  endfacet
  facet normal 3.28821e-08 0.855778 0.517344
    outer loop
      vertex -6.205 -3.63036 6.09463
      vertex 6.205 -3.37422 5.67094
      vertex -6.205 -3.37422 5.67094
    endloop
  endfacet
  facet normal 3.28821e-08 0.855778 0.517344
    outer loop
      vertex -6.205 -3.63036 6.09463
      vertex 6.205 -3.63036 6.09463
      vertex 6.205 -3.37422 5.67094
    endloop
  endfacet
  facet normal 3.50385e-08 0.911899 0.410415
    outer loop
      vertex -6.205 -3.83356 6.54613
      vertex 6.205 -3.63036 6.09463
      vertex -6.205 -3.63036 6.09463
    endloop
  endfacet
  facet normal 3.50385e-08 0.911899 0.410415
    outer loop
      vertex -6.205 -3.83356 6.54613
      vertex 6.205 -3.83356 6.54613
      vertex 6.205 -3.63036 6.09463
    endloop
  endfacet
  facet normal 3.66839e-08 0.954722 0.297499
    outer loop
      vertex -6.205 -3.98085 7.01881
      vertex 6.205 -3.83356 6.54613
      vertex -6.205 -3.83356 6.54613
    endloop
  endfacet
  facet normal 3.66839e-08 0.954722 0.297499
    outer loop
      vertex -6.205 -3.98085 7.01881
      vertex 6.205 -3.98085 7.01881
      vertex 6.205 -3.83356 6.54613
    endloop
  endfacet
  facet normal 3.77942e-08 0.983619 0.180261
    outer loop
      vertex -6.205 -4.0701 7.50581
      vertex 6.205 -3.98085 7.01881
      vertex -6.205 -3.98085 7.01881
    endloop
  endfacet
  facet normal 0 0.983619 0.18026
    outer loop
      vertex -6.205 -4.0701 7.50581
      vertex 6.205 -4.0701 7.50581
      vertex 6.205 -3.98085 7.01881
    endloop
  endfacet
  facet normal 0 0 1
    outer loop
      vertex -6.205 -4.0758 7.6
      vertex -5.91864 -5.65 7.6
      vertex 6.1099 -4.81201 7.6
    endloop
  endfacet
  facet normal 0 0 1
    outer loop
      vertex -6.205 -4.0758 7.6
      vertex 6.1099 -4.81201 7.6
      vertex 6.205 -4.0758 7.6
    endloop
  endfacet
  facet normal 0 0.998176 0.0603738
    outer loop
      vertex -6.205 -4.0758 7.6
      vertex 6.205 -4.0701 7.50581
      vertex -6.205 -4.0701 7.50581
    endloop
  endfacet
  facet normal 3.83535e-08 0.998176 0.0603788
    outer loop
      vertex -6.205 -4.0758 7.6
      vertex 6.205 -4.0758 7.6
      vertex 6.205 -4.0701 7.50581
    endloop
  endfacet
  facet normal -0.900969 -0.433884 -0
    outer loop
      vertex -6.205 -5.05536 4.8
      vertex -5.91864 -5.65 0
      vertex -5.91864 -5.65 7.6
    endloop
  endfacet
  facet normal -0.900969 -0.433884 0
    outer loop
      vertex -6.205 -5.05536 4.8
      vertex -5.91864 -5.65 7.6
      vertex -6.205 -5.05536 7.6
    endloop
  endfacet
  facet normal -1 0 0
    outer loop
      vertex -6.205 -5.05536 4.8
      vertex -6.205 -2.7188 4.93111
      vertex -6.205 -2.55144 4.8
    endloop
  endfacet
  facet normal -1 0 0
    outer loop
      vertex -6.205 -5.05536 4.8
      vertex -6.205 -3.06889 5.2812
      vertex -6.205 -2.7188 4.93111
    endloop
  endfacet
  facet normal -1 0 0
    outer loop
      vertex -6.205 -5.05536 4.8
      vertex -6.205 -3.37422 5.67094
      vertex -6.205 -3.06889 5.2812
    endloop
  endfacet
  facet normal -1 0 0
    outer loop
      vertex -6.205 -5.05536 4.8
      vertex -6.205 -3.63036 6.09463
      vertex -6.205 -3.37422 5.67094
    endloop
  endfacet
  facet normal -1 0 0
    outer loop
      vertex -6.205 -5.05536 4.8
      vertex -6.205 -3.83356 6.54613
      vertex -6.205 -3.63036 6.09463
    endloop
  endfacet
  facet normal -1 0 0
    outer loop
      vertex -6.205 -5.05536 4.8
      vertex -6.205 -5.05536 7.6
      vertex -6.205 -3.83356 6.54613
    endloop
  endfacet
  facet normal 0 0 1
    outer loop
      vertex -6.205 -5.05536 7.6
      vertex -5.91864 -5.65 7.6
      vertex -6.205 -4.0758 7.6
    endloop
  endfacet
  facet normal -1 0 0
    outer loop
      vertex -6.205 -5.05536 7.6
      vertex -6.205 -3.98085 7.01881
      vertex -6.205 -3.83356 6.54613
    endloop
  endfacet
  facet normal -1 0 0
    outer loop
      vertex -6.205 -5.05536 7.6
      vertex -6.205 -4.0701 7.50581
      vertex -6.205 -3.98085 7.01881
    endloop
  endfacet
  facet normal -1 0 0
    outer loop
      vertex -6.205 -5.05536 7.6
      vertex -6.205 -4.0758 7.6
      vertex -6.205 -4.0701 7.50581
    endloop
  endfacet
  facet normal -1 0 -0
    outer loop
      vertex -6.205 2.55144 4.8
      vertex -6.205 2.7188 4.93111
      vertex -6.205 5.05536 4.8
    endloop
  endfacet
  facet normal -4.73919e-08 -0.616702 0.787197
    outer loop
      vertex -6.205 2.55144 4.8
      vertex 13.5 2.32905 4.62578
      vertex 6.205 2.55144 4.8
    endloop
  endfacet
  facet normal -4.73919e-08 -0.616703 0.787196
    outer loop
      vertex -6.205 2.55144 4.8
      vertex 6.205 2.55144 4.8
      vertex -6.205 2.7188 4.93111
    endloop
  endfacet
  facet normal -1 0 0
    outer loop
      vertex -6.205 2.7188 4.93111
      vertex -6.205 3.06889 5.2812
      vertex -6.205 5.05536 4.8
    endloop
  endfacet
  facet normal -2.36959e-08 -0.616701 0.787197
    outer loop
      vertex -6.205 2.7188 4.93111
      vertex 6.205 2.55144 4.8
      vertex 6.205 2.7188 4.93111
    endloop
  endfacet
  facet normal -2.71696e-08 -0.707107 0.707107
    outer loop
      vertex -6.205 2.7188 4.93111
      vertex 6.205 2.7188 4.93111
      vertex -6.205 3.06889 5.2812
    endloop
  endfacet
  facet normal -1 0 0
    outer loop
      vertex -6.205 3.06889 5.2812
      vertex -6.205 3.37422 5.67094
      vertex -6.205 5.05536 4.8
    endloop
  endfacet
  facet normal -2.71696e-08 -0.707107 0.707107
    outer loop
      vertex -6.205 3.06889 5.2812
      vertex 6.205 2.7188 4.93111
      vertex 6.205 3.06889 5.2812
    endloop
  endfacet
  facet normal -3.02469e-08 -0.787197 0.616702
    outer loop
      vertex -6.205 3.06889 5.2812
      vertex 6.205 3.06889 5.2812
      vertex 6.205 3.37422 5.67094
    endloop
  endfacet
  facet normal -3.02469e-08 -0.787197 0.616702
    outer loop
      vertex -6.205 3.06889 5.2812
      vertex 6.205 3.37422 5.67094
      vertex -6.205 3.37422 5.67094
    endloop
  endfacet
  facet normal -1 0 0
    outer loop
      vertex -6.205 3.37422 5.67094
      vertex -6.205 3.63036 6.09463
      vertex -6.205 5.05536 4.8
    endloop
  endfacet
  facet normal -3.28821e-08 -0.855778 0.517344
    outer loop
      vertex -6.205 3.37422 5.67094
      vertex 6.205 3.37422 5.67094
      vertex 6.205 3.63036 6.09463
    endloop
  endfacet
  facet normal -3.28821e-08 -0.855778 0.517344
    outer loop
      vertex -6.205 3.37422 5.67094
      vertex 6.205 3.63036 6.09463
      vertex -6.205 3.63036 6.09463
    endloop
  endfacet
  facet normal -1 0 0
    outer loop
      vertex -6.205 3.63036 6.09463
      vertex -6.205 3.83356 6.54613
      vertex -6.205 5.05536 4.8
    endloop
  endfacet
  facet normal -3.50385e-08 -0.911899 0.410415
    outer loop
      vertex -6.205 3.63036 6.09463
      vertex 6.205 3.63036 6.09463
      vertex 6.205 3.83356 6.54613
    endloop
  endfacet
  facet normal -3.50385e-08 -0.911899 0.410415
    outer loop
      vertex -6.205 3.63036 6.09463
      vertex 6.205 3.83356 6.54613
      vertex -6.205 3.83356 6.54613
    endloop
  endfacet
  facet normal -1 0 0
    outer loop
      vertex -6.205 3.83356 6.54613
      vertex -6.205 3.98085 7.01881
      vertex -6.205 5.05536 7.6
    endloop
  endfacet
  facet normal -1 0 0
    outer loop
      vertex -6.205 3.83356 6.54613
      vertex -6.205 5.05536 7.6
      vertex -6.205 5.05536 4.8
    endloop
  endfacet
  facet normal -3.66839e-08 -0.954722 0.297499
    outer loop
      vertex -6.205 3.83356 6.54613
      vertex 6.205 3.83356 6.54613
      vertex 6.205 3.98085 7.01881
    endloop
  endfacet
  facet normal -3.66839e-08 -0.954722 0.297499
    outer loop
      vertex -6.205 3.83356 6.54613
      vertex 6.205 3.98085 7.01881
      vertex -6.205 3.98085 7.01881
    endloop
  endfacet
  facet normal -1 0 0
    outer loop
      vertex -6.205 3.98085 7.01881
      vertex -6.205 4.0701 7.50581
      vertex -6.205 5.05536 7.6
    endloop
  endfacet
  facet normal -3.77942e-08 -0.983619 0.180261
    outer loop
      vertex -6.205 3.98085 7.01881
      vertex 6.205 3.98085 7.01881
      vertex 6.205 4.0701 7.50581
    endloop
  endfacet
  facet normal 0 -0.983619 0.18026
    outer loop
      vertex -6.205 3.98085 7.01881
      vertex 6.205 4.0701 7.50581
      vertex -6.205 4.0701 7.50581
    endloop
  endfacet
  facet normal -1 -0 0
    outer loop
      vertex -6.205 4.0701 7.50581
      vertex -6.205 4.0758 7.6
      vertex -6.205 5.05536 7.6
    endloop
  endfacet
  facet normal 0 -0.998176 0.0603738
    outer loop
      vertex -6.205 4.0701 7.50581
      vertex 6.205 4.0701 7.50581
      vertex 6.205 4.0758 7.6
    endloop
  endfacet
  facet normal -3.83535e-08 -0.998176 0.0603788
    outer loop
      vertex -6.205 4.0701 7.50581
      vertex 6.205 4.0758 7.6
      vertex -6.205 4.0758 7.6
    endloop
  endfacet
  facet normal 0 0 1
    outer loop
      vertex -6.205 4.0758 7.6
      vertex -5.91864 5.65 7.6
      vertex -6.205 5.05536 7.6
    endloop
  endfacet
  facet normal 0 0 1
    outer loop
      vertex -6.205 4.0758 7.6
      vertex 6.1099 4.81201 7.6
      vertex -5.91864 5.65 7.6
    endloop
  endfacet
  facet normal 0 0 1
    outer loop
      vertex -6.205 4.0758 7.6
      vertex 6.205 4.0758 7.6
      vertex 6.1099 4.81201 7.6
    endloop
  endfacet
  facet normal -0.900969 0.433884 0
    outer loop
      vertex -6.205 5.05536 4.8
      vertex -5.91864 5.65 7.6
      vertex -5.91864 5.65 0
    endloop
  endfacet
  facet normal -0.900969 0.433884 0
    outer loop
      vertex -6.205 5.05536 4.8
      vertex -6.205 5.05536 7.6
      vertex -5.91864 5.65 7.6
    endloop
  endfacet
  facet normal -0.900969 -0.433884 -4.89011e-09
    outer loop
      vertex -6.64581 -4.14 0
      vertex -5.91864 -5.65 0
      vertex -6.205 -5.05536 4.8
    endloop
  endfacet
  facet normal -0.900969 -0.433884 0
    outer loop
      vertex -6.64581 -4.14 0
      vertex -6.205 -5.05536 4.8
      vertex -6.64581 -4.14 4.8
    endloop
  endfacet
  facet normal 0 0 -1
    outer loop
      vertex -6.64581 -4.14 0
      vertex -6.64581 4.14 0
      vertex 6.1099 4.81201 0
    endloop
  endfacet
  facet normal 0 0 -1
    outer loop
      vertex -6.64581 -4.14 0
      vertex 6.1099 -4.81201 0
      vertex -5.91864 -5.65 0
    endloop
  endfacet
  facet normal 0 0 -1
    outer loop
      vertex -6.64581 -4.14 0
      vertex 6.1099 4.81201 0
      vertex 6.1099 -4.81201 0
    endloop
  endfacet
  facet normal 0 0 1
    outer loop
      vertex -6.64581 -4.14 4.8
      vertex -6.205 -5.05536 4.8
      vertex -6.205 -2.55144 4.8
    endloop
  endfacet
  facet normal -0 0 -1
    outer loop
      vertex -6.64581 -7.16 0
      vertex -5.91864 -5.65 0
      vertex 6.1099 -6.48799 0
    endloop
  endfacet
  facet normal -0.900969 0.433884 0
    outer loop
      vertex -6.64581 -7.16 0
      vertex -5.91864 -5.65 7.6
      vertex -5.91864 -5.65 0
    endloop
  endfacet
  facet normal -0.900969 0.433884 0
    outer loop
      vertex -6.64581 -7.16 0
      vertex -6.64581 -7.16 7.6
      vertex -5.91864 -5.65 7.6
    endloop
  endfacet
  facet normal 0 0 -1
    outer loop
      vertex -6.64581 -7.16 0
      vertex 6.1099 -6.48799 0
      vertex 7.42023 -7.53294 0
    endloop
  endfacet
  facet normal 0 0 1
    outer loop
      vertex -6.64581 -7.16 7.6
      vertex 6.1099 -6.48799 7.6
      vertex -5.91864 -5.65 7.6
    endloop
  endfacet
  facet normal 0 0 1
    outer loop
      vertex -6.64581 -7.16 7.6
      vertex 7.42023 -7.53294 7.6
      vertex 6.1099 -6.48799 7.6
    endloop
  endfacet
  facet normal -0 0 -1
    outer loop
      vertex -6.64581 4.14 0
      vertex -5.91864 5.65 0
      vertex 6.1099 4.81201 0
    endloop
  endfacet
  facet normal -0.900969 0.433884 -4.89011e-09
    outer loop
      vertex -6.64581 4.14 0
      vertex -6.205 5.05536 4.8
      vertex -5.91864 5.65 0
    endloop
  endfacet
  facet normal -0.900969 0.433884 0
    outer loop
      vertex -6.64581 4.14 0
      vertex -6.64581 4.14 4.8
      vertex -6.205 5.05536 4.8
    endloop
  endfacet
  facet normal -0 0 1
    outer loop
      vertex -6.64581 4.14 4.8
      vertex -6.205 2.55144 4.8
      vertex -6.205 5.05536 4.8
    endloop
  endfacet
  facet normal -0.900969 -0.433884 0
    outer loop
      vertex -6.64581 7.16 0
      vertex -5.91864 5.65 0
      vertex -6.64581 7.16 7.6
    endloop
  endfacet
  facet normal -0 0 -1
    outer loop
      vertex -6.64581 7.16 0
      vertex 10.7477 9.63975 0
      vertex 7.42023 7.53294 0
    endloop
  endfacet
  facet normal 0 0 -1
    outer loop
      vertex -6.64581 7.16 0
      vertex 6.1099 6.48799 0
      vertex -5.91864 5.65 0
    endloop
  endfacet
  facet normal 0 0 -1
    outer loop
      vertex -6.64581 7.16 0
      vertex 7.42023 7.53294 0
      vertex 6.1099 6.48799 0
    endloop
  endfacet
  facet normal -0.900969 -0.433884 0
    outer loop
      vertex -6.64581 7.16 7.6
      vertex -5.91864 5.65 0
      vertex -5.91864 5.65 7.6
    endloop
  endfacet
  facet normal 0 0 1
    outer loop
      vertex -6.64581 7.16 7.6
      vertex -5.91864 5.65 7.6
      vertex 6.1099 6.48799 7.6
    endloop
  endfacet
  facet normal -0 0 1
    outer loop
      vertex -6.64581 7.16 7.6
      vertex 6.1099 6.48799 7.6
      vertex 7.42023 7.53294 7.6
    endloop
  endfacet
  facet normal 0 0 1
    outer loop
      vertex -6.64581 7.16 7.6
      vertex 7.42023 7.53294 7.6
      vertex 10.7477 9.63975 7.6
    endloop
  endfacet
  facet normal -0.222521 -0.974928 -0
    outer loop
      vertex -8.27977 -3.76706 0
      vertex -6.64581 -4.14 0
      vertex -6.64581 -4.14 4.8
    endloop
  endfacet
  facet normal -0.222521 -0.974928 0
    outer loop
      vertex -8.27977 -3.76706 0
      vertex -6.64581 -4.14 4.8
      vertex -8.27977 -3.76706 4.8
    endloop
  endfacet
  facet normal 0 0 -1
    outer loop
      vertex -8.27977 -3.76706 0
      vertex -6.64581 4.14 0
      vertex -6.64581 -4.14 0
    endloop
  endfacet
  facet normal 0 0 -1
    outer loop
      vertex -8.27977 -3.76706 0
      vertex -8.27977 3.76706 0
      vertex -6.64581 4.14 0
    endloop
  endfacet
  facet normal 0 0 1
    outer loop
      vertex -8.27977 -3.76706 4.8
      vertex -6.64581 -4.14 4.8
      vertex -6.205 -2.55144 4.8
    endloop
  endfacet
  facet normal -0.222521 0.974928 0
    outer loop
      vertex -8.27977 -7.53294 0
      vertex -8.27977 -7.53294 7.6
      vertex -6.64581 -7.16 0
    endloop
  endfacet
  facet normal -0.222521 0.974928 0
    outer loop
      vertex -8.27977 -7.53294 7.6
      vertex -6.64581 -7.16 7.6
      vertex -6.64581 -7.16 0
    endloop
  endfacet
  facet normal -0.222521 0.974928 0
    outer loop
      vertex -8.27977 3.76706 0
      vertex -8.27977 3.76706 4.8
      vertex -6.64581 4.14 0
    endloop
  endfacet
  facet normal -0 0 1
    outer loop
      vertex -8.27977 3.76706 4.8
      vertex -6.205 2.55144 4.8
      vertex -6.64581 4.14 4.8
    endloop
  endfacet
  facet normal -0.222521 0.974928 0
    outer loop
      vertex -8.27977 3.76706 4.8
      vertex -6.64581 4.14 4.8
      vertex -6.64581 4.14 0
    endloop
  endfacet
  facet normal -0.222521 -0.974928 -0
    outer loop
      vertex -8.27977 7.53294 0
      vertex -6.64581 7.16 0
      vertex -6.64581 7.16 7.6
    endloop
  endfacet
  facet normal -0.222521 -0.974928 0
    outer loop
      vertex -8.27977 7.53294 0
      vertex -6.64581 7.16 7.6
      vertex -8.27977 7.53294 7.6
    endloop
  endfacet
  facet normal -0 0 1
    outer loop
      vertex -9.495 -2.55144 4.8
      vertex -8.27977 -3.76706 4.8
      vertex -6.205 -2.55144 4.8
    endloop
  endfacet
  facet normal 0.623489 -0.781832 0
    outer loop
      vertex -9.495 -4.73618 4.8
      vertex -8.27977 -3.76706 0
      vertex -8.27977 -3.76706 4.8
    endloop
  endfacet
  facet normal 0 0 1
    outer loop
      vertex -9.495 -4.73618 4.8
      vertex -8.27977 -3.76706 4.8
      vertex -9.495 -2.55144 4.8
    endloop
  endfacet
  facet normal 1 0 0
    outer loop
      vertex -9.495 -4.73618 4.8
      vertex -9.495 -2.55144 4.8
      vertex -9.495 -2.7188 4.93111
    endloop
  endfacet
  facet normal 1 0 0
    outer loop
      vertex -9.495 -4.73618 4.8
      vertex -9.495 -2.7188 4.93111
      vertex -9.495 -3.06889 5.2812
    endloop
  endfacet
  facet normal 1 0 0
    outer loop
      vertex -9.495 -4.73618 4.8
      vertex -9.495 -3.06889 5.2812
      vertex -9.495 -3.37422 5.67094
    endloop
  endfacet
  facet normal 1 0 0
    outer loop
      vertex -9.495 -4.73618 4.8
      vertex -9.495 -3.37422 5.67094
      vertex -9.495 -3.63036 6.09463
    endloop
  endfacet
  facet normal 1 0 0
    outer loop
      vertex -9.495 -4.73618 4.8
      vertex -9.495 -3.63036 6.09463
      vertex -9.495 -3.83356 6.54613
    endloop
  endfacet
  facet normal 1 0 0
    outer loop
      vertex -9.495 -4.73618 4.8
      vertex -9.495 -3.83356 6.54613
      vertex -9.495 -4.73618 7.6
    endloop
  endfacet
  facet normal 1 0 0
    outer loop
      vertex -9.495 -4.73618 7.6
      vertex -9.495 -3.83356 6.54613
      vertex -9.495 -3.98085 7.01881
    endloop
  endfacet
  facet normal 1 0 0
    outer loop
      vertex -9.495 -4.73618 7.6
      vertex -9.495 -3.98085 7.01881
      vertex -9.495 -4.0701 7.50581
    endloop
  endfacet
  facet normal 1 0 0
    outer loop
      vertex -9.495 -4.73618 7.6
      vertex -9.495 -4.0701 7.50581
      vertex -9.495 -4.07491 7.58532
    endloop
  endfacet
  facet normal 1 -0 0
    outer loop
      vertex -9.495 -4.73618 7.6
      vertex -9.495 -4.07491 7.58532
      vertex -9.495 -4.0758 7.6
    endloop
  endfacet
  facet normal 0 0 1
    outer loop
      vertex -9.495 2.55144 4.8
      vertex -6.205 2.55144 4.8
      vertex -8.27977 3.76706 4.8
    endloop
  endfacet
  facet normal 0 0 1
    outer loop
      vertex -9.495 2.55144 4.8
      vertex -8.27977 3.76706 4.8
      vertex -9.495 4.73618 4.8
    endloop
  endfacet
  facet normal 1 0 0
    outer loop
      vertex -9.495 2.55144 4.8
      vertex -9.495 4.73618 4.8
      vertex -9.495 2.7188 4.93111
    endloop
  endfacet
  facet normal 1 -0 0
    outer loop
      vertex -9.495 2.7188 4.93111
      vertex -9.495 4.73618 4.8
      vertex -9.495 3.06889 5.2812
    endloop
  endfacet
  facet normal 1 -0 0
    outer loop
      vertex -9.495 3.06889 5.2812
      vertex -9.495 4.73618 4.8
      vertex -9.495 3.37422 5.67094
    endloop
  endfacet
  facet normal 1 -0 0
    outer loop
      vertex -9.495 3.37422 5.67094
      vertex -9.495 4.73618 4.8
      vertex -9.495 3.63036 6.09463
    endloop
  endfacet
  facet normal 1 -0 0
    outer loop
      vertex -9.495 3.63036 6.09463
      vertex -9.495 4.73618 4.8
      vertex -9.495 3.83356 6.54613
    endloop
  endfacet
  facet normal 1 0 0
    outer loop
      vertex -9.495 3.83356 6.54613
      vertex -9.495 4.73618 4.8
      vertex -9.495 4.73618 7.6
    endloop
  endfacet
  facet normal 1 0 0
    outer loop
      vertex -9.495 3.83356 6.54613
      vertex -9.495 4.73618 7.6
      vertex -9.495 3.98085 7.01881
    endloop
  endfacet
  facet normal 1 0 0
    outer loop
      vertex -9.495 3.98085 7.01881
      vertex -9.495 4.73618 7.6
      vertex -9.495 4.0701 7.50581
    endloop
  endfacet
  facet normal 1 0 0
    outer loop
      vertex -9.495 4.0701 7.50581
      vertex -9.495 4.73618 7.6
      vertex -9.495 4.0758 7.6
    endloop
  endfacet
  facet normal 0.623489 0.781832 0
    outer loop
      vertex -9.495 4.73618 4.8
      vertex -8.27977 3.76706 4.8
      vertex -8.27977 3.76706 0
    endloop
  endfacet
  facet normal 0.62349 -0.781832 3.00709e-08
    outer loop
      vertex -9.5901 -4.81201 0
      vertex -8.27977 -3.76706 0
      vertex -9.495 -4.73618 4.8
    endloop
  endfacet
  facet normal 0 0 -1
    outer loop
      vertex -9.5901 -4.81201 0
      vertex -8.27977 3.76706 0
      vertex -8.27977 -3.76706 0
    endloop
  endfacet
  facet normal 0.62349 -0.781831 0
    outer loop
      vertex -9.5901 -4.81201 0
      vertex -9.495 -4.73618 4.8
      vertex -9.5901 -4.81201 7.6
    endloop
  endfacet
  facet normal -0 0 -1
    outer loop
      vertex -9.5901 -4.81201 0
      vertex -9.5901 4.81201 0
      vertex -8.27977 3.76706 0
    endloop
  endfacet
  facet normal 0.62349 -0.781831 0
    outer loop
      vertex -9.5901 -4.81201 7.6
      vertex -9.495 -4.73618 4.8
      vertex -9.495 -4.73618 7.6
    endloop
  endfacet
  facet normal 0 0 1
    outer loop
      vertex -9.5901 -4.81201 7.6
      vertex -9.495 -4.73618 7.6
      vertex -9.495 -4.0758 7.6
    endloop
  endfacet
  facet normal 1 0 0
    outer loop
      vertex -9.5901 -6.48799 0
      vertex -9.5901 -4.81201 0
      vertex -9.5901 -6.48799 7.6
    endloop
  endfacet
  facet normal 0.62349 0.781831 0
    outer loop
      vertex -9.5901 -6.48799 0
      vertex -9.5901 -6.48799 7.6
      vertex -8.27977 -7.53294 0
    endloop
  endfacet
  facet normal 0.62349 0.781831 -0
    outer loop
      vertex -9.5901 -6.48799 7.6
      vertex -8.27977 -7.53294 7.6
      vertex -8.27977 -7.53294 0
    endloop
  endfacet
  facet normal 1 -0 0
    outer loop
      vertex -9.5901 -6.48799 7.6
      vertex -9.5901 -4.81201 0
      vertex -9.5901 -4.81201 7.6
    endloop
  endfacet
  facet normal 0.62349 0.781832 3.00709e-08
    outer loop
      vertex -9.5901 4.81201 0
      vertex -9.495 4.73618 4.8
      vertex -8.27977 3.76706 0
    endloop
  endfacet
  facet normal 0.62349 0.781831 0
    outer loop
      vertex -9.5901 4.81201 0
      vertex -9.5901 4.81201 7.6
      vertex -9.495 4.73618 4.8
    endloop
  endfacet
  facet normal 1 0 0
    outer loop
      vertex -9.5901 4.81201 0
      vertex -9.5901 6.48799 0
      vertex -9.5901 4.81201 7.6
    endloop
  endfacet
  facet normal 0 0 1
    outer loop
      vertex -9.5901 4.81201 7.6
      vertex -9.495 4.0758 7.6
      vertex -9.495 4.73618 7.6
    endloop
  endfacet
  facet normal 0.62349 0.781831 -0
    outer loop
      vertex -9.5901 4.81201 7.6
      vertex -9.495 4.73618 7.6
      vertex -9.495 4.73618 4.8
    endloop
  endfacet
  facet normal 1 -0 0
    outer loop
      vertex -9.5901 4.81201 7.6
      vertex -9.5901 6.48799 0
      vertex -9.5901 6.48799 7.6
    endloop
  endfacet
  facet normal 0.62349 -0.781831 0
    outer loop
      vertex -9.5901 6.48799 0
      vertex -8.27977 7.53294 0
      vertex -8.27977 7.53294 7.6
    endloop
  endfacet
  facet normal 0.62349 -0.781831 0
    outer loop
      vertex -9.5901 6.48799 0
      vertex -8.27977 7.53294 7.6
      vertex -9.5901 6.48799 7.6
    endloop
  endfacet
  facet normal 0.164596 0.986361 0
    outer loop
      vertex 10.7477 9.63975 0
      vertex 10.7477 9.63975 7.6
      vertex 11.2365 9.5582 0
    endloop
  endfacet
  facet normal 0.164596 0.986361 -0
    outer loop
      vertex 10.7477 9.63975 7.6
      vertex 11.2365 9.5582 7.6
      vertex 11.2365 9.5582 0
    endloop
  endfacet
  facet normal 0.324698 0.945818 0
    outer loop
      vertex 11.2365 9.5582 0
      vertex 11.2365 9.5582 7.6
      vertex 11.7051 9.39732 0
    endloop
  endfacet
  facet normal 0.324698 0.945818 -0
    outer loop
      vertex 11.2365 9.5582 7.6
      vertex 11.7051 9.39732 7.6
      vertex 11.7051 9.39732 0
    endloop
  endfacet
  facet normal 0.475947 0.879474 0
    outer loop
      vertex 11.7051 9.39732 0
      vertex 11.7051 9.39732 7.6
      vertex 12.1408 9.1615 0
    endloop
  endfacet
  facet normal 0.475947 0.879474 -0
    outer loop
      vertex 11.7051 9.39732 7.6
      vertex 12.1408 9.1615 7.6
      vertex 12.1408 9.1615 0
    endloop
  endfacet
  facet normal 0.614213 0.78914 0
    outer loop
      vertex 12.1408 9.1615 0
      vertex 12.1408 9.1615 7.6
      vertex 12.5318 8.85717 0
    endloop
  endfacet
  facet normal 0.614213 0.78914 -0
    outer loop
      vertex 12.1408 9.1615 7.6
      vertex 12.5318 8.85717 7.6
      vertex 12.5318 8.85717 0
    endloop
  endfacet
  facet normal 0.735724 0.677282 0
    outer loop
      vertex 12.5318 8.85717 0
      vertex 12.5318 8.85717 7.6
      vertex 12.8674 8.49264 7.6
    endloop
  endfacet
  facet normal 0.735724 0.677282 0
    outer loop
      vertex 12.5318 8.85717 0
      vertex 12.8674 8.49264 7.6
      vertex 12.8674 8.49264 0
    endloop
  endfacet
  facet normal 0.837166 0.546948 0
    outer loop
      vertex 12.8674 8.49264 0
      vertex 12.8674 8.49264 7.6
      vertex 13.1384 8.07784 7.6
    endloop
  endfacet
  facet normal 0.837166 0.546948 0
    outer loop
      vertex 12.8674 8.49264 0
      vertex 13.1384 8.07784 7.6
      vertex 13.1384 8.07784 0
    endloop
  endfacet
  facet normal 0.915774 0.401694 0
    outer loop
      vertex 13.1384 8.07784 0
      vertex 13.1384 8.07784 7.6
      vertex 13.3375 7.6241 7.6
    endloop
  endfacet
  facet normal 0.915774 0.401694 0
    outer loop
      vertex 13.1384 8.07784 0
      vertex 13.3375 7.6241 7.6
      vertex 13.3375 7.6241 0
    endloop
  endfacet
  facet normal 0.9694 0.245486 0
    outer loop
      vertex 13.3375 7.6241 0
      vertex 13.3375 7.6241 7.6
      vertex 13.4591 7.14378 7.6
    endloop
  endfacet
  facet normal 0.9694 0.245486 0
    outer loop
      vertex 13.3375 7.6241 0
      vertex 13.4591 7.14378 7.6
      vertex 13.4591 7.14378 0
    endloop
  endfacet
  facet normal 0.996584 0.08258 0
    outer loop
      vertex 13.4591 7.14378 0
      vertex 13.4591 7.14378 7.6
      vertex 13.5 6.65 7.6
    endloop
  endfacet
  facet normal 0.996584 0.08258 0
    outer loop
      vertex 13.4591 7.14378 0
      vertex 13.5 6.65 7.6
      vertex 13.5 6.65 0
    endloop
  endfacet
  facet normal 1 0 0
    outer loop
      vertex 13.5 -0.485362 3.92937
      vertex 13.5 6.65 0
      vertex 13.5 0 3.90001
    endloop
  endfacet
  facet normal 1 0 0
    outer loop
      vertex 13.5 -0.494186 3.9299
      vertex 13.5 6.65 0
      vertex 13.5 -0.485362 3.92937
    endloop
  endfacet
  facet normal 1 0 0
    outer loop
      vertex 13.5 -9.65 0
      vertex 13.5 -0.494186 3.9299
      vertex 13.5 -0.981186 4.01915
    endloop
  endfacet
  facet normal 1 0 0
    outer loop
      vertex 13.5 -9.65 0
      vertex 13.5 -0.981186 4.01915
      vertex 13.5 -1.45387 4.16644
    endloop
  endfacet
  facet normal 1 0 0
    outer loop
      vertex 13.5 -9.65 0
      vertex 13.5 -1.45387 4.16644
      vertex 13.5 -1.90536 4.36964
    endloop
  endfacet
  facet normal 1 0 0
    outer loop
      vertex 13.5 -9.65 0
      vertex 13.5 -1.90536 4.36964
      vertex 13.5 -2.32906 4.62578
    endloop
  endfacet
  facet normal 1 0 0
    outer loop
      vertex 13.5 -9.65 0
      vertex 13.5 -2.32906 4.62578
      vertex 13.5 -2.7188 4.93111
    endloop
  endfacet
  facet normal 1 0 0
    outer loop
      vertex 13.5 -9.65 0
      vertex 13.5 -2.7188 4.93111
      vertex 13.5 -3.06889 5.2812
    endloop
  endfacet
  facet normal 1 0 0
    outer loop
      vertex 13.5 -9.65 0
      vertex 13.5 -3.06889 5.2812
      vertex 13.5 -3.37422 5.67094
    endloop
  endfacet
  facet normal 1 0 0
    outer loop
      vertex 13.5 -9.65 0
      vertex 13.5 -3.37422 5.67094
      vertex 13.5 -3.63036 6.09464
    endloop
  endfacet
  facet normal 1 0 0
    outer loop
      vertex 13.5 -9.65 0
      vertex 13.5 -3.63036 6.09464
      vertex 13.5 -9.65 7.6
    endloop
  endfacet
  facet normal 1 0 0
    outer loop
      vertex 13.5 -9.65 0
      vertex 13.5 6.65 0
      vertex 13.5 -0.494186 3.9299
    endloop
  endfacet
  facet normal 1 0 0
    outer loop
      vertex 13.5 -9.65 7.6
      vertex 13.5 -3.63036 6.09464
      vertex 13.5 -3.83356 6.54613
    endloop
  endfacet
  facet normal 1 0 0
    outer loop
      vertex 13.5 -9.65 7.6
      vertex 13.5 -3.83356 6.54613
      vertex 13.5 -3.98085 7.01881
    endloop
  endfacet
  facet normal 1 0 0
    outer loop
      vertex 13.5 -9.65 7.6
      vertex 13.5 -3.98085 7.01881
      vertex 13.5 -4.0701 7.50581
    endloop
  endfacet
  facet normal 1 -0 0
    outer loop
      vertex 13.5 -9.65 7.6
      vertex 13.5 -4.0701 7.50581
      vertex 13.5 -4.0758 7.6
    endloop
  endfacet
  facet normal 1 -0 0
    outer loop
      vertex 13.5 0 3.90001
      vertex 13.5 6.65 0
      vertex 13.5 0.00882476 3.90054
    endloop
  endfacet
  facet normal 1 -0 0
    outer loop
      vertex 13.5 0.00882476 3.90054
      vertex 13.5 6.65 0
      vertex 13.5 0.494185 3.9299
    endloop
  endfacet
  facet normal 1 -0 0
    outer loop
      vertex 13.5 0.494185 3.9299
      vertex 13.5 6.65 0
      vertex 13.5 0.981185 4.01915
    endloop
  endfacet
  facet normal 1 -0 0
    outer loop
      vertex 13.5 0.981185 4.01915
      vertex 13.5 6.65 0
      vertex 13.5 1.45387 4.16644
    endloop
  endfacet
  facet normal 1 -0 0
    outer loop
      vertex 13.5 1.45387 4.16644
      vertex 13.5 6.65 0
      vertex 13.5 1.90536 4.36964
    endloop
  endfacet
  facet normal 1 -0 0
    outer loop
      vertex 13.5 1.90536 4.36964
      vertex 13.5 6.65 0
      vertex 13.5 2.32905 4.62578
    endloop
  endfacet
  facet normal 1 -0 0
    outer loop
      vertex 13.5 2.32905 4.62578
      vertex 13.5 6.65 0
      vertex 13.5 2.71879 4.93111
    endloop
  endfacet
  facet normal 1 -0 0
    outer loop
      vertex 13.5 2.71879 4.93111
      vertex 13.5 6.65 0
      vertex 13.5 3.06889 5.2812
    endloop
  endfacet
  facet normal 1 -0 0
    outer loop
      vertex 13.5 3.06889 5.2812
      vertex 13.5 6.65 0
      vertex 13.5 3.37422 5.67094
    endloop
  endfacet
  facet normal 1 0 0
    outer loop
      vertex 13.5 3.37422 5.67094
      vertex 13.5 6.65 0
      vertex 13.5 6.65 7.6
    endloop
  endfacet
  facet normal 1 0 0
    outer loop
      vertex 13.5 3.37422 5.67094
      vertex 13.5 6.65 7.6
      vertex 13.5 3.63035 6.09464
    endloop
  endfacet
  facet normal 1 0 0
    outer loop
      vertex 13.5 3.63035 6.09464
      vertex 13.5 6.65 7.6
      vertex 13.5 3.83356 6.54613
    endloop
  endfacet
  facet normal 1 0 0
    outer loop
      vertex 13.5 3.83356 6.54613
      vertex 13.5 6.65 7.6
      vertex 13.5 3.98085 7.01881
    endloop
  endfacet
  facet normal 1 0 0
    outer loop
      vertex 13.5 3.98085 7.01881
      vertex 13.5 6.65 7.6
      vertex 13.5 4.0701 7.50581
    endloop
  endfacet
  facet normal 1 0 0
    outer loop
      vertex 13.5 4.0701 7.50581
      vertex 13.5 6.65 7.6
      vertex 13.5 4.0758 7.6
    endloop
  endfacet
  facet normal -0 0 -1
    outer loop
      vertex 6.1099 -4.81201 0
      vertex 6.1099 4.81201 0
      vertex 7.42023 3.76706 0
    endloop
  endfacet
  facet normal 0.623489 -0.781832 0
    outer loop
      vertex 6.1099 -4.81201 0
      vertex 6.205 -4.73618 4.8
      vertex 6.1099 -4.81201 7.6
    endloop
  endfacet
  facet normal 0.62349 -0.781832 -1.61374e-08
    outer loop
      vertex 6.1099 -4.81201 0
      vertex 7.42023 -3.76706 0
      vertex 6.205 -4.73618 4.8
    endloop
  endfacet
  facet normal 0 0 -1
    outer loop
      vertex 6.1099 -4.81201 0
      vertex 7.42023 3.76706 0
      vertex 7.42023 -3.76706 0
    endloop
  endfacet
  facet normal 0.623489 -0.781832 0
    outer loop
      vertex 6.1099 -4.81201 7.6
      vertex 6.205 -4.73618 4.8
      vertex 6.205 -4.73618 7.6
    endloop
  endfacet
  facet normal 0 0 1
    outer loop
      vertex 6.1099 -4.81201 7.6
      vertex 6.205 -4.73618 7.6
      vertex 6.205 -4.0758 7.6
    endloop
  endfacet
  facet normal 1 0 0
    outer loop
      vertex 6.1099 -6.48799 0
      vertex 6.1099 -4.81201 0
      vertex 6.1099 -6.48799 7.6
    endloop
  endfacet
  facet normal 0.62349 0.781831 0
    outer loop
      vertex 6.1099 -6.48799 0
      vertex 6.1099 -6.48799 7.6
      vertex 7.42023 -7.53294 0
    endloop
  endfacet
  facet normal 1 -0 0
    outer loop
      vertex 6.1099 -6.48799 7.6
      vertex 6.1099 -4.81201 0
      vertex 6.1099 -4.81201 7.6
    endloop
  endfacet
  facet normal 0.62349 0.781831 -0
    outer loop
      vertex 6.1099 -6.48799 7.6
      vertex 7.42023 -7.53294 7.6
      vertex 7.42023 -7.53294 0
    endloop
  endfacet
  facet normal 0.623489 0.781832 0
    outer loop
      vertex 6.1099 4.81201 0
      vertex 6.1099 4.81201 7.6
      vertex 6.205 4.73618 4.8
    endloop
  endfacet
  facet normal 1 0 0
    outer loop
      vertex 6.1099 4.81201 0
      vertex 6.1099 6.48799 0
      vertex 6.1099 4.81201 7.6
    endloop
  endfacet
  facet normal 0.62349 0.781832 -1.61374e-08
    outer loop
      vertex 6.1099 4.81201 0
      vertex 6.205 4.73618 4.8
      vertex 7.42023 3.76706 0
    endloop
  endfacet
  facet normal 1 -0 0
    outer loop
      vertex 6.1099 4.81201 7.6
      vertex 6.1099 6.48799 0
      vertex 6.1099 6.48799 7.6
    endloop
  endfacet
  facet normal 0 0 1
    outer loop
      vertex 6.1099 4.81201 7.6
      vertex 6.205 4.0758 7.6
      vertex 6.205 4.73618 7.6
    endloop
  endfacet
  facet normal 0.623489 0.781832 -0
    outer loop
      vertex 6.1099 4.81201 7.6
      vertex 6.205 4.73618 7.6
      vertex 6.205 4.73618 4.8
    endloop
  endfacet
  facet normal 0.62349 -0.781831 0
    outer loop
      vertex 6.1099 6.48799 0
      vertex 7.42023 7.53294 0
      vertex 7.42023 7.53294 7.6
    endloop
  endfacet
  facet normal 0.62349 -0.781831 0
    outer loop
      vertex 6.1099 6.48799 0
      vertex 7.42023 7.53294 7.6
      vertex 6.1099 6.48799 7.6
    endloop
  endfacet
  facet normal -0 0 1
    outer loop
      vertex 6.205 -2.55144 4.8
      vertex 7.42023 -3.76706 4.8
      vertex 9.495 -2.55144 4.8
    endloop
  endfacet
  facet normal 0 0.616702 0.787197
    outer loop
      vertex 6.205 -2.55144 4.8
      vertex 9.495 -2.55144 4.8
      vertex 13.5 -2.32906 4.62578
    endloop
  endfacet
  facet normal 1 0 0
    outer loop
      vertex 6.205 -4.73618 4.8
      vertex 6.205 -2.55144 4.8
      vertex 6.205 -2.7188 4.93111
    endloop
  endfacet
  facet normal 1 0 0
    outer loop
      vertex 6.205 -4.73618 4.8
      vertex 6.205 -2.7188 4.93111
      vertex 6.205 -3.06889 5.2812
    endloop
  endfacet
  facet normal 1 0 0
    outer loop
      vertex 6.205 -4.73618 4.8
      vertex 6.205 -3.06889 5.2812
      vertex 6.205 -3.37422 5.67094
    endloop
  endfacet
  facet normal 1 0 0
    outer loop
      vertex 6.205 -4.73618 4.8
      vertex 6.205 -3.37422 5.67094
      vertex 6.205 -3.63036 6.09463
    endloop
  endfacet
  facet normal 1 0 0
    outer loop
      vertex 6.205 -4.73618 4.8
      vertex 6.205 -3.63036 6.09463
      vertex 6.205 -3.83356 6.54613
    endloop
  endfacet
  facet normal 1 0 0
    outer loop
      vertex 6.205 -4.73618 4.8
      vertex 6.205 -3.83356 6.54613
      vertex 6.205 -4.73618 7.6
    endloop
  endfacet
  facet normal 0.62349 -0.781832 0
    outer loop
      vertex 6.205 -4.73618 4.8
      vertex 7.42023 -3.76706 0
      vertex 7.42023 -3.76706 4.8
    endloop
  endfacet
  facet normal 0 0 1
    outer loop
      vertex 6.205 -4.73618 4.8
      vertex 7.42023 -3.76706 4.8
      vertex 6.205 -2.55144 4.8
    endloop
  endfacet
  facet normal 1 0 0
    outer loop
      vertex 6.205 -4.73618 7.6
      vertex 6.205 -3.83356 6.54613
      vertex 6.205 -3.98085 7.01881
    endloop
  endfacet
  facet normal 1 0 0
    outer loop
      vertex 6.205 -4.73618 7.6
      vertex 6.205 -3.98085 7.01881
      vertex 6.205 -4.0701 7.50581
    endloop
  endfacet
  facet normal 1 -0 0
    outer loop
      vertex 6.205 -4.73618 7.6
      vertex 6.205 -4.0701 7.50581
      vertex 6.205 -4.0758 7.6
    endloop
  endfacet
  facet normal -4.46909e-08 -0.616702 0.787197
    outer loop
      vertex 6.205 2.55144 4.8
      vertex 13.5 2.32905 4.62578
      vertex 9.495 2.55144 4.8
    endloop
  endfacet
  facet normal 1 0 0
    outer loop
      vertex 6.205 2.55144 4.8
      vertex 6.205 4.73618 4.8
      vertex 6.205 2.7188 4.93111
    endloop
  endfacet
  facet normal 0 0 1
    outer loop
      vertex 6.205 2.55144 4.8
      vertex 7.42023 3.76706 4.8
      vertex 6.205 4.73618 4.8
    endloop
  endfacet
  facet normal 0 0 1
    outer loop
      vertex 6.205 2.55144 4.8
      vertex 9.495 2.55144 4.8
      vertex 7.42023 3.76706 4.8
    endloop
  endfacet
  facet normal 1 -0 0
    outer loop
      vertex 6.205 2.7188 4.93111
      vertex 6.205 4.73618 4.8
      vertex 6.205 3.06889 5.2812
    endloop
  endfacet
  facet normal 1 -0 0
    outer loop
      vertex 6.205 3.06889 5.2812
      vertex 6.205 4.73618 4.8
      vertex 6.205 3.37422 5.67094
    endloop
  endfacet
  facet normal 1 -0 0
    outer loop
      vertex 6.205 3.37422 5.67094
      vertex 6.205 4.73618 4.8
      vertex 6.205 3.63036 6.09463
    endloop
  endfacet
  facet normal 1 -0 0
    outer loop
      vertex 6.205 3.63036 6.09463
      vertex 6.205 4.73618 4.8
      vertex 6.205 3.83356 6.54613
    endloop
  endfacet
  facet normal 1 0 0
    outer loop
      vertex 6.205 3.83356 6.54613
      vertex 6.205 4.73618 4.8
      vertex 6.205 4.73618 7.6
    endloop
  endfacet
  facet normal 1 0 0
    outer loop
      vertex 6.205 3.83356 6.54613
      vertex 6.205 4.73618 7.6
      vertex 6.205 3.98085 7.01881
    endloop
  endfacet
  facet normal 1 0 0
    outer loop
      vertex 6.205 3.98085 7.01881
      vertex 6.205 4.73618 7.6
      vertex 6.205 4.0701 7.50581
    endloop
  endfacet
  facet normal 1 0 0
    outer loop
      vertex 6.205 4.0701 7.50581
      vertex 6.205 4.73618 7.6
      vertex 6.205 4.0758 7.6
    endloop
  endfacet
  facet normal 0.62349 0.781832 0
    outer loop
      vertex 6.205 4.73618 4.8
      vertex 7.42023 3.76706 4.8
      vertex 7.42023 3.76706 0
    endloop
  endfacet
  facet normal 0 0 -1
    outer loop
      vertex 7.42023 -3.76706 0
      vertex 7.42023 3.76706 0
      vertex 9.05418 4.14 0
    endloop
  endfacet
  facet normal -0.222521 -0.974928 -0
    outer loop
      vertex 7.42023 -3.76706 0
      vertex 9.05418 -4.14 0
      vertex 9.05418 -4.14 4.8
    endloop
  endfacet
  facet normal -0.222521 -0.974928 0
    outer loop
      vertex 7.42023 -3.76706 0
      vertex 9.05418 -4.14 4.8
      vertex 7.42023 -3.76706 4.8
    endloop
  endfacet
  facet normal 0 0 -1
    outer loop
      vertex 7.42023 -3.76706 0
      vertex 9.05418 4.14 0
      vertex 9.05418 -4.14 0
    endloop
  endfacet
  facet normal 0 0 1
    outer loop
      vertex 7.42023 -3.76706 4.8
      vertex 9.05418 -4.14 4.8
      vertex 9.495 -2.55144 4.8
    endloop
  endfacet
  facet normal -0.222521 0.974928 0
    outer loop
      vertex 7.42023 -7.53294 0
      vertex 7.42023 -7.53294 7.6
      vertex 9.05418 -7.16 0
    endloop
  endfacet
  facet normal 0 0 -1
    outer loop
      vertex 7.42023 -7.53294 0
      vertex 9.05418 -7.16 0
      vertex 13.5 -9.65 0
    endloop
  endfacet
  facet normal -0 0 1
    outer loop
      vertex 7.42023 -7.53294 7.6
      vertex 13.5 -9.65 7.6
      vertex 9.05418 -7.16 7.6
    endloop
  endfacet
  facet normal -0.222521 0.974928 0
    outer loop
      vertex 7.42023 -7.53294 7.6
      vertex 9.05418 -7.16 7.6
      vertex 9.05418 -7.16 0
    endloop
  endfacet
  facet normal -0.222521 0.974928 0
    outer loop
      vertex 7.42023 3.76706 0
      vertex 7.42023 3.76706 4.8
      vertex 9.05418 4.14 0
    endloop
  endfacet
  facet normal -0.222521 0.974928 0
    outer loop
      vertex 7.42023 3.76706 4.8
      vertex 9.05418 4.14 4.8
      vertex 9.05418 4.14 0
    endloop
  endfacet
  facet normal -0 0 1
    outer loop
      vertex 7.42023 3.76706 4.8
      vertex 9.495 2.55144 4.8
      vertex 9.05418 4.14 4.8
    endloop
  endfacet
  facet normal 0 0 -1
    outer loop
      vertex 7.42023 7.53294 0
      vertex 10.7477 9.63975 0
      vertex 9.05418 7.16 0
    endloop
  endfacet
  facet normal -0.222521 -0.974928 -0
    outer loop
      vertex 7.42023 7.53294 0
      vertex 9.05418 7.16 0
      vertex 9.05418 7.16 7.6
    endloop
  endfacet
  facet normal -0.222521 -0.974928 0
    outer loop
      vertex 7.42023 7.53294 0
      vertex 9.05418 7.16 7.6
      vertex 7.42023 7.53294 7.6
    endloop
  endfacet
  facet normal 0 0 1
    outer loop
      vertex 7.42023 7.53294 7.6
      vertex 9.05418 7.16 7.6
      vertex 10.7477 9.63975 7.6
    endloop
  endfacet
  facet normal 0 0 -1
    outer loop
      vertex 9.05418 -4.14 0
      vertex 13.5 6.65 0
      vertex 9.78136 -5.65 0
    endloop
  endfacet
  facet normal 0 0 -1
    outer loop
      vertex 9.05418 -4.14 0
      vertex 9.05418 4.14 0
      vertex 13.5 6.65 0
    endloop
  endfacet
  facet normal -0.900969 -0.433884 0
    outer loop
      vertex 9.05418 -4.14 0
      vertex 9.495 -5.05536 4.8
      vertex 9.05418 -4.14 4.8
    endloop
  endfacet
  facet normal -0.900969 -0.433884 1.70635e-09
    outer loop
      vertex 9.05418 -4.14 0
      vertex 9.78136 -5.65 0
      vertex 9.495 -5.05536 4.8
    endloop
  endfacet
  facet normal 0 0 1
    outer loop
      vertex 9.05418 -4.14 4.8
      vertex 9.495 -5.05536 4.8
      vertex 9.495 -2.55144 4.8
    endloop
  endfacet
  facet normal -0.900969 0.433884 0
    outer loop
      vertex 9.05418 -7.16 0
      vertex 9.05418 -7.16 7.6
      vertex 9.78136 -5.65 7.6
    endloop
  endfacet
  facet normal 0 0 -1
    outer loop
      vertex 9.05418 -7.16 0
      vertex 9.78136 -5.65 0
      vertex 13.5 -9.65 0
    endloop
  endfacet
  facet normal -0.900969 0.433884 0
    outer loop
      vertex 9.05418 -7.16 0
      vertex 9.78136 -5.65 7.6
      vertex 9.78136 -5.65 0
    endloop
  endfacet
  facet normal -0 0 1
    outer loop
      vertex 9.05418 -7.16 7.6
      vertex 13.5 -9.65 7.6
      vertex 9.78136 -5.65 7.6
    endloop
  endfacet
  facet normal -0.900969 0.433884 0
    outer loop
      vertex 9.05418 4.14 0
      vertex 9.05418 4.14 4.8
      vertex 9.495 5.05536 4.8
    endloop
  endfacet
  facet normal -0.900969 0.433884 1.70635e-09
    outer loop
      vertex 9.05418 4.14 0
      vertex 9.495 5.05536 4.8
      vertex 9.78136 5.65 0
    endloop
  endfacet
  facet normal 0 0 -1
    outer loop
      vertex 9.05418 4.14 0
      vertex 9.78136 5.65 0
      vertex 13.5 6.65 0
    endloop
  endfacet
  facet normal -0 0 1
    outer loop
      vertex 9.05418 4.14 4.8
      vertex 9.495 2.55144 4.8
      vertex 9.495 5.05536 4.8
    endloop
  endfacet
  facet normal -0 0 -1
    outer loop
      vertex 9.05418 7.16 0
      vertex 10.7477 9.63975 0
      vertex 11.2365 9.5582 0
    endloop
  endfacet
  facet normal -0 0 -1
    outer loop
      vertex 9.05418 7.16 0
      vertex 11.2365 9.5582 0
      vertex 11.7051 9.39732 0
    endloop
  endfacet
  facet normal -0 0 -1
    outer loop
      vertex 9.05418 7.16 0
      vertex 11.7051 9.39732 0
      vertex 12.1408 9.1615 0
    endloop
  endfacet
  facet normal -0 0 -1
    outer loop
      vertex 9.05418 7.16 0
      vertex 12.1408 9.1615 0
      vertex 12.5318 8.85717 0
    endloop
  endfacet
  facet normal 0 0 -1
    outer loop
      vertex 9.05418 7.16 0
      vertex 12.5318 8.85717 0
      vertex 9.78136 5.65 0
    endloop
  endfacet
  facet normal -0.900969 -0.433884 0
    outer loop
      vertex 9.05418 7.16 0
      vertex 9.78136 5.65 0
      vertex 9.05418 7.16 7.6
    endloop
  endfacet
  facet normal 0 0 1
    outer loop
      vertex 9.05418 7.16 7.6
      vertex 11.2365 9.5582 7.6
      vertex 10.7477 9.63975 7.6
    endloop
  endfacet
  facet normal 0 0 1
    outer loop
      vertex 9.05418 7.16 7.6
      vertex 11.7051 9.39732 7.6
      vertex 11.2365 9.5582 7.6
    endloop
  endfacet
  facet normal 0 0 1
    outer loop
      vertex 9.05418 7.16 7.6
      vertex 12.1408 9.1615 7.6
      vertex 11.7051 9.39732 7.6
    endloop
  endfacet
  facet normal 0 0 1
    outer loop
      vertex 9.05418 7.16 7.6
      vertex 12.5318 8.85717 7.6
      vertex 12.1408 9.1615 7.6
    endloop
  endfacet
  facet normal -0.900969 -0.433884 0
    outer loop
      vertex 9.05418 7.16 7.6
      vertex 9.78136 5.65 0
      vertex 9.78136 5.65 7.6
    endloop
  endfacet
  facet normal 0 0 1
    outer loop
      vertex 9.05418 7.16 7.6
      vertex 9.78136 5.65 7.6
      vertex 12.5318 8.85717 7.6
    endloop
  endfacet
  facet normal -1.58849e-08 0.616702 0.787197
    outer loop
      vertex 9.495 -2.55144 4.8
      vertex 13.5 -2.7188 4.93111
      vertex 13.5 -2.32906 4.62578
    endloop
  endfacet
  facet normal 3.67125e-08 0.616703 0.787196
    outer loop
      vertex 9.495 -2.7188 4.93111
      vertex 13.5 -2.7188 4.93111
      vertex 9.495 -2.55144 4.8
    endloop
  endfacet
  facet normal 4.20942e-08 0.707107 0.707107
    outer loop
      vertex 9.495 -2.7188 4.93111
      vertex 13.5 -3.06889 5.2812
      vertex 13.5 -2.7188 4.93111
    endloop
  endfacet
  facet normal 4.20942e-08 0.707107 0.707107
    outer loop
      vertex 9.495 -3.06889 5.2812
      vertex 13.5 -3.06889 5.2812
      vertex 9.495 -2.7188 4.93111
    endloop
  endfacet
  facet normal 4.6862e-08 0.787197 0.616702
    outer loop
      vertex 9.495 -3.37422 5.67094
      vertex 13.5 -3.06889 5.2812
      vertex 9.495 -3.06889 5.2812
    endloop
  endfacet
  facet normal 4.6862e-08 0.787197 0.616702
    outer loop
      vertex 9.495 -3.37422 5.67094
      vertex 13.5 -3.37422 5.67094
      vertex 13.5 -3.06889 5.2812
    endloop
  endfacet
  facet normal 5.09446e-08 0.855778 0.517344
    outer loop
      vertex 9.495 -3.63036 6.09464
      vertex 13.5 -3.37422 5.67094
      vertex 9.495 -3.37422 5.67094
    endloop
  endfacet
  facet normal 5.09446e-08 0.855778 0.517344
    outer loop
      vertex 9.495 -3.63036 6.09464
      vertex 13.5 -3.63036 6.09464
      vertex 13.5 -3.37422 5.67094
    endloop
  endfacet
  facet normal 5.42856e-08 0.911899 0.410415
    outer loop
      vertex 9.495 -3.83356 6.54613
      vertex 13.5 -3.63036 6.09464
      vertex 9.495 -3.63036 6.09464
    endloop
  endfacet
  facet normal 5.42856e-08 0.911899 0.410415
    outer loop
      vertex 9.495 -3.83356 6.54613
      vertex 13.5 -3.83356 6.54613
      vertex 13.5 -3.63036 6.09464
    endloop
  endfacet
  facet normal 5.68348e-08 0.954722 0.297499
    outer loop
      vertex 9.495 -3.98085 7.01881
      vertex 13.5 -3.83356 6.54613
      vertex 9.495 -3.83356 6.54613
    endloop
  endfacet
  facet normal 5.68348e-08 0.954722 0.297499
    outer loop
      vertex 9.495 -3.98085 7.01881
      vertex 13.5 -3.98085 7.01881
      vertex 13.5 -3.83356 6.54613
    endloop
  endfacet
  facet normal 5.85551e-08 0.983619 0.180261
    outer loop
      vertex 9.495 -4.0701 7.50581
      vertex 13.5 -3.98085 7.01881
      vertex 9.495 -3.98085 7.01881
    endloop
  endfacet
  facet normal 0 0.983619 0.18026
    outer loop
      vertex 9.495 -4.0701 7.50581
      vertex 13.5 -4.0701 7.50581
      vertex 13.5 -3.98085 7.01881
    endloop
  endfacet
  facet normal 0 0.998176 0.0603741
    outer loop
      vertex 9.495 -4.0758 7.6
      vertex 13.5 -4.0701 7.50581
      vertex 9.495 -4.0701 7.50581
    endloop
  endfacet
  facet normal 1.18843e-07 0.998176 0.0603791
    outer loop
      vertex 9.495 -4.0758 7.6
      vertex 13.5 -4.0758 7.6
      vertex 13.5 -4.0701 7.50581
    endloop
  endfacet
  facet normal 0 0 1
    outer loop
      vertex 9.495 -4.0758 7.6
      vertex 9.78136 -5.65 7.6
      vertex 13.5 -4.0758 7.6
    endloop
  endfacet
  facet normal -1 0 0
    outer loop
      vertex 9.495 -5.05536 4.8
      vertex 9.495 -2.7188 4.93111
      vertex 9.495 -2.55144 4.8
    endloop
  endfacet
  facet normal -1 0 0
    outer loop
      vertex 9.495 -5.05536 4.8
      vertex 9.495 -3.06889 5.2812
      vertex 9.495 -2.7188 4.93111
    endloop
  endfacet
  facet normal -1 0 0
    outer loop
      vertex 9.495 -5.05536 4.8
      vertex 9.495 -3.37422 5.67094
      vertex 9.495 -3.06889 5.2812
    endloop
  endfacet
  facet normal -1 0 0
    outer loop
      vertex 9.495 -5.05536 4.8
      vertex 9.495 -3.63036 6.09464
      vertex 9.495 -3.37422 5.67094
    endloop
  endfacet
  facet normal -1 0 0
    outer loop
      vertex 9.495 -5.05536 4.8
      vertex 9.495 -3.83356 6.54613
      vertex 9.495 -3.63036 6.09464
    endloop
  endfacet
  facet normal -1 0 0
    outer loop
      vertex 9.495 -5.05536 4.8
      vertex 9.495 -5.05536 7.6
      vertex 9.495 -3.83356 6.54613
    endloop
  endfacet
  facet normal -0.900969 -0.433884 -0
    outer loop
      vertex 9.495 -5.05536 4.8
      vertex 9.78136 -5.65 0
      vertex 9.78136 -5.65 7.6
    endloop
  endfacet
  facet normal -0.900969 -0.433884 0
    outer loop
      vertex 9.495 -5.05536 4.8
      vertex 9.78136 -5.65 7.6
      vertex 9.495 -5.05536 7.6
    endloop
  endfacet
  facet normal -1 0 0
    outer loop
      vertex 9.495 -5.05536 7.6
      vertex 9.495 -3.98085 7.01881
      vertex 9.495 -3.83356 6.54613
    endloop
  endfacet
  facet normal -1 0 0
    outer loop
      vertex 9.495 -5.05536 7.6
      vertex 9.495 -4.0701 7.50581
      vertex 9.495 -3.98085 7.01881
    endloop
  endfacet
  facet normal -1 0 0
    outer loop
      vertex 9.495 -5.05536 7.6
      vertex 9.495 -4.0758 7.6
      vertex 9.495 -4.0701 7.50581
    endloop
  endfacet
  facet normal 0 0 1
    outer loop
      vertex 9.495 -5.05536 7.6
      vertex 9.78136 -5.65 7.6
      vertex 9.495 -4.0758 7.6
    endloop
  endfacet
  facet normal -5.25973e-08 -0.616702 0.787197
    outer loop
      vertex 9.495 2.55144 4.8
      vertex 13.5 2.32905 4.62578
      vertex 13.5 2.71879 4.93111
    endloop
  endfacet
  facet normal -3.67124e-08 -0.616702 0.787196
    outer loop
      vertex 9.495 2.55144 4.8
      vertex 13.5 2.71879 4.93111
      vertex 9.495 2.7188 4.93111
    endloop
  endfacet
  facet normal -1 0 -0
    outer loop
      vertex 9.495 2.55144 4.8
      vertex 9.495 2.7188 4.93111
      vertex 9.495 5.05536 4.8
    endloop
  endfacet
  facet normal -4.20942e-08 -0.707107 0.707107
    outer loop
      vertex 9.495 2.7188 4.93111
      vertex 13.5 2.71879 4.93111
      vertex 9.495 3.06889 5.2812
    endloop
  endfacet
  facet normal -1 0 0
    outer loop
      vertex 9.495 2.7188 4.93111
      vertex 9.495 3.06889 5.2812
      vertex 9.495 5.05536 4.8
    endloop
  endfacet
  facet normal -4.20942e-08 -0.707107 0.707107
    outer loop
      vertex 9.495 3.06889 5.2812
      vertex 13.5 2.71879 4.93111
      vertex 13.5 3.06889 5.2812
    endloop
  endfacet
  facet normal -4.6862e-08 -0.787197 0.616702
    outer loop
      vertex 9.495 3.06889 5.2812
      vertex 13.5 3.06889 5.2812
      vertex 13.5 3.37422 5.67094
    endloop
  endfacet
  facet normal -4.6862e-08 -0.787197 0.616702
    outer loop
      vertex 9.495 3.06889 5.2812
      vertex 13.5 3.37422 5.67094
      vertex 9.495 3.37422 5.67094
    endloop
  endfacet
  facet normal -1 0 0
    outer loop
      vertex 9.495 3.06889 5.2812
      vertex 9.495 3.37422 5.67094
      vertex 9.495 5.05536 4.8
    endloop
  endfacet
  facet normal -5.09446e-08 -0.855778 0.517344
    outer loop
      vertex 9.495 3.37422 5.67094
      vertex 13.5 3.37422 5.67094
      vertex 13.5 3.63035 6.09464
    endloop
  endfacet
  facet normal -5.09446e-08 -0.855778 0.517344
    outer loop
      vertex 9.495 3.37422 5.67094
      vertex 13.5 3.63035 6.09464
      vertex 9.495 3.63036 6.09464
    endloop
  endfacet
  facet normal -1 0 0
    outer loop
      vertex 9.495 3.37422 5.67094
      vertex 9.495 3.63036 6.09464
      vertex 9.495 5.05536 4.8
    endloop
  endfacet
  facet normal -5.42856e-08 -0.911899 0.410415
    outer loop
      vertex 9.495 3.63036 6.09464
      vertex 13.5 3.63035 6.09464
      vertex 13.5 3.83356 6.54613
    endloop
  endfacet
  facet normal -5.42856e-08 -0.911899 0.410415
    outer loop
      vertex 9.495 3.63036 6.09464
      vertex 13.5 3.83356 6.54613
      vertex 9.495 3.83356 6.54613
    endloop
  endfacet
  facet normal -1 0 0
    outer loop
      vertex 9.495 3.63036 6.09464
      vertex 9.495 3.83356 6.54613
      vertex 9.495 5.05536 4.8
    endloop
  endfacet
  facet normal -5.68348e-08 -0.954722 0.297499
    outer loop
      vertex 9.495 3.83356 6.54613
      vertex 13.5 3.83356 6.54613
      vertex 13.5 3.98085 7.01881
    endloop
  endfacet
  facet normal -5.68348e-08 -0.954722 0.297499
    outer loop
      vertex 9.495 3.83356 6.54613
      vertex 13.5 3.98085 7.01881
      vertex 9.495 3.98085 7.01881
    endloop
  endfacet
  facet normal -1 0 0
    outer loop
      vertex 9.495 3.83356 6.54613
      vertex 9.495 3.98085 7.01881
      vertex 9.495 5.05536 7.6
    endloop
  endfacet
  facet normal -1 0 0
    outer loop
      vertex 9.495 3.83356 6.54613
      vertex 9.495 5.05536 7.6
      vertex 9.495 5.05536 4.8
    endloop
  endfacet
  facet normal -5.85551e-08 -0.983619 0.18026
    outer loop
      vertex 9.495 3.98085 7.01881
      vertex 13.5 3.98085 7.01881
      vertex 13.5 4.0701 7.50581
    endloop
  endfacet
  facet normal 0 -0.983619 0.18026
    outer loop
      vertex 9.495 3.98085 7.01881
      vertex 13.5 4.0701 7.50581
      vertex 9.495 4.0701 7.50581
    endloop
  endfacet
  facet normal -1 0 0
    outer loop
      vertex 9.495 3.98085 7.01881
      vertex 9.495 4.0701 7.50581
      vertex 9.495 5.05536 7.6
    endloop
  endfacet
  facet normal 0 -0.998176 0.0603791
    outer loop
      vertex 9.495 4.0701 7.50581
      vertex 13.5 4.0701 7.50581
      vertex 13.5 4.0758 7.6
    endloop
  endfacet
  facet normal 0 -0.998176 0.0603791
    outer loop
      vertex 9.495 4.0701 7.50581
      vertex 13.5 4.0758 7.6
      vertex 9.495 4.0758 7.6
    endloop
  endfacet
  facet normal -1 -0 0
    outer loop
      vertex 9.495 4.0701 7.50581
      vertex 9.495 4.0758 7.6
      vertex 9.495 5.05536 7.6
    endloop
  endfacet
  facet normal 0 0 1
    outer loop
      vertex 9.495 4.0758 7.6
      vertex 13.5 4.0758 7.6
      vertex 9.78136 5.65 7.6
    endloop
  endfacet
  facet normal 0 0 1
    outer loop
      vertex 9.495 4.0758 7.6
      vertex 9.78136 5.65 7.6
      vertex 9.495 5.05536 7.6
    endloop
  endfacet
  facet normal -0.900969 0.433884 0
    outer loop
      vertex 9.495 5.05536 4.8
      vertex 9.495 5.05536 7.6
      vertex 9.78136 5.65 7.6
    endloop
  endfacet
  facet normal -0.900969 0.433884 0
    outer loop
      vertex 9.495 5.05536 4.8
      vertex 9.78136 5.65 7.6
      vertex 9.78136 5.65 0
    endloop
  endfacet
  facet normal 0 0 -1
    outer loop
      vertex 9.78136 -5.65 0
      vertex 13.5 6.65 0
      vertex 13.5 -9.65 0
    endloop
  endfacet
  facet normal 0 0 1
    outer loop
      vertex 9.78136 -5.65 7.6
      vertex 13.5 -9.65 7.6
      vertex 13.5 -4.0758 7.6
    endloop
  endfacet
  facet normal -0 0 -1
    outer loop
      vertex 9.78136 5.65 0
      vertex 12.5318 8.85717 0
      vertex 12.8674 8.49264 0
    endloop
  endfacet
  facet normal -0 0 -1
    outer loop
      vertex 9.78136 5.65 0
      vertex 12.8674 8.49264 0
      vertex 13.1384 8.07784 0
    endloop
  endfacet
  facet normal -0 0 -1
    outer loop
      vertex 9.78136 5.65 0
      vertex 13.1384 8.07784 0
      vertex 13.3375 7.6241 0
    endloop
  endfacet
  facet normal -0 0 -1
    outer loop
      vertex 9.78136 5.65 0
      vertex 13.3375 7.6241 0
      vertex 13.4591 7.14378 0
    endloop
  endfacet
  facet normal -0 0 -1
    outer loop
      vertex 9.78136 5.65 0
      vertex 13.4591 7.14378 0
      vertex 13.5 6.65 0
    endloop
  endfacet
  facet normal 0 0 1
    outer loop
      vertex 9.78136 5.65 7.6
      vertex 12.8674 8.49264 7.6
      vertex 12.5318 8.85717 7.6
    endloop
  endfacet
  facet normal 0 0 1
    outer loop
      vertex 9.78136 5.65 7.6
      vertex 13.1384 8.07784 7.6
      vertex 12.8674 8.49264 7.6
    endloop
  endfacet
  facet normal 0 0 1
    outer loop
      vertex 9.78136 5.65 7.6
      vertex 13.3375 7.6241 7.6
      vertex 13.1384 8.07784 7.6
    endloop
  endfacet
  facet normal 0 0 1
    outer loop
      vertex 9.78136 5.65 7.6
      vertex 13.4591 7.14378 7.6
      vertex 13.3375 7.6241 7.6
    endloop
  endfacet
  facet normal 0 0 1
    outer loop
      vertex 9.78136 5.65 7.6
      vertex 13.5 4.0758 7.6
      vertex 13.5 6.65 7.6
    endloop
  endfacet
  facet normal 0 0 1
    outer loop
      vertex 9.78136 5.65 7.6
      vertex 13.5 6.65 7.6
      vertex 13.4591 7.14378 7.6
    endloop
  endfacet
endsolid OpenSCAD_Model
